%TF.GenerationSoftware,KiCad,Pcbnew,(6.0.7)*%
%TF.CreationDate,2022-09-13T00:00:18-06:00*%
%TF.ProjectId,MiniMageSpells-panel,4d696e69-4d61-4676-9553-70656c6c732d,1.1*%
%TF.SameCoordinates,Original*%
%TF.FileFunction,Legend,Bot*%
%TF.FilePolarity,Positive*%
%FSLAX46Y46*%
G04 Gerber Fmt 4.6, Leading zero omitted, Abs format (unit mm)*
G04 Created by KiCad (PCBNEW (6.0.7)) date 2022-09-13 00:00:18*
%MOMM*%
%LPD*%
G01*
G04 APERTURE LIST*
%ADD10C,0.150000*%
%ADD11C,0.400000*%
%ADD12C,0.300000*%
%ADD13C,0.120000*%
G04 APERTURE END LIST*
D10*
X52206429Y-58741194D02*
X51416429Y-58741194D01*
X100674179Y-58741194D02*
X99884179Y-58741194D01*
X197609679Y-58741194D02*
X196819679Y-58741194D01*
X149141929Y-58741194D02*
X148351929Y-58741194D01*
X72713303Y-120138376D02*
X73503303Y-120138376D01*
X121181053Y-120138376D02*
X121971053Y-120138376D01*
X24245553Y-120138376D02*
X25035553Y-120138376D01*
X169648803Y-120138376D02*
X170438803Y-120138376D01*
X23265991Y-55885814D02*
X22505991Y-56445814D01*
X71733741Y-55885814D02*
X70973741Y-56445814D01*
X168669241Y-55885814D02*
X167909241Y-56445814D01*
X120201491Y-55885814D02*
X119441491Y-56445814D01*
X101653741Y-122993756D02*
X102413741Y-122433756D01*
X150121491Y-122993756D02*
X150881491Y-122433756D01*
X53185991Y-122993756D02*
X53945991Y-122433756D01*
X198589241Y-122993756D02*
X199349241Y-122433756D01*
X53036429Y-58181194D02*
X53036429Y-59341194D01*
X101504179Y-58181194D02*
X101504179Y-59341194D01*
X198439679Y-58181194D02*
X198439679Y-59341194D01*
X149971929Y-58181194D02*
X149971929Y-59341194D01*
X71883303Y-120698376D02*
X71883303Y-119538376D01*
X120351053Y-120698376D02*
X120351053Y-119538376D01*
X23415553Y-120698376D02*
X23415553Y-119538376D01*
X168818803Y-120698376D02*
X168818803Y-119538376D01*
X52246429Y-58191194D02*
X52256429Y-59321194D01*
X100714179Y-58191194D02*
X100724179Y-59321194D01*
X197649679Y-58191194D02*
X197659679Y-59321194D01*
X149181929Y-58191194D02*
X149191929Y-59321194D01*
X72673303Y-120688376D02*
X72663303Y-119558376D01*
X121141053Y-120688376D02*
X121131053Y-119558376D01*
X24205553Y-120688376D02*
X24195553Y-119558376D01*
X169608803Y-120688376D02*
X169598803Y-119558376D01*
X22495991Y-55315814D02*
X23265991Y-55885814D01*
X70963741Y-55315814D02*
X71733741Y-55885814D01*
X167899241Y-55315814D02*
X168669241Y-55885814D01*
X119431491Y-55315814D02*
X120201491Y-55885814D01*
X102423741Y-123563756D02*
X101653741Y-122993756D01*
X150891491Y-123563756D02*
X150121491Y-122993756D01*
X53955991Y-123563756D02*
X53185991Y-122993756D01*
X199359241Y-123563756D02*
X198589241Y-122993756D01*
X23285991Y-55305814D02*
X23285991Y-56465814D01*
X71753741Y-55305814D02*
X71753741Y-56465814D01*
X168689241Y-55305814D02*
X168689241Y-56465814D01*
X120221491Y-55305814D02*
X120221491Y-56465814D01*
X101633741Y-123573756D02*
X101633741Y-122413756D01*
X150101491Y-123573756D02*
X150101491Y-122413756D01*
X53165991Y-123573756D02*
X53165991Y-122413756D01*
X198569241Y-123573756D02*
X198569241Y-122413756D01*
X53016429Y-58731194D02*
X53846429Y-58731194D01*
X101484179Y-58731194D02*
X102314179Y-58731194D01*
X198419679Y-58731194D02*
X199249679Y-58731194D01*
X149951929Y-58731194D02*
X150781929Y-58731194D01*
X71903303Y-120148376D02*
X71073303Y-120148376D01*
X120371053Y-120148376D02*
X119541053Y-120148376D01*
X23435553Y-120148376D02*
X22605553Y-120148376D01*
X168838803Y-120148376D02*
X168008803Y-120148376D01*
X23265991Y-55855814D02*
X24095991Y-55855814D01*
X71733741Y-55855814D02*
X72563741Y-55855814D01*
X168669241Y-55855814D02*
X169499241Y-55855814D01*
X120201491Y-55855814D02*
X121031491Y-55855814D01*
X101653741Y-123023756D02*
X100823741Y-123023756D01*
X150121491Y-123023756D02*
X149291491Y-123023756D01*
X53185991Y-123023756D02*
X52355991Y-123023756D01*
X198589241Y-123023756D02*
X197759241Y-123023756D01*
D11*
X38601429Y-64676194D02*
X36461429Y-64676194D01*
X87069179Y-64676194D02*
X84929179Y-64676194D01*
X184004679Y-64676194D02*
X181864679Y-64676194D01*
X135536929Y-64676194D02*
X133396929Y-64676194D01*
X86318303Y-114203376D02*
X88458303Y-114203376D01*
X134786053Y-114203376D02*
X136926053Y-114203376D01*
X37850553Y-114203376D02*
X39990553Y-114203376D01*
X183253803Y-114203376D02*
X185393803Y-114203376D01*
D10*
X22495991Y-55315814D02*
X22505991Y-56445814D01*
X70963741Y-55315814D02*
X70973741Y-56445814D01*
X167899241Y-55315814D02*
X167909241Y-56445814D01*
X119431491Y-55315814D02*
X119441491Y-56445814D01*
X102423741Y-123563756D02*
X102413741Y-122433756D01*
X150891491Y-123563756D02*
X150881491Y-122433756D01*
X53955991Y-123563756D02*
X53945991Y-122433756D01*
X199359241Y-123563756D02*
X199349241Y-122433756D01*
X53016429Y-58761194D02*
X52256429Y-59321194D01*
X101484179Y-58761194D02*
X100724179Y-59321194D01*
X198419679Y-58761194D02*
X197659679Y-59321194D01*
X149951929Y-58761194D02*
X149191929Y-59321194D01*
X71903303Y-120118376D02*
X72663303Y-119558376D01*
X120371053Y-120118376D02*
X121131053Y-119558376D01*
X23435553Y-120118376D02*
X24195553Y-119558376D01*
X168838803Y-120118376D02*
X169598803Y-119558376D01*
X52246429Y-58191194D02*
X53016429Y-58761194D01*
X100714179Y-58191194D02*
X101484179Y-58761194D01*
X197649679Y-58191194D02*
X198419679Y-58761194D01*
X149181929Y-58191194D02*
X149951929Y-58761194D01*
X72673303Y-120688376D02*
X71903303Y-120118376D01*
X121141053Y-120688376D02*
X120371053Y-120118376D01*
X24205553Y-120688376D02*
X23435553Y-120118376D01*
X169608803Y-120688376D02*
X168838803Y-120118376D01*
X22455991Y-55865814D02*
X21665991Y-55865814D01*
X70923741Y-55865814D02*
X70133741Y-55865814D01*
X167859241Y-55865814D02*
X167069241Y-55865814D01*
X119391491Y-55865814D02*
X118601491Y-55865814D01*
X102463741Y-123013756D02*
X103253741Y-123013756D01*
X150931491Y-123013756D02*
X151721491Y-123013756D01*
X53995991Y-123013756D02*
X54785991Y-123013756D01*
X199399241Y-123013756D02*
X200189241Y-123013756D01*
X46660276Y-79573194D02*
X46660276Y-78573194D01*
X46422181Y-78573194D01*
X46279324Y-78620814D01*
X46184086Y-78716052D01*
X46136467Y-78811290D01*
X46088848Y-79001766D01*
X46088848Y-79144623D01*
X46136467Y-79335099D01*
X46184086Y-79430337D01*
X46279324Y-79525575D01*
X46422181Y-79573194D01*
X46660276Y-79573194D01*
X45088848Y-79477956D02*
X45136467Y-79525575D01*
X45279324Y-79573194D01*
X45374562Y-79573194D01*
X45517419Y-79525575D01*
X45612657Y-79430337D01*
X45660276Y-79335099D01*
X45707895Y-79144623D01*
X45707895Y-79001766D01*
X45660276Y-78811290D01*
X45612657Y-78716052D01*
X45517419Y-78620814D01*
X45374562Y-78573194D01*
X45279324Y-78573194D01*
X45136467Y-78620814D01*
X45088848Y-78668433D01*
X44517419Y-79001766D02*
X44612657Y-78954147D01*
X44660276Y-78906528D01*
X44707895Y-78811290D01*
X44707895Y-78763671D01*
X44660276Y-78668433D01*
X44612657Y-78620814D01*
X44517419Y-78573194D01*
X44326943Y-78573194D01*
X44231705Y-78620814D01*
X44184086Y-78668433D01*
X44136467Y-78763671D01*
X44136467Y-78811290D01*
X44184086Y-78906528D01*
X44231705Y-78954147D01*
X44326943Y-79001766D01*
X44517419Y-79001766D01*
X44612657Y-79049385D01*
X44660276Y-79097004D01*
X44707895Y-79192242D01*
X44707895Y-79382718D01*
X44660276Y-79477956D01*
X44612657Y-79525575D01*
X44517419Y-79573194D01*
X44326943Y-79573194D01*
X44231705Y-79525575D01*
X44184086Y-79477956D01*
X44136467Y-79382718D01*
X44136467Y-79192242D01*
X44184086Y-79097004D01*
X44231705Y-79049385D01*
X44326943Y-79001766D01*
X43517419Y-78573194D02*
X43422181Y-78573194D01*
X43326943Y-78620814D01*
X43279324Y-78668433D01*
X43231705Y-78763671D01*
X43184086Y-78954147D01*
X43184086Y-79192242D01*
X43231705Y-79382718D01*
X43279324Y-79477956D01*
X43326943Y-79525575D01*
X43422181Y-79573194D01*
X43517419Y-79573194D01*
X43612657Y-79525575D01*
X43660276Y-79477956D01*
X43707895Y-79382718D01*
X43755514Y-79192242D01*
X43755514Y-78954147D01*
X43707895Y-78763671D01*
X43660276Y-78668433D01*
X43612657Y-78620814D01*
X43517419Y-78573194D01*
X42231705Y-79573194D02*
X42803133Y-79573194D01*
X42517419Y-79573194D02*
X42517419Y-78573194D01*
X42612657Y-78716052D01*
X42707895Y-78811290D01*
X42803133Y-78858909D01*
X40707895Y-79049385D02*
X40565038Y-79097004D01*
X40517419Y-79144623D01*
X40469800Y-79239861D01*
X40469800Y-79382718D01*
X40517419Y-79477956D01*
X40565038Y-79525575D01*
X40660276Y-79573194D01*
X41041229Y-79573194D01*
X41041229Y-78573194D01*
X40707895Y-78573194D01*
X40612657Y-78620814D01*
X40565038Y-78668433D01*
X40517419Y-78763671D01*
X40517419Y-78858909D01*
X40565038Y-78954147D01*
X40612657Y-79001766D01*
X40707895Y-79049385D01*
X41041229Y-79049385D01*
X39898371Y-79573194D02*
X39993610Y-79525575D01*
X40041229Y-79430337D01*
X40041229Y-78573194D01*
X39088848Y-79573194D02*
X39088848Y-79049385D01*
X39136467Y-78954147D01*
X39231705Y-78906528D01*
X39422181Y-78906528D01*
X39517419Y-78954147D01*
X39088848Y-79525575D02*
X39184086Y-79573194D01*
X39422181Y-79573194D01*
X39517419Y-79525575D01*
X39565038Y-79430337D01*
X39565038Y-79335099D01*
X39517419Y-79239861D01*
X39422181Y-79192242D01*
X39184086Y-79192242D01*
X39088848Y-79144623D01*
X38184086Y-79525575D02*
X38279324Y-79573194D01*
X38469800Y-79573194D01*
X38565038Y-79525575D01*
X38612657Y-79477956D01*
X38660276Y-79382718D01*
X38660276Y-79097004D01*
X38612657Y-79001766D01*
X38565038Y-78954147D01*
X38469800Y-78906528D01*
X38279324Y-78906528D01*
X38184086Y-78954147D01*
X37755514Y-79573194D02*
X37755514Y-78573194D01*
X37660276Y-79192242D02*
X37374562Y-79573194D01*
X37374562Y-78906528D02*
X37755514Y-79287480D01*
X36184086Y-79573194D02*
X36184086Y-78573194D01*
X35850752Y-79287480D01*
X35517419Y-78573194D01*
X35517419Y-79573194D01*
X34612657Y-79573194D02*
X34612657Y-79049385D01*
X34660276Y-78954147D01*
X34755514Y-78906528D01*
X34945991Y-78906528D01*
X35041229Y-78954147D01*
X34612657Y-79525575D02*
X34707895Y-79573194D01*
X34945991Y-79573194D01*
X35041229Y-79525575D01*
X35088848Y-79430337D01*
X35088848Y-79335099D01*
X35041229Y-79239861D01*
X34945991Y-79192242D01*
X34707895Y-79192242D01*
X34612657Y-79144623D01*
X33707895Y-78906528D02*
X33707895Y-79716052D01*
X33755514Y-79811290D01*
X33803133Y-79858909D01*
X33898371Y-79906528D01*
X34041229Y-79906528D01*
X34136467Y-79858909D01*
X33707895Y-79525575D02*
X33803133Y-79573194D01*
X33993610Y-79573194D01*
X34088848Y-79525575D01*
X34136467Y-79477956D01*
X34184086Y-79382718D01*
X34184086Y-79097004D01*
X34136467Y-79001766D01*
X34088848Y-78954147D01*
X33993610Y-78906528D01*
X33803133Y-78906528D01*
X33707895Y-78954147D01*
X32850752Y-79525575D02*
X32945991Y-79573194D01*
X33136467Y-79573194D01*
X33231705Y-79525575D01*
X33279324Y-79430337D01*
X33279324Y-79049385D01*
X33231705Y-78954147D01*
X33136467Y-78906528D01*
X32945991Y-78906528D01*
X32850752Y-78954147D01*
X32803133Y-79049385D01*
X32803133Y-79144623D01*
X33279324Y-79239861D01*
X31755514Y-78573194D02*
X31184086Y-78573194D01*
X31469800Y-79573194D02*
X31469800Y-78573194D01*
X30469800Y-79525575D02*
X30565038Y-79573194D01*
X30755514Y-79573194D01*
X30850752Y-79525575D01*
X30898371Y-79430337D01*
X30898371Y-79049385D01*
X30850752Y-78954147D01*
X30755514Y-78906528D01*
X30565038Y-78906528D01*
X30469800Y-78954147D01*
X30422181Y-79049385D01*
X30422181Y-79144623D01*
X30898371Y-79239861D01*
X29565038Y-79573194D02*
X29565038Y-79049385D01*
X29612657Y-78954147D01*
X29707895Y-78906528D01*
X29898371Y-78906528D01*
X29993610Y-78954147D01*
X29565038Y-79525575D02*
X29660276Y-79573194D01*
X29898371Y-79573194D01*
X29993610Y-79525575D01*
X30041229Y-79430337D01*
X30041229Y-79335099D01*
X29993610Y-79239861D01*
X29898371Y-79192242D01*
X29660276Y-79192242D01*
X29565038Y-79144623D01*
X29088848Y-79573194D02*
X29088848Y-78906528D01*
X29088848Y-79001766D02*
X29041229Y-78954147D01*
X28945991Y-78906528D01*
X28803133Y-78906528D01*
X28707895Y-78954147D01*
X28660276Y-79049385D01*
X28660276Y-79573194D01*
X28660276Y-79049385D02*
X28612657Y-78954147D01*
X28517419Y-78906528D01*
X28374562Y-78906528D01*
X28279324Y-78954147D01*
X28231705Y-79049385D01*
X28231705Y-79573194D01*
X46660276Y-80897480D02*
X46184086Y-80897480D01*
X46755514Y-81183194D02*
X46422181Y-80183194D01*
X46088848Y-81183194D01*
X45755514Y-81183194D02*
X45755514Y-80516528D01*
X45755514Y-80707004D02*
X45707895Y-80611766D01*
X45660276Y-80564147D01*
X45565038Y-80516528D01*
X45469800Y-80516528D01*
X45279324Y-80516528D02*
X44898371Y-80516528D01*
X45136467Y-80183194D02*
X45136467Y-81040337D01*
X45088848Y-81135575D01*
X44993610Y-81183194D01*
X44898371Y-81183194D01*
X44660276Y-80516528D02*
X44469800Y-81183194D01*
X44279324Y-80707004D01*
X44088848Y-81183194D01*
X43898371Y-80516528D01*
X43374562Y-81183194D02*
X43469800Y-81135575D01*
X43517419Y-81087956D01*
X43565038Y-80992718D01*
X43565038Y-80707004D01*
X43517419Y-80611766D01*
X43469800Y-80564147D01*
X43374562Y-80516528D01*
X43231705Y-80516528D01*
X43136467Y-80564147D01*
X43088848Y-80611766D01*
X43041229Y-80707004D01*
X43041229Y-80992718D01*
X43088848Y-81087956D01*
X43136467Y-81135575D01*
X43231705Y-81183194D01*
X43374562Y-81183194D01*
X42612657Y-81183194D02*
X42612657Y-80516528D01*
X42612657Y-80707004D02*
X42565038Y-80611766D01*
X42517419Y-80564147D01*
X42422181Y-80516528D01*
X42326943Y-80516528D01*
X41993610Y-81183194D02*
X41993610Y-80183194D01*
X41898371Y-80802242D02*
X41612657Y-81183194D01*
X41612657Y-80516528D02*
X41993610Y-80897480D01*
X40422181Y-81183194D02*
X40422181Y-80183194D01*
X40422181Y-80564147D02*
X40326943Y-80516528D01*
X40136467Y-80516528D01*
X40041229Y-80564147D01*
X39993610Y-80611766D01*
X39945991Y-80707004D01*
X39945991Y-80992718D01*
X39993610Y-81087956D01*
X40041229Y-81135575D01*
X40136467Y-81183194D01*
X40326943Y-81183194D01*
X40422181Y-81135575D01*
X39612657Y-80516528D02*
X39374562Y-81183194D01*
X39136467Y-80516528D02*
X39374562Y-81183194D01*
X39469800Y-81421290D01*
X39517419Y-81468909D01*
X39612657Y-81516528D01*
X37374562Y-80707004D02*
X37422181Y-80659385D01*
X37517419Y-80611766D01*
X37612657Y-80611766D01*
X37707895Y-80659385D01*
X37755514Y-80707004D01*
X37803133Y-80802242D01*
X37803133Y-80897480D01*
X37755514Y-80992718D01*
X37707895Y-81040337D01*
X37612657Y-81087956D01*
X37517419Y-81087956D01*
X37422181Y-81040337D01*
X37374562Y-80992718D01*
X37374562Y-80611766D02*
X37374562Y-80992718D01*
X37326943Y-81040337D01*
X37279324Y-81040337D01*
X37184086Y-80992718D01*
X37136467Y-80897480D01*
X37136467Y-80659385D01*
X37231705Y-80516528D01*
X37374562Y-80421290D01*
X37565038Y-80373671D01*
X37755514Y-80421290D01*
X37898371Y-80516528D01*
X37993610Y-80659385D01*
X38041229Y-80849861D01*
X37993610Y-81040337D01*
X37898371Y-81183194D01*
X37755514Y-81278433D01*
X37565038Y-81326052D01*
X37374562Y-81278433D01*
X37231705Y-81183194D01*
X36279324Y-81183194D02*
X36279324Y-80659385D01*
X36326943Y-80564147D01*
X36422181Y-80516528D01*
X36612657Y-80516528D01*
X36707895Y-80564147D01*
X36279324Y-81135575D02*
X36374562Y-81183194D01*
X36612657Y-81183194D01*
X36707895Y-81135575D01*
X36755514Y-81040337D01*
X36755514Y-80945099D01*
X36707895Y-80849861D01*
X36612657Y-80802242D01*
X36374562Y-80802242D01*
X36279324Y-80754623D01*
X35660276Y-81183194D02*
X35755514Y-81135575D01*
X35803133Y-81040337D01*
X35803133Y-80183194D01*
X34850752Y-81183194D02*
X34850752Y-80659385D01*
X34898371Y-80564147D01*
X34993610Y-80516528D01*
X35184086Y-80516528D01*
X35279324Y-80564147D01*
X34850752Y-81135575D02*
X34945991Y-81183194D01*
X35184086Y-81183194D01*
X35279324Y-81135575D01*
X35326943Y-81040337D01*
X35326943Y-80945099D01*
X35279324Y-80849861D01*
X35184086Y-80802242D01*
X34945991Y-80802242D01*
X34850752Y-80754623D01*
X34374562Y-81183194D02*
X34374562Y-80516528D01*
X34374562Y-80611766D02*
X34326943Y-80564147D01*
X34231705Y-80516528D01*
X34088848Y-80516528D01*
X33993610Y-80564147D01*
X33945991Y-80659385D01*
X33945991Y-81183194D01*
X33945991Y-80659385D02*
X33898371Y-80564147D01*
X33803133Y-80516528D01*
X33660276Y-80516528D01*
X33565038Y-80564147D01*
X33517419Y-80659385D01*
X33517419Y-81183194D01*
X32660276Y-81135575D02*
X32755514Y-81183194D01*
X32945991Y-81183194D01*
X33041229Y-81135575D01*
X33088848Y-81040337D01*
X33088848Y-80659385D01*
X33041229Y-80564147D01*
X32945991Y-80516528D01*
X32755514Y-80516528D01*
X32660276Y-80564147D01*
X32612657Y-80659385D01*
X32612657Y-80754623D01*
X33088848Y-80849861D01*
X31755514Y-81183194D02*
X31755514Y-80183194D01*
X31755514Y-81135575D02*
X31850752Y-81183194D01*
X32041229Y-81183194D01*
X32136467Y-81135575D01*
X32184086Y-81087956D01*
X32231705Y-80992718D01*
X32231705Y-80707004D01*
X32184086Y-80611766D01*
X32136467Y-80564147D01*
X32041229Y-80516528D01*
X31850752Y-80516528D01*
X31755514Y-80564147D01*
X31374562Y-80516528D02*
X31136467Y-81183194D01*
X30898371Y-80516528D02*
X31136467Y-81183194D01*
X31231705Y-81421290D01*
X31279324Y-81468909D01*
X31374562Y-81516528D01*
X30088848Y-81183194D02*
X30088848Y-80659385D01*
X30136467Y-80564147D01*
X30231705Y-80516528D01*
X30422181Y-80516528D01*
X30517419Y-80564147D01*
X30088848Y-81135575D02*
X30184086Y-81183194D01*
X30422181Y-81183194D01*
X30517419Y-81135575D01*
X30565038Y-81040337D01*
X30565038Y-80945099D01*
X30517419Y-80849861D01*
X30422181Y-80802242D01*
X30184086Y-80802242D01*
X30088848Y-80754623D01*
X29612657Y-80516528D02*
X29612657Y-81183194D01*
X29612657Y-80611766D02*
X29565038Y-80564147D01*
X29469800Y-80516528D01*
X29326943Y-80516528D01*
X29231705Y-80564147D01*
X29184086Y-80659385D01*
X29184086Y-81183194D01*
X28279324Y-80516528D02*
X28279324Y-81326052D01*
X28326943Y-81421290D01*
X28374562Y-81468909D01*
X28469800Y-81516528D01*
X28612657Y-81516528D01*
X28707895Y-81468909D01*
X28279324Y-81135575D02*
X28374562Y-81183194D01*
X28565038Y-81183194D01*
X28660276Y-81135575D01*
X28707895Y-81087956D01*
X28755514Y-80992718D01*
X28755514Y-80707004D01*
X28707895Y-80611766D01*
X28660276Y-80564147D01*
X28565038Y-80516528D01*
X28374562Y-80516528D01*
X28279324Y-80564147D01*
X95128026Y-79573194D02*
X95128026Y-78573194D01*
X94889931Y-78573194D01*
X94747074Y-78620814D01*
X94651836Y-78716052D01*
X94604217Y-78811290D01*
X94556598Y-79001766D01*
X94556598Y-79144623D01*
X94604217Y-79335099D01*
X94651836Y-79430337D01*
X94747074Y-79525575D01*
X94889931Y-79573194D01*
X95128026Y-79573194D01*
X93556598Y-79477956D02*
X93604217Y-79525575D01*
X93747074Y-79573194D01*
X93842312Y-79573194D01*
X93985169Y-79525575D01*
X94080407Y-79430337D01*
X94128026Y-79335099D01*
X94175645Y-79144623D01*
X94175645Y-79001766D01*
X94128026Y-78811290D01*
X94080407Y-78716052D01*
X93985169Y-78620814D01*
X93842312Y-78573194D01*
X93747074Y-78573194D01*
X93604217Y-78620814D01*
X93556598Y-78668433D01*
X92985169Y-79001766D02*
X93080407Y-78954147D01*
X93128026Y-78906528D01*
X93175645Y-78811290D01*
X93175645Y-78763671D01*
X93128026Y-78668433D01*
X93080407Y-78620814D01*
X92985169Y-78573194D01*
X92794693Y-78573194D01*
X92699455Y-78620814D01*
X92651836Y-78668433D01*
X92604217Y-78763671D01*
X92604217Y-78811290D01*
X92651836Y-78906528D01*
X92699455Y-78954147D01*
X92794693Y-79001766D01*
X92985169Y-79001766D01*
X93080407Y-79049385D01*
X93128026Y-79097004D01*
X93175645Y-79192242D01*
X93175645Y-79382718D01*
X93128026Y-79477956D01*
X93080407Y-79525575D01*
X92985169Y-79573194D01*
X92794693Y-79573194D01*
X92699455Y-79525575D01*
X92651836Y-79477956D01*
X92604217Y-79382718D01*
X92604217Y-79192242D01*
X92651836Y-79097004D01*
X92699455Y-79049385D01*
X92794693Y-79001766D01*
X91985169Y-78573194D02*
X91889931Y-78573194D01*
X91794693Y-78620814D01*
X91747074Y-78668433D01*
X91699455Y-78763671D01*
X91651836Y-78954147D01*
X91651836Y-79192242D01*
X91699455Y-79382718D01*
X91747074Y-79477956D01*
X91794693Y-79525575D01*
X91889931Y-79573194D01*
X91985169Y-79573194D01*
X92080407Y-79525575D01*
X92128026Y-79477956D01*
X92175645Y-79382718D01*
X92223264Y-79192242D01*
X92223264Y-78954147D01*
X92175645Y-78763671D01*
X92128026Y-78668433D01*
X92080407Y-78620814D01*
X91985169Y-78573194D01*
X90699455Y-79573194D02*
X91270883Y-79573194D01*
X90985169Y-79573194D02*
X90985169Y-78573194D01*
X91080407Y-78716052D01*
X91175645Y-78811290D01*
X91270883Y-78858909D01*
X89175645Y-79049385D02*
X89032788Y-79097004D01*
X88985169Y-79144623D01*
X88937550Y-79239861D01*
X88937550Y-79382718D01*
X88985169Y-79477956D01*
X89032788Y-79525575D01*
X89128026Y-79573194D01*
X89508979Y-79573194D01*
X89508979Y-78573194D01*
X89175645Y-78573194D01*
X89080407Y-78620814D01*
X89032788Y-78668433D01*
X88985169Y-78763671D01*
X88985169Y-78858909D01*
X89032788Y-78954147D01*
X89080407Y-79001766D01*
X89175645Y-79049385D01*
X89508979Y-79049385D01*
X88366121Y-79573194D02*
X88461360Y-79525575D01*
X88508979Y-79430337D01*
X88508979Y-78573194D01*
X87556598Y-79573194D02*
X87556598Y-79049385D01*
X87604217Y-78954147D01*
X87699455Y-78906528D01*
X87889931Y-78906528D01*
X87985169Y-78954147D01*
X87556598Y-79525575D02*
X87651836Y-79573194D01*
X87889931Y-79573194D01*
X87985169Y-79525575D01*
X88032788Y-79430337D01*
X88032788Y-79335099D01*
X87985169Y-79239861D01*
X87889931Y-79192242D01*
X87651836Y-79192242D01*
X87556598Y-79144623D01*
X86651836Y-79525575D02*
X86747074Y-79573194D01*
X86937550Y-79573194D01*
X87032788Y-79525575D01*
X87080407Y-79477956D01*
X87128026Y-79382718D01*
X87128026Y-79097004D01*
X87080407Y-79001766D01*
X87032788Y-78954147D01*
X86937550Y-78906528D01*
X86747074Y-78906528D01*
X86651836Y-78954147D01*
X86223264Y-79573194D02*
X86223264Y-78573194D01*
X86128026Y-79192242D02*
X85842312Y-79573194D01*
X85842312Y-78906528D02*
X86223264Y-79287480D01*
X84651836Y-79573194D02*
X84651836Y-78573194D01*
X84318502Y-79287480D01*
X83985169Y-78573194D01*
X83985169Y-79573194D01*
X83080407Y-79573194D02*
X83080407Y-79049385D01*
X83128026Y-78954147D01*
X83223264Y-78906528D01*
X83413741Y-78906528D01*
X83508979Y-78954147D01*
X83080407Y-79525575D02*
X83175645Y-79573194D01*
X83413741Y-79573194D01*
X83508979Y-79525575D01*
X83556598Y-79430337D01*
X83556598Y-79335099D01*
X83508979Y-79239861D01*
X83413741Y-79192242D01*
X83175645Y-79192242D01*
X83080407Y-79144623D01*
X82175645Y-78906528D02*
X82175645Y-79716052D01*
X82223264Y-79811290D01*
X82270883Y-79858909D01*
X82366121Y-79906528D01*
X82508979Y-79906528D01*
X82604217Y-79858909D01*
X82175645Y-79525575D02*
X82270883Y-79573194D01*
X82461360Y-79573194D01*
X82556598Y-79525575D01*
X82604217Y-79477956D01*
X82651836Y-79382718D01*
X82651836Y-79097004D01*
X82604217Y-79001766D01*
X82556598Y-78954147D01*
X82461360Y-78906528D01*
X82270883Y-78906528D01*
X82175645Y-78954147D01*
X81318502Y-79525575D02*
X81413741Y-79573194D01*
X81604217Y-79573194D01*
X81699455Y-79525575D01*
X81747074Y-79430337D01*
X81747074Y-79049385D01*
X81699455Y-78954147D01*
X81604217Y-78906528D01*
X81413741Y-78906528D01*
X81318502Y-78954147D01*
X81270883Y-79049385D01*
X81270883Y-79144623D01*
X81747074Y-79239861D01*
X80223264Y-78573194D02*
X79651836Y-78573194D01*
X79937550Y-79573194D02*
X79937550Y-78573194D01*
X78937550Y-79525575D02*
X79032788Y-79573194D01*
X79223264Y-79573194D01*
X79318502Y-79525575D01*
X79366121Y-79430337D01*
X79366121Y-79049385D01*
X79318502Y-78954147D01*
X79223264Y-78906528D01*
X79032788Y-78906528D01*
X78937550Y-78954147D01*
X78889931Y-79049385D01*
X78889931Y-79144623D01*
X79366121Y-79239861D01*
X78032788Y-79573194D02*
X78032788Y-79049385D01*
X78080407Y-78954147D01*
X78175645Y-78906528D01*
X78366121Y-78906528D01*
X78461360Y-78954147D01*
X78032788Y-79525575D02*
X78128026Y-79573194D01*
X78366121Y-79573194D01*
X78461360Y-79525575D01*
X78508979Y-79430337D01*
X78508979Y-79335099D01*
X78461360Y-79239861D01*
X78366121Y-79192242D01*
X78128026Y-79192242D01*
X78032788Y-79144623D01*
X77556598Y-79573194D02*
X77556598Y-78906528D01*
X77556598Y-79001766D02*
X77508979Y-78954147D01*
X77413741Y-78906528D01*
X77270883Y-78906528D01*
X77175645Y-78954147D01*
X77128026Y-79049385D01*
X77128026Y-79573194D01*
X77128026Y-79049385D02*
X77080407Y-78954147D01*
X76985169Y-78906528D01*
X76842312Y-78906528D01*
X76747074Y-78954147D01*
X76699455Y-79049385D01*
X76699455Y-79573194D01*
X95128026Y-80897480D02*
X94651836Y-80897480D01*
X95223264Y-81183194D02*
X94889931Y-80183194D01*
X94556598Y-81183194D01*
X94223264Y-81183194D02*
X94223264Y-80516528D01*
X94223264Y-80707004D02*
X94175645Y-80611766D01*
X94128026Y-80564147D01*
X94032788Y-80516528D01*
X93937550Y-80516528D01*
X93747074Y-80516528D02*
X93366121Y-80516528D01*
X93604217Y-80183194D02*
X93604217Y-81040337D01*
X93556598Y-81135575D01*
X93461360Y-81183194D01*
X93366121Y-81183194D01*
X93128026Y-80516528D02*
X92937550Y-81183194D01*
X92747074Y-80707004D01*
X92556598Y-81183194D01*
X92366121Y-80516528D01*
X91842312Y-81183194D02*
X91937550Y-81135575D01*
X91985169Y-81087956D01*
X92032788Y-80992718D01*
X92032788Y-80707004D01*
X91985169Y-80611766D01*
X91937550Y-80564147D01*
X91842312Y-80516528D01*
X91699455Y-80516528D01*
X91604217Y-80564147D01*
X91556598Y-80611766D01*
X91508979Y-80707004D01*
X91508979Y-80992718D01*
X91556598Y-81087956D01*
X91604217Y-81135575D01*
X91699455Y-81183194D01*
X91842312Y-81183194D01*
X91080407Y-81183194D02*
X91080407Y-80516528D01*
X91080407Y-80707004D02*
X91032788Y-80611766D01*
X90985169Y-80564147D01*
X90889931Y-80516528D01*
X90794693Y-80516528D01*
X90461360Y-81183194D02*
X90461360Y-80183194D01*
X90366121Y-80802242D02*
X90080407Y-81183194D01*
X90080407Y-80516528D02*
X90461360Y-80897480D01*
X88889931Y-81183194D02*
X88889931Y-80183194D01*
X88889931Y-80564147D02*
X88794693Y-80516528D01*
X88604217Y-80516528D01*
X88508979Y-80564147D01*
X88461360Y-80611766D01*
X88413741Y-80707004D01*
X88413741Y-80992718D01*
X88461360Y-81087956D01*
X88508979Y-81135575D01*
X88604217Y-81183194D01*
X88794693Y-81183194D01*
X88889931Y-81135575D01*
X88080407Y-80516528D02*
X87842312Y-81183194D01*
X87604217Y-80516528D02*
X87842312Y-81183194D01*
X87937550Y-81421290D01*
X87985169Y-81468909D01*
X88080407Y-81516528D01*
X85842312Y-80707004D02*
X85889931Y-80659385D01*
X85985169Y-80611766D01*
X86080407Y-80611766D01*
X86175645Y-80659385D01*
X86223264Y-80707004D01*
X86270883Y-80802242D01*
X86270883Y-80897480D01*
X86223264Y-80992718D01*
X86175645Y-81040337D01*
X86080407Y-81087956D01*
X85985169Y-81087956D01*
X85889931Y-81040337D01*
X85842312Y-80992718D01*
X85842312Y-80611766D02*
X85842312Y-80992718D01*
X85794693Y-81040337D01*
X85747074Y-81040337D01*
X85651836Y-80992718D01*
X85604217Y-80897480D01*
X85604217Y-80659385D01*
X85699455Y-80516528D01*
X85842312Y-80421290D01*
X86032788Y-80373671D01*
X86223264Y-80421290D01*
X86366121Y-80516528D01*
X86461360Y-80659385D01*
X86508979Y-80849861D01*
X86461360Y-81040337D01*
X86366121Y-81183194D01*
X86223264Y-81278433D01*
X86032788Y-81326052D01*
X85842312Y-81278433D01*
X85699455Y-81183194D01*
X84747074Y-81183194D02*
X84747074Y-80659385D01*
X84794693Y-80564147D01*
X84889931Y-80516528D01*
X85080407Y-80516528D01*
X85175645Y-80564147D01*
X84747074Y-81135575D02*
X84842312Y-81183194D01*
X85080407Y-81183194D01*
X85175645Y-81135575D01*
X85223264Y-81040337D01*
X85223264Y-80945099D01*
X85175645Y-80849861D01*
X85080407Y-80802242D01*
X84842312Y-80802242D01*
X84747074Y-80754623D01*
X84128026Y-81183194D02*
X84223264Y-81135575D01*
X84270883Y-81040337D01*
X84270883Y-80183194D01*
X83318502Y-81183194D02*
X83318502Y-80659385D01*
X83366121Y-80564147D01*
X83461360Y-80516528D01*
X83651836Y-80516528D01*
X83747074Y-80564147D01*
X83318502Y-81135575D02*
X83413741Y-81183194D01*
X83651836Y-81183194D01*
X83747074Y-81135575D01*
X83794693Y-81040337D01*
X83794693Y-80945099D01*
X83747074Y-80849861D01*
X83651836Y-80802242D01*
X83413741Y-80802242D01*
X83318502Y-80754623D01*
X82842312Y-81183194D02*
X82842312Y-80516528D01*
X82842312Y-80611766D02*
X82794693Y-80564147D01*
X82699455Y-80516528D01*
X82556598Y-80516528D01*
X82461360Y-80564147D01*
X82413741Y-80659385D01*
X82413741Y-81183194D01*
X82413741Y-80659385D02*
X82366121Y-80564147D01*
X82270883Y-80516528D01*
X82128026Y-80516528D01*
X82032788Y-80564147D01*
X81985169Y-80659385D01*
X81985169Y-81183194D01*
X81128026Y-81135575D02*
X81223264Y-81183194D01*
X81413741Y-81183194D01*
X81508979Y-81135575D01*
X81556598Y-81040337D01*
X81556598Y-80659385D01*
X81508979Y-80564147D01*
X81413741Y-80516528D01*
X81223264Y-80516528D01*
X81128026Y-80564147D01*
X81080407Y-80659385D01*
X81080407Y-80754623D01*
X81556598Y-80849861D01*
X80223264Y-81183194D02*
X80223264Y-80183194D01*
X80223264Y-81135575D02*
X80318502Y-81183194D01*
X80508979Y-81183194D01*
X80604217Y-81135575D01*
X80651836Y-81087956D01*
X80699455Y-80992718D01*
X80699455Y-80707004D01*
X80651836Y-80611766D01*
X80604217Y-80564147D01*
X80508979Y-80516528D01*
X80318502Y-80516528D01*
X80223264Y-80564147D01*
X79842312Y-80516528D02*
X79604217Y-81183194D01*
X79366121Y-80516528D02*
X79604217Y-81183194D01*
X79699455Y-81421290D01*
X79747074Y-81468909D01*
X79842312Y-81516528D01*
X78556598Y-81183194D02*
X78556598Y-80659385D01*
X78604217Y-80564147D01*
X78699455Y-80516528D01*
X78889931Y-80516528D01*
X78985169Y-80564147D01*
X78556598Y-81135575D02*
X78651836Y-81183194D01*
X78889931Y-81183194D01*
X78985169Y-81135575D01*
X79032788Y-81040337D01*
X79032788Y-80945099D01*
X78985169Y-80849861D01*
X78889931Y-80802242D01*
X78651836Y-80802242D01*
X78556598Y-80754623D01*
X78080407Y-80516528D02*
X78080407Y-81183194D01*
X78080407Y-80611766D02*
X78032788Y-80564147D01*
X77937550Y-80516528D01*
X77794693Y-80516528D01*
X77699455Y-80564147D01*
X77651836Y-80659385D01*
X77651836Y-81183194D01*
X76747074Y-80516528D02*
X76747074Y-81326052D01*
X76794693Y-81421290D01*
X76842312Y-81468909D01*
X76937550Y-81516528D01*
X77080407Y-81516528D01*
X77175645Y-81468909D01*
X76747074Y-81135575D02*
X76842312Y-81183194D01*
X77032788Y-81183194D01*
X77128026Y-81135575D01*
X77175645Y-81087956D01*
X77223264Y-80992718D01*
X77223264Y-80707004D01*
X77175645Y-80611766D01*
X77128026Y-80564147D01*
X77032788Y-80516528D01*
X76842312Y-80516528D01*
X76747074Y-80564147D01*
X143595776Y-79573194D02*
X143595776Y-78573194D01*
X143357681Y-78573194D01*
X143214824Y-78620814D01*
X143119586Y-78716052D01*
X143071967Y-78811290D01*
X143024348Y-79001766D01*
X143024348Y-79144623D01*
X143071967Y-79335099D01*
X143119586Y-79430337D01*
X143214824Y-79525575D01*
X143357681Y-79573194D01*
X143595776Y-79573194D01*
X142024348Y-79477956D02*
X142071967Y-79525575D01*
X142214824Y-79573194D01*
X142310062Y-79573194D01*
X142452919Y-79525575D01*
X142548157Y-79430337D01*
X142595776Y-79335099D01*
X142643395Y-79144623D01*
X142643395Y-79001766D01*
X142595776Y-78811290D01*
X142548157Y-78716052D01*
X142452919Y-78620814D01*
X142310062Y-78573194D01*
X142214824Y-78573194D01*
X142071967Y-78620814D01*
X142024348Y-78668433D01*
X141452919Y-79001766D02*
X141548157Y-78954147D01*
X141595776Y-78906528D01*
X141643395Y-78811290D01*
X141643395Y-78763671D01*
X141595776Y-78668433D01*
X141548157Y-78620814D01*
X141452919Y-78573194D01*
X141262443Y-78573194D01*
X141167205Y-78620814D01*
X141119586Y-78668433D01*
X141071967Y-78763671D01*
X141071967Y-78811290D01*
X141119586Y-78906528D01*
X141167205Y-78954147D01*
X141262443Y-79001766D01*
X141452919Y-79001766D01*
X141548157Y-79049385D01*
X141595776Y-79097004D01*
X141643395Y-79192242D01*
X141643395Y-79382718D01*
X141595776Y-79477956D01*
X141548157Y-79525575D01*
X141452919Y-79573194D01*
X141262443Y-79573194D01*
X141167205Y-79525575D01*
X141119586Y-79477956D01*
X141071967Y-79382718D01*
X141071967Y-79192242D01*
X141119586Y-79097004D01*
X141167205Y-79049385D01*
X141262443Y-79001766D01*
X140452919Y-78573194D02*
X140357681Y-78573194D01*
X140262443Y-78620814D01*
X140214824Y-78668433D01*
X140167205Y-78763671D01*
X140119586Y-78954147D01*
X140119586Y-79192242D01*
X140167205Y-79382718D01*
X140214824Y-79477956D01*
X140262443Y-79525575D01*
X140357681Y-79573194D01*
X140452919Y-79573194D01*
X140548157Y-79525575D01*
X140595776Y-79477956D01*
X140643395Y-79382718D01*
X140691014Y-79192242D01*
X140691014Y-78954147D01*
X140643395Y-78763671D01*
X140595776Y-78668433D01*
X140548157Y-78620814D01*
X140452919Y-78573194D01*
X139167205Y-79573194D02*
X139738633Y-79573194D01*
X139452919Y-79573194D02*
X139452919Y-78573194D01*
X139548157Y-78716052D01*
X139643395Y-78811290D01*
X139738633Y-78858909D01*
X137643395Y-79049385D02*
X137500538Y-79097004D01*
X137452919Y-79144623D01*
X137405300Y-79239861D01*
X137405300Y-79382718D01*
X137452919Y-79477956D01*
X137500538Y-79525575D01*
X137595776Y-79573194D01*
X137976729Y-79573194D01*
X137976729Y-78573194D01*
X137643395Y-78573194D01*
X137548157Y-78620814D01*
X137500538Y-78668433D01*
X137452919Y-78763671D01*
X137452919Y-78858909D01*
X137500538Y-78954147D01*
X137548157Y-79001766D01*
X137643395Y-79049385D01*
X137976729Y-79049385D01*
X136833871Y-79573194D02*
X136929110Y-79525575D01*
X136976729Y-79430337D01*
X136976729Y-78573194D01*
X136024348Y-79573194D02*
X136024348Y-79049385D01*
X136071967Y-78954147D01*
X136167205Y-78906528D01*
X136357681Y-78906528D01*
X136452919Y-78954147D01*
X136024348Y-79525575D02*
X136119586Y-79573194D01*
X136357681Y-79573194D01*
X136452919Y-79525575D01*
X136500538Y-79430337D01*
X136500538Y-79335099D01*
X136452919Y-79239861D01*
X136357681Y-79192242D01*
X136119586Y-79192242D01*
X136024348Y-79144623D01*
X135119586Y-79525575D02*
X135214824Y-79573194D01*
X135405300Y-79573194D01*
X135500538Y-79525575D01*
X135548157Y-79477956D01*
X135595776Y-79382718D01*
X135595776Y-79097004D01*
X135548157Y-79001766D01*
X135500538Y-78954147D01*
X135405300Y-78906528D01*
X135214824Y-78906528D01*
X135119586Y-78954147D01*
X134691014Y-79573194D02*
X134691014Y-78573194D01*
X134595776Y-79192242D02*
X134310062Y-79573194D01*
X134310062Y-78906528D02*
X134691014Y-79287480D01*
X133119586Y-79573194D02*
X133119586Y-78573194D01*
X132786252Y-79287480D01*
X132452919Y-78573194D01*
X132452919Y-79573194D01*
X131548157Y-79573194D02*
X131548157Y-79049385D01*
X131595776Y-78954147D01*
X131691014Y-78906528D01*
X131881491Y-78906528D01*
X131976729Y-78954147D01*
X131548157Y-79525575D02*
X131643395Y-79573194D01*
X131881491Y-79573194D01*
X131976729Y-79525575D01*
X132024348Y-79430337D01*
X132024348Y-79335099D01*
X131976729Y-79239861D01*
X131881491Y-79192242D01*
X131643395Y-79192242D01*
X131548157Y-79144623D01*
X130643395Y-78906528D02*
X130643395Y-79716052D01*
X130691014Y-79811290D01*
X130738633Y-79858909D01*
X130833871Y-79906528D01*
X130976729Y-79906528D01*
X131071967Y-79858909D01*
X130643395Y-79525575D02*
X130738633Y-79573194D01*
X130929110Y-79573194D01*
X131024348Y-79525575D01*
X131071967Y-79477956D01*
X131119586Y-79382718D01*
X131119586Y-79097004D01*
X131071967Y-79001766D01*
X131024348Y-78954147D01*
X130929110Y-78906528D01*
X130738633Y-78906528D01*
X130643395Y-78954147D01*
X129786252Y-79525575D02*
X129881491Y-79573194D01*
X130071967Y-79573194D01*
X130167205Y-79525575D01*
X130214824Y-79430337D01*
X130214824Y-79049385D01*
X130167205Y-78954147D01*
X130071967Y-78906528D01*
X129881491Y-78906528D01*
X129786252Y-78954147D01*
X129738633Y-79049385D01*
X129738633Y-79144623D01*
X130214824Y-79239861D01*
X128691014Y-78573194D02*
X128119586Y-78573194D01*
X128405300Y-79573194D02*
X128405300Y-78573194D01*
X127405300Y-79525575D02*
X127500538Y-79573194D01*
X127691014Y-79573194D01*
X127786252Y-79525575D01*
X127833871Y-79430337D01*
X127833871Y-79049385D01*
X127786252Y-78954147D01*
X127691014Y-78906528D01*
X127500538Y-78906528D01*
X127405300Y-78954147D01*
X127357681Y-79049385D01*
X127357681Y-79144623D01*
X127833871Y-79239861D01*
X126500538Y-79573194D02*
X126500538Y-79049385D01*
X126548157Y-78954147D01*
X126643395Y-78906528D01*
X126833871Y-78906528D01*
X126929110Y-78954147D01*
X126500538Y-79525575D02*
X126595776Y-79573194D01*
X126833871Y-79573194D01*
X126929110Y-79525575D01*
X126976729Y-79430337D01*
X126976729Y-79335099D01*
X126929110Y-79239861D01*
X126833871Y-79192242D01*
X126595776Y-79192242D01*
X126500538Y-79144623D01*
X126024348Y-79573194D02*
X126024348Y-78906528D01*
X126024348Y-79001766D02*
X125976729Y-78954147D01*
X125881491Y-78906528D01*
X125738633Y-78906528D01*
X125643395Y-78954147D01*
X125595776Y-79049385D01*
X125595776Y-79573194D01*
X125595776Y-79049385D02*
X125548157Y-78954147D01*
X125452919Y-78906528D01*
X125310062Y-78906528D01*
X125214824Y-78954147D01*
X125167205Y-79049385D01*
X125167205Y-79573194D01*
X143595776Y-80897480D02*
X143119586Y-80897480D01*
X143691014Y-81183194D02*
X143357681Y-80183194D01*
X143024348Y-81183194D01*
X142691014Y-81183194D02*
X142691014Y-80516528D01*
X142691014Y-80707004D02*
X142643395Y-80611766D01*
X142595776Y-80564147D01*
X142500538Y-80516528D01*
X142405300Y-80516528D01*
X142214824Y-80516528D02*
X141833871Y-80516528D01*
X142071967Y-80183194D02*
X142071967Y-81040337D01*
X142024348Y-81135575D01*
X141929110Y-81183194D01*
X141833871Y-81183194D01*
X141595776Y-80516528D02*
X141405300Y-81183194D01*
X141214824Y-80707004D01*
X141024348Y-81183194D01*
X140833871Y-80516528D01*
X140310062Y-81183194D02*
X140405300Y-81135575D01*
X140452919Y-81087956D01*
X140500538Y-80992718D01*
X140500538Y-80707004D01*
X140452919Y-80611766D01*
X140405300Y-80564147D01*
X140310062Y-80516528D01*
X140167205Y-80516528D01*
X140071967Y-80564147D01*
X140024348Y-80611766D01*
X139976729Y-80707004D01*
X139976729Y-80992718D01*
X140024348Y-81087956D01*
X140071967Y-81135575D01*
X140167205Y-81183194D01*
X140310062Y-81183194D01*
X139548157Y-81183194D02*
X139548157Y-80516528D01*
X139548157Y-80707004D02*
X139500538Y-80611766D01*
X139452919Y-80564147D01*
X139357681Y-80516528D01*
X139262443Y-80516528D01*
X138929110Y-81183194D02*
X138929110Y-80183194D01*
X138833871Y-80802242D02*
X138548157Y-81183194D01*
X138548157Y-80516528D02*
X138929110Y-80897480D01*
X137357681Y-81183194D02*
X137357681Y-80183194D01*
X137357681Y-80564147D02*
X137262443Y-80516528D01*
X137071967Y-80516528D01*
X136976729Y-80564147D01*
X136929110Y-80611766D01*
X136881491Y-80707004D01*
X136881491Y-80992718D01*
X136929110Y-81087956D01*
X136976729Y-81135575D01*
X137071967Y-81183194D01*
X137262443Y-81183194D01*
X137357681Y-81135575D01*
X136548157Y-80516528D02*
X136310062Y-81183194D01*
X136071967Y-80516528D02*
X136310062Y-81183194D01*
X136405300Y-81421290D01*
X136452919Y-81468909D01*
X136548157Y-81516528D01*
X134310062Y-80707004D02*
X134357681Y-80659385D01*
X134452919Y-80611766D01*
X134548157Y-80611766D01*
X134643395Y-80659385D01*
X134691014Y-80707004D01*
X134738633Y-80802242D01*
X134738633Y-80897480D01*
X134691014Y-80992718D01*
X134643395Y-81040337D01*
X134548157Y-81087956D01*
X134452919Y-81087956D01*
X134357681Y-81040337D01*
X134310062Y-80992718D01*
X134310062Y-80611766D02*
X134310062Y-80992718D01*
X134262443Y-81040337D01*
X134214824Y-81040337D01*
X134119586Y-80992718D01*
X134071967Y-80897480D01*
X134071967Y-80659385D01*
X134167205Y-80516528D01*
X134310062Y-80421290D01*
X134500538Y-80373671D01*
X134691014Y-80421290D01*
X134833871Y-80516528D01*
X134929110Y-80659385D01*
X134976729Y-80849861D01*
X134929110Y-81040337D01*
X134833871Y-81183194D01*
X134691014Y-81278433D01*
X134500538Y-81326052D01*
X134310062Y-81278433D01*
X134167205Y-81183194D01*
X133214824Y-81183194D02*
X133214824Y-80659385D01*
X133262443Y-80564147D01*
X133357681Y-80516528D01*
X133548157Y-80516528D01*
X133643395Y-80564147D01*
X133214824Y-81135575D02*
X133310062Y-81183194D01*
X133548157Y-81183194D01*
X133643395Y-81135575D01*
X133691014Y-81040337D01*
X133691014Y-80945099D01*
X133643395Y-80849861D01*
X133548157Y-80802242D01*
X133310062Y-80802242D01*
X133214824Y-80754623D01*
X132595776Y-81183194D02*
X132691014Y-81135575D01*
X132738633Y-81040337D01*
X132738633Y-80183194D01*
X131786252Y-81183194D02*
X131786252Y-80659385D01*
X131833871Y-80564147D01*
X131929110Y-80516528D01*
X132119586Y-80516528D01*
X132214824Y-80564147D01*
X131786252Y-81135575D02*
X131881491Y-81183194D01*
X132119586Y-81183194D01*
X132214824Y-81135575D01*
X132262443Y-81040337D01*
X132262443Y-80945099D01*
X132214824Y-80849861D01*
X132119586Y-80802242D01*
X131881491Y-80802242D01*
X131786252Y-80754623D01*
X131310062Y-81183194D02*
X131310062Y-80516528D01*
X131310062Y-80611766D02*
X131262443Y-80564147D01*
X131167205Y-80516528D01*
X131024348Y-80516528D01*
X130929110Y-80564147D01*
X130881491Y-80659385D01*
X130881491Y-81183194D01*
X130881491Y-80659385D02*
X130833871Y-80564147D01*
X130738633Y-80516528D01*
X130595776Y-80516528D01*
X130500538Y-80564147D01*
X130452919Y-80659385D01*
X130452919Y-81183194D01*
X129595776Y-81135575D02*
X129691014Y-81183194D01*
X129881491Y-81183194D01*
X129976729Y-81135575D01*
X130024348Y-81040337D01*
X130024348Y-80659385D01*
X129976729Y-80564147D01*
X129881491Y-80516528D01*
X129691014Y-80516528D01*
X129595776Y-80564147D01*
X129548157Y-80659385D01*
X129548157Y-80754623D01*
X130024348Y-80849861D01*
X128691014Y-81183194D02*
X128691014Y-80183194D01*
X128691014Y-81135575D02*
X128786252Y-81183194D01*
X128976729Y-81183194D01*
X129071967Y-81135575D01*
X129119586Y-81087956D01*
X129167205Y-80992718D01*
X129167205Y-80707004D01*
X129119586Y-80611766D01*
X129071967Y-80564147D01*
X128976729Y-80516528D01*
X128786252Y-80516528D01*
X128691014Y-80564147D01*
X128310062Y-80516528D02*
X128071967Y-81183194D01*
X127833871Y-80516528D02*
X128071967Y-81183194D01*
X128167205Y-81421290D01*
X128214824Y-81468909D01*
X128310062Y-81516528D01*
X127024348Y-81183194D02*
X127024348Y-80659385D01*
X127071967Y-80564147D01*
X127167205Y-80516528D01*
X127357681Y-80516528D01*
X127452919Y-80564147D01*
X127024348Y-81135575D02*
X127119586Y-81183194D01*
X127357681Y-81183194D01*
X127452919Y-81135575D01*
X127500538Y-81040337D01*
X127500538Y-80945099D01*
X127452919Y-80849861D01*
X127357681Y-80802242D01*
X127119586Y-80802242D01*
X127024348Y-80754623D01*
X126548157Y-80516528D02*
X126548157Y-81183194D01*
X126548157Y-80611766D02*
X126500538Y-80564147D01*
X126405300Y-80516528D01*
X126262443Y-80516528D01*
X126167205Y-80564147D01*
X126119586Y-80659385D01*
X126119586Y-81183194D01*
X125214824Y-80516528D02*
X125214824Y-81326052D01*
X125262443Y-81421290D01*
X125310062Y-81468909D01*
X125405300Y-81516528D01*
X125548157Y-81516528D01*
X125643395Y-81468909D01*
X125214824Y-81135575D02*
X125310062Y-81183194D01*
X125500538Y-81183194D01*
X125595776Y-81135575D01*
X125643395Y-81087956D01*
X125691014Y-80992718D01*
X125691014Y-80707004D01*
X125643395Y-80611766D01*
X125595776Y-80564147D01*
X125500538Y-80516528D01*
X125310062Y-80516528D01*
X125214824Y-80564147D01*
X29791705Y-99306375D02*
X29791705Y-100306375D01*
X30029800Y-100306375D01*
X30172657Y-100258756D01*
X30267895Y-100163517D01*
X30315514Y-100068279D01*
X30363133Y-99877803D01*
X30363133Y-99734946D01*
X30315514Y-99544470D01*
X30267895Y-99449232D01*
X30172657Y-99353994D01*
X30029800Y-99306375D01*
X29791705Y-99306375D01*
X31363133Y-99401613D02*
X31315514Y-99353994D01*
X31172657Y-99306375D01*
X31077419Y-99306375D01*
X30934562Y-99353994D01*
X30839324Y-99449232D01*
X30791705Y-99544470D01*
X30744086Y-99734946D01*
X30744086Y-99877803D01*
X30791705Y-100068279D01*
X30839324Y-100163517D01*
X30934562Y-100258756D01*
X31077419Y-100306375D01*
X31172657Y-100306375D01*
X31315514Y-100258756D01*
X31363133Y-100211136D01*
X31934562Y-99877803D02*
X31839324Y-99925422D01*
X31791705Y-99973041D01*
X31744086Y-100068279D01*
X31744086Y-100115898D01*
X31791705Y-100211136D01*
X31839324Y-100258756D01*
X31934562Y-100306375D01*
X32125038Y-100306375D01*
X32220276Y-100258756D01*
X32267895Y-100211136D01*
X32315514Y-100115898D01*
X32315514Y-100068279D01*
X32267895Y-99973041D01*
X32220276Y-99925422D01*
X32125038Y-99877803D01*
X31934562Y-99877803D01*
X31839324Y-99830184D01*
X31791705Y-99782565D01*
X31744086Y-99687327D01*
X31744086Y-99496851D01*
X31791705Y-99401613D01*
X31839324Y-99353994D01*
X31934562Y-99306375D01*
X32125038Y-99306375D01*
X32220276Y-99353994D01*
X32267895Y-99401613D01*
X32315514Y-99496851D01*
X32315514Y-99687327D01*
X32267895Y-99782565D01*
X32220276Y-99830184D01*
X32125038Y-99877803D01*
X32934562Y-100306375D02*
X33029800Y-100306375D01*
X33125038Y-100258756D01*
X33172657Y-100211136D01*
X33220276Y-100115898D01*
X33267895Y-99925422D01*
X33267895Y-99687327D01*
X33220276Y-99496851D01*
X33172657Y-99401613D01*
X33125038Y-99353994D01*
X33029800Y-99306375D01*
X32934562Y-99306375D01*
X32839324Y-99353994D01*
X32791705Y-99401613D01*
X32744086Y-99496851D01*
X32696467Y-99687327D01*
X32696467Y-99925422D01*
X32744086Y-100115898D01*
X32791705Y-100211136D01*
X32839324Y-100258756D01*
X32934562Y-100306375D01*
X34220276Y-99306375D02*
X33648848Y-99306375D01*
X33934562Y-99306375D02*
X33934562Y-100306375D01*
X33839324Y-100163517D01*
X33744086Y-100068279D01*
X33648848Y-100020660D01*
X35744086Y-99830184D02*
X35886943Y-99782565D01*
X35934562Y-99734946D01*
X35982181Y-99639708D01*
X35982181Y-99496851D01*
X35934562Y-99401613D01*
X35886943Y-99353994D01*
X35791705Y-99306375D01*
X35410752Y-99306375D01*
X35410752Y-100306375D01*
X35744086Y-100306375D01*
X35839324Y-100258756D01*
X35886943Y-100211136D01*
X35934562Y-100115898D01*
X35934562Y-100020660D01*
X35886943Y-99925422D01*
X35839324Y-99877803D01*
X35744086Y-99830184D01*
X35410752Y-99830184D01*
X36553610Y-99306375D02*
X36458371Y-99353994D01*
X36410752Y-99449232D01*
X36410752Y-100306375D01*
X37363133Y-99306375D02*
X37363133Y-99830184D01*
X37315514Y-99925422D01*
X37220276Y-99973041D01*
X37029800Y-99973041D01*
X36934562Y-99925422D01*
X37363133Y-99353994D02*
X37267895Y-99306375D01*
X37029800Y-99306375D01*
X36934562Y-99353994D01*
X36886943Y-99449232D01*
X36886943Y-99544470D01*
X36934562Y-99639708D01*
X37029800Y-99687327D01*
X37267895Y-99687327D01*
X37363133Y-99734946D01*
X38267895Y-99353994D02*
X38172657Y-99306375D01*
X37982181Y-99306375D01*
X37886943Y-99353994D01*
X37839324Y-99401613D01*
X37791705Y-99496851D01*
X37791705Y-99782565D01*
X37839324Y-99877803D01*
X37886943Y-99925422D01*
X37982181Y-99973041D01*
X38172657Y-99973041D01*
X38267895Y-99925422D01*
X38696467Y-99306375D02*
X38696467Y-100306375D01*
X38791705Y-99687327D02*
X39077419Y-99306375D01*
X39077419Y-99973041D02*
X38696467Y-99592089D01*
X40267895Y-99306375D02*
X40267895Y-100306375D01*
X40601229Y-99592089D01*
X40934562Y-100306375D01*
X40934562Y-99306375D01*
X41839324Y-99306375D02*
X41839324Y-99830184D01*
X41791705Y-99925422D01*
X41696467Y-99973041D01*
X41505990Y-99973041D01*
X41410752Y-99925422D01*
X41839324Y-99353994D02*
X41744086Y-99306375D01*
X41505990Y-99306375D01*
X41410752Y-99353994D01*
X41363133Y-99449232D01*
X41363133Y-99544470D01*
X41410752Y-99639708D01*
X41505990Y-99687327D01*
X41744086Y-99687327D01*
X41839324Y-99734946D01*
X42744086Y-99973041D02*
X42744086Y-99163517D01*
X42696467Y-99068279D01*
X42648848Y-99020660D01*
X42553610Y-98973041D01*
X42410752Y-98973041D01*
X42315514Y-99020660D01*
X42744086Y-99353994D02*
X42648848Y-99306375D01*
X42458371Y-99306375D01*
X42363133Y-99353994D01*
X42315514Y-99401613D01*
X42267895Y-99496851D01*
X42267895Y-99782565D01*
X42315514Y-99877803D01*
X42363133Y-99925422D01*
X42458371Y-99973041D01*
X42648848Y-99973041D01*
X42744086Y-99925422D01*
X43601229Y-99353994D02*
X43505990Y-99306375D01*
X43315514Y-99306375D01*
X43220276Y-99353994D01*
X43172657Y-99449232D01*
X43172657Y-99830184D01*
X43220276Y-99925422D01*
X43315514Y-99973041D01*
X43505990Y-99973041D01*
X43601229Y-99925422D01*
X43648848Y-99830184D01*
X43648848Y-99734946D01*
X43172657Y-99639708D01*
X44696467Y-100306375D02*
X45267895Y-100306375D01*
X44982181Y-99306375D02*
X44982181Y-100306375D01*
X45982181Y-99353994D02*
X45886943Y-99306375D01*
X45696467Y-99306375D01*
X45601229Y-99353994D01*
X45553610Y-99449232D01*
X45553610Y-99830184D01*
X45601229Y-99925422D01*
X45696467Y-99973041D01*
X45886943Y-99973041D01*
X45982181Y-99925422D01*
X46029800Y-99830184D01*
X46029800Y-99734946D01*
X45553610Y-99639708D01*
X46886943Y-99306375D02*
X46886943Y-99830184D01*
X46839324Y-99925422D01*
X46744086Y-99973041D01*
X46553610Y-99973041D01*
X46458371Y-99925422D01*
X46886943Y-99353994D02*
X46791705Y-99306375D01*
X46553610Y-99306375D01*
X46458371Y-99353994D01*
X46410752Y-99449232D01*
X46410752Y-99544470D01*
X46458371Y-99639708D01*
X46553610Y-99687327D01*
X46791705Y-99687327D01*
X46886943Y-99734946D01*
X47363133Y-99306375D02*
X47363133Y-99973041D01*
X47363133Y-99877803D02*
X47410752Y-99925422D01*
X47505990Y-99973041D01*
X47648848Y-99973041D01*
X47744086Y-99925422D01*
X47791705Y-99830184D01*
X47791705Y-99306375D01*
X47791705Y-99830184D02*
X47839324Y-99925422D01*
X47934562Y-99973041D01*
X48077419Y-99973041D01*
X48172657Y-99925422D01*
X48220276Y-99830184D01*
X48220276Y-99306375D01*
X29791705Y-97982089D02*
X30267895Y-97982089D01*
X29696467Y-97696375D02*
X30029800Y-98696375D01*
X30363133Y-97696375D01*
X30696467Y-97696375D02*
X30696467Y-98363041D01*
X30696467Y-98172565D02*
X30744086Y-98267803D01*
X30791705Y-98315422D01*
X30886943Y-98363041D01*
X30982181Y-98363041D01*
X31172657Y-98363041D02*
X31553610Y-98363041D01*
X31315514Y-98696375D02*
X31315514Y-97839232D01*
X31363133Y-97743994D01*
X31458371Y-97696375D01*
X31553610Y-97696375D01*
X31791705Y-98363041D02*
X31982181Y-97696375D01*
X32172657Y-98172565D01*
X32363133Y-97696375D01*
X32553610Y-98363041D01*
X33077419Y-97696375D02*
X32982181Y-97743994D01*
X32934562Y-97791613D01*
X32886943Y-97886851D01*
X32886943Y-98172565D01*
X32934562Y-98267803D01*
X32982181Y-98315422D01*
X33077419Y-98363041D01*
X33220276Y-98363041D01*
X33315514Y-98315422D01*
X33363133Y-98267803D01*
X33410752Y-98172565D01*
X33410752Y-97886851D01*
X33363133Y-97791613D01*
X33315514Y-97743994D01*
X33220276Y-97696375D01*
X33077419Y-97696375D01*
X33839324Y-97696375D02*
X33839324Y-98363041D01*
X33839324Y-98172565D02*
X33886943Y-98267803D01*
X33934562Y-98315422D01*
X34029800Y-98363041D01*
X34125038Y-98363041D01*
X34458371Y-97696375D02*
X34458371Y-98696375D01*
X34553610Y-98077327D02*
X34839324Y-97696375D01*
X34839324Y-98363041D02*
X34458371Y-97982089D01*
X36029800Y-97696375D02*
X36029800Y-98696375D01*
X36029800Y-98315422D02*
X36125038Y-98363041D01*
X36315514Y-98363041D01*
X36410752Y-98315422D01*
X36458371Y-98267803D01*
X36505991Y-98172565D01*
X36505991Y-97886851D01*
X36458371Y-97791613D01*
X36410752Y-97743994D01*
X36315514Y-97696375D01*
X36125038Y-97696375D01*
X36029800Y-97743994D01*
X36839324Y-98363041D02*
X37077419Y-97696375D01*
X37315514Y-98363041D02*
X37077419Y-97696375D01*
X36982181Y-97458279D01*
X36934562Y-97410660D01*
X36839324Y-97363041D01*
X39077419Y-98172565D02*
X39029800Y-98220184D01*
X38934562Y-98267803D01*
X38839324Y-98267803D01*
X38744086Y-98220184D01*
X38696467Y-98172565D01*
X38648848Y-98077327D01*
X38648848Y-97982089D01*
X38696467Y-97886851D01*
X38744086Y-97839232D01*
X38839324Y-97791613D01*
X38934562Y-97791613D01*
X39029800Y-97839232D01*
X39077419Y-97886851D01*
X39077419Y-98267803D02*
X39077419Y-97886851D01*
X39125038Y-97839232D01*
X39172657Y-97839232D01*
X39267895Y-97886851D01*
X39315514Y-97982089D01*
X39315514Y-98220184D01*
X39220276Y-98363041D01*
X39077419Y-98458279D01*
X38886943Y-98505898D01*
X38696467Y-98458279D01*
X38553610Y-98363041D01*
X38458371Y-98220184D01*
X38410752Y-98029708D01*
X38458371Y-97839232D01*
X38553610Y-97696375D01*
X38696467Y-97601136D01*
X38886943Y-97553517D01*
X39077419Y-97601136D01*
X39220276Y-97696375D01*
X40172657Y-97696375D02*
X40172657Y-98220184D01*
X40125038Y-98315422D01*
X40029800Y-98363041D01*
X39839324Y-98363041D01*
X39744086Y-98315422D01*
X40172657Y-97743994D02*
X40077419Y-97696375D01*
X39839324Y-97696375D01*
X39744086Y-97743994D01*
X39696467Y-97839232D01*
X39696467Y-97934470D01*
X39744086Y-98029708D01*
X39839324Y-98077327D01*
X40077419Y-98077327D01*
X40172657Y-98124946D01*
X40791705Y-97696375D02*
X40696467Y-97743994D01*
X40648848Y-97839232D01*
X40648848Y-98696375D01*
X41601229Y-97696375D02*
X41601229Y-98220184D01*
X41553610Y-98315422D01*
X41458371Y-98363041D01*
X41267895Y-98363041D01*
X41172657Y-98315422D01*
X41601229Y-97743994D02*
X41505991Y-97696375D01*
X41267895Y-97696375D01*
X41172657Y-97743994D01*
X41125038Y-97839232D01*
X41125038Y-97934470D01*
X41172657Y-98029708D01*
X41267895Y-98077327D01*
X41505991Y-98077327D01*
X41601229Y-98124946D01*
X42077419Y-97696375D02*
X42077419Y-98363041D01*
X42077419Y-98267803D02*
X42125038Y-98315422D01*
X42220276Y-98363041D01*
X42363133Y-98363041D01*
X42458371Y-98315422D01*
X42505991Y-98220184D01*
X42505991Y-97696375D01*
X42505991Y-98220184D02*
X42553610Y-98315422D01*
X42648848Y-98363041D01*
X42791705Y-98363041D01*
X42886943Y-98315422D01*
X42934562Y-98220184D01*
X42934562Y-97696375D01*
X43791705Y-97743994D02*
X43696467Y-97696375D01*
X43505990Y-97696375D01*
X43410752Y-97743994D01*
X43363133Y-97839232D01*
X43363133Y-98220184D01*
X43410752Y-98315422D01*
X43505990Y-98363041D01*
X43696467Y-98363041D01*
X43791705Y-98315422D01*
X43839324Y-98220184D01*
X43839324Y-98124946D01*
X43363133Y-98029708D01*
X44696467Y-97696375D02*
X44696467Y-98696375D01*
X44696467Y-97743994D02*
X44601229Y-97696375D01*
X44410752Y-97696375D01*
X44315514Y-97743994D01*
X44267895Y-97791613D01*
X44220276Y-97886851D01*
X44220276Y-98172565D01*
X44267895Y-98267803D01*
X44315514Y-98315422D01*
X44410752Y-98363041D01*
X44601229Y-98363041D01*
X44696467Y-98315422D01*
X45077419Y-98363041D02*
X45315514Y-97696375D01*
X45553610Y-98363041D02*
X45315514Y-97696375D01*
X45220276Y-97458279D01*
X45172657Y-97410660D01*
X45077419Y-97363041D01*
X46363133Y-97696375D02*
X46363133Y-98220184D01*
X46315514Y-98315422D01*
X46220276Y-98363041D01*
X46029800Y-98363041D01*
X45934562Y-98315422D01*
X46363133Y-97743994D02*
X46267895Y-97696375D01*
X46029800Y-97696375D01*
X45934562Y-97743994D01*
X45886943Y-97839232D01*
X45886943Y-97934470D01*
X45934562Y-98029708D01*
X46029800Y-98077327D01*
X46267895Y-98077327D01*
X46363133Y-98124946D01*
X46839324Y-98363041D02*
X46839324Y-97696375D01*
X46839324Y-98267803D02*
X46886943Y-98315422D01*
X46982181Y-98363041D01*
X47125038Y-98363041D01*
X47220276Y-98315422D01*
X47267895Y-98220184D01*
X47267895Y-97696375D01*
X48172657Y-98363041D02*
X48172657Y-97553517D01*
X48125038Y-97458279D01*
X48077419Y-97410660D01*
X47982181Y-97363041D01*
X47839324Y-97363041D01*
X47744086Y-97410660D01*
X48172657Y-97743994D02*
X48077419Y-97696375D01*
X47886943Y-97696375D01*
X47791705Y-97743994D01*
X47744086Y-97791613D01*
X47696467Y-97886851D01*
X47696467Y-98172565D01*
X47744086Y-98267803D01*
X47791705Y-98315422D01*
X47886943Y-98363041D01*
X48077419Y-98363041D01*
X48172657Y-98315422D01*
X78259455Y-99306375D02*
X78259455Y-100306375D01*
X78497550Y-100306375D01*
X78640407Y-100258756D01*
X78735645Y-100163517D01*
X78783264Y-100068279D01*
X78830883Y-99877803D01*
X78830883Y-99734946D01*
X78783264Y-99544470D01*
X78735645Y-99449232D01*
X78640407Y-99353994D01*
X78497550Y-99306375D01*
X78259455Y-99306375D01*
X79830883Y-99401613D02*
X79783264Y-99353994D01*
X79640407Y-99306375D01*
X79545169Y-99306375D01*
X79402312Y-99353994D01*
X79307074Y-99449232D01*
X79259455Y-99544470D01*
X79211836Y-99734946D01*
X79211836Y-99877803D01*
X79259455Y-100068279D01*
X79307074Y-100163517D01*
X79402312Y-100258756D01*
X79545169Y-100306375D01*
X79640407Y-100306375D01*
X79783264Y-100258756D01*
X79830883Y-100211136D01*
X80402312Y-99877803D02*
X80307074Y-99925422D01*
X80259455Y-99973041D01*
X80211836Y-100068279D01*
X80211836Y-100115898D01*
X80259455Y-100211136D01*
X80307074Y-100258756D01*
X80402312Y-100306375D01*
X80592788Y-100306375D01*
X80688026Y-100258756D01*
X80735645Y-100211136D01*
X80783264Y-100115898D01*
X80783264Y-100068279D01*
X80735645Y-99973041D01*
X80688026Y-99925422D01*
X80592788Y-99877803D01*
X80402312Y-99877803D01*
X80307074Y-99830184D01*
X80259455Y-99782565D01*
X80211836Y-99687327D01*
X80211836Y-99496851D01*
X80259455Y-99401613D01*
X80307074Y-99353994D01*
X80402312Y-99306375D01*
X80592788Y-99306375D01*
X80688026Y-99353994D01*
X80735645Y-99401613D01*
X80783264Y-99496851D01*
X80783264Y-99687327D01*
X80735645Y-99782565D01*
X80688026Y-99830184D01*
X80592788Y-99877803D01*
X81402312Y-100306375D02*
X81497550Y-100306375D01*
X81592788Y-100258756D01*
X81640407Y-100211136D01*
X81688026Y-100115898D01*
X81735645Y-99925422D01*
X81735645Y-99687327D01*
X81688026Y-99496851D01*
X81640407Y-99401613D01*
X81592788Y-99353994D01*
X81497550Y-99306375D01*
X81402312Y-99306375D01*
X81307074Y-99353994D01*
X81259455Y-99401613D01*
X81211836Y-99496851D01*
X81164217Y-99687327D01*
X81164217Y-99925422D01*
X81211836Y-100115898D01*
X81259455Y-100211136D01*
X81307074Y-100258756D01*
X81402312Y-100306375D01*
X82688026Y-99306375D02*
X82116598Y-99306375D01*
X82402312Y-99306375D02*
X82402312Y-100306375D01*
X82307074Y-100163517D01*
X82211836Y-100068279D01*
X82116598Y-100020660D01*
X84211836Y-99830184D02*
X84354693Y-99782565D01*
X84402312Y-99734946D01*
X84449931Y-99639708D01*
X84449931Y-99496851D01*
X84402312Y-99401613D01*
X84354693Y-99353994D01*
X84259455Y-99306375D01*
X83878502Y-99306375D01*
X83878502Y-100306375D01*
X84211836Y-100306375D01*
X84307074Y-100258756D01*
X84354693Y-100211136D01*
X84402312Y-100115898D01*
X84402312Y-100020660D01*
X84354693Y-99925422D01*
X84307074Y-99877803D01*
X84211836Y-99830184D01*
X83878502Y-99830184D01*
X85021360Y-99306375D02*
X84926121Y-99353994D01*
X84878502Y-99449232D01*
X84878502Y-100306375D01*
X85830883Y-99306375D02*
X85830883Y-99830184D01*
X85783264Y-99925422D01*
X85688026Y-99973041D01*
X85497550Y-99973041D01*
X85402312Y-99925422D01*
X85830883Y-99353994D02*
X85735645Y-99306375D01*
X85497550Y-99306375D01*
X85402312Y-99353994D01*
X85354693Y-99449232D01*
X85354693Y-99544470D01*
X85402312Y-99639708D01*
X85497550Y-99687327D01*
X85735645Y-99687327D01*
X85830883Y-99734946D01*
X86735645Y-99353994D02*
X86640407Y-99306375D01*
X86449931Y-99306375D01*
X86354693Y-99353994D01*
X86307074Y-99401613D01*
X86259455Y-99496851D01*
X86259455Y-99782565D01*
X86307074Y-99877803D01*
X86354693Y-99925422D01*
X86449931Y-99973041D01*
X86640407Y-99973041D01*
X86735645Y-99925422D01*
X87164217Y-99306375D02*
X87164217Y-100306375D01*
X87259455Y-99687327D02*
X87545169Y-99306375D01*
X87545169Y-99973041D02*
X87164217Y-99592089D01*
X88735645Y-99306375D02*
X88735645Y-100306375D01*
X89068979Y-99592089D01*
X89402312Y-100306375D01*
X89402312Y-99306375D01*
X90307074Y-99306375D02*
X90307074Y-99830184D01*
X90259455Y-99925422D01*
X90164217Y-99973041D01*
X89973741Y-99973041D01*
X89878502Y-99925422D01*
X90307074Y-99353994D02*
X90211836Y-99306375D01*
X89973741Y-99306375D01*
X89878502Y-99353994D01*
X89830883Y-99449232D01*
X89830883Y-99544470D01*
X89878502Y-99639708D01*
X89973741Y-99687327D01*
X90211836Y-99687327D01*
X90307074Y-99734946D01*
X91211836Y-99973041D02*
X91211836Y-99163517D01*
X91164217Y-99068279D01*
X91116598Y-99020660D01*
X91021360Y-98973041D01*
X90878502Y-98973041D01*
X90783264Y-99020660D01*
X91211836Y-99353994D02*
X91116598Y-99306375D01*
X90926121Y-99306375D01*
X90830883Y-99353994D01*
X90783264Y-99401613D01*
X90735645Y-99496851D01*
X90735645Y-99782565D01*
X90783264Y-99877803D01*
X90830883Y-99925422D01*
X90926121Y-99973041D01*
X91116598Y-99973041D01*
X91211836Y-99925422D01*
X92068979Y-99353994D02*
X91973741Y-99306375D01*
X91783264Y-99306375D01*
X91688026Y-99353994D01*
X91640407Y-99449232D01*
X91640407Y-99830184D01*
X91688026Y-99925422D01*
X91783264Y-99973041D01*
X91973741Y-99973041D01*
X92068979Y-99925422D01*
X92116598Y-99830184D01*
X92116598Y-99734946D01*
X91640407Y-99639708D01*
X93164217Y-100306375D02*
X93735645Y-100306375D01*
X93449931Y-99306375D02*
X93449931Y-100306375D01*
X94449931Y-99353994D02*
X94354693Y-99306375D01*
X94164217Y-99306375D01*
X94068979Y-99353994D01*
X94021360Y-99449232D01*
X94021360Y-99830184D01*
X94068979Y-99925422D01*
X94164217Y-99973041D01*
X94354693Y-99973041D01*
X94449931Y-99925422D01*
X94497550Y-99830184D01*
X94497550Y-99734946D01*
X94021360Y-99639708D01*
X95354693Y-99306375D02*
X95354693Y-99830184D01*
X95307074Y-99925422D01*
X95211836Y-99973041D01*
X95021360Y-99973041D01*
X94926121Y-99925422D01*
X95354693Y-99353994D02*
X95259455Y-99306375D01*
X95021360Y-99306375D01*
X94926121Y-99353994D01*
X94878502Y-99449232D01*
X94878502Y-99544470D01*
X94926121Y-99639708D01*
X95021360Y-99687327D01*
X95259455Y-99687327D01*
X95354693Y-99734946D01*
X95830883Y-99306375D02*
X95830883Y-99973041D01*
X95830883Y-99877803D02*
X95878502Y-99925422D01*
X95973741Y-99973041D01*
X96116598Y-99973041D01*
X96211836Y-99925422D01*
X96259455Y-99830184D01*
X96259455Y-99306375D01*
X96259455Y-99830184D02*
X96307074Y-99925422D01*
X96402312Y-99973041D01*
X96545169Y-99973041D01*
X96640407Y-99925422D01*
X96688026Y-99830184D01*
X96688026Y-99306375D01*
X78259455Y-97982089D02*
X78735645Y-97982089D01*
X78164217Y-97696375D02*
X78497550Y-98696375D01*
X78830883Y-97696375D01*
X79164217Y-97696375D02*
X79164217Y-98363041D01*
X79164217Y-98172565D02*
X79211836Y-98267803D01*
X79259455Y-98315422D01*
X79354693Y-98363041D01*
X79449931Y-98363041D01*
X79640407Y-98363041D02*
X80021360Y-98363041D01*
X79783264Y-98696375D02*
X79783264Y-97839232D01*
X79830883Y-97743994D01*
X79926121Y-97696375D01*
X80021360Y-97696375D01*
X80259455Y-98363041D02*
X80449931Y-97696375D01*
X80640407Y-98172565D01*
X80830883Y-97696375D01*
X81021360Y-98363041D01*
X81545169Y-97696375D02*
X81449931Y-97743994D01*
X81402312Y-97791613D01*
X81354693Y-97886851D01*
X81354693Y-98172565D01*
X81402312Y-98267803D01*
X81449931Y-98315422D01*
X81545169Y-98363041D01*
X81688026Y-98363041D01*
X81783264Y-98315422D01*
X81830883Y-98267803D01*
X81878502Y-98172565D01*
X81878502Y-97886851D01*
X81830883Y-97791613D01*
X81783264Y-97743994D01*
X81688026Y-97696375D01*
X81545169Y-97696375D01*
X82307074Y-97696375D02*
X82307074Y-98363041D01*
X82307074Y-98172565D02*
X82354693Y-98267803D01*
X82402312Y-98315422D01*
X82497550Y-98363041D01*
X82592788Y-98363041D01*
X82926121Y-97696375D02*
X82926121Y-98696375D01*
X83021360Y-98077327D02*
X83307074Y-97696375D01*
X83307074Y-98363041D02*
X82926121Y-97982089D01*
X84497550Y-97696375D02*
X84497550Y-98696375D01*
X84497550Y-98315422D02*
X84592788Y-98363041D01*
X84783264Y-98363041D01*
X84878502Y-98315422D01*
X84926121Y-98267803D01*
X84973741Y-98172565D01*
X84973741Y-97886851D01*
X84926121Y-97791613D01*
X84878502Y-97743994D01*
X84783264Y-97696375D01*
X84592788Y-97696375D01*
X84497550Y-97743994D01*
X85307074Y-98363041D02*
X85545169Y-97696375D01*
X85783264Y-98363041D02*
X85545169Y-97696375D01*
X85449931Y-97458279D01*
X85402312Y-97410660D01*
X85307074Y-97363041D01*
X87545169Y-98172565D02*
X87497550Y-98220184D01*
X87402312Y-98267803D01*
X87307074Y-98267803D01*
X87211836Y-98220184D01*
X87164217Y-98172565D01*
X87116598Y-98077327D01*
X87116598Y-97982089D01*
X87164217Y-97886851D01*
X87211836Y-97839232D01*
X87307074Y-97791613D01*
X87402312Y-97791613D01*
X87497550Y-97839232D01*
X87545169Y-97886851D01*
X87545169Y-98267803D02*
X87545169Y-97886851D01*
X87592788Y-97839232D01*
X87640407Y-97839232D01*
X87735645Y-97886851D01*
X87783264Y-97982089D01*
X87783264Y-98220184D01*
X87688026Y-98363041D01*
X87545169Y-98458279D01*
X87354693Y-98505898D01*
X87164217Y-98458279D01*
X87021360Y-98363041D01*
X86926121Y-98220184D01*
X86878502Y-98029708D01*
X86926121Y-97839232D01*
X87021360Y-97696375D01*
X87164217Y-97601136D01*
X87354693Y-97553517D01*
X87545169Y-97601136D01*
X87688026Y-97696375D01*
X88640407Y-97696375D02*
X88640407Y-98220184D01*
X88592788Y-98315422D01*
X88497550Y-98363041D01*
X88307074Y-98363041D01*
X88211836Y-98315422D01*
X88640407Y-97743994D02*
X88545169Y-97696375D01*
X88307074Y-97696375D01*
X88211836Y-97743994D01*
X88164217Y-97839232D01*
X88164217Y-97934470D01*
X88211836Y-98029708D01*
X88307074Y-98077327D01*
X88545169Y-98077327D01*
X88640407Y-98124946D01*
X89259455Y-97696375D02*
X89164217Y-97743994D01*
X89116598Y-97839232D01*
X89116598Y-98696375D01*
X90068979Y-97696375D02*
X90068979Y-98220184D01*
X90021360Y-98315422D01*
X89926121Y-98363041D01*
X89735645Y-98363041D01*
X89640407Y-98315422D01*
X90068979Y-97743994D02*
X89973741Y-97696375D01*
X89735645Y-97696375D01*
X89640407Y-97743994D01*
X89592788Y-97839232D01*
X89592788Y-97934470D01*
X89640407Y-98029708D01*
X89735645Y-98077327D01*
X89973741Y-98077327D01*
X90068979Y-98124946D01*
X90545169Y-97696375D02*
X90545169Y-98363041D01*
X90545169Y-98267803D02*
X90592788Y-98315422D01*
X90688026Y-98363041D01*
X90830883Y-98363041D01*
X90926121Y-98315422D01*
X90973741Y-98220184D01*
X90973741Y-97696375D01*
X90973741Y-98220184D02*
X91021360Y-98315422D01*
X91116598Y-98363041D01*
X91259455Y-98363041D01*
X91354693Y-98315422D01*
X91402312Y-98220184D01*
X91402312Y-97696375D01*
X92259455Y-97743994D02*
X92164217Y-97696375D01*
X91973741Y-97696375D01*
X91878502Y-97743994D01*
X91830883Y-97839232D01*
X91830883Y-98220184D01*
X91878502Y-98315422D01*
X91973741Y-98363041D01*
X92164217Y-98363041D01*
X92259455Y-98315422D01*
X92307074Y-98220184D01*
X92307074Y-98124946D01*
X91830883Y-98029708D01*
X93164217Y-97696375D02*
X93164217Y-98696375D01*
X93164217Y-97743994D02*
X93068979Y-97696375D01*
X92878502Y-97696375D01*
X92783264Y-97743994D01*
X92735645Y-97791613D01*
X92688026Y-97886851D01*
X92688026Y-98172565D01*
X92735645Y-98267803D01*
X92783264Y-98315422D01*
X92878502Y-98363041D01*
X93068979Y-98363041D01*
X93164217Y-98315422D01*
X93545169Y-98363041D02*
X93783264Y-97696375D01*
X94021360Y-98363041D02*
X93783264Y-97696375D01*
X93688026Y-97458279D01*
X93640407Y-97410660D01*
X93545169Y-97363041D01*
X94830883Y-97696375D02*
X94830883Y-98220184D01*
X94783264Y-98315422D01*
X94688026Y-98363041D01*
X94497550Y-98363041D01*
X94402312Y-98315422D01*
X94830883Y-97743994D02*
X94735645Y-97696375D01*
X94497550Y-97696375D01*
X94402312Y-97743994D01*
X94354693Y-97839232D01*
X94354693Y-97934470D01*
X94402312Y-98029708D01*
X94497550Y-98077327D01*
X94735645Y-98077327D01*
X94830883Y-98124946D01*
X95307074Y-98363041D02*
X95307074Y-97696375D01*
X95307074Y-98267803D02*
X95354693Y-98315422D01*
X95449931Y-98363041D01*
X95592788Y-98363041D01*
X95688026Y-98315422D01*
X95735645Y-98220184D01*
X95735645Y-97696375D01*
X96640407Y-98363041D02*
X96640407Y-97553517D01*
X96592788Y-97458279D01*
X96545169Y-97410660D01*
X96449931Y-97363041D01*
X96307074Y-97363041D01*
X96211836Y-97410660D01*
X96640407Y-97743994D02*
X96545169Y-97696375D01*
X96354693Y-97696375D01*
X96259455Y-97743994D01*
X96211836Y-97791613D01*
X96164217Y-97886851D01*
X96164217Y-98172565D01*
X96211836Y-98267803D01*
X96259455Y-98315422D01*
X96354693Y-98363041D01*
X96545169Y-98363041D01*
X96640407Y-98315422D01*
X192063526Y-79573194D02*
X192063526Y-78573194D01*
X191825431Y-78573194D01*
X191682574Y-78620814D01*
X191587336Y-78716052D01*
X191539717Y-78811290D01*
X191492098Y-79001766D01*
X191492098Y-79144623D01*
X191539717Y-79335099D01*
X191587336Y-79430337D01*
X191682574Y-79525575D01*
X191825431Y-79573194D01*
X192063526Y-79573194D01*
X190492098Y-79477956D02*
X190539717Y-79525575D01*
X190682574Y-79573194D01*
X190777812Y-79573194D01*
X190920669Y-79525575D01*
X191015907Y-79430337D01*
X191063526Y-79335099D01*
X191111145Y-79144623D01*
X191111145Y-79001766D01*
X191063526Y-78811290D01*
X191015907Y-78716052D01*
X190920669Y-78620814D01*
X190777812Y-78573194D01*
X190682574Y-78573194D01*
X190539717Y-78620814D01*
X190492098Y-78668433D01*
X189920669Y-79001766D02*
X190015907Y-78954147D01*
X190063526Y-78906528D01*
X190111145Y-78811290D01*
X190111145Y-78763671D01*
X190063526Y-78668433D01*
X190015907Y-78620814D01*
X189920669Y-78573194D01*
X189730193Y-78573194D01*
X189634955Y-78620814D01*
X189587336Y-78668433D01*
X189539717Y-78763671D01*
X189539717Y-78811290D01*
X189587336Y-78906528D01*
X189634955Y-78954147D01*
X189730193Y-79001766D01*
X189920669Y-79001766D01*
X190015907Y-79049385D01*
X190063526Y-79097004D01*
X190111145Y-79192242D01*
X190111145Y-79382718D01*
X190063526Y-79477956D01*
X190015907Y-79525575D01*
X189920669Y-79573194D01*
X189730193Y-79573194D01*
X189634955Y-79525575D01*
X189587336Y-79477956D01*
X189539717Y-79382718D01*
X189539717Y-79192242D01*
X189587336Y-79097004D01*
X189634955Y-79049385D01*
X189730193Y-79001766D01*
X188920669Y-78573194D02*
X188825431Y-78573194D01*
X188730193Y-78620814D01*
X188682574Y-78668433D01*
X188634955Y-78763671D01*
X188587336Y-78954147D01*
X188587336Y-79192242D01*
X188634955Y-79382718D01*
X188682574Y-79477956D01*
X188730193Y-79525575D01*
X188825431Y-79573194D01*
X188920669Y-79573194D01*
X189015907Y-79525575D01*
X189063526Y-79477956D01*
X189111145Y-79382718D01*
X189158764Y-79192242D01*
X189158764Y-78954147D01*
X189111145Y-78763671D01*
X189063526Y-78668433D01*
X189015907Y-78620814D01*
X188920669Y-78573194D01*
X187634955Y-79573194D02*
X188206383Y-79573194D01*
X187920669Y-79573194D02*
X187920669Y-78573194D01*
X188015907Y-78716052D01*
X188111145Y-78811290D01*
X188206383Y-78858909D01*
X186111145Y-79049385D02*
X185968288Y-79097004D01*
X185920669Y-79144623D01*
X185873050Y-79239861D01*
X185873050Y-79382718D01*
X185920669Y-79477956D01*
X185968288Y-79525575D01*
X186063526Y-79573194D01*
X186444479Y-79573194D01*
X186444479Y-78573194D01*
X186111145Y-78573194D01*
X186015907Y-78620814D01*
X185968288Y-78668433D01*
X185920669Y-78763671D01*
X185920669Y-78858909D01*
X185968288Y-78954147D01*
X186015907Y-79001766D01*
X186111145Y-79049385D01*
X186444479Y-79049385D01*
X185301621Y-79573194D02*
X185396860Y-79525575D01*
X185444479Y-79430337D01*
X185444479Y-78573194D01*
X184492098Y-79573194D02*
X184492098Y-79049385D01*
X184539717Y-78954147D01*
X184634955Y-78906528D01*
X184825431Y-78906528D01*
X184920669Y-78954147D01*
X184492098Y-79525575D02*
X184587336Y-79573194D01*
X184825431Y-79573194D01*
X184920669Y-79525575D01*
X184968288Y-79430337D01*
X184968288Y-79335099D01*
X184920669Y-79239861D01*
X184825431Y-79192242D01*
X184587336Y-79192242D01*
X184492098Y-79144623D01*
X183587336Y-79525575D02*
X183682574Y-79573194D01*
X183873050Y-79573194D01*
X183968288Y-79525575D01*
X184015907Y-79477956D01*
X184063526Y-79382718D01*
X184063526Y-79097004D01*
X184015907Y-79001766D01*
X183968288Y-78954147D01*
X183873050Y-78906528D01*
X183682574Y-78906528D01*
X183587336Y-78954147D01*
X183158764Y-79573194D02*
X183158764Y-78573194D01*
X183063526Y-79192242D02*
X182777812Y-79573194D01*
X182777812Y-78906528D02*
X183158764Y-79287480D01*
X181587336Y-79573194D02*
X181587336Y-78573194D01*
X181254002Y-79287480D01*
X180920669Y-78573194D01*
X180920669Y-79573194D01*
X180015907Y-79573194D02*
X180015907Y-79049385D01*
X180063526Y-78954147D01*
X180158764Y-78906528D01*
X180349241Y-78906528D01*
X180444479Y-78954147D01*
X180015907Y-79525575D02*
X180111145Y-79573194D01*
X180349241Y-79573194D01*
X180444479Y-79525575D01*
X180492098Y-79430337D01*
X180492098Y-79335099D01*
X180444479Y-79239861D01*
X180349241Y-79192242D01*
X180111145Y-79192242D01*
X180015907Y-79144623D01*
X179111145Y-78906528D02*
X179111145Y-79716052D01*
X179158764Y-79811290D01*
X179206383Y-79858909D01*
X179301621Y-79906528D01*
X179444479Y-79906528D01*
X179539717Y-79858909D01*
X179111145Y-79525575D02*
X179206383Y-79573194D01*
X179396860Y-79573194D01*
X179492098Y-79525575D01*
X179539717Y-79477956D01*
X179587336Y-79382718D01*
X179587336Y-79097004D01*
X179539717Y-79001766D01*
X179492098Y-78954147D01*
X179396860Y-78906528D01*
X179206383Y-78906528D01*
X179111145Y-78954147D01*
X178254002Y-79525575D02*
X178349241Y-79573194D01*
X178539717Y-79573194D01*
X178634955Y-79525575D01*
X178682574Y-79430337D01*
X178682574Y-79049385D01*
X178634955Y-78954147D01*
X178539717Y-78906528D01*
X178349241Y-78906528D01*
X178254002Y-78954147D01*
X178206383Y-79049385D01*
X178206383Y-79144623D01*
X178682574Y-79239861D01*
X177158764Y-78573194D02*
X176587336Y-78573194D01*
X176873050Y-79573194D02*
X176873050Y-78573194D01*
X175873050Y-79525575D02*
X175968288Y-79573194D01*
X176158764Y-79573194D01*
X176254002Y-79525575D01*
X176301621Y-79430337D01*
X176301621Y-79049385D01*
X176254002Y-78954147D01*
X176158764Y-78906528D01*
X175968288Y-78906528D01*
X175873050Y-78954147D01*
X175825431Y-79049385D01*
X175825431Y-79144623D01*
X176301621Y-79239861D01*
X174968288Y-79573194D02*
X174968288Y-79049385D01*
X175015907Y-78954147D01*
X175111145Y-78906528D01*
X175301621Y-78906528D01*
X175396860Y-78954147D01*
X174968288Y-79525575D02*
X175063526Y-79573194D01*
X175301621Y-79573194D01*
X175396860Y-79525575D01*
X175444479Y-79430337D01*
X175444479Y-79335099D01*
X175396860Y-79239861D01*
X175301621Y-79192242D01*
X175063526Y-79192242D01*
X174968288Y-79144623D01*
X174492098Y-79573194D02*
X174492098Y-78906528D01*
X174492098Y-79001766D02*
X174444479Y-78954147D01*
X174349241Y-78906528D01*
X174206383Y-78906528D01*
X174111145Y-78954147D01*
X174063526Y-79049385D01*
X174063526Y-79573194D01*
X174063526Y-79049385D02*
X174015907Y-78954147D01*
X173920669Y-78906528D01*
X173777812Y-78906528D01*
X173682574Y-78954147D01*
X173634955Y-79049385D01*
X173634955Y-79573194D01*
X192063526Y-80897480D02*
X191587336Y-80897480D01*
X192158764Y-81183194D02*
X191825431Y-80183194D01*
X191492098Y-81183194D01*
X191158764Y-81183194D02*
X191158764Y-80516528D01*
X191158764Y-80707004D02*
X191111145Y-80611766D01*
X191063526Y-80564147D01*
X190968288Y-80516528D01*
X190873050Y-80516528D01*
X190682574Y-80516528D02*
X190301621Y-80516528D01*
X190539717Y-80183194D02*
X190539717Y-81040337D01*
X190492098Y-81135575D01*
X190396860Y-81183194D01*
X190301621Y-81183194D01*
X190063526Y-80516528D02*
X189873050Y-81183194D01*
X189682574Y-80707004D01*
X189492098Y-81183194D01*
X189301621Y-80516528D01*
X188777812Y-81183194D02*
X188873050Y-81135575D01*
X188920669Y-81087956D01*
X188968288Y-80992718D01*
X188968288Y-80707004D01*
X188920669Y-80611766D01*
X188873050Y-80564147D01*
X188777812Y-80516528D01*
X188634955Y-80516528D01*
X188539717Y-80564147D01*
X188492098Y-80611766D01*
X188444479Y-80707004D01*
X188444479Y-80992718D01*
X188492098Y-81087956D01*
X188539717Y-81135575D01*
X188634955Y-81183194D01*
X188777812Y-81183194D01*
X188015907Y-81183194D02*
X188015907Y-80516528D01*
X188015907Y-80707004D02*
X187968288Y-80611766D01*
X187920669Y-80564147D01*
X187825431Y-80516528D01*
X187730193Y-80516528D01*
X187396860Y-81183194D02*
X187396860Y-80183194D01*
X187301621Y-80802242D02*
X187015907Y-81183194D01*
X187015907Y-80516528D02*
X187396860Y-80897480D01*
X185825431Y-81183194D02*
X185825431Y-80183194D01*
X185825431Y-80564147D02*
X185730193Y-80516528D01*
X185539717Y-80516528D01*
X185444479Y-80564147D01*
X185396860Y-80611766D01*
X185349241Y-80707004D01*
X185349241Y-80992718D01*
X185396860Y-81087956D01*
X185444479Y-81135575D01*
X185539717Y-81183194D01*
X185730193Y-81183194D01*
X185825431Y-81135575D01*
X185015907Y-80516528D02*
X184777812Y-81183194D01*
X184539717Y-80516528D02*
X184777812Y-81183194D01*
X184873050Y-81421290D01*
X184920669Y-81468909D01*
X185015907Y-81516528D01*
X182777812Y-80707004D02*
X182825431Y-80659385D01*
X182920669Y-80611766D01*
X183015907Y-80611766D01*
X183111145Y-80659385D01*
X183158764Y-80707004D01*
X183206383Y-80802242D01*
X183206383Y-80897480D01*
X183158764Y-80992718D01*
X183111145Y-81040337D01*
X183015907Y-81087956D01*
X182920669Y-81087956D01*
X182825431Y-81040337D01*
X182777812Y-80992718D01*
X182777812Y-80611766D02*
X182777812Y-80992718D01*
X182730193Y-81040337D01*
X182682574Y-81040337D01*
X182587336Y-80992718D01*
X182539717Y-80897480D01*
X182539717Y-80659385D01*
X182634955Y-80516528D01*
X182777812Y-80421290D01*
X182968288Y-80373671D01*
X183158764Y-80421290D01*
X183301621Y-80516528D01*
X183396860Y-80659385D01*
X183444479Y-80849861D01*
X183396860Y-81040337D01*
X183301621Y-81183194D01*
X183158764Y-81278433D01*
X182968288Y-81326052D01*
X182777812Y-81278433D01*
X182634955Y-81183194D01*
X181682574Y-81183194D02*
X181682574Y-80659385D01*
X181730193Y-80564147D01*
X181825431Y-80516528D01*
X182015907Y-80516528D01*
X182111145Y-80564147D01*
X181682574Y-81135575D02*
X181777812Y-81183194D01*
X182015907Y-81183194D01*
X182111145Y-81135575D01*
X182158764Y-81040337D01*
X182158764Y-80945099D01*
X182111145Y-80849861D01*
X182015907Y-80802242D01*
X181777812Y-80802242D01*
X181682574Y-80754623D01*
X181063526Y-81183194D02*
X181158764Y-81135575D01*
X181206383Y-81040337D01*
X181206383Y-80183194D01*
X180254002Y-81183194D02*
X180254002Y-80659385D01*
X180301621Y-80564147D01*
X180396860Y-80516528D01*
X180587336Y-80516528D01*
X180682574Y-80564147D01*
X180254002Y-81135575D02*
X180349241Y-81183194D01*
X180587336Y-81183194D01*
X180682574Y-81135575D01*
X180730193Y-81040337D01*
X180730193Y-80945099D01*
X180682574Y-80849861D01*
X180587336Y-80802242D01*
X180349241Y-80802242D01*
X180254002Y-80754623D01*
X179777812Y-81183194D02*
X179777812Y-80516528D01*
X179777812Y-80611766D02*
X179730193Y-80564147D01*
X179634955Y-80516528D01*
X179492098Y-80516528D01*
X179396860Y-80564147D01*
X179349241Y-80659385D01*
X179349241Y-81183194D01*
X179349241Y-80659385D02*
X179301621Y-80564147D01*
X179206383Y-80516528D01*
X179063526Y-80516528D01*
X178968288Y-80564147D01*
X178920669Y-80659385D01*
X178920669Y-81183194D01*
X178063526Y-81135575D02*
X178158764Y-81183194D01*
X178349241Y-81183194D01*
X178444479Y-81135575D01*
X178492098Y-81040337D01*
X178492098Y-80659385D01*
X178444479Y-80564147D01*
X178349241Y-80516528D01*
X178158764Y-80516528D01*
X178063526Y-80564147D01*
X178015907Y-80659385D01*
X178015907Y-80754623D01*
X178492098Y-80849861D01*
X177158764Y-81183194D02*
X177158764Y-80183194D01*
X177158764Y-81135575D02*
X177254002Y-81183194D01*
X177444479Y-81183194D01*
X177539717Y-81135575D01*
X177587336Y-81087956D01*
X177634955Y-80992718D01*
X177634955Y-80707004D01*
X177587336Y-80611766D01*
X177539717Y-80564147D01*
X177444479Y-80516528D01*
X177254002Y-80516528D01*
X177158764Y-80564147D01*
X176777812Y-80516528D02*
X176539717Y-81183194D01*
X176301621Y-80516528D02*
X176539717Y-81183194D01*
X176634955Y-81421290D01*
X176682574Y-81468909D01*
X176777812Y-81516528D01*
X175492098Y-81183194D02*
X175492098Y-80659385D01*
X175539717Y-80564147D01*
X175634955Y-80516528D01*
X175825431Y-80516528D01*
X175920669Y-80564147D01*
X175492098Y-81135575D02*
X175587336Y-81183194D01*
X175825431Y-81183194D01*
X175920669Y-81135575D01*
X175968288Y-81040337D01*
X175968288Y-80945099D01*
X175920669Y-80849861D01*
X175825431Y-80802242D01*
X175587336Y-80802242D01*
X175492098Y-80754623D01*
X175015907Y-80516528D02*
X175015907Y-81183194D01*
X175015907Y-80611766D02*
X174968288Y-80564147D01*
X174873050Y-80516528D01*
X174730193Y-80516528D01*
X174634955Y-80564147D01*
X174587336Y-80659385D01*
X174587336Y-81183194D01*
X173682574Y-80516528D02*
X173682574Y-81326052D01*
X173730193Y-81421290D01*
X173777812Y-81468909D01*
X173873050Y-81516528D01*
X174015907Y-81516528D01*
X174111145Y-81468909D01*
X173682574Y-81135575D02*
X173777812Y-81183194D01*
X173968288Y-81183194D01*
X174063526Y-81135575D01*
X174111145Y-81087956D01*
X174158764Y-80992718D01*
X174158764Y-80707004D01*
X174111145Y-80611766D01*
X174063526Y-80564147D01*
X173968288Y-80516528D01*
X173777812Y-80516528D01*
X173682574Y-80564147D01*
X126727205Y-99306375D02*
X126727205Y-100306375D01*
X126965300Y-100306375D01*
X127108157Y-100258756D01*
X127203395Y-100163517D01*
X127251014Y-100068279D01*
X127298633Y-99877803D01*
X127298633Y-99734946D01*
X127251014Y-99544470D01*
X127203395Y-99449232D01*
X127108157Y-99353994D01*
X126965300Y-99306375D01*
X126727205Y-99306375D01*
X128298633Y-99401613D02*
X128251014Y-99353994D01*
X128108157Y-99306375D01*
X128012919Y-99306375D01*
X127870062Y-99353994D01*
X127774824Y-99449232D01*
X127727205Y-99544470D01*
X127679586Y-99734946D01*
X127679586Y-99877803D01*
X127727205Y-100068279D01*
X127774824Y-100163517D01*
X127870062Y-100258756D01*
X128012919Y-100306375D01*
X128108157Y-100306375D01*
X128251014Y-100258756D01*
X128298633Y-100211136D01*
X128870062Y-99877803D02*
X128774824Y-99925422D01*
X128727205Y-99973041D01*
X128679586Y-100068279D01*
X128679586Y-100115898D01*
X128727205Y-100211136D01*
X128774824Y-100258756D01*
X128870062Y-100306375D01*
X129060538Y-100306375D01*
X129155776Y-100258756D01*
X129203395Y-100211136D01*
X129251014Y-100115898D01*
X129251014Y-100068279D01*
X129203395Y-99973041D01*
X129155776Y-99925422D01*
X129060538Y-99877803D01*
X128870062Y-99877803D01*
X128774824Y-99830184D01*
X128727205Y-99782565D01*
X128679586Y-99687327D01*
X128679586Y-99496851D01*
X128727205Y-99401613D01*
X128774824Y-99353994D01*
X128870062Y-99306375D01*
X129060538Y-99306375D01*
X129155776Y-99353994D01*
X129203395Y-99401613D01*
X129251014Y-99496851D01*
X129251014Y-99687327D01*
X129203395Y-99782565D01*
X129155776Y-99830184D01*
X129060538Y-99877803D01*
X129870062Y-100306375D02*
X129965300Y-100306375D01*
X130060538Y-100258756D01*
X130108157Y-100211136D01*
X130155776Y-100115898D01*
X130203395Y-99925422D01*
X130203395Y-99687327D01*
X130155776Y-99496851D01*
X130108157Y-99401613D01*
X130060538Y-99353994D01*
X129965300Y-99306375D01*
X129870062Y-99306375D01*
X129774824Y-99353994D01*
X129727205Y-99401613D01*
X129679586Y-99496851D01*
X129631967Y-99687327D01*
X129631967Y-99925422D01*
X129679586Y-100115898D01*
X129727205Y-100211136D01*
X129774824Y-100258756D01*
X129870062Y-100306375D01*
X131155776Y-99306375D02*
X130584348Y-99306375D01*
X130870062Y-99306375D02*
X130870062Y-100306375D01*
X130774824Y-100163517D01*
X130679586Y-100068279D01*
X130584348Y-100020660D01*
X132679586Y-99830184D02*
X132822443Y-99782565D01*
X132870062Y-99734946D01*
X132917681Y-99639708D01*
X132917681Y-99496851D01*
X132870062Y-99401613D01*
X132822443Y-99353994D01*
X132727205Y-99306375D01*
X132346252Y-99306375D01*
X132346252Y-100306375D01*
X132679586Y-100306375D01*
X132774824Y-100258756D01*
X132822443Y-100211136D01*
X132870062Y-100115898D01*
X132870062Y-100020660D01*
X132822443Y-99925422D01*
X132774824Y-99877803D01*
X132679586Y-99830184D01*
X132346252Y-99830184D01*
X133489110Y-99306375D02*
X133393871Y-99353994D01*
X133346252Y-99449232D01*
X133346252Y-100306375D01*
X134298633Y-99306375D02*
X134298633Y-99830184D01*
X134251014Y-99925422D01*
X134155776Y-99973041D01*
X133965300Y-99973041D01*
X133870062Y-99925422D01*
X134298633Y-99353994D02*
X134203395Y-99306375D01*
X133965300Y-99306375D01*
X133870062Y-99353994D01*
X133822443Y-99449232D01*
X133822443Y-99544470D01*
X133870062Y-99639708D01*
X133965300Y-99687327D01*
X134203395Y-99687327D01*
X134298633Y-99734946D01*
X135203395Y-99353994D02*
X135108157Y-99306375D01*
X134917681Y-99306375D01*
X134822443Y-99353994D01*
X134774824Y-99401613D01*
X134727205Y-99496851D01*
X134727205Y-99782565D01*
X134774824Y-99877803D01*
X134822443Y-99925422D01*
X134917681Y-99973041D01*
X135108157Y-99973041D01*
X135203395Y-99925422D01*
X135631967Y-99306375D02*
X135631967Y-100306375D01*
X135727205Y-99687327D02*
X136012919Y-99306375D01*
X136012919Y-99973041D02*
X135631967Y-99592089D01*
X137203395Y-99306375D02*
X137203395Y-100306375D01*
X137536729Y-99592089D01*
X137870062Y-100306375D01*
X137870062Y-99306375D01*
X138774824Y-99306375D02*
X138774824Y-99830184D01*
X138727205Y-99925422D01*
X138631967Y-99973041D01*
X138441491Y-99973041D01*
X138346252Y-99925422D01*
X138774824Y-99353994D02*
X138679586Y-99306375D01*
X138441491Y-99306375D01*
X138346252Y-99353994D01*
X138298633Y-99449232D01*
X138298633Y-99544470D01*
X138346252Y-99639708D01*
X138441491Y-99687327D01*
X138679586Y-99687327D01*
X138774824Y-99734946D01*
X139679586Y-99973041D02*
X139679586Y-99163517D01*
X139631967Y-99068279D01*
X139584348Y-99020660D01*
X139489110Y-98973041D01*
X139346252Y-98973041D01*
X139251014Y-99020660D01*
X139679586Y-99353994D02*
X139584348Y-99306375D01*
X139393871Y-99306375D01*
X139298633Y-99353994D01*
X139251014Y-99401613D01*
X139203395Y-99496851D01*
X139203395Y-99782565D01*
X139251014Y-99877803D01*
X139298633Y-99925422D01*
X139393871Y-99973041D01*
X139584348Y-99973041D01*
X139679586Y-99925422D01*
X140536729Y-99353994D02*
X140441491Y-99306375D01*
X140251014Y-99306375D01*
X140155776Y-99353994D01*
X140108157Y-99449232D01*
X140108157Y-99830184D01*
X140155776Y-99925422D01*
X140251014Y-99973041D01*
X140441491Y-99973041D01*
X140536729Y-99925422D01*
X140584348Y-99830184D01*
X140584348Y-99734946D01*
X140108157Y-99639708D01*
X141631967Y-100306375D02*
X142203395Y-100306375D01*
X141917681Y-99306375D02*
X141917681Y-100306375D01*
X142917681Y-99353994D02*
X142822443Y-99306375D01*
X142631967Y-99306375D01*
X142536729Y-99353994D01*
X142489110Y-99449232D01*
X142489110Y-99830184D01*
X142536729Y-99925422D01*
X142631967Y-99973041D01*
X142822443Y-99973041D01*
X142917681Y-99925422D01*
X142965300Y-99830184D01*
X142965300Y-99734946D01*
X142489110Y-99639708D01*
X143822443Y-99306375D02*
X143822443Y-99830184D01*
X143774824Y-99925422D01*
X143679586Y-99973041D01*
X143489110Y-99973041D01*
X143393871Y-99925422D01*
X143822443Y-99353994D02*
X143727205Y-99306375D01*
X143489110Y-99306375D01*
X143393871Y-99353994D01*
X143346252Y-99449232D01*
X143346252Y-99544470D01*
X143393871Y-99639708D01*
X143489110Y-99687327D01*
X143727205Y-99687327D01*
X143822443Y-99734946D01*
X144298633Y-99306375D02*
X144298633Y-99973041D01*
X144298633Y-99877803D02*
X144346252Y-99925422D01*
X144441491Y-99973041D01*
X144584348Y-99973041D01*
X144679586Y-99925422D01*
X144727205Y-99830184D01*
X144727205Y-99306375D01*
X144727205Y-99830184D02*
X144774824Y-99925422D01*
X144870062Y-99973041D01*
X145012919Y-99973041D01*
X145108157Y-99925422D01*
X145155776Y-99830184D01*
X145155776Y-99306375D01*
X126727205Y-97982089D02*
X127203395Y-97982089D01*
X126631967Y-97696375D02*
X126965300Y-98696375D01*
X127298633Y-97696375D01*
X127631967Y-97696375D02*
X127631967Y-98363041D01*
X127631967Y-98172565D02*
X127679586Y-98267803D01*
X127727205Y-98315422D01*
X127822443Y-98363041D01*
X127917681Y-98363041D01*
X128108157Y-98363041D02*
X128489110Y-98363041D01*
X128251014Y-98696375D02*
X128251014Y-97839232D01*
X128298633Y-97743994D01*
X128393871Y-97696375D01*
X128489110Y-97696375D01*
X128727205Y-98363041D02*
X128917681Y-97696375D01*
X129108157Y-98172565D01*
X129298633Y-97696375D01*
X129489110Y-98363041D01*
X130012919Y-97696375D02*
X129917681Y-97743994D01*
X129870062Y-97791613D01*
X129822443Y-97886851D01*
X129822443Y-98172565D01*
X129870062Y-98267803D01*
X129917681Y-98315422D01*
X130012919Y-98363041D01*
X130155776Y-98363041D01*
X130251014Y-98315422D01*
X130298633Y-98267803D01*
X130346252Y-98172565D01*
X130346252Y-97886851D01*
X130298633Y-97791613D01*
X130251014Y-97743994D01*
X130155776Y-97696375D01*
X130012919Y-97696375D01*
X130774824Y-97696375D02*
X130774824Y-98363041D01*
X130774824Y-98172565D02*
X130822443Y-98267803D01*
X130870062Y-98315422D01*
X130965300Y-98363041D01*
X131060538Y-98363041D01*
X131393871Y-97696375D02*
X131393871Y-98696375D01*
X131489110Y-98077327D02*
X131774824Y-97696375D01*
X131774824Y-98363041D02*
X131393871Y-97982089D01*
X132965300Y-97696375D02*
X132965300Y-98696375D01*
X132965300Y-98315422D02*
X133060538Y-98363041D01*
X133251014Y-98363041D01*
X133346252Y-98315422D01*
X133393871Y-98267803D01*
X133441491Y-98172565D01*
X133441491Y-97886851D01*
X133393871Y-97791613D01*
X133346252Y-97743994D01*
X133251014Y-97696375D01*
X133060538Y-97696375D01*
X132965300Y-97743994D01*
X133774824Y-98363041D02*
X134012919Y-97696375D01*
X134251014Y-98363041D02*
X134012919Y-97696375D01*
X133917681Y-97458279D01*
X133870062Y-97410660D01*
X133774824Y-97363041D01*
X136012919Y-98172565D02*
X135965300Y-98220184D01*
X135870062Y-98267803D01*
X135774824Y-98267803D01*
X135679586Y-98220184D01*
X135631967Y-98172565D01*
X135584348Y-98077327D01*
X135584348Y-97982089D01*
X135631967Y-97886851D01*
X135679586Y-97839232D01*
X135774824Y-97791613D01*
X135870062Y-97791613D01*
X135965300Y-97839232D01*
X136012919Y-97886851D01*
X136012919Y-98267803D02*
X136012919Y-97886851D01*
X136060538Y-97839232D01*
X136108157Y-97839232D01*
X136203395Y-97886851D01*
X136251014Y-97982089D01*
X136251014Y-98220184D01*
X136155776Y-98363041D01*
X136012919Y-98458279D01*
X135822443Y-98505898D01*
X135631967Y-98458279D01*
X135489110Y-98363041D01*
X135393871Y-98220184D01*
X135346252Y-98029708D01*
X135393871Y-97839232D01*
X135489110Y-97696375D01*
X135631967Y-97601136D01*
X135822443Y-97553517D01*
X136012919Y-97601136D01*
X136155776Y-97696375D01*
X137108157Y-97696375D02*
X137108157Y-98220184D01*
X137060538Y-98315422D01*
X136965300Y-98363041D01*
X136774824Y-98363041D01*
X136679586Y-98315422D01*
X137108157Y-97743994D02*
X137012919Y-97696375D01*
X136774824Y-97696375D01*
X136679586Y-97743994D01*
X136631967Y-97839232D01*
X136631967Y-97934470D01*
X136679586Y-98029708D01*
X136774824Y-98077327D01*
X137012919Y-98077327D01*
X137108157Y-98124946D01*
X137727205Y-97696375D02*
X137631967Y-97743994D01*
X137584348Y-97839232D01*
X137584348Y-98696375D01*
X138536729Y-97696375D02*
X138536729Y-98220184D01*
X138489110Y-98315422D01*
X138393871Y-98363041D01*
X138203395Y-98363041D01*
X138108157Y-98315422D01*
X138536729Y-97743994D02*
X138441491Y-97696375D01*
X138203395Y-97696375D01*
X138108157Y-97743994D01*
X138060538Y-97839232D01*
X138060538Y-97934470D01*
X138108157Y-98029708D01*
X138203395Y-98077327D01*
X138441491Y-98077327D01*
X138536729Y-98124946D01*
X139012919Y-97696375D02*
X139012919Y-98363041D01*
X139012919Y-98267803D02*
X139060538Y-98315422D01*
X139155776Y-98363041D01*
X139298633Y-98363041D01*
X139393871Y-98315422D01*
X139441491Y-98220184D01*
X139441491Y-97696375D01*
X139441491Y-98220184D02*
X139489110Y-98315422D01*
X139584348Y-98363041D01*
X139727205Y-98363041D01*
X139822443Y-98315422D01*
X139870062Y-98220184D01*
X139870062Y-97696375D01*
X140727205Y-97743994D02*
X140631967Y-97696375D01*
X140441491Y-97696375D01*
X140346252Y-97743994D01*
X140298633Y-97839232D01*
X140298633Y-98220184D01*
X140346252Y-98315422D01*
X140441491Y-98363041D01*
X140631967Y-98363041D01*
X140727205Y-98315422D01*
X140774824Y-98220184D01*
X140774824Y-98124946D01*
X140298633Y-98029708D01*
X141631967Y-97696375D02*
X141631967Y-98696375D01*
X141631967Y-97743994D02*
X141536729Y-97696375D01*
X141346252Y-97696375D01*
X141251014Y-97743994D01*
X141203395Y-97791613D01*
X141155776Y-97886851D01*
X141155776Y-98172565D01*
X141203395Y-98267803D01*
X141251014Y-98315422D01*
X141346252Y-98363041D01*
X141536729Y-98363041D01*
X141631967Y-98315422D01*
X142012919Y-98363041D02*
X142251014Y-97696375D01*
X142489110Y-98363041D02*
X142251014Y-97696375D01*
X142155776Y-97458279D01*
X142108157Y-97410660D01*
X142012919Y-97363041D01*
X143298633Y-97696375D02*
X143298633Y-98220184D01*
X143251014Y-98315422D01*
X143155776Y-98363041D01*
X142965300Y-98363041D01*
X142870062Y-98315422D01*
X143298633Y-97743994D02*
X143203395Y-97696375D01*
X142965300Y-97696375D01*
X142870062Y-97743994D01*
X142822443Y-97839232D01*
X142822443Y-97934470D01*
X142870062Y-98029708D01*
X142965300Y-98077327D01*
X143203395Y-98077327D01*
X143298633Y-98124946D01*
X143774824Y-98363041D02*
X143774824Y-97696375D01*
X143774824Y-98267803D02*
X143822443Y-98315422D01*
X143917681Y-98363041D01*
X144060538Y-98363041D01*
X144155776Y-98315422D01*
X144203395Y-98220184D01*
X144203395Y-97696375D01*
X145108157Y-98363041D02*
X145108157Y-97553517D01*
X145060538Y-97458279D01*
X145012919Y-97410660D01*
X144917681Y-97363041D01*
X144774824Y-97363041D01*
X144679586Y-97410660D01*
X145108157Y-97743994D02*
X145012919Y-97696375D01*
X144822443Y-97696375D01*
X144727205Y-97743994D01*
X144679586Y-97791613D01*
X144631967Y-97886851D01*
X144631967Y-98172565D01*
X144679586Y-98267803D01*
X144727205Y-98315422D01*
X144822443Y-98363041D01*
X145012919Y-98363041D01*
X145108157Y-98315422D01*
X175194955Y-99306375D02*
X175194955Y-100306375D01*
X175433050Y-100306375D01*
X175575907Y-100258756D01*
X175671145Y-100163517D01*
X175718764Y-100068279D01*
X175766383Y-99877803D01*
X175766383Y-99734946D01*
X175718764Y-99544470D01*
X175671145Y-99449232D01*
X175575907Y-99353994D01*
X175433050Y-99306375D01*
X175194955Y-99306375D01*
X176766383Y-99401613D02*
X176718764Y-99353994D01*
X176575907Y-99306375D01*
X176480669Y-99306375D01*
X176337812Y-99353994D01*
X176242574Y-99449232D01*
X176194955Y-99544470D01*
X176147336Y-99734946D01*
X176147336Y-99877803D01*
X176194955Y-100068279D01*
X176242574Y-100163517D01*
X176337812Y-100258756D01*
X176480669Y-100306375D01*
X176575907Y-100306375D01*
X176718764Y-100258756D01*
X176766383Y-100211136D01*
X177337812Y-99877803D02*
X177242574Y-99925422D01*
X177194955Y-99973041D01*
X177147336Y-100068279D01*
X177147336Y-100115898D01*
X177194955Y-100211136D01*
X177242574Y-100258756D01*
X177337812Y-100306375D01*
X177528288Y-100306375D01*
X177623526Y-100258756D01*
X177671145Y-100211136D01*
X177718764Y-100115898D01*
X177718764Y-100068279D01*
X177671145Y-99973041D01*
X177623526Y-99925422D01*
X177528288Y-99877803D01*
X177337812Y-99877803D01*
X177242574Y-99830184D01*
X177194955Y-99782565D01*
X177147336Y-99687327D01*
X177147336Y-99496851D01*
X177194955Y-99401613D01*
X177242574Y-99353994D01*
X177337812Y-99306375D01*
X177528288Y-99306375D01*
X177623526Y-99353994D01*
X177671145Y-99401613D01*
X177718764Y-99496851D01*
X177718764Y-99687327D01*
X177671145Y-99782565D01*
X177623526Y-99830184D01*
X177528288Y-99877803D01*
X178337812Y-100306375D02*
X178433050Y-100306375D01*
X178528288Y-100258756D01*
X178575907Y-100211136D01*
X178623526Y-100115898D01*
X178671145Y-99925422D01*
X178671145Y-99687327D01*
X178623526Y-99496851D01*
X178575907Y-99401613D01*
X178528288Y-99353994D01*
X178433050Y-99306375D01*
X178337812Y-99306375D01*
X178242574Y-99353994D01*
X178194955Y-99401613D01*
X178147336Y-99496851D01*
X178099717Y-99687327D01*
X178099717Y-99925422D01*
X178147336Y-100115898D01*
X178194955Y-100211136D01*
X178242574Y-100258756D01*
X178337812Y-100306375D01*
X179623526Y-99306375D02*
X179052098Y-99306375D01*
X179337812Y-99306375D02*
X179337812Y-100306375D01*
X179242574Y-100163517D01*
X179147336Y-100068279D01*
X179052098Y-100020660D01*
X181147336Y-99830184D02*
X181290193Y-99782565D01*
X181337812Y-99734946D01*
X181385431Y-99639708D01*
X181385431Y-99496851D01*
X181337812Y-99401613D01*
X181290193Y-99353994D01*
X181194955Y-99306375D01*
X180814002Y-99306375D01*
X180814002Y-100306375D01*
X181147336Y-100306375D01*
X181242574Y-100258756D01*
X181290193Y-100211136D01*
X181337812Y-100115898D01*
X181337812Y-100020660D01*
X181290193Y-99925422D01*
X181242574Y-99877803D01*
X181147336Y-99830184D01*
X180814002Y-99830184D01*
X181956860Y-99306375D02*
X181861621Y-99353994D01*
X181814002Y-99449232D01*
X181814002Y-100306375D01*
X182766383Y-99306375D02*
X182766383Y-99830184D01*
X182718764Y-99925422D01*
X182623526Y-99973041D01*
X182433050Y-99973041D01*
X182337812Y-99925422D01*
X182766383Y-99353994D02*
X182671145Y-99306375D01*
X182433050Y-99306375D01*
X182337812Y-99353994D01*
X182290193Y-99449232D01*
X182290193Y-99544470D01*
X182337812Y-99639708D01*
X182433050Y-99687327D01*
X182671145Y-99687327D01*
X182766383Y-99734946D01*
X183671145Y-99353994D02*
X183575907Y-99306375D01*
X183385431Y-99306375D01*
X183290193Y-99353994D01*
X183242574Y-99401613D01*
X183194955Y-99496851D01*
X183194955Y-99782565D01*
X183242574Y-99877803D01*
X183290193Y-99925422D01*
X183385431Y-99973041D01*
X183575907Y-99973041D01*
X183671145Y-99925422D01*
X184099717Y-99306375D02*
X184099717Y-100306375D01*
X184194955Y-99687327D02*
X184480669Y-99306375D01*
X184480669Y-99973041D02*
X184099717Y-99592089D01*
X185671145Y-99306375D02*
X185671145Y-100306375D01*
X186004479Y-99592089D01*
X186337812Y-100306375D01*
X186337812Y-99306375D01*
X187242574Y-99306375D02*
X187242574Y-99830184D01*
X187194955Y-99925422D01*
X187099717Y-99973041D01*
X186909241Y-99973041D01*
X186814002Y-99925422D01*
X187242574Y-99353994D02*
X187147336Y-99306375D01*
X186909241Y-99306375D01*
X186814002Y-99353994D01*
X186766383Y-99449232D01*
X186766383Y-99544470D01*
X186814002Y-99639708D01*
X186909241Y-99687327D01*
X187147336Y-99687327D01*
X187242574Y-99734946D01*
X188147336Y-99973041D02*
X188147336Y-99163517D01*
X188099717Y-99068279D01*
X188052098Y-99020660D01*
X187956860Y-98973041D01*
X187814002Y-98973041D01*
X187718764Y-99020660D01*
X188147336Y-99353994D02*
X188052098Y-99306375D01*
X187861621Y-99306375D01*
X187766383Y-99353994D01*
X187718764Y-99401613D01*
X187671145Y-99496851D01*
X187671145Y-99782565D01*
X187718764Y-99877803D01*
X187766383Y-99925422D01*
X187861621Y-99973041D01*
X188052098Y-99973041D01*
X188147336Y-99925422D01*
X189004479Y-99353994D02*
X188909241Y-99306375D01*
X188718764Y-99306375D01*
X188623526Y-99353994D01*
X188575907Y-99449232D01*
X188575907Y-99830184D01*
X188623526Y-99925422D01*
X188718764Y-99973041D01*
X188909241Y-99973041D01*
X189004479Y-99925422D01*
X189052098Y-99830184D01*
X189052098Y-99734946D01*
X188575907Y-99639708D01*
X190099717Y-100306375D02*
X190671145Y-100306375D01*
X190385431Y-99306375D02*
X190385431Y-100306375D01*
X191385431Y-99353994D02*
X191290193Y-99306375D01*
X191099717Y-99306375D01*
X191004479Y-99353994D01*
X190956860Y-99449232D01*
X190956860Y-99830184D01*
X191004479Y-99925422D01*
X191099717Y-99973041D01*
X191290193Y-99973041D01*
X191385431Y-99925422D01*
X191433050Y-99830184D01*
X191433050Y-99734946D01*
X190956860Y-99639708D01*
X192290193Y-99306375D02*
X192290193Y-99830184D01*
X192242574Y-99925422D01*
X192147336Y-99973041D01*
X191956860Y-99973041D01*
X191861621Y-99925422D01*
X192290193Y-99353994D02*
X192194955Y-99306375D01*
X191956860Y-99306375D01*
X191861621Y-99353994D01*
X191814002Y-99449232D01*
X191814002Y-99544470D01*
X191861621Y-99639708D01*
X191956860Y-99687327D01*
X192194955Y-99687327D01*
X192290193Y-99734946D01*
X192766383Y-99306375D02*
X192766383Y-99973041D01*
X192766383Y-99877803D02*
X192814002Y-99925422D01*
X192909241Y-99973041D01*
X193052098Y-99973041D01*
X193147336Y-99925422D01*
X193194955Y-99830184D01*
X193194955Y-99306375D01*
X193194955Y-99830184D02*
X193242574Y-99925422D01*
X193337812Y-99973041D01*
X193480669Y-99973041D01*
X193575907Y-99925422D01*
X193623526Y-99830184D01*
X193623526Y-99306375D01*
X175194955Y-97982089D02*
X175671145Y-97982089D01*
X175099717Y-97696375D02*
X175433050Y-98696375D01*
X175766383Y-97696375D01*
X176099717Y-97696375D02*
X176099717Y-98363041D01*
X176099717Y-98172565D02*
X176147336Y-98267803D01*
X176194955Y-98315422D01*
X176290193Y-98363041D01*
X176385431Y-98363041D01*
X176575907Y-98363041D02*
X176956860Y-98363041D01*
X176718764Y-98696375D02*
X176718764Y-97839232D01*
X176766383Y-97743994D01*
X176861621Y-97696375D01*
X176956860Y-97696375D01*
X177194955Y-98363041D02*
X177385431Y-97696375D01*
X177575907Y-98172565D01*
X177766383Y-97696375D01*
X177956860Y-98363041D01*
X178480669Y-97696375D02*
X178385431Y-97743994D01*
X178337812Y-97791613D01*
X178290193Y-97886851D01*
X178290193Y-98172565D01*
X178337812Y-98267803D01*
X178385431Y-98315422D01*
X178480669Y-98363041D01*
X178623526Y-98363041D01*
X178718764Y-98315422D01*
X178766383Y-98267803D01*
X178814002Y-98172565D01*
X178814002Y-97886851D01*
X178766383Y-97791613D01*
X178718764Y-97743994D01*
X178623526Y-97696375D01*
X178480669Y-97696375D01*
X179242574Y-97696375D02*
X179242574Y-98363041D01*
X179242574Y-98172565D02*
X179290193Y-98267803D01*
X179337812Y-98315422D01*
X179433050Y-98363041D01*
X179528288Y-98363041D01*
X179861621Y-97696375D02*
X179861621Y-98696375D01*
X179956860Y-98077327D02*
X180242574Y-97696375D01*
X180242574Y-98363041D02*
X179861621Y-97982089D01*
X181433050Y-97696375D02*
X181433050Y-98696375D01*
X181433050Y-98315422D02*
X181528288Y-98363041D01*
X181718764Y-98363041D01*
X181814002Y-98315422D01*
X181861621Y-98267803D01*
X181909241Y-98172565D01*
X181909241Y-97886851D01*
X181861621Y-97791613D01*
X181814002Y-97743994D01*
X181718764Y-97696375D01*
X181528288Y-97696375D01*
X181433050Y-97743994D01*
X182242574Y-98363041D02*
X182480669Y-97696375D01*
X182718764Y-98363041D02*
X182480669Y-97696375D01*
X182385431Y-97458279D01*
X182337812Y-97410660D01*
X182242574Y-97363041D01*
X184480669Y-98172565D02*
X184433050Y-98220184D01*
X184337812Y-98267803D01*
X184242574Y-98267803D01*
X184147336Y-98220184D01*
X184099717Y-98172565D01*
X184052098Y-98077327D01*
X184052098Y-97982089D01*
X184099717Y-97886851D01*
X184147336Y-97839232D01*
X184242574Y-97791613D01*
X184337812Y-97791613D01*
X184433050Y-97839232D01*
X184480669Y-97886851D01*
X184480669Y-98267803D02*
X184480669Y-97886851D01*
X184528288Y-97839232D01*
X184575907Y-97839232D01*
X184671145Y-97886851D01*
X184718764Y-97982089D01*
X184718764Y-98220184D01*
X184623526Y-98363041D01*
X184480669Y-98458279D01*
X184290193Y-98505898D01*
X184099717Y-98458279D01*
X183956860Y-98363041D01*
X183861621Y-98220184D01*
X183814002Y-98029708D01*
X183861621Y-97839232D01*
X183956860Y-97696375D01*
X184099717Y-97601136D01*
X184290193Y-97553517D01*
X184480669Y-97601136D01*
X184623526Y-97696375D01*
X185575907Y-97696375D02*
X185575907Y-98220184D01*
X185528288Y-98315422D01*
X185433050Y-98363041D01*
X185242574Y-98363041D01*
X185147336Y-98315422D01*
X185575907Y-97743994D02*
X185480669Y-97696375D01*
X185242574Y-97696375D01*
X185147336Y-97743994D01*
X185099717Y-97839232D01*
X185099717Y-97934470D01*
X185147336Y-98029708D01*
X185242574Y-98077327D01*
X185480669Y-98077327D01*
X185575907Y-98124946D01*
X186194955Y-97696375D02*
X186099717Y-97743994D01*
X186052098Y-97839232D01*
X186052098Y-98696375D01*
X187004479Y-97696375D02*
X187004479Y-98220184D01*
X186956860Y-98315422D01*
X186861621Y-98363041D01*
X186671145Y-98363041D01*
X186575907Y-98315422D01*
X187004479Y-97743994D02*
X186909241Y-97696375D01*
X186671145Y-97696375D01*
X186575907Y-97743994D01*
X186528288Y-97839232D01*
X186528288Y-97934470D01*
X186575907Y-98029708D01*
X186671145Y-98077327D01*
X186909241Y-98077327D01*
X187004479Y-98124946D01*
X187480669Y-97696375D02*
X187480669Y-98363041D01*
X187480669Y-98267803D02*
X187528288Y-98315422D01*
X187623526Y-98363041D01*
X187766383Y-98363041D01*
X187861621Y-98315422D01*
X187909241Y-98220184D01*
X187909241Y-97696375D01*
X187909241Y-98220184D02*
X187956860Y-98315422D01*
X188052098Y-98363041D01*
X188194955Y-98363041D01*
X188290193Y-98315422D01*
X188337812Y-98220184D01*
X188337812Y-97696375D01*
X189194955Y-97743994D02*
X189099717Y-97696375D01*
X188909241Y-97696375D01*
X188814002Y-97743994D01*
X188766383Y-97839232D01*
X188766383Y-98220184D01*
X188814002Y-98315422D01*
X188909241Y-98363041D01*
X189099717Y-98363041D01*
X189194955Y-98315422D01*
X189242574Y-98220184D01*
X189242574Y-98124946D01*
X188766383Y-98029708D01*
X190099717Y-97696375D02*
X190099717Y-98696375D01*
X190099717Y-97743994D02*
X190004479Y-97696375D01*
X189814002Y-97696375D01*
X189718764Y-97743994D01*
X189671145Y-97791613D01*
X189623526Y-97886851D01*
X189623526Y-98172565D01*
X189671145Y-98267803D01*
X189718764Y-98315422D01*
X189814002Y-98363041D01*
X190004479Y-98363041D01*
X190099717Y-98315422D01*
X190480669Y-98363041D02*
X190718764Y-97696375D01*
X190956860Y-98363041D02*
X190718764Y-97696375D01*
X190623526Y-97458279D01*
X190575907Y-97410660D01*
X190480669Y-97363041D01*
X191766383Y-97696375D02*
X191766383Y-98220184D01*
X191718764Y-98315422D01*
X191623526Y-98363041D01*
X191433050Y-98363041D01*
X191337812Y-98315422D01*
X191766383Y-97743994D02*
X191671145Y-97696375D01*
X191433050Y-97696375D01*
X191337812Y-97743994D01*
X191290193Y-97839232D01*
X191290193Y-97934470D01*
X191337812Y-98029708D01*
X191433050Y-98077327D01*
X191671145Y-98077327D01*
X191766383Y-98124946D01*
X192242574Y-98363041D02*
X192242574Y-97696375D01*
X192242574Y-98267803D02*
X192290193Y-98315422D01*
X192385431Y-98363041D01*
X192528288Y-98363041D01*
X192623526Y-98315422D01*
X192671145Y-98220184D01*
X192671145Y-97696375D01*
X193575907Y-98363041D02*
X193575907Y-97553517D01*
X193528288Y-97458279D01*
X193480669Y-97410660D01*
X193385431Y-97363041D01*
X193242574Y-97363041D01*
X193147336Y-97410660D01*
X193575907Y-97743994D02*
X193480669Y-97696375D01*
X193290193Y-97696375D01*
X193194955Y-97743994D01*
X193147336Y-97791613D01*
X193099717Y-97886851D01*
X193099717Y-98172565D01*
X193147336Y-98267803D01*
X193194955Y-98315422D01*
X193290193Y-98363041D01*
X193480669Y-98363041D01*
X193575907Y-98315422D01*
D12*
X44551229Y-38570575D02*
X44551229Y-36570575D01*
X43884562Y-37999147D01*
X43217895Y-36570575D01*
X43217895Y-38570575D01*
X42265514Y-38570575D02*
X42265514Y-37237242D01*
X42265514Y-36570575D02*
X42360752Y-36665814D01*
X42265514Y-36761052D01*
X42170276Y-36665814D01*
X42265514Y-36570575D01*
X42265514Y-36761052D01*
X41313133Y-37237242D02*
X41313133Y-38570575D01*
X41313133Y-37427718D02*
X41217895Y-37332480D01*
X41027419Y-37237242D01*
X40741705Y-37237242D01*
X40551229Y-37332480D01*
X40455991Y-37522956D01*
X40455991Y-38570575D01*
X39503610Y-38570575D02*
X39503610Y-37237242D01*
X39503610Y-36570575D02*
X39598848Y-36665814D01*
X39503610Y-36761052D01*
X39408371Y-36665814D01*
X39503610Y-36570575D01*
X39503610Y-36761052D01*
X37027419Y-38570575D02*
X37027419Y-36570575D01*
X36360752Y-37999147D01*
X35694086Y-36570575D01*
X35694086Y-38570575D01*
X33884562Y-38570575D02*
X33884562Y-37522956D01*
X33979800Y-37332480D01*
X34170276Y-37237242D01*
X34551229Y-37237242D01*
X34741705Y-37332480D01*
X33884562Y-38475337D02*
X34075038Y-38570575D01*
X34551229Y-38570575D01*
X34741705Y-38475337D01*
X34836943Y-38284861D01*
X34836943Y-38094385D01*
X34741705Y-37903909D01*
X34551229Y-37808671D01*
X34075038Y-37808671D01*
X33884562Y-37713433D01*
X32075038Y-37237242D02*
X32075038Y-38856290D01*
X32170276Y-39046766D01*
X32265514Y-39142004D01*
X32455991Y-39237242D01*
X32741705Y-39237242D01*
X32932181Y-39142004D01*
X32075038Y-38475337D02*
X32265514Y-38570575D01*
X32646467Y-38570575D01*
X32836943Y-38475337D01*
X32932181Y-38380099D01*
X33027419Y-38189623D01*
X33027419Y-37618194D01*
X32932181Y-37427718D01*
X32836943Y-37332480D01*
X32646467Y-37237242D01*
X32265514Y-37237242D01*
X32075038Y-37332480D01*
X30360752Y-38475337D02*
X30551229Y-38570575D01*
X30932181Y-38570575D01*
X31122657Y-38475337D01*
X31217895Y-38284861D01*
X31217895Y-37522956D01*
X31122657Y-37332480D01*
X30932181Y-37237242D01*
X30551229Y-37237242D01*
X30360752Y-37332480D01*
X30265514Y-37522956D01*
X30265514Y-37713433D01*
X31217895Y-37903909D01*
X46408371Y-41790575D02*
X46408371Y-39790575D01*
X45932181Y-39790575D01*
X45646467Y-39885814D01*
X45455991Y-40076290D01*
X45360752Y-40266766D01*
X45265514Y-40647718D01*
X45265514Y-40933433D01*
X45360752Y-41314385D01*
X45455991Y-41504861D01*
X45646467Y-41695337D01*
X45932181Y-41790575D01*
X46408371Y-41790575D01*
X43265514Y-41600099D02*
X43360752Y-41695337D01*
X43646467Y-41790575D01*
X43836943Y-41790575D01*
X44122657Y-41695337D01*
X44313133Y-41504861D01*
X44408371Y-41314385D01*
X44503610Y-40933433D01*
X44503610Y-40647718D01*
X44408371Y-40266766D01*
X44313133Y-40076290D01*
X44122657Y-39885814D01*
X43836943Y-39790575D01*
X43646467Y-39790575D01*
X43360752Y-39885814D01*
X43265514Y-39981052D01*
X42122657Y-40647718D02*
X42313133Y-40552480D01*
X42408371Y-40457242D01*
X42503610Y-40266766D01*
X42503610Y-40171528D01*
X42408371Y-39981052D01*
X42313133Y-39885814D01*
X42122657Y-39790575D01*
X41741705Y-39790575D01*
X41551229Y-39885814D01*
X41455991Y-39981052D01*
X41360752Y-40171528D01*
X41360752Y-40266766D01*
X41455991Y-40457242D01*
X41551229Y-40552480D01*
X41741705Y-40647718D01*
X42122657Y-40647718D01*
X42313133Y-40742956D01*
X42408371Y-40838194D01*
X42503610Y-41028671D01*
X42503610Y-41409623D01*
X42408371Y-41600099D01*
X42313133Y-41695337D01*
X42122657Y-41790575D01*
X41741705Y-41790575D01*
X41551229Y-41695337D01*
X41455991Y-41600099D01*
X41360752Y-41409623D01*
X41360752Y-41028671D01*
X41455991Y-40838194D01*
X41551229Y-40742956D01*
X41741705Y-40647718D01*
X40122657Y-39790575D02*
X39932181Y-39790575D01*
X39741705Y-39885814D01*
X39646467Y-39981052D01*
X39551229Y-40171528D01*
X39455991Y-40552480D01*
X39455991Y-41028671D01*
X39551229Y-41409623D01*
X39646467Y-41600099D01*
X39741705Y-41695337D01*
X39932181Y-41790575D01*
X40122657Y-41790575D01*
X40313133Y-41695337D01*
X40408371Y-41600099D01*
X40503610Y-41409623D01*
X40598848Y-41028671D01*
X40598848Y-40552480D01*
X40503610Y-40171528D01*
X40408371Y-39981052D01*
X40313133Y-39885814D01*
X40122657Y-39790575D01*
X37551229Y-41790575D02*
X38694086Y-41790575D01*
X38122657Y-41790575D02*
X38122657Y-39790575D01*
X38313133Y-40076290D01*
X38503610Y-40266766D01*
X38694086Y-40362004D01*
X35265514Y-39981052D02*
X35170276Y-39885814D01*
X34979800Y-39790575D01*
X34503610Y-39790575D01*
X34313133Y-39885814D01*
X34217895Y-39981052D01*
X34122657Y-40171528D01*
X34122657Y-40362004D01*
X34217895Y-40647718D01*
X35360752Y-41790575D01*
X34122657Y-41790575D01*
X32884562Y-39790575D02*
X32694086Y-39790575D01*
X32503610Y-39885814D01*
X32408371Y-39981052D01*
X32313133Y-40171528D01*
X32217895Y-40552480D01*
X32217895Y-41028671D01*
X32313133Y-41409623D01*
X32408371Y-41600099D01*
X32503610Y-41695337D01*
X32694086Y-41790575D01*
X32884562Y-41790575D01*
X33075038Y-41695337D01*
X33170276Y-41600099D01*
X33265514Y-41409623D01*
X33360752Y-41028671D01*
X33360752Y-40552480D01*
X33265514Y-40171528D01*
X33170276Y-39981052D01*
X33075038Y-39885814D01*
X32884562Y-39790575D01*
X31455991Y-39981052D02*
X31360752Y-39885814D01*
X31170276Y-39790575D01*
X30694086Y-39790575D01*
X30503610Y-39885814D01*
X30408371Y-39981052D01*
X30313133Y-40171528D01*
X30313133Y-40362004D01*
X30408371Y-40647718D01*
X31551229Y-41790575D01*
X30313133Y-41790575D01*
X29551229Y-39981052D02*
X29455991Y-39885814D01*
X29265514Y-39790575D01*
X28789324Y-39790575D01*
X28598848Y-39885814D01*
X28503610Y-39981052D01*
X28408371Y-40171528D01*
X28408371Y-40362004D01*
X28503610Y-40647718D01*
X29646467Y-41790575D01*
X28408371Y-41790575D01*
X93018979Y-38570575D02*
X93018979Y-36570575D01*
X92352312Y-37999147D01*
X91685645Y-36570575D01*
X91685645Y-38570575D01*
X90733264Y-38570575D02*
X90733264Y-37237242D01*
X90733264Y-36570575D02*
X90828502Y-36665814D01*
X90733264Y-36761052D01*
X90638026Y-36665814D01*
X90733264Y-36570575D01*
X90733264Y-36761052D01*
X89780883Y-37237242D02*
X89780883Y-38570575D01*
X89780883Y-37427718D02*
X89685645Y-37332480D01*
X89495169Y-37237242D01*
X89209455Y-37237242D01*
X89018979Y-37332480D01*
X88923741Y-37522956D01*
X88923741Y-38570575D01*
X87971360Y-38570575D02*
X87971360Y-37237242D01*
X87971360Y-36570575D02*
X88066598Y-36665814D01*
X87971360Y-36761052D01*
X87876121Y-36665814D01*
X87971360Y-36570575D01*
X87971360Y-36761052D01*
X85495169Y-38570575D02*
X85495169Y-36570575D01*
X84828502Y-37999147D01*
X84161836Y-36570575D01*
X84161836Y-38570575D01*
X82352312Y-38570575D02*
X82352312Y-37522956D01*
X82447550Y-37332480D01*
X82638026Y-37237242D01*
X83018979Y-37237242D01*
X83209455Y-37332480D01*
X82352312Y-38475337D02*
X82542788Y-38570575D01*
X83018979Y-38570575D01*
X83209455Y-38475337D01*
X83304693Y-38284861D01*
X83304693Y-38094385D01*
X83209455Y-37903909D01*
X83018979Y-37808671D01*
X82542788Y-37808671D01*
X82352312Y-37713433D01*
X80542788Y-37237242D02*
X80542788Y-38856290D01*
X80638026Y-39046766D01*
X80733264Y-39142004D01*
X80923741Y-39237242D01*
X81209455Y-39237242D01*
X81399931Y-39142004D01*
X80542788Y-38475337D02*
X80733264Y-38570575D01*
X81114217Y-38570575D01*
X81304693Y-38475337D01*
X81399931Y-38380099D01*
X81495169Y-38189623D01*
X81495169Y-37618194D01*
X81399931Y-37427718D01*
X81304693Y-37332480D01*
X81114217Y-37237242D01*
X80733264Y-37237242D01*
X80542788Y-37332480D01*
X78828502Y-38475337D02*
X79018979Y-38570575D01*
X79399931Y-38570575D01*
X79590407Y-38475337D01*
X79685645Y-38284861D01*
X79685645Y-37522956D01*
X79590407Y-37332480D01*
X79399931Y-37237242D01*
X79018979Y-37237242D01*
X78828502Y-37332480D01*
X78733264Y-37522956D01*
X78733264Y-37713433D01*
X79685645Y-37903909D01*
X94876121Y-41790575D02*
X94876121Y-39790575D01*
X94399931Y-39790575D01*
X94114217Y-39885814D01*
X93923741Y-40076290D01*
X93828502Y-40266766D01*
X93733264Y-40647718D01*
X93733264Y-40933433D01*
X93828502Y-41314385D01*
X93923741Y-41504861D01*
X94114217Y-41695337D01*
X94399931Y-41790575D01*
X94876121Y-41790575D01*
X91733264Y-41600099D02*
X91828502Y-41695337D01*
X92114217Y-41790575D01*
X92304693Y-41790575D01*
X92590407Y-41695337D01*
X92780883Y-41504861D01*
X92876121Y-41314385D01*
X92971360Y-40933433D01*
X92971360Y-40647718D01*
X92876121Y-40266766D01*
X92780883Y-40076290D01*
X92590407Y-39885814D01*
X92304693Y-39790575D01*
X92114217Y-39790575D01*
X91828502Y-39885814D01*
X91733264Y-39981052D01*
X90590407Y-40647718D02*
X90780883Y-40552480D01*
X90876121Y-40457242D01*
X90971360Y-40266766D01*
X90971360Y-40171528D01*
X90876121Y-39981052D01*
X90780883Y-39885814D01*
X90590407Y-39790575D01*
X90209455Y-39790575D01*
X90018979Y-39885814D01*
X89923741Y-39981052D01*
X89828502Y-40171528D01*
X89828502Y-40266766D01*
X89923741Y-40457242D01*
X90018979Y-40552480D01*
X90209455Y-40647718D01*
X90590407Y-40647718D01*
X90780883Y-40742956D01*
X90876121Y-40838194D01*
X90971360Y-41028671D01*
X90971360Y-41409623D01*
X90876121Y-41600099D01*
X90780883Y-41695337D01*
X90590407Y-41790575D01*
X90209455Y-41790575D01*
X90018979Y-41695337D01*
X89923741Y-41600099D01*
X89828502Y-41409623D01*
X89828502Y-41028671D01*
X89923741Y-40838194D01*
X90018979Y-40742956D01*
X90209455Y-40647718D01*
X88590407Y-39790575D02*
X88399931Y-39790575D01*
X88209455Y-39885814D01*
X88114217Y-39981052D01*
X88018979Y-40171528D01*
X87923741Y-40552480D01*
X87923741Y-41028671D01*
X88018979Y-41409623D01*
X88114217Y-41600099D01*
X88209455Y-41695337D01*
X88399931Y-41790575D01*
X88590407Y-41790575D01*
X88780883Y-41695337D01*
X88876121Y-41600099D01*
X88971360Y-41409623D01*
X89066598Y-41028671D01*
X89066598Y-40552480D01*
X88971360Y-40171528D01*
X88876121Y-39981052D01*
X88780883Y-39885814D01*
X88590407Y-39790575D01*
X86018979Y-41790575D02*
X87161836Y-41790575D01*
X86590407Y-41790575D02*
X86590407Y-39790575D01*
X86780883Y-40076290D01*
X86971360Y-40266766D01*
X87161836Y-40362004D01*
X83733264Y-39981052D02*
X83638026Y-39885814D01*
X83447550Y-39790575D01*
X82971360Y-39790575D01*
X82780883Y-39885814D01*
X82685645Y-39981052D01*
X82590407Y-40171528D01*
X82590407Y-40362004D01*
X82685645Y-40647718D01*
X83828502Y-41790575D01*
X82590407Y-41790575D01*
X81352312Y-39790575D02*
X81161836Y-39790575D01*
X80971360Y-39885814D01*
X80876121Y-39981052D01*
X80780883Y-40171528D01*
X80685645Y-40552480D01*
X80685645Y-41028671D01*
X80780883Y-41409623D01*
X80876121Y-41600099D01*
X80971360Y-41695337D01*
X81161836Y-41790575D01*
X81352312Y-41790575D01*
X81542788Y-41695337D01*
X81638026Y-41600099D01*
X81733264Y-41409623D01*
X81828502Y-41028671D01*
X81828502Y-40552480D01*
X81733264Y-40171528D01*
X81638026Y-39981052D01*
X81542788Y-39885814D01*
X81352312Y-39790575D01*
X79923741Y-39981052D02*
X79828502Y-39885814D01*
X79638026Y-39790575D01*
X79161836Y-39790575D01*
X78971360Y-39885814D01*
X78876121Y-39981052D01*
X78780883Y-40171528D01*
X78780883Y-40362004D01*
X78876121Y-40647718D01*
X80018979Y-41790575D01*
X78780883Y-41790575D01*
X78018979Y-39981052D02*
X77923741Y-39885814D01*
X77733264Y-39790575D01*
X77257074Y-39790575D01*
X77066598Y-39885814D01*
X76971360Y-39981052D01*
X76876121Y-40171528D01*
X76876121Y-40362004D01*
X76971360Y-40647718D01*
X78114217Y-41790575D01*
X76876121Y-41790575D01*
X141486729Y-38570575D02*
X141486729Y-36570575D01*
X140820062Y-37999147D01*
X140153395Y-36570575D01*
X140153395Y-38570575D01*
X139201014Y-38570575D02*
X139201014Y-37237242D01*
X139201014Y-36570575D02*
X139296252Y-36665814D01*
X139201014Y-36761052D01*
X139105776Y-36665814D01*
X139201014Y-36570575D01*
X139201014Y-36761052D01*
X138248633Y-37237242D02*
X138248633Y-38570575D01*
X138248633Y-37427718D02*
X138153395Y-37332480D01*
X137962919Y-37237242D01*
X137677205Y-37237242D01*
X137486729Y-37332480D01*
X137391491Y-37522956D01*
X137391491Y-38570575D01*
X136439110Y-38570575D02*
X136439110Y-37237242D01*
X136439110Y-36570575D02*
X136534348Y-36665814D01*
X136439110Y-36761052D01*
X136343871Y-36665814D01*
X136439110Y-36570575D01*
X136439110Y-36761052D01*
X133962919Y-38570575D02*
X133962919Y-36570575D01*
X133296252Y-37999147D01*
X132629586Y-36570575D01*
X132629586Y-38570575D01*
X130820062Y-38570575D02*
X130820062Y-37522956D01*
X130915300Y-37332480D01*
X131105776Y-37237242D01*
X131486729Y-37237242D01*
X131677205Y-37332480D01*
X130820062Y-38475337D02*
X131010538Y-38570575D01*
X131486729Y-38570575D01*
X131677205Y-38475337D01*
X131772443Y-38284861D01*
X131772443Y-38094385D01*
X131677205Y-37903909D01*
X131486729Y-37808671D01*
X131010538Y-37808671D01*
X130820062Y-37713433D01*
X129010538Y-37237242D02*
X129010538Y-38856290D01*
X129105776Y-39046766D01*
X129201014Y-39142004D01*
X129391491Y-39237242D01*
X129677205Y-39237242D01*
X129867681Y-39142004D01*
X129010538Y-38475337D02*
X129201014Y-38570575D01*
X129581967Y-38570575D01*
X129772443Y-38475337D01*
X129867681Y-38380099D01*
X129962919Y-38189623D01*
X129962919Y-37618194D01*
X129867681Y-37427718D01*
X129772443Y-37332480D01*
X129581967Y-37237242D01*
X129201014Y-37237242D01*
X129010538Y-37332480D01*
X127296252Y-38475337D02*
X127486729Y-38570575D01*
X127867681Y-38570575D01*
X128058157Y-38475337D01*
X128153395Y-38284861D01*
X128153395Y-37522956D01*
X128058157Y-37332480D01*
X127867681Y-37237242D01*
X127486729Y-37237242D01*
X127296252Y-37332480D01*
X127201014Y-37522956D01*
X127201014Y-37713433D01*
X128153395Y-37903909D01*
X143343871Y-41790575D02*
X143343871Y-39790575D01*
X142867681Y-39790575D01*
X142581967Y-39885814D01*
X142391491Y-40076290D01*
X142296252Y-40266766D01*
X142201014Y-40647718D01*
X142201014Y-40933433D01*
X142296252Y-41314385D01*
X142391491Y-41504861D01*
X142581967Y-41695337D01*
X142867681Y-41790575D01*
X143343871Y-41790575D01*
X140201014Y-41600099D02*
X140296252Y-41695337D01*
X140581967Y-41790575D01*
X140772443Y-41790575D01*
X141058157Y-41695337D01*
X141248633Y-41504861D01*
X141343871Y-41314385D01*
X141439110Y-40933433D01*
X141439110Y-40647718D01*
X141343871Y-40266766D01*
X141248633Y-40076290D01*
X141058157Y-39885814D01*
X140772443Y-39790575D01*
X140581967Y-39790575D01*
X140296252Y-39885814D01*
X140201014Y-39981052D01*
X139058157Y-40647718D02*
X139248633Y-40552480D01*
X139343871Y-40457242D01*
X139439110Y-40266766D01*
X139439110Y-40171528D01*
X139343871Y-39981052D01*
X139248633Y-39885814D01*
X139058157Y-39790575D01*
X138677205Y-39790575D01*
X138486729Y-39885814D01*
X138391491Y-39981052D01*
X138296252Y-40171528D01*
X138296252Y-40266766D01*
X138391491Y-40457242D01*
X138486729Y-40552480D01*
X138677205Y-40647718D01*
X139058157Y-40647718D01*
X139248633Y-40742956D01*
X139343871Y-40838194D01*
X139439110Y-41028671D01*
X139439110Y-41409623D01*
X139343871Y-41600099D01*
X139248633Y-41695337D01*
X139058157Y-41790575D01*
X138677205Y-41790575D01*
X138486729Y-41695337D01*
X138391491Y-41600099D01*
X138296252Y-41409623D01*
X138296252Y-41028671D01*
X138391491Y-40838194D01*
X138486729Y-40742956D01*
X138677205Y-40647718D01*
X137058157Y-39790575D02*
X136867681Y-39790575D01*
X136677205Y-39885814D01*
X136581967Y-39981052D01*
X136486729Y-40171528D01*
X136391491Y-40552480D01*
X136391491Y-41028671D01*
X136486729Y-41409623D01*
X136581967Y-41600099D01*
X136677205Y-41695337D01*
X136867681Y-41790575D01*
X137058157Y-41790575D01*
X137248633Y-41695337D01*
X137343871Y-41600099D01*
X137439110Y-41409623D01*
X137534348Y-41028671D01*
X137534348Y-40552480D01*
X137439110Y-40171528D01*
X137343871Y-39981052D01*
X137248633Y-39885814D01*
X137058157Y-39790575D01*
X134486729Y-41790575D02*
X135629586Y-41790575D01*
X135058157Y-41790575D02*
X135058157Y-39790575D01*
X135248633Y-40076290D01*
X135439110Y-40266766D01*
X135629586Y-40362004D01*
X132201014Y-39981052D02*
X132105776Y-39885814D01*
X131915300Y-39790575D01*
X131439110Y-39790575D01*
X131248633Y-39885814D01*
X131153395Y-39981052D01*
X131058157Y-40171528D01*
X131058157Y-40362004D01*
X131153395Y-40647718D01*
X132296252Y-41790575D01*
X131058157Y-41790575D01*
X129820062Y-39790575D02*
X129629586Y-39790575D01*
X129439110Y-39885814D01*
X129343871Y-39981052D01*
X129248633Y-40171528D01*
X129153395Y-40552480D01*
X129153395Y-41028671D01*
X129248633Y-41409623D01*
X129343871Y-41600099D01*
X129439110Y-41695337D01*
X129629586Y-41790575D01*
X129820062Y-41790575D01*
X130010538Y-41695337D01*
X130105776Y-41600099D01*
X130201014Y-41409623D01*
X130296252Y-41028671D01*
X130296252Y-40552480D01*
X130201014Y-40171528D01*
X130105776Y-39981052D01*
X130010538Y-39885814D01*
X129820062Y-39790575D01*
X128391491Y-39981052D02*
X128296252Y-39885814D01*
X128105776Y-39790575D01*
X127629586Y-39790575D01*
X127439110Y-39885814D01*
X127343871Y-39981052D01*
X127248633Y-40171528D01*
X127248633Y-40362004D01*
X127343871Y-40647718D01*
X128486729Y-41790575D01*
X127248633Y-41790575D01*
X126486729Y-39981052D02*
X126391491Y-39885814D01*
X126201014Y-39790575D01*
X125724824Y-39790575D01*
X125534348Y-39885814D01*
X125439110Y-39981052D01*
X125343871Y-40171528D01*
X125343871Y-40362004D01*
X125439110Y-40647718D01*
X126581967Y-41790575D01*
X125343871Y-41790575D01*
X31900752Y-140308994D02*
X31900752Y-142308994D01*
X32567419Y-140880422D01*
X33234086Y-142308994D01*
X33234086Y-140308994D01*
X34186467Y-140308994D02*
X34186467Y-141642327D01*
X34186467Y-142308994D02*
X34091229Y-142213756D01*
X34186467Y-142118517D01*
X34281705Y-142213756D01*
X34186467Y-142308994D01*
X34186467Y-142118517D01*
X35138848Y-141642327D02*
X35138848Y-140308994D01*
X35138848Y-141451851D02*
X35234086Y-141547089D01*
X35424562Y-141642327D01*
X35710276Y-141642327D01*
X35900752Y-141547089D01*
X35995991Y-141356613D01*
X35995991Y-140308994D01*
X36948371Y-140308994D02*
X36948371Y-141642327D01*
X36948371Y-142308994D02*
X36853133Y-142213756D01*
X36948371Y-142118517D01*
X37043610Y-142213756D01*
X36948371Y-142308994D01*
X36948371Y-142118517D01*
X39424562Y-140308994D02*
X39424562Y-142308994D01*
X40091229Y-140880422D01*
X40757895Y-142308994D01*
X40757895Y-140308994D01*
X42567419Y-140308994D02*
X42567419Y-141356613D01*
X42472181Y-141547089D01*
X42281705Y-141642327D01*
X41900752Y-141642327D01*
X41710276Y-141547089D01*
X42567419Y-140404232D02*
X42376943Y-140308994D01*
X41900752Y-140308994D01*
X41710276Y-140404232D01*
X41615038Y-140594708D01*
X41615038Y-140785184D01*
X41710276Y-140975660D01*
X41900752Y-141070898D01*
X42376943Y-141070898D01*
X42567419Y-141166136D01*
X44376943Y-141642327D02*
X44376943Y-140023279D01*
X44281705Y-139832803D01*
X44186467Y-139737565D01*
X43995991Y-139642327D01*
X43710276Y-139642327D01*
X43519800Y-139737565D01*
X44376943Y-140404232D02*
X44186467Y-140308994D01*
X43805514Y-140308994D01*
X43615038Y-140404232D01*
X43519800Y-140499470D01*
X43424562Y-140689946D01*
X43424562Y-141261375D01*
X43519800Y-141451851D01*
X43615038Y-141547089D01*
X43805514Y-141642327D01*
X44186467Y-141642327D01*
X44376943Y-141547089D01*
X46091229Y-140404232D02*
X45900752Y-140308994D01*
X45519800Y-140308994D01*
X45329324Y-140404232D01*
X45234086Y-140594708D01*
X45234086Y-141356613D01*
X45329324Y-141547089D01*
X45519800Y-141642327D01*
X45900752Y-141642327D01*
X46091229Y-141547089D01*
X46186467Y-141356613D01*
X46186467Y-141166136D01*
X45234086Y-140975660D01*
X30043610Y-137088994D02*
X30043610Y-139088994D01*
X30519800Y-139088994D01*
X30805514Y-138993756D01*
X30995991Y-138803279D01*
X31091229Y-138612803D01*
X31186467Y-138231851D01*
X31186467Y-137946136D01*
X31091229Y-137565184D01*
X30995991Y-137374708D01*
X30805514Y-137184232D01*
X30519800Y-137088994D01*
X30043610Y-137088994D01*
X33186467Y-137279470D02*
X33091229Y-137184232D01*
X32805514Y-137088994D01*
X32615038Y-137088994D01*
X32329324Y-137184232D01*
X32138848Y-137374708D01*
X32043610Y-137565184D01*
X31948371Y-137946136D01*
X31948371Y-138231851D01*
X32043610Y-138612803D01*
X32138848Y-138803279D01*
X32329324Y-138993756D01*
X32615038Y-139088994D01*
X32805514Y-139088994D01*
X33091229Y-138993756D01*
X33186467Y-138898517D01*
X34329324Y-138231851D02*
X34138848Y-138327089D01*
X34043610Y-138422327D01*
X33948371Y-138612803D01*
X33948371Y-138708041D01*
X34043610Y-138898517D01*
X34138848Y-138993756D01*
X34329324Y-139088994D01*
X34710276Y-139088994D01*
X34900752Y-138993756D01*
X34995991Y-138898517D01*
X35091229Y-138708041D01*
X35091229Y-138612803D01*
X34995991Y-138422327D01*
X34900752Y-138327089D01*
X34710276Y-138231851D01*
X34329324Y-138231851D01*
X34138848Y-138136613D01*
X34043610Y-138041375D01*
X33948371Y-137850898D01*
X33948371Y-137469946D01*
X34043610Y-137279470D01*
X34138848Y-137184232D01*
X34329324Y-137088994D01*
X34710276Y-137088994D01*
X34900752Y-137184232D01*
X34995991Y-137279470D01*
X35091229Y-137469946D01*
X35091229Y-137850898D01*
X34995991Y-138041375D01*
X34900752Y-138136613D01*
X34710276Y-138231851D01*
X36329324Y-139088994D02*
X36519800Y-139088994D01*
X36710276Y-138993756D01*
X36805514Y-138898517D01*
X36900752Y-138708041D01*
X36995991Y-138327089D01*
X36995991Y-137850898D01*
X36900752Y-137469946D01*
X36805514Y-137279470D01*
X36710276Y-137184232D01*
X36519800Y-137088994D01*
X36329324Y-137088994D01*
X36138848Y-137184232D01*
X36043610Y-137279470D01*
X35948371Y-137469946D01*
X35853133Y-137850898D01*
X35853133Y-138327089D01*
X35948371Y-138708041D01*
X36043610Y-138898517D01*
X36138848Y-138993756D01*
X36329324Y-139088994D01*
X38900752Y-137088994D02*
X37757895Y-137088994D01*
X38329324Y-137088994D02*
X38329324Y-139088994D01*
X38138848Y-138803279D01*
X37948371Y-138612803D01*
X37757895Y-138517565D01*
X41186467Y-138898517D02*
X41281705Y-138993756D01*
X41472181Y-139088994D01*
X41948371Y-139088994D01*
X42138848Y-138993756D01*
X42234086Y-138898517D01*
X42329324Y-138708041D01*
X42329324Y-138517565D01*
X42234086Y-138231851D01*
X41091229Y-137088994D01*
X42329324Y-137088994D01*
X43567419Y-139088994D02*
X43757895Y-139088994D01*
X43948371Y-138993756D01*
X44043610Y-138898517D01*
X44138848Y-138708041D01*
X44234086Y-138327089D01*
X44234086Y-137850898D01*
X44138848Y-137469946D01*
X44043610Y-137279470D01*
X43948371Y-137184232D01*
X43757895Y-137088994D01*
X43567419Y-137088994D01*
X43376943Y-137184232D01*
X43281705Y-137279470D01*
X43186467Y-137469946D01*
X43091229Y-137850898D01*
X43091229Y-138327089D01*
X43186467Y-138708041D01*
X43281705Y-138898517D01*
X43376943Y-138993756D01*
X43567419Y-139088994D01*
X44995991Y-138898517D02*
X45091229Y-138993756D01*
X45281705Y-139088994D01*
X45757895Y-139088994D01*
X45948371Y-138993756D01*
X46043610Y-138898517D01*
X46138848Y-138708041D01*
X46138848Y-138517565D01*
X46043610Y-138231851D01*
X44900752Y-137088994D01*
X46138848Y-137088994D01*
X46900752Y-138898517D02*
X46995991Y-138993756D01*
X47186467Y-139088994D01*
X47662657Y-139088994D01*
X47853133Y-138993756D01*
X47948371Y-138898517D01*
X48043610Y-138708041D01*
X48043610Y-138517565D01*
X47948371Y-138231851D01*
X46805514Y-137088994D01*
X48043610Y-137088994D01*
X80368502Y-140308994D02*
X80368502Y-142308994D01*
X81035169Y-140880422D01*
X81701836Y-142308994D01*
X81701836Y-140308994D01*
X82654217Y-140308994D02*
X82654217Y-141642327D01*
X82654217Y-142308994D02*
X82558979Y-142213756D01*
X82654217Y-142118517D01*
X82749455Y-142213756D01*
X82654217Y-142308994D01*
X82654217Y-142118517D01*
X83606598Y-141642327D02*
X83606598Y-140308994D01*
X83606598Y-141451851D02*
X83701836Y-141547089D01*
X83892312Y-141642327D01*
X84178026Y-141642327D01*
X84368502Y-141547089D01*
X84463741Y-141356613D01*
X84463741Y-140308994D01*
X85416121Y-140308994D02*
X85416121Y-141642327D01*
X85416121Y-142308994D02*
X85320883Y-142213756D01*
X85416121Y-142118517D01*
X85511360Y-142213756D01*
X85416121Y-142308994D01*
X85416121Y-142118517D01*
X87892312Y-140308994D02*
X87892312Y-142308994D01*
X88558979Y-140880422D01*
X89225645Y-142308994D01*
X89225645Y-140308994D01*
X91035169Y-140308994D02*
X91035169Y-141356613D01*
X90939931Y-141547089D01*
X90749455Y-141642327D01*
X90368502Y-141642327D01*
X90178026Y-141547089D01*
X91035169Y-140404232D02*
X90844693Y-140308994D01*
X90368502Y-140308994D01*
X90178026Y-140404232D01*
X90082788Y-140594708D01*
X90082788Y-140785184D01*
X90178026Y-140975660D01*
X90368502Y-141070898D01*
X90844693Y-141070898D01*
X91035169Y-141166136D01*
X92844693Y-141642327D02*
X92844693Y-140023279D01*
X92749455Y-139832803D01*
X92654217Y-139737565D01*
X92463741Y-139642327D01*
X92178026Y-139642327D01*
X91987550Y-139737565D01*
X92844693Y-140404232D02*
X92654217Y-140308994D01*
X92273264Y-140308994D01*
X92082788Y-140404232D01*
X91987550Y-140499470D01*
X91892312Y-140689946D01*
X91892312Y-141261375D01*
X91987550Y-141451851D01*
X92082788Y-141547089D01*
X92273264Y-141642327D01*
X92654217Y-141642327D01*
X92844693Y-141547089D01*
X94558979Y-140404232D02*
X94368502Y-140308994D01*
X93987550Y-140308994D01*
X93797074Y-140404232D01*
X93701836Y-140594708D01*
X93701836Y-141356613D01*
X93797074Y-141547089D01*
X93987550Y-141642327D01*
X94368502Y-141642327D01*
X94558979Y-141547089D01*
X94654217Y-141356613D01*
X94654217Y-141166136D01*
X93701836Y-140975660D01*
X78511360Y-137088994D02*
X78511360Y-139088994D01*
X78987550Y-139088994D01*
X79273264Y-138993756D01*
X79463741Y-138803279D01*
X79558979Y-138612803D01*
X79654217Y-138231851D01*
X79654217Y-137946136D01*
X79558979Y-137565184D01*
X79463741Y-137374708D01*
X79273264Y-137184232D01*
X78987550Y-137088994D01*
X78511360Y-137088994D01*
X81654217Y-137279470D02*
X81558979Y-137184232D01*
X81273264Y-137088994D01*
X81082788Y-137088994D01*
X80797074Y-137184232D01*
X80606598Y-137374708D01*
X80511360Y-137565184D01*
X80416121Y-137946136D01*
X80416121Y-138231851D01*
X80511360Y-138612803D01*
X80606598Y-138803279D01*
X80797074Y-138993756D01*
X81082788Y-139088994D01*
X81273264Y-139088994D01*
X81558979Y-138993756D01*
X81654217Y-138898517D01*
X82797074Y-138231851D02*
X82606598Y-138327089D01*
X82511360Y-138422327D01*
X82416121Y-138612803D01*
X82416121Y-138708041D01*
X82511360Y-138898517D01*
X82606598Y-138993756D01*
X82797074Y-139088994D01*
X83178026Y-139088994D01*
X83368502Y-138993756D01*
X83463741Y-138898517D01*
X83558979Y-138708041D01*
X83558979Y-138612803D01*
X83463741Y-138422327D01*
X83368502Y-138327089D01*
X83178026Y-138231851D01*
X82797074Y-138231851D01*
X82606598Y-138136613D01*
X82511360Y-138041375D01*
X82416121Y-137850898D01*
X82416121Y-137469946D01*
X82511360Y-137279470D01*
X82606598Y-137184232D01*
X82797074Y-137088994D01*
X83178026Y-137088994D01*
X83368502Y-137184232D01*
X83463741Y-137279470D01*
X83558979Y-137469946D01*
X83558979Y-137850898D01*
X83463741Y-138041375D01*
X83368502Y-138136613D01*
X83178026Y-138231851D01*
X84797074Y-139088994D02*
X84987550Y-139088994D01*
X85178026Y-138993756D01*
X85273264Y-138898517D01*
X85368502Y-138708041D01*
X85463741Y-138327089D01*
X85463741Y-137850898D01*
X85368502Y-137469946D01*
X85273264Y-137279470D01*
X85178026Y-137184232D01*
X84987550Y-137088994D01*
X84797074Y-137088994D01*
X84606598Y-137184232D01*
X84511360Y-137279470D01*
X84416121Y-137469946D01*
X84320883Y-137850898D01*
X84320883Y-138327089D01*
X84416121Y-138708041D01*
X84511360Y-138898517D01*
X84606598Y-138993756D01*
X84797074Y-139088994D01*
X87368502Y-137088994D02*
X86225645Y-137088994D01*
X86797074Y-137088994D02*
X86797074Y-139088994D01*
X86606598Y-138803279D01*
X86416121Y-138612803D01*
X86225645Y-138517565D01*
X89654217Y-138898517D02*
X89749455Y-138993756D01*
X89939931Y-139088994D01*
X90416121Y-139088994D01*
X90606598Y-138993756D01*
X90701836Y-138898517D01*
X90797074Y-138708041D01*
X90797074Y-138517565D01*
X90701836Y-138231851D01*
X89558979Y-137088994D01*
X90797074Y-137088994D01*
X92035169Y-139088994D02*
X92225645Y-139088994D01*
X92416121Y-138993756D01*
X92511360Y-138898517D01*
X92606598Y-138708041D01*
X92701836Y-138327089D01*
X92701836Y-137850898D01*
X92606598Y-137469946D01*
X92511360Y-137279470D01*
X92416121Y-137184232D01*
X92225645Y-137088994D01*
X92035169Y-137088994D01*
X91844693Y-137184232D01*
X91749455Y-137279470D01*
X91654217Y-137469946D01*
X91558979Y-137850898D01*
X91558979Y-138327089D01*
X91654217Y-138708041D01*
X91749455Y-138898517D01*
X91844693Y-138993756D01*
X92035169Y-139088994D01*
X93463741Y-138898517D02*
X93558979Y-138993756D01*
X93749455Y-139088994D01*
X94225645Y-139088994D01*
X94416121Y-138993756D01*
X94511360Y-138898517D01*
X94606598Y-138708041D01*
X94606598Y-138517565D01*
X94511360Y-138231851D01*
X93368502Y-137088994D01*
X94606598Y-137088994D01*
X95368502Y-138898517D02*
X95463741Y-138993756D01*
X95654217Y-139088994D01*
X96130407Y-139088994D01*
X96320883Y-138993756D01*
X96416121Y-138898517D01*
X96511360Y-138708041D01*
X96511360Y-138517565D01*
X96416121Y-138231851D01*
X95273264Y-137088994D01*
X96511360Y-137088994D01*
X177304002Y-140308994D02*
X177304002Y-142308994D01*
X177970669Y-140880422D01*
X178637336Y-142308994D01*
X178637336Y-140308994D01*
X179589717Y-140308994D02*
X179589717Y-141642327D01*
X179589717Y-142308994D02*
X179494479Y-142213756D01*
X179589717Y-142118517D01*
X179684955Y-142213756D01*
X179589717Y-142308994D01*
X179589717Y-142118517D01*
X180542098Y-141642327D02*
X180542098Y-140308994D01*
X180542098Y-141451851D02*
X180637336Y-141547089D01*
X180827812Y-141642327D01*
X181113526Y-141642327D01*
X181304002Y-141547089D01*
X181399241Y-141356613D01*
X181399241Y-140308994D01*
X182351621Y-140308994D02*
X182351621Y-141642327D01*
X182351621Y-142308994D02*
X182256383Y-142213756D01*
X182351621Y-142118517D01*
X182446860Y-142213756D01*
X182351621Y-142308994D01*
X182351621Y-142118517D01*
X184827812Y-140308994D02*
X184827812Y-142308994D01*
X185494479Y-140880422D01*
X186161145Y-142308994D01*
X186161145Y-140308994D01*
X187970669Y-140308994D02*
X187970669Y-141356613D01*
X187875431Y-141547089D01*
X187684955Y-141642327D01*
X187304002Y-141642327D01*
X187113526Y-141547089D01*
X187970669Y-140404232D02*
X187780193Y-140308994D01*
X187304002Y-140308994D01*
X187113526Y-140404232D01*
X187018288Y-140594708D01*
X187018288Y-140785184D01*
X187113526Y-140975660D01*
X187304002Y-141070898D01*
X187780193Y-141070898D01*
X187970669Y-141166136D01*
X189780193Y-141642327D02*
X189780193Y-140023279D01*
X189684955Y-139832803D01*
X189589717Y-139737565D01*
X189399241Y-139642327D01*
X189113526Y-139642327D01*
X188923050Y-139737565D01*
X189780193Y-140404232D02*
X189589717Y-140308994D01*
X189208764Y-140308994D01*
X189018288Y-140404232D01*
X188923050Y-140499470D01*
X188827812Y-140689946D01*
X188827812Y-141261375D01*
X188923050Y-141451851D01*
X189018288Y-141547089D01*
X189208764Y-141642327D01*
X189589717Y-141642327D01*
X189780193Y-141547089D01*
X191494479Y-140404232D02*
X191304002Y-140308994D01*
X190923050Y-140308994D01*
X190732574Y-140404232D01*
X190637336Y-140594708D01*
X190637336Y-141356613D01*
X190732574Y-141547089D01*
X190923050Y-141642327D01*
X191304002Y-141642327D01*
X191494479Y-141547089D01*
X191589717Y-141356613D01*
X191589717Y-141166136D01*
X190637336Y-140975660D01*
X175446860Y-137088994D02*
X175446860Y-139088994D01*
X175923050Y-139088994D01*
X176208764Y-138993756D01*
X176399241Y-138803279D01*
X176494479Y-138612803D01*
X176589717Y-138231851D01*
X176589717Y-137946136D01*
X176494479Y-137565184D01*
X176399241Y-137374708D01*
X176208764Y-137184232D01*
X175923050Y-137088994D01*
X175446860Y-137088994D01*
X178589717Y-137279470D02*
X178494479Y-137184232D01*
X178208764Y-137088994D01*
X178018288Y-137088994D01*
X177732574Y-137184232D01*
X177542098Y-137374708D01*
X177446860Y-137565184D01*
X177351621Y-137946136D01*
X177351621Y-138231851D01*
X177446860Y-138612803D01*
X177542098Y-138803279D01*
X177732574Y-138993756D01*
X178018288Y-139088994D01*
X178208764Y-139088994D01*
X178494479Y-138993756D01*
X178589717Y-138898517D01*
X179732574Y-138231851D02*
X179542098Y-138327089D01*
X179446860Y-138422327D01*
X179351621Y-138612803D01*
X179351621Y-138708041D01*
X179446860Y-138898517D01*
X179542098Y-138993756D01*
X179732574Y-139088994D01*
X180113526Y-139088994D01*
X180304002Y-138993756D01*
X180399241Y-138898517D01*
X180494479Y-138708041D01*
X180494479Y-138612803D01*
X180399241Y-138422327D01*
X180304002Y-138327089D01*
X180113526Y-138231851D01*
X179732574Y-138231851D01*
X179542098Y-138136613D01*
X179446860Y-138041375D01*
X179351621Y-137850898D01*
X179351621Y-137469946D01*
X179446860Y-137279470D01*
X179542098Y-137184232D01*
X179732574Y-137088994D01*
X180113526Y-137088994D01*
X180304002Y-137184232D01*
X180399241Y-137279470D01*
X180494479Y-137469946D01*
X180494479Y-137850898D01*
X180399241Y-138041375D01*
X180304002Y-138136613D01*
X180113526Y-138231851D01*
X181732574Y-139088994D02*
X181923050Y-139088994D01*
X182113526Y-138993756D01*
X182208764Y-138898517D01*
X182304002Y-138708041D01*
X182399241Y-138327089D01*
X182399241Y-137850898D01*
X182304002Y-137469946D01*
X182208764Y-137279470D01*
X182113526Y-137184232D01*
X181923050Y-137088994D01*
X181732574Y-137088994D01*
X181542098Y-137184232D01*
X181446860Y-137279470D01*
X181351621Y-137469946D01*
X181256383Y-137850898D01*
X181256383Y-138327089D01*
X181351621Y-138708041D01*
X181446860Y-138898517D01*
X181542098Y-138993756D01*
X181732574Y-139088994D01*
X184304002Y-137088994D02*
X183161145Y-137088994D01*
X183732574Y-137088994D02*
X183732574Y-139088994D01*
X183542098Y-138803279D01*
X183351621Y-138612803D01*
X183161145Y-138517565D01*
X186589717Y-138898517D02*
X186684955Y-138993756D01*
X186875431Y-139088994D01*
X187351621Y-139088994D01*
X187542098Y-138993756D01*
X187637336Y-138898517D01*
X187732574Y-138708041D01*
X187732574Y-138517565D01*
X187637336Y-138231851D01*
X186494479Y-137088994D01*
X187732574Y-137088994D01*
X188970669Y-139088994D02*
X189161145Y-139088994D01*
X189351621Y-138993756D01*
X189446860Y-138898517D01*
X189542098Y-138708041D01*
X189637336Y-138327089D01*
X189637336Y-137850898D01*
X189542098Y-137469946D01*
X189446860Y-137279470D01*
X189351621Y-137184232D01*
X189161145Y-137088994D01*
X188970669Y-137088994D01*
X188780193Y-137184232D01*
X188684955Y-137279470D01*
X188589717Y-137469946D01*
X188494479Y-137850898D01*
X188494479Y-138327089D01*
X188589717Y-138708041D01*
X188684955Y-138898517D01*
X188780193Y-138993756D01*
X188970669Y-139088994D01*
X190399241Y-138898517D02*
X190494479Y-138993756D01*
X190684955Y-139088994D01*
X191161145Y-139088994D01*
X191351621Y-138993756D01*
X191446860Y-138898517D01*
X191542098Y-138708041D01*
X191542098Y-138517565D01*
X191446860Y-138231851D01*
X190304002Y-137088994D01*
X191542098Y-137088994D01*
X192304002Y-138898517D02*
X192399241Y-138993756D01*
X192589717Y-139088994D01*
X193065907Y-139088994D01*
X193256383Y-138993756D01*
X193351621Y-138898517D01*
X193446860Y-138708041D01*
X193446860Y-138517565D01*
X193351621Y-138231851D01*
X192208764Y-137088994D01*
X193446860Y-137088994D01*
X189954479Y-38570575D02*
X189954479Y-36570575D01*
X189287812Y-37999147D01*
X188621145Y-36570575D01*
X188621145Y-38570575D01*
X187668764Y-38570575D02*
X187668764Y-37237242D01*
X187668764Y-36570575D02*
X187764002Y-36665814D01*
X187668764Y-36761052D01*
X187573526Y-36665814D01*
X187668764Y-36570575D01*
X187668764Y-36761052D01*
X186716383Y-37237242D02*
X186716383Y-38570575D01*
X186716383Y-37427718D02*
X186621145Y-37332480D01*
X186430669Y-37237242D01*
X186144955Y-37237242D01*
X185954479Y-37332480D01*
X185859241Y-37522956D01*
X185859241Y-38570575D01*
X184906860Y-38570575D02*
X184906860Y-37237242D01*
X184906860Y-36570575D02*
X185002098Y-36665814D01*
X184906860Y-36761052D01*
X184811621Y-36665814D01*
X184906860Y-36570575D01*
X184906860Y-36761052D01*
X182430669Y-38570575D02*
X182430669Y-36570575D01*
X181764002Y-37999147D01*
X181097336Y-36570575D01*
X181097336Y-38570575D01*
X179287812Y-38570575D02*
X179287812Y-37522956D01*
X179383050Y-37332480D01*
X179573526Y-37237242D01*
X179954479Y-37237242D01*
X180144955Y-37332480D01*
X179287812Y-38475337D02*
X179478288Y-38570575D01*
X179954479Y-38570575D01*
X180144955Y-38475337D01*
X180240193Y-38284861D01*
X180240193Y-38094385D01*
X180144955Y-37903909D01*
X179954479Y-37808671D01*
X179478288Y-37808671D01*
X179287812Y-37713433D01*
X177478288Y-37237242D02*
X177478288Y-38856290D01*
X177573526Y-39046766D01*
X177668764Y-39142004D01*
X177859241Y-39237242D01*
X178144955Y-39237242D01*
X178335431Y-39142004D01*
X177478288Y-38475337D02*
X177668764Y-38570575D01*
X178049717Y-38570575D01*
X178240193Y-38475337D01*
X178335431Y-38380099D01*
X178430669Y-38189623D01*
X178430669Y-37618194D01*
X178335431Y-37427718D01*
X178240193Y-37332480D01*
X178049717Y-37237242D01*
X177668764Y-37237242D01*
X177478288Y-37332480D01*
X175764002Y-38475337D02*
X175954479Y-38570575D01*
X176335431Y-38570575D01*
X176525907Y-38475337D01*
X176621145Y-38284861D01*
X176621145Y-37522956D01*
X176525907Y-37332480D01*
X176335431Y-37237242D01*
X175954479Y-37237242D01*
X175764002Y-37332480D01*
X175668764Y-37522956D01*
X175668764Y-37713433D01*
X176621145Y-37903909D01*
X191811621Y-41790575D02*
X191811621Y-39790575D01*
X191335431Y-39790575D01*
X191049717Y-39885814D01*
X190859241Y-40076290D01*
X190764002Y-40266766D01*
X190668764Y-40647718D01*
X190668764Y-40933433D01*
X190764002Y-41314385D01*
X190859241Y-41504861D01*
X191049717Y-41695337D01*
X191335431Y-41790575D01*
X191811621Y-41790575D01*
X188668764Y-41600099D02*
X188764002Y-41695337D01*
X189049717Y-41790575D01*
X189240193Y-41790575D01*
X189525907Y-41695337D01*
X189716383Y-41504861D01*
X189811621Y-41314385D01*
X189906860Y-40933433D01*
X189906860Y-40647718D01*
X189811621Y-40266766D01*
X189716383Y-40076290D01*
X189525907Y-39885814D01*
X189240193Y-39790575D01*
X189049717Y-39790575D01*
X188764002Y-39885814D01*
X188668764Y-39981052D01*
X187525907Y-40647718D02*
X187716383Y-40552480D01*
X187811621Y-40457242D01*
X187906860Y-40266766D01*
X187906860Y-40171528D01*
X187811621Y-39981052D01*
X187716383Y-39885814D01*
X187525907Y-39790575D01*
X187144955Y-39790575D01*
X186954479Y-39885814D01*
X186859241Y-39981052D01*
X186764002Y-40171528D01*
X186764002Y-40266766D01*
X186859241Y-40457242D01*
X186954479Y-40552480D01*
X187144955Y-40647718D01*
X187525907Y-40647718D01*
X187716383Y-40742956D01*
X187811621Y-40838194D01*
X187906860Y-41028671D01*
X187906860Y-41409623D01*
X187811621Y-41600099D01*
X187716383Y-41695337D01*
X187525907Y-41790575D01*
X187144955Y-41790575D01*
X186954479Y-41695337D01*
X186859241Y-41600099D01*
X186764002Y-41409623D01*
X186764002Y-41028671D01*
X186859241Y-40838194D01*
X186954479Y-40742956D01*
X187144955Y-40647718D01*
X185525907Y-39790575D02*
X185335431Y-39790575D01*
X185144955Y-39885814D01*
X185049717Y-39981052D01*
X184954479Y-40171528D01*
X184859241Y-40552480D01*
X184859241Y-41028671D01*
X184954479Y-41409623D01*
X185049717Y-41600099D01*
X185144955Y-41695337D01*
X185335431Y-41790575D01*
X185525907Y-41790575D01*
X185716383Y-41695337D01*
X185811621Y-41600099D01*
X185906860Y-41409623D01*
X186002098Y-41028671D01*
X186002098Y-40552480D01*
X185906860Y-40171528D01*
X185811621Y-39981052D01*
X185716383Y-39885814D01*
X185525907Y-39790575D01*
X182954479Y-41790575D02*
X184097336Y-41790575D01*
X183525907Y-41790575D02*
X183525907Y-39790575D01*
X183716383Y-40076290D01*
X183906860Y-40266766D01*
X184097336Y-40362004D01*
X180668764Y-39981052D02*
X180573526Y-39885814D01*
X180383050Y-39790575D01*
X179906860Y-39790575D01*
X179716383Y-39885814D01*
X179621145Y-39981052D01*
X179525907Y-40171528D01*
X179525907Y-40362004D01*
X179621145Y-40647718D01*
X180764002Y-41790575D01*
X179525907Y-41790575D01*
X178287812Y-39790575D02*
X178097336Y-39790575D01*
X177906860Y-39885814D01*
X177811621Y-39981052D01*
X177716383Y-40171528D01*
X177621145Y-40552480D01*
X177621145Y-41028671D01*
X177716383Y-41409623D01*
X177811621Y-41600099D01*
X177906860Y-41695337D01*
X178097336Y-41790575D01*
X178287812Y-41790575D01*
X178478288Y-41695337D01*
X178573526Y-41600099D01*
X178668764Y-41409623D01*
X178764002Y-41028671D01*
X178764002Y-40552480D01*
X178668764Y-40171528D01*
X178573526Y-39981052D01*
X178478288Y-39885814D01*
X178287812Y-39790575D01*
X176859241Y-39981052D02*
X176764002Y-39885814D01*
X176573526Y-39790575D01*
X176097336Y-39790575D01*
X175906860Y-39885814D01*
X175811621Y-39981052D01*
X175716383Y-40171528D01*
X175716383Y-40362004D01*
X175811621Y-40647718D01*
X176954479Y-41790575D01*
X175716383Y-41790575D01*
X174954479Y-39981052D02*
X174859241Y-39885814D01*
X174668764Y-39790575D01*
X174192574Y-39790575D01*
X174002098Y-39885814D01*
X173906860Y-39981052D01*
X173811621Y-40171528D01*
X173811621Y-40362004D01*
X173906860Y-40647718D01*
X175049717Y-41790575D01*
X173811621Y-41790575D01*
X128836252Y-140308994D02*
X128836252Y-142308994D01*
X129502919Y-140880422D01*
X130169586Y-142308994D01*
X130169586Y-140308994D01*
X131121967Y-140308994D02*
X131121967Y-141642327D01*
X131121967Y-142308994D02*
X131026729Y-142213756D01*
X131121967Y-142118517D01*
X131217205Y-142213756D01*
X131121967Y-142308994D01*
X131121967Y-142118517D01*
X132074348Y-141642327D02*
X132074348Y-140308994D01*
X132074348Y-141451851D02*
X132169586Y-141547089D01*
X132360062Y-141642327D01*
X132645776Y-141642327D01*
X132836252Y-141547089D01*
X132931491Y-141356613D01*
X132931491Y-140308994D01*
X133883871Y-140308994D02*
X133883871Y-141642327D01*
X133883871Y-142308994D02*
X133788633Y-142213756D01*
X133883871Y-142118517D01*
X133979110Y-142213756D01*
X133883871Y-142308994D01*
X133883871Y-142118517D01*
X136360062Y-140308994D02*
X136360062Y-142308994D01*
X137026729Y-140880422D01*
X137693395Y-142308994D01*
X137693395Y-140308994D01*
X139502919Y-140308994D02*
X139502919Y-141356613D01*
X139407681Y-141547089D01*
X139217205Y-141642327D01*
X138836252Y-141642327D01*
X138645776Y-141547089D01*
X139502919Y-140404232D02*
X139312443Y-140308994D01*
X138836252Y-140308994D01*
X138645776Y-140404232D01*
X138550538Y-140594708D01*
X138550538Y-140785184D01*
X138645776Y-140975660D01*
X138836252Y-141070898D01*
X139312443Y-141070898D01*
X139502919Y-141166136D01*
X141312443Y-141642327D02*
X141312443Y-140023279D01*
X141217205Y-139832803D01*
X141121967Y-139737565D01*
X140931491Y-139642327D01*
X140645776Y-139642327D01*
X140455300Y-139737565D01*
X141312443Y-140404232D02*
X141121967Y-140308994D01*
X140741014Y-140308994D01*
X140550538Y-140404232D01*
X140455300Y-140499470D01*
X140360062Y-140689946D01*
X140360062Y-141261375D01*
X140455300Y-141451851D01*
X140550538Y-141547089D01*
X140741014Y-141642327D01*
X141121967Y-141642327D01*
X141312443Y-141547089D01*
X143026729Y-140404232D02*
X142836252Y-140308994D01*
X142455300Y-140308994D01*
X142264824Y-140404232D01*
X142169586Y-140594708D01*
X142169586Y-141356613D01*
X142264824Y-141547089D01*
X142455300Y-141642327D01*
X142836252Y-141642327D01*
X143026729Y-141547089D01*
X143121967Y-141356613D01*
X143121967Y-141166136D01*
X142169586Y-140975660D01*
X126979110Y-137088994D02*
X126979110Y-139088994D01*
X127455300Y-139088994D01*
X127741014Y-138993756D01*
X127931491Y-138803279D01*
X128026729Y-138612803D01*
X128121967Y-138231851D01*
X128121967Y-137946136D01*
X128026729Y-137565184D01*
X127931491Y-137374708D01*
X127741014Y-137184232D01*
X127455300Y-137088994D01*
X126979110Y-137088994D01*
X130121967Y-137279470D02*
X130026729Y-137184232D01*
X129741014Y-137088994D01*
X129550538Y-137088994D01*
X129264824Y-137184232D01*
X129074348Y-137374708D01*
X128979110Y-137565184D01*
X128883871Y-137946136D01*
X128883871Y-138231851D01*
X128979110Y-138612803D01*
X129074348Y-138803279D01*
X129264824Y-138993756D01*
X129550538Y-139088994D01*
X129741014Y-139088994D01*
X130026729Y-138993756D01*
X130121967Y-138898517D01*
X131264824Y-138231851D02*
X131074348Y-138327089D01*
X130979110Y-138422327D01*
X130883871Y-138612803D01*
X130883871Y-138708041D01*
X130979110Y-138898517D01*
X131074348Y-138993756D01*
X131264824Y-139088994D01*
X131645776Y-139088994D01*
X131836252Y-138993756D01*
X131931491Y-138898517D01*
X132026729Y-138708041D01*
X132026729Y-138612803D01*
X131931491Y-138422327D01*
X131836252Y-138327089D01*
X131645776Y-138231851D01*
X131264824Y-138231851D01*
X131074348Y-138136613D01*
X130979110Y-138041375D01*
X130883871Y-137850898D01*
X130883871Y-137469946D01*
X130979110Y-137279470D01*
X131074348Y-137184232D01*
X131264824Y-137088994D01*
X131645776Y-137088994D01*
X131836252Y-137184232D01*
X131931491Y-137279470D01*
X132026729Y-137469946D01*
X132026729Y-137850898D01*
X131931491Y-138041375D01*
X131836252Y-138136613D01*
X131645776Y-138231851D01*
X133264824Y-139088994D02*
X133455300Y-139088994D01*
X133645776Y-138993756D01*
X133741014Y-138898517D01*
X133836252Y-138708041D01*
X133931491Y-138327089D01*
X133931491Y-137850898D01*
X133836252Y-137469946D01*
X133741014Y-137279470D01*
X133645776Y-137184232D01*
X133455300Y-137088994D01*
X133264824Y-137088994D01*
X133074348Y-137184232D01*
X132979110Y-137279470D01*
X132883871Y-137469946D01*
X132788633Y-137850898D01*
X132788633Y-138327089D01*
X132883871Y-138708041D01*
X132979110Y-138898517D01*
X133074348Y-138993756D01*
X133264824Y-139088994D01*
X135836252Y-137088994D02*
X134693395Y-137088994D01*
X135264824Y-137088994D02*
X135264824Y-139088994D01*
X135074348Y-138803279D01*
X134883871Y-138612803D01*
X134693395Y-138517565D01*
X138121967Y-138898517D02*
X138217205Y-138993756D01*
X138407681Y-139088994D01*
X138883871Y-139088994D01*
X139074348Y-138993756D01*
X139169586Y-138898517D01*
X139264824Y-138708041D01*
X139264824Y-138517565D01*
X139169586Y-138231851D01*
X138026729Y-137088994D01*
X139264824Y-137088994D01*
X140502919Y-139088994D02*
X140693395Y-139088994D01*
X140883871Y-138993756D01*
X140979110Y-138898517D01*
X141074348Y-138708041D01*
X141169586Y-138327089D01*
X141169586Y-137850898D01*
X141074348Y-137469946D01*
X140979110Y-137279470D01*
X140883871Y-137184232D01*
X140693395Y-137088994D01*
X140502919Y-137088994D01*
X140312443Y-137184232D01*
X140217205Y-137279470D01*
X140121967Y-137469946D01*
X140026729Y-137850898D01*
X140026729Y-138327089D01*
X140121967Y-138708041D01*
X140217205Y-138898517D01*
X140312443Y-138993756D01*
X140502919Y-139088994D01*
X141931491Y-138898517D02*
X142026729Y-138993756D01*
X142217205Y-139088994D01*
X142693395Y-139088994D01*
X142883871Y-138993756D01*
X142979110Y-138898517D01*
X143074348Y-138708041D01*
X143074348Y-138517565D01*
X142979110Y-138231851D01*
X141836252Y-137088994D01*
X143074348Y-137088994D01*
X143836252Y-138898517D02*
X143931491Y-138993756D01*
X144121967Y-139088994D01*
X144598157Y-139088994D01*
X144788633Y-138993756D01*
X144883871Y-138898517D01*
X144979110Y-138708041D01*
X144979110Y-138517565D01*
X144883871Y-138231851D01*
X143741014Y-137088994D01*
X144979110Y-137088994D01*
D10*
%TO.C,R1*%
X138793595Y-57048574D02*
X139126929Y-56572384D01*
X139365024Y-57048574D02*
X139365024Y-56048574D01*
X138984071Y-56048574D01*
X138888833Y-56096194D01*
X138841214Y-56143813D01*
X138793595Y-56239051D01*
X138793595Y-56381908D01*
X138841214Y-56477146D01*
X138888833Y-56524765D01*
X138984071Y-56572384D01*
X139365024Y-56572384D01*
X137841214Y-57048574D02*
X138412643Y-57048574D01*
X138126929Y-57048574D02*
X138126929Y-56048574D01*
X138222167Y-56191432D01*
X138317405Y-56286670D01*
X138412643Y-56334289D01*
X179997136Y-121830995D02*
X179663803Y-122307185D01*
X179425707Y-121830995D02*
X179425707Y-122830995D01*
X179806660Y-122830995D01*
X179901898Y-122783376D01*
X179949517Y-122735756D01*
X179997136Y-122640518D01*
X179997136Y-122497661D01*
X179949517Y-122402423D01*
X179901898Y-122354804D01*
X179806660Y-122307185D01*
X179425707Y-122307185D01*
X180949517Y-121830995D02*
X180378088Y-121830995D01*
X180663803Y-121830995D02*
X180663803Y-122830995D01*
X180568564Y-122688137D01*
X180473326Y-122592899D01*
X180378088Y-122545280D01*
X187261345Y-57048574D02*
X187594679Y-56572384D01*
X187832774Y-57048574D02*
X187832774Y-56048574D01*
X187451821Y-56048574D01*
X187356583Y-56096194D01*
X187308964Y-56143813D01*
X187261345Y-56239051D01*
X187261345Y-56381908D01*
X187308964Y-56477146D01*
X187356583Y-56524765D01*
X187451821Y-56572384D01*
X187832774Y-56572384D01*
X186308964Y-57048574D02*
X186880393Y-57048574D01*
X186594679Y-57048574D02*
X186594679Y-56048574D01*
X186689917Y-56191432D01*
X186785155Y-56286670D01*
X186880393Y-56334289D01*
%TO.C,R2*%
X89281636Y-121840995D02*
X88948303Y-122317185D01*
X88710207Y-121840995D02*
X88710207Y-122840995D01*
X89091160Y-122840995D01*
X89186398Y-122793376D01*
X89234017Y-122745756D01*
X89281636Y-122650518D01*
X89281636Y-122507661D01*
X89234017Y-122412423D01*
X89186398Y-122364804D01*
X89091160Y-122317185D01*
X88710207Y-122317185D01*
X89662588Y-122745756D02*
X89710207Y-122793376D01*
X89805445Y-122840995D01*
X90043541Y-122840995D01*
X90138779Y-122793376D01*
X90186398Y-122745756D01*
X90234017Y-122650518D01*
X90234017Y-122555280D01*
X90186398Y-122412423D01*
X89614969Y-121840995D01*
X90234017Y-121840995D01*
%TO.C,R1*%
X90325845Y-57048574D02*
X90659179Y-56572384D01*
X90897274Y-57048574D02*
X90897274Y-56048574D01*
X90516321Y-56048574D01*
X90421083Y-56096194D01*
X90373464Y-56143813D01*
X90325845Y-56239051D01*
X90325845Y-56381908D01*
X90373464Y-56477146D01*
X90421083Y-56524765D01*
X90516321Y-56572384D01*
X90897274Y-56572384D01*
X89373464Y-57048574D02*
X89944893Y-57048574D01*
X89659179Y-57048574D02*
X89659179Y-56048574D01*
X89754417Y-56191432D01*
X89849655Y-56286670D01*
X89944893Y-56334289D01*
%TO.C,R2*%
X84105845Y-57038574D02*
X84439179Y-56562384D01*
X84677274Y-57038574D02*
X84677274Y-56038574D01*
X84296321Y-56038574D01*
X84201083Y-56086194D01*
X84153464Y-56133813D01*
X84105845Y-56229051D01*
X84105845Y-56371908D01*
X84153464Y-56467146D01*
X84201083Y-56514765D01*
X84296321Y-56562384D01*
X84677274Y-56562384D01*
X83724893Y-56133813D02*
X83677274Y-56086194D01*
X83582036Y-56038574D01*
X83343940Y-56038574D01*
X83248702Y-56086194D01*
X83201083Y-56133813D01*
X83153464Y-56229051D01*
X83153464Y-56324289D01*
X83201083Y-56467146D01*
X83772512Y-57038574D01*
X83153464Y-57038574D01*
X181041345Y-57038574D02*
X181374679Y-56562384D01*
X181612774Y-57038574D02*
X181612774Y-56038574D01*
X181231821Y-56038574D01*
X181136583Y-56086194D01*
X181088964Y-56133813D01*
X181041345Y-56229051D01*
X181041345Y-56371908D01*
X181088964Y-56467146D01*
X181136583Y-56514765D01*
X181231821Y-56562384D01*
X181612774Y-56562384D01*
X180660393Y-56133813D02*
X180612774Y-56086194D01*
X180517536Y-56038574D01*
X180279440Y-56038574D01*
X180184202Y-56086194D01*
X180136583Y-56133813D01*
X180088964Y-56229051D01*
X180088964Y-56324289D01*
X180136583Y-56467146D01*
X180708012Y-57038574D01*
X180088964Y-57038574D01*
X186217136Y-121840995D02*
X185883803Y-122317185D01*
X185645707Y-121840995D02*
X185645707Y-122840995D01*
X186026660Y-122840995D01*
X186121898Y-122793376D01*
X186169517Y-122745756D01*
X186217136Y-122650518D01*
X186217136Y-122507661D01*
X186169517Y-122412423D01*
X186121898Y-122364804D01*
X186026660Y-122317185D01*
X185645707Y-122317185D01*
X186598088Y-122745756D02*
X186645707Y-122793376D01*
X186740945Y-122840995D01*
X186979041Y-122840995D01*
X187074279Y-122793376D01*
X187121898Y-122745756D01*
X187169517Y-122650518D01*
X187169517Y-122555280D01*
X187121898Y-122412423D01*
X186550469Y-121840995D01*
X187169517Y-121840995D01*
%TO.C,R1*%
X34593886Y-121830995D02*
X34260553Y-122307185D01*
X34022457Y-121830995D02*
X34022457Y-122830995D01*
X34403410Y-122830995D01*
X34498648Y-122783376D01*
X34546267Y-122735756D01*
X34593886Y-122640518D01*
X34593886Y-122497661D01*
X34546267Y-122402423D01*
X34498648Y-122354804D01*
X34403410Y-122307185D01*
X34022457Y-122307185D01*
X35546267Y-121830995D02*
X34974838Y-121830995D01*
X35260553Y-121830995D02*
X35260553Y-122830995D01*
X35165314Y-122688137D01*
X35070076Y-122592899D01*
X34974838Y-122545280D01*
%TO.C,R2*%
X40813886Y-121840995D02*
X40480553Y-122317185D01*
X40242457Y-121840995D02*
X40242457Y-122840995D01*
X40623410Y-122840995D01*
X40718648Y-122793376D01*
X40766267Y-122745756D01*
X40813886Y-122650518D01*
X40813886Y-122507661D01*
X40766267Y-122412423D01*
X40718648Y-122364804D01*
X40623410Y-122317185D01*
X40242457Y-122317185D01*
X41194838Y-122745756D02*
X41242457Y-122793376D01*
X41337695Y-122840995D01*
X41575791Y-122840995D01*
X41671029Y-122793376D01*
X41718648Y-122745756D01*
X41766267Y-122650518D01*
X41766267Y-122555280D01*
X41718648Y-122412423D01*
X41147219Y-121840995D01*
X41766267Y-121840995D01*
%TO.C,R1*%
X131529386Y-121830995D02*
X131196053Y-122307185D01*
X130957957Y-121830995D02*
X130957957Y-122830995D01*
X131338910Y-122830995D01*
X131434148Y-122783376D01*
X131481767Y-122735756D01*
X131529386Y-122640518D01*
X131529386Y-122497661D01*
X131481767Y-122402423D01*
X131434148Y-122354804D01*
X131338910Y-122307185D01*
X130957957Y-122307185D01*
X132481767Y-121830995D02*
X131910338Y-121830995D01*
X132196053Y-121830995D02*
X132196053Y-122830995D01*
X132100814Y-122688137D01*
X132005576Y-122592899D01*
X131910338Y-122545280D01*
X41858095Y-57048574D02*
X42191429Y-56572384D01*
X42429524Y-57048574D02*
X42429524Y-56048574D01*
X42048571Y-56048574D01*
X41953333Y-56096194D01*
X41905714Y-56143813D01*
X41858095Y-56239051D01*
X41858095Y-56381908D01*
X41905714Y-56477146D01*
X41953333Y-56524765D01*
X42048571Y-56572384D01*
X42429524Y-56572384D01*
X40905714Y-57048574D02*
X41477143Y-57048574D01*
X41191429Y-57048574D02*
X41191429Y-56048574D01*
X41286667Y-56191432D01*
X41381905Y-56286670D01*
X41477143Y-56334289D01*
%TO.C,R2*%
X137749386Y-121840995D02*
X137416053Y-122317185D01*
X137177957Y-121840995D02*
X137177957Y-122840995D01*
X137558910Y-122840995D01*
X137654148Y-122793376D01*
X137701767Y-122745756D01*
X137749386Y-122650518D01*
X137749386Y-122507661D01*
X137701767Y-122412423D01*
X137654148Y-122364804D01*
X137558910Y-122317185D01*
X137177957Y-122317185D01*
X138130338Y-122745756D02*
X138177957Y-122793376D01*
X138273195Y-122840995D01*
X138511291Y-122840995D01*
X138606529Y-122793376D01*
X138654148Y-122745756D01*
X138701767Y-122650518D01*
X138701767Y-122555280D01*
X138654148Y-122412423D01*
X138082719Y-121840995D01*
X138701767Y-121840995D01*
X132573595Y-57038574D02*
X132906929Y-56562384D01*
X133145024Y-57038574D02*
X133145024Y-56038574D01*
X132764071Y-56038574D01*
X132668833Y-56086194D01*
X132621214Y-56133813D01*
X132573595Y-56229051D01*
X132573595Y-56371908D01*
X132621214Y-56467146D01*
X132668833Y-56514765D01*
X132764071Y-56562384D01*
X133145024Y-56562384D01*
X132192643Y-56133813D02*
X132145024Y-56086194D01*
X132049786Y-56038574D01*
X131811690Y-56038574D01*
X131716452Y-56086194D01*
X131668833Y-56133813D01*
X131621214Y-56229051D01*
X131621214Y-56324289D01*
X131668833Y-56467146D01*
X132240262Y-57038574D01*
X131621214Y-57038574D01*
%TO.C,R1*%
X83061636Y-121830995D02*
X82728303Y-122307185D01*
X82490207Y-121830995D02*
X82490207Y-122830995D01*
X82871160Y-122830995D01*
X82966398Y-122783376D01*
X83014017Y-122735756D01*
X83061636Y-122640518D01*
X83061636Y-122497661D01*
X83014017Y-122402423D01*
X82966398Y-122354804D01*
X82871160Y-122307185D01*
X82490207Y-122307185D01*
X84014017Y-121830995D02*
X83442588Y-121830995D01*
X83728303Y-121830995D02*
X83728303Y-122830995D01*
X83633064Y-122688137D01*
X83537826Y-122592899D01*
X83442588Y-122545280D01*
%TO.C,R2*%
X35638095Y-57038574D02*
X35971429Y-56562384D01*
X36209524Y-57038574D02*
X36209524Y-56038574D01*
X35828571Y-56038574D01*
X35733333Y-56086194D01*
X35685714Y-56133813D01*
X35638095Y-56229051D01*
X35638095Y-56371908D01*
X35685714Y-56467146D01*
X35733333Y-56514765D01*
X35828571Y-56562384D01*
X36209524Y-56562384D01*
X35257143Y-56133813D02*
X35209524Y-56086194D01*
X35114286Y-56038574D01*
X34876190Y-56038574D01*
X34780952Y-56086194D01*
X34733333Y-56133813D01*
X34685714Y-56229051D01*
X34685714Y-56324289D01*
X34733333Y-56467146D01*
X35304762Y-57038574D01*
X34685714Y-57038574D01*
D13*
%TO.C,R1*%
X138389865Y-57521194D02*
X138843993Y-57521194D01*
X138389865Y-58991194D02*
X138843993Y-58991194D01*
%TO.C,X1*%
X89143741Y-104983756D02*
X88123741Y-104983756D01*
X90663741Y-111623756D02*
X90663741Y-110183756D01*
X84063741Y-104983756D02*
X83493741Y-104983756D01*
X91233741Y-110183756D02*
X91233741Y-104983756D01*
X84063741Y-110183756D02*
X83493741Y-110183756D01*
X91233741Y-110183756D02*
X90663741Y-110183756D01*
X89143741Y-110183756D02*
X88123741Y-110183756D01*
X91233741Y-104983756D02*
X90663741Y-104983756D01*
X86603741Y-110183756D02*
X85583741Y-110183756D01*
X83493741Y-110183756D02*
X83493741Y-104983756D01*
X86603741Y-104983756D02*
X85583741Y-104983756D01*
%TO.C,R1*%
X180400867Y-121358376D02*
X179946739Y-121358376D01*
X180400867Y-119888376D02*
X179946739Y-119888376D01*
%TO.C,D1*%
X97630895Y-54380265D02*
X99529476Y-56278846D01*
X98171831Y-57636491D02*
X96273250Y-55737910D01*
X99529476Y-56278846D02*
X98171831Y-57636491D01*
%TO.C,X1*%
X35775991Y-73895814D02*
X36795991Y-73895814D01*
X38315991Y-73895814D02*
X39335991Y-73895814D01*
X40855991Y-73895814D02*
X41425991Y-73895814D01*
X41425991Y-68695814D02*
X41425991Y-73895814D01*
X38315991Y-68695814D02*
X39335991Y-68695814D01*
X33685991Y-73895814D02*
X34255991Y-73895814D01*
X34255991Y-67255814D02*
X34255991Y-68695814D01*
X35775991Y-68695814D02*
X36795991Y-68695814D01*
X33685991Y-68695814D02*
X34255991Y-68695814D01*
X33685991Y-68695814D02*
X33685991Y-73895814D01*
X40855991Y-68695814D02*
X41425991Y-68695814D01*
%TO.C,R1*%
X186857615Y-57521194D02*
X187311743Y-57521194D01*
X186857615Y-58991194D02*
X187311743Y-58991194D01*
%TO.C,D3*%
X67460895Y-52530265D02*
X69359476Y-54428846D01*
X68001831Y-55786491D02*
X66103250Y-53887910D01*
X69359476Y-54428846D02*
X68001831Y-55786491D01*
%TO.C,D2*%
X203092173Y-55066345D02*
X201193592Y-56964926D01*
X199835947Y-55607281D02*
X201734528Y-53708700D01*
X201734528Y-53708700D02*
X203092173Y-55066345D01*
%TO.C,R2*%
X89221239Y-121378376D02*
X89675367Y-121378376D01*
X89221239Y-119908376D02*
X89675367Y-119908376D01*
%TO.C,X1*%
X82153741Y-73895814D02*
X82723741Y-73895814D01*
X86783741Y-73895814D02*
X87803741Y-73895814D01*
X89893741Y-68695814D02*
X89893741Y-73895814D01*
X84243741Y-68695814D02*
X85263741Y-68695814D01*
X86783741Y-68695814D02*
X87803741Y-68695814D01*
X84243741Y-73895814D02*
X85263741Y-73895814D01*
X82153741Y-68695814D02*
X82723741Y-68695814D01*
X89323741Y-68695814D02*
X89893741Y-68695814D01*
X82723741Y-67255814D02*
X82723741Y-68695814D01*
X89323741Y-73895814D02*
X89893741Y-73895814D01*
X82153741Y-68695814D02*
X82153741Y-73895814D01*
%TO.C,D4*%
X144813401Y-128253673D02*
X143455756Y-126896028D01*
X146711982Y-126355092D02*
X144813401Y-128253673D01*
X143455756Y-126896028D02*
X145354337Y-124997447D01*
%TO.C,D2*%
X18763059Y-123813225D02*
X20661640Y-121914644D01*
X22019285Y-123272289D02*
X20120704Y-125170870D01*
X20120704Y-125170870D02*
X18763059Y-123813225D01*
%TO.C,R1*%
X89922115Y-57521194D02*
X90376243Y-57521194D01*
X89922115Y-58991194D02*
X90376243Y-58991194D01*
%TO.C,D2*%
X67230809Y-123813225D02*
X69129390Y-121914644D01*
X68588454Y-125170870D02*
X67230809Y-123813225D01*
X70487035Y-123272289D02*
X68588454Y-125170870D01*
%TO.C,D3*%
X200963506Y-124450724D02*
X202321151Y-123093079D01*
X202321151Y-123093079D02*
X204219732Y-124991660D01*
X202862087Y-126349305D02*
X200963506Y-124450724D01*
%TO.C,D2*%
X57688923Y-55066345D02*
X55790342Y-56964926D01*
X56331278Y-53708700D02*
X57688923Y-55066345D01*
X54432697Y-55607281D02*
X56331278Y-53708700D01*
%TO.C,R2*%
X84166243Y-58971194D02*
X83712115Y-58971194D01*
X84166243Y-57501194D02*
X83712115Y-57501194D01*
%TO.C,D4*%
X75143250Y-52524478D02*
X77041831Y-50625897D01*
X78399476Y-51983542D02*
X76500895Y-53882123D01*
X77041831Y-50625897D02*
X78399476Y-51983542D01*
%TO.C,X1*%
X186079241Y-110183756D02*
X185059241Y-110183756D01*
X180999241Y-104983756D02*
X180429241Y-104983756D01*
X188169241Y-110183756D02*
X187599241Y-110183756D01*
X180999241Y-110183756D02*
X180429241Y-110183756D01*
X187599241Y-111623756D02*
X187599241Y-110183756D01*
X183539241Y-104983756D02*
X182519241Y-104983756D01*
X183539241Y-110183756D02*
X182519241Y-110183756D01*
X186079241Y-104983756D02*
X185059241Y-104983756D01*
X180429241Y-110183756D02*
X180429241Y-104983756D01*
X188169241Y-110183756D02*
X188169241Y-104983756D01*
X188169241Y-104983756D02*
X187599241Y-104983756D01*
X137791491Y-68695814D02*
X138361491Y-68695814D01*
X138361491Y-68695814D02*
X138361491Y-73895814D01*
X130621491Y-68695814D02*
X131191491Y-68695814D01*
X132711491Y-73895814D02*
X133731491Y-73895814D01*
X130621491Y-73895814D02*
X131191491Y-73895814D01*
X137791491Y-73895814D02*
X138361491Y-73895814D01*
X135251491Y-68695814D02*
X136271491Y-68695814D01*
X131191491Y-67255814D02*
X131191491Y-68695814D01*
X132711491Y-68695814D02*
X133731491Y-68695814D01*
X130621491Y-68695814D02*
X130621491Y-73895814D01*
X135251491Y-73895814D02*
X136271491Y-73895814D01*
%TO.C,D4*%
X195179732Y-126355092D02*
X193281151Y-128253673D01*
X193281151Y-128253673D02*
X191923506Y-126896028D01*
X191923506Y-126896028D02*
X193822087Y-124997447D01*
%TO.C,D1*%
X196464976Y-56278846D02*
X195107331Y-57636491D01*
X194566395Y-54380265D02*
X196464976Y-56278846D01*
X195107331Y-57636491D02*
X193208750Y-55737910D01*
%TO.C,R2*%
X181101743Y-57501194D02*
X180647615Y-57501194D01*
X181101743Y-58971194D02*
X180647615Y-58971194D01*
X186156739Y-121378376D02*
X186610867Y-121378376D01*
X186156739Y-119908376D02*
X186610867Y-119908376D01*
%TO.C,R1*%
X34997617Y-119888376D02*
X34543489Y-119888376D01*
X34997617Y-121358376D02*
X34543489Y-121358376D01*
%TO.C,R2*%
X40753489Y-119908376D02*
X41207617Y-119908376D01*
X40753489Y-121378376D02*
X41207617Y-121378376D01*
%TO.C,D3*%
X117827226Y-54428846D02*
X116469581Y-55786491D01*
X116469581Y-55786491D02*
X114571000Y-53887910D01*
X115928645Y-52530265D02*
X117827226Y-54428846D01*
%TO.C,X1*%
X131961491Y-110183756D02*
X131961491Y-104983756D01*
X139131491Y-111623756D02*
X139131491Y-110183756D01*
X137611491Y-110183756D02*
X136591491Y-110183756D01*
X139701491Y-110183756D02*
X139131491Y-110183756D01*
X135071491Y-110183756D02*
X134051491Y-110183756D01*
X139701491Y-110183756D02*
X139701491Y-104983756D01*
X132531491Y-104983756D02*
X131961491Y-104983756D01*
X139701491Y-104983756D02*
X139131491Y-104983756D01*
X137611491Y-104983756D02*
X136591491Y-104983756D01*
X135071491Y-104983756D02*
X134051491Y-104983756D01*
X132531491Y-110183756D02*
X131961491Y-110183756D01*
%TO.C,D4*%
X98244232Y-126355092D02*
X96345651Y-128253673D01*
X96345651Y-128253673D02*
X94988006Y-126896028D01*
X94988006Y-126896028D02*
X96886587Y-124997447D01*
%TO.C,D2*%
X102900447Y-55607281D02*
X104799028Y-53708700D01*
X106156673Y-55066345D02*
X104258092Y-56964926D01*
X104799028Y-53708700D02*
X106156673Y-55066345D01*
%TO.C,D4*%
X126867226Y-51983542D02*
X124968645Y-53882123D01*
X123611000Y-52524478D02*
X125509581Y-50625897D01*
X125509581Y-50625897D02*
X126867226Y-51983542D01*
%TO.C,D1*%
X123683401Y-121243079D02*
X125581982Y-123141660D01*
X122325756Y-122600724D02*
X123683401Y-121243079D01*
X124224337Y-124499305D02*
X122325756Y-122600724D01*
%TO.C,D3*%
X18993145Y-52530265D02*
X20891726Y-54428846D01*
X19534081Y-55786491D02*
X17635500Y-53887910D01*
X20891726Y-54428846D02*
X19534081Y-55786491D01*
X55560256Y-124450724D02*
X56917901Y-123093079D01*
X57458837Y-126349305D02*
X55560256Y-124450724D01*
X56917901Y-123093079D02*
X58816482Y-124991660D01*
%TO.C,D2*%
X153266778Y-53708700D02*
X154624423Y-55066345D01*
X154624423Y-55066345D02*
X152725842Y-56964926D01*
X151368197Y-55607281D02*
X153266778Y-53708700D01*
%TO.C,X1*%
X42765991Y-104983756D02*
X42195991Y-104983756D01*
X35025991Y-110183756D02*
X35025991Y-104983756D01*
X42765991Y-110183756D02*
X42195991Y-110183756D01*
X35595991Y-104983756D02*
X35025991Y-104983756D01*
X38135991Y-104983756D02*
X37115991Y-104983756D01*
X40675991Y-110183756D02*
X39655991Y-110183756D01*
X42765991Y-110183756D02*
X42765991Y-104983756D01*
X35595991Y-110183756D02*
X35025991Y-110183756D01*
X40675991Y-104983756D02*
X39655991Y-104983756D01*
X38135991Y-110183756D02*
X37115991Y-110183756D01*
X42195991Y-111623756D02*
X42195991Y-110183756D01*
%TO.C,R1*%
X131933117Y-121358376D02*
X131478989Y-121358376D01*
X131933117Y-119888376D02*
X131478989Y-119888376D01*
%TO.C,D1*%
X146639581Y-57636491D02*
X144741000Y-55737910D01*
X147997226Y-56278846D02*
X146639581Y-57636491D01*
X146098645Y-54380265D02*
X147997226Y-56278846D01*
%TO.C,D3*%
X164937331Y-55786491D02*
X163038750Y-53887910D01*
X166294976Y-54428846D02*
X164937331Y-55786491D01*
X164396395Y-52530265D02*
X166294976Y-54428846D01*
%TO.C,D4*%
X175334976Y-51983542D02*
X173436395Y-53882123D01*
X173977331Y-50625897D02*
X175334976Y-51983542D01*
X172078750Y-52524478D02*
X173977331Y-50625897D01*
X49776482Y-126355092D02*
X47877901Y-128253673D01*
X47877901Y-128253673D02*
X46520256Y-126896028D01*
X46520256Y-126896028D02*
X48418837Y-124997447D01*
%TO.C,D3*%
X154394337Y-126349305D02*
X152495756Y-124450724D01*
X153853401Y-123093079D02*
X155751982Y-124991660D01*
X152495756Y-124450724D02*
X153853401Y-123093079D01*
%TO.C,D2*%
X165523954Y-125170870D02*
X164166309Y-123813225D01*
X167422535Y-123272289D02*
X165523954Y-125170870D01*
X164166309Y-123813225D02*
X166064890Y-121914644D01*
%TO.C,R1*%
X41454365Y-58991194D02*
X41908493Y-58991194D01*
X41454365Y-57521194D02*
X41908493Y-57521194D01*
%TO.C,X1*%
X179089241Y-73895814D02*
X179659241Y-73895814D01*
X181179241Y-68695814D02*
X182199241Y-68695814D01*
X181179241Y-73895814D02*
X182199241Y-73895814D01*
X186259241Y-73895814D02*
X186829241Y-73895814D01*
X179089241Y-68695814D02*
X179659241Y-68695814D01*
X183719241Y-68695814D02*
X184739241Y-68695814D01*
X179089241Y-68695814D02*
X179089241Y-73895814D01*
X186829241Y-68695814D02*
X186829241Y-73895814D01*
X179659241Y-67255814D02*
X179659241Y-68695814D01*
X186259241Y-68695814D02*
X186829241Y-68695814D01*
X183719241Y-73895814D02*
X184739241Y-73895814D01*
%TO.C,D4*%
X29931726Y-51983542D02*
X28033145Y-53882123D01*
X26675500Y-52524478D02*
X28574081Y-50625897D01*
X28574081Y-50625897D02*
X29931726Y-51983542D01*
%TO.C,R2*%
X137688989Y-121378376D02*
X138143117Y-121378376D01*
X137688989Y-119908376D02*
X138143117Y-119908376D01*
%TO.C,D1*%
X75215651Y-121243079D02*
X77114232Y-123141660D01*
X73858006Y-122600724D02*
X75215651Y-121243079D01*
X75756587Y-124499305D02*
X73858006Y-122600724D01*
%TO.C,D3*%
X104028006Y-124450724D02*
X105385651Y-123093079D01*
X105385651Y-123093079D02*
X107284232Y-124991660D01*
X105926587Y-126349305D02*
X104028006Y-124450724D01*
%TO.C,D1*%
X49163145Y-54380265D02*
X51061726Y-56278846D01*
X49704081Y-57636491D02*
X47805500Y-55737910D01*
X51061726Y-56278846D02*
X49704081Y-57636491D01*
X26747901Y-121243079D02*
X28646482Y-123141660D01*
X25390256Y-122600724D02*
X26747901Y-121243079D01*
X27288837Y-124499305D02*
X25390256Y-122600724D01*
%TO.C,R2*%
X132633993Y-57501194D02*
X132179865Y-57501194D01*
X132633993Y-58971194D02*
X132179865Y-58971194D01*
%TO.C,R1*%
X83465367Y-121358376D02*
X83011239Y-121358376D01*
X83465367Y-119888376D02*
X83011239Y-119888376D01*
%TO.C,D2*%
X117056204Y-125170870D02*
X115698559Y-123813225D01*
X118954785Y-123272289D02*
X117056204Y-125170870D01*
X115698559Y-123813225D02*
X117597140Y-121914644D01*
%TO.C,D1*%
X172151151Y-121243079D02*
X174049732Y-123141660D01*
X172692087Y-124499305D02*
X170793506Y-122600724D01*
X170793506Y-122600724D02*
X172151151Y-121243079D01*
%TO.C,R2*%
X35698493Y-58971194D02*
X35244365Y-58971194D01*
X35698493Y-57501194D02*
X35244365Y-57501194D01*
%TD*%
M02*
