M48
; DRILL file {KiCad (6.0.7)} date Tue Sep 13 00:00:24 2022
; FORMAT={-:-/ absolute / metric / decimal}
; #@! TF.CreationDate,2022-09-13T00:00:24-06:00
; #@! TF.GenerationSoftware,Kicad,Pcbnew,(6.0.7)
; #@! TF.FileFunction,MixedPlating,1,2
FMAT,2
METRIC
; #@! TA.AperFunction,Plated,PTH,ViaDrill
T1C0.400
%
G90
G05
T1
X35.011Y-68.156
X35.011Y-74.616
X36.341Y-110.693
X36.351Y-104.313
X40.101Y-74.566
X40.111Y-68.186
X41.441Y-104.263
X41.441Y-110.723
X83.479Y-68.156
X83.479Y-74.616
X84.808Y-110.693
X84.818Y-104.313
X88.569Y-74.566
X88.579Y-68.186
X89.908Y-104.263
X89.908Y-110.723
X131.947Y-68.156
X131.947Y-74.616
X133.276Y-110.693
X133.286Y-104.313
X137.037Y-74.566
X137.047Y-68.186
X138.376Y-104.263
X138.376Y-110.723
X180.415Y-68.156
X180.415Y-74.616
X181.744Y-110.693
X181.754Y-104.313
X185.505Y-74.566
X185.515Y-68.186
X186.844Y-104.263
X186.844Y-110.723
T0
M30
