%
M48
METRIC,000.000
T01C0.30
T02C0.40
T03C0.60
T04C0.65
T05C1.00
T06C0.75
T07C0.90
T08C0.99
T09C0.99
T10C1.00
T11C1.05
T12C1.27
T13C5.00
T14C0.50
%
T01
X034680Y112400
X034680Y111367
X034680Y110333
X034680Y109300
X035713Y112400
X035713Y111367
X035713Y110333
X035713Y109300
X036747Y112400
X036747Y111367
X036747Y110333
X036747Y109300
X037780Y112400
X037780Y111367
X037780Y110333
X037780Y109300
X129680Y112400
X129680Y111367
X129680Y110333
X129680Y109300
X130713Y112400
X130713Y111367
X130713Y110333
X130713Y109300
X131747Y112400
X131747Y111367
X131747Y110333
X131747Y109300
X132780Y112400
X132780Y111367
X132780Y110333
X132780Y109300
X224700Y112400
X224700Y111367
X224700Y110333
X224700Y109300
X225733Y112400
X225733Y111367
X225733Y110333
X225733Y109300
X226767Y112400
X226767Y111367
X226767Y110333
X226767Y109300
X227800Y112400
X227800Y111367
X227800Y110333
X227800Y109300
T02
X011980Y061860
X014200Y022775
X014588Y079430
X014588Y072240
X014590Y075830
X015075Y029400
X016000Y026300
X017310Y019250
X017800Y026250
X018025Y024850
X018939Y022470
X019230Y036320
X019994Y082784
X019994Y075776
X020000Y089748
X020020Y096744
X020590Y069340
X021100Y059250
X021100Y054870
X021400Y070170
X021660Y023990
X022020Y050650
X022040Y078680
X022050Y027650
X022180Y070910
X022860Y040910
X023689Y078680
X024210Y106040
X025280Y047530
X025300Y022840
X025520Y096740
X025720Y040910
X025880Y046190
X026280Y095880
X026750Y045350
X026960Y069410
X027170Y095060
X027750Y044590
X028020Y070120
X028040Y094260
X028520Y066979
X028820Y043570
X028830Y059700
X028860Y102160
X028969Y049776
X029510Y107700
X029670Y074600
X029830Y060340
X030570Y061040
X031120Y080260
X031280Y061680
X031280Y059030
X031490Y087320
X032159Y112430
X032330Y092630
X032628Y117570
X032738Y107700
X032850Y059040
X033400Y031994
X033440Y116580
X033519Y102160
X033546Y025268
X033600Y062360
X033830Y118330
X034129Y092640
X034519Y057090
X034780Y079410
X034989Y102170
X035306Y031974
X035370Y056520
X035408Y025288
X035620Y080410
X035710Y121950
X036012Y049741
X036040Y115890
X036090Y106020
X036220Y046960
X036390Y065910
X036528Y038470
X036580Y081250
X037300Y093240
X037620Y116070
X037620Y081970
X037750Y094110
X038030Y107040
X038170Y038470
X038269Y061030
X038280Y059040
X038370Y066950
X038400Y118300
X038960Y070100
X039060Y117560
X039160Y072960
X039210Y046080
X040160Y073580
X040580Y070530
X041310Y134140
X041860Y038470
X041879Y045340
X042020Y107400
X042990Y049748
X043510Y067560
X043510Y066520
X044220Y078430
X044500Y038470
X044560Y044590
X044570Y134310
X045010Y079630
X045290Y060350
X045290Y059030
X045330Y123930
X045590Y080420
X045820Y037470
X045830Y051690
X045830Y048880
X046230Y081260
X047020Y081970
X047090Y104890
X047240Y038470
X047700Y104100
X048310Y103200
X048750Y021259
X048770Y020300
X048980Y102410
X049360Y043580
X049390Y154580
X049420Y065920
X049620Y101030
X049810Y094850
X049920Y020210
X049982Y049761
X050520Y067060
X050600Y100690
X050840Y094830
X050920Y124780
X050950Y071360
X051150Y107130
X051170Y114300
X051180Y152390
X051360Y093240
X051600Y090250
X051600Y087618
X051600Y085070
X051600Y082454
X051600Y079940
X051600Y077560
X051780Y072080
X051790Y067150
X052370Y103740
X052870Y122750
X053210Y065950
X053250Y078150
X053250Y076140
X053410Y094090
X053714Y105244
X054120Y092770
X054150Y083810
X056250Y106040
X056270Y069420
X056860Y049761
X057620Y091660
X057620Y083760
X057660Y076400
X058270Y039430
X058790Y105200
X059170Y041290
X059280Y061680
X059280Y059010
X060220Y104860
X060440Y152410
X060858Y059010
X060860Y062360
X061310Y107150
X061350Y114240
X061750Y092770
X061830Y065390
X062783Y046963
X063085Y060375
X063110Y066530
X063170Y126900
X063490Y144190
X063500Y149920
X063950Y049759
X064190Y092770
X064289Y065900
X064300Y059640
X064629Y144180
X064640Y149250
X064789Y038450
X064879Y106410
X065019Y125490
X065410Y074180
X065410Y068700
X065690Y108250
X066270Y061030
X066289Y059010
X066660Y038450
X066810Y111430
X067270Y134720
X067619Y046081
X068830Y063840
X069120Y136550
X069120Y108240
X069240Y137940
X069240Y068680
X069320Y132990
X069370Y134170
X069740Y106390
X069983Y045343
X070130Y126150
X070140Y121940
X070430Y038450
X070833Y049781
X071190Y067700
X071530Y118000
X071740Y035040
X072470Y123190
X072470Y118710
X073039Y106370
X073220Y119470
X073250Y038450
X073267Y044583
X073270Y060390
X073270Y059050
X073440Y134100
X073450Y135170
X073810Y113190
X074680Y105120
X075320Y106380
X075350Y063110
X075930Y107770
X076050Y043580
X076091Y038450
X077180Y067170
X077767Y049754
X078760Y063110
X079090Y111610
X079780Y106380
X082160Y085820
X082780Y078550
X083130Y082180
X084050Y062770
X084400Y060650
X084480Y106360
X084610Y051110
X084610Y031900
X084620Y048250
X085310Y108660
X085410Y055050
X085740Y078550
X085760Y085810
X085760Y082180
X086430Y062090
X086650Y069720
X087000Y075320
X087000Y072870
X087400Y063390
X087500Y105930
X087820Y024630
X087910Y060110
X088210Y069720
X088270Y048210
X088270Y043790
X088270Y035310
X088350Y067840
X088359Y096639
X089080Y033120
X089530Y034420
X089950Y101770
X090020Y052110
X090070Y056340
X090530Y102630
X090870Y055500
X090980Y052790
X091130Y103480
X091650Y054880
X091790Y104340
X092040Y052970
X092420Y105230
X092720Y054220
X093060Y108140
X093060Y107160
X093060Y106190
X093070Y109140
X093610Y069750
X093690Y059820
X093730Y052640
X094790Y052670
X095740Y055620
X095850Y052670
X096040Y060610
X096160Y102300
X096200Y062600
X096240Y042090
X096250Y044710
X096280Y047340
X096350Y101190
X096740Y059910
X096860Y079790
X096870Y093850
X096920Y086800
X097010Y040200
X097260Y062280
X098200Y062520
X098220Y089810
X098220Y082730
X098220Y075790
X098820Y061570
X099730Y100880
X099780Y031430
X099789Y033769
X099980Y098350
X100280Y066340
X100300Y073000
X100300Y069660
X100300Y063000
X106980Y061860
X109200Y022775
X109588Y079430
X109588Y072240
X109590Y075830
X110075Y029400
X111000Y026300
X112310Y019250
X112800Y026250
X113025Y024850
X113940Y022470
X114230Y036320
X114995Y082784
X114995Y075776
X115000Y089748
X115020Y096744
X115590Y069340
X116100Y059250
X116100Y054870
X116400Y070170
X116660Y023990
X117020Y050650
X117039Y078680
X117050Y027650
X117180Y070910
X117860Y040910
X118690Y078680
X119210Y106040
X120280Y047530
X120300Y022840
X120520Y096740
X120720Y040910
X120880Y046190
X121280Y095880
X121750Y045350
X121960Y069410
X122170Y095060
X122750Y044590
X123020Y070120
X123039Y094260
X123520Y066979
X123820Y043570
X123830Y059700
X123860Y102160
X123969Y049776
X124510Y107700
X124670Y074600
X124830Y060340
X125570Y061040
X126120Y080260
X126280Y061680
X126280Y059030
X126490Y087320
X127160Y112430
X127330Y092630
X127630Y117570
X127740Y107700
X127850Y059040
X128401Y031994
X128440Y116580
X128520Y102160
X128544Y025268
X128600Y062360
X128829Y118330
X129130Y092640
X129520Y057090
X129780Y079410
X129990Y102170
X130306Y031974
X130370Y056520
X130407Y025288
X130620Y080410
X130710Y121950
X131012Y049741
X131038Y115890
X131090Y106020
X131220Y046960
X131390Y065910
X131528Y038470
X131579Y081250
X132300Y093240
X132620Y116070
X132620Y081970
X132750Y094110
X133030Y107040
X133170Y038470
X133270Y061030
X133280Y059040
X133370Y066950
X133400Y118300
X133960Y070100
X134060Y117560
X134160Y072960
X134210Y046080
X135160Y073580
X135579Y070530
X136310Y134140
X136860Y038470
X136880Y045340
X137020Y107400
X137990Y049748
X138510Y067560
X138510Y066520
X139220Y078430
X139500Y038470
X139560Y044590
X139570Y134310
X140010Y079630
X140290Y060350
X140290Y059030
X140329Y123930
X140590Y080420
X140820Y037470
X140829Y051690
X140829Y048880
X141230Y081260
X142020Y081970
X142090Y104890
X142240Y038470
X142700Y104100
X143310Y103200
X143750Y021259
X143770Y020300
X143980Y102410
X144360Y043580
X144390Y154580
X144420Y065920
X144620Y101030
X144810Y094850
X144920Y020210
X144982Y049761
X145520Y067060
X145600Y100690
X145840Y094830
X145920Y124780
X145950Y071360
X146150Y107130
X146170Y114300
X146180Y152390
X146360Y093240
X146600Y090250
X146600Y087618
X146600Y085070
X146600Y082454
X146600Y079940
X146600Y077560
X146780Y072080
X146790Y067150
X147370Y103740
X147870Y122750
X148210Y065950
X148250Y078150
X148250Y076140
X148410Y094090
X148714Y105244
X149120Y092770
X149150Y083810
X151250Y106040
X151270Y069420
X151860Y049761
X152620Y091660
X152620Y083760
X152660Y076400
X153270Y039430
X153790Y105200
X154170Y041290
X154280Y061680
X154280Y059010
X155220Y104860
X155440Y152410
X155858Y059010
X155860Y062360
X156310Y107150
X156350Y114240
X156750Y092770
X156829Y065390
X157783Y046963
X158085Y060375
X158110Y066530
X158170Y126900
X158490Y144190
X158500Y149920
X158950Y049759
X159190Y092770
X159290Y065900
X159300Y059640
X159630Y144180
X159640Y149250
X159790Y038450
X159880Y106410
X160020Y125490
X160410Y074180
X160410Y068700
X160690Y108250
X161270Y061030
X161290Y059010
X161660Y038450
X161810Y111430
X162270Y134720
X162619Y046081
X163829Y063840
X164120Y136550
X164120Y108240
X164240Y137940
X164240Y068680
X164320Y132990
X164370Y134170
X164740Y106390
X164983Y045343
X165130Y126150
X165140Y121940
X165430Y038450
X165833Y049781
X166190Y067700
X166530Y118000
X166740Y035040
X167470Y123190
X167470Y118710
X168040Y106370
X168220Y119470
X168250Y038450
X168267Y044583
X168270Y060390
X168270Y059050
X168440Y134100
X168450Y135170
X168810Y113190
X169680Y105120
X170320Y106380
X170350Y063110
X170930Y107770
X171050Y043580
X171091Y038450
X172180Y067170
X172767Y049754
X173760Y063110
X174090Y111610
X174780Y106380
X177160Y085820
X177780Y078550
X178130Y082180
X179050Y062770
X179400Y060650
X179480Y106360
X179610Y051110
X179610Y031900
X179620Y048250
X180310Y108660
X180410Y055050
X180740Y078550
X180760Y085810
X180760Y082180
X181430Y062090
X181650Y069720
X182000Y075320
X182000Y072870
X182400Y063390
X182500Y105930
X182820Y024630
X182910Y060110
X183209Y069720
X183269Y048210
X183269Y043790
X183269Y035310
X183350Y067840
X183358Y096639
X184079Y033120
X184530Y034420
X184950Y101770
X185019Y052110
X185070Y056340
X185530Y102630
X185870Y055500
X185980Y052790
X186130Y103480
X186650Y054880
X186790Y104340
X187040Y052970
X187420Y105230
X187720Y054220
X188060Y108140
X188060Y107160
X188060Y106190
X188070Y109140
X188610Y069750
X188690Y059820
X188730Y052640
X189790Y052670
X190740Y055620
X190850Y052670
X191040Y060610
X191160Y102300
X191200Y062600
X191240Y042090
X191250Y044710
X191280Y047340
X191350Y101190
X191740Y059910
X191860Y079790
X191870Y093850
X191920Y086800
X192010Y040200
X192260Y062280
X193200Y062520
X193220Y089810
X193220Y082730
X193220Y075790
X193820Y061570
X194730Y100880
X194780Y031430
X194789Y033769
X194980Y098350
X195280Y066340
X195300Y073000
X195300Y069660
X195300Y063000
X202000Y061860
X204220Y022775
X204608Y079430
X204608Y072240
X204610Y075830
X205095Y029400
X206020Y026300
X207330Y019250
X207820Y026250
X208045Y024850
X208960Y022470
X209250Y036320
X210015Y082784
X210015Y075776
X210020Y089748
X210040Y096744
X210610Y069340
X211120Y059250
X211120Y054870
X211420Y070170
X211680Y023990
X212040Y050650
X212060Y078680
X212070Y027650
X212200Y070910
X212880Y040910
X213710Y078680
X214230Y106040
X215300Y047530
X215320Y022840
X215540Y096740
X215740Y040910
X215900Y046190
X216300Y095880
X216770Y045350
X216980Y069410
X217190Y095060
X217770Y044590
X218040Y070120
X218060Y094260
X218540Y066979
X218840Y043570
X218850Y059700
X218880Y102160
X218989Y049776
X219530Y107700
X219690Y074600
X219850Y060340
X220590Y061040
X221140Y080260
X221300Y061680
X221300Y059030
X221510Y087320
X222180Y112430
X222350Y092630
X222650Y117570
X222760Y107700
X222870Y059040
X223421Y031994
X223460Y116580
X223540Y102160
X223566Y025268
X223620Y062360
X223850Y118330
X224150Y092640
X224540Y057090
X224800Y079410
X225010Y102170
X225326Y031974
X225390Y056520
X225428Y025288
X225640Y080410
X225730Y121950
X226032Y049741
X226060Y115890
X226110Y106020
X226240Y046960
X226410Y065910
X226548Y038470
X226600Y081250
X227320Y093240
X227640Y116070
X227640Y081970
X227770Y094110
X228050Y107040
X228190Y038470
X228290Y061030
X228300Y059040
X228390Y066950
X228420Y118300
X228980Y070100
X229080Y117560
X229180Y072960
X229230Y046080
X230180Y073580
X230600Y070530
X231330Y134140
X231880Y038470
X231900Y045340
X232040Y107400
X233010Y049748
X233530Y067560
X233530Y066520
X234240Y078430
X234520Y038470
X234580Y044590
X234590Y134310
X235030Y079630
X235310Y060350
X235310Y059030
X235350Y123930
X235610Y080420
X235840Y037470
X235850Y051690
X235850Y048880
X236250Y081260
X237040Y081970
X237110Y104890
X237260Y038470
X237720Y104100
X238330Y103200
X238770Y021259
X238790Y020300
X239000Y102410
X239380Y043580
X239410Y154580
X239440Y065920
X239640Y101030
X239830Y094850
X239940Y020210
X240002Y049761
X240540Y067060
X240620Y100690
X240860Y094830
X240940Y124780
X240970Y071360
X241170Y107130
X241190Y114300
X241200Y152390
X241380Y093240
X241620Y090250
X241620Y087618
X241620Y085070
X241620Y082454
X241620Y079940
X241620Y077560
X241800Y072080
X241810Y067150
X242390Y103740
X242890Y122750
X243230Y065950
X243270Y078150
X243270Y076140
X243430Y094090
X243734Y105244
X244140Y092770
X244170Y083810
X246270Y106040
X246290Y069420
X246880Y049761
X247640Y091660
X247640Y083760
X247680Y076400
X248290Y039430
X248810Y105200
X249190Y041290
X249300Y061680
X249300Y059010
X250240Y104860
X250460Y152410
X250878Y059010
X250880Y062360
X251330Y107150
X251370Y114240
X251770Y092770
X251850Y065390
X252803Y046963
X253105Y060375
X253130Y066530
X253190Y126900
X253510Y144190
X253520Y149920
X253970Y049759
X254210Y092770
X254310Y065900
X254320Y059640
X254650Y144180
X254660Y149250
X254810Y038450
X254900Y106410
X255040Y125490
X255430Y074180
X255430Y068700
X255710Y108250
X256290Y061030
X256310Y059010
X256680Y038450
X256829Y111430
X257290Y134720
X257639Y046081
X258850Y063840
X259140Y136550
X259140Y108240
X259260Y137940
X259260Y068680
X259339Y132990
X259390Y134170
X259760Y106390
X260003Y045343
X260149Y126150
X260160Y121940
X260450Y038450
X260853Y049781
X261209Y067700
X261550Y118000
X261760Y035040
X262490Y123190
X262490Y118710
X263060Y106370
X263240Y119470
X263270Y038450
X263287Y044583
X263290Y060390
X263290Y059050
X263460Y134100
X263470Y135170
X263830Y113190
X264700Y105120
X265340Y106380
X265370Y063110
X265950Y107770
X266070Y043580
X266111Y038450
X267200Y067170
X267787Y049754
X268780Y063110
X269110Y111610
X269800Y106380
X272180Y085820
X272800Y078550
X273150Y082180
X274070Y062770
X274420Y060650
X274500Y106360
X274630Y051110
X274630Y031900
X274640Y048250
X275330Y108660
X275430Y055050
X275760Y078550
X275780Y085810
X275780Y082180
X276450Y062090
X276670Y069720
X277020Y075320
X277020Y072870
X277420Y063390
X277520Y105930
X277840Y024630
X277930Y060110
X278230Y069720
X278290Y048210
X278290Y043790
X278290Y035310
X278370Y067840
X278379Y096639
X279100Y033120
X279550Y034420
X279970Y101770
X280040Y052110
X280090Y056340
X280550Y102630
X280890Y055500
X281000Y052790
X281150Y103480
X281670Y054880
X281810Y104340
X282060Y052970
X282440Y105230
X282740Y054220
X283080Y108140
X283080Y107160
X283080Y106190
X283090Y109140
X283630Y069750
X283710Y059820
X283750Y052640
X284810Y052670
X285760Y055620
X285870Y052670
X286060Y060610
X286180Y102300
X286220Y062600
X286260Y042090
X286270Y044710
X286300Y047340
X286370Y101190
X286760Y059910
X286880Y079790
X286890Y093850
X286940Y086800
X287030Y040200
X287280Y062280
X288220Y062520
X288240Y089810
X288240Y082730
X288240Y075790
X288840Y061570
X289750Y100880
X289800Y031430
X289809Y033769
X290000Y098350
X290300Y066340
X290320Y073000
X290320Y069660
X290320Y063000
T03
X071539Y138920G85X070539Y138920
X071539Y130280G85X070539Y130280
X077150Y138920G85X075650Y138920
X077150Y130280G85X075650Y130280
X166540Y138920G85X165540Y138920
X166540Y130280G85X165540Y130280
X172150Y138920G85X170650Y138920
X172150Y130280G85X170650Y130280
X261560Y138920G85X260560Y138920
X261560Y130280G85X260560Y130280
X267170Y138920G85X265670Y138920
X267170Y130280G85X265670Y130280
T04
X096853Y037579
X096853Y035039
X096853Y032497
X097053Y036309
X097053Y033769
X098123Y037579
X098123Y035039
X098123Y032497
X098323Y036309
X098323Y033769
X191853Y037579
X191853Y035039
X191853Y032497
X192053Y036309
X192053Y033769
X193123Y037579
X193123Y035039
X193123Y032497
X193322Y036309
X193322Y033769
X286873Y037579
X286873Y035039
X286873Y032497
X287073Y036309
X287073Y033769
X288143Y037579
X288143Y035039
X288143Y032497
X288343Y036309
X288343Y033769
T05
X044849Y016198
X044849Y013658
X047389Y016198
X047389Y013658
X049929Y016198
X049929Y013658
X052469Y016198
X052469Y013658
X055009Y016198
X055009Y013658
X057549Y016198
X057549Y013658
X060089Y016198
X060089Y013658
X062629Y016198
X062629Y013658
X065169Y016198
X065169Y013658
X067709Y016198
X067709Y013658
X053383Y155923
X053383Y153383
X055923Y155923
X055923Y153383
X058463Y155923
X058463Y153383
X139849Y016198
X139849Y013658
X142389Y016198
X142389Y013658
X144929Y016198
X144929Y013658
X147469Y016198
X147469Y013658
X150009Y016198
X150009Y013658
X152549Y016198
X152549Y013658
X155089Y016198
X155089Y013658
X157629Y016198
X157629Y013658
X160168Y016198
X160168Y013658
X162709Y016198
X162709Y013658
X148383Y155923
X148383Y153383
X150923Y155923
X150923Y153383
X153463Y155923
X153463Y153383
X234869Y016198
X234869Y013658
X237409Y016198
X237409Y013658
X239949Y016198
X239949Y013658
X242489Y016198
X242489Y013658
X245029Y016198
X245029Y013658
X247569Y016198
X247569Y013658
X250109Y016198
X250109Y013658
X252649Y016198
X252649Y013658
X255189Y016198
X255189Y013658
X257728Y016198
X257728Y013658
X243403Y155923
X243403Y153383
X245943Y155923
X245943Y153383
X248483Y155923
X248483Y153383
X148921Y149334G85X152921Y149334
X243941Y149334G85X247941Y149334
T06
X068981Y034966
X040584Y034966
X163981Y034966
X135584Y034966
X259000Y034966
X230604Y034966
T07
X013850Y040440
X013850Y033640
X108850Y040440
X108850Y033640
X203870Y040440
X203870Y033640
T08
X090414Y038230
X092446Y038230
X185414Y038230
X187446Y038230
X186430Y030610
X280434Y038230
X282466Y038230
X281450Y030610
T09
X091430Y030610
T10
X053921Y149334G85X057921Y149334
T11
X071669Y032278
X043271Y032278
X166668Y032278
X138271Y032278
X261689Y032278
X233291Y032278
T12
X051727Y158648
X146727Y158648
X241747Y158648
T13
X070180Y095066G85X070180Y073066
X165180Y095066G85X165180Y073066
X260200Y095066G85X260200Y073066
T14
X009731Y098051
X009732Y097051
X009732Y096051
X009732Y095051
X009732Y094051
X009732Y093051
X009733Y092051
X007231Y098757
X007231Y097757
X007232Y096757
X007232Y095757
X007232Y094757
X007232Y093757
X007233Y092757
X007233Y091757
X009744Y046051
X009744Y045051
X009744Y044051
X009744Y043051
X009745Y042051
X009745Y041051
X009745Y040051
X007244Y046757
X007244Y045757
X007244Y044757
X007244Y043757
X007245Y042757
X007245Y041757
X007245Y040757
X007245Y039757
X102722Y091949
X102723Y092949
X102724Y093949
X102724Y094949
X102725Y095949
X102726Y096949
X102726Y097949
X104731Y098051
X104732Y097051
X104732Y096051
X104732Y095051
X104732Y094051
X104732Y093051
X104733Y092051
X102690Y039949
X102691Y040949
X102692Y041949
X102692Y042949
X102693Y043949
X102693Y044949
X102694Y045949
X104744Y046051
X104744Y045051
X104744Y044051
X104744Y043051
X104745Y042051
X104745Y041051
X104745Y040051
X197722Y091949
X197723Y092949
X197724Y093949
X197724Y094949
X197725Y095949
X197726Y096949
X197726Y097949
X199751Y098051
X199752Y097051
X199752Y096051
X199752Y095051
X199752Y094051
X199752Y093051
X199753Y092051
X197690Y039949
X197691Y040949
X197692Y041949
X197692Y042949
X197693Y043949
X197693Y044949
X197694Y045949
X199764Y046051
X199764Y045051
X199764Y044051
X199764Y043051
X199765Y042051
X199765Y041051
X199765Y040051
X292742Y091949
X292743Y092949
X292744Y093949
X292744Y094949
X292745Y095949
X292746Y096949
X292746Y097949
X295242Y091629
X295243Y092629
X295243Y093629
X295244Y094629
X295245Y095629
X295245Y096629
X295246Y097629
X295247Y098629
X292710Y039949
X292711Y040949
X292712Y041949
X292712Y042949
X292713Y043949
X292714Y044949
X292714Y045949
X295210Y039629
X295211Y040629
X295211Y041629
X295212Y042629
X295213Y043629
X295213Y044629
X295214Y045629
X295215Y046629
X051340Y009728
X052340Y009728
X053340Y009729
X054340Y009729
X055340Y009729
X056340Y009730
X057340Y009730
X058340Y009730
X051392Y007228
X052392Y007228
X053392Y007229
X054392Y007229
X055392Y007229
X056392Y007230
X057392Y007230
X058392Y007230
X150340Y009729
X151340Y009730
X152340Y009730
X153340Y009730
X154340Y009730
X155340Y009731
X156340Y009731
X157340Y009731
X150222Y007229
X151222Y007230
X152222Y007230
X153222Y007230
X154222Y007230
X155222Y007231
X156222Y007231
X157222Y007231
X247360Y009730
X248360Y009730
X249360Y009730
X250360Y009731
X251360Y009731
X252360Y009731
X253360Y009732
X254360Y009732
X247972Y007230
X248972Y007230
X249972Y007231
X250972Y007231
X251972Y007231
X252972Y007232
X253972Y007232
X046361Y158230
X045741Y157447
X045174Y156625
X044683Y155754
X044191Y154883
X043703Y154010
X043243Y153122
X042783Y152234
X044268Y159634
X043663Y158839
X043091Y158019
X042599Y157149
X042108Y156278
X041616Y155407
X041152Y154521
X040692Y153633
X141361Y158230
X140741Y157447
X140174Y156625
X139683Y155754
X139191Y154883
X138703Y154010
X138243Y153122
X137783Y152234
X139274Y159641
X138668Y158847
X138095Y158028
X137604Y157157
X137112Y156286
X136621Y155415
X136157Y154530
X135697Y153642
X236381Y158230
X235761Y157447
X235194Y156625
X234703Y155754
X234211Y154883
X233723Y154010
X233263Y153122
X232803Y152234
X234280Y159625
X233676Y158829
X233105Y158009
X232613Y157138
X232122Y156267
X231630Y155397
X231167Y154510
X230707Y153623
M30