%TF.GenerationSoftware,KiCad,Pcbnew,(6.0.5)*%
%TF.CreationDate,2022-09-12T01:39:42-06:00*%
%TF.ProjectId,MiniMageSpells,4d696e69-4d61-4676-9553-70656c6c732e,1.0*%
%TF.SameCoordinates,PX6e486c0PY7ba4d50*%
%TF.FileFunction,Copper,L2,Bot*%
%TF.FilePolarity,Positive*%
%FSLAX46Y46*%
G04 Gerber Fmt 4.6, Leading zero omitted, Abs format (unit mm)*
G04 Created by KiCad (PCBNEW (6.0.5)) date 2022-09-12 01:39:42*
%MOMM*%
%LPD*%
G01*
G04 APERTURE LIST*
G04 Aperture macros list*
%AMRoundRect*
0 Rectangle with rounded corners*
0 $1 Rounding radius*
0 $2 $3 $4 $5 $6 $7 $8 $9 X,Y pos of 4 corners*
0 Add a 4 corners polygon primitive as box body*
4,1,4,$2,$3,$4,$5,$6,$7,$8,$9,$2,$3,0*
0 Add four circle primitives for the rounded corners*
1,1,$1+$1,$2,$3*
1,1,$1+$1,$4,$5*
1,1,$1+$1,$6,$7*
1,1,$1+$1,$8,$9*
0 Add four rect primitives between the rounded corners*
20,1,$1+$1,$2,$3,$4,$5,0*
20,1,$1+$1,$4,$5,$6,$7,0*
20,1,$1+$1,$6,$7,$8,$9,0*
20,1,$1+$1,$8,$9,$2,$3,0*%
G04 Aperture macros list end*
%ADD10C,0.150000*%
%TA.AperFunction,NonConductor*%
%ADD11C,0.150000*%
%TD*%
%TA.AperFunction,SMDPad,CuDef*%
%ADD12R,1.000000X3.150000*%
%TD*%
%TA.AperFunction,SMDPad,CuDef*%
%ADD13RoundRect,0.243750X0.494975X0.150260X0.150260X0.494975X-0.494975X-0.150260X-0.150260X-0.494975X0*%
%TD*%
%TA.AperFunction,SMDPad,CuDef*%
%ADD14RoundRect,0.250000X0.262500X0.450000X-0.262500X0.450000X-0.262500X-0.450000X0.262500X-0.450000X0*%
%TD*%
%TA.AperFunction,SMDPad,CuDef*%
%ADD15RoundRect,0.243750X-0.150260X0.494975X-0.494975X0.150260X0.150260X-0.494975X0.494975X-0.150260X0*%
%TD*%
%TA.AperFunction,SMDPad,CuDef*%
%ADD16RoundRect,0.250000X-0.262500X-0.450000X0.262500X-0.450000X0.262500X0.450000X-0.262500X0.450000X0*%
%TD*%
%TA.AperFunction,ViaPad*%
%ADD17C,0.800000*%
%TD*%
%TA.AperFunction,Conductor*%
%ADD18C,0.250000*%
%TD*%
G04 APERTURE END LIST*
D10*
D11*
X25428371Y4243238D02*
X25475990Y4195619D01*
X25618847Y4148000D01*
X25714085Y4148000D01*
X25856942Y4195619D01*
X25952181Y4290857D01*
X25999800Y4386095D01*
X26047419Y4576571D01*
X26047419Y4719428D01*
X25999800Y4909904D01*
X25952181Y5005142D01*
X25856942Y5100380D01*
X25714085Y5148000D01*
X25618847Y5148000D01*
X25475990Y5100380D01*
X25428371Y5052761D01*
X24856942Y4148000D02*
X24952181Y4195619D01*
X24999800Y4243238D01*
X25047419Y4338476D01*
X25047419Y4624190D01*
X24999800Y4719428D01*
X24952181Y4767047D01*
X24856942Y4814666D01*
X24714085Y4814666D01*
X24618847Y4767047D01*
X24571228Y4719428D01*
X24523609Y4624190D01*
X24523609Y4338476D01*
X24571228Y4243238D01*
X24618847Y4195619D01*
X24714085Y4148000D01*
X24856942Y4148000D01*
X24095038Y4814666D02*
X24095038Y3814666D01*
X24095038Y4767047D02*
X23999800Y4814666D01*
X23809323Y4814666D01*
X23714085Y4767047D01*
X23666466Y4719428D01*
X23618847Y4624190D01*
X23618847Y4338476D01*
X23666466Y4243238D01*
X23714085Y4195619D01*
X23809323Y4148000D01*
X23999800Y4148000D01*
X24095038Y4195619D01*
X23190276Y4814666D02*
X23190276Y3814666D01*
X23190276Y4767047D02*
X23095038Y4814666D01*
X22904562Y4814666D01*
X22809323Y4767047D01*
X22761704Y4719428D01*
X22714085Y4624190D01*
X22714085Y4338476D01*
X22761704Y4243238D01*
X22809323Y4195619D01*
X22904562Y4148000D01*
X23095038Y4148000D01*
X23190276Y4195619D01*
X21904562Y4195619D02*
X21999800Y4148000D01*
X22190276Y4148000D01*
X22285514Y4195619D01*
X22333133Y4290857D01*
X22333133Y4671809D01*
X22285514Y4767047D01*
X22190276Y4814666D01*
X21999800Y4814666D01*
X21904562Y4767047D01*
X21856942Y4671809D01*
X21856942Y4576571D01*
X22333133Y4481333D01*
X21428371Y4148000D02*
X21428371Y4814666D01*
X21428371Y4624190D02*
X21380752Y4719428D01*
X21333133Y4767047D01*
X21237895Y4814666D01*
X21142657Y4814666D01*
X20047419Y4148000D02*
X20047419Y5148000D01*
X20047419Y4767047D02*
X19952181Y4814666D01*
X19761704Y4814666D01*
X19666466Y4767047D01*
X19618847Y4719428D01*
X19571228Y4624190D01*
X19571228Y4338476D01*
X19618847Y4243238D01*
X19666466Y4195619D01*
X19761704Y4148000D01*
X19952181Y4148000D01*
X20047419Y4195619D01*
X19237895Y4814666D02*
X18999800Y4148000D01*
X18761704Y4814666D02*
X18999800Y4148000D01*
X19095038Y3909904D01*
X19142657Y3862285D01*
X19237895Y3814666D01*
X16999800Y4624190D02*
X17047419Y4671809D01*
X17142657Y4719428D01*
X17237895Y4719428D01*
X17333133Y4671809D01*
X17380752Y4624190D01*
X17428371Y4528952D01*
X17428371Y4433714D01*
X17380752Y4338476D01*
X17333133Y4290857D01*
X17237895Y4243238D01*
X17142657Y4243238D01*
X17047419Y4290857D01*
X16999800Y4338476D01*
X16999800Y4719428D02*
X16999800Y4338476D01*
X16952181Y4290857D01*
X16904562Y4290857D01*
X16809323Y4338476D01*
X16761704Y4433714D01*
X16761704Y4671809D01*
X16856942Y4814666D01*
X16999800Y4909904D01*
X17190276Y4957523D01*
X17380752Y4909904D01*
X17523609Y4814666D01*
X17618847Y4671809D01*
X17666466Y4481333D01*
X17618847Y4290857D01*
X17523609Y4148000D01*
X17380752Y4052761D01*
X17190276Y4005142D01*
X16999800Y4052761D01*
X16856942Y4148000D01*
X16333133Y4148000D02*
X16333133Y5148000D01*
X15904562Y4148000D02*
X15904562Y4671809D01*
X15952181Y4767047D01*
X16047419Y4814666D01*
X16190276Y4814666D01*
X16285514Y4767047D01*
X16333133Y4719428D01*
X14999800Y4148000D02*
X14999800Y4671809D01*
X15047419Y4767047D01*
X15142657Y4814666D01*
X15333133Y4814666D01*
X15428371Y4767047D01*
X14999800Y4195619D02*
X15095038Y4148000D01*
X15333133Y4148000D01*
X15428371Y4195619D01*
X15475990Y4290857D01*
X15475990Y4386095D01*
X15428371Y4481333D01*
X15333133Y4528952D01*
X15095038Y4528952D01*
X14999800Y4576571D01*
X14523609Y4148000D02*
X14523609Y4814666D01*
X14523609Y4719428D02*
X14475990Y4767047D01*
X14380752Y4814666D01*
X14237895Y4814666D01*
X14142657Y4767047D01*
X14095038Y4671809D01*
X14095038Y4148000D01*
X14095038Y4671809D02*
X14047419Y4767047D01*
X13952181Y4814666D01*
X13809323Y4814666D01*
X13714085Y4767047D01*
X13666466Y4671809D01*
X13666466Y4148000D01*
X13237895Y4195619D02*
X13142657Y4148000D01*
X12952181Y4148000D01*
X12856942Y4195619D01*
X12809323Y4290857D01*
X12809323Y4338476D01*
X12856942Y4433714D01*
X12952181Y4481333D01*
X13095038Y4481333D01*
X13190276Y4528952D01*
X13237895Y4624190D01*
X13237895Y4671809D01*
X13190276Y4767047D01*
X13095038Y4814666D01*
X12952181Y4814666D01*
X12856942Y4767047D01*
X12523609Y4814666D02*
X12142657Y4814666D01*
X12380752Y5148000D02*
X12380752Y4290857D01*
X12333133Y4195619D01*
X12237895Y4148000D01*
X12142657Y4148000D01*
X11428371Y4195619D02*
X11523609Y4148000D01*
X11714085Y4148000D01*
X11809323Y4195619D01*
X11856942Y4290857D01*
X11856942Y4671809D01*
X11809323Y4767047D01*
X11714085Y4814666D01*
X11523609Y4814666D01*
X11428371Y4767047D01*
X11380752Y4671809D01*
X11380752Y4576571D01*
X11856942Y4481333D01*
X10952181Y4148000D02*
X10952181Y4814666D01*
X10952181Y4624190D02*
X10904562Y4719428D01*
X10856942Y4767047D01*
X10761704Y4814666D01*
X10666466Y4814666D01*
D12*
%TO.P,X1,1,VCC*%
%TO.N,+3V3*%
X16144562Y18175380D03*
%TO.P,X1,2,GND*%
%TO.N,GND*%
X16144562Y13125380D03*
%TO.P,X1,3,SDA*%
%TO.N,unconnected-(X1-Pad3)*%
X18684562Y18175380D03*
%TO.P,X1,4,SCL*%
%TO.N,unconnected-(X1-Pad4)*%
X18684562Y13125380D03*
%TO.P,X1,5,GPIO1*%
%TO.N,unconnected-(X1-Pad5)*%
X21224562Y18175380D03*
%TO.P,X1,6,GPIO2*%
%TO.N,unconnected-(X1-Pad6)*%
X21224562Y13125380D03*
%TD*%
D13*
%TO.P,D1,1,K*%
%TO.N,GND*%
X30982913Y30517087D03*
%TO.P,D1,2,A*%
%TO.N,Net-(D1-Pad2)*%
X29657087Y31842913D03*
%TD*%
D14*
%TO.P,R2,1*%
%TO.N,+3V3*%
X17512500Y28710000D03*
%TO.P,R2,2*%
%TO.N,Net-(D3-Pad2)*%
X15687500Y28710000D03*
%TD*%
D13*
%TO.P,D3,1,K*%
%TO.N,GND*%
X812913Y32367087D03*
%TO.P,D3,2,A*%
%TO.N,Net-(D3-Pad2)*%
X-512913Y33692913D03*
%TD*%
D15*
%TO.P,D2,1,K*%
%TO.N,GND*%
X37610110Y32030110D03*
%TO.P,D2,2,A*%
%TO.N,Net-(D1-Pad2)*%
X36284284Y30704284D03*
%TD*%
D16*
%TO.P,R1,1*%
%TO.N,+3V3*%
X21897500Y28690000D03*
%TO.P,R1,2*%
%TO.N,Net-(D1-Pad2)*%
X23722500Y28690000D03*
%TD*%
D15*
%TO.P,D4,1,K*%
%TO.N,GND*%
X9852913Y35112913D03*
%TO.P,D4,2,A*%
%TO.N,Net-(D3-Pad2)*%
X8527087Y33787087D03*
%TD*%
D17*
%TO.N,unconnected-(X1-Pad6)*%
X21230000Y12380000D03*
%TO.N,unconnected-(X1-Pad5)*%
X21240000Y18760000D03*
%TO.N,+3V3*%
X16140000Y18790000D03*
%TO.N,GND*%
X16140000Y12330000D03*
%TD*%
D18*
%TO.N,+3V3*%
X17502500Y28700000D02*
G75*
G02*
X17522500Y28700000I10000J-9997D01*
G01*
X16144580Y26374784D02*
G75*
G02*
X16828531Y28026031I2335220J16D01*
G01*
X17546642Y28690018D02*
G75*
G02*
X17522500Y28700000I-42J34082D01*
G01*
X16124562Y17179582D02*
X16124562Y17029543D01*
%TO.N,Net-(D3-Pad2)*%
X8044192Y33304196D02*
G75*
G02*
X8044196Y33304196I2J-977396020D01*
G01*
X8044197Y33304197D02*
G75*
G02*
X8044196Y33304198I3J3D01*
G01*
X14645837Y28710028D02*
G75*
G02*
X12867608Y29446568I-37J2514772D01*
G01*
X8285641Y33545642D02*
G75*
G02*
X8768532Y33545642I241445J-241446D01*
G01*
X8044193Y33304196D02*
G75*
G02*
X8044196Y33304196I2J-977396020D01*
G01*
X8044197Y33304196D02*
G75*
G03*
X8044196Y33304197I-1J0D01*
G01*
X8044192Y33304196D02*
X8044196Y33304198D01*
X8044193Y33304196D02*
X8044196Y33304197D01*
%TO.N,Net-(D1-Pad2)*%
X25113337Y28689982D02*
G75*
G03*
X27487643Y29673472I-37J3357818D01*
G01*
X29671260Y31842913D02*
X29660630Y31842913D01*
X29657972Y31842913D02*
X29652657Y31842913D01*
X25113337Y28690000D02*
X23722500Y28690000D01*
X27487644Y29673471D02*
X29657087Y31842913D01*
%TO.N,Net-(D3-Pad2)*%
X14645837Y28710000D02*
X15687500Y28710000D01*
X12867607Y29446567D02*
X8768532Y33545642D01*
X8044196Y33304198D02*
X8285641Y33545642D01*
%TO.N,+3V3*%
X17546642Y28690000D02*
X21897500Y28690000D01*
X17502500Y28700000D02*
X16828531Y28026031D01*
X16144562Y26374784D02*
X16144562Y18175380D01*
X16124562Y17179582D02*
X16124562Y18789496D01*
%TO.N,Net-(D1-Pad2)*%
X32019964Y30910955D02*
G75*
G03*
X32005182Y30946727I-50564J45D01*
G01*
X29660630Y31842913D02*
X29657972Y31842913D01*
X29671260Y31842913D02*
X30444280Y31842913D01*
X32005182Y30946727D02*
X31320848Y31631061D01*
X32020000Y30910955D02*
X32020000Y30890000D01*
X29637901Y31837902D02*
G75*
G02*
X29650000Y31842913I12099J-12102D01*
G01*
X29652657Y31842913D02*
X29650000Y31842913D01*
X31320844Y31631053D02*
G75*
G03*
X30444280Y31842912I-896044J-1788053D01*
G01*
X36049284Y30704284D02*
X36284284Y30704284D01*
X35292142Y30182142D02*
X35648113Y30538114D01*
X33009913Y29660000D02*
X34031579Y29660000D01*
X32360234Y30320287D02*
X32360234Y30090807D01*
X32197967Y30712033D02*
X32019999Y30890001D01*
X34031579Y29660014D02*
G75*
G03*
X35292141Y30182143I21J1782686D01*
G01*
X32360241Y30090810D02*
G75*
G03*
X32515000Y29865000I725359J331190D01*
G01*
X32197978Y30712044D02*
G75*
G02*
X32360234Y30320287I-391778J-391744D01*
G01*
X33009913Y29660006D02*
G75*
G02*
X32515000Y29865000I-13J699894D01*
G01*
X35648112Y30538115D02*
G75*
G02*
X36049284Y30704284I401188J-401215D01*
G01*
%TO.N,Net-(D3-Pad2)*%
X2672095Y32699995D02*
G75*
G02*
X1473543Y33196457I5J1695005D01*
G01*
X274991Y33692905D02*
G75*
G02*
X1473543Y33196457I9J-1695005D01*
G01*
X6671313Y32699999D02*
G75*
G03*
X7983543Y33243544I-13J1855801D01*
G01*
X6671313Y32700000D02*
X2672095Y32700000D01*
X8044192Y33304196D02*
X7983543Y33243544D01*
X274991Y33692913D02*
X-512913Y33692913D01*
%TO.N,+3V3*%
X16124577Y16954523D02*
G75*
G03*
X16134562Y16930380I34123J-23D01*
G01*
X16124562Y17029543D02*
X16124562Y16954523D01*
X16134562Y16930380D02*
X16144562Y16920380D01*
%TD*%
%TA.AperFunction,Conductor*%
%TO.N,GND*%
G36*
X17023394Y71436457D02*
G01*
X17107616Y71431418D01*
X17235031Y71423793D01*
X17245848Y71422676D01*
X17420535Y71396971D01*
X17475739Y71388848D01*
X17482267Y71387710D01*
X17557692Y71372511D01*
X17564426Y71370961D01*
X17792733Y71311763D01*
X17801116Y71309276D01*
X18022366Y71235190D01*
X18029125Y71232709D01*
X18252674Y71143352D01*
X18257815Y71141164D01*
X18484911Y71038489D01*
X18488486Y71036804D01*
X18720068Y70923211D01*
X18722106Y70922188D01*
X18958104Y70800949D01*
X18959079Y70800442D01*
X19096330Y70728230D01*
X19097261Y70727736D01*
X19341842Y70596083D01*
X19342275Y70595848D01*
X19413689Y70557006D01*
X19554587Y70480371D01*
X19555339Y70479926D01*
X19556115Y70479339D01*
X19589833Y70461200D01*
X19590096Y70461058D01*
X19621015Y70444241D01*
X19621926Y70443903D01*
X19622726Y70443506D01*
X19805433Y70345220D01*
X19808062Y70343696D01*
X19810325Y70342030D01*
X19814648Y70339780D01*
X19814652Y70339777D01*
X19841682Y70325706D01*
X19843105Y70324954D01*
X19871520Y70309668D01*
X19874148Y70308704D01*
X19876934Y70307354D01*
X20009313Y70238442D01*
X20081371Y70200931D01*
X20083453Y70199847D01*
X20088165Y70197264D01*
X20317696Y70064920D01*
X20325312Y70060529D01*
X20336676Y70053135D01*
X20532669Y69910014D01*
X20543100Y69901505D01*
X20718876Y69741702D01*
X20728046Y69732454D01*
X20886598Y69555101D01*
X20894310Y69545581D01*
X21037814Y69349671D01*
X21044046Y69340315D01*
X21173880Y69125166D01*
X21178748Y69116316D01*
X21295770Y68881763D01*
X21299459Y68873663D01*
X21408336Y68610276D01*
X21409618Y68607045D01*
X21474796Y68435977D01*
X21475130Y68434998D01*
X21475369Y68433901D01*
X21476484Y68431021D01*
X21489122Y68398375D01*
X21489279Y68397967D01*
X21501701Y68365363D01*
X21502245Y68364382D01*
X21502644Y68363445D01*
X21561127Y68212369D01*
X21567091Y68196962D01*
X21567093Y68196955D01*
X21610354Y68085210D01*
X21672797Y67923914D01*
X21672922Y67923591D01*
X21707942Y67832387D01*
X21708046Y67832114D01*
X21722701Y67793681D01*
X21813246Y67556224D01*
X21813254Y67556120D01*
X21813282Y67556130D01*
X21905038Y67314911D01*
X21905188Y67314467D01*
X21905307Y67313915D01*
X21919287Y67277454D01*
X21931992Y67244052D01*
X21932263Y67243564D01*
X21932449Y67243123D01*
X22011883Y67035943D01*
X22012269Y67034817D01*
X22012545Y67033570D01*
X22013800Y67030356D01*
X22013806Y67030338D01*
X22026222Y66998538D01*
X22026492Y66997842D01*
X22038906Y66965462D01*
X22039531Y66964339D01*
X22040000Y66963244D01*
X22115640Y66769500D01*
X22120892Y66756047D01*
X22121552Y66754172D01*
X22122001Y66752230D01*
X22123814Y66747714D01*
X22135659Y66718206D01*
X22136093Y66717111D01*
X22148252Y66685966D01*
X22149231Y66684234D01*
X22150032Y66682404D01*
X22232897Y66475988D01*
X22234915Y66469922D01*
X22235071Y66469977D01*
X22236683Y66465384D01*
X22237936Y66460675D01*
X22249707Y66433932D01*
X22251284Y66430185D01*
X22261009Y66405961D01*
X22263250Y66402083D01*
X22265212Y66398051D01*
X22265136Y66398014D01*
X22268028Y66392310D01*
X22333392Y66243821D01*
X22338018Y66231641D01*
X22338558Y66229961D01*
X22338561Y66229953D01*
X22340051Y66225322D01*
X22342240Y66220967D01*
X22342241Y66220964D01*
X22350566Y66204400D01*
X22353300Y66198596D01*
X22361489Y66179993D01*
X22363856Y66176192D01*
X22365417Y66173685D01*
X22371038Y66163668D01*
X22456248Y65994128D01*
X22461535Y65981996D01*
X22461695Y65981651D01*
X22463392Y65977091D01*
X22475766Y65955010D01*
X22478413Y65950027D01*
X22488406Y65930144D01*
X22490968Y65926463D01*
X22490973Y65926454D01*
X22491554Y65925619D01*
X22498051Y65915243D01*
X22588047Y65754646D01*
X22590412Y65750127D01*
X22591915Y65746325D01*
X22594379Y65742129D01*
X22594379Y65742128D01*
X22608751Y65717649D01*
X22610000Y65715473D01*
X22624736Y65689176D01*
X22627209Y65685942D01*
X22630005Y65681446D01*
X22727157Y65515969D01*
X22727264Y65515770D01*
X22727358Y65515534D01*
X22747276Y65481702D01*
X22765630Y65450440D01*
X22765788Y65450242D01*
X22765908Y65450054D01*
X22862931Y65285253D01*
X22863102Y65284936D01*
X22863257Y65284549D01*
X22883237Y65250764D01*
X22901439Y65219846D01*
X22901697Y65219523D01*
X22901890Y65219221D01*
X22999336Y65054442D01*
X22999566Y65054018D01*
X22999779Y65053488D01*
X23019564Y65020238D01*
X23037920Y64989198D01*
X23038279Y64988750D01*
X23038555Y64988321D01*
X23136507Y64823703D01*
X23136819Y64823132D01*
X23137095Y64822453D01*
X23157109Y64789081D01*
X23175239Y64758612D01*
X23175699Y64758043D01*
X23176045Y64757507D01*
X23274656Y64593080D01*
X23275036Y64592390D01*
X23275375Y64591566D01*
X23276662Y64589441D01*
X23295201Y64558820D01*
X23295474Y64558367D01*
X23313569Y64528195D01*
X23314130Y64527504D01*
X23314560Y64526845D01*
X23364020Y64445154D01*
X23413925Y64362728D01*
X23414388Y64361898D01*
X23414792Y64360928D01*
X23416299Y64358467D01*
X23416306Y64358454D01*
X23434707Y64328399D01*
X23435031Y64327867D01*
X23451589Y64300519D01*
X23451596Y64300508D01*
X23453076Y64298064D01*
X23453742Y64297252D01*
X23454251Y64296480D01*
X23485595Y64245286D01*
X23554506Y64132732D01*
X23555047Y64131772D01*
X23555517Y64130663D01*
X23575653Y64098191D01*
X23593939Y64068325D01*
X23594707Y64067397D01*
X23595314Y64066486D01*
X23601420Y64056640D01*
X23696546Y63903241D01*
X23697144Y63902196D01*
X23697663Y63900990D01*
X23717699Y63869123D01*
X23718113Y63868461D01*
X23733996Y63842849D01*
X23736321Y63839099D01*
X23737159Y63838099D01*
X23737833Y63837100D01*
X23810618Y63721337D01*
X23840213Y63674267D01*
X23840812Y63673234D01*
X23841330Y63672053D01*
X23861698Y63640093D01*
X23861894Y63639784D01*
X23880391Y63610365D01*
X23881225Y63609382D01*
X23881900Y63608395D01*
X23985236Y63446251D01*
X23985818Y63445261D01*
X23986325Y63444123D01*
X23988164Y63441275D01*
X24006763Y63412469D01*
X24007121Y63411911D01*
X24025807Y63382592D01*
X24026621Y63381644D01*
X24027285Y63380686D01*
X24131532Y63219235D01*
X24132105Y63218273D01*
X24132603Y63217172D01*
X24134400Y63214424D01*
X24134404Y63214417D01*
X24153364Y63185420D01*
X24153707Y63184893D01*
X24172495Y63155795D01*
X24173291Y63154879D01*
X24173934Y63153963D01*
X24279079Y62993159D01*
X24279633Y62992242D01*
X24280122Y62991176D01*
X24300993Y62959642D01*
X24301378Y62959056D01*
X24318673Y62932606D01*
X24320413Y62929945D01*
X24321188Y62929063D01*
X24321811Y62928186D01*
X24427824Y62768007D01*
X24428362Y62767127D01*
X24428839Y62766101D01*
X24430563Y62763527D01*
X24449897Y62734652D01*
X24450252Y62734119D01*
X24469515Y62705014D01*
X24470270Y62704165D01*
X24470884Y62703310D01*
X24577721Y62543757D01*
X24578242Y62542914D01*
X24578710Y62541924D01*
X24580388Y62539446D01*
X24580396Y62539433D01*
X24599898Y62510634D01*
X24600246Y62510118D01*
X24619762Y62480973D01*
X24620495Y62480157D01*
X24621088Y62479341D01*
X24728738Y62320367D01*
X24729238Y62319568D01*
X24729693Y62318615D01*
X24731336Y62316215D01*
X24731342Y62316205D01*
X24751124Y62287304D01*
X24751478Y62286785D01*
X24771108Y62257796D01*
X24771823Y62257009D01*
X24772387Y62256241D01*
X24880817Y62097829D01*
X24881299Y62097067D01*
X24881745Y62096144D01*
X24903600Y62064543D01*
X24903800Y62064251D01*
X24921934Y62037757D01*
X24921942Y62037746D01*
X24923511Y62035454D01*
X24924197Y62034705D01*
X24924748Y62033963D01*
X25033911Y61876119D01*
X25034393Y61875366D01*
X25034822Y61874489D01*
X25056878Y61842911D01*
X25076930Y61813917D01*
X25077592Y61813203D01*
X25078125Y61812491D01*
X25188006Y61655172D01*
X25188467Y61654458D01*
X25188884Y61653617D01*
X25211099Y61622110D01*
X25231320Y61593160D01*
X25231958Y61592477D01*
X25232466Y61591805D01*
X25343050Y61434971D01*
X25343484Y61434306D01*
X25343885Y61433503D01*
X25345340Y61431458D01*
X25366028Y61402380D01*
X25366337Y61401944D01*
X25385190Y61375206D01*
X25385200Y61375193D01*
X25386639Y61373152D01*
X25387256Y61372499D01*
X25387749Y61371852D01*
X25498967Y61215537D01*
X25499394Y61214888D01*
X25499784Y61214117D01*
X25501192Y61212154D01*
X25501198Y61212146D01*
X25522288Y61182758D01*
X25522586Y61182341D01*
X25541456Y61155820D01*
X25542845Y61153868D01*
X25543438Y61153245D01*
X25543900Y61152645D01*
X25605580Y61066698D01*
X25655760Y60996776D01*
X25656164Y60996167D01*
X25656540Y60995430D01*
X25679265Y60964023D01*
X25699894Y60935278D01*
X25700461Y60934687D01*
X25700902Y60934119D01*
X25813375Y60778676D01*
X25813752Y60778112D01*
X25814109Y60777420D01*
X25815395Y60775657D01*
X25815402Y60775646D01*
X25831936Y60752974D01*
X25836762Y60746356D01*
X25857747Y60717353D01*
X25858300Y60716782D01*
X25858713Y60716254D01*
X25971754Y60561238D01*
X25972103Y60560720D01*
X25972448Y60560054D01*
X25973695Y60558357D01*
X25973696Y60558355D01*
X25995175Y60529117D01*
X25995436Y60528760D01*
X26015118Y60501769D01*
X26015126Y60501758D01*
X26016359Y60500068D01*
X26016878Y60499536D01*
X26017287Y60499017D01*
X26130741Y60344577D01*
X26130934Y60344292D01*
X26131117Y60343941D01*
X26154494Y60312242D01*
X26175687Y60283393D01*
X26175962Y60283112D01*
X26176164Y60282857D01*
X26213048Y60232844D01*
X26251204Y60181105D01*
X26251235Y60181059D01*
X26251264Y60181004D01*
X26274209Y60149910D01*
X26296369Y60119862D01*
X26296411Y60119820D01*
X26296442Y60119780D01*
X26375762Y60012290D01*
X26431463Y59936807D01*
X26431480Y59936775D01*
X26454137Y59906081D01*
X26454144Y59906063D01*
X26454148Y59906066D01*
X26476642Y59875583D01*
X26476665Y59875559D01*
X26476678Y59875542D01*
X26635222Y59660757D01*
X26816373Y59415303D01*
X26995146Y59172920D01*
X27168513Y58937605D01*
X27174803Y58929067D01*
X27174860Y58928989D01*
X27354791Y58684375D01*
X27354864Y58684275D01*
X27533991Y58440251D01*
X27534081Y58440129D01*
X27637572Y58298787D01*
X27712838Y58195992D01*
X27794693Y58083862D01*
X27891229Y57951620D01*
X27891352Y57951451D01*
X28060432Y57719025D01*
X28063905Y57713999D01*
X28123300Y57623408D01*
X28131160Y57609588D01*
X28216160Y57435316D01*
X28222974Y57418303D01*
X28281546Y57234278D01*
X28285302Y57219395D01*
X28288821Y57200716D01*
X28324348Y57012174D01*
X28326019Y57000148D01*
X28348109Y56754930D01*
X28348216Y56753676D01*
X28351408Y56713786D01*
X28356288Y56693344D01*
X28377054Y56605478D01*
X28377341Y56604974D01*
X28377517Y56604413D01*
X28403233Y56496687D01*
X28404368Y56491932D01*
X28407410Y56472721D01*
X28409321Y56448824D01*
X28422874Y56413283D01*
X28423727Y56410832D01*
X28424310Y56408389D01*
X28425960Y56404216D01*
X28425962Y56404210D01*
X28436104Y56378564D01*
X28436606Y56377273D01*
X28461220Y56312726D01*
X28463140Y56310194D01*
X28464309Y56307238D01*
X28504328Y56255788D01*
X28506619Y56252842D01*
X28507542Y56251640D01*
X28528844Y56223548D01*
X28530659Y56221797D01*
X28532318Y56219802D01*
X28553736Y56192265D01*
X28561012Y56187012D01*
X28561014Y56187011D01*
X28576348Y56175942D01*
X28590091Y56164452D01*
X28691533Y56066571D01*
X28707822Y56047350D01*
X28713072Y56039725D01*
X28720715Y56033502D01*
X28749199Y56010309D01*
X28757121Y56003284D01*
X28763831Y55996810D01*
X28767477Y55994178D01*
X28778038Y55986553D01*
X28783823Y55982117D01*
X28799860Y55969059D01*
X28804057Y55966606D01*
X28804060Y55966604D01*
X28807274Y55964726D01*
X28817446Y55958103D01*
X28844740Y55938399D01*
X28844744Y55938397D01*
X28852023Y55933142D01*
X28860482Y55930142D01*
X28860488Y55930139D01*
X28864462Y55928730D01*
X28885920Y55918762D01*
X29215005Y55726436D01*
X29216440Y55725585D01*
X29590495Y55500282D01*
X29591788Y55499491D01*
X29914972Y55298997D01*
X29962518Y55269501D01*
X29963899Y55268631D01*
X30057455Y55208890D01*
X30331282Y55034034D01*
X30332557Y55033209D01*
X30697046Y54793775D01*
X30698172Y54793024D01*
X31038881Y54562914D01*
X31059200Y54549191D01*
X31060498Y54548302D01*
X31313291Y54372860D01*
X31418324Y54299965D01*
X31419618Y54299055D01*
X31774392Y54046175D01*
X31775642Y54045272D01*
X31793926Y54031894D01*
X32127280Y53787977D01*
X32128526Y53787054D01*
X32238050Y53704827D01*
X32477191Y53525286D01*
X32478298Y53524444D01*
X32823832Y53258392D01*
X32825021Y53257465D01*
X33141455Y53007698D01*
X33167604Y52987058D01*
X33168734Y52986154D01*
X33508258Y52711551D01*
X33509253Y52710738D01*
X33846193Y52431609D01*
X33847173Y52430787D01*
X34082667Y52231049D01*
X34180835Y52147786D01*
X34181931Y52146846D01*
X34513062Y51859405D01*
X34514008Y51858576D01*
X34660766Y51728589D01*
X34661724Y51727732D01*
X34881928Y51528647D01*
X34882953Y51527709D01*
X35100879Y51326271D01*
X35101772Y51325438D01*
X35318432Y51121243D01*
X35319192Y51120521D01*
X35534810Y50913892D01*
X35535321Y50913399D01*
X35750279Y50704508D01*
X35750489Y50704303D01*
X35778228Y50677041D01*
X35964642Y50493839D01*
X35965024Y50493463D01*
X36130750Y50329200D01*
X36179091Y50281286D01*
X36393299Y50067732D01*
X36607290Y49853728D01*
X36821375Y49639547D01*
X36939711Y49520415D01*
X36994213Y49465546D01*
X36994917Y49464832D01*
X37204871Y49249877D01*
X37251543Y49202093D01*
X37252388Y49201219D01*
X37506156Y48936343D01*
X37506945Y48935512D01*
X37758521Y48668097D01*
X37759166Y48667406D01*
X38008658Y48397609D01*
X38009216Y48397000D01*
X38210444Y48175863D01*
X38256646Y48125089D01*
X38257249Y48124422D01*
X38374528Y47993584D01*
X38503102Y47850143D01*
X38503684Y47849488D01*
X38747540Y47573601D01*
X38748073Y47572995D01*
X38771456Y47546197D01*
X38968737Y47320101D01*
X38990635Y47295004D01*
X38991010Y47294572D01*
X39076445Y47195488D01*
X39232165Y47014891D01*
X39232602Y47014382D01*
X39472999Y46732557D01*
X39473192Y46732330D01*
X39502900Y46697335D01*
X39504632Y46695250D01*
X39637001Y46532348D01*
X39645055Y46521254D01*
X39711643Y46418165D01*
X39742559Y46370301D01*
X39752274Y46352163D01*
X39817302Y46202556D01*
X39823708Y46183970D01*
X39862666Y46033804D01*
X39866296Y46012297D01*
X39878115Y45865817D01*
X39877860Y45842770D01*
X39860251Y45671850D01*
X39857825Y45657035D01*
X39833517Y45549284D01*
X39833318Y45548415D01*
X39778150Y45311681D01*
X39777626Y45309520D01*
X39750492Y45201729D01*
X39744501Y45183762D01*
X39677934Y45025017D01*
X39667490Y45005242D01*
X39625530Y44940468D01*
X39576373Y44864583D01*
X39565023Y44849634D01*
X39439298Y44707416D01*
X39429061Y44697101D01*
X39410331Y44680290D01*
X39267021Y44551665D01*
X39259252Y44545235D01*
X39171049Y44477989D01*
X39162618Y44472090D01*
X38968430Y44347712D01*
X38959824Y44342668D01*
X38747568Y44229329D01*
X38742082Y44226571D01*
X38506703Y44115364D01*
X38504614Y44114401D01*
X38406660Y44070380D01*
X38318438Y44030733D01*
X38316665Y44030074D01*
X38314720Y44029787D01*
X38246781Y43998533D01*
X38246061Y43998206D01*
X38219340Y43986198D01*
X38217956Y43985321D01*
X38216721Y43984706D01*
X38199292Y43976688D01*
X38182393Y43968914D01*
X38175620Y43963026D01*
X38175617Y43963024D01*
X38163670Y43952637D01*
X38148423Y43941282D01*
X38135521Y43933110D01*
X38127448Y43927997D01*
X38121516Y43921256D01*
X38121513Y43921254D01*
X38107343Y43905153D01*
X38095423Y43893305D01*
X38079242Y43879238D01*
X38079239Y43879235D01*
X38072469Y43873349D01*
X38067622Y43865798D01*
X38067621Y43865797D01*
X38059066Y43852469D01*
X38047618Y43837289D01*
X38031217Y43818654D01*
X38016397Y43786945D01*
X38014213Y43782597D01*
X38012010Y43779165D01*
X38010041Y43774711D01*
X38010038Y43774705D01*
X37999457Y43750766D01*
X37998372Y43748380D01*
X37969543Y43686699D01*
X37968860Y43682262D01*
X37967200Y43677794D01*
X37465527Y42542869D01*
X37454080Y42522379D01*
X37446320Y42511103D01*
X37443511Y42502577D01*
X37433134Y42471080D01*
X37428709Y42459577D01*
X37426679Y42454984D01*
X37425469Y42450677D01*
X37425464Y42450664D01*
X37420753Y42433899D01*
X37419124Y42428558D01*
X37400740Y42372760D01*
X37400438Y42363823D01*
X37400085Y42362278D01*
X37399802Y42360456D01*
X37399671Y42358880D01*
X37397251Y42350268D01*
X37397566Y42320380D01*
X37397870Y42291491D01*
X37397805Y42285925D01*
X37395820Y42227186D01*
X37398038Y42218522D01*
X37398133Y42216937D01*
X37398373Y42215111D01*
X37398690Y42213561D01*
X37398784Y42204619D01*
X37409189Y42170380D01*
X37415878Y42148367D01*
X37417382Y42142990D01*
X37429728Y42094779D01*
X37429729Y42094776D01*
X37431956Y42086081D01*
X37436516Y42078390D01*
X37437047Y42076909D01*
X37437798Y42075204D01*
X37438534Y42073813D01*
X37441134Y42065254D01*
X37447086Y42056160D01*
X37473330Y42016058D01*
X37476280Y42011324D01*
X37482769Y42000380D01*
X37506242Y41960792D01*
X37512778Y41954690D01*
X37513708Y41953410D01*
X37514899Y41951994D01*
X37515999Y41950862D01*
X37520897Y41943377D01*
X37527721Y41937550D01*
X37527723Y41937547D01*
X37565591Y41905209D01*
X37569755Y41901490D01*
X37606146Y41867513D01*
X37606149Y41867511D01*
X37612708Y41861387D01*
X37620694Y41857364D01*
X37621948Y41856395D01*
X37623487Y41855372D01*
X37624862Y41854593D01*
X37631662Y41848786D01*
X37639842Y41845110D01*
X37639844Y41845109D01*
X37685267Y41824698D01*
X37690307Y41822297D01*
X37708314Y41813226D01*
X37708322Y41813223D01*
X37712661Y41811037D01*
X37717286Y41809544D01*
X37718667Y41808978D01*
X37729659Y41804750D01*
X37764522Y41789084D01*
X37773415Y41787851D01*
X37773417Y41787850D01*
X37781963Y41786665D01*
X37803347Y41781771D01*
X37907806Y41748061D01*
X37929545Y41738710D01*
X38062534Y41666015D01*
X38087566Y41648037D01*
X38177683Y41564845D01*
X38197266Y41541836D01*
X38223949Y41501546D01*
X38278752Y41418795D01*
X38290088Y41397493D01*
X38358819Y41231772D01*
X38362034Y41223144D01*
X38426533Y41028548D01*
X38431272Y41014249D01*
X38431463Y41013593D01*
X38431595Y41012822D01*
X38443948Y40976004D01*
X38455095Y40942373D01*
X38455443Y40941674D01*
X38455670Y40941067D01*
X38521555Y40744701D01*
X38521703Y40744198D01*
X38521809Y40743588D01*
X38534308Y40706690D01*
X38545662Y40672850D01*
X38545937Y40672303D01*
X38546125Y40671806D01*
X38612516Y40475815D01*
X38612629Y40475434D01*
X38612708Y40474986D01*
X38613131Y40473745D01*
X38613137Y40473726D01*
X38625259Y40438194D01*
X38625347Y40437937D01*
X38636862Y40403944D01*
X38637068Y40403538D01*
X38637207Y40403172D01*
X38703970Y40207467D01*
X38704039Y40207238D01*
X38704090Y40206948D01*
X38716794Y40169877D01*
X38728493Y40135583D01*
X38728630Y40135314D01*
X38728709Y40135109D01*
X38788790Y39959785D01*
X38795693Y39939641D01*
X38795723Y39939540D01*
X38795748Y39939404D01*
X38808601Y39901975D01*
X38820346Y39867702D01*
X38820408Y39867580D01*
X38820445Y39867484D01*
X38900279Y39635002D01*
X38900360Y39634767D01*
X38900361Y39634751D01*
X38900364Y39634752D01*
X38991977Y39367860D01*
X38992014Y39367754D01*
X39059971Y39169207D01*
X39063209Y39158109D01*
X39064376Y39153299D01*
X39065234Y39144362D01*
X39068566Y39136024D01*
X39068567Y39136022D01*
X39086617Y39090860D01*
X39088826Y39084903D01*
X39090059Y39081302D01*
X39095207Y39066261D01*
X39097242Y39062274D01*
X39097244Y39062270D01*
X39098301Y39060199D01*
X39103079Y39049673D01*
X39106771Y39040437D01*
X39109249Y39036253D01*
X39109250Y39036251D01*
X39116490Y39024027D01*
X39120299Y39017109D01*
X39144664Y38969382D01*
X39150546Y38963150D01*
X39151891Y38961157D01*
X39169012Y38934618D01*
X39172968Y38928485D01*
X39175501Y38924387D01*
X39178791Y38918833D01*
X39187378Y38904333D01*
X39190187Y38900838D01*
X39192636Y38897302D01*
X39196865Y38891440D01*
X39218436Y38858001D01*
X39228627Y38849181D01*
X39230098Y38847908D01*
X39245852Y38831568D01*
X39255514Y38819545D01*
X39262873Y38814409D01*
X39262877Y38814405D01*
X39288147Y38796768D01*
X39298476Y38788730D01*
X39328574Y38762681D01*
X39342595Y38756269D01*
X39362311Y38745004D01*
X39374954Y38736179D01*
X39383457Y38733315D01*
X39383459Y38733314D01*
X39412675Y38723474D01*
X39424848Y38718655D01*
X39461038Y38702106D01*
X39469918Y38700814D01*
X39469920Y38700814D01*
X39476289Y38699888D01*
X39498370Y38694609D01*
X39504479Y38692551D01*
X39504488Y38692549D01*
X39512992Y38689685D01*
X39521961Y38689323D01*
X39521964Y38689322D01*
X39550447Y38688171D01*
X39552762Y38688078D01*
X39565809Y38686869D01*
X39596293Y38682435D01*
X39596296Y38682435D01*
X39605179Y38681143D01*
X39620445Y38683295D01*
X39643118Y38684426D01*
X39658531Y38683803D01*
X39697156Y38693423D01*
X39710003Y38695921D01*
X39716001Y38696767D01*
X39737821Y38703386D01*
X39743943Y38705076D01*
X39791159Y38716836D01*
X39791160Y38716836D01*
X39799871Y38719006D01*
X39807626Y38723535D01*
X39812194Y38725393D01*
X39823095Y38729254D01*
X39975411Y38775460D01*
X39975493Y38775485D01*
X40218239Y38848944D01*
X40219771Y38849397D01*
X40457835Y38918157D01*
X40460266Y38918833D01*
X40673194Y38975739D01*
X40674856Y38976171D01*
X40915918Y39037087D01*
X40916367Y39037200D01*
X41085305Y39079231D01*
X41106809Y39084581D01*
X41158838Y39086441D01*
X41274401Y39066323D01*
X41289762Y39062645D01*
X41362109Y39040437D01*
X41435672Y39017856D01*
X41457535Y39008822D01*
X41583482Y38942303D01*
X41610124Y38923450D01*
X41697284Y38842940D01*
X41718734Y38817007D01*
X41790724Y38701439D01*
X41798778Y38686304D01*
X41801478Y38680273D01*
X41805742Y38669432D01*
X41861423Y38506041D01*
X41867088Y38481780D01*
X41883341Y38357843D01*
X41883535Y38326628D01*
X41868083Y38196272D01*
X41865140Y38180319D01*
X41853033Y38132268D01*
X41852830Y38131472D01*
X41820593Y38006957D01*
X41786781Y37876360D01*
X41785049Y37869672D01*
X41784561Y37867846D01*
X41714841Y37614544D01*
X41714159Y37612067D01*
X41713395Y37609407D01*
X41699946Y37564474D01*
X41638652Y37359693D01*
X41637545Y37356184D01*
X41556909Y37112881D01*
X41555401Y37108590D01*
X41472010Y36884415D01*
X41467985Y36874827D01*
X41464374Y36867131D01*
X41464371Y36867122D01*
X41462306Y36862722D01*
X41460942Y36858053D01*
X41457598Y36846607D01*
X41454748Y36838011D01*
X41449972Y36825172D01*
X41446959Y36811301D01*
X41444768Y36802689D01*
X41444362Y36801301D01*
X41436242Y36780557D01*
X41432835Y36773707D01*
X41428836Y36765668D01*
X41427255Y36756834D01*
X41427252Y36756826D01*
X41421930Y36727095D01*
X41420408Y36720613D01*
X41420454Y36720603D01*
X41419504Y36716213D01*
X41418248Y36711914D01*
X41415494Y36692647D01*
X41414735Y36687339D01*
X41414031Y36682968D01*
X41403169Y36622289D01*
X41404096Y36613691D01*
X41404080Y36612800D01*
X41402856Y36604236D01*
X41404131Y36595349D01*
X41411613Y36543195D01*
X41412164Y36538804D01*
X41414636Y36515865D01*
X41414639Y36515848D01*
X41415160Y36511015D01*
X41416421Y36506312D01*
X41417314Y36501529D01*
X41417193Y36501506D01*
X41418534Y36494963D01*
X41423542Y36460055D01*
X41432056Y36441343D01*
X41439070Y36421788D01*
X41476532Y36281986D01*
X41481396Y36263836D01*
X41484670Y36247220D01*
X41488521Y36217102D01*
X41492113Y36208875D01*
X41492114Y36208872D01*
X41516708Y36152545D01*
X41517088Y36151665D01*
X41525439Y36132136D01*
X41544759Y36086952D01*
X41566538Y36060486D01*
X41575584Y36048009D01*
X41602269Y36006022D01*
X41608102Y35996844D01*
X41611839Y35990568D01*
X41708629Y35816783D01*
X41715528Y35802299D01*
X41739768Y35741742D01*
X41783735Y35631904D01*
X41784647Y35629625D01*
X41788336Y35619072D01*
X41810702Y35544656D01*
X41810865Y35544113D01*
X41811377Y35542362D01*
X41883404Y35289482D01*
X41884424Y35285677D01*
X41946062Y35040410D01*
X41947311Y35034927D01*
X41996127Y34796044D01*
X41997383Y34788835D01*
X42031027Y34555982D01*
X42031993Y34547059D01*
X42048460Y34319533D01*
X42048781Y34309025D01*
X42046227Y34082088D01*
X42046192Y34078990D01*
X42045743Y34069685D01*
X42029224Y33876505D01*
X42023329Y33807563D01*
X42022397Y33799634D01*
X42018174Y33771442D01*
X41996945Y33629703D01*
X41984031Y33543486D01*
X41982367Y33534582D01*
X41927688Y33290894D01*
X41925072Y33281101D01*
X41853221Y33049894D01*
X41849447Y33039409D01*
X41810136Y32943711D01*
X41767104Y32838954D01*
X41759380Y32820152D01*
X41754314Y32809315D01*
X41669181Y32647709D01*
X41644549Y32600950D01*
X41638146Y32590140D01*
X41605985Y32541542D01*
X41506596Y32391359D01*
X41498975Y32381030D01*
X41351831Y32201509D01*
X41334049Y32179815D01*
X41329239Y32174283D01*
X41306515Y32149635D01*
X41303260Y32146235D01*
X41146789Y31988874D01*
X41141127Y31983523D01*
X40985305Y31845117D01*
X40978350Y31839371D01*
X40883440Y31766520D01*
X40776743Y31684622D01*
X40770028Y31679468D01*
X40761680Y31673583D01*
X40701965Y31635012D01*
X40544463Y31533282D01*
X40535581Y31528047D01*
X40304331Y31404215D01*
X40296042Y31400161D01*
X40106122Y31315743D01*
X40098613Y31312690D01*
X39878892Y31231509D01*
X39760373Y31187788D01*
X39751926Y31185006D01*
X39728570Y31178221D01*
X39711588Y31173287D01*
X39711587Y31173286D01*
X39702970Y31170783D01*
X39695400Y31165961D01*
X39695399Y31165960D01*
X39660714Y31143863D01*
X39652942Y31139294D01*
X39608854Y31115457D01*
X39602472Y31109141D01*
X39595262Y31103797D01*
X39595204Y31103875D01*
X39594441Y31103266D01*
X39594505Y31103191D01*
X39587699Y31097347D01*
X39580123Y31092521D01*
X39547109Y31054809D01*
X39540946Y31048258D01*
X39505319Y31013004D01*
X39500966Y31005151D01*
X39495547Y30998000D01*
X39495469Y30998059D01*
X39494906Y30997258D01*
X39494988Y30997205D01*
X39490094Y30989682D01*
X39484180Y30982927D01*
X39472082Y30956864D01*
X39463086Y30937484D01*
X39459008Y30929462D01*
X39434700Y30885611D01*
X39432727Y30876856D01*
X39429531Y30868467D01*
X39429440Y30868502D01*
X39429123Y30867572D01*
X39429218Y30867543D01*
X39426633Y30858952D01*
X39422853Y30850809D01*
X39415361Y30801275D01*
X39413698Y30792432D01*
X39402674Y30743517D01*
X39403238Y30734555D01*
X39406125Y30688659D01*
X39406373Y30681297D01*
X39407141Y30505230D01*
X39407142Y30504903D01*
X39407141Y30503777D01*
X39405967Y30273744D01*
X39405877Y30256039D01*
X39405826Y30253049D01*
X39402068Y30123487D01*
X39400536Y30070682D01*
X39400438Y30068175D01*
X39386767Y29788911D01*
X39386578Y29785822D01*
X39379659Y29691828D01*
X39366250Y29509676D01*
X39366227Y29509368D01*
X39365956Y29506235D01*
X39345490Y29299775D01*
X39338706Y29231341D01*
X39338340Y29228082D01*
X39334922Y29200841D01*
X39308367Y28989228D01*
X39304061Y28954918D01*
X39303600Y28951596D01*
X39281147Y28804583D01*
X39262100Y28679868D01*
X39261533Y28676468D01*
X39212682Y28406349D01*
X39212006Y28402893D01*
X39164737Y28177667D01*
X39155640Y28134325D01*
X39154856Y28130835D01*
X39101770Y27909482D01*
X39090793Y27863710D01*
X39089889Y27860170D01*
X39063182Y27761517D01*
X39020192Y27602717D01*
X39017979Y27594544D01*
X39016966Y27591005D01*
X38938510Y27331706D01*
X38936697Y27326180D01*
X38865501Y27124937D01*
X38861302Y27113069D01*
X38858435Y27105706D01*
X38772939Y26905094D01*
X38769640Y26897978D01*
X38679160Y26717718D01*
X38672523Y26704495D01*
X38668847Y26697699D01*
X38639043Y26646433D01*
X38560201Y26510815D01*
X38556203Y26504391D01*
X38436182Y26323834D01*
X38431935Y26317832D01*
X38300593Y26143263D01*
X38296162Y26137707D01*
X38247282Y26079842D01*
X38154499Y25970005D01*
X38153604Y25968946D01*
X38149060Y25963854D01*
X37992535Y25797733D01*
X37989151Y25794279D01*
X37932358Y25738521D01*
X37868878Y25676199D01*
X37865899Y25673368D01*
X37673274Y25496220D01*
X37669368Y25492774D01*
X37473650Y25327175D01*
X37469368Y25323710D01*
X37268901Y25168606D01*
X37264258Y25165181D01*
X37242707Y25150039D01*
X37058837Y25020852D01*
X37053780Y25017478D01*
X36843155Y24884185D01*
X36837718Y24880933D01*
X36621615Y24758936D01*
X36615817Y24755859D01*
X36393865Y24645387D01*
X36387738Y24642540D01*
X36286588Y24598793D01*
X36172516Y24549457D01*
X36159510Y24543832D01*
X36153101Y24541266D01*
X36095804Y24520133D01*
X35918095Y24454589D01*
X35911450Y24452346D01*
X35714030Y24391779D01*
X35690761Y24387153D01*
X35689522Y24386854D01*
X35680586Y24386003D01*
X35636582Y24368458D01*
X35626879Y24365042D01*
X35617227Y24362081D01*
X35613178Y24360175D01*
X35613172Y24360173D01*
X35602058Y24354942D01*
X35595065Y24351906D01*
X35545286Y24332058D01*
X35538216Y24326527D01*
X35532453Y24323215D01*
X35526931Y24319580D01*
X35518811Y24315758D01*
X35512090Y24309811D01*
X35512089Y24309810D01*
X35478649Y24280219D01*
X35472789Y24275342D01*
X35437636Y24247840D01*
X35430565Y24242308D01*
X35425333Y24235016D01*
X35420746Y24230236D01*
X35416453Y24225181D01*
X35409730Y24219232D01*
X35381164Y24173861D01*
X35376910Y24167537D01*
X35345645Y24123966D01*
X35342670Y24115501D01*
X35339613Y24109631D01*
X35336907Y24103566D01*
X35332124Y24095970D01*
X35329667Y24087341D01*
X35329666Y24087339D01*
X35317439Y24044399D01*
X35315129Y24037132D01*
X35310156Y24022982D01*
X35310153Y24022970D01*
X35308539Y24018378D01*
X35306830Y24009168D01*
X35304131Y23997667D01*
X35292232Y23955881D01*
X35292296Y23946908D01*
X35292320Y23943477D01*
X35290208Y23919594D01*
X35275922Y23842609D01*
X35275882Y23842433D01*
X35275808Y23842221D01*
X35268745Y23803934D01*
X35262057Y23767893D01*
X35262048Y23767667D01*
X35262019Y23767474D01*
X35244558Y23672818D01*
X35223990Y23561327D01*
X35222760Y23555446D01*
X35198324Y23451139D01*
X35193028Y23434083D01*
X35128859Y23269606D01*
X35118393Y23248733D01*
X35034617Y23114381D01*
X35021067Y23096442D01*
X34907514Y22971134D01*
X34892728Y22957248D01*
X34738013Y22833814D01*
X34724196Y22822791D01*
X34717466Y22817780D01*
X34606363Y22740663D01*
X34604893Y22739716D01*
X34603279Y22738915D01*
X34599469Y22736221D01*
X34599448Y22736208D01*
X34573124Y22717598D01*
X34572302Y22717022D01*
X34544524Y22697741D01*
X34543202Y22696512D01*
X34541793Y22695448D01*
X34387047Y22586052D01*
X34386902Y22585958D01*
X34386709Y22585862D01*
X34354731Y22563207D01*
X34324987Y22542180D01*
X34324831Y22542033D01*
X34324689Y22541925D01*
X34247986Y22487584D01*
X34204895Y22457055D01*
X34200924Y22454242D01*
X34179078Y22441835D01*
X34170437Y22438011D01*
X34163575Y22432218D01*
X34134980Y22408079D01*
X34126544Y22401548D01*
X34122742Y22398855D01*
X34122735Y22398849D01*
X34119083Y22396262D01*
X34115828Y22393177D01*
X34106234Y22384084D01*
X34100837Y22379256D01*
X34074903Y22357363D01*
X34059136Y22344052D01*
X34054177Y22336568D01*
X34050280Y22332191D01*
X34046652Y22327611D01*
X34040137Y22321436D01*
X34035618Y22313683D01*
X34035617Y22313681D01*
X34012654Y22274280D01*
X34008828Y22268129D01*
X33983638Y22230112D01*
X33983636Y22230109D01*
X33978681Y22222630D01*
X33976023Y22214058D01*
X33973515Y22208772D01*
X33971314Y22203347D01*
X33966794Y22195591D01*
X33964633Y22186880D01*
X33953652Y22142623D01*
X33951706Y22135646D01*
X33938198Y22092087D01*
X33935538Y22083508D01*
X33935392Y22074529D01*
X33934468Y22068744D01*
X33933879Y22062929D01*
X33931718Y22054220D01*
X33932088Y22045256D01*
X33932088Y22045254D01*
X33933971Y21999668D01*
X33934061Y21992428D01*
X33933411Y21952285D01*
X33933177Y21937870D01*
X33935555Y21929220D01*
X33936291Y21923408D01*
X33937359Y21917653D01*
X33937730Y21908686D01*
X33940602Y21900185D01*
X33940602Y21900184D01*
X33955204Y21856960D01*
X33957324Y21850032D01*
X33969358Y21806256D01*
X33971786Y21797423D01*
X33976499Y21789783D01*
X33978836Y21784414D01*
X33981473Y21779197D01*
X33984347Y21770690D01*
X34015634Y21725951D01*
X34019601Y21719914D01*
X34027987Y21706320D01*
X34027991Y21706315D01*
X34030547Y21702171D01*
X34033710Y21698470D01*
X34033713Y21698466D01*
X34036009Y21695780D01*
X34043484Y21686124D01*
X34062674Y21658683D01*
X34062677Y21658680D01*
X34067821Y21651324D01*
X34074825Y21645706D01*
X34078252Y21642957D01*
X34095193Y21626537D01*
X34099317Y21621712D01*
X34099910Y21621191D01*
X34100391Y21620669D01*
X34219068Y21482866D01*
X34219876Y21481858D01*
X34220612Y21480693D01*
X34223044Y21477907D01*
X34245235Y21452480D01*
X34245779Y21451853D01*
X34268294Y21425710D01*
X34269338Y21424798D01*
X34270233Y21423837D01*
X34310015Y21378255D01*
X34316487Y21370195D01*
X34457700Y21178739D01*
X34465328Y21167101D01*
X34579299Y20970337D01*
X34584941Y20959398D01*
X34682338Y20745497D01*
X34686236Y20735912D01*
X34734333Y20602135D01*
X34769766Y20503580D01*
X34772297Y20495743D01*
X34844336Y20244998D01*
X34845882Y20239080D01*
X34908454Y19973291D01*
X34909511Y19968359D01*
X34919389Y19917321D01*
X34920948Y19906990D01*
X34937717Y19752653D01*
X34942770Y19706141D01*
X34943503Y19691534D01*
X34942923Y19618298D01*
X34941996Y19501391D01*
X34941278Y19488925D01*
X34919870Y19289861D01*
X34918434Y19280114D01*
X34884196Y19097510D01*
X34878777Y19068611D01*
X34877298Y19061777D01*
X34838720Y18904828D01*
X34821762Y18835835D01*
X34820713Y18831849D01*
X34775954Y18672444D01*
X34774678Y18668189D01*
X34688320Y18397661D01*
X34686341Y18391942D01*
X34589494Y18132307D01*
X34587025Y18126182D01*
X34477971Y17874891D01*
X34474952Y17868441D01*
X34352800Y17625553D01*
X34349191Y17618885D01*
X34211854Y17382412D01*
X34208090Y17376334D01*
X34099694Y17211930D01*
X34091255Y17200574D01*
X33977457Y17064159D01*
X33965675Y17051835D01*
X33827442Y16925585D01*
X33820747Y16919886D01*
X33640917Y16777318D01*
X33640701Y16777148D01*
X33443609Y16621595D01*
X33443401Y16621431D01*
X33403447Y16590081D01*
X33392703Y16582523D01*
X33228618Y16479436D01*
X33211294Y16470345D01*
X33043755Y16398420D01*
X33027902Y16392835D01*
X32844065Y16341559D01*
X32837333Y16339879D01*
X32796991Y16330992D01*
X32795820Y16330777D01*
X32794516Y16330688D01*
X32791086Y16329910D01*
X32757893Y16322381D01*
X32757128Y16322210D01*
X32726717Y16315511D01*
X32726708Y16315509D01*
X32723305Y16314759D01*
X32722081Y16314300D01*
X32720891Y16313989D01*
X32508072Y16265717D01*
X32507326Y16265577D01*
X32506450Y16265513D01*
X32469021Y16256860D01*
X32468823Y16256815D01*
X32436675Y16249524D01*
X32436659Y16249520D01*
X32434297Y16248984D01*
X32433484Y16248673D01*
X32432710Y16248467D01*
X32183153Y16190776D01*
X32182848Y16190705D01*
X31900271Y16126121D01*
X31899149Y16125870D01*
X31837292Y16112325D01*
X31620483Y16064850D01*
X31618659Y16064466D01*
X31343294Y16008701D01*
X31340501Y16008169D01*
X31308131Y16002375D01*
X31243383Y15990787D01*
X31239149Y15990103D01*
X31118831Y15972772D01*
X31009481Y15957021D01*
X31005432Y15956505D01*
X30931380Y15948285D01*
X30803688Y15934111D01*
X30787870Y15933357D01*
X30779509Y15933484D01*
X30754680Y15933862D01*
X30689477Y15915869D01*
X30687503Y15915342D01*
X30622047Y15898433D01*
X30618382Y15896249D01*
X30614271Y15895115D01*
X30584644Y15876798D01*
X30556745Y15859549D01*
X30554981Y15858478D01*
X30496913Y15823884D01*
X30494009Y15820761D01*
X30490380Y15818517D01*
X30445153Y15768240D01*
X30443822Y15766785D01*
X30397731Y15717212D01*
X30395819Y15713396D01*
X30392967Y15710226D01*
X30389117Y15702217D01*
X30389116Y15702215D01*
X30363690Y15649319D01*
X30362775Y15647456D01*
X30336462Y15594947D01*
X30336459Y15594939D01*
X30332475Y15586989D01*
X30331711Y15582790D01*
X30329864Y15578948D01*
X30321709Y15529542D01*
X30318850Y15512223D01*
X30318507Y15510249D01*
X30306392Y15443686D01*
X30306837Y15439443D01*
X30306142Y15435234D01*
X30310085Y15402781D01*
X30314298Y15368104D01*
X30314531Y15366042D01*
X30319521Y15318441D01*
X30321577Y15298822D01*
X30324980Y15290518D01*
X30335652Y15264476D01*
X30340315Y15250956D01*
X33689793Y3396143D01*
X33690732Y3392628D01*
X33702164Y3347191D01*
X33704904Y3332819D01*
X33710688Y3288679D01*
X33725290Y3177256D01*
X33728746Y3150880D01*
X33729699Y3129120D01*
X33722724Y2966164D01*
X33719947Y2944713D01*
X33685275Y2785675D01*
X33678860Y2764987D01*
X33622629Y2626922D01*
X33617207Y2613610D01*
X33607237Y2594159D01*
X33547819Y2499489D01*
X33509061Y2437737D01*
X33500582Y2425823D01*
X33488580Y2410878D01*
X33478768Y2400018D01*
X33348040Y2271220D01*
X33331255Y2257328D01*
X33197093Y2164593D01*
X33178308Y2153867D01*
X33030539Y2085583D01*
X33010171Y2078222D01*
X32897576Y2048177D01*
X32852178Y2036063D01*
X32830663Y2032281D01*
X32637364Y2015387D01*
X32626394Y2014909D01*
X4052423Y2014909D01*
X4048643Y2014966D01*
X4043833Y2015110D01*
X4000592Y2016408D01*
X3985645Y2017751D01*
X3860409Y2036585D01*
X3799297Y2045775D01*
X3777578Y2051046D01*
X3619055Y2104791D01*
X3598755Y2113735D01*
X3452414Y2194291D01*
X3433973Y2206679D01*
X3303471Y2312167D01*
X3287349Y2327766D01*
X3248709Y2372475D01*
X3163280Y2471320D01*
X3154140Y2483270D01*
X3143199Y2499497D01*
X3135560Y2512429D01*
X3123208Y2536513D01*
X3049610Y2680013D01*
X3041218Y2700715D01*
X2992352Y2860795D01*
X2987769Y2882498D01*
X2967772Y3048365D01*
X2967068Y3070572D01*
X2972948Y3174380D01*
X9987729Y3174380D01*
X26821396Y3174380D01*
X26821396Y6026380D01*
X9987729Y6026380D01*
X9987729Y3174380D01*
X2972948Y3174380D01*
X2976557Y3238084D01*
X2979815Y3260284D01*
X3026174Y3453997D01*
X3029289Y3464841D01*
X5733934Y11505711D01*
X15136563Y11505711D01*
X15136933Y11498890D01*
X15142457Y11448028D01*
X15146083Y11432776D01*
X15191238Y11312326D01*
X15199776Y11296731D01*
X15276277Y11194656D01*
X15288838Y11182095D01*
X15390913Y11105594D01*
X15406508Y11097056D01*
X15526956Y11051902D01*
X15542211Y11048275D01*
X15593076Y11042749D01*
X15599890Y11042380D01*
X15872447Y11042380D01*
X15887686Y11046855D01*
X15888891Y11048245D01*
X15890562Y11055928D01*
X15890562Y11060496D01*
X16398562Y11060496D01*
X16403037Y11045257D01*
X16404427Y11044052D01*
X16412110Y11042381D01*
X16689231Y11042381D01*
X16696052Y11042751D01*
X16746914Y11048275D01*
X16762166Y11051901D01*
X16882616Y11097056D01*
X16898211Y11105594D01*
X17000286Y11182095D01*
X17012847Y11194656D01*
X17089348Y11296731D01*
X17097886Y11312326D01*
X17143040Y11432774D01*
X17146667Y11448029D01*
X17152193Y11498894D01*
X17152375Y11502246D01*
X17676062Y11502246D01*
X17682817Y11440064D01*
X17733947Y11303675D01*
X17821301Y11187119D01*
X17937857Y11099765D01*
X18074246Y11048635D01*
X18136428Y11041880D01*
X19232696Y11041880D01*
X19294878Y11048635D01*
X19431267Y11099765D01*
X19547823Y11187119D01*
X19635177Y11303675D01*
X19686307Y11440064D01*
X19693062Y11502246D01*
X20216062Y11502246D01*
X20222817Y11440064D01*
X20273947Y11303675D01*
X20361301Y11187119D01*
X20477857Y11099765D01*
X20614246Y11048635D01*
X20676428Y11041880D01*
X21772696Y11041880D01*
X21834878Y11048635D01*
X21971267Y11099765D01*
X22087823Y11187119D01*
X22175177Y11303675D01*
X22226307Y11440064D01*
X22233062Y11502246D01*
X22233062Y14748514D01*
X22226307Y14810696D01*
X22175177Y14947085D01*
X22087823Y15063641D01*
X21971267Y15150995D01*
X21834878Y15202125D01*
X21772696Y15208880D01*
X20676428Y15208880D01*
X20614246Y15202125D01*
X20477857Y15150995D01*
X20361301Y15063641D01*
X20273947Y14947085D01*
X20222817Y14810696D01*
X20216062Y14748514D01*
X20216062Y11502246D01*
X19693062Y11502246D01*
X19693062Y14748514D01*
X19686307Y14810696D01*
X19635177Y14947085D01*
X19547823Y15063641D01*
X19431267Y15150995D01*
X19294878Y15202125D01*
X19232696Y15208880D01*
X18136428Y15208880D01*
X18074246Y15202125D01*
X17937857Y15150995D01*
X17821301Y15063641D01*
X17733947Y14947085D01*
X17682817Y14810696D01*
X17676062Y14748514D01*
X17676062Y11502246D01*
X17152375Y11502246D01*
X17152562Y11505708D01*
X17152562Y12853265D01*
X17148087Y12868504D01*
X17146697Y12869709D01*
X17139014Y12871380D01*
X16416677Y12871380D01*
X16401438Y12866905D01*
X16400233Y12865515D01*
X16398562Y12857832D01*
X16398562Y11060496D01*
X15890562Y11060496D01*
X15890562Y12853265D01*
X15886087Y12868504D01*
X15884697Y12869709D01*
X15877014Y12871380D01*
X15154678Y12871380D01*
X15139439Y12866905D01*
X15138234Y12865515D01*
X15136563Y12857832D01*
X15136563Y11505711D01*
X5733934Y11505711D01*
X6370259Y13397495D01*
X15136562Y13397495D01*
X15141037Y13382256D01*
X15142427Y13381051D01*
X15150110Y13379380D01*
X15872447Y13379380D01*
X15887686Y13383855D01*
X15888891Y13385245D01*
X15890562Y13392928D01*
X15890562Y13397495D01*
X16398562Y13397495D01*
X16403037Y13382256D01*
X16404427Y13381051D01*
X16412110Y13379380D01*
X17134446Y13379380D01*
X17149685Y13383855D01*
X17150890Y13385245D01*
X17152561Y13392928D01*
X17152561Y14745049D01*
X17152191Y14751870D01*
X17146667Y14802732D01*
X17143041Y14817984D01*
X17097886Y14938434D01*
X17089348Y14954029D01*
X17012847Y15056104D01*
X17000286Y15068665D01*
X16898211Y15145166D01*
X16882616Y15153704D01*
X16762168Y15198858D01*
X16746913Y15202485D01*
X16696048Y15208011D01*
X16689234Y15208380D01*
X16416677Y15208380D01*
X16401438Y15203905D01*
X16400233Y15202515D01*
X16398562Y15194832D01*
X16398562Y13397495D01*
X15890562Y13397495D01*
X15890562Y15190264D01*
X15886087Y15205503D01*
X15884697Y15206708D01*
X15877014Y15208379D01*
X15599893Y15208379D01*
X15593072Y15208009D01*
X15542210Y15202485D01*
X15526958Y15198859D01*
X15406508Y15153704D01*
X15390913Y15145166D01*
X15288838Y15068665D01*
X15276277Y15056104D01*
X15199776Y14954029D01*
X15191238Y14938434D01*
X15146084Y14817986D01*
X15142457Y14802731D01*
X15136931Y14751866D01*
X15136562Y14745052D01*
X15136562Y13397495D01*
X6370259Y13397495D01*
X6904193Y14984874D01*
X6904881Y14986865D01*
X6925300Y15044371D01*
X6928304Y15052831D01*
X6929307Y15070488D01*
X6930172Y15085723D01*
X6932055Y15101412D01*
X6936403Y15125008D01*
X6936403Y15125011D01*
X6938029Y15133834D01*
X6935753Y15156013D01*
X6935298Y15176017D01*
X6936052Y15189290D01*
X6936561Y15198255D01*
X6929119Y15230360D01*
X6926524Y15245944D01*
X6924075Y15269805D01*
X6923159Y15278731D01*
X6914753Y15299371D01*
X6908702Y15318441D01*
X6905697Y15331404D01*
X6903670Y15340150D01*
X6887515Y15368878D01*
X6880652Y15383105D01*
X6871609Y15405312D01*
X6871607Y15405315D01*
X6868221Y15413630D01*
X6854361Y15431079D01*
X6843197Y15447690D01*
X6836677Y15459285D01*
X6836675Y15459287D01*
X6832276Y15467111D01*
X6808717Y15490141D01*
X6798130Y15501876D01*
X6777629Y15527688D01*
X6759419Y15540553D01*
X6744051Y15553356D01*
X6734539Y15562654D01*
X6728118Y15568931D01*
X6699026Y15584432D01*
X6685594Y15592710D01*
X6658665Y15611735D01*
X6637577Y15618972D01*
X6619234Y15626946D01*
X6607491Y15633203D01*
X6599569Y15637424D01*
X6590782Y15639252D01*
X6590781Y15639252D01*
X6567305Y15644135D01*
X6552072Y15648315D01*
X6520894Y15659015D01*
X6511924Y15659429D01*
X6511923Y15659429D01*
X6440678Y15662715D01*
X6440110Y15662742D01*
X6196835Y15675064D01*
X6193993Y15675241D01*
X6021864Y15687865D01*
X5947335Y15693331D01*
X5944659Y15693556D01*
X5853420Y15702215D01*
X5737920Y15713176D01*
X5735576Y15713420D01*
X5563009Y15733060D01*
X5421363Y15749181D01*
X5418367Y15749559D01*
X5263559Y15770991D01*
X5108451Y15792465D01*
X5105180Y15792962D01*
X4798560Y15843648D01*
X4795057Y15844278D01*
X4647438Y15872986D01*
X4491756Y15903262D01*
X4488089Y15904034D01*
X4188214Y15971820D01*
X4184315Y15972767D01*
X3888008Y16049840D01*
X3883899Y16050983D01*
X3723332Y16098635D01*
X3591123Y16137871D01*
X3586824Y16139231D01*
X3297628Y16236442D01*
X3293187Y16238028D01*
X3243472Y16256838D01*
X3007527Y16346110D01*
X3003021Y16347915D01*
X2722168Y16466874D01*
X2717052Y16469177D01*
X2616808Y16517031D01*
X2608282Y16521509D01*
X2500860Y16583276D01*
X2436829Y16620094D01*
X2424809Y16627950D01*
X2281830Y16733511D01*
X2269147Y16744236D01*
X2197241Y16813674D01*
X2147600Y16861610D01*
X2135413Y16875221D01*
X2098799Y16922620D01*
X2016535Y17029115D01*
X2011283Y17036442D01*
X1959493Y17114444D01*
X1958925Y17115370D01*
X1958421Y17116447D01*
X1956608Y17119145D01*
X1937340Y17147813D01*
X1936944Y17148404D01*
X1919488Y17174695D01*
X1917720Y17177358D01*
X1916932Y17178241D01*
X1916288Y17179135D01*
X1822195Y17319130D01*
X1802330Y17348686D01*
X1802196Y17348904D01*
X1802065Y17349182D01*
X1780320Y17381434D01*
X1779663Y17382412D01*
X1760473Y17410964D01*
X1760465Y17410974D01*
X1759965Y17411719D01*
X1759761Y17411946D01*
X1759596Y17412173D01*
X1624600Y17612395D01*
X1624223Y17612957D01*
X1499750Y17799730D01*
X1489517Y17818301D01*
X1454825Y17896119D01*
X1448268Y17914561D01*
X1440480Y17943387D01*
X1440455Y17943497D01*
X1440441Y17943619D01*
X1430045Y17982009D01*
X1430051Y17982011D01*
X1430025Y17982083D01*
X1420739Y18016457D01*
X1420737Y18016462D01*
X1420641Y18016819D01*
X1420592Y18016934D01*
X1420564Y18017023D01*
X1352466Y18268503D01*
X1352455Y18268543D01*
X1275001Y18554950D01*
X1274942Y18555169D01*
X1258393Y18616806D01*
X1200653Y18831849D01*
X1198350Y18840427D01*
X1198244Y18840825D01*
X1122772Y19125629D01*
X1122620Y19126208D01*
X1048754Y19410392D01*
X1048559Y19411152D01*
X979869Y19682346D01*
X978517Y19688283D01*
X966039Y19749922D01*
X965485Y19752662D01*
X963310Y19768552D01*
X950363Y19947335D01*
X950295Y19964537D01*
X961929Y20145116D01*
X962692Y20156962D01*
X964152Y20169611D01*
X1000320Y20386211D01*
X1003122Y20398915D01*
X1020090Y20460525D01*
X1057981Y20598107D01*
X1062353Y20611152D01*
X1113835Y20740780D01*
X1134864Y20793731D01*
X1140847Y20806623D01*
X1231099Y20975447D01*
X1238546Y20987656D01*
X1347608Y21145543D01*
X1356193Y21156603D01*
X1485845Y21305722D01*
X1495138Y21315330D01*
X1611849Y21423837D01*
X1647517Y21456997D01*
X1657061Y21465026D01*
X1844959Y21607840D01*
X1849868Y21611389D01*
X1950535Y21680530D01*
X1950834Y21680734D01*
X2168103Y21829043D01*
X2168158Y21829081D01*
X2322646Y21934415D01*
X2332247Y21940350D01*
X2338117Y21943624D01*
X2346500Y21946843D01*
X2353638Y21952282D01*
X2353644Y21952285D01*
X2391766Y21981331D01*
X2397146Y21985211D01*
X2409151Y21993396D01*
X2409153Y21993398D01*
X2412854Y21995921D01*
X2416165Y21998948D01*
X2416170Y21998952D01*
X2418394Y22000985D01*
X2427051Y22008216D01*
X2432483Y22012355D01*
X2462360Y22035119D01*
X2467683Y22042340D01*
X2467685Y22042342D01*
X2468763Y22043805D01*
X2485163Y22062033D01*
X2493130Y22069318D01*
X2497787Y22076988D01*
X2497790Y22076992D01*
X2516173Y22107270D01*
X2522451Y22116637D01*
X2543460Y22145140D01*
X2543461Y22145142D01*
X2548786Y22152366D01*
X2552494Y22162500D01*
X2563121Y22184603D01*
X2564064Y22186156D01*
X2568721Y22193826D01*
X2572716Y22208772D01*
X2580186Y22236725D01*
X2583580Y22247469D01*
X2598831Y22289156D01*
X2599546Y22299928D01*
X2603541Y22324112D01*
X2604012Y22325874D01*
X2606329Y22334544D01*
X2605293Y22378928D01*
X2605535Y22390209D01*
X2607879Y22425541D01*
X2608473Y22434494D01*
X2606530Y22443253D01*
X2606530Y22443257D01*
X2606136Y22445033D01*
X2603182Y22469370D01*
X2603140Y22471186D01*
X2603139Y22471190D01*
X2602930Y22480163D01*
X2589476Y22522479D01*
X2586543Y22533373D01*
X2584646Y22541925D01*
X2576935Y22576696D01*
X2571734Y22586155D01*
X2562071Y22608677D01*
X2558797Y22618974D01*
X2534004Y22655818D01*
X2528142Y22665435D01*
X2525358Y22670498D01*
X2525354Y22670504D01*
X2523010Y22674767D01*
X2511781Y22689319D01*
X2506997Y22695952D01*
X2492432Y22717598D01*
X2477479Y22739819D01*
X2470579Y22745560D01*
X2464560Y22752224D01*
X2464826Y22752464D01*
X2455957Y22761666D01*
X2448513Y22771314D01*
X2445082Y22776369D01*
X2444920Y22776255D01*
X2442129Y22780237D01*
X2439648Y22784430D01*
X2433640Y22791729D01*
X2420821Y22807303D01*
X2418348Y22810405D01*
X2408791Y22822791D01*
X2402141Y22831410D01*
X2398922Y22834540D01*
X2395944Y22837879D01*
X2396031Y22837956D01*
X2391883Y22842460D01*
X2378819Y22858332D01*
X2272554Y22987435D01*
X2266252Y22995773D01*
X2261484Y23002659D01*
X2261483Y23002660D01*
X2258714Y23006659D01*
X2247040Y23018939D01*
X2241079Y23025676D01*
X2235146Y23032884D01*
X2235136Y23032895D01*
X2232290Y23036352D01*
X2221919Y23045819D01*
X2215554Y23052057D01*
X2196436Y23072166D01*
X2170757Y23099178D01*
X2166207Y23104231D01*
X2025996Y23268740D01*
X2019577Y23276935D01*
X1901947Y23440659D01*
X1895854Y23449984D01*
X1868635Y23495960D01*
X1795736Y23619091D01*
X1790251Y23629422D01*
X1707103Y23805273D01*
X1702482Y23816390D01*
X1635962Y24000852D01*
X1632401Y24012451D01*
X1578223Y24224841D01*
X1575912Y24235977D01*
X1575693Y24237338D01*
X1575294Y24242183D01*
X1567945Y24272650D01*
X1567218Y24275846D01*
X1562246Y24299100D01*
X1562245Y24299102D01*
X1561310Y24303477D01*
X1559762Y24307679D01*
X1558949Y24310489D01*
X1557494Y24315975D01*
X1508248Y24520133D01*
X1507326Y24524256D01*
X1466543Y24722224D01*
X1464219Y24739451D01*
X1452674Y24916562D01*
X1452577Y24931310D01*
X1457528Y25026389D01*
X1458077Y25033276D01*
X1460552Y25056343D01*
X1481728Y25253763D01*
X1483518Y25265344D01*
X1522975Y25460091D01*
X1526897Y25474810D01*
X1585183Y25650187D01*
X1591476Y25665626D01*
X1614277Y25712434D01*
X1670474Y25827803D01*
X1678420Y25841772D01*
X1777417Y25992560D01*
X1787269Y26005630D01*
X1905287Y26142674D01*
X1916834Y26154431D01*
X2076394Y26296914D01*
X2080088Y26300086D01*
X2106995Y26322304D01*
X2117918Y26330374D01*
X2122275Y26333243D01*
X2140677Y26349940D01*
X2145089Y26353758D01*
X2158392Y26364743D01*
X2158395Y26364746D01*
X2161849Y26367598D01*
X2164866Y26370913D01*
X2165890Y26372038D01*
X2174403Y26380540D01*
X2304250Y26498354D01*
X2319002Y26509862D01*
X2333049Y26519230D01*
X2333053Y26519233D01*
X2340518Y26524212D01*
X2346286Y26531087D01*
X2346289Y26531089D01*
X2364691Y26553020D01*
X2365513Y26553937D01*
X2366492Y26554826D01*
X2368733Y26557531D01*
X2368752Y26557553D01*
X2388185Y26581017D01*
X2388701Y26581636D01*
X2414936Y26612903D01*
X2434143Y26635794D01*
X2434811Y26637316D01*
X2435873Y26638598D01*
X2439251Y26646430D01*
X2439253Y26646433D01*
X2463903Y26703581D01*
X2464225Y26704323D01*
X2470105Y26717718D01*
X2492689Y26769167D01*
X2492904Y26770820D01*
X2493561Y26772344D01*
X2499919Y26823885D01*
X2502218Y26842525D01*
X2502319Y26843326D01*
X2504345Y26858929D01*
X2511446Y26913612D01*
X2511189Y26915253D01*
X2511393Y26916906D01*
X2499985Y26986818D01*
X2499861Y26987591D01*
X2490231Y27049082D01*
X2490231Y27049083D01*
X2488910Y27057516D01*
X2488203Y27059018D01*
X2487935Y27060662D01*
X2457363Y27124563D01*
X2457018Y27125290D01*
X2441405Y27158467D01*
X2426891Y27189310D01*
X2425789Y27190556D01*
X2425071Y27192056D01*
X2419399Y27198385D01*
X2377728Y27244881D01*
X2377192Y27245483D01*
X2345308Y27281521D01*
X2330374Y27298400D01*
X2328968Y27299285D01*
X2327857Y27300525D01*
X2267710Y27337864D01*
X2267030Y27338290D01*
X2238724Y27356115D01*
X2238710Y27356123D01*
X2235669Y27358038D01*
X2234439Y27358569D01*
X2233388Y27359171D01*
X2204106Y27377349D01*
X2195462Y27379752D01*
X2195456Y27379754D01*
X2175857Y27385201D01*
X2160049Y27390751D01*
X2142600Y27398215D01*
X2109789Y27412379D01*
X2109112Y27412563D01*
X2108528Y27412790D01*
X1899767Y27502089D01*
X1898319Y27502719D01*
X1672420Y27602717D01*
X1666383Y27605583D01*
X1476615Y27701926D01*
X1468299Y27706551D01*
X1297298Y27810295D01*
X1288528Y27816130D01*
X1151176Y27916054D01*
X1091823Y27959233D01*
X1082907Y27966360D01*
X1049459Y27995672D01*
X899374Y28127197D01*
X891979Y28134229D01*
X751334Y28279315D01*
X745297Y28286007D01*
X627851Y28425954D01*
X607336Y28450399D01*
X603341Y28455414D01*
X590903Y28471870D01*
X499227Y28593160D01*
X498901Y28593625D01*
X498583Y28594214D01*
X475003Y28625209D01*
X453543Y28653601D01*
X453072Y28654068D01*
X452708Y28654514D01*
X433419Y28679868D01*
X341720Y28800402D01*
X341155Y28801204D01*
X340622Y28802177D01*
X332244Y28813071D01*
X317482Y28832267D01*
X317083Y28832788D01*
X297804Y28858129D01*
X297798Y28858136D01*
X295983Y28860522D01*
X295197Y28861296D01*
X294549Y28862084D01*
X260224Y28906717D01*
X256030Y28912502D01*
X126820Y29101829D01*
X121500Y29110332D01*
X87083Y29170548D01*
X12324Y29301350D01*
X7861Y29309903D01*
X5838Y29314171D01*
X-86830Y29509682D01*
X-90443Y29518080D01*
X-113020Y29576293D01*
X-133121Y29628120D01*
X-171522Y29727131D01*
X-174343Y29735207D01*
X-221129Y29885345D01*
X-242477Y29953853D01*
X-244589Y29961463D01*
X-257239Y30013303D01*
X-302138Y30197288D01*
X-303054Y30201334D01*
X-337176Y30364325D01*
X-337374Y30365287D01*
X-349992Y30427995D01*
X-365358Y30504354D01*
X-389513Y30624393D01*
X-389695Y30625315D01*
X-419754Y30780675D01*
X-438787Y30879049D01*
X-439248Y30881572D01*
X-449296Y30939947D01*
X-449296Y30939948D01*
X-450819Y30948794D01*
X-454765Y30956860D01*
X-454766Y30956864D01*
X-465847Y30979518D01*
X-471726Y30993653D01*
X-479981Y31017493D01*
X-479984Y31017498D01*
X-482920Y31025978D01*
X-503416Y31054819D01*
X-526382Y31087134D01*
X-526994Y31088004D01*
X-628308Y31233145D01*
X-628757Y31233893D01*
X-629041Y31234726D01*
X-676778Y31302580D01*
X-690806Y31322677D01*
X-691206Y31323105D01*
X-691370Y31323322D01*
X-697591Y31332165D01*
X143531Y31332165D01*
X143662Y31330332D01*
X147912Y31323719D01*
X164108Y31307523D01*
X168932Y31303174D01*
X242865Y31243140D01*
X254390Y31235709D01*
X398477Y31163713D01*
X412159Y31158759D01*
X568538Y31121937D01*
X582980Y31120266D01*
X743639Y31120407D01*
X758078Y31122103D01*
X914396Y31159199D01*
X928057Y31164171D01*
X1072039Y31236430D01*
X1083526Y31243861D01*
X1156407Y31303195D01*
X1161178Y31307502D01*
X1324421Y31470745D01*
X1332035Y31484689D01*
X1331904Y31486522D01*
X1327653Y31493137D01*
X825725Y31995065D01*
X811781Y32002679D01*
X809948Y32002548D01*
X803333Y31998297D01*
X151145Y31346109D01*
X143531Y31332165D01*
X-697591Y31332165D01*
X-707687Y31346516D01*
X-707688Y31346517D01*
X-712851Y31353856D01*
X-733530Y31370348D01*
X-747017Y31382817D01*
X-758947Y31395580D01*
X-758949Y31395582D01*
X-765081Y31402142D01*
X-795214Y31419987D01*
X-797939Y31421715D01*
X-800351Y31423638D01*
X-804575Y31426049D01*
X-804580Y31426053D01*
X-828160Y31439515D01*
X-829813Y31440475D01*
X-890411Y31476360D01*
X-893746Y31477212D01*
X-896875Y31478745D01*
X-1024253Y31551468D01*
X-1027334Y31553285D01*
X-1045275Y31564215D01*
X-1207135Y31662821D01*
X-1208826Y31663931D01*
X-1210398Y31665233D01*
X-1241871Y31683989D01*
X-1242921Y31684622D01*
X-1254395Y31691612D01*
X-1267437Y31700735D01*
X-1397292Y31804368D01*
X-1411008Y31817092D01*
X-1535790Y31951423D01*
X-1546307Y31962745D01*
X-1549077Y31965828D01*
X-1684981Y32122145D01*
X-1685116Y32122313D01*
X-1685247Y32122520D01*
X-1685765Y32123115D01*
X-1710774Y32151811D01*
X-1734835Y32179486D01*
X-1735035Y32179660D01*
X-1735153Y32179786D01*
X-1882814Y32349220D01*
X-1885863Y32352856D01*
X-2043045Y32547671D01*
X-2045526Y32550849D01*
X-2167792Y32712725D01*
X-2198508Y32753392D01*
X-2200438Y32756017D01*
X-2350328Y32965568D01*
X-2351766Y32967622D01*
X-2499634Y33183292D01*
X-2500611Y33184738D01*
X-2571149Y33290738D01*
X-2647593Y33405615D01*
X-2648114Y33406404D01*
X-2649009Y33407773D01*
X-2794208Y33629703D01*
X-1760239Y33629703D01*
X-1760087Y33454290D01*
X-1719584Y33283617D01*
X-1640904Y33126839D01*
X-1575151Y33046074D01*
X-1159752Y32630677D01*
X-1077882Y32564197D01*
X-920967Y32485791D01*
X-750224Y32445587D01*
X-742908Y32445593D01*
X-742905Y32445593D01*
X-662312Y32445663D01*
X-574810Y32445739D01*
X-571108Y32446618D01*
X-502542Y32434943D01*
X-450106Y32387079D01*
X-431872Y32318464D01*
X-432665Y32307239D01*
X-433908Y32296499D01*
X-433767Y32135841D01*
X-432071Y32121402D01*
X-394975Y31965084D01*
X-390003Y31951423D01*
X-317744Y31807439D01*
X-310313Y31795953D01*
X-250980Y31723073D01*
X-246672Y31718302D01*
X-233689Y31705319D01*
X-219745Y31697705D01*
X-217912Y31697836D01*
X-211297Y31702087D01*
X723818Y32637202D01*
X786130Y32671228D01*
X856945Y32666163D01*
X902008Y32637202D01*
X1683631Y31855579D01*
X1697575Y31847965D01*
X1699408Y31848096D01*
X1706022Y31852346D01*
X1872475Y32018800D01*
X1876823Y32023623D01*
X1940919Y32102559D01*
X1999387Y32142833D01*
X2073616Y32144209D01*
X2149724Y32122282D01*
X2149731Y32122280D01*
X2153134Y32121300D01*
X2410972Y32077491D01*
X2587973Y32067551D01*
X2587876Y32065820D01*
X2592065Y32066339D01*
X2592065Y32066500D01*
X2603142Y32066500D01*
X2610206Y32066302D01*
X2613139Y32066137D01*
X2634914Y32064914D01*
X2645603Y32063855D01*
X2654644Y32062568D01*
X2654651Y32062567D01*
X2658729Y32061987D01*
X2665411Y32061917D01*
X2667973Y32061890D01*
X2667975Y32061890D01*
X2672093Y32061847D01*
X2676183Y32062342D01*
X2676184Y32062342D01*
X2688686Y32063855D01*
X2703000Y32065587D01*
X2718135Y32066500D01*
X6617321Y32066500D01*
X6635074Y32065243D01*
X6653869Y32062568D01*
X6653872Y32062568D01*
X6657953Y32061987D01*
X6664996Y32061913D01*
X6667197Y32061890D01*
X6667199Y32061890D01*
X6671317Y32061847D01*
X6678568Y32062724D01*
X6686598Y32063435D01*
X6950466Y32078255D01*
X6953949Y32078847D01*
X6953951Y32078847D01*
X7073135Y32099098D01*
X7226103Y32125089D01*
X7229506Y32126069D01*
X7229513Y32126071D01*
X7491359Y32201509D01*
X7494764Y32202490D01*
X7498033Y32203844D01*
X7749801Y32308130D01*
X7749806Y32308132D01*
X7753069Y32309484D01*
X7997771Y32444726D01*
X8001350Y32447265D01*
X8222271Y32604016D01*
X8289402Y32627122D01*
X8351502Y32613968D01*
X8419553Y32579965D01*
X8590297Y32539761D01*
X8597613Y32539767D01*
X8597616Y32539767D01*
X8678209Y32539837D01*
X8765710Y32539913D01*
X8788309Y32545276D01*
X8859208Y32541542D01*
X8906495Y32511775D01*
X12381475Y29036795D01*
X12393139Y29023354D01*
X12407019Y29004868D01*
X12416370Y28995320D01*
X12419615Y28992776D01*
X12419620Y28992771D01*
X12422285Y28990681D01*
X12429146Y28984894D01*
X12643879Y28790275D01*
X12643899Y28790258D01*
X12646177Y28788194D01*
X12648653Y28786358D01*
X12648660Y28786352D01*
X12892157Y28605767D01*
X12892164Y28605762D01*
X12894636Y28603929D01*
X12897276Y28602347D01*
X12897283Y28602342D01*
X12957663Y28566153D01*
X13159960Y28444905D01*
X13162753Y28443584D01*
X13162755Y28443583D01*
X13270379Y28392682D01*
X13439593Y28312652D01*
X13730843Y28208446D01*
X13733842Y28207695D01*
X13733848Y28207693D01*
X14027894Y28134043D01*
X14027897Y28134042D01*
X14030905Y28133289D01*
X14033974Y28132834D01*
X14033978Y28132833D01*
X14072038Y28127188D01*
X14336888Y28087905D01*
X14339979Y28087753D01*
X14339981Y28087753D01*
X14565028Y28076700D01*
X14564952Y28075149D01*
X14565807Y28075258D01*
X14565807Y28076500D01*
X14566014Y28076500D01*
X14569080Y28076425D01*
X14569084Y28076500D01*
X14569100Y28076500D01*
X14571854Y28076365D01*
X14571985Y28076353D01*
X14572193Y28076348D01*
X14573056Y28076306D01*
X14576681Y28076128D01*
X14576686Y28076127D01*
X14590540Y28075447D01*
X14602479Y28074861D01*
X14669536Y28051543D01*
X14713342Y27995672D01*
X14715822Y27988890D01*
X14730729Y27944209D01*
X14733450Y27936054D01*
X14737301Y27929830D01*
X14737302Y27929829D01*
X14749893Y27909482D01*
X14826522Y27785652D01*
X14951697Y27660695D01*
X14957927Y27656855D01*
X14957928Y27656854D01*
X15095090Y27572306D01*
X15102262Y27567885D01*
X15167846Y27546132D01*
X15263611Y27514368D01*
X15263613Y27514368D01*
X15270139Y27512203D01*
X15276975Y27511503D01*
X15276978Y27511502D01*
X15320031Y27507091D01*
X15374600Y27501500D01*
X15551001Y27501500D01*
X15619122Y27481498D01*
X15665615Y27427842D01*
X15675719Y27357568D01*
X15669636Y27333053D01*
X15636520Y27240500D01*
X15636517Y27240490D01*
X15635479Y27237589D01*
X15602442Y27105694D01*
X15572860Y26987591D01*
X15564607Y26954644D01*
X15521810Y26666114D01*
X15521658Y26663029D01*
X15521658Y26663024D01*
X15516478Y26557553D01*
X15511519Y26456594D01*
X15509830Y26456677D01*
X15510068Y26454814D01*
X15511062Y26454814D01*
X15511062Y26450377D01*
X15510993Y26447584D01*
X15511053Y26447114D01*
X15511030Y26446632D01*
X15510956Y26446047D01*
X15510910Y26444196D01*
X15509290Y26411212D01*
X15508185Y26399640D01*
X15506549Y26388144D01*
X15506506Y26384022D01*
X15506470Y26380558D01*
X15506409Y26374780D01*
X15506906Y26370673D01*
X15510149Y26343876D01*
X15511062Y26328738D01*
X15511062Y20330762D01*
X15491060Y20262641D01*
X15437404Y20216148D01*
X15429293Y20212781D01*
X15406269Y20204149D01*
X15406266Y20204148D01*
X15397857Y20200995D01*
X15281301Y20113641D01*
X15193947Y19997085D01*
X15142817Y19860696D01*
X15136062Y19798514D01*
X15136062Y16552246D01*
X15142817Y16490064D01*
X15193947Y16353675D01*
X15281301Y16237119D01*
X15397857Y16149765D01*
X15534246Y16098635D01*
X15596428Y16091880D01*
X16692696Y16091880D01*
X16754878Y16098635D01*
X16891267Y16149765D01*
X17007823Y16237119D01*
X17095177Y16353675D01*
X17146307Y16490064D01*
X17153062Y16552246D01*
X17676062Y16552246D01*
X17682817Y16490064D01*
X17733947Y16353675D01*
X17821301Y16237119D01*
X17937857Y16149765D01*
X18074246Y16098635D01*
X18136428Y16091880D01*
X19232696Y16091880D01*
X19294878Y16098635D01*
X19431267Y16149765D01*
X19547823Y16237119D01*
X19635177Y16353675D01*
X19686307Y16490064D01*
X19693062Y16552246D01*
X20216062Y16552246D01*
X20222817Y16490064D01*
X20273947Y16353675D01*
X20361301Y16237119D01*
X20477857Y16149765D01*
X20614246Y16098635D01*
X20676428Y16091880D01*
X21772696Y16091880D01*
X21834878Y16098635D01*
X21971267Y16149765D01*
X22087823Y16237119D01*
X22175177Y16353675D01*
X22226307Y16490064D01*
X22233062Y16552246D01*
X22233062Y19798514D01*
X22226307Y19860696D01*
X22175177Y19997085D01*
X22087823Y20113641D01*
X21971267Y20200995D01*
X21834878Y20252125D01*
X21772696Y20258880D01*
X20676428Y20258880D01*
X20614246Y20252125D01*
X20477857Y20200995D01*
X20361301Y20113641D01*
X20273947Y19997085D01*
X20222817Y19860696D01*
X20216062Y19798514D01*
X20216062Y16552246D01*
X19693062Y16552246D01*
X19693062Y19798514D01*
X19686307Y19860696D01*
X19635177Y19997085D01*
X19547823Y20113641D01*
X19431267Y20200995D01*
X19294878Y20252125D01*
X19232696Y20258880D01*
X18136428Y20258880D01*
X18074246Y20252125D01*
X17937857Y20200995D01*
X17821301Y20113641D01*
X17733947Y19997085D01*
X17682817Y19860696D01*
X17676062Y19798514D01*
X17676062Y16552246D01*
X17153062Y16552246D01*
X17153062Y19798514D01*
X17146307Y19860696D01*
X17095177Y19997085D01*
X17007823Y20113641D01*
X16891267Y20200995D01*
X16882858Y20204148D01*
X16882855Y20204149D01*
X16859831Y20212781D01*
X16803067Y20255423D01*
X16778368Y20321985D01*
X16778062Y20330762D01*
X16778062Y26324769D01*
X16779140Y26341215D01*
X16781689Y26360574D01*
X16781689Y26360578D01*
X16782680Y26368105D01*
X16780734Y26385733D01*
X16780244Y26407793D01*
X16792097Y26588664D01*
X16794248Y26605005D01*
X16834449Y26807120D01*
X16838714Y26823040D01*
X16873432Y26925318D01*
X16904960Y27018200D01*
X16911259Y27033406D01*
X17002407Y27218238D01*
X17010644Y27232507D01*
X17125138Y27403863D01*
X17135165Y27416932D01*
X17171686Y27458577D01*
X17231637Y27496604D01*
X17266418Y27501500D01*
X17825400Y27501500D01*
X17828646Y27501837D01*
X17828650Y27501837D01*
X17924308Y27511762D01*
X17924312Y27511763D01*
X17931166Y27512474D01*
X17937702Y27514655D01*
X17937704Y27514655D01*
X18069806Y27558728D01*
X18098946Y27568450D01*
X18249348Y27661522D01*
X18374305Y27786697D01*
X18467115Y27937262D01*
X18478029Y27970167D01*
X18518459Y28028527D01*
X18584023Y28055764D01*
X18597622Y28056500D01*
X20805803Y28056500D01*
X20873924Y28036498D01*
X20920417Y27982842D01*
X20925326Y27970377D01*
X20934461Y27942998D01*
X20943450Y27916054D01*
X20947301Y27909830D01*
X20947302Y27909829D01*
X20976936Y27861942D01*
X21036522Y27765652D01*
X21161697Y27640695D01*
X21167927Y27636855D01*
X21167928Y27636854D01*
X21305090Y27552306D01*
X21312262Y27547885D01*
X21392005Y27521436D01*
X21473611Y27494368D01*
X21473613Y27494368D01*
X21480139Y27492203D01*
X21486975Y27491503D01*
X21486978Y27491502D01*
X21530031Y27487091D01*
X21584600Y27481500D01*
X22210400Y27481500D01*
X22213646Y27481837D01*
X22213650Y27481837D01*
X22309308Y27491762D01*
X22309312Y27491763D01*
X22316166Y27492474D01*
X22322702Y27494655D01*
X22322704Y27494655D01*
X22454806Y27538728D01*
X22483946Y27548450D01*
X22634348Y27641522D01*
X22720784Y27728109D01*
X22783066Y27762188D01*
X22853886Y27757185D01*
X22898976Y27728264D01*
X22986697Y27640695D01*
X22992927Y27636855D01*
X22992928Y27636854D01*
X23130090Y27552306D01*
X23137262Y27547885D01*
X23217005Y27521436D01*
X23298611Y27494368D01*
X23298613Y27494368D01*
X23305139Y27492203D01*
X23311975Y27491503D01*
X23311978Y27491502D01*
X23355031Y27487091D01*
X23409600Y27481500D01*
X24035400Y27481500D01*
X24038646Y27481837D01*
X24038650Y27481837D01*
X24134308Y27491762D01*
X24134312Y27491763D01*
X24141166Y27492474D01*
X24147702Y27494655D01*
X24147704Y27494655D01*
X24279806Y27538728D01*
X24308946Y27548450D01*
X24459348Y27641522D01*
X24584305Y27766697D01*
X24588146Y27772928D01*
X24673275Y27911032D01*
X24673276Y27911034D01*
X24677115Y27917262D01*
X24694663Y27970168D01*
X24735094Y28028527D01*
X24800658Y28055764D01*
X24814256Y28056500D01*
X25059349Y28056500D01*
X25077099Y28055243D01*
X25099980Y28051987D01*
X25106600Y28051918D01*
X25109218Y28051890D01*
X25109221Y28051890D01*
X25113344Y28051847D01*
X25117430Y28052341D01*
X25117440Y28052342D01*
X25119322Y28052570D01*
X25128952Y28053361D01*
X25278687Y28059901D01*
X25461538Y28067886D01*
X25464269Y28068246D01*
X25464274Y28068246D01*
X25634310Y28090634D01*
X25807082Y28113381D01*
X25809770Y28113977D01*
X25809776Y28113978D01*
X26144667Y28188225D01*
X26144668Y28188225D01*
X26147346Y28188819D01*
X26149954Y28189641D01*
X26149964Y28189644D01*
X26327515Y28245628D01*
X26479740Y28293626D01*
X26482269Y28294673D01*
X26482273Y28294675D01*
X26743524Y28402891D01*
X26801735Y28427003D01*
X27010593Y28535729D01*
X27108441Y28586666D01*
X27108447Y28586669D01*
X27110880Y28587936D01*
X27138869Y28605767D01*
X27402508Y28773726D01*
X27402511Y28773728D01*
X27404823Y28775201D01*
X27479192Y28832267D01*
X27679137Y28985691D01*
X27679141Y28985695D01*
X27681326Y28987371D01*
X27684939Y28990681D01*
X27914192Y29200755D01*
X27923666Y29208620D01*
X27929339Y29212879D01*
X27938888Y29222230D01*
X27958108Y29246743D01*
X27968162Y29258085D01*
X28192242Y29482165D01*
X30313531Y29482165D01*
X30313662Y29480332D01*
X30317912Y29473719D01*
X30334108Y29457523D01*
X30338932Y29453174D01*
X30412865Y29393140D01*
X30424390Y29385709D01*
X30568477Y29313713D01*
X30582159Y29308759D01*
X30738538Y29271937D01*
X30752980Y29270266D01*
X30913639Y29270407D01*
X30928078Y29272103D01*
X31084396Y29309199D01*
X31098057Y29314171D01*
X31242039Y29386430D01*
X31253526Y29393861D01*
X31326407Y29453195D01*
X31331178Y29457502D01*
X31494421Y29620745D01*
X31502035Y29634689D01*
X31501904Y29636522D01*
X31497653Y29643137D01*
X30995725Y30145065D01*
X30981781Y30152679D01*
X30979948Y30152548D01*
X30973333Y30148297D01*
X30321145Y29496109D01*
X30313531Y29482165D01*
X28192242Y29482165D01*
X29277772Y30567694D01*
X29340084Y30601720D01*
X29395744Y30601245D01*
X29412648Y30597265D01*
X29412651Y30597265D01*
X29419776Y30595587D01*
X29427093Y30595593D01*
X29427096Y30595593D01*
X29507790Y30595663D01*
X29595190Y30595739D01*
X29598892Y30596618D01*
X29667458Y30584943D01*
X29719894Y30537079D01*
X29738128Y30468464D01*
X29737335Y30457239D01*
X29736092Y30446499D01*
X29736233Y30285841D01*
X29737929Y30271402D01*
X29775025Y30115084D01*
X29779997Y30101423D01*
X29852256Y29957439D01*
X29859687Y29945953D01*
X29919020Y29873073D01*
X29923328Y29868302D01*
X29936311Y29855319D01*
X29950255Y29847705D01*
X29952088Y29847836D01*
X29958703Y29852087D01*
X30893818Y30787202D01*
X30956130Y30821228D01*
X31026945Y30816163D01*
X31072008Y30787202D01*
X31689459Y30169751D01*
X31723485Y30107439D01*
X31726230Y30086460D01*
X31726600Y30078436D01*
X31726734Y30072632D01*
X31726734Y30050951D01*
X31727231Y30047020D01*
X31727231Y30047012D01*
X31727892Y30041779D01*
X31728751Y30031801D01*
X31730909Y29985033D01*
X31733058Y29977749D01*
X31733059Y29977745D01*
X31735289Y29970189D01*
X31739446Y29950330D01*
X31741760Y29932010D01*
X31744678Y29924640D01*
X31758496Y29889740D01*
X31762192Y29879016D01*
X31773134Y29841935D01*
X31773139Y29841921D01*
X31774305Y29837970D01*
X31779728Y29825755D01*
X31781879Y29822238D01*
X31781880Y29822235D01*
X31785707Y29815976D01*
X31795359Y29796634D01*
X31800682Y29783190D01*
X31805342Y29776777D01*
X31805342Y29776776D01*
X31810568Y29769583D01*
X31820053Y29754356D01*
X31858765Y29681043D01*
X31860804Y29678068D01*
X31932671Y29573206D01*
X31951896Y29545154D01*
X32017111Y29470171D01*
X32024906Y29461208D01*
X32031496Y29452956D01*
X32049114Y29428893D01*
X32051957Y29425919D01*
X32054233Y29423538D01*
X32054077Y29423389D01*
X32054252Y29423180D01*
X32054394Y29423319D01*
X32055834Y29421849D01*
X32056916Y29420731D01*
X32058361Y29419219D01*
X32058218Y29419082D01*
X32058419Y29418901D01*
X32058573Y29419052D01*
X32060873Y29416703D01*
X32060878Y29416698D01*
X32063758Y29413758D01*
X32086661Y29395800D01*
X32091934Y29391426D01*
X32196443Y29299775D01*
X32199872Y29297484D01*
X32332868Y29208620D01*
X32341780Y29202665D01*
X32345473Y29200844D01*
X32345478Y29200841D01*
X32494858Y29127177D01*
X32498549Y29125357D01*
X32664068Y29069173D01*
X32668111Y29068369D01*
X32668114Y29068368D01*
X32801742Y29041789D01*
X32835504Y29035074D01*
X32885549Y29031795D01*
X32905661Y29030477D01*
X32914291Y29029100D01*
X32914337Y29029465D01*
X32922209Y29028470D01*
X32929883Y29026500D01*
X32955929Y29026500D01*
X32973681Y29025243D01*
X32996561Y29021987D01*
X33002894Y29021921D01*
X33005791Y29021890D01*
X33005796Y29021890D01*
X33009925Y29021847D01*
X33036997Y29025124D01*
X33040826Y29025587D01*
X33055966Y29026500D01*
X33977576Y29026500D01*
X33995332Y29025243D01*
X34014129Y29022567D01*
X34014136Y29022566D01*
X34018207Y29021987D01*
X34024268Y29021924D01*
X34027438Y29021890D01*
X34027443Y29021890D01*
X34031571Y29021847D01*
X34040809Y29022965D01*
X34048880Y29023679D01*
X34207725Y29032597D01*
X34302527Y29037920D01*
X34306010Y29038512D01*
X34306012Y29038512D01*
X34566593Y29082784D01*
X34566600Y29082786D01*
X34570075Y29083376D01*
X34830851Y29158501D01*
X34937475Y29202665D01*
X34977732Y29219340D01*
X35081577Y29262353D01*
X35319098Y29393623D01*
X35540427Y29550663D01*
X35680453Y29675796D01*
X35681554Y29674564D01*
X35683737Y29677369D01*
X35683505Y29677601D01*
X35689664Y29683760D01*
X35694800Y29688617D01*
X35709796Y29702018D01*
X35773918Y29732495D01*
X35844339Y29723467D01*
X35882850Y29697162D01*
X35914476Y29665537D01*
X35937965Y29642048D01*
X35940491Y29639997D01*
X35940493Y29639995D01*
X35972077Y29614348D01*
X36019835Y29575568D01*
X36176750Y29497162D01*
X36347494Y29456958D01*
X36354810Y29456964D01*
X36354813Y29456964D01*
X36435406Y29457034D01*
X36522907Y29457110D01*
X36663080Y29490375D01*
X36686459Y29495923D01*
X36686460Y29495923D01*
X36693580Y29497613D01*
X36850358Y29576293D01*
X36931123Y29642046D01*
X37346520Y30057445D01*
X37413000Y30139315D01*
X37491406Y30296230D01*
X37531610Y30466973D01*
X37531601Y30477984D01*
X37531505Y30588198D01*
X37531458Y30642387D01*
X37530579Y30646089D01*
X37542254Y30714655D01*
X37590118Y30767091D01*
X37658733Y30785325D01*
X37669958Y30784532D01*
X37680698Y30783289D01*
X37841356Y30783430D01*
X37855795Y30785126D01*
X38012113Y30822222D01*
X38025774Y30827194D01*
X38169758Y30899453D01*
X38181244Y30906884D01*
X38254124Y30966217D01*
X38258895Y30970525D01*
X38271878Y30983508D01*
X38279492Y30997452D01*
X38279361Y30999285D01*
X38275110Y31005900D01*
X37339995Y31941015D01*
X37305969Y32003327D01*
X37311034Y32074142D01*
X37339995Y32119205D01*
X37521015Y32300225D01*
X37583327Y32334251D01*
X37654142Y32329186D01*
X37699205Y32300225D01*
X38631088Y31368342D01*
X38645032Y31360728D01*
X38646865Y31360859D01*
X38653478Y31365109D01*
X38669674Y31381305D01*
X38674023Y31386129D01*
X38734057Y31460062D01*
X38741488Y31471587D01*
X38813484Y31615674D01*
X38818438Y31629356D01*
X38855260Y31785735D01*
X38856931Y31800177D01*
X38856790Y31960836D01*
X38855094Y31975275D01*
X38817998Y32131593D01*
X38813026Y32145254D01*
X38740767Y32289236D01*
X38733336Y32300723D01*
X38674002Y32373604D01*
X38669695Y32378375D01*
X38565561Y32482509D01*
X38531535Y32544821D01*
X38536600Y32615636D01*
X38579147Y32672472D01*
X38589265Y32679307D01*
X38854562Y32840380D01*
X39154562Y33060380D01*
X39444562Y33400380D01*
X40439013Y36119081D01*
X40680758Y36779980D01*
X40680758Y36779981D01*
X40684562Y36790380D01*
X40684562Y37210380D01*
X40679457Y37297175D01*
X40665562Y37533378D01*
X40664562Y37550380D01*
X40474562Y37830380D01*
X40458962Y37837580D01*
X40458961Y37837581D01*
X40265721Y37926768D01*
X40214562Y37950380D01*
X40197789Y37948703D01*
X40197787Y37948703D01*
X40053252Y37934249D01*
X39914562Y37920380D01*
X39908505Y37918500D01*
X39908499Y37918499D01*
X38870522Y37596368D01*
X38799534Y37595280D01*
X38739227Y37632744D01*
X38714304Y37674928D01*
X38657038Y37837872D01*
X37955153Y39834987D01*
X37785265Y40318380D01*
X37785264Y40318383D01*
X37784562Y40320380D01*
X37766197Y40363233D01*
X37671651Y40583839D01*
X37664562Y40600380D01*
X37444562Y40750380D01*
X37428549Y40751836D01*
X37428548Y40751836D01*
X37237776Y40769179D01*
X37237775Y40769179D01*
X37224562Y40770380D01*
X37212004Y40766092D01*
X36820837Y40632523D01*
X36820834Y40632522D01*
X36814562Y40630380D01*
X36808876Y40626976D01*
X36808874Y40626975D01*
X35423521Y39797586D01*
X35354800Y39779756D01*
X35287348Y39801911D01*
X35241054Y39860838D01*
X35238495Y39867557D01*
X35069936Y40310023D01*
X34975912Y40556837D01*
X34975910Y40556841D01*
X34974562Y40560380D01*
X34364562Y41720380D01*
X34345418Y41738710D01*
X33907648Y42157851D01*
X33894562Y42170380D01*
X33879736Y42172314D01*
X33452526Y42228037D01*
X33434562Y42230380D01*
X33427124Y42224044D01*
X33256259Y42078492D01*
X33164562Y42000380D01*
X33159063Y41990452D01*
X33159061Y41990450D01*
X32035175Y39961487D01*
X32034562Y39960380D01*
X32034253Y39959790D01*
X32034250Y39959785D01*
X30395444Y36833739D01*
X30346100Y36782694D01*
X30276991Y36766429D01*
X30210060Y36790109D01*
X30184391Y36814886D01*
X29674855Y37470004D01*
X29674813Y37470057D01*
X29674562Y37470380D01*
X29354562Y37870380D01*
X28974562Y38080380D01*
X28959358Y38080751D01*
X28959357Y38080751D01*
X28581222Y38089974D01*
X28581221Y38089974D01*
X28564562Y38090380D01*
X28254562Y37920380D01*
X28246534Y37909798D01*
X28246533Y37909797D01*
X28191749Y37837581D01*
X28034562Y37630380D01*
X28032270Y37614544D01*
X27706426Y35363256D01*
X27704562Y35350380D01*
X27704454Y35349424D01*
X27704452Y35349408D01*
X27535690Y33854658D01*
X27494562Y33490380D01*
X27494470Y33488130D01*
X27494470Y33488128D01*
X27488159Y33333500D01*
X27474562Y33000380D01*
X27480037Y32987498D01*
X27480037Y32987497D01*
X27636062Y32620380D01*
X27644562Y32600380D01*
X27649090Y32594321D01*
X27649092Y32594318D01*
X27830942Y32350998D01*
X28354562Y31650380D01*
X28365986Y31647206D01*
X28406811Y31592582D01*
X28411820Y31521762D01*
X28377816Y31459547D01*
X27075062Y30156793D01*
X27062671Y30145926D01*
X27041151Y30129413D01*
X27028849Y30114058D01*
X27014480Y30098893D01*
X26836535Y29939870D01*
X26817166Y29922561D01*
X26806123Y29913755D01*
X26655274Y29806721D01*
X26568511Y29745159D01*
X26556547Y29737641D01*
X26301549Y29596707D01*
X26288819Y29590577D01*
X26019635Y29479075D01*
X26006298Y29474408D01*
X25726347Y29393753D01*
X25712572Y29390608D01*
X25425328Y29341800D01*
X25411288Y29340218D01*
X25376473Y29338263D01*
X25154496Y29325795D01*
X25130992Y29326674D01*
X25127547Y29327127D01*
X25127542Y29327127D01*
X25120013Y29328118D01*
X25112469Y29327285D01*
X25112466Y29327285D01*
X25085081Y29324261D01*
X25071253Y29323500D01*
X24814197Y29323500D01*
X24746076Y29343502D01*
X24699583Y29397158D01*
X24694674Y29409623D01*
X24678867Y29457002D01*
X24678866Y29457004D01*
X24676550Y29463946D01*
X24669220Y29475792D01*
X24587332Y29608120D01*
X24583478Y29614348D01*
X24458303Y29739305D01*
X24434246Y29754134D01*
X24313968Y29828275D01*
X24313966Y29828276D01*
X24307738Y29832115D01*
X24184253Y29873073D01*
X24146389Y29885632D01*
X24146387Y29885632D01*
X24139861Y29887797D01*
X24133025Y29888497D01*
X24133022Y29888498D01*
X24088455Y29893064D01*
X24035400Y29898500D01*
X23409600Y29898500D01*
X23406354Y29898163D01*
X23406350Y29898163D01*
X23310692Y29888238D01*
X23310688Y29888237D01*
X23303834Y29887526D01*
X23297298Y29885345D01*
X23297296Y29885345D01*
X23197611Y29852087D01*
X23136054Y29831550D01*
X22985652Y29738478D01*
X22924650Y29677369D01*
X22899216Y29651891D01*
X22836934Y29617812D01*
X22766114Y29622815D01*
X22721025Y29651736D01*
X22638483Y29734134D01*
X22633303Y29739305D01*
X22609246Y29754134D01*
X22488968Y29828275D01*
X22488966Y29828276D01*
X22482738Y29832115D01*
X22359253Y29873073D01*
X22321389Y29885632D01*
X22321387Y29885632D01*
X22314861Y29887797D01*
X22308025Y29888497D01*
X22308022Y29888498D01*
X22263455Y29893064D01*
X22210400Y29898500D01*
X21584600Y29898500D01*
X21581354Y29898163D01*
X21581350Y29898163D01*
X21485692Y29888238D01*
X21485688Y29888237D01*
X21478834Y29887526D01*
X21472298Y29885345D01*
X21472296Y29885345D01*
X21372611Y29852087D01*
X21311054Y29831550D01*
X21160652Y29738478D01*
X21035695Y29613303D01*
X21031855Y29607073D01*
X21031854Y29607072D01*
X20950079Y29474408D01*
X20942885Y29462738D01*
X20926639Y29413758D01*
X20925337Y29409832D01*
X20884906Y29351473D01*
X20819342Y29324236D01*
X20805744Y29323500D01*
X18610870Y29323500D01*
X18542749Y29343502D01*
X18496256Y29397158D01*
X18491347Y29409623D01*
X18468870Y29476993D01*
X18468869Y29476995D01*
X18466550Y29483946D01*
X18373478Y29634348D01*
X18248303Y29759305D01*
X18202804Y29787351D01*
X18103968Y29848275D01*
X18103966Y29848276D01*
X18097738Y29852115D01*
X17990977Y29887526D01*
X17936389Y29905632D01*
X17936387Y29905632D01*
X17929861Y29907797D01*
X17923025Y29908497D01*
X17923022Y29908498D01*
X17871740Y29913752D01*
X17825400Y29918500D01*
X17199600Y29918500D01*
X17196354Y29918163D01*
X17196350Y29918163D01*
X17100692Y29908238D01*
X17100688Y29908237D01*
X17093834Y29907526D01*
X17087298Y29905345D01*
X17087296Y29905345D01*
X17024694Y29884459D01*
X16926054Y29851550D01*
X16775652Y29758478D01*
X16770479Y29753296D01*
X16689216Y29671891D01*
X16626934Y29637812D01*
X16556114Y29642815D01*
X16511025Y29671736D01*
X16428483Y29754134D01*
X16423303Y29759305D01*
X16377804Y29787351D01*
X16278968Y29848275D01*
X16278966Y29848276D01*
X16272738Y29852115D01*
X16165977Y29887526D01*
X16111389Y29905632D01*
X16111387Y29905632D01*
X16104861Y29907797D01*
X16098025Y29908497D01*
X16098022Y29908498D01*
X16046740Y29913752D01*
X16000400Y29918500D01*
X15374600Y29918500D01*
X15371354Y29918163D01*
X15371350Y29918163D01*
X15275692Y29908238D01*
X15275688Y29908237D01*
X15268834Y29907526D01*
X15262298Y29905345D01*
X15262296Y29905345D01*
X15199694Y29884459D01*
X15101054Y29851550D01*
X14950652Y29758478D01*
X14825695Y29633303D01*
X14821855Y29627073D01*
X14821854Y29627072D01*
X14737593Y29490375D01*
X14732885Y29482738D01*
X14723948Y29455793D01*
X14716499Y29433336D01*
X14676068Y29374976D01*
X14610503Y29347740D01*
X14588667Y29347274D01*
X14408513Y29359079D01*
X14392172Y29361230D01*
X14244467Y29390608D01*
X14167018Y29406013D01*
X14151100Y29410277D01*
X13933711Y29484068D01*
X13918484Y29490375D01*
X13712590Y29591907D01*
X13698316Y29600148D01*
X13582396Y29677601D01*
X13507439Y29727684D01*
X13494364Y29737717D01*
X13489102Y29742332D01*
X13363915Y29852115D01*
X13345885Y29867927D01*
X13329000Y29885955D01*
X13328168Y29887039D01*
X13323545Y29893064D01*
X13296120Y29915035D01*
X13285804Y29924275D01*
X9802306Y33407773D01*
X9768280Y33470085D01*
X9768755Y33525747D01*
X9770831Y33534563D01*
X9774413Y33549776D01*
X9774261Y33725190D01*
X9773382Y33728892D01*
X9785057Y33797458D01*
X9832921Y33849894D01*
X9901536Y33868128D01*
X9912761Y33867335D01*
X9923501Y33866092D01*
X10084159Y33866233D01*
X10098598Y33867929D01*
X10254916Y33905025D01*
X10268577Y33909997D01*
X10412561Y33982256D01*
X10424047Y33989687D01*
X10496927Y34049020D01*
X10501698Y34053328D01*
X10514681Y34066311D01*
X10522295Y34080255D01*
X10522164Y34082088D01*
X10517913Y34088703D01*
X9582798Y35023818D01*
X9548772Y35086130D01*
X9550607Y35111781D01*
X10217321Y35111781D01*
X10217452Y35109948D01*
X10221703Y35103333D01*
X10873891Y34451145D01*
X10887835Y34443531D01*
X10889668Y34443662D01*
X10896281Y34447912D01*
X10912477Y34464108D01*
X10916826Y34468932D01*
X10976860Y34542865D01*
X10984291Y34554390D01*
X11056287Y34698477D01*
X11061241Y34712159D01*
X11098063Y34868538D01*
X11099734Y34882980D01*
X11099593Y35043639D01*
X11097897Y35058078D01*
X11060801Y35214396D01*
X11055829Y35228057D01*
X10983570Y35372039D01*
X10976139Y35383526D01*
X10916805Y35456407D01*
X10912498Y35461178D01*
X10749255Y35624421D01*
X10735311Y35632035D01*
X10733478Y35631904D01*
X10726863Y35627653D01*
X10224935Y35125725D01*
X10217321Y35111781D01*
X9550607Y35111781D01*
X9553837Y35156945D01*
X9582798Y35202008D01*
X10364421Y35983631D01*
X10372035Y35997575D01*
X10371904Y35999408D01*
X10367654Y36006022D01*
X10254594Y36119081D01*
X10220569Y36181393D01*
X10225633Y36252209D01*
X10228549Y36259350D01*
X10338498Y36506735D01*
X10338498Y36506737D01*
X10344562Y36520380D01*
X10314562Y37080380D01*
X10234562Y37900380D01*
X10054562Y38690380D01*
X10052030Y38696767D01*
X9831240Y39253540D01*
X9824562Y39270380D01*
X9686702Y39353096D01*
X9638581Y39405294D01*
X9625541Y39462842D01*
X9627865Y39634767D01*
X9634562Y40130380D01*
X9552067Y40812836D01*
X9525581Y41031951D01*
X9525581Y41031952D01*
X9524562Y41040380D01*
X9270946Y41658570D01*
X9207213Y41813919D01*
X9207212Y41813921D01*
X9204562Y41820380D01*
X8908792Y42242908D01*
X8717106Y42516746D01*
X8717105Y42516748D01*
X8714562Y42520380D01*
X8144562Y43130380D01*
X7474562Y43650380D01*
X7469795Y43652914D01*
X7469791Y43652917D01*
X6897049Y43957412D01*
X6684562Y44070380D01*
X6506402Y44147841D01*
X6463687Y44166413D01*
X6463685Y44166414D01*
X6454562Y44170380D01*
X6244562Y44190380D01*
X6235507Y44174534D01*
X6057923Y43863761D01*
X6044562Y43840380D01*
X5994562Y43340380D01*
X5995082Y43334486D01*
X5995082Y43334483D01*
X6024780Y42997906D01*
X6076242Y42414680D01*
X6079034Y42383035D01*
X6065097Y42313420D01*
X6037812Y42278305D01*
X5967597Y42215111D01*
X5927891Y42179376D01*
X5863876Y42148673D01*
X5826791Y42148157D01*
X5390503Y42206888D01*
X5342156Y42223917D01*
X5114753Y42361306D01*
X4906740Y42486981D01*
X4869471Y42521444D01*
X4868802Y42522379D01*
X4553135Y42962997D01*
X4404786Y43170068D01*
X4404755Y43170110D01*
X4404562Y43170380D01*
X4199908Y43448125D01*
X3846783Y43927366D01*
X3846782Y43927368D01*
X3844562Y43930380D01*
X3473518Y44325623D01*
X2927732Y44907004D01*
X2927727Y44907009D01*
X2924562Y44910380D01*
X2920935Y44913254D01*
X2920932Y44913257D01*
X2406493Y45320926D01*
X2406491Y45320927D01*
X2394562Y45330380D01*
X2379613Y45333243D01*
X2379612Y45333243D01*
X1942758Y45416896D01*
X1942757Y45416896D01*
X1924562Y45420380D01*
X1907459Y45413254D01*
X1907460Y45413254D01*
X1581284Y45277348D01*
X1581283Y45277347D01*
X1564562Y45270380D01*
X1557307Y45257943D01*
X1557306Y45257942D01*
X1362992Y44924832D01*
X1354562Y44910380D01*
X1354562Y43973696D01*
X1354388Y43967074D01*
X1315301Y43224426D01*
X1310744Y43196844D01*
X1206438Y42827031D01*
X999906Y42094779D01*
X989013Y42056160D01*
X976222Y42026266D01*
X833653Y41784996D01*
X466703Y41164004D01*
X462180Y41156903D01*
X-454078Y39819165D01*
X-535438Y39700380D01*
X-1045438Y38860380D01*
X-1047741Y38852735D01*
X-1047742Y38852732D01*
X-1294375Y38033910D01*
X-1295438Y38030380D01*
X-1405438Y37410380D01*
X-1402775Y37398276D01*
X-1402775Y37398275D01*
X-1299369Y36928250D01*
X-1295438Y36910380D01*
X-1119152Y36765668D01*
X-636966Y36369843D01*
X-616439Y36348488D01*
X-71738Y35628705D01*
X-60596Y35611136D01*
X108563Y35288196D01*
X290830Y34940233D01*
X291819Y34938344D01*
X305709Y34868719D01*
X279752Y34802638D01*
X222189Y34761080D01*
X151297Y34757240D01*
X100781Y34782064D01*
X52056Y34821629D01*
X-104859Y34900035D01*
X-275602Y34940239D01*
X-282918Y34940233D01*
X-282921Y34940233D01*
X-363514Y34940163D01*
X-451016Y34940087D01*
X-580649Y34909323D01*
X-612726Y34901711D01*
X-621689Y34899584D01*
X-778467Y34820904D01*
X-859232Y34755151D01*
X-1575149Y34039232D01*
X-1577200Y34036706D01*
X-1577202Y34036704D01*
X-1618728Y33985564D01*
X-1641629Y33957362D01*
X-1720035Y33800447D01*
X-1760239Y33629703D01*
X-2794208Y33629703D01*
X-2795630Y33631876D01*
X-2940086Y33853518D01*
X-2941535Y33855795D01*
X-2946540Y33863848D01*
X-2953436Y33876505D01*
X-3034533Y34048039D01*
X-3040494Y34063075D01*
X-3041542Y34066311D01*
X-3106859Y34268017D01*
X-3108756Y34274461D01*
X-3115207Y34298744D01*
X-3166594Y34492157D01*
X-3172365Y34513879D01*
X-3173142Y34516959D01*
X-3227357Y34743923D01*
X-3228334Y34748363D01*
X-3243063Y34821629D01*
X-3274417Y34977594D01*
X-3275000Y34980698D01*
X-3316463Y35217871D01*
X-3316768Y35219694D01*
X-3327613Y35287588D01*
X-3352249Y35441815D01*
X-3353385Y35451153D01*
X-3359192Y35520434D01*
X-3360419Y35535066D01*
X-3360560Y35554265D01*
X-3356086Y35619067D01*
X-3347617Y35741747D01*
X-3346476Y35752067D01*
X-3328091Y35872583D01*
X-3327591Y35875614D01*
X-3292572Y36072787D01*
X-3284458Y36118476D01*
X-3283011Y36125465D01*
X-3230970Y36345278D01*
X-3227988Y36355809D01*
X-3162975Y36552411D01*
X-3157602Y36565970D01*
X-3138689Y36606650D01*
X-3067872Y36758975D01*
X-3063494Y36767525D01*
X-3056503Y36779980D01*
X-3039437Y36810386D01*
X-3037417Y36819133D01*
X-3037415Y36819138D01*
X-3027758Y36860951D01*
X-3025622Y36868982D01*
X-3013233Y36910057D01*
X-3013232Y36910061D01*
X-3010640Y36918656D01*
X-3010191Y36971800D01*
X-3009864Y36979862D01*
X-3002466Y37081724D01*
X-3000079Y37114576D01*
X-2997643Y37131709D01*
X-2991509Y37160477D01*
X-2995229Y37210380D01*
X-2996799Y37231442D01*
X-2996842Y37232029D01*
X-2998408Y37254453D01*
X-3001826Y37303384D01*
X-3004939Y37311801D01*
X-3004941Y37311810D01*
X-3013389Y37334651D01*
X-3017927Y37349770D01*
X-3070928Y37577276D01*
X-3130793Y37837920D01*
X-3131339Y37840414D01*
X-3183410Y38090709D01*
X-3184303Y38095454D01*
X-3224186Y38332360D01*
X-3225315Y38340808D01*
X-3237843Y38466775D01*
X-3238460Y38478577D01*
X-3239541Y38682397D01*
X-3239574Y38688558D01*
X-3239094Y38700239D01*
X-3234177Y38756271D01*
X-3219445Y38924170D01*
X-3218827Y38929767D01*
X-3215138Y38957486D01*
X-3214605Y38961090D01*
X-3214594Y38961153D01*
X-3180144Y39172978D01*
X-3177733Y39187805D01*
X-3176298Y39195221D01*
X-3129225Y39404568D01*
X-3126715Y39414006D01*
X-3123745Y39423651D01*
X-3067313Y39606917D01*
X-3063260Y39618150D01*
X-3056364Y39634752D01*
X-2975840Y39828602D01*
X-2970079Y39840629D01*
X-2868659Y40026345D01*
X-2861074Y40038528D01*
X-2829612Y40083174D01*
X-2745865Y40202013D01*
X-2736445Y40213810D01*
X-2712527Y40240332D01*
X-2606885Y40357480D01*
X-2595833Y40368315D01*
X-2515491Y40437937D01*
X-2450278Y40494448D01*
X-2438015Y40503824D01*
X-2273825Y40614083D01*
X-2260901Y40621687D01*
X-2239689Y40632523D01*
X-2075025Y40716640D01*
X-2062046Y40722372D01*
X-1934314Y40770380D01*
X-1841290Y40805343D01*
X-1832947Y40808150D01*
X-1799569Y40818094D01*
X-1793177Y40819816D01*
X-1564350Y40875017D01*
X-1561793Y40875606D01*
X-1344465Y40923268D01*
X-1332829Y40925254D01*
X-1298561Y40929461D01*
X-1298560Y40929461D01*
X-1289651Y40930555D01*
X-1281409Y40934104D01*
X-1281407Y40934105D01*
X-1236906Y40953270D01*
X-1231234Y40955551D01*
X-1185846Y40972538D01*
X-1185844Y40972539D01*
X-1177441Y40975684D01*
X-1170257Y40981062D01*
X-1167602Y40982514D01*
X-1167128Y40982745D01*
X-1166678Y40983050D01*
X-1164111Y40984620D01*
X-1155873Y40988168D01*
X-1111622Y41024774D01*
X-1106828Y41028548D01*
X-1068026Y41057596D01*
X-1068024Y41057598D01*
X-1060839Y41062977D01*
X-1055451Y41070160D01*
X-1053331Y41072277D01*
X-1052924Y41072647D01*
X-1052578Y41073066D01*
X-1050559Y41075289D01*
X-1043640Y41081012D01*
X-1011418Y41128602D01*
X-1007906Y41133527D01*
X-973423Y41179487D01*
X-964820Y41202397D01*
X-956741Y41223912D01*
X-952744Y41233367D01*
X-657304Y41859770D01*
X-300644Y42615975D01*
X-298479Y42620343D01*
X-274222Y42666991D01*
X-274222Y42666992D01*
X-270081Y42674955D01*
X-262335Y42714171D01*
X-259152Y42726807D01*
X-250035Y42756441D01*
X-247395Y42765021D01*
X-247182Y42780265D01*
X-244807Y42802912D01*
X-241856Y42817852D01*
X-245427Y42857662D01*
X-245919Y42870677D01*
X-245486Y42901688D01*
X-245486Y42901690D01*
X-245361Y42910664D01*
X-249433Y42925348D01*
X-253510Y42947756D01*
X-254069Y42953990D01*
X-254069Y42953992D01*
X-254871Y42962927D01*
X-258150Y42971283D01*
X-269472Y43000136D01*
X-273598Y43012491D01*
X-281886Y43042378D01*
X-284284Y43051025D01*
X-292313Y43063975D01*
X-302516Y43084339D01*
X-304800Y43090158D01*
X-304801Y43090159D01*
X-308081Y43098518D01*
X-332535Y43130128D01*
X-339962Y43140829D01*
X-356307Y43167191D01*
X-361037Y43174820D01*
X-372380Y43184998D01*
X-387894Y43201686D01*
X-391713Y43206623D01*
X-391715Y43206625D01*
X-397207Y43213724D01*
X-429559Y43237207D01*
X-439678Y43245382D01*
X-469451Y43272096D01*
X-528931Y43300595D01*
X-531890Y43302061D01*
X-793482Y43436060D01*
X-794346Y43436507D01*
X-1060008Y43575699D01*
X-1061373Y43576425D01*
X-1323445Y43717861D01*
X-1325136Y43718791D01*
X-1549662Y43844443D01*
X-1583176Y43863198D01*
X-1585171Y43864339D01*
X-1838838Y44012483D01*
X-1841090Y44013831D01*
X-2089891Y44166375D01*
X-2092436Y44167978D01*
X-2336017Y44325640D01*
X-2338868Y44327543D01*
X-2573580Y44488776D01*
X-2577916Y44491891D01*
X-2596945Y44506186D01*
X-2603663Y44511233D01*
X-2612791Y44518788D01*
X-2772338Y44664043D01*
X-2778289Y44669832D01*
X-2930293Y44827772D01*
X-2937625Y44836094D01*
X-2976019Y44883748D01*
X-2991064Y44907388D01*
X-3054332Y45036596D01*
X-3062882Y45059414D01*
X-3112762Y45245683D01*
X-3114784Y45254489D01*
X-3145735Y45415492D01*
X-3146688Y45457422D01*
X-3129404Y45576206D01*
X-3127042Y45588272D01*
X-3089282Y45741172D01*
X-3087562Y45746825D01*
X-3087730Y45746875D01*
X-3086344Y45751538D01*
X-3084602Y45756081D01*
X-3083581Y45760830D01*
X-3083577Y45760845D01*
X-3078308Y45785364D01*
X-3077446Y45789098D01*
X-3072081Y45810825D01*
X-3072081Y45810826D01*
X-3071005Y45815182D01*
X-3070558Y45819641D01*
X-3069795Y45824058D01*
X-3069660Y45824035D01*
X-3068741Y45829884D01*
X-3042559Y45951718D01*
X-3029247Y46013661D01*
X-3025776Y46026478D01*
X-3023911Y46032159D01*
X-3020011Y46055917D01*
X-3018863Y46061978D01*
X-3015401Y46078090D01*
X-3014458Y46082478D01*
X-3014147Y46086951D01*
X-3014136Y46087029D01*
X-3009994Y46105816D01*
X-2994849Y46155947D01*
X-2965810Y46252074D01*
X-2955946Y46275720D01*
X-2888144Y46400699D01*
X-2876700Y46418165D01*
X-2759603Y46568116D01*
X-2754154Y46574628D01*
X-2732240Y46599096D01*
X-2732194Y46599144D01*
X-2732142Y46599186D01*
X-2705593Y46628848D01*
X-2705588Y46628843D01*
X-2705568Y46628876D01*
X-2681476Y46655775D01*
X-2681437Y46655832D01*
X-2681402Y46655875D01*
X-2518325Y46838074D01*
X-2518232Y46838178D01*
X-2331065Y47046827D01*
X-2330796Y47047126D01*
X-2143981Y47254049D01*
X-2143534Y47254541D01*
X-1956676Y47459330D01*
X-1956047Y47460015D01*
X-1767428Y47663695D01*
X-1767011Y47664143D01*
X-1704733Y47730742D01*
X-1704497Y47730994D01*
X-1513101Y47934548D01*
X-1512633Y47935042D01*
X-1321564Y48136062D01*
X-1320947Y48136707D01*
X-1128800Y48336013D01*
X-1128027Y48336808D01*
X-935205Y48533326D01*
X-934274Y48534265D01*
X-901815Y48566659D01*
X-739061Y48729087D01*
X-738408Y48729733D01*
X-690521Y48776788D01*
X-537224Y48927422D01*
X-388696Y49072310D01*
X-334323Y49125350D01*
X-334042Y49125623D01*
X-130252Y49323184D01*
X-130018Y49323410D01*
X74251Y49520415D01*
X74439Y49520597D01*
X166742Y49609249D01*
X279876Y49717907D01*
X485251Y49914548D01*
X692394Y50112472D01*
X897481Y50308232D01*
X1040567Y50443747D01*
X1041423Y50444550D01*
X1257666Y50645561D01*
X1258651Y50646467D01*
X1476710Y50844891D01*
X1477647Y50845735D01*
X1697885Y51042149D01*
X1698772Y51042933D01*
X1921314Y51237680D01*
X1922148Y51238404D01*
X1927475Y51242984D01*
X2146533Y51431316D01*
X2147224Y51431904D01*
X2191087Y51468998D01*
X2373581Y51623326D01*
X2374152Y51623806D01*
X2602320Y51813832D01*
X2602921Y51814328D01*
X2832739Y52003057D01*
X2833352Y52003557D01*
X3064406Y52190884D01*
X3064826Y52191223D01*
X3297688Y52377839D01*
X3297953Y52378050D01*
X3359638Y52426953D01*
X3518274Y52552719D01*
X3518825Y52553153D01*
X3575204Y52597341D01*
X3739761Y52726317D01*
X3740340Y52726768D01*
X3962258Y52898604D01*
X3962876Y52899079D01*
X4185401Y53069195D01*
X4185940Y53069605D01*
X4409903Y53238519D01*
X4410235Y53238767D01*
X4634784Y53405730D01*
X4635508Y53406265D01*
X4798048Y53525328D01*
X4861092Y53571509D01*
X4861827Y53572042D01*
X5088398Y53735426D01*
X5089195Y53735997D01*
X5316739Y53897406D01*
X5317572Y53897992D01*
X5546455Y54057585D01*
X5547242Y54058129D01*
X5777390Y54215745D01*
X5778175Y54216277D01*
X6009377Y54371672D01*
X6010217Y54372232D01*
X6242851Y54525558D01*
X6243825Y54526194D01*
X6278038Y54548288D01*
X6477682Y54677214D01*
X6478686Y54677855D01*
X6527133Y54708483D01*
X6714027Y54826637D01*
X6715021Y54827258D01*
X6924934Y54957057D01*
X6936891Y54963585D01*
X6936904Y54963591D01*
X6941505Y54965789D01*
X6962093Y54979878D01*
X6966962Y54983046D01*
X6981712Y54992166D01*
X6981713Y54992167D01*
X6985522Y54994522D01*
X6990046Y54998302D01*
X6999690Y55005605D01*
X7099499Y55073902D01*
X7107644Y55079030D01*
X7142374Y55099085D01*
X7142379Y55099089D01*
X7150151Y55103577D01*
X7186030Y55141128D01*
X7191944Y55146923D01*
X7230232Y55182048D01*
X7234879Y55189731D01*
X7239927Y55195895D01*
X7244575Y55202400D01*
X7250776Y55208890D01*
X7254906Y55216859D01*
X7254909Y55216863D01*
X7274671Y55254993D01*
X7278724Y55262222D01*
X7300966Y55298997D01*
X7300968Y55299002D01*
X7305613Y55306682D01*
X7307917Y55315361D01*
X7311032Y55322695D01*
X7313665Y55330236D01*
X7317798Y55338211D01*
X7327792Y55389169D01*
X7329653Y55397240D01*
X7340682Y55438787D01*
X7340683Y55438796D01*
X7342984Y55447464D01*
X7342760Y55456432D01*
X7343694Y55464366D01*
X7344104Y55472341D01*
X7345831Y55481146D01*
X7341118Y55532891D01*
X7340639Y55541156D01*
X7339564Y55584107D01*
X7339340Y55593076D01*
X7323173Y55643633D01*
X7320959Y55651409D01*
X7288694Y55780297D01*
X7288597Y55780756D01*
X7288548Y55781282D01*
X7278961Y55819178D01*
X7270275Y55853875D01*
X7270074Y55854366D01*
X7269951Y55854792D01*
X7225590Y56030144D01*
X7224632Y56034462D01*
X7224220Y56038144D01*
X7222945Y56042826D01*
X7222942Y56042840D01*
X7215317Y56070830D01*
X7214735Y56073046D01*
X7208299Y56098490D01*
X7208297Y56098497D01*
X7207198Y56102840D01*
X7205792Y56106260D01*
X7204474Y56110637D01*
X7186686Y56175942D01*
X7176884Y56211932D01*
X7176771Y56212416D01*
X7176704Y56213002D01*
X7174663Y56220416D01*
X7166427Y56250321D01*
X7166334Y56250662D01*
X7166075Y56251615D01*
X7156965Y56285061D01*
X7156729Y56285608D01*
X7156574Y56286103D01*
X7150020Y56309906D01*
X7099582Y56493070D01*
X7097812Y56500329D01*
X7057433Y56690332D01*
X7054760Y56712060D01*
X7048513Y56888286D01*
X7048604Y56899284D01*
X7054156Y57006199D01*
X7058301Y57086002D01*
X7059339Y57096873D01*
X7062368Y57118581D01*
X7063222Y57123874D01*
X7067362Y57146445D01*
X7067550Y57151234D01*
X7068660Y57163692D01*
X7071901Y57186925D01*
X7074617Y57200716D01*
X7119070Y57374654D01*
X7125296Y57393000D01*
X7191608Y57548029D01*
X7198806Y57562283D01*
X7293520Y57723553D01*
X7300072Y57733585D01*
X7322299Y57764317D01*
X7423026Y57903585D01*
X7427881Y57909869D01*
X7578455Y58092524D01*
X7580081Y58094457D01*
X7597120Y58114297D01*
X7612297Y58131969D01*
X7612668Y58132370D01*
X7613150Y58132783D01*
X7638360Y58162315D01*
X7661670Y58189457D01*
X7662009Y58189990D01*
X7662356Y58190425D01*
X7787580Y58337120D01*
X7787693Y58337242D01*
X7787856Y58337382D01*
X7813296Y58367244D01*
X7836923Y58394922D01*
X7837038Y58395104D01*
X7837147Y58395241D01*
X7875492Y58440251D01*
X7933385Y58508207D01*
X7937494Y58512496D01*
X7941900Y58515549D01*
X7983704Y58567212D01*
X7985703Y58569620D01*
X8003140Y58590088D01*
X8005535Y58593879D01*
X8006365Y58595007D01*
X8009890Y58599574D01*
X8027878Y58621804D01*
X8027879Y58621806D01*
X8033523Y58628781D01*
X8041059Y58646816D01*
X8050787Y58665520D01*
X8056437Y58674464D01*
X8056438Y58674466D01*
X8061229Y58682051D01*
X8071053Y58716363D01*
X8075928Y58730261D01*
X8083464Y58748295D01*
X8089683Y58763176D01*
X8091855Y58782606D01*
X8095942Y58803287D01*
X8098851Y58813448D01*
X8101323Y58822081D01*
X8101122Y58857771D01*
X8101899Y58872462D01*
X8105865Y58907933D01*
X8104318Y58916779D01*
X8102498Y58927187D01*
X8100616Y58948185D01*
X8100556Y58958760D01*
X8100506Y58967736D01*
X8097940Y58976333D01*
X8097939Y58976337D01*
X8090297Y59001935D01*
X8086916Y59016267D01*
X8082315Y59042572D01*
X8080769Y59051411D01*
X8072792Y59067609D01*
X8072136Y59068940D01*
X8064437Y59088566D01*
X8061410Y59098704D01*
X8061409Y59098707D01*
X8058841Y59107308D01*
X8039433Y59137283D01*
X8032177Y59150071D01*
X8016412Y59182080D01*
X8003202Y59196486D01*
X7990306Y59213158D01*
X7979676Y59229575D01*
X7952645Y59252890D01*
X7947673Y59257713D01*
X7947619Y59257655D01*
X7944061Y59260979D01*
X7940771Y59264567D01*
X7919969Y59281190D01*
X7916362Y59284184D01*
X7869378Y59324709D01*
X7862312Y59327926D01*
X7854288Y59333676D01*
X7760944Y59408268D01*
X7756905Y59411638D01*
X7655623Y59499791D01*
X7600487Y59547780D01*
X7590240Y59557777D01*
X7587364Y59560922D01*
X7449008Y59712181D01*
X7437565Y59726701D01*
X7329378Y59886894D01*
X7319802Y59903735D01*
X7318697Y59906081D01*
X7253914Y60043662D01*
X7247194Y60061228D01*
X7193370Y60241200D01*
X7190855Y60251040D01*
X7178899Y60307162D01*
X7178242Y60310463D01*
X7177913Y60312242D01*
X7132218Y60558903D01*
X7131417Y60563749D01*
X7095713Y60809670D01*
X7095123Y60814347D01*
X7068559Y61062222D01*
X7068160Y61066698D01*
X7062007Y61153112D01*
X7050351Y61316787D01*
X7050121Y61321037D01*
X7040489Y61579085D01*
X7040435Y61580840D01*
X7038916Y61645822D01*
X7038930Y61646994D01*
X7039090Y61648265D01*
X7037978Y61686050D01*
X7037962Y61686620D01*
X7037232Y61717858D01*
X7037152Y61721282D01*
X7036942Y61722537D01*
X7036868Y61723739D01*
X7034255Y61812491D01*
X7031105Y61919469D01*
X7031111Y61920234D01*
X7031215Y61921095D01*
X7029930Y61959413D01*
X7029914Y61959926D01*
X7028949Y61992678D01*
X7028878Y61995099D01*
X7028729Y61995957D01*
X7028677Y61996728D01*
X7026404Y62064505D01*
X7023145Y62161656D01*
X7020815Y62231106D01*
X7020808Y62231308D01*
X7012260Y62498979D01*
X7012234Y62499899D01*
X7005728Y62764123D01*
X7005698Y62765766D01*
X7002680Y63026381D01*
X7002675Y63028745D01*
X7004529Y63286917D01*
X7004573Y63289447D01*
X7006576Y63362897D01*
X7006821Y63368042D01*
X7007461Y63377410D01*
X7023211Y63608174D01*
X7024243Y63617815D01*
X7056237Y63836736D01*
X7058621Y63848857D01*
X7086485Y63961161D01*
X7108362Y64049339D01*
X7112845Y64063682D01*
X7114607Y64068325D01*
X7181736Y64245286D01*
X7189036Y64261128D01*
X7289838Y64445154D01*
X7295322Y64454235D01*
X7358826Y64550043D01*
X7360762Y64552879D01*
X7501265Y64752803D01*
X7503726Y64756184D01*
X7650173Y64950407D01*
X7652657Y64953591D01*
X7732043Y65052099D01*
X7805626Y65143405D01*
X7808109Y65146391D01*
X7970506Y65335497D01*
X7971621Y65336777D01*
X8085614Y65465953D01*
X8086292Y65466668D01*
X8087114Y65467358D01*
X8112127Y65495995D01*
X8112550Y65496476D01*
X8133680Y65520421D01*
X8133689Y65520431D01*
X8135626Y65522627D01*
X8136215Y65523523D01*
X8136836Y65524284D01*
X8300330Y65711468D01*
X8301260Y65712460D01*
X8302370Y65713405D01*
X8326895Y65741879D01*
X8327359Y65742414D01*
X8347419Y65765380D01*
X8349938Y65768264D01*
X8350728Y65769481D01*
X8351590Y65770550D01*
X8398944Y65825528D01*
X8513870Y65958957D01*
X8514932Y65960107D01*
X8516176Y65961183D01*
X8526064Y65972846D01*
X8540257Y65989587D01*
X8540896Y65990334D01*
X8560244Y66012798D01*
X8563033Y66016036D01*
X8563916Y66017417D01*
X8564909Y66018666D01*
X8687836Y66163668D01*
X8725721Y66208355D01*
X8726919Y66209674D01*
X8728293Y66210884D01*
X8731324Y66214523D01*
X8751905Y66239234D01*
X8752612Y66240075D01*
X8757518Y66245863D01*
X8774395Y66265770D01*
X8775370Y66267322D01*
X8776479Y66268741D01*
X8935667Y66459877D01*
X8936990Y66461360D01*
X8938493Y66462710D01*
X8941568Y66466476D01*
X8941572Y66466480D01*
X8961582Y66490986D01*
X8962254Y66491801D01*
X8983788Y66517656D01*
X8984851Y66519381D01*
X8986084Y66520990D01*
X9143442Y66713686D01*
X9144909Y66715365D01*
X9146532Y66716854D01*
X9169217Y66745242D01*
X9169919Y66746112D01*
X9190977Y66771898D01*
X9192111Y66773780D01*
X9193471Y66775591D01*
X9348832Y66970008D01*
X9350436Y66971885D01*
X9352177Y66973518D01*
X9355175Y66977360D01*
X9355182Y66977367D01*
X9374349Y67001925D01*
X9375244Y67003059D01*
X9392923Y67025183D01*
X9395721Y67028684D01*
X9396930Y67030738D01*
X9398418Y67032766D01*
X9551587Y67229022D01*
X9553330Y67231112D01*
X9555183Y67232895D01*
X9558125Y67236763D01*
X9558129Y67236767D01*
X9576839Y67261363D01*
X9577712Y67262497D01*
X9597784Y67288215D01*
X9599059Y67290438D01*
X9600662Y67292679D01*
X9751499Y67490965D01*
X9753360Y67493257D01*
X9755314Y67495187D01*
X9758209Y67499099D01*
X9776347Y67523612D01*
X9777350Y67524950D01*
X9794218Y67547124D01*
X9794221Y67547129D01*
X9796924Y67550682D01*
X9798259Y67553079D01*
X9799991Y67555567D01*
X9948288Y67755992D01*
X9950266Y67758497D01*
X9952322Y67760586D01*
X9972768Y67789055D01*
X9973821Y67790500D01*
X9990232Y67812680D01*
X9992899Y67816284D01*
X9994290Y67818861D01*
X9996132Y67821587D01*
X10003693Y67832114D01*
X10142697Y68025664D01*
X10147559Y68031674D01*
X10147551Y68031680D01*
X10150536Y68035524D01*
X10153812Y68039129D01*
X10168692Y68061690D01*
X10171529Y68065810D01*
X10182847Y68081569D01*
X10185462Y68085210D01*
X10187537Y68089190D01*
X10188480Y68090722D01*
X10193758Y68099692D01*
X10216794Y68134616D01*
X10241825Y68172567D01*
X10245538Y68177892D01*
X10259456Y68196786D01*
X10262699Y68203010D01*
X10268206Y68212369D01*
X10268946Y68213685D01*
X10271409Y68217420D01*
X10273319Y68221469D01*
X10273325Y68221479D01*
X10281819Y68239483D01*
X10284035Y68243950D01*
X10288543Y68252599D01*
X10385781Y68439187D01*
X10391406Y68448898D01*
X10397468Y68458363D01*
X10405090Y68475655D01*
X10408646Y68483059D01*
X10413878Y68493100D01*
X10413878Y68493101D01*
X10415951Y68497078D01*
X10419944Y68508432D01*
X10423508Y68517443D01*
X10441316Y68557845D01*
X10443957Y68563458D01*
X10575084Y68825227D01*
X10579995Y68834117D01*
X10723265Y69070431D01*
X10728977Y69079036D01*
X10888574Y69299309D01*
X10894991Y69307439D01*
X11071152Y69512676D01*
X11078146Y69520184D01*
X11271328Y69711280D01*
X11278744Y69718053D01*
X11489492Y69895650D01*
X11497150Y69901614D01*
X11728339Y70067777D01*
X11735108Y70072317D01*
X11913661Y70183886D01*
X11920555Y70187895D01*
X11978512Y70219185D01*
X11989840Y70224590D01*
X12168122Y70298997D01*
X12180420Y70303396D01*
X12382027Y70363921D01*
X12387437Y70365414D01*
X12408850Y70370813D01*
X12455464Y70382566D01*
X12457051Y70382955D01*
X12707049Y70442552D01*
X12708636Y70442920D01*
X12870667Y70479339D01*
X12962296Y70499934D01*
X12962526Y70499985D01*
X13182163Y70548296D01*
X13182860Y70548422D01*
X13183661Y70548475D01*
X13185865Y70548969D01*
X13185873Y70548970D01*
X13221303Y70556903D01*
X13221765Y70557006D01*
X13230843Y70559003D01*
X13256102Y70564559D01*
X13256848Y70564839D01*
X13257531Y70565016D01*
X13443635Y70606690D01*
X13446220Y70607181D01*
X13448733Y70607377D01*
X13483638Y70615639D01*
X13485056Y70615965D01*
X13516902Y70623096D01*
X13519256Y70623989D01*
X13521841Y70624682D01*
X13596621Y70642382D01*
X13707792Y70668695D01*
X13709766Y70669092D01*
X13711772Y70669269D01*
X13716487Y70670433D01*
X13716492Y70670434D01*
X13747309Y70678043D01*
X13748451Y70678319D01*
X13757859Y70680546D01*
X13776638Y70684991D01*
X13776644Y70684993D01*
X13780996Y70686023D01*
X13782865Y70686758D01*
X13784826Y70687306D01*
X13823451Y70696843D01*
X13890140Y70713310D01*
X13890435Y70713371D01*
X13890797Y70713403D01*
X13891819Y70713657D01*
X13891823Y70713658D01*
X13929044Y70722915D01*
X13929252Y70722966D01*
X13962830Y70731257D01*
X13962841Y70731260D01*
X13963853Y70731510D01*
X13964182Y70731643D01*
X13964480Y70731728D01*
X14055598Y70754390D01*
X14158149Y70779894D01*
X14158416Y70779950D01*
X14158762Y70779982D01*
X14196532Y70789441D01*
X14196747Y70789432D01*
X14196732Y70789491D01*
X14230856Y70797977D01*
X14230863Y70797979D01*
X14231824Y70798218D01*
X14232141Y70798347D01*
X14232426Y70798429D01*
X14425953Y70846892D01*
X14426152Y70846934D01*
X14426396Y70846956D01*
X14427091Y70847131D01*
X14427101Y70847133D01*
X14464031Y70856427D01*
X14464171Y70856462D01*
X14498931Y70865167D01*
X14498936Y70865168D01*
X14499653Y70865348D01*
X14499888Y70865444D01*
X14500092Y70865503D01*
X14655284Y70904560D01*
X14693461Y70914168D01*
X14693568Y70914191D01*
X14693724Y70914205D01*
X14731717Y70923796D01*
X14767190Y70932723D01*
X14767335Y70932782D01*
X14767449Y70932815D01*
X14781073Y70936254D01*
X14802212Y70941590D01*
X14960681Y70981593D01*
X14960724Y70981602D01*
X14960778Y70981607D01*
X14960928Y70981645D01*
X14960938Y70981647D01*
X14997778Y70990957D01*
X14997778Y70990955D01*
X14997798Y70990962D01*
X15034456Y71000216D01*
X15034513Y71000239D01*
X15034550Y71000250D01*
X15263818Y71058189D01*
X15263841Y71058195D01*
X15532998Y71126159D01*
X15533078Y71126179D01*
X15799503Y71193269D01*
X15799506Y71193257D01*
X15799633Y71193302D01*
X15938704Y71228160D01*
X16065492Y71259939D01*
X16065682Y71259987D01*
X16331846Y71326260D01*
X16332092Y71326321D01*
X16577466Y71386895D01*
X16585958Y71388683D01*
X16796000Y71425416D01*
X16811747Y71427159D01*
X16894225Y71431064D01*
X17009921Y71436541D01*
X17023394Y71436457D01*
G37*
%TD.AperFunction*%
%TD*%
M02*
