G04 #@! TF.GenerationSoftware,KiCad,Pcbnew,(5.1.5)-3*
G04 #@! TF.CreationDate,2020-08-11T23:16:39-06:00*
G04 #@! TF.ProjectId,purplewizard,70757270-6c65-4776-997a-6172642e6b69,0.1*
G04 #@! TF.SameCoordinates,Original*
G04 #@! TF.FileFunction,Other,Fab,Top*
%FSLAX46Y46*%
G04 Gerber Fmt 4.6, Leading zero omitted, Abs format (unit mm)*
G04 Created by KiCad (PCBNEW (5.1.5)-3) date 2020-08-11 23:16:39*
%MOMM*%
%LPD*%
G04 APERTURE LIST*
%ADD10C,0.100000*%
%ADD11C,0.150000*%
%ADD12C,0.300000*%
%ADD13C,0.400000*%
%ADD14C,0.120000*%
%ADD15C,0.060000*%
%ADD16C,0.040000*%
G04 APERTURE END LIST*
D10*
D11*
X235600000Y-171900000D02*
X235600000Y-203900000D01*
X343600000Y-203900000D01*
X343600000Y-171900000D01*
X235600000Y-171900000D01*
D10*
D11*
X10000000Y-10000000D02*
X10000000Y-205900000D01*
X345600000Y-205900000D01*
X345600000Y-10000000D01*
X10000000Y-10000000D01*
D10*
D11*
X12000000Y-12000000D02*
X12000000Y-203900000D01*
X343600000Y-203900000D01*
X343600000Y-12000000D01*
X12000000Y-12000000D01*
D10*
D11*
X60000000Y-12000000D02*
X60000000Y-10000000D01*
D10*
D11*
X110000000Y-12000000D02*
X110000000Y-10000000D01*
D10*
D11*
X160000000Y-12000000D02*
X160000000Y-10000000D01*
D10*
D11*
X210000000Y-12000000D02*
X210000000Y-10000000D01*
D10*
D11*
X260000000Y-12000000D02*
X260000000Y-10000000D01*
D10*
D11*
X310000000Y-12000000D02*
X310000000Y-10000000D01*
D10*
D11*
X36065476Y-11588095D02*
X35322619Y-11588095D01*
X35694047Y-11588095D02*
X35694047Y-10288095D01*
X35570238Y-10473809D01*
X35446428Y-10597619D01*
X35322619Y-10659523D01*
D10*
D11*
X85322619Y-10411904D02*
X85384523Y-10350000D01*
X85508333Y-10288095D01*
X85817857Y-10288095D01*
X85941666Y-10350000D01*
X86003571Y-10411904D01*
X86065476Y-10535714D01*
X86065476Y-10659523D01*
X86003571Y-10845238D01*
X85260714Y-11588095D01*
X86065476Y-11588095D01*
D10*
D11*
X135260714Y-10288095D02*
X136065476Y-10288095D01*
X135632142Y-10783333D01*
X135817857Y-10783333D01*
X135941666Y-10845238D01*
X136003571Y-10907142D01*
X136065476Y-11030952D01*
X136065476Y-11340476D01*
X136003571Y-11464285D01*
X135941666Y-11526190D01*
X135817857Y-11588095D01*
X135446428Y-11588095D01*
X135322619Y-11526190D01*
X135260714Y-11464285D01*
D10*
D11*
X185941666Y-10721428D02*
X185941666Y-11588095D01*
X185632142Y-10226190D02*
X185322619Y-11154761D01*
X186127380Y-11154761D01*
D10*
D11*
X236003571Y-10288095D02*
X235384523Y-10288095D01*
X235322619Y-10907142D01*
X235384523Y-10845238D01*
X235508333Y-10783333D01*
X235817857Y-10783333D01*
X235941666Y-10845238D01*
X236003571Y-10907142D01*
X236065476Y-11030952D01*
X236065476Y-11340476D01*
X236003571Y-11464285D01*
X235941666Y-11526190D01*
X235817857Y-11588095D01*
X235508333Y-11588095D01*
X235384523Y-11526190D01*
X235322619Y-11464285D01*
D10*
D11*
X285941666Y-10288095D02*
X285694047Y-10288095D01*
X285570238Y-10350000D01*
X285508333Y-10411904D01*
X285384523Y-10597619D01*
X285322619Y-10845238D01*
X285322619Y-11340476D01*
X285384523Y-11464285D01*
X285446428Y-11526190D01*
X285570238Y-11588095D01*
X285817857Y-11588095D01*
X285941666Y-11526190D01*
X286003571Y-11464285D01*
X286065476Y-11340476D01*
X286065476Y-11030952D01*
X286003571Y-10907142D01*
X285941666Y-10845238D01*
X285817857Y-10783333D01*
X285570238Y-10783333D01*
X285446428Y-10845238D01*
X285384523Y-10907142D01*
X285322619Y-11030952D01*
D10*
D11*
X335260714Y-10288095D02*
X336127380Y-10288095D01*
X335570238Y-11588095D01*
D10*
D11*
X60000000Y-203900000D02*
X60000000Y-205900000D01*
D10*
D11*
X110000000Y-203900000D02*
X110000000Y-205900000D01*
D10*
D11*
X160000000Y-203900000D02*
X160000000Y-205900000D01*
D10*
D11*
X210000000Y-203900000D02*
X210000000Y-205900000D01*
D10*
D11*
X260000000Y-203900000D02*
X260000000Y-205900000D01*
D10*
D11*
X310000000Y-203900000D02*
X310000000Y-205900000D01*
D10*
D11*
X36065476Y-205488095D02*
X35322619Y-205488095D01*
X35694047Y-205488095D02*
X35694047Y-204188095D01*
X35570238Y-204373809D01*
X35446428Y-204497619D01*
X35322619Y-204559523D01*
D10*
D11*
X85322619Y-204311904D02*
X85384523Y-204250000D01*
X85508333Y-204188095D01*
X85817857Y-204188095D01*
X85941666Y-204250000D01*
X86003571Y-204311904D01*
X86065476Y-204435714D01*
X86065476Y-204559523D01*
X86003571Y-204745238D01*
X85260714Y-205488095D01*
X86065476Y-205488095D01*
D10*
D11*
X135260714Y-204188095D02*
X136065476Y-204188095D01*
X135632142Y-204683333D01*
X135817857Y-204683333D01*
X135941666Y-204745238D01*
X136003571Y-204807142D01*
X136065476Y-204930952D01*
X136065476Y-205240476D01*
X136003571Y-205364285D01*
X135941666Y-205426190D01*
X135817857Y-205488095D01*
X135446428Y-205488095D01*
X135322619Y-205426190D01*
X135260714Y-205364285D01*
D10*
D11*
X185941666Y-204621428D02*
X185941666Y-205488095D01*
X185632142Y-204126190D02*
X185322619Y-205054761D01*
X186127380Y-205054761D01*
D10*
D11*
X236003571Y-204188095D02*
X235384523Y-204188095D01*
X235322619Y-204807142D01*
X235384523Y-204745238D01*
X235508333Y-204683333D01*
X235817857Y-204683333D01*
X235941666Y-204745238D01*
X236003571Y-204807142D01*
X236065476Y-204930952D01*
X236065476Y-205240476D01*
X236003571Y-205364285D01*
X235941666Y-205426190D01*
X235817857Y-205488095D01*
X235508333Y-205488095D01*
X235384523Y-205426190D01*
X235322619Y-205364285D01*
D10*
D11*
X285941666Y-204188095D02*
X285694047Y-204188095D01*
X285570238Y-204250000D01*
X285508333Y-204311904D01*
X285384523Y-204497619D01*
X285322619Y-204745238D01*
X285322619Y-205240476D01*
X285384523Y-205364285D01*
X285446428Y-205426190D01*
X285570238Y-205488095D01*
X285817857Y-205488095D01*
X285941666Y-205426190D01*
X286003571Y-205364285D01*
X286065476Y-205240476D01*
X286065476Y-204930952D01*
X286003571Y-204807142D01*
X285941666Y-204745238D01*
X285817857Y-204683333D01*
X285570238Y-204683333D01*
X285446428Y-204745238D01*
X285384523Y-204807142D01*
X285322619Y-204930952D01*
D10*
D11*
X335260714Y-204188095D02*
X336127380Y-204188095D01*
X335570238Y-205488095D01*
D10*
D11*
X10000000Y-60000000D02*
X12000000Y-60000000D01*
D10*
D11*
X10000000Y-110000000D02*
X12000000Y-110000000D01*
D10*
D11*
X10000000Y-160000000D02*
X12000000Y-160000000D01*
D10*
D11*
X10690476Y-35216666D02*
X11309523Y-35216666D01*
X10566666Y-35588095D02*
X11000000Y-34288095D01*
X11433333Y-35588095D01*
D10*
D11*
X11092857Y-84907142D02*
X11278571Y-84969047D01*
X11340476Y-85030952D01*
X11402380Y-85154761D01*
X11402380Y-85340476D01*
X11340476Y-85464285D01*
X11278571Y-85526190D01*
X11154761Y-85588095D01*
X10659523Y-85588095D01*
X10659523Y-84288095D01*
X11092857Y-84288095D01*
X11216666Y-84350000D01*
X11278571Y-84411904D01*
X11340476Y-84535714D01*
X11340476Y-84659523D01*
X11278571Y-84783333D01*
X11216666Y-84845238D01*
X11092857Y-84907142D01*
X10659523Y-84907142D01*
D10*
D11*
X11402380Y-135464285D02*
X11340476Y-135526190D01*
X11154761Y-135588095D01*
X11030952Y-135588095D01*
X10845238Y-135526190D01*
X10721428Y-135402380D01*
X10659523Y-135278571D01*
X10597619Y-135030952D01*
X10597619Y-134845238D01*
X10659523Y-134597619D01*
X10721428Y-134473809D01*
X10845238Y-134350000D01*
X11030952Y-134288095D01*
X11154761Y-134288095D01*
X11340476Y-134350000D01*
X11402380Y-134411904D01*
D10*
D11*
X10659523Y-185588095D02*
X10659523Y-184288095D01*
X10969047Y-184288095D01*
X11154761Y-184350000D01*
X11278571Y-184473809D01*
X11340476Y-184597619D01*
X11402380Y-184845238D01*
X11402380Y-185030952D01*
X11340476Y-185278571D01*
X11278571Y-185402380D01*
X11154761Y-185526190D01*
X10969047Y-185588095D01*
X10659523Y-185588095D01*
D10*
D11*
X345600000Y-60000000D02*
X343600000Y-60000000D01*
D10*
D11*
X345600000Y-110000000D02*
X343600000Y-110000000D01*
D10*
D11*
X345600000Y-160000000D02*
X343600000Y-160000000D01*
D10*
D11*
X344290476Y-35216666D02*
X344909523Y-35216666D01*
X344166666Y-35588095D02*
X344600000Y-34288095D01*
X345033333Y-35588095D01*
D10*
D11*
X344692857Y-84907142D02*
X344878571Y-84969047D01*
X344940476Y-85030952D01*
X345002380Y-85154761D01*
X345002380Y-85340476D01*
X344940476Y-85464285D01*
X344878571Y-85526190D01*
X344754761Y-85588095D01*
X344259523Y-85588095D01*
X344259523Y-84288095D01*
X344692857Y-84288095D01*
X344816666Y-84350000D01*
X344878571Y-84411904D01*
X344940476Y-84535714D01*
X344940476Y-84659523D01*
X344878571Y-84783333D01*
X344816666Y-84845238D01*
X344692857Y-84907142D01*
X344259523Y-84907142D01*
D10*
D11*
X345002380Y-135464285D02*
X344940476Y-135526190D01*
X344754761Y-135588095D01*
X344630952Y-135588095D01*
X344445238Y-135526190D01*
X344321428Y-135402380D01*
X344259523Y-135278571D01*
X344197619Y-135030952D01*
X344197619Y-134845238D01*
X344259523Y-134597619D01*
X344321428Y-134473809D01*
X344445238Y-134350000D01*
X344630952Y-134288095D01*
X344754761Y-134288095D01*
X344940476Y-134350000D01*
X345002380Y-134411904D01*
D10*
D11*
X344259523Y-185588095D02*
X344259523Y-184288095D01*
X344569047Y-184288095D01*
X344754761Y-184350000D01*
X344878571Y-184473809D01*
X344940476Y-184597619D01*
X345002380Y-184845238D01*
X345002380Y-185030952D01*
X344940476Y-185278571D01*
X344878571Y-185402380D01*
X344754761Y-185526190D01*
X344569047Y-185588095D01*
X344259523Y-185588095D01*
D10*
D11*
X259032142Y-199678571D02*
X259032142Y-198178571D01*
X259389285Y-198178571D01*
X259603571Y-198250000D01*
X259746428Y-198392857D01*
X259817857Y-198535714D01*
X259889285Y-198821428D01*
X259889285Y-199035714D01*
X259817857Y-199321428D01*
X259746428Y-199464285D01*
X259603571Y-199607142D01*
X259389285Y-199678571D01*
X259032142Y-199678571D01*
X261175000Y-199678571D02*
X261175000Y-198892857D01*
X261103571Y-198750000D01*
X260960714Y-198678571D01*
X260675000Y-198678571D01*
X260532142Y-198750000D01*
X261175000Y-199607142D02*
X261032142Y-199678571D01*
X260675000Y-199678571D01*
X260532142Y-199607142D01*
X260460714Y-199464285D01*
X260460714Y-199321428D01*
X260532142Y-199178571D01*
X260675000Y-199107142D01*
X261032142Y-199107142D01*
X261175000Y-199035714D01*
X261675000Y-198678571D02*
X262246428Y-198678571D01*
X261889285Y-198178571D02*
X261889285Y-199464285D01*
X261960714Y-199607142D01*
X262103571Y-199678571D01*
X262246428Y-199678571D01*
X263317857Y-199607142D02*
X263175000Y-199678571D01*
X262889285Y-199678571D01*
X262746428Y-199607142D01*
X262675000Y-199464285D01*
X262675000Y-198892857D01*
X262746428Y-198750000D01*
X262889285Y-198678571D01*
X263175000Y-198678571D01*
X263317857Y-198750000D01*
X263389285Y-198892857D01*
X263389285Y-199035714D01*
X262675000Y-199178571D01*
X264032142Y-199535714D02*
X264103571Y-199607142D01*
X264032142Y-199678571D01*
X263960714Y-199607142D01*
X264032142Y-199535714D01*
X264032142Y-199678571D01*
X264032142Y-198750000D02*
X264103571Y-198821428D01*
X264032142Y-198892857D01*
X263960714Y-198821428D01*
X264032142Y-198750000D01*
X264032142Y-198892857D01*
X265817857Y-198321428D02*
X265889285Y-198250000D01*
X266032142Y-198178571D01*
X266389285Y-198178571D01*
X266532142Y-198250000D01*
X266603571Y-198321428D01*
X266675000Y-198464285D01*
X266675000Y-198607142D01*
X266603571Y-198821428D01*
X265746428Y-199678571D01*
X266675000Y-199678571D01*
X267603571Y-198178571D02*
X267746428Y-198178571D01*
X267889285Y-198250000D01*
X267960714Y-198321428D01*
X268032142Y-198464285D01*
X268103571Y-198750000D01*
X268103571Y-199107142D01*
X268032142Y-199392857D01*
X267960714Y-199535714D01*
X267889285Y-199607142D01*
X267746428Y-199678571D01*
X267603571Y-199678571D01*
X267460714Y-199607142D01*
X267389285Y-199535714D01*
X267317857Y-199392857D01*
X267246428Y-199107142D01*
X267246428Y-198750000D01*
X267317857Y-198464285D01*
X267389285Y-198321428D01*
X267460714Y-198250000D01*
X267603571Y-198178571D01*
X268675000Y-198321428D02*
X268746428Y-198250000D01*
X268889285Y-198178571D01*
X269246428Y-198178571D01*
X269389285Y-198250000D01*
X269460714Y-198321428D01*
X269532142Y-198464285D01*
X269532142Y-198607142D01*
X269460714Y-198821428D01*
X268603571Y-199678571D01*
X269532142Y-199678571D01*
X270460714Y-198178571D02*
X270603571Y-198178571D01*
X270746428Y-198250000D01*
X270817857Y-198321428D01*
X270889285Y-198464285D01*
X270960714Y-198750000D01*
X270960714Y-199107142D01*
X270889285Y-199392857D01*
X270817857Y-199535714D01*
X270746428Y-199607142D01*
X270603571Y-199678571D01*
X270460714Y-199678571D01*
X270317857Y-199607142D01*
X270246428Y-199535714D01*
X270175000Y-199392857D01*
X270103571Y-199107142D01*
X270103571Y-198750000D01*
X270175000Y-198464285D01*
X270246428Y-198321428D01*
X270317857Y-198250000D01*
X270460714Y-198178571D01*
X271603571Y-199107142D02*
X272746428Y-199107142D01*
X273746428Y-198178571D02*
X273889285Y-198178571D01*
X274032142Y-198250000D01*
X274103571Y-198321428D01*
X274175000Y-198464285D01*
X274246428Y-198750000D01*
X274246428Y-199107142D01*
X274175000Y-199392857D01*
X274103571Y-199535714D01*
X274032142Y-199607142D01*
X273889285Y-199678571D01*
X273746428Y-199678571D01*
X273603571Y-199607142D01*
X273532142Y-199535714D01*
X273460714Y-199392857D01*
X273389285Y-199107142D01*
X273389285Y-198750000D01*
X273460714Y-198464285D01*
X273532142Y-198321428D01*
X273603571Y-198250000D01*
X273746428Y-198178571D01*
X275103571Y-198821428D02*
X274960714Y-198750000D01*
X274889285Y-198678571D01*
X274817857Y-198535714D01*
X274817857Y-198464285D01*
X274889285Y-198321428D01*
X274960714Y-198250000D01*
X275103571Y-198178571D01*
X275389285Y-198178571D01*
X275532142Y-198250000D01*
X275603571Y-198321428D01*
X275675000Y-198464285D01*
X275675000Y-198535714D01*
X275603571Y-198678571D01*
X275532142Y-198750000D01*
X275389285Y-198821428D01*
X275103571Y-198821428D01*
X274960714Y-198892857D01*
X274889285Y-198964285D01*
X274817857Y-199107142D01*
X274817857Y-199392857D01*
X274889285Y-199535714D01*
X274960714Y-199607142D01*
X275103571Y-199678571D01*
X275389285Y-199678571D01*
X275532142Y-199607142D01*
X275603571Y-199535714D01*
X275675000Y-199392857D01*
X275675000Y-199107142D01*
X275603571Y-198964285D01*
X275532142Y-198892857D01*
X275389285Y-198821428D01*
X276317857Y-199107142D02*
X277460714Y-199107142D01*
X278460714Y-198178571D02*
X278603571Y-198178571D01*
X278746428Y-198250000D01*
X278817857Y-198321428D01*
X278889285Y-198464285D01*
X278960714Y-198750000D01*
X278960714Y-199107142D01*
X278889285Y-199392857D01*
X278817857Y-199535714D01*
X278746428Y-199607142D01*
X278603571Y-199678571D01*
X278460714Y-199678571D01*
X278317857Y-199607142D01*
X278246428Y-199535714D01*
X278175000Y-199392857D01*
X278103571Y-199107142D01*
X278103571Y-198750000D01*
X278175000Y-198464285D01*
X278246428Y-198321428D01*
X278317857Y-198250000D01*
X278460714Y-198178571D01*
X280389285Y-199678571D02*
X279532142Y-199678571D01*
X279960714Y-199678571D02*
X279960714Y-198178571D01*
X279817857Y-198392857D01*
X279675000Y-198535714D01*
X279532142Y-198607142D01*
D10*
D11*
X235600000Y-200400000D02*
X343600000Y-200400000D01*
D10*
D11*
X237032142Y-202478571D02*
X237032142Y-200978571D01*
X237889285Y-202478571D02*
X237246428Y-201621428D01*
X237889285Y-200978571D02*
X237032142Y-201835714D01*
X238532142Y-202478571D02*
X238532142Y-201478571D01*
X238532142Y-200978571D02*
X238460714Y-201050000D01*
X238532142Y-201121428D01*
X238603571Y-201050000D01*
X238532142Y-200978571D01*
X238532142Y-201121428D01*
X240103571Y-202335714D02*
X240032142Y-202407142D01*
X239817857Y-202478571D01*
X239675000Y-202478571D01*
X239460714Y-202407142D01*
X239317857Y-202264285D01*
X239246428Y-202121428D01*
X239175000Y-201835714D01*
X239175000Y-201621428D01*
X239246428Y-201335714D01*
X239317857Y-201192857D01*
X239460714Y-201050000D01*
X239675000Y-200978571D01*
X239817857Y-200978571D01*
X240032142Y-201050000D01*
X240103571Y-201121428D01*
X241389285Y-202478571D02*
X241389285Y-201692857D01*
X241317857Y-201550000D01*
X241175000Y-201478571D01*
X240889285Y-201478571D01*
X240746428Y-201550000D01*
X241389285Y-202407142D02*
X241246428Y-202478571D01*
X240889285Y-202478571D01*
X240746428Y-202407142D01*
X240675000Y-202264285D01*
X240675000Y-202121428D01*
X240746428Y-201978571D01*
X240889285Y-201907142D01*
X241246428Y-201907142D01*
X241389285Y-201835714D01*
X242746428Y-202478571D02*
X242746428Y-200978571D01*
X242746428Y-202407142D02*
X242603571Y-202478571D01*
X242317857Y-202478571D01*
X242175000Y-202407142D01*
X242103571Y-202335714D01*
X242032142Y-202192857D01*
X242032142Y-201764285D01*
X242103571Y-201621428D01*
X242175000Y-201550000D01*
X242317857Y-201478571D01*
X242603571Y-201478571D01*
X242746428Y-201550000D01*
X244603571Y-201692857D02*
X245103571Y-201692857D01*
X245317857Y-202478571D02*
X244603571Y-202478571D01*
X244603571Y-200978571D01*
X245317857Y-200978571D01*
X245960714Y-202335714D02*
X246032142Y-202407142D01*
X245960714Y-202478571D01*
X245889285Y-202407142D01*
X245960714Y-202335714D01*
X245960714Y-202478571D01*
X246675000Y-202478571D02*
X246675000Y-200978571D01*
X247032142Y-200978571D01*
X247246428Y-201050000D01*
X247389285Y-201192857D01*
X247460714Y-201335714D01*
X247532142Y-201621428D01*
X247532142Y-201835714D01*
X247460714Y-202121428D01*
X247389285Y-202264285D01*
X247246428Y-202407142D01*
X247032142Y-202478571D01*
X246675000Y-202478571D01*
X248175000Y-202335714D02*
X248246428Y-202407142D01*
X248175000Y-202478571D01*
X248103571Y-202407142D01*
X248175000Y-202335714D01*
X248175000Y-202478571D01*
X248817857Y-202050000D02*
X249532142Y-202050000D01*
X248675000Y-202478571D02*
X249175000Y-200978571D01*
X249675000Y-202478571D01*
X250175000Y-202335714D02*
X250246428Y-202407142D01*
X250175000Y-202478571D01*
X250103571Y-202407142D01*
X250175000Y-202335714D01*
X250175000Y-202478571D01*
X253175000Y-202478571D02*
X253175000Y-200978571D01*
X253317857Y-201907142D02*
X253746428Y-202478571D01*
X253746428Y-201478571D02*
X253175000Y-202050000D01*
X254389285Y-202478571D02*
X254389285Y-201478571D01*
X254389285Y-200978571D02*
X254317857Y-201050000D01*
X254389285Y-201121428D01*
X254460714Y-201050000D01*
X254389285Y-200978571D01*
X254389285Y-201121428D01*
X255746428Y-202407142D02*
X255603571Y-202478571D01*
X255317857Y-202478571D01*
X255175000Y-202407142D01*
X255103571Y-202335714D01*
X255032142Y-202192857D01*
X255032142Y-201764285D01*
X255103571Y-201621428D01*
X255175000Y-201550000D01*
X255317857Y-201478571D01*
X255603571Y-201478571D01*
X255746428Y-201550000D01*
X257032142Y-202478571D02*
X257032142Y-201692857D01*
X256960714Y-201550000D01*
X256817857Y-201478571D01*
X256532142Y-201478571D01*
X256389285Y-201550000D01*
X257032142Y-202407142D02*
X256889285Y-202478571D01*
X256532142Y-202478571D01*
X256389285Y-202407142D01*
X256317857Y-202264285D01*
X256317857Y-202121428D01*
X256389285Y-201978571D01*
X256532142Y-201907142D01*
X256889285Y-201907142D01*
X257032142Y-201835714D01*
X258389285Y-202478571D02*
X258389285Y-200978571D01*
X258389285Y-202407142D02*
X258246428Y-202478571D01*
X257960714Y-202478571D01*
X257817857Y-202407142D01*
X257746428Y-202335714D01*
X257675000Y-202192857D01*
X257675000Y-201764285D01*
X257746428Y-201621428D01*
X257817857Y-201550000D01*
X257960714Y-201478571D01*
X258246428Y-201478571D01*
X258389285Y-201550000D01*
X260675000Y-203050000D02*
X260603571Y-202978571D01*
X260460714Y-202764285D01*
X260389285Y-202621428D01*
X260317857Y-202407142D01*
X260246428Y-202050000D01*
X260246428Y-201764285D01*
X260317857Y-201407142D01*
X260389285Y-201192857D01*
X260460714Y-201050000D01*
X260603571Y-200835714D01*
X260675000Y-200764285D01*
X261960714Y-200978571D02*
X261246428Y-200978571D01*
X261175000Y-201692857D01*
X261246428Y-201621428D01*
X261389285Y-201550000D01*
X261746428Y-201550000D01*
X261889285Y-201621428D01*
X261960714Y-201692857D01*
X262032142Y-201835714D01*
X262032142Y-202192857D01*
X261960714Y-202335714D01*
X261889285Y-202407142D01*
X261746428Y-202478571D01*
X261389285Y-202478571D01*
X261246428Y-202407142D01*
X261175000Y-202335714D01*
X262675000Y-202335714D02*
X262746428Y-202407142D01*
X262675000Y-202478571D01*
X262603571Y-202407142D01*
X262675000Y-202335714D01*
X262675000Y-202478571D01*
X264175000Y-202478571D02*
X263317857Y-202478571D01*
X263746428Y-202478571D02*
X263746428Y-200978571D01*
X263603571Y-201192857D01*
X263460714Y-201335714D01*
X263317857Y-201407142D01*
X264817857Y-202335714D02*
X264889285Y-202407142D01*
X264817857Y-202478571D01*
X264746428Y-202407142D01*
X264817857Y-202335714D01*
X264817857Y-202478571D01*
X266246428Y-200978571D02*
X265532142Y-200978571D01*
X265460714Y-201692857D01*
X265532142Y-201621428D01*
X265675000Y-201550000D01*
X266032142Y-201550000D01*
X266175000Y-201621428D01*
X266246428Y-201692857D01*
X266317857Y-201835714D01*
X266317857Y-202192857D01*
X266246428Y-202335714D01*
X266175000Y-202407142D01*
X266032142Y-202478571D01*
X265675000Y-202478571D01*
X265532142Y-202407142D01*
X265460714Y-202335714D01*
X266817857Y-203050000D02*
X266889285Y-202978571D01*
X267032142Y-202764285D01*
X267103571Y-202621428D01*
X267175000Y-202407142D01*
X267246428Y-202050000D01*
X267246428Y-201764285D01*
X267175000Y-201407142D01*
X267103571Y-201192857D01*
X267032142Y-201050000D01*
X266889285Y-200835714D01*
X266817857Y-200764285D01*
X267960714Y-201907142D02*
X269103571Y-201907142D01*
X269675000Y-200978571D02*
X270603571Y-200978571D01*
X270103571Y-201550000D01*
X270317857Y-201550000D01*
X270460714Y-201621428D01*
X270532142Y-201692857D01*
X270603571Y-201835714D01*
X270603571Y-202192857D01*
X270532142Y-202335714D01*
X270460714Y-202407142D01*
X270317857Y-202478571D01*
X269889285Y-202478571D01*
X269746428Y-202407142D01*
X269675000Y-202335714D01*
D10*
D11*
X235600000Y-197400000D02*
X343600000Y-197400000D01*
D10*
D12*
X323009285Y-199678571D02*
X322509285Y-198964285D01*
X322152142Y-199678571D02*
X322152142Y-198178571D01*
X322723571Y-198178571D01*
X322866428Y-198250000D01*
X322937857Y-198321428D01*
X323009285Y-198464285D01*
X323009285Y-198678571D01*
X322937857Y-198821428D01*
X322866428Y-198892857D01*
X322723571Y-198964285D01*
X322152142Y-198964285D01*
X324223571Y-199607142D02*
X324080714Y-199678571D01*
X323795000Y-199678571D01*
X323652142Y-199607142D01*
X323580714Y-199464285D01*
X323580714Y-198892857D01*
X323652142Y-198750000D01*
X323795000Y-198678571D01*
X324080714Y-198678571D01*
X324223571Y-198750000D01*
X324295000Y-198892857D01*
X324295000Y-199035714D01*
X323580714Y-199178571D01*
X324795000Y-198678571D02*
X325152142Y-199678571D01*
X325509285Y-198678571D01*
X326080714Y-199535714D02*
X326152142Y-199607142D01*
X326080714Y-199678571D01*
X326009285Y-199607142D01*
X326080714Y-199535714D01*
X326080714Y-199678571D01*
X326080714Y-198750000D02*
X326152142Y-198821428D01*
X326080714Y-198892857D01*
X326009285Y-198821428D01*
X326080714Y-198750000D01*
X326080714Y-198892857D01*
X328223571Y-198178571D02*
X328366428Y-198178571D01*
X328509285Y-198250000D01*
X328580714Y-198321428D01*
X328652142Y-198464285D01*
X328723571Y-198750000D01*
X328723571Y-199107142D01*
X328652142Y-199392857D01*
X328580714Y-199535714D01*
X328509285Y-199607142D01*
X328366428Y-199678571D01*
X328223571Y-199678571D01*
X328080714Y-199607142D01*
X328009285Y-199535714D01*
X327937857Y-199392857D01*
X327866428Y-199107142D01*
X327866428Y-198750000D01*
X327937857Y-198464285D01*
X328009285Y-198321428D01*
X328080714Y-198250000D01*
X328223571Y-198178571D01*
X329366428Y-199535714D02*
X329437857Y-199607142D01*
X329366428Y-199678571D01*
X329295000Y-199607142D01*
X329366428Y-199535714D01*
X329366428Y-199678571D01*
X330866428Y-199678571D02*
X330009285Y-199678571D01*
X330437857Y-199678571D02*
X330437857Y-198178571D01*
X330295000Y-198392857D01*
X330152142Y-198535714D01*
X330009285Y-198607142D01*
D10*
D11*
X236960714Y-199607142D02*
X237175000Y-199678571D01*
X237532142Y-199678571D01*
X237675000Y-199607142D01*
X237746428Y-199535714D01*
X237817857Y-199392857D01*
X237817857Y-199250000D01*
X237746428Y-199107142D01*
X237675000Y-199035714D01*
X237532142Y-198964285D01*
X237246428Y-198892857D01*
X237103571Y-198821428D01*
X237032142Y-198750000D01*
X236960714Y-198607142D01*
X236960714Y-198464285D01*
X237032142Y-198321428D01*
X237103571Y-198250000D01*
X237246428Y-198178571D01*
X237603571Y-198178571D01*
X237817857Y-198250000D01*
X238460714Y-199678571D02*
X238460714Y-198678571D01*
X238460714Y-198178571D02*
X238389285Y-198250000D01*
X238460714Y-198321428D01*
X238532142Y-198250000D01*
X238460714Y-198178571D01*
X238460714Y-198321428D01*
X239032142Y-198678571D02*
X239817857Y-198678571D01*
X239032142Y-199678571D01*
X239817857Y-199678571D01*
X240960714Y-199607142D02*
X240817857Y-199678571D01*
X240532142Y-199678571D01*
X240389285Y-199607142D01*
X240317857Y-199464285D01*
X240317857Y-198892857D01*
X240389285Y-198750000D01*
X240532142Y-198678571D01*
X240817857Y-198678571D01*
X240960714Y-198750000D01*
X241032142Y-198892857D01*
X241032142Y-199035714D01*
X240317857Y-199178571D01*
X241675000Y-199535714D02*
X241746428Y-199607142D01*
X241675000Y-199678571D01*
X241603571Y-199607142D01*
X241675000Y-199535714D01*
X241675000Y-199678571D01*
X241675000Y-198750000D02*
X241746428Y-198821428D01*
X241675000Y-198892857D01*
X241603571Y-198821428D01*
X241675000Y-198750000D01*
X241675000Y-198892857D01*
X243532142Y-198178571D02*
X243532142Y-199392857D01*
X243603571Y-199535714D01*
X243675000Y-199607142D01*
X243817857Y-199678571D01*
X244103571Y-199678571D01*
X244246428Y-199607142D01*
X244317857Y-199535714D01*
X244389285Y-199392857D01*
X244389285Y-198178571D01*
X245032142Y-199607142D02*
X245246428Y-199678571D01*
X245603571Y-199678571D01*
X245746428Y-199607142D01*
X245817857Y-199535714D01*
X245889285Y-199392857D01*
X245889285Y-199250000D01*
X245817857Y-199107142D01*
X245746428Y-199035714D01*
X245603571Y-198964285D01*
X245317857Y-198892857D01*
X245175000Y-198821428D01*
X245103571Y-198750000D01*
X245032142Y-198607142D01*
X245032142Y-198464285D01*
X245103571Y-198321428D01*
X245175000Y-198250000D01*
X245317857Y-198178571D01*
X245675000Y-198178571D01*
X245889285Y-198250000D01*
X247246428Y-199678571D02*
X246532142Y-199678571D01*
X246532142Y-198178571D01*
X248317857Y-199607142D02*
X248175000Y-199678571D01*
X247889285Y-199678571D01*
X247746428Y-199607142D01*
X247675000Y-199464285D01*
X247675000Y-198892857D01*
X247746428Y-198750000D01*
X247889285Y-198678571D01*
X248175000Y-198678571D01*
X248317857Y-198750000D01*
X248389285Y-198892857D01*
X248389285Y-199035714D01*
X247675000Y-199178571D01*
X249675000Y-198678571D02*
X249675000Y-199892857D01*
X249603571Y-200035714D01*
X249532142Y-200107142D01*
X249389285Y-200178571D01*
X249175000Y-200178571D01*
X249032142Y-200107142D01*
X249675000Y-199607142D02*
X249532142Y-199678571D01*
X249246428Y-199678571D01*
X249103571Y-199607142D01*
X249032142Y-199535714D01*
X248960714Y-199392857D01*
X248960714Y-198964285D01*
X249032142Y-198821428D01*
X249103571Y-198750000D01*
X249246428Y-198678571D01*
X249532142Y-198678571D01*
X249675000Y-198750000D01*
X251032142Y-199678571D02*
X251032142Y-198892857D01*
X250960714Y-198750000D01*
X250817857Y-198678571D01*
X250532142Y-198678571D01*
X250389285Y-198750000D01*
X251032142Y-199607142D02*
X250889285Y-199678571D01*
X250532142Y-199678571D01*
X250389285Y-199607142D01*
X250317857Y-199464285D01*
X250317857Y-199321428D01*
X250389285Y-199178571D01*
X250532142Y-199107142D01*
X250889285Y-199107142D01*
X251032142Y-199035714D01*
X251960714Y-199678571D02*
X251817857Y-199607142D01*
X251746428Y-199464285D01*
X251746428Y-198178571D01*
D10*
D11*
X322032142Y-202478571D02*
X322032142Y-200978571D01*
X323389285Y-202478571D02*
X323389285Y-200978571D01*
X323389285Y-202407142D02*
X323246428Y-202478571D01*
X322960714Y-202478571D01*
X322817857Y-202407142D01*
X322746428Y-202335714D01*
X322675000Y-202192857D01*
X322675000Y-201764285D01*
X322746428Y-201621428D01*
X322817857Y-201550000D01*
X322960714Y-201478571D01*
X323246428Y-201478571D01*
X323389285Y-201550000D01*
X324103571Y-202335714D02*
X324175000Y-202407142D01*
X324103571Y-202478571D01*
X324032142Y-202407142D01*
X324103571Y-202335714D01*
X324103571Y-202478571D01*
X324103571Y-201550000D02*
X324175000Y-201621428D01*
X324103571Y-201692857D01*
X324032142Y-201621428D01*
X324103571Y-201550000D01*
X324103571Y-201692857D01*
X326746428Y-202478571D02*
X325889285Y-202478571D01*
X326317857Y-202478571D02*
X326317857Y-200978571D01*
X326175000Y-201192857D01*
X326032142Y-201335714D01*
X325889285Y-201407142D01*
X328460714Y-200907142D02*
X327175000Y-202835714D01*
X329746428Y-202478571D02*
X328889285Y-202478571D01*
X329317857Y-202478571D02*
X329317857Y-200978571D01*
X329175000Y-201192857D01*
X329032142Y-201335714D01*
X328889285Y-201407142D01*
D10*
D11*
X235600000Y-193400000D02*
X343600000Y-193400000D01*
D10*
D13*
X237312380Y-194104761D02*
X238455238Y-194104761D01*
X237633809Y-196104761D02*
X237883809Y-194104761D01*
X238871904Y-196104761D02*
X239038571Y-194771428D01*
X239121904Y-194104761D02*
X239014761Y-194200000D01*
X239098095Y-194295238D01*
X239205238Y-194200000D01*
X239121904Y-194104761D01*
X239098095Y-194295238D01*
X239705238Y-194771428D02*
X240467142Y-194771428D01*
X240074285Y-194104761D02*
X239860000Y-195819047D01*
X239931428Y-196009523D01*
X240110000Y-196104761D01*
X240300476Y-196104761D01*
X241252857Y-196104761D02*
X241074285Y-196009523D01*
X241002857Y-195819047D01*
X241217142Y-194104761D01*
X242788571Y-196009523D02*
X242586190Y-196104761D01*
X242205238Y-196104761D01*
X242026666Y-196009523D01*
X241955238Y-195819047D01*
X242050476Y-195057142D01*
X242169523Y-194866666D01*
X242371904Y-194771428D01*
X242752857Y-194771428D01*
X242931428Y-194866666D01*
X243002857Y-195057142D01*
X242979047Y-195247619D01*
X242002857Y-195438095D01*
X243752857Y-195914285D02*
X243836190Y-196009523D01*
X243729047Y-196104761D01*
X243645714Y-196009523D01*
X243752857Y-195914285D01*
X243729047Y-196104761D01*
X243883809Y-194866666D02*
X243967142Y-194961904D01*
X243860000Y-195057142D01*
X243776666Y-194961904D01*
X243883809Y-194866666D01*
X243860000Y-195057142D01*
X246205238Y-196104761D02*
X246455238Y-194104761D01*
X246931428Y-194104761D01*
X247205238Y-194200000D01*
X247371904Y-194390476D01*
X247443333Y-194580952D01*
X247490952Y-194961904D01*
X247455238Y-195247619D01*
X247312380Y-195628571D01*
X247193333Y-195819047D01*
X246979047Y-196009523D01*
X246681428Y-196104761D01*
X246205238Y-196104761D01*
X249371904Y-195914285D02*
X249264761Y-196009523D01*
X248967142Y-196104761D01*
X248776666Y-196104761D01*
X248502857Y-196009523D01*
X248336190Y-195819047D01*
X248264761Y-195628571D01*
X248217142Y-195247619D01*
X248252857Y-194961904D01*
X248395714Y-194580952D01*
X248514761Y-194390476D01*
X248729047Y-194200000D01*
X249026666Y-194104761D01*
X249217142Y-194104761D01*
X249490952Y-194200000D01*
X249574285Y-194295238D01*
X250633809Y-194961904D02*
X250455238Y-194866666D01*
X250371904Y-194771428D01*
X250300476Y-194580952D01*
X250312380Y-194485714D01*
X250431428Y-194295238D01*
X250538571Y-194200000D01*
X250740952Y-194104761D01*
X251121904Y-194104761D01*
X251300476Y-194200000D01*
X251383809Y-194295238D01*
X251455238Y-194485714D01*
X251443333Y-194580952D01*
X251324285Y-194771428D01*
X251217142Y-194866666D01*
X251014761Y-194961904D01*
X250633809Y-194961904D01*
X250431428Y-195057142D01*
X250324285Y-195152380D01*
X250205238Y-195342857D01*
X250157619Y-195723809D01*
X250229047Y-195914285D01*
X250312380Y-196009523D01*
X250490952Y-196104761D01*
X250871904Y-196104761D01*
X251074285Y-196009523D01*
X251181428Y-195914285D01*
X251300476Y-195723809D01*
X251348095Y-195342857D01*
X251276666Y-195152380D01*
X251193333Y-195057142D01*
X251014761Y-194961904D01*
X252740952Y-194104761D02*
X252931428Y-194104761D01*
X253110000Y-194200000D01*
X253193333Y-194295238D01*
X253264761Y-194485714D01*
X253312380Y-194866666D01*
X253252857Y-195342857D01*
X253110000Y-195723809D01*
X252990952Y-195914285D01*
X252883809Y-196009523D01*
X252681428Y-196104761D01*
X252490952Y-196104761D01*
X252312380Y-196009523D01*
X252229047Y-195914285D01*
X252157619Y-195723809D01*
X252110000Y-195342857D01*
X252169523Y-194866666D01*
X252312380Y-194485714D01*
X252431428Y-194295238D01*
X252538571Y-194200000D01*
X252740952Y-194104761D01*
X255062380Y-196104761D02*
X253919523Y-196104761D01*
X254490952Y-196104761D02*
X254740952Y-194104761D01*
X254514761Y-194390476D01*
X254300476Y-194580952D01*
X254098095Y-194676190D01*
X258240952Y-195057142D02*
X258514761Y-195152380D01*
X258598095Y-195247619D01*
X258669523Y-195438095D01*
X258633809Y-195723809D01*
X258514761Y-195914285D01*
X258407619Y-196009523D01*
X258205238Y-196104761D01*
X257443333Y-196104761D01*
X257693333Y-194104761D01*
X258360000Y-194104761D01*
X258538571Y-194200000D01*
X258621904Y-194295238D01*
X258693333Y-194485714D01*
X258669523Y-194676190D01*
X258550476Y-194866666D01*
X258443333Y-194961904D01*
X258240952Y-195057142D01*
X257574285Y-195057142D01*
X260300476Y-196104761D02*
X260431428Y-195057142D01*
X260360000Y-194866666D01*
X260181428Y-194771428D01*
X259800476Y-194771428D01*
X259598095Y-194866666D01*
X260312380Y-196009523D02*
X260110000Y-196104761D01*
X259633809Y-196104761D01*
X259455238Y-196009523D01*
X259383809Y-195819047D01*
X259407619Y-195628571D01*
X259526666Y-195438095D01*
X259729047Y-195342857D01*
X260205238Y-195342857D01*
X260407619Y-195247619D01*
X262110000Y-196104761D02*
X262360000Y-194104761D01*
X262121904Y-196009523D02*
X261919523Y-196104761D01*
X261538571Y-196104761D01*
X261360000Y-196009523D01*
X261276666Y-195914285D01*
X261205238Y-195723809D01*
X261276666Y-195152380D01*
X261395714Y-194961904D01*
X261502857Y-194866666D01*
X261705238Y-194771428D01*
X262086190Y-194771428D01*
X262264761Y-194866666D01*
X264086190Y-194771428D02*
X263883809Y-196390476D01*
X263764761Y-196580952D01*
X263657619Y-196676190D01*
X263455238Y-196771428D01*
X263169523Y-196771428D01*
X262990952Y-196676190D01*
X263931428Y-196009523D02*
X263729047Y-196104761D01*
X263348095Y-196104761D01*
X263169523Y-196009523D01*
X263086190Y-195914285D01*
X263014761Y-195723809D01*
X263086190Y-195152380D01*
X263205238Y-194961904D01*
X263312380Y-194866666D01*
X263514761Y-194771428D01*
X263895714Y-194771428D01*
X264074285Y-194866666D01*
X265645714Y-196009523D02*
X265443333Y-196104761D01*
X265062380Y-196104761D01*
X264883809Y-196009523D01*
X264812380Y-195819047D01*
X264907619Y-195057142D01*
X265026666Y-194866666D01*
X265229047Y-194771428D01*
X265610000Y-194771428D01*
X265788571Y-194866666D01*
X265860000Y-195057142D01*
X265836190Y-195247619D01*
X264860000Y-195438095D01*
X268205238Y-195342857D02*
X269729047Y-195342857D01*
X272907619Y-195057142D02*
X273181428Y-195152380D01*
X273264761Y-195247619D01*
X273336190Y-195438095D01*
X273300476Y-195723809D01*
X273181428Y-195914285D01*
X273074285Y-196009523D01*
X272871904Y-196104761D01*
X272110000Y-196104761D01*
X272360000Y-194104761D01*
X273026666Y-194104761D01*
X273205238Y-194200000D01*
X273288571Y-194295238D01*
X273360000Y-194485714D01*
X273336190Y-194676190D01*
X273217142Y-194866666D01*
X273110000Y-194961904D01*
X272907619Y-195057142D01*
X272240952Y-195057142D01*
X274110000Y-196104761D02*
X274360000Y-194104761D01*
X274848095Y-195533333D01*
X275693333Y-194104761D01*
X275443333Y-196104761D01*
D10*
D11*
X237532142Y-191492857D02*
X237032142Y-191492857D01*
X237032142Y-192278571D02*
X237032142Y-190778571D01*
X237746428Y-190778571D01*
X238317857Y-192278571D02*
X238317857Y-191278571D01*
X238317857Y-190778571D02*
X238246428Y-190850000D01*
X238317857Y-190921428D01*
X238389285Y-190850000D01*
X238317857Y-190778571D01*
X238317857Y-190921428D01*
X239246428Y-192278571D02*
X239103571Y-192207142D01*
X239032142Y-192064285D01*
X239032142Y-190778571D01*
X240389285Y-192207142D02*
X240246428Y-192278571D01*
X239960714Y-192278571D01*
X239817857Y-192207142D01*
X239746428Y-192064285D01*
X239746428Y-191492857D01*
X239817857Y-191350000D01*
X239960714Y-191278571D01*
X240246428Y-191278571D01*
X240389285Y-191350000D01*
X240460714Y-191492857D01*
X240460714Y-191635714D01*
X239746428Y-191778571D01*
X241103571Y-192135714D02*
X241175000Y-192207142D01*
X241103571Y-192278571D01*
X241032142Y-192207142D01*
X241103571Y-192135714D01*
X241103571Y-192278571D01*
X241103571Y-191350000D02*
X241175000Y-191421428D01*
X241103571Y-191492857D01*
X241032142Y-191421428D01*
X241103571Y-191350000D01*
X241103571Y-191492857D01*
X242960714Y-191278571D02*
X242960714Y-192778571D01*
X242960714Y-191350000D02*
X243103571Y-191278571D01*
X243389285Y-191278571D01*
X243532142Y-191350000D01*
X243603571Y-191421428D01*
X243675000Y-191564285D01*
X243675000Y-191992857D01*
X243603571Y-192135714D01*
X243532142Y-192207142D01*
X243389285Y-192278571D01*
X243103571Y-192278571D01*
X242960714Y-192207142D01*
X244960714Y-191278571D02*
X244960714Y-192278571D01*
X244317857Y-191278571D02*
X244317857Y-192064285D01*
X244389285Y-192207142D01*
X244532142Y-192278571D01*
X244746428Y-192278571D01*
X244889285Y-192207142D01*
X244960714Y-192135714D01*
X245675000Y-192278571D02*
X245675000Y-191278571D01*
X245675000Y-191564285D02*
X245746428Y-191421428D01*
X245817857Y-191350000D01*
X245960714Y-191278571D01*
X246103571Y-191278571D01*
X246603571Y-191278571D02*
X246603571Y-192778571D01*
X246603571Y-191350000D02*
X246746428Y-191278571D01*
X247032142Y-191278571D01*
X247175000Y-191350000D01*
X247246428Y-191421428D01*
X247317857Y-191564285D01*
X247317857Y-191992857D01*
X247246428Y-192135714D01*
X247175000Y-192207142D01*
X247032142Y-192278571D01*
X246746428Y-192278571D01*
X246603571Y-192207142D01*
X248175000Y-192278571D02*
X248032142Y-192207142D01*
X247960714Y-192064285D01*
X247960714Y-190778571D01*
X249317857Y-192207142D02*
X249175000Y-192278571D01*
X248889285Y-192278571D01*
X248746428Y-192207142D01*
X248675000Y-192064285D01*
X248675000Y-191492857D01*
X248746428Y-191350000D01*
X248889285Y-191278571D01*
X249175000Y-191278571D01*
X249317857Y-191350000D01*
X249389285Y-191492857D01*
X249389285Y-191635714D01*
X248675000Y-191778571D01*
X249889285Y-191278571D02*
X250175000Y-192278571D01*
X250460714Y-191564285D01*
X250746428Y-192278571D01*
X251032142Y-191278571D01*
X251603571Y-192278571D02*
X251603571Y-191278571D01*
X251603571Y-190778571D02*
X251532142Y-190850000D01*
X251603571Y-190921428D01*
X251675000Y-190850000D01*
X251603571Y-190778571D01*
X251603571Y-190921428D01*
X252175000Y-191278571D02*
X252960714Y-191278571D01*
X252175000Y-192278571D01*
X252960714Y-192278571D01*
X254175000Y-192278571D02*
X254175000Y-191492857D01*
X254103571Y-191350000D01*
X253960714Y-191278571D01*
X253675000Y-191278571D01*
X253532142Y-191350000D01*
X254175000Y-192207142D02*
X254032142Y-192278571D01*
X253675000Y-192278571D01*
X253532142Y-192207142D01*
X253460714Y-192064285D01*
X253460714Y-191921428D01*
X253532142Y-191778571D01*
X253675000Y-191707142D01*
X254032142Y-191707142D01*
X254175000Y-191635714D01*
X254889285Y-192278571D02*
X254889285Y-191278571D01*
X254889285Y-191564285D02*
X254960714Y-191421428D01*
X255032142Y-191350000D01*
X255175000Y-191278571D01*
X255317857Y-191278571D01*
X256460714Y-192278571D02*
X256460714Y-190778571D01*
X256460714Y-192207142D02*
X256317857Y-192278571D01*
X256032142Y-192278571D01*
X255889285Y-192207142D01*
X255817857Y-192135714D01*
X255746428Y-191992857D01*
X255746428Y-191564285D01*
X255817857Y-191421428D01*
X255889285Y-191350000D01*
X256032142Y-191278571D01*
X256317857Y-191278571D01*
X256460714Y-191350000D01*
X257175000Y-192135714D02*
X257246428Y-192207142D01*
X257175000Y-192278571D01*
X257103571Y-192207142D01*
X257175000Y-192135714D01*
X257175000Y-192278571D01*
X257889285Y-192278571D02*
X257889285Y-190778571D01*
X258032142Y-191707142D02*
X258460714Y-192278571D01*
X258460714Y-191278571D02*
X257889285Y-191850000D01*
X259103571Y-192278571D02*
X259103571Y-191278571D01*
X259103571Y-190778571D02*
X259032142Y-190850000D01*
X259103571Y-190921428D01*
X259175000Y-190850000D01*
X259103571Y-190778571D01*
X259103571Y-190921428D01*
X260460714Y-192207142D02*
X260317857Y-192278571D01*
X260032142Y-192278571D01*
X259889285Y-192207142D01*
X259817857Y-192135714D01*
X259746428Y-191992857D01*
X259746428Y-191564285D01*
X259817857Y-191421428D01*
X259889285Y-191350000D01*
X260032142Y-191278571D01*
X260317857Y-191278571D01*
X260460714Y-191350000D01*
X261746428Y-192278571D02*
X261746428Y-191492857D01*
X261675000Y-191350000D01*
X261532142Y-191278571D01*
X261246428Y-191278571D01*
X261103571Y-191350000D01*
X261746428Y-192207142D02*
X261603571Y-192278571D01*
X261246428Y-192278571D01*
X261103571Y-192207142D01*
X261032142Y-192064285D01*
X261032142Y-191921428D01*
X261103571Y-191778571D01*
X261246428Y-191707142D01*
X261603571Y-191707142D01*
X261746428Y-191635714D01*
X263103571Y-192278571D02*
X263103571Y-190778571D01*
X263103571Y-192207142D02*
X262960714Y-192278571D01*
X262675000Y-192278571D01*
X262532142Y-192207142D01*
X262460714Y-192135714D01*
X262389285Y-191992857D01*
X262389285Y-191564285D01*
X262460714Y-191421428D01*
X262532142Y-191350000D01*
X262675000Y-191278571D01*
X262960714Y-191278571D01*
X263103571Y-191350000D01*
X263460714Y-192421428D02*
X264603571Y-192421428D01*
X264960714Y-191278571D02*
X264960714Y-192778571D01*
X264960714Y-191350000D02*
X265103571Y-191278571D01*
X265389285Y-191278571D01*
X265532142Y-191350000D01*
X265603571Y-191421428D01*
X265675000Y-191564285D01*
X265675000Y-191992857D01*
X265603571Y-192135714D01*
X265532142Y-192207142D01*
X265389285Y-192278571D01*
X265103571Y-192278571D01*
X264960714Y-192207142D01*
X266960714Y-192207142D02*
X266817857Y-192278571D01*
X266532142Y-192278571D01*
X266389285Y-192207142D01*
X266317857Y-192135714D01*
X266246428Y-191992857D01*
X266246428Y-191564285D01*
X266317857Y-191421428D01*
X266389285Y-191350000D01*
X266532142Y-191278571D01*
X266817857Y-191278571D01*
X266960714Y-191350000D01*
X267603571Y-192278571D02*
X267603571Y-190778571D01*
X267603571Y-191350000D02*
X267746428Y-191278571D01*
X268032142Y-191278571D01*
X268175000Y-191350000D01*
X268246428Y-191421428D01*
X268317857Y-191564285D01*
X268317857Y-191992857D01*
X268246428Y-192135714D01*
X268175000Y-192207142D01*
X268032142Y-192278571D01*
X267746428Y-192278571D01*
X267603571Y-192207142D01*
D10*
D11*
X235600000Y-187400000D02*
X343600000Y-187400000D01*
D10*
D11*
X236960714Y-189507142D02*
X237175000Y-189578571D01*
X237532142Y-189578571D01*
X237675000Y-189507142D01*
X237746428Y-189435714D01*
X237817857Y-189292857D01*
X237817857Y-189150000D01*
X237746428Y-189007142D01*
X237675000Y-188935714D01*
X237532142Y-188864285D01*
X237246428Y-188792857D01*
X237103571Y-188721428D01*
X237032142Y-188650000D01*
X236960714Y-188507142D01*
X236960714Y-188364285D01*
X237032142Y-188221428D01*
X237103571Y-188150000D01*
X237246428Y-188078571D01*
X237603571Y-188078571D01*
X237817857Y-188150000D01*
X238460714Y-189578571D02*
X238460714Y-188078571D01*
X239103571Y-189578571D02*
X239103571Y-188792857D01*
X239032142Y-188650000D01*
X238889285Y-188578571D01*
X238675000Y-188578571D01*
X238532142Y-188650000D01*
X238460714Y-188721428D01*
X240389285Y-189507142D02*
X240246428Y-189578571D01*
X239960714Y-189578571D01*
X239817857Y-189507142D01*
X239746428Y-189364285D01*
X239746428Y-188792857D01*
X239817857Y-188650000D01*
X239960714Y-188578571D01*
X240246428Y-188578571D01*
X240389285Y-188650000D01*
X240460714Y-188792857D01*
X240460714Y-188935714D01*
X239746428Y-189078571D01*
X241675000Y-189507142D02*
X241532142Y-189578571D01*
X241246428Y-189578571D01*
X241103571Y-189507142D01*
X241032142Y-189364285D01*
X241032142Y-188792857D01*
X241103571Y-188650000D01*
X241246428Y-188578571D01*
X241532142Y-188578571D01*
X241675000Y-188650000D01*
X241746428Y-188792857D01*
X241746428Y-188935714D01*
X241032142Y-189078571D01*
X242175000Y-188578571D02*
X242746428Y-188578571D01*
X242389285Y-188078571D02*
X242389285Y-189364285D01*
X242460714Y-189507142D01*
X242603571Y-189578571D01*
X242746428Y-189578571D01*
X243246428Y-189435714D02*
X243317857Y-189507142D01*
X243246428Y-189578571D01*
X243175000Y-189507142D01*
X243246428Y-189435714D01*
X243246428Y-189578571D01*
X243246428Y-188650000D02*
X243317857Y-188721428D01*
X243246428Y-188792857D01*
X243175000Y-188721428D01*
X243246428Y-188650000D01*
X243246428Y-188792857D01*
D10*
D12*
X237152142Y-186578571D02*
X237152142Y-185078571D01*
X237509285Y-185078571D01*
X237723571Y-185150000D01*
X237866428Y-185292857D01*
X237937857Y-185435714D01*
X238009285Y-185721428D01*
X238009285Y-185935714D01*
X237937857Y-186221428D01*
X237866428Y-186364285D01*
X237723571Y-186507142D01*
X237509285Y-186578571D01*
X237152142Y-186578571D01*
X239509285Y-186435714D02*
X239437857Y-186507142D01*
X239223571Y-186578571D01*
X239080714Y-186578571D01*
X238866428Y-186507142D01*
X238723571Y-186364285D01*
X238652142Y-186221428D01*
X238580714Y-185935714D01*
X238580714Y-185721428D01*
X238652142Y-185435714D01*
X238723571Y-185292857D01*
X238866428Y-185150000D01*
X239080714Y-185078571D01*
X239223571Y-185078571D01*
X239437857Y-185150000D01*
X239509285Y-185221428D01*
X240366428Y-185721428D02*
X240223571Y-185650000D01*
X240152142Y-185578571D01*
X240080714Y-185435714D01*
X240080714Y-185364285D01*
X240152142Y-185221428D01*
X240223571Y-185150000D01*
X240366428Y-185078571D01*
X240652142Y-185078571D01*
X240795000Y-185150000D01*
X240866428Y-185221428D01*
X240937857Y-185364285D01*
X240937857Y-185435714D01*
X240866428Y-185578571D01*
X240795000Y-185650000D01*
X240652142Y-185721428D01*
X240366428Y-185721428D01*
X240223571Y-185792857D01*
X240152142Y-185864285D01*
X240080714Y-186007142D01*
X240080714Y-186292857D01*
X240152142Y-186435714D01*
X240223571Y-186507142D01*
X240366428Y-186578571D01*
X240652142Y-186578571D01*
X240795000Y-186507142D01*
X240866428Y-186435714D01*
X240937857Y-186292857D01*
X240937857Y-186007142D01*
X240866428Y-185864285D01*
X240795000Y-185792857D01*
X240652142Y-185721428D01*
X241866428Y-185078571D02*
X242009285Y-185078571D01*
X242152142Y-185150000D01*
X242223571Y-185221428D01*
X242295000Y-185364285D01*
X242366428Y-185650000D01*
X242366428Y-186007142D01*
X242295000Y-186292857D01*
X242223571Y-186435714D01*
X242152142Y-186507142D01*
X242009285Y-186578571D01*
X241866428Y-186578571D01*
X241723571Y-186507142D01*
X241652142Y-186435714D01*
X241580714Y-186292857D01*
X241509285Y-186007142D01*
X241509285Y-185650000D01*
X241580714Y-185364285D01*
X241652142Y-185221428D01*
X241723571Y-185150000D01*
X241866428Y-185078571D01*
X243795000Y-186578571D02*
X242937857Y-186578571D01*
X243366428Y-186578571D02*
X243366428Y-185078571D01*
X243223571Y-185292857D01*
X243080714Y-185435714D01*
X242937857Y-185507142D01*
D10*
D11*
X237675000Y-183507142D02*
X237532142Y-183578571D01*
X237246428Y-183578571D01*
X237103571Y-183507142D01*
X237032142Y-183435714D01*
X236960714Y-183292857D01*
X236960714Y-182864285D01*
X237032142Y-182721428D01*
X237103571Y-182650000D01*
X237246428Y-182578571D01*
X237532142Y-182578571D01*
X237675000Y-182650000D01*
X238532142Y-183578571D02*
X238389285Y-183507142D01*
X238317857Y-183435714D01*
X238246428Y-183292857D01*
X238246428Y-182864285D01*
X238317857Y-182721428D01*
X238389285Y-182650000D01*
X238532142Y-182578571D01*
X238746428Y-182578571D01*
X238889285Y-182650000D01*
X238960714Y-182721428D01*
X239032142Y-182864285D01*
X239032142Y-183292857D01*
X238960714Y-183435714D01*
X238889285Y-183507142D01*
X238746428Y-183578571D01*
X238532142Y-183578571D01*
X240317857Y-183578571D02*
X240317857Y-182078571D01*
X240317857Y-183507142D02*
X240175000Y-183578571D01*
X239889285Y-183578571D01*
X239746428Y-183507142D01*
X239675000Y-183435714D01*
X239603571Y-183292857D01*
X239603571Y-182864285D01*
X239675000Y-182721428D01*
X239746428Y-182650000D01*
X239889285Y-182578571D01*
X240175000Y-182578571D01*
X240317857Y-182650000D01*
X241603571Y-183507142D02*
X241460714Y-183578571D01*
X241175000Y-183578571D01*
X241032142Y-183507142D01*
X240960714Y-183364285D01*
X240960714Y-182792857D01*
X241032142Y-182650000D01*
X241175000Y-182578571D01*
X241460714Y-182578571D01*
X241603571Y-182650000D01*
X241675000Y-182792857D01*
X241675000Y-182935714D01*
X240960714Y-183078571D01*
X242317857Y-182578571D02*
X242317857Y-183578571D01*
X242317857Y-182721428D02*
X242389285Y-182650000D01*
X242532142Y-182578571D01*
X242746428Y-182578571D01*
X242889285Y-182650000D01*
X242960714Y-182792857D01*
X242960714Y-183578571D01*
X244317857Y-183578571D02*
X244317857Y-182792857D01*
X244246428Y-182650000D01*
X244103571Y-182578571D01*
X243817857Y-182578571D01*
X243675000Y-182650000D01*
X244317857Y-183507142D02*
X244175000Y-183578571D01*
X243817857Y-183578571D01*
X243675000Y-183507142D01*
X243603571Y-183364285D01*
X243603571Y-183221428D01*
X243675000Y-183078571D01*
X243817857Y-183007142D01*
X244175000Y-183007142D01*
X244317857Y-182935714D01*
X245032142Y-183578571D02*
X245032142Y-182578571D01*
X245032142Y-182721428D02*
X245103571Y-182650000D01*
X245246428Y-182578571D01*
X245460714Y-182578571D01*
X245603571Y-182650000D01*
X245675000Y-182792857D01*
X245675000Y-183578571D01*
X245675000Y-182792857D02*
X245746428Y-182650000D01*
X245889285Y-182578571D01*
X246103571Y-182578571D01*
X246246428Y-182650000D01*
X246317857Y-182792857D01*
X246317857Y-183578571D01*
X247603571Y-183507142D02*
X247460714Y-183578571D01*
X247175000Y-183578571D01*
X247032142Y-183507142D01*
X246960714Y-183364285D01*
X246960714Y-182792857D01*
X247032142Y-182650000D01*
X247175000Y-182578571D01*
X247460714Y-182578571D01*
X247603571Y-182650000D01*
X247675000Y-182792857D01*
X247675000Y-182935714D01*
X246960714Y-183078571D01*
X249460714Y-182578571D02*
X249460714Y-184078571D01*
X249460714Y-182650000D02*
X249603571Y-182578571D01*
X249889285Y-182578571D01*
X250032142Y-182650000D01*
X250103571Y-182721428D01*
X250175000Y-182864285D01*
X250175000Y-183292857D01*
X250103571Y-183435714D01*
X250032142Y-183507142D01*
X249889285Y-183578571D01*
X249603571Y-183578571D01*
X249460714Y-183507142D01*
X251460714Y-182578571D02*
X251460714Y-183578571D01*
X250817857Y-182578571D02*
X250817857Y-183364285D01*
X250889285Y-183507142D01*
X251032142Y-183578571D01*
X251246428Y-183578571D01*
X251389285Y-183507142D01*
X251460714Y-183435714D01*
X252175000Y-183578571D02*
X252175000Y-182578571D01*
X252175000Y-182864285D02*
X252246428Y-182721428D01*
X252317857Y-182650000D01*
X252460714Y-182578571D01*
X252603571Y-182578571D01*
X253103571Y-182578571D02*
X253103571Y-184078571D01*
X253103571Y-182650000D02*
X253246428Y-182578571D01*
X253532142Y-182578571D01*
X253675000Y-182650000D01*
X253746428Y-182721428D01*
X253817857Y-182864285D01*
X253817857Y-183292857D01*
X253746428Y-183435714D01*
X253675000Y-183507142D01*
X253532142Y-183578571D01*
X253246428Y-183578571D01*
X253103571Y-183507142D01*
X254675000Y-183578571D02*
X254532142Y-183507142D01*
X254460714Y-183364285D01*
X254460714Y-182078571D01*
X255817857Y-183507142D02*
X255675000Y-183578571D01*
X255389285Y-183578571D01*
X255246428Y-183507142D01*
X255175000Y-183364285D01*
X255175000Y-182792857D01*
X255246428Y-182650000D01*
X255389285Y-182578571D01*
X255675000Y-182578571D01*
X255817857Y-182650000D01*
X255889285Y-182792857D01*
X255889285Y-182935714D01*
X255175000Y-183078571D01*
X256389285Y-182578571D02*
X256675000Y-183578571D01*
X256960714Y-182864285D01*
X257246428Y-183578571D01*
X257532142Y-182578571D01*
X258103571Y-183578571D02*
X258103571Y-182578571D01*
X258103571Y-182078571D02*
X258032142Y-182150000D01*
X258103571Y-182221428D01*
X258175000Y-182150000D01*
X258103571Y-182078571D01*
X258103571Y-182221428D01*
X258675000Y-182578571D02*
X259460714Y-182578571D01*
X258675000Y-183578571D01*
X259460714Y-183578571D01*
X260675000Y-183578571D02*
X260675000Y-182792857D01*
X260603571Y-182650000D01*
X260460714Y-182578571D01*
X260175000Y-182578571D01*
X260032142Y-182650000D01*
X260675000Y-183507142D02*
X260532142Y-183578571D01*
X260175000Y-183578571D01*
X260032142Y-183507142D01*
X259960714Y-183364285D01*
X259960714Y-183221428D01*
X260032142Y-183078571D01*
X260175000Y-183007142D01*
X260532142Y-183007142D01*
X260675000Y-182935714D01*
X261389285Y-183578571D02*
X261389285Y-182578571D01*
X261389285Y-182864285D02*
X261460714Y-182721428D01*
X261532142Y-182650000D01*
X261675000Y-182578571D01*
X261817857Y-182578571D01*
X262960714Y-183578571D02*
X262960714Y-182078571D01*
X262960714Y-183507142D02*
X262817857Y-183578571D01*
X262532142Y-183578571D01*
X262389285Y-183507142D01*
X262317857Y-183435714D01*
X262246428Y-183292857D01*
X262246428Y-182864285D01*
X262317857Y-182721428D01*
X262389285Y-182650000D01*
X262532142Y-182578571D01*
X262817857Y-182578571D01*
X262960714Y-182650000D01*
D10*
D11*
X237960714Y-173864285D02*
X237889285Y-173792857D01*
X237746428Y-173721428D01*
X237603571Y-173721428D01*
X237460714Y-173792857D01*
X237389285Y-173864285D01*
X237317857Y-174007142D01*
X237317857Y-174150000D01*
X237389285Y-174292857D01*
X237460714Y-174364285D01*
X237603571Y-174435714D01*
X237746428Y-174435714D01*
X237889285Y-174364285D01*
X237960714Y-174292857D01*
X237960714Y-173721428D02*
X237960714Y-174292857D01*
X238032142Y-174364285D01*
X238103571Y-174364285D01*
X238246428Y-174292857D01*
X238317857Y-174150000D01*
X238317857Y-173792857D01*
X238175000Y-173578571D01*
X237960714Y-173435714D01*
X237675000Y-173364285D01*
X237389285Y-173435714D01*
X237175000Y-173578571D01*
X237032142Y-173792857D01*
X236960714Y-174078571D01*
X237032142Y-174364285D01*
X237175000Y-174578571D01*
X237389285Y-174721428D01*
X237675000Y-174792857D01*
X237960714Y-174721428D01*
X238175000Y-174578571D01*
X238960714Y-174578571D02*
X238960714Y-173078571D01*
X239603571Y-174578571D02*
X239603571Y-173792857D01*
X239532142Y-173650000D01*
X239389285Y-173578571D01*
X239175000Y-173578571D01*
X239032142Y-173650000D01*
X238960714Y-173721428D01*
X240960714Y-174578571D02*
X240960714Y-173792857D01*
X240889285Y-173650000D01*
X240746428Y-173578571D01*
X240460714Y-173578571D01*
X240317857Y-173650000D01*
X240960714Y-174507142D02*
X240817857Y-174578571D01*
X240460714Y-174578571D01*
X240317857Y-174507142D01*
X240246428Y-174364285D01*
X240246428Y-174221428D01*
X240317857Y-174078571D01*
X240460714Y-174007142D01*
X240817857Y-174007142D01*
X240960714Y-173935714D01*
X241675000Y-174578571D02*
X241675000Y-173578571D01*
X241675000Y-173721428D02*
X241746428Y-173650000D01*
X241889285Y-173578571D01*
X242103571Y-173578571D01*
X242246428Y-173650000D01*
X242317857Y-173792857D01*
X242317857Y-174578571D01*
X242317857Y-173792857D02*
X242389285Y-173650000D01*
X242532142Y-173578571D01*
X242746428Y-173578571D01*
X242889285Y-173650000D01*
X242960714Y-173792857D01*
X242960714Y-174578571D01*
X243603571Y-174507142D02*
X243746428Y-174578571D01*
X244032142Y-174578571D01*
X244175000Y-174507142D01*
X244246428Y-174364285D01*
X244246428Y-174292857D01*
X244175000Y-174150000D01*
X244032142Y-174078571D01*
X243817857Y-174078571D01*
X243675000Y-174007142D01*
X243603571Y-173864285D01*
X243603571Y-173792857D01*
X243675000Y-173650000D01*
X243817857Y-173578571D01*
X244032142Y-173578571D01*
X244175000Y-173650000D01*
X244675000Y-173578571D02*
X245246428Y-173578571D01*
X244889285Y-173078571D02*
X244889285Y-174364285D01*
X244960714Y-174507142D01*
X245103571Y-174578571D01*
X245246428Y-174578571D01*
X246317857Y-174507142D02*
X246175000Y-174578571D01*
X245889285Y-174578571D01*
X245746428Y-174507142D01*
X245675000Y-174364285D01*
X245675000Y-173792857D01*
X245746428Y-173650000D01*
X245889285Y-173578571D01*
X246175000Y-173578571D01*
X246317857Y-173650000D01*
X246389285Y-173792857D01*
X246389285Y-173935714D01*
X245675000Y-174078571D01*
X247032142Y-174578571D02*
X247032142Y-173578571D01*
X247032142Y-173864285D02*
X247103571Y-173721428D01*
X247175000Y-173650000D01*
X247317857Y-173578571D01*
X247460714Y-173578571D01*
X249746428Y-174578571D02*
X249746428Y-173792857D01*
X249675000Y-173650000D01*
X249532142Y-173578571D01*
X249246428Y-173578571D01*
X249103571Y-173650000D01*
X249746428Y-174507142D02*
X249603571Y-174578571D01*
X249246428Y-174578571D01*
X249103571Y-174507142D01*
X249032142Y-174364285D01*
X249032142Y-174221428D01*
X249103571Y-174078571D01*
X249246428Y-174007142D01*
X249603571Y-174007142D01*
X249746428Y-173935714D01*
X250460714Y-173578571D02*
X250460714Y-174578571D01*
X250460714Y-173721428D02*
X250532142Y-173650000D01*
X250675000Y-173578571D01*
X250889285Y-173578571D01*
X251032142Y-173650000D01*
X251103571Y-173792857D01*
X251103571Y-174578571D01*
X252460714Y-174578571D02*
X252460714Y-173078571D01*
X252460714Y-174507142D02*
X252317857Y-174578571D01*
X252032142Y-174578571D01*
X251889285Y-174507142D01*
X251817857Y-174435714D01*
X251746428Y-174292857D01*
X251746428Y-173864285D01*
X251817857Y-173721428D01*
X251889285Y-173650000D01*
X252032142Y-173578571D01*
X252317857Y-173578571D01*
X252460714Y-173650000D01*
X254103571Y-173578571D02*
X254675000Y-173578571D01*
X254317857Y-173078571D02*
X254317857Y-174364285D01*
X254389285Y-174507142D01*
X254532142Y-174578571D01*
X254675000Y-174578571D01*
X255175000Y-174578571D02*
X255175000Y-173078571D01*
X255817857Y-174578571D02*
X255817857Y-173792857D01*
X255746428Y-173650000D01*
X255603571Y-173578571D01*
X255389285Y-173578571D01*
X255246428Y-173650000D01*
X255175000Y-173721428D01*
X257103571Y-174507142D02*
X256960714Y-174578571D01*
X256675000Y-174578571D01*
X256532142Y-174507142D01*
X256460714Y-174364285D01*
X256460714Y-173792857D01*
X256532142Y-173650000D01*
X256675000Y-173578571D01*
X256960714Y-173578571D01*
X257103571Y-173650000D01*
X257175000Y-173792857D01*
X257175000Y-173935714D01*
X256460714Y-174078571D01*
X259603571Y-174578571D02*
X259603571Y-173078571D01*
X259603571Y-174507142D02*
X259460714Y-174578571D01*
X259175000Y-174578571D01*
X259032142Y-174507142D01*
X258960714Y-174435714D01*
X258889285Y-174292857D01*
X258889285Y-173864285D01*
X258960714Y-173721428D01*
X259032142Y-173650000D01*
X259175000Y-173578571D01*
X259460714Y-173578571D01*
X259603571Y-173650000D01*
X260960714Y-174507142D02*
X260817857Y-174578571D01*
X260532142Y-174578571D01*
X260389285Y-174507142D01*
X260317857Y-174435714D01*
X260246428Y-174292857D01*
X260246428Y-173864285D01*
X260317857Y-173721428D01*
X260389285Y-173650000D01*
X260532142Y-173578571D01*
X260817857Y-173578571D01*
X260960714Y-173650000D01*
X261817857Y-173721428D02*
X261675000Y-173650000D01*
X261603571Y-173578571D01*
X261532142Y-173435714D01*
X261532142Y-173364285D01*
X261603571Y-173221428D01*
X261675000Y-173150000D01*
X261817857Y-173078571D01*
X262103571Y-173078571D01*
X262246428Y-173150000D01*
X262317857Y-173221428D01*
X262389285Y-173364285D01*
X262389285Y-173435714D01*
X262317857Y-173578571D01*
X262246428Y-173650000D01*
X262103571Y-173721428D01*
X261817857Y-173721428D01*
X261675000Y-173792857D01*
X261603571Y-173864285D01*
X261532142Y-174007142D01*
X261532142Y-174292857D01*
X261603571Y-174435714D01*
X261675000Y-174507142D01*
X261817857Y-174578571D01*
X262103571Y-174578571D01*
X262246428Y-174507142D01*
X262317857Y-174435714D01*
X262389285Y-174292857D01*
X262389285Y-174007142D01*
X262317857Y-173864285D01*
X262246428Y-173792857D01*
X262103571Y-173721428D01*
X263317857Y-173078571D02*
X263460714Y-173078571D01*
X263603571Y-173150000D01*
X263675000Y-173221428D01*
X263746428Y-173364285D01*
X263817857Y-173650000D01*
X263817857Y-174007142D01*
X263746428Y-174292857D01*
X263675000Y-174435714D01*
X263603571Y-174507142D01*
X263460714Y-174578571D01*
X263317857Y-174578571D01*
X263175000Y-174507142D01*
X263103571Y-174435714D01*
X263032142Y-174292857D01*
X262960714Y-174007142D01*
X262960714Y-173650000D01*
X263032142Y-173364285D01*
X263103571Y-173221428D01*
X263175000Y-173150000D01*
X263317857Y-173078571D01*
X265246428Y-174578571D02*
X264389285Y-174578571D01*
X264817857Y-174578571D02*
X264817857Y-173078571D01*
X264675000Y-173292857D01*
X264532142Y-173435714D01*
X264389285Y-173507142D01*
X267032142Y-174578571D02*
X267032142Y-173078571D01*
X267032142Y-173650000D02*
X267175000Y-173578571D01*
X267460714Y-173578571D01*
X267603571Y-173650000D01*
X267675000Y-173721428D01*
X267746428Y-173864285D01*
X267746428Y-174292857D01*
X267675000Y-174435714D01*
X267603571Y-174507142D01*
X267460714Y-174578571D01*
X267175000Y-174578571D01*
X267032142Y-174507142D01*
X269032142Y-174578571D02*
X269032142Y-173792857D01*
X268960714Y-173650000D01*
X268817857Y-173578571D01*
X268532142Y-173578571D01*
X268389285Y-173650000D01*
X269032142Y-174507142D02*
X268889285Y-174578571D01*
X268532142Y-174578571D01*
X268389285Y-174507142D01*
X268317857Y-174364285D01*
X268317857Y-174221428D01*
X268389285Y-174078571D01*
X268532142Y-174007142D01*
X268889285Y-174007142D01*
X269032142Y-173935714D01*
X270389285Y-174578571D02*
X270389285Y-173078571D01*
X270389285Y-174507142D02*
X270246428Y-174578571D01*
X269960714Y-174578571D01*
X269817857Y-174507142D01*
X269746428Y-174435714D01*
X269675000Y-174292857D01*
X269675000Y-173864285D01*
X269746428Y-173721428D01*
X269817857Y-173650000D01*
X269960714Y-173578571D01*
X270246428Y-173578571D01*
X270389285Y-173650000D01*
X271746428Y-173578571D02*
X271746428Y-174792857D01*
X271675000Y-174935714D01*
X271603571Y-175007142D01*
X271460714Y-175078571D01*
X271246428Y-175078571D01*
X271103571Y-175007142D01*
X271746428Y-174507142D02*
X271603571Y-174578571D01*
X271317857Y-174578571D01*
X271175000Y-174507142D01*
X271103571Y-174435714D01*
X271032142Y-174292857D01*
X271032142Y-173864285D01*
X271103571Y-173721428D01*
X271175000Y-173650000D01*
X271317857Y-173578571D01*
X271603571Y-173578571D01*
X271746428Y-173650000D01*
X273032142Y-174507142D02*
X272889285Y-174578571D01*
X272603571Y-174578571D01*
X272460714Y-174507142D01*
X272389285Y-174364285D01*
X272389285Y-173792857D01*
X272460714Y-173650000D01*
X272603571Y-173578571D01*
X272889285Y-173578571D01*
X273032142Y-173650000D01*
X273103571Y-173792857D01*
X273103571Y-173935714D01*
X272389285Y-174078571D01*
X274675000Y-173578571D02*
X275246428Y-173578571D01*
X274889285Y-173078571D02*
X274889285Y-174364285D01*
X274960714Y-174507142D01*
X275103571Y-174578571D01*
X275246428Y-174578571D01*
X276317857Y-174507142D02*
X276175000Y-174578571D01*
X275889285Y-174578571D01*
X275746428Y-174507142D01*
X275675000Y-174364285D01*
X275675000Y-173792857D01*
X275746428Y-173650000D01*
X275889285Y-173578571D01*
X276175000Y-173578571D01*
X276317857Y-173650000D01*
X276389285Y-173792857D01*
X276389285Y-173935714D01*
X275675000Y-174078571D01*
X277675000Y-174578571D02*
X277675000Y-173792857D01*
X277603571Y-173650000D01*
X277460714Y-173578571D01*
X277175000Y-173578571D01*
X277032142Y-173650000D01*
X277675000Y-174507142D02*
X277532142Y-174578571D01*
X277175000Y-174578571D01*
X277032142Y-174507142D01*
X276960714Y-174364285D01*
X276960714Y-174221428D01*
X277032142Y-174078571D01*
X277175000Y-174007142D01*
X277532142Y-174007142D01*
X277675000Y-173935714D01*
X278389285Y-174578571D02*
X278389285Y-173578571D01*
X278389285Y-173721428D02*
X278460714Y-173650000D01*
X278603571Y-173578571D01*
X278817857Y-173578571D01*
X278960714Y-173650000D01*
X279032142Y-173792857D01*
X279032142Y-174578571D01*
X279032142Y-173792857D02*
X279103571Y-173650000D01*
X279246428Y-173578571D01*
X279460714Y-173578571D01*
X279603571Y-173650000D01*
X279675000Y-173792857D01*
X279675000Y-174578571D01*
D10*
D11*
X255600000Y-197400000D02*
X255600000Y-200400000D01*
D10*
D11*
X319600000Y-197400000D02*
X319600000Y-203900000D01*
X166873333Y-125266666D02*
X167349523Y-125266666D01*
X166778095Y-125552380D02*
X167111428Y-124552380D01*
X167444761Y-125552380D01*
X167778095Y-125552380D02*
X167778095Y-124552380D01*
X168111428Y-125266666D01*
X168444761Y-124552380D01*
X168444761Y-125552380D01*
X169254285Y-125028571D02*
X169397142Y-125076190D01*
X169444761Y-125123809D01*
X169492380Y-125219047D01*
X169492380Y-125361904D01*
X169444761Y-125457142D01*
X169397142Y-125504761D01*
X169301904Y-125552380D01*
X168920952Y-125552380D01*
X168920952Y-124552380D01*
X169254285Y-124552380D01*
X169349523Y-124600000D01*
X169397142Y-124647619D01*
X169444761Y-124742857D01*
X169444761Y-124838095D01*
X169397142Y-124933333D01*
X169349523Y-124980952D01*
X169254285Y-125028571D01*
X168920952Y-125028571D01*
X169920952Y-125028571D02*
X170254285Y-125028571D01*
X170397142Y-125552380D02*
X169920952Y-125552380D01*
X169920952Y-124552380D01*
X170397142Y-124552380D01*
X171397142Y-125552380D02*
X171063809Y-125076190D01*
X170825714Y-125552380D02*
X170825714Y-124552380D01*
X171206666Y-124552380D01*
X171301904Y-124600000D01*
X171349523Y-124647619D01*
X171397142Y-124742857D01*
X171397142Y-124885714D01*
X171349523Y-124980952D01*
X171301904Y-125028571D01*
X171206666Y-125076190D01*
X170825714Y-125076190D01*
D14*
X118336000Y-76247200D02*
X118336000Y-120247200D01*
X178336000Y-120247200D02*
X178336000Y-76247200D01*
X118336000Y-120247200D02*
X178336000Y-120247200D01*
X118336000Y-76247200D02*
X178336000Y-76247200D01*
D10*
X116471600Y-95404466D02*
X116471600Y-94604466D01*
X114871600Y-95404466D02*
X116471600Y-95404466D01*
X114871600Y-94904466D02*
X114871600Y-95404466D01*
X115171600Y-94604466D02*
X114871600Y-94904466D01*
X116471600Y-94604466D02*
X115171600Y-94604466D01*
X116471600Y-102448732D02*
X116471600Y-101648732D01*
X114871600Y-102448732D02*
X116471600Y-102448732D01*
X114871600Y-101948732D02*
X114871600Y-102448732D01*
X115171600Y-101648732D02*
X114871600Y-101948732D01*
X116471600Y-101648732D02*
X115171600Y-101648732D01*
X180302000Y-101352400D02*
X180302000Y-102152400D01*
X181902000Y-101352400D02*
X180302000Y-101352400D01*
X181902000Y-101852400D02*
X181902000Y-101352400D01*
X181602000Y-102152400D02*
X181902000Y-101852400D01*
X180302000Y-102152400D02*
X181602000Y-102152400D01*
X137227228Y-123755200D02*
X137227228Y-124555200D01*
X138827228Y-123755200D02*
X137227228Y-123755200D01*
X138827228Y-124255200D02*
X138827228Y-123755200D01*
X138527228Y-124555200D02*
X138827228Y-124255200D01*
X137227228Y-124555200D02*
X138527228Y-124555200D01*
X134925600Y-41743600D02*
X134925600Y-40943600D01*
X133325600Y-41743600D02*
X134925600Y-41743600D01*
X133325600Y-41243600D02*
X133325600Y-41743600D01*
X133625600Y-40943600D02*
X133325600Y-41243600D01*
X134925600Y-40943600D02*
X133625600Y-40943600D01*
X116446200Y-109493000D02*
X116446200Y-108693000D01*
X114846200Y-109493000D02*
X116446200Y-109493000D01*
X114846200Y-108993000D02*
X114846200Y-109493000D01*
X115146200Y-108693000D02*
X114846200Y-108993000D01*
X116446200Y-108693000D02*
X115146200Y-108693000D01*
X165715600Y-41803600D02*
X165715600Y-41003600D01*
X164115600Y-41803600D02*
X165715600Y-41803600D01*
X164115600Y-41303600D02*
X164115600Y-41803600D01*
X164415600Y-41003600D02*
X164115600Y-41303600D01*
X165715600Y-41003600D02*
X164415600Y-41003600D01*
X116471600Y-88360200D02*
X116471600Y-87560200D01*
X114871600Y-88360200D02*
X116471600Y-88360200D01*
X114871600Y-87860200D02*
X114871600Y-88360200D01*
X115171600Y-87560200D02*
X114871600Y-87860200D01*
X116471600Y-87560200D02*
X115171600Y-87560200D01*
X130227714Y-123755200D02*
X130227714Y-124555200D01*
X131827714Y-123755200D02*
X130227714Y-123755200D01*
X131827714Y-124255200D02*
X131827714Y-123755200D01*
X131527714Y-124555200D02*
X131827714Y-124255200D01*
X130227714Y-124555200D02*
X131527714Y-124555200D01*
X165225284Y-123755200D02*
X165225284Y-124555200D01*
X166825284Y-123755200D02*
X165225284Y-123755200D01*
X166825284Y-124255200D02*
X166825284Y-123755200D01*
X166525284Y-124555200D02*
X166825284Y-124255200D01*
X165225284Y-124555200D02*
X166525284Y-124555200D01*
X151226256Y-123755200D02*
X151226256Y-124555200D01*
X152826256Y-123755200D02*
X151226256Y-123755200D01*
X152826256Y-124255200D02*
X152826256Y-123755200D01*
X152526256Y-124555200D02*
X152826256Y-124255200D01*
X151226256Y-124555200D02*
X152526256Y-124555200D01*
X123228200Y-123755200D02*
X123228200Y-124555200D01*
X124828200Y-123755200D02*
X123228200Y-123755200D01*
X124828200Y-124255200D02*
X124828200Y-123755200D01*
X124528200Y-124555200D02*
X124828200Y-124255200D01*
X123228200Y-124555200D02*
X124528200Y-124555200D01*
X180302000Y-94291200D02*
X180302000Y-95091200D01*
X181902000Y-94291200D02*
X180302000Y-94291200D01*
X181902000Y-94791200D02*
X181902000Y-94291200D01*
X181602000Y-95091200D02*
X181902000Y-94791200D01*
X180302000Y-95091200D02*
X181602000Y-95091200D01*
X158225770Y-123755200D02*
X158225770Y-124555200D01*
X159825770Y-123755200D02*
X158225770Y-123755200D01*
X159825770Y-124255200D02*
X159825770Y-123755200D01*
X159525770Y-124555200D02*
X159825770Y-124255200D01*
X158225770Y-124555200D02*
X159525770Y-124555200D01*
X180302000Y-87230000D02*
X180302000Y-88030000D01*
X181902000Y-87230000D02*
X180302000Y-87230000D01*
X181902000Y-87730000D02*
X181902000Y-87230000D01*
X181602000Y-88030000D02*
X181902000Y-87730000D01*
X180302000Y-88030000D02*
X181602000Y-88030000D01*
X157035400Y-39617600D02*
X157035400Y-38817600D01*
X155435400Y-39617600D02*
X157035400Y-39617600D01*
X155435400Y-39117600D02*
X155435400Y-39617600D01*
X155735400Y-38817600D02*
X155435400Y-39117600D01*
X157035400Y-38817600D02*
X155735400Y-38817600D01*
X111066314Y-99527340D02*
G75*
G03X111066314Y-99527340I-1750714J0D01*
G01*
X112315600Y-96527340D02*
X106315600Y-96527340D01*
X112315600Y-102527340D02*
X112315600Y-96527340D01*
X106315600Y-102527340D02*
X112315600Y-102527340D01*
X106315600Y-96527340D02*
X106315600Y-102527340D01*
X146726656Y-129921000D02*
G75*
G03X146726656Y-129921000I-1750714J0D01*
G01*
X141975942Y-126921000D02*
X141975942Y-132921000D01*
X147975942Y-126921000D02*
X141975942Y-126921000D01*
X147975942Y-132921000D02*
X147975942Y-126921000D01*
X141975942Y-132921000D02*
X147975942Y-132921000D01*
X189300034Y-85573400D02*
G75*
G03X189300034Y-85573400I-1750714J0D01*
G01*
X190549320Y-82573400D02*
X184549320Y-82573400D01*
X190549320Y-88573400D02*
X190549320Y-82573400D01*
X184549320Y-88573400D02*
X190549320Y-88573400D01*
X184549320Y-82573400D02*
X184549320Y-88573400D01*
X189300034Y-92580646D02*
G75*
G03X189300034Y-92580646I-1750714J0D01*
G01*
X190549320Y-89580646D02*
X184549320Y-89580646D01*
X190549320Y-95580646D02*
X190549320Y-89580646D01*
X184549320Y-95580646D02*
X190549320Y-95580646D01*
X184549320Y-89580646D02*
X184549320Y-95580646D01*
X174663754Y-129921000D02*
G75*
G03X174663754Y-129921000I-1750714J0D01*
G01*
X169913040Y-126921000D02*
X169913040Y-132921000D01*
X175913040Y-126921000D02*
X169913040Y-126921000D01*
X175913040Y-132921000D02*
X175913040Y-126921000D01*
X169913040Y-132921000D02*
X175913040Y-132921000D01*
X167679478Y-129921000D02*
G75*
G03X167679478Y-129921000I-1750714J0D01*
G01*
X162928764Y-126921000D02*
X162928764Y-132921000D01*
X168928764Y-126921000D02*
X162928764Y-126921000D01*
X168928764Y-132921000D02*
X168928764Y-126921000D01*
X162928764Y-132921000D02*
X168928764Y-132921000D01*
X160695204Y-129921000D02*
G75*
G03X160695204Y-129921000I-1750714J0D01*
G01*
X155944490Y-126921000D02*
X155944490Y-132921000D01*
X161944490Y-126921000D02*
X155944490Y-126921000D01*
X161944490Y-132921000D02*
X161944490Y-126921000D01*
X155944490Y-132921000D02*
X161944490Y-132921000D01*
X111066314Y-106513600D02*
G75*
G03X111066314Y-106513600I-1750714J0D01*
G01*
X112315600Y-103513600D02*
X106315600Y-103513600D01*
X112315600Y-109513600D02*
X112315600Y-103513600D01*
X106315600Y-109513600D02*
X112315600Y-109513600D01*
X106315600Y-103513600D02*
X106315600Y-109513600D01*
X132758108Y-129921000D02*
G75*
G03X132758108Y-129921000I-1750714J0D01*
G01*
X128007394Y-126921000D02*
X128007394Y-132921000D01*
X134007394Y-126921000D02*
X128007394Y-126921000D01*
X134007394Y-132921000D02*
X134007394Y-126921000D01*
X128007394Y-132921000D02*
X134007394Y-132921000D01*
X189300034Y-99587892D02*
G75*
G03X189300034Y-99587892I-1750714J0D01*
G01*
X190549320Y-96587892D02*
X184549320Y-96587892D01*
X190549320Y-102587892D02*
X190549320Y-96587892D01*
X184549320Y-102587892D02*
X190549320Y-102587892D01*
X184549320Y-96587892D02*
X184549320Y-102587892D01*
X189300034Y-106595140D02*
G75*
G03X189300034Y-106595140I-1750714J0D01*
G01*
X190549320Y-103595140D02*
X184549320Y-103595140D01*
X190549320Y-109595140D02*
X190549320Y-103595140D01*
X184549320Y-109595140D02*
X190549320Y-109595140D01*
X184549320Y-103595140D02*
X184549320Y-109595140D01*
X111066314Y-92541080D02*
G75*
G03X111066314Y-92541080I-1750714J0D01*
G01*
X112315600Y-89541080D02*
X106315600Y-89541080D01*
X112315600Y-95541080D02*
X112315600Y-89541080D01*
X106315600Y-95541080D02*
X112315600Y-95541080D01*
X106315600Y-89541080D02*
X106315600Y-95541080D01*
X153710930Y-129921000D02*
G75*
G03X153710930Y-129921000I-1750714J0D01*
G01*
X148960216Y-126921000D02*
X148960216Y-132921000D01*
X154960216Y-126921000D02*
X148960216Y-126921000D01*
X154960216Y-132921000D02*
X154960216Y-126921000D01*
X148960216Y-132921000D02*
X154960216Y-132921000D01*
X125773834Y-129921000D02*
G75*
G03X125773834Y-129921000I-1750714J0D01*
G01*
X121023120Y-126921000D02*
X121023120Y-132921000D01*
X127023120Y-126921000D02*
X121023120Y-126921000D01*
X127023120Y-132921000D02*
X127023120Y-126921000D01*
X121023120Y-132921000D02*
X127023120Y-132921000D01*
X111066314Y-85554820D02*
G75*
G03X111066314Y-85554820I-1750714J0D01*
G01*
X112315600Y-82554820D02*
X106315600Y-82554820D01*
X112315600Y-88554820D02*
X112315600Y-82554820D01*
X106315600Y-88554820D02*
X112315600Y-88554820D01*
X106315600Y-82554820D02*
X106315600Y-88554820D01*
X139742382Y-129921000D02*
G75*
G03X139742382Y-129921000I-1750714J0D01*
G01*
X134991668Y-126921000D02*
X134991668Y-132921000D01*
X140991668Y-126921000D02*
X134991668Y-126921000D01*
X140991668Y-132921000D02*
X140991668Y-126921000D01*
X134991668Y-132921000D02*
X140991668Y-132921000D01*
X144226742Y-123755200D02*
X144226742Y-124555200D01*
X145826742Y-123755200D02*
X144226742Y-123755200D01*
X145826742Y-124255200D02*
X145826742Y-123755200D01*
X145526742Y-124555200D02*
X145826742Y-124255200D01*
X144226742Y-124555200D02*
X145526742Y-124555200D01*
X180251200Y-108413600D02*
X180251200Y-109213600D01*
X181851200Y-108413600D02*
X180251200Y-108413600D01*
X181851200Y-108913600D02*
X181851200Y-108413600D01*
X181551200Y-109213600D02*
X181851200Y-108913600D01*
X180251200Y-109213600D02*
X181551200Y-109213600D01*
X172224800Y-123755200D02*
X172224800Y-124555200D01*
X173824800Y-123755200D02*
X172224800Y-123755200D01*
X173824800Y-124255200D02*
X173824800Y-123755200D01*
X173524800Y-124555200D02*
X173824800Y-124255200D01*
X172224800Y-124555200D02*
X173524800Y-124555200D01*
X107155600Y-70983600D02*
G75*
G03X107155600Y-70983600I-750000J0D01*
G01*
X190805600Y-154103600D02*
G75*
G03X190805600Y-154103600I-750000J0D01*
G01*
X160934400Y-169926000D02*
X135534400Y-169926000D01*
X160934400Y-164846000D02*
X160934400Y-169926000D01*
X136534400Y-164846000D02*
X160934400Y-164846000D01*
X135534400Y-165846000D02*
X136534400Y-164846000D01*
X135534400Y-169926000D02*
X135534400Y-165846000D01*
D11*
X115028742Y-96886846D02*
X114552552Y-96886846D01*
X114552552Y-95886846D01*
X115362076Y-96363037D02*
X115695409Y-96363037D01*
X115838266Y-96886846D02*
X115362076Y-96886846D01*
X115362076Y-95886846D01*
X115838266Y-95886846D01*
X116266838Y-96886846D02*
X116266838Y-95886846D01*
X116504933Y-95886846D01*
X116647790Y-95934466D01*
X116743028Y-96029704D01*
X116790647Y-96124942D01*
X116838266Y-96315418D01*
X116838266Y-96458275D01*
X116790647Y-96648751D01*
X116743028Y-96743989D01*
X116647790Y-96839227D01*
X116504933Y-96886846D01*
X116266838Y-96886846D01*
D15*
X115185885Y-95185418D02*
X115185885Y-94785418D01*
X115281123Y-94785418D01*
X115338266Y-94804466D01*
X115376361Y-94842561D01*
X115395409Y-94880656D01*
X115414457Y-94956846D01*
X115414457Y-95013989D01*
X115395409Y-95090180D01*
X115376361Y-95128275D01*
X115338266Y-95166370D01*
X115281123Y-95185418D01*
X115185885Y-95185418D01*
X115795409Y-95185418D02*
X115566838Y-95185418D01*
X115681123Y-95185418D02*
X115681123Y-94785418D01*
X115643028Y-94842561D01*
X115604933Y-94880656D01*
X115566838Y-94899704D01*
X116043028Y-94785418D02*
X116081123Y-94785418D01*
X116119219Y-94804466D01*
X116138266Y-94823513D01*
X116157314Y-94861608D01*
X116176361Y-94937799D01*
X116176361Y-95033037D01*
X116157314Y-95109227D01*
X116138266Y-95147323D01*
X116119219Y-95166370D01*
X116081123Y-95185418D01*
X116043028Y-95185418D01*
X116004933Y-95166370D01*
X115985885Y-95147323D01*
X115966838Y-95109227D01*
X115947790Y-95033037D01*
X115947790Y-94937799D01*
X115966838Y-94861608D01*
X115985885Y-94823513D01*
X116004933Y-94804466D01*
X116043028Y-94785418D01*
D11*
X115028742Y-103931112D02*
X114552552Y-103931112D01*
X114552552Y-102931112D01*
X115362076Y-103407303D02*
X115695409Y-103407303D01*
X115838266Y-103931112D02*
X115362076Y-103931112D01*
X115362076Y-102931112D01*
X115838266Y-102931112D01*
X116266838Y-103931112D02*
X116266838Y-102931112D01*
X116504933Y-102931112D01*
X116647790Y-102978732D01*
X116743028Y-103073970D01*
X116790647Y-103169208D01*
X116838266Y-103359684D01*
X116838266Y-103502541D01*
X116790647Y-103693017D01*
X116743028Y-103788255D01*
X116647790Y-103883493D01*
X116504933Y-103931112D01*
X116266838Y-103931112D01*
D15*
X115185885Y-102229684D02*
X115185885Y-101829684D01*
X115281123Y-101829684D01*
X115338266Y-101848732D01*
X115376361Y-101886827D01*
X115395409Y-101924922D01*
X115414457Y-102001112D01*
X115414457Y-102058255D01*
X115395409Y-102134446D01*
X115376361Y-102172541D01*
X115338266Y-102210636D01*
X115281123Y-102229684D01*
X115185885Y-102229684D01*
X115795409Y-102229684D02*
X115566838Y-102229684D01*
X115681123Y-102229684D02*
X115681123Y-101829684D01*
X115643028Y-101886827D01*
X115604933Y-101924922D01*
X115566838Y-101943970D01*
X116157314Y-101829684D02*
X115966838Y-101829684D01*
X115947790Y-102020160D01*
X115966838Y-102001112D01*
X116004933Y-101982065D01*
X116100171Y-101982065D01*
X116138266Y-102001112D01*
X116157314Y-102020160D01*
X116176361Y-102058255D01*
X116176361Y-102153493D01*
X116157314Y-102191589D01*
X116138266Y-102210636D01*
X116100171Y-102229684D01*
X116004933Y-102229684D01*
X115966838Y-102210636D01*
X115947790Y-102191589D01*
D11*
X180459142Y-100774780D02*
X179982952Y-100774780D01*
X179982952Y-99774780D01*
X180792476Y-100250971D02*
X181125809Y-100250971D01*
X181268666Y-100774780D02*
X180792476Y-100774780D01*
X180792476Y-99774780D01*
X181268666Y-99774780D01*
X181697238Y-100774780D02*
X181697238Y-99774780D01*
X181935333Y-99774780D01*
X182078190Y-99822400D01*
X182173428Y-99917638D01*
X182221047Y-100012876D01*
X182268666Y-100203352D01*
X182268666Y-100346209D01*
X182221047Y-100536685D01*
X182173428Y-100631923D01*
X182078190Y-100727161D01*
X181935333Y-100774780D01*
X181697238Y-100774780D01*
D15*
X180616285Y-101933352D02*
X180616285Y-101533352D01*
X180711523Y-101533352D01*
X180768666Y-101552400D01*
X180806761Y-101590495D01*
X180825809Y-101628590D01*
X180844857Y-101704780D01*
X180844857Y-101761923D01*
X180825809Y-101838114D01*
X180806761Y-101876209D01*
X180768666Y-101914304D01*
X180711523Y-101933352D01*
X180616285Y-101933352D01*
X181225809Y-101933352D02*
X180997238Y-101933352D01*
X181111523Y-101933352D02*
X181111523Y-101533352D01*
X181073428Y-101590495D01*
X181035333Y-101628590D01*
X180997238Y-101647638D01*
X181568666Y-101533352D02*
X181492476Y-101533352D01*
X181454380Y-101552400D01*
X181435333Y-101571447D01*
X181397238Y-101628590D01*
X181378190Y-101704780D01*
X181378190Y-101857161D01*
X181397238Y-101895257D01*
X181416285Y-101914304D01*
X181454380Y-101933352D01*
X181530571Y-101933352D01*
X181568666Y-101914304D01*
X181587714Y-101895257D01*
X181606761Y-101857161D01*
X181606761Y-101761923D01*
X181587714Y-101723828D01*
X181568666Y-101704780D01*
X181530571Y-101685733D01*
X181454380Y-101685733D01*
X181416285Y-101704780D01*
X181397238Y-101723828D01*
X181378190Y-101761923D01*
D11*
X137384370Y-123177580D02*
X136908180Y-123177580D01*
X136908180Y-122177580D01*
X137717704Y-122653771D02*
X138051037Y-122653771D01*
X138193894Y-123177580D02*
X137717704Y-123177580D01*
X137717704Y-122177580D01*
X138193894Y-122177580D01*
X138622466Y-123177580D02*
X138622466Y-122177580D01*
X138860561Y-122177580D01*
X139003418Y-122225200D01*
X139098656Y-122320438D01*
X139146275Y-122415676D01*
X139193894Y-122606152D01*
X139193894Y-122749009D01*
X139146275Y-122939485D01*
X139098656Y-123034723D01*
X139003418Y-123129961D01*
X138860561Y-123177580D01*
X138622466Y-123177580D01*
D15*
X137541513Y-124336152D02*
X137541513Y-123936152D01*
X137636751Y-123936152D01*
X137693894Y-123955200D01*
X137731989Y-123993295D01*
X137751037Y-124031390D01*
X137770085Y-124107580D01*
X137770085Y-124164723D01*
X137751037Y-124240914D01*
X137731989Y-124279009D01*
X137693894Y-124317104D01*
X137636751Y-124336152D01*
X137541513Y-124336152D01*
X138151037Y-124336152D02*
X137922466Y-124336152D01*
X138036751Y-124336152D02*
X138036751Y-123936152D01*
X137998656Y-123993295D01*
X137960561Y-124031390D01*
X137922466Y-124050438D01*
X138284370Y-123936152D02*
X138551037Y-123936152D01*
X138379608Y-124336152D01*
D11*
X133482742Y-43225980D02*
X133006552Y-43225980D01*
X133006552Y-42225980D01*
X133816076Y-42702171D02*
X134149409Y-42702171D01*
X134292266Y-43225980D02*
X133816076Y-43225980D01*
X133816076Y-42225980D01*
X134292266Y-42225980D01*
X134720838Y-43225980D02*
X134720838Y-42225980D01*
X134958933Y-42225980D01*
X135101790Y-42273600D01*
X135197028Y-42368838D01*
X135244647Y-42464076D01*
X135292266Y-42654552D01*
X135292266Y-42797409D01*
X135244647Y-42987885D01*
X135197028Y-43083123D01*
X135101790Y-43178361D01*
X134958933Y-43225980D01*
X134720838Y-43225980D01*
D15*
X133639885Y-41524552D02*
X133639885Y-41124552D01*
X133735123Y-41124552D01*
X133792266Y-41143600D01*
X133830361Y-41181695D01*
X133849409Y-41219790D01*
X133868457Y-41295980D01*
X133868457Y-41353123D01*
X133849409Y-41429314D01*
X133830361Y-41467409D01*
X133792266Y-41505504D01*
X133735123Y-41524552D01*
X133639885Y-41524552D01*
X134249409Y-41524552D02*
X134020838Y-41524552D01*
X134135123Y-41524552D02*
X134135123Y-41124552D01*
X134097028Y-41181695D01*
X134058933Y-41219790D01*
X134020838Y-41238838D01*
X134439885Y-41524552D02*
X134516076Y-41524552D01*
X134554171Y-41505504D01*
X134573219Y-41486457D01*
X134611314Y-41429314D01*
X134630361Y-41353123D01*
X134630361Y-41200742D01*
X134611314Y-41162647D01*
X134592266Y-41143600D01*
X134554171Y-41124552D01*
X134477980Y-41124552D01*
X134439885Y-41143600D01*
X134420838Y-41162647D01*
X134401790Y-41200742D01*
X134401790Y-41295980D01*
X134420838Y-41334076D01*
X134439885Y-41353123D01*
X134477980Y-41372171D01*
X134554171Y-41372171D01*
X134592266Y-41353123D01*
X134611314Y-41334076D01*
X134630361Y-41295980D01*
D11*
X115003342Y-110975380D02*
X114527152Y-110975380D01*
X114527152Y-109975380D01*
X115336676Y-110451571D02*
X115670009Y-110451571D01*
X115812866Y-110975380D02*
X115336676Y-110975380D01*
X115336676Y-109975380D01*
X115812866Y-109975380D01*
X116241438Y-110975380D02*
X116241438Y-109975380D01*
X116479533Y-109975380D01*
X116622390Y-110023000D01*
X116717628Y-110118238D01*
X116765247Y-110213476D01*
X116812866Y-110403952D01*
X116812866Y-110546809D01*
X116765247Y-110737285D01*
X116717628Y-110832523D01*
X116622390Y-110927761D01*
X116479533Y-110975380D01*
X116241438Y-110975380D01*
D15*
X115160485Y-109273952D02*
X115160485Y-108873952D01*
X115255723Y-108873952D01*
X115312866Y-108893000D01*
X115350961Y-108931095D01*
X115370009Y-108969190D01*
X115389057Y-109045380D01*
X115389057Y-109102523D01*
X115370009Y-109178714D01*
X115350961Y-109216809D01*
X115312866Y-109254904D01*
X115255723Y-109273952D01*
X115160485Y-109273952D01*
X115541438Y-108912047D02*
X115560485Y-108893000D01*
X115598580Y-108873952D01*
X115693819Y-108873952D01*
X115731914Y-108893000D01*
X115750961Y-108912047D01*
X115770009Y-108950142D01*
X115770009Y-108988238D01*
X115750961Y-109045380D01*
X115522390Y-109273952D01*
X115770009Y-109273952D01*
X116017628Y-108873952D02*
X116055723Y-108873952D01*
X116093819Y-108893000D01*
X116112866Y-108912047D01*
X116131914Y-108950142D01*
X116150961Y-109026333D01*
X116150961Y-109121571D01*
X116131914Y-109197761D01*
X116112866Y-109235857D01*
X116093819Y-109254904D01*
X116055723Y-109273952D01*
X116017628Y-109273952D01*
X115979533Y-109254904D01*
X115960485Y-109235857D01*
X115941438Y-109197761D01*
X115922390Y-109121571D01*
X115922390Y-109026333D01*
X115941438Y-108950142D01*
X115960485Y-108912047D01*
X115979533Y-108893000D01*
X116017628Y-108873952D01*
D11*
X164272742Y-43285980D02*
X163796552Y-43285980D01*
X163796552Y-42285980D01*
X164606076Y-42762171D02*
X164939409Y-42762171D01*
X165082266Y-43285980D02*
X164606076Y-43285980D01*
X164606076Y-42285980D01*
X165082266Y-42285980D01*
X165510838Y-43285980D02*
X165510838Y-42285980D01*
X165748933Y-42285980D01*
X165891790Y-42333600D01*
X165987028Y-42428838D01*
X166034647Y-42524076D01*
X166082266Y-42714552D01*
X166082266Y-42857409D01*
X166034647Y-43047885D01*
X165987028Y-43143123D01*
X165891790Y-43238361D01*
X165748933Y-43285980D01*
X165510838Y-43285980D01*
D15*
X164620361Y-41584552D02*
X164620361Y-41184552D01*
X164715600Y-41184552D01*
X164772742Y-41203600D01*
X164810838Y-41241695D01*
X164829885Y-41279790D01*
X164848933Y-41355980D01*
X164848933Y-41413123D01*
X164829885Y-41489314D01*
X164810838Y-41527409D01*
X164772742Y-41565504D01*
X164715600Y-41584552D01*
X164620361Y-41584552D01*
X165039409Y-41584552D02*
X165115600Y-41584552D01*
X165153695Y-41565504D01*
X165172742Y-41546457D01*
X165210838Y-41489314D01*
X165229885Y-41413123D01*
X165229885Y-41260742D01*
X165210838Y-41222647D01*
X165191790Y-41203600D01*
X165153695Y-41184552D01*
X165077504Y-41184552D01*
X165039409Y-41203600D01*
X165020361Y-41222647D01*
X165001314Y-41260742D01*
X165001314Y-41355980D01*
X165020361Y-41394076D01*
X165039409Y-41413123D01*
X165077504Y-41432171D01*
X165153695Y-41432171D01*
X165191790Y-41413123D01*
X165210838Y-41394076D01*
X165229885Y-41355980D01*
D11*
X115028742Y-89842580D02*
X114552552Y-89842580D01*
X114552552Y-88842580D01*
X115362076Y-89318771D02*
X115695409Y-89318771D01*
X115838266Y-89842580D02*
X115362076Y-89842580D01*
X115362076Y-88842580D01*
X115838266Y-88842580D01*
X116266838Y-89842580D02*
X116266838Y-88842580D01*
X116504933Y-88842580D01*
X116647790Y-88890200D01*
X116743028Y-88985438D01*
X116790647Y-89080676D01*
X116838266Y-89271152D01*
X116838266Y-89414009D01*
X116790647Y-89604485D01*
X116743028Y-89699723D01*
X116647790Y-89794961D01*
X116504933Y-89842580D01*
X116266838Y-89842580D01*
D15*
X115376361Y-88141152D02*
X115376361Y-87741152D01*
X115471600Y-87741152D01*
X115528742Y-87760200D01*
X115566838Y-87798295D01*
X115585885Y-87836390D01*
X115604933Y-87912580D01*
X115604933Y-87969723D01*
X115585885Y-88045914D01*
X115566838Y-88084009D01*
X115528742Y-88122104D01*
X115471600Y-88141152D01*
X115376361Y-88141152D01*
X115966838Y-87741152D02*
X115776361Y-87741152D01*
X115757314Y-87931628D01*
X115776361Y-87912580D01*
X115814457Y-87893533D01*
X115909695Y-87893533D01*
X115947790Y-87912580D01*
X115966838Y-87931628D01*
X115985885Y-87969723D01*
X115985885Y-88064961D01*
X115966838Y-88103057D01*
X115947790Y-88122104D01*
X115909695Y-88141152D01*
X115814457Y-88141152D01*
X115776361Y-88122104D01*
X115757314Y-88103057D01*
D11*
X130384856Y-123177580D02*
X129908666Y-123177580D01*
X129908666Y-122177580D01*
X130718190Y-122653771D02*
X131051523Y-122653771D01*
X131194380Y-123177580D02*
X130718190Y-123177580D01*
X130718190Y-122177580D01*
X131194380Y-122177580D01*
X131622952Y-123177580D02*
X131622952Y-122177580D01*
X131861047Y-122177580D01*
X132003904Y-122225200D01*
X132099142Y-122320438D01*
X132146761Y-122415676D01*
X132194380Y-122606152D01*
X132194380Y-122749009D01*
X132146761Y-122939485D01*
X132099142Y-123034723D01*
X132003904Y-123129961D01*
X131861047Y-123177580D01*
X131622952Y-123177580D01*
D15*
X130541999Y-124336152D02*
X130541999Y-123936152D01*
X130637237Y-123936152D01*
X130694380Y-123955200D01*
X130732475Y-123993295D01*
X130751523Y-124031390D01*
X130770571Y-124107580D01*
X130770571Y-124164723D01*
X130751523Y-124240914D01*
X130732475Y-124279009D01*
X130694380Y-124317104D01*
X130637237Y-124336152D01*
X130541999Y-124336152D01*
X131151523Y-124336152D02*
X130922952Y-124336152D01*
X131037237Y-124336152D02*
X131037237Y-123936152D01*
X130999142Y-123993295D01*
X130961047Y-124031390D01*
X130922952Y-124050438D01*
X131303904Y-123974247D02*
X131322952Y-123955200D01*
X131361047Y-123936152D01*
X131456285Y-123936152D01*
X131494380Y-123955200D01*
X131513428Y-123974247D01*
X131532475Y-124012342D01*
X131532475Y-124050438D01*
X131513428Y-124107580D01*
X131284856Y-124336152D01*
X131532475Y-124336152D01*
D11*
X165382426Y-123177580D02*
X164906236Y-123177580D01*
X164906236Y-122177580D01*
X165715760Y-122653771D02*
X166049093Y-122653771D01*
X166191950Y-123177580D02*
X165715760Y-123177580D01*
X165715760Y-122177580D01*
X166191950Y-122177580D01*
X166620522Y-123177580D02*
X166620522Y-122177580D01*
X166858617Y-122177580D01*
X167001474Y-122225200D01*
X167096712Y-122320438D01*
X167144331Y-122415676D01*
X167191950Y-122606152D01*
X167191950Y-122749009D01*
X167144331Y-122939485D01*
X167096712Y-123034723D01*
X167001474Y-123129961D01*
X166858617Y-123177580D01*
X166620522Y-123177580D01*
D15*
X165539569Y-124336152D02*
X165539569Y-123936152D01*
X165634807Y-123936152D01*
X165691950Y-123955200D01*
X165730045Y-123993295D01*
X165749093Y-124031390D01*
X165768141Y-124107580D01*
X165768141Y-124164723D01*
X165749093Y-124240914D01*
X165730045Y-124279009D01*
X165691950Y-124317104D01*
X165634807Y-124336152D01*
X165539569Y-124336152D01*
X166149093Y-124336152D02*
X165920522Y-124336152D01*
X166034807Y-124336152D02*
X166034807Y-123936152D01*
X165996712Y-123993295D01*
X165958617Y-124031390D01*
X165920522Y-124050438D01*
X166377664Y-124107580D02*
X166339569Y-124088533D01*
X166320522Y-124069485D01*
X166301474Y-124031390D01*
X166301474Y-124012342D01*
X166320522Y-123974247D01*
X166339569Y-123955200D01*
X166377664Y-123936152D01*
X166453855Y-123936152D01*
X166491950Y-123955200D01*
X166510998Y-123974247D01*
X166530045Y-124012342D01*
X166530045Y-124031390D01*
X166510998Y-124069485D01*
X166491950Y-124088533D01*
X166453855Y-124107580D01*
X166377664Y-124107580D01*
X166339569Y-124126628D01*
X166320522Y-124145676D01*
X166301474Y-124183771D01*
X166301474Y-124259961D01*
X166320522Y-124298057D01*
X166339569Y-124317104D01*
X166377664Y-124336152D01*
X166453855Y-124336152D01*
X166491950Y-124317104D01*
X166510998Y-124298057D01*
X166530045Y-124259961D01*
X166530045Y-124183771D01*
X166510998Y-124145676D01*
X166491950Y-124126628D01*
X166453855Y-124107580D01*
D11*
X151383398Y-123177580D02*
X150907208Y-123177580D01*
X150907208Y-122177580D01*
X151716732Y-122653771D02*
X152050065Y-122653771D01*
X152192922Y-123177580D02*
X151716732Y-123177580D01*
X151716732Y-122177580D01*
X152192922Y-122177580D01*
X152621494Y-123177580D02*
X152621494Y-122177580D01*
X152859589Y-122177580D01*
X153002446Y-122225200D01*
X153097684Y-122320438D01*
X153145303Y-122415676D01*
X153192922Y-122606152D01*
X153192922Y-122749009D01*
X153145303Y-122939485D01*
X153097684Y-123034723D01*
X153002446Y-123129961D01*
X152859589Y-123177580D01*
X152621494Y-123177580D01*
D15*
X151731017Y-124336152D02*
X151731017Y-123936152D01*
X151826256Y-123936152D01*
X151883398Y-123955200D01*
X151921494Y-123993295D01*
X151940541Y-124031390D01*
X151959589Y-124107580D01*
X151959589Y-124164723D01*
X151940541Y-124240914D01*
X151921494Y-124279009D01*
X151883398Y-124317104D01*
X151826256Y-124336152D01*
X151731017Y-124336152D01*
X152188160Y-124107580D02*
X152150065Y-124088533D01*
X152131017Y-124069485D01*
X152111970Y-124031390D01*
X152111970Y-124012342D01*
X152131017Y-123974247D01*
X152150065Y-123955200D01*
X152188160Y-123936152D01*
X152264351Y-123936152D01*
X152302446Y-123955200D01*
X152321494Y-123974247D01*
X152340541Y-124012342D01*
X152340541Y-124031390D01*
X152321494Y-124069485D01*
X152302446Y-124088533D01*
X152264351Y-124107580D01*
X152188160Y-124107580D01*
X152150065Y-124126628D01*
X152131017Y-124145676D01*
X152111970Y-124183771D01*
X152111970Y-124259961D01*
X152131017Y-124298057D01*
X152150065Y-124317104D01*
X152188160Y-124336152D01*
X152264351Y-124336152D01*
X152302446Y-124317104D01*
X152321494Y-124298057D01*
X152340541Y-124259961D01*
X152340541Y-124183771D01*
X152321494Y-124145676D01*
X152302446Y-124126628D01*
X152264351Y-124107580D01*
D11*
X123385342Y-123177580D02*
X122909152Y-123177580D01*
X122909152Y-122177580D01*
X123718676Y-122653771D02*
X124052009Y-122653771D01*
X124194866Y-123177580D02*
X123718676Y-123177580D01*
X123718676Y-122177580D01*
X124194866Y-122177580D01*
X124623438Y-123177580D02*
X124623438Y-122177580D01*
X124861533Y-122177580D01*
X125004390Y-122225200D01*
X125099628Y-122320438D01*
X125147247Y-122415676D01*
X125194866Y-122606152D01*
X125194866Y-122749009D01*
X125147247Y-122939485D01*
X125099628Y-123034723D01*
X125004390Y-123129961D01*
X124861533Y-123177580D01*
X124623438Y-123177580D01*
D15*
X123732961Y-124336152D02*
X123732961Y-123936152D01*
X123828200Y-123936152D01*
X123885342Y-123955200D01*
X123923438Y-123993295D01*
X123942485Y-124031390D01*
X123961533Y-124107580D01*
X123961533Y-124164723D01*
X123942485Y-124240914D01*
X123923438Y-124279009D01*
X123885342Y-124317104D01*
X123828200Y-124336152D01*
X123732961Y-124336152D01*
X124094866Y-123936152D02*
X124361533Y-123936152D01*
X124190104Y-124336152D01*
D11*
X180459142Y-93713580D02*
X179982952Y-93713580D01*
X179982952Y-92713580D01*
X180792476Y-93189771D02*
X181125809Y-93189771D01*
X181268666Y-93713580D02*
X180792476Y-93713580D01*
X180792476Y-92713580D01*
X181268666Y-92713580D01*
X181697238Y-93713580D02*
X181697238Y-92713580D01*
X181935333Y-92713580D01*
X182078190Y-92761200D01*
X182173428Y-92856438D01*
X182221047Y-92951676D01*
X182268666Y-93142152D01*
X182268666Y-93285009D01*
X182221047Y-93475485D01*
X182173428Y-93570723D01*
X182078190Y-93665961D01*
X181935333Y-93713580D01*
X181697238Y-93713580D01*
D15*
X180616285Y-94872152D02*
X180616285Y-94472152D01*
X180711523Y-94472152D01*
X180768666Y-94491200D01*
X180806761Y-94529295D01*
X180825809Y-94567390D01*
X180844857Y-94643580D01*
X180844857Y-94700723D01*
X180825809Y-94776914D01*
X180806761Y-94815009D01*
X180768666Y-94853104D01*
X180711523Y-94872152D01*
X180616285Y-94872152D01*
X181225809Y-94872152D02*
X180997238Y-94872152D01*
X181111523Y-94872152D02*
X181111523Y-94472152D01*
X181073428Y-94529295D01*
X181035333Y-94567390D01*
X180997238Y-94586438D01*
X181606761Y-94872152D02*
X181378190Y-94872152D01*
X181492476Y-94872152D02*
X181492476Y-94472152D01*
X181454380Y-94529295D01*
X181416285Y-94567390D01*
X181378190Y-94586438D01*
D11*
X158382912Y-123177580D02*
X157906722Y-123177580D01*
X157906722Y-122177580D01*
X158716246Y-122653771D02*
X159049579Y-122653771D01*
X159192436Y-123177580D02*
X158716246Y-123177580D01*
X158716246Y-122177580D01*
X159192436Y-122177580D01*
X159621008Y-123177580D02*
X159621008Y-122177580D01*
X159859103Y-122177580D01*
X160001960Y-122225200D01*
X160097198Y-122320438D01*
X160144817Y-122415676D01*
X160192436Y-122606152D01*
X160192436Y-122749009D01*
X160144817Y-122939485D01*
X160097198Y-123034723D01*
X160001960Y-123129961D01*
X159859103Y-123177580D01*
X159621008Y-123177580D01*
D15*
X158540055Y-124336152D02*
X158540055Y-123936152D01*
X158635293Y-123936152D01*
X158692436Y-123955200D01*
X158730531Y-123993295D01*
X158749579Y-124031390D01*
X158768627Y-124107580D01*
X158768627Y-124164723D01*
X158749579Y-124240914D01*
X158730531Y-124279009D01*
X158692436Y-124317104D01*
X158635293Y-124336152D01*
X158540055Y-124336152D01*
X159149579Y-124336152D02*
X158921008Y-124336152D01*
X159035293Y-124336152D02*
X159035293Y-123936152D01*
X158997198Y-123993295D01*
X158959103Y-124031390D01*
X158921008Y-124050438D01*
X159282912Y-123936152D02*
X159530531Y-123936152D01*
X159397198Y-124088533D01*
X159454341Y-124088533D01*
X159492436Y-124107580D01*
X159511484Y-124126628D01*
X159530531Y-124164723D01*
X159530531Y-124259961D01*
X159511484Y-124298057D01*
X159492436Y-124317104D01*
X159454341Y-124336152D01*
X159340055Y-124336152D01*
X159301960Y-124317104D01*
X159282912Y-124298057D01*
D11*
X180459142Y-86652380D02*
X179982952Y-86652380D01*
X179982952Y-85652380D01*
X180792476Y-86128571D02*
X181125809Y-86128571D01*
X181268666Y-86652380D02*
X180792476Y-86652380D01*
X180792476Y-85652380D01*
X181268666Y-85652380D01*
X181697238Y-86652380D02*
X181697238Y-85652380D01*
X181935333Y-85652380D01*
X182078190Y-85700000D01*
X182173428Y-85795238D01*
X182221047Y-85890476D01*
X182268666Y-86080952D01*
X182268666Y-86223809D01*
X182221047Y-86414285D01*
X182173428Y-86509523D01*
X182078190Y-86604761D01*
X181935333Y-86652380D01*
X181697238Y-86652380D01*
D15*
X180806761Y-87810952D02*
X180806761Y-87410952D01*
X180902000Y-87410952D01*
X180959142Y-87430000D01*
X180997238Y-87468095D01*
X181016285Y-87506190D01*
X181035333Y-87582380D01*
X181035333Y-87639523D01*
X181016285Y-87715714D01*
X180997238Y-87753809D01*
X180959142Y-87791904D01*
X180902000Y-87810952D01*
X180806761Y-87810952D01*
X181378190Y-87410952D02*
X181302000Y-87410952D01*
X181263904Y-87430000D01*
X181244857Y-87449047D01*
X181206761Y-87506190D01*
X181187714Y-87582380D01*
X181187714Y-87734761D01*
X181206761Y-87772857D01*
X181225809Y-87791904D01*
X181263904Y-87810952D01*
X181340095Y-87810952D01*
X181378190Y-87791904D01*
X181397238Y-87772857D01*
X181416285Y-87734761D01*
X181416285Y-87639523D01*
X181397238Y-87601428D01*
X181378190Y-87582380D01*
X181340095Y-87563333D01*
X181263904Y-87563333D01*
X181225809Y-87582380D01*
X181206761Y-87601428D01*
X181187714Y-87639523D01*
D11*
X155592542Y-41099980D02*
X155116352Y-41099980D01*
X155116352Y-40099980D01*
X155925876Y-40576171D02*
X156259209Y-40576171D01*
X156402066Y-41099980D02*
X155925876Y-41099980D01*
X155925876Y-40099980D01*
X156402066Y-40099980D01*
X156830638Y-41099980D02*
X156830638Y-40099980D01*
X157068733Y-40099980D01*
X157211590Y-40147600D01*
X157306828Y-40242838D01*
X157354447Y-40338076D01*
X157402066Y-40528552D01*
X157402066Y-40671409D01*
X157354447Y-40861885D01*
X157306828Y-40957123D01*
X157211590Y-41052361D01*
X157068733Y-41099980D01*
X156830638Y-41099980D01*
D15*
X155749685Y-39398552D02*
X155749685Y-38998552D01*
X155844923Y-38998552D01*
X155902066Y-39017600D01*
X155940161Y-39055695D01*
X155959209Y-39093790D01*
X155978257Y-39169980D01*
X155978257Y-39227123D01*
X155959209Y-39303314D01*
X155940161Y-39341409D01*
X155902066Y-39379504D01*
X155844923Y-39398552D01*
X155749685Y-39398552D01*
X156359209Y-39398552D02*
X156130638Y-39398552D01*
X156244923Y-39398552D02*
X156244923Y-38998552D01*
X156206828Y-39055695D01*
X156168733Y-39093790D01*
X156130638Y-39112838D01*
X156702066Y-39131885D02*
X156702066Y-39398552D01*
X156606828Y-38979504D02*
X156511590Y-39265219D01*
X156759209Y-39265219D01*
D11*
X106625123Y-103129720D02*
X107196552Y-103129720D01*
X106910838Y-104129720D02*
X106910838Y-103129720D01*
X107482266Y-103844006D02*
X107958457Y-103844006D01*
X107387028Y-104129720D02*
X107720361Y-103129720D01*
X108053695Y-104129720D01*
X108958457Y-104034482D02*
X108910838Y-104082101D01*
X108767980Y-104129720D01*
X108672742Y-104129720D01*
X108529885Y-104082101D01*
X108434647Y-103986863D01*
X108387028Y-103891625D01*
X108339409Y-103701149D01*
X108339409Y-103558292D01*
X108387028Y-103367816D01*
X108434647Y-103272578D01*
X108529885Y-103177340D01*
X108672742Y-103129720D01*
X108767980Y-103129720D01*
X108910838Y-103177340D01*
X108958457Y-103224959D01*
X109244171Y-103129720D02*
X109815600Y-103129720D01*
X109529885Y-104129720D02*
X109529885Y-103129720D01*
X110148933Y-104129720D02*
X110148933Y-103129720D01*
X111101314Y-104129720D02*
X110625123Y-104129720D01*
X110625123Y-103129720D01*
X111434647Y-103605911D02*
X111767980Y-103605911D01*
X111910838Y-104129720D02*
X111434647Y-104129720D01*
X111434647Y-103129720D01*
X111910838Y-103129720D01*
X107506076Y-95882101D02*
X107648933Y-95929720D01*
X107887028Y-95929720D01*
X107982266Y-95882101D01*
X108029885Y-95834482D01*
X108077504Y-95739244D01*
X108077504Y-95644006D01*
X108029885Y-95548768D01*
X107982266Y-95501149D01*
X107887028Y-95453530D01*
X107696552Y-95405911D01*
X107601314Y-95358292D01*
X107553695Y-95310673D01*
X107506076Y-95215435D01*
X107506076Y-95120197D01*
X107553695Y-95024959D01*
X107601314Y-94977340D01*
X107696552Y-94929720D01*
X107934647Y-94929720D01*
X108077504Y-94977340D01*
X108410838Y-94929720D02*
X108648933Y-95929720D01*
X108839409Y-95215435D01*
X109029885Y-95929720D01*
X109267980Y-94929720D01*
X110172742Y-95929720D02*
X109601314Y-95929720D01*
X109887028Y-95929720D02*
X109887028Y-94929720D01*
X109791790Y-95072578D01*
X109696552Y-95167816D01*
X109601314Y-95215435D01*
X111029885Y-94929720D02*
X110839409Y-94929720D01*
X110744171Y-94977340D01*
X110696552Y-95024959D01*
X110601314Y-95167816D01*
X110553695Y-95358292D01*
X110553695Y-95739244D01*
X110601314Y-95834482D01*
X110648933Y-95882101D01*
X110744171Y-95929720D01*
X110934647Y-95929720D01*
X111029885Y-95882101D01*
X111077504Y-95834482D01*
X111125123Y-95739244D01*
X111125123Y-95501149D01*
X111077504Y-95405911D01*
X111029885Y-95358292D01*
X110934647Y-95310673D01*
X110744171Y-95310673D01*
X110648933Y-95358292D01*
X110601314Y-95405911D01*
X110553695Y-95501149D01*
X163621071Y-156578534D02*
X163755758Y-156511191D01*
X163924117Y-156342832D01*
X163957789Y-156241817D01*
X163957789Y-156174473D01*
X163924117Y-156073458D01*
X163856774Y-156006115D01*
X163755758Y-155972443D01*
X163688415Y-155972443D01*
X163587400Y-156006115D01*
X163419041Y-156107130D01*
X163318026Y-156140802D01*
X163250682Y-156140802D01*
X163149667Y-156107130D01*
X163082323Y-156039786D01*
X163048652Y-155938771D01*
X163048652Y-155871428D01*
X163082323Y-155770412D01*
X163250682Y-155602053D01*
X163385369Y-155534710D01*
X164361850Y-155905099D02*
X163654743Y-155197992D01*
X164765911Y-155501038D02*
X164058804Y-155400023D01*
X164058804Y-154793931D02*
X164058804Y-155602053D01*
X165473018Y-154793931D02*
X164900598Y-154692916D01*
X165068957Y-155197992D02*
X164361850Y-154490886D01*
X164631224Y-154221512D01*
X164732239Y-154187840D01*
X164799583Y-154187840D01*
X164900598Y-154221512D01*
X165001613Y-154322527D01*
X165035285Y-154423542D01*
X165035285Y-154490886D01*
X165001613Y-154591901D01*
X164732239Y-154861275D01*
X165776064Y-154490886D02*
X165068957Y-153783779D01*
X165405674Y-154120496D02*
X165809735Y-153716435D01*
X166180125Y-154086825D02*
X165473018Y-153379718D01*
X166281140Y-153581748D02*
X166617857Y-153245031D01*
X166415827Y-153851122D02*
X165944422Y-152908313D01*
X166887231Y-153379718D01*
X166988247Y-152537924D02*
X167122934Y-152470581D01*
X167190277Y-152470581D01*
X167291292Y-152504252D01*
X167392308Y-152605268D01*
X167425979Y-152706283D01*
X167425979Y-152773626D01*
X167392308Y-152874642D01*
X167122934Y-153144016D01*
X166415827Y-152436909D01*
X166651529Y-152201207D01*
X166752544Y-152167535D01*
X166819888Y-152167535D01*
X166920903Y-152201207D01*
X166988247Y-152268550D01*
X167021918Y-152369565D01*
X167021918Y-152436909D01*
X166988247Y-152537924D01*
X166752544Y-152773626D01*
X167459651Y-152066520D02*
X167695353Y-151830817D01*
X168166758Y-152100191D02*
X167830040Y-152436909D01*
X167122934Y-151729802D01*
X167459651Y-151393085D01*
X167897384Y-150955352D02*
X167964727Y-150888008D01*
X168065743Y-150854337D01*
X168133086Y-150854337D01*
X168234101Y-150888008D01*
X168402460Y-150989024D01*
X168570819Y-151157382D01*
X168671834Y-151325741D01*
X168705506Y-151426756D01*
X168705506Y-151494100D01*
X168671834Y-151595115D01*
X168604491Y-151662459D01*
X168503475Y-151696130D01*
X168436132Y-151696130D01*
X168335117Y-151662459D01*
X168166758Y-151561443D01*
X167998399Y-151393085D01*
X167897384Y-151224726D01*
X167863712Y-151123711D01*
X167863712Y-151056367D01*
X167897384Y-150955352D01*
X169513628Y-150753321D02*
X169109567Y-151157382D01*
X169311597Y-150955352D02*
X168604491Y-150248245D01*
X168638162Y-150416604D01*
X168638162Y-150551291D01*
X168604491Y-150652306D01*
X169244254Y-149608482D02*
X169311597Y-149541138D01*
X169412613Y-149507466D01*
X169479956Y-149507466D01*
X169580972Y-149541138D01*
X169749330Y-149642153D01*
X169917689Y-149810512D01*
X170018704Y-149978871D01*
X170052376Y-150079886D01*
X170052376Y-150147230D01*
X170018704Y-150248245D01*
X169951361Y-150315589D01*
X169850346Y-150349260D01*
X169783002Y-150349260D01*
X169681987Y-150315589D01*
X169513628Y-150214573D01*
X169345269Y-150046214D01*
X169244254Y-149877856D01*
X169210582Y-149776840D01*
X169210582Y-149709497D01*
X169244254Y-149608482D01*
X148578322Y-132611476D02*
X148578322Y-132040047D01*
X149578322Y-132325761D02*
X148578322Y-132325761D01*
X149292608Y-131754333D02*
X149292608Y-131278142D01*
X149578322Y-131849571D02*
X148578322Y-131516238D01*
X149578322Y-131182904D01*
X149483084Y-130278142D02*
X149530703Y-130325761D01*
X149578322Y-130468619D01*
X149578322Y-130563857D01*
X149530703Y-130706714D01*
X149435465Y-130801952D01*
X149340227Y-130849571D01*
X149149751Y-130897190D01*
X149006894Y-130897190D01*
X148816418Y-130849571D01*
X148721180Y-130801952D01*
X148625942Y-130706714D01*
X148578322Y-130563857D01*
X148578322Y-130468619D01*
X148625942Y-130325761D01*
X148673561Y-130278142D01*
X148578322Y-129992428D02*
X148578322Y-129421000D01*
X149578322Y-129706714D02*
X148578322Y-129706714D01*
X149578322Y-129087666D02*
X148578322Y-129087666D01*
X149578322Y-128135285D02*
X149578322Y-128611476D01*
X148578322Y-128611476D01*
X149054513Y-127801952D02*
X149054513Y-127468619D01*
X149578322Y-127325761D02*
X149578322Y-127801952D01*
X148578322Y-127801952D01*
X148578322Y-127325761D01*
X141330703Y-131254333D02*
X141378322Y-131111476D01*
X141378322Y-130873380D01*
X141330703Y-130778142D01*
X141283084Y-130730523D01*
X141187846Y-130682904D01*
X141092608Y-130682904D01*
X140997370Y-130730523D01*
X140949751Y-130778142D01*
X140902132Y-130873380D01*
X140854513Y-131063857D01*
X140806894Y-131159095D01*
X140759275Y-131206714D01*
X140664037Y-131254333D01*
X140568799Y-131254333D01*
X140473561Y-131206714D01*
X140425942Y-131159095D01*
X140378322Y-131063857D01*
X140378322Y-130825761D01*
X140425942Y-130682904D01*
X140378322Y-130349571D02*
X141378322Y-130111476D01*
X140664037Y-129921000D01*
X141378322Y-129730523D01*
X140378322Y-129492428D01*
X141378322Y-129063857D02*
X141378322Y-128873380D01*
X141330703Y-128778142D01*
X141283084Y-128730523D01*
X141140227Y-128635285D01*
X140949751Y-128587666D01*
X140568799Y-128587666D01*
X140473561Y-128635285D01*
X140425942Y-128682904D01*
X140378322Y-128778142D01*
X140378322Y-128968619D01*
X140425942Y-129063857D01*
X140473561Y-129111476D01*
X140568799Y-129159095D01*
X140806894Y-129159095D01*
X140902132Y-129111476D01*
X140949751Y-129063857D01*
X140997370Y-128968619D01*
X140997370Y-128778142D01*
X140949751Y-128682904D01*
X140902132Y-128635285D01*
X140806894Y-128587666D01*
X184858843Y-89175780D02*
X185430272Y-89175780D01*
X185144558Y-90175780D02*
X185144558Y-89175780D01*
X185715986Y-89890066D02*
X186192177Y-89890066D01*
X185620748Y-90175780D02*
X185954081Y-89175780D01*
X186287415Y-90175780D01*
X187192177Y-90080542D02*
X187144558Y-90128161D01*
X187001700Y-90175780D01*
X186906462Y-90175780D01*
X186763605Y-90128161D01*
X186668367Y-90032923D01*
X186620748Y-89937685D01*
X186573129Y-89747209D01*
X186573129Y-89604352D01*
X186620748Y-89413876D01*
X186668367Y-89318638D01*
X186763605Y-89223400D01*
X186906462Y-89175780D01*
X187001700Y-89175780D01*
X187144558Y-89223400D01*
X187192177Y-89271019D01*
X187477891Y-89175780D02*
X188049320Y-89175780D01*
X187763605Y-90175780D02*
X187763605Y-89175780D01*
X188382653Y-90175780D02*
X188382653Y-89175780D01*
X189335034Y-90175780D02*
X188858843Y-90175780D01*
X188858843Y-89175780D01*
X189668367Y-89651971D02*
X190001700Y-89651971D01*
X190144558Y-90175780D02*
X189668367Y-90175780D01*
X189668367Y-89175780D01*
X190144558Y-89175780D01*
X186215986Y-81928161D02*
X186358843Y-81975780D01*
X186596939Y-81975780D01*
X186692177Y-81928161D01*
X186739796Y-81880542D01*
X186787415Y-81785304D01*
X186787415Y-81690066D01*
X186739796Y-81594828D01*
X186692177Y-81547209D01*
X186596939Y-81499590D01*
X186406462Y-81451971D01*
X186311224Y-81404352D01*
X186263605Y-81356733D01*
X186215986Y-81261495D01*
X186215986Y-81166257D01*
X186263605Y-81071019D01*
X186311224Y-81023400D01*
X186406462Y-80975780D01*
X186644558Y-80975780D01*
X186787415Y-81023400D01*
X187120748Y-80975780D02*
X187358843Y-81975780D01*
X187549320Y-81261495D01*
X187739796Y-81975780D01*
X187977891Y-80975780D01*
X188311224Y-81071019D02*
X188358843Y-81023400D01*
X188454081Y-80975780D01*
X188692177Y-80975780D01*
X188787415Y-81023400D01*
X188835034Y-81071019D01*
X188882653Y-81166257D01*
X188882653Y-81261495D01*
X188835034Y-81404352D01*
X188263605Y-81975780D01*
X188882653Y-81975780D01*
X184858843Y-96183026D02*
X185430272Y-96183026D01*
X185144558Y-97183026D02*
X185144558Y-96183026D01*
X185715986Y-96897312D02*
X186192177Y-96897312D01*
X185620748Y-97183026D02*
X185954081Y-96183026D01*
X186287415Y-97183026D01*
X187192177Y-97087788D02*
X187144558Y-97135407D01*
X187001700Y-97183026D01*
X186906462Y-97183026D01*
X186763605Y-97135407D01*
X186668367Y-97040169D01*
X186620748Y-96944931D01*
X186573129Y-96754455D01*
X186573129Y-96611598D01*
X186620748Y-96421122D01*
X186668367Y-96325884D01*
X186763605Y-96230646D01*
X186906462Y-96183026D01*
X187001700Y-96183026D01*
X187144558Y-96230646D01*
X187192177Y-96278265D01*
X187477891Y-96183026D02*
X188049320Y-96183026D01*
X187763605Y-97183026D02*
X187763605Y-96183026D01*
X188382653Y-97183026D02*
X188382653Y-96183026D01*
X189335034Y-97183026D02*
X188858843Y-97183026D01*
X188858843Y-96183026D01*
X189668367Y-96659217D02*
X190001700Y-96659217D01*
X190144558Y-97183026D02*
X189668367Y-97183026D01*
X189668367Y-96183026D01*
X190144558Y-96183026D01*
X186215986Y-88935407D02*
X186358843Y-88983026D01*
X186596939Y-88983026D01*
X186692177Y-88935407D01*
X186739796Y-88887788D01*
X186787415Y-88792550D01*
X186787415Y-88697312D01*
X186739796Y-88602074D01*
X186692177Y-88554455D01*
X186596939Y-88506836D01*
X186406462Y-88459217D01*
X186311224Y-88411598D01*
X186263605Y-88363979D01*
X186215986Y-88268741D01*
X186215986Y-88173503D01*
X186263605Y-88078265D01*
X186311224Y-88030646D01*
X186406462Y-87983026D01*
X186644558Y-87983026D01*
X186787415Y-88030646D01*
X187120748Y-87983026D02*
X187358843Y-88983026D01*
X187549320Y-88268741D01*
X187739796Y-88983026D01*
X187977891Y-87983026D01*
X188263605Y-87983026D02*
X188882653Y-87983026D01*
X188549320Y-88363979D01*
X188692177Y-88363979D01*
X188787415Y-88411598D01*
X188835034Y-88459217D01*
X188882653Y-88554455D01*
X188882653Y-88792550D01*
X188835034Y-88887788D01*
X188787415Y-88935407D01*
X188692177Y-88983026D01*
X188406462Y-88983026D01*
X188311224Y-88935407D01*
X188263605Y-88887788D01*
X135223871Y-156578534D02*
X135358558Y-156511191D01*
X135526917Y-156342832D01*
X135560589Y-156241817D01*
X135560589Y-156174473D01*
X135526917Y-156073458D01*
X135459574Y-156006115D01*
X135358558Y-155972443D01*
X135291215Y-155972443D01*
X135190200Y-156006115D01*
X135021841Y-156107130D01*
X134920826Y-156140802D01*
X134853482Y-156140802D01*
X134752467Y-156107130D01*
X134685123Y-156039786D01*
X134651452Y-155938771D01*
X134651452Y-155871428D01*
X134685123Y-155770412D01*
X134853482Y-155602053D01*
X134988169Y-155534710D01*
X135964650Y-155905099D02*
X135257543Y-155197992D01*
X136368711Y-155501038D02*
X135661604Y-155400023D01*
X135661604Y-154793931D02*
X135661604Y-155602053D01*
X137075818Y-154793931D02*
X136503398Y-154692916D01*
X136671757Y-155197992D02*
X135964650Y-154490886D01*
X136234024Y-154221512D01*
X136335039Y-154187840D01*
X136402383Y-154187840D01*
X136503398Y-154221512D01*
X136604413Y-154322527D01*
X136638085Y-154423542D01*
X136638085Y-154490886D01*
X136604413Y-154591901D01*
X136335039Y-154861275D01*
X137378864Y-154490886D02*
X136671757Y-153783779D01*
X137008474Y-154120496D02*
X137412535Y-153716435D01*
X137782925Y-154086825D02*
X137075818Y-153379718D01*
X137883940Y-153581748D02*
X138220657Y-153245031D01*
X138018627Y-153851122D02*
X137547222Y-152908313D01*
X138490031Y-153379718D01*
X138591047Y-152537924D02*
X138725734Y-152470581D01*
X138793077Y-152470581D01*
X138894092Y-152504252D01*
X138995108Y-152605268D01*
X139028779Y-152706283D01*
X139028779Y-152773626D01*
X138995108Y-152874642D01*
X138725734Y-153144016D01*
X138018627Y-152436909D01*
X138254329Y-152201207D01*
X138355344Y-152167535D01*
X138422688Y-152167535D01*
X138523703Y-152201207D01*
X138591047Y-152268550D01*
X138624718Y-152369565D01*
X138624718Y-152436909D01*
X138591047Y-152537924D01*
X138355344Y-152773626D01*
X139062451Y-152066520D02*
X139298153Y-151830817D01*
X139769558Y-152100191D02*
X139432840Y-152436909D01*
X138725734Y-151729802D01*
X139062451Y-151393085D01*
X139500184Y-150955352D02*
X139567527Y-150888008D01*
X139668543Y-150854337D01*
X139735886Y-150854337D01*
X139836901Y-150888008D01*
X140005260Y-150989024D01*
X140173619Y-151157382D01*
X140274634Y-151325741D01*
X140308306Y-151426756D01*
X140308306Y-151494100D01*
X140274634Y-151595115D01*
X140207291Y-151662459D01*
X140106275Y-151696130D01*
X140038932Y-151696130D01*
X139937917Y-151662459D01*
X139769558Y-151561443D01*
X139601199Y-151393085D01*
X139500184Y-151224726D01*
X139466512Y-151123711D01*
X139466512Y-151056367D01*
X139500184Y-150955352D01*
X141116428Y-150753321D02*
X140712367Y-151157382D01*
X140914397Y-150955352D02*
X140207291Y-150248245D01*
X140240962Y-150416604D01*
X140240962Y-150551291D01*
X140207291Y-150652306D01*
X140847054Y-149608482D02*
X140914397Y-149541138D01*
X141015413Y-149507466D01*
X141082756Y-149507466D01*
X141183772Y-149541138D01*
X141352130Y-149642153D01*
X141520489Y-149810512D01*
X141621504Y-149978871D01*
X141655176Y-150079886D01*
X141655176Y-150147230D01*
X141621504Y-150248245D01*
X141554161Y-150315589D01*
X141453146Y-150349260D01*
X141385802Y-150349260D01*
X141284787Y-150315589D01*
X141116428Y-150214573D01*
X140948069Y-150046214D01*
X140847054Y-149877856D01*
X140813382Y-149776840D01*
X140813382Y-149709497D01*
X140847054Y-149608482D01*
X176515420Y-132611476D02*
X176515420Y-132040047D01*
X177515420Y-132325761D02*
X176515420Y-132325761D01*
X177229706Y-131754333D02*
X177229706Y-131278142D01*
X177515420Y-131849571D02*
X176515420Y-131516238D01*
X177515420Y-131182904D01*
X177420182Y-130278142D02*
X177467801Y-130325761D01*
X177515420Y-130468619D01*
X177515420Y-130563857D01*
X177467801Y-130706714D01*
X177372563Y-130801952D01*
X177277325Y-130849571D01*
X177086849Y-130897190D01*
X176943992Y-130897190D01*
X176753516Y-130849571D01*
X176658278Y-130801952D01*
X176563040Y-130706714D01*
X176515420Y-130563857D01*
X176515420Y-130468619D01*
X176563040Y-130325761D01*
X176610659Y-130278142D01*
X176515420Y-129992428D02*
X176515420Y-129421000D01*
X177515420Y-129706714D02*
X176515420Y-129706714D01*
X177515420Y-129087666D02*
X176515420Y-129087666D01*
X177515420Y-128135285D02*
X177515420Y-128611476D01*
X176515420Y-128611476D01*
X176991611Y-127801952D02*
X176991611Y-127468619D01*
X177515420Y-127325761D02*
X177515420Y-127801952D01*
X176515420Y-127801952D01*
X176515420Y-127325761D01*
X169267801Y-131730523D02*
X169315420Y-131587666D01*
X169315420Y-131349571D01*
X169267801Y-131254333D01*
X169220182Y-131206714D01*
X169124944Y-131159095D01*
X169029706Y-131159095D01*
X168934468Y-131206714D01*
X168886849Y-131254333D01*
X168839230Y-131349571D01*
X168791611Y-131540047D01*
X168743992Y-131635285D01*
X168696373Y-131682904D01*
X168601135Y-131730523D01*
X168505897Y-131730523D01*
X168410659Y-131682904D01*
X168363040Y-131635285D01*
X168315420Y-131540047D01*
X168315420Y-131301952D01*
X168363040Y-131159095D01*
X168315420Y-130825761D02*
X169315420Y-130587666D01*
X168601135Y-130397190D01*
X169315420Y-130206714D01*
X168315420Y-129968619D01*
X169315420Y-129063857D02*
X169315420Y-129635285D01*
X169315420Y-129349571D02*
X168315420Y-129349571D01*
X168458278Y-129444809D01*
X168553516Y-129540047D01*
X168601135Y-129635285D01*
X168315420Y-128730523D02*
X168315420Y-128111476D01*
X168696373Y-128444809D01*
X168696373Y-128301952D01*
X168743992Y-128206714D01*
X168791611Y-128159095D01*
X168886849Y-128111476D01*
X169124944Y-128111476D01*
X169220182Y-128159095D01*
X169267801Y-128206714D01*
X169315420Y-128301952D01*
X169315420Y-128587666D01*
X169267801Y-128682904D01*
X169220182Y-128730523D01*
X169531144Y-132611476D02*
X169531144Y-132040047D01*
X170531144Y-132325761D02*
X169531144Y-132325761D01*
X170245430Y-131754333D02*
X170245430Y-131278142D01*
X170531144Y-131849571D02*
X169531144Y-131516238D01*
X170531144Y-131182904D01*
X170435906Y-130278142D02*
X170483525Y-130325761D01*
X170531144Y-130468619D01*
X170531144Y-130563857D01*
X170483525Y-130706714D01*
X170388287Y-130801952D01*
X170293049Y-130849571D01*
X170102573Y-130897190D01*
X169959716Y-130897190D01*
X169769240Y-130849571D01*
X169674002Y-130801952D01*
X169578764Y-130706714D01*
X169531144Y-130563857D01*
X169531144Y-130468619D01*
X169578764Y-130325761D01*
X169626383Y-130278142D01*
X169531144Y-129992428D02*
X169531144Y-129421000D01*
X170531144Y-129706714D02*
X169531144Y-129706714D01*
X170531144Y-129087666D02*
X169531144Y-129087666D01*
X170531144Y-128135285D02*
X170531144Y-128611476D01*
X169531144Y-128611476D01*
X170007335Y-127801952D02*
X170007335Y-127468619D01*
X170531144Y-127325761D02*
X170531144Y-127801952D01*
X169531144Y-127801952D01*
X169531144Y-127325761D01*
X162283525Y-131730523D02*
X162331144Y-131587666D01*
X162331144Y-131349571D01*
X162283525Y-131254333D01*
X162235906Y-131206714D01*
X162140668Y-131159095D01*
X162045430Y-131159095D01*
X161950192Y-131206714D01*
X161902573Y-131254333D01*
X161854954Y-131349571D01*
X161807335Y-131540047D01*
X161759716Y-131635285D01*
X161712097Y-131682904D01*
X161616859Y-131730523D01*
X161521621Y-131730523D01*
X161426383Y-131682904D01*
X161378764Y-131635285D01*
X161331144Y-131540047D01*
X161331144Y-131301952D01*
X161378764Y-131159095D01*
X161331144Y-130825761D02*
X162331144Y-130587666D01*
X161616859Y-130397190D01*
X162331144Y-130206714D01*
X161331144Y-129968619D01*
X162331144Y-129063857D02*
X162331144Y-129635285D01*
X162331144Y-129349571D02*
X161331144Y-129349571D01*
X161474002Y-129444809D01*
X161569240Y-129540047D01*
X161616859Y-129635285D01*
X161426383Y-128682904D02*
X161378764Y-128635285D01*
X161331144Y-128540047D01*
X161331144Y-128301952D01*
X161378764Y-128206714D01*
X161426383Y-128159095D01*
X161521621Y-128111476D01*
X161616859Y-128111476D01*
X161759716Y-128159095D01*
X162331144Y-128730523D01*
X162331144Y-128111476D01*
X162546870Y-132611476D02*
X162546870Y-132040047D01*
X163546870Y-132325761D02*
X162546870Y-132325761D01*
X163261156Y-131754333D02*
X163261156Y-131278142D01*
X163546870Y-131849571D02*
X162546870Y-131516238D01*
X163546870Y-131182904D01*
X163451632Y-130278142D02*
X163499251Y-130325761D01*
X163546870Y-130468619D01*
X163546870Y-130563857D01*
X163499251Y-130706714D01*
X163404013Y-130801952D01*
X163308775Y-130849571D01*
X163118299Y-130897190D01*
X162975442Y-130897190D01*
X162784966Y-130849571D01*
X162689728Y-130801952D01*
X162594490Y-130706714D01*
X162546870Y-130563857D01*
X162546870Y-130468619D01*
X162594490Y-130325761D01*
X162642109Y-130278142D01*
X162546870Y-129992428D02*
X162546870Y-129421000D01*
X163546870Y-129706714D02*
X162546870Y-129706714D01*
X163546870Y-129087666D02*
X162546870Y-129087666D01*
X163546870Y-128135285D02*
X163546870Y-128611476D01*
X162546870Y-128611476D01*
X163023061Y-127801952D02*
X163023061Y-127468619D01*
X163546870Y-127325761D02*
X163546870Y-127801952D01*
X162546870Y-127801952D01*
X162546870Y-127325761D01*
X155299251Y-131730523D02*
X155346870Y-131587666D01*
X155346870Y-131349571D01*
X155299251Y-131254333D01*
X155251632Y-131206714D01*
X155156394Y-131159095D01*
X155061156Y-131159095D01*
X154965918Y-131206714D01*
X154918299Y-131254333D01*
X154870680Y-131349571D01*
X154823061Y-131540047D01*
X154775442Y-131635285D01*
X154727823Y-131682904D01*
X154632585Y-131730523D01*
X154537347Y-131730523D01*
X154442109Y-131682904D01*
X154394490Y-131635285D01*
X154346870Y-131540047D01*
X154346870Y-131301952D01*
X154394490Y-131159095D01*
X154346870Y-130825761D02*
X155346870Y-130587666D01*
X154632585Y-130397190D01*
X155346870Y-130206714D01*
X154346870Y-129968619D01*
X155346870Y-129063857D02*
X155346870Y-129635285D01*
X155346870Y-129349571D02*
X154346870Y-129349571D01*
X154489728Y-129444809D01*
X154584966Y-129540047D01*
X154632585Y-129635285D01*
X155346870Y-128111476D02*
X155346870Y-128682904D01*
X155346870Y-128397190D02*
X154346870Y-128397190D01*
X154489728Y-128492428D01*
X154584966Y-128587666D01*
X154632585Y-128682904D01*
X106625123Y-110115980D02*
X107196552Y-110115980D01*
X106910838Y-111115980D02*
X106910838Y-110115980D01*
X107482266Y-110830266D02*
X107958457Y-110830266D01*
X107387028Y-111115980D02*
X107720361Y-110115980D01*
X108053695Y-111115980D01*
X108958457Y-111020742D02*
X108910838Y-111068361D01*
X108767980Y-111115980D01*
X108672742Y-111115980D01*
X108529885Y-111068361D01*
X108434647Y-110973123D01*
X108387028Y-110877885D01*
X108339409Y-110687409D01*
X108339409Y-110544552D01*
X108387028Y-110354076D01*
X108434647Y-110258838D01*
X108529885Y-110163600D01*
X108672742Y-110115980D01*
X108767980Y-110115980D01*
X108910838Y-110163600D01*
X108958457Y-110211219D01*
X109244171Y-110115980D02*
X109815600Y-110115980D01*
X109529885Y-111115980D02*
X109529885Y-110115980D01*
X110148933Y-111115980D02*
X110148933Y-110115980D01*
X111101314Y-111115980D02*
X110625123Y-111115980D01*
X110625123Y-110115980D01*
X111434647Y-110592171D02*
X111767980Y-110592171D01*
X111910838Y-111115980D02*
X111434647Y-111115980D01*
X111434647Y-110115980D01*
X111910838Y-110115980D01*
X107506076Y-102868361D02*
X107648933Y-102915980D01*
X107887028Y-102915980D01*
X107982266Y-102868361D01*
X108029885Y-102820742D01*
X108077504Y-102725504D01*
X108077504Y-102630266D01*
X108029885Y-102535028D01*
X107982266Y-102487409D01*
X107887028Y-102439790D01*
X107696552Y-102392171D01*
X107601314Y-102344552D01*
X107553695Y-102296933D01*
X107506076Y-102201695D01*
X107506076Y-102106457D01*
X107553695Y-102011219D01*
X107601314Y-101963600D01*
X107696552Y-101915980D01*
X107934647Y-101915980D01*
X108077504Y-101963600D01*
X108410838Y-101915980D02*
X108648933Y-102915980D01*
X108839409Y-102201695D01*
X109029885Y-102915980D01*
X109267980Y-101915980D01*
X110172742Y-102915980D02*
X109601314Y-102915980D01*
X109887028Y-102915980D02*
X109887028Y-101915980D01*
X109791790Y-102058838D01*
X109696552Y-102154076D01*
X109601314Y-102201695D01*
X110506076Y-101915980D02*
X111172742Y-101915980D01*
X110744171Y-102915980D01*
X134609774Y-132611476D02*
X134609774Y-132040047D01*
X135609774Y-132325761D02*
X134609774Y-132325761D01*
X135324060Y-131754333D02*
X135324060Y-131278142D01*
X135609774Y-131849571D02*
X134609774Y-131516238D01*
X135609774Y-131182904D01*
X135514536Y-130278142D02*
X135562155Y-130325761D01*
X135609774Y-130468619D01*
X135609774Y-130563857D01*
X135562155Y-130706714D01*
X135466917Y-130801952D01*
X135371679Y-130849571D01*
X135181203Y-130897190D01*
X135038346Y-130897190D01*
X134847870Y-130849571D01*
X134752632Y-130801952D01*
X134657394Y-130706714D01*
X134609774Y-130563857D01*
X134609774Y-130468619D01*
X134657394Y-130325761D01*
X134705013Y-130278142D01*
X134609774Y-129992428D02*
X134609774Y-129421000D01*
X135609774Y-129706714D02*
X134609774Y-129706714D01*
X135609774Y-129087666D02*
X134609774Y-129087666D01*
X135609774Y-128135285D02*
X135609774Y-128611476D01*
X134609774Y-128611476D01*
X135085965Y-127801952D02*
X135085965Y-127468619D01*
X135609774Y-127325761D02*
X135609774Y-127801952D01*
X134609774Y-127801952D01*
X134609774Y-127325761D01*
X127362155Y-131254333D02*
X127409774Y-131111476D01*
X127409774Y-130873380D01*
X127362155Y-130778142D01*
X127314536Y-130730523D01*
X127219298Y-130682904D01*
X127124060Y-130682904D01*
X127028822Y-130730523D01*
X126981203Y-130778142D01*
X126933584Y-130873380D01*
X126885965Y-131063857D01*
X126838346Y-131159095D01*
X126790727Y-131206714D01*
X126695489Y-131254333D01*
X126600251Y-131254333D01*
X126505013Y-131206714D01*
X126457394Y-131159095D01*
X126409774Y-131063857D01*
X126409774Y-130825761D01*
X126457394Y-130682904D01*
X126409774Y-130349571D02*
X127409774Y-130111476D01*
X126695489Y-129921000D01*
X127409774Y-129730523D01*
X126409774Y-129492428D01*
X126409774Y-129206714D02*
X126409774Y-128540047D01*
X127409774Y-128968619D01*
X184858843Y-103190272D02*
X185430272Y-103190272D01*
X185144558Y-104190272D02*
X185144558Y-103190272D01*
X185715986Y-103904558D02*
X186192177Y-103904558D01*
X185620748Y-104190272D02*
X185954081Y-103190272D01*
X186287415Y-104190272D01*
X187192177Y-104095034D02*
X187144558Y-104142653D01*
X187001700Y-104190272D01*
X186906462Y-104190272D01*
X186763605Y-104142653D01*
X186668367Y-104047415D01*
X186620748Y-103952177D01*
X186573129Y-103761701D01*
X186573129Y-103618844D01*
X186620748Y-103428368D01*
X186668367Y-103333130D01*
X186763605Y-103237892D01*
X186906462Y-103190272D01*
X187001700Y-103190272D01*
X187144558Y-103237892D01*
X187192177Y-103285511D01*
X187477891Y-103190272D02*
X188049320Y-103190272D01*
X187763605Y-104190272D02*
X187763605Y-103190272D01*
X188382653Y-104190272D02*
X188382653Y-103190272D01*
X189335034Y-104190272D02*
X188858843Y-104190272D01*
X188858843Y-103190272D01*
X189668367Y-103666463D02*
X190001700Y-103666463D01*
X190144558Y-104190272D02*
X189668367Y-104190272D01*
X189668367Y-103190272D01*
X190144558Y-103190272D01*
X186215986Y-95942653D02*
X186358843Y-95990272D01*
X186596939Y-95990272D01*
X186692177Y-95942653D01*
X186739796Y-95895034D01*
X186787415Y-95799796D01*
X186787415Y-95704558D01*
X186739796Y-95609320D01*
X186692177Y-95561701D01*
X186596939Y-95514082D01*
X186406462Y-95466463D01*
X186311224Y-95418844D01*
X186263605Y-95371225D01*
X186215986Y-95275987D01*
X186215986Y-95180749D01*
X186263605Y-95085511D01*
X186311224Y-95037892D01*
X186406462Y-94990272D01*
X186644558Y-94990272D01*
X186787415Y-95037892D01*
X187120748Y-94990272D02*
X187358843Y-95990272D01*
X187549320Y-95275987D01*
X187739796Y-95990272D01*
X187977891Y-94990272D01*
X188787415Y-95323606D02*
X188787415Y-95990272D01*
X188549320Y-94942653D02*
X188311224Y-95656939D01*
X188930272Y-95656939D01*
X184858843Y-110197520D02*
X185430272Y-110197520D01*
X185144558Y-111197520D02*
X185144558Y-110197520D01*
X185715986Y-110911806D02*
X186192177Y-110911806D01*
X185620748Y-111197520D02*
X185954081Y-110197520D01*
X186287415Y-111197520D01*
X187192177Y-111102282D02*
X187144558Y-111149901D01*
X187001700Y-111197520D01*
X186906462Y-111197520D01*
X186763605Y-111149901D01*
X186668367Y-111054663D01*
X186620748Y-110959425D01*
X186573129Y-110768949D01*
X186573129Y-110626092D01*
X186620748Y-110435616D01*
X186668367Y-110340378D01*
X186763605Y-110245140D01*
X186906462Y-110197520D01*
X187001700Y-110197520D01*
X187144558Y-110245140D01*
X187192177Y-110292759D01*
X187477891Y-110197520D02*
X188049320Y-110197520D01*
X187763605Y-111197520D02*
X187763605Y-110197520D01*
X188382653Y-111197520D02*
X188382653Y-110197520D01*
X189335034Y-111197520D02*
X188858843Y-111197520D01*
X188858843Y-110197520D01*
X189668367Y-110673711D02*
X190001700Y-110673711D01*
X190144558Y-111197520D02*
X189668367Y-111197520D01*
X189668367Y-110197520D01*
X190144558Y-110197520D01*
X186215986Y-102949901D02*
X186358843Y-102997520D01*
X186596939Y-102997520D01*
X186692177Y-102949901D01*
X186739796Y-102902282D01*
X186787415Y-102807044D01*
X186787415Y-102711806D01*
X186739796Y-102616568D01*
X186692177Y-102568949D01*
X186596939Y-102521330D01*
X186406462Y-102473711D01*
X186311224Y-102426092D01*
X186263605Y-102378473D01*
X186215986Y-102283235D01*
X186215986Y-102187997D01*
X186263605Y-102092759D01*
X186311224Y-102045140D01*
X186406462Y-101997520D01*
X186644558Y-101997520D01*
X186787415Y-102045140D01*
X187120748Y-101997520D02*
X187358843Y-102997520D01*
X187549320Y-102283235D01*
X187739796Y-102997520D01*
X187977891Y-101997520D01*
X188835034Y-101997520D02*
X188358843Y-101997520D01*
X188311224Y-102473711D01*
X188358843Y-102426092D01*
X188454081Y-102378473D01*
X188692177Y-102378473D01*
X188787415Y-102426092D01*
X188835034Y-102473711D01*
X188882653Y-102568949D01*
X188882653Y-102807044D01*
X188835034Y-102902282D01*
X188787415Y-102949901D01*
X188692177Y-102997520D01*
X188454081Y-102997520D01*
X188358843Y-102949901D01*
X188311224Y-102902282D01*
X106625123Y-96143460D02*
X107196552Y-96143460D01*
X106910838Y-97143460D02*
X106910838Y-96143460D01*
X107482266Y-96857746D02*
X107958457Y-96857746D01*
X107387028Y-97143460D02*
X107720361Y-96143460D01*
X108053695Y-97143460D01*
X108958457Y-97048222D02*
X108910838Y-97095841D01*
X108767980Y-97143460D01*
X108672742Y-97143460D01*
X108529885Y-97095841D01*
X108434647Y-97000603D01*
X108387028Y-96905365D01*
X108339409Y-96714889D01*
X108339409Y-96572032D01*
X108387028Y-96381556D01*
X108434647Y-96286318D01*
X108529885Y-96191080D01*
X108672742Y-96143460D01*
X108767980Y-96143460D01*
X108910838Y-96191080D01*
X108958457Y-96238699D01*
X109244171Y-96143460D02*
X109815600Y-96143460D01*
X109529885Y-97143460D02*
X109529885Y-96143460D01*
X110148933Y-97143460D02*
X110148933Y-96143460D01*
X111101314Y-97143460D02*
X110625123Y-97143460D01*
X110625123Y-96143460D01*
X111434647Y-96619651D02*
X111767980Y-96619651D01*
X111910838Y-97143460D02*
X111434647Y-97143460D01*
X111434647Y-96143460D01*
X111910838Y-96143460D01*
X107506076Y-88895841D02*
X107648933Y-88943460D01*
X107887028Y-88943460D01*
X107982266Y-88895841D01*
X108029885Y-88848222D01*
X108077504Y-88752984D01*
X108077504Y-88657746D01*
X108029885Y-88562508D01*
X107982266Y-88514889D01*
X107887028Y-88467270D01*
X107696552Y-88419651D01*
X107601314Y-88372032D01*
X107553695Y-88324413D01*
X107506076Y-88229175D01*
X107506076Y-88133937D01*
X107553695Y-88038699D01*
X107601314Y-87991080D01*
X107696552Y-87943460D01*
X107934647Y-87943460D01*
X108077504Y-87991080D01*
X108410838Y-87943460D02*
X108648933Y-88943460D01*
X108839409Y-88229175D01*
X109029885Y-88943460D01*
X109267980Y-87943460D01*
X110172742Y-88943460D02*
X109601314Y-88943460D01*
X109887028Y-88943460D02*
X109887028Y-87943460D01*
X109791790Y-88086318D01*
X109696552Y-88181556D01*
X109601314Y-88229175D01*
X111077504Y-87943460D02*
X110601314Y-87943460D01*
X110553695Y-88419651D01*
X110601314Y-88372032D01*
X110696552Y-88324413D01*
X110934647Y-88324413D01*
X111029885Y-88372032D01*
X111077504Y-88419651D01*
X111125123Y-88514889D01*
X111125123Y-88752984D01*
X111077504Y-88848222D01*
X111029885Y-88895841D01*
X110934647Y-88943460D01*
X110696552Y-88943460D01*
X110601314Y-88895841D01*
X110553695Y-88848222D01*
X155562596Y-132611476D02*
X155562596Y-132040047D01*
X156562596Y-132325761D02*
X155562596Y-132325761D01*
X156276882Y-131754333D02*
X156276882Y-131278142D01*
X156562596Y-131849571D02*
X155562596Y-131516238D01*
X156562596Y-131182904D01*
X156467358Y-130278142D02*
X156514977Y-130325761D01*
X156562596Y-130468619D01*
X156562596Y-130563857D01*
X156514977Y-130706714D01*
X156419739Y-130801952D01*
X156324501Y-130849571D01*
X156134025Y-130897190D01*
X155991168Y-130897190D01*
X155800692Y-130849571D01*
X155705454Y-130801952D01*
X155610216Y-130706714D01*
X155562596Y-130563857D01*
X155562596Y-130468619D01*
X155610216Y-130325761D01*
X155657835Y-130278142D01*
X155562596Y-129992428D02*
X155562596Y-129421000D01*
X156562596Y-129706714D02*
X155562596Y-129706714D01*
X156562596Y-129087666D02*
X155562596Y-129087666D01*
X156562596Y-128135285D02*
X156562596Y-128611476D01*
X155562596Y-128611476D01*
X156038787Y-127801952D02*
X156038787Y-127468619D01*
X156562596Y-127325761D02*
X156562596Y-127801952D01*
X155562596Y-127801952D01*
X155562596Y-127325761D01*
X148314977Y-131730523D02*
X148362596Y-131587666D01*
X148362596Y-131349571D01*
X148314977Y-131254333D01*
X148267358Y-131206714D01*
X148172120Y-131159095D01*
X148076882Y-131159095D01*
X147981644Y-131206714D01*
X147934025Y-131254333D01*
X147886406Y-131349571D01*
X147838787Y-131540047D01*
X147791168Y-131635285D01*
X147743549Y-131682904D01*
X147648311Y-131730523D01*
X147553073Y-131730523D01*
X147457835Y-131682904D01*
X147410216Y-131635285D01*
X147362596Y-131540047D01*
X147362596Y-131301952D01*
X147410216Y-131159095D01*
X147362596Y-130825761D02*
X148362596Y-130587666D01*
X147648311Y-130397190D01*
X148362596Y-130206714D01*
X147362596Y-129968619D01*
X148362596Y-129063857D02*
X148362596Y-129635285D01*
X148362596Y-129349571D02*
X147362596Y-129349571D01*
X147505454Y-129444809D01*
X147600692Y-129540047D01*
X147648311Y-129635285D01*
X147362596Y-128444809D02*
X147362596Y-128349571D01*
X147410216Y-128254333D01*
X147457835Y-128206714D01*
X147553073Y-128159095D01*
X147743549Y-128111476D01*
X147981644Y-128111476D01*
X148172120Y-128159095D01*
X148267358Y-128206714D01*
X148314977Y-128254333D01*
X148362596Y-128349571D01*
X148362596Y-128444809D01*
X148314977Y-128540047D01*
X148267358Y-128587666D01*
X148172120Y-128635285D01*
X147981644Y-128682904D01*
X147743549Y-128682904D01*
X147553073Y-128635285D01*
X147457835Y-128587666D01*
X147410216Y-128540047D01*
X147362596Y-128444809D01*
X127625500Y-132611476D02*
X127625500Y-132040047D01*
X128625500Y-132325761D02*
X127625500Y-132325761D01*
X128339786Y-131754333D02*
X128339786Y-131278142D01*
X128625500Y-131849571D02*
X127625500Y-131516238D01*
X128625500Y-131182904D01*
X128530262Y-130278142D02*
X128577881Y-130325761D01*
X128625500Y-130468619D01*
X128625500Y-130563857D01*
X128577881Y-130706714D01*
X128482643Y-130801952D01*
X128387405Y-130849571D01*
X128196929Y-130897190D01*
X128054072Y-130897190D01*
X127863596Y-130849571D01*
X127768358Y-130801952D01*
X127673120Y-130706714D01*
X127625500Y-130563857D01*
X127625500Y-130468619D01*
X127673120Y-130325761D01*
X127720739Y-130278142D01*
X127625500Y-129992428D02*
X127625500Y-129421000D01*
X128625500Y-129706714D02*
X127625500Y-129706714D01*
X128625500Y-129087666D02*
X127625500Y-129087666D01*
X128625500Y-128135285D02*
X128625500Y-128611476D01*
X127625500Y-128611476D01*
X128101691Y-127801952D02*
X128101691Y-127468619D01*
X128625500Y-127325761D02*
X128625500Y-127801952D01*
X127625500Y-127801952D01*
X127625500Y-127325761D01*
X120377881Y-131254333D02*
X120425500Y-131111476D01*
X120425500Y-130873380D01*
X120377881Y-130778142D01*
X120330262Y-130730523D01*
X120235024Y-130682904D01*
X120139786Y-130682904D01*
X120044548Y-130730523D01*
X119996929Y-130778142D01*
X119949310Y-130873380D01*
X119901691Y-131063857D01*
X119854072Y-131159095D01*
X119806453Y-131206714D01*
X119711215Y-131254333D01*
X119615977Y-131254333D01*
X119520739Y-131206714D01*
X119473120Y-131159095D01*
X119425500Y-131063857D01*
X119425500Y-130825761D01*
X119473120Y-130682904D01*
X119425500Y-130349571D02*
X120425500Y-130111476D01*
X119711215Y-129921000D01*
X120425500Y-129730523D01*
X119425500Y-129492428D01*
X119425500Y-128682904D02*
X119425500Y-128873380D01*
X119473120Y-128968619D01*
X119520739Y-129016238D01*
X119663596Y-129111476D01*
X119854072Y-129159095D01*
X120235024Y-129159095D01*
X120330262Y-129111476D01*
X120377881Y-129063857D01*
X120425500Y-128968619D01*
X120425500Y-128778142D01*
X120377881Y-128682904D01*
X120330262Y-128635285D01*
X120235024Y-128587666D01*
X119996929Y-128587666D01*
X119901691Y-128635285D01*
X119854072Y-128682904D01*
X119806453Y-128778142D01*
X119806453Y-128968619D01*
X119854072Y-129063857D01*
X119901691Y-129111476D01*
X119996929Y-129159095D01*
X106625123Y-89157200D02*
X107196552Y-89157200D01*
X106910838Y-90157200D02*
X106910838Y-89157200D01*
X107482266Y-89871486D02*
X107958457Y-89871486D01*
X107387028Y-90157200D02*
X107720361Y-89157200D01*
X108053695Y-90157200D01*
X108958457Y-90061962D02*
X108910838Y-90109581D01*
X108767980Y-90157200D01*
X108672742Y-90157200D01*
X108529885Y-90109581D01*
X108434647Y-90014343D01*
X108387028Y-89919105D01*
X108339409Y-89728629D01*
X108339409Y-89585772D01*
X108387028Y-89395296D01*
X108434647Y-89300058D01*
X108529885Y-89204820D01*
X108672742Y-89157200D01*
X108767980Y-89157200D01*
X108910838Y-89204820D01*
X108958457Y-89252439D01*
X109244171Y-89157200D02*
X109815600Y-89157200D01*
X109529885Y-90157200D02*
X109529885Y-89157200D01*
X110148933Y-90157200D02*
X110148933Y-89157200D01*
X111101314Y-90157200D02*
X110625123Y-90157200D01*
X110625123Y-89157200D01*
X111434647Y-89633391D02*
X111767980Y-89633391D01*
X111910838Y-90157200D02*
X111434647Y-90157200D01*
X111434647Y-89157200D01*
X111910838Y-89157200D01*
X107506076Y-81909581D02*
X107648933Y-81957200D01*
X107887028Y-81957200D01*
X107982266Y-81909581D01*
X108029885Y-81861962D01*
X108077504Y-81766724D01*
X108077504Y-81671486D01*
X108029885Y-81576248D01*
X107982266Y-81528629D01*
X107887028Y-81481010D01*
X107696552Y-81433391D01*
X107601314Y-81385772D01*
X107553695Y-81338153D01*
X107506076Y-81242915D01*
X107506076Y-81147677D01*
X107553695Y-81052439D01*
X107601314Y-81004820D01*
X107696552Y-80957200D01*
X107934647Y-80957200D01*
X108077504Y-81004820D01*
X108410838Y-80957200D02*
X108648933Y-81957200D01*
X108839409Y-81242915D01*
X109029885Y-81957200D01*
X109267980Y-80957200D01*
X110172742Y-81957200D02*
X109601314Y-81957200D01*
X109887028Y-81957200D02*
X109887028Y-80957200D01*
X109791790Y-81100058D01*
X109696552Y-81195296D01*
X109601314Y-81242915D01*
X111029885Y-81290534D02*
X111029885Y-81957200D01*
X110791790Y-80909581D02*
X110553695Y-81623867D01*
X111172742Y-81623867D01*
X141594048Y-132611476D02*
X141594048Y-132040047D01*
X142594048Y-132325761D02*
X141594048Y-132325761D01*
X142308334Y-131754333D02*
X142308334Y-131278142D01*
X142594048Y-131849571D02*
X141594048Y-131516238D01*
X142594048Y-131182904D01*
X142498810Y-130278142D02*
X142546429Y-130325761D01*
X142594048Y-130468619D01*
X142594048Y-130563857D01*
X142546429Y-130706714D01*
X142451191Y-130801952D01*
X142355953Y-130849571D01*
X142165477Y-130897190D01*
X142022620Y-130897190D01*
X141832144Y-130849571D01*
X141736906Y-130801952D01*
X141641668Y-130706714D01*
X141594048Y-130563857D01*
X141594048Y-130468619D01*
X141641668Y-130325761D01*
X141689287Y-130278142D01*
X141594048Y-129992428D02*
X141594048Y-129421000D01*
X142594048Y-129706714D02*
X141594048Y-129706714D01*
X142594048Y-129087666D02*
X141594048Y-129087666D01*
X142594048Y-128135285D02*
X142594048Y-128611476D01*
X141594048Y-128611476D01*
X142070239Y-127801952D02*
X142070239Y-127468619D01*
X142594048Y-127325761D02*
X142594048Y-127801952D01*
X141594048Y-127801952D01*
X141594048Y-127325761D01*
X134346429Y-131254333D02*
X134394048Y-131111476D01*
X134394048Y-130873380D01*
X134346429Y-130778142D01*
X134298810Y-130730523D01*
X134203572Y-130682904D01*
X134108334Y-130682904D01*
X134013096Y-130730523D01*
X133965477Y-130778142D01*
X133917858Y-130873380D01*
X133870239Y-131063857D01*
X133822620Y-131159095D01*
X133775001Y-131206714D01*
X133679763Y-131254333D01*
X133584525Y-131254333D01*
X133489287Y-131206714D01*
X133441668Y-131159095D01*
X133394048Y-131063857D01*
X133394048Y-130825761D01*
X133441668Y-130682904D01*
X133394048Y-130349571D02*
X134394048Y-130111476D01*
X133679763Y-129921000D01*
X134394048Y-129730523D01*
X133394048Y-129492428D01*
X133822620Y-128968619D02*
X133775001Y-129063857D01*
X133727382Y-129111476D01*
X133632144Y-129159095D01*
X133584525Y-129159095D01*
X133489287Y-129111476D01*
X133441668Y-129063857D01*
X133394048Y-128968619D01*
X133394048Y-128778142D01*
X133441668Y-128682904D01*
X133489287Y-128635285D01*
X133584525Y-128587666D01*
X133632144Y-128587666D01*
X133727382Y-128635285D01*
X133775001Y-128682904D01*
X133822620Y-128778142D01*
X133822620Y-128968619D01*
X133870239Y-129063857D01*
X133917858Y-129111476D01*
X134013096Y-129159095D01*
X134203572Y-129159095D01*
X134298810Y-129111476D01*
X134346429Y-129063857D01*
X134394048Y-128968619D01*
X134394048Y-128778142D01*
X134346429Y-128682904D01*
X134298810Y-128635285D01*
X134203572Y-128587666D01*
X134013096Y-128587666D01*
X133917858Y-128635285D01*
X133870239Y-128682904D01*
X133822620Y-128778142D01*
X144383884Y-123177580D02*
X143907694Y-123177580D01*
X143907694Y-122177580D01*
X144717218Y-122653771D02*
X145050551Y-122653771D01*
X145193408Y-123177580D02*
X144717218Y-123177580D01*
X144717218Y-122177580D01*
X145193408Y-122177580D01*
X145621980Y-123177580D02*
X145621980Y-122177580D01*
X145860075Y-122177580D01*
X146002932Y-122225200D01*
X146098170Y-122320438D01*
X146145789Y-122415676D01*
X146193408Y-122606152D01*
X146193408Y-122749009D01*
X146145789Y-122939485D01*
X146098170Y-123034723D01*
X146002932Y-123129961D01*
X145860075Y-123177580D01*
X145621980Y-123177580D01*
D15*
X144541027Y-124336152D02*
X144541027Y-123936152D01*
X144636265Y-123936152D01*
X144693408Y-123955200D01*
X144731503Y-123993295D01*
X144750551Y-124031390D01*
X144769599Y-124107580D01*
X144769599Y-124164723D01*
X144750551Y-124240914D01*
X144731503Y-124279009D01*
X144693408Y-124317104D01*
X144636265Y-124336152D01*
X144541027Y-124336152D01*
X144921980Y-123974247D02*
X144941027Y-123955200D01*
X144979122Y-123936152D01*
X145074361Y-123936152D01*
X145112456Y-123955200D01*
X145131503Y-123974247D01*
X145150551Y-124012342D01*
X145150551Y-124050438D01*
X145131503Y-124107580D01*
X144902932Y-124336152D01*
X145150551Y-124336152D01*
X145302932Y-123974247D02*
X145321980Y-123955200D01*
X145360075Y-123936152D01*
X145455313Y-123936152D01*
X145493408Y-123955200D01*
X145512456Y-123974247D01*
X145531503Y-124012342D01*
X145531503Y-124050438D01*
X145512456Y-124107580D01*
X145283884Y-124336152D01*
X145531503Y-124336152D01*
D11*
X180408342Y-107835980D02*
X179932152Y-107835980D01*
X179932152Y-106835980D01*
X180741676Y-107312171D02*
X181075009Y-107312171D01*
X181217866Y-107835980D02*
X180741676Y-107835980D01*
X180741676Y-106835980D01*
X181217866Y-106835980D01*
X181646438Y-107835980D02*
X181646438Y-106835980D01*
X181884533Y-106835980D01*
X182027390Y-106883600D01*
X182122628Y-106978838D01*
X182170247Y-107074076D01*
X182217866Y-107264552D01*
X182217866Y-107407409D01*
X182170247Y-107597885D01*
X182122628Y-107693123D01*
X182027390Y-107788361D01*
X181884533Y-107835980D01*
X181646438Y-107835980D01*
D15*
X180565485Y-108994552D02*
X180565485Y-108594552D01*
X180660723Y-108594552D01*
X180717866Y-108613600D01*
X180755961Y-108651695D01*
X180775009Y-108689790D01*
X180794057Y-108765980D01*
X180794057Y-108823123D01*
X180775009Y-108899314D01*
X180755961Y-108937409D01*
X180717866Y-108975504D01*
X180660723Y-108994552D01*
X180565485Y-108994552D01*
X180946438Y-108632647D02*
X180965485Y-108613600D01*
X181003580Y-108594552D01*
X181098819Y-108594552D01*
X181136914Y-108613600D01*
X181155961Y-108632647D01*
X181175009Y-108670742D01*
X181175009Y-108708838D01*
X181155961Y-108765980D01*
X180927390Y-108994552D01*
X181175009Y-108994552D01*
X181555961Y-108994552D02*
X181327390Y-108994552D01*
X181441676Y-108994552D02*
X181441676Y-108594552D01*
X181403580Y-108651695D01*
X181365485Y-108689790D01*
X181327390Y-108708838D01*
D11*
X172381942Y-123177580D02*
X171905752Y-123177580D01*
X171905752Y-122177580D01*
X172715276Y-122653771D02*
X173048609Y-122653771D01*
X173191466Y-123177580D02*
X172715276Y-123177580D01*
X172715276Y-122177580D01*
X173191466Y-122177580D01*
X173620038Y-123177580D02*
X173620038Y-122177580D01*
X173858133Y-122177580D01*
X174000990Y-122225200D01*
X174096228Y-122320438D01*
X174143847Y-122415676D01*
X174191466Y-122606152D01*
X174191466Y-122749009D01*
X174143847Y-122939485D01*
X174096228Y-123034723D01*
X174000990Y-123129961D01*
X173858133Y-123177580D01*
X173620038Y-123177580D01*
D15*
X172539085Y-124336152D02*
X172539085Y-123936152D01*
X172634323Y-123936152D01*
X172691466Y-123955200D01*
X172729561Y-123993295D01*
X172748609Y-124031390D01*
X172767657Y-124107580D01*
X172767657Y-124164723D01*
X172748609Y-124240914D01*
X172729561Y-124279009D01*
X172691466Y-124317104D01*
X172634323Y-124336152D01*
X172539085Y-124336152D01*
X172920038Y-123974247D02*
X172939085Y-123955200D01*
X172977180Y-123936152D01*
X173072419Y-123936152D01*
X173110514Y-123955200D01*
X173129561Y-123974247D01*
X173148609Y-124012342D01*
X173148609Y-124050438D01*
X173129561Y-124107580D01*
X172900990Y-124336152D01*
X173148609Y-124336152D01*
X173281942Y-123936152D02*
X173529561Y-123936152D01*
X173396228Y-124088533D01*
X173453371Y-124088533D01*
X173491466Y-124107580D01*
X173510514Y-124126628D01*
X173529561Y-124164723D01*
X173529561Y-124259961D01*
X173510514Y-124298057D01*
X173491466Y-124317104D01*
X173453371Y-124336152D01*
X173339085Y-124336152D01*
X173300990Y-124317104D01*
X173281942Y-124298057D01*
D11*
X104024647Y-72626671D02*
X103691314Y-72626671D01*
X103691314Y-73150480D02*
X103691314Y-72150480D01*
X104167504Y-72150480D01*
X104548457Y-73150480D02*
X104548457Y-72483814D01*
X104548457Y-72150480D02*
X104500838Y-72198100D01*
X104548457Y-72245719D01*
X104596076Y-72198100D01*
X104548457Y-72150480D01*
X104548457Y-72245719D01*
X105453219Y-73150480D02*
X105453219Y-72150480D01*
X105453219Y-73102861D02*
X105357980Y-73150480D01*
X105167504Y-73150480D01*
X105072266Y-73102861D01*
X105024647Y-73055242D01*
X104977028Y-72960004D01*
X104977028Y-72674290D01*
X105024647Y-72579052D01*
X105072266Y-72531433D01*
X105167504Y-72483814D01*
X105357980Y-72483814D01*
X105453219Y-72531433D01*
X106357980Y-72483814D02*
X106357980Y-73150480D01*
X105929409Y-72483814D02*
X105929409Y-73007623D01*
X105977028Y-73102861D01*
X106072266Y-73150480D01*
X106215123Y-73150480D01*
X106310361Y-73102861D01*
X106357980Y-73055242D01*
X107262742Y-73102861D02*
X107167504Y-73150480D01*
X106977028Y-73150480D01*
X106881790Y-73102861D01*
X106834171Y-73055242D01*
X106786552Y-72960004D01*
X106786552Y-72674290D01*
X106834171Y-72579052D01*
X106881790Y-72531433D01*
X106977028Y-72483814D01*
X107167504Y-72483814D01*
X107262742Y-72531433D01*
X107691314Y-73150480D02*
X107691314Y-72483814D01*
X107691314Y-72150480D02*
X107643695Y-72198100D01*
X107691314Y-72245719D01*
X107738933Y-72198100D01*
X107691314Y-72150480D01*
X107691314Y-72245719D01*
X108596076Y-73150480D02*
X108596076Y-72626671D01*
X108548457Y-72531433D01*
X108453219Y-72483814D01*
X108262742Y-72483814D01*
X108167504Y-72531433D01*
X108596076Y-73102861D02*
X108500838Y-73150480D01*
X108262742Y-73150480D01*
X108167504Y-73102861D01*
X108119885Y-73007623D01*
X108119885Y-72912385D01*
X108167504Y-72817147D01*
X108262742Y-72769528D01*
X108500838Y-72769528D01*
X108596076Y-72721909D01*
X109215123Y-73150480D02*
X109119885Y-73102861D01*
X109072266Y-73007623D01*
X109072266Y-72150480D01*
D16*
X106191314Y-70969314D02*
X106124647Y-70969314D01*
X106124647Y-71074076D02*
X106124647Y-70874076D01*
X106219885Y-70874076D01*
X106296076Y-71074076D02*
X106296076Y-70874076D01*
X106391314Y-71074076D02*
X106391314Y-70874076D01*
X106438933Y-70874076D01*
X106467504Y-70883600D01*
X106486552Y-70902647D01*
X106496076Y-70921695D01*
X106505600Y-70959790D01*
X106505600Y-70988361D01*
X106496076Y-71026457D01*
X106486552Y-71045504D01*
X106467504Y-71064552D01*
X106438933Y-71074076D01*
X106391314Y-71074076D01*
X106572266Y-70874076D02*
X106696076Y-70874076D01*
X106629409Y-70950266D01*
X106657980Y-70950266D01*
X106677028Y-70959790D01*
X106686552Y-70969314D01*
X106696076Y-70988361D01*
X106696076Y-71035980D01*
X106686552Y-71055028D01*
X106677028Y-71064552D01*
X106657980Y-71074076D01*
X106600838Y-71074076D01*
X106581790Y-71064552D01*
X106572266Y-71055028D01*
D11*
X187674647Y-155746671D02*
X187341314Y-155746671D01*
X187341314Y-156270480D02*
X187341314Y-155270480D01*
X187817504Y-155270480D01*
X188198457Y-156270480D02*
X188198457Y-155603814D01*
X188198457Y-155270480D02*
X188150838Y-155318100D01*
X188198457Y-155365719D01*
X188246076Y-155318100D01*
X188198457Y-155270480D01*
X188198457Y-155365719D01*
X189103219Y-156270480D02*
X189103219Y-155270480D01*
X189103219Y-156222861D02*
X189007980Y-156270480D01*
X188817504Y-156270480D01*
X188722266Y-156222861D01*
X188674647Y-156175242D01*
X188627028Y-156080004D01*
X188627028Y-155794290D01*
X188674647Y-155699052D01*
X188722266Y-155651433D01*
X188817504Y-155603814D01*
X189007980Y-155603814D01*
X189103219Y-155651433D01*
X190007980Y-155603814D02*
X190007980Y-156270480D01*
X189579409Y-155603814D02*
X189579409Y-156127623D01*
X189627028Y-156222861D01*
X189722266Y-156270480D01*
X189865123Y-156270480D01*
X189960361Y-156222861D01*
X190007980Y-156175242D01*
X190912742Y-156222861D02*
X190817504Y-156270480D01*
X190627028Y-156270480D01*
X190531790Y-156222861D01*
X190484171Y-156175242D01*
X190436552Y-156080004D01*
X190436552Y-155794290D01*
X190484171Y-155699052D01*
X190531790Y-155651433D01*
X190627028Y-155603814D01*
X190817504Y-155603814D01*
X190912742Y-155651433D01*
X191341314Y-156270480D02*
X191341314Y-155603814D01*
X191341314Y-155270480D02*
X191293695Y-155318100D01*
X191341314Y-155365719D01*
X191388933Y-155318100D01*
X191341314Y-155270480D01*
X191341314Y-155365719D01*
X192246076Y-156270480D02*
X192246076Y-155746671D01*
X192198457Y-155651433D01*
X192103219Y-155603814D01*
X191912742Y-155603814D01*
X191817504Y-155651433D01*
X192246076Y-156222861D02*
X192150838Y-156270480D01*
X191912742Y-156270480D01*
X191817504Y-156222861D01*
X191769885Y-156127623D01*
X191769885Y-156032385D01*
X191817504Y-155937147D01*
X191912742Y-155889528D01*
X192150838Y-155889528D01*
X192246076Y-155841909D01*
X192865123Y-156270480D02*
X192769885Y-156222861D01*
X192722266Y-156127623D01*
X192722266Y-155270480D01*
D16*
X189841314Y-154089314D02*
X189774647Y-154089314D01*
X189774647Y-154194076D02*
X189774647Y-153994076D01*
X189869885Y-153994076D01*
X189946076Y-154194076D02*
X189946076Y-153994076D01*
X190041314Y-154194076D02*
X190041314Y-153994076D01*
X190088933Y-153994076D01*
X190117504Y-154003600D01*
X190136552Y-154022647D01*
X190146076Y-154041695D01*
X190155600Y-154079790D01*
X190155600Y-154108361D01*
X190146076Y-154146457D01*
X190136552Y-154165504D01*
X190117504Y-154184552D01*
X190088933Y-154194076D01*
X190041314Y-154194076D01*
X190327028Y-154060742D02*
X190327028Y-154194076D01*
X190279409Y-153984552D02*
X190231790Y-154127409D01*
X190355600Y-154127409D01*
D11*
X140592742Y-166195980D02*
X140592742Y-165195980D01*
X140926076Y-165910266D01*
X141259409Y-165195980D01*
X141259409Y-166195980D01*
X141735600Y-166195980D02*
X141735600Y-165529314D01*
X141735600Y-165195980D02*
X141687980Y-165243600D01*
X141735600Y-165291219D01*
X141783219Y-165243600D01*
X141735600Y-165195980D01*
X141735600Y-165291219D01*
X142211790Y-165529314D02*
X142211790Y-166195980D01*
X142211790Y-165624552D02*
X142259409Y-165576933D01*
X142354647Y-165529314D01*
X142497504Y-165529314D01*
X142592742Y-165576933D01*
X142640361Y-165672171D01*
X142640361Y-166195980D01*
X143116552Y-166195980D02*
X143116552Y-165529314D01*
X143116552Y-165195980D02*
X143068933Y-165243600D01*
X143116552Y-165291219D01*
X143164171Y-165243600D01*
X143116552Y-165195980D01*
X143116552Y-165291219D01*
X143592742Y-166195980D02*
X143592742Y-165195980D01*
X143592742Y-165576933D02*
X143687980Y-165529314D01*
X143878457Y-165529314D01*
X143973695Y-165576933D01*
X144021314Y-165624552D01*
X144068933Y-165719790D01*
X144068933Y-166005504D01*
X144021314Y-166100742D01*
X143973695Y-166148361D01*
X143878457Y-166195980D01*
X143687980Y-166195980D01*
X143592742Y-166148361D01*
X144926076Y-166195980D02*
X144926076Y-165672171D01*
X144878457Y-165576933D01*
X144783219Y-165529314D01*
X144592742Y-165529314D01*
X144497504Y-165576933D01*
X144926076Y-166148361D02*
X144830838Y-166195980D01*
X144592742Y-166195980D01*
X144497504Y-166148361D01*
X144449885Y-166053123D01*
X144449885Y-165957885D01*
X144497504Y-165862647D01*
X144592742Y-165815028D01*
X144830838Y-165815028D01*
X144926076Y-165767409D01*
X145830838Y-166195980D02*
X145830838Y-165195980D01*
X145830838Y-166148361D02*
X145735600Y-166195980D01*
X145545123Y-166195980D01*
X145449885Y-166148361D01*
X145402266Y-166100742D01*
X145354647Y-166005504D01*
X145354647Y-165719790D01*
X145402266Y-165624552D01*
X145449885Y-165576933D01*
X145545123Y-165529314D01*
X145735600Y-165529314D01*
X145830838Y-165576933D01*
X146735600Y-165529314D02*
X146735600Y-166338838D01*
X146687980Y-166434076D01*
X146640361Y-166481695D01*
X146545123Y-166529314D01*
X146402266Y-166529314D01*
X146307028Y-166481695D01*
X146735600Y-166148361D02*
X146640361Y-166195980D01*
X146449885Y-166195980D01*
X146354647Y-166148361D01*
X146307028Y-166100742D01*
X146259409Y-166005504D01*
X146259409Y-165719790D01*
X146307028Y-165624552D01*
X146354647Y-165576933D01*
X146449885Y-165529314D01*
X146640361Y-165529314D01*
X146735600Y-165576933D01*
X147592742Y-166148361D02*
X147497504Y-166195980D01*
X147307028Y-166195980D01*
X147211790Y-166148361D01*
X147164171Y-166053123D01*
X147164171Y-165672171D01*
X147211790Y-165576933D01*
X147307028Y-165529314D01*
X147497504Y-165529314D01*
X147592742Y-165576933D01*
X147640361Y-165672171D01*
X147640361Y-165767409D01*
X147164171Y-165862647D01*
X148830838Y-165672171D02*
X149164171Y-165672171D01*
X149307028Y-166195980D02*
X148830838Y-166195980D01*
X148830838Y-165195980D01*
X149307028Y-165195980D01*
X149640361Y-166195980D02*
X150164171Y-165529314D01*
X149640361Y-165529314D02*
X150164171Y-166195980D01*
X150545123Y-165529314D02*
X150545123Y-166529314D01*
X150545123Y-165576933D02*
X150640361Y-165529314D01*
X150830838Y-165529314D01*
X150926076Y-165576933D01*
X150973695Y-165624552D01*
X151021314Y-165719790D01*
X151021314Y-166005504D01*
X150973695Y-166100742D01*
X150926076Y-166148361D01*
X150830838Y-166195980D01*
X150640361Y-166195980D01*
X150545123Y-166148361D01*
X151878457Y-166195980D02*
X151878457Y-165672171D01*
X151830838Y-165576933D01*
X151735600Y-165529314D01*
X151545123Y-165529314D01*
X151449885Y-165576933D01*
X151878457Y-166148361D02*
X151783219Y-166195980D01*
X151545123Y-166195980D01*
X151449885Y-166148361D01*
X151402266Y-166053123D01*
X151402266Y-165957885D01*
X151449885Y-165862647D01*
X151545123Y-165815028D01*
X151783219Y-165815028D01*
X151878457Y-165767409D01*
X152354647Y-165529314D02*
X152354647Y-166195980D01*
X152354647Y-165624552D02*
X152402266Y-165576933D01*
X152497504Y-165529314D01*
X152640361Y-165529314D01*
X152735600Y-165576933D01*
X152783219Y-165672171D01*
X152783219Y-166195980D01*
X153211790Y-166148361D02*
X153307028Y-166195980D01*
X153497504Y-166195980D01*
X153592742Y-166148361D01*
X153640361Y-166053123D01*
X153640361Y-166005504D01*
X153592742Y-165910266D01*
X153497504Y-165862647D01*
X153354647Y-165862647D01*
X153259409Y-165815028D01*
X153211790Y-165719790D01*
X153211790Y-165672171D01*
X153259409Y-165576933D01*
X153354647Y-165529314D01*
X153497504Y-165529314D01*
X153592742Y-165576933D01*
X154068933Y-166195980D02*
X154068933Y-165529314D01*
X154068933Y-165195980D02*
X154021314Y-165243600D01*
X154068933Y-165291219D01*
X154116552Y-165243600D01*
X154068933Y-165195980D01*
X154068933Y-165291219D01*
X154687980Y-166195980D02*
X154592742Y-166148361D01*
X154545123Y-166100742D01*
X154497504Y-166005504D01*
X154497504Y-165719790D01*
X154545123Y-165624552D01*
X154592742Y-165576933D01*
X154687980Y-165529314D01*
X154830838Y-165529314D01*
X154926076Y-165576933D01*
X154973695Y-165624552D01*
X155021314Y-165719790D01*
X155021314Y-166005504D01*
X154973695Y-166100742D01*
X154926076Y-166148361D01*
X154830838Y-166195980D01*
X154687980Y-166195980D01*
X155449885Y-165529314D02*
X155449885Y-166195980D01*
X155449885Y-165624552D02*
X155497504Y-165576933D01*
X155592742Y-165529314D01*
X155735600Y-165529314D01*
X155830838Y-165576933D01*
X155878457Y-165672171D01*
X155878457Y-166195980D01*
X147424876Y-166838380D02*
X147424876Y-167552666D01*
X147377257Y-167695523D01*
X147282019Y-167790761D01*
X147139161Y-167838380D01*
X147043923Y-167838380D01*
X148424876Y-167838380D02*
X147853447Y-167838380D01*
X148139161Y-167838380D02*
X148139161Y-166838380D01*
X148043923Y-166981238D01*
X147948685Y-167076476D01*
X147853447Y-167124095D01*
X148758209Y-166838380D02*
X149377257Y-166838380D01*
X149043923Y-167219333D01*
X149186780Y-167219333D01*
X149282019Y-167266952D01*
X149329638Y-167314571D01*
X149377257Y-167409809D01*
X149377257Y-167647904D01*
X149329638Y-167743142D01*
X149282019Y-167790761D01*
X149186780Y-167838380D01*
X148901066Y-167838380D01*
X148805828Y-167790761D01*
X148758209Y-167743142D01*
M02*
