G04 #@! TF.GenerationSoftware,KiCad,Pcbnew,(5.1.9)-1*
G04 #@! TF.CreationDate,2021-01-15T22:53:48-07:00*
G04 #@! TF.ProjectId,purplewizard-ART,70757270-6c65-4776-997a-6172642d4152,1*
G04 #@! TF.SameCoordinates,Original*
G04 #@! TF.FileFunction,Other,Fab,Bot*
%FSLAX46Y46*%
G04 Gerber Fmt 4.6, Leading zero omitted, Abs format (unit mm)*
G04 Created by KiCad (PCBNEW (5.1.9)-1) date 2021-01-15 22:53:48*
%MOMM*%
%LPD*%
G01*
G04 APERTURE LIST*
%ADD10C,0.304800*%
%ADD11C,0.150000*%
%ADD12C,0.100000*%
%ADD13C,0.015000*%
G04 APERTURE END LIST*
D10*
X157528571Y-98681647D02*
X156077142Y-98681647D01*
X156802857Y-101221647D02*
X156802857Y-98681647D01*
X155230476Y-101221647D02*
X155230476Y-98681647D01*
X155230476Y-99891171D02*
X153779047Y-99891171D01*
X153779047Y-101221647D02*
X153779047Y-98681647D01*
X152569523Y-101221647D02*
X152569523Y-98681647D01*
X151480952Y-101100695D02*
X151118095Y-101221647D01*
X150513333Y-101221647D01*
X150271428Y-101100695D01*
X150150476Y-100979742D01*
X150029523Y-100737838D01*
X150029523Y-100495933D01*
X150150476Y-100254028D01*
X150271428Y-100133076D01*
X150513333Y-100012123D01*
X150997142Y-99891171D01*
X151239047Y-99770219D01*
X151360000Y-99649266D01*
X151480952Y-99407361D01*
X151480952Y-99165457D01*
X151360000Y-98923552D01*
X151239047Y-98802600D01*
X150997142Y-98681647D01*
X150392380Y-98681647D01*
X150029523Y-98802600D01*
X147126666Y-100495933D02*
X145917142Y-100495933D01*
X147368571Y-101221647D02*
X146521904Y-98681647D01*
X145675238Y-101221647D01*
X143377142Y-101221647D02*
X144223809Y-100012123D01*
X144828571Y-101221647D02*
X144828571Y-98681647D01*
X143860952Y-98681647D01*
X143619047Y-98802600D01*
X143498095Y-98923552D01*
X143377142Y-99165457D01*
X143377142Y-99528314D01*
X143498095Y-99770219D01*
X143619047Y-99891171D01*
X143860952Y-100012123D01*
X144828571Y-100012123D01*
X142288571Y-99891171D02*
X141441904Y-99891171D01*
X141079047Y-101221647D02*
X142288571Y-101221647D01*
X142288571Y-98681647D01*
X141079047Y-98681647D01*
X140111428Y-100495933D02*
X138901904Y-100495933D01*
X140353333Y-101221647D02*
X139506666Y-98681647D01*
X138660000Y-101221647D01*
X135031428Y-99891171D02*
X135878095Y-99891171D01*
X135878095Y-101221647D02*
X135878095Y-98681647D01*
X134668571Y-98681647D01*
X133217142Y-98681647D02*
X132733333Y-98681647D01*
X132491428Y-98802600D01*
X132249523Y-99044504D01*
X132128571Y-99528314D01*
X132128571Y-100374980D01*
X132249523Y-100858790D01*
X132491428Y-101100695D01*
X132733333Y-101221647D01*
X133217142Y-101221647D01*
X133459047Y-101100695D01*
X133700952Y-100858790D01*
X133821904Y-100374980D01*
X133821904Y-99528314D01*
X133700952Y-99044504D01*
X133459047Y-98802600D01*
X133217142Y-98681647D01*
X129588571Y-101221647D02*
X130435238Y-100012123D01*
X131040000Y-101221647D02*
X131040000Y-98681647D01*
X130072380Y-98681647D01*
X129830476Y-98802600D01*
X129709523Y-98923552D01*
X129588571Y-99165457D01*
X129588571Y-99528314D01*
X129709523Y-99770219D01*
X129830476Y-99891171D01*
X130072380Y-100012123D01*
X131040000Y-100012123D01*
X154928095Y-104005971D02*
X155774761Y-104005971D01*
X155774761Y-105336447D02*
X155774761Y-102796447D01*
X154565238Y-102796447D01*
X153718571Y-104610733D02*
X152509047Y-104610733D01*
X153960476Y-105336447D02*
X153113809Y-102796447D01*
X152267142Y-105336447D01*
X150573809Y-104005971D02*
X150210952Y-104126923D01*
X150090000Y-104247876D01*
X149969047Y-104489780D01*
X149969047Y-104852638D01*
X150090000Y-105094542D01*
X150210952Y-105215495D01*
X150452857Y-105336447D01*
X151420476Y-105336447D01*
X151420476Y-102796447D01*
X150573809Y-102796447D01*
X150331904Y-102917400D01*
X150210952Y-103038352D01*
X150090000Y-103280257D01*
X150090000Y-103522161D01*
X150210952Y-103764066D01*
X150331904Y-103885019D01*
X150573809Y-104005971D01*
X151420476Y-104005971D01*
X146945238Y-105336447D02*
X146945238Y-102796447D01*
X146098571Y-104610733D01*
X145251904Y-102796447D01*
X145251904Y-105336447D01*
X144163333Y-104610733D02*
X142953809Y-104610733D01*
X144405238Y-105336447D02*
X143558571Y-102796447D01*
X142711904Y-105336447D01*
X140413809Y-105336447D02*
X141260476Y-104126923D01*
X141865238Y-105336447D02*
X141865238Y-102796447D01*
X140897619Y-102796447D01*
X140655714Y-102917400D01*
X140534761Y-103038352D01*
X140413809Y-103280257D01*
X140413809Y-103643114D01*
X140534761Y-103885019D01*
X140655714Y-104005971D01*
X140897619Y-104126923D01*
X141865238Y-104126923D01*
X139325238Y-105336447D02*
X139325238Y-102796447D01*
X137873809Y-105336447D02*
X138962380Y-103885019D01*
X137873809Y-102796447D02*
X139325238Y-104247876D01*
X136785238Y-105336447D02*
X136785238Y-102796447D01*
X135575714Y-105336447D02*
X135575714Y-102796447D01*
X134124285Y-105336447D01*
X134124285Y-102796447D01*
X131584285Y-102917400D02*
X131826190Y-102796447D01*
X132189047Y-102796447D01*
X132551904Y-102917400D01*
X132793809Y-103159304D01*
X132914761Y-103401209D01*
X133035714Y-103885019D01*
X133035714Y-104247876D01*
X132914761Y-104731685D01*
X132793809Y-104973590D01*
X132551904Y-105215495D01*
X132189047Y-105336447D01*
X131947142Y-105336447D01*
X131584285Y-105215495D01*
X131463333Y-105094542D01*
X131463333Y-104247876D01*
X131947142Y-104247876D01*
X130495714Y-105215495D02*
X130132857Y-105336447D01*
X129528095Y-105336447D01*
X129286190Y-105215495D01*
X129165238Y-105094542D01*
X129044285Y-104852638D01*
X129044285Y-104610733D01*
X129165238Y-104368828D01*
X129286190Y-104247876D01*
X129528095Y-104126923D01*
X130011904Y-104005971D01*
X130253809Y-103885019D01*
X130374761Y-103764066D01*
X130495714Y-103522161D01*
X130495714Y-103280257D01*
X130374761Y-103038352D01*
X130253809Y-102917400D01*
X130011904Y-102796447D01*
X129407142Y-102796447D01*
X129044285Y-102917400D01*
D11*
X126820000Y-110010000D02*
X126820000Y-94560000D01*
X159250000Y-110010000D02*
X126820000Y-110010000D01*
X159210000Y-94500000D02*
X159250000Y-110010000D01*
X126820000Y-94550000D02*
X159210000Y-94500000D01*
D12*
X137160900Y-70419800D02*
X137160900Y-74499800D01*
X137160900Y-74499800D02*
X138160900Y-75499800D01*
X138160900Y-75499800D02*
X149860900Y-75499800D01*
X149860900Y-75499800D02*
X149860900Y-70419800D01*
X149860900Y-70419800D02*
X137160900Y-70419800D01*
X138110900Y-69039800D02*
X138110900Y-70419800D01*
X138750900Y-70419800D02*
X138750900Y-69039800D01*
X138750900Y-69039800D02*
X138110900Y-69039800D01*
X138110900Y-75499800D02*
X138110900Y-76879800D01*
X138110900Y-76879800D02*
X138750900Y-76879800D01*
X138750900Y-76879800D02*
X138750900Y-75499800D01*
X140650900Y-69039800D02*
X140650900Y-70419800D01*
X141290900Y-70419800D02*
X141290900Y-69039800D01*
X141290900Y-69039800D02*
X140650900Y-69039800D01*
X140650900Y-75499800D02*
X140650900Y-76879800D01*
X140650900Y-76879800D02*
X141290900Y-76879800D01*
X141290900Y-76879800D02*
X141290900Y-75499800D01*
X143190900Y-69039800D02*
X143190900Y-70419800D01*
X143830900Y-70419800D02*
X143830900Y-69039800D01*
X143830900Y-69039800D02*
X143190900Y-69039800D01*
X143190900Y-75499800D02*
X143190900Y-76879800D01*
X143190900Y-76879800D02*
X143830900Y-76879800D01*
X143830900Y-76879800D02*
X143830900Y-75499800D01*
X145730900Y-69039800D02*
X145730900Y-70419800D01*
X146370900Y-70419800D02*
X146370900Y-69039800D01*
X146370900Y-69039800D02*
X145730900Y-69039800D01*
X145730900Y-75499800D02*
X145730900Y-76879800D01*
X145730900Y-76879800D02*
X146370900Y-76879800D01*
X146370900Y-76879800D02*
X146370900Y-75499800D01*
X148270900Y-69039800D02*
X148270900Y-70419800D01*
X148910900Y-70419800D02*
X148910900Y-69039800D01*
X148910900Y-69039800D02*
X148270900Y-69039800D01*
X148270900Y-75499800D02*
X148270900Y-76879800D01*
X148270900Y-76879800D02*
X148910900Y-76879800D01*
X148910900Y-76879800D02*
X148910900Y-75499800D01*
D11*
X181458980Y-108180752D02*
X181458980Y-108752180D01*
X182458980Y-108466466D02*
X181458980Y-108466466D01*
X182411361Y-109466466D02*
X182458980Y-109371228D01*
X182458980Y-109180752D01*
X182411361Y-109085514D01*
X182316123Y-109037895D01*
X181935171Y-109037895D01*
X181839933Y-109085514D01*
X181792314Y-109180752D01*
X181792314Y-109371228D01*
X181839933Y-109466466D01*
X181935171Y-109514085D01*
X182030409Y-109514085D01*
X182125647Y-109037895D01*
X182411361Y-109895038D02*
X182458980Y-109990276D01*
X182458980Y-110180752D01*
X182411361Y-110275990D01*
X182316123Y-110323609D01*
X182268504Y-110323609D01*
X182173266Y-110275990D01*
X182125647Y-110180752D01*
X182125647Y-110037895D01*
X182078028Y-109942657D01*
X181982790Y-109895038D01*
X181935171Y-109895038D01*
X181839933Y-109942657D01*
X181792314Y-110037895D01*
X181792314Y-110180752D01*
X181839933Y-110275990D01*
X181792314Y-110609323D02*
X181792314Y-110990276D01*
X181458980Y-110752180D02*
X182316123Y-110752180D01*
X182411361Y-110799800D01*
X182458980Y-110895038D01*
X182458980Y-110990276D01*
X182458980Y-111323609D02*
X181458980Y-111323609D01*
X181458980Y-111704561D01*
X181506600Y-111799800D01*
X181554219Y-111847419D01*
X181649457Y-111895038D01*
X181792314Y-111895038D01*
X181887552Y-111847419D01*
X181935171Y-111799800D01*
X181982790Y-111704561D01*
X181982790Y-111323609D01*
X182458980Y-112466466D02*
X182411361Y-112371228D01*
X182363742Y-112323609D01*
X182268504Y-112275990D01*
X181982790Y-112275990D01*
X181887552Y-112323609D01*
X181839933Y-112371228D01*
X181792314Y-112466466D01*
X181792314Y-112609323D01*
X181839933Y-112704561D01*
X181887552Y-112752180D01*
X181982790Y-112799800D01*
X182268504Y-112799800D01*
X182363742Y-112752180D01*
X182411361Y-112704561D01*
X182458980Y-112609323D01*
X182458980Y-112466466D01*
X182458980Y-113228371D02*
X181792314Y-113228371D01*
X181458980Y-113228371D02*
X181506600Y-113180752D01*
X181554219Y-113228371D01*
X181506600Y-113275990D01*
X181458980Y-113228371D01*
X181554219Y-113228371D01*
X181792314Y-113704561D02*
X182458980Y-113704561D01*
X181887552Y-113704561D02*
X181839933Y-113752180D01*
X181792314Y-113847419D01*
X181792314Y-113990276D01*
X181839933Y-114085514D01*
X181935171Y-114133133D01*
X182458980Y-114133133D01*
X181792314Y-114466466D02*
X181792314Y-114847419D01*
X181458980Y-114609323D02*
X182316123Y-114609323D01*
X182411361Y-114656942D01*
X182458980Y-114752180D01*
X182458980Y-114847419D01*
X182554219Y-114942657D02*
X182554219Y-115704561D01*
X182458980Y-115942657D02*
X181458980Y-115942657D01*
X181458980Y-116323609D01*
X181506600Y-116418847D01*
X181554219Y-116466466D01*
X181649457Y-116514085D01*
X181792314Y-116514085D01*
X181887552Y-116466466D01*
X181935171Y-116418847D01*
X181982790Y-116323609D01*
X181982790Y-115942657D01*
X182458980Y-117371228D02*
X181935171Y-117371228D01*
X181839933Y-117323609D01*
X181792314Y-117228371D01*
X181792314Y-117037895D01*
X181839933Y-116942657D01*
X182411361Y-117371228D02*
X182458980Y-117275990D01*
X182458980Y-117037895D01*
X182411361Y-116942657D01*
X182316123Y-116895038D01*
X182220885Y-116895038D01*
X182125647Y-116942657D01*
X182078028Y-117037895D01*
X182078028Y-117275990D01*
X182030409Y-117371228D01*
X182458980Y-118275990D02*
X181458980Y-118275990D01*
X182411361Y-118275990D02*
X182458980Y-118180752D01*
X182458980Y-117990276D01*
X182411361Y-117895038D01*
X182363742Y-117847419D01*
X182268504Y-117799800D01*
X181982790Y-117799800D01*
X181887552Y-117847419D01*
X181839933Y-117895038D01*
X181792314Y-117990276D01*
X181792314Y-118180752D01*
X181839933Y-118275990D01*
X182554219Y-118514085D02*
X182554219Y-119275990D01*
X181554219Y-119466466D02*
X181506600Y-119514085D01*
X181458980Y-119609323D01*
X181458980Y-119847419D01*
X181506600Y-119942657D01*
X181554219Y-119990276D01*
X181649457Y-120037895D01*
X181744695Y-120037895D01*
X181887552Y-119990276D01*
X182458980Y-119418847D01*
X182458980Y-120037895D01*
X182363742Y-120466466D02*
X182411361Y-120514085D01*
X182458980Y-120466466D01*
X182411361Y-120418847D01*
X182363742Y-120466466D01*
X182458980Y-120466466D01*
X181458980Y-121133133D02*
X181458980Y-121228371D01*
X181506600Y-121323609D01*
X181554219Y-121371228D01*
X181649457Y-121418847D01*
X181839933Y-121466466D01*
X182078028Y-121466466D01*
X182268504Y-121418847D01*
X182363742Y-121371228D01*
X182411361Y-121323609D01*
X182458980Y-121228371D01*
X182458980Y-121133133D01*
X182411361Y-121037895D01*
X182363742Y-120990276D01*
X182268504Y-120942657D01*
X182078028Y-120895038D01*
X181839933Y-120895038D01*
X181649457Y-120942657D01*
X181554219Y-120990276D01*
X181506600Y-121037895D01*
X181458980Y-121133133D01*
X182458980Y-121799800D02*
X181792314Y-122323609D01*
X181792314Y-121799800D02*
X182458980Y-122323609D01*
X181554219Y-122656942D02*
X181506600Y-122704561D01*
X181458980Y-122799800D01*
X181458980Y-123037895D01*
X181506600Y-123133133D01*
X181554219Y-123180752D01*
X181649457Y-123228371D01*
X181744695Y-123228371D01*
X181887552Y-123180752D01*
X182458980Y-122609323D01*
X182458980Y-123228371D01*
X182363742Y-123656942D02*
X182411361Y-123704561D01*
X182458980Y-123656942D01*
X182411361Y-123609323D01*
X182363742Y-123656942D01*
X182458980Y-123656942D01*
X181458980Y-124323609D02*
X181458980Y-124418847D01*
X181506600Y-124514085D01*
X181554219Y-124561704D01*
X181649457Y-124609323D01*
X181839933Y-124656942D01*
X182078028Y-124656942D01*
X182268504Y-124609323D01*
X182363742Y-124561704D01*
X182411361Y-124514085D01*
X182458980Y-124418847D01*
X182458980Y-124323609D01*
X182411361Y-124228371D01*
X182363742Y-124180752D01*
X182268504Y-124133133D01*
X182078028Y-124085514D01*
X181839933Y-124085514D01*
X181649457Y-124133133D01*
X181554219Y-124180752D01*
X181506600Y-124228371D01*
X181458980Y-124323609D01*
X182458980Y-125085514D02*
X181792314Y-125085514D01*
X181887552Y-125085514D02*
X181839933Y-125133133D01*
X181792314Y-125228371D01*
X181792314Y-125371228D01*
X181839933Y-125466466D01*
X181935171Y-125514085D01*
X182458980Y-125514085D01*
X181935171Y-125514085D02*
X181839933Y-125561704D01*
X181792314Y-125656942D01*
X181792314Y-125799800D01*
X181839933Y-125895038D01*
X181935171Y-125942657D01*
X182458980Y-125942657D01*
X182458980Y-126418847D02*
X181792314Y-126418847D01*
X181887552Y-126418847D02*
X181839933Y-126466466D01*
X181792314Y-126561704D01*
X181792314Y-126704561D01*
X181839933Y-126799800D01*
X181935171Y-126847419D01*
X182458980Y-126847419D01*
X181935171Y-126847419D02*
X181839933Y-126895038D01*
X181792314Y-126990276D01*
X181792314Y-127133133D01*
X181839933Y-127228371D01*
X181935171Y-127275990D01*
X182458980Y-127275990D01*
X183508980Y-112440752D02*
X183508980Y-113012180D01*
X184508980Y-112726466D02*
X183508980Y-112726466D01*
X184461361Y-113726466D02*
X184508980Y-113631228D01*
X184508980Y-113440752D01*
X184461361Y-113345514D01*
X184366123Y-113297895D01*
X183985171Y-113297895D01*
X183889933Y-113345514D01*
X183842314Y-113440752D01*
X183842314Y-113631228D01*
X183889933Y-113726466D01*
X183985171Y-113774085D01*
X184080409Y-113774085D01*
X184175647Y-113297895D01*
X184461361Y-114155038D02*
X184508980Y-114250276D01*
X184508980Y-114440752D01*
X184461361Y-114535990D01*
X184366123Y-114583609D01*
X184318504Y-114583609D01*
X184223266Y-114535990D01*
X184175647Y-114440752D01*
X184175647Y-114297895D01*
X184128028Y-114202657D01*
X184032790Y-114155038D01*
X183985171Y-114155038D01*
X183889933Y-114202657D01*
X183842314Y-114297895D01*
X183842314Y-114440752D01*
X183889933Y-114535990D01*
X183842314Y-114869323D02*
X183842314Y-115250276D01*
X183508980Y-115012180D02*
X184366123Y-115012180D01*
X184461361Y-115059800D01*
X184508980Y-115155038D01*
X184508980Y-115250276D01*
X184508980Y-115583609D02*
X183508980Y-115583609D01*
X183508980Y-115964561D01*
X183556600Y-116059800D01*
X183604219Y-116107419D01*
X183699457Y-116155038D01*
X183842314Y-116155038D01*
X183937552Y-116107419D01*
X183985171Y-116059800D01*
X184032790Y-115964561D01*
X184032790Y-115583609D01*
X184508980Y-116726466D02*
X184461361Y-116631228D01*
X184413742Y-116583609D01*
X184318504Y-116535990D01*
X184032790Y-116535990D01*
X183937552Y-116583609D01*
X183889933Y-116631228D01*
X183842314Y-116726466D01*
X183842314Y-116869323D01*
X183889933Y-116964561D01*
X183937552Y-117012180D01*
X184032790Y-117059800D01*
X184318504Y-117059800D01*
X184413742Y-117012180D01*
X184461361Y-116964561D01*
X184508980Y-116869323D01*
X184508980Y-116726466D01*
X184508980Y-117488371D02*
X183842314Y-117488371D01*
X183508980Y-117488371D02*
X183556600Y-117440752D01*
X183604219Y-117488371D01*
X183556600Y-117535990D01*
X183508980Y-117488371D01*
X183604219Y-117488371D01*
X183842314Y-117964561D02*
X184508980Y-117964561D01*
X183937552Y-117964561D02*
X183889933Y-118012180D01*
X183842314Y-118107419D01*
X183842314Y-118250276D01*
X183889933Y-118345514D01*
X183985171Y-118393133D01*
X184508980Y-118393133D01*
X183842314Y-118726466D02*
X183842314Y-119107419D01*
X183508980Y-118869323D02*
X184366123Y-118869323D01*
X184461361Y-118916942D01*
X184508980Y-119012180D01*
X184508980Y-119107419D01*
X184604219Y-119202657D02*
X184604219Y-119964561D01*
X184508980Y-120202657D02*
X183508980Y-120202657D01*
X183508980Y-120583609D01*
X183556600Y-120678847D01*
X183604219Y-120726466D01*
X183699457Y-120774085D01*
X183842314Y-120774085D01*
X183937552Y-120726466D01*
X183985171Y-120678847D01*
X184032790Y-120583609D01*
X184032790Y-120202657D01*
X184508980Y-121631228D02*
X183985171Y-121631228D01*
X183889933Y-121583609D01*
X183842314Y-121488371D01*
X183842314Y-121297895D01*
X183889933Y-121202657D01*
X184461361Y-121631228D02*
X184508980Y-121535990D01*
X184508980Y-121297895D01*
X184461361Y-121202657D01*
X184366123Y-121155038D01*
X184270885Y-121155038D01*
X184175647Y-121202657D01*
X184128028Y-121297895D01*
X184128028Y-121535990D01*
X184080409Y-121631228D01*
X184508980Y-122535990D02*
X183508980Y-122535990D01*
X184461361Y-122535990D02*
X184508980Y-122440752D01*
X184508980Y-122250276D01*
X184461361Y-122155038D01*
X184413742Y-122107419D01*
X184318504Y-122059800D01*
X184032790Y-122059800D01*
X183937552Y-122107419D01*
X183889933Y-122155038D01*
X183842314Y-122250276D01*
X183842314Y-122440752D01*
X183889933Y-122535990D01*
X184604219Y-122774085D02*
X184604219Y-123535990D01*
X183604219Y-123726466D02*
X183556600Y-123774085D01*
X183508980Y-123869323D01*
X183508980Y-124107419D01*
X183556600Y-124202657D01*
X183604219Y-124250276D01*
X183699457Y-124297895D01*
X183794695Y-124297895D01*
X183937552Y-124250276D01*
X184508980Y-123678847D01*
X184508980Y-124297895D01*
X184413742Y-124726466D02*
X184461361Y-124774085D01*
X184508980Y-124726466D01*
X184461361Y-124678847D01*
X184413742Y-124726466D01*
X184508980Y-124726466D01*
X183508980Y-125393133D02*
X183508980Y-125488371D01*
X183556600Y-125583609D01*
X183604219Y-125631228D01*
X183699457Y-125678847D01*
X183889933Y-125726466D01*
X184128028Y-125726466D01*
X184318504Y-125678847D01*
X184413742Y-125631228D01*
X184461361Y-125583609D01*
X184508980Y-125488371D01*
X184508980Y-125393133D01*
X184461361Y-125297895D01*
X184413742Y-125250276D01*
X184318504Y-125202657D01*
X184128028Y-125155038D01*
X183889933Y-125155038D01*
X183699457Y-125202657D01*
X183604219Y-125250276D01*
X183556600Y-125297895D01*
X183508980Y-125393133D01*
X184508980Y-126059800D02*
X183842314Y-126583609D01*
X183842314Y-126059800D02*
X184508980Y-126583609D01*
X183604219Y-126916942D02*
X183556600Y-126964561D01*
X183508980Y-127059800D01*
X183508980Y-127297895D01*
X183556600Y-127393133D01*
X183604219Y-127440752D01*
X183699457Y-127488371D01*
X183794695Y-127488371D01*
X183937552Y-127440752D01*
X184508980Y-126869323D01*
X184508980Y-127488371D01*
X184413742Y-127916942D02*
X184461361Y-127964561D01*
X184508980Y-127916942D01*
X184461361Y-127869323D01*
X184413742Y-127916942D01*
X184508980Y-127916942D01*
X183508980Y-128583609D02*
X183508980Y-128678847D01*
X183556600Y-128774085D01*
X183604219Y-128821704D01*
X183699457Y-128869323D01*
X183889933Y-128916942D01*
X184128028Y-128916942D01*
X184318504Y-128869323D01*
X184413742Y-128821704D01*
X184461361Y-128774085D01*
X184508980Y-128678847D01*
X184508980Y-128583609D01*
X184461361Y-128488371D01*
X184413742Y-128440752D01*
X184318504Y-128393133D01*
X184128028Y-128345514D01*
X183889933Y-128345514D01*
X183699457Y-128393133D01*
X183604219Y-128440752D01*
X183556600Y-128488371D01*
X183508980Y-128583609D01*
X184508980Y-129345514D02*
X183842314Y-129345514D01*
X183937552Y-129345514D02*
X183889933Y-129393133D01*
X183842314Y-129488371D01*
X183842314Y-129631228D01*
X183889933Y-129726466D01*
X183985171Y-129774085D01*
X184508980Y-129774085D01*
X183985171Y-129774085D02*
X183889933Y-129821704D01*
X183842314Y-129916942D01*
X183842314Y-130059800D01*
X183889933Y-130155038D01*
X183985171Y-130202657D01*
X184508980Y-130202657D01*
X184508980Y-130678847D02*
X183842314Y-130678847D01*
X183937552Y-130678847D02*
X183889933Y-130726466D01*
X183842314Y-130821704D01*
X183842314Y-130964561D01*
X183889933Y-131059800D01*
X183985171Y-131107419D01*
X184508980Y-131107419D01*
X183985171Y-131107419D02*
X183889933Y-131155038D01*
X183842314Y-131250276D01*
X183842314Y-131393133D01*
X183889933Y-131488371D01*
X183985171Y-131535990D01*
X184508980Y-131535990D01*
X102388980Y-105740752D02*
X102388980Y-106312180D01*
X103388980Y-106026466D02*
X102388980Y-106026466D01*
X103341361Y-107026466D02*
X103388980Y-106931228D01*
X103388980Y-106740752D01*
X103341361Y-106645514D01*
X103246123Y-106597895D01*
X102865171Y-106597895D01*
X102769933Y-106645514D01*
X102722314Y-106740752D01*
X102722314Y-106931228D01*
X102769933Y-107026466D01*
X102865171Y-107074085D01*
X102960409Y-107074085D01*
X103055647Y-106597895D01*
X103341361Y-107455038D02*
X103388980Y-107550276D01*
X103388980Y-107740752D01*
X103341361Y-107835990D01*
X103246123Y-107883609D01*
X103198504Y-107883609D01*
X103103266Y-107835990D01*
X103055647Y-107740752D01*
X103055647Y-107597895D01*
X103008028Y-107502657D01*
X102912790Y-107455038D01*
X102865171Y-107455038D01*
X102769933Y-107502657D01*
X102722314Y-107597895D01*
X102722314Y-107740752D01*
X102769933Y-107835990D01*
X102722314Y-108169323D02*
X102722314Y-108550276D01*
X102388980Y-108312180D02*
X103246123Y-108312180D01*
X103341361Y-108359800D01*
X103388980Y-108455038D01*
X103388980Y-108550276D01*
X103388980Y-108883609D02*
X102388980Y-108883609D01*
X102388980Y-109264561D01*
X102436600Y-109359800D01*
X102484219Y-109407419D01*
X102579457Y-109455038D01*
X102722314Y-109455038D01*
X102817552Y-109407419D01*
X102865171Y-109359800D01*
X102912790Y-109264561D01*
X102912790Y-108883609D01*
X103388980Y-110026466D02*
X103341361Y-109931228D01*
X103293742Y-109883609D01*
X103198504Y-109835990D01*
X102912790Y-109835990D01*
X102817552Y-109883609D01*
X102769933Y-109931228D01*
X102722314Y-110026466D01*
X102722314Y-110169323D01*
X102769933Y-110264561D01*
X102817552Y-110312180D01*
X102912790Y-110359800D01*
X103198504Y-110359800D01*
X103293742Y-110312180D01*
X103341361Y-110264561D01*
X103388980Y-110169323D01*
X103388980Y-110026466D01*
X103388980Y-110788371D02*
X102722314Y-110788371D01*
X102388980Y-110788371D02*
X102436600Y-110740752D01*
X102484219Y-110788371D01*
X102436600Y-110835990D01*
X102388980Y-110788371D01*
X102484219Y-110788371D01*
X102722314Y-111264561D02*
X103388980Y-111264561D01*
X102817552Y-111264561D02*
X102769933Y-111312180D01*
X102722314Y-111407419D01*
X102722314Y-111550276D01*
X102769933Y-111645514D01*
X102865171Y-111693133D01*
X103388980Y-111693133D01*
X102722314Y-112026466D02*
X102722314Y-112407419D01*
X102388980Y-112169323D02*
X103246123Y-112169323D01*
X103341361Y-112216942D01*
X103388980Y-112312180D01*
X103388980Y-112407419D01*
X103484219Y-112502657D02*
X103484219Y-113264561D01*
X103388980Y-113502657D02*
X102388980Y-113502657D01*
X102388980Y-113883609D01*
X102436600Y-113978847D01*
X102484219Y-114026466D01*
X102579457Y-114074085D01*
X102722314Y-114074085D01*
X102817552Y-114026466D01*
X102865171Y-113978847D01*
X102912790Y-113883609D01*
X102912790Y-113502657D01*
X103388980Y-114931228D02*
X102865171Y-114931228D01*
X102769933Y-114883609D01*
X102722314Y-114788371D01*
X102722314Y-114597895D01*
X102769933Y-114502657D01*
X103341361Y-114931228D02*
X103388980Y-114835990D01*
X103388980Y-114597895D01*
X103341361Y-114502657D01*
X103246123Y-114455038D01*
X103150885Y-114455038D01*
X103055647Y-114502657D01*
X103008028Y-114597895D01*
X103008028Y-114835990D01*
X102960409Y-114931228D01*
X103388980Y-115835990D02*
X102388980Y-115835990D01*
X103341361Y-115835990D02*
X103388980Y-115740752D01*
X103388980Y-115550276D01*
X103341361Y-115455038D01*
X103293742Y-115407419D01*
X103198504Y-115359800D01*
X102912790Y-115359800D01*
X102817552Y-115407419D01*
X102769933Y-115455038D01*
X102722314Y-115550276D01*
X102722314Y-115740752D01*
X102769933Y-115835990D01*
X103484219Y-116074085D02*
X103484219Y-116835990D01*
X102484219Y-117026466D02*
X102436600Y-117074085D01*
X102388980Y-117169323D01*
X102388980Y-117407419D01*
X102436600Y-117502657D01*
X102484219Y-117550276D01*
X102579457Y-117597895D01*
X102674695Y-117597895D01*
X102817552Y-117550276D01*
X103388980Y-116978847D01*
X103388980Y-117597895D01*
X103293742Y-118026466D02*
X103341361Y-118074085D01*
X103388980Y-118026466D01*
X103341361Y-117978847D01*
X103293742Y-118026466D01*
X103388980Y-118026466D01*
X102388980Y-118693133D02*
X102388980Y-118788371D01*
X102436600Y-118883609D01*
X102484219Y-118931228D01*
X102579457Y-118978847D01*
X102769933Y-119026466D01*
X103008028Y-119026466D01*
X103198504Y-118978847D01*
X103293742Y-118931228D01*
X103341361Y-118883609D01*
X103388980Y-118788371D01*
X103388980Y-118693133D01*
X103341361Y-118597895D01*
X103293742Y-118550276D01*
X103198504Y-118502657D01*
X103008028Y-118455038D01*
X102769933Y-118455038D01*
X102579457Y-118502657D01*
X102484219Y-118550276D01*
X102436600Y-118597895D01*
X102388980Y-118693133D01*
X103388980Y-119359800D02*
X102722314Y-119883609D01*
X102722314Y-119359800D02*
X103388980Y-119883609D01*
X102484219Y-120216942D02*
X102436600Y-120264561D01*
X102388980Y-120359800D01*
X102388980Y-120597895D01*
X102436600Y-120693133D01*
X102484219Y-120740752D01*
X102579457Y-120788371D01*
X102674695Y-120788371D01*
X102817552Y-120740752D01*
X103388980Y-120169323D01*
X103388980Y-120788371D01*
X103293742Y-121216942D02*
X103341361Y-121264561D01*
X103388980Y-121216942D01*
X103341361Y-121169323D01*
X103293742Y-121216942D01*
X103388980Y-121216942D01*
X102388980Y-121883609D02*
X102388980Y-121978847D01*
X102436600Y-122074085D01*
X102484219Y-122121704D01*
X102579457Y-122169323D01*
X102769933Y-122216942D01*
X103008028Y-122216942D01*
X103198504Y-122169323D01*
X103293742Y-122121704D01*
X103341361Y-122074085D01*
X103388980Y-121978847D01*
X103388980Y-121883609D01*
X103341361Y-121788371D01*
X103293742Y-121740752D01*
X103198504Y-121693133D01*
X103008028Y-121645514D01*
X102769933Y-121645514D01*
X102579457Y-121693133D01*
X102484219Y-121740752D01*
X102436600Y-121788371D01*
X102388980Y-121883609D01*
X103388980Y-122645514D02*
X102722314Y-122645514D01*
X102817552Y-122645514D02*
X102769933Y-122693133D01*
X102722314Y-122788371D01*
X102722314Y-122931228D01*
X102769933Y-123026466D01*
X102865171Y-123074085D01*
X103388980Y-123074085D01*
X102865171Y-123074085D02*
X102769933Y-123121704D01*
X102722314Y-123216942D01*
X102722314Y-123359800D01*
X102769933Y-123455038D01*
X102865171Y-123502657D01*
X103388980Y-123502657D01*
X103388980Y-123978847D02*
X102722314Y-123978847D01*
X102817552Y-123978847D02*
X102769933Y-124026466D01*
X102722314Y-124121704D01*
X102722314Y-124264561D01*
X102769933Y-124359800D01*
X102865171Y-124407419D01*
X103388980Y-124407419D01*
X102865171Y-124407419D02*
X102769933Y-124455038D01*
X102722314Y-124550276D01*
X102722314Y-124693133D01*
X102769933Y-124788371D01*
X102865171Y-124835990D01*
X103388980Y-124835990D01*
X97528980Y-110800752D02*
X97528980Y-111372180D01*
X98528980Y-111086466D02*
X97528980Y-111086466D01*
X98481361Y-112086466D02*
X98528980Y-111991228D01*
X98528980Y-111800752D01*
X98481361Y-111705514D01*
X98386123Y-111657895D01*
X98005171Y-111657895D01*
X97909933Y-111705514D01*
X97862314Y-111800752D01*
X97862314Y-111991228D01*
X97909933Y-112086466D01*
X98005171Y-112134085D01*
X98100409Y-112134085D01*
X98195647Y-111657895D01*
X98481361Y-112515038D02*
X98528980Y-112610276D01*
X98528980Y-112800752D01*
X98481361Y-112895990D01*
X98386123Y-112943609D01*
X98338504Y-112943609D01*
X98243266Y-112895990D01*
X98195647Y-112800752D01*
X98195647Y-112657895D01*
X98148028Y-112562657D01*
X98052790Y-112515038D01*
X98005171Y-112515038D01*
X97909933Y-112562657D01*
X97862314Y-112657895D01*
X97862314Y-112800752D01*
X97909933Y-112895990D01*
X97862314Y-113229323D02*
X97862314Y-113610276D01*
X97528980Y-113372180D02*
X98386123Y-113372180D01*
X98481361Y-113419800D01*
X98528980Y-113515038D01*
X98528980Y-113610276D01*
X98528980Y-113943609D02*
X97528980Y-113943609D01*
X97528980Y-114324561D01*
X97576600Y-114419800D01*
X97624219Y-114467419D01*
X97719457Y-114515038D01*
X97862314Y-114515038D01*
X97957552Y-114467419D01*
X98005171Y-114419800D01*
X98052790Y-114324561D01*
X98052790Y-113943609D01*
X98528980Y-115086466D02*
X98481361Y-114991228D01*
X98433742Y-114943609D01*
X98338504Y-114895990D01*
X98052790Y-114895990D01*
X97957552Y-114943609D01*
X97909933Y-114991228D01*
X97862314Y-115086466D01*
X97862314Y-115229323D01*
X97909933Y-115324561D01*
X97957552Y-115372180D01*
X98052790Y-115419800D01*
X98338504Y-115419800D01*
X98433742Y-115372180D01*
X98481361Y-115324561D01*
X98528980Y-115229323D01*
X98528980Y-115086466D01*
X98528980Y-115848371D02*
X97862314Y-115848371D01*
X97528980Y-115848371D02*
X97576600Y-115800752D01*
X97624219Y-115848371D01*
X97576600Y-115895990D01*
X97528980Y-115848371D01*
X97624219Y-115848371D01*
X97862314Y-116324561D02*
X98528980Y-116324561D01*
X97957552Y-116324561D02*
X97909933Y-116372180D01*
X97862314Y-116467419D01*
X97862314Y-116610276D01*
X97909933Y-116705514D01*
X98005171Y-116753133D01*
X98528980Y-116753133D01*
X97862314Y-117086466D02*
X97862314Y-117467419D01*
X97528980Y-117229323D02*
X98386123Y-117229323D01*
X98481361Y-117276942D01*
X98528980Y-117372180D01*
X98528980Y-117467419D01*
X98624219Y-117562657D02*
X98624219Y-118324561D01*
X98528980Y-118562657D02*
X97528980Y-118562657D01*
X97528980Y-118943609D01*
X97576600Y-119038847D01*
X97624219Y-119086466D01*
X97719457Y-119134085D01*
X97862314Y-119134085D01*
X97957552Y-119086466D01*
X98005171Y-119038847D01*
X98052790Y-118943609D01*
X98052790Y-118562657D01*
X98528980Y-119991228D02*
X98005171Y-119991228D01*
X97909933Y-119943609D01*
X97862314Y-119848371D01*
X97862314Y-119657895D01*
X97909933Y-119562657D01*
X98481361Y-119991228D02*
X98528980Y-119895990D01*
X98528980Y-119657895D01*
X98481361Y-119562657D01*
X98386123Y-119515038D01*
X98290885Y-119515038D01*
X98195647Y-119562657D01*
X98148028Y-119657895D01*
X98148028Y-119895990D01*
X98100409Y-119991228D01*
X98528980Y-120895990D02*
X97528980Y-120895990D01*
X98481361Y-120895990D02*
X98528980Y-120800752D01*
X98528980Y-120610276D01*
X98481361Y-120515038D01*
X98433742Y-120467419D01*
X98338504Y-120419800D01*
X98052790Y-120419800D01*
X97957552Y-120467419D01*
X97909933Y-120515038D01*
X97862314Y-120610276D01*
X97862314Y-120800752D01*
X97909933Y-120895990D01*
X98624219Y-121134085D02*
X98624219Y-121895990D01*
X97624219Y-122086466D02*
X97576600Y-122134085D01*
X97528980Y-122229323D01*
X97528980Y-122467419D01*
X97576600Y-122562657D01*
X97624219Y-122610276D01*
X97719457Y-122657895D01*
X97814695Y-122657895D01*
X97957552Y-122610276D01*
X98528980Y-122038847D01*
X98528980Y-122657895D01*
X98433742Y-123086466D02*
X98481361Y-123134085D01*
X98528980Y-123086466D01*
X98481361Y-123038847D01*
X98433742Y-123086466D01*
X98528980Y-123086466D01*
X97528980Y-123753133D02*
X97528980Y-123848371D01*
X97576600Y-123943609D01*
X97624219Y-123991228D01*
X97719457Y-124038847D01*
X97909933Y-124086466D01*
X98148028Y-124086466D01*
X98338504Y-124038847D01*
X98433742Y-123991228D01*
X98481361Y-123943609D01*
X98528980Y-123848371D01*
X98528980Y-123753133D01*
X98481361Y-123657895D01*
X98433742Y-123610276D01*
X98338504Y-123562657D01*
X98148028Y-123515038D01*
X97909933Y-123515038D01*
X97719457Y-123562657D01*
X97624219Y-123610276D01*
X97576600Y-123657895D01*
X97528980Y-123753133D01*
X98528980Y-124419800D02*
X97862314Y-124943609D01*
X97862314Y-124419800D02*
X98528980Y-124943609D01*
X97624219Y-125276942D02*
X97576600Y-125324561D01*
X97528980Y-125419800D01*
X97528980Y-125657895D01*
X97576600Y-125753133D01*
X97624219Y-125800752D01*
X97719457Y-125848371D01*
X97814695Y-125848371D01*
X97957552Y-125800752D01*
X98528980Y-125229323D01*
X98528980Y-125848371D01*
X98433742Y-126276942D02*
X98481361Y-126324561D01*
X98528980Y-126276942D01*
X98481361Y-126229323D01*
X98433742Y-126276942D01*
X98528980Y-126276942D01*
X97528980Y-126943609D02*
X97528980Y-127038847D01*
X97576600Y-127134085D01*
X97624219Y-127181704D01*
X97719457Y-127229323D01*
X97909933Y-127276942D01*
X98148028Y-127276942D01*
X98338504Y-127229323D01*
X98433742Y-127181704D01*
X98481361Y-127134085D01*
X98528980Y-127038847D01*
X98528980Y-126943609D01*
X98481361Y-126848371D01*
X98433742Y-126800752D01*
X98338504Y-126753133D01*
X98148028Y-126705514D01*
X97909933Y-126705514D01*
X97719457Y-126753133D01*
X97624219Y-126800752D01*
X97576600Y-126848371D01*
X97528980Y-126943609D01*
X98528980Y-127705514D02*
X97862314Y-127705514D01*
X97957552Y-127705514D02*
X97909933Y-127753133D01*
X97862314Y-127848371D01*
X97862314Y-127991228D01*
X97909933Y-128086466D01*
X98005171Y-128134085D01*
X98528980Y-128134085D01*
X98005171Y-128134085D02*
X97909933Y-128181704D01*
X97862314Y-128276942D01*
X97862314Y-128419800D01*
X97909933Y-128515038D01*
X98005171Y-128562657D01*
X98528980Y-128562657D01*
X98528980Y-129038847D02*
X97862314Y-129038847D01*
X97957552Y-129038847D02*
X97909933Y-129086466D01*
X97862314Y-129181704D01*
X97862314Y-129324561D01*
X97909933Y-129419800D01*
X98005171Y-129467419D01*
X98528980Y-129467419D01*
X98005171Y-129467419D02*
X97909933Y-129515038D01*
X97862314Y-129610276D01*
X97862314Y-129753133D01*
X97909933Y-129848371D01*
X98005171Y-129895990D01*
X98528980Y-129895990D01*
X126715647Y-166352180D02*
X126144219Y-166352180D01*
X126429933Y-167352180D02*
X126429933Y-166352180D01*
X125429933Y-167304561D02*
X125525171Y-167352180D01*
X125715647Y-167352180D01*
X125810885Y-167304561D01*
X125858504Y-167209323D01*
X125858504Y-166828371D01*
X125810885Y-166733133D01*
X125715647Y-166685514D01*
X125525171Y-166685514D01*
X125429933Y-166733133D01*
X125382314Y-166828371D01*
X125382314Y-166923609D01*
X125858504Y-167018847D01*
X125001361Y-167304561D02*
X124906123Y-167352180D01*
X124715647Y-167352180D01*
X124620409Y-167304561D01*
X124572790Y-167209323D01*
X124572790Y-167161704D01*
X124620409Y-167066466D01*
X124715647Y-167018847D01*
X124858504Y-167018847D01*
X124953742Y-166971228D01*
X125001361Y-166875990D01*
X125001361Y-166828371D01*
X124953742Y-166733133D01*
X124858504Y-166685514D01*
X124715647Y-166685514D01*
X124620409Y-166733133D01*
X124287076Y-166685514D02*
X123906123Y-166685514D01*
X124144219Y-166352180D02*
X124144219Y-167209323D01*
X124096600Y-167304561D01*
X124001361Y-167352180D01*
X123906123Y-167352180D01*
X123572790Y-167352180D02*
X123572790Y-166352180D01*
X123191838Y-166352180D01*
X123096600Y-166399800D01*
X123048980Y-166447419D01*
X123001361Y-166542657D01*
X123001361Y-166685514D01*
X123048980Y-166780752D01*
X123096600Y-166828371D01*
X123191838Y-166875990D01*
X123572790Y-166875990D01*
X122429933Y-167352180D02*
X122525171Y-167304561D01*
X122572790Y-167256942D01*
X122620409Y-167161704D01*
X122620409Y-166875990D01*
X122572790Y-166780752D01*
X122525171Y-166733133D01*
X122429933Y-166685514D01*
X122287076Y-166685514D01*
X122191838Y-166733133D01*
X122144219Y-166780752D01*
X122096600Y-166875990D01*
X122096600Y-167161704D01*
X122144219Y-167256942D01*
X122191838Y-167304561D01*
X122287076Y-167352180D01*
X122429933Y-167352180D01*
X121668028Y-167352180D02*
X121668028Y-166685514D01*
X121668028Y-166352180D02*
X121715647Y-166399800D01*
X121668028Y-166447419D01*
X121620409Y-166399800D01*
X121668028Y-166352180D01*
X121668028Y-166447419D01*
X121191838Y-166685514D02*
X121191838Y-167352180D01*
X121191838Y-166780752D02*
X121144219Y-166733133D01*
X121048980Y-166685514D01*
X120906123Y-166685514D01*
X120810885Y-166733133D01*
X120763266Y-166828371D01*
X120763266Y-167352180D01*
X120429933Y-166685514D02*
X120048980Y-166685514D01*
X120287076Y-166352180D02*
X120287076Y-167209323D01*
X120239457Y-167304561D01*
X120144219Y-167352180D01*
X120048980Y-167352180D01*
X119953742Y-167447419D02*
X119191838Y-167447419D01*
X118953742Y-167352180D02*
X118953742Y-166352180D01*
X118572790Y-166352180D01*
X118477552Y-166399800D01*
X118429933Y-166447419D01*
X118382314Y-166542657D01*
X118382314Y-166685514D01*
X118429933Y-166780752D01*
X118477552Y-166828371D01*
X118572790Y-166875990D01*
X118953742Y-166875990D01*
X117525171Y-167352180D02*
X117525171Y-166828371D01*
X117572790Y-166733133D01*
X117668028Y-166685514D01*
X117858504Y-166685514D01*
X117953742Y-166733133D01*
X117525171Y-167304561D02*
X117620409Y-167352180D01*
X117858504Y-167352180D01*
X117953742Y-167304561D01*
X118001361Y-167209323D01*
X118001361Y-167114085D01*
X117953742Y-167018847D01*
X117858504Y-166971228D01*
X117620409Y-166971228D01*
X117525171Y-166923609D01*
X116620409Y-167352180D02*
X116620409Y-166352180D01*
X116620409Y-167304561D02*
X116715647Y-167352180D01*
X116906123Y-167352180D01*
X117001361Y-167304561D01*
X117048980Y-167256942D01*
X117096600Y-167161704D01*
X117096600Y-166875990D01*
X117048980Y-166780752D01*
X117001361Y-166733133D01*
X116906123Y-166685514D01*
X116715647Y-166685514D01*
X116620409Y-166733133D01*
X116382314Y-167447419D02*
X115620409Y-167447419D01*
X115429933Y-166447419D02*
X115382314Y-166399800D01*
X115287076Y-166352180D01*
X115048980Y-166352180D01*
X114953742Y-166399800D01*
X114906123Y-166447419D01*
X114858504Y-166542657D01*
X114858504Y-166637895D01*
X114906123Y-166780752D01*
X115477552Y-167352180D01*
X114858504Y-167352180D01*
X114429933Y-167256942D02*
X114382314Y-167304561D01*
X114429933Y-167352180D01*
X114477552Y-167304561D01*
X114429933Y-167256942D01*
X114429933Y-167352180D01*
X113763266Y-166352180D02*
X113668028Y-166352180D01*
X113572790Y-166399800D01*
X113525171Y-166447419D01*
X113477552Y-166542657D01*
X113429933Y-166733133D01*
X113429933Y-166971228D01*
X113477552Y-167161704D01*
X113525171Y-167256942D01*
X113572790Y-167304561D01*
X113668028Y-167352180D01*
X113763266Y-167352180D01*
X113858504Y-167304561D01*
X113906123Y-167256942D01*
X113953742Y-167161704D01*
X114001361Y-166971228D01*
X114001361Y-166733133D01*
X113953742Y-166542657D01*
X113906123Y-166447419D01*
X113858504Y-166399800D01*
X113763266Y-166352180D01*
X113096600Y-167352180D02*
X112572790Y-166685514D01*
X113096600Y-166685514D02*
X112572790Y-167352180D01*
X112239457Y-166447419D02*
X112191838Y-166399800D01*
X112096600Y-166352180D01*
X111858504Y-166352180D01*
X111763266Y-166399800D01*
X111715647Y-166447419D01*
X111668028Y-166542657D01*
X111668028Y-166637895D01*
X111715647Y-166780752D01*
X112287076Y-167352180D01*
X111668028Y-167352180D01*
X111239457Y-167256942D02*
X111191838Y-167304561D01*
X111239457Y-167352180D01*
X111287076Y-167304561D01*
X111239457Y-167256942D01*
X111239457Y-167352180D01*
X110572790Y-166352180D02*
X110477552Y-166352180D01*
X110382314Y-166399800D01*
X110334695Y-166447419D01*
X110287076Y-166542657D01*
X110239457Y-166733133D01*
X110239457Y-166971228D01*
X110287076Y-167161704D01*
X110334695Y-167256942D01*
X110382314Y-167304561D01*
X110477552Y-167352180D01*
X110572790Y-167352180D01*
X110668028Y-167304561D01*
X110715647Y-167256942D01*
X110763266Y-167161704D01*
X110810885Y-166971228D01*
X110810885Y-166733133D01*
X110763266Y-166542657D01*
X110715647Y-166447419D01*
X110668028Y-166399800D01*
X110572790Y-166352180D01*
X109810885Y-167352180D02*
X109810885Y-166685514D01*
X109810885Y-166780752D02*
X109763266Y-166733133D01*
X109668028Y-166685514D01*
X109525171Y-166685514D01*
X109429933Y-166733133D01*
X109382314Y-166828371D01*
X109382314Y-167352180D01*
X109382314Y-166828371D02*
X109334695Y-166733133D01*
X109239457Y-166685514D01*
X109096600Y-166685514D01*
X109001361Y-166733133D01*
X108953742Y-166828371D01*
X108953742Y-167352180D01*
X108477552Y-167352180D02*
X108477552Y-166685514D01*
X108477552Y-166780752D02*
X108429933Y-166733133D01*
X108334695Y-166685514D01*
X108191838Y-166685514D01*
X108096600Y-166733133D01*
X108048980Y-166828371D01*
X108048980Y-167352180D01*
X108048980Y-166828371D02*
X108001361Y-166733133D01*
X107906123Y-166685514D01*
X107763266Y-166685514D01*
X107668028Y-166733133D01*
X107620409Y-166828371D01*
X107620409Y-167352180D01*
X122275647Y-168772180D02*
X121704219Y-168772180D01*
X121989933Y-169772180D02*
X121989933Y-168772180D01*
X120989933Y-169724561D02*
X121085171Y-169772180D01*
X121275647Y-169772180D01*
X121370885Y-169724561D01*
X121418504Y-169629323D01*
X121418504Y-169248371D01*
X121370885Y-169153133D01*
X121275647Y-169105514D01*
X121085171Y-169105514D01*
X120989933Y-169153133D01*
X120942314Y-169248371D01*
X120942314Y-169343609D01*
X121418504Y-169438847D01*
X120561361Y-169724561D02*
X120466123Y-169772180D01*
X120275647Y-169772180D01*
X120180409Y-169724561D01*
X120132790Y-169629323D01*
X120132790Y-169581704D01*
X120180409Y-169486466D01*
X120275647Y-169438847D01*
X120418504Y-169438847D01*
X120513742Y-169391228D01*
X120561361Y-169295990D01*
X120561361Y-169248371D01*
X120513742Y-169153133D01*
X120418504Y-169105514D01*
X120275647Y-169105514D01*
X120180409Y-169153133D01*
X119847076Y-169105514D02*
X119466123Y-169105514D01*
X119704219Y-168772180D02*
X119704219Y-169629323D01*
X119656600Y-169724561D01*
X119561361Y-169772180D01*
X119466123Y-169772180D01*
X119132790Y-169772180D02*
X119132790Y-168772180D01*
X118751838Y-168772180D01*
X118656600Y-168819800D01*
X118608980Y-168867419D01*
X118561361Y-168962657D01*
X118561361Y-169105514D01*
X118608980Y-169200752D01*
X118656600Y-169248371D01*
X118751838Y-169295990D01*
X119132790Y-169295990D01*
X117989933Y-169772180D02*
X118085171Y-169724561D01*
X118132790Y-169676942D01*
X118180409Y-169581704D01*
X118180409Y-169295990D01*
X118132790Y-169200752D01*
X118085171Y-169153133D01*
X117989933Y-169105514D01*
X117847076Y-169105514D01*
X117751838Y-169153133D01*
X117704219Y-169200752D01*
X117656600Y-169295990D01*
X117656600Y-169581704D01*
X117704219Y-169676942D01*
X117751838Y-169724561D01*
X117847076Y-169772180D01*
X117989933Y-169772180D01*
X117228028Y-169772180D02*
X117228028Y-169105514D01*
X117228028Y-168772180D02*
X117275647Y-168819800D01*
X117228028Y-168867419D01*
X117180409Y-168819800D01*
X117228028Y-168772180D01*
X117228028Y-168867419D01*
X116751838Y-169105514D02*
X116751838Y-169772180D01*
X116751838Y-169200752D02*
X116704219Y-169153133D01*
X116608980Y-169105514D01*
X116466123Y-169105514D01*
X116370885Y-169153133D01*
X116323266Y-169248371D01*
X116323266Y-169772180D01*
X115989933Y-169105514D02*
X115608980Y-169105514D01*
X115847076Y-168772180D02*
X115847076Y-169629323D01*
X115799457Y-169724561D01*
X115704219Y-169772180D01*
X115608980Y-169772180D01*
X115513742Y-169867419D02*
X114751838Y-169867419D01*
X114513742Y-169772180D02*
X114513742Y-168772180D01*
X114132790Y-168772180D01*
X114037552Y-168819800D01*
X113989933Y-168867419D01*
X113942314Y-168962657D01*
X113942314Y-169105514D01*
X113989933Y-169200752D01*
X114037552Y-169248371D01*
X114132790Y-169295990D01*
X114513742Y-169295990D01*
X113085171Y-169772180D02*
X113085171Y-169248371D01*
X113132790Y-169153133D01*
X113228028Y-169105514D01*
X113418504Y-169105514D01*
X113513742Y-169153133D01*
X113085171Y-169724561D02*
X113180409Y-169772180D01*
X113418504Y-169772180D01*
X113513742Y-169724561D01*
X113561361Y-169629323D01*
X113561361Y-169534085D01*
X113513742Y-169438847D01*
X113418504Y-169391228D01*
X113180409Y-169391228D01*
X113085171Y-169343609D01*
X112180409Y-169772180D02*
X112180409Y-168772180D01*
X112180409Y-169724561D02*
X112275647Y-169772180D01*
X112466123Y-169772180D01*
X112561361Y-169724561D01*
X112608980Y-169676942D01*
X112656600Y-169581704D01*
X112656600Y-169295990D01*
X112608980Y-169200752D01*
X112561361Y-169153133D01*
X112466123Y-169105514D01*
X112275647Y-169105514D01*
X112180409Y-169153133D01*
X111942314Y-169867419D02*
X111180409Y-169867419D01*
X110989933Y-168867419D02*
X110942314Y-168819800D01*
X110847076Y-168772180D01*
X110608980Y-168772180D01*
X110513742Y-168819800D01*
X110466123Y-168867419D01*
X110418504Y-168962657D01*
X110418504Y-169057895D01*
X110466123Y-169200752D01*
X111037552Y-169772180D01*
X110418504Y-169772180D01*
X109989933Y-169676942D02*
X109942314Y-169724561D01*
X109989933Y-169772180D01*
X110037552Y-169724561D01*
X109989933Y-169676942D01*
X109989933Y-169772180D01*
X109323266Y-168772180D02*
X109228028Y-168772180D01*
X109132790Y-168819800D01*
X109085171Y-168867419D01*
X109037552Y-168962657D01*
X108989933Y-169153133D01*
X108989933Y-169391228D01*
X109037552Y-169581704D01*
X109085171Y-169676942D01*
X109132790Y-169724561D01*
X109228028Y-169772180D01*
X109323266Y-169772180D01*
X109418504Y-169724561D01*
X109466123Y-169676942D01*
X109513742Y-169581704D01*
X109561361Y-169391228D01*
X109561361Y-169153133D01*
X109513742Y-168962657D01*
X109466123Y-168867419D01*
X109418504Y-168819800D01*
X109323266Y-168772180D01*
X108656600Y-169772180D02*
X108132790Y-169105514D01*
X108656600Y-169105514D02*
X108132790Y-169772180D01*
X107799457Y-168867419D02*
X107751838Y-168819800D01*
X107656600Y-168772180D01*
X107418504Y-168772180D01*
X107323266Y-168819800D01*
X107275647Y-168867419D01*
X107228028Y-168962657D01*
X107228028Y-169057895D01*
X107275647Y-169200752D01*
X107847076Y-169772180D01*
X107228028Y-169772180D01*
X106799457Y-169676942D02*
X106751838Y-169724561D01*
X106799457Y-169772180D01*
X106847076Y-169724561D01*
X106799457Y-169676942D01*
X106799457Y-169772180D01*
X106132790Y-168772180D02*
X106037552Y-168772180D01*
X105942314Y-168819800D01*
X105894695Y-168867419D01*
X105847076Y-168962657D01*
X105799457Y-169153133D01*
X105799457Y-169391228D01*
X105847076Y-169581704D01*
X105894695Y-169676942D01*
X105942314Y-169724561D01*
X106037552Y-169772180D01*
X106132790Y-169772180D01*
X106228028Y-169724561D01*
X106275647Y-169676942D01*
X106323266Y-169581704D01*
X106370885Y-169391228D01*
X106370885Y-169153133D01*
X106323266Y-168962657D01*
X106275647Y-168867419D01*
X106228028Y-168819800D01*
X106132790Y-168772180D01*
X105370885Y-169772180D02*
X105370885Y-169105514D01*
X105370885Y-169200752D02*
X105323266Y-169153133D01*
X105228028Y-169105514D01*
X105085171Y-169105514D01*
X104989933Y-169153133D01*
X104942314Y-169248371D01*
X104942314Y-169772180D01*
X104942314Y-169248371D02*
X104894695Y-169153133D01*
X104799457Y-169105514D01*
X104656600Y-169105514D01*
X104561361Y-169153133D01*
X104513742Y-169248371D01*
X104513742Y-169772180D01*
X104037552Y-169772180D02*
X104037552Y-169105514D01*
X104037552Y-169200752D02*
X103989933Y-169153133D01*
X103894695Y-169105514D01*
X103751838Y-169105514D01*
X103656600Y-169153133D01*
X103608980Y-169248371D01*
X103608980Y-169772180D01*
X103608980Y-169248371D02*
X103561361Y-169153133D01*
X103466123Y-169105514D01*
X103323266Y-169105514D01*
X103228028Y-169153133D01*
X103180409Y-169248371D01*
X103180409Y-169772180D01*
X184975647Y-166182180D02*
X184404219Y-166182180D01*
X184689933Y-167182180D02*
X184689933Y-166182180D01*
X183689933Y-167134561D02*
X183785171Y-167182180D01*
X183975647Y-167182180D01*
X184070885Y-167134561D01*
X184118504Y-167039323D01*
X184118504Y-166658371D01*
X184070885Y-166563133D01*
X183975647Y-166515514D01*
X183785171Y-166515514D01*
X183689933Y-166563133D01*
X183642314Y-166658371D01*
X183642314Y-166753609D01*
X184118504Y-166848847D01*
X183261361Y-167134561D02*
X183166123Y-167182180D01*
X182975647Y-167182180D01*
X182880409Y-167134561D01*
X182832790Y-167039323D01*
X182832790Y-166991704D01*
X182880409Y-166896466D01*
X182975647Y-166848847D01*
X183118504Y-166848847D01*
X183213742Y-166801228D01*
X183261361Y-166705990D01*
X183261361Y-166658371D01*
X183213742Y-166563133D01*
X183118504Y-166515514D01*
X182975647Y-166515514D01*
X182880409Y-166563133D01*
X182547076Y-166515514D02*
X182166123Y-166515514D01*
X182404219Y-166182180D02*
X182404219Y-167039323D01*
X182356600Y-167134561D01*
X182261361Y-167182180D01*
X182166123Y-167182180D01*
X181832790Y-167182180D02*
X181832790Y-166182180D01*
X181451838Y-166182180D01*
X181356600Y-166229800D01*
X181308980Y-166277419D01*
X181261361Y-166372657D01*
X181261361Y-166515514D01*
X181308980Y-166610752D01*
X181356600Y-166658371D01*
X181451838Y-166705990D01*
X181832790Y-166705990D01*
X180689933Y-167182180D02*
X180785171Y-167134561D01*
X180832790Y-167086942D01*
X180880409Y-166991704D01*
X180880409Y-166705990D01*
X180832790Y-166610752D01*
X180785171Y-166563133D01*
X180689933Y-166515514D01*
X180547076Y-166515514D01*
X180451838Y-166563133D01*
X180404219Y-166610752D01*
X180356600Y-166705990D01*
X180356600Y-166991704D01*
X180404219Y-167086942D01*
X180451838Y-167134561D01*
X180547076Y-167182180D01*
X180689933Y-167182180D01*
X179928028Y-167182180D02*
X179928028Y-166515514D01*
X179928028Y-166182180D02*
X179975647Y-166229800D01*
X179928028Y-166277419D01*
X179880409Y-166229800D01*
X179928028Y-166182180D01*
X179928028Y-166277419D01*
X179451838Y-166515514D02*
X179451838Y-167182180D01*
X179451838Y-166610752D02*
X179404219Y-166563133D01*
X179308980Y-166515514D01*
X179166123Y-166515514D01*
X179070885Y-166563133D01*
X179023266Y-166658371D01*
X179023266Y-167182180D01*
X178689933Y-166515514D02*
X178308980Y-166515514D01*
X178547076Y-166182180D02*
X178547076Y-167039323D01*
X178499457Y-167134561D01*
X178404219Y-167182180D01*
X178308980Y-167182180D01*
X178213742Y-167277419D02*
X177451838Y-167277419D01*
X177213742Y-167182180D02*
X177213742Y-166182180D01*
X176832790Y-166182180D01*
X176737552Y-166229800D01*
X176689933Y-166277419D01*
X176642314Y-166372657D01*
X176642314Y-166515514D01*
X176689933Y-166610752D01*
X176737552Y-166658371D01*
X176832790Y-166705990D01*
X177213742Y-166705990D01*
X175785171Y-167182180D02*
X175785171Y-166658371D01*
X175832790Y-166563133D01*
X175928028Y-166515514D01*
X176118504Y-166515514D01*
X176213742Y-166563133D01*
X175785171Y-167134561D02*
X175880409Y-167182180D01*
X176118504Y-167182180D01*
X176213742Y-167134561D01*
X176261361Y-167039323D01*
X176261361Y-166944085D01*
X176213742Y-166848847D01*
X176118504Y-166801228D01*
X175880409Y-166801228D01*
X175785171Y-166753609D01*
X174880409Y-167182180D02*
X174880409Y-166182180D01*
X174880409Y-167134561D02*
X174975647Y-167182180D01*
X175166123Y-167182180D01*
X175261361Y-167134561D01*
X175308980Y-167086942D01*
X175356600Y-166991704D01*
X175356600Y-166705990D01*
X175308980Y-166610752D01*
X175261361Y-166563133D01*
X175166123Y-166515514D01*
X174975647Y-166515514D01*
X174880409Y-166563133D01*
X174642314Y-167277419D02*
X173880409Y-167277419D01*
X173689933Y-166277419D02*
X173642314Y-166229800D01*
X173547076Y-166182180D01*
X173308980Y-166182180D01*
X173213742Y-166229800D01*
X173166123Y-166277419D01*
X173118504Y-166372657D01*
X173118504Y-166467895D01*
X173166123Y-166610752D01*
X173737552Y-167182180D01*
X173118504Y-167182180D01*
X172689933Y-167086942D02*
X172642314Y-167134561D01*
X172689933Y-167182180D01*
X172737552Y-167134561D01*
X172689933Y-167086942D01*
X172689933Y-167182180D01*
X172023266Y-166182180D02*
X171928028Y-166182180D01*
X171832790Y-166229800D01*
X171785171Y-166277419D01*
X171737552Y-166372657D01*
X171689933Y-166563133D01*
X171689933Y-166801228D01*
X171737552Y-166991704D01*
X171785171Y-167086942D01*
X171832790Y-167134561D01*
X171928028Y-167182180D01*
X172023266Y-167182180D01*
X172118504Y-167134561D01*
X172166123Y-167086942D01*
X172213742Y-166991704D01*
X172261361Y-166801228D01*
X172261361Y-166563133D01*
X172213742Y-166372657D01*
X172166123Y-166277419D01*
X172118504Y-166229800D01*
X172023266Y-166182180D01*
X171356600Y-167182180D02*
X170832790Y-166515514D01*
X171356600Y-166515514D02*
X170832790Y-167182180D01*
X170499457Y-166277419D02*
X170451838Y-166229800D01*
X170356600Y-166182180D01*
X170118504Y-166182180D01*
X170023266Y-166229800D01*
X169975647Y-166277419D01*
X169928028Y-166372657D01*
X169928028Y-166467895D01*
X169975647Y-166610752D01*
X170547076Y-167182180D01*
X169928028Y-167182180D01*
X169499457Y-167086942D02*
X169451838Y-167134561D01*
X169499457Y-167182180D01*
X169547076Y-167134561D01*
X169499457Y-167086942D01*
X169499457Y-167182180D01*
X168832790Y-166182180D02*
X168737552Y-166182180D01*
X168642314Y-166229800D01*
X168594695Y-166277419D01*
X168547076Y-166372657D01*
X168499457Y-166563133D01*
X168499457Y-166801228D01*
X168547076Y-166991704D01*
X168594695Y-167086942D01*
X168642314Y-167134561D01*
X168737552Y-167182180D01*
X168832790Y-167182180D01*
X168928028Y-167134561D01*
X168975647Y-167086942D01*
X169023266Y-166991704D01*
X169070885Y-166801228D01*
X169070885Y-166563133D01*
X169023266Y-166372657D01*
X168975647Y-166277419D01*
X168928028Y-166229800D01*
X168832790Y-166182180D01*
X168070885Y-167182180D02*
X168070885Y-166515514D01*
X168070885Y-166610752D02*
X168023266Y-166563133D01*
X167928028Y-166515514D01*
X167785171Y-166515514D01*
X167689933Y-166563133D01*
X167642314Y-166658371D01*
X167642314Y-167182180D01*
X167642314Y-166658371D02*
X167594695Y-166563133D01*
X167499457Y-166515514D01*
X167356600Y-166515514D01*
X167261361Y-166563133D01*
X167213742Y-166658371D01*
X167213742Y-167182180D01*
X166737552Y-167182180D02*
X166737552Y-166515514D01*
X166737552Y-166610752D02*
X166689933Y-166563133D01*
X166594695Y-166515514D01*
X166451838Y-166515514D01*
X166356600Y-166563133D01*
X166308980Y-166658371D01*
X166308980Y-167182180D01*
X166308980Y-166658371D02*
X166261361Y-166563133D01*
X166166123Y-166515514D01*
X166023266Y-166515514D01*
X165928028Y-166563133D01*
X165880409Y-166658371D01*
X165880409Y-167182180D01*
X179975647Y-168672180D02*
X179404219Y-168672180D01*
X179689933Y-169672180D02*
X179689933Y-168672180D01*
X178689933Y-169624561D02*
X178785171Y-169672180D01*
X178975647Y-169672180D01*
X179070885Y-169624561D01*
X179118504Y-169529323D01*
X179118504Y-169148371D01*
X179070885Y-169053133D01*
X178975647Y-169005514D01*
X178785171Y-169005514D01*
X178689933Y-169053133D01*
X178642314Y-169148371D01*
X178642314Y-169243609D01*
X179118504Y-169338847D01*
X178261361Y-169624561D02*
X178166123Y-169672180D01*
X177975647Y-169672180D01*
X177880409Y-169624561D01*
X177832790Y-169529323D01*
X177832790Y-169481704D01*
X177880409Y-169386466D01*
X177975647Y-169338847D01*
X178118504Y-169338847D01*
X178213742Y-169291228D01*
X178261361Y-169195990D01*
X178261361Y-169148371D01*
X178213742Y-169053133D01*
X178118504Y-169005514D01*
X177975647Y-169005514D01*
X177880409Y-169053133D01*
X177547076Y-169005514D02*
X177166123Y-169005514D01*
X177404219Y-168672180D02*
X177404219Y-169529323D01*
X177356600Y-169624561D01*
X177261361Y-169672180D01*
X177166123Y-169672180D01*
X176832790Y-169672180D02*
X176832790Y-168672180D01*
X176451838Y-168672180D01*
X176356600Y-168719800D01*
X176308980Y-168767419D01*
X176261361Y-168862657D01*
X176261361Y-169005514D01*
X176308980Y-169100752D01*
X176356600Y-169148371D01*
X176451838Y-169195990D01*
X176832790Y-169195990D01*
X175689933Y-169672180D02*
X175785171Y-169624561D01*
X175832790Y-169576942D01*
X175880409Y-169481704D01*
X175880409Y-169195990D01*
X175832790Y-169100752D01*
X175785171Y-169053133D01*
X175689933Y-169005514D01*
X175547076Y-169005514D01*
X175451838Y-169053133D01*
X175404219Y-169100752D01*
X175356600Y-169195990D01*
X175356600Y-169481704D01*
X175404219Y-169576942D01*
X175451838Y-169624561D01*
X175547076Y-169672180D01*
X175689933Y-169672180D01*
X174928028Y-169672180D02*
X174928028Y-169005514D01*
X174928028Y-168672180D02*
X174975647Y-168719800D01*
X174928028Y-168767419D01*
X174880409Y-168719800D01*
X174928028Y-168672180D01*
X174928028Y-168767419D01*
X174451838Y-169005514D02*
X174451838Y-169672180D01*
X174451838Y-169100752D02*
X174404219Y-169053133D01*
X174308980Y-169005514D01*
X174166123Y-169005514D01*
X174070885Y-169053133D01*
X174023266Y-169148371D01*
X174023266Y-169672180D01*
X173689933Y-169005514D02*
X173308980Y-169005514D01*
X173547076Y-168672180D02*
X173547076Y-169529323D01*
X173499457Y-169624561D01*
X173404219Y-169672180D01*
X173308980Y-169672180D01*
X173213742Y-169767419D02*
X172451838Y-169767419D01*
X172213742Y-169672180D02*
X172213742Y-168672180D01*
X171832790Y-168672180D01*
X171737552Y-168719800D01*
X171689933Y-168767419D01*
X171642314Y-168862657D01*
X171642314Y-169005514D01*
X171689933Y-169100752D01*
X171737552Y-169148371D01*
X171832790Y-169195990D01*
X172213742Y-169195990D01*
X170785171Y-169672180D02*
X170785171Y-169148371D01*
X170832790Y-169053133D01*
X170928028Y-169005514D01*
X171118504Y-169005514D01*
X171213742Y-169053133D01*
X170785171Y-169624561D02*
X170880409Y-169672180D01*
X171118504Y-169672180D01*
X171213742Y-169624561D01*
X171261361Y-169529323D01*
X171261361Y-169434085D01*
X171213742Y-169338847D01*
X171118504Y-169291228D01*
X170880409Y-169291228D01*
X170785171Y-169243609D01*
X169880409Y-169672180D02*
X169880409Y-168672180D01*
X169880409Y-169624561D02*
X169975647Y-169672180D01*
X170166123Y-169672180D01*
X170261361Y-169624561D01*
X170308980Y-169576942D01*
X170356600Y-169481704D01*
X170356600Y-169195990D01*
X170308980Y-169100752D01*
X170261361Y-169053133D01*
X170166123Y-169005514D01*
X169975647Y-169005514D01*
X169880409Y-169053133D01*
X169642314Y-169767419D02*
X168880409Y-169767419D01*
X168689933Y-168767419D02*
X168642314Y-168719800D01*
X168547076Y-168672180D01*
X168308980Y-168672180D01*
X168213742Y-168719800D01*
X168166123Y-168767419D01*
X168118504Y-168862657D01*
X168118504Y-168957895D01*
X168166123Y-169100752D01*
X168737552Y-169672180D01*
X168118504Y-169672180D01*
X167689933Y-169576942D02*
X167642314Y-169624561D01*
X167689933Y-169672180D01*
X167737552Y-169624561D01*
X167689933Y-169576942D01*
X167689933Y-169672180D01*
X167023266Y-168672180D02*
X166928028Y-168672180D01*
X166832790Y-168719800D01*
X166785171Y-168767419D01*
X166737552Y-168862657D01*
X166689933Y-169053133D01*
X166689933Y-169291228D01*
X166737552Y-169481704D01*
X166785171Y-169576942D01*
X166832790Y-169624561D01*
X166928028Y-169672180D01*
X167023266Y-169672180D01*
X167118504Y-169624561D01*
X167166123Y-169576942D01*
X167213742Y-169481704D01*
X167261361Y-169291228D01*
X167261361Y-169053133D01*
X167213742Y-168862657D01*
X167166123Y-168767419D01*
X167118504Y-168719800D01*
X167023266Y-168672180D01*
X166356600Y-169672180D02*
X165832790Y-169005514D01*
X166356600Y-169005514D02*
X165832790Y-169672180D01*
X165499457Y-168767419D02*
X165451838Y-168719800D01*
X165356600Y-168672180D01*
X165118504Y-168672180D01*
X165023266Y-168719800D01*
X164975647Y-168767419D01*
X164928028Y-168862657D01*
X164928028Y-168957895D01*
X164975647Y-169100752D01*
X165547076Y-169672180D01*
X164928028Y-169672180D01*
X164499457Y-169576942D02*
X164451838Y-169624561D01*
X164499457Y-169672180D01*
X164547076Y-169624561D01*
X164499457Y-169576942D01*
X164499457Y-169672180D01*
X163832790Y-168672180D02*
X163737552Y-168672180D01*
X163642314Y-168719800D01*
X163594695Y-168767419D01*
X163547076Y-168862657D01*
X163499457Y-169053133D01*
X163499457Y-169291228D01*
X163547076Y-169481704D01*
X163594695Y-169576942D01*
X163642314Y-169624561D01*
X163737552Y-169672180D01*
X163832790Y-169672180D01*
X163928028Y-169624561D01*
X163975647Y-169576942D01*
X164023266Y-169481704D01*
X164070885Y-169291228D01*
X164070885Y-169053133D01*
X164023266Y-168862657D01*
X163975647Y-168767419D01*
X163928028Y-168719800D01*
X163832790Y-168672180D01*
X163070885Y-169672180D02*
X163070885Y-169005514D01*
X163070885Y-169100752D02*
X163023266Y-169053133D01*
X162928028Y-169005514D01*
X162785171Y-169005514D01*
X162689933Y-169053133D01*
X162642314Y-169148371D01*
X162642314Y-169672180D01*
X162642314Y-169148371D02*
X162594695Y-169053133D01*
X162499457Y-169005514D01*
X162356600Y-169005514D01*
X162261361Y-169053133D01*
X162213742Y-169148371D01*
X162213742Y-169672180D01*
X161737552Y-169672180D02*
X161737552Y-169005514D01*
X161737552Y-169100752D02*
X161689933Y-169053133D01*
X161594695Y-169005514D01*
X161451838Y-169005514D01*
X161356600Y-169053133D01*
X161308980Y-169148371D01*
X161308980Y-169672180D01*
X161308980Y-169148371D02*
X161261361Y-169053133D01*
X161166123Y-169005514D01*
X161023266Y-169005514D01*
X160928028Y-169053133D01*
X160880409Y-169148371D01*
X160880409Y-169672180D01*
X149835647Y-23342180D02*
X149264219Y-23342180D01*
X149549933Y-24342180D02*
X149549933Y-23342180D01*
X148549933Y-24294561D02*
X148645171Y-24342180D01*
X148835647Y-24342180D01*
X148930885Y-24294561D01*
X148978504Y-24199323D01*
X148978504Y-23818371D01*
X148930885Y-23723133D01*
X148835647Y-23675514D01*
X148645171Y-23675514D01*
X148549933Y-23723133D01*
X148502314Y-23818371D01*
X148502314Y-23913609D01*
X148978504Y-24008847D01*
X148121361Y-24294561D02*
X148026123Y-24342180D01*
X147835647Y-24342180D01*
X147740409Y-24294561D01*
X147692790Y-24199323D01*
X147692790Y-24151704D01*
X147740409Y-24056466D01*
X147835647Y-24008847D01*
X147978504Y-24008847D01*
X148073742Y-23961228D01*
X148121361Y-23865990D01*
X148121361Y-23818371D01*
X148073742Y-23723133D01*
X147978504Y-23675514D01*
X147835647Y-23675514D01*
X147740409Y-23723133D01*
X147407076Y-23675514D02*
X147026123Y-23675514D01*
X147264219Y-23342180D02*
X147264219Y-24199323D01*
X147216600Y-24294561D01*
X147121361Y-24342180D01*
X147026123Y-24342180D01*
X146692790Y-24342180D02*
X146692790Y-23342180D01*
X146311838Y-23342180D01*
X146216600Y-23389800D01*
X146168980Y-23437419D01*
X146121361Y-23532657D01*
X146121361Y-23675514D01*
X146168980Y-23770752D01*
X146216600Y-23818371D01*
X146311838Y-23865990D01*
X146692790Y-23865990D01*
X145549933Y-24342180D02*
X145645171Y-24294561D01*
X145692790Y-24246942D01*
X145740409Y-24151704D01*
X145740409Y-23865990D01*
X145692790Y-23770752D01*
X145645171Y-23723133D01*
X145549933Y-23675514D01*
X145407076Y-23675514D01*
X145311838Y-23723133D01*
X145264219Y-23770752D01*
X145216600Y-23865990D01*
X145216600Y-24151704D01*
X145264219Y-24246942D01*
X145311838Y-24294561D01*
X145407076Y-24342180D01*
X145549933Y-24342180D01*
X144788028Y-24342180D02*
X144788028Y-23675514D01*
X144788028Y-23342180D02*
X144835647Y-23389800D01*
X144788028Y-23437419D01*
X144740409Y-23389800D01*
X144788028Y-23342180D01*
X144788028Y-23437419D01*
X144311838Y-23675514D02*
X144311838Y-24342180D01*
X144311838Y-23770752D02*
X144264219Y-23723133D01*
X144168980Y-23675514D01*
X144026123Y-23675514D01*
X143930885Y-23723133D01*
X143883266Y-23818371D01*
X143883266Y-24342180D01*
X143549933Y-23675514D02*
X143168980Y-23675514D01*
X143407076Y-23342180D02*
X143407076Y-24199323D01*
X143359457Y-24294561D01*
X143264219Y-24342180D01*
X143168980Y-24342180D01*
X143073742Y-24437419D02*
X142311838Y-24437419D01*
X142073742Y-24342180D02*
X142073742Y-23342180D01*
X141692790Y-23342180D01*
X141597552Y-23389800D01*
X141549933Y-23437419D01*
X141502314Y-23532657D01*
X141502314Y-23675514D01*
X141549933Y-23770752D01*
X141597552Y-23818371D01*
X141692790Y-23865990D01*
X142073742Y-23865990D01*
X140645171Y-24342180D02*
X140645171Y-23818371D01*
X140692790Y-23723133D01*
X140788028Y-23675514D01*
X140978504Y-23675514D01*
X141073742Y-23723133D01*
X140645171Y-24294561D02*
X140740409Y-24342180D01*
X140978504Y-24342180D01*
X141073742Y-24294561D01*
X141121361Y-24199323D01*
X141121361Y-24104085D01*
X141073742Y-24008847D01*
X140978504Y-23961228D01*
X140740409Y-23961228D01*
X140645171Y-23913609D01*
X139740409Y-24342180D02*
X139740409Y-23342180D01*
X139740409Y-24294561D02*
X139835647Y-24342180D01*
X140026123Y-24342180D01*
X140121361Y-24294561D01*
X140168980Y-24246942D01*
X140216600Y-24151704D01*
X140216600Y-23865990D01*
X140168980Y-23770752D01*
X140121361Y-23723133D01*
X140026123Y-23675514D01*
X139835647Y-23675514D01*
X139740409Y-23723133D01*
X139502314Y-24437419D02*
X138740409Y-24437419D01*
X138549933Y-23437419D02*
X138502314Y-23389800D01*
X138407076Y-23342180D01*
X138168980Y-23342180D01*
X138073742Y-23389800D01*
X138026123Y-23437419D01*
X137978504Y-23532657D01*
X137978504Y-23627895D01*
X138026123Y-23770752D01*
X138597552Y-24342180D01*
X137978504Y-24342180D01*
X137549933Y-24246942D02*
X137502314Y-24294561D01*
X137549933Y-24342180D01*
X137597552Y-24294561D01*
X137549933Y-24246942D01*
X137549933Y-24342180D01*
X136883266Y-23342180D02*
X136788028Y-23342180D01*
X136692790Y-23389800D01*
X136645171Y-23437419D01*
X136597552Y-23532657D01*
X136549933Y-23723133D01*
X136549933Y-23961228D01*
X136597552Y-24151704D01*
X136645171Y-24246942D01*
X136692790Y-24294561D01*
X136788028Y-24342180D01*
X136883266Y-24342180D01*
X136978504Y-24294561D01*
X137026123Y-24246942D01*
X137073742Y-24151704D01*
X137121361Y-23961228D01*
X137121361Y-23723133D01*
X137073742Y-23532657D01*
X137026123Y-23437419D01*
X136978504Y-23389800D01*
X136883266Y-23342180D01*
X136216600Y-24342180D02*
X135692790Y-23675514D01*
X136216600Y-23675514D02*
X135692790Y-24342180D01*
X135359457Y-23437419D02*
X135311838Y-23389800D01*
X135216600Y-23342180D01*
X134978504Y-23342180D01*
X134883266Y-23389800D01*
X134835647Y-23437419D01*
X134788028Y-23532657D01*
X134788028Y-23627895D01*
X134835647Y-23770752D01*
X135407076Y-24342180D01*
X134788028Y-24342180D01*
X134359457Y-24246942D02*
X134311838Y-24294561D01*
X134359457Y-24342180D01*
X134407076Y-24294561D01*
X134359457Y-24246942D01*
X134359457Y-24342180D01*
X133692790Y-23342180D02*
X133597552Y-23342180D01*
X133502314Y-23389800D01*
X133454695Y-23437419D01*
X133407076Y-23532657D01*
X133359457Y-23723133D01*
X133359457Y-23961228D01*
X133407076Y-24151704D01*
X133454695Y-24246942D01*
X133502314Y-24294561D01*
X133597552Y-24342180D01*
X133692790Y-24342180D01*
X133788028Y-24294561D01*
X133835647Y-24246942D01*
X133883266Y-24151704D01*
X133930885Y-23961228D01*
X133930885Y-23723133D01*
X133883266Y-23532657D01*
X133835647Y-23437419D01*
X133788028Y-23389800D01*
X133692790Y-23342180D01*
X132930885Y-24342180D02*
X132930885Y-23675514D01*
X132930885Y-23770752D02*
X132883266Y-23723133D01*
X132788028Y-23675514D01*
X132645171Y-23675514D01*
X132549933Y-23723133D01*
X132502314Y-23818371D01*
X132502314Y-24342180D01*
X132502314Y-23818371D02*
X132454695Y-23723133D01*
X132359457Y-23675514D01*
X132216600Y-23675514D01*
X132121361Y-23723133D01*
X132073742Y-23818371D01*
X132073742Y-24342180D01*
X131597552Y-24342180D02*
X131597552Y-23675514D01*
X131597552Y-23770752D02*
X131549933Y-23723133D01*
X131454695Y-23675514D01*
X131311838Y-23675514D01*
X131216600Y-23723133D01*
X131168980Y-23818371D01*
X131168980Y-24342180D01*
X131168980Y-23818371D02*
X131121361Y-23723133D01*
X131026123Y-23675514D01*
X130883266Y-23675514D01*
X130788028Y-23723133D01*
X130740409Y-23818371D01*
X130740409Y-24342180D01*
X154265647Y-21092180D02*
X153694219Y-21092180D01*
X153979933Y-22092180D02*
X153979933Y-21092180D01*
X152979933Y-22044561D02*
X153075171Y-22092180D01*
X153265647Y-22092180D01*
X153360885Y-22044561D01*
X153408504Y-21949323D01*
X153408504Y-21568371D01*
X153360885Y-21473133D01*
X153265647Y-21425514D01*
X153075171Y-21425514D01*
X152979933Y-21473133D01*
X152932314Y-21568371D01*
X152932314Y-21663609D01*
X153408504Y-21758847D01*
X152551361Y-22044561D02*
X152456123Y-22092180D01*
X152265647Y-22092180D01*
X152170409Y-22044561D01*
X152122790Y-21949323D01*
X152122790Y-21901704D01*
X152170409Y-21806466D01*
X152265647Y-21758847D01*
X152408504Y-21758847D01*
X152503742Y-21711228D01*
X152551361Y-21615990D01*
X152551361Y-21568371D01*
X152503742Y-21473133D01*
X152408504Y-21425514D01*
X152265647Y-21425514D01*
X152170409Y-21473133D01*
X151837076Y-21425514D02*
X151456123Y-21425514D01*
X151694219Y-21092180D02*
X151694219Y-21949323D01*
X151646600Y-22044561D01*
X151551361Y-22092180D01*
X151456123Y-22092180D01*
X151122790Y-22092180D02*
X151122790Y-21092180D01*
X150741838Y-21092180D01*
X150646600Y-21139800D01*
X150598980Y-21187419D01*
X150551361Y-21282657D01*
X150551361Y-21425514D01*
X150598980Y-21520752D01*
X150646600Y-21568371D01*
X150741838Y-21615990D01*
X151122790Y-21615990D01*
X149979933Y-22092180D02*
X150075171Y-22044561D01*
X150122790Y-21996942D01*
X150170409Y-21901704D01*
X150170409Y-21615990D01*
X150122790Y-21520752D01*
X150075171Y-21473133D01*
X149979933Y-21425514D01*
X149837076Y-21425514D01*
X149741838Y-21473133D01*
X149694219Y-21520752D01*
X149646600Y-21615990D01*
X149646600Y-21901704D01*
X149694219Y-21996942D01*
X149741838Y-22044561D01*
X149837076Y-22092180D01*
X149979933Y-22092180D01*
X149218028Y-22092180D02*
X149218028Y-21425514D01*
X149218028Y-21092180D02*
X149265647Y-21139800D01*
X149218028Y-21187419D01*
X149170409Y-21139800D01*
X149218028Y-21092180D01*
X149218028Y-21187419D01*
X148741838Y-21425514D02*
X148741838Y-22092180D01*
X148741838Y-21520752D02*
X148694219Y-21473133D01*
X148598980Y-21425514D01*
X148456123Y-21425514D01*
X148360885Y-21473133D01*
X148313266Y-21568371D01*
X148313266Y-22092180D01*
X147979933Y-21425514D02*
X147598980Y-21425514D01*
X147837076Y-21092180D02*
X147837076Y-21949323D01*
X147789457Y-22044561D01*
X147694219Y-22092180D01*
X147598980Y-22092180D01*
X147503742Y-22187419D02*
X146741838Y-22187419D01*
X146503742Y-22092180D02*
X146503742Y-21092180D01*
X146122790Y-21092180D01*
X146027552Y-21139800D01*
X145979933Y-21187419D01*
X145932314Y-21282657D01*
X145932314Y-21425514D01*
X145979933Y-21520752D01*
X146027552Y-21568371D01*
X146122790Y-21615990D01*
X146503742Y-21615990D01*
X145075171Y-22092180D02*
X145075171Y-21568371D01*
X145122790Y-21473133D01*
X145218028Y-21425514D01*
X145408504Y-21425514D01*
X145503742Y-21473133D01*
X145075171Y-22044561D02*
X145170409Y-22092180D01*
X145408504Y-22092180D01*
X145503742Y-22044561D01*
X145551361Y-21949323D01*
X145551361Y-21854085D01*
X145503742Y-21758847D01*
X145408504Y-21711228D01*
X145170409Y-21711228D01*
X145075171Y-21663609D01*
X144170409Y-22092180D02*
X144170409Y-21092180D01*
X144170409Y-22044561D02*
X144265647Y-22092180D01*
X144456123Y-22092180D01*
X144551361Y-22044561D01*
X144598980Y-21996942D01*
X144646600Y-21901704D01*
X144646600Y-21615990D01*
X144598980Y-21520752D01*
X144551361Y-21473133D01*
X144456123Y-21425514D01*
X144265647Y-21425514D01*
X144170409Y-21473133D01*
X143932314Y-22187419D02*
X143170409Y-22187419D01*
X142979933Y-21187419D02*
X142932314Y-21139800D01*
X142837076Y-21092180D01*
X142598980Y-21092180D01*
X142503742Y-21139800D01*
X142456123Y-21187419D01*
X142408504Y-21282657D01*
X142408504Y-21377895D01*
X142456123Y-21520752D01*
X143027552Y-22092180D01*
X142408504Y-22092180D01*
X141979933Y-21996942D02*
X141932314Y-22044561D01*
X141979933Y-22092180D01*
X142027552Y-22044561D01*
X141979933Y-21996942D01*
X141979933Y-22092180D01*
X141313266Y-21092180D02*
X141218028Y-21092180D01*
X141122790Y-21139800D01*
X141075171Y-21187419D01*
X141027552Y-21282657D01*
X140979933Y-21473133D01*
X140979933Y-21711228D01*
X141027552Y-21901704D01*
X141075171Y-21996942D01*
X141122790Y-22044561D01*
X141218028Y-22092180D01*
X141313266Y-22092180D01*
X141408504Y-22044561D01*
X141456123Y-21996942D01*
X141503742Y-21901704D01*
X141551361Y-21711228D01*
X141551361Y-21473133D01*
X141503742Y-21282657D01*
X141456123Y-21187419D01*
X141408504Y-21139800D01*
X141313266Y-21092180D01*
X140646600Y-22092180D02*
X140122790Y-21425514D01*
X140646600Y-21425514D02*
X140122790Y-22092180D01*
X139789457Y-21187419D02*
X139741838Y-21139800D01*
X139646600Y-21092180D01*
X139408504Y-21092180D01*
X139313266Y-21139800D01*
X139265647Y-21187419D01*
X139218028Y-21282657D01*
X139218028Y-21377895D01*
X139265647Y-21520752D01*
X139837076Y-22092180D01*
X139218028Y-22092180D01*
X138789457Y-21996942D02*
X138741838Y-22044561D01*
X138789457Y-22092180D01*
X138837076Y-22044561D01*
X138789457Y-21996942D01*
X138789457Y-22092180D01*
X138122790Y-21092180D02*
X138027552Y-21092180D01*
X137932314Y-21139800D01*
X137884695Y-21187419D01*
X137837076Y-21282657D01*
X137789457Y-21473133D01*
X137789457Y-21711228D01*
X137837076Y-21901704D01*
X137884695Y-21996942D01*
X137932314Y-22044561D01*
X138027552Y-22092180D01*
X138122790Y-22092180D01*
X138218028Y-22044561D01*
X138265647Y-21996942D01*
X138313266Y-21901704D01*
X138360885Y-21711228D01*
X138360885Y-21473133D01*
X138313266Y-21282657D01*
X138265647Y-21187419D01*
X138218028Y-21139800D01*
X138122790Y-21092180D01*
X137360885Y-22092180D02*
X137360885Y-21425514D01*
X137360885Y-21520752D02*
X137313266Y-21473133D01*
X137218028Y-21425514D01*
X137075171Y-21425514D01*
X136979933Y-21473133D01*
X136932314Y-21568371D01*
X136932314Y-22092180D01*
X136932314Y-21568371D02*
X136884695Y-21473133D01*
X136789457Y-21425514D01*
X136646600Y-21425514D01*
X136551361Y-21473133D01*
X136503742Y-21568371D01*
X136503742Y-22092180D01*
X136027552Y-22092180D02*
X136027552Y-21425514D01*
X136027552Y-21520752D02*
X135979933Y-21473133D01*
X135884695Y-21425514D01*
X135741838Y-21425514D01*
X135646600Y-21473133D01*
X135598980Y-21568371D01*
X135598980Y-22092180D01*
X135598980Y-21568371D02*
X135551361Y-21473133D01*
X135456123Y-21425514D01*
X135313266Y-21425514D01*
X135218028Y-21473133D01*
X135170409Y-21568371D01*
X135170409Y-22092180D01*
D13*
X137575733Y-70328847D02*
X137575733Y-70566942D01*
X137718590Y-70281228D02*
X137218590Y-70447895D01*
X137718590Y-70614561D01*
X137718590Y-71066942D02*
X137480495Y-70900276D01*
X137718590Y-70781228D02*
X137218590Y-70781228D01*
X137218590Y-70971704D01*
X137242400Y-71019323D01*
X137266209Y-71043133D01*
X137313828Y-71066942D01*
X137385257Y-71066942D01*
X137432876Y-71043133D01*
X137456685Y-71019323D01*
X137480495Y-70971704D01*
X137480495Y-70781228D01*
X137218590Y-71209800D02*
X137218590Y-71495514D01*
X137718590Y-71352657D02*
X137218590Y-71352657D01*
X137456685Y-72043133D02*
X137456685Y-72209800D01*
X137718590Y-72281228D02*
X137718590Y-72043133D01*
X137218590Y-72043133D01*
X137218590Y-72281228D01*
X137718590Y-72447895D02*
X137385257Y-72709800D01*
X137385257Y-72447895D02*
X137718590Y-72709800D01*
X137385257Y-72900276D02*
X137885257Y-72900276D01*
X137409066Y-72900276D02*
X137385257Y-72947895D01*
X137385257Y-73043133D01*
X137409066Y-73090752D01*
X137432876Y-73114561D01*
X137480495Y-73138371D01*
X137623352Y-73138371D01*
X137670971Y-73114561D01*
X137694780Y-73090752D01*
X137718590Y-73043133D01*
X137718590Y-72947895D01*
X137694780Y-72900276D01*
X137718590Y-73566942D02*
X137456685Y-73566942D01*
X137409066Y-73543133D01*
X137385257Y-73495514D01*
X137385257Y-73400276D01*
X137409066Y-73352657D01*
X137694780Y-73566942D02*
X137718590Y-73519323D01*
X137718590Y-73400276D01*
X137694780Y-73352657D01*
X137647161Y-73328847D01*
X137599542Y-73328847D01*
X137551923Y-73352657D01*
X137528114Y-73400276D01*
X137528114Y-73519323D01*
X137504304Y-73566942D01*
X137385257Y-73805038D02*
X137718590Y-73805038D01*
X137432876Y-73805038D02*
X137409066Y-73828847D01*
X137385257Y-73876466D01*
X137385257Y-73947895D01*
X137409066Y-73995514D01*
X137456685Y-74019323D01*
X137718590Y-74019323D01*
X137694780Y-74233609D02*
X137718590Y-74281228D01*
X137718590Y-74376466D01*
X137694780Y-74424085D01*
X137647161Y-74447895D01*
X137623352Y-74447895D01*
X137575733Y-74424085D01*
X137551923Y-74376466D01*
X137551923Y-74305038D01*
X137528114Y-74257419D01*
X137480495Y-74233609D01*
X137456685Y-74233609D01*
X137409066Y-74257419D01*
X137385257Y-74305038D01*
X137385257Y-74376466D01*
X137409066Y-74424085D01*
X137718590Y-74662180D02*
X137385257Y-74662180D01*
X137218590Y-74662180D02*
X137242400Y-74638371D01*
X137266209Y-74662180D01*
X137242400Y-74685990D01*
X137218590Y-74662180D01*
X137266209Y-74662180D01*
X137718590Y-74971704D02*
X137694780Y-74924085D01*
X137670971Y-74900276D01*
X137623352Y-74876466D01*
X137480495Y-74876466D01*
X137432876Y-74900276D01*
X137409066Y-74924085D01*
X137385257Y-74971704D01*
X137385257Y-75043133D01*
X137409066Y-75090752D01*
X137432876Y-75114561D01*
X137480495Y-75138371D01*
X137623352Y-75138371D01*
X137670971Y-75114561D01*
X137694780Y-75090752D01*
X137718590Y-75043133D01*
X137718590Y-74971704D01*
X137385257Y-75352657D02*
X137718590Y-75352657D01*
X137432876Y-75352657D02*
X137409066Y-75376466D01*
X137385257Y-75424085D01*
X137385257Y-75495514D01*
X137409066Y-75543133D01*
X137456685Y-75566942D01*
X137718590Y-75566942D01*
D11*
X143844233Y-72412180D02*
X143844233Y-73126466D01*
X143891852Y-73269323D01*
X143987090Y-73364561D01*
X144129947Y-73412180D01*
X144225185Y-73412180D01*
X143463280Y-72412180D02*
X142844233Y-72412180D01*
X143177566Y-72793133D01*
X143034709Y-72793133D01*
X142939471Y-72840752D01*
X142891852Y-72888371D01*
X142844233Y-72983609D01*
X142844233Y-73221704D01*
X142891852Y-73316942D01*
X142939471Y-73364561D01*
X143034709Y-73412180D01*
X143320423Y-73412180D01*
X143415661Y-73364561D01*
X143463280Y-73316942D01*
X141319933Y-83012180D02*
X141319933Y-83726466D01*
X141367552Y-83869323D01*
X141462790Y-83964561D01*
X141605647Y-84012180D01*
X141700885Y-84012180D01*
X140319933Y-84012180D02*
X140891361Y-84012180D01*
X140605647Y-84012180D02*
X140605647Y-83012180D01*
X140700885Y-83155038D01*
X140796123Y-83250276D01*
X140891361Y-83297895D01*
X146389933Y-82992180D02*
X146389933Y-83706466D01*
X146437552Y-83849323D01*
X146532790Y-83944561D01*
X146675647Y-83992180D01*
X146770885Y-83992180D01*
X145961361Y-83087419D02*
X145913742Y-83039800D01*
X145818504Y-82992180D01*
X145580409Y-82992180D01*
X145485171Y-83039800D01*
X145437552Y-83087419D01*
X145389933Y-83182657D01*
X145389933Y-83277895D01*
X145437552Y-83420752D01*
X146008980Y-83992180D01*
X145389933Y-83992180D01*
X141329933Y-65332180D02*
X141329933Y-66046466D01*
X141377552Y-66189323D01*
X141472790Y-66284561D01*
X141615647Y-66332180D01*
X141710885Y-66332180D01*
X140425171Y-65665514D02*
X140425171Y-66332180D01*
X140663266Y-65284561D02*
X140901361Y-65998847D01*
X140282314Y-65998847D01*
X146399933Y-65342180D02*
X146399933Y-66056466D01*
X146447552Y-66199323D01*
X146542790Y-66294561D01*
X146685647Y-66342180D01*
X146780885Y-66342180D01*
X145447552Y-65342180D02*
X145923742Y-65342180D01*
X145971361Y-65818371D01*
X145923742Y-65770752D01*
X145828504Y-65723133D01*
X145590409Y-65723133D01*
X145495171Y-65770752D01*
X145447552Y-65818371D01*
X145399933Y-65913609D01*
X145399933Y-66151704D01*
X145447552Y-66246942D01*
X145495171Y-66294561D01*
X145590409Y-66342180D01*
X145828504Y-66342180D01*
X145923742Y-66294561D01*
X145971361Y-66246942D01*
X131299933Y-75382180D02*
X131299933Y-76096466D01*
X131347552Y-76239323D01*
X131442790Y-76334561D01*
X131585647Y-76382180D01*
X131680885Y-76382180D01*
X130395171Y-75382180D02*
X130585647Y-75382180D01*
X130680885Y-75429800D01*
X130728504Y-75477419D01*
X130823742Y-75620276D01*
X130871361Y-75810752D01*
X130871361Y-76191704D01*
X130823742Y-76286942D01*
X130776123Y-76334561D01*
X130680885Y-76382180D01*
X130490409Y-76382180D01*
X130395171Y-76334561D01*
X130347552Y-76286942D01*
X130299933Y-76191704D01*
X130299933Y-75953609D01*
X130347552Y-75858371D01*
X130395171Y-75810752D01*
X130490409Y-75763133D01*
X130680885Y-75763133D01*
X130776123Y-75810752D01*
X130823742Y-75858371D01*
X130871361Y-75953609D01*
X157669933Y-75362180D02*
X157669933Y-76076466D01*
X157717552Y-76219323D01*
X157812790Y-76314561D01*
X157955647Y-76362180D01*
X158050885Y-76362180D01*
X157288980Y-75362180D02*
X156622314Y-75362180D01*
X157050885Y-76362180D01*
M02*
