G04 #@! TF.GenerationSoftware,KiCad,Pcbnew,(5.1.9)-1*
G04 #@! TF.CreationDate,2021-01-16T23:43:25-07:00*
G04 #@! TF.ProjectId,purplewizard-ART,70757270-6c65-4776-997a-6172642d4152,1*
G04 #@! TF.SameCoordinates,Original*
G04 #@! TF.FileFunction,Other,User*
%FSLAX46Y46*%
G04 Gerber Fmt 4.6, Leading zero omitted, Abs format (unit mm)*
G04 Created by KiCad (PCBNEW (5.1.9)-1) date 2021-01-16 23:43:25*
%MOMM*%
%LPD*%
G01*
G04 APERTURE LIST*
%ADD10C,0.050000*%
G04 APERTURE END LIST*
D10*
X187546600Y-119479800D02*
X187546600Y-116479800D01*
X187546600Y-119479800D02*
X184546600Y-119479800D01*
X184546600Y-116479800D02*
X187546600Y-116479800D01*
X184546600Y-116479800D02*
X184546600Y-119479800D01*
X184606600Y-120559800D02*
X184606600Y-123559800D01*
X184606600Y-120559800D02*
X187606600Y-120559800D01*
X187606600Y-123559800D02*
X184606600Y-123559800D01*
X187606600Y-123559800D02*
X187606600Y-120559800D01*
X98566600Y-114839800D02*
X98566600Y-117839800D01*
X98566600Y-114839800D02*
X101566600Y-114839800D01*
X101566600Y-117839800D02*
X98566600Y-117839800D01*
X101566600Y-117839800D02*
X101566600Y-114839800D01*
X101626600Y-121919800D02*
X101626600Y-118919800D01*
X101626600Y-121919800D02*
X98626600Y-121919800D01*
X98626600Y-118919800D02*
X101626600Y-118919800D01*
X98626600Y-118919800D02*
X98626600Y-121919800D01*
X115236600Y-172809800D02*
X118236600Y-172809800D01*
X115236600Y-172809800D02*
X115236600Y-169809800D01*
X118236600Y-169809800D02*
X118236600Y-172809800D01*
X118236600Y-169809800D02*
X115236600Y-169809800D01*
X114156600Y-169869800D02*
X111156600Y-169869800D01*
X114156600Y-169869800D02*
X114156600Y-172869800D01*
X111156600Y-172869800D02*
X111156600Y-169869800D01*
X111156600Y-172869800D02*
X114156600Y-172869800D01*
X175936600Y-169709800D02*
X172936600Y-169709800D01*
X175936600Y-169709800D02*
X175936600Y-172709800D01*
X172936600Y-172709800D02*
X172936600Y-169709800D01*
X172936600Y-172709800D02*
X175936600Y-172709800D01*
X168856600Y-172769800D02*
X171856600Y-172769800D01*
X168856600Y-172769800D02*
X168856600Y-169769800D01*
X171856600Y-169769800D02*
X171856600Y-172769800D01*
X171856600Y-169769800D02*
X168856600Y-169769800D01*
X141716600Y-24439800D02*
X138716600Y-24439800D01*
X141716600Y-24439800D02*
X141716600Y-27439800D01*
X138716600Y-27439800D02*
X138716600Y-24439800D01*
X138716600Y-27439800D02*
X141716600Y-27439800D01*
X142796600Y-27379800D02*
X145796600Y-27379800D01*
X142796600Y-27379800D02*
X142796600Y-24379800D01*
X145796600Y-24379800D02*
X145796600Y-27379800D01*
X145796600Y-24379800D02*
X142796600Y-24379800D01*
X150360900Y-68409800D02*
X136660900Y-68409800D01*
X150360900Y-77459800D02*
X150360900Y-68409800D01*
X136660900Y-77459800D02*
X150360900Y-77459800D01*
X136660900Y-68409800D02*
X136660900Y-77459800D01*
X139486600Y-83059800D02*
X142486600Y-83059800D01*
X139486600Y-83059800D02*
X139486600Y-80059800D01*
X142486600Y-80059800D02*
X142486600Y-83059800D01*
X142486600Y-80059800D02*
X139486600Y-80059800D01*
X147556600Y-80039800D02*
X144556600Y-80039800D01*
X147556600Y-80039800D02*
X147556600Y-83039800D01*
X144556600Y-83039800D02*
X144556600Y-80039800D01*
X144556600Y-83039800D02*
X147556600Y-83039800D01*
X139496600Y-65379800D02*
X142496600Y-65379800D01*
X139496600Y-65379800D02*
X139496600Y-62379800D01*
X142496600Y-62379800D02*
X142496600Y-65379800D01*
X142496600Y-62379800D02*
X139496600Y-62379800D01*
X147566600Y-62389800D02*
X144566600Y-62389800D01*
X147566600Y-62389800D02*
X147566600Y-65389800D01*
X144566600Y-65389800D02*
X144566600Y-62389800D01*
X144566600Y-65389800D02*
X147566600Y-65389800D01*
X133466600Y-70529800D02*
X128466600Y-70529800D01*
X133466600Y-70529800D02*
X133466600Y-75529800D01*
X128466600Y-75529800D02*
X128466600Y-70529800D01*
X128466600Y-75529800D02*
X133466600Y-75529800D01*
X154836600Y-75509800D02*
X159836600Y-75509800D01*
X154836600Y-75509800D02*
X154836600Y-70509800D01*
X159836600Y-70509800D02*
X159836600Y-75509800D01*
X159836600Y-70509800D02*
X154836600Y-70509800D01*
M02*
