G04 #@! TF.GenerationSoftware,KiCad,Pcbnew,(5.1.9)-1*
G04 #@! TF.CreationDate,2021-01-16T23:43:25-07:00*
G04 #@! TF.ProjectId,purplewizard-ART,70757270-6c65-4776-997a-6172642d4152,1*
G04 #@! TF.SameCoordinates,Original*
G04 #@! TF.FileFunction,Soldermask,Bot*
G04 #@! TF.FilePolarity,Negative*
%FSLAX46Y46*%
G04 Gerber Fmt 4.6, Leading zero omitted, Abs format (unit mm)*
G04 Created by KiCad (PCBNEW (5.1.9)-1) date 2021-01-16 23:43:25*
%MOMM*%
%LPD*%
G01*
G04 APERTURE LIST*
%ADD10C,0.150000*%
%ADD11R,2.000000X2.000000*%
%ADD12R,1.000000X3.000000*%
%ADD13R,4.000000X4.000000*%
G04 APERTURE END LIST*
D10*
X150151957Y-160520990D02*
X150199576Y-160473371D01*
X150294814Y-160425752D01*
X150390052Y-160425752D01*
X150485290Y-160473371D01*
X150532909Y-160520990D01*
X150580528Y-160616228D01*
X150580528Y-160711466D01*
X150532909Y-160806704D01*
X150485290Y-160854323D01*
X150390052Y-160901942D01*
X150294814Y-160901942D01*
X150199576Y-160854323D01*
X150151957Y-160806704D01*
X150151957Y-160425752D02*
X150151957Y-160806704D01*
X150104338Y-160854323D01*
X150056719Y-160854323D01*
X149961480Y-160806704D01*
X149913861Y-160711466D01*
X149913861Y-160473371D01*
X150009100Y-160330514D01*
X150151957Y-160235276D01*
X150342433Y-160187657D01*
X150532909Y-160235276D01*
X150675766Y-160330514D01*
X150771004Y-160473371D01*
X150818623Y-160663847D01*
X150771004Y-160854323D01*
X150675766Y-160997180D01*
X150532909Y-161092419D01*
X150342433Y-161140038D01*
X150151957Y-161092419D01*
X150009100Y-160997180D01*
X149056719Y-160997180D02*
X149056719Y-159997180D01*
X149056719Y-160949561D02*
X149151957Y-160997180D01*
X149342433Y-160997180D01*
X149437671Y-160949561D01*
X149485290Y-160901942D01*
X149532909Y-160806704D01*
X149532909Y-160520990D01*
X149485290Y-160425752D01*
X149437671Y-160378133D01*
X149342433Y-160330514D01*
X149151957Y-160330514D01*
X149056719Y-160378133D01*
X148675766Y-160330514D02*
X148437671Y-160997180D01*
X148199576Y-160330514D01*
X147390052Y-160997180D02*
X147390052Y-159997180D01*
X147390052Y-160949561D02*
X147485290Y-160997180D01*
X147675766Y-160997180D01*
X147771004Y-160949561D01*
X147818623Y-160901942D01*
X147866242Y-160806704D01*
X147866242Y-160520990D01*
X147818623Y-160425752D01*
X147771004Y-160378133D01*
X147675766Y-160330514D01*
X147485290Y-160330514D01*
X147390052Y-160378133D01*
X147056719Y-160330514D02*
X146675766Y-160330514D01*
X146913861Y-160997180D02*
X146913861Y-160140038D01*
X146866242Y-160044800D01*
X146771004Y-159997180D01*
X146675766Y-159997180D01*
X146342433Y-160997180D02*
X146342433Y-160330514D01*
X146342433Y-160520990D02*
X146294814Y-160425752D01*
X146247195Y-160378133D01*
X146151957Y-160330514D01*
X146056719Y-160330514D01*
X145342433Y-160949561D02*
X145437671Y-160997180D01*
X145628147Y-160997180D01*
X145723385Y-160949561D01*
X145771004Y-160854323D01*
X145771004Y-160473371D01*
X145723385Y-160378133D01*
X145628147Y-160330514D01*
X145437671Y-160330514D01*
X145342433Y-160378133D01*
X145294814Y-160473371D01*
X145294814Y-160568609D01*
X145771004Y-160663847D01*
X144866242Y-160997180D02*
X144866242Y-160330514D01*
X144866242Y-159997180D02*
X144913861Y-160044800D01*
X144866242Y-160092419D01*
X144818623Y-160044800D01*
X144866242Y-159997180D01*
X144866242Y-160092419D01*
X144532909Y-160330514D02*
X144151957Y-160330514D01*
X144390052Y-159997180D02*
X144390052Y-160854323D01*
X144342433Y-160949561D01*
X144247195Y-160997180D01*
X144151957Y-160997180D01*
X143390052Y-160997180D02*
X143390052Y-160473371D01*
X143437671Y-160378133D01*
X143532909Y-160330514D01*
X143723385Y-160330514D01*
X143818623Y-160378133D01*
X143390052Y-160949561D02*
X143485290Y-160997180D01*
X143723385Y-160997180D01*
X143818623Y-160949561D01*
X143866242Y-160854323D01*
X143866242Y-160759085D01*
X143818623Y-160663847D01*
X143723385Y-160616228D01*
X143485290Y-160616228D01*
X143390052Y-160568609D01*
X142485290Y-160330514D02*
X142485290Y-161140038D01*
X142532909Y-161235276D01*
X142580528Y-161282895D01*
X142675766Y-161330514D01*
X142818623Y-161330514D01*
X142913861Y-161282895D01*
X142485290Y-160949561D02*
X142580528Y-160997180D01*
X142771004Y-160997180D01*
X142866242Y-160949561D01*
X142913861Y-160901942D01*
X142961480Y-160806704D01*
X142961480Y-160520990D01*
X142913861Y-160425752D01*
X142866242Y-160378133D01*
X142771004Y-160330514D01*
X142580528Y-160330514D01*
X142485290Y-160378133D01*
X150151957Y-162170990D02*
X150199576Y-162123371D01*
X150294814Y-162075752D01*
X150390052Y-162075752D01*
X150485290Y-162123371D01*
X150532909Y-162170990D01*
X150580528Y-162266228D01*
X150580528Y-162361466D01*
X150532909Y-162456704D01*
X150485290Y-162504323D01*
X150390052Y-162551942D01*
X150294814Y-162551942D01*
X150199576Y-162504323D01*
X150151957Y-162456704D01*
X150151957Y-162075752D02*
X150151957Y-162456704D01*
X150104338Y-162504323D01*
X150056719Y-162504323D01*
X149961480Y-162456704D01*
X149913861Y-162361466D01*
X149913861Y-162123371D01*
X150009100Y-161980514D01*
X150151957Y-161885276D01*
X150342433Y-161837657D01*
X150532909Y-161885276D01*
X150675766Y-161980514D01*
X150771004Y-162123371D01*
X150818623Y-162313847D01*
X150771004Y-162504323D01*
X150675766Y-162647180D01*
X150532909Y-162742419D01*
X150342433Y-162790038D01*
X150151957Y-162742419D01*
X150009100Y-162647180D01*
X149485290Y-162647180D02*
X149485290Y-161647180D01*
X149056719Y-162647180D02*
X149056719Y-162123371D01*
X149104338Y-162028133D01*
X149199576Y-161980514D01*
X149342433Y-161980514D01*
X149437671Y-162028133D01*
X149485290Y-162075752D01*
X148151957Y-162647180D02*
X148151957Y-162123371D01*
X148199576Y-162028133D01*
X148294814Y-161980514D01*
X148485290Y-161980514D01*
X148580528Y-162028133D01*
X148151957Y-162599561D02*
X148247195Y-162647180D01*
X148485290Y-162647180D01*
X148580528Y-162599561D01*
X148628147Y-162504323D01*
X148628147Y-162409085D01*
X148580528Y-162313847D01*
X148485290Y-162266228D01*
X148247195Y-162266228D01*
X148151957Y-162218609D01*
X147675766Y-162647180D02*
X147675766Y-161980514D01*
X147675766Y-162075752D02*
X147628147Y-162028133D01*
X147532909Y-161980514D01*
X147390052Y-161980514D01*
X147294814Y-162028133D01*
X147247195Y-162123371D01*
X147247195Y-162647180D01*
X147247195Y-162123371D02*
X147199576Y-162028133D01*
X147104338Y-161980514D01*
X146961480Y-161980514D01*
X146866242Y-162028133D01*
X146818623Y-162123371D01*
X146818623Y-162647180D01*
X146390052Y-162599561D02*
X146294814Y-162647180D01*
X146104338Y-162647180D01*
X146009100Y-162599561D01*
X145961480Y-162504323D01*
X145961480Y-162456704D01*
X146009100Y-162361466D01*
X146104338Y-162313847D01*
X146247195Y-162313847D01*
X146342433Y-162266228D01*
X146390052Y-162170990D01*
X146390052Y-162123371D01*
X146342433Y-162028133D01*
X146247195Y-161980514D01*
X146104338Y-161980514D01*
X146009100Y-162028133D01*
X145675766Y-161980514D02*
X145294814Y-161980514D01*
X145532909Y-161647180D02*
X145532909Y-162504323D01*
X145485290Y-162599561D01*
X145390052Y-162647180D01*
X145294814Y-162647180D01*
X144580528Y-162599561D02*
X144675766Y-162647180D01*
X144866242Y-162647180D01*
X144961480Y-162599561D01*
X145009100Y-162504323D01*
X145009100Y-162123371D01*
X144961480Y-162028133D01*
X144866242Y-161980514D01*
X144675766Y-161980514D01*
X144580528Y-162028133D01*
X144532909Y-162123371D01*
X144532909Y-162218609D01*
X145009100Y-162313847D01*
X144104338Y-162647180D02*
X144104338Y-161980514D01*
X144104338Y-162170990D02*
X144056719Y-162075752D01*
X144009100Y-162028133D01*
X143913861Y-161980514D01*
X143818623Y-161980514D01*
D11*
X186046600Y-117979800D03*
X186106600Y-122059800D03*
X100066600Y-116339800D03*
X100126600Y-120419800D03*
X116736600Y-171309800D03*
X112656600Y-171369800D03*
X174436600Y-171209800D03*
X170356600Y-171269800D03*
X140216600Y-25939800D03*
X144296600Y-25879800D03*
D12*
X148590900Y-70439800D03*
X148590900Y-75479800D03*
X146050900Y-70439800D03*
X146050900Y-75479800D03*
X143510900Y-70439800D03*
X143510900Y-75479800D03*
X140970900Y-70439800D03*
X140970900Y-75479800D03*
X138430900Y-70439800D03*
X138430900Y-75479800D03*
D11*
X140986600Y-81559800D03*
X146056600Y-81539800D03*
X140996600Y-63879800D03*
X146066600Y-63889800D03*
D13*
X130966600Y-73029800D03*
X157336600Y-73009800D03*
M02*
