G04 #@! TF.GenerationSoftware,KiCad,Pcbnew,(5.1.5)-3*
G04 #@! TF.CreationDate,2020-08-14T21:58:09-06:00*
G04 #@! TF.ProjectId,purplewizard-ART,70757270-6c65-4776-997a-6172642d4152,1*
G04 #@! TF.SameCoordinates,Original*
G04 #@! TF.FileFunction,Profile,NP*
%FSLAX46Y46*%
G04 Gerber Fmt 4.6, Leading zero omitted, Abs format (unit mm)*
G04 Created by KiCad (PCBNEW (5.1.5)-3) date 2020-08-14 21:58:09*
%MOMM*%
%LPD*%
G04 APERTURE LIST*
%ADD10C,0.100000*%
%ADD11C,0.150000*%
%ADD12C,0.300000*%
%ADD13C,0.400000*%
%ADD14C,0.010000*%
G04 APERTURE END LIST*
D10*
D11*
X235600000Y-171900000D02*
X235600000Y-203900000D01*
X343600000Y-203900000D01*
X343600000Y-171900000D01*
X235600000Y-171900000D01*
D10*
D11*
X10000000Y-10000000D02*
X10000000Y-205900000D01*
X345600000Y-205900000D01*
X345600000Y-10000000D01*
X10000000Y-10000000D01*
D10*
D11*
X12000000Y-12000000D02*
X12000000Y-203900000D01*
X343600000Y-203900000D01*
X343600000Y-12000000D01*
X12000000Y-12000000D01*
D10*
D11*
X60000000Y-12000000D02*
X60000000Y-10000000D01*
D10*
D11*
X110000000Y-12000000D02*
X110000000Y-10000000D01*
D10*
D11*
X160000000Y-12000000D02*
X160000000Y-10000000D01*
D10*
D11*
X210000000Y-12000000D02*
X210000000Y-10000000D01*
D10*
D11*
X260000000Y-12000000D02*
X260000000Y-10000000D01*
D10*
D11*
X310000000Y-12000000D02*
X310000000Y-10000000D01*
D10*
D11*
X36065476Y-11588095D02*
X35322619Y-11588095D01*
X35694047Y-11588095D02*
X35694047Y-10288095D01*
X35570238Y-10473809D01*
X35446428Y-10597619D01*
X35322619Y-10659523D01*
D10*
D11*
X85322619Y-10411904D02*
X85384523Y-10350000D01*
X85508333Y-10288095D01*
X85817857Y-10288095D01*
X85941666Y-10350000D01*
X86003571Y-10411904D01*
X86065476Y-10535714D01*
X86065476Y-10659523D01*
X86003571Y-10845238D01*
X85260714Y-11588095D01*
X86065476Y-11588095D01*
D10*
D11*
X135260714Y-10288095D02*
X136065476Y-10288095D01*
X135632142Y-10783333D01*
X135817857Y-10783333D01*
X135941666Y-10845238D01*
X136003571Y-10907142D01*
X136065476Y-11030952D01*
X136065476Y-11340476D01*
X136003571Y-11464285D01*
X135941666Y-11526190D01*
X135817857Y-11588095D01*
X135446428Y-11588095D01*
X135322619Y-11526190D01*
X135260714Y-11464285D01*
D10*
D11*
X185941666Y-10721428D02*
X185941666Y-11588095D01*
X185632142Y-10226190D02*
X185322619Y-11154761D01*
X186127380Y-11154761D01*
D10*
D11*
X236003571Y-10288095D02*
X235384523Y-10288095D01*
X235322619Y-10907142D01*
X235384523Y-10845238D01*
X235508333Y-10783333D01*
X235817857Y-10783333D01*
X235941666Y-10845238D01*
X236003571Y-10907142D01*
X236065476Y-11030952D01*
X236065476Y-11340476D01*
X236003571Y-11464285D01*
X235941666Y-11526190D01*
X235817857Y-11588095D01*
X235508333Y-11588095D01*
X235384523Y-11526190D01*
X235322619Y-11464285D01*
D10*
D11*
X285941666Y-10288095D02*
X285694047Y-10288095D01*
X285570238Y-10350000D01*
X285508333Y-10411904D01*
X285384523Y-10597619D01*
X285322619Y-10845238D01*
X285322619Y-11340476D01*
X285384523Y-11464285D01*
X285446428Y-11526190D01*
X285570238Y-11588095D01*
X285817857Y-11588095D01*
X285941666Y-11526190D01*
X286003571Y-11464285D01*
X286065476Y-11340476D01*
X286065476Y-11030952D01*
X286003571Y-10907142D01*
X285941666Y-10845238D01*
X285817857Y-10783333D01*
X285570238Y-10783333D01*
X285446428Y-10845238D01*
X285384523Y-10907142D01*
X285322619Y-11030952D01*
D10*
D11*
X335260714Y-10288095D02*
X336127380Y-10288095D01*
X335570238Y-11588095D01*
D10*
D11*
X60000000Y-203900000D02*
X60000000Y-205900000D01*
D10*
D11*
X110000000Y-203900000D02*
X110000000Y-205900000D01*
D10*
D11*
X160000000Y-203900000D02*
X160000000Y-205900000D01*
D10*
D11*
X210000000Y-203900000D02*
X210000000Y-205900000D01*
D10*
D11*
X260000000Y-203900000D02*
X260000000Y-205900000D01*
D10*
D11*
X310000000Y-203900000D02*
X310000000Y-205900000D01*
D10*
D11*
X36065476Y-205488095D02*
X35322619Y-205488095D01*
X35694047Y-205488095D02*
X35694047Y-204188095D01*
X35570238Y-204373809D01*
X35446428Y-204497619D01*
X35322619Y-204559523D01*
D10*
D11*
X85322619Y-204311904D02*
X85384523Y-204250000D01*
X85508333Y-204188095D01*
X85817857Y-204188095D01*
X85941666Y-204250000D01*
X86003571Y-204311904D01*
X86065476Y-204435714D01*
X86065476Y-204559523D01*
X86003571Y-204745238D01*
X85260714Y-205488095D01*
X86065476Y-205488095D01*
D10*
D11*
X135260714Y-204188095D02*
X136065476Y-204188095D01*
X135632142Y-204683333D01*
X135817857Y-204683333D01*
X135941666Y-204745238D01*
X136003571Y-204807142D01*
X136065476Y-204930952D01*
X136065476Y-205240476D01*
X136003571Y-205364285D01*
X135941666Y-205426190D01*
X135817857Y-205488095D01*
X135446428Y-205488095D01*
X135322619Y-205426190D01*
X135260714Y-205364285D01*
D10*
D11*
X185941666Y-204621428D02*
X185941666Y-205488095D01*
X185632142Y-204126190D02*
X185322619Y-205054761D01*
X186127380Y-205054761D01*
D10*
D11*
X236003571Y-204188095D02*
X235384523Y-204188095D01*
X235322619Y-204807142D01*
X235384523Y-204745238D01*
X235508333Y-204683333D01*
X235817857Y-204683333D01*
X235941666Y-204745238D01*
X236003571Y-204807142D01*
X236065476Y-204930952D01*
X236065476Y-205240476D01*
X236003571Y-205364285D01*
X235941666Y-205426190D01*
X235817857Y-205488095D01*
X235508333Y-205488095D01*
X235384523Y-205426190D01*
X235322619Y-205364285D01*
D10*
D11*
X285941666Y-204188095D02*
X285694047Y-204188095D01*
X285570238Y-204250000D01*
X285508333Y-204311904D01*
X285384523Y-204497619D01*
X285322619Y-204745238D01*
X285322619Y-205240476D01*
X285384523Y-205364285D01*
X285446428Y-205426190D01*
X285570238Y-205488095D01*
X285817857Y-205488095D01*
X285941666Y-205426190D01*
X286003571Y-205364285D01*
X286065476Y-205240476D01*
X286065476Y-204930952D01*
X286003571Y-204807142D01*
X285941666Y-204745238D01*
X285817857Y-204683333D01*
X285570238Y-204683333D01*
X285446428Y-204745238D01*
X285384523Y-204807142D01*
X285322619Y-204930952D01*
D10*
D11*
X335260714Y-204188095D02*
X336127380Y-204188095D01*
X335570238Y-205488095D01*
D10*
D11*
X10000000Y-60000000D02*
X12000000Y-60000000D01*
D10*
D11*
X10000000Y-110000000D02*
X12000000Y-110000000D01*
D10*
D11*
X10000000Y-160000000D02*
X12000000Y-160000000D01*
D10*
D11*
X10690476Y-35216666D02*
X11309523Y-35216666D01*
X10566666Y-35588095D02*
X11000000Y-34288095D01*
X11433333Y-35588095D01*
D10*
D11*
X11092857Y-84907142D02*
X11278571Y-84969047D01*
X11340476Y-85030952D01*
X11402380Y-85154761D01*
X11402380Y-85340476D01*
X11340476Y-85464285D01*
X11278571Y-85526190D01*
X11154761Y-85588095D01*
X10659523Y-85588095D01*
X10659523Y-84288095D01*
X11092857Y-84288095D01*
X11216666Y-84350000D01*
X11278571Y-84411904D01*
X11340476Y-84535714D01*
X11340476Y-84659523D01*
X11278571Y-84783333D01*
X11216666Y-84845238D01*
X11092857Y-84907142D01*
X10659523Y-84907142D01*
D10*
D11*
X11402380Y-135464285D02*
X11340476Y-135526190D01*
X11154761Y-135588095D01*
X11030952Y-135588095D01*
X10845238Y-135526190D01*
X10721428Y-135402380D01*
X10659523Y-135278571D01*
X10597619Y-135030952D01*
X10597619Y-134845238D01*
X10659523Y-134597619D01*
X10721428Y-134473809D01*
X10845238Y-134350000D01*
X11030952Y-134288095D01*
X11154761Y-134288095D01*
X11340476Y-134350000D01*
X11402380Y-134411904D01*
D10*
D11*
X10659523Y-185588095D02*
X10659523Y-184288095D01*
X10969047Y-184288095D01*
X11154761Y-184350000D01*
X11278571Y-184473809D01*
X11340476Y-184597619D01*
X11402380Y-184845238D01*
X11402380Y-185030952D01*
X11340476Y-185278571D01*
X11278571Y-185402380D01*
X11154761Y-185526190D01*
X10969047Y-185588095D01*
X10659523Y-185588095D01*
D10*
D11*
X345600000Y-60000000D02*
X343600000Y-60000000D01*
D10*
D11*
X345600000Y-110000000D02*
X343600000Y-110000000D01*
D10*
D11*
X345600000Y-160000000D02*
X343600000Y-160000000D01*
D10*
D11*
X344290476Y-35216666D02*
X344909523Y-35216666D01*
X344166666Y-35588095D02*
X344600000Y-34288095D01*
X345033333Y-35588095D01*
D10*
D11*
X344692857Y-84907142D02*
X344878571Y-84969047D01*
X344940476Y-85030952D01*
X345002380Y-85154761D01*
X345002380Y-85340476D01*
X344940476Y-85464285D01*
X344878571Y-85526190D01*
X344754761Y-85588095D01*
X344259523Y-85588095D01*
X344259523Y-84288095D01*
X344692857Y-84288095D01*
X344816666Y-84350000D01*
X344878571Y-84411904D01*
X344940476Y-84535714D01*
X344940476Y-84659523D01*
X344878571Y-84783333D01*
X344816666Y-84845238D01*
X344692857Y-84907142D01*
X344259523Y-84907142D01*
D10*
D11*
X345002380Y-135464285D02*
X344940476Y-135526190D01*
X344754761Y-135588095D01*
X344630952Y-135588095D01*
X344445238Y-135526190D01*
X344321428Y-135402380D01*
X344259523Y-135278571D01*
X344197619Y-135030952D01*
X344197619Y-134845238D01*
X344259523Y-134597619D01*
X344321428Y-134473809D01*
X344445238Y-134350000D01*
X344630952Y-134288095D01*
X344754761Y-134288095D01*
X344940476Y-134350000D01*
X345002380Y-134411904D01*
D10*
D11*
X344259523Y-185588095D02*
X344259523Y-184288095D01*
X344569047Y-184288095D01*
X344754761Y-184350000D01*
X344878571Y-184473809D01*
X344940476Y-184597619D01*
X345002380Y-184845238D01*
X345002380Y-185030952D01*
X344940476Y-185278571D01*
X344878571Y-185402380D01*
X344754761Y-185526190D01*
X344569047Y-185588095D01*
X344259523Y-185588095D01*
D10*
D11*
X259032142Y-199678571D02*
X259032142Y-198178571D01*
X259389285Y-198178571D01*
X259603571Y-198250000D01*
X259746428Y-198392857D01*
X259817857Y-198535714D01*
X259889285Y-198821428D01*
X259889285Y-199035714D01*
X259817857Y-199321428D01*
X259746428Y-199464285D01*
X259603571Y-199607142D01*
X259389285Y-199678571D01*
X259032142Y-199678571D01*
X261175000Y-199678571D02*
X261175000Y-198892857D01*
X261103571Y-198750000D01*
X260960714Y-198678571D01*
X260675000Y-198678571D01*
X260532142Y-198750000D01*
X261175000Y-199607142D02*
X261032142Y-199678571D01*
X260675000Y-199678571D01*
X260532142Y-199607142D01*
X260460714Y-199464285D01*
X260460714Y-199321428D01*
X260532142Y-199178571D01*
X260675000Y-199107142D01*
X261032142Y-199107142D01*
X261175000Y-199035714D01*
X261675000Y-198678571D02*
X262246428Y-198678571D01*
X261889285Y-198178571D02*
X261889285Y-199464285D01*
X261960714Y-199607142D01*
X262103571Y-199678571D01*
X262246428Y-199678571D01*
X263317857Y-199607142D02*
X263175000Y-199678571D01*
X262889285Y-199678571D01*
X262746428Y-199607142D01*
X262675000Y-199464285D01*
X262675000Y-198892857D01*
X262746428Y-198750000D01*
X262889285Y-198678571D01*
X263175000Y-198678571D01*
X263317857Y-198750000D01*
X263389285Y-198892857D01*
X263389285Y-199035714D01*
X262675000Y-199178571D01*
X264032142Y-199535714D02*
X264103571Y-199607142D01*
X264032142Y-199678571D01*
X263960714Y-199607142D01*
X264032142Y-199535714D01*
X264032142Y-199678571D01*
X264032142Y-198750000D02*
X264103571Y-198821428D01*
X264032142Y-198892857D01*
X263960714Y-198821428D01*
X264032142Y-198750000D01*
X264032142Y-198892857D01*
X265817857Y-198321428D02*
X265889285Y-198250000D01*
X266032142Y-198178571D01*
X266389285Y-198178571D01*
X266532142Y-198250000D01*
X266603571Y-198321428D01*
X266675000Y-198464285D01*
X266675000Y-198607142D01*
X266603571Y-198821428D01*
X265746428Y-199678571D01*
X266675000Y-199678571D01*
X267603571Y-198178571D02*
X267746428Y-198178571D01*
X267889285Y-198250000D01*
X267960714Y-198321428D01*
X268032142Y-198464285D01*
X268103571Y-198750000D01*
X268103571Y-199107142D01*
X268032142Y-199392857D01*
X267960714Y-199535714D01*
X267889285Y-199607142D01*
X267746428Y-199678571D01*
X267603571Y-199678571D01*
X267460714Y-199607142D01*
X267389285Y-199535714D01*
X267317857Y-199392857D01*
X267246428Y-199107142D01*
X267246428Y-198750000D01*
X267317857Y-198464285D01*
X267389285Y-198321428D01*
X267460714Y-198250000D01*
X267603571Y-198178571D01*
X268675000Y-198321428D02*
X268746428Y-198250000D01*
X268889285Y-198178571D01*
X269246428Y-198178571D01*
X269389285Y-198250000D01*
X269460714Y-198321428D01*
X269532142Y-198464285D01*
X269532142Y-198607142D01*
X269460714Y-198821428D01*
X268603571Y-199678571D01*
X269532142Y-199678571D01*
X270460714Y-198178571D02*
X270603571Y-198178571D01*
X270746428Y-198250000D01*
X270817857Y-198321428D01*
X270889285Y-198464285D01*
X270960714Y-198750000D01*
X270960714Y-199107142D01*
X270889285Y-199392857D01*
X270817857Y-199535714D01*
X270746428Y-199607142D01*
X270603571Y-199678571D01*
X270460714Y-199678571D01*
X270317857Y-199607142D01*
X270246428Y-199535714D01*
X270175000Y-199392857D01*
X270103571Y-199107142D01*
X270103571Y-198750000D01*
X270175000Y-198464285D01*
X270246428Y-198321428D01*
X270317857Y-198250000D01*
X270460714Y-198178571D01*
X271603571Y-199107142D02*
X272746428Y-199107142D01*
X273746428Y-198178571D02*
X273889285Y-198178571D01*
X274032142Y-198250000D01*
X274103571Y-198321428D01*
X274175000Y-198464285D01*
X274246428Y-198750000D01*
X274246428Y-199107142D01*
X274175000Y-199392857D01*
X274103571Y-199535714D01*
X274032142Y-199607142D01*
X273889285Y-199678571D01*
X273746428Y-199678571D01*
X273603571Y-199607142D01*
X273532142Y-199535714D01*
X273460714Y-199392857D01*
X273389285Y-199107142D01*
X273389285Y-198750000D01*
X273460714Y-198464285D01*
X273532142Y-198321428D01*
X273603571Y-198250000D01*
X273746428Y-198178571D01*
X275532142Y-198178571D02*
X275246428Y-198178571D01*
X275103571Y-198250000D01*
X275032142Y-198321428D01*
X274889285Y-198535714D01*
X274817857Y-198821428D01*
X274817857Y-199392857D01*
X274889285Y-199535714D01*
X274960714Y-199607142D01*
X275103571Y-199678571D01*
X275389285Y-199678571D01*
X275532142Y-199607142D01*
X275603571Y-199535714D01*
X275675000Y-199392857D01*
X275675000Y-199035714D01*
X275603571Y-198892857D01*
X275532142Y-198821428D01*
X275389285Y-198750000D01*
X275103571Y-198750000D01*
X274960714Y-198821428D01*
X274889285Y-198892857D01*
X274817857Y-199035714D01*
X276317857Y-199107142D02*
X277460714Y-199107142D01*
X278960714Y-199678571D02*
X278103571Y-199678571D01*
X278532142Y-199678571D02*
X278532142Y-198178571D01*
X278389285Y-198392857D01*
X278246428Y-198535714D01*
X278103571Y-198607142D01*
X280317857Y-198178571D02*
X279603571Y-198178571D01*
X279532142Y-198892857D01*
X279603571Y-198821428D01*
X279746428Y-198750000D01*
X280103571Y-198750000D01*
X280246428Y-198821428D01*
X280317857Y-198892857D01*
X280389285Y-199035714D01*
X280389285Y-199392857D01*
X280317857Y-199535714D01*
X280246428Y-199607142D01*
X280103571Y-199678571D01*
X279746428Y-199678571D01*
X279603571Y-199607142D01*
X279532142Y-199535714D01*
D10*
D11*
X235600000Y-200400000D02*
X343600000Y-200400000D01*
D10*
D11*
X237032142Y-202478571D02*
X237032142Y-200978571D01*
X237889285Y-202478571D02*
X237246428Y-201621428D01*
X237889285Y-200978571D02*
X237032142Y-201835714D01*
X238532142Y-202478571D02*
X238532142Y-201478571D01*
X238532142Y-200978571D02*
X238460714Y-201050000D01*
X238532142Y-201121428D01*
X238603571Y-201050000D01*
X238532142Y-200978571D01*
X238532142Y-201121428D01*
X240103571Y-202335714D02*
X240032142Y-202407142D01*
X239817857Y-202478571D01*
X239675000Y-202478571D01*
X239460714Y-202407142D01*
X239317857Y-202264285D01*
X239246428Y-202121428D01*
X239175000Y-201835714D01*
X239175000Y-201621428D01*
X239246428Y-201335714D01*
X239317857Y-201192857D01*
X239460714Y-201050000D01*
X239675000Y-200978571D01*
X239817857Y-200978571D01*
X240032142Y-201050000D01*
X240103571Y-201121428D01*
X241389285Y-202478571D02*
X241389285Y-201692857D01*
X241317857Y-201550000D01*
X241175000Y-201478571D01*
X240889285Y-201478571D01*
X240746428Y-201550000D01*
X241389285Y-202407142D02*
X241246428Y-202478571D01*
X240889285Y-202478571D01*
X240746428Y-202407142D01*
X240675000Y-202264285D01*
X240675000Y-202121428D01*
X240746428Y-201978571D01*
X240889285Y-201907142D01*
X241246428Y-201907142D01*
X241389285Y-201835714D01*
X242746428Y-202478571D02*
X242746428Y-200978571D01*
X242746428Y-202407142D02*
X242603571Y-202478571D01*
X242317857Y-202478571D01*
X242175000Y-202407142D01*
X242103571Y-202335714D01*
X242032142Y-202192857D01*
X242032142Y-201764285D01*
X242103571Y-201621428D01*
X242175000Y-201550000D01*
X242317857Y-201478571D01*
X242603571Y-201478571D01*
X242746428Y-201550000D01*
X244603571Y-201692857D02*
X245103571Y-201692857D01*
X245317857Y-202478571D02*
X244603571Y-202478571D01*
X244603571Y-200978571D01*
X245317857Y-200978571D01*
X245960714Y-202335714D02*
X246032142Y-202407142D01*
X245960714Y-202478571D01*
X245889285Y-202407142D01*
X245960714Y-202335714D01*
X245960714Y-202478571D01*
X246675000Y-202478571D02*
X246675000Y-200978571D01*
X247032142Y-200978571D01*
X247246428Y-201050000D01*
X247389285Y-201192857D01*
X247460714Y-201335714D01*
X247532142Y-201621428D01*
X247532142Y-201835714D01*
X247460714Y-202121428D01*
X247389285Y-202264285D01*
X247246428Y-202407142D01*
X247032142Y-202478571D01*
X246675000Y-202478571D01*
X248175000Y-202335714D02*
X248246428Y-202407142D01*
X248175000Y-202478571D01*
X248103571Y-202407142D01*
X248175000Y-202335714D01*
X248175000Y-202478571D01*
X248817857Y-202050000D02*
X249532142Y-202050000D01*
X248675000Y-202478571D02*
X249175000Y-200978571D01*
X249675000Y-202478571D01*
X250175000Y-202335714D02*
X250246428Y-202407142D01*
X250175000Y-202478571D01*
X250103571Y-202407142D01*
X250175000Y-202335714D01*
X250175000Y-202478571D01*
X253175000Y-202478571D02*
X253175000Y-200978571D01*
X253317857Y-201907142D02*
X253746428Y-202478571D01*
X253746428Y-201478571D02*
X253175000Y-202050000D01*
X254389285Y-202478571D02*
X254389285Y-201478571D01*
X254389285Y-200978571D02*
X254317857Y-201050000D01*
X254389285Y-201121428D01*
X254460714Y-201050000D01*
X254389285Y-200978571D01*
X254389285Y-201121428D01*
X255746428Y-202407142D02*
X255603571Y-202478571D01*
X255317857Y-202478571D01*
X255175000Y-202407142D01*
X255103571Y-202335714D01*
X255032142Y-202192857D01*
X255032142Y-201764285D01*
X255103571Y-201621428D01*
X255175000Y-201550000D01*
X255317857Y-201478571D01*
X255603571Y-201478571D01*
X255746428Y-201550000D01*
X257032142Y-202478571D02*
X257032142Y-201692857D01*
X256960714Y-201550000D01*
X256817857Y-201478571D01*
X256532142Y-201478571D01*
X256389285Y-201550000D01*
X257032142Y-202407142D02*
X256889285Y-202478571D01*
X256532142Y-202478571D01*
X256389285Y-202407142D01*
X256317857Y-202264285D01*
X256317857Y-202121428D01*
X256389285Y-201978571D01*
X256532142Y-201907142D01*
X256889285Y-201907142D01*
X257032142Y-201835714D01*
X258389285Y-202478571D02*
X258389285Y-200978571D01*
X258389285Y-202407142D02*
X258246428Y-202478571D01*
X257960714Y-202478571D01*
X257817857Y-202407142D01*
X257746428Y-202335714D01*
X257675000Y-202192857D01*
X257675000Y-201764285D01*
X257746428Y-201621428D01*
X257817857Y-201550000D01*
X257960714Y-201478571D01*
X258246428Y-201478571D01*
X258389285Y-201550000D01*
X260675000Y-203050000D02*
X260603571Y-202978571D01*
X260460714Y-202764285D01*
X260389285Y-202621428D01*
X260317857Y-202407142D01*
X260246428Y-202050000D01*
X260246428Y-201764285D01*
X260317857Y-201407142D01*
X260389285Y-201192857D01*
X260460714Y-201050000D01*
X260603571Y-200835714D01*
X260675000Y-200764285D01*
X261960714Y-200978571D02*
X261246428Y-200978571D01*
X261175000Y-201692857D01*
X261246428Y-201621428D01*
X261389285Y-201550000D01*
X261746428Y-201550000D01*
X261889285Y-201621428D01*
X261960714Y-201692857D01*
X262032142Y-201835714D01*
X262032142Y-202192857D01*
X261960714Y-202335714D01*
X261889285Y-202407142D01*
X261746428Y-202478571D01*
X261389285Y-202478571D01*
X261246428Y-202407142D01*
X261175000Y-202335714D01*
X262675000Y-202335714D02*
X262746428Y-202407142D01*
X262675000Y-202478571D01*
X262603571Y-202407142D01*
X262675000Y-202335714D01*
X262675000Y-202478571D01*
X264175000Y-202478571D02*
X263317857Y-202478571D01*
X263746428Y-202478571D02*
X263746428Y-200978571D01*
X263603571Y-201192857D01*
X263460714Y-201335714D01*
X263317857Y-201407142D01*
X264817857Y-202335714D02*
X264889285Y-202407142D01*
X264817857Y-202478571D01*
X264746428Y-202407142D01*
X264817857Y-202335714D01*
X264817857Y-202478571D01*
X266246428Y-200978571D02*
X265532142Y-200978571D01*
X265460714Y-201692857D01*
X265532142Y-201621428D01*
X265675000Y-201550000D01*
X266032142Y-201550000D01*
X266175000Y-201621428D01*
X266246428Y-201692857D01*
X266317857Y-201835714D01*
X266317857Y-202192857D01*
X266246428Y-202335714D01*
X266175000Y-202407142D01*
X266032142Y-202478571D01*
X265675000Y-202478571D01*
X265532142Y-202407142D01*
X265460714Y-202335714D01*
X266817857Y-203050000D02*
X266889285Y-202978571D01*
X267032142Y-202764285D01*
X267103571Y-202621428D01*
X267175000Y-202407142D01*
X267246428Y-202050000D01*
X267246428Y-201764285D01*
X267175000Y-201407142D01*
X267103571Y-201192857D01*
X267032142Y-201050000D01*
X266889285Y-200835714D01*
X266817857Y-200764285D01*
X267960714Y-201907142D02*
X269103571Y-201907142D01*
X269675000Y-200978571D02*
X270603571Y-200978571D01*
X270103571Y-201550000D01*
X270317857Y-201550000D01*
X270460714Y-201621428D01*
X270532142Y-201692857D01*
X270603571Y-201835714D01*
X270603571Y-202192857D01*
X270532142Y-202335714D01*
X270460714Y-202407142D01*
X270317857Y-202478571D01*
X269889285Y-202478571D01*
X269746428Y-202407142D01*
X269675000Y-202335714D01*
D10*
D11*
X235600000Y-197400000D02*
X343600000Y-197400000D01*
D10*
D12*
X323009285Y-199678571D02*
X322509285Y-198964285D01*
X322152142Y-199678571D02*
X322152142Y-198178571D01*
X322723571Y-198178571D01*
X322866428Y-198250000D01*
X322937857Y-198321428D01*
X323009285Y-198464285D01*
X323009285Y-198678571D01*
X322937857Y-198821428D01*
X322866428Y-198892857D01*
X322723571Y-198964285D01*
X322152142Y-198964285D01*
X324223571Y-199607142D02*
X324080714Y-199678571D01*
X323795000Y-199678571D01*
X323652142Y-199607142D01*
X323580714Y-199464285D01*
X323580714Y-198892857D01*
X323652142Y-198750000D01*
X323795000Y-198678571D01*
X324080714Y-198678571D01*
X324223571Y-198750000D01*
X324295000Y-198892857D01*
X324295000Y-199035714D01*
X323580714Y-199178571D01*
X324795000Y-198678571D02*
X325152142Y-199678571D01*
X325509285Y-198678571D01*
X326080714Y-199535714D02*
X326152142Y-199607142D01*
X326080714Y-199678571D01*
X326009285Y-199607142D01*
X326080714Y-199535714D01*
X326080714Y-199678571D01*
X326080714Y-198750000D02*
X326152142Y-198821428D01*
X326080714Y-198892857D01*
X326009285Y-198821428D01*
X326080714Y-198750000D01*
X326080714Y-198892857D01*
X328723571Y-199678571D02*
X327866428Y-199678571D01*
X328295000Y-199678571D02*
X328295000Y-198178571D01*
X328152142Y-198392857D01*
X328009285Y-198535714D01*
X327866428Y-198607142D01*
D10*
D11*
X236960714Y-199607142D02*
X237175000Y-199678571D01*
X237532142Y-199678571D01*
X237675000Y-199607142D01*
X237746428Y-199535714D01*
X237817857Y-199392857D01*
X237817857Y-199250000D01*
X237746428Y-199107142D01*
X237675000Y-199035714D01*
X237532142Y-198964285D01*
X237246428Y-198892857D01*
X237103571Y-198821428D01*
X237032142Y-198750000D01*
X236960714Y-198607142D01*
X236960714Y-198464285D01*
X237032142Y-198321428D01*
X237103571Y-198250000D01*
X237246428Y-198178571D01*
X237603571Y-198178571D01*
X237817857Y-198250000D01*
X238460714Y-199678571D02*
X238460714Y-198678571D01*
X238460714Y-198178571D02*
X238389285Y-198250000D01*
X238460714Y-198321428D01*
X238532142Y-198250000D01*
X238460714Y-198178571D01*
X238460714Y-198321428D01*
X239032142Y-198678571D02*
X239817857Y-198678571D01*
X239032142Y-199678571D01*
X239817857Y-199678571D01*
X240960714Y-199607142D02*
X240817857Y-199678571D01*
X240532142Y-199678571D01*
X240389285Y-199607142D01*
X240317857Y-199464285D01*
X240317857Y-198892857D01*
X240389285Y-198750000D01*
X240532142Y-198678571D01*
X240817857Y-198678571D01*
X240960714Y-198750000D01*
X241032142Y-198892857D01*
X241032142Y-199035714D01*
X240317857Y-199178571D01*
X241675000Y-199535714D02*
X241746428Y-199607142D01*
X241675000Y-199678571D01*
X241603571Y-199607142D01*
X241675000Y-199535714D01*
X241675000Y-199678571D01*
X241675000Y-198750000D02*
X241746428Y-198821428D01*
X241675000Y-198892857D01*
X241603571Y-198821428D01*
X241675000Y-198750000D01*
X241675000Y-198892857D01*
X243532142Y-198178571D02*
X243532142Y-199392857D01*
X243603571Y-199535714D01*
X243675000Y-199607142D01*
X243817857Y-199678571D01*
X244103571Y-199678571D01*
X244246428Y-199607142D01*
X244317857Y-199535714D01*
X244389285Y-199392857D01*
X244389285Y-198178571D01*
X245032142Y-199607142D02*
X245246428Y-199678571D01*
X245603571Y-199678571D01*
X245746428Y-199607142D01*
X245817857Y-199535714D01*
X245889285Y-199392857D01*
X245889285Y-199250000D01*
X245817857Y-199107142D01*
X245746428Y-199035714D01*
X245603571Y-198964285D01*
X245317857Y-198892857D01*
X245175000Y-198821428D01*
X245103571Y-198750000D01*
X245032142Y-198607142D01*
X245032142Y-198464285D01*
X245103571Y-198321428D01*
X245175000Y-198250000D01*
X245317857Y-198178571D01*
X245675000Y-198178571D01*
X245889285Y-198250000D01*
X247246428Y-199678571D02*
X246532142Y-199678571D01*
X246532142Y-198178571D01*
X248317857Y-199607142D02*
X248175000Y-199678571D01*
X247889285Y-199678571D01*
X247746428Y-199607142D01*
X247675000Y-199464285D01*
X247675000Y-198892857D01*
X247746428Y-198750000D01*
X247889285Y-198678571D01*
X248175000Y-198678571D01*
X248317857Y-198750000D01*
X248389285Y-198892857D01*
X248389285Y-199035714D01*
X247675000Y-199178571D01*
X249675000Y-198678571D02*
X249675000Y-199892857D01*
X249603571Y-200035714D01*
X249532142Y-200107142D01*
X249389285Y-200178571D01*
X249175000Y-200178571D01*
X249032142Y-200107142D01*
X249675000Y-199607142D02*
X249532142Y-199678571D01*
X249246428Y-199678571D01*
X249103571Y-199607142D01*
X249032142Y-199535714D01*
X248960714Y-199392857D01*
X248960714Y-198964285D01*
X249032142Y-198821428D01*
X249103571Y-198750000D01*
X249246428Y-198678571D01*
X249532142Y-198678571D01*
X249675000Y-198750000D01*
X251032142Y-199678571D02*
X251032142Y-198892857D01*
X250960714Y-198750000D01*
X250817857Y-198678571D01*
X250532142Y-198678571D01*
X250389285Y-198750000D01*
X251032142Y-199607142D02*
X250889285Y-199678571D01*
X250532142Y-199678571D01*
X250389285Y-199607142D01*
X250317857Y-199464285D01*
X250317857Y-199321428D01*
X250389285Y-199178571D01*
X250532142Y-199107142D01*
X250889285Y-199107142D01*
X251032142Y-199035714D01*
X251960714Y-199678571D02*
X251817857Y-199607142D01*
X251746428Y-199464285D01*
X251746428Y-198178571D01*
D10*
D11*
X322032142Y-202478571D02*
X322032142Y-200978571D01*
X323389285Y-202478571D02*
X323389285Y-200978571D01*
X323389285Y-202407142D02*
X323246428Y-202478571D01*
X322960714Y-202478571D01*
X322817857Y-202407142D01*
X322746428Y-202335714D01*
X322675000Y-202192857D01*
X322675000Y-201764285D01*
X322746428Y-201621428D01*
X322817857Y-201550000D01*
X322960714Y-201478571D01*
X323246428Y-201478571D01*
X323389285Y-201550000D01*
X324103571Y-202335714D02*
X324175000Y-202407142D01*
X324103571Y-202478571D01*
X324032142Y-202407142D01*
X324103571Y-202335714D01*
X324103571Y-202478571D01*
X324103571Y-201550000D02*
X324175000Y-201621428D01*
X324103571Y-201692857D01*
X324032142Y-201621428D01*
X324103571Y-201550000D01*
X324103571Y-201692857D01*
X326746428Y-202478571D02*
X325889285Y-202478571D01*
X326317857Y-202478571D02*
X326317857Y-200978571D01*
X326175000Y-201192857D01*
X326032142Y-201335714D01*
X325889285Y-201407142D01*
X328460714Y-200907142D02*
X327175000Y-202835714D01*
X329746428Y-202478571D02*
X328889285Y-202478571D01*
X329317857Y-202478571D02*
X329317857Y-200978571D01*
X329175000Y-201192857D01*
X329032142Y-201335714D01*
X328889285Y-201407142D01*
D10*
D11*
X235600000Y-193400000D02*
X343600000Y-193400000D01*
D10*
D13*
X237312380Y-194104761D02*
X238455238Y-194104761D01*
X237633809Y-196104761D02*
X237883809Y-194104761D01*
X238871904Y-196104761D02*
X239038571Y-194771428D01*
X239121904Y-194104761D02*
X239014761Y-194200000D01*
X239098095Y-194295238D01*
X239205238Y-194200000D01*
X239121904Y-194104761D01*
X239098095Y-194295238D01*
X239705238Y-194771428D02*
X240467142Y-194771428D01*
X240074285Y-194104761D02*
X239860000Y-195819047D01*
X239931428Y-196009523D01*
X240110000Y-196104761D01*
X240300476Y-196104761D01*
X241252857Y-196104761D02*
X241074285Y-196009523D01*
X241002857Y-195819047D01*
X241217142Y-194104761D01*
X242788571Y-196009523D02*
X242586190Y-196104761D01*
X242205238Y-196104761D01*
X242026666Y-196009523D01*
X241955238Y-195819047D01*
X242050476Y-195057142D01*
X242169523Y-194866666D01*
X242371904Y-194771428D01*
X242752857Y-194771428D01*
X242931428Y-194866666D01*
X243002857Y-195057142D01*
X242979047Y-195247619D01*
X242002857Y-195438095D01*
X243752857Y-195914285D02*
X243836190Y-196009523D01*
X243729047Y-196104761D01*
X243645714Y-196009523D01*
X243752857Y-195914285D01*
X243729047Y-196104761D01*
X243883809Y-194866666D02*
X243967142Y-194961904D01*
X243860000Y-195057142D01*
X243776666Y-194961904D01*
X243883809Y-194866666D01*
X243860000Y-195057142D01*
X246205238Y-196104761D02*
X246455238Y-194104761D01*
X246931428Y-194104761D01*
X247205238Y-194200000D01*
X247371904Y-194390476D01*
X247443333Y-194580952D01*
X247490952Y-194961904D01*
X247455238Y-195247619D01*
X247312380Y-195628571D01*
X247193333Y-195819047D01*
X246979047Y-196009523D01*
X246681428Y-196104761D01*
X246205238Y-196104761D01*
X249371904Y-195914285D02*
X249264761Y-196009523D01*
X248967142Y-196104761D01*
X248776666Y-196104761D01*
X248502857Y-196009523D01*
X248336190Y-195819047D01*
X248264761Y-195628571D01*
X248217142Y-195247619D01*
X248252857Y-194961904D01*
X248395714Y-194580952D01*
X248514761Y-194390476D01*
X248729047Y-194200000D01*
X249026666Y-194104761D01*
X249217142Y-194104761D01*
X249490952Y-194200000D01*
X249574285Y-194295238D01*
X250633809Y-194961904D02*
X250455238Y-194866666D01*
X250371904Y-194771428D01*
X250300476Y-194580952D01*
X250312380Y-194485714D01*
X250431428Y-194295238D01*
X250538571Y-194200000D01*
X250740952Y-194104761D01*
X251121904Y-194104761D01*
X251300476Y-194200000D01*
X251383809Y-194295238D01*
X251455238Y-194485714D01*
X251443333Y-194580952D01*
X251324285Y-194771428D01*
X251217142Y-194866666D01*
X251014761Y-194961904D01*
X250633809Y-194961904D01*
X250431428Y-195057142D01*
X250324285Y-195152380D01*
X250205238Y-195342857D01*
X250157619Y-195723809D01*
X250229047Y-195914285D01*
X250312380Y-196009523D01*
X250490952Y-196104761D01*
X250871904Y-196104761D01*
X251074285Y-196009523D01*
X251181428Y-195914285D01*
X251300476Y-195723809D01*
X251348095Y-195342857D01*
X251276666Y-195152380D01*
X251193333Y-195057142D01*
X251014761Y-194961904D01*
X252740952Y-194104761D02*
X252931428Y-194104761D01*
X253110000Y-194200000D01*
X253193333Y-194295238D01*
X253264761Y-194485714D01*
X253312380Y-194866666D01*
X253252857Y-195342857D01*
X253110000Y-195723809D01*
X252990952Y-195914285D01*
X252883809Y-196009523D01*
X252681428Y-196104761D01*
X252490952Y-196104761D01*
X252312380Y-196009523D01*
X252229047Y-195914285D01*
X252157619Y-195723809D01*
X252110000Y-195342857D01*
X252169523Y-194866666D01*
X252312380Y-194485714D01*
X252431428Y-194295238D01*
X252538571Y-194200000D01*
X252740952Y-194104761D01*
X255062380Y-196104761D02*
X253919523Y-196104761D01*
X254490952Y-196104761D02*
X254740952Y-194104761D01*
X254514761Y-194390476D01*
X254300476Y-194580952D01*
X254098095Y-194676190D01*
X258240952Y-195057142D02*
X258514761Y-195152380D01*
X258598095Y-195247619D01*
X258669523Y-195438095D01*
X258633809Y-195723809D01*
X258514761Y-195914285D01*
X258407619Y-196009523D01*
X258205238Y-196104761D01*
X257443333Y-196104761D01*
X257693333Y-194104761D01*
X258360000Y-194104761D01*
X258538571Y-194200000D01*
X258621904Y-194295238D01*
X258693333Y-194485714D01*
X258669523Y-194676190D01*
X258550476Y-194866666D01*
X258443333Y-194961904D01*
X258240952Y-195057142D01*
X257574285Y-195057142D01*
X260300476Y-196104761D02*
X260431428Y-195057142D01*
X260360000Y-194866666D01*
X260181428Y-194771428D01*
X259800476Y-194771428D01*
X259598095Y-194866666D01*
X260312380Y-196009523D02*
X260110000Y-196104761D01*
X259633809Y-196104761D01*
X259455238Y-196009523D01*
X259383809Y-195819047D01*
X259407619Y-195628571D01*
X259526666Y-195438095D01*
X259729047Y-195342857D01*
X260205238Y-195342857D01*
X260407619Y-195247619D01*
X262110000Y-196104761D02*
X262360000Y-194104761D01*
X262121904Y-196009523D02*
X261919523Y-196104761D01*
X261538571Y-196104761D01*
X261360000Y-196009523D01*
X261276666Y-195914285D01*
X261205238Y-195723809D01*
X261276666Y-195152380D01*
X261395714Y-194961904D01*
X261502857Y-194866666D01*
X261705238Y-194771428D01*
X262086190Y-194771428D01*
X262264761Y-194866666D01*
X264086190Y-194771428D02*
X263883809Y-196390476D01*
X263764761Y-196580952D01*
X263657619Y-196676190D01*
X263455238Y-196771428D01*
X263169523Y-196771428D01*
X262990952Y-196676190D01*
X263931428Y-196009523D02*
X263729047Y-196104761D01*
X263348095Y-196104761D01*
X263169523Y-196009523D01*
X263086190Y-195914285D01*
X263014761Y-195723809D01*
X263086190Y-195152380D01*
X263205238Y-194961904D01*
X263312380Y-194866666D01*
X263514761Y-194771428D01*
X263895714Y-194771428D01*
X264074285Y-194866666D01*
X265645714Y-196009523D02*
X265443333Y-196104761D01*
X265062380Y-196104761D01*
X264883809Y-196009523D01*
X264812380Y-195819047D01*
X264907619Y-195057142D01*
X265026666Y-194866666D01*
X265229047Y-194771428D01*
X265610000Y-194771428D01*
X265788571Y-194866666D01*
X265860000Y-195057142D01*
X265836190Y-195247619D01*
X264860000Y-195438095D01*
X268205238Y-195342857D02*
X269729047Y-195342857D01*
X272086190Y-195533333D02*
X273038571Y-195533333D01*
X271824285Y-196104761D02*
X272740952Y-194104761D01*
X273157619Y-196104761D01*
X274967142Y-196104761D02*
X274419523Y-195152380D01*
X273824285Y-196104761D02*
X274074285Y-194104761D01*
X274836190Y-194104761D01*
X275014761Y-194200000D01*
X275098095Y-194295238D01*
X275169523Y-194485714D01*
X275133809Y-194771428D01*
X275014761Y-194961904D01*
X274907619Y-195057142D01*
X274705238Y-195152380D01*
X273943333Y-195152380D01*
X275788571Y-194104761D02*
X276931428Y-194104761D01*
X276110000Y-196104761D02*
X276360000Y-194104761D01*
X279002857Y-194295238D02*
X279110000Y-194200000D01*
X279312380Y-194104761D01*
X279788571Y-194104761D01*
X279967142Y-194200000D01*
X280050476Y-194295238D01*
X280121904Y-194485714D01*
X280098095Y-194676190D01*
X279967142Y-194961904D01*
X278681428Y-196104761D01*
X279919523Y-196104761D01*
X281407619Y-194104761D02*
X281598095Y-194104761D01*
X281776666Y-194200000D01*
X281860000Y-194295238D01*
X281931428Y-194485714D01*
X281979047Y-194866666D01*
X281919523Y-195342857D01*
X281776666Y-195723809D01*
X281657619Y-195914285D01*
X281550476Y-196009523D01*
X281348095Y-196104761D01*
X281157619Y-196104761D01*
X280979047Y-196009523D01*
X280895714Y-195914285D01*
X280824285Y-195723809D01*
X280776666Y-195342857D01*
X280836190Y-194866666D01*
X280979047Y-194485714D01*
X281098095Y-194295238D01*
X281205238Y-194200000D01*
X281407619Y-194104761D01*
X282812380Y-194295238D02*
X282919523Y-194200000D01*
X283121904Y-194104761D01*
X283598095Y-194104761D01*
X283776666Y-194200000D01*
X283860000Y-194295238D01*
X283931428Y-194485714D01*
X283907619Y-194676190D01*
X283776666Y-194961904D01*
X282490952Y-196104761D01*
X283729047Y-196104761D01*
X285217142Y-194104761D02*
X285407619Y-194104761D01*
X285586190Y-194200000D01*
X285669523Y-194295238D01*
X285740952Y-194485714D01*
X285788571Y-194866666D01*
X285729047Y-195342857D01*
X285586190Y-195723809D01*
X285467142Y-195914285D01*
X285360000Y-196009523D01*
X285157619Y-196104761D01*
X284967142Y-196104761D01*
X284788571Y-196009523D01*
X284705238Y-195914285D01*
X284633809Y-195723809D01*
X284586190Y-195342857D01*
X284645714Y-194866666D01*
X284788571Y-194485714D01*
X284907619Y-194295238D01*
X285014761Y-194200000D01*
X285217142Y-194104761D01*
D10*
D11*
X237532142Y-191492857D02*
X237032142Y-191492857D01*
X237032142Y-192278571D02*
X237032142Y-190778571D01*
X237746428Y-190778571D01*
X238317857Y-192278571D02*
X238317857Y-191278571D01*
X238317857Y-190778571D02*
X238246428Y-190850000D01*
X238317857Y-190921428D01*
X238389285Y-190850000D01*
X238317857Y-190778571D01*
X238317857Y-190921428D01*
X239246428Y-192278571D02*
X239103571Y-192207142D01*
X239032142Y-192064285D01*
X239032142Y-190778571D01*
X240389285Y-192207142D02*
X240246428Y-192278571D01*
X239960714Y-192278571D01*
X239817857Y-192207142D01*
X239746428Y-192064285D01*
X239746428Y-191492857D01*
X239817857Y-191350000D01*
X239960714Y-191278571D01*
X240246428Y-191278571D01*
X240389285Y-191350000D01*
X240460714Y-191492857D01*
X240460714Y-191635714D01*
X239746428Y-191778571D01*
X241103571Y-192135714D02*
X241175000Y-192207142D01*
X241103571Y-192278571D01*
X241032142Y-192207142D01*
X241103571Y-192135714D01*
X241103571Y-192278571D01*
X241103571Y-191350000D02*
X241175000Y-191421428D01*
X241103571Y-191492857D01*
X241032142Y-191421428D01*
X241103571Y-191350000D01*
X241103571Y-191492857D01*
X242960714Y-191278571D02*
X242960714Y-192778571D01*
X242960714Y-191350000D02*
X243103571Y-191278571D01*
X243389285Y-191278571D01*
X243532142Y-191350000D01*
X243603571Y-191421428D01*
X243675000Y-191564285D01*
X243675000Y-191992857D01*
X243603571Y-192135714D01*
X243532142Y-192207142D01*
X243389285Y-192278571D01*
X243103571Y-192278571D01*
X242960714Y-192207142D01*
X244960714Y-191278571D02*
X244960714Y-192278571D01*
X244317857Y-191278571D02*
X244317857Y-192064285D01*
X244389285Y-192207142D01*
X244532142Y-192278571D01*
X244746428Y-192278571D01*
X244889285Y-192207142D01*
X244960714Y-192135714D01*
X245675000Y-192278571D02*
X245675000Y-191278571D01*
X245675000Y-191564285D02*
X245746428Y-191421428D01*
X245817857Y-191350000D01*
X245960714Y-191278571D01*
X246103571Y-191278571D01*
X246603571Y-191278571D02*
X246603571Y-192778571D01*
X246603571Y-191350000D02*
X246746428Y-191278571D01*
X247032142Y-191278571D01*
X247175000Y-191350000D01*
X247246428Y-191421428D01*
X247317857Y-191564285D01*
X247317857Y-191992857D01*
X247246428Y-192135714D01*
X247175000Y-192207142D01*
X247032142Y-192278571D01*
X246746428Y-192278571D01*
X246603571Y-192207142D01*
X248175000Y-192278571D02*
X248032142Y-192207142D01*
X247960714Y-192064285D01*
X247960714Y-190778571D01*
X249317857Y-192207142D02*
X249175000Y-192278571D01*
X248889285Y-192278571D01*
X248746428Y-192207142D01*
X248675000Y-192064285D01*
X248675000Y-191492857D01*
X248746428Y-191350000D01*
X248889285Y-191278571D01*
X249175000Y-191278571D01*
X249317857Y-191350000D01*
X249389285Y-191492857D01*
X249389285Y-191635714D01*
X248675000Y-191778571D01*
X249889285Y-191278571D02*
X250175000Y-192278571D01*
X250460714Y-191564285D01*
X250746428Y-192278571D01*
X251032142Y-191278571D01*
X251603571Y-192278571D02*
X251603571Y-191278571D01*
X251603571Y-190778571D02*
X251532142Y-190850000D01*
X251603571Y-190921428D01*
X251675000Y-190850000D01*
X251603571Y-190778571D01*
X251603571Y-190921428D01*
X252175000Y-191278571D02*
X252960714Y-191278571D01*
X252175000Y-192278571D01*
X252960714Y-192278571D01*
X254175000Y-192278571D02*
X254175000Y-191492857D01*
X254103571Y-191350000D01*
X253960714Y-191278571D01*
X253675000Y-191278571D01*
X253532142Y-191350000D01*
X254175000Y-192207142D02*
X254032142Y-192278571D01*
X253675000Y-192278571D01*
X253532142Y-192207142D01*
X253460714Y-192064285D01*
X253460714Y-191921428D01*
X253532142Y-191778571D01*
X253675000Y-191707142D01*
X254032142Y-191707142D01*
X254175000Y-191635714D01*
X254889285Y-192278571D02*
X254889285Y-191278571D01*
X254889285Y-191564285D02*
X254960714Y-191421428D01*
X255032142Y-191350000D01*
X255175000Y-191278571D01*
X255317857Y-191278571D01*
X256460714Y-192278571D02*
X256460714Y-190778571D01*
X256460714Y-192207142D02*
X256317857Y-192278571D01*
X256032142Y-192278571D01*
X255889285Y-192207142D01*
X255817857Y-192135714D01*
X255746428Y-191992857D01*
X255746428Y-191564285D01*
X255817857Y-191421428D01*
X255889285Y-191350000D01*
X256032142Y-191278571D01*
X256317857Y-191278571D01*
X256460714Y-191350000D01*
X257175000Y-191707142D02*
X258317857Y-191707142D01*
X258960714Y-191850000D02*
X259675000Y-191850000D01*
X258817857Y-192278571D02*
X259317857Y-190778571D01*
X259817857Y-192278571D01*
X261175000Y-192278571D02*
X260675000Y-191564285D01*
X260317857Y-192278571D02*
X260317857Y-190778571D01*
X260889285Y-190778571D01*
X261032142Y-190850000D01*
X261103571Y-190921428D01*
X261175000Y-191064285D01*
X261175000Y-191278571D01*
X261103571Y-191421428D01*
X261032142Y-191492857D01*
X260889285Y-191564285D01*
X260317857Y-191564285D01*
X261603571Y-190778571D02*
X262460714Y-190778571D01*
X262032142Y-192278571D02*
X262032142Y-190778571D01*
X262960714Y-192135714D02*
X263032142Y-192207142D01*
X262960714Y-192278571D01*
X262889285Y-192207142D01*
X262960714Y-192135714D01*
X262960714Y-192278571D01*
X263675000Y-192278571D02*
X263675000Y-190778571D01*
X263817857Y-191707142D02*
X264246428Y-192278571D01*
X264246428Y-191278571D02*
X263675000Y-191850000D01*
X264889285Y-192278571D02*
X264889285Y-191278571D01*
X264889285Y-190778571D02*
X264817857Y-190850000D01*
X264889285Y-190921428D01*
X264960714Y-190850000D01*
X264889285Y-190778571D01*
X264889285Y-190921428D01*
X266246428Y-192207142D02*
X266103571Y-192278571D01*
X265817857Y-192278571D01*
X265675000Y-192207142D01*
X265603571Y-192135714D01*
X265532142Y-191992857D01*
X265532142Y-191564285D01*
X265603571Y-191421428D01*
X265675000Y-191350000D01*
X265817857Y-191278571D01*
X266103571Y-191278571D01*
X266246428Y-191350000D01*
X267532142Y-192278571D02*
X267532142Y-191492857D01*
X267460714Y-191350000D01*
X267317857Y-191278571D01*
X267032142Y-191278571D01*
X266889285Y-191350000D01*
X267532142Y-192207142D02*
X267389285Y-192278571D01*
X267032142Y-192278571D01*
X266889285Y-192207142D01*
X266817857Y-192064285D01*
X266817857Y-191921428D01*
X266889285Y-191778571D01*
X267032142Y-191707142D01*
X267389285Y-191707142D01*
X267532142Y-191635714D01*
X268889285Y-192278571D02*
X268889285Y-190778571D01*
X268889285Y-192207142D02*
X268746428Y-192278571D01*
X268460714Y-192278571D01*
X268317857Y-192207142D01*
X268246428Y-192135714D01*
X268175000Y-191992857D01*
X268175000Y-191564285D01*
X268246428Y-191421428D01*
X268317857Y-191350000D01*
X268460714Y-191278571D01*
X268746428Y-191278571D01*
X268889285Y-191350000D01*
X269246428Y-192421428D02*
X270389285Y-192421428D01*
X270746428Y-191278571D02*
X270746428Y-192778571D01*
X270746428Y-191350000D02*
X270889285Y-191278571D01*
X271175000Y-191278571D01*
X271317857Y-191350000D01*
X271389285Y-191421428D01*
X271460714Y-191564285D01*
X271460714Y-191992857D01*
X271389285Y-192135714D01*
X271317857Y-192207142D01*
X271175000Y-192278571D01*
X270889285Y-192278571D01*
X270746428Y-192207142D01*
X272746428Y-192207142D02*
X272603571Y-192278571D01*
X272317857Y-192278571D01*
X272175000Y-192207142D01*
X272103571Y-192135714D01*
X272032142Y-191992857D01*
X272032142Y-191564285D01*
X272103571Y-191421428D01*
X272175000Y-191350000D01*
X272317857Y-191278571D01*
X272603571Y-191278571D01*
X272746428Y-191350000D01*
X273389285Y-192278571D02*
X273389285Y-190778571D01*
X273389285Y-191350000D02*
X273532142Y-191278571D01*
X273817857Y-191278571D01*
X273960714Y-191350000D01*
X274032142Y-191421428D01*
X274103571Y-191564285D01*
X274103571Y-191992857D01*
X274032142Y-192135714D01*
X273960714Y-192207142D01*
X273817857Y-192278571D01*
X273532142Y-192278571D01*
X273389285Y-192207142D01*
D10*
D11*
X235600000Y-187400000D02*
X343600000Y-187400000D01*
D10*
D11*
X236960714Y-189507142D02*
X237175000Y-189578571D01*
X237532142Y-189578571D01*
X237675000Y-189507142D01*
X237746428Y-189435714D01*
X237817857Y-189292857D01*
X237817857Y-189150000D01*
X237746428Y-189007142D01*
X237675000Y-188935714D01*
X237532142Y-188864285D01*
X237246428Y-188792857D01*
X237103571Y-188721428D01*
X237032142Y-188650000D01*
X236960714Y-188507142D01*
X236960714Y-188364285D01*
X237032142Y-188221428D01*
X237103571Y-188150000D01*
X237246428Y-188078571D01*
X237603571Y-188078571D01*
X237817857Y-188150000D01*
X238460714Y-189578571D02*
X238460714Y-188078571D01*
X239103571Y-189578571D02*
X239103571Y-188792857D01*
X239032142Y-188650000D01*
X238889285Y-188578571D01*
X238675000Y-188578571D01*
X238532142Y-188650000D01*
X238460714Y-188721428D01*
X240389285Y-189507142D02*
X240246428Y-189578571D01*
X239960714Y-189578571D01*
X239817857Y-189507142D01*
X239746428Y-189364285D01*
X239746428Y-188792857D01*
X239817857Y-188650000D01*
X239960714Y-188578571D01*
X240246428Y-188578571D01*
X240389285Y-188650000D01*
X240460714Y-188792857D01*
X240460714Y-188935714D01*
X239746428Y-189078571D01*
X241675000Y-189507142D02*
X241532142Y-189578571D01*
X241246428Y-189578571D01*
X241103571Y-189507142D01*
X241032142Y-189364285D01*
X241032142Y-188792857D01*
X241103571Y-188650000D01*
X241246428Y-188578571D01*
X241532142Y-188578571D01*
X241675000Y-188650000D01*
X241746428Y-188792857D01*
X241746428Y-188935714D01*
X241032142Y-189078571D01*
X242175000Y-188578571D02*
X242746428Y-188578571D01*
X242389285Y-188078571D02*
X242389285Y-189364285D01*
X242460714Y-189507142D01*
X242603571Y-189578571D01*
X242746428Y-189578571D01*
X243246428Y-189435714D02*
X243317857Y-189507142D01*
X243246428Y-189578571D01*
X243175000Y-189507142D01*
X243246428Y-189435714D01*
X243246428Y-189578571D01*
X243246428Y-188650000D02*
X243317857Y-188721428D01*
X243246428Y-188792857D01*
X243175000Y-188721428D01*
X243246428Y-188650000D01*
X243246428Y-188792857D01*
D10*
D12*
X237152142Y-186578571D02*
X237152142Y-185078571D01*
X237509285Y-185078571D01*
X237723571Y-185150000D01*
X237866428Y-185292857D01*
X237937857Y-185435714D01*
X238009285Y-185721428D01*
X238009285Y-185935714D01*
X237937857Y-186221428D01*
X237866428Y-186364285D01*
X237723571Y-186507142D01*
X237509285Y-186578571D01*
X237152142Y-186578571D01*
X239509285Y-186435714D02*
X239437857Y-186507142D01*
X239223571Y-186578571D01*
X239080714Y-186578571D01*
X238866428Y-186507142D01*
X238723571Y-186364285D01*
X238652142Y-186221428D01*
X238580714Y-185935714D01*
X238580714Y-185721428D01*
X238652142Y-185435714D01*
X238723571Y-185292857D01*
X238866428Y-185150000D01*
X239080714Y-185078571D01*
X239223571Y-185078571D01*
X239437857Y-185150000D01*
X239509285Y-185221428D01*
X240366428Y-185721428D02*
X240223571Y-185650000D01*
X240152142Y-185578571D01*
X240080714Y-185435714D01*
X240080714Y-185364285D01*
X240152142Y-185221428D01*
X240223571Y-185150000D01*
X240366428Y-185078571D01*
X240652142Y-185078571D01*
X240795000Y-185150000D01*
X240866428Y-185221428D01*
X240937857Y-185364285D01*
X240937857Y-185435714D01*
X240866428Y-185578571D01*
X240795000Y-185650000D01*
X240652142Y-185721428D01*
X240366428Y-185721428D01*
X240223571Y-185792857D01*
X240152142Y-185864285D01*
X240080714Y-186007142D01*
X240080714Y-186292857D01*
X240152142Y-186435714D01*
X240223571Y-186507142D01*
X240366428Y-186578571D01*
X240652142Y-186578571D01*
X240795000Y-186507142D01*
X240866428Y-186435714D01*
X240937857Y-186292857D01*
X240937857Y-186007142D01*
X240866428Y-185864285D01*
X240795000Y-185792857D01*
X240652142Y-185721428D01*
X241866428Y-185078571D02*
X242009285Y-185078571D01*
X242152142Y-185150000D01*
X242223571Y-185221428D01*
X242295000Y-185364285D01*
X242366428Y-185650000D01*
X242366428Y-186007142D01*
X242295000Y-186292857D01*
X242223571Y-186435714D01*
X242152142Y-186507142D01*
X242009285Y-186578571D01*
X241866428Y-186578571D01*
X241723571Y-186507142D01*
X241652142Y-186435714D01*
X241580714Y-186292857D01*
X241509285Y-186007142D01*
X241509285Y-185650000D01*
X241580714Y-185364285D01*
X241652142Y-185221428D01*
X241723571Y-185150000D01*
X241866428Y-185078571D01*
X243795000Y-186578571D02*
X242937857Y-186578571D01*
X243366428Y-186578571D02*
X243366428Y-185078571D01*
X243223571Y-185292857D01*
X243080714Y-185435714D01*
X242937857Y-185507142D01*
D10*
D11*
X237675000Y-183507142D02*
X237532142Y-183578571D01*
X237246428Y-183578571D01*
X237103571Y-183507142D01*
X237032142Y-183435714D01*
X236960714Y-183292857D01*
X236960714Y-182864285D01*
X237032142Y-182721428D01*
X237103571Y-182650000D01*
X237246428Y-182578571D01*
X237532142Y-182578571D01*
X237675000Y-182650000D01*
X238532142Y-183578571D02*
X238389285Y-183507142D01*
X238317857Y-183435714D01*
X238246428Y-183292857D01*
X238246428Y-182864285D01*
X238317857Y-182721428D01*
X238389285Y-182650000D01*
X238532142Y-182578571D01*
X238746428Y-182578571D01*
X238889285Y-182650000D01*
X238960714Y-182721428D01*
X239032142Y-182864285D01*
X239032142Y-183292857D01*
X238960714Y-183435714D01*
X238889285Y-183507142D01*
X238746428Y-183578571D01*
X238532142Y-183578571D01*
X240317857Y-183578571D02*
X240317857Y-182078571D01*
X240317857Y-183507142D02*
X240175000Y-183578571D01*
X239889285Y-183578571D01*
X239746428Y-183507142D01*
X239675000Y-183435714D01*
X239603571Y-183292857D01*
X239603571Y-182864285D01*
X239675000Y-182721428D01*
X239746428Y-182650000D01*
X239889285Y-182578571D01*
X240175000Y-182578571D01*
X240317857Y-182650000D01*
X241603571Y-183507142D02*
X241460714Y-183578571D01*
X241175000Y-183578571D01*
X241032142Y-183507142D01*
X240960714Y-183364285D01*
X240960714Y-182792857D01*
X241032142Y-182650000D01*
X241175000Y-182578571D01*
X241460714Y-182578571D01*
X241603571Y-182650000D01*
X241675000Y-182792857D01*
X241675000Y-182935714D01*
X240960714Y-183078571D01*
X242317857Y-182578571D02*
X242317857Y-183578571D01*
X242317857Y-182721428D02*
X242389285Y-182650000D01*
X242532142Y-182578571D01*
X242746428Y-182578571D01*
X242889285Y-182650000D01*
X242960714Y-182792857D01*
X242960714Y-183578571D01*
X244317857Y-183578571D02*
X244317857Y-182792857D01*
X244246428Y-182650000D01*
X244103571Y-182578571D01*
X243817857Y-182578571D01*
X243675000Y-182650000D01*
X244317857Y-183507142D02*
X244175000Y-183578571D01*
X243817857Y-183578571D01*
X243675000Y-183507142D01*
X243603571Y-183364285D01*
X243603571Y-183221428D01*
X243675000Y-183078571D01*
X243817857Y-183007142D01*
X244175000Y-183007142D01*
X244317857Y-182935714D01*
X245032142Y-183578571D02*
X245032142Y-182578571D01*
X245032142Y-182721428D02*
X245103571Y-182650000D01*
X245246428Y-182578571D01*
X245460714Y-182578571D01*
X245603571Y-182650000D01*
X245675000Y-182792857D01*
X245675000Y-183578571D01*
X245675000Y-182792857D02*
X245746428Y-182650000D01*
X245889285Y-182578571D01*
X246103571Y-182578571D01*
X246246428Y-182650000D01*
X246317857Y-182792857D01*
X246317857Y-183578571D01*
X247603571Y-183507142D02*
X247460714Y-183578571D01*
X247175000Y-183578571D01*
X247032142Y-183507142D01*
X246960714Y-183364285D01*
X246960714Y-182792857D01*
X247032142Y-182650000D01*
X247175000Y-182578571D01*
X247460714Y-182578571D01*
X247603571Y-182650000D01*
X247675000Y-182792857D01*
X247675000Y-182935714D01*
X246960714Y-183078571D01*
X249460714Y-182578571D02*
X249460714Y-184078571D01*
X249460714Y-182650000D02*
X249603571Y-182578571D01*
X249889285Y-182578571D01*
X250032142Y-182650000D01*
X250103571Y-182721428D01*
X250175000Y-182864285D01*
X250175000Y-183292857D01*
X250103571Y-183435714D01*
X250032142Y-183507142D01*
X249889285Y-183578571D01*
X249603571Y-183578571D01*
X249460714Y-183507142D01*
X251460714Y-182578571D02*
X251460714Y-183578571D01*
X250817857Y-182578571D02*
X250817857Y-183364285D01*
X250889285Y-183507142D01*
X251032142Y-183578571D01*
X251246428Y-183578571D01*
X251389285Y-183507142D01*
X251460714Y-183435714D01*
X252175000Y-183578571D02*
X252175000Y-182578571D01*
X252175000Y-182864285D02*
X252246428Y-182721428D01*
X252317857Y-182650000D01*
X252460714Y-182578571D01*
X252603571Y-182578571D01*
X253103571Y-182578571D02*
X253103571Y-184078571D01*
X253103571Y-182650000D02*
X253246428Y-182578571D01*
X253532142Y-182578571D01*
X253675000Y-182650000D01*
X253746428Y-182721428D01*
X253817857Y-182864285D01*
X253817857Y-183292857D01*
X253746428Y-183435714D01*
X253675000Y-183507142D01*
X253532142Y-183578571D01*
X253246428Y-183578571D01*
X253103571Y-183507142D01*
X254675000Y-183578571D02*
X254532142Y-183507142D01*
X254460714Y-183364285D01*
X254460714Y-182078571D01*
X255817857Y-183507142D02*
X255675000Y-183578571D01*
X255389285Y-183578571D01*
X255246428Y-183507142D01*
X255175000Y-183364285D01*
X255175000Y-182792857D01*
X255246428Y-182650000D01*
X255389285Y-182578571D01*
X255675000Y-182578571D01*
X255817857Y-182650000D01*
X255889285Y-182792857D01*
X255889285Y-182935714D01*
X255175000Y-183078571D01*
X256389285Y-182578571D02*
X256675000Y-183578571D01*
X256960714Y-182864285D01*
X257246428Y-183578571D01*
X257532142Y-182578571D01*
X258103571Y-183578571D02*
X258103571Y-182578571D01*
X258103571Y-182078571D02*
X258032142Y-182150000D01*
X258103571Y-182221428D01*
X258175000Y-182150000D01*
X258103571Y-182078571D01*
X258103571Y-182221428D01*
X258675000Y-182578571D02*
X259460714Y-182578571D01*
X258675000Y-183578571D01*
X259460714Y-183578571D01*
X260675000Y-183578571D02*
X260675000Y-182792857D01*
X260603571Y-182650000D01*
X260460714Y-182578571D01*
X260175000Y-182578571D01*
X260032142Y-182650000D01*
X260675000Y-183507142D02*
X260532142Y-183578571D01*
X260175000Y-183578571D01*
X260032142Y-183507142D01*
X259960714Y-183364285D01*
X259960714Y-183221428D01*
X260032142Y-183078571D01*
X260175000Y-183007142D01*
X260532142Y-183007142D01*
X260675000Y-182935714D01*
X261389285Y-183578571D02*
X261389285Y-182578571D01*
X261389285Y-182864285D02*
X261460714Y-182721428D01*
X261532142Y-182650000D01*
X261675000Y-182578571D01*
X261817857Y-182578571D01*
X262960714Y-183578571D02*
X262960714Y-182078571D01*
X262960714Y-183507142D02*
X262817857Y-183578571D01*
X262532142Y-183578571D01*
X262389285Y-183507142D01*
X262317857Y-183435714D01*
X262246428Y-183292857D01*
X262246428Y-182864285D01*
X262317857Y-182721428D01*
X262389285Y-182650000D01*
X262532142Y-182578571D01*
X262817857Y-182578571D01*
X262960714Y-182650000D01*
D10*
D11*
X237960714Y-173864285D02*
X237889285Y-173792857D01*
X237746428Y-173721428D01*
X237603571Y-173721428D01*
X237460714Y-173792857D01*
X237389285Y-173864285D01*
X237317857Y-174007142D01*
X237317857Y-174150000D01*
X237389285Y-174292857D01*
X237460714Y-174364285D01*
X237603571Y-174435714D01*
X237746428Y-174435714D01*
X237889285Y-174364285D01*
X237960714Y-174292857D01*
X237960714Y-173721428D02*
X237960714Y-174292857D01*
X238032142Y-174364285D01*
X238103571Y-174364285D01*
X238246428Y-174292857D01*
X238317857Y-174150000D01*
X238317857Y-173792857D01*
X238175000Y-173578571D01*
X237960714Y-173435714D01*
X237675000Y-173364285D01*
X237389285Y-173435714D01*
X237175000Y-173578571D01*
X237032142Y-173792857D01*
X236960714Y-174078571D01*
X237032142Y-174364285D01*
X237175000Y-174578571D01*
X237389285Y-174721428D01*
X237675000Y-174792857D01*
X237960714Y-174721428D01*
X238175000Y-174578571D01*
X238960714Y-174578571D02*
X238960714Y-173078571D01*
X239603571Y-174578571D02*
X239603571Y-173792857D01*
X239532142Y-173650000D01*
X239389285Y-173578571D01*
X239175000Y-173578571D01*
X239032142Y-173650000D01*
X238960714Y-173721428D01*
X240960714Y-174578571D02*
X240960714Y-173792857D01*
X240889285Y-173650000D01*
X240746428Y-173578571D01*
X240460714Y-173578571D01*
X240317857Y-173650000D01*
X240960714Y-174507142D02*
X240817857Y-174578571D01*
X240460714Y-174578571D01*
X240317857Y-174507142D01*
X240246428Y-174364285D01*
X240246428Y-174221428D01*
X240317857Y-174078571D01*
X240460714Y-174007142D01*
X240817857Y-174007142D01*
X240960714Y-173935714D01*
X241675000Y-174578571D02*
X241675000Y-173578571D01*
X241675000Y-173721428D02*
X241746428Y-173650000D01*
X241889285Y-173578571D01*
X242103571Y-173578571D01*
X242246428Y-173650000D01*
X242317857Y-173792857D01*
X242317857Y-174578571D01*
X242317857Y-173792857D02*
X242389285Y-173650000D01*
X242532142Y-173578571D01*
X242746428Y-173578571D01*
X242889285Y-173650000D01*
X242960714Y-173792857D01*
X242960714Y-174578571D01*
X243603571Y-174507142D02*
X243746428Y-174578571D01*
X244032142Y-174578571D01*
X244175000Y-174507142D01*
X244246428Y-174364285D01*
X244246428Y-174292857D01*
X244175000Y-174150000D01*
X244032142Y-174078571D01*
X243817857Y-174078571D01*
X243675000Y-174007142D01*
X243603571Y-173864285D01*
X243603571Y-173792857D01*
X243675000Y-173650000D01*
X243817857Y-173578571D01*
X244032142Y-173578571D01*
X244175000Y-173650000D01*
X244675000Y-173578571D02*
X245246428Y-173578571D01*
X244889285Y-173078571D02*
X244889285Y-174364285D01*
X244960714Y-174507142D01*
X245103571Y-174578571D01*
X245246428Y-174578571D01*
X246317857Y-174507142D02*
X246175000Y-174578571D01*
X245889285Y-174578571D01*
X245746428Y-174507142D01*
X245675000Y-174364285D01*
X245675000Y-173792857D01*
X245746428Y-173650000D01*
X245889285Y-173578571D01*
X246175000Y-173578571D01*
X246317857Y-173650000D01*
X246389285Y-173792857D01*
X246389285Y-173935714D01*
X245675000Y-174078571D01*
X247032142Y-174578571D02*
X247032142Y-173578571D01*
X247032142Y-173864285D02*
X247103571Y-173721428D01*
X247175000Y-173650000D01*
X247317857Y-173578571D01*
X247460714Y-173578571D01*
X249746428Y-174578571D02*
X249746428Y-173792857D01*
X249675000Y-173650000D01*
X249532142Y-173578571D01*
X249246428Y-173578571D01*
X249103571Y-173650000D01*
X249746428Y-174507142D02*
X249603571Y-174578571D01*
X249246428Y-174578571D01*
X249103571Y-174507142D01*
X249032142Y-174364285D01*
X249032142Y-174221428D01*
X249103571Y-174078571D01*
X249246428Y-174007142D01*
X249603571Y-174007142D01*
X249746428Y-173935714D01*
X250460714Y-173578571D02*
X250460714Y-174578571D01*
X250460714Y-173721428D02*
X250532142Y-173650000D01*
X250675000Y-173578571D01*
X250889285Y-173578571D01*
X251032142Y-173650000D01*
X251103571Y-173792857D01*
X251103571Y-174578571D01*
X252460714Y-174578571D02*
X252460714Y-173078571D01*
X252460714Y-174507142D02*
X252317857Y-174578571D01*
X252032142Y-174578571D01*
X251889285Y-174507142D01*
X251817857Y-174435714D01*
X251746428Y-174292857D01*
X251746428Y-173864285D01*
X251817857Y-173721428D01*
X251889285Y-173650000D01*
X252032142Y-173578571D01*
X252317857Y-173578571D01*
X252460714Y-173650000D01*
X254103571Y-173578571D02*
X254675000Y-173578571D01*
X254317857Y-173078571D02*
X254317857Y-174364285D01*
X254389285Y-174507142D01*
X254532142Y-174578571D01*
X254675000Y-174578571D01*
X255175000Y-174578571D02*
X255175000Y-173078571D01*
X255817857Y-174578571D02*
X255817857Y-173792857D01*
X255746428Y-173650000D01*
X255603571Y-173578571D01*
X255389285Y-173578571D01*
X255246428Y-173650000D01*
X255175000Y-173721428D01*
X257103571Y-174507142D02*
X256960714Y-174578571D01*
X256675000Y-174578571D01*
X256532142Y-174507142D01*
X256460714Y-174364285D01*
X256460714Y-173792857D01*
X256532142Y-173650000D01*
X256675000Y-173578571D01*
X256960714Y-173578571D01*
X257103571Y-173650000D01*
X257175000Y-173792857D01*
X257175000Y-173935714D01*
X256460714Y-174078571D01*
X259603571Y-174578571D02*
X259603571Y-173078571D01*
X259603571Y-174507142D02*
X259460714Y-174578571D01*
X259175000Y-174578571D01*
X259032142Y-174507142D01*
X258960714Y-174435714D01*
X258889285Y-174292857D01*
X258889285Y-173864285D01*
X258960714Y-173721428D01*
X259032142Y-173650000D01*
X259175000Y-173578571D01*
X259460714Y-173578571D01*
X259603571Y-173650000D01*
X260960714Y-174507142D02*
X260817857Y-174578571D01*
X260532142Y-174578571D01*
X260389285Y-174507142D01*
X260317857Y-174435714D01*
X260246428Y-174292857D01*
X260246428Y-173864285D01*
X260317857Y-173721428D01*
X260389285Y-173650000D01*
X260532142Y-173578571D01*
X260817857Y-173578571D01*
X260960714Y-173650000D01*
X261817857Y-173721428D02*
X261675000Y-173650000D01*
X261603571Y-173578571D01*
X261532142Y-173435714D01*
X261532142Y-173364285D01*
X261603571Y-173221428D01*
X261675000Y-173150000D01*
X261817857Y-173078571D01*
X262103571Y-173078571D01*
X262246428Y-173150000D01*
X262317857Y-173221428D01*
X262389285Y-173364285D01*
X262389285Y-173435714D01*
X262317857Y-173578571D01*
X262246428Y-173650000D01*
X262103571Y-173721428D01*
X261817857Y-173721428D01*
X261675000Y-173792857D01*
X261603571Y-173864285D01*
X261532142Y-174007142D01*
X261532142Y-174292857D01*
X261603571Y-174435714D01*
X261675000Y-174507142D01*
X261817857Y-174578571D01*
X262103571Y-174578571D01*
X262246428Y-174507142D01*
X262317857Y-174435714D01*
X262389285Y-174292857D01*
X262389285Y-174007142D01*
X262317857Y-173864285D01*
X262246428Y-173792857D01*
X262103571Y-173721428D01*
X263317857Y-173078571D02*
X263460714Y-173078571D01*
X263603571Y-173150000D01*
X263675000Y-173221428D01*
X263746428Y-173364285D01*
X263817857Y-173650000D01*
X263817857Y-174007142D01*
X263746428Y-174292857D01*
X263675000Y-174435714D01*
X263603571Y-174507142D01*
X263460714Y-174578571D01*
X263317857Y-174578571D01*
X263175000Y-174507142D01*
X263103571Y-174435714D01*
X263032142Y-174292857D01*
X262960714Y-174007142D01*
X262960714Y-173650000D01*
X263032142Y-173364285D01*
X263103571Y-173221428D01*
X263175000Y-173150000D01*
X263317857Y-173078571D01*
X265246428Y-174578571D02*
X264389285Y-174578571D01*
X264817857Y-174578571D02*
X264817857Y-173078571D01*
X264675000Y-173292857D01*
X264532142Y-173435714D01*
X264389285Y-173507142D01*
X267032142Y-174578571D02*
X267032142Y-173078571D01*
X267032142Y-173650000D02*
X267175000Y-173578571D01*
X267460714Y-173578571D01*
X267603571Y-173650000D01*
X267675000Y-173721428D01*
X267746428Y-173864285D01*
X267746428Y-174292857D01*
X267675000Y-174435714D01*
X267603571Y-174507142D01*
X267460714Y-174578571D01*
X267175000Y-174578571D01*
X267032142Y-174507142D01*
X269032142Y-174578571D02*
X269032142Y-173792857D01*
X268960714Y-173650000D01*
X268817857Y-173578571D01*
X268532142Y-173578571D01*
X268389285Y-173650000D01*
X269032142Y-174507142D02*
X268889285Y-174578571D01*
X268532142Y-174578571D01*
X268389285Y-174507142D01*
X268317857Y-174364285D01*
X268317857Y-174221428D01*
X268389285Y-174078571D01*
X268532142Y-174007142D01*
X268889285Y-174007142D01*
X269032142Y-173935714D01*
X270389285Y-174578571D02*
X270389285Y-173078571D01*
X270389285Y-174507142D02*
X270246428Y-174578571D01*
X269960714Y-174578571D01*
X269817857Y-174507142D01*
X269746428Y-174435714D01*
X269675000Y-174292857D01*
X269675000Y-173864285D01*
X269746428Y-173721428D01*
X269817857Y-173650000D01*
X269960714Y-173578571D01*
X270246428Y-173578571D01*
X270389285Y-173650000D01*
X271746428Y-173578571D02*
X271746428Y-174792857D01*
X271675000Y-174935714D01*
X271603571Y-175007142D01*
X271460714Y-175078571D01*
X271246428Y-175078571D01*
X271103571Y-175007142D01*
X271746428Y-174507142D02*
X271603571Y-174578571D01*
X271317857Y-174578571D01*
X271175000Y-174507142D01*
X271103571Y-174435714D01*
X271032142Y-174292857D01*
X271032142Y-173864285D01*
X271103571Y-173721428D01*
X271175000Y-173650000D01*
X271317857Y-173578571D01*
X271603571Y-173578571D01*
X271746428Y-173650000D01*
X273032142Y-174507142D02*
X272889285Y-174578571D01*
X272603571Y-174578571D01*
X272460714Y-174507142D01*
X272389285Y-174364285D01*
X272389285Y-173792857D01*
X272460714Y-173650000D01*
X272603571Y-173578571D01*
X272889285Y-173578571D01*
X273032142Y-173650000D01*
X273103571Y-173792857D01*
X273103571Y-173935714D01*
X272389285Y-174078571D01*
X274675000Y-173578571D02*
X275246428Y-173578571D01*
X274889285Y-173078571D02*
X274889285Y-174364285D01*
X274960714Y-174507142D01*
X275103571Y-174578571D01*
X275246428Y-174578571D01*
X276317857Y-174507142D02*
X276175000Y-174578571D01*
X275889285Y-174578571D01*
X275746428Y-174507142D01*
X275675000Y-174364285D01*
X275675000Y-173792857D01*
X275746428Y-173650000D01*
X275889285Y-173578571D01*
X276175000Y-173578571D01*
X276317857Y-173650000D01*
X276389285Y-173792857D01*
X276389285Y-173935714D01*
X275675000Y-174078571D01*
X277675000Y-174578571D02*
X277675000Y-173792857D01*
X277603571Y-173650000D01*
X277460714Y-173578571D01*
X277175000Y-173578571D01*
X277032142Y-173650000D01*
X277675000Y-174507142D02*
X277532142Y-174578571D01*
X277175000Y-174578571D01*
X277032142Y-174507142D01*
X276960714Y-174364285D01*
X276960714Y-174221428D01*
X277032142Y-174078571D01*
X277175000Y-174007142D01*
X277532142Y-174007142D01*
X277675000Y-173935714D01*
X278389285Y-174578571D02*
X278389285Y-173578571D01*
X278389285Y-173721428D02*
X278460714Y-173650000D01*
X278603571Y-173578571D01*
X278817857Y-173578571D01*
X278960714Y-173650000D01*
X279032142Y-173792857D01*
X279032142Y-174578571D01*
X279032142Y-173792857D02*
X279103571Y-173650000D01*
X279246428Y-173578571D01*
X279460714Y-173578571D01*
X279603571Y-173650000D01*
X279675000Y-173792857D01*
X279675000Y-174578571D01*
D10*
D11*
X255600000Y-197400000D02*
X255600000Y-200400000D01*
D10*
D11*
X319600000Y-197400000D02*
X319600000Y-203900000D01*
X106756600Y-167159800D02*
G75*
G03X106756600Y-167159800I-1500000J0D01*
G01*
X183256600Y-167159800D02*
G75*
G03X183256600Y-167159800I-1500000J0D01*
G01*
X186276600Y-74939800D02*
G75*
G03X186276600Y-74939800I-1500000J0D01*
G01*
X104486600Y-74939800D02*
G75*
G03X104486600Y-74939800I-1500000J0D01*
G01*
D14*
X143501516Y-22722619D02*
X143658470Y-22724323D01*
X143658470Y-22724323D02*
X143843826Y-22726980D01*
X143843826Y-22726980D02*
X144061487Y-22730546D01*
X144061487Y-22730546D02*
X144315354Y-22734978D01*
X144315354Y-22734978D02*
X144477316Y-22737867D01*
X144477316Y-22737867D02*
X145853150Y-22762500D01*
X145853150Y-22762500D02*
X146308233Y-22854902D01*
X146308233Y-22854902D02*
X146940986Y-22994427D01*
X146940986Y-22994427D02*
X147593271Y-23159298D01*
X147593271Y-23159298D02*
X148253555Y-23346100D01*
X148253555Y-23346100D02*
X148910306Y-23551420D01*
X148910306Y-23551420D02*
X149551990Y-23771844D01*
X149551990Y-23771844D02*
X150097066Y-23976391D01*
X150097066Y-23976391D02*
X150210526Y-24020583D01*
X150210526Y-24020583D02*
X150356417Y-24077044D01*
X150356417Y-24077044D02*
X150527586Y-24143024D01*
X150527586Y-24143024D02*
X150716883Y-24215776D01*
X150716883Y-24215776D02*
X150917157Y-24292553D01*
X150917157Y-24292553D02*
X151121256Y-24370606D01*
X151121256Y-24370606D02*
X151322031Y-24447189D01*
X151322031Y-24447189D02*
X151357125Y-24460552D01*
X151357125Y-24460552D02*
X151613705Y-24559089D01*
X151613705Y-24559089D02*
X151834845Y-24646392D01*
X151834845Y-24646392D02*
X152025133Y-24725005D01*
X152025133Y-24725005D02*
X152189157Y-24797475D01*
X152189157Y-24797475D02*
X152331507Y-24866343D01*
X152331507Y-24866343D02*
X152456770Y-24934156D01*
X152456770Y-24934156D02*
X152569534Y-25003458D01*
X152569534Y-25003458D02*
X152674388Y-25076792D01*
X152674388Y-25076792D02*
X152775921Y-25156703D01*
X152775921Y-25156703D02*
X152878720Y-25245736D01*
X152878720Y-25245736D02*
X152987374Y-25346435D01*
X152987374Y-25346435D02*
X153032543Y-25389626D01*
X153032543Y-25389626D02*
X153244614Y-25605279D01*
X153244614Y-25605279D02*
X153456505Y-25844344D01*
X153456505Y-25844344D02*
X153669789Y-26109087D01*
X153669789Y-26109087D02*
X153886036Y-26401773D01*
X153886036Y-26401773D02*
X154106820Y-26724670D01*
X154106820Y-26724670D02*
X154333712Y-27080043D01*
X154333712Y-27080043D02*
X154568284Y-27470159D01*
X154568284Y-27470159D02*
X154812108Y-27897284D01*
X154812108Y-27897284D02*
X154966346Y-28177507D01*
X154966346Y-28177507D02*
X155056845Y-28342467D01*
X155056845Y-28342467D02*
X155162186Y-28531922D01*
X155162186Y-28531922D02*
X155275646Y-28733943D01*
X155275646Y-28733943D02*
X155390501Y-28936597D01*
X155390501Y-28936597D02*
X155500026Y-29127952D01*
X155500026Y-29127952D02*
X155574447Y-29256566D01*
X155574447Y-29256566D02*
X155708180Y-29487500D01*
X155708180Y-29487500D02*
X155833705Y-29707068D01*
X155833705Y-29707068D02*
X155952390Y-29918170D01*
X155952390Y-29918170D02*
X156065601Y-30123706D01*
X156065601Y-30123706D02*
X156174703Y-30326575D01*
X156174703Y-30326575D02*
X156281063Y-30529676D01*
X156281063Y-30529676D02*
X156386048Y-30735909D01*
X156386048Y-30735909D02*
X156491022Y-30948174D01*
X156491022Y-30948174D02*
X156597353Y-31169370D01*
X156597353Y-31169370D02*
X156706406Y-31402397D01*
X156706406Y-31402397D02*
X156819547Y-31650153D01*
X156819547Y-31650153D02*
X156938143Y-31915540D01*
X156938143Y-31915540D02*
X157063560Y-32201455D01*
X157063560Y-32201455D02*
X157197164Y-32510800D01*
X157197164Y-32510800D02*
X157340321Y-32846472D01*
X157340321Y-32846472D02*
X157494396Y-33211373D01*
X157494396Y-33211373D02*
X157660758Y-33608400D01*
X157660758Y-33608400D02*
X157840770Y-34040455D01*
X157840770Y-34040455D02*
X157932819Y-34262082D01*
X157932819Y-34262082D02*
X158095580Y-34653992D01*
X158095580Y-34653992D02*
X158255407Y-35038204D01*
X158255407Y-35038204D02*
X158413388Y-35417291D01*
X158413388Y-35417291D02*
X158570613Y-35793832D01*
X158570613Y-35793832D02*
X158728171Y-36170402D01*
X158728171Y-36170402D02*
X158887151Y-36549578D01*
X158887151Y-36549578D02*
X159048641Y-36933935D01*
X159048641Y-36933935D02*
X159213731Y-37326051D01*
X159213731Y-37326051D02*
X159383510Y-37728501D01*
X159383510Y-37728501D02*
X159559066Y-38143863D01*
X159559066Y-38143863D02*
X159741489Y-38574711D01*
X159741489Y-38574711D02*
X159931868Y-39023624D01*
X159931868Y-39023624D02*
X160131292Y-39493176D01*
X160131292Y-39493176D02*
X160340849Y-39985944D01*
X160340849Y-39985944D02*
X160561629Y-40504505D01*
X160561629Y-40504505D02*
X160794720Y-41051435D01*
X160794720Y-41051435D02*
X161041212Y-41629310D01*
X161041212Y-41629310D02*
X161302194Y-42240707D01*
X161302194Y-42240707D02*
X161578754Y-42888202D01*
X161578754Y-42888202D02*
X161601233Y-42940816D01*
X161601233Y-42940816D02*
X161739742Y-43265432D01*
X161739742Y-43265432D02*
X161879287Y-43593309D01*
X161879287Y-43593309D02*
X162018310Y-43920739D01*
X162018310Y-43920739D02*
X162155251Y-44244017D01*
X162155251Y-44244017D02*
X162288549Y-44559436D01*
X162288549Y-44559436D02*
X162416646Y-44863289D01*
X162416646Y-44863289D02*
X162537982Y-45151871D01*
X162537982Y-45151871D02*
X162650996Y-45421473D01*
X162650996Y-45421473D02*
X162754129Y-45668391D01*
X162754129Y-45668391D02*
X162845822Y-45888917D01*
X162845822Y-45888917D02*
X162924514Y-46079345D01*
X162924514Y-46079345D02*
X162988645Y-46235969D01*
X162988645Y-46235969D02*
X163008590Y-46285150D01*
X163008590Y-46285150D02*
X163126884Y-46577376D01*
X163126884Y-46577376D02*
X163231703Y-46835092D01*
X163231703Y-46835092D02*
X163325134Y-47063157D01*
X163325134Y-47063157D02*
X163409266Y-47266428D01*
X163409266Y-47266428D02*
X163486186Y-47449765D01*
X163486186Y-47449765D02*
X163557983Y-47618025D01*
X163557983Y-47618025D02*
X163626745Y-47776068D01*
X163626745Y-47776068D02*
X163694559Y-47928751D01*
X163694559Y-47928751D02*
X163763514Y-48080932D01*
X163763514Y-48080932D02*
X163835699Y-48237472D01*
X163835699Y-48237472D02*
X163913200Y-48403227D01*
X163913200Y-48403227D02*
X163977437Y-48539400D01*
X163977437Y-48539400D02*
X164167552Y-48941664D01*
X164167552Y-48941664D02*
X164340785Y-49309135D01*
X164340785Y-49309135D02*
X164498666Y-49645138D01*
X164498666Y-49645138D02*
X164642729Y-49952999D01*
X164642729Y-49952999D02*
X164774507Y-50236041D01*
X164774507Y-50236041D02*
X164895532Y-50497590D01*
X164895532Y-50497590D02*
X165007338Y-50740971D01*
X165007338Y-50740971D02*
X165111455Y-50969508D01*
X165111455Y-50969508D02*
X165209419Y-51186527D01*
X165209419Y-51186527D02*
X165302760Y-51395352D01*
X165302760Y-51395352D02*
X165393011Y-51599308D01*
X165393011Y-51599308D02*
X165481707Y-51801720D01*
X165481707Y-51801720D02*
X165489258Y-51819040D01*
X165489258Y-51819040D02*
X165544125Y-51940944D01*
X165544125Y-51940944D02*
X165615111Y-52092474D01*
X165615111Y-52092474D02*
X165698432Y-52265893D01*
X165698432Y-52265893D02*
X165790303Y-52453464D01*
X165790303Y-52453464D02*
X165886941Y-52647451D01*
X165886941Y-52647451D02*
X165984562Y-52840115D01*
X165984562Y-52840115D02*
X166063784Y-52993790D01*
X166063784Y-52993790D02*
X166154250Y-53168326D01*
X166154250Y-53168326D02*
X166243019Y-53340709D01*
X166243019Y-53340709D02*
X166327124Y-53505099D01*
X166327124Y-53505099D02*
X166403597Y-53655653D01*
X166403597Y-53655653D02*
X166469472Y-53786528D01*
X166469472Y-53786528D02*
X166521781Y-53891882D01*
X166521781Y-53891882D02*
X166557559Y-53965874D01*
X166557559Y-53965874D02*
X166558862Y-53968650D01*
X166558862Y-53968650D02*
X166720783Y-54325629D01*
X166720783Y-54325629D02*
X166878049Y-54696416D01*
X166878049Y-54696416D02*
X167032650Y-55086252D01*
X167032650Y-55086252D02*
X167186574Y-55500380D01*
X167186574Y-55500380D02*
X167341810Y-55944044D01*
X167341810Y-55944044D02*
X167500346Y-56422487D01*
X167500346Y-56422487D02*
X167558499Y-56603900D01*
X167558499Y-56603900D02*
X167621402Y-56793265D01*
X167621402Y-56793265D02*
X167689537Y-56983624D01*
X167689537Y-56983624D02*
X167758223Y-57162505D01*
X167758223Y-57162505D02*
X167822777Y-57317439D01*
X167822777Y-57317439D02*
X167844541Y-57365900D01*
X167844541Y-57365900D02*
X167962488Y-57649946D01*
X167962488Y-57649946D02*
X168061356Y-57950620D01*
X168061356Y-57950620D02*
X168144329Y-58278079D01*
X168144329Y-58278079D02*
X168171882Y-58409281D01*
X168171882Y-58409281D02*
X168250917Y-58902898D01*
X168250917Y-58902898D02*
X168290423Y-59395130D01*
X168290423Y-59395130D02*
X168290196Y-59887767D01*
X168290196Y-59887767D02*
X168250032Y-60382602D01*
X168250032Y-60382602D02*
X168169726Y-60881426D01*
X168169726Y-60881426D02*
X168049074Y-61386030D01*
X168049074Y-61386030D02*
X167887872Y-61898206D01*
X167887872Y-61898206D02*
X167724883Y-62326073D01*
X167724883Y-62326073D02*
X167691521Y-62412897D01*
X167691521Y-62412897D02*
X167667838Y-62485345D01*
X167667838Y-62485345D02*
X167656459Y-62534614D01*
X167656459Y-62534614D02*
X167657757Y-62551237D01*
X167657757Y-62551237D02*
X167680271Y-62565237D01*
X167680271Y-62565237D02*
X167735314Y-62596800D01*
X167735314Y-62596800D02*
X167818197Y-62643318D01*
X167818197Y-62643318D02*
X167924232Y-62702179D01*
X167924232Y-62702179D02*
X168048729Y-62770776D01*
X168048729Y-62770776D02*
X168187000Y-62846496D01*
X168187000Y-62846496D02*
X168247483Y-62879485D01*
X168247483Y-62879485D02*
X169071554Y-63350219D01*
X169071554Y-63350219D02*
X169865995Y-63848271D01*
X169865995Y-63848271D02*
X170629358Y-64372652D01*
X170629358Y-64372652D02*
X171360194Y-64922375D01*
X171360194Y-64922375D02*
X171951650Y-65406191D01*
X171951650Y-65406191D02*
X172025906Y-65469580D01*
X172025906Y-65469580D02*
X172099286Y-65532824D01*
X172099286Y-65532824D02*
X172174459Y-65598345D01*
X172174459Y-65598345D02*
X172254098Y-65668561D01*
X172254098Y-65668561D02*
X172340876Y-65745895D01*
X172340876Y-65745895D02*
X172437463Y-65832767D01*
X172437463Y-65832767D02*
X172546531Y-65931597D01*
X172546531Y-65931597D02*
X172670753Y-66044806D01*
X172670753Y-66044806D02*
X172812799Y-66174814D01*
X172812799Y-66174814D02*
X172975343Y-66324042D01*
X172975343Y-66324042D02*
X173161055Y-66494911D01*
X173161055Y-66494911D02*
X173372607Y-66689842D01*
X173372607Y-66689842D02*
X173599627Y-66899218D01*
X173599627Y-66899218D02*
X173914312Y-67183576D01*
X173914312Y-67183576D02*
X174208472Y-67436437D01*
X174208472Y-67436437D02*
X174486272Y-67660695D01*
X174486272Y-67660695D02*
X174751875Y-67859243D01*
X174751875Y-67859243D02*
X175009444Y-68034972D01*
X175009444Y-68034972D02*
X175263144Y-68190777D01*
X175263144Y-68190777D02*
X175517138Y-68329549D01*
X175517138Y-68329549D02*
X175775590Y-68454183D01*
X175775590Y-68454183D02*
X175941566Y-68526321D01*
X175941566Y-68526321D02*
X176264179Y-68650530D01*
X176264179Y-68650530D02*
X176603094Y-68759962D01*
X176603094Y-68759962D02*
X176961448Y-68855152D01*
X176961448Y-68855152D02*
X177342378Y-68936637D01*
X177342378Y-68936637D02*
X177749019Y-69004951D01*
X177749019Y-69004951D02*
X178184508Y-69060631D01*
X178184508Y-69060631D02*
X178651981Y-69104211D01*
X178651981Y-69104211D02*
X179154574Y-69136228D01*
X179154574Y-69136228D02*
X179624566Y-69155145D01*
X179624566Y-69155145D02*
X179924408Y-69164706D01*
X179924408Y-69164706D02*
X180186916Y-69174048D01*
X180186916Y-69174048D02*
X180417083Y-69183519D01*
X180417083Y-69183519D02*
X180619905Y-69193468D01*
X180619905Y-69193468D02*
X180800377Y-69204244D01*
X180800377Y-69204244D02*
X180963493Y-69216195D01*
X180963493Y-69216195D02*
X181114249Y-69229668D01*
X181114249Y-69229668D02*
X181257638Y-69245014D01*
X181257638Y-69245014D02*
X181398656Y-69262579D01*
X181398656Y-69262579D02*
X181542298Y-69282712D01*
X181542298Y-69282712D02*
X181619660Y-69294308D01*
X181619660Y-69294308D02*
X182238735Y-69409689D01*
X182238735Y-69409689D02*
X182842566Y-69563635D01*
X182842566Y-69563635D02*
X183429904Y-69754756D01*
X183429904Y-69754756D02*
X183999497Y-69981663D01*
X183999497Y-69981663D02*
X184550095Y-70242967D01*
X184550095Y-70242967D02*
X185080448Y-70537279D01*
X185080448Y-70537279D02*
X185589303Y-70863208D01*
X185589303Y-70863208D02*
X186075412Y-71219367D01*
X186075412Y-71219367D02*
X186537524Y-71604365D01*
X186537524Y-71604365D02*
X186974387Y-72016814D01*
X186974387Y-72016814D02*
X187384751Y-72455323D01*
X187384751Y-72455323D02*
X187767366Y-72918504D01*
X187767366Y-72918504D02*
X188120980Y-73404968D01*
X188120980Y-73404968D02*
X188444344Y-73913325D01*
X188444344Y-73913325D02*
X188736207Y-74442185D01*
X188736207Y-74442185D02*
X188995318Y-74990161D01*
X188995318Y-74990161D02*
X189220426Y-75555861D01*
X189220426Y-75555861D02*
X189410282Y-76137898D01*
X189410282Y-76137898D02*
X189563633Y-76734881D01*
X189563633Y-76734881D02*
X189679230Y-77345422D01*
X189679230Y-77345422D02*
X189755822Y-77968131D01*
X189755822Y-77968131D02*
X189783347Y-78363233D01*
X189783347Y-78363233D02*
X189784319Y-78399570D01*
X189784319Y-78399570D02*
X189785268Y-78468738D01*
X189785268Y-78468738D02*
X189786194Y-78570941D01*
X189786194Y-78570941D02*
X189787097Y-78706385D01*
X189787097Y-78706385D02*
X189787977Y-78875271D01*
X189787977Y-78875271D02*
X189788834Y-79077806D01*
X189788834Y-79077806D02*
X189789669Y-79314193D01*
X189789669Y-79314193D02*
X189790481Y-79584636D01*
X189790481Y-79584636D02*
X189791271Y-79889339D01*
X189791271Y-79889339D02*
X189792038Y-80228507D01*
X189792038Y-80228507D02*
X189792783Y-80602344D01*
X189792783Y-80602344D02*
X189793506Y-81011054D01*
X189793506Y-81011054D02*
X189794207Y-81454840D01*
X189794207Y-81454840D02*
X189794886Y-81933908D01*
X189794886Y-81933908D02*
X189795544Y-82448462D01*
X189795544Y-82448462D02*
X189796179Y-82998705D01*
X189796179Y-82998705D02*
X189796793Y-83584842D01*
X189796793Y-83584842D02*
X189797386Y-84207077D01*
X189797386Y-84207077D02*
X189797957Y-84865614D01*
X189797957Y-84865614D02*
X189798507Y-85560658D01*
X189798507Y-85560658D02*
X189799036Y-86292412D01*
X189799036Y-86292412D02*
X189799544Y-87061080D01*
X189799544Y-87061080D02*
X189800031Y-87866868D01*
X189800031Y-87866868D02*
X189800498Y-88709978D01*
X189800498Y-88709978D02*
X189800943Y-89590616D01*
X189800943Y-89590616D02*
X189801368Y-90508985D01*
X189801368Y-90508985D02*
X189801773Y-91465290D01*
X189801773Y-91465290D02*
X189802157Y-92459735D01*
X189802157Y-92459735D02*
X189802521Y-93492523D01*
X189802521Y-93492523D02*
X189802865Y-94563859D01*
X189802865Y-94563859D02*
X189803189Y-95673948D01*
X189803189Y-95673948D02*
X189803493Y-96822993D01*
X189803493Y-96822993D02*
X189803777Y-98011199D01*
X189803777Y-98011199D02*
X189804041Y-99238770D01*
X189804041Y-99238770D02*
X189804286Y-100505909D01*
X189804286Y-100505909D02*
X189804511Y-101812822D01*
X189804511Y-101812822D02*
X189804717Y-103159712D01*
X189804717Y-103159712D02*
X189804904Y-104546783D01*
X189804904Y-104546783D02*
X189805072Y-105974240D01*
X189805072Y-105974240D02*
X189805220Y-107442287D01*
X189805220Y-107442287D02*
X189805350Y-108951128D01*
X189805350Y-108951128D02*
X189805461Y-110500967D01*
X189805461Y-110500967D02*
X189805553Y-112092008D01*
X189805553Y-112092008D02*
X189805627Y-113724456D01*
X189805627Y-113724456D02*
X189805682Y-115398515D01*
X189805682Y-115398515D02*
X189805719Y-117114388D01*
X189805719Y-117114388D02*
X189805737Y-118872281D01*
X189805737Y-118872281D02*
X189805740Y-119837736D01*
X189805740Y-119837736D02*
X189805746Y-121452107D01*
X189805746Y-121452107D02*
X189805764Y-123024701D01*
X189805764Y-123024701D02*
X189805791Y-124556072D01*
X189805791Y-124556072D02*
X189805826Y-126046777D01*
X189805826Y-126046777D02*
X189805865Y-127497370D01*
X189805865Y-127497370D02*
X189805908Y-128908408D01*
X189805908Y-128908408D02*
X189805953Y-130280447D01*
X189805953Y-130280447D02*
X189805996Y-131614040D01*
X189805996Y-131614040D02*
X189806036Y-132909745D01*
X189806036Y-132909745D02*
X189806071Y-134168117D01*
X189806071Y-134168117D02*
X189806099Y-135389711D01*
X189806099Y-135389711D02*
X189806118Y-136575083D01*
X189806118Y-136575083D02*
X189806125Y-137724788D01*
X189806125Y-137724788D02*
X189806119Y-138839383D01*
X189806119Y-138839383D02*
X189806097Y-139919421D01*
X189806097Y-139919421D02*
X189806058Y-140965461D01*
X189806058Y-140965461D02*
X189805999Y-141978055D01*
X189805999Y-141978055D02*
X189805919Y-142957761D01*
X189805919Y-142957761D02*
X189805814Y-143905134D01*
X189805814Y-143905134D02*
X189805684Y-144820730D01*
X189805684Y-144820730D02*
X189805526Y-145705103D01*
X189805526Y-145705103D02*
X189805337Y-146558810D01*
X189805337Y-146558810D02*
X189805117Y-147382406D01*
X189805117Y-147382406D02*
X189804862Y-148176446D01*
X189804862Y-148176446D02*
X189804571Y-148941487D01*
X189804571Y-148941487D02*
X189804241Y-149678084D01*
X189804241Y-149678084D02*
X189803871Y-150386792D01*
X189803871Y-150386792D02*
X189803459Y-151068167D01*
X189803459Y-151068167D02*
X189803002Y-151722764D01*
X189803002Y-151722764D02*
X189802498Y-152351139D01*
X189802498Y-152351139D02*
X189801945Y-152953848D01*
X189801945Y-152953848D02*
X189801342Y-153531447D01*
X189801342Y-153531447D02*
X189800686Y-154084490D01*
X189800686Y-154084490D02*
X189799974Y-154613533D01*
X189799974Y-154613533D02*
X189799206Y-155119132D01*
X189799206Y-155119132D02*
X189798378Y-155601843D01*
X189798378Y-155601843D02*
X189797489Y-156062221D01*
X189797489Y-156062221D02*
X189796536Y-156500821D01*
X189796536Y-156500821D02*
X189795519Y-156918199D01*
X189795519Y-156918199D02*
X189794433Y-157314911D01*
X189794433Y-157314911D02*
X189793278Y-157691513D01*
X189793278Y-157691513D02*
X189792052Y-158048559D01*
X189792052Y-158048559D02*
X189790752Y-158386605D01*
X189790752Y-158386605D02*
X189789375Y-158706208D01*
X189789375Y-158706208D02*
X189787921Y-159007922D01*
X189787921Y-159007922D02*
X189786387Y-159292303D01*
X189786387Y-159292303D02*
X189784771Y-159559907D01*
X189784771Y-159559907D02*
X189783071Y-159811289D01*
X189783071Y-159811289D02*
X189781285Y-160047005D01*
X189781285Y-160047005D02*
X189779410Y-160267610D01*
X189779410Y-160267610D02*
X189777445Y-160473660D01*
X189777445Y-160473660D02*
X189775387Y-160665711D01*
X189775387Y-160665711D02*
X189773235Y-160844318D01*
X189773235Y-160844318D02*
X189770986Y-161010036D01*
X189770986Y-161010036D02*
X189768638Y-161163421D01*
X189768638Y-161163421D02*
X189766190Y-161305030D01*
X189766190Y-161305030D02*
X189763639Y-161435416D01*
X189763639Y-161435416D02*
X189760983Y-161555137D01*
X189760983Y-161555137D02*
X189758219Y-161664746D01*
X189758219Y-161664746D02*
X189755347Y-161764801D01*
X189755347Y-161764801D02*
X189752364Y-161855857D01*
X189752364Y-161855857D02*
X189749267Y-161938468D01*
X189749267Y-161938468D02*
X189746055Y-162013191D01*
X189746055Y-162013191D02*
X189742725Y-162080582D01*
X189742725Y-162080582D02*
X189739276Y-162141195D01*
X189739276Y-162141195D02*
X189735705Y-162195587D01*
X189735705Y-162195587D02*
X189732011Y-162244313D01*
X189732011Y-162244313D02*
X189728191Y-162287928D01*
X189728191Y-162287928D02*
X189724243Y-162326988D01*
X189724243Y-162326988D02*
X189720165Y-162362050D01*
X189720165Y-162362050D02*
X189715955Y-162393667D01*
X189715955Y-162393667D02*
X189711611Y-162422396D01*
X189711611Y-162422396D02*
X189707131Y-162448792D01*
X189707131Y-162448792D02*
X189702513Y-162473411D01*
X189702513Y-162473411D02*
X189697754Y-162496809D01*
X189697754Y-162496809D02*
X189692853Y-162519541D01*
X189692853Y-162519541D02*
X189687808Y-162542162D01*
X189687808Y-162542162D02*
X189682616Y-162565229D01*
X189682616Y-162565229D02*
X189677275Y-162589296D01*
X189677275Y-162589296D02*
X189671784Y-162614920D01*
X189671784Y-162614920D02*
X189666140Y-162642656D01*
X189666140Y-162642656D02*
X189660341Y-162673059D01*
X189660341Y-162673059D02*
X189654385Y-162706685D01*
X189654385Y-162706685D02*
X189648270Y-162744089D01*
X189648270Y-162744089D02*
X189645011Y-162765316D01*
X189645011Y-162765316D02*
X189516762Y-163480629D01*
X189516762Y-163480629D02*
X189349777Y-164181038D01*
X189349777Y-164181038D02*
X189145266Y-164865442D01*
X189145266Y-164865442D02*
X188904439Y-165532743D01*
X188904439Y-165532743D02*
X188628504Y-166181840D01*
X188628504Y-166181840D02*
X188318672Y-166811635D01*
X188318672Y-166811635D02*
X187976152Y-167421028D01*
X187976152Y-167421028D02*
X187602153Y-168008919D01*
X187602153Y-168008919D02*
X187197885Y-168574210D01*
X187197885Y-168574210D02*
X186764557Y-169115799D01*
X186764557Y-169115799D02*
X186303379Y-169632589D01*
X186303379Y-169632589D02*
X185815561Y-170123479D01*
X185815561Y-170123479D02*
X185302310Y-170587371D01*
X185302310Y-170587371D02*
X184764838Y-171023164D01*
X184764838Y-171023164D02*
X184204354Y-171429759D01*
X184204354Y-171429759D02*
X183622067Y-171806057D01*
X183622067Y-171806057D02*
X183019186Y-172150958D01*
X183019186Y-172150958D02*
X182396921Y-172463362D01*
X182396921Y-172463362D02*
X181756481Y-172742171D01*
X181756481Y-172742171D02*
X181099077Y-172986285D01*
X181099077Y-172986285D02*
X180425917Y-173194603D01*
X180425917Y-173194603D02*
X179738210Y-173366028D01*
X179738210Y-173366028D02*
X179037167Y-173499459D01*
X179037167Y-173499459D02*
X178323997Y-173593797D01*
X178323997Y-173593797D02*
X177677957Y-173644097D01*
X177677957Y-173644097D02*
X177648027Y-173645507D01*
X177648027Y-173645507D02*
X177612514Y-173646876D01*
X177612514Y-173646876D02*
X177570807Y-173648204D01*
X177570807Y-173648204D02*
X177522295Y-173649492D01*
X177522295Y-173649492D02*
X177466367Y-173650740D01*
X177466367Y-173650740D02*
X177402412Y-173651950D01*
X177402412Y-173651950D02*
X177329817Y-173653121D01*
X177329817Y-173653121D02*
X177247973Y-173654253D01*
X177247973Y-173654253D02*
X177156268Y-173655349D01*
X177156268Y-173655349D02*
X177054090Y-173656407D01*
X177054090Y-173656407D02*
X176940828Y-173657429D01*
X176940828Y-173657429D02*
X176815872Y-173658416D01*
X176815872Y-173658416D02*
X176678610Y-173659366D01*
X176678610Y-173659366D02*
X176528430Y-173660283D01*
X176528430Y-173660283D02*
X176364722Y-173661164D01*
X176364722Y-173661164D02*
X176186874Y-173662012D01*
X176186874Y-173662012D02*
X175994276Y-173662827D01*
X175994276Y-173662827D02*
X175786315Y-173663609D01*
X175786315Y-173663609D02*
X175562381Y-173664359D01*
X175562381Y-173664359D02*
X175321862Y-173665078D01*
X175321862Y-173665078D02*
X175064148Y-173665765D01*
X175064148Y-173665765D02*
X174788626Y-173666422D01*
X174788626Y-173666422D02*
X174494687Y-173667048D01*
X174494687Y-173667048D02*
X174181717Y-173667646D01*
X174181717Y-173667646D02*
X173849108Y-173668214D01*
X173849108Y-173668214D02*
X173496246Y-173668754D01*
X173496246Y-173668754D02*
X173122521Y-173669265D01*
X173122521Y-173669265D02*
X172727322Y-173669750D01*
X172727322Y-173669750D02*
X172310038Y-173670208D01*
X172310038Y-173670208D02*
X171870057Y-173670639D01*
X171870057Y-173670639D02*
X171406768Y-173671045D01*
X171406768Y-173671045D02*
X170919559Y-173671425D01*
X170919559Y-173671425D02*
X170407821Y-173671781D01*
X170407821Y-173671781D02*
X169870940Y-173672112D01*
X169870940Y-173672112D02*
X169308307Y-173672420D01*
X169308307Y-173672420D02*
X168719310Y-173672705D01*
X168719310Y-173672705D02*
X168103337Y-173672967D01*
X168103337Y-173672967D02*
X167459779Y-173673207D01*
X167459779Y-173673207D02*
X166788022Y-173673425D01*
X166788022Y-173673425D02*
X166087457Y-173673623D01*
X166087457Y-173673623D02*
X165357471Y-173673800D01*
X165357471Y-173673800D02*
X164597454Y-173673957D01*
X164597454Y-173673957D02*
X163806794Y-173674095D01*
X163806794Y-173674095D02*
X162984881Y-173674214D01*
X162984881Y-173674214D02*
X162131103Y-173674314D01*
X162131103Y-173674314D02*
X161244848Y-173674397D01*
X161244848Y-173674397D02*
X160325506Y-173674462D01*
X160325506Y-173674462D02*
X159372466Y-173674511D01*
X159372466Y-173674511D02*
X158385115Y-173674544D01*
X158385115Y-173674544D02*
X157362844Y-173674560D01*
X157362844Y-173674560D02*
X156305040Y-173674562D01*
X156305040Y-173674562D02*
X155211093Y-173674549D01*
X155211093Y-173674549D02*
X154080391Y-173674522D01*
X154080391Y-173674522D02*
X152912323Y-173674482D01*
X152912323Y-173674482D02*
X151706278Y-173674428D01*
X151706278Y-173674428D02*
X150461644Y-173674362D01*
X150461644Y-173674362D02*
X149177811Y-173674284D01*
X149177811Y-173674284D02*
X147854167Y-173674194D01*
X147854167Y-173674194D02*
X146490101Y-173674094D01*
X146490101Y-173674094D02*
X145085002Y-173673983D01*
X145085002Y-173673983D02*
X143638258Y-173673862D01*
X143638258Y-173673862D02*
X143451457Y-173673846D01*
X143451457Y-173673846D02*
X141978614Y-173673715D01*
X141978614Y-173673715D02*
X140547530Y-173673578D01*
X140547530Y-173673578D02*
X139157628Y-173673434D01*
X139157628Y-173673434D02*
X137808332Y-173673284D01*
X137808332Y-173673284D02*
X136499068Y-173673125D01*
X136499068Y-173673125D02*
X135229259Y-173672959D01*
X135229259Y-173672959D02*
X133998330Y-173672784D01*
X133998330Y-173672784D02*
X132805706Y-173672600D01*
X132805706Y-173672600D02*
X131650810Y-173672406D01*
X131650810Y-173672406D02*
X130533068Y-173672202D01*
X130533068Y-173672202D02*
X129451904Y-173671987D01*
X129451904Y-173671987D02*
X128406742Y-173671760D01*
X128406742Y-173671760D02*
X127397007Y-173671522D01*
X127397007Y-173671522D02*
X126422123Y-173671272D01*
X126422123Y-173671272D02*
X125481515Y-173671008D01*
X125481515Y-173671008D02*
X124574607Y-173670732D01*
X124574607Y-173670732D02*
X123700824Y-173670441D01*
X123700824Y-173670441D02*
X122859590Y-173670135D01*
X122859590Y-173670135D02*
X122050329Y-173669815D01*
X122050329Y-173669815D02*
X121272466Y-173669479D01*
X121272466Y-173669479D02*
X120525425Y-173669127D01*
X120525425Y-173669127D02*
X119808631Y-173668758D01*
X119808631Y-173668758D02*
X119121509Y-173668372D01*
X119121509Y-173668372D02*
X118463482Y-173667969D01*
X118463482Y-173667969D02*
X117833976Y-173667547D01*
X117833976Y-173667547D02*
X117232414Y-173667106D01*
X117232414Y-173667106D02*
X116658221Y-173666646D01*
X116658221Y-173666646D02*
X116110822Y-173666166D01*
X116110822Y-173666166D02*
X115589641Y-173665666D01*
X115589641Y-173665666D02*
X115094102Y-173665145D01*
X115094102Y-173665145D02*
X114623630Y-173664603D01*
X114623630Y-173664603D02*
X114177650Y-173664038D01*
X114177650Y-173664038D02*
X113755585Y-173663451D01*
X113755585Y-173663451D02*
X113356861Y-173662841D01*
X113356861Y-173662841D02*
X112980901Y-173662207D01*
X112980901Y-173662207D02*
X112627131Y-173661550D01*
X112627131Y-173661550D02*
X112294974Y-173660867D01*
X112294974Y-173660867D02*
X111983855Y-173660160D01*
X111983855Y-173660160D02*
X111693199Y-173659427D01*
X111693199Y-173659427D02*
X111422430Y-173658667D01*
X111422430Y-173658667D02*
X111170972Y-173657881D01*
X111170972Y-173657881D02*
X110938250Y-173657067D01*
X110938250Y-173657067D02*
X110723689Y-173656226D01*
X110723689Y-173656226D02*
X110526712Y-173655356D01*
X110526712Y-173655356D02*
X110346745Y-173654457D01*
X110346745Y-173654457D02*
X110183211Y-173653529D01*
X110183211Y-173653529D02*
X110035536Y-173652571D01*
X110035536Y-173652571D02*
X109903143Y-173651583D01*
X109903143Y-173651583D02*
X109785457Y-173650563D01*
X109785457Y-173650563D02*
X109681903Y-173649512D01*
X109681903Y-173649512D02*
X109591904Y-173648428D01*
X109591904Y-173648428D02*
X109514886Y-173647312D01*
X109514886Y-173647312D02*
X109450273Y-173646163D01*
X109450273Y-173646163D02*
X109397489Y-173644981D01*
X109397489Y-173644981D02*
X109355959Y-173643764D01*
X109355959Y-173643764D02*
X109325108Y-173642512D01*
X109325108Y-173642512D02*
X109319740Y-173642234D01*
X109319740Y-173642234D02*
X108665546Y-173587625D01*
X108665546Y-173587625D02*
X108002415Y-173495051D01*
X108002415Y-173495051D02*
X107337032Y-173365894D01*
X107337032Y-173365894D02*
X106676081Y-173201535D01*
X106676081Y-173201535D02*
X106026246Y-173003355D01*
X106026246Y-173003355D02*
X105731733Y-172900795D01*
X105731733Y-172900795D02*
X105057973Y-172634205D01*
X105057973Y-172634205D02*
X104399796Y-172328924D01*
X104399796Y-172328924D02*
X103759362Y-171986407D01*
X103759362Y-171986407D02*
X103138833Y-171608113D01*
X103138833Y-171608113D02*
X102540368Y-171195499D01*
X102540368Y-171195499D02*
X101966128Y-170750022D01*
X101966128Y-170750022D02*
X101418275Y-170273140D01*
X101418275Y-170273140D02*
X100898969Y-169766308D01*
X100898969Y-169766308D02*
X100585245Y-169429845D01*
X100585245Y-169429845D02*
X100102190Y-168861392D01*
X100102190Y-168861392D02*
X99655798Y-168272333D01*
X99655798Y-168272333D02*
X99246466Y-167663512D01*
X99246466Y-167663512D02*
X98874595Y-167035773D01*
X98874595Y-167035773D02*
X98540583Y-166389960D01*
X98540583Y-166389960D02*
X98244830Y-165726915D01*
X98244830Y-165726915D02*
X97987734Y-165047483D01*
X97987734Y-165047483D02*
X97769696Y-164352508D01*
X97769696Y-164352508D02*
X97591115Y-163642832D01*
X97591115Y-163642832D02*
X97452389Y-162919301D01*
X97452389Y-162919301D02*
X97426716Y-162754733D01*
X97426716Y-162754733D02*
X97420467Y-162714613D01*
X97420467Y-162714613D02*
X97414380Y-162678567D01*
X97414380Y-162678567D02*
X97408451Y-162646039D01*
X97408451Y-162646039D02*
X97402680Y-162616473D01*
X97402680Y-162616473D02*
X97397064Y-162589313D01*
X97397064Y-162589313D02*
X97391601Y-162564005D01*
X97391601Y-162564005D02*
X97386289Y-162539991D01*
X97386289Y-162539991D02*
X97381125Y-162516718D01*
X97381125Y-162516718D02*
X97376108Y-162493627D01*
X97376108Y-162493627D02*
X97371236Y-162470165D01*
X97371236Y-162470165D02*
X97366507Y-162445775D01*
X97366507Y-162445775D02*
X97361918Y-162419902D01*
X97361918Y-162419902D02*
X97357468Y-162391990D01*
X97357468Y-162391990D02*
X97353153Y-162361483D01*
X97353153Y-162361483D02*
X97348973Y-162327825D01*
X97348973Y-162327825D02*
X97344925Y-162290461D01*
X97344925Y-162290461D02*
X97341008Y-162248835D01*
X97341008Y-162248835D02*
X97337218Y-162202391D01*
X97337218Y-162202391D02*
X97333554Y-162150574D01*
X97333554Y-162150574D02*
X97330014Y-162092828D01*
X97330014Y-162092828D02*
X97326595Y-162028598D01*
X97326595Y-162028598D02*
X97323296Y-161957326D01*
X97323296Y-161957326D02*
X97320115Y-161878459D01*
X97320115Y-161878459D02*
X97317049Y-161791439D01*
X97317049Y-161791439D02*
X97314097Y-161695712D01*
X97314097Y-161695712D02*
X97311255Y-161590722D01*
X97311255Y-161590722D02*
X97308523Y-161475912D01*
X97308523Y-161475912D02*
X97305898Y-161350728D01*
X97305898Y-161350728D02*
X97303378Y-161214614D01*
X97303378Y-161214614D02*
X97300961Y-161067013D01*
X97300961Y-161067013D02*
X97298645Y-160907370D01*
X97298645Y-160907370D02*
X97296428Y-160735130D01*
X97296428Y-160735130D02*
X97294307Y-160549736D01*
X97294307Y-160549736D02*
X97292281Y-160350633D01*
X97292281Y-160350633D02*
X97290347Y-160137266D01*
X97290347Y-160137266D02*
X97288504Y-159909078D01*
X97288504Y-159909078D02*
X97286749Y-159665514D01*
X97286749Y-159665514D02*
X97285081Y-159406018D01*
X97285081Y-159406018D02*
X97283496Y-159130035D01*
X97283496Y-159130035D02*
X97281994Y-158837008D01*
X97281994Y-158837008D02*
X97280571Y-158526382D01*
X97280571Y-158526382D02*
X97279227Y-158197602D01*
X97279227Y-158197602D02*
X97277958Y-157850111D01*
X97277958Y-157850111D02*
X97276763Y-157483354D01*
X97276763Y-157483354D02*
X97275640Y-157096776D01*
X97275640Y-157096776D02*
X97274586Y-156689819D01*
X97274586Y-156689819D02*
X97273599Y-156261930D01*
X97273599Y-156261930D02*
X97272678Y-155812552D01*
X97272678Y-155812552D02*
X97271821Y-155341128D01*
X97271821Y-155341128D02*
X97271024Y-154847105D01*
X97271024Y-154847105D02*
X97270287Y-154329925D01*
X97270287Y-154329925D02*
X97269606Y-153789034D01*
X97269606Y-153789034D02*
X97268981Y-153223875D01*
X97268981Y-153223875D02*
X97268408Y-152633893D01*
X97268408Y-152633893D02*
X97267887Y-152018532D01*
X97267887Y-152018532D02*
X97267413Y-151377236D01*
X97267413Y-151377236D02*
X97266987Y-150709450D01*
X97266987Y-150709450D02*
X97266605Y-150014618D01*
X97266605Y-150014618D02*
X97266265Y-149292185D01*
X97266265Y-149292185D02*
X97265966Y-148541593D01*
X97265966Y-148541593D02*
X97265705Y-147762289D01*
X97265705Y-147762289D02*
X97265481Y-146953716D01*
X97265481Y-146953716D02*
X97265290Y-146115318D01*
X97265290Y-146115318D02*
X97265131Y-145246539D01*
X97265131Y-145246539D02*
X97265002Y-144346825D01*
X97265002Y-144346825D02*
X97264901Y-143415619D01*
X97264901Y-143415619D02*
X97264826Y-142452366D01*
X97264826Y-142452366D02*
X97264775Y-141456509D01*
X97264775Y-141456509D02*
X97264745Y-140427494D01*
X97264745Y-140427494D02*
X97264734Y-139364763D01*
X97264734Y-139364763D02*
X97264741Y-138267763D01*
X97264741Y-138267763D02*
X97264763Y-137135937D01*
X97264763Y-137135937D02*
X97264798Y-135968729D01*
X97264798Y-135968729D02*
X97264845Y-134765583D01*
X97264845Y-134765583D02*
X97264900Y-133525945D01*
X97264900Y-133525945D02*
X97264963Y-132249258D01*
X97264963Y-132249258D02*
X97265030Y-130934966D01*
X97265030Y-130934966D02*
X97265101Y-129582513D01*
X97265101Y-129582513D02*
X97265172Y-128191345D01*
X97265172Y-128191345D02*
X97265241Y-126760906D01*
X97265241Y-126760906D02*
X97265307Y-125290638D01*
X97265307Y-125290638D02*
X97265368Y-123779988D01*
X97265368Y-123779988D02*
X97265420Y-122228399D01*
X97265420Y-122228399D02*
X97265463Y-120635316D01*
X97265463Y-120635316D02*
X97265481Y-119807566D01*
X97265481Y-119807566D02*
X97265507Y-118198226D01*
X97265507Y-118198226D02*
X97265525Y-116630663D01*
X97265525Y-116630663D02*
X97265535Y-115104321D01*
X97265535Y-115104321D02*
X97265540Y-113618644D01*
X97265540Y-113618644D02*
X97265541Y-112173077D01*
X97265541Y-112173077D02*
X97265541Y-110767062D01*
X97265541Y-110767062D02*
X97265540Y-109400045D01*
X97265540Y-109400045D02*
X97265542Y-108071468D01*
X97265542Y-108071468D02*
X97265546Y-106780777D01*
X97265546Y-106780777D02*
X97265556Y-105527414D01*
X97265556Y-105527414D02*
X97265573Y-104310824D01*
X97265573Y-104310824D02*
X97265598Y-103130451D01*
X97265598Y-103130451D02*
X97265634Y-101985738D01*
X97265634Y-101985738D02*
X97265682Y-100876131D01*
X97265682Y-100876131D02*
X97265744Y-99801072D01*
X97265744Y-99801072D02*
X97265822Y-98760005D01*
X97265822Y-98760005D02*
X97265917Y-97752375D01*
X97265917Y-97752375D02*
X97266032Y-96777625D01*
X97266032Y-96777625D02*
X97266167Y-95835200D01*
X97266167Y-95835200D02*
X97266325Y-94924543D01*
X97266325Y-94924543D02*
X97266507Y-94045099D01*
X97266507Y-94045099D02*
X97266716Y-93196311D01*
X97266716Y-93196311D02*
X97266952Y-92377623D01*
X97266952Y-92377623D02*
X97267218Y-91588479D01*
X97267218Y-91588479D02*
X97267516Y-90828323D01*
X97267516Y-90828323D02*
X97267847Y-90096599D01*
X97267847Y-90096599D02*
X97268212Y-89392751D01*
X97268212Y-89392751D02*
X97268615Y-88716224D01*
X97268615Y-88716224D02*
X97269056Y-88066460D01*
X97269056Y-88066460D02*
X97269537Y-87442904D01*
X97269537Y-87442904D02*
X97270060Y-86844999D01*
X97270060Y-86844999D02*
X97270626Y-86272191D01*
X97270626Y-86272191D02*
X97271238Y-85723922D01*
X97271238Y-85723922D02*
X97271898Y-85199637D01*
X97271898Y-85199637D02*
X97272606Y-84698779D01*
X97272606Y-84698779D02*
X97273365Y-84220793D01*
X97273365Y-84220793D02*
X97274176Y-83765123D01*
X97274176Y-83765123D02*
X97275042Y-83331212D01*
X97275042Y-83331212D02*
X97275963Y-82918504D01*
X97275963Y-82918504D02*
X97276942Y-82526444D01*
X97276942Y-82526444D02*
X97277981Y-82154474D01*
X97277981Y-82154474D02*
X97279081Y-81802041D01*
X97279081Y-81802041D02*
X97280243Y-81468586D01*
X97280243Y-81468586D02*
X97281471Y-81153554D01*
X97281471Y-81153554D02*
X97282764Y-80856390D01*
X97282764Y-80856390D02*
X97284126Y-80576536D01*
X97284126Y-80576536D02*
X97285558Y-80313438D01*
X97285558Y-80313438D02*
X97287062Y-80066538D01*
X97287062Y-80066538D02*
X97288639Y-79835281D01*
X97288639Y-79835281D02*
X97290291Y-79619112D01*
X97290291Y-79619112D02*
X97292020Y-79417472D01*
X97292020Y-79417472D02*
X97293828Y-79229808D01*
X97293828Y-79229808D02*
X97295716Y-79055562D01*
X97295716Y-79055562D02*
X97297687Y-78894179D01*
X97297687Y-78894179D02*
X97299741Y-78745103D01*
X97299741Y-78745103D02*
X97301881Y-78607777D01*
X97301881Y-78607777D02*
X97304108Y-78481645D01*
X97304108Y-78481645D02*
X97306425Y-78366152D01*
X97306425Y-78366152D02*
X97308833Y-78260741D01*
X97308833Y-78260741D02*
X97311333Y-78164857D01*
X97311333Y-78164857D02*
X97313928Y-78077942D01*
X97313928Y-78077942D02*
X97316619Y-77999442D01*
X97316619Y-77999442D02*
X97319407Y-77928800D01*
X97319407Y-77928800D02*
X97322296Y-77865461D01*
X97322296Y-77865461D02*
X97325286Y-77808867D01*
X97325286Y-77808867D02*
X97328379Y-77758463D01*
X97328379Y-77758463D02*
X97331577Y-77713693D01*
X97331577Y-77713693D02*
X97334882Y-77674002D01*
X97334882Y-77674002D02*
X97338295Y-77638831D01*
X97338295Y-77638831D02*
X97341818Y-77607627D01*
X97341818Y-77607627D02*
X97345453Y-77579833D01*
X97345453Y-77579833D02*
X97349202Y-77554892D01*
X97349202Y-77554892D02*
X97353067Y-77532249D01*
X97353067Y-77532249D02*
X97357048Y-77511347D01*
X97357048Y-77511347D02*
X97361149Y-77491631D01*
X97361149Y-77491631D02*
X97365370Y-77472545D01*
X97365370Y-77472545D02*
X97369713Y-77453532D01*
X97369713Y-77453532D02*
X97374181Y-77434036D01*
X97374181Y-77434036D02*
X97378775Y-77413502D01*
X97378775Y-77413502D02*
X97383496Y-77391372D01*
X97383496Y-77391372D02*
X97388347Y-77367093D01*
X97388347Y-77367093D02*
X97393329Y-77340106D01*
X97393329Y-77340106D02*
X97398444Y-77309856D01*
X97398444Y-77309856D02*
X97399239Y-77304900D01*
X97399239Y-77304900D02*
X97518586Y-76687142D01*
X97518586Y-76687142D02*
X97676711Y-76083913D01*
X97676711Y-76083913D02*
X97872232Y-75496588D01*
X97872232Y-75496588D02*
X98103769Y-74926539D01*
X98103769Y-74926539D02*
X98369941Y-74375138D01*
X98369941Y-74375138D02*
X98669367Y-73843760D01*
X98669367Y-73843760D02*
X99000665Y-73333777D01*
X99000665Y-73333777D02*
X99362456Y-72846562D01*
X99362456Y-72846562D02*
X99753357Y-72383489D01*
X99753357Y-72383489D02*
X100171988Y-71945930D01*
X100171988Y-71945930D02*
X100616968Y-71535259D01*
X100616968Y-71535259D02*
X101086915Y-71152849D01*
X101086915Y-71152849D02*
X101580450Y-70800072D01*
X101580450Y-70800072D02*
X102096190Y-70478303D01*
X102096190Y-70478303D02*
X102632755Y-70188913D01*
X102632755Y-70188913D02*
X103188765Y-69933277D01*
X103188765Y-69933277D02*
X103762837Y-69712767D01*
X103762837Y-69712767D02*
X104353590Y-69528757D01*
X104353590Y-69528757D02*
X104959645Y-69382618D01*
X104959645Y-69382618D02*
X105456566Y-69293597D01*
X105456566Y-69293597D02*
X105590889Y-69273897D01*
X105590889Y-69273897D02*
X105721352Y-69256438D01*
X105721352Y-69256438D02*
X105851643Y-69241030D01*
X105851643Y-69241030D02*
X105985453Y-69227482D01*
X105985453Y-69227482D02*
X106126471Y-69215605D01*
X106126471Y-69215605D02*
X106278389Y-69205208D01*
X106278389Y-69205208D02*
X106444894Y-69196101D01*
X106444894Y-69196101D02*
X106629678Y-69188094D01*
X106629678Y-69188094D02*
X106836430Y-69180998D01*
X106836430Y-69180998D02*
X107068840Y-69174621D01*
X107068840Y-69174621D02*
X107330598Y-69168775D01*
X107330598Y-69168775D02*
X107625394Y-69163269D01*
X107625394Y-69163269D02*
X107956918Y-69157912D01*
X107956918Y-69157912D02*
X108144733Y-69155128D01*
X108144733Y-69155128D02*
X108659957Y-69146767D01*
X108659957Y-69146767D02*
X109136802Y-69137056D01*
X109136802Y-69137056D02*
X109579208Y-69125797D01*
X109579208Y-69125797D02*
X109991114Y-69112793D01*
X109991114Y-69112793D02*
X110376460Y-69097843D01*
X110376460Y-69097843D02*
X110739184Y-69080752D01*
X110739184Y-69080752D02*
X111083226Y-69061319D01*
X111083226Y-69061319D02*
X111412525Y-69039348D01*
X111412525Y-69039348D02*
X111731020Y-69014640D01*
X111731020Y-69014640D02*
X112042651Y-68986998D01*
X112042651Y-68986998D02*
X112351356Y-68956222D01*
X112351356Y-68956222D02*
X112568566Y-68932624D01*
X112568566Y-68932624D02*
X113164358Y-68857950D01*
X113164358Y-68857950D02*
X113722946Y-68771205D01*
X113722946Y-68771205D02*
X114248049Y-68671152D01*
X114248049Y-68671152D02*
X114743389Y-68556554D01*
X114743389Y-68556554D02*
X115212683Y-68426174D01*
X115212683Y-68426174D02*
X115659652Y-68278774D01*
X115659652Y-68278774D02*
X116088015Y-68113117D01*
X116088015Y-68113117D02*
X116501492Y-67927968D01*
X116501492Y-67927968D02*
X116903804Y-67722087D01*
X116903804Y-67722087D02*
X117298668Y-67494238D01*
X117298668Y-67494238D02*
X117689806Y-67243185D01*
X117689806Y-67243185D02*
X117729938Y-67216022D01*
X117729938Y-67216022D02*
X117836699Y-67142933D01*
X117836699Y-67142933D02*
X117940602Y-67070652D01*
X117940602Y-67070652D02*
X118043948Y-66997364D01*
X118043948Y-66997364D02*
X118149038Y-66921253D01*
X118149038Y-66921253D02*
X118258175Y-66840505D01*
X118258175Y-66840505D02*
X118373659Y-66753303D01*
X118373659Y-66753303D02*
X118497792Y-66657833D01*
X118497792Y-66657833D02*
X118632875Y-66552279D01*
X118632875Y-66552279D02*
X118781210Y-66434826D01*
X118781210Y-66434826D02*
X118945098Y-66303659D01*
X118945098Y-66303659D02*
X119126841Y-66156962D01*
X119126841Y-66156962D02*
X119328740Y-65992921D01*
X119328740Y-65992921D02*
X119553096Y-65809720D01*
X119553096Y-65809720D02*
X119802212Y-65605543D01*
X119802212Y-65605543D02*
X120078387Y-65378576D01*
X120078387Y-65378576D02*
X120383925Y-65127003D01*
X120383925Y-65127003D02*
X120506066Y-65026340D01*
X120506066Y-65026340D02*
X120837803Y-64754471D01*
X120837803Y-64754471D02*
X121164824Y-64489826D01*
X121164824Y-64489826D02*
X121493414Y-64227464D01*
X121493414Y-64227464D02*
X121829854Y-63962448D01*
X121829854Y-63962448D02*
X122180430Y-63689836D01*
X122180430Y-63689836D02*
X122551425Y-63404691D01*
X122551425Y-63404691D02*
X122949122Y-63102072D01*
X122949122Y-63102072D02*
X123077816Y-63004692D01*
X123077816Y-63004692D02*
X123323888Y-62818936D01*
X123323888Y-62818936D02*
X123539907Y-62656394D01*
X123539907Y-62656394D02*
X123729404Y-62514502D01*
X123729404Y-62514502D02*
X123895908Y-62390697D01*
X123895908Y-62390697D02*
X124042947Y-62282416D01*
X124042947Y-62282416D02*
X124174051Y-62187097D01*
X124174051Y-62187097D02*
X124292749Y-62102175D01*
X124292749Y-62102175D02*
X124402570Y-62025088D01*
X124402570Y-62025088D02*
X124507043Y-61953274D01*
X124507043Y-61953274D02*
X124609698Y-61884167D01*
X124609698Y-61884167D02*
X124714063Y-61815207D01*
X124714063Y-61815207D02*
X124730252Y-61804607D01*
X124730252Y-61804607D02*
X125006855Y-61623688D01*
X125006855Y-61623688D02*
X124988041Y-61458002D01*
X124988041Y-61458002D02*
X124978519Y-61329938D01*
X124978519Y-61329938D02*
X124974416Y-61170530D01*
X124974416Y-61170530D02*
X124975339Y-60990366D01*
X124975339Y-60990366D02*
X124980893Y-60800035D01*
X124980893Y-60800035D02*
X124990687Y-60610124D01*
X124990687Y-60610124D02*
X125004327Y-60431223D01*
X125004327Y-60431223D02*
X125021420Y-60273919D01*
X125021420Y-60273919D02*
X125035452Y-60181066D01*
X125035452Y-60181066D02*
X125124081Y-59782767D01*
X125124081Y-59782767D02*
X125250024Y-59374865D01*
X125250024Y-59374865D02*
X125411102Y-58963007D01*
X125411102Y-58963007D02*
X125605139Y-58552839D01*
X125605139Y-58552839D02*
X125798281Y-58203091D01*
X125798281Y-58203091D02*
X125843131Y-58123249D01*
X125843131Y-58123249D02*
X125876889Y-58055560D01*
X125876889Y-58055560D02*
X125895326Y-58008973D01*
X125895326Y-58008973D02*
X125897045Y-57994124D01*
X125897045Y-57994124D02*
X125881979Y-57973618D01*
X125881979Y-57973618D02*
X125842232Y-57923677D01*
X125842232Y-57923677D02*
X125780296Y-57847328D01*
X125780296Y-57847328D02*
X125698661Y-57747600D01*
X125698661Y-57747600D02*
X125599817Y-57627520D01*
X125599817Y-57627520D02*
X125486255Y-57490118D01*
X125486255Y-57490118D02*
X125360465Y-57338420D01*
X125360465Y-57338420D02*
X125224937Y-57175456D01*
X125224937Y-57175456D02*
X125136676Y-57069566D01*
X125136676Y-57069566D02*
X124973361Y-56873942D01*
X124973361Y-56873942D02*
X124833829Y-56707342D01*
X124833829Y-56707342D02*
X124714827Y-56566213D01*
X124714827Y-56566213D02*
X124613100Y-56447005D01*
X124613100Y-56447005D02*
X124525397Y-56346164D01*
X124525397Y-56346164D02*
X124448465Y-56260138D01*
X124448465Y-56260138D02*
X124379050Y-56185375D01*
X124379050Y-56185375D02*
X124313900Y-56118323D01*
X124313900Y-56118323D02*
X124249762Y-56055429D01*
X124249762Y-56055429D02*
X124183383Y-55993142D01*
X124183383Y-55993142D02*
X124111510Y-55927909D01*
X124111510Y-55927909D02*
X124030890Y-55856178D01*
X124030890Y-55856178D02*
X124002764Y-55831316D01*
X124002764Y-55831316D02*
X123880305Y-55723572D01*
X123880305Y-55723572D02*
X123782916Y-55639505D01*
X123782916Y-55639505D02*
X123704169Y-55574504D01*
X123704169Y-55574504D02*
X123637636Y-55523962D01*
X123637636Y-55523962D02*
X123576890Y-55483270D01*
X123576890Y-55483270D02*
X123515503Y-55447818D01*
X123515503Y-55447818D02*
X123447048Y-55412998D01*
X123447048Y-55412998D02*
X123365633Y-55374449D01*
X123365633Y-55374449D02*
X123025130Y-55195202D01*
X123025130Y-55195202D02*
X122687024Y-54977326D01*
X122687024Y-54977326D02*
X122354620Y-54724515D01*
X122354620Y-54724515D02*
X122031223Y-54440464D01*
X122031223Y-54440464D02*
X121720139Y-54128866D01*
X121720139Y-54128866D02*
X121424671Y-53793417D01*
X121424671Y-53793417D02*
X121148127Y-53437811D01*
X121148127Y-53437811D02*
X120893811Y-53065741D01*
X120893811Y-53065741D02*
X120665028Y-52680903D01*
X120665028Y-52680903D02*
X120465084Y-52286991D01*
X120465084Y-52286991D02*
X120336302Y-51988484D01*
X120336302Y-51988484D02*
X120191226Y-51573760D01*
X120191226Y-51573760D02*
X120074626Y-51131739D01*
X120074626Y-51131739D02*
X119986790Y-50666707D01*
X119986790Y-50666707D02*
X119928006Y-50182949D01*
X119928006Y-50182949D02*
X119898560Y-49684751D01*
X119898560Y-49684751D02*
X119898740Y-49176399D01*
X119898740Y-49176399D02*
X119928833Y-48662178D01*
X119928833Y-48662178D02*
X119989127Y-48146375D01*
X119989127Y-48146375D02*
X120053236Y-47766816D01*
X120053236Y-47766816D02*
X120108568Y-47501665D01*
X120108568Y-47501665D02*
X120173176Y-47237982D01*
X120173176Y-47237982D02*
X120248472Y-46972248D01*
X120248472Y-46972248D02*
X120335867Y-46700942D01*
X120335867Y-46700942D02*
X120436775Y-46420545D01*
X120436775Y-46420545D02*
X120552606Y-46127539D01*
X120552606Y-46127539D02*
X120684772Y-45818403D01*
X120684772Y-45818403D02*
X120834687Y-45489618D01*
X120834687Y-45489618D02*
X121003760Y-45137665D01*
X121003760Y-45137665D02*
X121193405Y-44759024D01*
X121193405Y-44759024D02*
X121405032Y-44350176D01*
X121405032Y-44350176D02*
X121484059Y-44200233D01*
X121484059Y-44200233D02*
X121558337Y-44059004D01*
X121558337Y-44059004D02*
X121647644Y-43887756D01*
X121647644Y-43887756D02*
X121747962Y-43694274D01*
X121747962Y-43694274D02*
X121855273Y-43486347D01*
X121855273Y-43486347D02*
X121965561Y-43271761D01*
X121965561Y-43271761D02*
X122074808Y-43058303D01*
X122074808Y-43058303D02*
X122178998Y-42853761D01*
X122178998Y-42853761D02*
X122199276Y-42813816D01*
X122199276Y-42813816D02*
X122362387Y-42492898D01*
X122362387Y-42492898D02*
X122509372Y-42205025D01*
X122509372Y-42205025D02*
X122642821Y-41945271D01*
X122642821Y-41945271D02*
X122765323Y-41708709D01*
X122765323Y-41708709D02*
X122879468Y-41490413D01*
X122879468Y-41490413D02*
X122987846Y-41285456D01*
X122987846Y-41285456D02*
X123093044Y-41088911D01*
X123093044Y-41088911D02*
X123197654Y-40895853D01*
X123197654Y-40895853D02*
X123304263Y-40701354D01*
X123304263Y-40701354D02*
X123409603Y-40511030D01*
X123409603Y-40511030D02*
X123553934Y-40246409D01*
X123553934Y-40246409D02*
X123713761Y-39944175D01*
X123713761Y-39944175D02*
X123888338Y-39605808D01*
X123888338Y-39605808D02*
X124076915Y-39232789D01*
X124076915Y-39232789D02*
X124278746Y-38826597D01*
X124278746Y-38826597D02*
X124493084Y-38388713D01*
X124493084Y-38388713D02*
X124719180Y-37920616D01*
X124719180Y-37920616D02*
X124747867Y-37860816D01*
X124747867Y-37860816D02*
X124974239Y-37394367D01*
X124974239Y-37394367D02*
X125189542Y-36963004D01*
X125189542Y-36963004D02*
X125396432Y-36561768D01*
X125396432Y-36561768D02*
X125597565Y-36185699D01*
X125597565Y-36185699D02*
X125795600Y-35829837D01*
X125795600Y-35829837D02*
X125993192Y-35489224D01*
X125993192Y-35489224D02*
X126193000Y-35158898D01*
X126193000Y-35158898D02*
X126210679Y-35130316D01*
X126210679Y-35130316D02*
X126473821Y-34709212D01*
X126473821Y-34709212D02*
X126746684Y-34279345D01*
X126746684Y-34279345D02*
X127027314Y-33843531D01*
X127027314Y-33843531D02*
X127313757Y-33404583D01*
X127313757Y-33404583D02*
X127604060Y-32965317D01*
X127604060Y-32965317D02*
X127896268Y-32528548D01*
X127896268Y-32528548D02*
X128188427Y-32097089D01*
X128188427Y-32097089D02*
X128478584Y-31673757D01*
X128478584Y-31673757D02*
X128764784Y-31261365D01*
X128764784Y-31261365D02*
X129045075Y-30862727D01*
X129045075Y-30862727D02*
X129317501Y-30480660D01*
X129317501Y-30480660D02*
X129580108Y-30117977D01*
X129580108Y-30117977D02*
X129830944Y-29777494D01*
X129830944Y-29777494D02*
X130068053Y-29462024D01*
X130068053Y-29462024D02*
X130289483Y-29174382D01*
X130289483Y-29174382D02*
X130493279Y-28917384D01*
X130493279Y-28917384D02*
X130677487Y-28693844D01*
X130677487Y-28693844D02*
X130684904Y-28685066D01*
X130684904Y-28685066D02*
X130834824Y-28513123D01*
X130834824Y-28513123D02*
X131001069Y-28331608D01*
X131001069Y-28331608D02*
X131176119Y-28148158D01*
X131176119Y-28148158D02*
X131352453Y-27970409D01*
X131352453Y-27970409D02*
X131522552Y-27805997D01*
X131522552Y-27805997D02*
X131678895Y-27662557D01*
X131678895Y-27662557D02*
X131766733Y-27586573D01*
X131766733Y-27586573D02*
X131966557Y-27424096D01*
X131966557Y-27424096D02*
X132167535Y-27272078D01*
X132167535Y-27272078D02*
X132374491Y-27127690D01*
X132374491Y-27127690D02*
X132592251Y-26988104D01*
X132592251Y-26988104D02*
X132825638Y-26850492D01*
X132825638Y-26850492D02*
X133079476Y-26712025D01*
X133079476Y-26712025D02*
X133358589Y-26569876D01*
X133358589Y-26569876D02*
X133667803Y-26421214D01*
X133667803Y-26421214D02*
X134011941Y-26263213D01*
X134011941Y-26263213D02*
X134063316Y-26240126D01*
X134063316Y-26240126D02*
X134211070Y-26173831D01*
X134211070Y-26173831D02*
X134340151Y-26115662D01*
X134340151Y-26115662D02*
X134455264Y-26063311D01*
X134455264Y-26063311D02*
X134561113Y-26014470D01*
X134561113Y-26014470D02*
X134662402Y-25966833D01*
X134662402Y-25966833D02*
X134763836Y-25918090D01*
X134763836Y-25918090D02*
X134870119Y-25865936D01*
X134870119Y-25865936D02*
X134985956Y-25808062D01*
X134985956Y-25808062D02*
X135116050Y-25742161D01*
X135116050Y-25742161D02*
X135265107Y-25665924D01*
X135265107Y-25665924D02*
X135437830Y-25577046D01*
X135437830Y-25577046D02*
X135638924Y-25473217D01*
X135638924Y-25473217D02*
X135862917Y-25357395D01*
X135862917Y-25357395D02*
X136370128Y-25097570D01*
X136370128Y-25097570D02*
X136846075Y-24859196D01*
X136846075Y-24859196D02*
X137294891Y-24640507D01*
X137294891Y-24640507D02*
X137720710Y-24439735D01*
X137720710Y-24439735D02*
X138127665Y-24255113D01*
X138127665Y-24255113D02*
X138519891Y-24084874D01*
X138519891Y-24084874D02*
X138901520Y-23927251D01*
X138901520Y-23927251D02*
X139276685Y-23780475D01*
X139276685Y-23780475D02*
X139649521Y-23642781D01*
X139649521Y-23642781D02*
X140024161Y-23512400D01*
X140024161Y-23512400D02*
X140404739Y-23387566D01*
X140404739Y-23387566D02*
X140649606Y-23310913D01*
X140649606Y-23310913D02*
X140949705Y-23218718D01*
X140949705Y-23218718D02*
X141212778Y-23138247D01*
X141212778Y-23138247D02*
X141442208Y-23068598D01*
X141442208Y-23068598D02*
X141641377Y-23008869D01*
X141641377Y-23008869D02*
X141813665Y-22958156D01*
X141813665Y-22958156D02*
X141962454Y-22915557D01*
X141962454Y-22915557D02*
X142091125Y-22880169D01*
X142091125Y-22880169D02*
X142203060Y-22851090D01*
X142203060Y-22851090D02*
X142301641Y-22827416D01*
X142301641Y-22827416D02*
X142390248Y-22808244D01*
X142390248Y-22808244D02*
X142472263Y-22792673D01*
X142472263Y-22792673D02*
X142551067Y-22779798D01*
X142551067Y-22779798D02*
X142630042Y-22768718D01*
X142630042Y-22768718D02*
X142712570Y-22758530D01*
X142712570Y-22758530D02*
X142723280Y-22757277D01*
X142723280Y-22757277D02*
X142800184Y-22748464D01*
X142800184Y-22748464D02*
X142870376Y-22740992D01*
X142870376Y-22740992D02*
X142937757Y-22734819D01*
X142937757Y-22734819D02*
X143006230Y-22729900D01*
X143006230Y-22729900D02*
X143079695Y-22726194D01*
X143079695Y-22726194D02*
X143162054Y-22723655D01*
X143162054Y-22723655D02*
X143257210Y-22722242D01*
X143257210Y-22722242D02*
X143369063Y-22721911D01*
X143369063Y-22721911D02*
X143501516Y-22722619D01*
X143501516Y-22722619D02*
X143501516Y-22722619D01*
M02*
