G04 #@! TF.GenerationSoftware,KiCad,Pcbnew,(5.1.9)-1*
G04 #@! TF.CreationDate,2021-01-16T23:54:46-07:00*
G04 #@! TF.ProjectId,purplewizard,70757270-6c65-4776-997a-6172642e6b69,0.1*
G04 #@! TF.SameCoordinates,PX613b810PYa454c00*
G04 #@! TF.FileFunction,Paste,Top*
G04 #@! TF.FilePolarity,Positive*
%FSLAX46Y46*%
G04 Gerber Fmt 4.6, Leading zero omitted, Abs format (unit mm)*
G04 Created by KiCad (PCBNEW (5.1.9)-1) date 2021-01-16 23:54:46*
%MOMM*%
%LPD*%
G01*
G04 APERTURE LIST*
%ADD10R,1.550000X1.000000*%
%ADD11C,0.100000*%
%ADD12R,1.000000X1.550000*%
G04 APERTURE END LIST*
G36*
G01*
X14066000Y77052884D02*
X14066000Y77565384D01*
G75*
G02*
X14284750Y77784134I218750J0D01*
G01*
X14722250Y77784134D01*
G75*
G02*
X14941000Y77565384I0J-218750D01*
G01*
X14941000Y77052884D01*
G75*
G02*
X14722250Y76834134I-218750J0D01*
G01*
X14284750Y76834134D01*
G75*
G02*
X14066000Y77052884I0J218750D01*
G01*
G37*
G36*
G01*
X12491000Y77052884D02*
X12491000Y77565384D01*
G75*
G02*
X12709750Y77784134I218750J0D01*
G01*
X13147250Y77784134D01*
G75*
G02*
X13366000Y77565384I0J-218750D01*
G01*
X13366000Y77052884D01*
G75*
G02*
X13147250Y76834134I-218750J0D01*
G01*
X12709750Y76834134D01*
G75*
G02*
X12491000Y77052884I0J218750D01*
G01*
G37*
G36*
G01*
X14066000Y70008618D02*
X14066000Y70521118D01*
G75*
G02*
X14284750Y70739868I218750J0D01*
G01*
X14722250Y70739868D01*
G75*
G02*
X14941000Y70521118I0J-218750D01*
G01*
X14941000Y70008618D01*
G75*
G02*
X14722250Y69789868I-218750J0D01*
G01*
X14284750Y69789868D01*
G75*
G02*
X14066000Y70008618I0J218750D01*
G01*
G37*
G36*
G01*
X12491000Y70008618D02*
X12491000Y70521118D01*
G75*
G02*
X12709750Y70739868I218750J0D01*
G01*
X13147250Y70739868D01*
G75*
G02*
X13366000Y70521118I0J-218750D01*
G01*
X13366000Y70008618D01*
G75*
G02*
X13147250Y69789868I-218750J0D01*
G01*
X12709750Y69789868D01*
G75*
G02*
X12491000Y70008618I0J218750D01*
G01*
G37*
G36*
G01*
X78796400Y70817450D02*
X78796400Y70304950D01*
G75*
G02*
X78577650Y70086200I-218750J0D01*
G01*
X78140150Y70086200D01*
G75*
G02*
X77921400Y70304950I0J218750D01*
G01*
X77921400Y70817450D01*
G75*
G02*
X78140150Y71036200I218750J0D01*
G01*
X78577650Y71036200D01*
G75*
G02*
X78796400Y70817450I0J-218750D01*
G01*
G37*
G36*
G01*
X80371400Y70817450D02*
X80371400Y70304950D01*
G75*
G02*
X80152650Y70086200I-218750J0D01*
G01*
X79715150Y70086200D01*
G75*
G02*
X79496400Y70304950I0J218750D01*
G01*
X79496400Y70817450D01*
G75*
G02*
X79715150Y71036200I218750J0D01*
G01*
X80152650Y71036200D01*
G75*
G02*
X80371400Y70817450I0J-218750D01*
G01*
G37*
G36*
G01*
X35721628Y48414650D02*
X35721628Y47902150D01*
G75*
G02*
X35502878Y47683400I-218750J0D01*
G01*
X35065378Y47683400D01*
G75*
G02*
X34846628Y47902150I0J218750D01*
G01*
X34846628Y48414650D01*
G75*
G02*
X35065378Y48633400I218750J0D01*
G01*
X35502878Y48633400D01*
G75*
G02*
X35721628Y48414650I0J-218750D01*
G01*
G37*
G36*
G01*
X37296628Y48414650D02*
X37296628Y47902150D01*
G75*
G02*
X37077878Y47683400I-218750J0D01*
G01*
X36640378Y47683400D01*
G75*
G02*
X36421628Y47902150I0J218750D01*
G01*
X36421628Y48414650D01*
G75*
G02*
X36640378Y48633400I218750J0D01*
G01*
X37077878Y48633400D01*
G75*
G02*
X37296628Y48414650I0J-218750D01*
G01*
G37*
G36*
G01*
X32520000Y130713750D02*
X32520000Y131226250D01*
G75*
G02*
X32738750Y131445000I218750J0D01*
G01*
X33176250Y131445000D01*
G75*
G02*
X33395000Y131226250I0J-218750D01*
G01*
X33395000Y130713750D01*
G75*
G02*
X33176250Y130495000I-218750J0D01*
G01*
X32738750Y130495000D01*
G75*
G02*
X32520000Y130713750I0J218750D01*
G01*
G37*
G36*
G01*
X30945000Y130713750D02*
X30945000Y131226250D01*
G75*
G02*
X31163750Y131445000I218750J0D01*
G01*
X31601250Y131445000D01*
G75*
G02*
X31820000Y131226250I0J-218750D01*
G01*
X31820000Y130713750D01*
G75*
G02*
X31601250Y130495000I-218750J0D01*
G01*
X31163750Y130495000D01*
G75*
G02*
X30945000Y130713750I0J218750D01*
G01*
G37*
G36*
G01*
X14040600Y62964350D02*
X14040600Y63476850D01*
G75*
G02*
X14259350Y63695600I218750J0D01*
G01*
X14696850Y63695600D01*
G75*
G02*
X14915600Y63476850I0J-218750D01*
G01*
X14915600Y62964350D01*
G75*
G02*
X14696850Y62745600I-218750J0D01*
G01*
X14259350Y62745600D01*
G75*
G02*
X14040600Y62964350I0J218750D01*
G01*
G37*
G36*
G01*
X12465600Y62964350D02*
X12465600Y63476850D01*
G75*
G02*
X12684350Y63695600I218750J0D01*
G01*
X13121850Y63695600D01*
G75*
G02*
X13340600Y63476850I0J-218750D01*
G01*
X13340600Y62964350D01*
G75*
G02*
X13121850Y62745600I-218750J0D01*
G01*
X12684350Y62745600D01*
G75*
G02*
X12465600Y62964350I0J218750D01*
G01*
G37*
G36*
G01*
X63310000Y130653750D02*
X63310000Y131166250D01*
G75*
G02*
X63528750Y131385000I218750J0D01*
G01*
X63966250Y131385000D01*
G75*
G02*
X64185000Y131166250I0J-218750D01*
G01*
X64185000Y130653750D01*
G75*
G02*
X63966250Y130435000I-218750J0D01*
G01*
X63528750Y130435000D01*
G75*
G02*
X63310000Y130653750I0J218750D01*
G01*
G37*
G36*
G01*
X61735000Y130653750D02*
X61735000Y131166250D01*
G75*
G02*
X61953750Y131385000I218750J0D01*
G01*
X62391250Y131385000D01*
G75*
G02*
X62610000Y131166250I0J-218750D01*
G01*
X62610000Y130653750D01*
G75*
G02*
X62391250Y130435000I-218750J0D01*
G01*
X61953750Y130435000D01*
G75*
G02*
X61735000Y130653750I0J218750D01*
G01*
G37*
G36*
G01*
X14066000Y84097150D02*
X14066000Y84609650D01*
G75*
G02*
X14284750Y84828400I218750J0D01*
G01*
X14722250Y84828400D01*
G75*
G02*
X14941000Y84609650I0J-218750D01*
G01*
X14941000Y84097150D01*
G75*
G02*
X14722250Y83878400I-218750J0D01*
G01*
X14284750Y83878400D01*
G75*
G02*
X14066000Y84097150I0J218750D01*
G01*
G37*
G36*
G01*
X12491000Y84097150D02*
X12491000Y84609650D01*
G75*
G02*
X12709750Y84828400I218750J0D01*
G01*
X13147250Y84828400D01*
G75*
G02*
X13366000Y84609650I0J-218750D01*
G01*
X13366000Y84097150D01*
G75*
G02*
X13147250Y83878400I-218750J0D01*
G01*
X12709750Y83878400D01*
G75*
G02*
X12491000Y84097150I0J218750D01*
G01*
G37*
G36*
G01*
X28722114Y48414650D02*
X28722114Y47902150D01*
G75*
G02*
X28503364Y47683400I-218750J0D01*
G01*
X28065864Y47683400D01*
G75*
G02*
X27847114Y47902150I0J218750D01*
G01*
X27847114Y48414650D01*
G75*
G02*
X28065864Y48633400I218750J0D01*
G01*
X28503364Y48633400D01*
G75*
G02*
X28722114Y48414650I0J-218750D01*
G01*
G37*
G36*
G01*
X30297114Y48414650D02*
X30297114Y47902150D01*
G75*
G02*
X30078364Y47683400I-218750J0D01*
G01*
X29640864Y47683400D01*
G75*
G02*
X29422114Y47902150I0J218750D01*
G01*
X29422114Y48414650D01*
G75*
G02*
X29640864Y48633400I218750J0D01*
G01*
X30078364Y48633400D01*
G75*
G02*
X30297114Y48414650I0J-218750D01*
G01*
G37*
G36*
G01*
X63719684Y48414650D02*
X63719684Y47902150D01*
G75*
G02*
X63500934Y47683400I-218750J0D01*
G01*
X63063434Y47683400D01*
G75*
G02*
X62844684Y47902150I0J218750D01*
G01*
X62844684Y48414650D01*
G75*
G02*
X63063434Y48633400I218750J0D01*
G01*
X63500934Y48633400D01*
G75*
G02*
X63719684Y48414650I0J-218750D01*
G01*
G37*
G36*
G01*
X65294684Y48414650D02*
X65294684Y47902150D01*
G75*
G02*
X65075934Y47683400I-218750J0D01*
G01*
X64638434Y47683400D01*
G75*
G02*
X64419684Y47902150I0J218750D01*
G01*
X64419684Y48414650D01*
G75*
G02*
X64638434Y48633400I218750J0D01*
G01*
X65075934Y48633400D01*
G75*
G02*
X65294684Y48414650I0J-218750D01*
G01*
G37*
G36*
G01*
X49720656Y48414650D02*
X49720656Y47902150D01*
G75*
G02*
X49501906Y47683400I-218750J0D01*
G01*
X49064406Y47683400D01*
G75*
G02*
X48845656Y47902150I0J218750D01*
G01*
X48845656Y48414650D01*
G75*
G02*
X49064406Y48633400I218750J0D01*
G01*
X49501906Y48633400D01*
G75*
G02*
X49720656Y48414650I0J-218750D01*
G01*
G37*
G36*
G01*
X51295656Y48414650D02*
X51295656Y47902150D01*
G75*
G02*
X51076906Y47683400I-218750J0D01*
G01*
X50639406Y47683400D01*
G75*
G02*
X50420656Y47902150I0J218750D01*
G01*
X50420656Y48414650D01*
G75*
G02*
X50639406Y48633400I218750J0D01*
G01*
X51076906Y48633400D01*
G75*
G02*
X51295656Y48414650I0J-218750D01*
G01*
G37*
G36*
G01*
X21722600Y48414650D02*
X21722600Y47902150D01*
G75*
G02*
X21503850Y47683400I-218750J0D01*
G01*
X21066350Y47683400D01*
G75*
G02*
X20847600Y47902150I0J218750D01*
G01*
X20847600Y48414650D01*
G75*
G02*
X21066350Y48633400I218750J0D01*
G01*
X21503850Y48633400D01*
G75*
G02*
X21722600Y48414650I0J-218750D01*
G01*
G37*
G36*
G01*
X23297600Y48414650D02*
X23297600Y47902150D01*
G75*
G02*
X23078850Y47683400I-218750J0D01*
G01*
X22641350Y47683400D01*
G75*
G02*
X22422600Y47902150I0J218750D01*
G01*
X22422600Y48414650D01*
G75*
G02*
X22641350Y48633400I218750J0D01*
G01*
X23078850Y48633400D01*
G75*
G02*
X23297600Y48414650I0J-218750D01*
G01*
G37*
G36*
G01*
X78796400Y77878650D02*
X78796400Y77366150D01*
G75*
G02*
X78577650Y77147400I-218750J0D01*
G01*
X78140150Y77147400D01*
G75*
G02*
X77921400Y77366150I0J218750D01*
G01*
X77921400Y77878650D01*
G75*
G02*
X78140150Y78097400I218750J0D01*
G01*
X78577650Y78097400D01*
G75*
G02*
X78796400Y77878650I0J-218750D01*
G01*
G37*
G36*
G01*
X80371400Y77878650D02*
X80371400Y77366150D01*
G75*
G02*
X80152650Y77147400I-218750J0D01*
G01*
X79715150Y77147400D01*
G75*
G02*
X79496400Y77366150I0J218750D01*
G01*
X79496400Y77878650D01*
G75*
G02*
X79715150Y78097400I218750J0D01*
G01*
X80152650Y78097400D01*
G75*
G02*
X80371400Y77878650I0J-218750D01*
G01*
G37*
G36*
G01*
X56720170Y48414650D02*
X56720170Y47902150D01*
G75*
G02*
X56501420Y47683400I-218750J0D01*
G01*
X56063920Y47683400D01*
G75*
G02*
X55845170Y47902150I0J218750D01*
G01*
X55845170Y48414650D01*
G75*
G02*
X56063920Y48633400I218750J0D01*
G01*
X56501420Y48633400D01*
G75*
G02*
X56720170Y48414650I0J-218750D01*
G01*
G37*
G36*
G01*
X58295170Y48414650D02*
X58295170Y47902150D01*
G75*
G02*
X58076420Y47683400I-218750J0D01*
G01*
X57638920Y47683400D01*
G75*
G02*
X57420170Y47902150I0J218750D01*
G01*
X57420170Y48414650D01*
G75*
G02*
X57638920Y48633400I218750J0D01*
G01*
X58076420Y48633400D01*
G75*
G02*
X58295170Y48414650I0J-218750D01*
G01*
G37*
G36*
G01*
X78796400Y84939850D02*
X78796400Y84427350D01*
G75*
G02*
X78577650Y84208600I-218750J0D01*
G01*
X78140150Y84208600D01*
G75*
G02*
X77921400Y84427350I0J218750D01*
G01*
X77921400Y84939850D01*
G75*
G02*
X78140150Y85158600I218750J0D01*
G01*
X78577650Y85158600D01*
G75*
G02*
X78796400Y84939850I0J-218750D01*
G01*
G37*
G36*
G01*
X80371400Y84939850D02*
X80371400Y84427350D01*
G75*
G02*
X80152650Y84208600I-218750J0D01*
G01*
X79715150Y84208600D01*
G75*
G02*
X79496400Y84427350I0J218750D01*
G01*
X79496400Y84939850D01*
G75*
G02*
X79715150Y85158600I218750J0D01*
G01*
X80152650Y85158600D01*
G75*
G02*
X80371400Y84939850I0J-218750D01*
G01*
G37*
G36*
G01*
X54629800Y132839750D02*
X54629800Y133352250D01*
G75*
G02*
X54848550Y133571000I218750J0D01*
G01*
X55286050Y133571000D01*
G75*
G02*
X55504800Y133352250I0J-218750D01*
G01*
X55504800Y132839750D01*
G75*
G02*
X55286050Y132621000I-218750J0D01*
G01*
X54848550Y132621000D01*
G75*
G02*
X54629800Y132839750I0J218750D01*
G01*
G37*
G36*
G01*
X53054800Y132839750D02*
X53054800Y133352250D01*
G75*
G02*
X53273550Y133571000I218750J0D01*
G01*
X53711050Y133571000D01*
G75*
G02*
X53929800Y133352250I0J-218750D01*
G01*
X53929800Y132839750D01*
G75*
G02*
X53711050Y132621000I-218750J0D01*
G01*
X53273550Y132621000D01*
G75*
G02*
X53054800Y132839750I0J218750D01*
G01*
G37*
D10*
X9985000Y71186260D03*
X9985000Y74386260D03*
X4735000Y74386260D03*
X4735000Y71186260D03*
D11*
G36*
X63118071Y19414715D02*
G01*
X61845279Y20687507D01*
X63259493Y22101721D01*
X64532285Y20828929D01*
X63118071Y19414715D01*
G37*
G36*
X57390507Y25142279D02*
G01*
X56117715Y26415071D01*
X57531929Y27829285D01*
X58804721Y26556493D01*
X57390507Y25142279D01*
G37*
G36*
X63736790Y24311430D02*
G01*
X63029684Y25018536D01*
X63984278Y25973130D01*
X64691384Y25266024D01*
X63736790Y24311430D01*
G37*
G36*
X61721536Y26326684D02*
G01*
X61014430Y27033790D01*
X61969024Y27988384D01*
X62676130Y27281278D01*
X61721536Y26326684D01*
G37*
G36*
X62729163Y25319057D02*
G01*
X62022057Y26026163D01*
X62976651Y26980757D01*
X63683757Y26273651D01*
X62729163Y25319057D01*
G37*
G36*
X58680976Y19255616D02*
G01*
X57973870Y19962722D01*
X58928464Y20917316D01*
X59635570Y20210210D01*
X58680976Y19255616D01*
G37*
G36*
X56665722Y21270870D02*
G01*
X55958616Y21977976D01*
X56913210Y22932570D01*
X57620316Y22225464D01*
X56665722Y21270870D01*
G37*
G36*
X57673349Y20263243D02*
G01*
X56966243Y20970349D01*
X57920837Y21924943D01*
X58627943Y21217837D01*
X57673349Y20263243D01*
G37*
D12*
X44620342Y45017600D03*
X41420342Y45017600D03*
X41420342Y39767600D03*
X44620342Y39767600D03*
D10*
X88218720Y85140200D03*
X88218720Y88340200D03*
X82968720Y88340200D03*
X82968720Y85140200D03*
X88218720Y78132954D03*
X88218720Y81332954D03*
X82968720Y81332954D03*
X82968720Y78132954D03*
D11*
G36*
X34720871Y19414715D02*
G01*
X33448079Y20687507D01*
X34862293Y22101721D01*
X36135085Y20828929D01*
X34720871Y19414715D01*
G37*
G36*
X28993307Y25142279D02*
G01*
X27720515Y26415071D01*
X29134729Y27829285D01*
X30407521Y26556493D01*
X28993307Y25142279D01*
G37*
G36*
X35339590Y24311430D02*
G01*
X34632484Y25018536D01*
X35587078Y25973130D01*
X36294184Y25266024D01*
X35339590Y24311430D01*
G37*
G36*
X33324336Y26326684D02*
G01*
X32617230Y27033790D01*
X33571824Y27988384D01*
X34278930Y27281278D01*
X33324336Y26326684D01*
G37*
G36*
X34331963Y25319057D02*
G01*
X33624857Y26026163D01*
X34579451Y26980757D01*
X35286557Y26273651D01*
X34331963Y25319057D01*
G37*
G36*
X30283776Y19255616D02*
G01*
X29576670Y19962722D01*
X30531264Y20917316D01*
X31238370Y20210210D01*
X30283776Y19255616D01*
G37*
G36*
X28268522Y21270870D02*
G01*
X27561416Y21977976D01*
X28516010Y22932570D01*
X29223116Y22225464D01*
X28268522Y21270870D01*
G37*
G36*
X29276149Y20263243D02*
G01*
X28569043Y20970349D01*
X29523637Y21924943D01*
X30230743Y21217837D01*
X29276149Y20263243D01*
G37*
D12*
X72557440Y45017600D03*
X69357440Y45017600D03*
X69357440Y39767600D03*
X72557440Y39767600D03*
X65573164Y45017600D03*
X62373164Y45017600D03*
X62373164Y39767600D03*
X65573164Y39767600D03*
X58588890Y45017600D03*
X55388890Y45017600D03*
X55388890Y39767600D03*
X58588890Y39767600D03*
D10*
X9985000Y64200000D03*
X9985000Y67400000D03*
X4735000Y67400000D03*
X4735000Y64200000D03*
D12*
X30651794Y45017600D03*
X27451794Y45017600D03*
X27451794Y39767600D03*
X30651794Y39767600D03*
D10*
X88218720Y71125708D03*
X88218720Y74325708D03*
X82968720Y74325708D03*
X82968720Y71125708D03*
X88218720Y64118460D03*
X88218720Y67318460D03*
X82968720Y67318460D03*
X82968720Y64118460D03*
X9985000Y78172520D03*
X9985000Y81372520D03*
X4735000Y81372520D03*
X4735000Y78172520D03*
D12*
X51604616Y45017600D03*
X48404616Y45017600D03*
X48404616Y39767600D03*
X51604616Y39767600D03*
X23667520Y45017600D03*
X20467520Y45017600D03*
X20467520Y39767600D03*
X23667520Y39767600D03*
D10*
X9985000Y85158780D03*
X9985000Y88358780D03*
X4735000Y88358780D03*
X4735000Y85158780D03*
D12*
X37636068Y45017600D03*
X34436068Y45017600D03*
X34436068Y39767600D03*
X37636068Y39767600D03*
G36*
G01*
X42721142Y48414650D02*
X42721142Y47902150D01*
G75*
G02*
X42502392Y47683400I-218750J0D01*
G01*
X42064892Y47683400D01*
G75*
G02*
X41846142Y47902150I0J218750D01*
G01*
X41846142Y48414650D01*
G75*
G02*
X42064892Y48633400I218750J0D01*
G01*
X42502392Y48633400D01*
G75*
G02*
X42721142Y48414650I0J-218750D01*
G01*
G37*
G36*
G01*
X44296142Y48414650D02*
X44296142Y47902150D01*
G75*
G02*
X44077392Y47683400I-218750J0D01*
G01*
X43639892Y47683400D01*
G75*
G02*
X43421142Y47902150I0J218750D01*
G01*
X43421142Y48414650D01*
G75*
G02*
X43639892Y48633400I218750J0D01*
G01*
X44077392Y48633400D01*
G75*
G02*
X44296142Y48414650I0J-218750D01*
G01*
G37*
G36*
G01*
X78745600Y63756250D02*
X78745600Y63243750D01*
G75*
G02*
X78526850Y63025000I-218750J0D01*
G01*
X78089350Y63025000D01*
G75*
G02*
X77870600Y63243750I0J218750D01*
G01*
X77870600Y63756250D01*
G75*
G02*
X78089350Y63975000I218750J0D01*
G01*
X78526850Y63975000D01*
G75*
G02*
X78745600Y63756250I0J-218750D01*
G01*
G37*
G36*
G01*
X80320600Y63756250D02*
X80320600Y63243750D01*
G75*
G02*
X80101850Y63025000I-218750J0D01*
G01*
X79664350Y63025000D01*
G75*
G02*
X79445600Y63243750I0J218750D01*
G01*
X79445600Y63756250D01*
G75*
G02*
X79664350Y63975000I218750J0D01*
G01*
X80101850Y63975000D01*
G75*
G02*
X80320600Y63756250I0J-218750D01*
G01*
G37*
G36*
G01*
X70719200Y48414650D02*
X70719200Y47902150D01*
G75*
G02*
X70500450Y47683400I-218750J0D01*
G01*
X70062950Y47683400D01*
G75*
G02*
X69844200Y47902150I0J218750D01*
G01*
X69844200Y48414650D01*
G75*
G02*
X70062950Y48633400I218750J0D01*
G01*
X70500450Y48633400D01*
G75*
G02*
X70719200Y48414650I0J-218750D01*
G01*
G37*
G36*
G01*
X72294200Y48414650D02*
X72294200Y47902150D01*
G75*
G02*
X72075450Y47683400I-218750J0D01*
G01*
X71637950Y47683400D01*
G75*
G02*
X71419200Y47902150I0J218750D01*
G01*
X71419200Y48414650D01*
G75*
G02*
X71637950Y48633400I218750J0D01*
G01*
X72075450Y48633400D01*
G75*
G02*
X72294200Y48414650I0J-218750D01*
G01*
G37*
M02*
