G04 #@! TF.GenerationSoftware,KiCad,Pcbnew,(5.1.5)-3*
G04 #@! TF.CreationDate,2021-01-15T00:49:49-07:00*
G04 #@! TF.ProjectId,purplewizard,70757270-6c65-4776-997a-6172642e6b69,0.1*
G04 #@! TF.SameCoordinates,PX613b810PYa454c00*
G04 #@! TF.FileFunction,Other,User*
%FSLAX46Y46*%
G04 Gerber Fmt 4.6, Leading zero omitted, Abs format (unit mm)*
G04 Created by KiCad (PCBNEW (5.1.5)-3) date 2021-01-15 00:49:49*
%MOMM*%
%LPD*%
G04 APERTURE LIST*
%ADD10C,0.120000*%
%ADD11C,0.050000*%
G04 APERTURE END LIST*
D10*
X38298200Y149153000D02*
X38298200Y140153000D01*
X53548200Y149153000D02*
X38298200Y149153000D01*
X53548200Y140153000D02*
X53548200Y149153000D01*
X38298200Y140153000D02*
X53548200Y140153000D01*
X39923200Y147603000D02*
X39923200Y141703000D01*
X51923200Y147603000D02*
X39923200Y147603000D01*
X51923200Y141703000D02*
X51923200Y147603000D01*
X39923200Y141703000D02*
X51923200Y141703000D01*
D11*
X6980000Y93340000D02*
G75*
G03X6980000Y93340000I-1250000J0D01*
G01*
X80660000Y6550000D02*
G75*
G03X80660000Y6550000I-1250000J0D01*
G01*
X15196000Y76579134D02*
X12236000Y76579134D01*
X15196000Y78039134D02*
X15196000Y76579134D01*
X12236000Y78039134D02*
X15196000Y78039134D01*
X12236000Y76579134D02*
X12236000Y78039134D01*
X15196000Y69534868D02*
X12236000Y69534868D01*
X15196000Y70994868D02*
X15196000Y69534868D01*
X12236000Y70994868D02*
X15196000Y70994868D01*
X12236000Y69534868D02*
X12236000Y70994868D01*
X77666400Y71291200D02*
X80626400Y71291200D01*
X77666400Y69831200D02*
X77666400Y71291200D01*
X80626400Y69831200D02*
X77666400Y69831200D01*
X80626400Y71291200D02*
X80626400Y69831200D01*
X34591628Y48888400D02*
X37551628Y48888400D01*
X34591628Y47428400D02*
X34591628Y48888400D01*
X37551628Y47428400D02*
X34591628Y47428400D01*
X37551628Y48888400D02*
X37551628Y47428400D01*
X33650000Y130240000D02*
X30690000Y130240000D01*
X33650000Y131700000D02*
X33650000Y130240000D01*
X30690000Y131700000D02*
X33650000Y131700000D01*
X30690000Y130240000D02*
X30690000Y131700000D01*
X15170600Y62490600D02*
X12210600Y62490600D01*
X15170600Y63950600D02*
X15170600Y62490600D01*
X12210600Y63950600D02*
X15170600Y63950600D01*
X12210600Y62490600D02*
X12210600Y63950600D01*
X64440000Y130180000D02*
X61480000Y130180000D01*
X64440000Y131640000D02*
X64440000Y130180000D01*
X61480000Y131640000D02*
X64440000Y131640000D01*
X61480000Y130180000D02*
X61480000Y131640000D01*
X15196000Y83623400D02*
X12236000Y83623400D01*
X15196000Y85083400D02*
X15196000Y83623400D01*
X12236000Y85083400D02*
X15196000Y85083400D01*
X12236000Y83623400D02*
X12236000Y85083400D01*
X27592114Y48888400D02*
X30552114Y48888400D01*
X27592114Y47428400D02*
X27592114Y48888400D01*
X30552114Y47428400D02*
X27592114Y47428400D01*
X30552114Y48888400D02*
X30552114Y47428400D01*
X62589684Y48888400D02*
X65549684Y48888400D01*
X62589684Y47428400D02*
X62589684Y48888400D01*
X65549684Y47428400D02*
X62589684Y47428400D01*
X65549684Y48888400D02*
X65549684Y47428400D01*
X48590656Y48888400D02*
X51550656Y48888400D01*
X48590656Y47428400D02*
X48590656Y48888400D01*
X51550656Y47428400D02*
X48590656Y47428400D01*
X51550656Y48888400D02*
X51550656Y47428400D01*
X20592600Y48888400D02*
X23552600Y48888400D01*
X20592600Y47428400D02*
X20592600Y48888400D01*
X23552600Y47428400D02*
X20592600Y47428400D01*
X23552600Y48888400D02*
X23552600Y47428400D01*
X77666400Y78352400D02*
X80626400Y78352400D01*
X77666400Y76892400D02*
X77666400Y78352400D01*
X80626400Y76892400D02*
X77666400Y76892400D01*
X80626400Y78352400D02*
X80626400Y76892400D01*
X55590170Y48888400D02*
X58550170Y48888400D01*
X55590170Y47428400D02*
X55590170Y48888400D01*
X58550170Y47428400D02*
X55590170Y47428400D01*
X58550170Y48888400D02*
X58550170Y47428400D01*
X77666400Y85413600D02*
X80626400Y85413600D01*
X77666400Y83953600D02*
X77666400Y85413600D01*
X80626400Y83953600D02*
X77666400Y83953600D01*
X80626400Y85413600D02*
X80626400Y83953600D01*
X55759800Y132366000D02*
X52799800Y132366000D01*
X55759800Y133826000D02*
X55759800Y132366000D01*
X52799800Y133826000D02*
X55759800Y133826000D01*
X52799800Y132366000D02*
X52799800Y133826000D01*
X3610000Y76186260D02*
X11110000Y76186260D01*
X3610000Y69386260D02*
X11110000Y69386260D01*
X3610000Y76186260D02*
X3610000Y69386260D01*
X11110000Y69386260D02*
X11110000Y76186260D01*
D10*
X61486077Y23622000D02*
G75*
G03X61486077Y23622000I-1161077J0D01*
G01*
X53784262Y24152330D02*
X60855330Y17081262D01*
X59794670Y30162738D02*
X53784262Y24152330D01*
X66865738Y23091670D02*
X59794670Y30162738D01*
X60855330Y17081262D02*
X66865738Y23091670D01*
D11*
X39620342Y38642600D02*
X39620342Y46142600D01*
X46420342Y38642600D02*
X46420342Y46142600D01*
X39620342Y38642600D02*
X46420342Y38642600D01*
X46420342Y46142600D02*
X39620342Y46142600D01*
X81843720Y90140200D02*
X89343720Y90140200D01*
X81843720Y83340200D02*
X89343720Y83340200D01*
X81843720Y90140200D02*
X81843720Y83340200D01*
X89343720Y83340200D02*
X89343720Y90140200D01*
X81843720Y83132954D02*
X89343720Y83132954D01*
X81843720Y76332954D02*
X89343720Y76332954D01*
X81843720Y83132954D02*
X81843720Y76332954D01*
X89343720Y76332954D02*
X89343720Y83132954D01*
D10*
X33088877Y23622000D02*
G75*
G03X33088877Y23622000I-1161077J0D01*
G01*
X25387062Y24152330D02*
X32458130Y17081262D01*
X31397470Y30162738D02*
X25387062Y24152330D01*
X38468538Y23091670D02*
X31397470Y30162738D01*
X32458130Y17081262D02*
X38468538Y23091670D01*
D11*
X67557440Y38642600D02*
X67557440Y46142600D01*
X74357440Y38642600D02*
X74357440Y46142600D01*
X67557440Y38642600D02*
X74357440Y38642600D01*
X74357440Y46142600D02*
X67557440Y46142600D01*
X60573164Y38642600D02*
X60573164Y46142600D01*
X67373164Y38642600D02*
X67373164Y46142600D01*
X60573164Y38642600D02*
X67373164Y38642600D01*
X67373164Y46142600D02*
X60573164Y46142600D01*
X53588890Y38642600D02*
X53588890Y46142600D01*
X60388890Y38642600D02*
X60388890Y46142600D01*
X53588890Y38642600D02*
X60388890Y38642600D01*
X60388890Y46142600D02*
X53588890Y46142600D01*
X3610000Y69200000D02*
X11110000Y69200000D01*
X3610000Y62400000D02*
X11110000Y62400000D01*
X3610000Y69200000D02*
X3610000Y62400000D01*
X11110000Y62400000D02*
X11110000Y69200000D01*
X25651794Y38642600D02*
X25651794Y46142600D01*
X32451794Y38642600D02*
X32451794Y46142600D01*
X25651794Y38642600D02*
X32451794Y38642600D01*
X32451794Y46142600D02*
X25651794Y46142600D01*
X81843720Y76125708D02*
X89343720Y76125708D01*
X81843720Y69325708D02*
X89343720Y69325708D01*
X81843720Y76125708D02*
X81843720Y69325708D01*
X89343720Y69325708D02*
X89343720Y76125708D01*
X81843720Y69118460D02*
X89343720Y69118460D01*
X81843720Y62318460D02*
X89343720Y62318460D01*
X81843720Y69118460D02*
X81843720Y62318460D01*
X89343720Y62318460D02*
X89343720Y69118460D01*
X3610000Y83172520D02*
X11110000Y83172520D01*
X3610000Y76372520D02*
X11110000Y76372520D01*
X3610000Y83172520D02*
X3610000Y76372520D01*
X11110000Y76372520D02*
X11110000Y83172520D01*
X46604616Y38642600D02*
X46604616Y46142600D01*
X53404616Y38642600D02*
X53404616Y46142600D01*
X46604616Y38642600D02*
X53404616Y38642600D01*
X53404616Y46142600D02*
X46604616Y46142600D01*
X18667520Y38642600D02*
X18667520Y46142600D01*
X25467520Y38642600D02*
X25467520Y46142600D01*
X18667520Y38642600D02*
X25467520Y38642600D01*
X25467520Y46142600D02*
X18667520Y46142600D01*
X3610000Y90158780D02*
X11110000Y90158780D01*
X3610000Y83358780D02*
X11110000Y83358780D01*
X3610000Y90158780D02*
X3610000Y83358780D01*
X11110000Y83358780D02*
X11110000Y90158780D01*
X32636068Y38642600D02*
X32636068Y46142600D01*
X39436068Y38642600D02*
X39436068Y46142600D01*
X32636068Y38642600D02*
X39436068Y38642600D01*
X39436068Y46142600D02*
X32636068Y46142600D01*
X41591142Y48888400D02*
X44551142Y48888400D01*
X41591142Y47428400D02*
X41591142Y48888400D01*
X44551142Y47428400D02*
X41591142Y47428400D01*
X44551142Y48888400D02*
X44551142Y47428400D01*
X77615600Y64230000D02*
X80575600Y64230000D01*
X77615600Y62770000D02*
X77615600Y64230000D01*
X80575600Y62770000D02*
X77615600Y62770000D01*
X80575600Y64230000D02*
X80575600Y62770000D01*
X69589200Y48888400D02*
X72549200Y48888400D01*
X69589200Y47428400D02*
X69589200Y48888400D01*
X72549200Y47428400D02*
X69589200Y47428400D01*
X72549200Y48888400D02*
X72549200Y47428400D01*
X59448800Y1857600D02*
X33048800Y1857600D01*
X59448800Y7957600D02*
X59448800Y1857600D01*
X33048800Y7957600D02*
X59448800Y7957600D01*
X33048800Y1857600D02*
X33048800Y7957600D01*
M02*
