G04 #@! TF.GenerationSoftware,KiCad,Pcbnew,(5.1.9)-1*
G04 #@! TF.CreationDate,2021-01-16T22:32:26-07:00*
G04 #@! TF.ProjectId,purplewizard-pogo,70757270-6c65-4776-997a-6172642d706f,1*
G04 #@! TF.SameCoordinates,Original*
G04 #@! TF.FileFunction,Copper,L1,Top*
G04 #@! TF.FilePolarity,Positive*
%FSLAX46Y46*%
G04 Gerber Fmt 4.6, Leading zero omitted, Abs format (unit mm)*
G04 Created by KiCad (PCBNEW (5.1.9)-1) date 2021-01-16 22:32:26*
%MOMM*%
%LPD*%
G01*
G04 APERTURE LIST*
G04 #@! TA.AperFunction,ComponentPad*
%ADD10C,2.200000*%
G04 #@! TD*
G04 #@! TA.AperFunction,SMDPad,CuDef*
%ADD11R,2.500000X1.250000*%
G04 #@! TD*
G04 #@! TA.AperFunction,ConnectorPad*
%ADD12C,0.784860*%
G04 #@! TD*
G04 #@! TA.AperFunction,ComponentPad*
%ADD13R,1.000000X1.000000*%
G04 #@! TD*
G04 #@! TA.AperFunction,ComponentPad*
%ADD14O,1.000000X1.000000*%
G04 #@! TD*
G04 #@! TA.AperFunction,ComponentPad*
%ADD15O,1.300000X2.600000*%
G04 #@! TD*
G04 #@! TA.AperFunction,ComponentPad*
%ADD16O,1.100000X2.200000*%
G04 #@! TD*
G04 #@! TA.AperFunction,ComponentPad*
%ADD17O,1.700000X1.700000*%
G04 #@! TD*
G04 #@! TA.AperFunction,ComponentPad*
%ADD18R,1.700000X1.700000*%
G04 #@! TD*
G04 #@! TA.AperFunction,ViaPad*
%ADD19C,0.800000*%
G04 #@! TD*
G04 #@! TA.AperFunction,Conductor*
%ADD20C,0.381000*%
G04 #@! TD*
G04 #@! TA.AperFunction,Conductor*
%ADD21C,0.254000*%
G04 #@! TD*
G04 #@! TA.AperFunction,Conductor*
%ADD22C,0.177800*%
G04 #@! TD*
G04 #@! TA.AperFunction,Conductor*
%ADD23C,0.508000*%
G04 #@! TD*
G04 APERTURE END LIST*
G04 #@! TA.AperFunction,WasherPad*
G36*
G01*
X186005600Y-169993600D02*
X186005600Y-145493600D01*
G75*
G02*
X187255600Y-144243600I1250000J0D01*
G01*
X189755600Y-144243600D01*
G75*
G02*
X191005600Y-145493600I0J-1250000D01*
G01*
X191005600Y-169993600D01*
G75*
G02*
X189755600Y-171243600I-1250000J0D01*
G01*
X187255600Y-171243600D01*
G75*
G02*
X186005600Y-169993600I0J1250000D01*
G01*
G37*
G04 #@! TD.AperFunction*
D10*
X214655600Y-58703600D03*
X214655600Y-62036933D03*
X214655600Y-68703600D03*
X214635600Y-65363600D03*
X165955600Y-51605600D03*
X165955600Y-43991600D03*
X165955600Y-49067600D03*
X128943600Y-52273600D03*
X165955600Y-41453600D03*
X165955600Y-46529600D03*
X165955600Y-54143600D03*
X128943600Y-59463600D03*
X128943600Y-55868600D03*
X200095600Y-53153600D03*
X200115600Y-49523600D03*
X200115600Y-45893600D03*
X195785600Y-99423600D03*
X195785600Y-95783600D03*
X195785600Y-92143600D03*
D11*
X209865600Y-163233600D03*
X209865600Y-165733600D03*
X209865600Y-168233600D03*
D12*
X135295600Y-161008600D03*
X135295600Y-159738600D03*
X136565600Y-161008600D03*
X136565600Y-159738600D03*
X137835600Y-161008600D03*
X137835600Y-159738600D03*
X134025600Y-159738600D03*
X134025600Y-161008600D03*
X132755600Y-159738600D03*
X132755600Y-161008600D03*
D13*
X137175600Y-170153600D03*
D14*
X137175600Y-171423600D03*
X135905600Y-170353600D03*
X135905600Y-171623600D03*
X134635600Y-170153600D03*
X134635600Y-171423600D03*
X133365600Y-170353600D03*
X133365600Y-171623600D03*
X132095600Y-170153600D03*
X132095600Y-171423600D03*
D15*
X150945600Y-178623600D03*
X159585600Y-178623600D03*
D16*
X150945600Y-173263600D03*
X159585600Y-173263600D03*
D17*
X140460601Y-138168599D03*
X137920601Y-138168599D03*
X135380601Y-138168599D03*
D18*
X132840601Y-138168599D03*
X132840601Y-131038599D03*
D17*
X135380601Y-131038599D03*
X137920601Y-131038599D03*
X140460601Y-131038599D03*
D18*
X132840601Y-123908599D03*
D17*
X135380601Y-123908599D03*
X137920601Y-123908599D03*
X140460601Y-123908599D03*
D18*
X137245600Y-147233600D03*
D17*
X137245600Y-149773600D03*
X134705600Y-147233600D03*
X134705600Y-149773600D03*
X132165600Y-147233600D03*
X132165600Y-149773600D03*
D18*
X209175600Y-123433600D03*
D17*
X209175600Y-125973600D03*
X209175600Y-128513600D03*
X209175600Y-131053600D03*
D18*
X211715600Y-123433600D03*
D17*
X211715600Y-125973600D03*
X211715600Y-128513600D03*
X211715600Y-131053600D03*
X206635600Y-131053600D03*
X206635600Y-128513600D03*
X206635600Y-125973600D03*
D18*
X206635600Y-123433600D03*
X201985600Y-113693600D03*
D17*
X201985600Y-116233600D03*
X199445600Y-113693600D03*
X199445600Y-116233600D03*
X196905600Y-113693600D03*
X196905600Y-116233600D03*
X194365600Y-113693600D03*
X194365600Y-116233600D03*
X191825600Y-113693600D03*
X191825600Y-116233600D03*
X189285600Y-113693600D03*
X189285600Y-116233600D03*
X186745600Y-113693600D03*
X186745600Y-116233600D03*
X184205600Y-113693600D03*
X184205600Y-116233600D03*
X181665600Y-113693600D03*
X181665600Y-116233600D03*
X179125600Y-113693600D03*
X179125600Y-116233600D03*
X176585600Y-113693600D03*
X176585600Y-116233600D03*
X174045600Y-113693600D03*
X174045600Y-116233600D03*
X171505600Y-113693600D03*
X171505600Y-116233600D03*
X168965600Y-113693600D03*
X168965600Y-116233600D03*
X166425600Y-113693600D03*
X166425600Y-116233600D03*
X163885600Y-113693600D03*
X163885600Y-116233600D03*
X161345600Y-113693600D03*
X161345600Y-116233600D03*
X158805600Y-113693600D03*
X158805600Y-116233600D03*
X156265600Y-113693600D03*
X156265600Y-116233600D03*
X153725600Y-113693600D03*
X153725600Y-116233600D03*
G04 #@! TA.AperFunction,SMDPad,CuDef*
G36*
G01*
X127965600Y-131289850D02*
X127965600Y-130777350D01*
G75*
G02*
X128184350Y-130558600I218750J0D01*
G01*
X128621850Y-130558600D01*
G75*
G02*
X128840600Y-130777350I0J-218750D01*
G01*
X128840600Y-131289850D01*
G75*
G02*
X128621850Y-131508600I-218750J0D01*
G01*
X128184350Y-131508600D01*
G75*
G02*
X127965600Y-131289850I0J218750D01*
G01*
G37*
G04 #@! TD.AperFunction*
G04 #@! TA.AperFunction,SMDPad,CuDef*
G36*
G01*
X126390600Y-131289850D02*
X126390600Y-130777350D01*
G75*
G02*
X126609350Y-130558600I218750J0D01*
G01*
X127046850Y-130558600D01*
G75*
G02*
X127265600Y-130777350I0J-218750D01*
G01*
X127265600Y-131289850D01*
G75*
G02*
X127046850Y-131508600I-218750J0D01*
G01*
X126609350Y-131508600D01*
G75*
G02*
X126390600Y-131289850I0J218750D01*
G01*
G37*
G04 #@! TD.AperFunction*
G04 #@! TA.AperFunction,SMDPad,CuDef*
G36*
G01*
X126390600Y-124129850D02*
X126390600Y-123617350D01*
G75*
G02*
X126609350Y-123398600I218750J0D01*
G01*
X127046850Y-123398600D01*
G75*
G02*
X127265600Y-123617350I0J-218750D01*
G01*
X127265600Y-124129850D01*
G75*
G02*
X127046850Y-124348600I-218750J0D01*
G01*
X126609350Y-124348600D01*
G75*
G02*
X126390600Y-124129850I0J218750D01*
G01*
G37*
G04 #@! TD.AperFunction*
G04 #@! TA.AperFunction,SMDPad,CuDef*
G36*
G01*
X127965600Y-124129850D02*
X127965600Y-123617350D01*
G75*
G02*
X128184350Y-123398600I218750J0D01*
G01*
X128621850Y-123398600D01*
G75*
G02*
X128840600Y-123617350I0J-218750D01*
G01*
X128840600Y-124129850D01*
G75*
G02*
X128621850Y-124348600I-218750J0D01*
G01*
X128184350Y-124348600D01*
G75*
G02*
X127965600Y-124129850I0J218750D01*
G01*
G37*
G04 #@! TD.AperFunction*
D18*
X150735600Y-125413600D03*
D17*
X150735600Y-127953600D03*
X150735600Y-130493600D03*
X155715600Y-130493600D03*
X155715600Y-127953600D03*
D18*
X155715600Y-125413600D03*
D19*
X167705600Y-161503600D03*
X155375600Y-168553600D03*
X159995600Y-170913600D03*
X162745600Y-157743600D03*
X135275600Y-158113600D03*
X126835600Y-126903600D03*
X202265600Y-108503600D03*
X206445600Y-108503600D03*
X141895600Y-148293600D03*
X147825600Y-148293600D03*
X151665600Y-90183600D03*
X151665600Y-101983600D03*
X151665600Y-94003600D03*
X151665600Y-97663600D03*
X174175600Y-142763600D03*
X169235600Y-161733600D03*
X141105600Y-166753600D03*
X204715600Y-58693600D03*
X146575600Y-123893600D03*
X154835600Y-171593600D03*
X155835600Y-175673600D03*
X194785600Y-165753600D03*
X196295600Y-68263600D03*
X198155600Y-68703600D03*
X196295600Y-66363600D03*
X198115600Y-65363600D03*
X132755600Y-163533600D03*
X130165600Y-164233600D03*
X154765600Y-175663600D03*
X153655600Y-171543600D03*
X149615600Y-54093600D03*
X151375600Y-51573600D03*
X153075600Y-49073600D03*
X154705600Y-46523600D03*
X156275600Y-43983600D03*
X196905600Y-132453600D03*
X198165600Y-129793600D03*
X199445600Y-127233600D03*
X200705600Y-124683600D03*
X206445600Y-165743600D03*
X128375600Y-130043600D03*
X128465600Y-122833600D03*
X209935600Y-157273600D03*
X202265600Y-71863600D03*
X188895600Y-71873600D03*
X202565600Y-70863600D03*
X196315600Y-70873600D03*
D20*
X157635600Y-168553600D02*
X159995600Y-170913600D01*
X155375600Y-168553600D02*
X157635600Y-168553600D01*
X166505600Y-161503600D02*
X162745600Y-157743600D01*
X167705600Y-161503600D02*
X166505600Y-161503600D01*
D21*
X135295600Y-159738600D02*
X135295600Y-159693600D01*
D20*
X135295600Y-158133600D02*
X135275600Y-158113600D01*
X135295600Y-159738600D02*
X135295600Y-158133600D01*
D21*
X126828100Y-126896100D02*
X126835600Y-126903600D01*
X126828100Y-123873600D02*
X126828100Y-126896100D01*
X126828100Y-126911100D02*
X126835600Y-126903600D01*
X126828100Y-131033600D02*
X126828100Y-126911100D01*
D20*
X202265600Y-108503600D02*
X206445600Y-108503600D01*
X141895600Y-148293600D02*
X147825600Y-148293600D01*
X151665600Y-90183600D02*
X151665600Y-94003600D01*
X151665600Y-94003600D02*
X151665600Y-97663600D01*
X151665600Y-97663600D02*
X151665600Y-101983600D01*
D21*
X174175600Y-142763600D02*
X171765600Y-142763600D01*
X171765600Y-142763600D02*
X171445600Y-142763600D01*
X169235600Y-144973600D02*
X169235600Y-161733600D01*
X171445600Y-142763600D02*
X169235600Y-144973600D01*
D20*
X141105600Y-166753600D02*
X141145600Y-166713600D01*
X137835600Y-159738600D02*
X137835600Y-157603600D01*
X138455600Y-156983600D02*
X141145600Y-156983600D01*
X137835600Y-157603600D02*
X138455600Y-156983600D01*
X141145600Y-166713600D02*
X141145600Y-156983600D01*
X214645600Y-58693600D02*
X214655600Y-58703600D01*
X204715600Y-58693600D02*
X214645600Y-58693600D01*
X132840601Y-131038599D02*
X135380601Y-131038599D01*
X135380601Y-131038599D02*
X137920601Y-131038599D01*
X137920601Y-131038599D02*
X140460601Y-131038599D01*
X144220599Y-141898601D02*
X144220599Y-131038599D01*
X140460601Y-131038599D02*
X144220599Y-131038599D01*
D21*
X128943600Y-52273600D02*
X138405600Y-52273600D01*
X138405600Y-52273600D02*
X152785600Y-37893600D01*
X152785600Y-37893600D02*
X202015600Y-37893600D01*
X204715600Y-40593600D02*
X204715600Y-58693600D01*
X202015600Y-37893600D02*
X204715600Y-40593600D01*
X143355600Y-142763600D02*
X142985600Y-143133600D01*
X171445600Y-142763600D02*
X143355600Y-142763600D01*
D20*
X142985600Y-143133600D02*
X144220599Y-141898601D01*
X141145600Y-144973600D02*
X142985600Y-143133600D01*
X141145600Y-156983600D02*
X141145600Y-150623600D01*
X141145600Y-150623600D02*
X141145600Y-144973600D01*
X140295600Y-149773600D02*
X137245600Y-149773600D01*
X141145600Y-150623600D02*
X140295600Y-149773600D01*
X140435602Y-123923600D02*
X140420601Y-123908599D01*
X140475600Y-123893600D02*
X140460601Y-123908599D01*
X146575600Y-123893600D02*
X140475600Y-123893600D01*
X140460601Y-123908599D02*
X137920601Y-123908599D01*
X137920601Y-123908599D02*
X135380601Y-123908599D01*
X135380601Y-123908599D02*
X132840601Y-123908599D01*
D22*
X155835600Y-175673600D02*
X155835600Y-171553600D01*
X154875600Y-171553600D02*
X154835600Y-171593600D01*
X155835600Y-171553600D02*
X154875600Y-171553600D01*
D20*
X134025600Y-165043600D02*
X134025600Y-161008600D01*
X133365600Y-165703600D02*
X134025600Y-165043600D01*
X151355600Y-160243600D02*
X143845600Y-167753600D01*
X157625600Y-160243600D02*
X151355600Y-160243600D01*
X133385600Y-167753600D02*
X133365600Y-167773600D01*
X172325600Y-174943600D02*
X157625600Y-160243600D01*
X194785600Y-173083600D02*
X192925600Y-174943600D01*
X194785600Y-165753600D02*
X194785600Y-173083600D01*
X192925600Y-174943600D02*
X172325600Y-174943600D01*
X133365600Y-167773600D02*
X133365600Y-165703600D01*
X143845600Y-167753600D02*
X133385600Y-167753600D01*
X133365600Y-170353600D02*
X133365600Y-167773600D01*
D22*
X196735600Y-68703600D02*
X198155600Y-68703600D01*
X196295600Y-68263600D02*
X196735600Y-68703600D01*
X198155600Y-68703600D02*
X214655600Y-68703600D01*
X197295600Y-65363600D02*
X196295600Y-66363600D01*
X214635600Y-65363600D02*
X198115600Y-65363600D01*
X198115600Y-65363600D02*
X197295600Y-65363600D01*
D21*
X132755600Y-161008600D02*
X132755600Y-163533600D01*
X132755600Y-163533600D02*
X130705600Y-165583600D01*
X130705600Y-165583600D02*
X130705600Y-172363600D01*
X130705600Y-172363600D02*
X131575600Y-173233600D01*
X131575600Y-173233600D02*
X134115600Y-173233600D01*
X134635600Y-172713600D02*
X134635600Y-171423600D01*
X134115600Y-173233600D02*
X134635600Y-172713600D01*
X135905600Y-171623600D02*
X135905600Y-172973600D01*
X135905600Y-172973600D02*
X135105600Y-173773600D01*
X135105600Y-173773600D02*
X131335600Y-173773600D01*
X131335600Y-173773600D02*
X130165600Y-172603600D01*
X130165600Y-158893600D02*
X131075600Y-157983600D01*
X131075600Y-157983600D02*
X133505600Y-157983600D01*
X134025600Y-158503600D02*
X134025600Y-159738600D01*
X133505600Y-157983600D02*
X134025600Y-158503600D01*
X130165600Y-164233600D02*
X130165600Y-158893600D01*
X130165600Y-172603600D02*
X130165600Y-164233600D01*
X135875600Y-157003600D02*
X136565600Y-157693600D01*
X131155600Y-157003600D02*
X135875600Y-157003600D01*
X129475600Y-158683600D02*
X131155600Y-157003600D01*
X129475600Y-172713600D02*
X129475600Y-158683600D01*
X131085600Y-174323600D02*
X129475600Y-172713600D01*
X136375600Y-174323600D02*
X131085600Y-174323600D01*
X137175600Y-173523600D02*
X136375600Y-174323600D01*
X136565600Y-157693600D02*
X136565600Y-159738600D01*
X137175600Y-171423600D02*
X137175600Y-173523600D01*
D22*
X154545600Y-175443600D02*
X154765600Y-175663600D01*
X153655600Y-174553600D02*
X153655600Y-171543600D01*
X154765600Y-175663600D02*
X153655600Y-174553600D01*
X158805600Y-116233600D02*
X157825600Y-115253600D01*
X157825600Y-115253600D02*
X157535600Y-114963600D01*
X157535600Y-114963600D02*
X157535600Y-76563600D01*
X157535600Y-76563600D02*
X149615600Y-68643600D01*
X149615600Y-68643600D02*
X149615600Y-54093600D01*
X161345600Y-116233600D02*
X160495600Y-115383600D01*
X160495600Y-115383600D02*
X160075600Y-114963600D01*
X160075600Y-114963600D02*
X160075600Y-73653600D01*
X160075600Y-73653600D02*
X159545600Y-73123600D01*
X159545600Y-73123600D02*
X156445600Y-73123600D01*
X156445600Y-73123600D02*
X151375600Y-68053600D01*
X151375600Y-68053600D02*
X151375600Y-51573600D01*
X161345600Y-113693600D02*
X161345600Y-72163600D01*
X161345600Y-72163600D02*
X160875600Y-71693600D01*
X160875600Y-71693600D02*
X157265600Y-71693600D01*
X157265600Y-71693600D02*
X153075600Y-67503600D01*
X153075600Y-67503600D02*
X153075600Y-49073600D01*
X163885600Y-116233600D02*
X163295600Y-115643600D01*
X163295600Y-115643600D02*
X162605600Y-114953600D01*
X162605600Y-114953600D02*
X162605600Y-70843600D01*
X162605600Y-70843600D02*
X162075600Y-70313600D01*
X162075600Y-70313600D02*
X157915600Y-70313600D01*
X157915600Y-70313600D02*
X154705600Y-67103600D01*
X154705600Y-67103600D02*
X154705600Y-46523600D01*
X163885600Y-113693600D02*
X163885600Y-69663600D01*
X163885600Y-69663600D02*
X163295600Y-69073600D01*
X163295600Y-69073600D02*
X158455600Y-69073600D01*
X158455600Y-69073600D02*
X156275600Y-66893600D01*
X156275600Y-66893600D02*
X156275600Y-43983600D01*
X166425600Y-116233600D02*
X166425600Y-115723600D01*
X159235600Y-41453600D02*
X165955600Y-41453600D01*
X157785600Y-42903600D02*
X159235600Y-41453600D01*
X157785600Y-66313600D02*
X157785600Y-42903600D01*
X159115600Y-67643600D02*
X157785600Y-66313600D01*
X164005600Y-67643600D02*
X159115600Y-67643600D01*
X165155600Y-68793600D02*
X164005600Y-67643600D01*
X165155600Y-114963600D02*
X165155600Y-68793600D01*
X166425600Y-116233600D02*
X165155600Y-114963600D01*
X209175600Y-131053600D02*
X207775600Y-132453600D01*
X207775600Y-132453600D02*
X196905600Y-132453600D01*
X207895600Y-129793600D02*
X198165600Y-129793600D01*
X209175600Y-128513600D02*
X207895600Y-129793600D01*
X207915600Y-127233600D02*
X199445600Y-127233600D01*
X209175600Y-125973600D02*
X207915600Y-127233600D01*
X209175600Y-123433600D02*
X209175600Y-123493600D01*
X209175600Y-123493600D02*
X207985600Y-124683600D01*
X207985600Y-124683600D02*
X200705600Y-124683600D01*
D20*
X209855600Y-165743600D02*
X209865600Y-165733600D01*
X206445600Y-165743600D02*
X209855600Y-165743600D01*
X128403100Y-130071100D02*
X128403100Y-131033600D01*
X128375600Y-130043600D02*
X128403100Y-130071100D01*
X128403100Y-122896100D02*
X128403100Y-123873600D01*
X128465600Y-122833600D02*
X128403100Y-122896100D01*
D23*
X209935600Y-163163600D02*
X209865600Y-163233600D01*
X209935600Y-157273600D02*
X209935600Y-163163600D01*
D22*
X202255600Y-71873600D02*
X188895600Y-71873600D01*
X202265600Y-71863600D02*
X202255600Y-71873600D01*
X202555600Y-70873600D02*
X196315600Y-70873600D01*
X202565600Y-70863600D02*
X202555600Y-70873600D01*
M02*
