G04 #@! TF.GenerationSoftware,KiCad,Pcbnew,(5.1.9)-1*
G04 #@! TF.CreationDate,2021-01-16T04:06:45-07:00*
G04 #@! TF.ProjectId,purplewizard-pogo,70757270-6c65-4776-997a-6172642d706f,1*
G04 #@! TF.SameCoordinates,PX774a7a0PYac0e4a0*
G04 #@! TF.FileFunction,Legend,Bot*
G04 #@! TF.FilePolarity,Positive*
%FSLAX46Y46*%
G04 Gerber Fmt 4.6, Leading zero omitted, Abs format (unit mm)*
G04 Created by KiCad (PCBNEW (5.1.9)-1) date 2021-01-16 04:06:45*
%MOMM*%
%LPD*%
G01*
G04 APERTURE LIST*
%ADD10C,0.120000*%
%ADD11C,0.127000*%
%ADD12C,0.150000*%
%ADD13C,2.200000*%
%ADD14R,2.500000X1.800000*%
%ADD15C,0.900000*%
%ADD16R,1.300000X0.300000*%
%ADD17R,2.200000X1.800000*%
%ADD18R,1.000000X1.400000*%
%ADD19R,1.200000X1.400000*%
%ADD20C,0.985520*%
%ADD21C,0.988060*%
%ADD22R,1.000000X1.000000*%
%ADD23O,1.000000X1.000000*%
%ADD24O,1.300000X2.600000*%
%ADD25O,1.100000X2.200000*%
%ADD26R,1.000000X0.700000*%
%ADD27R,0.300000X0.700000*%
%ADD28O,1.700000X1.700000*%
%ADD29R,1.700000X1.700000*%
%ADD30R,1.200000X0.400000*%
G04 APERTURE END LIST*
D10*
X79480000Y10780000D02*
X79480000Y7480000D01*
X79480000Y7480000D02*
X74080000Y7480000D01*
X79480000Y10780000D02*
X74080000Y10780000D01*
X43197221Y17650000D02*
X43522779Y17650000D01*
X43197221Y16630000D02*
X43522779Y16630000D01*
X53500000Y35370000D02*
X53500000Y36860000D01*
X53500000Y36860000D02*
X54840000Y36860000D01*
X53500000Y10050000D02*
X53500000Y8560000D01*
X53500000Y8560000D02*
X54840000Y8560000D01*
X57560000Y36860000D02*
X59300000Y36860000D01*
X59300000Y36860000D02*
X59300000Y8560000D01*
X59300000Y8560000D02*
X57560000Y8560000D01*
X53500000Y35370000D02*
X52300000Y35370000D01*
X79480000Y16320000D02*
X79480000Y13020000D01*
X79480000Y13020000D02*
X74080000Y13020000D01*
X79480000Y16320000D02*
X74080000Y16320000D01*
X28919447Y13730000D02*
X28593889Y13730000D01*
X28919447Y12710000D02*
X28593889Y12710000D01*
X31946113Y13740000D02*
X31620555Y13740000D01*
X31946113Y12720000D02*
X31620555Y12720000D01*
X37030000Y6572779D02*
X37030000Y6247221D01*
X38050000Y6572779D02*
X38050000Y6247221D01*
X31840000Y17710000D02*
X31840000Y15310000D01*
X28740000Y15310000D02*
X28740000Y18260000D01*
X48580000Y35282779D02*
X48580000Y34957221D01*
X49600000Y35282779D02*
X49600000Y34957221D01*
X26990000Y13807221D02*
X26990000Y14132779D01*
X25970000Y13807221D02*
X25970000Y14132779D01*
X26057221Y10710000D02*
X26382779Y10710000D01*
X26057221Y11730000D02*
X26382779Y11730000D01*
X33987221Y10710000D02*
X34312779Y10710000D01*
X33987221Y11730000D02*
X34312779Y11730000D01*
X34570000Y13817221D02*
X34570000Y14142779D01*
X33550000Y13817221D02*
X33550000Y14142779D01*
D11*
X34650000Y20000D02*
X25710000Y20000D01*
X34650000Y3490000D02*
X34650000Y5690000D01*
X25710000Y3490000D02*
X25710000Y5690000D01*
D10*
X38700000Y6572779D02*
X38700000Y6247221D01*
X39720000Y6572779D02*
X39720000Y6247221D01*
X43247221Y15500000D02*
X43572779Y15500000D01*
X43247221Y14480000D02*
X43572779Y14480000D01*
X4357258Y51842500D02*
X3882742Y51842500D01*
X4357258Y50797500D02*
X3882742Y50797500D01*
X4437258Y58017500D02*
X3962742Y58017500D01*
X4437258Y59062500D02*
X3962742Y59062500D01*
X58330000Y111319420D02*
X58330000Y111600580D01*
X59350000Y111319420D02*
X59350000Y111600580D01*
D12*
X69285000Y114555000D02*
X64010000Y114555000D01*
X68010000Y109155000D02*
X64010000Y109155000D01*
X76818095Y11177620D02*
X76818095Y12177620D01*
X76580000Y12177620D01*
X76437142Y12130000D01*
X76341904Y12034762D01*
X76294285Y11939524D01*
X76246666Y11749048D01*
X76246666Y11606191D01*
X76294285Y11415715D01*
X76341904Y11320477D01*
X76437142Y11225239D01*
X76580000Y11177620D01*
X76818095Y11177620D01*
X75294285Y11177620D02*
X75865714Y11177620D01*
X75580000Y11177620D02*
X75580000Y12177620D01*
X75675238Y12034762D01*
X75770476Y11939524D01*
X75865714Y11891905D01*
X47152857Y16792858D02*
X47200476Y16745239D01*
X47343333Y16697620D01*
X47438571Y16697620D01*
X47581428Y16745239D01*
X47676666Y16840477D01*
X47724285Y16935715D01*
X47771904Y17126191D01*
X47771904Y17269048D01*
X47724285Y17459524D01*
X47676666Y17554762D01*
X47581428Y17650000D01*
X47438571Y17697620D01*
X47343333Y17697620D01*
X47200476Y17650000D01*
X47152857Y17602381D01*
X46771904Y17602381D02*
X46724285Y17650000D01*
X46629047Y17697620D01*
X46390952Y17697620D01*
X46295714Y17650000D01*
X46248095Y17602381D01*
X46200476Y17507143D01*
X46200476Y17411905D01*
X46248095Y17269048D01*
X46819523Y16697620D01*
X46200476Y16697620D01*
X45343333Y17697620D02*
X45533809Y17697620D01*
X45629047Y17650000D01*
X45676666Y17602381D01*
X45771904Y17459524D01*
X45819523Y17269048D01*
X45819523Y16888096D01*
X45771904Y16792858D01*
X45724285Y16745239D01*
X45629047Y16697620D01*
X45438571Y16697620D01*
X45343333Y16745239D01*
X45295714Y16792858D01*
X45248095Y16888096D01*
X45248095Y17126191D01*
X45295714Y17221429D01*
X45343333Y17269048D01*
X45438571Y17316667D01*
X45629047Y17316667D01*
X45724285Y17269048D01*
X45771904Y17221429D01*
X45819523Y17126191D01*
X57039523Y39757620D02*
X57039523Y39043334D01*
X57087142Y38900477D01*
X57182380Y38805239D01*
X57325238Y38757620D01*
X57420476Y38757620D01*
X56039523Y38757620D02*
X56610952Y38757620D01*
X56325238Y38757620D02*
X56325238Y39757620D01*
X56420476Y39614762D01*
X56515714Y39519524D01*
X56610952Y39471905D01*
X55182380Y39757620D02*
X55372857Y39757620D01*
X55468095Y39710000D01*
X55515714Y39662381D01*
X55610952Y39519524D01*
X55658571Y39329048D01*
X55658571Y38948096D01*
X55610952Y38852858D01*
X55563333Y38805239D01*
X55468095Y38757620D01*
X55277619Y38757620D01*
X55182380Y38805239D01*
X55134761Y38852858D01*
X55087142Y38948096D01*
X55087142Y39186191D01*
X55134761Y39281429D01*
X55182380Y39329048D01*
X55277619Y39376667D01*
X55468095Y39376667D01*
X55563333Y39329048D01*
X55610952Y39281429D01*
X55658571Y39186191D01*
X76778095Y16737620D02*
X76778095Y17737620D01*
X76540000Y17737620D01*
X76397142Y17690000D01*
X76301904Y17594762D01*
X76254285Y17499524D01*
X76206666Y17309048D01*
X76206666Y17166191D01*
X76254285Y16975715D01*
X76301904Y16880477D01*
X76397142Y16785239D01*
X76540000Y16737620D01*
X76778095Y16737620D01*
X75825714Y17642381D02*
X75778095Y17690000D01*
X75682857Y17737620D01*
X75444761Y17737620D01*
X75349523Y17690000D01*
X75301904Y17642381D01*
X75254285Y17547143D01*
X75254285Y17451905D01*
X75301904Y17309048D01*
X75873333Y16737620D01*
X75254285Y16737620D01*
X29807142Y11712858D02*
X29854761Y11760477D01*
X29902380Y11903334D01*
X29902380Y11998572D01*
X29854761Y12141429D01*
X29759523Y12236667D01*
X29664285Y12284286D01*
X29473809Y12331905D01*
X29330952Y12331905D01*
X29140476Y12284286D01*
X29045238Y12236667D01*
X28950000Y12141429D01*
X28902380Y11998572D01*
X28902380Y11903334D01*
X28950000Y11760477D01*
X28997619Y11712858D01*
X29902380Y10760477D02*
X29902380Y11331905D01*
X29902380Y11046191D02*
X28902380Y11046191D01*
X29045238Y11141429D01*
X29140476Y11236667D01*
X29188095Y11331905D01*
X28902380Y10141429D02*
X28902380Y10046191D01*
X28950000Y9950953D01*
X28997619Y9903334D01*
X29092857Y9855715D01*
X29283333Y9808096D01*
X29521428Y9808096D01*
X29711904Y9855715D01*
X29807142Y9903334D01*
X29854761Y9950953D01*
X29902380Y10046191D01*
X29902380Y10141429D01*
X29854761Y10236667D01*
X29807142Y10284286D01*
X29711904Y10331905D01*
X29521428Y10379524D01*
X29283333Y10379524D01*
X29092857Y10331905D01*
X28997619Y10284286D01*
X28950000Y10236667D01*
X28902380Y10141429D01*
X31267142Y11692858D02*
X31314761Y11740477D01*
X31362380Y11883334D01*
X31362380Y11978572D01*
X31314761Y12121429D01*
X31219523Y12216667D01*
X31124285Y12264286D01*
X30933809Y12311905D01*
X30790952Y12311905D01*
X30600476Y12264286D01*
X30505238Y12216667D01*
X30410000Y12121429D01*
X30362380Y11978572D01*
X30362380Y11883334D01*
X30410000Y11740477D01*
X30457619Y11692858D01*
X31362380Y10740477D02*
X31362380Y11311905D01*
X31362380Y11026191D02*
X30362380Y11026191D01*
X30505238Y11121429D01*
X30600476Y11216667D01*
X30648095Y11311905D01*
X31362380Y9788096D02*
X31362380Y10359524D01*
X31362380Y10073810D02*
X30362380Y10073810D01*
X30505238Y10169048D01*
X30600476Y10264286D01*
X30648095Y10359524D01*
X36467142Y7052858D02*
X36514761Y7100477D01*
X36562380Y7243334D01*
X36562380Y7338572D01*
X36514761Y7481429D01*
X36419523Y7576667D01*
X36324285Y7624286D01*
X36133809Y7671905D01*
X35990952Y7671905D01*
X35800476Y7624286D01*
X35705238Y7576667D01*
X35610000Y7481429D01*
X35562380Y7338572D01*
X35562380Y7243334D01*
X35610000Y7100477D01*
X35657619Y7052858D01*
X36562380Y6100477D02*
X36562380Y6671905D01*
X36562380Y6386191D02*
X35562380Y6386191D01*
X35705238Y6481429D01*
X35800476Y6576667D01*
X35848095Y6671905D01*
X35895714Y5243334D02*
X36562380Y5243334D01*
X35514761Y5481429D02*
X36229047Y5719524D01*
X36229047Y5100477D01*
X31118095Y18837620D02*
X31118095Y19837620D01*
X30880000Y19837620D01*
X30737142Y19790000D01*
X30641904Y19694762D01*
X30594285Y19599524D01*
X30546666Y19409048D01*
X30546666Y19266191D01*
X30594285Y19075715D01*
X30641904Y18980477D01*
X30737142Y18885239D01*
X30880000Y18837620D01*
X31118095Y18837620D01*
X29689523Y19504286D02*
X29689523Y18837620D01*
X29927619Y19885239D02*
X30165714Y19170953D01*
X29546666Y19170953D01*
X47302857Y34627620D02*
X47636190Y35103810D01*
X47874285Y34627620D02*
X47874285Y35627620D01*
X47493333Y35627620D01*
X47398095Y35580000D01*
X47350476Y35532381D01*
X47302857Y35437143D01*
X47302857Y35294286D01*
X47350476Y35199048D01*
X47398095Y35151429D01*
X47493333Y35103810D01*
X47874285Y35103810D01*
X46350476Y34627620D02*
X46921904Y34627620D01*
X46636190Y34627620D02*
X46636190Y35627620D01*
X46731428Y35484762D01*
X46826666Y35389524D01*
X46921904Y35341905D01*
X46017142Y35627620D02*
X45398095Y35627620D01*
X45731428Y35246667D01*
X45588571Y35246667D01*
X45493333Y35199048D01*
X45445714Y35151429D01*
X45398095Y35056191D01*
X45398095Y34818096D01*
X45445714Y34722858D01*
X45493333Y34675239D01*
X45588571Y34627620D01*
X45874285Y34627620D01*
X45969523Y34675239D01*
X46017142Y34722858D01*
X24766666Y13427620D02*
X25100000Y13903810D01*
X25338095Y13427620D02*
X25338095Y14427620D01*
X24957142Y14427620D01*
X24861904Y14380000D01*
X24814285Y14332381D01*
X24766666Y14237143D01*
X24766666Y14094286D01*
X24814285Y13999048D01*
X24861904Y13951429D01*
X24957142Y13903810D01*
X25338095Y13903810D01*
X24433333Y14427620D02*
X23766666Y14427620D01*
X24195238Y13427620D01*
X23752857Y10687620D02*
X24086190Y11163810D01*
X24324285Y10687620D02*
X24324285Y11687620D01*
X23943333Y11687620D01*
X23848095Y11640000D01*
X23800476Y11592381D01*
X23752857Y11497143D01*
X23752857Y11354286D01*
X23800476Y11259048D01*
X23848095Y11211429D01*
X23943333Y11163810D01*
X24324285Y11163810D01*
X22800476Y10687620D02*
X23371904Y10687620D01*
X23086190Y10687620D02*
X23086190Y11687620D01*
X23181428Y11544762D01*
X23276666Y11449524D01*
X23371904Y11401905D01*
X21848095Y10687620D02*
X22419523Y10687620D01*
X22133809Y10687620D02*
X22133809Y11687620D01*
X22229047Y11544762D01*
X22324285Y11449524D01*
X22419523Y11401905D01*
X37932857Y10747620D02*
X38266190Y11223810D01*
X38504285Y10747620D02*
X38504285Y11747620D01*
X38123333Y11747620D01*
X38028095Y11700000D01*
X37980476Y11652381D01*
X37932857Y11557143D01*
X37932857Y11414286D01*
X37980476Y11319048D01*
X38028095Y11271429D01*
X38123333Y11223810D01*
X38504285Y11223810D01*
X36980476Y10747620D02*
X37551904Y10747620D01*
X37266190Y10747620D02*
X37266190Y11747620D01*
X37361428Y11604762D01*
X37456666Y11509524D01*
X37551904Y11461905D01*
X36361428Y11747620D02*
X36266190Y11747620D01*
X36170952Y11700000D01*
X36123333Y11652381D01*
X36075714Y11557143D01*
X36028095Y11366667D01*
X36028095Y11128572D01*
X36075714Y10938096D01*
X36123333Y10842858D01*
X36170952Y10795239D01*
X36266190Y10747620D01*
X36361428Y10747620D01*
X36456666Y10795239D01*
X36504285Y10842858D01*
X36551904Y10938096D01*
X36599523Y11128572D01*
X36599523Y11366667D01*
X36551904Y11557143D01*
X36504285Y11652381D01*
X36456666Y11700000D01*
X36361428Y11747620D01*
X36206666Y13437620D02*
X36540000Y13913810D01*
X36778095Y13437620D02*
X36778095Y14437620D01*
X36397142Y14437620D01*
X36301904Y14390000D01*
X36254285Y14342381D01*
X36206666Y14247143D01*
X36206666Y14104286D01*
X36254285Y14009048D01*
X36301904Y13961429D01*
X36397142Y13913810D01*
X36778095Y13913810D01*
X35635238Y14009048D02*
X35730476Y14056667D01*
X35778095Y14104286D01*
X35825714Y14199524D01*
X35825714Y14247143D01*
X35778095Y14342381D01*
X35730476Y14390000D01*
X35635238Y14437620D01*
X35444761Y14437620D01*
X35349523Y14390000D01*
X35301904Y14342381D01*
X35254285Y14247143D01*
X35254285Y14199524D01*
X35301904Y14104286D01*
X35349523Y14056667D01*
X35444761Y14009048D01*
X35635238Y14009048D01*
X35730476Y13961429D01*
X35778095Y13913810D01*
X35825714Y13818572D01*
X35825714Y13628096D01*
X35778095Y13532858D01*
X35730476Y13485239D01*
X35635238Y13437620D01*
X35444761Y13437620D01*
X35349523Y13485239D01*
X35301904Y13532858D01*
X35254285Y13628096D01*
X35254285Y13818572D01*
X35301904Y13913810D01*
X35349523Y13961429D01*
X35444761Y14009048D01*
X37839523Y2077620D02*
X37839523Y1363334D01*
X37887142Y1220477D01*
X37982380Y1125239D01*
X38125238Y1077620D01*
X38220476Y1077620D01*
X36839523Y1077620D02*
X37410952Y1077620D01*
X37125238Y1077620D02*
X37125238Y2077620D01*
X37220476Y1934762D01*
X37315714Y1839524D01*
X37410952Y1791905D01*
X35934761Y2077620D02*
X36410952Y2077620D01*
X36458571Y1601429D01*
X36410952Y1649048D01*
X36315714Y1696667D01*
X36077619Y1696667D01*
X35982380Y1649048D01*
X35934761Y1601429D01*
X35887142Y1506191D01*
X35887142Y1268096D01*
X35934761Y1172858D01*
X35982380Y1125239D01*
X36077619Y1077620D01*
X36315714Y1077620D01*
X36410952Y1125239D01*
X36458571Y1172858D01*
X41132380Y7042858D02*
X40656190Y7376191D01*
X41132380Y7614286D02*
X40132380Y7614286D01*
X40132380Y7233334D01*
X40180000Y7138096D01*
X40227619Y7090477D01*
X40322857Y7042858D01*
X40465714Y7042858D01*
X40560952Y7090477D01*
X40608571Y7138096D01*
X40656190Y7233334D01*
X40656190Y7614286D01*
X41132380Y6090477D02*
X41132380Y6661905D01*
X41132380Y6376191D02*
X40132380Y6376191D01*
X40275238Y6471429D01*
X40370476Y6566667D01*
X40418095Y6661905D01*
X40227619Y5709524D02*
X40180000Y5661905D01*
X40132380Y5566667D01*
X40132380Y5328572D01*
X40180000Y5233334D01*
X40227619Y5185715D01*
X40322857Y5138096D01*
X40418095Y5138096D01*
X40560952Y5185715D01*
X41132380Y5757143D01*
X41132380Y5138096D01*
X47222857Y14632858D02*
X47270476Y14585239D01*
X47413333Y14537620D01*
X47508571Y14537620D01*
X47651428Y14585239D01*
X47746666Y14680477D01*
X47794285Y14775715D01*
X47841904Y14966191D01*
X47841904Y15109048D01*
X47794285Y15299524D01*
X47746666Y15394762D01*
X47651428Y15490000D01*
X47508571Y15537620D01*
X47413333Y15537620D01*
X47270476Y15490000D01*
X47222857Y15442381D01*
X46841904Y15442381D02*
X46794285Y15490000D01*
X46699047Y15537620D01*
X46460952Y15537620D01*
X46365714Y15490000D01*
X46318095Y15442381D01*
X46270476Y15347143D01*
X46270476Y15251905D01*
X46318095Y15109048D01*
X46889523Y14537620D01*
X46270476Y14537620D01*
X45365714Y15537620D02*
X45841904Y15537620D01*
X45889523Y15061429D01*
X45841904Y15109048D01*
X45746666Y15156667D01*
X45508571Y15156667D01*
X45413333Y15109048D01*
X45365714Y15061429D01*
X45318095Y14966191D01*
X45318095Y14728096D01*
X45365714Y14632858D01*
X45413333Y14585239D01*
X45508571Y14537620D01*
X45746666Y14537620D01*
X45841904Y14585239D01*
X45889523Y14632858D01*
X4286666Y52297620D02*
X4620000Y52773810D01*
X4858095Y52297620D02*
X4858095Y53297620D01*
X4477142Y53297620D01*
X4381904Y53250000D01*
X4334285Y53202381D01*
X4286666Y53107143D01*
X4286666Y52964286D01*
X4334285Y52869048D01*
X4381904Y52821429D01*
X4477142Y52773810D01*
X4858095Y52773810D01*
X3334285Y52297620D02*
X3905714Y52297620D01*
X3620000Y52297620D02*
X3620000Y53297620D01*
X3715238Y53154762D01*
X3810476Y53059524D01*
X3905714Y53011905D01*
X4366666Y59517620D02*
X4700000Y59993810D01*
X4938095Y59517620D02*
X4938095Y60517620D01*
X4557142Y60517620D01*
X4461904Y60470000D01*
X4414285Y60422381D01*
X4366666Y60327143D01*
X4366666Y60184286D01*
X4414285Y60089048D01*
X4461904Y60041429D01*
X4557142Y59993810D01*
X4938095Y59993810D01*
X3985714Y60422381D02*
X3938095Y60470000D01*
X3842857Y60517620D01*
X3604761Y60517620D01*
X3509523Y60470000D01*
X3461904Y60422381D01*
X3414285Y60327143D01*
X3414285Y60231905D01*
X3461904Y60089048D01*
X4033333Y59517620D01*
X3414285Y59517620D01*
X60627142Y111626667D02*
X60674761Y111674286D01*
X60722380Y111817143D01*
X60722380Y111912381D01*
X60674761Y112055239D01*
X60579523Y112150477D01*
X60484285Y112198096D01*
X60293809Y112245715D01*
X60150952Y112245715D01*
X59960476Y112198096D01*
X59865238Y112150477D01*
X59770000Y112055239D01*
X59722380Y111912381D01*
X59722380Y111817143D01*
X59770000Y111674286D01*
X59817619Y111626667D01*
X60722380Y110674286D02*
X60722380Y111245715D01*
X60722380Y110960000D02*
X59722380Y110960000D01*
X59865238Y111055239D01*
X59960476Y111150477D01*
X60008095Y111245715D01*
X66771904Y115877620D02*
X66771904Y115068096D01*
X66724285Y114972858D01*
X66676666Y114925239D01*
X66581428Y114877620D01*
X66390952Y114877620D01*
X66295714Y114925239D01*
X66248095Y114972858D01*
X66200476Y115068096D01*
X66200476Y115877620D01*
X65200476Y114877620D02*
X65771904Y114877620D01*
X65486190Y114877620D02*
X65486190Y115877620D01*
X65581428Y115734762D01*
X65676666Y115639524D01*
X65771904Y115591905D01*
%LPC*%
G36*
G01*
X60920000Y10420000D02*
X60920000Y34920000D01*
G75*
G02*
X62170000Y36170000I1250000J0D01*
G01*
X64670000Y36170000D01*
G75*
G02*
X65920000Y34920000I0J-1250000D01*
G01*
X65920000Y10420000D01*
G75*
G02*
X64670000Y9170000I-1250000J0D01*
G01*
X62170000Y9170000D01*
G75*
G02*
X60920000Y10420000I0J1250000D01*
G01*
G37*
D13*
X89570000Y121710000D03*
X89570000Y118376667D03*
X89570000Y111710000D03*
X89550000Y115050000D03*
X40870000Y128808000D03*
X40870000Y136422000D03*
X40870000Y131346000D03*
X3858000Y128140000D03*
X40870000Y138960000D03*
X40870000Y133884000D03*
X40870000Y126270000D03*
X3858000Y120950000D03*
X3858000Y124545000D03*
X75010000Y127260000D03*
X75030000Y130890000D03*
X75030000Y134520000D03*
X70700000Y80990000D03*
X70700000Y84630000D03*
X70700000Y88270000D03*
D14*
X74080000Y9130000D03*
X78080000Y9130000D03*
D15*
X87530000Y18080000D03*
X87530000Y11280000D03*
G36*
G01*
X42135000Y16883750D02*
X42135000Y17396250D01*
G75*
G02*
X42353750Y17615000I218750J0D01*
G01*
X42791250Y17615000D01*
G75*
G02*
X43010000Y17396250I0J-218750D01*
G01*
X43010000Y16883750D01*
G75*
G02*
X42791250Y16665000I-218750J0D01*
G01*
X42353750Y16665000D01*
G75*
G02*
X42135000Y16883750I0J218750D01*
G01*
G37*
G36*
G01*
X43710000Y16883750D02*
X43710000Y17396250D01*
G75*
G02*
X43928750Y17615000I218750J0D01*
G01*
X44366250Y17615000D01*
G75*
G02*
X44585000Y17396250I0J-218750D01*
G01*
X44585000Y16883750D01*
G75*
G02*
X44366250Y16665000I-218750J0D01*
G01*
X43928750Y16665000D01*
G75*
G02*
X43710000Y16883750I0J218750D01*
G01*
G37*
D16*
X52950000Y10460000D03*
X52950000Y10960000D03*
X52950000Y11460000D03*
X52950000Y11960000D03*
X52950000Y12460000D03*
X52950000Y12960000D03*
X52950000Y13460000D03*
X52950000Y13960000D03*
X52950000Y14460000D03*
X52950000Y14960000D03*
X52950000Y15460000D03*
X52950000Y15960000D03*
X52950000Y16460000D03*
X52950000Y16960000D03*
X52950000Y17460000D03*
X52950000Y17960000D03*
X52950000Y18460000D03*
X52950000Y18960000D03*
X52950000Y19460000D03*
X52950000Y19960000D03*
X52950000Y20460000D03*
X52950000Y20960000D03*
X52950000Y21460000D03*
X52950000Y21960000D03*
X52950000Y22460000D03*
X52950000Y22960000D03*
X52950000Y23460000D03*
X52950000Y23960000D03*
X52950000Y24460000D03*
X52950000Y24960000D03*
X52950000Y25460000D03*
X52950000Y25960000D03*
X52950000Y26460000D03*
X52950000Y26960000D03*
X52950000Y27460000D03*
X52950000Y27960000D03*
X52950000Y28460000D03*
X52950000Y28960000D03*
X52950000Y29460000D03*
X52950000Y29960000D03*
X52950000Y30460000D03*
X52950000Y30960000D03*
X52950000Y31460000D03*
X52950000Y31960000D03*
X52950000Y32460000D03*
X52950000Y32960000D03*
X52950000Y33460000D03*
X52950000Y33960000D03*
X52950000Y34460000D03*
X52950000Y34960000D03*
D17*
X56200000Y36860000D03*
X56200000Y8560000D03*
D14*
X74080000Y14670000D03*
X78080000Y14670000D03*
G36*
G01*
X28406668Y13476250D02*
X28406668Y12963750D01*
G75*
G02*
X28187918Y12745000I-218750J0D01*
G01*
X27750418Y12745000D01*
G75*
G02*
X27531668Y12963750I0J218750D01*
G01*
X27531668Y13476250D01*
G75*
G02*
X27750418Y13695000I218750J0D01*
G01*
X28187918Y13695000D01*
G75*
G02*
X28406668Y13476250I0J-218750D01*
G01*
G37*
G36*
G01*
X29981668Y13476250D02*
X29981668Y12963750D01*
G75*
G02*
X29762918Y12745000I-218750J0D01*
G01*
X29325418Y12745000D01*
G75*
G02*
X29106668Y12963750I0J218750D01*
G01*
X29106668Y13476250D01*
G75*
G02*
X29325418Y13695000I218750J0D01*
G01*
X29762918Y13695000D01*
G75*
G02*
X29981668Y13476250I0J-218750D01*
G01*
G37*
G36*
G01*
X31433334Y13486250D02*
X31433334Y12973750D01*
G75*
G02*
X31214584Y12755000I-218750J0D01*
G01*
X30777084Y12755000D01*
G75*
G02*
X30558334Y12973750I0J218750D01*
G01*
X30558334Y13486250D01*
G75*
G02*
X30777084Y13705000I218750J0D01*
G01*
X31214584Y13705000D01*
G75*
G02*
X31433334Y13486250I0J-218750D01*
G01*
G37*
G36*
G01*
X33008334Y13486250D02*
X33008334Y12973750D01*
G75*
G02*
X32789584Y12755000I-218750J0D01*
G01*
X32352084Y12755000D01*
G75*
G02*
X32133334Y12973750I0J218750D01*
G01*
X32133334Y13486250D01*
G75*
G02*
X32352084Y13705000I218750J0D01*
G01*
X32789584Y13705000D01*
G75*
G02*
X33008334Y13486250I0J-218750D01*
G01*
G37*
G36*
G01*
X37283750Y6060000D02*
X37796250Y6060000D01*
G75*
G02*
X38015000Y5841250I0J-218750D01*
G01*
X38015000Y5403750D01*
G75*
G02*
X37796250Y5185000I-218750J0D01*
G01*
X37283750Y5185000D01*
G75*
G02*
X37065000Y5403750I0J218750D01*
G01*
X37065000Y5841250D01*
G75*
G02*
X37283750Y6060000I218750J0D01*
G01*
G37*
G36*
G01*
X37283750Y7635000D02*
X37796250Y7635000D01*
G75*
G02*
X38015000Y7416250I0J-218750D01*
G01*
X38015000Y6978750D01*
G75*
G02*
X37796250Y6760000I-218750J0D01*
G01*
X37283750Y6760000D01*
G75*
G02*
X37065000Y6978750I0J218750D01*
G01*
X37065000Y7416250D01*
G75*
G02*
X37283750Y7635000I218750J0D01*
G01*
G37*
D18*
X29340000Y15410000D03*
X31240000Y15410000D03*
X31240000Y17610000D03*
D19*
X29520000Y17610000D03*
G36*
G01*
X48833750Y34770000D02*
X49346250Y34770000D01*
G75*
G02*
X49565000Y34551250I0J-218750D01*
G01*
X49565000Y34113750D01*
G75*
G02*
X49346250Y33895000I-218750J0D01*
G01*
X48833750Y33895000D01*
G75*
G02*
X48615000Y34113750I0J218750D01*
G01*
X48615000Y34551250D01*
G75*
G02*
X48833750Y34770000I218750J0D01*
G01*
G37*
G36*
G01*
X48833750Y36345000D02*
X49346250Y36345000D01*
G75*
G02*
X49565000Y36126250I0J-218750D01*
G01*
X49565000Y35688750D01*
G75*
G02*
X49346250Y35470000I-218750J0D01*
G01*
X48833750Y35470000D01*
G75*
G02*
X48615000Y35688750I0J218750D01*
G01*
X48615000Y36126250D01*
G75*
G02*
X48833750Y36345000I218750J0D01*
G01*
G37*
G36*
G01*
X26736250Y14320000D02*
X26223750Y14320000D01*
G75*
G02*
X26005000Y14538750I0J218750D01*
G01*
X26005000Y14976250D01*
G75*
G02*
X26223750Y15195000I218750J0D01*
G01*
X26736250Y15195000D01*
G75*
G02*
X26955000Y14976250I0J-218750D01*
G01*
X26955000Y14538750D01*
G75*
G02*
X26736250Y14320000I-218750J0D01*
G01*
G37*
G36*
G01*
X26736250Y12745000D02*
X26223750Y12745000D01*
G75*
G02*
X26005000Y12963750I0J218750D01*
G01*
X26005000Y13401250D01*
G75*
G02*
X26223750Y13620000I218750J0D01*
G01*
X26736250Y13620000D01*
G75*
G02*
X26955000Y13401250I0J-218750D01*
G01*
X26955000Y12963750D01*
G75*
G02*
X26736250Y12745000I-218750J0D01*
G01*
G37*
G36*
G01*
X26570000Y10963750D02*
X26570000Y11476250D01*
G75*
G02*
X26788750Y11695000I218750J0D01*
G01*
X27226250Y11695000D01*
G75*
G02*
X27445000Y11476250I0J-218750D01*
G01*
X27445000Y10963750D01*
G75*
G02*
X27226250Y10745000I-218750J0D01*
G01*
X26788750Y10745000D01*
G75*
G02*
X26570000Y10963750I0J218750D01*
G01*
G37*
G36*
G01*
X24995000Y10963750D02*
X24995000Y11476250D01*
G75*
G02*
X25213750Y11695000I218750J0D01*
G01*
X25651250Y11695000D01*
G75*
G02*
X25870000Y11476250I0J-218750D01*
G01*
X25870000Y10963750D01*
G75*
G02*
X25651250Y10745000I-218750J0D01*
G01*
X25213750Y10745000D01*
G75*
G02*
X24995000Y10963750I0J218750D01*
G01*
G37*
G36*
G01*
X34500000Y10963750D02*
X34500000Y11476250D01*
G75*
G02*
X34718750Y11695000I218750J0D01*
G01*
X35156250Y11695000D01*
G75*
G02*
X35375000Y11476250I0J-218750D01*
G01*
X35375000Y10963750D01*
G75*
G02*
X35156250Y10745000I-218750J0D01*
G01*
X34718750Y10745000D01*
G75*
G02*
X34500000Y10963750I0J218750D01*
G01*
G37*
G36*
G01*
X32925000Y10963750D02*
X32925000Y11476250D01*
G75*
G02*
X33143750Y11695000I218750J0D01*
G01*
X33581250Y11695000D01*
G75*
G02*
X33800000Y11476250I0J-218750D01*
G01*
X33800000Y10963750D01*
G75*
G02*
X33581250Y10745000I-218750J0D01*
G01*
X33143750Y10745000D01*
G75*
G02*
X32925000Y10963750I0J218750D01*
G01*
G37*
D20*
X6400000Y21056000D03*
X6400000Y19024000D03*
D21*
X14020000Y20040000D03*
G36*
G01*
X34316250Y14330000D02*
X33803750Y14330000D01*
G75*
G02*
X33585000Y14548750I0J218750D01*
G01*
X33585000Y14986250D01*
G75*
G02*
X33803750Y15205000I218750J0D01*
G01*
X34316250Y15205000D01*
G75*
G02*
X34535000Y14986250I0J-218750D01*
G01*
X34535000Y14548750D01*
G75*
G02*
X34316250Y14330000I-218750J0D01*
G01*
G37*
G36*
G01*
X34316250Y12755000D02*
X33803750Y12755000D01*
G75*
G02*
X33585000Y12973750I0J218750D01*
G01*
X33585000Y13411250D01*
G75*
G02*
X33803750Y13630000I218750J0D01*
G01*
X34316250Y13630000D01*
G75*
G02*
X34535000Y13411250I0J-218750D01*
G01*
X34535000Y12973750D01*
G75*
G02*
X34316250Y12755000I-218750J0D01*
G01*
G37*
D22*
X12090000Y10260000D03*
D23*
X12090000Y8990000D03*
X10820000Y10060000D03*
X10820000Y8790000D03*
X9550000Y10260000D03*
X9550000Y8990000D03*
X8280000Y10060000D03*
X8280000Y8790000D03*
X7010000Y10260000D03*
X7010000Y8990000D03*
D24*
X25860000Y1790000D03*
X34500000Y1790000D03*
D25*
X25860000Y7150000D03*
X34500000Y7150000D03*
D26*
X33280000Y6260000D03*
D27*
X32430000Y6260000D03*
X31930000Y6260000D03*
X31430000Y6260000D03*
X30930000Y6260000D03*
X30430000Y6260000D03*
X29930000Y6260000D03*
X29430000Y6260000D03*
X28930000Y6260000D03*
X28430000Y6260000D03*
X27930000Y6260000D03*
D26*
X27080000Y6260000D03*
D27*
X27180000Y7560000D03*
X27680000Y7560000D03*
X28180000Y7560000D03*
X28680000Y7560000D03*
X29180000Y7560000D03*
X29680000Y7560000D03*
X30680000Y7560000D03*
X31180000Y7560000D03*
X31680000Y7560000D03*
X32180000Y7560000D03*
X32680000Y7560000D03*
X33180000Y7560000D03*
G36*
G01*
X38953750Y6060000D02*
X39466250Y6060000D01*
G75*
G02*
X39685000Y5841250I0J-218750D01*
G01*
X39685000Y5403750D01*
G75*
G02*
X39466250Y5185000I-218750J0D01*
G01*
X38953750Y5185000D01*
G75*
G02*
X38735000Y5403750I0J218750D01*
G01*
X38735000Y5841250D01*
G75*
G02*
X38953750Y6060000I218750J0D01*
G01*
G37*
G36*
G01*
X38953750Y7635000D02*
X39466250Y7635000D01*
G75*
G02*
X39685000Y7416250I0J-218750D01*
G01*
X39685000Y6978750D01*
G75*
G02*
X39466250Y6760000I-218750J0D01*
G01*
X38953750Y6760000D01*
G75*
G02*
X38735000Y6978750I0J218750D01*
G01*
X38735000Y7416250D01*
G75*
G02*
X38953750Y7635000I218750J0D01*
G01*
G37*
G36*
G01*
X42185000Y14733750D02*
X42185000Y15246250D01*
G75*
G02*
X42403750Y15465000I218750J0D01*
G01*
X42841250Y15465000D01*
G75*
G02*
X43060000Y15246250I0J-218750D01*
G01*
X43060000Y14733750D01*
G75*
G02*
X42841250Y14515000I-218750J0D01*
G01*
X42403750Y14515000D01*
G75*
G02*
X42185000Y14733750I0J218750D01*
G01*
G37*
G36*
G01*
X43760000Y14733750D02*
X43760000Y15246250D01*
G75*
G02*
X43978750Y15465000I218750J0D01*
G01*
X44416250Y15465000D01*
G75*
G02*
X44635000Y15246250I0J-218750D01*
G01*
X44635000Y14733750D01*
G75*
G02*
X44416250Y14515000I-218750J0D01*
G01*
X43978750Y14515000D01*
G75*
G02*
X43760000Y14733750I0J218750D01*
G01*
G37*
D28*
X15375001Y42245001D03*
X12835001Y42245001D03*
X10295001Y42245001D03*
D29*
X7755001Y42245001D03*
X7755001Y49375001D03*
D28*
X10295001Y49375001D03*
X12835001Y49375001D03*
X15375001Y49375001D03*
D29*
X7755001Y56505001D03*
D28*
X10295001Y56505001D03*
X12835001Y56505001D03*
X15375001Y56505001D03*
D29*
X12160000Y33180000D03*
D28*
X12160000Y30640000D03*
X9620000Y33180000D03*
X9620000Y30640000D03*
X7080000Y33180000D03*
X7080000Y30640000D03*
D29*
X84090000Y56980000D03*
D28*
X84090000Y54440000D03*
X84090000Y51900000D03*
X84090000Y49360000D03*
D29*
X86630000Y56980000D03*
D28*
X86630000Y54440000D03*
X86630000Y51900000D03*
X86630000Y49360000D03*
X81550000Y49360000D03*
X81550000Y51900000D03*
X81550000Y54440000D03*
D29*
X81550000Y56980000D03*
X76900000Y66720000D03*
D28*
X76900000Y64180000D03*
X74360000Y66720000D03*
X74360000Y64180000D03*
X71820000Y66720000D03*
X71820000Y64180000D03*
X69280000Y66720000D03*
X69280000Y64180000D03*
X66740000Y66720000D03*
X66740000Y64180000D03*
X64200000Y66720000D03*
X64200000Y64180000D03*
X61660000Y66720000D03*
X61660000Y64180000D03*
X59120000Y66720000D03*
X59120000Y64180000D03*
X56580000Y66720000D03*
X56580000Y64180000D03*
X54040000Y66720000D03*
X54040000Y64180000D03*
X51500000Y66720000D03*
X51500000Y64180000D03*
X48960000Y66720000D03*
X48960000Y64180000D03*
X46420000Y66720000D03*
X46420000Y64180000D03*
X43880000Y66720000D03*
X43880000Y64180000D03*
X41340000Y66720000D03*
X41340000Y64180000D03*
X38800000Y66720000D03*
X38800000Y64180000D03*
X36260000Y66720000D03*
X36260000Y64180000D03*
X33720000Y66720000D03*
X33720000Y64180000D03*
X31180000Y66720000D03*
X31180000Y64180000D03*
X28640000Y66720000D03*
X28640000Y64180000D03*
G36*
G01*
X3695000Y51595000D02*
X3695000Y51045000D01*
G75*
G02*
X3495000Y50845000I-200000J0D01*
G01*
X3095000Y50845000D01*
G75*
G02*
X2895000Y51045000I0J200000D01*
G01*
X2895000Y51595000D01*
G75*
G02*
X3095000Y51795000I200000J0D01*
G01*
X3495000Y51795000D01*
G75*
G02*
X3695000Y51595000I0J-200000D01*
G01*
G37*
G36*
G01*
X5345000Y51595000D02*
X5345000Y51045000D01*
G75*
G02*
X5145000Y50845000I-200000J0D01*
G01*
X4745000Y50845000D01*
G75*
G02*
X4545000Y51045000I0J200000D01*
G01*
X4545000Y51595000D01*
G75*
G02*
X4745000Y51795000I200000J0D01*
G01*
X5145000Y51795000D01*
G75*
G02*
X5345000Y51595000I0J-200000D01*
G01*
G37*
G36*
G01*
X5425000Y58815000D02*
X5425000Y58265000D01*
G75*
G02*
X5225000Y58065000I-200000J0D01*
G01*
X4825000Y58065000D01*
G75*
G02*
X4625000Y58265000I0J200000D01*
G01*
X4625000Y58815000D01*
G75*
G02*
X4825000Y59015000I200000J0D01*
G01*
X5225000Y59015000D01*
G75*
G02*
X5425000Y58815000I0J-200000D01*
G01*
G37*
G36*
G01*
X3775000Y58815000D02*
X3775000Y58265000D01*
G75*
G02*
X3575000Y58065000I-200000J0D01*
G01*
X3175000Y58065000D01*
G75*
G02*
X2975000Y58265000I0J200000D01*
G01*
X2975000Y58815000D01*
G75*
G02*
X3175000Y59015000I200000J0D01*
G01*
X3575000Y59015000D01*
G75*
G02*
X3775000Y58815000I0J-200000D01*
G01*
G37*
G36*
G01*
X59090000Y110235000D02*
X58590000Y110235000D01*
G75*
G02*
X58365000Y110460000I0J225000D01*
G01*
X58365000Y110910000D01*
G75*
G02*
X58590000Y111135000I225000J0D01*
G01*
X59090000Y111135000D01*
G75*
G02*
X59315000Y110910000I0J-225000D01*
G01*
X59315000Y110460000D01*
G75*
G02*
X59090000Y110235000I-225000J0D01*
G01*
G37*
G36*
G01*
X59090000Y111785000D02*
X58590000Y111785000D01*
G75*
G02*
X58365000Y112010000I0J225000D01*
G01*
X58365000Y112460000D01*
G75*
G02*
X58590000Y112685000I225000J0D01*
G01*
X59090000Y112685000D01*
G75*
G02*
X59315000Y112460000I0J-225000D01*
G01*
X59315000Y112010000D01*
G75*
G02*
X59090000Y111785000I-225000J0D01*
G01*
G37*
D29*
X25650000Y55000000D03*
D28*
X25650000Y52460000D03*
X25650000Y49920000D03*
X30630000Y49920000D03*
X30630000Y52460000D03*
D29*
X30630000Y55000000D03*
D30*
X68610000Y114052500D03*
X68610000Y113417500D03*
X68610000Y112782500D03*
X68610000Y112147500D03*
X68610000Y111512500D03*
X68610000Y110877500D03*
X68610000Y110242500D03*
X68610000Y109607500D03*
X63410000Y109607500D03*
X63410000Y110242500D03*
X63410000Y110877500D03*
X63410000Y111512500D03*
X63410000Y112147500D03*
X63410000Y112782500D03*
X63410000Y113417500D03*
X63410000Y114052500D03*
M02*
