G04 #@! TF.GenerationSoftware,KiCad,Pcbnew,(5.1.9)-1*
G04 #@! TF.CreationDate,2021-01-16T22:32:26-07:00*
G04 #@! TF.ProjectId,purplewizard-pogo,70757270-6c65-4776-997a-6172642d706f,1*
G04 #@! TF.SameCoordinates,Original*
G04 #@! TF.FileFunction,Legend,Bot*
G04 #@! TF.FilePolarity,Positive*
%FSLAX46Y46*%
G04 Gerber Fmt 4.6, Leading zero omitted, Abs format (unit mm)*
G04 Created by KiCad (PCBNEW (5.1.9)-1) date 2021-01-16 22:32:26*
%MOMM*%
%LPD*%
G01*
G04 APERTURE LIST*
%ADD10C,0.120000*%
%ADD11C,0.127000*%
%ADD12C,0.150000*%
%ADD13C,2.200000*%
%ADD14R,2.500000X1.800000*%
%ADD15C,0.900000*%
%ADD16R,1.300000X0.300000*%
%ADD17R,2.200000X1.800000*%
%ADD18R,1.000000X1.400000*%
%ADD19R,1.200000X1.400000*%
%ADD20C,0.985520*%
%ADD21C,0.988060*%
%ADD22R,1.000000X1.000000*%
%ADD23O,1.000000X1.000000*%
%ADD24O,1.300000X2.600000*%
%ADD25O,1.100000X2.200000*%
%ADD26R,1.000000X0.700000*%
%ADD27R,0.300000X0.700000*%
%ADD28O,1.700000X1.700000*%
%ADD29R,1.700000X1.700000*%
%ADD30R,1.200000X0.400000*%
G04 APERTURE END LIST*
D10*
X204565600Y-169633600D02*
X204565600Y-172933600D01*
X204565600Y-172933600D02*
X199165600Y-172933600D01*
X204565600Y-169633600D02*
X199165600Y-169633600D01*
X168282821Y-162763600D02*
X168608379Y-162763600D01*
X168282821Y-163783600D02*
X168608379Y-163783600D01*
X178585600Y-145043600D02*
X178585600Y-143553600D01*
X178585600Y-143553600D02*
X179925600Y-143553600D01*
X178585600Y-170363600D02*
X178585600Y-171853600D01*
X178585600Y-171853600D02*
X179925600Y-171853600D01*
X182645600Y-143553600D02*
X184385600Y-143553600D01*
X184385600Y-143553600D02*
X184385600Y-171853600D01*
X184385600Y-171853600D02*
X182645600Y-171853600D01*
X178585600Y-145043600D02*
X177385600Y-145043600D01*
X204565600Y-164093600D02*
X204565600Y-167393600D01*
X204565600Y-167393600D02*
X199165600Y-167393600D01*
X204565600Y-164093600D02*
X199165600Y-164093600D01*
X154005047Y-166683600D02*
X153679489Y-166683600D01*
X154005047Y-167703600D02*
X153679489Y-167703600D01*
X157031713Y-166673600D02*
X156706155Y-166673600D01*
X157031713Y-167693600D02*
X156706155Y-167693600D01*
X162115600Y-173840821D02*
X162115600Y-174166379D01*
X163135600Y-173840821D02*
X163135600Y-174166379D01*
X156925600Y-162703600D02*
X156925600Y-165103600D01*
X153825600Y-165103600D02*
X153825600Y-162153600D01*
X173665600Y-145130821D02*
X173665600Y-145456379D01*
X174685600Y-145130821D02*
X174685600Y-145456379D01*
X152075600Y-166606379D02*
X152075600Y-166280821D01*
X151055600Y-166606379D02*
X151055600Y-166280821D01*
X151142821Y-169703600D02*
X151468379Y-169703600D01*
X151142821Y-168683600D02*
X151468379Y-168683600D01*
X159072821Y-169703600D02*
X159398379Y-169703600D01*
X159072821Y-168683600D02*
X159398379Y-168683600D01*
X159655600Y-166596379D02*
X159655600Y-166270821D01*
X158635600Y-166596379D02*
X158635600Y-166270821D01*
D11*
X159735600Y-180393600D02*
X150795600Y-180393600D01*
X159735600Y-176923600D02*
X159735600Y-174723600D01*
X150795600Y-176923600D02*
X150795600Y-174723600D01*
D10*
X163785600Y-173840821D02*
X163785600Y-174166379D01*
X164805600Y-173840821D02*
X164805600Y-174166379D01*
X168332821Y-164913600D02*
X168658379Y-164913600D01*
X168332821Y-165933600D02*
X168658379Y-165933600D01*
X129442858Y-128571100D02*
X128968342Y-128571100D01*
X129442858Y-129616100D02*
X128968342Y-129616100D01*
X129522858Y-122396100D02*
X129048342Y-122396100D01*
X129522858Y-121351100D02*
X129048342Y-121351100D01*
X183415600Y-69094180D02*
X183415600Y-68813020D01*
X184435600Y-69094180D02*
X184435600Y-68813020D01*
D12*
X194370600Y-65858600D02*
X189095600Y-65858600D01*
X193095600Y-71258600D02*
X189095600Y-71258600D01*
X201903695Y-169235980D02*
X201903695Y-168235980D01*
X201665600Y-168235980D01*
X201522742Y-168283600D01*
X201427504Y-168378838D01*
X201379885Y-168474076D01*
X201332266Y-168664552D01*
X201332266Y-168807409D01*
X201379885Y-168997885D01*
X201427504Y-169093123D01*
X201522742Y-169188361D01*
X201665600Y-169235980D01*
X201903695Y-169235980D01*
X200379885Y-169235980D02*
X200951314Y-169235980D01*
X200665600Y-169235980D02*
X200665600Y-168235980D01*
X200760838Y-168378838D01*
X200856076Y-168474076D01*
X200951314Y-168521695D01*
X172238457Y-163620742D02*
X172286076Y-163668361D01*
X172428933Y-163715980D01*
X172524171Y-163715980D01*
X172667028Y-163668361D01*
X172762266Y-163573123D01*
X172809885Y-163477885D01*
X172857504Y-163287409D01*
X172857504Y-163144552D01*
X172809885Y-162954076D01*
X172762266Y-162858838D01*
X172667028Y-162763600D01*
X172524171Y-162715980D01*
X172428933Y-162715980D01*
X172286076Y-162763600D01*
X172238457Y-162811219D01*
X171857504Y-162811219D02*
X171809885Y-162763600D01*
X171714647Y-162715980D01*
X171476552Y-162715980D01*
X171381314Y-162763600D01*
X171333695Y-162811219D01*
X171286076Y-162906457D01*
X171286076Y-163001695D01*
X171333695Y-163144552D01*
X171905123Y-163715980D01*
X171286076Y-163715980D01*
X170428933Y-162715980D02*
X170619409Y-162715980D01*
X170714647Y-162763600D01*
X170762266Y-162811219D01*
X170857504Y-162954076D01*
X170905123Y-163144552D01*
X170905123Y-163525504D01*
X170857504Y-163620742D01*
X170809885Y-163668361D01*
X170714647Y-163715980D01*
X170524171Y-163715980D01*
X170428933Y-163668361D01*
X170381314Y-163620742D01*
X170333695Y-163525504D01*
X170333695Y-163287409D01*
X170381314Y-163192171D01*
X170428933Y-163144552D01*
X170524171Y-163096933D01*
X170714647Y-163096933D01*
X170809885Y-163144552D01*
X170857504Y-163192171D01*
X170905123Y-163287409D01*
X182125123Y-140655980D02*
X182125123Y-141370266D01*
X182172742Y-141513123D01*
X182267980Y-141608361D01*
X182410838Y-141655980D01*
X182506076Y-141655980D01*
X181125123Y-141655980D02*
X181696552Y-141655980D01*
X181410838Y-141655980D02*
X181410838Y-140655980D01*
X181506076Y-140798838D01*
X181601314Y-140894076D01*
X181696552Y-140941695D01*
X180267980Y-140655980D02*
X180458457Y-140655980D01*
X180553695Y-140703600D01*
X180601314Y-140751219D01*
X180696552Y-140894076D01*
X180744171Y-141084552D01*
X180744171Y-141465504D01*
X180696552Y-141560742D01*
X180648933Y-141608361D01*
X180553695Y-141655980D01*
X180363219Y-141655980D01*
X180267980Y-141608361D01*
X180220361Y-141560742D01*
X180172742Y-141465504D01*
X180172742Y-141227409D01*
X180220361Y-141132171D01*
X180267980Y-141084552D01*
X180363219Y-141036933D01*
X180553695Y-141036933D01*
X180648933Y-141084552D01*
X180696552Y-141132171D01*
X180744171Y-141227409D01*
X201863695Y-163675980D02*
X201863695Y-162675980D01*
X201625600Y-162675980D01*
X201482742Y-162723600D01*
X201387504Y-162818838D01*
X201339885Y-162914076D01*
X201292266Y-163104552D01*
X201292266Y-163247409D01*
X201339885Y-163437885D01*
X201387504Y-163533123D01*
X201482742Y-163628361D01*
X201625600Y-163675980D01*
X201863695Y-163675980D01*
X200911314Y-162771219D02*
X200863695Y-162723600D01*
X200768457Y-162675980D01*
X200530361Y-162675980D01*
X200435123Y-162723600D01*
X200387504Y-162771219D01*
X200339885Y-162866457D01*
X200339885Y-162961695D01*
X200387504Y-163104552D01*
X200958933Y-163675980D01*
X200339885Y-163675980D01*
X154892742Y-168700742D02*
X154940361Y-168653123D01*
X154987980Y-168510266D01*
X154987980Y-168415028D01*
X154940361Y-168272171D01*
X154845123Y-168176933D01*
X154749885Y-168129314D01*
X154559409Y-168081695D01*
X154416552Y-168081695D01*
X154226076Y-168129314D01*
X154130838Y-168176933D01*
X154035600Y-168272171D01*
X153987980Y-168415028D01*
X153987980Y-168510266D01*
X154035600Y-168653123D01*
X154083219Y-168700742D01*
X154987980Y-169653123D02*
X154987980Y-169081695D01*
X154987980Y-169367409D02*
X153987980Y-169367409D01*
X154130838Y-169272171D01*
X154226076Y-169176933D01*
X154273695Y-169081695D01*
X153987980Y-170272171D02*
X153987980Y-170367409D01*
X154035600Y-170462647D01*
X154083219Y-170510266D01*
X154178457Y-170557885D01*
X154368933Y-170605504D01*
X154607028Y-170605504D01*
X154797504Y-170557885D01*
X154892742Y-170510266D01*
X154940361Y-170462647D01*
X154987980Y-170367409D01*
X154987980Y-170272171D01*
X154940361Y-170176933D01*
X154892742Y-170129314D01*
X154797504Y-170081695D01*
X154607028Y-170034076D01*
X154368933Y-170034076D01*
X154178457Y-170081695D01*
X154083219Y-170129314D01*
X154035600Y-170176933D01*
X153987980Y-170272171D01*
X156352742Y-168720742D02*
X156400361Y-168673123D01*
X156447980Y-168530266D01*
X156447980Y-168435028D01*
X156400361Y-168292171D01*
X156305123Y-168196933D01*
X156209885Y-168149314D01*
X156019409Y-168101695D01*
X155876552Y-168101695D01*
X155686076Y-168149314D01*
X155590838Y-168196933D01*
X155495600Y-168292171D01*
X155447980Y-168435028D01*
X155447980Y-168530266D01*
X155495600Y-168673123D01*
X155543219Y-168720742D01*
X156447980Y-169673123D02*
X156447980Y-169101695D01*
X156447980Y-169387409D02*
X155447980Y-169387409D01*
X155590838Y-169292171D01*
X155686076Y-169196933D01*
X155733695Y-169101695D01*
X156447980Y-170625504D02*
X156447980Y-170054076D01*
X156447980Y-170339790D02*
X155447980Y-170339790D01*
X155590838Y-170244552D01*
X155686076Y-170149314D01*
X155733695Y-170054076D01*
X161552742Y-173360742D02*
X161600361Y-173313123D01*
X161647980Y-173170266D01*
X161647980Y-173075028D01*
X161600361Y-172932171D01*
X161505123Y-172836933D01*
X161409885Y-172789314D01*
X161219409Y-172741695D01*
X161076552Y-172741695D01*
X160886076Y-172789314D01*
X160790838Y-172836933D01*
X160695600Y-172932171D01*
X160647980Y-173075028D01*
X160647980Y-173170266D01*
X160695600Y-173313123D01*
X160743219Y-173360742D01*
X161647980Y-174313123D02*
X161647980Y-173741695D01*
X161647980Y-174027409D02*
X160647980Y-174027409D01*
X160790838Y-173932171D01*
X160886076Y-173836933D01*
X160933695Y-173741695D01*
X160981314Y-175170266D02*
X161647980Y-175170266D01*
X160600361Y-174932171D02*
X161314647Y-174694076D01*
X161314647Y-175313123D01*
X156203695Y-161575980D02*
X156203695Y-160575980D01*
X155965600Y-160575980D01*
X155822742Y-160623600D01*
X155727504Y-160718838D01*
X155679885Y-160814076D01*
X155632266Y-161004552D01*
X155632266Y-161147409D01*
X155679885Y-161337885D01*
X155727504Y-161433123D01*
X155822742Y-161528361D01*
X155965600Y-161575980D01*
X156203695Y-161575980D01*
X154775123Y-160909314D02*
X154775123Y-161575980D01*
X155013219Y-160528361D02*
X155251314Y-161242647D01*
X154632266Y-161242647D01*
X172388457Y-145785980D02*
X172721790Y-145309790D01*
X172959885Y-145785980D02*
X172959885Y-144785980D01*
X172578933Y-144785980D01*
X172483695Y-144833600D01*
X172436076Y-144881219D01*
X172388457Y-144976457D01*
X172388457Y-145119314D01*
X172436076Y-145214552D01*
X172483695Y-145262171D01*
X172578933Y-145309790D01*
X172959885Y-145309790D01*
X171436076Y-145785980D02*
X172007504Y-145785980D01*
X171721790Y-145785980D02*
X171721790Y-144785980D01*
X171817028Y-144928838D01*
X171912266Y-145024076D01*
X172007504Y-145071695D01*
X171102742Y-144785980D02*
X170483695Y-144785980D01*
X170817028Y-145166933D01*
X170674171Y-145166933D01*
X170578933Y-145214552D01*
X170531314Y-145262171D01*
X170483695Y-145357409D01*
X170483695Y-145595504D01*
X170531314Y-145690742D01*
X170578933Y-145738361D01*
X170674171Y-145785980D01*
X170959885Y-145785980D01*
X171055123Y-145738361D01*
X171102742Y-145690742D01*
X149852266Y-166985980D02*
X150185600Y-166509790D01*
X150423695Y-166985980D02*
X150423695Y-165985980D01*
X150042742Y-165985980D01*
X149947504Y-166033600D01*
X149899885Y-166081219D01*
X149852266Y-166176457D01*
X149852266Y-166319314D01*
X149899885Y-166414552D01*
X149947504Y-166462171D01*
X150042742Y-166509790D01*
X150423695Y-166509790D01*
X149518933Y-165985980D02*
X148852266Y-165985980D01*
X149280838Y-166985980D01*
X148838457Y-169725980D02*
X149171790Y-169249790D01*
X149409885Y-169725980D02*
X149409885Y-168725980D01*
X149028933Y-168725980D01*
X148933695Y-168773600D01*
X148886076Y-168821219D01*
X148838457Y-168916457D01*
X148838457Y-169059314D01*
X148886076Y-169154552D01*
X148933695Y-169202171D01*
X149028933Y-169249790D01*
X149409885Y-169249790D01*
X147886076Y-169725980D02*
X148457504Y-169725980D01*
X148171790Y-169725980D02*
X148171790Y-168725980D01*
X148267028Y-168868838D01*
X148362266Y-168964076D01*
X148457504Y-169011695D01*
X146933695Y-169725980D02*
X147505123Y-169725980D01*
X147219409Y-169725980D02*
X147219409Y-168725980D01*
X147314647Y-168868838D01*
X147409885Y-168964076D01*
X147505123Y-169011695D01*
X163018457Y-169665980D02*
X163351790Y-169189790D01*
X163589885Y-169665980D02*
X163589885Y-168665980D01*
X163208933Y-168665980D01*
X163113695Y-168713600D01*
X163066076Y-168761219D01*
X163018457Y-168856457D01*
X163018457Y-168999314D01*
X163066076Y-169094552D01*
X163113695Y-169142171D01*
X163208933Y-169189790D01*
X163589885Y-169189790D01*
X162066076Y-169665980D02*
X162637504Y-169665980D01*
X162351790Y-169665980D02*
X162351790Y-168665980D01*
X162447028Y-168808838D01*
X162542266Y-168904076D01*
X162637504Y-168951695D01*
X161447028Y-168665980D02*
X161351790Y-168665980D01*
X161256552Y-168713600D01*
X161208933Y-168761219D01*
X161161314Y-168856457D01*
X161113695Y-169046933D01*
X161113695Y-169285028D01*
X161161314Y-169475504D01*
X161208933Y-169570742D01*
X161256552Y-169618361D01*
X161351790Y-169665980D01*
X161447028Y-169665980D01*
X161542266Y-169618361D01*
X161589885Y-169570742D01*
X161637504Y-169475504D01*
X161685123Y-169285028D01*
X161685123Y-169046933D01*
X161637504Y-168856457D01*
X161589885Y-168761219D01*
X161542266Y-168713600D01*
X161447028Y-168665980D01*
X161292266Y-166975980D02*
X161625600Y-166499790D01*
X161863695Y-166975980D02*
X161863695Y-165975980D01*
X161482742Y-165975980D01*
X161387504Y-166023600D01*
X161339885Y-166071219D01*
X161292266Y-166166457D01*
X161292266Y-166309314D01*
X161339885Y-166404552D01*
X161387504Y-166452171D01*
X161482742Y-166499790D01*
X161863695Y-166499790D01*
X160720838Y-166404552D02*
X160816076Y-166356933D01*
X160863695Y-166309314D01*
X160911314Y-166214076D01*
X160911314Y-166166457D01*
X160863695Y-166071219D01*
X160816076Y-166023600D01*
X160720838Y-165975980D01*
X160530361Y-165975980D01*
X160435123Y-166023600D01*
X160387504Y-166071219D01*
X160339885Y-166166457D01*
X160339885Y-166214076D01*
X160387504Y-166309314D01*
X160435123Y-166356933D01*
X160530361Y-166404552D01*
X160720838Y-166404552D01*
X160816076Y-166452171D01*
X160863695Y-166499790D01*
X160911314Y-166595028D01*
X160911314Y-166785504D01*
X160863695Y-166880742D01*
X160816076Y-166928361D01*
X160720838Y-166975980D01*
X160530361Y-166975980D01*
X160435123Y-166928361D01*
X160387504Y-166880742D01*
X160339885Y-166785504D01*
X160339885Y-166595028D01*
X160387504Y-166499790D01*
X160435123Y-166452171D01*
X160530361Y-166404552D01*
X162925123Y-178335980D02*
X162925123Y-179050266D01*
X162972742Y-179193123D01*
X163067980Y-179288361D01*
X163210838Y-179335980D01*
X163306076Y-179335980D01*
X161925123Y-179335980D02*
X162496552Y-179335980D01*
X162210838Y-179335980D02*
X162210838Y-178335980D01*
X162306076Y-178478838D01*
X162401314Y-178574076D01*
X162496552Y-178621695D01*
X161020361Y-178335980D02*
X161496552Y-178335980D01*
X161544171Y-178812171D01*
X161496552Y-178764552D01*
X161401314Y-178716933D01*
X161163219Y-178716933D01*
X161067980Y-178764552D01*
X161020361Y-178812171D01*
X160972742Y-178907409D01*
X160972742Y-179145504D01*
X161020361Y-179240742D01*
X161067980Y-179288361D01*
X161163219Y-179335980D01*
X161401314Y-179335980D01*
X161496552Y-179288361D01*
X161544171Y-179240742D01*
X166217980Y-173370742D02*
X165741790Y-173037409D01*
X166217980Y-172799314D02*
X165217980Y-172799314D01*
X165217980Y-173180266D01*
X165265600Y-173275504D01*
X165313219Y-173323123D01*
X165408457Y-173370742D01*
X165551314Y-173370742D01*
X165646552Y-173323123D01*
X165694171Y-173275504D01*
X165741790Y-173180266D01*
X165741790Y-172799314D01*
X166217980Y-174323123D02*
X166217980Y-173751695D01*
X166217980Y-174037409D02*
X165217980Y-174037409D01*
X165360838Y-173942171D01*
X165456076Y-173846933D01*
X165503695Y-173751695D01*
X165313219Y-174704076D02*
X165265600Y-174751695D01*
X165217980Y-174846933D01*
X165217980Y-175085028D01*
X165265600Y-175180266D01*
X165313219Y-175227885D01*
X165408457Y-175275504D01*
X165503695Y-175275504D01*
X165646552Y-175227885D01*
X166217980Y-174656457D01*
X166217980Y-175275504D01*
X172308457Y-165780742D02*
X172356076Y-165828361D01*
X172498933Y-165875980D01*
X172594171Y-165875980D01*
X172737028Y-165828361D01*
X172832266Y-165733123D01*
X172879885Y-165637885D01*
X172927504Y-165447409D01*
X172927504Y-165304552D01*
X172879885Y-165114076D01*
X172832266Y-165018838D01*
X172737028Y-164923600D01*
X172594171Y-164875980D01*
X172498933Y-164875980D01*
X172356076Y-164923600D01*
X172308457Y-164971219D01*
X171927504Y-164971219D02*
X171879885Y-164923600D01*
X171784647Y-164875980D01*
X171546552Y-164875980D01*
X171451314Y-164923600D01*
X171403695Y-164971219D01*
X171356076Y-165066457D01*
X171356076Y-165161695D01*
X171403695Y-165304552D01*
X171975123Y-165875980D01*
X171356076Y-165875980D01*
X170451314Y-164875980D02*
X170927504Y-164875980D01*
X170975123Y-165352171D01*
X170927504Y-165304552D01*
X170832266Y-165256933D01*
X170594171Y-165256933D01*
X170498933Y-165304552D01*
X170451314Y-165352171D01*
X170403695Y-165447409D01*
X170403695Y-165685504D01*
X170451314Y-165780742D01*
X170498933Y-165828361D01*
X170594171Y-165875980D01*
X170832266Y-165875980D01*
X170927504Y-165828361D01*
X170975123Y-165780742D01*
X129372266Y-128115980D02*
X129705600Y-127639790D01*
X129943695Y-128115980D02*
X129943695Y-127115980D01*
X129562742Y-127115980D01*
X129467504Y-127163600D01*
X129419885Y-127211219D01*
X129372266Y-127306457D01*
X129372266Y-127449314D01*
X129419885Y-127544552D01*
X129467504Y-127592171D01*
X129562742Y-127639790D01*
X129943695Y-127639790D01*
X128419885Y-128115980D02*
X128991314Y-128115980D01*
X128705600Y-128115980D02*
X128705600Y-127115980D01*
X128800838Y-127258838D01*
X128896076Y-127354076D01*
X128991314Y-127401695D01*
X129452266Y-120895980D02*
X129785600Y-120419790D01*
X130023695Y-120895980D02*
X130023695Y-119895980D01*
X129642742Y-119895980D01*
X129547504Y-119943600D01*
X129499885Y-119991219D01*
X129452266Y-120086457D01*
X129452266Y-120229314D01*
X129499885Y-120324552D01*
X129547504Y-120372171D01*
X129642742Y-120419790D01*
X130023695Y-120419790D01*
X129071314Y-119991219D02*
X129023695Y-119943600D01*
X128928457Y-119895980D01*
X128690361Y-119895980D01*
X128595123Y-119943600D01*
X128547504Y-119991219D01*
X128499885Y-120086457D01*
X128499885Y-120181695D01*
X128547504Y-120324552D01*
X129118933Y-120895980D01*
X128499885Y-120895980D01*
X182282266Y-69330742D02*
X182329885Y-69378361D01*
X182472742Y-69425980D01*
X182567980Y-69425980D01*
X182710838Y-69378361D01*
X182806076Y-69283123D01*
X182853695Y-69187885D01*
X182901314Y-68997409D01*
X182901314Y-68854552D01*
X182853695Y-68664076D01*
X182806076Y-68568838D01*
X182710838Y-68473600D01*
X182567980Y-68425980D01*
X182472742Y-68425980D01*
X182329885Y-68473600D01*
X182282266Y-68521219D01*
X181329885Y-69425980D02*
X181901314Y-69425980D01*
X181615600Y-69425980D02*
X181615600Y-68425980D01*
X181710838Y-68568838D01*
X181806076Y-68664076D01*
X181901314Y-68711695D01*
X191857504Y-64535980D02*
X191857504Y-65345504D01*
X191809885Y-65440742D01*
X191762266Y-65488361D01*
X191667028Y-65535980D01*
X191476552Y-65535980D01*
X191381314Y-65488361D01*
X191333695Y-65440742D01*
X191286076Y-65345504D01*
X191286076Y-64535980D01*
X190286076Y-65535980D02*
X190857504Y-65535980D01*
X190571790Y-65535980D02*
X190571790Y-64535980D01*
X190667028Y-64678838D01*
X190762266Y-64774076D01*
X190857504Y-64821695D01*
%LPC*%
G36*
G01*
X186005600Y-169993600D02*
X186005600Y-145493600D01*
G75*
G02*
X187255600Y-144243600I1250000J0D01*
G01*
X189755600Y-144243600D01*
G75*
G02*
X191005600Y-145493600I0J-1250000D01*
G01*
X191005600Y-169993600D01*
G75*
G02*
X189755600Y-171243600I-1250000J0D01*
G01*
X187255600Y-171243600D01*
G75*
G02*
X186005600Y-169993600I0J1250000D01*
G01*
G37*
D13*
X214655600Y-58703600D03*
X214655600Y-62036933D03*
X214655600Y-68703600D03*
X214635600Y-65363600D03*
X165955600Y-51605600D03*
X165955600Y-43991600D03*
X165955600Y-49067600D03*
X128943600Y-52273600D03*
X165955600Y-41453600D03*
X165955600Y-46529600D03*
X165955600Y-54143600D03*
X128943600Y-59463600D03*
X128943600Y-55868600D03*
X200095600Y-53153600D03*
X200115600Y-49523600D03*
X200115600Y-45893600D03*
X195785600Y-99423600D03*
X195785600Y-95783600D03*
X195785600Y-92143600D03*
D14*
X199165600Y-171283600D03*
X203165600Y-171283600D03*
D15*
X212615600Y-162333600D03*
X212615600Y-169133600D03*
G36*
G01*
X167220600Y-163529850D02*
X167220600Y-163017350D01*
G75*
G02*
X167439350Y-162798600I218750J0D01*
G01*
X167876850Y-162798600D01*
G75*
G02*
X168095600Y-163017350I0J-218750D01*
G01*
X168095600Y-163529850D01*
G75*
G02*
X167876850Y-163748600I-218750J0D01*
G01*
X167439350Y-163748600D01*
G75*
G02*
X167220600Y-163529850I0J218750D01*
G01*
G37*
G36*
G01*
X168795600Y-163529850D02*
X168795600Y-163017350D01*
G75*
G02*
X169014350Y-162798600I218750J0D01*
G01*
X169451850Y-162798600D01*
G75*
G02*
X169670600Y-163017350I0J-218750D01*
G01*
X169670600Y-163529850D01*
G75*
G02*
X169451850Y-163748600I-218750J0D01*
G01*
X169014350Y-163748600D01*
G75*
G02*
X168795600Y-163529850I0J218750D01*
G01*
G37*
D16*
X178035600Y-169953600D03*
X178035600Y-169453600D03*
X178035600Y-168953600D03*
X178035600Y-168453600D03*
X178035600Y-167953600D03*
X178035600Y-167453600D03*
X178035600Y-166953600D03*
X178035600Y-166453600D03*
X178035600Y-165953600D03*
X178035600Y-165453600D03*
X178035600Y-164953600D03*
X178035600Y-164453600D03*
X178035600Y-163953600D03*
X178035600Y-163453600D03*
X178035600Y-162953600D03*
X178035600Y-162453600D03*
X178035600Y-161953600D03*
X178035600Y-161453600D03*
X178035600Y-160953600D03*
X178035600Y-160453600D03*
X178035600Y-159953600D03*
X178035600Y-159453600D03*
X178035600Y-158953600D03*
X178035600Y-158453600D03*
X178035600Y-157953600D03*
X178035600Y-157453600D03*
X178035600Y-156953600D03*
X178035600Y-156453600D03*
X178035600Y-155953600D03*
X178035600Y-155453600D03*
X178035600Y-154953600D03*
X178035600Y-154453600D03*
X178035600Y-153953600D03*
X178035600Y-153453600D03*
X178035600Y-152953600D03*
X178035600Y-152453600D03*
X178035600Y-151953600D03*
X178035600Y-151453600D03*
X178035600Y-150953600D03*
X178035600Y-150453600D03*
X178035600Y-149953600D03*
X178035600Y-149453600D03*
X178035600Y-148953600D03*
X178035600Y-148453600D03*
X178035600Y-147953600D03*
X178035600Y-147453600D03*
X178035600Y-146953600D03*
X178035600Y-146453600D03*
X178035600Y-145953600D03*
X178035600Y-145453600D03*
D17*
X181285600Y-143553600D03*
X181285600Y-171853600D03*
D14*
X199165600Y-165743600D03*
X203165600Y-165743600D03*
G36*
G01*
X153492268Y-166937350D02*
X153492268Y-167449850D01*
G75*
G02*
X153273518Y-167668600I-218750J0D01*
G01*
X152836018Y-167668600D01*
G75*
G02*
X152617268Y-167449850I0J218750D01*
G01*
X152617268Y-166937350D01*
G75*
G02*
X152836018Y-166718600I218750J0D01*
G01*
X153273518Y-166718600D01*
G75*
G02*
X153492268Y-166937350I0J-218750D01*
G01*
G37*
G36*
G01*
X155067268Y-166937350D02*
X155067268Y-167449850D01*
G75*
G02*
X154848518Y-167668600I-218750J0D01*
G01*
X154411018Y-167668600D01*
G75*
G02*
X154192268Y-167449850I0J218750D01*
G01*
X154192268Y-166937350D01*
G75*
G02*
X154411018Y-166718600I218750J0D01*
G01*
X154848518Y-166718600D01*
G75*
G02*
X155067268Y-166937350I0J-218750D01*
G01*
G37*
G36*
G01*
X156518934Y-166927350D02*
X156518934Y-167439850D01*
G75*
G02*
X156300184Y-167658600I-218750J0D01*
G01*
X155862684Y-167658600D01*
G75*
G02*
X155643934Y-167439850I0J218750D01*
G01*
X155643934Y-166927350D01*
G75*
G02*
X155862684Y-166708600I218750J0D01*
G01*
X156300184Y-166708600D01*
G75*
G02*
X156518934Y-166927350I0J-218750D01*
G01*
G37*
G36*
G01*
X158093934Y-166927350D02*
X158093934Y-167439850D01*
G75*
G02*
X157875184Y-167658600I-218750J0D01*
G01*
X157437684Y-167658600D01*
G75*
G02*
X157218934Y-167439850I0J218750D01*
G01*
X157218934Y-166927350D01*
G75*
G02*
X157437684Y-166708600I218750J0D01*
G01*
X157875184Y-166708600D01*
G75*
G02*
X158093934Y-166927350I0J-218750D01*
G01*
G37*
G36*
G01*
X162369350Y-174353600D02*
X162881850Y-174353600D01*
G75*
G02*
X163100600Y-174572350I0J-218750D01*
G01*
X163100600Y-175009850D01*
G75*
G02*
X162881850Y-175228600I-218750J0D01*
G01*
X162369350Y-175228600D01*
G75*
G02*
X162150600Y-175009850I0J218750D01*
G01*
X162150600Y-174572350D01*
G75*
G02*
X162369350Y-174353600I218750J0D01*
G01*
G37*
G36*
G01*
X162369350Y-172778600D02*
X162881850Y-172778600D01*
G75*
G02*
X163100600Y-172997350I0J-218750D01*
G01*
X163100600Y-173434850D01*
G75*
G02*
X162881850Y-173653600I-218750J0D01*
G01*
X162369350Y-173653600D01*
G75*
G02*
X162150600Y-173434850I0J218750D01*
G01*
X162150600Y-172997350D01*
G75*
G02*
X162369350Y-172778600I218750J0D01*
G01*
G37*
D18*
X154425600Y-165003600D03*
X156325600Y-165003600D03*
X156325600Y-162803600D03*
D19*
X154605600Y-162803600D03*
G36*
G01*
X173919350Y-145643600D02*
X174431850Y-145643600D01*
G75*
G02*
X174650600Y-145862350I0J-218750D01*
G01*
X174650600Y-146299850D01*
G75*
G02*
X174431850Y-146518600I-218750J0D01*
G01*
X173919350Y-146518600D01*
G75*
G02*
X173700600Y-146299850I0J218750D01*
G01*
X173700600Y-145862350D01*
G75*
G02*
X173919350Y-145643600I218750J0D01*
G01*
G37*
G36*
G01*
X173919350Y-144068600D02*
X174431850Y-144068600D01*
G75*
G02*
X174650600Y-144287350I0J-218750D01*
G01*
X174650600Y-144724850D01*
G75*
G02*
X174431850Y-144943600I-218750J0D01*
G01*
X173919350Y-144943600D01*
G75*
G02*
X173700600Y-144724850I0J218750D01*
G01*
X173700600Y-144287350D01*
G75*
G02*
X173919350Y-144068600I218750J0D01*
G01*
G37*
G36*
G01*
X151821850Y-166093600D02*
X151309350Y-166093600D01*
G75*
G02*
X151090600Y-165874850I0J218750D01*
G01*
X151090600Y-165437350D01*
G75*
G02*
X151309350Y-165218600I218750J0D01*
G01*
X151821850Y-165218600D01*
G75*
G02*
X152040600Y-165437350I0J-218750D01*
G01*
X152040600Y-165874850D01*
G75*
G02*
X151821850Y-166093600I-218750J0D01*
G01*
G37*
G36*
G01*
X151821850Y-167668600D02*
X151309350Y-167668600D01*
G75*
G02*
X151090600Y-167449850I0J218750D01*
G01*
X151090600Y-167012350D01*
G75*
G02*
X151309350Y-166793600I218750J0D01*
G01*
X151821850Y-166793600D01*
G75*
G02*
X152040600Y-167012350I0J-218750D01*
G01*
X152040600Y-167449850D01*
G75*
G02*
X151821850Y-167668600I-218750J0D01*
G01*
G37*
G36*
G01*
X151655600Y-169449850D02*
X151655600Y-168937350D01*
G75*
G02*
X151874350Y-168718600I218750J0D01*
G01*
X152311850Y-168718600D01*
G75*
G02*
X152530600Y-168937350I0J-218750D01*
G01*
X152530600Y-169449850D01*
G75*
G02*
X152311850Y-169668600I-218750J0D01*
G01*
X151874350Y-169668600D01*
G75*
G02*
X151655600Y-169449850I0J218750D01*
G01*
G37*
G36*
G01*
X150080600Y-169449850D02*
X150080600Y-168937350D01*
G75*
G02*
X150299350Y-168718600I218750J0D01*
G01*
X150736850Y-168718600D01*
G75*
G02*
X150955600Y-168937350I0J-218750D01*
G01*
X150955600Y-169449850D01*
G75*
G02*
X150736850Y-169668600I-218750J0D01*
G01*
X150299350Y-169668600D01*
G75*
G02*
X150080600Y-169449850I0J218750D01*
G01*
G37*
G36*
G01*
X159585600Y-169449850D02*
X159585600Y-168937350D01*
G75*
G02*
X159804350Y-168718600I218750J0D01*
G01*
X160241850Y-168718600D01*
G75*
G02*
X160460600Y-168937350I0J-218750D01*
G01*
X160460600Y-169449850D01*
G75*
G02*
X160241850Y-169668600I-218750J0D01*
G01*
X159804350Y-169668600D01*
G75*
G02*
X159585600Y-169449850I0J218750D01*
G01*
G37*
G36*
G01*
X158010600Y-169449850D02*
X158010600Y-168937350D01*
G75*
G02*
X158229350Y-168718600I218750J0D01*
G01*
X158666850Y-168718600D01*
G75*
G02*
X158885600Y-168937350I0J-218750D01*
G01*
X158885600Y-169449850D01*
G75*
G02*
X158666850Y-169668600I-218750J0D01*
G01*
X158229350Y-169668600D01*
G75*
G02*
X158010600Y-169449850I0J218750D01*
G01*
G37*
D20*
X131485600Y-159357600D03*
X131485600Y-161389600D03*
D21*
X139105600Y-160373600D03*
G36*
G01*
X159401850Y-166083600D02*
X158889350Y-166083600D01*
G75*
G02*
X158670600Y-165864850I0J218750D01*
G01*
X158670600Y-165427350D01*
G75*
G02*
X158889350Y-165208600I218750J0D01*
G01*
X159401850Y-165208600D01*
G75*
G02*
X159620600Y-165427350I0J-218750D01*
G01*
X159620600Y-165864850D01*
G75*
G02*
X159401850Y-166083600I-218750J0D01*
G01*
G37*
G36*
G01*
X159401850Y-167658600D02*
X158889350Y-167658600D01*
G75*
G02*
X158670600Y-167439850I0J218750D01*
G01*
X158670600Y-167002350D01*
G75*
G02*
X158889350Y-166783600I218750J0D01*
G01*
X159401850Y-166783600D01*
G75*
G02*
X159620600Y-167002350I0J-218750D01*
G01*
X159620600Y-167439850D01*
G75*
G02*
X159401850Y-167658600I-218750J0D01*
G01*
G37*
D22*
X137175600Y-170153600D03*
D23*
X137175600Y-171423600D03*
X135905600Y-170353600D03*
X135905600Y-171623600D03*
X134635600Y-170153600D03*
X134635600Y-171423600D03*
X133365600Y-170353600D03*
X133365600Y-171623600D03*
X132095600Y-170153600D03*
X132095600Y-171423600D03*
D24*
X150945600Y-178623600D03*
X159585600Y-178623600D03*
D25*
X150945600Y-173263600D03*
X159585600Y-173263600D03*
D26*
X158365600Y-174153600D03*
D27*
X157515600Y-174153600D03*
X157015600Y-174153600D03*
X156515600Y-174153600D03*
X156015600Y-174153600D03*
X155515600Y-174153600D03*
X155015600Y-174153600D03*
X154515600Y-174153600D03*
X154015600Y-174153600D03*
X153515600Y-174153600D03*
X153015600Y-174153600D03*
D26*
X152165600Y-174153600D03*
D27*
X152265600Y-172853600D03*
X152765600Y-172853600D03*
X153265600Y-172853600D03*
X153765600Y-172853600D03*
X154265600Y-172853600D03*
X154765600Y-172853600D03*
X155765600Y-172853600D03*
X156265600Y-172853600D03*
X156765600Y-172853600D03*
X157265600Y-172853600D03*
X157765600Y-172853600D03*
X158265600Y-172853600D03*
G36*
G01*
X164039350Y-174353600D02*
X164551850Y-174353600D01*
G75*
G02*
X164770600Y-174572350I0J-218750D01*
G01*
X164770600Y-175009850D01*
G75*
G02*
X164551850Y-175228600I-218750J0D01*
G01*
X164039350Y-175228600D01*
G75*
G02*
X163820600Y-175009850I0J218750D01*
G01*
X163820600Y-174572350D01*
G75*
G02*
X164039350Y-174353600I218750J0D01*
G01*
G37*
G36*
G01*
X164039350Y-172778600D02*
X164551850Y-172778600D01*
G75*
G02*
X164770600Y-172997350I0J-218750D01*
G01*
X164770600Y-173434850D01*
G75*
G02*
X164551850Y-173653600I-218750J0D01*
G01*
X164039350Y-173653600D01*
G75*
G02*
X163820600Y-173434850I0J218750D01*
G01*
X163820600Y-172997350D01*
G75*
G02*
X164039350Y-172778600I218750J0D01*
G01*
G37*
G36*
G01*
X167270600Y-165679850D02*
X167270600Y-165167350D01*
G75*
G02*
X167489350Y-164948600I218750J0D01*
G01*
X167926850Y-164948600D01*
G75*
G02*
X168145600Y-165167350I0J-218750D01*
G01*
X168145600Y-165679850D01*
G75*
G02*
X167926850Y-165898600I-218750J0D01*
G01*
X167489350Y-165898600D01*
G75*
G02*
X167270600Y-165679850I0J218750D01*
G01*
G37*
G36*
G01*
X168845600Y-165679850D02*
X168845600Y-165167350D01*
G75*
G02*
X169064350Y-164948600I218750J0D01*
G01*
X169501850Y-164948600D01*
G75*
G02*
X169720600Y-165167350I0J-218750D01*
G01*
X169720600Y-165679850D01*
G75*
G02*
X169501850Y-165898600I-218750J0D01*
G01*
X169064350Y-165898600D01*
G75*
G02*
X168845600Y-165679850I0J218750D01*
G01*
G37*
D28*
X140460601Y-138168599D03*
X137920601Y-138168599D03*
X135380601Y-138168599D03*
D29*
X132840601Y-138168599D03*
X132840601Y-131038599D03*
D28*
X135380601Y-131038599D03*
X137920601Y-131038599D03*
X140460601Y-131038599D03*
D29*
X132840601Y-123908599D03*
D28*
X135380601Y-123908599D03*
X137920601Y-123908599D03*
X140460601Y-123908599D03*
D29*
X137245600Y-147233600D03*
D28*
X137245600Y-149773600D03*
X134705600Y-147233600D03*
X134705600Y-149773600D03*
X132165600Y-147233600D03*
X132165600Y-149773600D03*
D29*
X209175600Y-123433600D03*
D28*
X209175600Y-125973600D03*
X209175600Y-128513600D03*
X209175600Y-131053600D03*
D29*
X211715600Y-123433600D03*
D28*
X211715600Y-125973600D03*
X211715600Y-128513600D03*
X211715600Y-131053600D03*
X206635600Y-131053600D03*
X206635600Y-128513600D03*
X206635600Y-125973600D03*
D29*
X206635600Y-123433600D03*
X201985600Y-113693600D03*
D28*
X201985600Y-116233600D03*
X199445600Y-113693600D03*
X199445600Y-116233600D03*
X196905600Y-113693600D03*
X196905600Y-116233600D03*
X194365600Y-113693600D03*
X194365600Y-116233600D03*
X191825600Y-113693600D03*
X191825600Y-116233600D03*
X189285600Y-113693600D03*
X189285600Y-116233600D03*
X186745600Y-113693600D03*
X186745600Y-116233600D03*
X184205600Y-113693600D03*
X184205600Y-116233600D03*
X181665600Y-113693600D03*
X181665600Y-116233600D03*
X179125600Y-113693600D03*
X179125600Y-116233600D03*
X176585600Y-113693600D03*
X176585600Y-116233600D03*
X174045600Y-113693600D03*
X174045600Y-116233600D03*
X171505600Y-113693600D03*
X171505600Y-116233600D03*
X168965600Y-113693600D03*
X168965600Y-116233600D03*
X166425600Y-113693600D03*
X166425600Y-116233600D03*
X163885600Y-113693600D03*
X163885600Y-116233600D03*
X161345600Y-113693600D03*
X161345600Y-116233600D03*
X158805600Y-113693600D03*
X158805600Y-116233600D03*
X156265600Y-113693600D03*
X156265600Y-116233600D03*
X153725600Y-113693600D03*
X153725600Y-116233600D03*
G36*
G01*
X128780600Y-128818600D02*
X128780600Y-129368600D01*
G75*
G02*
X128580600Y-129568600I-200000J0D01*
G01*
X128180600Y-129568600D01*
G75*
G02*
X127980600Y-129368600I0J200000D01*
G01*
X127980600Y-128818600D01*
G75*
G02*
X128180600Y-128618600I200000J0D01*
G01*
X128580600Y-128618600D01*
G75*
G02*
X128780600Y-128818600I0J-200000D01*
G01*
G37*
G36*
G01*
X130430600Y-128818600D02*
X130430600Y-129368600D01*
G75*
G02*
X130230600Y-129568600I-200000J0D01*
G01*
X129830600Y-129568600D01*
G75*
G02*
X129630600Y-129368600I0J200000D01*
G01*
X129630600Y-128818600D01*
G75*
G02*
X129830600Y-128618600I200000J0D01*
G01*
X130230600Y-128618600D01*
G75*
G02*
X130430600Y-128818600I0J-200000D01*
G01*
G37*
G36*
G01*
X130510600Y-121598600D02*
X130510600Y-122148600D01*
G75*
G02*
X130310600Y-122348600I-200000J0D01*
G01*
X129910600Y-122348600D01*
G75*
G02*
X129710600Y-122148600I0J200000D01*
G01*
X129710600Y-121598600D01*
G75*
G02*
X129910600Y-121398600I200000J0D01*
G01*
X130310600Y-121398600D01*
G75*
G02*
X130510600Y-121598600I0J-200000D01*
G01*
G37*
G36*
G01*
X128860600Y-121598600D02*
X128860600Y-122148600D01*
G75*
G02*
X128660600Y-122348600I-200000J0D01*
G01*
X128260600Y-122348600D01*
G75*
G02*
X128060600Y-122148600I0J200000D01*
G01*
X128060600Y-121598600D01*
G75*
G02*
X128260600Y-121398600I200000J0D01*
G01*
X128660600Y-121398600D01*
G75*
G02*
X128860600Y-121598600I0J-200000D01*
G01*
G37*
G36*
G01*
X184175600Y-70178600D02*
X183675600Y-70178600D01*
G75*
G02*
X183450600Y-69953600I0J225000D01*
G01*
X183450600Y-69503600D01*
G75*
G02*
X183675600Y-69278600I225000J0D01*
G01*
X184175600Y-69278600D01*
G75*
G02*
X184400600Y-69503600I0J-225000D01*
G01*
X184400600Y-69953600D01*
G75*
G02*
X184175600Y-70178600I-225000J0D01*
G01*
G37*
G36*
G01*
X184175600Y-68628600D02*
X183675600Y-68628600D01*
G75*
G02*
X183450600Y-68403600I0J225000D01*
G01*
X183450600Y-67953600D01*
G75*
G02*
X183675600Y-67728600I225000J0D01*
G01*
X184175600Y-67728600D01*
G75*
G02*
X184400600Y-67953600I0J-225000D01*
G01*
X184400600Y-68403600D01*
G75*
G02*
X184175600Y-68628600I-225000J0D01*
G01*
G37*
D29*
X150735600Y-125413600D03*
D28*
X150735600Y-127953600D03*
X150735600Y-130493600D03*
X155715600Y-130493600D03*
X155715600Y-127953600D03*
D29*
X155715600Y-125413600D03*
D30*
X193695600Y-66361100D03*
X193695600Y-66996100D03*
X193695600Y-67631100D03*
X193695600Y-68266100D03*
X193695600Y-68901100D03*
X193695600Y-69536100D03*
X193695600Y-70171100D03*
X193695600Y-70806100D03*
X188495600Y-70806100D03*
X188495600Y-70171100D03*
X188495600Y-69536100D03*
X188495600Y-68901100D03*
X188495600Y-68266100D03*
X188495600Y-67631100D03*
X188495600Y-66996100D03*
X188495600Y-66361100D03*
M02*
