G04 #@! TF.GenerationSoftware,KiCad,Pcbnew,(5.1.9)-1*
G04 #@! TF.CreationDate,2021-01-16T04:06:45-07:00*
G04 #@! TF.ProjectId,purplewizard-pogo,70757270-6c65-4776-997a-6172642d706f,1*
G04 #@! TF.SameCoordinates,PX774a7a0PYac0e4a0*
G04 #@! TF.FileFunction,Paste,Bot*
G04 #@! TF.FilePolarity,Positive*
%FSLAX46Y46*%
G04 Gerber Fmt 4.6, Leading zero omitted, Abs format (unit mm)*
G04 Created by KiCad (PCBNEW (5.1.9)-1) date 2021-01-16 04:06:45*
%MOMM*%
%LPD*%
G01*
G04 APERTURE LIST*
%ADD10R,2.500000X1.800000*%
%ADD11R,1.300000X0.300000*%
%ADD12R,2.200000X1.800000*%
%ADD13R,1.000000X1.400000*%
%ADD14R,1.200000X1.400000*%
%ADD15R,1.000000X0.700000*%
%ADD16R,0.300000X0.700000*%
%ADD17R,1.200000X0.400000*%
G04 APERTURE END LIST*
D10*
X74080000Y9130000D03*
X78080000Y9130000D03*
G36*
G01*
X42135000Y16883750D02*
X42135000Y17396250D01*
G75*
G02*
X42353750Y17615000I218750J0D01*
G01*
X42791250Y17615000D01*
G75*
G02*
X43010000Y17396250I0J-218750D01*
G01*
X43010000Y16883750D01*
G75*
G02*
X42791250Y16665000I-218750J0D01*
G01*
X42353750Y16665000D01*
G75*
G02*
X42135000Y16883750I0J218750D01*
G01*
G37*
G36*
G01*
X43710000Y16883750D02*
X43710000Y17396250D01*
G75*
G02*
X43928750Y17615000I218750J0D01*
G01*
X44366250Y17615000D01*
G75*
G02*
X44585000Y17396250I0J-218750D01*
G01*
X44585000Y16883750D01*
G75*
G02*
X44366250Y16665000I-218750J0D01*
G01*
X43928750Y16665000D01*
G75*
G02*
X43710000Y16883750I0J218750D01*
G01*
G37*
D11*
X52950000Y10460000D03*
X52950000Y10960000D03*
X52950000Y11460000D03*
X52950000Y11960000D03*
X52950000Y12460000D03*
X52950000Y12960000D03*
X52950000Y13460000D03*
X52950000Y13960000D03*
X52950000Y14460000D03*
X52950000Y14960000D03*
X52950000Y15460000D03*
X52950000Y15960000D03*
X52950000Y16460000D03*
X52950000Y16960000D03*
X52950000Y17460000D03*
X52950000Y17960000D03*
X52950000Y18460000D03*
X52950000Y18960000D03*
X52950000Y19460000D03*
X52950000Y19960000D03*
X52950000Y20460000D03*
X52950000Y20960000D03*
X52950000Y21460000D03*
X52950000Y21960000D03*
X52950000Y22460000D03*
X52950000Y22960000D03*
X52950000Y23460000D03*
X52950000Y23960000D03*
X52950000Y24460000D03*
X52950000Y24960000D03*
X52950000Y25460000D03*
X52950000Y25960000D03*
X52950000Y26460000D03*
X52950000Y26960000D03*
X52950000Y27460000D03*
X52950000Y27960000D03*
X52950000Y28460000D03*
X52950000Y28960000D03*
X52950000Y29460000D03*
X52950000Y29960000D03*
X52950000Y30460000D03*
X52950000Y30960000D03*
X52950000Y31460000D03*
X52950000Y31960000D03*
X52950000Y32460000D03*
X52950000Y32960000D03*
X52950000Y33460000D03*
X52950000Y33960000D03*
X52950000Y34460000D03*
X52950000Y34960000D03*
D12*
X56200000Y36860000D03*
X56200000Y8560000D03*
D10*
X74080000Y14670000D03*
X78080000Y14670000D03*
G36*
G01*
X28406668Y13476250D02*
X28406668Y12963750D01*
G75*
G02*
X28187918Y12745000I-218750J0D01*
G01*
X27750418Y12745000D01*
G75*
G02*
X27531668Y12963750I0J218750D01*
G01*
X27531668Y13476250D01*
G75*
G02*
X27750418Y13695000I218750J0D01*
G01*
X28187918Y13695000D01*
G75*
G02*
X28406668Y13476250I0J-218750D01*
G01*
G37*
G36*
G01*
X29981668Y13476250D02*
X29981668Y12963750D01*
G75*
G02*
X29762918Y12745000I-218750J0D01*
G01*
X29325418Y12745000D01*
G75*
G02*
X29106668Y12963750I0J218750D01*
G01*
X29106668Y13476250D01*
G75*
G02*
X29325418Y13695000I218750J0D01*
G01*
X29762918Y13695000D01*
G75*
G02*
X29981668Y13476250I0J-218750D01*
G01*
G37*
G36*
G01*
X31433334Y13486250D02*
X31433334Y12973750D01*
G75*
G02*
X31214584Y12755000I-218750J0D01*
G01*
X30777084Y12755000D01*
G75*
G02*
X30558334Y12973750I0J218750D01*
G01*
X30558334Y13486250D01*
G75*
G02*
X30777084Y13705000I218750J0D01*
G01*
X31214584Y13705000D01*
G75*
G02*
X31433334Y13486250I0J-218750D01*
G01*
G37*
G36*
G01*
X33008334Y13486250D02*
X33008334Y12973750D01*
G75*
G02*
X32789584Y12755000I-218750J0D01*
G01*
X32352084Y12755000D01*
G75*
G02*
X32133334Y12973750I0J218750D01*
G01*
X32133334Y13486250D01*
G75*
G02*
X32352084Y13705000I218750J0D01*
G01*
X32789584Y13705000D01*
G75*
G02*
X33008334Y13486250I0J-218750D01*
G01*
G37*
G36*
G01*
X37283750Y6060000D02*
X37796250Y6060000D01*
G75*
G02*
X38015000Y5841250I0J-218750D01*
G01*
X38015000Y5403750D01*
G75*
G02*
X37796250Y5185000I-218750J0D01*
G01*
X37283750Y5185000D01*
G75*
G02*
X37065000Y5403750I0J218750D01*
G01*
X37065000Y5841250D01*
G75*
G02*
X37283750Y6060000I218750J0D01*
G01*
G37*
G36*
G01*
X37283750Y7635000D02*
X37796250Y7635000D01*
G75*
G02*
X38015000Y7416250I0J-218750D01*
G01*
X38015000Y6978750D01*
G75*
G02*
X37796250Y6760000I-218750J0D01*
G01*
X37283750Y6760000D01*
G75*
G02*
X37065000Y6978750I0J218750D01*
G01*
X37065000Y7416250D01*
G75*
G02*
X37283750Y7635000I218750J0D01*
G01*
G37*
D13*
X29340000Y15410000D03*
X31240000Y15410000D03*
X31240000Y17610000D03*
D14*
X29520000Y17610000D03*
G36*
G01*
X48833750Y34770000D02*
X49346250Y34770000D01*
G75*
G02*
X49565000Y34551250I0J-218750D01*
G01*
X49565000Y34113750D01*
G75*
G02*
X49346250Y33895000I-218750J0D01*
G01*
X48833750Y33895000D01*
G75*
G02*
X48615000Y34113750I0J218750D01*
G01*
X48615000Y34551250D01*
G75*
G02*
X48833750Y34770000I218750J0D01*
G01*
G37*
G36*
G01*
X48833750Y36345000D02*
X49346250Y36345000D01*
G75*
G02*
X49565000Y36126250I0J-218750D01*
G01*
X49565000Y35688750D01*
G75*
G02*
X49346250Y35470000I-218750J0D01*
G01*
X48833750Y35470000D01*
G75*
G02*
X48615000Y35688750I0J218750D01*
G01*
X48615000Y36126250D01*
G75*
G02*
X48833750Y36345000I218750J0D01*
G01*
G37*
G36*
G01*
X26736250Y14320000D02*
X26223750Y14320000D01*
G75*
G02*
X26005000Y14538750I0J218750D01*
G01*
X26005000Y14976250D01*
G75*
G02*
X26223750Y15195000I218750J0D01*
G01*
X26736250Y15195000D01*
G75*
G02*
X26955000Y14976250I0J-218750D01*
G01*
X26955000Y14538750D01*
G75*
G02*
X26736250Y14320000I-218750J0D01*
G01*
G37*
G36*
G01*
X26736250Y12745000D02*
X26223750Y12745000D01*
G75*
G02*
X26005000Y12963750I0J218750D01*
G01*
X26005000Y13401250D01*
G75*
G02*
X26223750Y13620000I218750J0D01*
G01*
X26736250Y13620000D01*
G75*
G02*
X26955000Y13401250I0J-218750D01*
G01*
X26955000Y12963750D01*
G75*
G02*
X26736250Y12745000I-218750J0D01*
G01*
G37*
G36*
G01*
X26570000Y10963750D02*
X26570000Y11476250D01*
G75*
G02*
X26788750Y11695000I218750J0D01*
G01*
X27226250Y11695000D01*
G75*
G02*
X27445000Y11476250I0J-218750D01*
G01*
X27445000Y10963750D01*
G75*
G02*
X27226250Y10745000I-218750J0D01*
G01*
X26788750Y10745000D01*
G75*
G02*
X26570000Y10963750I0J218750D01*
G01*
G37*
G36*
G01*
X24995000Y10963750D02*
X24995000Y11476250D01*
G75*
G02*
X25213750Y11695000I218750J0D01*
G01*
X25651250Y11695000D01*
G75*
G02*
X25870000Y11476250I0J-218750D01*
G01*
X25870000Y10963750D01*
G75*
G02*
X25651250Y10745000I-218750J0D01*
G01*
X25213750Y10745000D01*
G75*
G02*
X24995000Y10963750I0J218750D01*
G01*
G37*
G36*
G01*
X34500000Y10963750D02*
X34500000Y11476250D01*
G75*
G02*
X34718750Y11695000I218750J0D01*
G01*
X35156250Y11695000D01*
G75*
G02*
X35375000Y11476250I0J-218750D01*
G01*
X35375000Y10963750D01*
G75*
G02*
X35156250Y10745000I-218750J0D01*
G01*
X34718750Y10745000D01*
G75*
G02*
X34500000Y10963750I0J218750D01*
G01*
G37*
G36*
G01*
X32925000Y10963750D02*
X32925000Y11476250D01*
G75*
G02*
X33143750Y11695000I218750J0D01*
G01*
X33581250Y11695000D01*
G75*
G02*
X33800000Y11476250I0J-218750D01*
G01*
X33800000Y10963750D01*
G75*
G02*
X33581250Y10745000I-218750J0D01*
G01*
X33143750Y10745000D01*
G75*
G02*
X32925000Y10963750I0J218750D01*
G01*
G37*
G36*
G01*
X34316250Y14330000D02*
X33803750Y14330000D01*
G75*
G02*
X33585000Y14548750I0J218750D01*
G01*
X33585000Y14986250D01*
G75*
G02*
X33803750Y15205000I218750J0D01*
G01*
X34316250Y15205000D01*
G75*
G02*
X34535000Y14986250I0J-218750D01*
G01*
X34535000Y14548750D01*
G75*
G02*
X34316250Y14330000I-218750J0D01*
G01*
G37*
G36*
G01*
X34316250Y12755000D02*
X33803750Y12755000D01*
G75*
G02*
X33585000Y12973750I0J218750D01*
G01*
X33585000Y13411250D01*
G75*
G02*
X33803750Y13630000I218750J0D01*
G01*
X34316250Y13630000D01*
G75*
G02*
X34535000Y13411250I0J-218750D01*
G01*
X34535000Y12973750D01*
G75*
G02*
X34316250Y12755000I-218750J0D01*
G01*
G37*
D15*
X33280000Y6260000D03*
D16*
X32430000Y6260000D03*
X31930000Y6260000D03*
X31430000Y6260000D03*
X30930000Y6260000D03*
X30430000Y6260000D03*
X29930000Y6260000D03*
X29430000Y6260000D03*
X28930000Y6260000D03*
X28430000Y6260000D03*
X27930000Y6260000D03*
D15*
X27080000Y6260000D03*
D16*
X27180000Y7560000D03*
X27680000Y7560000D03*
X28180000Y7560000D03*
X28680000Y7560000D03*
X29180000Y7560000D03*
X29680000Y7560000D03*
X30680000Y7560000D03*
X31180000Y7560000D03*
X31680000Y7560000D03*
X32180000Y7560000D03*
X32680000Y7560000D03*
X33180000Y7560000D03*
G36*
G01*
X38953750Y6060000D02*
X39466250Y6060000D01*
G75*
G02*
X39685000Y5841250I0J-218750D01*
G01*
X39685000Y5403750D01*
G75*
G02*
X39466250Y5185000I-218750J0D01*
G01*
X38953750Y5185000D01*
G75*
G02*
X38735000Y5403750I0J218750D01*
G01*
X38735000Y5841250D01*
G75*
G02*
X38953750Y6060000I218750J0D01*
G01*
G37*
G36*
G01*
X38953750Y7635000D02*
X39466250Y7635000D01*
G75*
G02*
X39685000Y7416250I0J-218750D01*
G01*
X39685000Y6978750D01*
G75*
G02*
X39466250Y6760000I-218750J0D01*
G01*
X38953750Y6760000D01*
G75*
G02*
X38735000Y6978750I0J218750D01*
G01*
X38735000Y7416250D01*
G75*
G02*
X38953750Y7635000I218750J0D01*
G01*
G37*
G36*
G01*
X42185000Y14733750D02*
X42185000Y15246250D01*
G75*
G02*
X42403750Y15465000I218750J0D01*
G01*
X42841250Y15465000D01*
G75*
G02*
X43060000Y15246250I0J-218750D01*
G01*
X43060000Y14733750D01*
G75*
G02*
X42841250Y14515000I-218750J0D01*
G01*
X42403750Y14515000D01*
G75*
G02*
X42185000Y14733750I0J218750D01*
G01*
G37*
G36*
G01*
X43760000Y14733750D02*
X43760000Y15246250D01*
G75*
G02*
X43978750Y15465000I218750J0D01*
G01*
X44416250Y15465000D01*
G75*
G02*
X44635000Y15246250I0J-218750D01*
G01*
X44635000Y14733750D01*
G75*
G02*
X44416250Y14515000I-218750J0D01*
G01*
X43978750Y14515000D01*
G75*
G02*
X43760000Y14733750I0J218750D01*
G01*
G37*
G36*
G01*
X3695000Y51595000D02*
X3695000Y51045000D01*
G75*
G02*
X3495000Y50845000I-200000J0D01*
G01*
X3095000Y50845000D01*
G75*
G02*
X2895000Y51045000I0J200000D01*
G01*
X2895000Y51595000D01*
G75*
G02*
X3095000Y51795000I200000J0D01*
G01*
X3495000Y51795000D01*
G75*
G02*
X3695000Y51595000I0J-200000D01*
G01*
G37*
G36*
G01*
X5345000Y51595000D02*
X5345000Y51045000D01*
G75*
G02*
X5145000Y50845000I-200000J0D01*
G01*
X4745000Y50845000D01*
G75*
G02*
X4545000Y51045000I0J200000D01*
G01*
X4545000Y51595000D01*
G75*
G02*
X4745000Y51795000I200000J0D01*
G01*
X5145000Y51795000D01*
G75*
G02*
X5345000Y51595000I0J-200000D01*
G01*
G37*
G36*
G01*
X5425000Y58815000D02*
X5425000Y58265000D01*
G75*
G02*
X5225000Y58065000I-200000J0D01*
G01*
X4825000Y58065000D01*
G75*
G02*
X4625000Y58265000I0J200000D01*
G01*
X4625000Y58815000D01*
G75*
G02*
X4825000Y59015000I200000J0D01*
G01*
X5225000Y59015000D01*
G75*
G02*
X5425000Y58815000I0J-200000D01*
G01*
G37*
G36*
G01*
X3775000Y58815000D02*
X3775000Y58265000D01*
G75*
G02*
X3575000Y58065000I-200000J0D01*
G01*
X3175000Y58065000D01*
G75*
G02*
X2975000Y58265000I0J200000D01*
G01*
X2975000Y58815000D01*
G75*
G02*
X3175000Y59015000I200000J0D01*
G01*
X3575000Y59015000D01*
G75*
G02*
X3775000Y58815000I0J-200000D01*
G01*
G37*
G36*
G01*
X59090000Y110235000D02*
X58590000Y110235000D01*
G75*
G02*
X58365000Y110460000I0J225000D01*
G01*
X58365000Y110910000D01*
G75*
G02*
X58590000Y111135000I225000J0D01*
G01*
X59090000Y111135000D01*
G75*
G02*
X59315000Y110910000I0J-225000D01*
G01*
X59315000Y110460000D01*
G75*
G02*
X59090000Y110235000I-225000J0D01*
G01*
G37*
G36*
G01*
X59090000Y111785000D02*
X58590000Y111785000D01*
G75*
G02*
X58365000Y112010000I0J225000D01*
G01*
X58365000Y112460000D01*
G75*
G02*
X58590000Y112685000I225000J0D01*
G01*
X59090000Y112685000D01*
G75*
G02*
X59315000Y112460000I0J-225000D01*
G01*
X59315000Y112010000D01*
G75*
G02*
X59090000Y111785000I-225000J0D01*
G01*
G37*
D17*
X68610000Y114052500D03*
X68610000Y113417500D03*
X68610000Y112782500D03*
X68610000Y112147500D03*
X68610000Y111512500D03*
X68610000Y110877500D03*
X68610000Y110242500D03*
X68610000Y109607500D03*
X63410000Y109607500D03*
X63410000Y110242500D03*
X63410000Y110877500D03*
X63410000Y111512500D03*
X63410000Y112147500D03*
X63410000Y112782500D03*
X63410000Y113417500D03*
X63410000Y114052500D03*
M02*
