G04 #@! TF.GenerationSoftware,KiCad,Pcbnew,(5.1.9)-1*
G04 #@! TF.CreationDate,2021-01-16T22:32:26-07:00*
G04 #@! TF.ProjectId,purplewizard-pogo,70757270-6c65-4776-997a-6172642d706f,1*
G04 #@! TF.SameCoordinates,Original*
G04 #@! TF.FileFunction,Other,User*
%FSLAX46Y46*%
G04 Gerber Fmt 4.6, Leading zero omitted, Abs format (unit mm)*
G04 Created by KiCad (PCBNEW (5.1.9)-1) date 2021-01-16 22:32:26*
%MOMM*%
%LPD*%
G01*
G04 APERTURE LIST*
%ADD10C,0.050000*%
G04 APERTURE END LIST*
D10*
X204665600Y-169533600D02*
X197665600Y-169533600D01*
X197665600Y-169533600D02*
X197665600Y-173033600D01*
X197665600Y-173033600D02*
X204665600Y-173033600D01*
X204665600Y-173033600D02*
X204665600Y-169533600D01*
X169925600Y-162543600D02*
X166965600Y-162543600D01*
X169925600Y-164003600D02*
X169925600Y-162543600D01*
X166965600Y-164003600D02*
X169925600Y-164003600D01*
X166965600Y-162543600D02*
X166965600Y-164003600D01*
X176885600Y-142153600D02*
X184785600Y-142153600D01*
X184785600Y-142153600D02*
X184785600Y-173253600D01*
X184785600Y-173253600D02*
X176885600Y-173253600D01*
X176885600Y-173253600D02*
X176885600Y-142153600D01*
X204665600Y-163993600D02*
X197665600Y-163993600D01*
X197665600Y-163993600D02*
X197665600Y-167493600D01*
X197665600Y-167493600D02*
X204665600Y-167493600D01*
X204665600Y-167493600D02*
X204665600Y-163993600D01*
X155322268Y-167923600D02*
X155322268Y-166463600D01*
X155322268Y-166463600D02*
X152362268Y-166463600D01*
X152362268Y-166463600D02*
X152362268Y-167923600D01*
X152362268Y-167923600D02*
X155322268Y-167923600D01*
X158348934Y-167913600D02*
X158348934Y-166453600D01*
X158348934Y-166453600D02*
X155388934Y-166453600D01*
X155388934Y-166453600D02*
X155388934Y-167913600D01*
X155388934Y-167913600D02*
X158348934Y-167913600D01*
X163355600Y-172523600D02*
X161895600Y-172523600D01*
X161895600Y-172523600D02*
X161895600Y-175483600D01*
X161895600Y-175483600D02*
X163355600Y-175483600D01*
X163355600Y-175483600D02*
X163355600Y-172523600D01*
X153625600Y-165953600D02*
X157125600Y-165953600D01*
X153625600Y-165953600D02*
X153625600Y-161853600D01*
X157125600Y-161853600D02*
X157125600Y-165953600D01*
X157125600Y-161853600D02*
X153625600Y-161853600D01*
X174905600Y-143813600D02*
X173445600Y-143813600D01*
X173445600Y-143813600D02*
X173445600Y-146773600D01*
X173445600Y-146773600D02*
X174905600Y-146773600D01*
X174905600Y-146773600D02*
X174905600Y-143813600D01*
X150835600Y-167923600D02*
X152295600Y-167923600D01*
X152295600Y-167923600D02*
X152295600Y-164963600D01*
X152295600Y-164963600D02*
X150835600Y-164963600D01*
X150835600Y-164963600D02*
X150835600Y-167923600D01*
X149825600Y-168463600D02*
X149825600Y-169923600D01*
X149825600Y-169923600D02*
X152785600Y-169923600D01*
X152785600Y-169923600D02*
X152785600Y-168463600D01*
X152785600Y-168463600D02*
X149825600Y-168463600D01*
X157755600Y-168463600D02*
X157755600Y-169923600D01*
X157755600Y-169923600D02*
X160715600Y-169923600D01*
X160715600Y-169923600D02*
X160715600Y-168463600D01*
X160715600Y-168463600D02*
X157755600Y-168463600D01*
X158415600Y-167913600D02*
X159875600Y-167913600D01*
X159875600Y-167913600D02*
X159875600Y-164953600D01*
X159875600Y-164953600D02*
X158415600Y-164953600D01*
X158415600Y-164953600D02*
X158415600Y-167913600D01*
X160485600Y-171913600D02*
X150045600Y-171913600D01*
X150045600Y-171913600D02*
X150045600Y-180823600D01*
X150045600Y-180823600D02*
X160485600Y-180823600D01*
X160485600Y-180823600D02*
X160485600Y-171913600D01*
X165025600Y-172523600D02*
X163565600Y-172523600D01*
X163565600Y-172523600D02*
X163565600Y-175483600D01*
X163565600Y-175483600D02*
X165025600Y-175483600D01*
X165025600Y-175483600D02*
X165025600Y-172523600D01*
X169975600Y-164693600D02*
X167015600Y-164693600D01*
X169975600Y-166153600D02*
X169975600Y-164693600D01*
X167015600Y-166153600D02*
X169975600Y-166153600D01*
X167015600Y-164693600D02*
X167015600Y-166153600D01*
X130685600Y-129823600D02*
X130685600Y-128363600D01*
X130685600Y-128363600D02*
X127725600Y-128363600D01*
X127725600Y-128363600D02*
X127725600Y-129823600D01*
X127725600Y-129823600D02*
X130685600Y-129823600D01*
X127805600Y-122603600D02*
X130765600Y-122603600D01*
X127805600Y-121143600D02*
X127805600Y-122603600D01*
X130765600Y-121143600D02*
X127805600Y-121143600D01*
X130765600Y-122603600D02*
X130765600Y-121143600D01*
X183195600Y-67473600D02*
X183195600Y-70433600D01*
X184655600Y-67473600D02*
X183195600Y-67473600D01*
X184655600Y-70433600D02*
X184655600Y-67473600D01*
X183195600Y-70433600D02*
X184655600Y-70433600D01*
X194545600Y-71383600D02*
X187645600Y-71383600D01*
X194545600Y-65733600D02*
X187645600Y-65733600D01*
X187645600Y-65733600D02*
X187645600Y-71383600D01*
X194545600Y-65733600D02*
X194545600Y-71383600D01*
M02*
