G04 #@! TF.GenerationSoftware,KiCad,Pcbnew,(5.1.9)-1*
G04 #@! TF.CreationDate,2021-01-16T22:32:26-07:00*
G04 #@! TF.ProjectId,purplewizard-pogo,70757270-6c65-4776-997a-6172642d706f,1*
G04 #@! TF.SameCoordinates,Original*
G04 #@! TF.FileFunction,Soldermask,Bot*
G04 #@! TF.FilePolarity,Negative*
%FSLAX46Y46*%
G04 Gerber Fmt 4.6, Leading zero omitted, Abs format (unit mm)*
G04 Created by KiCad (PCBNEW (5.1.9)-1) date 2021-01-16 22:32:26*
%MOMM*%
%LPD*%
G01*
G04 APERTURE LIST*
%ADD10C,2.200000*%
%ADD11R,2.500000X1.800000*%
%ADD12C,0.900000*%
%ADD13R,1.300000X0.300000*%
%ADD14R,2.200000X1.800000*%
%ADD15R,1.000000X1.400000*%
%ADD16R,1.200000X1.400000*%
%ADD17C,0.985520*%
%ADD18C,0.988060*%
%ADD19R,1.000000X1.000000*%
%ADD20O,1.000000X1.000000*%
%ADD21O,1.300000X2.600000*%
%ADD22O,1.100000X2.200000*%
%ADD23R,1.000000X0.700000*%
%ADD24R,0.300000X0.700000*%
%ADD25O,1.700000X1.700000*%
%ADD26R,1.700000X1.700000*%
%ADD27R,1.200000X0.400000*%
G04 APERTURE END LIST*
G36*
G01*
X186005600Y-169993600D02*
X186005600Y-145493600D01*
G75*
G02*
X187255600Y-144243600I1250000J0D01*
G01*
X189755600Y-144243600D01*
G75*
G02*
X191005600Y-145493600I0J-1250000D01*
G01*
X191005600Y-169993600D01*
G75*
G02*
X189755600Y-171243600I-1250000J0D01*
G01*
X187255600Y-171243600D01*
G75*
G02*
X186005600Y-169993600I0J1250000D01*
G01*
G37*
D10*
X214655600Y-58703600D03*
X214655600Y-62036933D03*
X214655600Y-68703600D03*
X214635600Y-65363600D03*
X165955600Y-51605600D03*
X165955600Y-43991600D03*
X165955600Y-49067600D03*
X128943600Y-52273600D03*
X165955600Y-41453600D03*
X165955600Y-46529600D03*
X165955600Y-54143600D03*
X128943600Y-59463600D03*
X128943600Y-55868600D03*
X200095600Y-53153600D03*
X200115600Y-49523600D03*
X200115600Y-45893600D03*
X195785600Y-99423600D03*
X195785600Y-95783600D03*
X195785600Y-92143600D03*
D11*
X199165600Y-171283600D03*
X203165600Y-171283600D03*
D12*
X212615600Y-162333600D03*
X212615600Y-169133600D03*
G36*
G01*
X167220600Y-163529850D02*
X167220600Y-163017350D01*
G75*
G02*
X167439350Y-162798600I218750J0D01*
G01*
X167876850Y-162798600D01*
G75*
G02*
X168095600Y-163017350I0J-218750D01*
G01*
X168095600Y-163529850D01*
G75*
G02*
X167876850Y-163748600I-218750J0D01*
G01*
X167439350Y-163748600D01*
G75*
G02*
X167220600Y-163529850I0J218750D01*
G01*
G37*
G36*
G01*
X168795600Y-163529850D02*
X168795600Y-163017350D01*
G75*
G02*
X169014350Y-162798600I218750J0D01*
G01*
X169451850Y-162798600D01*
G75*
G02*
X169670600Y-163017350I0J-218750D01*
G01*
X169670600Y-163529850D01*
G75*
G02*
X169451850Y-163748600I-218750J0D01*
G01*
X169014350Y-163748600D01*
G75*
G02*
X168795600Y-163529850I0J218750D01*
G01*
G37*
D13*
X178035600Y-169953600D03*
X178035600Y-169453600D03*
X178035600Y-168953600D03*
X178035600Y-168453600D03*
X178035600Y-167953600D03*
X178035600Y-167453600D03*
X178035600Y-166953600D03*
X178035600Y-166453600D03*
X178035600Y-165953600D03*
X178035600Y-165453600D03*
X178035600Y-164953600D03*
X178035600Y-164453600D03*
X178035600Y-163953600D03*
X178035600Y-163453600D03*
X178035600Y-162953600D03*
X178035600Y-162453600D03*
X178035600Y-161953600D03*
X178035600Y-161453600D03*
X178035600Y-160953600D03*
X178035600Y-160453600D03*
X178035600Y-159953600D03*
X178035600Y-159453600D03*
X178035600Y-158953600D03*
X178035600Y-158453600D03*
X178035600Y-157953600D03*
X178035600Y-157453600D03*
X178035600Y-156953600D03*
X178035600Y-156453600D03*
X178035600Y-155953600D03*
X178035600Y-155453600D03*
X178035600Y-154953600D03*
X178035600Y-154453600D03*
X178035600Y-153953600D03*
X178035600Y-153453600D03*
X178035600Y-152953600D03*
X178035600Y-152453600D03*
X178035600Y-151953600D03*
X178035600Y-151453600D03*
X178035600Y-150953600D03*
X178035600Y-150453600D03*
X178035600Y-149953600D03*
X178035600Y-149453600D03*
X178035600Y-148953600D03*
X178035600Y-148453600D03*
X178035600Y-147953600D03*
X178035600Y-147453600D03*
X178035600Y-146953600D03*
X178035600Y-146453600D03*
X178035600Y-145953600D03*
X178035600Y-145453600D03*
D14*
X181285600Y-143553600D03*
X181285600Y-171853600D03*
D11*
X199165600Y-165743600D03*
X203165600Y-165743600D03*
G36*
G01*
X153492268Y-166937350D02*
X153492268Y-167449850D01*
G75*
G02*
X153273518Y-167668600I-218750J0D01*
G01*
X152836018Y-167668600D01*
G75*
G02*
X152617268Y-167449850I0J218750D01*
G01*
X152617268Y-166937350D01*
G75*
G02*
X152836018Y-166718600I218750J0D01*
G01*
X153273518Y-166718600D01*
G75*
G02*
X153492268Y-166937350I0J-218750D01*
G01*
G37*
G36*
G01*
X155067268Y-166937350D02*
X155067268Y-167449850D01*
G75*
G02*
X154848518Y-167668600I-218750J0D01*
G01*
X154411018Y-167668600D01*
G75*
G02*
X154192268Y-167449850I0J218750D01*
G01*
X154192268Y-166937350D01*
G75*
G02*
X154411018Y-166718600I218750J0D01*
G01*
X154848518Y-166718600D01*
G75*
G02*
X155067268Y-166937350I0J-218750D01*
G01*
G37*
G36*
G01*
X156518934Y-166927350D02*
X156518934Y-167439850D01*
G75*
G02*
X156300184Y-167658600I-218750J0D01*
G01*
X155862684Y-167658600D01*
G75*
G02*
X155643934Y-167439850I0J218750D01*
G01*
X155643934Y-166927350D01*
G75*
G02*
X155862684Y-166708600I218750J0D01*
G01*
X156300184Y-166708600D01*
G75*
G02*
X156518934Y-166927350I0J-218750D01*
G01*
G37*
G36*
G01*
X158093934Y-166927350D02*
X158093934Y-167439850D01*
G75*
G02*
X157875184Y-167658600I-218750J0D01*
G01*
X157437684Y-167658600D01*
G75*
G02*
X157218934Y-167439850I0J218750D01*
G01*
X157218934Y-166927350D01*
G75*
G02*
X157437684Y-166708600I218750J0D01*
G01*
X157875184Y-166708600D01*
G75*
G02*
X158093934Y-166927350I0J-218750D01*
G01*
G37*
G36*
G01*
X162369350Y-174353600D02*
X162881850Y-174353600D01*
G75*
G02*
X163100600Y-174572350I0J-218750D01*
G01*
X163100600Y-175009850D01*
G75*
G02*
X162881850Y-175228600I-218750J0D01*
G01*
X162369350Y-175228600D01*
G75*
G02*
X162150600Y-175009850I0J218750D01*
G01*
X162150600Y-174572350D01*
G75*
G02*
X162369350Y-174353600I218750J0D01*
G01*
G37*
G36*
G01*
X162369350Y-172778600D02*
X162881850Y-172778600D01*
G75*
G02*
X163100600Y-172997350I0J-218750D01*
G01*
X163100600Y-173434850D01*
G75*
G02*
X162881850Y-173653600I-218750J0D01*
G01*
X162369350Y-173653600D01*
G75*
G02*
X162150600Y-173434850I0J218750D01*
G01*
X162150600Y-172997350D01*
G75*
G02*
X162369350Y-172778600I218750J0D01*
G01*
G37*
D15*
X154425600Y-165003600D03*
X156325600Y-165003600D03*
X156325600Y-162803600D03*
D16*
X154605600Y-162803600D03*
G36*
G01*
X173919350Y-145643600D02*
X174431850Y-145643600D01*
G75*
G02*
X174650600Y-145862350I0J-218750D01*
G01*
X174650600Y-146299850D01*
G75*
G02*
X174431850Y-146518600I-218750J0D01*
G01*
X173919350Y-146518600D01*
G75*
G02*
X173700600Y-146299850I0J218750D01*
G01*
X173700600Y-145862350D01*
G75*
G02*
X173919350Y-145643600I218750J0D01*
G01*
G37*
G36*
G01*
X173919350Y-144068600D02*
X174431850Y-144068600D01*
G75*
G02*
X174650600Y-144287350I0J-218750D01*
G01*
X174650600Y-144724850D01*
G75*
G02*
X174431850Y-144943600I-218750J0D01*
G01*
X173919350Y-144943600D01*
G75*
G02*
X173700600Y-144724850I0J218750D01*
G01*
X173700600Y-144287350D01*
G75*
G02*
X173919350Y-144068600I218750J0D01*
G01*
G37*
G36*
G01*
X151821850Y-166093600D02*
X151309350Y-166093600D01*
G75*
G02*
X151090600Y-165874850I0J218750D01*
G01*
X151090600Y-165437350D01*
G75*
G02*
X151309350Y-165218600I218750J0D01*
G01*
X151821850Y-165218600D01*
G75*
G02*
X152040600Y-165437350I0J-218750D01*
G01*
X152040600Y-165874850D01*
G75*
G02*
X151821850Y-166093600I-218750J0D01*
G01*
G37*
G36*
G01*
X151821850Y-167668600D02*
X151309350Y-167668600D01*
G75*
G02*
X151090600Y-167449850I0J218750D01*
G01*
X151090600Y-167012350D01*
G75*
G02*
X151309350Y-166793600I218750J0D01*
G01*
X151821850Y-166793600D01*
G75*
G02*
X152040600Y-167012350I0J-218750D01*
G01*
X152040600Y-167449850D01*
G75*
G02*
X151821850Y-167668600I-218750J0D01*
G01*
G37*
G36*
G01*
X151655600Y-169449850D02*
X151655600Y-168937350D01*
G75*
G02*
X151874350Y-168718600I218750J0D01*
G01*
X152311850Y-168718600D01*
G75*
G02*
X152530600Y-168937350I0J-218750D01*
G01*
X152530600Y-169449850D01*
G75*
G02*
X152311850Y-169668600I-218750J0D01*
G01*
X151874350Y-169668600D01*
G75*
G02*
X151655600Y-169449850I0J218750D01*
G01*
G37*
G36*
G01*
X150080600Y-169449850D02*
X150080600Y-168937350D01*
G75*
G02*
X150299350Y-168718600I218750J0D01*
G01*
X150736850Y-168718600D01*
G75*
G02*
X150955600Y-168937350I0J-218750D01*
G01*
X150955600Y-169449850D01*
G75*
G02*
X150736850Y-169668600I-218750J0D01*
G01*
X150299350Y-169668600D01*
G75*
G02*
X150080600Y-169449850I0J218750D01*
G01*
G37*
G36*
G01*
X159585600Y-169449850D02*
X159585600Y-168937350D01*
G75*
G02*
X159804350Y-168718600I218750J0D01*
G01*
X160241850Y-168718600D01*
G75*
G02*
X160460600Y-168937350I0J-218750D01*
G01*
X160460600Y-169449850D01*
G75*
G02*
X160241850Y-169668600I-218750J0D01*
G01*
X159804350Y-169668600D01*
G75*
G02*
X159585600Y-169449850I0J218750D01*
G01*
G37*
G36*
G01*
X158010600Y-169449850D02*
X158010600Y-168937350D01*
G75*
G02*
X158229350Y-168718600I218750J0D01*
G01*
X158666850Y-168718600D01*
G75*
G02*
X158885600Y-168937350I0J-218750D01*
G01*
X158885600Y-169449850D01*
G75*
G02*
X158666850Y-169668600I-218750J0D01*
G01*
X158229350Y-169668600D01*
G75*
G02*
X158010600Y-169449850I0J218750D01*
G01*
G37*
D17*
X131485600Y-159357600D03*
X131485600Y-161389600D03*
D18*
X139105600Y-160373600D03*
G36*
G01*
X159401850Y-166083600D02*
X158889350Y-166083600D01*
G75*
G02*
X158670600Y-165864850I0J218750D01*
G01*
X158670600Y-165427350D01*
G75*
G02*
X158889350Y-165208600I218750J0D01*
G01*
X159401850Y-165208600D01*
G75*
G02*
X159620600Y-165427350I0J-218750D01*
G01*
X159620600Y-165864850D01*
G75*
G02*
X159401850Y-166083600I-218750J0D01*
G01*
G37*
G36*
G01*
X159401850Y-167658600D02*
X158889350Y-167658600D01*
G75*
G02*
X158670600Y-167439850I0J218750D01*
G01*
X158670600Y-167002350D01*
G75*
G02*
X158889350Y-166783600I218750J0D01*
G01*
X159401850Y-166783600D01*
G75*
G02*
X159620600Y-167002350I0J-218750D01*
G01*
X159620600Y-167439850D01*
G75*
G02*
X159401850Y-167658600I-218750J0D01*
G01*
G37*
D19*
X137175600Y-170153600D03*
D20*
X137175600Y-171423600D03*
X135905600Y-170353600D03*
X135905600Y-171623600D03*
X134635600Y-170153600D03*
X134635600Y-171423600D03*
X133365600Y-170353600D03*
X133365600Y-171623600D03*
X132095600Y-170153600D03*
X132095600Y-171423600D03*
D21*
X150945600Y-178623600D03*
X159585600Y-178623600D03*
D22*
X150945600Y-173263600D03*
X159585600Y-173263600D03*
D23*
X158365600Y-174153600D03*
D24*
X157515600Y-174153600D03*
X157015600Y-174153600D03*
X156515600Y-174153600D03*
X156015600Y-174153600D03*
X155515600Y-174153600D03*
X155015600Y-174153600D03*
X154515600Y-174153600D03*
X154015600Y-174153600D03*
X153515600Y-174153600D03*
X153015600Y-174153600D03*
D23*
X152165600Y-174153600D03*
D24*
X152265600Y-172853600D03*
X152765600Y-172853600D03*
X153265600Y-172853600D03*
X153765600Y-172853600D03*
X154265600Y-172853600D03*
X154765600Y-172853600D03*
X155765600Y-172853600D03*
X156265600Y-172853600D03*
X156765600Y-172853600D03*
X157265600Y-172853600D03*
X157765600Y-172853600D03*
X158265600Y-172853600D03*
G36*
G01*
X164039350Y-174353600D02*
X164551850Y-174353600D01*
G75*
G02*
X164770600Y-174572350I0J-218750D01*
G01*
X164770600Y-175009850D01*
G75*
G02*
X164551850Y-175228600I-218750J0D01*
G01*
X164039350Y-175228600D01*
G75*
G02*
X163820600Y-175009850I0J218750D01*
G01*
X163820600Y-174572350D01*
G75*
G02*
X164039350Y-174353600I218750J0D01*
G01*
G37*
G36*
G01*
X164039350Y-172778600D02*
X164551850Y-172778600D01*
G75*
G02*
X164770600Y-172997350I0J-218750D01*
G01*
X164770600Y-173434850D01*
G75*
G02*
X164551850Y-173653600I-218750J0D01*
G01*
X164039350Y-173653600D01*
G75*
G02*
X163820600Y-173434850I0J218750D01*
G01*
X163820600Y-172997350D01*
G75*
G02*
X164039350Y-172778600I218750J0D01*
G01*
G37*
G36*
G01*
X167270600Y-165679850D02*
X167270600Y-165167350D01*
G75*
G02*
X167489350Y-164948600I218750J0D01*
G01*
X167926850Y-164948600D01*
G75*
G02*
X168145600Y-165167350I0J-218750D01*
G01*
X168145600Y-165679850D01*
G75*
G02*
X167926850Y-165898600I-218750J0D01*
G01*
X167489350Y-165898600D01*
G75*
G02*
X167270600Y-165679850I0J218750D01*
G01*
G37*
G36*
G01*
X168845600Y-165679850D02*
X168845600Y-165167350D01*
G75*
G02*
X169064350Y-164948600I218750J0D01*
G01*
X169501850Y-164948600D01*
G75*
G02*
X169720600Y-165167350I0J-218750D01*
G01*
X169720600Y-165679850D01*
G75*
G02*
X169501850Y-165898600I-218750J0D01*
G01*
X169064350Y-165898600D01*
G75*
G02*
X168845600Y-165679850I0J218750D01*
G01*
G37*
D25*
X140460601Y-138168599D03*
X137920601Y-138168599D03*
X135380601Y-138168599D03*
D26*
X132840601Y-138168599D03*
X132840601Y-131038599D03*
D25*
X135380601Y-131038599D03*
X137920601Y-131038599D03*
X140460601Y-131038599D03*
D26*
X132840601Y-123908599D03*
D25*
X135380601Y-123908599D03*
X137920601Y-123908599D03*
X140460601Y-123908599D03*
D26*
X137245600Y-147233600D03*
D25*
X137245600Y-149773600D03*
X134705600Y-147233600D03*
X134705600Y-149773600D03*
X132165600Y-147233600D03*
X132165600Y-149773600D03*
D26*
X209175600Y-123433600D03*
D25*
X209175600Y-125973600D03*
X209175600Y-128513600D03*
X209175600Y-131053600D03*
D26*
X211715600Y-123433600D03*
D25*
X211715600Y-125973600D03*
X211715600Y-128513600D03*
X211715600Y-131053600D03*
X206635600Y-131053600D03*
X206635600Y-128513600D03*
X206635600Y-125973600D03*
D26*
X206635600Y-123433600D03*
X201985600Y-113693600D03*
D25*
X201985600Y-116233600D03*
X199445600Y-113693600D03*
X199445600Y-116233600D03*
X196905600Y-113693600D03*
X196905600Y-116233600D03*
X194365600Y-113693600D03*
X194365600Y-116233600D03*
X191825600Y-113693600D03*
X191825600Y-116233600D03*
X189285600Y-113693600D03*
X189285600Y-116233600D03*
X186745600Y-113693600D03*
X186745600Y-116233600D03*
X184205600Y-113693600D03*
X184205600Y-116233600D03*
X181665600Y-113693600D03*
X181665600Y-116233600D03*
X179125600Y-113693600D03*
X179125600Y-116233600D03*
X176585600Y-113693600D03*
X176585600Y-116233600D03*
X174045600Y-113693600D03*
X174045600Y-116233600D03*
X171505600Y-113693600D03*
X171505600Y-116233600D03*
X168965600Y-113693600D03*
X168965600Y-116233600D03*
X166425600Y-113693600D03*
X166425600Y-116233600D03*
X163885600Y-113693600D03*
X163885600Y-116233600D03*
X161345600Y-113693600D03*
X161345600Y-116233600D03*
X158805600Y-113693600D03*
X158805600Y-116233600D03*
X156265600Y-113693600D03*
X156265600Y-116233600D03*
X153725600Y-113693600D03*
X153725600Y-116233600D03*
G36*
G01*
X128780600Y-128818600D02*
X128780600Y-129368600D01*
G75*
G02*
X128580600Y-129568600I-200000J0D01*
G01*
X128180600Y-129568600D01*
G75*
G02*
X127980600Y-129368600I0J200000D01*
G01*
X127980600Y-128818600D01*
G75*
G02*
X128180600Y-128618600I200000J0D01*
G01*
X128580600Y-128618600D01*
G75*
G02*
X128780600Y-128818600I0J-200000D01*
G01*
G37*
G36*
G01*
X130430600Y-128818600D02*
X130430600Y-129368600D01*
G75*
G02*
X130230600Y-129568600I-200000J0D01*
G01*
X129830600Y-129568600D01*
G75*
G02*
X129630600Y-129368600I0J200000D01*
G01*
X129630600Y-128818600D01*
G75*
G02*
X129830600Y-128618600I200000J0D01*
G01*
X130230600Y-128618600D01*
G75*
G02*
X130430600Y-128818600I0J-200000D01*
G01*
G37*
G36*
G01*
X130510600Y-121598600D02*
X130510600Y-122148600D01*
G75*
G02*
X130310600Y-122348600I-200000J0D01*
G01*
X129910600Y-122348600D01*
G75*
G02*
X129710600Y-122148600I0J200000D01*
G01*
X129710600Y-121598600D01*
G75*
G02*
X129910600Y-121398600I200000J0D01*
G01*
X130310600Y-121398600D01*
G75*
G02*
X130510600Y-121598600I0J-200000D01*
G01*
G37*
G36*
G01*
X128860600Y-121598600D02*
X128860600Y-122148600D01*
G75*
G02*
X128660600Y-122348600I-200000J0D01*
G01*
X128260600Y-122348600D01*
G75*
G02*
X128060600Y-122148600I0J200000D01*
G01*
X128060600Y-121598600D01*
G75*
G02*
X128260600Y-121398600I200000J0D01*
G01*
X128660600Y-121398600D01*
G75*
G02*
X128860600Y-121598600I0J-200000D01*
G01*
G37*
G36*
G01*
X184175600Y-70178600D02*
X183675600Y-70178600D01*
G75*
G02*
X183450600Y-69953600I0J225000D01*
G01*
X183450600Y-69503600D01*
G75*
G02*
X183675600Y-69278600I225000J0D01*
G01*
X184175600Y-69278600D01*
G75*
G02*
X184400600Y-69503600I0J-225000D01*
G01*
X184400600Y-69953600D01*
G75*
G02*
X184175600Y-70178600I-225000J0D01*
G01*
G37*
G36*
G01*
X184175600Y-68628600D02*
X183675600Y-68628600D01*
G75*
G02*
X183450600Y-68403600I0J225000D01*
G01*
X183450600Y-67953600D01*
G75*
G02*
X183675600Y-67728600I225000J0D01*
G01*
X184175600Y-67728600D01*
G75*
G02*
X184400600Y-67953600I0J-225000D01*
G01*
X184400600Y-68403600D01*
G75*
G02*
X184175600Y-68628600I-225000J0D01*
G01*
G37*
D26*
X150735600Y-125413600D03*
D25*
X150735600Y-127953600D03*
X150735600Y-130493600D03*
X155715600Y-130493600D03*
X155715600Y-127953600D03*
D26*
X155715600Y-125413600D03*
D27*
X193695600Y-66361100D03*
X193695600Y-66996100D03*
X193695600Y-67631100D03*
X193695600Y-68266100D03*
X193695600Y-68901100D03*
X193695600Y-69536100D03*
X193695600Y-70171100D03*
X193695600Y-70806100D03*
X188495600Y-70806100D03*
X188495600Y-70171100D03*
X188495600Y-69536100D03*
X188495600Y-68901100D03*
X188495600Y-68266100D03*
X188495600Y-67631100D03*
X188495600Y-66996100D03*
X188495600Y-66361100D03*
M02*
