M48
; DRILL file {KiCad (5.1.9)-1} date 01/16/21 04:06:50
; FORMAT={-:-/ absolute / metric / decimal}
; #@! TF.CreationDate,2021-01-16T04:06:50-07:00
; #@! TF.GenerationSoftware,Kicad,Pcbnew,(5.1.9)-1
FMAT,2
METRIC
T1C0.400
T2C0.600
T3C0.650
T4C1.000
T5C1.450
T6C0.900
T7C0.986
T8C0.988
T9C5.000
%
G90
G05
T1
X1.75Y53.51
X3.29Y50.37
X3.38Y57.58
X5.08Y16.18
X7.67Y16.88
X10.19Y22.3
X16.02Y13.66
X16.81Y32.12
X21.49Y56.52
X22.74Y32.12
X24.53Y126.32
X26.29Y128.84
X26.58Y90.23
X26.58Y86.41
X26.58Y82.75
X26.58Y78.43
X27.99Y131.34
X28.57Y8.87
X29.62Y133.89
X29.68Y4.75
X29.75Y8.82
X30.29Y11.86
X30.75Y4.74
X31.19Y136.43
X34.91Y9.5
X37.66Y22.67
X42.62Y18.91
X44.15Y18.68
X49.09Y37.65
X63.81Y108.54
X69.7Y14.66
X71.21Y114.05
X71.21Y112.15
X71.23Y109.54
X71.82Y47.96
X73.03Y115.05
X73.07Y111.71
X73.08Y50.62
X74.36Y53.18
X75.62Y55.73
X77.18Y108.55
X77.18Y71.91
X77.48Y109.55
X79.63Y121.72
X81.36Y71.91
X81.36Y14.67
X84.85Y23.14
T3
X7.01Y10.26
X7.01Y8.99
X8.28Y10.06
X8.28Y8.79
X9.55Y10.26
X9.55Y8.99
X10.82Y10.06
X10.82Y8.79
X12.09Y10.26
X12.09Y8.99
T4
X7.08Y33.18
X7.08Y30.64
X7.755Y56.505
X7.755Y49.375
X7.755Y42.245
X9.62Y33.18
X9.62Y30.64
X10.295Y56.505
X10.295Y49.375
X10.295Y42.245
X12.16Y33.18
X12.16Y30.64
X12.835Y56.505
X12.835Y49.375
X12.835Y42.245
X15.375Y56.505
X15.375Y49.375
X15.375Y42.245
X25.65Y55.0
X25.65Y52.46
X25.65Y49.92
X28.64Y66.72
X28.64Y64.18
X30.63Y55.0
X30.63Y52.46
X30.63Y49.92
X31.18Y66.72
X31.18Y64.18
X33.72Y66.72
X33.72Y64.18
X36.26Y66.72
X36.26Y64.18
X38.8Y66.72
X38.8Y64.18
X41.34Y66.72
X41.34Y64.18
X43.88Y66.72
X43.88Y64.18
X46.42Y66.72
X46.42Y64.18
X48.96Y66.72
X48.96Y64.18
X51.5Y66.72
X51.5Y64.18
X54.04Y66.72
X54.04Y64.18
X56.58Y66.72
X56.58Y64.18
X59.12Y66.72
X59.12Y64.18
X61.66Y66.72
X61.66Y64.18
X64.2Y66.72
X64.2Y64.18
X66.74Y66.72
X66.74Y64.18
X69.28Y66.72
X69.28Y64.18
X71.82Y66.72
X71.82Y64.18
X74.36Y66.72
X74.36Y64.18
X76.9Y66.72
X76.9Y64.18
X81.55Y56.98
X81.55Y54.44
X81.55Y51.9
X81.55Y49.36
X84.09Y56.98
X84.09Y54.44
X84.09Y51.9
X84.09Y49.36
X86.63Y56.98
X86.63Y54.44
X86.63Y51.9
X86.63Y49.36
T5
X3.858Y128.14
X3.858Y124.545
X3.858Y120.95
X40.87Y138.96
X40.87Y136.422
X40.87Y133.884
X40.87Y131.346
X40.87Y128.808
X40.87Y126.27
X70.7Y88.27
X70.7Y84.63
X70.7Y80.99
X75.01Y127.26
X75.03Y134.52
X75.03Y130.89
X89.55Y115.05
X89.57Y121.71
X89.57Y118.377
X89.57Y111.71
T6
X87.53Y18.08
X87.53Y11.28
T7
X6.4Y21.056
X6.4Y19.024
T8
X14.02Y20.04
T2
G00X25.86Y6.65
M15
G01X25.86Y7.65
M16
G05
G00X25.86Y1.04
M15
G01X25.86Y2.54
M16
G05
G00X34.5Y6.65
M15
G01X34.5Y7.65
M16
G05
G00X34.5Y1.04
M15
G01X34.5Y2.54
M16
G05
T9
G00X63.42Y33.67
M15
G01X63.42Y11.67
M16
G05
T0
M30
