G04 #@! TF.GenerationSoftware,KiCad,Pcbnew,(5.1.9)-1*
G04 #@! TF.CreationDate,2021-01-16T22:32:26-07:00*
G04 #@! TF.ProjectId,purplewizard-pogo,70757270-6c65-4776-997a-6172642d706f,1*
G04 #@! TF.SameCoordinates,Original*
G04 #@! TF.FileFunction,Other,Fab,Bot*
%FSLAX46Y46*%
G04 Gerber Fmt 4.6, Leading zero omitted, Abs format (unit mm)*
G04 Created by KiCad (PCBNEW (5.1.9)-1) date 2021-01-16 22:32:26*
%MOMM*%
%LPD*%
G01*
G04 APERTURE LIST*
%ADD10C,0.100000*%
%ADD11C,0.127000*%
%ADD12C,0.150000*%
%ADD13C,0.060000*%
%ADD14C,0.075000*%
%ADD15C,0.015000*%
G04 APERTURE END LIST*
D10*
X198865600Y-172783600D02*
X203465600Y-172783600D01*
X203465600Y-172783600D02*
X203465600Y-169783600D01*
X198865600Y-169783600D02*
X198865600Y-172783600D01*
X198865600Y-169783600D02*
X203465600Y-169783600D01*
X201815040Y-171284620D02*
X202716740Y-171284620D01*
X200664420Y-171284620D02*
X199666200Y-171284620D01*
X201815040Y-170484520D02*
X201815040Y-172084720D01*
X200664420Y-172033920D02*
X200664420Y-170484520D01*
X201815040Y-171284620D02*
X200664420Y-172033920D01*
X201815040Y-171284620D02*
X200664420Y-170484520D01*
X169245600Y-162873600D02*
X167645600Y-162873600D01*
X169245600Y-163673600D02*
X169245600Y-162873600D01*
X167645600Y-163673600D02*
X169245600Y-163673600D01*
X167645600Y-162873600D02*
X167645600Y-163673600D01*
X178685600Y-157703600D02*
X178685600Y-143653600D01*
X178685600Y-143653600D02*
X183285600Y-143653600D01*
X183285600Y-143653600D02*
X183285600Y-144253600D01*
X183285600Y-144253600D02*
X183585600Y-144253600D01*
X183585600Y-144253600D02*
X183585600Y-143753600D01*
X183585600Y-143753600D02*
X184285600Y-143753600D01*
X184285600Y-143753600D02*
X184285600Y-157703600D01*
X178685600Y-157703600D02*
X178685600Y-171753600D01*
X178685600Y-171753600D02*
X183285600Y-171753600D01*
X183285600Y-171753600D02*
X183285600Y-171153600D01*
X183285600Y-171153600D02*
X183585600Y-171153600D01*
X183585600Y-171153600D02*
X183585600Y-171653600D01*
X183585600Y-171653600D02*
X184285600Y-171653600D01*
X184285600Y-171653600D02*
X184285600Y-157703600D01*
X178685600Y-144953600D02*
X179392707Y-145453600D01*
X179392707Y-145453600D02*
X178685600Y-145953600D01*
X198865600Y-167243600D02*
X203465600Y-167243600D01*
X203465600Y-167243600D02*
X203465600Y-164243600D01*
X198865600Y-164243600D02*
X198865600Y-167243600D01*
X198865600Y-164243600D02*
X203465600Y-164243600D01*
X201815040Y-165744620D02*
X202716740Y-165744620D01*
X200664420Y-165744620D02*
X199666200Y-165744620D01*
X201815040Y-164944520D02*
X201815040Y-166544720D01*
X200664420Y-166493920D02*
X200664420Y-164944520D01*
X201815040Y-165744620D02*
X200664420Y-166493920D01*
X201815040Y-165744620D02*
X200664420Y-164944520D01*
X154642268Y-167593600D02*
X154642268Y-166793600D01*
X154642268Y-166793600D02*
X153042268Y-166793600D01*
X153042268Y-166793600D02*
X153042268Y-167593600D01*
X153042268Y-167593600D02*
X154642268Y-167593600D01*
X157668934Y-167583600D02*
X157668934Y-166783600D01*
X157668934Y-166783600D02*
X156068934Y-166783600D01*
X156068934Y-166783600D02*
X156068934Y-167583600D01*
X156068934Y-167583600D02*
X157668934Y-167583600D01*
X163025600Y-173203600D02*
X162225600Y-173203600D01*
X162225600Y-173203600D02*
X162225600Y-174803600D01*
X162225600Y-174803600D02*
X163025600Y-174803600D01*
X163025600Y-174803600D02*
X163025600Y-173203600D01*
X154375600Y-162703600D02*
X153875600Y-163203600D01*
X153875600Y-163203600D02*
X153875600Y-165103600D01*
X156875600Y-162703600D02*
X154375600Y-162703600D01*
X156875600Y-165103600D02*
X156875600Y-162703600D01*
X153875600Y-165103600D02*
X156875600Y-165103600D01*
X174575600Y-144493600D02*
X173775600Y-144493600D01*
X173775600Y-144493600D02*
X173775600Y-146093600D01*
X173775600Y-146093600D02*
X174575600Y-146093600D01*
X174575600Y-146093600D02*
X174575600Y-144493600D01*
X151165600Y-167243600D02*
X151965600Y-167243600D01*
X151965600Y-167243600D02*
X151965600Y-165643600D01*
X151965600Y-165643600D02*
X151165600Y-165643600D01*
X151165600Y-165643600D02*
X151165600Y-167243600D01*
X150505600Y-168793600D02*
X150505600Y-169593600D01*
X150505600Y-169593600D02*
X152105600Y-169593600D01*
X152105600Y-169593600D02*
X152105600Y-168793600D01*
X152105600Y-168793600D02*
X150505600Y-168793600D01*
X158435600Y-168793600D02*
X158435600Y-169593600D01*
X158435600Y-169593600D02*
X160035600Y-169593600D01*
X160035600Y-169593600D02*
X160035600Y-168793600D01*
X160035600Y-168793600D02*
X158435600Y-168793600D01*
X158745600Y-167233600D02*
X159545600Y-167233600D01*
X159545600Y-167233600D02*
X159545600Y-165633600D01*
X159545600Y-165633600D02*
X158745600Y-165633600D01*
X158745600Y-165633600D02*
X158745600Y-167233600D01*
D11*
X159735600Y-180573600D02*
X150795600Y-180573600D01*
X150795600Y-180573600D02*
X150795600Y-172673600D01*
X150795600Y-172673600D02*
X159735600Y-172673600D01*
X159735600Y-172673600D02*
X159735600Y-180573600D01*
D10*
X164695600Y-173203600D02*
X163895600Y-173203600D01*
X163895600Y-173203600D02*
X163895600Y-174803600D01*
X163895600Y-174803600D02*
X164695600Y-174803600D01*
X164695600Y-174803600D02*
X164695600Y-173203600D01*
X169295600Y-165023600D02*
X167695600Y-165023600D01*
X169295600Y-165823600D02*
X169295600Y-165023600D01*
X167695600Y-165823600D02*
X169295600Y-165823600D01*
X167695600Y-165023600D02*
X167695600Y-165823600D01*
X130005600Y-129506100D02*
X130005600Y-128681100D01*
X130005600Y-128681100D02*
X128405600Y-128681100D01*
X128405600Y-128681100D02*
X128405600Y-129506100D01*
X128405600Y-129506100D02*
X130005600Y-129506100D01*
X128485600Y-122286100D02*
X130085600Y-122286100D01*
X128485600Y-121461100D02*
X128485600Y-122286100D01*
X130085600Y-121461100D02*
X128485600Y-121461100D01*
X130085600Y-122286100D02*
X130085600Y-121461100D01*
X183525600Y-68153600D02*
X183525600Y-69753600D01*
X184325600Y-68153600D02*
X183525600Y-68153600D01*
X184325600Y-69753600D02*
X184325600Y-68153600D01*
X183525600Y-69753600D02*
X184325600Y-69753600D01*
D12*
X193045600Y-67133600D02*
X192045600Y-66133600D01*
X193045600Y-71033600D02*
X193045600Y-67133600D01*
X189145600Y-71033600D02*
X193045600Y-71033600D01*
X189145600Y-66133600D02*
X189145600Y-71033600D01*
X192045600Y-66133600D02*
X189145600Y-66133600D01*
X204975123Y-174335980D02*
X204975123Y-173335980D01*
X204737028Y-173335980D01*
X204594171Y-173383600D01*
X204498933Y-173478838D01*
X204451314Y-173574076D01*
X204403695Y-173764552D01*
X204403695Y-173907409D01*
X204451314Y-174097885D01*
X204498933Y-174193123D01*
X204594171Y-174288361D01*
X204737028Y-174335980D01*
X204975123Y-174335980D01*
X204213219Y-174431219D02*
X203451314Y-174431219D01*
X203260838Y-174288361D02*
X203117980Y-174335980D01*
X202879885Y-174335980D01*
X202784647Y-174288361D01*
X202737028Y-174240742D01*
X202689409Y-174145504D01*
X202689409Y-174050266D01*
X202737028Y-173955028D01*
X202784647Y-173907409D01*
X202879885Y-173859790D01*
X203070361Y-173812171D01*
X203165600Y-173764552D01*
X203213219Y-173716933D01*
X203260838Y-173621695D01*
X203260838Y-173526457D01*
X203213219Y-173431219D01*
X203165600Y-173383600D01*
X203070361Y-173335980D01*
X202832266Y-173335980D01*
X202689409Y-173383600D01*
X201832266Y-174288361D02*
X201927504Y-174335980D01*
X202117980Y-174335980D01*
X202213219Y-174288361D01*
X202260838Y-174240742D01*
X202308457Y-174145504D01*
X202308457Y-173859790D01*
X202260838Y-173764552D01*
X202213219Y-173716933D01*
X202117980Y-173669314D01*
X201927504Y-173669314D01*
X201832266Y-173716933D01*
X201403695Y-174335980D02*
X201403695Y-173335980D01*
X200975123Y-174335980D02*
X200975123Y-173812171D01*
X201022742Y-173716933D01*
X201117980Y-173669314D01*
X201260838Y-173669314D01*
X201356076Y-173716933D01*
X201403695Y-173764552D01*
X200356076Y-174335980D02*
X200451314Y-174288361D01*
X200498933Y-174240742D01*
X200546552Y-174145504D01*
X200546552Y-173859790D01*
X200498933Y-173764552D01*
X200451314Y-173716933D01*
X200356076Y-173669314D01*
X200213219Y-173669314D01*
X200117980Y-173716933D01*
X200070361Y-173764552D01*
X200022742Y-173859790D01*
X200022742Y-174145504D01*
X200070361Y-174240742D01*
X200117980Y-174288361D01*
X200213219Y-174335980D01*
X200356076Y-174335980D01*
X199737028Y-173669314D02*
X199356076Y-173669314D01*
X199594171Y-173335980D02*
X199594171Y-174193123D01*
X199546552Y-174288361D01*
X199451314Y-174335980D01*
X199356076Y-174335980D01*
X199165600Y-173669314D02*
X198784647Y-173669314D01*
X199022742Y-173335980D02*
X199022742Y-174193123D01*
X198975123Y-174288361D01*
X198879885Y-174335980D01*
X198784647Y-174335980D01*
X198451314Y-174335980D02*
X198451314Y-173335980D01*
X198356076Y-173955028D02*
X198070361Y-174335980D01*
X198070361Y-173669314D02*
X198451314Y-174050266D01*
X197737028Y-173669314D02*
X197498933Y-174335980D01*
X197260838Y-173669314D02*
X197498933Y-174335980D01*
X197594171Y-174574076D01*
X197641790Y-174621695D01*
X197737028Y-174669314D01*
X201903695Y-169235980D02*
X201903695Y-168235980D01*
X201665600Y-168235980D01*
X201522742Y-168283600D01*
X201427504Y-168378838D01*
X201379885Y-168474076D01*
X201332266Y-168664552D01*
X201332266Y-168807409D01*
X201379885Y-168997885D01*
X201427504Y-169093123D01*
X201522742Y-169188361D01*
X201665600Y-169235980D01*
X201903695Y-169235980D01*
X200379885Y-169235980D02*
X200951314Y-169235980D01*
X200665600Y-169235980D02*
X200665600Y-168235980D01*
X200760838Y-168378838D01*
X200856076Y-168474076D01*
X200951314Y-168521695D01*
X169517028Y-162295980D02*
X170088457Y-162295980D01*
X169802742Y-162295980D02*
X169802742Y-161295980D01*
X169897980Y-161438838D01*
X169993219Y-161534076D01*
X170088457Y-161581695D01*
X168897980Y-161295980D02*
X168802742Y-161295980D01*
X168707504Y-161343600D01*
X168659885Y-161391219D01*
X168612266Y-161486457D01*
X168564647Y-161676933D01*
X168564647Y-161915028D01*
X168612266Y-162105504D01*
X168659885Y-162200742D01*
X168707504Y-162248361D01*
X168802742Y-162295980D01*
X168897980Y-162295980D01*
X168993219Y-162248361D01*
X169040838Y-162200742D01*
X169088457Y-162105504D01*
X169136076Y-161915028D01*
X169136076Y-161676933D01*
X169088457Y-161486457D01*
X169040838Y-161391219D01*
X168993219Y-161343600D01*
X168897980Y-161295980D01*
X167707504Y-161629314D02*
X167707504Y-162295980D01*
X168136076Y-161629314D02*
X168136076Y-162153123D01*
X168088457Y-162248361D01*
X167993219Y-162295980D01*
X167850361Y-162295980D01*
X167755123Y-162248361D01*
X167707504Y-162200742D01*
X166897980Y-161772171D02*
X167231314Y-161772171D01*
X167231314Y-162295980D02*
X167231314Y-161295980D01*
X166755123Y-161295980D01*
D13*
X168702742Y-163416457D02*
X168721790Y-163435504D01*
X168778933Y-163454552D01*
X168817028Y-163454552D01*
X168874171Y-163435504D01*
X168912266Y-163397409D01*
X168931314Y-163359314D01*
X168950361Y-163283123D01*
X168950361Y-163225980D01*
X168931314Y-163149790D01*
X168912266Y-163111695D01*
X168874171Y-163073600D01*
X168817028Y-163054552D01*
X168778933Y-163054552D01*
X168721790Y-163073600D01*
X168702742Y-163092647D01*
X168550361Y-163092647D02*
X168531314Y-163073600D01*
X168493219Y-163054552D01*
X168397980Y-163054552D01*
X168359885Y-163073600D01*
X168340838Y-163092647D01*
X168321790Y-163130742D01*
X168321790Y-163168838D01*
X168340838Y-163225980D01*
X168569409Y-163454552D01*
X168321790Y-163454552D01*
X167978933Y-163054552D02*
X168055123Y-163054552D01*
X168093219Y-163073600D01*
X168112266Y-163092647D01*
X168150361Y-163149790D01*
X168169409Y-163225980D01*
X168169409Y-163378361D01*
X168150361Y-163416457D01*
X168131314Y-163435504D01*
X168093219Y-163454552D01*
X168017028Y-163454552D01*
X167978933Y-163435504D01*
X167959885Y-163416457D01*
X167940838Y-163378361D01*
X167940838Y-163283123D01*
X167959885Y-163245028D01*
X167978933Y-163225980D01*
X168017028Y-163206933D01*
X168093219Y-163206933D01*
X168131314Y-163225980D01*
X168150361Y-163245028D01*
X168169409Y-163283123D01*
D12*
X185842742Y-153965504D02*
X185890361Y-153917885D01*
X185937980Y-153775028D01*
X185937980Y-153679790D01*
X185890361Y-153536933D01*
X185795123Y-153441695D01*
X185699885Y-153394076D01*
X185509409Y-153346457D01*
X185366552Y-153346457D01*
X185176076Y-153394076D01*
X185080838Y-153441695D01*
X184985600Y-153536933D01*
X184937980Y-153679790D01*
X184937980Y-153775028D01*
X184985600Y-153917885D01*
X185033219Y-153965504D01*
X185937980Y-154536933D02*
X185890361Y-154441695D01*
X185842742Y-154394076D01*
X185747504Y-154346457D01*
X185461790Y-154346457D01*
X185366552Y-154394076D01*
X185318933Y-154441695D01*
X185271314Y-154536933D01*
X185271314Y-154679790D01*
X185318933Y-154775028D01*
X185366552Y-154822647D01*
X185461790Y-154870266D01*
X185747504Y-154870266D01*
X185842742Y-154822647D01*
X185890361Y-154775028D01*
X185937980Y-154679790D01*
X185937980Y-154536933D01*
X185271314Y-155298838D02*
X185937980Y-155298838D01*
X185366552Y-155298838D02*
X185318933Y-155346457D01*
X185271314Y-155441695D01*
X185271314Y-155584552D01*
X185318933Y-155679790D01*
X185414171Y-155727409D01*
X185937980Y-155727409D01*
X185271314Y-156203600D02*
X185937980Y-156203600D01*
X185366552Y-156203600D02*
X185318933Y-156251219D01*
X185271314Y-156346457D01*
X185271314Y-156489314D01*
X185318933Y-156584552D01*
X185414171Y-156632171D01*
X185937980Y-156632171D01*
X186033219Y-156870266D02*
X186033219Y-157632171D01*
X184937980Y-158060742D02*
X184937980Y-158155980D01*
X184985600Y-158251219D01*
X185033219Y-158298838D01*
X185128457Y-158346457D01*
X185318933Y-158394076D01*
X185557028Y-158394076D01*
X185747504Y-158346457D01*
X185842742Y-158298838D01*
X185890361Y-158251219D01*
X185937980Y-158155980D01*
X185937980Y-158060742D01*
X185890361Y-157965504D01*
X185842742Y-157917885D01*
X185747504Y-157870266D01*
X185557028Y-157822647D01*
X185318933Y-157822647D01*
X185128457Y-157870266D01*
X185033219Y-157917885D01*
X184985600Y-157965504D01*
X184937980Y-158060742D01*
X185937980Y-159346457D02*
X185937980Y-158775028D01*
X185937980Y-159060742D02*
X184937980Y-159060742D01*
X185080838Y-158965504D01*
X185176076Y-158870266D01*
X185223695Y-158775028D01*
X185937980Y-159679790D02*
X185271314Y-160203600D01*
X185271314Y-159679790D02*
X185937980Y-160203600D01*
X184937980Y-161060742D02*
X184937980Y-160584552D01*
X185414171Y-160536933D01*
X185366552Y-160584552D01*
X185318933Y-160679790D01*
X185318933Y-160917885D01*
X185366552Y-161013123D01*
X185414171Y-161060742D01*
X185509409Y-161108361D01*
X185747504Y-161108361D01*
X185842742Y-161060742D01*
X185890361Y-161013123D01*
X185937980Y-160917885D01*
X185937980Y-160679790D01*
X185890361Y-160584552D01*
X185842742Y-160536933D01*
X184937980Y-161727409D02*
X184937980Y-161822647D01*
X184985600Y-161917885D01*
X185033219Y-161965504D01*
X185128457Y-162013123D01*
X185318933Y-162060742D01*
X185557028Y-162060742D01*
X185747504Y-162013123D01*
X185842742Y-161965504D01*
X185890361Y-161917885D01*
X185937980Y-161822647D01*
X185937980Y-161727409D01*
X185890361Y-161632171D01*
X185842742Y-161584552D01*
X185747504Y-161536933D01*
X185557028Y-161489314D01*
X185318933Y-161489314D01*
X185128457Y-161536933D01*
X185033219Y-161584552D01*
X184985600Y-161632171D01*
X184937980Y-161727409D01*
X183037980Y-156894076D02*
X183752266Y-156894076D01*
X183895123Y-156846457D01*
X183990361Y-156751219D01*
X184037980Y-156608361D01*
X184037980Y-156513123D01*
X184037980Y-157894076D02*
X184037980Y-157322647D01*
X184037980Y-157608361D02*
X183037980Y-157608361D01*
X183180838Y-157513123D01*
X183276076Y-157417885D01*
X183323695Y-157322647D01*
X183037980Y-158751219D02*
X183037980Y-158560742D01*
X183085600Y-158465504D01*
X183133219Y-158417885D01*
X183276076Y-158322647D01*
X183466552Y-158275028D01*
X183847504Y-158275028D01*
X183942742Y-158322647D01*
X183990361Y-158370266D01*
X184037980Y-158465504D01*
X184037980Y-158655980D01*
X183990361Y-158751219D01*
X183942742Y-158798838D01*
X183847504Y-158846457D01*
X183609409Y-158846457D01*
X183514171Y-158798838D01*
X183466552Y-158751219D01*
X183418933Y-158655980D01*
X183418933Y-158465504D01*
X183466552Y-158370266D01*
X183514171Y-158322647D01*
X183609409Y-158275028D01*
X203692963Y-168884660D02*
X203692963Y-167884660D01*
X203454868Y-167884660D01*
X203312011Y-167932280D01*
X203216773Y-168027518D01*
X203169154Y-168122756D01*
X203121535Y-168313232D01*
X203121535Y-168456089D01*
X203169154Y-168646565D01*
X203216773Y-168741803D01*
X203312011Y-168837041D01*
X203454868Y-168884660D01*
X203692963Y-168884660D01*
X202931059Y-168979899D02*
X202169154Y-168979899D01*
X201978678Y-168837041D02*
X201835820Y-168884660D01*
X201597725Y-168884660D01*
X201502487Y-168837041D01*
X201454868Y-168789422D01*
X201407249Y-168694184D01*
X201407249Y-168598946D01*
X201454868Y-168503708D01*
X201502487Y-168456089D01*
X201597725Y-168408470D01*
X201788201Y-168360851D01*
X201883440Y-168313232D01*
X201931059Y-168265613D01*
X201978678Y-168170375D01*
X201978678Y-168075137D01*
X201931059Y-167979899D01*
X201883440Y-167932280D01*
X201788201Y-167884660D01*
X201550106Y-167884660D01*
X201407249Y-167932280D01*
X200550106Y-168837041D02*
X200645344Y-168884660D01*
X200835820Y-168884660D01*
X200931059Y-168837041D01*
X200978678Y-168789422D01*
X201026297Y-168694184D01*
X201026297Y-168408470D01*
X200978678Y-168313232D01*
X200931059Y-168265613D01*
X200835820Y-168217994D01*
X200645344Y-168217994D01*
X200550106Y-168265613D01*
X200121535Y-168884660D02*
X200121535Y-167884660D01*
X199692963Y-168884660D02*
X199692963Y-168360851D01*
X199740582Y-168265613D01*
X199835820Y-168217994D01*
X199978678Y-168217994D01*
X200073916Y-168265613D01*
X200121535Y-168313232D01*
X199073916Y-168884660D02*
X199169154Y-168837041D01*
X199216773Y-168789422D01*
X199264392Y-168694184D01*
X199264392Y-168408470D01*
X199216773Y-168313232D01*
X199169154Y-168265613D01*
X199073916Y-168217994D01*
X198931059Y-168217994D01*
X198835820Y-168265613D01*
X198788201Y-168313232D01*
X198740582Y-168408470D01*
X198740582Y-168694184D01*
X198788201Y-168789422D01*
X198835820Y-168837041D01*
X198931059Y-168884660D01*
X199073916Y-168884660D01*
X198454868Y-168217994D02*
X198073916Y-168217994D01*
X198312011Y-167884660D02*
X198312011Y-168741803D01*
X198264392Y-168837041D01*
X198169154Y-168884660D01*
X198073916Y-168884660D01*
X197883440Y-168217994D02*
X197502487Y-168217994D01*
X197740582Y-167884660D02*
X197740582Y-168741803D01*
X197692963Y-168837041D01*
X197597725Y-168884660D01*
X197502487Y-168884660D01*
X197169154Y-168884660D02*
X197169154Y-167884660D01*
X197073916Y-168503708D02*
X196788201Y-168884660D01*
X196788201Y-168217994D02*
X197169154Y-168598946D01*
X196454868Y-168217994D02*
X196216773Y-168884660D01*
X195978678Y-168217994D02*
X196216773Y-168884660D01*
X196312011Y-169122756D01*
X196359630Y-169170375D01*
X196454868Y-169217994D01*
X201903695Y-163695980D02*
X201903695Y-162695980D01*
X201665600Y-162695980D01*
X201522742Y-162743600D01*
X201427504Y-162838838D01*
X201379885Y-162934076D01*
X201332266Y-163124552D01*
X201332266Y-163267409D01*
X201379885Y-163457885D01*
X201427504Y-163553123D01*
X201522742Y-163648361D01*
X201665600Y-163695980D01*
X201903695Y-163695980D01*
X200951314Y-162791219D02*
X200903695Y-162743600D01*
X200808457Y-162695980D01*
X200570361Y-162695980D01*
X200475123Y-162743600D01*
X200427504Y-162791219D01*
X200379885Y-162886457D01*
X200379885Y-162981695D01*
X200427504Y-163124552D01*
X200998933Y-163695980D01*
X200379885Y-163695980D01*
X155008934Y-168409314D02*
X155008934Y-169075980D01*
X155247029Y-168028361D02*
X155485125Y-168742647D01*
X154866077Y-168742647D01*
X154580363Y-168075980D02*
X153913696Y-168075980D01*
X154342268Y-169075980D01*
X153532744Y-168409314D02*
X153532744Y-169409314D01*
X153532744Y-168456933D02*
X153437506Y-168409314D01*
X153247029Y-168409314D01*
X153151791Y-168456933D01*
X153104172Y-168504552D01*
X153056553Y-168599790D01*
X153056553Y-168885504D01*
X153104172Y-168980742D01*
X153151791Y-169028361D01*
X153247029Y-169075980D01*
X153437506Y-169075980D01*
X153532744Y-169028361D01*
X152294648Y-168552171D02*
X152627982Y-168552171D01*
X152627982Y-169075980D02*
X152627982Y-168075980D01*
X152151791Y-168075980D01*
D13*
X154099410Y-167336457D02*
X154118458Y-167355504D01*
X154175601Y-167374552D01*
X154213696Y-167374552D01*
X154270839Y-167355504D01*
X154308934Y-167317409D01*
X154327982Y-167279314D01*
X154347029Y-167203123D01*
X154347029Y-167145980D01*
X154327982Y-167069790D01*
X154308934Y-167031695D01*
X154270839Y-166993600D01*
X154213696Y-166974552D01*
X154175601Y-166974552D01*
X154118458Y-166993600D01*
X154099410Y-167012647D01*
X153718458Y-167374552D02*
X153947029Y-167374552D01*
X153832744Y-167374552D02*
X153832744Y-166974552D01*
X153870839Y-167031695D01*
X153908934Y-167069790D01*
X153947029Y-167088838D01*
X153470839Y-166974552D02*
X153432744Y-166974552D01*
X153394648Y-166993600D01*
X153375601Y-167012647D01*
X153356553Y-167050742D01*
X153337506Y-167126933D01*
X153337506Y-167222171D01*
X153356553Y-167298361D01*
X153375601Y-167336457D01*
X153394648Y-167355504D01*
X153432744Y-167374552D01*
X153470839Y-167374552D01*
X153508934Y-167355504D01*
X153527982Y-167336457D01*
X153547029Y-167298361D01*
X153566077Y-167222171D01*
X153566077Y-167126933D01*
X153547029Y-167050742D01*
X153527982Y-167012647D01*
X153508934Y-166993600D01*
X153470839Y-166974552D01*
D12*
X157882266Y-165709314D02*
X157882266Y-166375980D01*
X158120361Y-165328361D02*
X158358457Y-166042647D01*
X157739409Y-166042647D01*
X157453695Y-165375980D02*
X156787028Y-165375980D01*
X157215600Y-166375980D01*
X156406076Y-165709314D02*
X156406076Y-166709314D01*
X156406076Y-165756933D02*
X156310838Y-165709314D01*
X156120361Y-165709314D01*
X156025123Y-165756933D01*
X155977504Y-165804552D01*
X155929885Y-165899790D01*
X155929885Y-166185504D01*
X155977504Y-166280742D01*
X156025123Y-166328361D01*
X156120361Y-166375980D01*
X156310838Y-166375980D01*
X156406076Y-166328361D01*
X155167980Y-165852171D02*
X155501314Y-165852171D01*
X155501314Y-166375980D02*
X155501314Y-165375980D01*
X155025123Y-165375980D01*
D13*
X157126076Y-167326457D02*
X157145124Y-167345504D01*
X157202267Y-167364552D01*
X157240362Y-167364552D01*
X157297505Y-167345504D01*
X157335600Y-167307409D01*
X157354648Y-167269314D01*
X157373695Y-167193123D01*
X157373695Y-167135980D01*
X157354648Y-167059790D01*
X157335600Y-167021695D01*
X157297505Y-166983600D01*
X157240362Y-166964552D01*
X157202267Y-166964552D01*
X157145124Y-166983600D01*
X157126076Y-167002647D01*
X156745124Y-167364552D02*
X156973695Y-167364552D01*
X156859410Y-167364552D02*
X156859410Y-166964552D01*
X156897505Y-167021695D01*
X156935600Y-167059790D01*
X156973695Y-167078838D01*
X156364172Y-167364552D02*
X156592743Y-167364552D01*
X156478457Y-167364552D02*
X156478457Y-166964552D01*
X156516553Y-167021695D01*
X156554648Y-167059790D01*
X156592743Y-167078838D01*
D12*
X160757980Y-172350742D02*
X160757980Y-172445980D01*
X160805600Y-172541219D01*
X160853219Y-172588838D01*
X160948457Y-172636457D01*
X161138933Y-172684076D01*
X161377028Y-172684076D01*
X161567504Y-172636457D01*
X161662742Y-172588838D01*
X161710361Y-172541219D01*
X161757980Y-172445980D01*
X161757980Y-172350742D01*
X161710361Y-172255504D01*
X161662742Y-172207885D01*
X161567504Y-172160266D01*
X161377028Y-172112647D01*
X161138933Y-172112647D01*
X160948457Y-172160266D01*
X160853219Y-172207885D01*
X160805600Y-172255504D01*
X160757980Y-172350742D01*
X161662742Y-173112647D02*
X161710361Y-173160266D01*
X161757980Y-173112647D01*
X161710361Y-173065028D01*
X161662742Y-173112647D01*
X161757980Y-173112647D01*
X161757980Y-174112647D02*
X161757980Y-173541219D01*
X161757980Y-173826933D02*
X160757980Y-173826933D01*
X160900838Y-173731695D01*
X160996076Y-173636457D01*
X161043695Y-173541219D01*
X161091314Y-174969790D02*
X161757980Y-174969790D01*
X161091314Y-174541219D02*
X161615123Y-174541219D01*
X161710361Y-174588838D01*
X161757980Y-174684076D01*
X161757980Y-174826933D01*
X161710361Y-174922171D01*
X161662742Y-174969790D01*
X161234171Y-175779314D02*
X161234171Y-175445980D01*
X161757980Y-175445980D02*
X160757980Y-175445980D01*
X160757980Y-175922171D01*
D13*
X162768457Y-173746457D02*
X162787504Y-173727409D01*
X162806552Y-173670266D01*
X162806552Y-173632171D01*
X162787504Y-173575028D01*
X162749409Y-173536933D01*
X162711314Y-173517885D01*
X162635123Y-173498838D01*
X162577980Y-173498838D01*
X162501790Y-173517885D01*
X162463695Y-173536933D01*
X162425600Y-173575028D01*
X162406552Y-173632171D01*
X162406552Y-173670266D01*
X162425600Y-173727409D01*
X162444647Y-173746457D01*
X162806552Y-174127409D02*
X162806552Y-173898838D01*
X162806552Y-174013123D02*
X162406552Y-174013123D01*
X162463695Y-173975028D01*
X162501790Y-173936933D01*
X162520838Y-173898838D01*
X162539885Y-174470266D02*
X162806552Y-174470266D01*
X162387504Y-174375028D02*
X162673219Y-174279790D01*
X162673219Y-174527409D01*
D12*
X159689409Y-161928361D02*
X159546552Y-161975980D01*
X159308457Y-161975980D01*
X159213219Y-161928361D01*
X159165600Y-161880742D01*
X159117980Y-161785504D01*
X159117980Y-161690266D01*
X159165600Y-161595028D01*
X159213219Y-161547409D01*
X159308457Y-161499790D01*
X159498933Y-161452171D01*
X159594171Y-161404552D01*
X159641790Y-161356933D01*
X159689409Y-161261695D01*
X159689409Y-161166457D01*
X159641790Y-161071219D01*
X159594171Y-161023600D01*
X159498933Y-160975980D01*
X159260838Y-160975980D01*
X159117980Y-161023600D01*
X158689409Y-161975980D02*
X158689409Y-160975980D01*
X158308457Y-160975980D01*
X158213219Y-161023600D01*
X158165600Y-161071219D01*
X158117980Y-161166457D01*
X158117980Y-161309314D01*
X158165600Y-161404552D01*
X158213219Y-161452171D01*
X158308457Y-161499790D01*
X158689409Y-161499790D01*
X157498933Y-160975980D02*
X157403695Y-160975980D01*
X157308457Y-161023600D01*
X157260838Y-161071219D01*
X157213219Y-161166457D01*
X157165600Y-161356933D01*
X157165600Y-161595028D01*
X157213219Y-161785504D01*
X157260838Y-161880742D01*
X157308457Y-161928361D01*
X157403695Y-161975980D01*
X157498933Y-161975980D01*
X157594171Y-161928361D01*
X157641790Y-161880742D01*
X157689409Y-161785504D01*
X157737028Y-161595028D01*
X157737028Y-161356933D01*
X157689409Y-161166457D01*
X157641790Y-161071219D01*
X157594171Y-161023600D01*
X157498933Y-160975980D01*
X156260838Y-160975980D02*
X156737028Y-160975980D01*
X156784647Y-161452171D01*
X156737028Y-161404552D01*
X156641790Y-161356933D01*
X156403695Y-161356933D01*
X156308457Y-161404552D01*
X156260838Y-161452171D01*
X156213219Y-161547409D01*
X156213219Y-161785504D01*
X156260838Y-161880742D01*
X156308457Y-161928361D01*
X156403695Y-161975980D01*
X156641790Y-161975980D01*
X156737028Y-161928361D01*
X156784647Y-161880742D01*
X155594171Y-160975980D02*
X155498933Y-160975980D01*
X155403695Y-161023600D01*
X155356076Y-161071219D01*
X155308457Y-161166457D01*
X155260838Y-161356933D01*
X155260838Y-161595028D01*
X155308457Y-161785504D01*
X155356076Y-161880742D01*
X155403695Y-161928361D01*
X155498933Y-161975980D01*
X155594171Y-161975980D01*
X155689409Y-161928361D01*
X155737028Y-161880742D01*
X155784647Y-161785504D01*
X155832266Y-161595028D01*
X155832266Y-161356933D01*
X155784647Y-161166457D01*
X155737028Y-161071219D01*
X155689409Y-161023600D01*
X155594171Y-160975980D01*
X154927504Y-160975980D02*
X154308457Y-160975980D01*
X154641790Y-161356933D01*
X154498933Y-161356933D01*
X154403695Y-161404552D01*
X154356076Y-161452171D01*
X154308457Y-161547409D01*
X154308457Y-161785504D01*
X154356076Y-161880742D01*
X154403695Y-161928361D01*
X154498933Y-161975980D01*
X154784647Y-161975980D01*
X154879885Y-161928361D01*
X154927504Y-161880742D01*
X153546552Y-161452171D02*
X153403695Y-161499790D01*
X153356076Y-161547409D01*
X153308457Y-161642647D01*
X153308457Y-161785504D01*
X153356076Y-161880742D01*
X153403695Y-161928361D01*
X153498933Y-161975980D01*
X153879885Y-161975980D01*
X153879885Y-160975980D01*
X153546552Y-160975980D01*
X153451314Y-161023600D01*
X153403695Y-161071219D01*
X153356076Y-161166457D01*
X153356076Y-161261695D01*
X153403695Y-161356933D01*
X153451314Y-161404552D01*
X153546552Y-161452171D01*
X153879885Y-161452171D01*
X152927504Y-161690266D02*
X152451314Y-161690266D01*
X153022742Y-161975980D02*
X152689409Y-160975980D01*
X152356076Y-161975980D01*
X152022742Y-161975980D02*
X152022742Y-160975980D01*
X152022742Y-161452171D02*
X151451314Y-161452171D01*
X151451314Y-161975980D02*
X151451314Y-160975980D01*
X151117980Y-160975980D02*
X150546552Y-160975980D01*
X150832266Y-161975980D02*
X150832266Y-160975980D01*
D14*
X155744647Y-164129790D02*
X155744647Y-163629790D01*
X155625600Y-163629790D01*
X155554171Y-163653600D01*
X155506552Y-163701219D01*
X155482742Y-163748838D01*
X155458933Y-163844076D01*
X155458933Y-163915504D01*
X155482742Y-164010742D01*
X155506552Y-164058361D01*
X155554171Y-164105980D01*
X155625600Y-164129790D01*
X155744647Y-164129790D01*
X155030361Y-163796457D02*
X155030361Y-164129790D01*
X155149409Y-163605980D02*
X155268457Y-163963123D01*
X154958933Y-163963123D01*
D12*
X171937980Y-144004076D02*
X171937980Y-144623123D01*
X172318933Y-144289790D01*
X172318933Y-144432647D01*
X172366552Y-144527885D01*
X172414171Y-144575504D01*
X172509409Y-144623123D01*
X172747504Y-144623123D01*
X172842742Y-144575504D01*
X172890361Y-144527885D01*
X172937980Y-144432647D01*
X172937980Y-144146933D01*
X172890361Y-144051695D01*
X172842742Y-144004076D01*
X171937980Y-144956457D02*
X171937980Y-145575504D01*
X172318933Y-145242171D01*
X172318933Y-145385028D01*
X172366552Y-145480266D01*
X172414171Y-145527885D01*
X172509409Y-145575504D01*
X172747504Y-145575504D01*
X172842742Y-145527885D01*
X172890361Y-145480266D01*
X172937980Y-145385028D01*
X172937980Y-145099314D01*
X172890361Y-145004076D01*
X172842742Y-144956457D01*
X172937980Y-146575504D02*
X172461790Y-146242171D01*
X172937980Y-146004076D02*
X171937980Y-146004076D01*
X171937980Y-146385028D01*
X171985600Y-146480266D01*
X172033219Y-146527885D01*
X172128457Y-146575504D01*
X172271314Y-146575504D01*
X172366552Y-146527885D01*
X172414171Y-146480266D01*
X172461790Y-146385028D01*
X172461790Y-146004076D01*
D13*
X174356552Y-145036457D02*
X174166076Y-144903123D01*
X174356552Y-144807885D02*
X173956552Y-144807885D01*
X173956552Y-144960266D01*
X173975600Y-144998361D01*
X173994647Y-145017409D01*
X174032742Y-145036457D01*
X174089885Y-145036457D01*
X174127980Y-145017409D01*
X174147028Y-144998361D01*
X174166076Y-144960266D01*
X174166076Y-144807885D01*
X174356552Y-145417409D02*
X174356552Y-145188838D01*
X174356552Y-145303123D02*
X173956552Y-145303123D01*
X174013695Y-145265028D01*
X174051790Y-145226933D01*
X174070838Y-145188838D01*
X173956552Y-145550742D02*
X173956552Y-145798361D01*
X174108933Y-145665028D01*
X174108933Y-145722171D01*
X174127980Y-145760266D01*
X174147028Y-145779314D01*
X174185123Y-145798361D01*
X174280361Y-145798361D01*
X174318457Y-145779314D01*
X174337504Y-145760266D01*
X174356552Y-145722171D01*
X174356552Y-145607885D01*
X174337504Y-145569790D01*
X174318457Y-145550742D01*
D12*
X149683219Y-165181695D02*
X149635600Y-165229314D01*
X149587980Y-165324552D01*
X149587980Y-165562647D01*
X149635600Y-165657885D01*
X149683219Y-165705504D01*
X149778457Y-165753123D01*
X149873695Y-165753123D01*
X150016552Y-165705504D01*
X150587980Y-165134076D01*
X150587980Y-165753123D01*
X149587980Y-166086457D02*
X149587980Y-166753123D01*
X150587980Y-166324552D01*
X150587980Y-167705504D02*
X150111790Y-167372171D01*
X150587980Y-167134076D02*
X149587980Y-167134076D01*
X149587980Y-167515028D01*
X149635600Y-167610266D01*
X149683219Y-167657885D01*
X149778457Y-167705504D01*
X149921314Y-167705504D01*
X150016552Y-167657885D01*
X150064171Y-167610266D01*
X150111790Y-167515028D01*
X150111790Y-167134076D01*
D13*
X151746552Y-166376933D02*
X151556076Y-166243600D01*
X151746552Y-166148361D02*
X151346552Y-166148361D01*
X151346552Y-166300742D01*
X151365600Y-166338838D01*
X151384647Y-166357885D01*
X151422742Y-166376933D01*
X151479885Y-166376933D01*
X151517980Y-166357885D01*
X151537028Y-166338838D01*
X151556076Y-166300742D01*
X151556076Y-166148361D01*
X151346552Y-166510266D02*
X151346552Y-166776933D01*
X151746552Y-166605504D01*
D12*
X152176552Y-170125980D02*
X152652742Y-170125980D01*
X152700361Y-170602171D01*
X152652742Y-170554552D01*
X152557504Y-170506933D01*
X152319409Y-170506933D01*
X152224171Y-170554552D01*
X152176552Y-170602171D01*
X152128933Y-170697409D01*
X152128933Y-170935504D01*
X152176552Y-171030742D01*
X152224171Y-171078361D01*
X152319409Y-171125980D01*
X152557504Y-171125980D01*
X152652742Y-171078361D01*
X152700361Y-171030742D01*
X151700361Y-171030742D02*
X151652742Y-171078361D01*
X151700361Y-171125980D01*
X151747980Y-171078361D01*
X151700361Y-171030742D01*
X151700361Y-171125980D01*
X150700361Y-171125980D02*
X151271790Y-171125980D01*
X150986076Y-171125980D02*
X150986076Y-170125980D01*
X151081314Y-170268838D01*
X151176552Y-170364076D01*
X151271790Y-170411695D01*
X150271790Y-171125980D02*
X150271790Y-170125980D01*
X150176552Y-170745028D02*
X149890838Y-171125980D01*
X149890838Y-170459314D02*
X150271790Y-170840266D01*
D13*
X151562742Y-169374552D02*
X151696076Y-169184076D01*
X151791314Y-169374552D02*
X151791314Y-168974552D01*
X151638933Y-168974552D01*
X151600838Y-168993600D01*
X151581790Y-169012647D01*
X151562742Y-169050742D01*
X151562742Y-169107885D01*
X151581790Y-169145980D01*
X151600838Y-169165028D01*
X151638933Y-169184076D01*
X151791314Y-169184076D01*
X151181790Y-169374552D02*
X151410361Y-169374552D01*
X151296076Y-169374552D02*
X151296076Y-168974552D01*
X151334171Y-169031695D01*
X151372266Y-169069790D01*
X151410361Y-169088838D01*
X150800838Y-169374552D02*
X151029409Y-169374552D01*
X150915123Y-169374552D02*
X150915123Y-168974552D01*
X150953219Y-169031695D01*
X150991314Y-169069790D01*
X151029409Y-169088838D01*
D12*
X160086552Y-170155980D02*
X160562742Y-170155980D01*
X160610361Y-170632171D01*
X160562742Y-170584552D01*
X160467504Y-170536933D01*
X160229409Y-170536933D01*
X160134171Y-170584552D01*
X160086552Y-170632171D01*
X160038933Y-170727409D01*
X160038933Y-170965504D01*
X160086552Y-171060742D01*
X160134171Y-171108361D01*
X160229409Y-171155980D01*
X160467504Y-171155980D01*
X160562742Y-171108361D01*
X160610361Y-171060742D01*
X159610361Y-171060742D02*
X159562742Y-171108361D01*
X159610361Y-171155980D01*
X159657980Y-171108361D01*
X159610361Y-171060742D01*
X159610361Y-171155980D01*
X158610361Y-171155980D02*
X159181790Y-171155980D01*
X158896076Y-171155980D02*
X158896076Y-170155980D01*
X158991314Y-170298838D01*
X159086552Y-170394076D01*
X159181790Y-170441695D01*
X158181790Y-171155980D02*
X158181790Y-170155980D01*
X158086552Y-170775028D02*
X157800838Y-171155980D01*
X157800838Y-170489314D02*
X158181790Y-170870266D01*
D13*
X159492742Y-169374552D02*
X159626076Y-169184076D01*
X159721314Y-169374552D02*
X159721314Y-168974552D01*
X159568933Y-168974552D01*
X159530838Y-168993600D01*
X159511790Y-169012647D01*
X159492742Y-169050742D01*
X159492742Y-169107885D01*
X159511790Y-169145980D01*
X159530838Y-169165028D01*
X159568933Y-169184076D01*
X159721314Y-169184076D01*
X159111790Y-169374552D02*
X159340361Y-169374552D01*
X159226076Y-169374552D02*
X159226076Y-168974552D01*
X159264171Y-169031695D01*
X159302266Y-169069790D01*
X159340361Y-169088838D01*
X158864171Y-168974552D02*
X158826076Y-168974552D01*
X158787980Y-168993600D01*
X158768933Y-169012647D01*
X158749885Y-169050742D01*
X158730838Y-169126933D01*
X158730838Y-169222171D01*
X158749885Y-169298361D01*
X158768933Y-169336457D01*
X158787980Y-169355504D01*
X158826076Y-169374552D01*
X158864171Y-169374552D01*
X158902266Y-169355504D01*
X158921314Y-169336457D01*
X158940361Y-169298361D01*
X158959409Y-169222171D01*
X158959409Y-169126933D01*
X158940361Y-169050742D01*
X158921314Y-169012647D01*
X158902266Y-168993600D01*
X158864171Y-168974552D01*
D12*
X160053219Y-165061695D02*
X160005600Y-165109314D01*
X159957980Y-165204552D01*
X159957980Y-165442647D01*
X160005600Y-165537885D01*
X160053219Y-165585504D01*
X160148457Y-165633123D01*
X160243695Y-165633123D01*
X160386552Y-165585504D01*
X160957980Y-165014076D01*
X160957980Y-165633123D01*
X159957980Y-165966457D02*
X159957980Y-166633123D01*
X160957980Y-166204552D01*
X160957980Y-167585504D02*
X160481790Y-167252171D01*
X160957980Y-167014076D02*
X159957980Y-167014076D01*
X159957980Y-167395028D01*
X160005600Y-167490266D01*
X160053219Y-167537885D01*
X160148457Y-167585504D01*
X160291314Y-167585504D01*
X160386552Y-167537885D01*
X160434171Y-167490266D01*
X160481790Y-167395028D01*
X160481790Y-167014076D01*
D13*
X159326552Y-166366933D02*
X159136076Y-166233600D01*
X159326552Y-166138361D02*
X158926552Y-166138361D01*
X158926552Y-166290742D01*
X158945600Y-166328838D01*
X158964647Y-166347885D01*
X159002742Y-166366933D01*
X159059885Y-166366933D01*
X159097980Y-166347885D01*
X159117028Y-166328838D01*
X159136076Y-166290742D01*
X159136076Y-166138361D01*
X159097980Y-166595504D02*
X159078933Y-166557409D01*
X159059885Y-166538361D01*
X159021790Y-166519314D01*
X159002742Y-166519314D01*
X158964647Y-166538361D01*
X158945600Y-166557409D01*
X158926552Y-166595504D01*
X158926552Y-166671695D01*
X158945600Y-166709790D01*
X158964647Y-166728838D01*
X159002742Y-166747885D01*
X159021790Y-166747885D01*
X159059885Y-166728838D01*
X159078933Y-166709790D01*
X159097980Y-166671695D01*
X159097980Y-166595504D01*
X159117028Y-166557409D01*
X159136076Y-166538361D01*
X159174171Y-166519314D01*
X159250361Y-166519314D01*
X159288457Y-166538361D01*
X159307504Y-166557409D01*
X159326552Y-166595504D01*
X159326552Y-166671695D01*
X159307504Y-166709790D01*
X159288457Y-166728838D01*
X159250361Y-166747885D01*
X159174171Y-166747885D01*
X159136076Y-166728838D01*
X159117028Y-166709790D01*
X159097980Y-166671695D01*
D15*
X159241226Y-181791867D02*
X159241226Y-182604227D01*
X159193440Y-182699799D01*
X159145654Y-182747585D01*
X159050083Y-182795371D01*
X158858939Y-182795371D01*
X158763367Y-182747585D01*
X158715581Y-182699799D01*
X158667795Y-182604227D01*
X158667795Y-181791867D01*
X158237722Y-182747585D02*
X158094364Y-182795371D01*
X157855435Y-182795371D01*
X157759863Y-182747585D01*
X157712077Y-182699799D01*
X157664291Y-182604227D01*
X157664291Y-182508655D01*
X157712077Y-182413083D01*
X157759863Y-182365297D01*
X157855435Y-182317512D01*
X158046579Y-182269726D01*
X158142150Y-182221940D01*
X158189936Y-182174154D01*
X158237722Y-182078582D01*
X158237722Y-181983010D01*
X158189936Y-181887438D01*
X158142150Y-181839653D01*
X158046579Y-181791867D01*
X157807649Y-181791867D01*
X157664291Y-181839653D01*
X156899717Y-182269726D02*
X156756359Y-182317512D01*
X156708573Y-182365297D01*
X156660787Y-182460869D01*
X156660787Y-182604227D01*
X156708573Y-182699799D01*
X156756359Y-182747585D01*
X156851931Y-182795371D01*
X157234218Y-182795371D01*
X157234218Y-181791867D01*
X156899717Y-181791867D01*
X156804145Y-181839653D01*
X156756359Y-181887438D01*
X156708573Y-181983010D01*
X156708573Y-182078582D01*
X156756359Y-182174154D01*
X156804145Y-182221940D01*
X156899717Y-182269726D01*
X157234218Y-182269726D01*
X156469644Y-182890942D02*
X155705069Y-182890942D01*
X154892709Y-182699799D02*
X154940495Y-182747585D01*
X155083852Y-182795371D01*
X155179424Y-182795371D01*
X155322782Y-182747585D01*
X155418354Y-182652013D01*
X155466140Y-182556441D01*
X155513926Y-182365297D01*
X155513926Y-182221940D01*
X155466140Y-182030796D01*
X155418354Y-181935224D01*
X155322782Y-181839653D01*
X155179424Y-181791867D01*
X155083852Y-181791867D01*
X154940495Y-181839653D01*
X154892709Y-181887438D01*
X154701565Y-182890942D02*
X153936991Y-182890942D01*
X153124630Y-182795371D02*
X153459132Y-182317512D01*
X153698061Y-182795371D02*
X153698061Y-181791867D01*
X153315774Y-181791867D01*
X153220202Y-181839653D01*
X153172416Y-181887438D01*
X153124630Y-181983010D01*
X153124630Y-182126368D01*
X153172416Y-182221940D01*
X153220202Y-182269726D01*
X153315774Y-182317512D01*
X153698061Y-182317512D01*
X152312270Y-182747585D02*
X152407842Y-182795371D01*
X152598985Y-182795371D01*
X152694557Y-182747585D01*
X152742343Y-182652013D01*
X152742343Y-182269726D01*
X152694557Y-182174154D01*
X152598985Y-182126368D01*
X152407842Y-182126368D01*
X152312270Y-182174154D01*
X152264484Y-182269726D01*
X152264484Y-182365297D01*
X152742343Y-182460869D01*
X151404338Y-182747585D02*
X151499910Y-182795371D01*
X151691053Y-182795371D01*
X151786625Y-182747585D01*
X151834411Y-182699799D01*
X151882197Y-182604227D01*
X151882197Y-182317512D01*
X151834411Y-182221940D01*
X151786625Y-182174154D01*
X151691053Y-182126368D01*
X151499910Y-182126368D01*
X151404338Y-182174154D01*
X150591977Y-182747585D02*
X150687549Y-182795371D01*
X150878693Y-182795371D01*
X150974265Y-182747585D01*
X151022051Y-182652013D01*
X151022051Y-182269726D01*
X150974265Y-182174154D01*
X150878693Y-182126368D01*
X150687549Y-182126368D01*
X150591977Y-182174154D01*
X150544191Y-182269726D01*
X150544191Y-182365297D01*
X151022051Y-182460869D01*
X150114118Y-182126368D02*
X150114118Y-183129872D01*
X150114118Y-182174154D02*
X150018547Y-182126368D01*
X149827403Y-182126368D01*
X149731831Y-182174154D01*
X149684045Y-182221940D01*
X149636259Y-182317512D01*
X149636259Y-182604227D01*
X149684045Y-182699799D01*
X149731831Y-182747585D01*
X149827403Y-182795371D01*
X150018547Y-182795371D01*
X150114118Y-182747585D01*
X149349544Y-182126368D02*
X148967257Y-182126368D01*
X149206186Y-181791867D02*
X149206186Y-182652013D01*
X149158400Y-182747585D01*
X149062828Y-182795371D01*
X148967257Y-182795371D01*
X148202682Y-182795371D02*
X148202682Y-182269726D01*
X148250468Y-182174154D01*
X148346040Y-182126368D01*
X148537183Y-182126368D01*
X148632755Y-182174154D01*
X148202682Y-182747585D02*
X148298254Y-182795371D01*
X148537183Y-182795371D01*
X148632755Y-182747585D01*
X148680541Y-182652013D01*
X148680541Y-182556441D01*
X148632755Y-182460869D01*
X148537183Y-182413083D01*
X148298254Y-182413083D01*
X148202682Y-182365297D01*
X147294750Y-182747585D02*
X147390322Y-182795371D01*
X147581465Y-182795371D01*
X147677037Y-182747585D01*
X147724823Y-182699799D01*
X147772609Y-182604227D01*
X147772609Y-182317512D01*
X147724823Y-182221940D01*
X147677037Y-182174154D01*
X147581465Y-182126368D01*
X147390322Y-182126368D01*
X147294750Y-182174154D01*
X146721319Y-182795371D02*
X146816891Y-182747585D01*
X146864677Y-182652013D01*
X146864677Y-181791867D01*
X145956745Y-182747585D02*
X146052316Y-182795371D01*
X146243460Y-182795371D01*
X146339032Y-182747585D01*
X146386818Y-182652013D01*
X146386818Y-182269726D01*
X146339032Y-182174154D01*
X146243460Y-182126368D01*
X146052316Y-182126368D01*
X145956745Y-182174154D01*
X145908959Y-182269726D01*
X145908959Y-182365297D01*
X146386818Y-182460869D01*
X145717815Y-182890942D02*
X144953241Y-182890942D01*
X144714311Y-181791867D02*
X144714311Y-182604227D01*
X144666525Y-182699799D01*
X144618739Y-182747585D01*
X144523167Y-182795371D01*
X144332024Y-182795371D01*
X144236452Y-182747585D01*
X144188666Y-182699799D01*
X144140880Y-182604227D01*
X144140880Y-181791867D01*
X143710807Y-182747585D02*
X143567449Y-182795371D01*
X143328520Y-182795371D01*
X143232948Y-182747585D01*
X143185162Y-182699799D01*
X143137376Y-182604227D01*
X143137376Y-182508655D01*
X143185162Y-182413083D01*
X143232948Y-182365297D01*
X143328520Y-182317512D01*
X143519663Y-182269726D01*
X143615235Y-182221940D01*
X143663021Y-182174154D01*
X143710807Y-182078582D01*
X143710807Y-181983010D01*
X143663021Y-181887438D01*
X143615235Y-181839653D01*
X143519663Y-181791867D01*
X143280734Y-181791867D01*
X143137376Y-181839653D01*
X142372802Y-182269726D02*
X142229444Y-182317512D01*
X142181658Y-182365297D01*
X142133872Y-182460869D01*
X142133872Y-182604227D01*
X142181658Y-182699799D01*
X142229444Y-182747585D01*
X142325016Y-182795371D01*
X142707303Y-182795371D01*
X142707303Y-181791867D01*
X142372802Y-181791867D01*
X142277230Y-181839653D01*
X142229444Y-181887438D01*
X142181658Y-181983010D01*
X142181658Y-182078582D01*
X142229444Y-182174154D01*
X142277230Y-182221940D01*
X142372802Y-182269726D01*
X142707303Y-182269726D01*
X141751585Y-181887438D02*
X141703799Y-181839653D01*
X141608227Y-181791867D01*
X141369298Y-181791867D01*
X141273726Y-181839653D01*
X141225940Y-181887438D01*
X141178154Y-181983010D01*
X141178154Y-182078582D01*
X141225940Y-182221940D01*
X141799371Y-182795371D01*
X141178154Y-182795371D01*
X140748081Y-182699799D02*
X140700295Y-182747585D01*
X140748081Y-182795371D01*
X140795867Y-182747585D01*
X140748081Y-182699799D01*
X140748081Y-182795371D01*
X140079078Y-181791867D02*
X139983507Y-181791867D01*
X139887935Y-181839653D01*
X139840149Y-181887438D01*
X139792363Y-181983010D01*
X139744577Y-182174154D01*
X139744577Y-182413083D01*
X139792363Y-182604227D01*
X139840149Y-182699799D01*
X139887935Y-182747585D01*
X139983507Y-182795371D01*
X140079078Y-182795371D01*
X140174650Y-182747585D01*
X140222436Y-182699799D01*
X140270222Y-182604227D01*
X140318008Y-182413083D01*
X140318008Y-182174154D01*
X140270222Y-181983010D01*
X140222436Y-181887438D01*
X140174650Y-181839653D01*
X140079078Y-181791867D01*
D12*
X166177980Y-173408361D02*
X166177980Y-172836933D01*
X166177980Y-173122647D02*
X165177980Y-173122647D01*
X165320838Y-173027409D01*
X165416076Y-172932171D01*
X165463695Y-172836933D01*
X165177980Y-174027409D02*
X165177980Y-174122647D01*
X165225600Y-174217885D01*
X165273219Y-174265504D01*
X165368457Y-174313123D01*
X165558933Y-174360742D01*
X165797028Y-174360742D01*
X165987504Y-174313123D01*
X166082742Y-174265504D01*
X166130361Y-174217885D01*
X166177980Y-174122647D01*
X166177980Y-174027409D01*
X166130361Y-173932171D01*
X166082742Y-173884552D01*
X165987504Y-173836933D01*
X165797028Y-173789314D01*
X165558933Y-173789314D01*
X165368457Y-173836933D01*
X165273219Y-173884552D01*
X165225600Y-173932171D01*
X165177980Y-174027409D01*
X166177980Y-174789314D02*
X165177980Y-174789314D01*
X165797028Y-174884552D02*
X166177980Y-175170266D01*
X165511314Y-175170266D02*
X165892266Y-174789314D01*
D13*
X164476552Y-173746457D02*
X164286076Y-173613123D01*
X164476552Y-173517885D02*
X164076552Y-173517885D01*
X164076552Y-173670266D01*
X164095600Y-173708361D01*
X164114647Y-173727409D01*
X164152742Y-173746457D01*
X164209885Y-173746457D01*
X164247980Y-173727409D01*
X164267028Y-173708361D01*
X164286076Y-173670266D01*
X164286076Y-173517885D01*
X164476552Y-174127409D02*
X164476552Y-173898838D01*
X164476552Y-174013123D02*
X164076552Y-174013123D01*
X164133695Y-173975028D01*
X164171790Y-173936933D01*
X164190838Y-173898838D01*
X164114647Y-174279790D02*
X164095600Y-174298838D01*
X164076552Y-174336933D01*
X164076552Y-174432171D01*
X164095600Y-174470266D01*
X164114647Y-174489314D01*
X164152742Y-174508361D01*
X164190838Y-174508361D01*
X164247980Y-174489314D01*
X164476552Y-174260742D01*
X164476552Y-174508361D01*
D12*
X169998457Y-166515980D02*
X169903219Y-166515980D01*
X169807980Y-166563600D01*
X169760361Y-166611219D01*
X169712742Y-166706457D01*
X169665123Y-166896933D01*
X169665123Y-167135028D01*
X169712742Y-167325504D01*
X169760361Y-167420742D01*
X169807980Y-167468361D01*
X169903219Y-167515980D01*
X169998457Y-167515980D01*
X170093695Y-167468361D01*
X170141314Y-167420742D01*
X170188933Y-167325504D01*
X170236552Y-167135028D01*
X170236552Y-166896933D01*
X170188933Y-166706457D01*
X170141314Y-166611219D01*
X170093695Y-166563600D01*
X169998457Y-166515980D01*
X169236552Y-167420742D02*
X169188933Y-167468361D01*
X169236552Y-167515980D01*
X169284171Y-167468361D01*
X169236552Y-167420742D01*
X169236552Y-167515980D01*
X168236552Y-167515980D02*
X168807980Y-167515980D01*
X168522266Y-167515980D02*
X168522266Y-166515980D01*
X168617504Y-166658838D01*
X168712742Y-166754076D01*
X168807980Y-166801695D01*
X167379409Y-166849314D02*
X167379409Y-167515980D01*
X167807980Y-166849314D02*
X167807980Y-167373123D01*
X167760361Y-167468361D01*
X167665123Y-167515980D01*
X167522266Y-167515980D01*
X167427028Y-167468361D01*
X167379409Y-167420742D01*
X166569885Y-166992171D02*
X166903219Y-166992171D01*
X166903219Y-167515980D02*
X166903219Y-166515980D01*
X166427028Y-166515980D01*
D13*
X168752742Y-165566457D02*
X168771790Y-165585504D01*
X168828933Y-165604552D01*
X168867028Y-165604552D01*
X168924171Y-165585504D01*
X168962266Y-165547409D01*
X168981314Y-165509314D01*
X169000361Y-165433123D01*
X169000361Y-165375980D01*
X168981314Y-165299790D01*
X168962266Y-165261695D01*
X168924171Y-165223600D01*
X168867028Y-165204552D01*
X168828933Y-165204552D01*
X168771790Y-165223600D01*
X168752742Y-165242647D01*
X168600361Y-165242647D02*
X168581314Y-165223600D01*
X168543219Y-165204552D01*
X168447980Y-165204552D01*
X168409885Y-165223600D01*
X168390838Y-165242647D01*
X168371790Y-165280742D01*
X168371790Y-165318838D01*
X168390838Y-165375980D01*
X168619409Y-165604552D01*
X168371790Y-165604552D01*
X168009885Y-165204552D02*
X168200361Y-165204552D01*
X168219409Y-165395028D01*
X168200361Y-165375980D01*
X168162266Y-165356933D01*
X168067028Y-165356933D01*
X168028933Y-165375980D01*
X168009885Y-165395028D01*
X167990838Y-165433123D01*
X167990838Y-165528361D01*
X168009885Y-165566457D01*
X168028933Y-165585504D01*
X168067028Y-165604552D01*
X168162266Y-165604552D01*
X168200361Y-165585504D01*
X168219409Y-165566457D01*
D12*
X128896076Y-130975980D02*
X129229409Y-130499790D01*
X129467504Y-130975980D02*
X129467504Y-129975980D01*
X129086552Y-129975980D01*
X128991314Y-130023600D01*
X128943695Y-130071219D01*
X128896076Y-130166457D01*
X128896076Y-130309314D01*
X128943695Y-130404552D01*
X128991314Y-130452171D01*
X129086552Y-130499790D01*
X129467504Y-130499790D01*
D13*
X129272266Y-129274552D02*
X129405600Y-129084076D01*
X129500838Y-129274552D02*
X129500838Y-128874552D01*
X129348457Y-128874552D01*
X129310361Y-128893600D01*
X129291314Y-128912647D01*
X129272266Y-128950742D01*
X129272266Y-129007885D01*
X129291314Y-129045980D01*
X129310361Y-129065028D01*
X129348457Y-129084076D01*
X129500838Y-129084076D01*
X128891314Y-129274552D02*
X129119885Y-129274552D01*
X129005600Y-129274552D02*
X129005600Y-128874552D01*
X129043695Y-128931695D01*
X129081790Y-128969790D01*
X129119885Y-128988838D01*
D12*
X128976076Y-123755980D02*
X129309409Y-123279790D01*
X129547504Y-123755980D02*
X129547504Y-122755980D01*
X129166552Y-122755980D01*
X129071314Y-122803600D01*
X129023695Y-122851219D01*
X128976076Y-122946457D01*
X128976076Y-123089314D01*
X129023695Y-123184552D01*
X129071314Y-123232171D01*
X129166552Y-123279790D01*
X129547504Y-123279790D01*
D13*
X129352266Y-122054552D02*
X129485600Y-121864076D01*
X129580838Y-122054552D02*
X129580838Y-121654552D01*
X129428457Y-121654552D01*
X129390361Y-121673600D01*
X129371314Y-121692647D01*
X129352266Y-121730742D01*
X129352266Y-121787885D01*
X129371314Y-121825980D01*
X129390361Y-121845028D01*
X129428457Y-121864076D01*
X129580838Y-121864076D01*
X129199885Y-121692647D02*
X129180838Y-121673600D01*
X129142742Y-121654552D01*
X129047504Y-121654552D01*
X129009409Y-121673600D01*
X128990361Y-121692647D01*
X128971314Y-121730742D01*
X128971314Y-121768838D01*
X128990361Y-121825980D01*
X129218933Y-122054552D01*
X128971314Y-122054552D01*
D12*
X182947980Y-67405980D02*
X182947980Y-66834552D01*
X182947980Y-67120266D02*
X181947980Y-67120266D01*
X182090838Y-67025028D01*
X182186076Y-66929790D01*
X182233695Y-66834552D01*
X181947980Y-68025028D02*
X181947980Y-68120266D01*
X181995600Y-68215504D01*
X182043219Y-68263123D01*
X182138457Y-68310742D01*
X182328933Y-68358361D01*
X182567028Y-68358361D01*
X182757504Y-68310742D01*
X182852742Y-68263123D01*
X182900361Y-68215504D01*
X182947980Y-68120266D01*
X182947980Y-68025028D01*
X182900361Y-67929790D01*
X182852742Y-67882171D01*
X182757504Y-67834552D01*
X182567028Y-67786933D01*
X182328933Y-67786933D01*
X182138457Y-67834552D01*
X182043219Y-67882171D01*
X181995600Y-67929790D01*
X181947980Y-68025028D01*
X181947980Y-68977409D02*
X181947980Y-69072647D01*
X181995600Y-69167885D01*
X182043219Y-69215504D01*
X182138457Y-69263123D01*
X182328933Y-69310742D01*
X182567028Y-69310742D01*
X182757504Y-69263123D01*
X182852742Y-69215504D01*
X182900361Y-69167885D01*
X182947980Y-69072647D01*
X182947980Y-68977409D01*
X182900361Y-68882171D01*
X182852742Y-68834552D01*
X182757504Y-68786933D01*
X182567028Y-68739314D01*
X182328933Y-68739314D01*
X182138457Y-68786933D01*
X182043219Y-68834552D01*
X181995600Y-68882171D01*
X181947980Y-68977409D01*
X182281314Y-69739314D02*
X182947980Y-69739314D01*
X182376552Y-69739314D02*
X182328933Y-69786933D01*
X182281314Y-69882171D01*
X182281314Y-70025028D01*
X182328933Y-70120266D01*
X182424171Y-70167885D01*
X182947980Y-70167885D01*
X182424171Y-70977409D02*
X182424171Y-70644076D01*
X182947980Y-70644076D02*
X181947980Y-70644076D01*
X181947980Y-71120266D01*
D13*
X184068457Y-68886933D02*
X184087504Y-68867885D01*
X184106552Y-68810742D01*
X184106552Y-68772647D01*
X184087504Y-68715504D01*
X184049409Y-68677409D01*
X184011314Y-68658361D01*
X183935123Y-68639314D01*
X183877980Y-68639314D01*
X183801790Y-68658361D01*
X183763695Y-68677409D01*
X183725600Y-68715504D01*
X183706552Y-68772647D01*
X183706552Y-68810742D01*
X183725600Y-68867885D01*
X183744647Y-68886933D01*
X184106552Y-69267885D02*
X184106552Y-69039314D01*
X184106552Y-69153600D02*
X183706552Y-69153600D01*
X183763695Y-69115504D01*
X183801790Y-69077409D01*
X183820838Y-69039314D01*
D12*
X193714647Y-72012171D02*
X194047980Y-72012171D01*
X194047980Y-72535980D02*
X194047980Y-71535980D01*
X193571790Y-71535980D01*
X193333695Y-71535980D02*
X192762266Y-71535980D01*
X193047980Y-72535980D02*
X193047980Y-71535980D01*
X192476552Y-71631219D02*
X192428933Y-71583600D01*
X192333695Y-71535980D01*
X192095600Y-71535980D01*
X192000361Y-71583600D01*
X191952742Y-71631219D01*
X191905123Y-71726457D01*
X191905123Y-71821695D01*
X191952742Y-71964552D01*
X192524171Y-72535980D01*
X191905123Y-72535980D01*
X191571790Y-71535980D02*
X190952742Y-71535980D01*
X191286076Y-71916933D01*
X191143219Y-71916933D01*
X191047980Y-71964552D01*
X191000361Y-72012171D01*
X190952742Y-72107409D01*
X190952742Y-72345504D01*
X191000361Y-72440742D01*
X191047980Y-72488361D01*
X191143219Y-72535980D01*
X191428933Y-72535980D01*
X191524171Y-72488361D01*
X191571790Y-72440742D01*
X190333695Y-71535980D02*
X190238457Y-71535980D01*
X190143219Y-71583600D01*
X190095600Y-71631219D01*
X190047980Y-71726457D01*
X190000361Y-71916933D01*
X190000361Y-72155028D01*
X190047980Y-72345504D01*
X190095600Y-72440742D01*
X190143219Y-72488361D01*
X190238457Y-72535980D01*
X190333695Y-72535980D01*
X190428933Y-72488361D01*
X190476552Y-72440742D01*
X190524171Y-72345504D01*
X190571790Y-72155028D01*
X190571790Y-71916933D01*
X190524171Y-71726457D01*
X190476552Y-71631219D01*
X190428933Y-71583600D01*
X190333695Y-71535980D01*
X189667028Y-71535980D02*
X189000361Y-72535980D01*
X189000361Y-71535980D02*
X189667028Y-72535980D01*
X188667028Y-72488361D02*
X188524171Y-72535980D01*
X188286076Y-72535980D01*
X188190838Y-72488361D01*
X188143219Y-72440742D01*
X188095600Y-72345504D01*
X188095600Y-72250266D01*
X188143219Y-72155028D01*
X188190838Y-72107409D01*
X188286076Y-72059790D01*
X188476552Y-72012171D01*
X188571790Y-71964552D01*
X188619409Y-71916933D01*
X188667028Y-71821695D01*
X188667028Y-71726457D01*
X188619409Y-71631219D01*
X188571790Y-71583600D01*
X188476552Y-71535980D01*
X188238457Y-71535980D01*
X188095600Y-71583600D01*
X191705123Y-68145504D02*
X191705123Y-68793123D01*
X191667028Y-68869314D01*
X191628933Y-68907409D01*
X191552742Y-68945504D01*
X191400361Y-68945504D01*
X191324171Y-68907409D01*
X191286076Y-68869314D01*
X191247980Y-68793123D01*
X191247980Y-68145504D01*
X190447980Y-68945504D02*
X190905123Y-68945504D01*
X190676552Y-68945504D02*
X190676552Y-68145504D01*
X190752742Y-68259790D01*
X190828933Y-68335980D01*
X190905123Y-68374076D01*
M02*
