G04 #@! TF.GenerationSoftware,KiCad,Pcbnew,(5.1.9)-1*
G04 #@! TF.CreationDate,2021-01-16T22:32:26-07:00*
G04 #@! TF.ProjectId,purplewizard-pogo,70757270-6c65-4776-997a-6172642d706f,1*
G04 #@! TF.SameCoordinates,Original*
G04 #@! TF.FileFunction,Other,Fab,Top*
%FSLAX46Y46*%
G04 Gerber Fmt 4.6, Leading zero omitted, Abs format (unit mm)*
G04 Created by KiCad (PCBNEW (5.1.9)-1) date 2021-01-16 22:32:26*
%MOMM*%
%LPD*%
G01*
G04 APERTURE LIST*
%ADD10C,0.120000*%
%ADD11C,0.100000*%
%ADD12C,0.150000*%
%ADD13C,0.060000*%
G04 APERTURE END LIST*
D10*
X144705600Y-135743600D02*
X204705600Y-135743600D01*
X144705600Y-179743600D02*
X204705600Y-179743600D01*
X204705600Y-179743600D02*
X204705600Y-135743600D01*
X144705600Y-135743600D02*
X144705600Y-179743600D01*
D11*
X210815600Y-170233600D02*
X210815600Y-161233600D01*
X210815600Y-161233600D02*
X214415600Y-161233600D01*
X214415600Y-161233600D02*
X214415600Y-170133600D01*
X214415600Y-170133600D02*
X214415600Y-170233600D01*
X214415600Y-170233600D02*
X214415600Y-170233600D01*
X210815600Y-170233600D02*
X214415600Y-170233600D01*
X214415600Y-170233600D02*
X214415600Y-170233600D01*
X214415600Y-167233600D02*
X214415600Y-167233600D01*
X214415600Y-165433600D02*
X214715600Y-165433600D01*
X214715600Y-165433600D02*
X214715600Y-166033600D01*
X214715600Y-166033600D02*
X214415600Y-166033600D01*
X214415600Y-166033600D02*
X214415600Y-166033600D01*
X214415600Y-167933600D02*
X214715600Y-167933600D01*
X214715600Y-167933600D02*
X214715600Y-168533600D01*
X214715600Y-168533600D02*
X214415600Y-168533600D01*
X214415600Y-168533600D02*
X214415600Y-168533600D01*
X214415600Y-163533600D02*
X214715600Y-163533600D01*
X214715600Y-163533600D02*
X214715600Y-162933600D01*
X214715600Y-162933600D02*
X214415600Y-162933600D01*
X214415600Y-162933600D02*
X214415600Y-162933600D01*
X214415600Y-166233600D02*
X216415600Y-166233600D01*
X216415600Y-166233600D02*
X216415600Y-167733600D01*
X216415600Y-167733600D02*
X214415600Y-167733600D01*
X214415600Y-167733600D02*
X214415600Y-167733600D01*
X136958100Y-169083600D02*
X137810600Y-169936100D01*
X131460600Y-169083600D02*
X136958100Y-169083600D01*
X131460600Y-172493600D02*
X131460600Y-169083600D01*
X137810600Y-172493600D02*
X131460600Y-172493600D01*
X137810600Y-169936100D02*
X137810600Y-172493600D01*
X131570601Y-138803599D02*
X131570601Y-136898599D01*
X131570601Y-136898599D02*
X141730601Y-136898599D01*
X141730601Y-136898599D02*
X141730601Y-139438599D01*
X141730601Y-139438599D02*
X132205601Y-139438599D01*
X132205601Y-139438599D02*
X131570601Y-138803599D01*
X132205601Y-132308599D02*
X131570601Y-131673599D01*
X141730601Y-132308599D02*
X132205601Y-132308599D01*
X141730601Y-129768599D02*
X141730601Y-132308599D01*
X131570601Y-129768599D02*
X141730601Y-129768599D01*
X131570601Y-131673599D02*
X131570601Y-129768599D01*
X132205601Y-125178599D02*
X131570601Y-124543599D01*
X141730601Y-125178599D02*
X132205601Y-125178599D01*
X141730601Y-122638599D02*
X141730601Y-125178599D01*
X131570601Y-122638599D02*
X141730601Y-122638599D01*
X131570601Y-124543599D02*
X131570601Y-122638599D01*
X137245600Y-145963600D02*
X138515600Y-147233600D01*
X130895600Y-145963600D02*
X137245600Y-145963600D01*
X130895600Y-151043600D02*
X130895600Y-145963600D01*
X138515600Y-151043600D02*
X130895600Y-151043600D01*
X138515600Y-147233600D02*
X138515600Y-151043600D01*
X207905600Y-122798600D02*
X208540600Y-122163600D01*
X207905600Y-132323600D02*
X207905600Y-122798600D01*
X210445600Y-132323600D02*
X207905600Y-132323600D01*
X210445600Y-122163600D02*
X210445600Y-132323600D01*
X208540600Y-122163600D02*
X210445600Y-122163600D01*
X210445600Y-122798600D02*
X211080600Y-122163600D01*
X210445600Y-132323600D02*
X210445600Y-122798600D01*
X212985600Y-132323600D02*
X210445600Y-132323600D01*
X212985600Y-122163600D02*
X212985600Y-132323600D01*
X211080600Y-122163600D02*
X212985600Y-122163600D01*
X206000600Y-122163600D02*
X207905600Y-122163600D01*
X207905600Y-122163600D02*
X207905600Y-132323600D01*
X207905600Y-132323600D02*
X205365600Y-132323600D01*
X205365600Y-132323600D02*
X205365600Y-122798600D01*
X205365600Y-122798600D02*
X206000600Y-122163600D01*
X201985600Y-112423600D02*
X203255600Y-113693600D01*
X152455600Y-112423600D02*
X201985600Y-112423600D01*
X152455600Y-117503600D02*
X152455600Y-112423600D01*
X203255600Y-117503600D02*
X152455600Y-117503600D01*
X203255600Y-113693600D02*
X203255600Y-117503600D01*
X128415600Y-130633600D02*
X127115600Y-130633600D01*
X127115600Y-130633600D02*
X126815600Y-130933600D01*
X126815600Y-130933600D02*
X126815600Y-131433600D01*
X126815600Y-131433600D02*
X128415600Y-131433600D01*
X128415600Y-131433600D02*
X128415600Y-130633600D01*
X128415600Y-124273600D02*
X128415600Y-123473600D01*
X126815600Y-124273600D02*
X128415600Y-124273600D01*
X126815600Y-123773600D02*
X126815600Y-124273600D01*
X127115600Y-123473600D02*
X126815600Y-123773600D01*
X128415600Y-123473600D02*
X127115600Y-123473600D01*
X149465600Y-124778600D02*
X150100600Y-124143600D01*
X149465600Y-131763600D02*
X149465600Y-124778600D01*
X152005600Y-131763600D02*
X149465600Y-131763600D01*
X152005600Y-124143600D02*
X152005600Y-131763600D01*
X150100600Y-124143600D02*
X152005600Y-124143600D01*
X155080600Y-124143600D02*
X156985600Y-124143600D01*
X156985600Y-124143600D02*
X156985600Y-131763600D01*
X156985600Y-131763600D02*
X154445600Y-131763600D01*
X154445600Y-131763600D02*
X154445600Y-124778600D01*
X154445600Y-124778600D02*
X155080600Y-124143600D01*
D12*
X214289246Y-55895380D02*
X214289246Y-56609666D01*
X214241627Y-56752523D01*
X214146389Y-56847761D01*
X214003532Y-56895380D01*
X213908294Y-56895380D01*
X215289246Y-56895380D02*
X214717818Y-56895380D01*
X215003532Y-56895380D02*
X215003532Y-55895380D01*
X214908294Y-56038238D01*
X214813056Y-56133476D01*
X214717818Y-56181095D01*
X214289246Y-59228713D02*
X214289246Y-59942999D01*
X214241627Y-60085856D01*
X214146389Y-60181094D01*
X214003532Y-60228713D01*
X213908294Y-60228713D01*
X214717818Y-59323952D02*
X214765437Y-59276333D01*
X214860675Y-59228713D01*
X215098770Y-59228713D01*
X215194008Y-59276333D01*
X215241627Y-59323952D01*
X215289246Y-59419190D01*
X215289246Y-59514428D01*
X215241627Y-59657285D01*
X214670199Y-60228713D01*
X215289246Y-60228713D01*
X214289246Y-65895380D02*
X214289246Y-66609666D01*
X214241627Y-66752523D01*
X214146389Y-66847761D01*
X214003532Y-66895380D01*
X213908294Y-66895380D01*
X214670199Y-65895380D02*
X215289246Y-65895380D01*
X214955913Y-66276333D01*
X215098770Y-66276333D01*
X215194008Y-66323952D01*
X215241627Y-66371571D01*
X215289246Y-66466809D01*
X215289246Y-66704904D01*
X215241627Y-66800142D01*
X215194008Y-66847761D01*
X215098770Y-66895380D01*
X214813056Y-66895380D01*
X214717818Y-66847761D01*
X214670199Y-66800142D01*
X214269246Y-62555380D02*
X214269246Y-63269666D01*
X214221627Y-63412523D01*
X214126389Y-63507761D01*
X213983532Y-63555380D01*
X213888294Y-63555380D01*
X215174008Y-62888714D02*
X215174008Y-63555380D01*
X214935913Y-62507761D02*
X214697818Y-63222047D01*
X215316865Y-63222047D01*
X165589246Y-48797380D02*
X165589246Y-49511666D01*
X165541627Y-49654523D01*
X165446389Y-49749761D01*
X165303532Y-49797380D01*
X165208294Y-49797380D01*
X166541627Y-48797380D02*
X166065437Y-48797380D01*
X166017818Y-49273571D01*
X166065437Y-49225952D01*
X166160675Y-49178333D01*
X166398770Y-49178333D01*
X166494008Y-49225952D01*
X166541627Y-49273571D01*
X166589246Y-49368809D01*
X166589246Y-49606904D01*
X166541627Y-49702142D01*
X166494008Y-49749761D01*
X166398770Y-49797380D01*
X166160675Y-49797380D01*
X166065437Y-49749761D01*
X166017818Y-49702142D01*
X165589246Y-41183380D02*
X165589246Y-41897666D01*
X165541627Y-42040523D01*
X165446389Y-42135761D01*
X165303532Y-42183380D01*
X165208294Y-42183380D01*
X166494008Y-41183380D02*
X166303532Y-41183380D01*
X166208294Y-41231000D01*
X166160675Y-41278619D01*
X166065437Y-41421476D01*
X166017818Y-41611952D01*
X166017818Y-41992904D01*
X166065437Y-42088142D01*
X166113056Y-42135761D01*
X166208294Y-42183380D01*
X166398770Y-42183380D01*
X166494008Y-42135761D01*
X166541627Y-42088142D01*
X166589246Y-41992904D01*
X166589246Y-41754809D01*
X166541627Y-41659571D01*
X166494008Y-41611952D01*
X166398770Y-41564333D01*
X166208294Y-41564333D01*
X166113056Y-41611952D01*
X166065437Y-41659571D01*
X166017818Y-41754809D01*
X165589246Y-46259380D02*
X165589246Y-46973666D01*
X165541627Y-47116523D01*
X165446389Y-47211761D01*
X165303532Y-47259380D01*
X165208294Y-47259380D01*
X166208294Y-46687952D02*
X166113056Y-46640333D01*
X166065437Y-46592714D01*
X166017818Y-46497476D01*
X166017818Y-46449857D01*
X166065437Y-46354619D01*
X166113056Y-46307000D01*
X166208294Y-46259380D01*
X166398770Y-46259380D01*
X166494008Y-46307000D01*
X166541627Y-46354619D01*
X166589246Y-46449857D01*
X166589246Y-46497476D01*
X166541627Y-46592714D01*
X166494008Y-46640333D01*
X166398770Y-46687952D01*
X166208294Y-46687952D01*
X166113056Y-46735571D01*
X166065437Y-46783190D01*
X166017818Y-46878428D01*
X166017818Y-47068904D01*
X166065437Y-47164142D01*
X166113056Y-47211761D01*
X166208294Y-47259380D01*
X166398770Y-47259380D01*
X166494008Y-47211761D01*
X166541627Y-47164142D01*
X166589246Y-47068904D01*
X166589246Y-46878428D01*
X166541627Y-46783190D01*
X166494008Y-46735571D01*
X166398770Y-46687952D01*
X128101056Y-49465380D02*
X128101056Y-50179666D01*
X128053437Y-50322523D01*
X127958199Y-50417761D01*
X127815341Y-50465380D01*
X127720103Y-50465380D01*
X129101056Y-50465380D02*
X128529627Y-50465380D01*
X128815341Y-50465380D02*
X128815341Y-49465380D01*
X128720103Y-49608238D01*
X128624865Y-49703476D01*
X128529627Y-49751095D01*
X129577246Y-50465380D02*
X129767722Y-50465380D01*
X129862960Y-50417761D01*
X129910580Y-50370142D01*
X130005818Y-50227285D01*
X130053437Y-50036809D01*
X130053437Y-49655857D01*
X130005818Y-49560619D01*
X129958199Y-49513000D01*
X129862960Y-49465380D01*
X129672484Y-49465380D01*
X129577246Y-49513000D01*
X129529627Y-49560619D01*
X129482008Y-49655857D01*
X129482008Y-49893952D01*
X129529627Y-49989190D01*
X129577246Y-50036809D01*
X129672484Y-50084428D01*
X129862960Y-50084428D01*
X129958199Y-50036809D01*
X130005818Y-49989190D01*
X130053437Y-49893952D01*
X165113056Y-38645380D02*
X165113056Y-39359666D01*
X165065437Y-39502523D01*
X164970199Y-39597761D01*
X164827341Y-39645380D01*
X164732103Y-39645380D01*
X165541627Y-38740619D02*
X165589246Y-38693000D01*
X165684484Y-38645380D01*
X165922580Y-38645380D01*
X166017818Y-38693000D01*
X166065437Y-38740619D01*
X166113056Y-38835857D01*
X166113056Y-38931095D01*
X166065437Y-39073952D01*
X165494008Y-39645380D01*
X166113056Y-39645380D01*
X166494008Y-38740619D02*
X166541627Y-38693000D01*
X166636865Y-38645380D01*
X166874960Y-38645380D01*
X166970199Y-38693000D01*
X167017818Y-38740619D01*
X167065437Y-38835857D01*
X167065437Y-38931095D01*
X167017818Y-39073952D01*
X166446389Y-39645380D01*
X167065437Y-39645380D01*
X165113056Y-43721380D02*
X165113056Y-44435666D01*
X165065437Y-44578523D01*
X164970199Y-44673761D01*
X164827341Y-44721380D01*
X164732103Y-44721380D01*
X165541627Y-43816619D02*
X165589246Y-43769000D01*
X165684484Y-43721380D01*
X165922580Y-43721380D01*
X166017818Y-43769000D01*
X166065437Y-43816619D01*
X166113056Y-43911857D01*
X166113056Y-44007095D01*
X166065437Y-44149952D01*
X165494008Y-44721380D01*
X166113056Y-44721380D01*
X166446389Y-43721380D02*
X167065437Y-43721380D01*
X166732103Y-44102333D01*
X166874960Y-44102333D01*
X166970199Y-44149952D01*
X167017818Y-44197571D01*
X167065437Y-44292809D01*
X167065437Y-44530904D01*
X167017818Y-44626142D01*
X166970199Y-44673761D01*
X166874960Y-44721380D01*
X166589246Y-44721380D01*
X166494008Y-44673761D01*
X166446389Y-44626142D01*
X165113056Y-51335380D02*
X165113056Y-52049666D01*
X165065437Y-52192523D01*
X164970199Y-52287761D01*
X164827341Y-52335380D01*
X164732103Y-52335380D01*
X165541627Y-51430619D02*
X165589246Y-51383000D01*
X165684484Y-51335380D01*
X165922580Y-51335380D01*
X166017818Y-51383000D01*
X166065437Y-51430619D01*
X166113056Y-51525857D01*
X166113056Y-51621095D01*
X166065437Y-51763952D01*
X165494008Y-52335380D01*
X166113056Y-52335380D01*
X166970199Y-51668714D02*
X166970199Y-52335380D01*
X166732103Y-51287761D02*
X166494008Y-52002047D01*
X167113056Y-52002047D01*
X128101056Y-56655380D02*
X128101056Y-57369666D01*
X128053437Y-57512523D01*
X127958199Y-57607761D01*
X127815341Y-57655380D01*
X127720103Y-57655380D01*
X128529627Y-56750619D02*
X128577246Y-56703000D01*
X128672484Y-56655380D01*
X128910580Y-56655380D01*
X129005818Y-56703000D01*
X129053437Y-56750619D01*
X129101056Y-56845857D01*
X129101056Y-56941095D01*
X129053437Y-57083952D01*
X128482008Y-57655380D01*
X129101056Y-57655380D01*
X129672484Y-57083952D02*
X129577246Y-57036333D01*
X129529627Y-56988714D01*
X129482008Y-56893476D01*
X129482008Y-56845857D01*
X129529627Y-56750619D01*
X129577246Y-56703000D01*
X129672484Y-56655380D01*
X129862960Y-56655380D01*
X129958199Y-56703000D01*
X130005818Y-56750619D01*
X130053437Y-56845857D01*
X130053437Y-56893476D01*
X130005818Y-56988714D01*
X129958199Y-57036333D01*
X129862960Y-57083952D01*
X129672484Y-57083952D01*
X129577246Y-57131571D01*
X129529627Y-57179190D01*
X129482008Y-57274428D01*
X129482008Y-57464904D01*
X129529627Y-57560142D01*
X129577246Y-57607761D01*
X129672484Y-57655380D01*
X129862960Y-57655380D01*
X129958199Y-57607761D01*
X130005818Y-57560142D01*
X130053437Y-57464904D01*
X130053437Y-57274428D01*
X130005818Y-57179190D01*
X129958199Y-57131571D01*
X129862960Y-57083952D01*
X128101056Y-53060380D02*
X128101056Y-53774666D01*
X128053437Y-53917523D01*
X127958199Y-54012761D01*
X127815341Y-54060380D01*
X127720103Y-54060380D01*
X128529627Y-53155619D02*
X128577246Y-53108000D01*
X128672484Y-53060380D01*
X128910580Y-53060380D01*
X129005818Y-53108000D01*
X129053437Y-53155619D01*
X129101056Y-53250857D01*
X129101056Y-53346095D01*
X129053437Y-53488952D01*
X128482008Y-54060380D01*
X129101056Y-54060380D01*
X129577246Y-54060380D02*
X129767722Y-54060380D01*
X129862960Y-54012761D01*
X129910580Y-53965142D01*
X130005818Y-53822285D01*
X130053437Y-53631809D01*
X130053437Y-53250857D01*
X130005818Y-53155619D01*
X129958199Y-53108000D01*
X129862960Y-53060380D01*
X129672484Y-53060380D01*
X129577246Y-53108000D01*
X129529627Y-53155619D01*
X129482008Y-53250857D01*
X129482008Y-53488952D01*
X129529627Y-53584190D01*
X129577246Y-53631809D01*
X129672484Y-53679428D01*
X129862960Y-53679428D01*
X129958199Y-53631809D01*
X130005818Y-53584190D01*
X130053437Y-53488952D01*
X199253056Y-50345380D02*
X199253056Y-51059666D01*
X199205437Y-51202523D01*
X199110199Y-51297761D01*
X198967341Y-51345380D01*
X198872103Y-51345380D01*
X199634008Y-50345380D02*
X200253056Y-50345380D01*
X199919722Y-50726333D01*
X200062580Y-50726333D01*
X200157818Y-50773952D01*
X200205437Y-50821571D01*
X200253056Y-50916809D01*
X200253056Y-51154904D01*
X200205437Y-51250142D01*
X200157818Y-51297761D01*
X200062580Y-51345380D01*
X199776865Y-51345380D01*
X199681627Y-51297761D01*
X199634008Y-51250142D01*
X200872103Y-50345380D02*
X200967341Y-50345380D01*
X201062580Y-50393000D01*
X201110199Y-50440619D01*
X201157818Y-50535857D01*
X201205437Y-50726333D01*
X201205437Y-50964428D01*
X201157818Y-51154904D01*
X201110199Y-51250142D01*
X201062580Y-51297761D01*
X200967341Y-51345380D01*
X200872103Y-51345380D01*
X200776865Y-51297761D01*
X200729246Y-51250142D01*
X200681627Y-51154904D01*
X200634008Y-50964428D01*
X200634008Y-50726333D01*
X200681627Y-50535857D01*
X200729246Y-50440619D01*
X200776865Y-50393000D01*
X200872103Y-50345380D01*
X199273056Y-46715380D02*
X199273056Y-47429666D01*
X199225437Y-47572523D01*
X199130199Y-47667761D01*
X198987341Y-47715380D01*
X198892103Y-47715380D01*
X199654008Y-46715380D02*
X200273056Y-46715380D01*
X199939722Y-47096333D01*
X200082580Y-47096333D01*
X200177818Y-47143952D01*
X200225437Y-47191571D01*
X200273056Y-47286809D01*
X200273056Y-47524904D01*
X200225437Y-47620142D01*
X200177818Y-47667761D01*
X200082580Y-47715380D01*
X199796865Y-47715380D01*
X199701627Y-47667761D01*
X199654008Y-47620142D01*
X201225437Y-47715380D02*
X200654008Y-47715380D01*
X200939722Y-47715380D02*
X200939722Y-46715380D01*
X200844484Y-46858238D01*
X200749246Y-46953476D01*
X200654008Y-47001095D01*
X199273056Y-43085380D02*
X199273056Y-43799666D01*
X199225437Y-43942523D01*
X199130199Y-44037761D01*
X198987341Y-44085380D01*
X198892103Y-44085380D01*
X199654008Y-43085380D02*
X200273056Y-43085380D01*
X199939722Y-43466333D01*
X200082580Y-43466333D01*
X200177818Y-43513952D01*
X200225437Y-43561571D01*
X200273056Y-43656809D01*
X200273056Y-43894904D01*
X200225437Y-43990142D01*
X200177818Y-44037761D01*
X200082580Y-44085380D01*
X199796865Y-44085380D01*
X199701627Y-44037761D01*
X199654008Y-43990142D01*
X200654008Y-43180619D02*
X200701627Y-43133000D01*
X200796865Y-43085380D01*
X201034960Y-43085380D01*
X201130199Y-43133000D01*
X201177818Y-43180619D01*
X201225437Y-43275857D01*
X201225437Y-43371095D01*
X201177818Y-43513952D01*
X200606389Y-44085380D01*
X201225437Y-44085380D01*
X194943056Y-96615380D02*
X194943056Y-97329666D01*
X194895437Y-97472523D01*
X194800199Y-97567761D01*
X194657341Y-97615380D01*
X194562103Y-97615380D01*
X195324008Y-96615380D02*
X195943056Y-96615380D01*
X195609722Y-96996333D01*
X195752580Y-96996333D01*
X195847818Y-97043952D01*
X195895437Y-97091571D01*
X195943056Y-97186809D01*
X195943056Y-97424904D01*
X195895437Y-97520142D01*
X195847818Y-97567761D01*
X195752580Y-97615380D01*
X195466865Y-97615380D01*
X195371627Y-97567761D01*
X195324008Y-97520142D01*
X196276389Y-96615380D02*
X196895437Y-96615380D01*
X196562103Y-96996333D01*
X196704960Y-96996333D01*
X196800199Y-97043952D01*
X196847818Y-97091571D01*
X196895437Y-97186809D01*
X196895437Y-97424904D01*
X196847818Y-97520142D01*
X196800199Y-97567761D01*
X196704960Y-97615380D01*
X196419246Y-97615380D01*
X196324008Y-97567761D01*
X196276389Y-97520142D01*
X194943056Y-92975380D02*
X194943056Y-93689666D01*
X194895437Y-93832523D01*
X194800199Y-93927761D01*
X194657341Y-93975380D01*
X194562103Y-93975380D01*
X195324008Y-92975380D02*
X195943056Y-92975380D01*
X195609722Y-93356333D01*
X195752580Y-93356333D01*
X195847818Y-93403952D01*
X195895437Y-93451571D01*
X195943056Y-93546809D01*
X195943056Y-93784904D01*
X195895437Y-93880142D01*
X195847818Y-93927761D01*
X195752580Y-93975380D01*
X195466865Y-93975380D01*
X195371627Y-93927761D01*
X195324008Y-93880142D01*
X196800199Y-93308714D02*
X196800199Y-93975380D01*
X196562103Y-92927761D02*
X196324008Y-93642047D01*
X196943056Y-93642047D01*
X194943056Y-89335380D02*
X194943056Y-90049666D01*
X194895437Y-90192523D01*
X194800199Y-90287761D01*
X194657341Y-90335380D01*
X194562103Y-90335380D01*
X195324008Y-89335380D02*
X195943056Y-89335380D01*
X195609722Y-89716333D01*
X195752580Y-89716333D01*
X195847818Y-89763952D01*
X195895437Y-89811571D01*
X195943056Y-89906809D01*
X195943056Y-90144904D01*
X195895437Y-90240142D01*
X195847818Y-90287761D01*
X195752580Y-90335380D01*
X195466865Y-90335380D01*
X195371627Y-90287761D01*
X195324008Y-90240142D01*
X196847818Y-89335380D02*
X196371627Y-89335380D01*
X196324008Y-89811571D01*
X196371627Y-89763952D01*
X196466865Y-89716333D01*
X196704960Y-89716333D01*
X196800199Y-89763952D01*
X196847818Y-89811571D01*
X196895437Y-89906809D01*
X196895437Y-90144904D01*
X196847818Y-90240142D01*
X196800199Y-90287761D01*
X196704960Y-90335380D01*
X196466865Y-90335380D01*
X196371627Y-90287761D01*
X196324008Y-90240142D01*
X210167980Y-167709790D02*
X209167980Y-167709790D01*
X209167980Y-167328838D01*
X209215600Y-167233600D01*
X209263219Y-167185980D01*
X209358457Y-167138361D01*
X209501314Y-167138361D01*
X209596552Y-167185980D01*
X209644171Y-167233600D01*
X209691790Y-167328838D01*
X209691790Y-167709790D01*
X210167980Y-166566933D02*
X210120361Y-166662171D01*
X210072742Y-166709790D01*
X209977504Y-166757409D01*
X209691790Y-166757409D01*
X209596552Y-166709790D01*
X209548933Y-166662171D01*
X209501314Y-166566933D01*
X209501314Y-166424076D01*
X209548933Y-166328838D01*
X209596552Y-166281219D01*
X209691790Y-166233600D01*
X209977504Y-166233600D01*
X210072742Y-166281219D01*
X210120361Y-166328838D01*
X210167980Y-166424076D01*
X210167980Y-166566933D01*
X209501314Y-165900266D02*
X210167980Y-165709790D01*
X209691790Y-165519314D01*
X210167980Y-165328838D01*
X209501314Y-165138361D01*
X210120361Y-164376457D02*
X210167980Y-164471695D01*
X210167980Y-164662171D01*
X210120361Y-164757409D01*
X210025123Y-164805028D01*
X209644171Y-164805028D01*
X209548933Y-164757409D01*
X209501314Y-164662171D01*
X209501314Y-164471695D01*
X209548933Y-164376457D01*
X209644171Y-164328838D01*
X209739409Y-164328838D01*
X209834647Y-164805028D01*
X210167980Y-163900266D02*
X209501314Y-163900266D01*
X209691790Y-163900266D02*
X209596552Y-163852647D01*
X209548933Y-163805028D01*
X209501314Y-163709790D01*
X209501314Y-163614552D01*
X213020361Y-167066933D02*
X213067980Y-166924076D01*
X213067980Y-166685980D01*
X213020361Y-166590742D01*
X212972742Y-166543123D01*
X212877504Y-166495504D01*
X212782266Y-166495504D01*
X212687028Y-166543123D01*
X212639409Y-166590742D01*
X212591790Y-166685980D01*
X212544171Y-166876457D01*
X212496552Y-166971695D01*
X212448933Y-167019314D01*
X212353695Y-167066933D01*
X212258457Y-167066933D01*
X212163219Y-167019314D01*
X212115600Y-166971695D01*
X212067980Y-166876457D01*
X212067980Y-166638361D01*
X212115600Y-166495504D01*
X212067980Y-166162171D02*
X213067980Y-165924076D01*
X212353695Y-165733600D01*
X213067980Y-165543123D01*
X212067980Y-165305028D01*
X213067980Y-164400266D02*
X213067980Y-164971695D01*
X213067980Y-164685980D02*
X212067980Y-164685980D01*
X212210838Y-164781219D01*
X212306076Y-164876457D01*
X212353695Y-164971695D01*
X130805361Y-172145742D02*
X130852980Y-172002885D01*
X130852980Y-171764790D01*
X130805361Y-171669552D01*
X130757742Y-171621933D01*
X130662504Y-171574314D01*
X130567266Y-171574314D01*
X130472028Y-171621933D01*
X130424409Y-171669552D01*
X130376790Y-171764790D01*
X130329171Y-171955266D01*
X130281552Y-172050504D01*
X130233933Y-172098123D01*
X130138695Y-172145742D01*
X130043457Y-172145742D01*
X129948219Y-172098123D01*
X129900600Y-172050504D01*
X129852980Y-171955266D01*
X129852980Y-171717171D01*
X129900600Y-171574314D01*
X129852980Y-171240980D02*
X130852980Y-171002885D01*
X130138695Y-170812409D01*
X130852980Y-170621933D01*
X129852980Y-170383838D01*
X130852980Y-170002885D02*
X129852980Y-170002885D01*
X129852980Y-169764790D01*
X129900600Y-169621933D01*
X129995838Y-169526695D01*
X130091076Y-169479076D01*
X130281552Y-169431457D01*
X130424409Y-169431457D01*
X130614885Y-169479076D01*
X130710123Y-169526695D01*
X130805361Y-169621933D01*
X130852980Y-169764790D01*
X130852980Y-170002885D01*
X133826076Y-170240980D02*
X133826076Y-170955266D01*
X133778457Y-171098123D01*
X133683219Y-171193361D01*
X133540361Y-171240980D01*
X133445123Y-171240980D01*
X134826076Y-171240980D02*
X134254647Y-171240980D01*
X134540361Y-171240980D02*
X134540361Y-170240980D01*
X134445123Y-170383838D01*
X134349885Y-170479076D01*
X134254647Y-170526695D01*
X135778457Y-171240980D02*
X135207028Y-171240980D01*
X135492742Y-171240980D02*
X135492742Y-170240980D01*
X135397504Y-170383838D01*
X135302266Y-170479076D01*
X135207028Y-170526695D01*
X142290601Y-138930503D02*
X142242981Y-139025741D01*
X142242981Y-139168599D01*
X142290601Y-139311456D01*
X142385839Y-139406694D01*
X142481077Y-139454313D01*
X142671553Y-139501932D01*
X142814410Y-139501932D01*
X143004886Y-139454313D01*
X143100124Y-139406694D01*
X143195362Y-139311456D01*
X143242981Y-139168599D01*
X143242981Y-139073360D01*
X143195362Y-138930503D01*
X143147743Y-138882884D01*
X142814410Y-138882884D01*
X142814410Y-139073360D01*
X143242981Y-138454313D02*
X142242981Y-138454313D01*
X143242981Y-137882884D01*
X142242981Y-137882884D01*
X143242981Y-137406694D02*
X142242981Y-137406694D01*
X142242981Y-137168599D01*
X142290601Y-137025741D01*
X142385839Y-136930503D01*
X142481077Y-136882884D01*
X142671553Y-136835265D01*
X142814410Y-136835265D01*
X143004886Y-136882884D01*
X143100124Y-136930503D01*
X143195362Y-137025741D01*
X143242981Y-137168599D01*
X143242981Y-137406694D01*
X136317267Y-137620979D02*
X136317267Y-138335265D01*
X136269648Y-138478122D01*
X136174410Y-138573360D01*
X136031553Y-138620979D01*
X135936315Y-138620979D01*
X136698220Y-137620979D02*
X137364886Y-137620979D01*
X136936315Y-138620979D01*
X142242981Y-132276694D02*
X142242981Y-131657646D01*
X142623934Y-131990979D01*
X142623934Y-131848122D01*
X142671553Y-131752884D01*
X142719172Y-131705265D01*
X142814410Y-131657646D01*
X143052505Y-131657646D01*
X143147743Y-131705265D01*
X143195362Y-131752884D01*
X143242981Y-131848122D01*
X143242981Y-132133837D01*
X143195362Y-132229075D01*
X143147743Y-132276694D01*
X142242981Y-131371932D02*
X143242981Y-131038599D01*
X142242981Y-130705265D01*
X142242981Y-130467170D02*
X142242981Y-129848122D01*
X142623934Y-130181456D01*
X142623934Y-130038599D01*
X142671553Y-129943360D01*
X142719172Y-129895741D01*
X142814410Y-129848122D01*
X143052505Y-129848122D01*
X143147743Y-129895741D01*
X143195362Y-129943360D01*
X143242981Y-130038599D01*
X143242981Y-130324313D01*
X143195362Y-130419551D01*
X143147743Y-130467170D01*
X136317267Y-130490979D02*
X136317267Y-131205265D01*
X136269648Y-131348122D01*
X136174410Y-131443360D01*
X136031553Y-131490979D01*
X135936315Y-131490979D01*
X136841077Y-131490979D02*
X137031553Y-131490979D01*
X137126791Y-131443360D01*
X137174410Y-131395741D01*
X137269648Y-131252884D01*
X137317267Y-131062408D01*
X137317267Y-130681456D01*
X137269648Y-130586218D01*
X137222029Y-130538599D01*
X137126791Y-130490979D01*
X136936315Y-130490979D01*
X136841077Y-130538599D01*
X136793458Y-130586218D01*
X136745839Y-130681456D01*
X136745839Y-130919551D01*
X136793458Y-131014789D01*
X136841077Y-131062408D01*
X136936315Y-131110027D01*
X137126791Y-131110027D01*
X137222029Y-131062408D01*
X137269648Y-131014789D01*
X137317267Y-130919551D01*
X142242981Y-127289551D02*
X143052505Y-127289551D01*
X143147743Y-127241932D01*
X143195362Y-127194313D01*
X143242981Y-127099075D01*
X143242981Y-126908599D01*
X143195362Y-126813360D01*
X143147743Y-126765741D01*
X143052505Y-126718122D01*
X142242981Y-126718122D01*
X143195362Y-126289551D02*
X143242981Y-126146694D01*
X143242981Y-125908599D01*
X143195362Y-125813360D01*
X143147743Y-125765741D01*
X143052505Y-125718122D01*
X142957267Y-125718122D01*
X142862029Y-125765741D01*
X142814410Y-125813360D01*
X142766791Y-125908599D01*
X142719172Y-126099075D01*
X142671553Y-126194313D01*
X142623934Y-126241932D01*
X142528696Y-126289551D01*
X142433458Y-126289551D01*
X142338220Y-126241932D01*
X142290601Y-126194313D01*
X142242981Y-126099075D01*
X142242981Y-125860979D01*
X142290601Y-125718122D01*
X142719172Y-124956218D02*
X142766791Y-124813360D01*
X142814410Y-124765741D01*
X142909648Y-124718122D01*
X143052505Y-124718122D01*
X143147743Y-124765741D01*
X143195362Y-124813360D01*
X143242981Y-124908599D01*
X143242981Y-125289551D01*
X142242981Y-125289551D01*
X142242981Y-124956218D01*
X142290601Y-124860979D01*
X142338220Y-124813360D01*
X142433458Y-124765741D01*
X142528696Y-124765741D01*
X142623934Y-124813360D01*
X142671553Y-124860979D01*
X142719172Y-124956218D01*
X142719172Y-125289551D01*
X142242981Y-123670503D02*
X143242981Y-123337170D01*
X142242981Y-123003837D01*
X143242981Y-122670503D02*
X142242981Y-122670503D01*
X142623934Y-122670503D02*
X142576315Y-122575265D01*
X142576315Y-122384789D01*
X142623934Y-122289551D01*
X142671553Y-122241932D01*
X142766791Y-122194313D01*
X143052505Y-122194313D01*
X143147743Y-122241932D01*
X143195362Y-122289551D01*
X143242981Y-122384789D01*
X143242981Y-122575265D01*
X143195362Y-122670503D01*
X142576315Y-121337170D02*
X143242981Y-121337170D01*
X142576315Y-121765741D02*
X143100124Y-121765741D01*
X143195362Y-121718122D01*
X143242981Y-121622884D01*
X143242981Y-121480027D01*
X143195362Y-121384789D01*
X143147743Y-121337170D01*
X143195362Y-120908599D02*
X143242981Y-120813360D01*
X143242981Y-120622884D01*
X143195362Y-120527646D01*
X143100124Y-120480027D01*
X143052505Y-120480027D01*
X142957267Y-120527646D01*
X142909648Y-120622884D01*
X142909648Y-120765741D01*
X142862029Y-120860979D01*
X142766791Y-120908599D01*
X142719172Y-120908599D01*
X142623934Y-120860979D01*
X142576315Y-120765741D01*
X142576315Y-120622884D01*
X142623934Y-120527646D01*
X135841077Y-123360979D02*
X135841077Y-124075265D01*
X135793458Y-124218122D01*
X135698220Y-124313360D01*
X135555362Y-124360979D01*
X135460124Y-124360979D01*
X136841077Y-124360979D02*
X136269648Y-124360979D01*
X136555362Y-124360979D02*
X136555362Y-123360979D01*
X136460124Y-123503837D01*
X136364886Y-123599075D01*
X136269648Y-123646694D01*
X137460124Y-123360979D02*
X137555362Y-123360979D01*
X137650601Y-123408599D01*
X137698220Y-123456218D01*
X137745839Y-123551456D01*
X137793458Y-123741932D01*
X137793458Y-123980027D01*
X137745839Y-124170503D01*
X137698220Y-124265741D01*
X137650601Y-124313360D01*
X137555362Y-124360979D01*
X137460124Y-124360979D01*
X137364886Y-124313360D01*
X137317267Y-124265741D01*
X137269648Y-124170503D01*
X137222029Y-123980027D01*
X137222029Y-123741932D01*
X137269648Y-123551456D01*
X137317267Y-123456218D01*
X137364886Y-123408599D01*
X137460124Y-123360979D01*
X130002266Y-154098838D02*
X130002266Y-153622647D01*
X130287980Y-154194076D02*
X129287980Y-153860742D01*
X130287980Y-153527409D01*
X129621314Y-153336933D02*
X129621314Y-152955980D01*
X129287980Y-153194076D02*
X130145123Y-153194076D01*
X130240361Y-153146457D01*
X130287980Y-153051219D01*
X130287980Y-152955980D01*
X130287980Y-152622647D02*
X129621314Y-152622647D01*
X129716552Y-152622647D02*
X129668933Y-152575028D01*
X129621314Y-152479790D01*
X129621314Y-152336933D01*
X129668933Y-152241695D01*
X129764171Y-152194076D01*
X130287980Y-152194076D01*
X129764171Y-152194076D02*
X129668933Y-152146457D01*
X129621314Y-152051219D01*
X129621314Y-151908361D01*
X129668933Y-151813123D01*
X129764171Y-151765504D01*
X130287980Y-151765504D01*
X130240361Y-150908361D02*
X130287980Y-151003600D01*
X130287980Y-151194076D01*
X130240361Y-151289314D01*
X130145123Y-151336933D01*
X129764171Y-151336933D01*
X129668933Y-151289314D01*
X129621314Y-151194076D01*
X129621314Y-151003600D01*
X129668933Y-150908361D01*
X129764171Y-150860742D01*
X129859409Y-150860742D01*
X129954647Y-151336933D01*
X130287980Y-150289314D02*
X130240361Y-150384552D01*
X130145123Y-150432171D01*
X129287980Y-150432171D01*
X130287980Y-149146457D02*
X129287980Y-149146457D01*
X130192742Y-148098838D02*
X130240361Y-148146457D01*
X130287980Y-148289314D01*
X130287980Y-148384552D01*
X130240361Y-148527409D01*
X130145123Y-148622647D01*
X130049885Y-148670266D01*
X129859409Y-148717885D01*
X129716552Y-148717885D01*
X129526076Y-148670266D01*
X129430838Y-148622647D01*
X129335600Y-148527409D01*
X129287980Y-148384552D01*
X129287980Y-148289314D01*
X129335600Y-148146457D01*
X129383219Y-148098838D01*
X129764171Y-147670266D02*
X129764171Y-147336933D01*
X130287980Y-147194076D02*
X130287980Y-147670266D01*
X129287980Y-147670266D01*
X129287980Y-147194076D01*
X129287980Y-146003600D02*
X130097504Y-146003600D01*
X130192742Y-145955980D01*
X130240361Y-145908361D01*
X130287980Y-145813123D01*
X130287980Y-145622647D01*
X130240361Y-145527409D01*
X130192742Y-145479790D01*
X130097504Y-145432171D01*
X129287980Y-145432171D01*
X130287980Y-144955980D02*
X129287980Y-144955980D01*
X129287980Y-144575028D01*
X129335600Y-144479790D01*
X129383219Y-144432171D01*
X129478457Y-144384552D01*
X129621314Y-144384552D01*
X129716552Y-144432171D01*
X129764171Y-144479790D01*
X129811790Y-144575028D01*
X129811790Y-144955980D01*
X130287980Y-143955980D02*
X129287980Y-143955980D01*
X129287980Y-143717885D01*
X129335600Y-143575028D01*
X129430838Y-143479790D01*
X129526076Y-143432171D01*
X129716552Y-143384552D01*
X129859409Y-143384552D01*
X130049885Y-143432171D01*
X130145123Y-143479790D01*
X130240361Y-143575028D01*
X130287980Y-143717885D01*
X130287980Y-143955980D01*
X130287980Y-142955980D02*
X129287980Y-142955980D01*
X133896076Y-147955980D02*
X133896076Y-148670266D01*
X133848457Y-148813123D01*
X133753219Y-148908361D01*
X133610361Y-148955980D01*
X133515123Y-148955980D01*
X134896076Y-148955980D02*
X134324647Y-148955980D01*
X134610361Y-148955980D02*
X134610361Y-147955980D01*
X134515123Y-148098838D01*
X134419885Y-148194076D01*
X134324647Y-148241695D01*
X135229409Y-147955980D02*
X135848457Y-147955980D01*
X135515123Y-148336933D01*
X135657980Y-148336933D01*
X135753219Y-148384552D01*
X135800838Y-148432171D01*
X135848457Y-148527409D01*
X135848457Y-148765504D01*
X135800838Y-148860742D01*
X135753219Y-148908361D01*
X135657980Y-148955980D01*
X135372266Y-148955980D01*
X135277028Y-148908361D01*
X135229409Y-148860742D01*
X204818457Y-133835980D02*
X204818457Y-132835980D01*
X205151790Y-133550266D01*
X205485123Y-132835980D01*
X205485123Y-133835980D01*
X206104171Y-133835980D02*
X206008933Y-133788361D01*
X205961314Y-133740742D01*
X205913695Y-133645504D01*
X205913695Y-133359790D01*
X205961314Y-133264552D01*
X206008933Y-133216933D01*
X206104171Y-133169314D01*
X206247028Y-133169314D01*
X206342266Y-133216933D01*
X206389885Y-133264552D01*
X206437504Y-133359790D01*
X206437504Y-133645504D01*
X206389885Y-133740742D01*
X206342266Y-133788361D01*
X206247028Y-133835980D01*
X206104171Y-133835980D01*
X207294647Y-133835980D02*
X207294647Y-132835980D01*
X207294647Y-133788361D02*
X207199409Y-133835980D01*
X207008933Y-133835980D01*
X206913695Y-133788361D01*
X206866076Y-133740742D01*
X206818457Y-133645504D01*
X206818457Y-133359790D01*
X206866076Y-133264552D01*
X206913695Y-133216933D01*
X207008933Y-133169314D01*
X207199409Y-133169314D01*
X207294647Y-133216933D01*
X208151790Y-133788361D02*
X208056552Y-133835980D01*
X207866076Y-133835980D01*
X207770838Y-133788361D01*
X207723219Y-133693123D01*
X207723219Y-133312171D01*
X207770838Y-133216933D01*
X207866076Y-133169314D01*
X208056552Y-133169314D01*
X208151790Y-133216933D01*
X208199409Y-133312171D01*
X208199409Y-133407409D01*
X207723219Y-133502647D01*
X209342266Y-133788361D02*
X209485123Y-133835980D01*
X209723219Y-133835980D01*
X209818457Y-133788361D01*
X209866076Y-133740742D01*
X209913695Y-133645504D01*
X209913695Y-133550266D01*
X209866076Y-133455028D01*
X209818457Y-133407409D01*
X209723219Y-133359790D01*
X209532742Y-133312171D01*
X209437504Y-133264552D01*
X209389885Y-133216933D01*
X209342266Y-133121695D01*
X209342266Y-133026457D01*
X209389885Y-132931219D01*
X209437504Y-132883600D01*
X209532742Y-132835980D01*
X209770838Y-132835980D01*
X209913695Y-132883600D01*
X210723219Y-133788361D02*
X210627980Y-133835980D01*
X210437504Y-133835980D01*
X210342266Y-133788361D01*
X210294647Y-133693123D01*
X210294647Y-133312171D01*
X210342266Y-133216933D01*
X210437504Y-133169314D01*
X210627980Y-133169314D01*
X210723219Y-133216933D01*
X210770838Y-133312171D01*
X210770838Y-133407409D01*
X210294647Y-133502647D01*
X211342266Y-133835980D02*
X211247028Y-133788361D01*
X211199409Y-133693123D01*
X211199409Y-132835980D01*
X212104171Y-133788361D02*
X212008933Y-133835980D01*
X211818457Y-133835980D01*
X211723219Y-133788361D01*
X211675600Y-133693123D01*
X211675600Y-133312171D01*
X211723219Y-133216933D01*
X211818457Y-133169314D01*
X212008933Y-133169314D01*
X212104171Y-133216933D01*
X212151790Y-133312171D01*
X212151790Y-133407409D01*
X211675600Y-133502647D01*
X213008933Y-133788361D02*
X212913695Y-133835980D01*
X212723219Y-133835980D01*
X212627980Y-133788361D01*
X212580361Y-133740742D01*
X212532742Y-133645504D01*
X212532742Y-133359790D01*
X212580361Y-133264552D01*
X212627980Y-133216933D01*
X212723219Y-133169314D01*
X212913695Y-133169314D01*
X213008933Y-133216933D01*
X213294647Y-133169314D02*
X213675600Y-133169314D01*
X213437504Y-132835980D02*
X213437504Y-133693123D01*
X213485123Y-133788361D01*
X213580361Y-133835980D01*
X213675600Y-133835980D01*
X209723219Y-126434076D02*
X209008933Y-126434076D01*
X208866076Y-126386457D01*
X208770838Y-126291219D01*
X208723219Y-126148361D01*
X208723219Y-126053123D01*
X208723219Y-127434076D02*
X208723219Y-126862647D01*
X208723219Y-127148361D02*
X209723219Y-127148361D01*
X209580361Y-127053123D01*
X209485123Y-126957885D01*
X209437504Y-126862647D01*
X209723219Y-127767409D02*
X209723219Y-128434076D01*
X208723219Y-128005504D01*
X210953695Y-132883600D02*
X210858457Y-132835980D01*
X210715600Y-132835980D01*
X210572742Y-132883600D01*
X210477504Y-132978838D01*
X210429885Y-133074076D01*
X210382266Y-133264552D01*
X210382266Y-133407409D01*
X210429885Y-133597885D01*
X210477504Y-133693123D01*
X210572742Y-133788361D01*
X210715600Y-133835980D01*
X210810838Y-133835980D01*
X210953695Y-133788361D01*
X211001314Y-133740742D01*
X211001314Y-133407409D01*
X210810838Y-133407409D01*
X211429885Y-133835980D02*
X211429885Y-132835980D01*
X212001314Y-133835980D01*
X212001314Y-132835980D01*
X212477504Y-133835980D02*
X212477504Y-132835980D01*
X212715600Y-132835980D01*
X212858457Y-132883600D01*
X212953695Y-132978838D01*
X213001314Y-133074076D01*
X213048933Y-133264552D01*
X213048933Y-133407409D01*
X213001314Y-133597885D01*
X212953695Y-133693123D01*
X212858457Y-133788361D01*
X212715600Y-133835980D01*
X212477504Y-133835980D01*
X212263219Y-126434076D02*
X211548933Y-126434076D01*
X211406076Y-126386457D01*
X211310838Y-126291219D01*
X211263219Y-126148361D01*
X211263219Y-126053123D01*
X211263219Y-127434076D02*
X211263219Y-126862647D01*
X211263219Y-127148361D02*
X212263219Y-127148361D01*
X212120361Y-127053123D01*
X212025123Y-126957885D01*
X211977504Y-126862647D01*
X211834647Y-128005504D02*
X211882266Y-127910266D01*
X211929885Y-127862647D01*
X212025123Y-127815028D01*
X212072742Y-127815028D01*
X212167980Y-127862647D01*
X212215600Y-127910266D01*
X212263219Y-128005504D01*
X212263219Y-128195980D01*
X212215600Y-128291219D01*
X212167980Y-128338838D01*
X212072742Y-128386457D01*
X212025123Y-128386457D01*
X211929885Y-128338838D01*
X211882266Y-128291219D01*
X211834647Y-128195980D01*
X211834647Y-128005504D01*
X211787028Y-127910266D01*
X211739409Y-127862647D01*
X211644171Y-127815028D01*
X211453695Y-127815028D01*
X211358457Y-127862647D01*
X211310838Y-127910266D01*
X211263219Y-128005504D01*
X211263219Y-128195980D01*
X211310838Y-128291219D01*
X211358457Y-128338838D01*
X211453695Y-128386457D01*
X211644171Y-128386457D01*
X211739409Y-128338838D01*
X211787028Y-128291219D01*
X211834647Y-128195980D01*
X204873695Y-133455028D02*
X205635600Y-133455028D01*
X205254647Y-133835980D02*
X205254647Y-133074076D01*
X206016552Y-132835980D02*
X206635600Y-132835980D01*
X206302266Y-133216933D01*
X206445123Y-133216933D01*
X206540361Y-133264552D01*
X206587980Y-133312171D01*
X206635600Y-133407409D01*
X206635600Y-133645504D01*
X206587980Y-133740742D01*
X206540361Y-133788361D01*
X206445123Y-133835980D01*
X206159409Y-133835980D01*
X206064171Y-133788361D01*
X206016552Y-133740742D01*
X206921314Y-132835980D02*
X207254647Y-133835980D01*
X207587980Y-132835980D01*
X207826076Y-132835980D02*
X208445123Y-132835980D01*
X208111790Y-133216933D01*
X208254647Y-133216933D01*
X208349885Y-133264552D01*
X208397504Y-133312171D01*
X208445123Y-133407409D01*
X208445123Y-133645504D01*
X208397504Y-133740742D01*
X208349885Y-133788361D01*
X208254647Y-133835980D01*
X207968933Y-133835980D01*
X207873695Y-133788361D01*
X207826076Y-133740742D01*
X207183219Y-126434076D02*
X206468933Y-126434076D01*
X206326076Y-126386457D01*
X206230838Y-126291219D01*
X206183219Y-126148361D01*
X206183219Y-126053123D01*
X207087980Y-126862647D02*
X207135600Y-126910266D01*
X207183219Y-127005504D01*
X207183219Y-127243600D01*
X207135600Y-127338838D01*
X207087980Y-127386457D01*
X206992742Y-127434076D01*
X206897504Y-127434076D01*
X206754647Y-127386457D01*
X206183219Y-126815028D01*
X206183219Y-127434076D01*
X207183219Y-128053123D02*
X207183219Y-128148361D01*
X207135600Y-128243600D01*
X207087980Y-128291219D01*
X206992742Y-128338838D01*
X206802266Y-128386457D01*
X206564171Y-128386457D01*
X206373695Y-128338838D01*
X206278457Y-128291219D01*
X206230838Y-128243600D01*
X206183219Y-128148361D01*
X206183219Y-128053123D01*
X206230838Y-127957885D01*
X206278457Y-127910266D01*
X206373695Y-127862647D01*
X206564171Y-127815028D01*
X206802266Y-127815028D01*
X206992742Y-127862647D01*
X207087980Y-127910266D01*
X207135600Y-127957885D01*
X207183219Y-128053123D01*
X177046076Y-114415980D02*
X177046076Y-115130266D01*
X176998457Y-115273123D01*
X176903219Y-115368361D01*
X176760361Y-115415980D01*
X176665123Y-115415980D01*
X177474647Y-114511219D02*
X177522266Y-114463600D01*
X177617504Y-114415980D01*
X177855600Y-114415980D01*
X177950838Y-114463600D01*
X177998457Y-114511219D01*
X178046076Y-114606457D01*
X178046076Y-114701695D01*
X177998457Y-114844552D01*
X177427028Y-115415980D01*
X178046076Y-115415980D01*
X178998457Y-115415980D02*
X178427028Y-115415980D01*
X178712742Y-115415980D02*
X178712742Y-114415980D01*
X178617504Y-114558838D01*
X178522266Y-114654076D01*
X178427028Y-114701695D01*
D13*
X127320361Y-131214552D02*
X127320361Y-130814552D01*
X127415600Y-130814552D01*
X127472742Y-130833600D01*
X127510838Y-130871695D01*
X127529885Y-130909790D01*
X127548933Y-130985980D01*
X127548933Y-131043123D01*
X127529885Y-131119314D01*
X127510838Y-131157409D01*
X127472742Y-131195504D01*
X127415600Y-131214552D01*
X127320361Y-131214552D01*
X127682266Y-130814552D02*
X127929885Y-130814552D01*
X127796552Y-130966933D01*
X127853695Y-130966933D01*
X127891790Y-130985980D01*
X127910838Y-131005028D01*
X127929885Y-131043123D01*
X127929885Y-131138361D01*
X127910838Y-131176457D01*
X127891790Y-131195504D01*
X127853695Y-131214552D01*
X127739409Y-131214552D01*
X127701314Y-131195504D01*
X127682266Y-131176457D01*
X127320361Y-124054552D02*
X127320361Y-123654552D01*
X127415600Y-123654552D01*
X127472742Y-123673600D01*
X127510838Y-123711695D01*
X127529885Y-123749790D01*
X127548933Y-123825980D01*
X127548933Y-123883123D01*
X127529885Y-123959314D01*
X127510838Y-123997409D01*
X127472742Y-124035504D01*
X127415600Y-124054552D01*
X127320361Y-124054552D01*
X127910838Y-123654552D02*
X127720361Y-123654552D01*
X127701314Y-123845028D01*
X127720361Y-123825980D01*
X127758457Y-123806933D01*
X127853695Y-123806933D01*
X127891790Y-123825980D01*
X127910838Y-123845028D01*
X127929885Y-123883123D01*
X127929885Y-123978361D01*
X127910838Y-124016457D01*
X127891790Y-124035504D01*
X127853695Y-124054552D01*
X127758457Y-124054552D01*
X127720361Y-124035504D01*
X127701314Y-124016457D01*
D12*
X146164171Y-132275980D02*
X146164171Y-133085504D01*
X146211790Y-133180742D01*
X146259409Y-133228361D01*
X146354647Y-133275980D01*
X146545123Y-133275980D01*
X146640361Y-133228361D01*
X146687980Y-133180742D01*
X146735600Y-133085504D01*
X146735600Y-132275980D01*
X147164171Y-133228361D02*
X147307028Y-133275980D01*
X147545123Y-133275980D01*
X147640361Y-133228361D01*
X147687980Y-133180742D01*
X147735600Y-133085504D01*
X147735600Y-132990266D01*
X147687980Y-132895028D01*
X147640361Y-132847409D01*
X147545123Y-132799790D01*
X147354647Y-132752171D01*
X147259409Y-132704552D01*
X147211790Y-132656933D01*
X147164171Y-132561695D01*
X147164171Y-132466457D01*
X147211790Y-132371219D01*
X147259409Y-132323600D01*
X147354647Y-132275980D01*
X147592742Y-132275980D01*
X147735600Y-132323600D01*
X148497504Y-132752171D02*
X148640361Y-132799790D01*
X148687980Y-132847409D01*
X148735600Y-132942647D01*
X148735600Y-133085504D01*
X148687980Y-133180742D01*
X148640361Y-133228361D01*
X148545123Y-133275980D01*
X148164171Y-133275980D01*
X148164171Y-132275980D01*
X148497504Y-132275980D01*
X148592742Y-132323600D01*
X148640361Y-132371219D01*
X148687980Y-132466457D01*
X148687980Y-132561695D01*
X148640361Y-132656933D01*
X148592742Y-132704552D01*
X148497504Y-132752171D01*
X148164171Y-132752171D01*
X149164171Y-132895028D02*
X149926076Y-132895028D01*
X151116552Y-133228361D02*
X151259409Y-133275980D01*
X151497504Y-133275980D01*
X151592742Y-133228361D01*
X151640361Y-133180742D01*
X151687980Y-133085504D01*
X151687980Y-132990266D01*
X151640361Y-132895028D01*
X151592742Y-132847409D01*
X151497504Y-132799790D01*
X151307028Y-132752171D01*
X151211790Y-132704552D01*
X151164171Y-132656933D01*
X151116552Y-132561695D01*
X151116552Y-132466457D01*
X151164171Y-132371219D01*
X151211790Y-132323600D01*
X151307028Y-132275980D01*
X151545123Y-132275980D01*
X151687980Y-132323600D01*
X152497504Y-133228361D02*
X152402266Y-133275980D01*
X152211790Y-133275980D01*
X152116552Y-133228361D01*
X152068933Y-133133123D01*
X152068933Y-132752171D01*
X152116552Y-132656933D01*
X152211790Y-132609314D01*
X152402266Y-132609314D01*
X152497504Y-132656933D01*
X152545123Y-132752171D01*
X152545123Y-132847409D01*
X152068933Y-132942647D01*
X153116552Y-133275980D02*
X153021314Y-133228361D01*
X152973695Y-133133123D01*
X152973695Y-132275980D01*
X153878457Y-133228361D02*
X153783219Y-133275980D01*
X153592742Y-133275980D01*
X153497504Y-133228361D01*
X153449885Y-133133123D01*
X153449885Y-132752171D01*
X153497504Y-132656933D01*
X153592742Y-132609314D01*
X153783219Y-132609314D01*
X153878457Y-132656933D01*
X153926076Y-132752171D01*
X153926076Y-132847409D01*
X153449885Y-132942647D01*
X154783219Y-133228361D02*
X154687980Y-133275980D01*
X154497504Y-133275980D01*
X154402266Y-133228361D01*
X154354647Y-133180742D01*
X154307028Y-133085504D01*
X154307028Y-132799790D01*
X154354647Y-132704552D01*
X154402266Y-132656933D01*
X154497504Y-132609314D01*
X154687980Y-132609314D01*
X154783219Y-132656933D01*
X155068933Y-132609314D02*
X155449885Y-132609314D01*
X155211790Y-132275980D02*
X155211790Y-133133123D01*
X155259409Y-133228361D01*
X155354647Y-133275980D01*
X155449885Y-133275980D01*
X150187980Y-128763123D02*
X150902266Y-128763123D01*
X151045123Y-128810742D01*
X151140361Y-128905980D01*
X151187980Y-129048838D01*
X151187980Y-129144076D01*
X151187980Y-127763123D02*
X151187980Y-128334552D01*
X151187980Y-128048838D02*
X150187980Y-128048838D01*
X150330838Y-128144076D01*
X150426076Y-128239314D01*
X150473695Y-128334552D01*
X150521314Y-126905980D02*
X151187980Y-126905980D01*
X150140361Y-127144076D02*
X150854647Y-127382171D01*
X150854647Y-126763123D01*
X151144171Y-132275980D02*
X151144171Y-133085504D01*
X151191790Y-133180742D01*
X151239409Y-133228361D01*
X151334647Y-133275980D01*
X151525123Y-133275980D01*
X151620361Y-133228361D01*
X151667980Y-133180742D01*
X151715600Y-133085504D01*
X151715600Y-132275980D01*
X152144171Y-133228361D02*
X152287028Y-133275980D01*
X152525123Y-133275980D01*
X152620361Y-133228361D01*
X152667980Y-133180742D01*
X152715600Y-133085504D01*
X152715600Y-132990266D01*
X152667980Y-132895028D01*
X152620361Y-132847409D01*
X152525123Y-132799790D01*
X152334647Y-132752171D01*
X152239409Y-132704552D01*
X152191790Y-132656933D01*
X152144171Y-132561695D01*
X152144171Y-132466457D01*
X152191790Y-132371219D01*
X152239409Y-132323600D01*
X152334647Y-132275980D01*
X152572742Y-132275980D01*
X152715600Y-132323600D01*
X153477504Y-132752171D02*
X153620361Y-132799790D01*
X153667980Y-132847409D01*
X153715600Y-132942647D01*
X153715600Y-133085504D01*
X153667980Y-133180742D01*
X153620361Y-133228361D01*
X153525123Y-133275980D01*
X153144171Y-133275980D01*
X153144171Y-132275980D01*
X153477504Y-132275980D01*
X153572742Y-132323600D01*
X153620361Y-132371219D01*
X153667980Y-132466457D01*
X153667980Y-132561695D01*
X153620361Y-132656933D01*
X153572742Y-132704552D01*
X153477504Y-132752171D01*
X153144171Y-132752171D01*
X154144171Y-132895028D02*
X154906076Y-132895028D01*
X154525123Y-133275980D02*
X154525123Y-132514076D01*
X156096552Y-133228361D02*
X156239409Y-133275980D01*
X156477504Y-133275980D01*
X156572742Y-133228361D01*
X156620361Y-133180742D01*
X156667980Y-133085504D01*
X156667980Y-132990266D01*
X156620361Y-132895028D01*
X156572742Y-132847409D01*
X156477504Y-132799790D01*
X156287028Y-132752171D01*
X156191790Y-132704552D01*
X156144171Y-132656933D01*
X156096552Y-132561695D01*
X156096552Y-132466457D01*
X156144171Y-132371219D01*
X156191790Y-132323600D01*
X156287028Y-132275980D01*
X156525123Y-132275980D01*
X156667980Y-132323600D01*
X157477504Y-133228361D02*
X157382266Y-133275980D01*
X157191790Y-133275980D01*
X157096552Y-133228361D01*
X157048933Y-133133123D01*
X157048933Y-132752171D01*
X157096552Y-132656933D01*
X157191790Y-132609314D01*
X157382266Y-132609314D01*
X157477504Y-132656933D01*
X157525123Y-132752171D01*
X157525123Y-132847409D01*
X157048933Y-132942647D01*
X158096552Y-133275980D02*
X158001314Y-133228361D01*
X157953695Y-133133123D01*
X157953695Y-132275980D01*
X158858457Y-133228361D02*
X158763219Y-133275980D01*
X158572742Y-133275980D01*
X158477504Y-133228361D01*
X158429885Y-133133123D01*
X158429885Y-132752171D01*
X158477504Y-132656933D01*
X158572742Y-132609314D01*
X158763219Y-132609314D01*
X158858457Y-132656933D01*
X158906076Y-132752171D01*
X158906076Y-132847409D01*
X158429885Y-132942647D01*
X159763219Y-133228361D02*
X159667980Y-133275980D01*
X159477504Y-133275980D01*
X159382266Y-133228361D01*
X159334647Y-133180742D01*
X159287028Y-133085504D01*
X159287028Y-132799790D01*
X159334647Y-132704552D01*
X159382266Y-132656933D01*
X159477504Y-132609314D01*
X159667980Y-132609314D01*
X159763219Y-132656933D01*
X160048933Y-132609314D02*
X160429885Y-132609314D01*
X160191790Y-132275980D02*
X160191790Y-133133123D01*
X160239409Y-133228361D01*
X160334647Y-133275980D01*
X160429885Y-133275980D01*
X155167980Y-128763123D02*
X155882266Y-128763123D01*
X156025123Y-128810742D01*
X156120361Y-128905980D01*
X156167980Y-129048838D01*
X156167980Y-129144076D01*
X155263219Y-128334552D02*
X155215600Y-128286933D01*
X155167980Y-128191695D01*
X155167980Y-127953600D01*
X155215600Y-127858361D01*
X155263219Y-127810742D01*
X155358457Y-127763123D01*
X155453695Y-127763123D01*
X155596552Y-127810742D01*
X156167980Y-128382171D01*
X156167980Y-127763123D01*
X155167980Y-126858361D02*
X155167980Y-127334552D01*
X155644171Y-127382171D01*
X155596552Y-127334552D01*
X155548933Y-127239314D01*
X155548933Y-127001219D01*
X155596552Y-126905980D01*
X155644171Y-126858361D01*
X155739409Y-126810742D01*
X155977504Y-126810742D01*
X156072742Y-126858361D01*
X156120361Y-126905980D01*
X156167980Y-127001219D01*
X156167980Y-127239314D01*
X156120361Y-127334552D01*
X156072742Y-127382171D01*
M02*
