G04 #@! TF.GenerationSoftware,KiCad,Pcbnew,(5.1.9)-1*
G04 #@! TF.CreationDate,2021-01-16T22:32:26-07:00*
G04 #@! TF.ProjectId,purplewizard-pogo,70757270-6c65-4776-997a-6172642d706f,1*
G04 #@! TF.SameCoordinates,Original*
G04 #@! TF.FileFunction,Soldermask,Top*
G04 #@! TF.FilePolarity,Negative*
%FSLAX46Y46*%
G04 Gerber Fmt 4.6, Leading zero omitted, Abs format (unit mm)*
G04 Created by KiCad (PCBNEW (5.1.9)-1) date 2021-01-16 22:32:26*
%MOMM*%
%LPD*%
G01*
G04 APERTURE LIST*
%ADD10C,2.200000*%
%ADD11C,0.900000*%
%ADD12R,2.500000X1.250000*%
%ADD13C,0.985520*%
%ADD14C,0.988060*%
%ADD15C,0.784860*%
%ADD16R,1.000000X1.000000*%
%ADD17O,1.000000X1.000000*%
%ADD18O,1.300000X2.600000*%
%ADD19O,1.100000X2.200000*%
%ADD20O,1.700000X1.700000*%
%ADD21R,1.700000X1.700000*%
G04 APERTURE END LIST*
G36*
G01*
X186005600Y-169993600D02*
X186005600Y-145493600D01*
G75*
G02*
X187255600Y-144243600I1250000J0D01*
G01*
X189755600Y-144243600D01*
G75*
G02*
X191005600Y-145493600I0J-1250000D01*
G01*
X191005600Y-169993600D01*
G75*
G02*
X189755600Y-171243600I-1250000J0D01*
G01*
X187255600Y-171243600D01*
G75*
G02*
X186005600Y-169993600I0J1250000D01*
G01*
G37*
D10*
X214655600Y-58703600D03*
X214655600Y-62036933D03*
X214655600Y-68703600D03*
X214635600Y-65363600D03*
X165955600Y-51605600D03*
X165955600Y-43991600D03*
X165955600Y-49067600D03*
X128943600Y-52273600D03*
X165955600Y-41453600D03*
X165955600Y-46529600D03*
X165955600Y-54143600D03*
X128943600Y-59463600D03*
X128943600Y-55868600D03*
X200095600Y-53153600D03*
X200115600Y-49523600D03*
X200115600Y-45893600D03*
X195785600Y-99423600D03*
X195785600Y-95783600D03*
X195785600Y-92143600D03*
D11*
X212615600Y-162333600D03*
X212615600Y-169133600D03*
D12*
X209865600Y-163233600D03*
X209865600Y-165733600D03*
X209865600Y-168233600D03*
D13*
X131485600Y-159357600D03*
X131485600Y-161389600D03*
D14*
X139105600Y-160373600D03*
D15*
X135295600Y-161008600D03*
X135295600Y-159738600D03*
X136565600Y-161008600D03*
X136565600Y-159738600D03*
X137835600Y-161008600D03*
X137835600Y-159738600D03*
X134025600Y-159738600D03*
X134025600Y-161008600D03*
X132755600Y-159738600D03*
X132755600Y-161008600D03*
D16*
X137175600Y-170153600D03*
D17*
X137175600Y-171423600D03*
X135905600Y-170353600D03*
X135905600Y-171623600D03*
X134635600Y-170153600D03*
X134635600Y-171423600D03*
X133365600Y-170353600D03*
X133365600Y-171623600D03*
X132095600Y-170153600D03*
X132095600Y-171423600D03*
D18*
X150945600Y-178623600D03*
X159585600Y-178623600D03*
D19*
X150945600Y-173263600D03*
X159585600Y-173263600D03*
D20*
X140460601Y-138168599D03*
X137920601Y-138168599D03*
X135380601Y-138168599D03*
D21*
X132840601Y-138168599D03*
X132840601Y-131038599D03*
D20*
X135380601Y-131038599D03*
X137920601Y-131038599D03*
X140460601Y-131038599D03*
D21*
X132840601Y-123908599D03*
D20*
X135380601Y-123908599D03*
X137920601Y-123908599D03*
X140460601Y-123908599D03*
D21*
X137245600Y-147233600D03*
D20*
X137245600Y-149773600D03*
X134705600Y-147233600D03*
X134705600Y-149773600D03*
X132165600Y-147233600D03*
X132165600Y-149773600D03*
D21*
X209175600Y-123433600D03*
D20*
X209175600Y-125973600D03*
X209175600Y-128513600D03*
X209175600Y-131053600D03*
D21*
X211715600Y-123433600D03*
D20*
X211715600Y-125973600D03*
X211715600Y-128513600D03*
X211715600Y-131053600D03*
X206635600Y-131053600D03*
X206635600Y-128513600D03*
X206635600Y-125973600D03*
D21*
X206635600Y-123433600D03*
X201985600Y-113693600D03*
D20*
X201985600Y-116233600D03*
X199445600Y-113693600D03*
X199445600Y-116233600D03*
X196905600Y-113693600D03*
X196905600Y-116233600D03*
X194365600Y-113693600D03*
X194365600Y-116233600D03*
X191825600Y-113693600D03*
X191825600Y-116233600D03*
X189285600Y-113693600D03*
X189285600Y-116233600D03*
X186745600Y-113693600D03*
X186745600Y-116233600D03*
X184205600Y-113693600D03*
X184205600Y-116233600D03*
X181665600Y-113693600D03*
X181665600Y-116233600D03*
X179125600Y-113693600D03*
X179125600Y-116233600D03*
X176585600Y-113693600D03*
X176585600Y-116233600D03*
X174045600Y-113693600D03*
X174045600Y-116233600D03*
X171505600Y-113693600D03*
X171505600Y-116233600D03*
X168965600Y-113693600D03*
X168965600Y-116233600D03*
X166425600Y-113693600D03*
X166425600Y-116233600D03*
X163885600Y-113693600D03*
X163885600Y-116233600D03*
X161345600Y-113693600D03*
X161345600Y-116233600D03*
X158805600Y-113693600D03*
X158805600Y-116233600D03*
X156265600Y-113693600D03*
X156265600Y-116233600D03*
X153725600Y-113693600D03*
X153725600Y-116233600D03*
G36*
G01*
X127965600Y-131289850D02*
X127965600Y-130777350D01*
G75*
G02*
X128184350Y-130558600I218750J0D01*
G01*
X128621850Y-130558600D01*
G75*
G02*
X128840600Y-130777350I0J-218750D01*
G01*
X128840600Y-131289850D01*
G75*
G02*
X128621850Y-131508600I-218750J0D01*
G01*
X128184350Y-131508600D01*
G75*
G02*
X127965600Y-131289850I0J218750D01*
G01*
G37*
G36*
G01*
X126390600Y-131289850D02*
X126390600Y-130777350D01*
G75*
G02*
X126609350Y-130558600I218750J0D01*
G01*
X127046850Y-130558600D01*
G75*
G02*
X127265600Y-130777350I0J-218750D01*
G01*
X127265600Y-131289850D01*
G75*
G02*
X127046850Y-131508600I-218750J0D01*
G01*
X126609350Y-131508600D01*
G75*
G02*
X126390600Y-131289850I0J218750D01*
G01*
G37*
G36*
G01*
X126390600Y-124129850D02*
X126390600Y-123617350D01*
G75*
G02*
X126609350Y-123398600I218750J0D01*
G01*
X127046850Y-123398600D01*
G75*
G02*
X127265600Y-123617350I0J-218750D01*
G01*
X127265600Y-124129850D01*
G75*
G02*
X127046850Y-124348600I-218750J0D01*
G01*
X126609350Y-124348600D01*
G75*
G02*
X126390600Y-124129850I0J218750D01*
G01*
G37*
G36*
G01*
X127965600Y-124129850D02*
X127965600Y-123617350D01*
G75*
G02*
X128184350Y-123398600I218750J0D01*
G01*
X128621850Y-123398600D01*
G75*
G02*
X128840600Y-123617350I0J-218750D01*
G01*
X128840600Y-124129850D01*
G75*
G02*
X128621850Y-124348600I-218750J0D01*
G01*
X128184350Y-124348600D01*
G75*
G02*
X127965600Y-124129850I0J218750D01*
G01*
G37*
D21*
X150735600Y-125413600D03*
D20*
X150735600Y-127953600D03*
X150735600Y-130493600D03*
X155715600Y-130493600D03*
X155715600Y-127953600D03*
D21*
X155715600Y-125413600D03*
M02*
