M48
; DRILL file {KiCad (5.1.9)-1} date 01/16/21 22:32:29
; FORMAT={-:-/ absolute / metric / decimal}
; #@! TF.CreationDate,2021-01-16T22:32:29-07:00
; #@! TF.GenerationSoftware,Kicad,Pcbnew,(5.1.9)-1
FMAT,2
METRIC
T1C0.400
T2C0.600
T3C0.650
T4C1.000
T5C1.450
T6C0.900
T7C0.986
T8C0.988
T9C5.000
%
G90
G05
T1
X126.836Y-126.904
X128.376Y-130.044
X128.466Y-122.834
X130.166Y-164.234
X132.756Y-163.534
X135.276Y-158.114
X141.106Y-166.754
X141.896Y-148.294
X146.576Y-123.894
X147.826Y-148.294
X149.616Y-54.094
X151.376Y-51.574
X151.666Y-90.184
X151.666Y-94.004
X151.666Y-97.664
X151.666Y-101.984
X153.076Y-49.074
X153.656Y-171.544
X154.706Y-46.524
X154.766Y-175.664
X154.836Y-171.594
X155.376Y-168.554
X155.836Y-175.674
X156.276Y-43.984
X159.996Y-170.914
X162.746Y-157.744
X167.706Y-161.504
X169.236Y-161.734
X174.176Y-142.764
X188.896Y-71.874
X194.786Y-165.754
X196.296Y-66.364
X196.296Y-68.264
X196.316Y-70.874
X196.906Y-132.454
X198.116Y-65.364
X198.156Y-68.704
X198.166Y-129.794
X199.446Y-127.234
X200.706Y-124.684
X202.266Y-71.864
X202.266Y-108.504
X202.566Y-70.864
X204.716Y-58.694
X206.446Y-108.504
X206.446Y-165.744
X209.936Y-157.274
T3
X132.096Y-170.154
X132.096Y-171.424
X133.366Y-170.354
X133.366Y-171.624
X134.636Y-170.154
X134.636Y-171.424
X135.906Y-170.354
X135.906Y-171.624
X137.176Y-170.154
X137.176Y-171.424
T4
X132.166Y-147.234
X132.166Y-149.774
X132.841Y-123.909
X132.841Y-131.039
X132.841Y-138.169
X134.706Y-147.234
X134.706Y-149.774
X135.381Y-123.909
X135.381Y-131.039
X135.381Y-138.169
X137.246Y-147.234
X137.246Y-149.774
X137.921Y-123.909
X137.921Y-131.039
X137.921Y-138.169
X140.461Y-123.909
X140.461Y-131.039
X140.461Y-138.169
X150.736Y-125.414
X150.736Y-127.954
X150.736Y-130.494
X153.726Y-113.694
X153.726Y-116.234
X155.716Y-125.414
X155.716Y-127.954
X155.716Y-130.494
X156.266Y-113.694
X156.266Y-116.234
X158.806Y-113.694
X158.806Y-116.234
X161.346Y-113.694
X161.346Y-116.234
X163.886Y-113.694
X163.886Y-116.234
X166.426Y-113.694
X166.426Y-116.234
X168.966Y-113.694
X168.966Y-116.234
X171.506Y-113.694
X171.506Y-116.234
X174.046Y-113.694
X174.046Y-116.234
X176.586Y-113.694
X176.586Y-116.234
X179.126Y-113.694
X179.126Y-116.234
X181.666Y-113.694
X181.666Y-116.234
X184.206Y-113.694
X184.206Y-116.234
X186.746Y-113.694
X186.746Y-116.234
X189.286Y-113.694
X189.286Y-116.234
X191.826Y-113.694
X191.826Y-116.234
X194.366Y-113.694
X194.366Y-116.234
X196.906Y-113.694
X196.906Y-116.234
X199.446Y-113.694
X199.446Y-116.234
X201.986Y-113.694
X201.986Y-116.234
X206.636Y-123.434
X206.636Y-125.974
X206.636Y-128.514
X206.636Y-131.054
X209.176Y-123.434
X209.176Y-125.974
X209.176Y-128.514
X209.176Y-131.054
X211.716Y-123.434
X211.716Y-125.974
X211.716Y-128.514
X211.716Y-131.054
T5
X128.944Y-52.274
X128.944Y-55.869
X128.944Y-59.464
X165.956Y-41.454
X165.956Y-43.992
X165.956Y-46.53
X165.956Y-49.068
X165.956Y-51.606
X165.956Y-54.144
X195.786Y-92.144
X195.786Y-95.784
X195.786Y-99.424
X200.096Y-53.154
X200.116Y-45.894
X200.116Y-49.524
X214.636Y-65.364
X214.656Y-58.704
X214.656Y-62.037
X214.656Y-68.704
T6
X212.616Y-162.334
X212.616Y-169.134
T7
X131.486Y-159.358
X131.486Y-161.39
T8
X139.106Y-160.374
T2
G00X150.946Y-173.764
M15
G01X150.946Y-172.764
M16
G05
G00X150.946Y-179.374
M15
G01X150.946Y-177.874
M16
G05
G00X159.586Y-173.764
M15
G01X159.586Y-172.764
M16
G05
G00X159.586Y-179.374
M15
G01X159.586Y-177.874
M16
G05
T9
G00X188.506Y-146.744
M15
G01X188.506Y-168.744
M16
G05
T0
M30
