G04 #@! TF.GenerationSoftware,KiCad,Pcbnew,(5.1.9)-1*
G04 #@! TF.CreationDate,2021-01-16T04:06:45-07:00*
G04 #@! TF.ProjectId,purplewizard-pogo,70757270-6c65-4776-997a-6172642d706f,1*
G04 #@! TF.SameCoordinates,PX774a7a0PYac0e4a0*
G04 #@! TF.FileFunction,Legend,Top*
G04 #@! TF.FilePolarity,Positive*
%FSLAX46Y46*%
G04 Gerber Fmt 4.6, Leading zero omitted, Abs format (unit mm)*
G04 Created by KiCad (PCBNEW (5.1.9)-1) date 2021-01-16 04:06:45*
%MOMM*%
%LPD*%
G01*
G04 APERTURE LIST*
%ADD10C,0.150000*%
%ADD11C,0.300000*%
%ADD12C,0.250000*%
%ADD13C,0.100000*%
%ADD14C,0.120000*%
%ADD15C,0.127000*%
%ADD16C,2.200000*%
%ADD17C,0.900000*%
%ADD18R,2.500000X1.250000*%
%ADD19C,0.985520*%
%ADD20C,0.988060*%
%ADD21C,0.784860*%
%ADD22R,1.000000X1.000000*%
%ADD23O,1.000000X1.000000*%
%ADD24O,1.300000X2.600000*%
%ADD25O,1.100000X2.200000*%
%ADD26O,1.700000X1.700000*%
%ADD27R,1.700000X1.700000*%
G04 APERTURE END LIST*
D10*
X10440000Y36390000D02*
X10440000Y35470000D01*
X8970000Y36400000D02*
X10440000Y36390000D01*
X8970000Y35490000D02*
X8970000Y36400000D01*
D11*
X15458571Y35401429D02*
X14601428Y35401429D01*
X15030000Y35401429D02*
X15030000Y36901429D01*
X14887142Y36687143D01*
X14744285Y36544286D01*
X14601428Y36472858D01*
X15168571Y12151429D02*
X14311428Y12151429D01*
X14740000Y12151429D02*
X14740000Y13651429D01*
X14597142Y13437143D01*
X14454285Y13294286D01*
X14311428Y13222858D01*
D10*
X10230000Y12970000D02*
X10230000Y12050000D01*
X8760000Y12980000D02*
X10230000Y12970000D01*
X8760000Y12070000D02*
X8760000Y12980000D01*
D11*
X33560000Y49917143D02*
X33774285Y49845715D01*
X33845714Y49774286D01*
X33917142Y49631429D01*
X33917142Y49417143D01*
X33845714Y49274286D01*
X33774285Y49202858D01*
X33631428Y49131429D01*
X33060000Y49131429D01*
X33060000Y50631429D01*
X33560000Y50631429D01*
X33702857Y50560000D01*
X33774285Y50488572D01*
X33845714Y50345715D01*
X33845714Y50202858D01*
X33774285Y50060000D01*
X33702857Y49988572D01*
X33560000Y49917143D01*
X33060000Y49917143D01*
X34560000Y49131429D02*
X34560000Y50631429D01*
X35060000Y49560000D01*
X35560000Y50631429D01*
X35560000Y49131429D01*
X36274285Y49131429D02*
X36274285Y50631429D01*
X36631428Y50631429D01*
X36845714Y50560000D01*
X36988571Y50417143D01*
X37060000Y50274286D01*
X37131428Y49988572D01*
X37131428Y49774286D01*
X37060000Y49488572D01*
X36988571Y49345715D01*
X36845714Y49202858D01*
X36631428Y49131429D01*
X36274285Y49131429D01*
X33035714Y54422858D02*
X33250000Y54351429D01*
X33607142Y54351429D01*
X33750000Y54422858D01*
X33821428Y54494286D01*
X33892857Y54637143D01*
X33892857Y54780000D01*
X33821428Y54922858D01*
X33750000Y54994286D01*
X33607142Y55065715D01*
X33321428Y55137143D01*
X33178571Y55208572D01*
X33107142Y55280000D01*
X33035714Y55422858D01*
X33035714Y55565715D01*
X33107142Y55708572D01*
X33178571Y55780000D01*
X33321428Y55851429D01*
X33678571Y55851429D01*
X33892857Y55780000D01*
X35107142Y54422858D02*
X34964285Y54351429D01*
X34678571Y54351429D01*
X34535714Y54422858D01*
X34464285Y54565715D01*
X34464285Y55137143D01*
X34535714Y55280000D01*
X34678571Y55351429D01*
X34964285Y55351429D01*
X35107142Y55280000D01*
X35178571Y55137143D01*
X35178571Y54994286D01*
X34464285Y54851429D01*
X35821428Y54351429D02*
X35821428Y55351429D01*
X35821428Y55065715D02*
X35892857Y55208572D01*
X35964285Y55280000D01*
X36107142Y55351429D01*
X36250000Y55351429D01*
X36750000Y54351429D02*
X36750000Y55351429D01*
X36750000Y55851429D02*
X36678571Y55780000D01*
X36750000Y55708572D01*
X36821428Y55780000D01*
X36750000Y55851429D01*
X36750000Y55708572D01*
X38107142Y54351429D02*
X38107142Y55137143D01*
X38035714Y55280000D01*
X37892857Y55351429D01*
X37607142Y55351429D01*
X37464285Y55280000D01*
X38107142Y54422858D02*
X37964285Y54351429D01*
X37607142Y54351429D01*
X37464285Y54422858D01*
X37392857Y54565715D01*
X37392857Y54708572D01*
X37464285Y54851429D01*
X37607142Y54922858D01*
X37964285Y54922858D01*
X38107142Y54994286D01*
X39035714Y54351429D02*
X38892857Y54422858D01*
X38821428Y54565715D01*
X38821428Y55851429D01*
X33051428Y53391429D02*
X33051428Y52177143D01*
X33122857Y52034286D01*
X33194285Y51962858D01*
X33337142Y51891429D01*
X33622857Y51891429D01*
X33765714Y51962858D01*
X33837142Y52034286D01*
X33908571Y52177143D01*
X33908571Y53391429D01*
X34551428Y51962858D02*
X34765714Y51891429D01*
X35122857Y51891429D01*
X35265714Y51962858D01*
X35337142Y52034286D01*
X35408571Y52177143D01*
X35408571Y52320000D01*
X35337142Y52462858D01*
X35265714Y52534286D01*
X35122857Y52605715D01*
X34837142Y52677143D01*
X34694285Y52748572D01*
X34622857Y52820000D01*
X34551428Y52962858D01*
X34551428Y53105715D01*
X34622857Y53248572D01*
X34694285Y53320000D01*
X34837142Y53391429D01*
X35194285Y53391429D01*
X35408571Y53320000D01*
X36551428Y52677143D02*
X36765714Y52605715D01*
X36837142Y52534286D01*
X36908571Y52391429D01*
X36908571Y52177143D01*
X36837142Y52034286D01*
X36765714Y51962858D01*
X36622857Y51891429D01*
X36051428Y51891429D01*
X36051428Y53391429D01*
X36551428Y53391429D01*
X36694285Y53320000D01*
X36765714Y53248572D01*
X36837142Y53105715D01*
X36837142Y52962858D01*
X36765714Y52820000D01*
X36694285Y52748572D01*
X36551428Y52677143D01*
X36051428Y52677143D01*
X38622857Y51962858D02*
X38837142Y51891429D01*
X39194285Y51891429D01*
X39337142Y51962858D01*
X39408571Y52034286D01*
X39480000Y52177143D01*
X39480000Y52320000D01*
X39408571Y52462858D01*
X39337142Y52534286D01*
X39194285Y52605715D01*
X38908571Y52677143D01*
X38765714Y52748572D01*
X38694285Y52820000D01*
X38622857Y52962858D01*
X38622857Y53105715D01*
X38694285Y53248572D01*
X38765714Y53320000D01*
X38908571Y53391429D01*
X39265714Y53391429D01*
X39480000Y53320000D01*
X40694285Y51962858D02*
X40551428Y51891429D01*
X40265714Y51891429D01*
X40122857Y51962858D01*
X40051428Y52105715D01*
X40051428Y52677143D01*
X40122857Y52820000D01*
X40265714Y52891429D01*
X40551428Y52891429D01*
X40694285Y52820000D01*
X40765714Y52677143D01*
X40765714Y52534286D01*
X40051428Y52391429D01*
X41622857Y51891429D02*
X41480000Y51962858D01*
X41408571Y52105715D01*
X41408571Y53391429D01*
X42765714Y51962858D02*
X42622857Y51891429D01*
X42337142Y51891429D01*
X42194285Y51962858D01*
X42122857Y52105715D01*
X42122857Y52677143D01*
X42194285Y52820000D01*
X42337142Y52891429D01*
X42622857Y52891429D01*
X42765714Y52820000D01*
X42837142Y52677143D01*
X42837142Y52534286D01*
X42122857Y52391429D01*
X44122857Y51962858D02*
X43980000Y51891429D01*
X43694285Y51891429D01*
X43551428Y51962858D01*
X43480000Y52034286D01*
X43408571Y52177143D01*
X43408571Y52605715D01*
X43480000Y52748572D01*
X43551428Y52820000D01*
X43694285Y52891429D01*
X43980000Y52891429D01*
X44122857Y52820000D01*
X44551428Y52891429D02*
X45122857Y52891429D01*
X44765714Y53391429D02*
X44765714Y52105715D01*
X44837142Y51962858D01*
X44980000Y51891429D01*
X45122857Y51891429D01*
X88820000Y8661429D02*
X89105714Y8661429D01*
X89248571Y8590000D01*
X89391428Y8447143D01*
X89462857Y8161429D01*
X89462857Y7661429D01*
X89391428Y7375715D01*
X89248571Y7232858D01*
X89105714Y7161429D01*
X88820000Y7161429D01*
X88677142Y7232858D01*
X88534285Y7375715D01*
X88462857Y7661429D01*
X88462857Y8161429D01*
X88534285Y8447143D01*
X88677142Y8590000D01*
X88820000Y8661429D01*
X89891428Y8161429D02*
X90462857Y8161429D01*
X90105714Y7161429D02*
X90105714Y8447143D01*
X90177142Y8590000D01*
X90320000Y8661429D01*
X90462857Y8661429D01*
X90748571Y8161429D02*
X91320000Y8161429D01*
X90962857Y7161429D02*
X90962857Y8447143D01*
X91034285Y8590000D01*
X91177142Y8661429D01*
X91320000Y8661429D01*
X89118571Y23201429D02*
X89404285Y23201429D01*
X89547142Y23130000D01*
X89690000Y22987143D01*
X89761428Y22701429D01*
X89761428Y22201429D01*
X89690000Y21915715D01*
X89547142Y21772858D01*
X89404285Y21701429D01*
X89118571Y21701429D01*
X88975714Y21772858D01*
X88832857Y21915715D01*
X88761428Y22201429D01*
X88761428Y22701429D01*
X88832857Y22987143D01*
X88975714Y23130000D01*
X89118571Y23201429D01*
X90404285Y22701429D02*
X90404285Y21701429D01*
X90404285Y22558572D02*
X90475714Y22630000D01*
X90618571Y22701429D01*
X90832857Y22701429D01*
X90975714Y22630000D01*
X91047142Y22487143D01*
X91047142Y21701429D01*
X66634285Y68821429D02*
X66920000Y68821429D01*
X67062857Y68892858D01*
X67134285Y68964286D01*
X67277142Y69178572D01*
X67348571Y69464286D01*
X67348571Y70035715D01*
X67277142Y70178572D01*
X67205714Y70250000D01*
X67062857Y70321429D01*
X66777142Y70321429D01*
X66634285Y70250000D01*
X66562857Y70178572D01*
X66491428Y70035715D01*
X66491428Y69678572D01*
X66562857Y69535715D01*
X66634285Y69464286D01*
X66777142Y69392858D01*
X67062857Y69392858D01*
X67205714Y69464286D01*
X67277142Y69535715D01*
X67348571Y69678572D01*
X40207142Y70178572D02*
X40278571Y70250000D01*
X40421428Y70321429D01*
X40778571Y70321429D01*
X40921428Y70250000D01*
X40992857Y70178572D01*
X41064285Y70035715D01*
X41064285Y69892858D01*
X40992857Y69678572D01*
X40135714Y68821429D01*
X41064285Y68821429D01*
X41778571Y68821429D02*
X42064285Y68821429D01*
X42207142Y68892858D01*
X42278571Y68964286D01*
X42421428Y69178572D01*
X42492857Y69464286D01*
X42492857Y70035715D01*
X42421428Y70178572D01*
X42350000Y70250000D01*
X42207142Y70321429D01*
X41921428Y70321429D01*
X41778571Y70250000D01*
X41707142Y70178572D01*
X41635714Y70035715D01*
X41635714Y69678572D01*
X41707142Y69535715D01*
X41778571Y69464286D01*
X41921428Y69392858D01*
X42207142Y69392858D01*
X42350000Y69464286D01*
X42421428Y69535715D01*
X42492857Y69678572D01*
X53924285Y68821429D02*
X53067142Y68821429D01*
X53495714Y68821429D02*
X53495714Y70321429D01*
X53352857Y70107143D01*
X53210000Y69964286D01*
X53067142Y69892858D01*
X54638571Y68821429D02*
X54924285Y68821429D01*
X55067142Y68892858D01*
X55138571Y68964286D01*
X55281428Y69178572D01*
X55352857Y69464286D01*
X55352857Y70035715D01*
X55281428Y70178572D01*
X55210000Y70250000D01*
X55067142Y70321429D01*
X54781428Y70321429D01*
X54638571Y70250000D01*
X54567142Y70178572D01*
X54495714Y70035715D01*
X54495714Y69678572D01*
X54567142Y69535715D01*
X54638571Y69464286D01*
X54781428Y69392858D01*
X55067142Y69392858D01*
X55210000Y69464286D01*
X55281428Y69535715D01*
X55352857Y69678572D01*
X66634285Y60511429D02*
X65777142Y60511429D01*
X66205714Y60511429D02*
X66205714Y62011429D01*
X66062857Y61797143D01*
X65920000Y61654286D01*
X65777142Y61582858D01*
X67562857Y62011429D02*
X67705714Y62011429D01*
X67848571Y61940000D01*
X67920000Y61868572D01*
X67991428Y61725715D01*
X68062857Y61440000D01*
X68062857Y61082858D01*
X67991428Y60797143D01*
X67920000Y60654286D01*
X67848571Y60582858D01*
X67705714Y60511429D01*
X67562857Y60511429D01*
X67420000Y60582858D01*
X67348571Y60654286D01*
X67277142Y60797143D01*
X67205714Y61082858D01*
X67205714Y61440000D01*
X67277142Y61725715D01*
X67348571Y61868572D01*
X67420000Y61940000D01*
X67562857Y62011429D01*
X53067142Y61868572D02*
X53138571Y61940000D01*
X53281428Y62011429D01*
X53638571Y62011429D01*
X53781428Y61940000D01*
X53852857Y61868572D01*
X53924285Y61725715D01*
X53924285Y61582858D01*
X53852857Y61368572D01*
X52995714Y60511429D01*
X53924285Y60511429D01*
X54852857Y62011429D02*
X54995714Y62011429D01*
X55138571Y61940000D01*
X55210000Y61868572D01*
X55281428Y61725715D01*
X55352857Y61440000D01*
X55352857Y61082858D01*
X55281428Y60797143D01*
X55210000Y60654286D01*
X55138571Y60582858D01*
X54995714Y60511429D01*
X54852857Y60511429D01*
X54710000Y60582858D01*
X54638571Y60654286D01*
X54567142Y60797143D01*
X54495714Y61082858D01*
X54495714Y61440000D01*
X54567142Y61725715D01*
X54638571Y61868572D01*
X54710000Y61940000D01*
X54852857Y62011429D01*
X40135714Y62011429D02*
X41064285Y62011429D01*
X40564285Y61440000D01*
X40778571Y61440000D01*
X40921428Y61368572D01*
X40992857Y61297143D01*
X41064285Y61154286D01*
X41064285Y60797143D01*
X40992857Y60654286D01*
X40921428Y60582858D01*
X40778571Y60511429D01*
X40350000Y60511429D01*
X40207142Y60582858D01*
X40135714Y60654286D01*
X41992857Y62011429D02*
X42135714Y62011429D01*
X42278571Y61940000D01*
X42350000Y61868572D01*
X42421428Y61725715D01*
X42492857Y61440000D01*
X42492857Y61082858D01*
X42421428Y60797143D01*
X42350000Y60654286D01*
X42278571Y60582858D01*
X42135714Y60511429D01*
X41992857Y60511429D01*
X41850000Y60582858D01*
X41778571Y60654286D01*
X41707142Y60797143D01*
X41635714Y61082858D01*
X41635714Y61440000D01*
X41707142Y61725715D01*
X41778571Y61868572D01*
X41850000Y61940000D01*
X41992857Y62011429D01*
X28071428Y61511429D02*
X28071428Y60511429D01*
X27714285Y62082858D02*
X27357142Y61011429D01*
X28285714Y61011429D01*
X29142857Y62011429D02*
X29285714Y62011429D01*
X29428571Y61940000D01*
X29500000Y61868572D01*
X29571428Y61725715D01*
X29642857Y61440000D01*
X29642857Y61082858D01*
X29571428Y60797143D01*
X29500000Y60654286D01*
X29428571Y60582858D01*
X29285714Y60511429D01*
X29142857Y60511429D01*
X29000000Y60582858D01*
X28928571Y60654286D01*
X28857142Y60797143D01*
X28785714Y61082858D01*
X28785714Y61440000D01*
X28857142Y61725715D01*
X28928571Y61868572D01*
X29000000Y61940000D01*
X29142857Y62011429D01*
X27335714Y70321429D02*
X28264285Y70321429D01*
X27764285Y69750000D01*
X27978571Y69750000D01*
X28121428Y69678572D01*
X28192857Y69607143D01*
X28264285Y69464286D01*
X28264285Y69107143D01*
X28192857Y68964286D01*
X28121428Y68892858D01*
X27978571Y68821429D01*
X27550000Y68821429D01*
X27407142Y68892858D01*
X27335714Y68964286D01*
X28978571Y68821429D02*
X29264285Y68821429D01*
X29407142Y68892858D01*
X29478571Y68964286D01*
X29621428Y69178572D01*
X29692857Y69464286D01*
X29692857Y70035715D01*
X29621428Y70178572D01*
X29550000Y70250000D01*
X29407142Y70321429D01*
X29121428Y70321429D01*
X28978571Y70250000D01*
X28907142Y70178572D01*
X28835714Y70035715D01*
X28835714Y69678572D01*
X28907142Y69535715D01*
X28978571Y69464286D01*
X29121428Y69392858D01*
X29407142Y69392858D01*
X29550000Y69464286D01*
X29621428Y69535715D01*
X29692857Y69678572D01*
X76561428Y61868572D02*
X76632857Y61940000D01*
X76775714Y62011429D01*
X77132857Y62011429D01*
X77275714Y61940000D01*
X77347142Y61868572D01*
X77418571Y61725715D01*
X77418571Y61582858D01*
X77347142Y61368572D01*
X76490000Y60511429D01*
X77418571Y60511429D01*
X77278571Y68821429D02*
X76421428Y68821429D01*
X76850000Y68821429D02*
X76850000Y70321429D01*
X76707142Y70107143D01*
X76564285Y69964286D01*
X76421428Y69892858D01*
D12*
X1392380Y11921429D02*
X1316190Y11692858D01*
X1316190Y11311905D01*
X1392380Y11159524D01*
X1468571Y11083334D01*
X1620952Y11007143D01*
X1773333Y11007143D01*
X1925714Y11083334D01*
X2001904Y11159524D01*
X2078095Y11311905D01*
X2154285Y11616667D01*
X2230476Y11769048D01*
X2306666Y11845239D01*
X2459047Y11921429D01*
X2611428Y11921429D01*
X2763809Y11845239D01*
X2840000Y11769048D01*
X2916190Y11616667D01*
X2916190Y11235715D01*
X2840000Y11007143D01*
X2916190Y10473810D02*
X1316190Y10092858D01*
X2459047Y9788096D01*
X1316190Y9483334D01*
X2916190Y9102381D01*
X1316190Y8492858D02*
X2916190Y8492858D01*
X2916190Y8111905D01*
X2840000Y7883334D01*
X2687619Y7730953D01*
X2535238Y7654762D01*
X2230476Y7578572D01*
X2001904Y7578572D01*
X1697142Y7654762D01*
X1544761Y7730953D01*
X1392380Y7883334D01*
X1316190Y8111905D01*
X1316190Y8492858D01*
X1342380Y22241429D02*
X1266190Y22012858D01*
X1266190Y21631905D01*
X1342380Y21479524D01*
X1418571Y21403334D01*
X1570952Y21327143D01*
X1723333Y21327143D01*
X1875714Y21403334D01*
X1951904Y21479524D01*
X2028095Y21631905D01*
X2104285Y21936667D01*
X2180476Y22089048D01*
X2256666Y22165239D01*
X2409047Y22241429D01*
X2561428Y22241429D01*
X2713809Y22165239D01*
X2790000Y22089048D01*
X2866190Y21936667D01*
X2866190Y21555715D01*
X2790000Y21327143D01*
X2866190Y20793810D02*
X1266190Y20412858D01*
X2409047Y20108096D01*
X1266190Y19803334D01*
X2866190Y19422381D01*
X1266190Y18812858D02*
X2866190Y18812858D01*
X2866190Y18431905D01*
X2790000Y18203334D01*
X2637619Y18050953D01*
X2485238Y17974762D01*
X2180476Y17898572D01*
X1951904Y17898572D01*
X1647142Y17974762D01*
X1494761Y18050953D01*
X1342380Y18203334D01*
X1266190Y18431905D01*
X1266190Y18812858D01*
X2856190Y34158096D02*
X1560952Y34158096D01*
X1408571Y34081905D01*
X1332380Y34005715D01*
X1256190Y33853334D01*
X1256190Y33548572D01*
X1332380Y33396191D01*
X1408571Y33320000D01*
X1560952Y33243810D01*
X2856190Y33243810D01*
X1256190Y32481905D02*
X2856190Y32481905D01*
X2856190Y31872381D01*
X2780000Y31720000D01*
X2703809Y31643810D01*
X2551428Y31567620D01*
X2322857Y31567620D01*
X2170476Y31643810D01*
X2094285Y31720000D01*
X2018095Y31872381D01*
X2018095Y32481905D01*
X1256190Y30881905D02*
X2856190Y30881905D01*
X2856190Y30500953D01*
X2780000Y30272381D01*
X2627619Y30120000D01*
X2475238Y30043810D01*
X2170476Y29967620D01*
X1941904Y29967620D01*
X1637142Y30043810D01*
X1484761Y30120000D01*
X1332380Y30272381D01*
X1256190Y30500953D01*
X1256190Y30881905D01*
X1256190Y29281905D02*
X2856190Y29281905D01*
X6290476Y54336191D02*
X6290476Y53040953D01*
X6366666Y52888572D01*
X6442857Y52812381D01*
X6595238Y52736191D01*
X6900000Y52736191D01*
X7052380Y52812381D01*
X7128571Y52888572D01*
X7204761Y53040953D01*
X7204761Y54336191D01*
X7890476Y52812381D02*
X8119047Y52736191D01*
X8500000Y52736191D01*
X8652380Y52812381D01*
X8728571Y52888572D01*
X8804761Y53040953D01*
X8804761Y53193334D01*
X8728571Y53345715D01*
X8652380Y53421905D01*
X8500000Y53498096D01*
X8195238Y53574286D01*
X8042857Y53650477D01*
X7966666Y53726667D01*
X7890476Y53879048D01*
X7890476Y54031429D01*
X7966666Y54183810D01*
X8042857Y54260000D01*
X8195238Y54336191D01*
X8576190Y54336191D01*
X8804761Y54260000D01*
X10023809Y53574286D02*
X10252380Y53498096D01*
X10328571Y53421905D01*
X10404761Y53269524D01*
X10404761Y53040953D01*
X10328571Y52888572D01*
X10252380Y52812381D01*
X10100000Y52736191D01*
X9490476Y52736191D01*
X9490476Y54336191D01*
X10023809Y54336191D01*
X10176190Y54260000D01*
X10252380Y54183810D01*
X10328571Y54031429D01*
X10328571Y53879048D01*
X10252380Y53726667D01*
X10176190Y53650477D01*
X10023809Y53574286D01*
X9490476Y53574286D01*
X12080952Y54336191D02*
X12614285Y52736191D01*
X13147619Y54336191D01*
X13680952Y52736191D02*
X13680952Y54336191D01*
X13680952Y53726667D02*
X13833333Y53802858D01*
X14138095Y53802858D01*
X14290476Y53726667D01*
X14366666Y53650477D01*
X14442857Y53498096D01*
X14442857Y53040953D01*
X14366666Y52888572D01*
X14290476Y52812381D01*
X14138095Y52736191D01*
X13833333Y52736191D01*
X13680952Y52812381D01*
X15814285Y53802858D02*
X15814285Y52736191D01*
X15128571Y53802858D02*
X15128571Y52964762D01*
X15204761Y52812381D01*
X15357142Y52736191D01*
X15585714Y52736191D01*
X15738095Y52812381D01*
X15814285Y52888572D01*
X16500000Y52812381D02*
X16652380Y52736191D01*
X16957142Y52736191D01*
X17109523Y52812381D01*
X17185714Y52964762D01*
X17185714Y53040953D01*
X17109523Y53193334D01*
X16957142Y53269524D01*
X16728571Y53269524D01*
X16576190Y53345715D01*
X16500000Y53498096D01*
X16500000Y53574286D01*
X16576190Y53726667D01*
X16728571Y53802858D01*
X16957142Y53802858D01*
X17109523Y53726667D01*
X6299047Y47286191D02*
X7289523Y47286191D01*
X6756190Y46676667D01*
X6984761Y46676667D01*
X7137142Y46600477D01*
X7213333Y46524286D01*
X7289523Y46371905D01*
X7289523Y45990953D01*
X7213333Y45838572D01*
X7137142Y45762381D01*
X6984761Y45686191D01*
X6527619Y45686191D01*
X6375238Y45762381D01*
X6299047Y45838572D01*
X7746666Y47286191D02*
X8280000Y45686191D01*
X8813333Y47286191D01*
X9194285Y47286191D02*
X10184761Y47286191D01*
X9651428Y46676667D01*
X9880000Y46676667D01*
X10032380Y46600477D01*
X10108571Y46524286D01*
X10184761Y46371905D01*
X10184761Y45990953D01*
X10108571Y45838572D01*
X10032380Y45762381D01*
X9880000Y45686191D01*
X9422857Y45686191D01*
X9270476Y45762381D01*
X9194285Y45838572D01*
X7020952Y40200000D02*
X6868571Y40276191D01*
X6640000Y40276191D01*
X6411428Y40200000D01*
X6259047Y40047620D01*
X6182857Y39895239D01*
X6106666Y39590477D01*
X6106666Y39361905D01*
X6182857Y39057143D01*
X6259047Y38904762D01*
X6411428Y38752381D01*
X6640000Y38676191D01*
X6792380Y38676191D01*
X7020952Y38752381D01*
X7097142Y38828572D01*
X7097142Y39361905D01*
X6792380Y39361905D01*
X7782857Y38676191D02*
X7782857Y40276191D01*
X8697142Y38676191D01*
X8697142Y40276191D01*
X9459047Y38676191D02*
X9459047Y40276191D01*
X9840000Y40276191D01*
X10068571Y40200000D01*
X10220952Y40047620D01*
X10297142Y39895239D01*
X10373333Y39590477D01*
X10373333Y39361905D01*
X10297142Y39057143D01*
X10220952Y38904762D01*
X10068571Y38752381D01*
X9840000Y38676191D01*
X9459047Y38676191D01*
X85990000Y43520953D02*
X85913809Y43368572D01*
X85913809Y43140000D01*
X85990000Y42911429D01*
X86142380Y42759048D01*
X86294761Y42682858D01*
X86599523Y42606667D01*
X86828095Y42606667D01*
X87132857Y42682858D01*
X87285238Y42759048D01*
X87437619Y42911429D01*
X87513809Y43140000D01*
X87513809Y43292381D01*
X87437619Y43520953D01*
X87361428Y43597143D01*
X86828095Y43597143D01*
X86828095Y43292381D01*
X87513809Y44282858D02*
X85913809Y44282858D01*
X87513809Y45197143D01*
X85913809Y45197143D01*
X87513809Y45959048D02*
X85913809Y45959048D01*
X85913809Y46340000D01*
X85990000Y46568572D01*
X86142380Y46720953D01*
X86294761Y46797143D01*
X86599523Y46873334D01*
X86828095Y46873334D01*
X87132857Y46797143D01*
X87285238Y46720953D01*
X87437619Y46568572D01*
X87513809Y46340000D01*
X87513809Y45959048D01*
X80603809Y42909048D02*
X80603809Y43899524D01*
X81213333Y43366191D01*
X81213333Y43594762D01*
X81289523Y43747143D01*
X81365714Y43823334D01*
X81518095Y43899524D01*
X81899047Y43899524D01*
X82051428Y43823334D01*
X82127619Y43747143D01*
X82203809Y43594762D01*
X82203809Y43137620D01*
X82127619Y42985239D01*
X82051428Y42909048D01*
X80603809Y44356667D02*
X82203809Y44890000D01*
X80603809Y45423334D01*
X80603809Y45804286D02*
X80603809Y46794762D01*
X81213333Y46261429D01*
X81213333Y46490000D01*
X81289523Y46642381D01*
X81365714Y46718572D01*
X81518095Y46794762D01*
X81899047Y46794762D01*
X82051428Y46718572D01*
X82127619Y46642381D01*
X82203809Y46490000D01*
X82203809Y46032858D01*
X82127619Y45880477D01*
X82051428Y45804286D01*
X75383809Y56281191D02*
X75383809Y57881191D01*
X76145714Y56281191D02*
X76145714Y57881191D01*
X76679047Y56738334D01*
X77212380Y57881191D01*
X77212380Y56281191D01*
X78279047Y57881191D02*
X78431428Y57881191D01*
X78583809Y57805000D01*
X78660000Y57728810D01*
X78736190Y57576429D01*
X78812380Y57271667D01*
X78812380Y56890715D01*
X78736190Y56585953D01*
X78660000Y56433572D01*
X78583809Y56357381D01*
X78431428Y56281191D01*
X78279047Y56281191D01*
X78126666Y56357381D01*
X78050476Y56433572D01*
X77974285Y56585953D01*
X77898095Y56890715D01*
X77898095Y57271667D01*
X77974285Y57576429D01*
X78050476Y57728810D01*
X78126666Y57805000D01*
X78279047Y57881191D01*
X75383809Y53631191D02*
X75383809Y55231191D01*
X76145714Y53631191D02*
X76145714Y55231191D01*
X76679047Y54088334D01*
X77212380Y55231191D01*
X77212380Y53631191D01*
X78812380Y53631191D02*
X77898095Y53631191D01*
X78355238Y53631191D02*
X78355238Y55231191D01*
X78202857Y55002620D01*
X78050476Y54850239D01*
X77898095Y54774048D01*
X75383809Y50981191D02*
X75383809Y52581191D01*
X76145714Y50981191D02*
X76145714Y52581191D01*
X76679047Y51438334D01*
X77212380Y52581191D01*
X77212380Y50981191D01*
X77898095Y52428810D02*
X77974285Y52505000D01*
X78126666Y52581191D01*
X78507619Y52581191D01*
X78660000Y52505000D01*
X78736190Y52428810D01*
X78812380Y52276429D01*
X78812380Y52124048D01*
X78736190Y51895477D01*
X77821904Y50981191D01*
X78812380Y50981191D01*
X75383809Y48331191D02*
X75383809Y49931191D01*
X76145714Y48331191D02*
X76145714Y49931191D01*
X76679047Y48788334D01*
X77212380Y49931191D01*
X77212380Y48331191D01*
X77821904Y49931191D02*
X78812380Y49931191D01*
X78279047Y49321667D01*
X78507619Y49321667D01*
X78660000Y49245477D01*
X78736190Y49169286D01*
X78812380Y49016905D01*
X78812380Y48635953D01*
X78736190Y48483572D01*
X78660000Y48407381D01*
X78507619Y48331191D01*
X78050476Y48331191D01*
X77898095Y48407381D01*
X77821904Y48483572D01*
D11*
X23255714Y148602858D02*
X23255714Y151602858D01*
X23970000Y151602858D01*
X24398571Y151460000D01*
X24684285Y151174286D01*
X24827142Y150888572D01*
X24970000Y150317143D01*
X24970000Y149888572D01*
X24827142Y149317143D01*
X24684285Y149031429D01*
X24398571Y148745715D01*
X23970000Y148602858D01*
X23255714Y148602858D01*
X27970000Y148888572D02*
X27827142Y148745715D01*
X27398571Y148602858D01*
X27112857Y148602858D01*
X26684285Y148745715D01*
X26398571Y149031429D01*
X26255714Y149317143D01*
X26112857Y149888572D01*
X26112857Y150317143D01*
X26255714Y150888572D01*
X26398571Y151174286D01*
X26684285Y151460000D01*
X27112857Y151602858D01*
X27398571Y151602858D01*
X27827142Y151460000D01*
X27970000Y151317143D01*
X29684285Y150317143D02*
X29398571Y150460000D01*
X29255714Y150602858D01*
X29112857Y150888572D01*
X29112857Y151031429D01*
X29255714Y151317143D01*
X29398571Y151460000D01*
X29684285Y151602858D01*
X30255714Y151602858D01*
X30541428Y151460000D01*
X30684285Y151317143D01*
X30827142Y151031429D01*
X30827142Y150888572D01*
X30684285Y150602858D01*
X30541428Y150460000D01*
X30255714Y150317143D01*
X29684285Y150317143D01*
X29398571Y150174286D01*
X29255714Y150031429D01*
X29112857Y149745715D01*
X29112857Y149174286D01*
X29255714Y148888572D01*
X29398571Y148745715D01*
X29684285Y148602858D01*
X30255714Y148602858D01*
X30541428Y148745715D01*
X30684285Y148888572D01*
X30827142Y149174286D01*
X30827142Y149745715D01*
X30684285Y150031429D01*
X30541428Y150174286D01*
X30255714Y150317143D01*
X32684285Y151602858D02*
X32970000Y151602858D01*
X33255714Y151460000D01*
X33398571Y151317143D01*
X33541428Y151031429D01*
X33684285Y150460000D01*
X33684285Y149745715D01*
X33541428Y149174286D01*
X33398571Y148888572D01*
X33255714Y148745715D01*
X32970000Y148602858D01*
X32684285Y148602858D01*
X32398571Y148745715D01*
X32255714Y148888572D01*
X32112857Y149174286D01*
X31970000Y149745715D01*
X31970000Y150460000D01*
X32112857Y151031429D01*
X32255714Y151317143D01*
X32398571Y151460000D01*
X32684285Y151602858D01*
X36541428Y148602858D02*
X34827142Y148602858D01*
X35684285Y148602858D02*
X35684285Y151602858D01*
X35398571Y151174286D01*
X35112857Y150888572D01*
X34827142Y150745715D01*
X41112857Y150174286D02*
X41541428Y150031429D01*
X41684285Y149888572D01*
X41827142Y149602858D01*
X41827142Y149174286D01*
X41684285Y148888572D01*
X41541428Y148745715D01*
X41255714Y148602858D01*
X40112857Y148602858D01*
X40112857Y151602858D01*
X41112857Y151602858D01*
X41398571Y151460000D01*
X41541428Y151317143D01*
X41684285Y151031429D01*
X41684285Y150745715D01*
X41541428Y150460000D01*
X41398571Y150317143D01*
X41112857Y150174286D01*
X40112857Y150174286D01*
X43541428Y148602858D02*
X43255714Y148745715D01*
X43112857Y149031429D01*
X43112857Y151602858D01*
X45970000Y148602858D02*
X45970000Y150174286D01*
X45827142Y150460000D01*
X45541428Y150602858D01*
X44970000Y150602858D01*
X44684285Y150460000D01*
X45970000Y148745715D02*
X45684285Y148602858D01*
X44970000Y148602858D01*
X44684285Y148745715D01*
X44541428Y149031429D01*
X44541428Y149317143D01*
X44684285Y149602858D01*
X44970000Y149745715D01*
X45684285Y149745715D01*
X45970000Y149888572D01*
X48684285Y148745715D02*
X48398571Y148602858D01*
X47827142Y148602858D01*
X47541428Y148745715D01*
X47398571Y148888572D01*
X47255714Y149174286D01*
X47255714Y150031429D01*
X47398571Y150317143D01*
X47541428Y150460000D01*
X47827142Y150602858D01*
X48398571Y150602858D01*
X48684285Y150460000D01*
X49970000Y148602858D02*
X49970000Y151602858D01*
X50255714Y149745715D02*
X51112857Y148602858D01*
X51112857Y150602858D02*
X49970000Y149460000D01*
X54684285Y148602858D02*
X54684285Y151602858D01*
X55684285Y149460000D01*
X56684285Y151602858D01*
X56684285Y148602858D01*
X59398571Y148602858D02*
X59398571Y150174286D01*
X59255714Y150460000D01*
X58970000Y150602858D01*
X58398571Y150602858D01*
X58112857Y150460000D01*
X59398571Y148745715D02*
X59112857Y148602858D01*
X58398571Y148602858D01*
X58112857Y148745715D01*
X57970000Y149031429D01*
X57970000Y149317143D01*
X58112857Y149602858D01*
X58398571Y149745715D01*
X59112857Y149745715D01*
X59398571Y149888572D01*
X62112857Y150602858D02*
X62112857Y148174286D01*
X61970000Y147888572D01*
X61827142Y147745715D01*
X61541428Y147602858D01*
X61112857Y147602858D01*
X60827142Y147745715D01*
X62112857Y148745715D02*
X61827142Y148602858D01*
X61255714Y148602858D01*
X60970000Y148745715D01*
X60827142Y148888572D01*
X60684285Y149174286D01*
X60684285Y150031429D01*
X60827142Y150317143D01*
X60970000Y150460000D01*
X61255714Y150602858D01*
X61827142Y150602858D01*
X62112857Y150460000D01*
X64684285Y148745715D02*
X64398571Y148602858D01*
X63827142Y148602858D01*
X63541428Y148745715D01*
X63398571Y149031429D01*
X63398571Y150174286D01*
X63541428Y150460000D01*
X63827142Y150602858D01*
X64398571Y150602858D01*
X64684285Y150460000D01*
X64827142Y150174286D01*
X64827142Y149888572D01*
X63398571Y149602858D01*
X33112857Y143802858D02*
X33112857Y146802858D01*
X34255714Y146802858D01*
X34541428Y146660000D01*
X34684285Y146517143D01*
X34827142Y146231429D01*
X34827142Y145802858D01*
X34684285Y145517143D01*
X34541428Y145374286D01*
X34255714Y145231429D01*
X33112857Y145231429D01*
X36541428Y143802858D02*
X36255714Y143945715D01*
X36112857Y144088572D01*
X35970000Y144374286D01*
X35970000Y145231429D01*
X36112857Y145517143D01*
X36255714Y145660000D01*
X36541428Y145802858D01*
X36970000Y145802858D01*
X37255714Y145660000D01*
X37398571Y145517143D01*
X37541428Y145231429D01*
X37541428Y144374286D01*
X37398571Y144088572D01*
X37255714Y143945715D01*
X36970000Y143802858D01*
X36541428Y143802858D01*
X40112857Y145802858D02*
X40112857Y143374286D01*
X39970000Y143088572D01*
X39827142Y142945715D01*
X39541428Y142802858D01*
X39112857Y142802858D01*
X38827142Y142945715D01*
X40112857Y143945715D02*
X39827142Y143802858D01*
X39255714Y143802858D01*
X38970000Y143945715D01*
X38827142Y144088572D01*
X38684285Y144374286D01*
X38684285Y145231429D01*
X38827142Y145517143D01*
X38970000Y145660000D01*
X39255714Y145802858D01*
X39827142Y145802858D01*
X40112857Y145660000D01*
X41970000Y143802858D02*
X41684285Y143945715D01*
X41541428Y144088572D01*
X41398571Y144374286D01*
X41398571Y145231429D01*
X41541428Y145517143D01*
X41684285Y145660000D01*
X41970000Y145802858D01*
X42398571Y145802858D01*
X42684285Y145660000D01*
X42827142Y145517143D01*
X42970000Y145231429D01*
X42970000Y144374286D01*
X42827142Y144088572D01*
X42684285Y143945715D01*
X42398571Y143802858D01*
X41970000Y143802858D01*
X44255714Y143802858D02*
X44255714Y146802858D01*
X45398571Y146802858D01*
X45684285Y146660000D01*
X45827142Y146517143D01*
X45970000Y146231429D01*
X45970000Y145802858D01*
X45827142Y145517143D01*
X45684285Y145374286D01*
X45398571Y145231429D01*
X44255714Y145231429D01*
X47255714Y143802858D02*
X47255714Y145802858D01*
X47255714Y145231429D02*
X47398571Y145517143D01*
X47541428Y145660000D01*
X47827142Y145802858D01*
X48112857Y145802858D01*
X49541428Y143802858D02*
X49255714Y143945715D01*
X49112857Y144088572D01*
X48970000Y144374286D01*
X48970000Y145231429D01*
X49112857Y145517143D01*
X49255714Y145660000D01*
X49541428Y145802858D01*
X49970000Y145802858D01*
X50255714Y145660000D01*
X50398571Y145517143D01*
X50541428Y145231429D01*
X50541428Y144374286D01*
X50398571Y144088572D01*
X50255714Y143945715D01*
X49970000Y143802858D01*
X49541428Y143802858D01*
X51398571Y145802858D02*
X52541428Y145802858D01*
X51827142Y146802858D02*
X51827142Y144231429D01*
X51970000Y143945715D01*
X52255714Y143802858D01*
X52541428Y143802858D01*
X53970000Y143802858D02*
X53684285Y143945715D01*
X53541428Y144088572D01*
X53398571Y144374286D01*
X53398571Y145231429D01*
X53541428Y145517143D01*
X53684285Y145660000D01*
X53970000Y145802858D01*
X54398571Y145802858D01*
X54684285Y145660000D01*
X54827142Y145517143D01*
X54970000Y145231429D01*
X54970000Y144374286D01*
X54827142Y144088572D01*
X54684285Y143945715D01*
X54398571Y143802858D01*
X53970000Y143802858D01*
D12*
X77239523Y112067620D02*
X77334761Y112353334D01*
X77334761Y112829524D01*
X77239523Y113020000D01*
X77144285Y113115239D01*
X76953809Y113210477D01*
X76763333Y113210477D01*
X76572857Y113115239D01*
X76477619Y113020000D01*
X76382380Y112829524D01*
X76287142Y112448572D01*
X76191904Y112258096D01*
X76096666Y112162858D01*
X75906190Y112067620D01*
X75715714Y112067620D01*
X75525238Y112162858D01*
X75430000Y112258096D01*
X75334761Y112448572D01*
X75334761Y112924762D01*
X75430000Y113210477D01*
X77239523Y114829524D02*
X77334761Y114639048D01*
X77334761Y114258096D01*
X77239523Y114067620D01*
X77049047Y113972381D01*
X76287142Y113972381D01*
X76096666Y114067620D01*
X76001428Y114258096D01*
X76001428Y114639048D01*
X76096666Y114829524D01*
X76287142Y114924762D01*
X76477619Y114924762D01*
X76668095Y113972381D01*
X77334761Y115781905D02*
X76001428Y115781905D01*
X76382380Y115781905D02*
X76191904Y115877143D01*
X76096666Y115972381D01*
X76001428Y116162858D01*
X76001428Y116353334D01*
X77334761Y117020000D02*
X76001428Y117020000D01*
X75334761Y117020000D02*
X75430000Y116924762D01*
X75525238Y117020000D01*
X75430000Y117115239D01*
X75334761Y117020000D01*
X75525238Y117020000D01*
X77334761Y118829524D02*
X76287142Y118829524D01*
X76096666Y118734286D01*
X76001428Y118543810D01*
X76001428Y118162858D01*
X76096666Y117972381D01*
X77239523Y118829524D02*
X77334761Y118639048D01*
X77334761Y118162858D01*
X77239523Y117972381D01*
X77049047Y117877143D01*
X76858571Y117877143D01*
X76668095Y117972381D01*
X76572857Y118162858D01*
X76572857Y118639048D01*
X76477619Y118829524D01*
X77334761Y120067620D02*
X77239523Y119877143D01*
X77049047Y119781905D01*
X75334761Y119781905D01*
X65459523Y81785715D02*
X65554761Y82071429D01*
X65554761Y82547620D01*
X65459523Y82738096D01*
X65364285Y82833334D01*
X65173809Y82928572D01*
X64983333Y82928572D01*
X64792857Y82833334D01*
X64697619Y82738096D01*
X64602380Y82547620D01*
X64507142Y82166667D01*
X64411904Y81976191D01*
X64316666Y81880953D01*
X64126190Y81785715D01*
X63935714Y81785715D01*
X63745238Y81880953D01*
X63650000Y81976191D01*
X63554761Y82166667D01*
X63554761Y82642858D01*
X63650000Y82928572D01*
X63554761Y83595239D02*
X65554761Y84071429D01*
X64126190Y84452381D01*
X65554761Y84833334D01*
X63554761Y85309524D01*
X65554761Y86071429D02*
X63554761Y86071429D01*
X63554761Y86547620D01*
X63650000Y86833334D01*
X63840476Y87023810D01*
X64030952Y87119048D01*
X64411904Y87214286D01*
X64697619Y87214286D01*
X65078571Y87119048D01*
X65269047Y87023810D01*
X65459523Y86833334D01*
X65554761Y86547620D01*
X65554761Y86071429D01*
X67504761Y128326191D02*
X69123809Y128326191D01*
X69314285Y128421429D01*
X69409523Y128516667D01*
X69504761Y128707143D01*
X69504761Y129088096D01*
X69409523Y129278572D01*
X69314285Y129373810D01*
X69123809Y129469048D01*
X67504761Y129469048D01*
X69409523Y130326191D02*
X69504761Y130611905D01*
X69504761Y131088096D01*
X69409523Y131278572D01*
X69314285Y131373810D01*
X69123809Y131469048D01*
X68933333Y131469048D01*
X68742857Y131373810D01*
X68647619Y131278572D01*
X68552380Y131088096D01*
X68457142Y130707143D01*
X68361904Y130516667D01*
X68266666Y130421429D01*
X68076190Y130326191D01*
X67885714Y130326191D01*
X67695238Y130421429D01*
X67600000Y130516667D01*
X67504761Y130707143D01*
X67504761Y131183334D01*
X67600000Y131469048D01*
X68457142Y132992858D02*
X68552380Y133278572D01*
X68647619Y133373810D01*
X68838095Y133469048D01*
X69123809Y133469048D01*
X69314285Y133373810D01*
X69409523Y133278572D01*
X69504761Y133088096D01*
X69504761Y132326191D01*
X67504761Y132326191D01*
X67504761Y132992858D01*
X67600000Y133183334D01*
X67695238Y133278572D01*
X67885714Y133373810D01*
X68076190Y133373810D01*
X68266666Y133278572D01*
X68361904Y133183334D01*
X68457142Y132992858D01*
X68457142Y132326191D01*
X12284761Y121712858D02*
X11237142Y121712858D01*
X11046666Y121617620D01*
X10951428Y121427143D01*
X10951428Y121046191D01*
X11046666Y120855715D01*
X12189523Y121712858D02*
X12284761Y121522381D01*
X12284761Y121046191D01*
X12189523Y120855715D01*
X11999047Y120760477D01*
X11808571Y120760477D01*
X11618095Y120855715D01*
X11522857Y121046191D01*
X11522857Y121522381D01*
X11427619Y121712858D01*
X10951428Y122379524D02*
X10951428Y123141429D01*
X10284761Y122665239D02*
X11999047Y122665239D01*
X12189523Y122760477D01*
X12284761Y122950953D01*
X12284761Y123141429D01*
X10951428Y123522381D02*
X10951428Y124284286D01*
X10284761Y123808096D02*
X11999047Y123808096D01*
X12189523Y123903334D01*
X12284761Y124093810D01*
X12284761Y124284286D01*
X12284761Y124950953D02*
X10951428Y124950953D01*
X10284761Y124950953D02*
X10380000Y124855715D01*
X10475238Y124950953D01*
X10380000Y125046191D01*
X10284761Y124950953D01*
X10475238Y124950953D01*
X10951428Y125903334D02*
X12284761Y125903334D01*
X11141904Y125903334D02*
X11046666Y125998572D01*
X10951428Y126189048D01*
X10951428Y126474762D01*
X11046666Y126665239D01*
X11237142Y126760477D01*
X12284761Y126760477D01*
X10951428Y127522381D02*
X12284761Y127998572D01*
X10951428Y128474762D02*
X12284761Y127998572D01*
X12760952Y127808096D01*
X12856190Y127712858D01*
X12951428Y127522381D01*
X35594761Y131499048D02*
X35594761Y130546667D01*
X33594761Y130546667D01*
X35404285Y133308572D02*
X35499523Y133213334D01*
X35594761Y132927620D01*
X35594761Y132737143D01*
X35499523Y132451429D01*
X35309047Y132260953D01*
X35118571Y132165715D01*
X34737619Y132070477D01*
X34451904Y132070477D01*
X34070952Y132165715D01*
X33880476Y132260953D01*
X33690000Y132451429D01*
X33594761Y132737143D01*
X33594761Y132927620D01*
X33690000Y133213334D01*
X33785238Y133308572D01*
X35594761Y134165715D02*
X33594761Y134165715D01*
X33594761Y134641905D01*
X33690000Y134927620D01*
X33880476Y135118096D01*
X34070952Y135213334D01*
X34451904Y135308572D01*
X34737619Y135308572D01*
X35118571Y135213334D01*
X35309047Y135118096D01*
X35499523Y134927620D01*
X35594761Y134641905D01*
X35594761Y134165715D01*
D10*
X79620000Y670000D02*
X79620000Y44670000D01*
X19620000Y44670000D02*
X19620000Y670000D01*
X79620000Y670000D02*
X19620000Y670000D01*
X19620000Y44670000D02*
X79620000Y44670000D01*
D13*
X90720000Y121710000D02*
G75*
G03*
X90720000Y121710000I-1150000J0D01*
G01*
X90720000Y118376667D02*
G75*
G03*
X90720000Y118376667I-1150000J0D01*
G01*
X90720000Y111710000D02*
G75*
G03*
X90720000Y111710000I-1150000J0D01*
G01*
X90700000Y115050000D02*
G75*
G03*
X90700000Y115050000I-1150000J0D01*
G01*
X42020000Y128808000D02*
G75*
G03*
X42020000Y128808000I-1150000J0D01*
G01*
X42020000Y136422000D02*
G75*
G03*
X42020000Y136422000I-1150000J0D01*
G01*
X42020000Y131346000D02*
G75*
G03*
X42020000Y131346000I-1150000J0D01*
G01*
X5008000Y128140000D02*
G75*
G03*
X5008000Y128140000I-1150000J0D01*
G01*
X42020000Y138960000D02*
G75*
G03*
X42020000Y138960000I-1150000J0D01*
G01*
X42020000Y133884000D02*
G75*
G03*
X42020000Y133884000I-1150000J0D01*
G01*
X42020000Y126270000D02*
G75*
G03*
X42020000Y126270000I-1150000J0D01*
G01*
X5008000Y120950000D02*
G75*
G03*
X5008000Y120950000I-1150000J0D01*
G01*
X5008000Y124545000D02*
G75*
G03*
X5008000Y124545000I-1150000J0D01*
G01*
X76160000Y127260000D02*
G75*
G03*
X76160000Y127260000I-1150000J0D01*
G01*
X76180000Y130890000D02*
G75*
G03*
X76180000Y130890000I-1150000J0D01*
G01*
X76180000Y134520000D02*
G75*
G03*
X76180000Y134520000I-1150000J0D01*
G01*
X71850000Y80990000D02*
G75*
G03*
X71850000Y80990000I-1150000J0D01*
G01*
X71850000Y84630000D02*
G75*
G03*
X71850000Y84630000I-1150000J0D01*
G01*
X71850000Y88270000D02*
G75*
G03*
X71850000Y88270000I-1150000J0D01*
G01*
D14*
X85630000Y17880000D02*
X85630000Y19280000D01*
X85630000Y19280000D02*
X89430000Y19280000D01*
X89430000Y10080000D02*
X85630000Y10080000D01*
X85630000Y10080000D02*
X85630000Y11480000D01*
X85630000Y16480000D02*
X85630000Y15380000D01*
X85630000Y15380000D02*
X85630000Y15380000D01*
X85630000Y13980000D02*
X85630000Y12880000D01*
X85630000Y12880000D02*
X85630000Y12880000D01*
X89430000Y19280000D02*
X89430000Y17580000D01*
X89430000Y17580000D02*
X89730000Y17580000D01*
X89730000Y17580000D02*
X89730000Y16780000D01*
X89730000Y16780000D02*
X89430000Y16780000D01*
X89430000Y16780000D02*
X89430000Y15080000D01*
X89430000Y15080000D02*
X89730000Y15080000D01*
X89730000Y15080000D02*
X89730000Y14280000D01*
X89730000Y14280000D02*
X89430000Y14280000D01*
X89430000Y14280000D02*
X89430000Y12580000D01*
X89430000Y12580000D02*
X89730000Y12580000D01*
X89730000Y12580000D02*
X89730000Y11780000D01*
X89730000Y11780000D02*
X89430000Y11780000D01*
X89430000Y11780000D02*
X89430000Y10080000D01*
X89430000Y10080000D02*
X89430000Y10080000D01*
X91330000Y12680000D02*
X90830000Y12680000D01*
X90830000Y12680000D02*
X90830000Y12680000D01*
X91330000Y12680000D02*
X91330000Y13180000D01*
X91330000Y13180000D02*
X91330000Y13180000D01*
X91330000Y16680000D02*
X91330000Y16180000D01*
X91330000Y16180000D02*
X91330000Y16180000D01*
X91330000Y16680000D02*
X90830000Y16680000D01*
X90830000Y16680000D02*
X90830000Y16680000D01*
X90530000Y16680000D02*
X90030000Y16680000D01*
X90030000Y16680000D02*
X90030000Y16680000D01*
X90530000Y12680000D02*
X90030000Y12680000D01*
X90030000Y12680000D02*
X90030000Y12680000D01*
X91330000Y13480000D02*
X91330000Y13980000D01*
X91330000Y13980000D02*
X91330000Y13980000D01*
X91330000Y15880000D02*
X91330000Y15380000D01*
X91330000Y15380000D02*
X91330000Y15380000D01*
X91330000Y15080000D02*
X91330000Y14280000D01*
X91330000Y14280000D02*
X91330000Y14280000D01*
D15*
X6336500Y21945000D02*
X13562800Y21945000D01*
X6336500Y18135000D02*
X13562800Y18135000D01*
X14743900Y20763900D02*
X13562800Y21945000D01*
X14743900Y19316100D02*
X13562800Y18135000D01*
X5384000Y19087500D02*
X5384000Y20992500D01*
X5384000Y19087500D02*
G75*
G03*
X6336500Y18135000I952500J0D01*
G01*
X6336500Y21945000D02*
G75*
G03*
X5384000Y20992500I0J-952500D01*
G01*
X14743900Y19316100D02*
G75*
G03*
X14743900Y20763900I-723900J723900D01*
G01*
D14*
X12850000Y11390000D02*
X12850000Y10260000D01*
X12090000Y11390000D02*
X12850000Y11390000D01*
X12785000Y8682470D02*
X12785000Y7860000D01*
X12785000Y9500000D02*
X12785000Y9297530D01*
X12653471Y9500000D02*
X12785000Y9500000D01*
X11383471Y9500000D02*
X11526529Y9500000D01*
X11330000Y9696529D02*
X11330000Y9553471D01*
X11330000Y11390000D02*
X11330000Y10823471D01*
X12785000Y7860000D02*
X6315000Y7860000D01*
X11330000Y11390000D02*
X6315000Y11390000D01*
X6315000Y9952470D02*
X6315000Y9297530D01*
X6315000Y8682470D02*
X6315000Y7860000D01*
X6315000Y11390000D02*
X6315000Y10567530D01*
X16705001Y40915001D02*
X16705001Y43575001D01*
X9025001Y40915001D02*
X16705001Y40915001D01*
X9025001Y43575001D02*
X16705001Y43575001D01*
X9025001Y40915001D02*
X9025001Y43575001D01*
X7755001Y40915001D02*
X6425001Y40915001D01*
X6425001Y40915001D02*
X6425001Y42245001D01*
X6425001Y48045001D02*
X6425001Y49375001D01*
X7755001Y48045001D02*
X6425001Y48045001D01*
X9025001Y48045001D02*
X9025001Y50705001D01*
X9025001Y50705001D02*
X16705001Y50705001D01*
X9025001Y48045001D02*
X16705001Y48045001D01*
X16705001Y48045001D02*
X16705001Y50705001D01*
X6425001Y55175001D02*
X6425001Y56505001D01*
X7755001Y55175001D02*
X6425001Y55175001D01*
X9025001Y55175001D02*
X9025001Y57835001D01*
X9025001Y57835001D02*
X16705001Y57835001D01*
X9025001Y55175001D02*
X16705001Y55175001D01*
X16705001Y55175001D02*
X16705001Y57835001D01*
X13490000Y34510000D02*
X13490000Y33180000D01*
X12160000Y34510000D02*
X13490000Y34510000D01*
X13490000Y31910000D02*
X13490000Y29310000D01*
X10890000Y31910000D02*
X13490000Y31910000D01*
X10890000Y34510000D02*
X10890000Y31910000D01*
X13490000Y29310000D02*
X5750000Y29310000D01*
X10890000Y34510000D02*
X5750000Y34510000D01*
X5750000Y34510000D02*
X5750000Y29310000D01*
X82760000Y58310000D02*
X84090000Y58310000D01*
X82760000Y56980000D02*
X82760000Y58310000D01*
X82760000Y55710000D02*
X85420000Y55710000D01*
X85420000Y55710000D02*
X85420000Y48030000D01*
X82760000Y55710000D02*
X82760000Y48030000D01*
X82760000Y48030000D02*
X85420000Y48030000D01*
X85300000Y58310000D02*
X86630000Y58310000D01*
X85300000Y56980000D02*
X85300000Y58310000D01*
X85300000Y55710000D02*
X87960000Y55710000D01*
X87960000Y55710000D02*
X87960000Y48030000D01*
X85300000Y55710000D02*
X85300000Y48030000D01*
X85300000Y48030000D02*
X87960000Y48030000D01*
X80220000Y48030000D02*
X82880000Y48030000D01*
X80220000Y55710000D02*
X80220000Y48030000D01*
X82880000Y55710000D02*
X82880000Y48030000D01*
X80220000Y55710000D02*
X82880000Y55710000D01*
X80220000Y56980000D02*
X80220000Y58310000D01*
X80220000Y58310000D02*
X81550000Y58310000D01*
X78230000Y68050000D02*
X78230000Y66720000D01*
X76900000Y68050000D02*
X78230000Y68050000D01*
X78230000Y65450000D02*
X78230000Y62850000D01*
X75630000Y65450000D02*
X78230000Y65450000D01*
X75630000Y68050000D02*
X75630000Y65450000D01*
X78230000Y62850000D02*
X27310000Y62850000D01*
X75630000Y68050000D02*
X27310000Y68050000D01*
X27310000Y68050000D02*
X27310000Y62850000D01*
X3330000Y50115000D02*
X1045000Y50115000D01*
X1045000Y50115000D02*
X1045000Y48645000D01*
X1045000Y48645000D02*
X3330000Y48645000D01*
X1045000Y55805000D02*
X3330000Y55805000D01*
X1045000Y57275000D02*
X1045000Y55805000D01*
X3330000Y57275000D02*
X1045000Y57275000D01*
X24320000Y56330000D02*
X25650000Y56330000D01*
X24320000Y55000000D02*
X24320000Y56330000D01*
X24320000Y53730000D02*
X26980000Y53730000D01*
X26980000Y53730000D02*
X26980000Y48590000D01*
X24320000Y53730000D02*
X24320000Y48590000D01*
X24320000Y48590000D02*
X26980000Y48590000D01*
X29300000Y48590000D02*
X31960000Y48590000D01*
X29300000Y53730000D02*
X29300000Y48590000D01*
X31960000Y53730000D02*
X31960000Y48590000D01*
X29300000Y53730000D02*
X31960000Y53730000D01*
X29300000Y55000000D02*
X29300000Y56330000D01*
X29300000Y56330000D02*
X30630000Y56330000D01*
D10*
X79776666Y122237620D02*
X79776666Y121523334D01*
X79729047Y121380477D01*
X79633809Y121285239D01*
X79490952Y121237620D01*
X79395714Y121237620D01*
X80776666Y121237620D02*
X80205238Y121237620D01*
X80490952Y121237620D02*
X80490952Y122237620D01*
X80395714Y122094762D01*
X80300476Y121999524D01*
X80205238Y121951905D01*
X84793809Y122227620D02*
X85412857Y122227620D01*
X85079523Y121846667D01*
X85222380Y121846667D01*
X85317619Y121799048D01*
X85365238Y121751429D01*
X85412857Y121656191D01*
X85412857Y121418096D01*
X85365238Y121322858D01*
X85317619Y121275239D01*
X85222380Y121227620D01*
X84936666Y121227620D01*
X84841428Y121275239D01*
X84793809Y121322858D01*
X85841428Y121322858D02*
X85889047Y121275239D01*
X85841428Y121227620D01*
X85793809Y121275239D01*
X85841428Y121322858D01*
X85841428Y121227620D01*
X86222380Y122227620D02*
X86841428Y122227620D01*
X86508095Y121846667D01*
X86650952Y121846667D01*
X86746190Y121799048D01*
X86793809Y121751429D01*
X86841428Y121656191D01*
X86841428Y121418096D01*
X86793809Y121322858D01*
X86746190Y121275239D01*
X86650952Y121227620D01*
X86365238Y121227620D01*
X86270000Y121275239D01*
X86222380Y121322858D01*
X87127142Y122227620D02*
X87460476Y121227620D01*
X87793809Y122227620D01*
X79776666Y118897620D02*
X79776666Y118183334D01*
X79729047Y118040477D01*
X79633809Y117945239D01*
X79490952Y117897620D01*
X79395714Y117897620D01*
X80205238Y118802381D02*
X80252857Y118850000D01*
X80348095Y118897620D01*
X80586190Y118897620D01*
X80681428Y118850000D01*
X80729047Y118802381D01*
X80776666Y118707143D01*
X80776666Y118611905D01*
X80729047Y118469048D01*
X80157619Y117897620D01*
X80776666Y117897620D01*
X85628095Y118880000D02*
X85532857Y118927620D01*
X85390000Y118927620D01*
X85247142Y118880000D01*
X85151904Y118784762D01*
X85104285Y118689524D01*
X85056666Y118499048D01*
X85056666Y118356191D01*
X85104285Y118165715D01*
X85151904Y118070477D01*
X85247142Y117975239D01*
X85390000Y117927620D01*
X85485238Y117927620D01*
X85628095Y117975239D01*
X85675714Y118022858D01*
X85675714Y118356191D01*
X85485238Y118356191D01*
X86104285Y117927620D02*
X86104285Y118927620D01*
X86675714Y117927620D01*
X86675714Y118927620D01*
X87151904Y117927620D02*
X87151904Y118927620D01*
X87390000Y118927620D01*
X87532857Y118880000D01*
X87628095Y118784762D01*
X87675714Y118689524D01*
X87723333Y118499048D01*
X87723333Y118356191D01*
X87675714Y118165715D01*
X87628095Y118070477D01*
X87532857Y117975239D01*
X87390000Y117927620D01*
X87151904Y117927620D01*
X79886666Y112257620D02*
X79886666Y111543334D01*
X79839047Y111400477D01*
X79743809Y111305239D01*
X79600952Y111257620D01*
X79505714Y111257620D01*
X80267619Y112257620D02*
X80886666Y112257620D01*
X80553333Y111876667D01*
X80696190Y111876667D01*
X80791428Y111829048D01*
X80839047Y111781429D01*
X80886666Y111686191D01*
X80886666Y111448096D01*
X80839047Y111352858D01*
X80791428Y111305239D01*
X80696190Y111257620D01*
X80410476Y111257620D01*
X80315238Y111305239D01*
X80267619Y111352858D01*
X81976666Y112257620D02*
X81976666Y111448096D01*
X82024285Y111352858D01*
X82071904Y111305239D01*
X82167142Y111257620D01*
X82357619Y111257620D01*
X82452857Y111305239D01*
X82500476Y111352858D01*
X82548095Y111448096D01*
X82548095Y112257620D01*
X82976666Y111543334D02*
X83452857Y111543334D01*
X82881428Y111257620D02*
X83214761Y112257620D01*
X83548095Y111257620D01*
X84452857Y111257620D02*
X84119523Y111733810D01*
X83881428Y111257620D02*
X83881428Y112257620D01*
X84262380Y112257620D01*
X84357619Y112210000D01*
X84405238Y112162381D01*
X84452857Y112067143D01*
X84452857Y111924286D01*
X84405238Y111829048D01*
X84357619Y111781429D01*
X84262380Y111733810D01*
X83881428Y111733810D01*
X84738571Y112257620D02*
X85310000Y112257620D01*
X85024285Y111257620D02*
X85024285Y112257620D01*
X85405238Y111162381D02*
X86167142Y111162381D01*
X86262380Y112257620D02*
X86833809Y112257620D01*
X86548095Y111257620D02*
X86548095Y112257620D01*
X87071904Y112257620D02*
X87738571Y111257620D01*
X87738571Y112257620D02*
X87071904Y111257620D01*
X79816666Y115587620D02*
X79816666Y114873334D01*
X79769047Y114730477D01*
X79673809Y114635239D01*
X79530952Y114587620D01*
X79435714Y114587620D01*
X80721428Y115254286D02*
X80721428Y114587620D01*
X80483333Y115635239D02*
X80245238Y114920953D01*
X80864285Y114920953D01*
X81777619Y115607620D02*
X81777619Y114798096D01*
X81825238Y114702858D01*
X81872857Y114655239D01*
X81968095Y114607620D01*
X82158571Y114607620D01*
X82253809Y114655239D01*
X82301428Y114702858D01*
X82349047Y114798096D01*
X82349047Y115607620D01*
X82777619Y114893334D02*
X83253809Y114893334D01*
X82682380Y114607620D02*
X83015714Y115607620D01*
X83349047Y114607620D01*
X84253809Y114607620D02*
X83920476Y115083810D01*
X83682380Y114607620D02*
X83682380Y115607620D01*
X84063333Y115607620D01*
X84158571Y115560000D01*
X84206190Y115512381D01*
X84253809Y115417143D01*
X84253809Y115274286D01*
X84206190Y115179048D01*
X84158571Y115131429D01*
X84063333Y115083810D01*
X83682380Y115083810D01*
X84539523Y115607620D02*
X85110952Y115607620D01*
X84825238Y114607620D02*
X84825238Y115607620D01*
X85206190Y114512381D02*
X85968095Y114512381D01*
X86777619Y114607620D02*
X86444285Y115083810D01*
X86206190Y114607620D02*
X86206190Y115607620D01*
X86587142Y115607620D01*
X86682380Y115560000D01*
X86730000Y115512381D01*
X86777619Y115417143D01*
X86777619Y115274286D01*
X86730000Y115179048D01*
X86682380Y115131429D01*
X86587142Y115083810D01*
X86206190Y115083810D01*
X87110952Y115607620D02*
X87777619Y114607620D01*
X87777619Y115607620D02*
X87110952Y114607620D01*
X37436666Y129357620D02*
X37436666Y128643334D01*
X37389047Y128500477D01*
X37293809Y128405239D01*
X37150952Y128357620D01*
X37055714Y128357620D01*
X38389047Y129357620D02*
X37912857Y129357620D01*
X37865238Y128881429D01*
X37912857Y128929048D01*
X38008095Y128976667D01*
X38246190Y128976667D01*
X38341428Y128929048D01*
X38389047Y128881429D01*
X38436666Y128786191D01*
X38436666Y128548096D01*
X38389047Y128452858D01*
X38341428Y128405239D01*
X38246190Y128357620D01*
X38008095Y128357620D01*
X37912857Y128405239D01*
X37865238Y128452858D01*
X43362380Y128357620D02*
X42886190Y128357620D01*
X42886190Y129357620D01*
X44267142Y128452858D02*
X44219523Y128405239D01*
X44076666Y128357620D01*
X43981428Y128357620D01*
X43838571Y128405239D01*
X43743333Y128500477D01*
X43695714Y128595715D01*
X43648095Y128786191D01*
X43648095Y128929048D01*
X43695714Y129119524D01*
X43743333Y129214762D01*
X43838571Y129310000D01*
X43981428Y129357620D01*
X44076666Y129357620D01*
X44219523Y129310000D01*
X44267142Y129262381D01*
X44695714Y128357620D02*
X44695714Y129357620D01*
X44933809Y129357620D01*
X45076666Y129310000D01*
X45171904Y129214762D01*
X45219523Y129119524D01*
X45267142Y128929048D01*
X45267142Y128786191D01*
X45219523Y128595715D01*
X45171904Y128500477D01*
X45076666Y128405239D01*
X44933809Y128357620D01*
X44695714Y128357620D01*
X45457619Y128262381D02*
X46219523Y128262381D01*
X46410000Y128405239D02*
X46552857Y128357620D01*
X46790952Y128357620D01*
X46886190Y128405239D01*
X46933809Y128452858D01*
X46981428Y128548096D01*
X46981428Y128643334D01*
X46933809Y128738572D01*
X46886190Y128786191D01*
X46790952Y128833810D01*
X46600476Y128881429D01*
X46505238Y128929048D01*
X46457619Y128976667D01*
X46410000Y129071905D01*
X46410000Y129167143D01*
X46457619Y129262381D01*
X46505238Y129310000D01*
X46600476Y129357620D01*
X46838571Y129357620D01*
X46981428Y129310000D01*
X47981428Y128452858D02*
X47933809Y128405239D01*
X47790952Y128357620D01*
X47695714Y128357620D01*
X47552857Y128405239D01*
X47457619Y128500477D01*
X47410000Y128595715D01*
X47362380Y128786191D01*
X47362380Y128929048D01*
X47410000Y129119524D01*
X47457619Y129214762D01*
X47552857Y129310000D01*
X47695714Y129357620D01*
X47790952Y129357620D01*
X47933809Y129310000D01*
X47981428Y129262381D01*
X48410000Y128357620D02*
X48410000Y129357620D01*
X48981428Y128357620D02*
X48552857Y128929048D01*
X48981428Y129357620D02*
X48410000Y128786191D01*
X37466666Y136987620D02*
X37466666Y136273334D01*
X37419047Y136130477D01*
X37323809Y136035239D01*
X37180952Y135987620D01*
X37085714Y135987620D01*
X38371428Y136987620D02*
X38180952Y136987620D01*
X38085714Y136940000D01*
X38038095Y136892381D01*
X37942857Y136749524D01*
X37895238Y136559048D01*
X37895238Y136178096D01*
X37942857Y136082858D01*
X37990476Y136035239D01*
X38085714Y135987620D01*
X38276190Y135987620D01*
X38371428Y136035239D01*
X38419047Y136082858D01*
X38466666Y136178096D01*
X38466666Y136416191D01*
X38419047Y136511429D01*
X38371428Y136559048D01*
X38276190Y136606667D01*
X38085714Y136606667D01*
X37990476Y136559048D01*
X37942857Y136511429D01*
X37895238Y136416191D01*
X43359047Y135967620D02*
X42882857Y135967620D01*
X42882857Y136967620D01*
X44263809Y136062858D02*
X44216190Y136015239D01*
X44073333Y135967620D01*
X43978095Y135967620D01*
X43835238Y136015239D01*
X43740000Y136110477D01*
X43692380Y136205715D01*
X43644761Y136396191D01*
X43644761Y136539048D01*
X43692380Y136729524D01*
X43740000Y136824762D01*
X43835238Y136920000D01*
X43978095Y136967620D01*
X44073333Y136967620D01*
X44216190Y136920000D01*
X44263809Y136872381D01*
X44692380Y135967620D02*
X44692380Y136967620D01*
X44930476Y136967620D01*
X45073333Y136920000D01*
X45168571Y136824762D01*
X45216190Y136729524D01*
X45263809Y136539048D01*
X45263809Y136396191D01*
X45216190Y136205715D01*
X45168571Y136110477D01*
X45073333Y136015239D01*
X44930476Y135967620D01*
X44692380Y135967620D01*
X45454285Y135872381D02*
X46216190Y135872381D01*
X46454285Y135967620D02*
X46454285Y136967620D01*
X46787619Y136253334D01*
X47120952Y136967620D01*
X47120952Y135967620D01*
X47787619Y136967620D02*
X47978095Y136967620D01*
X48073333Y136920000D01*
X48168571Y136824762D01*
X48216190Y136634286D01*
X48216190Y136300953D01*
X48168571Y136110477D01*
X48073333Y136015239D01*
X47978095Y135967620D01*
X47787619Y135967620D01*
X47692380Y136015239D01*
X47597142Y136110477D01*
X47549523Y136300953D01*
X47549523Y136634286D01*
X47597142Y136824762D01*
X47692380Y136920000D01*
X47787619Y136967620D01*
X48597142Y136015239D02*
X48740000Y135967620D01*
X48978095Y135967620D01*
X49073333Y136015239D01*
X49120952Y136062858D01*
X49168571Y136158096D01*
X49168571Y136253334D01*
X49120952Y136348572D01*
X49073333Y136396191D01*
X48978095Y136443810D01*
X48787619Y136491429D01*
X48692380Y136539048D01*
X48644761Y136586667D01*
X48597142Y136681905D01*
X48597142Y136777143D01*
X48644761Y136872381D01*
X48692380Y136920000D01*
X48787619Y136967620D01*
X49025714Y136967620D01*
X49168571Y136920000D01*
X49597142Y135967620D02*
X49597142Y136967620D01*
X37476666Y131907620D02*
X37476666Y131193334D01*
X37429047Y131050477D01*
X37333809Y130955239D01*
X37190952Y130907620D01*
X37095714Y130907620D01*
X38095714Y131479048D02*
X38000476Y131526667D01*
X37952857Y131574286D01*
X37905238Y131669524D01*
X37905238Y131717143D01*
X37952857Y131812381D01*
X38000476Y131860000D01*
X38095714Y131907620D01*
X38286190Y131907620D01*
X38381428Y131860000D01*
X38429047Y131812381D01*
X38476666Y131717143D01*
X38476666Y131669524D01*
X38429047Y131574286D01*
X38381428Y131526667D01*
X38286190Y131479048D01*
X38095714Y131479048D01*
X38000476Y131431429D01*
X37952857Y131383810D01*
X37905238Y131288572D01*
X37905238Y131098096D01*
X37952857Y131002858D01*
X38000476Y130955239D01*
X38095714Y130907620D01*
X38286190Y130907620D01*
X38381428Y130955239D01*
X38429047Y131002858D01*
X38476666Y131098096D01*
X38476666Y131288572D01*
X38429047Y131383810D01*
X38381428Y131431429D01*
X38286190Y131479048D01*
X43337142Y130887620D02*
X42860952Y130887620D01*
X42860952Y131887620D01*
X44241904Y130982858D02*
X44194285Y130935239D01*
X44051428Y130887620D01*
X43956190Y130887620D01*
X43813333Y130935239D01*
X43718095Y131030477D01*
X43670476Y131125715D01*
X43622857Y131316191D01*
X43622857Y131459048D01*
X43670476Y131649524D01*
X43718095Y131744762D01*
X43813333Y131840000D01*
X43956190Y131887620D01*
X44051428Y131887620D01*
X44194285Y131840000D01*
X44241904Y131792381D01*
X44670476Y130887620D02*
X44670476Y131887620D01*
X44908571Y131887620D01*
X45051428Y131840000D01*
X45146666Y131744762D01*
X45194285Y131649524D01*
X45241904Y131459048D01*
X45241904Y131316191D01*
X45194285Y131125715D01*
X45146666Y131030477D01*
X45051428Y130935239D01*
X44908571Y130887620D01*
X44670476Y130887620D01*
X45432380Y130792381D02*
X46194285Y130792381D01*
X46337142Y131887620D02*
X46575238Y130887620D01*
X46765714Y131601905D01*
X46956190Y130887620D01*
X47194285Y131887620D01*
X48146666Y130887620D02*
X47813333Y131363810D01*
X47575238Y130887620D02*
X47575238Y131887620D01*
X47956190Y131887620D01*
X48051428Y131840000D01*
X48099047Y131792381D01*
X48146666Y131697143D01*
X48146666Y131554286D01*
X48099047Y131459048D01*
X48051428Y131411429D01*
X47956190Y131363810D01*
X47575238Y131363810D01*
X-69524Y128657620D02*
X-69524Y127943334D01*
X-117143Y127800477D01*
X-212381Y127705239D01*
X-355239Y127657620D01*
X-450477Y127657620D01*
X930476Y127657620D02*
X359047Y127657620D01*
X644761Y127657620D02*
X644761Y128657620D01*
X549523Y128514762D01*
X454285Y128419524D01*
X359047Y128371905D01*
X1406666Y127657620D02*
X1597142Y127657620D01*
X1692380Y127705239D01*
X1740000Y127752858D01*
X1835238Y127895715D01*
X1882857Y128086191D01*
X1882857Y128467143D01*
X1835238Y128562381D01*
X1787619Y128610000D01*
X1692380Y128657620D01*
X1501904Y128657620D01*
X1406666Y128610000D01*
X1359047Y128562381D01*
X1311428Y128467143D01*
X1311428Y128229048D01*
X1359047Y128133810D01*
X1406666Y128086191D01*
X1501904Y128038572D01*
X1692380Y128038572D01*
X1787619Y128086191D01*
X1835238Y128133810D01*
X1882857Y128229048D01*
X5993809Y128577620D02*
X6612857Y128577620D01*
X6279523Y128196667D01*
X6422380Y128196667D01*
X6517619Y128149048D01*
X6565238Y128101429D01*
X6612857Y128006191D01*
X6612857Y127768096D01*
X6565238Y127672858D01*
X6517619Y127625239D01*
X6422380Y127577620D01*
X6136666Y127577620D01*
X6041428Y127625239D01*
X5993809Y127672858D01*
X7041428Y127672858D02*
X7089047Y127625239D01*
X7041428Y127577620D01*
X6993809Y127625239D01*
X7041428Y127672858D01*
X7041428Y127577620D01*
X7422380Y128577620D02*
X8041428Y128577620D01*
X7708095Y128196667D01*
X7850952Y128196667D01*
X7946190Y128149048D01*
X7993809Y128101429D01*
X8041428Y128006191D01*
X8041428Y127768096D01*
X7993809Y127672858D01*
X7946190Y127625239D01*
X7850952Y127577620D01*
X7565238Y127577620D01*
X7470000Y127625239D01*
X7422380Y127672858D01*
X8327142Y128577620D02*
X8660476Y127577620D01*
X8993809Y128577620D01*
X37000476Y139567620D02*
X37000476Y138853334D01*
X36952857Y138710477D01*
X36857619Y138615239D01*
X36714761Y138567620D01*
X36619523Y138567620D01*
X37429047Y139472381D02*
X37476666Y139520000D01*
X37571904Y139567620D01*
X37810000Y139567620D01*
X37905238Y139520000D01*
X37952857Y139472381D01*
X38000476Y139377143D01*
X38000476Y139281905D01*
X37952857Y139139048D01*
X37381428Y138567620D01*
X38000476Y138567620D01*
X38381428Y139472381D02*
X38429047Y139520000D01*
X38524285Y139567620D01*
X38762380Y139567620D01*
X38857619Y139520000D01*
X38905238Y139472381D01*
X38952857Y139377143D01*
X38952857Y139281905D01*
X38905238Y139139048D01*
X38333809Y138567620D01*
X38952857Y138567620D01*
X43359047Y138487620D02*
X42882857Y138487620D01*
X42882857Y139487620D01*
X44263809Y138582858D02*
X44216190Y138535239D01*
X44073333Y138487620D01*
X43978095Y138487620D01*
X43835238Y138535239D01*
X43740000Y138630477D01*
X43692380Y138725715D01*
X43644761Y138916191D01*
X43644761Y139059048D01*
X43692380Y139249524D01*
X43740000Y139344762D01*
X43835238Y139440000D01*
X43978095Y139487620D01*
X44073333Y139487620D01*
X44216190Y139440000D01*
X44263809Y139392381D01*
X44692380Y138487620D02*
X44692380Y139487620D01*
X44930476Y139487620D01*
X45073333Y139440000D01*
X45168571Y139344762D01*
X45216190Y139249524D01*
X45263809Y139059048D01*
X45263809Y138916191D01*
X45216190Y138725715D01*
X45168571Y138630477D01*
X45073333Y138535239D01*
X44930476Y138487620D01*
X44692380Y138487620D01*
X45454285Y138392381D02*
X46216190Y138392381D01*
X46454285Y138487620D02*
X46454285Y139487620D01*
X46787619Y138773334D01*
X47120952Y139487620D01*
X47120952Y138487620D01*
X47597142Y138487620D02*
X47597142Y139487620D01*
X48025714Y138535239D02*
X48168571Y138487620D01*
X48406666Y138487620D01*
X48501904Y138535239D01*
X48549523Y138582858D01*
X48597142Y138678096D01*
X48597142Y138773334D01*
X48549523Y138868572D01*
X48501904Y138916191D01*
X48406666Y138963810D01*
X48216190Y139011429D01*
X48120952Y139059048D01*
X48073333Y139106667D01*
X48025714Y139201905D01*
X48025714Y139297143D01*
X48073333Y139392381D01*
X48120952Y139440000D01*
X48216190Y139487620D01*
X48454285Y139487620D01*
X48597142Y139440000D01*
X49216190Y139487620D02*
X49406666Y139487620D01*
X49501904Y139440000D01*
X49597142Y139344762D01*
X49644761Y139154286D01*
X49644761Y138820953D01*
X49597142Y138630477D01*
X49501904Y138535239D01*
X49406666Y138487620D01*
X49216190Y138487620D01*
X49120952Y138535239D01*
X49025714Y138630477D01*
X48978095Y138820953D01*
X48978095Y139154286D01*
X49025714Y139344762D01*
X49120952Y139440000D01*
X49216190Y139487620D01*
X36920476Y134427620D02*
X36920476Y133713334D01*
X36872857Y133570477D01*
X36777619Y133475239D01*
X36634761Y133427620D01*
X36539523Y133427620D01*
X37349047Y134332381D02*
X37396666Y134380000D01*
X37491904Y134427620D01*
X37730000Y134427620D01*
X37825238Y134380000D01*
X37872857Y134332381D01*
X37920476Y134237143D01*
X37920476Y134141905D01*
X37872857Y133999048D01*
X37301428Y133427620D01*
X37920476Y133427620D01*
X38253809Y134427620D02*
X38872857Y134427620D01*
X38539523Y134046667D01*
X38682380Y134046667D01*
X38777619Y133999048D01*
X38825238Y133951429D01*
X38872857Y133856191D01*
X38872857Y133618096D01*
X38825238Y133522858D01*
X38777619Y133475239D01*
X38682380Y133427620D01*
X38396666Y133427620D01*
X38301428Y133475239D01*
X38253809Y133522858D01*
X43348571Y133427620D02*
X42872380Y133427620D01*
X42872380Y134427620D01*
X44253333Y133522858D02*
X44205714Y133475239D01*
X44062857Y133427620D01*
X43967619Y133427620D01*
X43824761Y133475239D01*
X43729523Y133570477D01*
X43681904Y133665715D01*
X43634285Y133856191D01*
X43634285Y133999048D01*
X43681904Y134189524D01*
X43729523Y134284762D01*
X43824761Y134380000D01*
X43967619Y134427620D01*
X44062857Y134427620D01*
X44205714Y134380000D01*
X44253333Y134332381D01*
X44681904Y133427620D02*
X44681904Y134427620D01*
X44920000Y134427620D01*
X45062857Y134380000D01*
X45158095Y134284762D01*
X45205714Y134189524D01*
X45253333Y133999048D01*
X45253333Y133856191D01*
X45205714Y133665715D01*
X45158095Y133570477D01*
X45062857Y133475239D01*
X44920000Y133427620D01*
X44681904Y133427620D01*
X45443809Y133332381D02*
X46205714Y133332381D01*
X47015238Y133427620D02*
X46681904Y133903810D01*
X46443809Y133427620D02*
X46443809Y134427620D01*
X46824761Y134427620D01*
X46920000Y134380000D01*
X46967619Y134332381D01*
X47015238Y134237143D01*
X47015238Y134094286D01*
X46967619Y133999048D01*
X46920000Y133951429D01*
X46824761Y133903810D01*
X46443809Y133903810D01*
X47443809Y133427620D02*
X47443809Y134427620D01*
X47681904Y134427620D01*
X47824761Y134380000D01*
X47920000Y134284762D01*
X47967619Y134189524D01*
X48015238Y133999048D01*
X48015238Y133856191D01*
X47967619Y133665715D01*
X47920000Y133570477D01*
X47824761Y133475239D01*
X47681904Y133427620D01*
X47443809Y133427620D01*
X36920476Y126777620D02*
X36920476Y126063334D01*
X36872857Y125920477D01*
X36777619Y125825239D01*
X36634761Y125777620D01*
X36539523Y125777620D01*
X37349047Y126682381D02*
X37396666Y126730000D01*
X37491904Y126777620D01*
X37730000Y126777620D01*
X37825238Y126730000D01*
X37872857Y126682381D01*
X37920476Y126587143D01*
X37920476Y126491905D01*
X37872857Y126349048D01*
X37301428Y125777620D01*
X37920476Y125777620D01*
X38777619Y126444286D02*
X38777619Y125777620D01*
X38539523Y126825239D02*
X38301428Y126110953D01*
X38920476Y126110953D01*
X43375238Y125787620D02*
X42899047Y125787620D01*
X42899047Y126787620D01*
X44280000Y125882858D02*
X44232380Y125835239D01*
X44089523Y125787620D01*
X43994285Y125787620D01*
X43851428Y125835239D01*
X43756190Y125930477D01*
X43708571Y126025715D01*
X43660952Y126216191D01*
X43660952Y126359048D01*
X43708571Y126549524D01*
X43756190Y126644762D01*
X43851428Y126740000D01*
X43994285Y126787620D01*
X44089523Y126787620D01*
X44232380Y126740000D01*
X44280000Y126692381D01*
X44708571Y125787620D02*
X44708571Y126787620D01*
X44946666Y126787620D01*
X45089523Y126740000D01*
X45184761Y126644762D01*
X45232380Y126549524D01*
X45280000Y126359048D01*
X45280000Y126216191D01*
X45232380Y126025715D01*
X45184761Y125930477D01*
X45089523Y125835239D01*
X44946666Y125787620D01*
X44708571Y125787620D01*
X45470476Y125692381D02*
X46232380Y125692381D01*
X46327619Y126787620D02*
X46899047Y126787620D01*
X46613333Y125787620D02*
X46613333Y126787620D01*
X47232380Y126311429D02*
X47565714Y126311429D01*
X47708571Y125787620D02*
X47232380Y125787620D01*
X47232380Y126787620D01*
X47708571Y126787620D01*
X-39524Y121527620D02*
X-39524Y120813334D01*
X-87143Y120670477D01*
X-182381Y120575239D01*
X-325239Y120527620D01*
X-420477Y120527620D01*
X389047Y121432381D02*
X436666Y121480000D01*
X531904Y121527620D01*
X770000Y121527620D01*
X865238Y121480000D01*
X912857Y121432381D01*
X960476Y121337143D01*
X960476Y121241905D01*
X912857Y121099048D01*
X341428Y120527620D01*
X960476Y120527620D01*
X1531904Y121099048D02*
X1436666Y121146667D01*
X1389047Y121194286D01*
X1341428Y121289524D01*
X1341428Y121337143D01*
X1389047Y121432381D01*
X1436666Y121480000D01*
X1531904Y121527620D01*
X1722380Y121527620D01*
X1817619Y121480000D01*
X1865238Y121432381D01*
X1912857Y121337143D01*
X1912857Y121289524D01*
X1865238Y121194286D01*
X1817619Y121146667D01*
X1722380Y121099048D01*
X1531904Y121099048D01*
X1436666Y121051429D01*
X1389047Y121003810D01*
X1341428Y120908572D01*
X1341428Y120718096D01*
X1389047Y120622858D01*
X1436666Y120575239D01*
X1531904Y120527620D01*
X1722380Y120527620D01*
X1817619Y120575239D01*
X1865238Y120622858D01*
X1912857Y120718096D01*
X1912857Y120908572D01*
X1865238Y121003810D01*
X1817619Y121051429D01*
X1722380Y121099048D01*
X6136190Y121497620D02*
X6136190Y120688096D01*
X6183809Y120592858D01*
X6231428Y120545239D01*
X6326666Y120497620D01*
X6517142Y120497620D01*
X6612380Y120545239D01*
X6660000Y120592858D01*
X6707619Y120688096D01*
X6707619Y121497620D01*
X7183809Y120497620D02*
X7183809Y121497620D01*
X7564761Y121497620D01*
X7660000Y121450000D01*
X7707619Y121402381D01*
X7755238Y121307143D01*
X7755238Y121164286D01*
X7707619Y121069048D01*
X7660000Y121021429D01*
X7564761Y120973810D01*
X7183809Y120973810D01*
X8183809Y120497620D02*
X8183809Y121497620D01*
X8421904Y121497620D01*
X8564761Y121450000D01*
X8660000Y121354762D01*
X8707619Y121259524D01*
X8755238Y121069048D01*
X8755238Y120926191D01*
X8707619Y120735715D01*
X8660000Y120640477D01*
X8564761Y120545239D01*
X8421904Y120497620D01*
X8183809Y120497620D01*
X9183809Y120497620D02*
X9183809Y121497620D01*
X-19524Y125077620D02*
X-19524Y124363334D01*
X-67143Y124220477D01*
X-162381Y124125239D01*
X-305239Y124077620D01*
X-400477Y124077620D01*
X409047Y124982381D02*
X456666Y125030000D01*
X551904Y125077620D01*
X790000Y125077620D01*
X885238Y125030000D01*
X932857Y124982381D01*
X980476Y124887143D01*
X980476Y124791905D01*
X932857Y124649048D01*
X361428Y124077620D01*
X980476Y124077620D01*
X1456666Y124077620D02*
X1647142Y124077620D01*
X1742380Y124125239D01*
X1790000Y124172858D01*
X1885238Y124315715D01*
X1932857Y124506191D01*
X1932857Y124887143D01*
X1885238Y124982381D01*
X1837619Y125030000D01*
X1742380Y125077620D01*
X1551904Y125077620D01*
X1456666Y125030000D01*
X1409047Y124982381D01*
X1361428Y124887143D01*
X1361428Y124649048D01*
X1409047Y124553810D01*
X1456666Y124506191D01*
X1551904Y124458572D01*
X1742380Y124458572D01*
X1837619Y124506191D01*
X1885238Y124553810D01*
X1932857Y124649048D01*
X6568095Y124950000D02*
X6472857Y124997620D01*
X6330000Y124997620D01*
X6187142Y124950000D01*
X6091904Y124854762D01*
X6044285Y124759524D01*
X5996666Y124569048D01*
X5996666Y124426191D01*
X6044285Y124235715D01*
X6091904Y124140477D01*
X6187142Y124045239D01*
X6330000Y123997620D01*
X6425238Y123997620D01*
X6568095Y124045239D01*
X6615714Y124092858D01*
X6615714Y124426191D01*
X6425238Y124426191D01*
X7044285Y123997620D02*
X7044285Y124997620D01*
X7615714Y123997620D01*
X7615714Y124997620D01*
X8091904Y123997620D02*
X8091904Y124997620D01*
X8330000Y124997620D01*
X8472857Y124950000D01*
X8568095Y124854762D01*
X8615714Y124759524D01*
X8663333Y124569048D01*
X8663333Y124426191D01*
X8615714Y124235715D01*
X8568095Y124140477D01*
X8472857Y124045239D01*
X8330000Y123997620D01*
X8091904Y123997620D01*
X70980476Y127777620D02*
X70980476Y127063334D01*
X70932857Y126920477D01*
X70837619Y126825239D01*
X70694761Y126777620D01*
X70599523Y126777620D01*
X71361428Y127777620D02*
X71980476Y127777620D01*
X71647142Y127396667D01*
X71790000Y127396667D01*
X71885238Y127349048D01*
X71932857Y127301429D01*
X71980476Y127206191D01*
X71980476Y126968096D01*
X71932857Y126872858D01*
X71885238Y126825239D01*
X71790000Y126777620D01*
X71504285Y126777620D01*
X71409047Y126825239D01*
X71361428Y126872858D01*
X72599523Y127777620D02*
X72694761Y127777620D01*
X72790000Y127730000D01*
X72837619Y127682381D01*
X72885238Y127587143D01*
X72932857Y127396667D01*
X72932857Y127158572D01*
X72885238Y126968096D01*
X72837619Y126872858D01*
X72790000Y126825239D01*
X72694761Y126777620D01*
X72599523Y126777620D01*
X72504285Y126825239D01*
X72456666Y126872858D01*
X72409047Y126968096D01*
X72361428Y127158572D01*
X72361428Y127396667D01*
X72409047Y127587143D01*
X72456666Y127682381D01*
X72504285Y127730000D01*
X72599523Y127777620D01*
X77179047Y127747620D02*
X77179047Y126938096D01*
X77226666Y126842858D01*
X77274285Y126795239D01*
X77369523Y126747620D01*
X77560000Y126747620D01*
X77655238Y126795239D01*
X77702857Y126842858D01*
X77750476Y126938096D01*
X77750476Y127747620D01*
X78179047Y126795239D02*
X78321904Y126747620D01*
X78560000Y126747620D01*
X78655238Y126795239D01*
X78702857Y126842858D01*
X78750476Y126938096D01*
X78750476Y127033334D01*
X78702857Y127128572D01*
X78655238Y127176191D01*
X78560000Y127223810D01*
X78369523Y127271429D01*
X78274285Y127319048D01*
X78226666Y127366667D01*
X78179047Y127461905D01*
X78179047Y127557143D01*
X78226666Y127652381D01*
X78274285Y127700000D01*
X78369523Y127747620D01*
X78607619Y127747620D01*
X78750476Y127700000D01*
X79512380Y127271429D02*
X79655238Y127223810D01*
X79702857Y127176191D01*
X79750476Y127080953D01*
X79750476Y126938096D01*
X79702857Y126842858D01*
X79655238Y126795239D01*
X79560000Y126747620D01*
X79179047Y126747620D01*
X79179047Y127747620D01*
X79512380Y127747620D01*
X79607619Y127700000D01*
X79655238Y127652381D01*
X79702857Y127557143D01*
X79702857Y127461905D01*
X79655238Y127366667D01*
X79607619Y127319048D01*
X79512380Y127271429D01*
X79179047Y127271429D01*
X80179047Y127128572D02*
X80940952Y127128572D01*
X70950476Y131417620D02*
X70950476Y130703334D01*
X70902857Y130560477D01*
X70807619Y130465239D01*
X70664761Y130417620D01*
X70569523Y130417620D01*
X71331428Y131417620D02*
X71950476Y131417620D01*
X71617142Y131036667D01*
X71760000Y131036667D01*
X71855238Y130989048D01*
X71902857Y130941429D01*
X71950476Y130846191D01*
X71950476Y130608096D01*
X71902857Y130512858D01*
X71855238Y130465239D01*
X71760000Y130417620D01*
X71474285Y130417620D01*
X71379047Y130465239D01*
X71331428Y130512858D01*
X72902857Y130417620D02*
X72331428Y130417620D01*
X72617142Y130417620D02*
X72617142Y131417620D01*
X72521904Y131274762D01*
X72426666Y131179524D01*
X72331428Y131131905D01*
X77239047Y131417620D02*
X77239047Y130608096D01*
X77286666Y130512858D01*
X77334285Y130465239D01*
X77429523Y130417620D01*
X77620000Y130417620D01*
X77715238Y130465239D01*
X77762857Y130512858D01*
X77810476Y130608096D01*
X77810476Y131417620D01*
X78239047Y130465239D02*
X78381904Y130417620D01*
X78620000Y130417620D01*
X78715238Y130465239D01*
X78762857Y130512858D01*
X78810476Y130608096D01*
X78810476Y130703334D01*
X78762857Y130798572D01*
X78715238Y130846191D01*
X78620000Y130893810D01*
X78429523Y130941429D01*
X78334285Y130989048D01*
X78286666Y131036667D01*
X78239047Y131131905D01*
X78239047Y131227143D01*
X78286666Y131322381D01*
X78334285Y131370000D01*
X78429523Y131417620D01*
X78667619Y131417620D01*
X78810476Y131370000D01*
X79572380Y130941429D02*
X79715238Y130893810D01*
X79762857Y130846191D01*
X79810476Y130750953D01*
X79810476Y130608096D01*
X79762857Y130512858D01*
X79715238Y130465239D01*
X79620000Y130417620D01*
X79239047Y130417620D01*
X79239047Y131417620D01*
X79572380Y131417620D01*
X79667619Y131370000D01*
X79715238Y131322381D01*
X79762857Y131227143D01*
X79762857Y131131905D01*
X79715238Y131036667D01*
X79667619Y130989048D01*
X79572380Y130941429D01*
X79239047Y130941429D01*
X80239047Y130798572D02*
X81000952Y130798572D01*
X80620000Y130417620D02*
X80620000Y131179524D01*
X70910476Y135017620D02*
X70910476Y134303334D01*
X70862857Y134160477D01*
X70767619Y134065239D01*
X70624761Y134017620D01*
X70529523Y134017620D01*
X71291428Y135017620D02*
X71910476Y135017620D01*
X71577142Y134636667D01*
X71720000Y134636667D01*
X71815238Y134589048D01*
X71862857Y134541429D01*
X71910476Y134446191D01*
X71910476Y134208096D01*
X71862857Y134112858D01*
X71815238Y134065239D01*
X71720000Y134017620D01*
X71434285Y134017620D01*
X71339047Y134065239D01*
X71291428Y134112858D01*
X72291428Y134922381D02*
X72339047Y134970000D01*
X72434285Y135017620D01*
X72672380Y135017620D01*
X72767619Y134970000D01*
X72815238Y134922381D01*
X72862857Y134827143D01*
X72862857Y134731905D01*
X72815238Y134589048D01*
X72243809Y134017620D01*
X72862857Y134017620D01*
X77196666Y134977620D02*
X77530000Y133977620D01*
X77863333Y134977620D01*
X78530000Y134501429D02*
X78672857Y134453810D01*
X78720476Y134406191D01*
X78768095Y134310953D01*
X78768095Y134168096D01*
X78720476Y134072858D01*
X78672857Y134025239D01*
X78577619Y133977620D01*
X78196666Y133977620D01*
X78196666Y134977620D01*
X78530000Y134977620D01*
X78625238Y134930000D01*
X78672857Y134882381D01*
X78720476Y134787143D01*
X78720476Y134691905D01*
X78672857Y134596667D01*
X78625238Y134549048D01*
X78530000Y134501429D01*
X78196666Y134501429D01*
X79196666Y134977620D02*
X79196666Y134168096D01*
X79244285Y134072858D01*
X79291904Y134025239D01*
X79387142Y133977620D01*
X79577619Y133977620D01*
X79672857Y134025239D01*
X79720476Y134072858D01*
X79768095Y134168096D01*
X79768095Y134977620D01*
X80196666Y134025239D02*
X80339523Y133977620D01*
X80577619Y133977620D01*
X80672857Y134025239D01*
X80720476Y134072858D01*
X80768095Y134168096D01*
X80768095Y134263334D01*
X80720476Y134358572D01*
X80672857Y134406191D01*
X80577619Y134453810D01*
X80387142Y134501429D01*
X80291904Y134549048D01*
X80244285Y134596667D01*
X80196666Y134691905D01*
X80196666Y134787143D01*
X80244285Y134882381D01*
X80291904Y134930000D01*
X80387142Y134977620D01*
X80625238Y134977620D01*
X80768095Y134930000D01*
X66780476Y81517620D02*
X66780476Y80803334D01*
X66732857Y80660477D01*
X66637619Y80565239D01*
X66494761Y80517620D01*
X66399523Y80517620D01*
X67161428Y81517620D02*
X67780476Y81517620D01*
X67447142Y81136667D01*
X67590000Y81136667D01*
X67685238Y81089048D01*
X67732857Y81041429D01*
X67780476Y80946191D01*
X67780476Y80708096D01*
X67732857Y80612858D01*
X67685238Y80565239D01*
X67590000Y80517620D01*
X67304285Y80517620D01*
X67209047Y80565239D01*
X67161428Y80612858D01*
X68113809Y81517620D02*
X68732857Y81517620D01*
X68399523Y81136667D01*
X68542380Y81136667D01*
X68637619Y81089048D01*
X68685238Y81041429D01*
X68732857Y80946191D01*
X68732857Y80708096D01*
X68685238Y80612858D01*
X68637619Y80565239D01*
X68542380Y80517620D01*
X68256666Y80517620D01*
X68161428Y80565239D01*
X68113809Y80612858D01*
X72890952Y80605239D02*
X73033809Y80557620D01*
X73271904Y80557620D01*
X73367142Y80605239D01*
X73414761Y80652858D01*
X73462380Y80748096D01*
X73462380Y80843334D01*
X73414761Y80938572D01*
X73367142Y80986191D01*
X73271904Y81033810D01*
X73081428Y81081429D01*
X72986190Y81129048D01*
X72938571Y81176667D01*
X72890952Y81271905D01*
X72890952Y81367143D01*
X72938571Y81462381D01*
X72986190Y81510000D01*
X73081428Y81557620D01*
X73319523Y81557620D01*
X73462380Y81510000D01*
X73795714Y81557620D02*
X74033809Y80557620D01*
X74224285Y81271905D01*
X74414761Y80557620D01*
X74652857Y81557620D01*
X75033809Y80557620D02*
X75033809Y81557620D01*
X75271904Y81557620D01*
X75414761Y81510000D01*
X75510000Y81414762D01*
X75557619Y81319524D01*
X75605238Y81129048D01*
X75605238Y80986191D01*
X75557619Y80795715D01*
X75510000Y80700477D01*
X75414761Y80605239D01*
X75271904Y80557620D01*
X75033809Y80557620D01*
X76033809Y80557620D02*
X76033809Y81557620D01*
X76700476Y81557620D02*
X76890952Y81557620D01*
X76986190Y81510000D01*
X77081428Y81414762D01*
X77129047Y81224286D01*
X77129047Y80890953D01*
X77081428Y80700477D01*
X76986190Y80605239D01*
X76890952Y80557620D01*
X76700476Y80557620D01*
X76605238Y80605239D01*
X76510000Y80700477D01*
X76462380Y80890953D01*
X76462380Y81224286D01*
X76510000Y81414762D01*
X76605238Y81510000D01*
X76700476Y81557620D01*
X66860476Y85187620D02*
X66860476Y84473334D01*
X66812857Y84330477D01*
X66717619Y84235239D01*
X66574761Y84187620D01*
X66479523Y84187620D01*
X67241428Y85187620D02*
X67860476Y85187620D01*
X67527142Y84806667D01*
X67670000Y84806667D01*
X67765238Y84759048D01*
X67812857Y84711429D01*
X67860476Y84616191D01*
X67860476Y84378096D01*
X67812857Y84282858D01*
X67765238Y84235239D01*
X67670000Y84187620D01*
X67384285Y84187620D01*
X67289047Y84235239D01*
X67241428Y84282858D01*
X68717619Y84854286D02*
X68717619Y84187620D01*
X68479523Y85235239D02*
X68241428Y84520953D01*
X68860476Y84520953D01*
X72858095Y84225239D02*
X73000952Y84177620D01*
X73239047Y84177620D01*
X73334285Y84225239D01*
X73381904Y84272858D01*
X73429523Y84368096D01*
X73429523Y84463334D01*
X73381904Y84558572D01*
X73334285Y84606191D01*
X73239047Y84653810D01*
X73048571Y84701429D01*
X72953333Y84749048D01*
X72905714Y84796667D01*
X72858095Y84891905D01*
X72858095Y84987143D01*
X72905714Y85082381D01*
X72953333Y85130000D01*
X73048571Y85177620D01*
X73286666Y85177620D01*
X73429523Y85130000D01*
X73762857Y85177620D02*
X74000952Y84177620D01*
X74191428Y84891905D01*
X74381904Y84177620D01*
X74620000Y85177620D01*
X75572380Y84272858D02*
X75524761Y84225239D01*
X75381904Y84177620D01*
X75286666Y84177620D01*
X75143809Y84225239D01*
X75048571Y84320477D01*
X75000952Y84415715D01*
X74953333Y84606191D01*
X74953333Y84749048D01*
X75000952Y84939524D01*
X75048571Y85034762D01*
X75143809Y85130000D01*
X75286666Y85177620D01*
X75381904Y85177620D01*
X75524761Y85130000D01*
X75572380Y85082381D01*
X76477142Y84177620D02*
X76000952Y84177620D01*
X76000952Y85177620D01*
X76810476Y84177620D02*
X76810476Y85177620D01*
X77381904Y84177620D02*
X76953333Y84749048D01*
X77381904Y85177620D02*
X76810476Y84606191D01*
X66930476Y88787620D02*
X66930476Y88073334D01*
X66882857Y87930477D01*
X66787619Y87835239D01*
X66644761Y87787620D01*
X66549523Y87787620D01*
X67311428Y88787620D02*
X67930476Y88787620D01*
X67597142Y88406667D01*
X67740000Y88406667D01*
X67835238Y88359048D01*
X67882857Y88311429D01*
X67930476Y88216191D01*
X67930476Y87978096D01*
X67882857Y87882858D01*
X67835238Y87835239D01*
X67740000Y87787620D01*
X67454285Y87787620D01*
X67359047Y87835239D01*
X67311428Y87882858D01*
X68835238Y88787620D02*
X68359047Y88787620D01*
X68311428Y88311429D01*
X68359047Y88359048D01*
X68454285Y88406667D01*
X68692380Y88406667D01*
X68787619Y88359048D01*
X68835238Y88311429D01*
X68882857Y88216191D01*
X68882857Y87978096D01*
X68835238Y87882858D01*
X68787619Y87835239D01*
X68692380Y87787620D01*
X68454285Y87787620D01*
X68359047Y87835239D01*
X68311428Y87882858D01*
X72879047Y87885239D02*
X73021904Y87837620D01*
X73260000Y87837620D01*
X73355238Y87885239D01*
X73402857Y87932858D01*
X73450476Y88028096D01*
X73450476Y88123334D01*
X73402857Y88218572D01*
X73355238Y88266191D01*
X73260000Y88313810D01*
X73069523Y88361429D01*
X72974285Y88409048D01*
X72926666Y88456667D01*
X72879047Y88551905D01*
X72879047Y88647143D01*
X72926666Y88742381D01*
X72974285Y88790000D01*
X73069523Y88837620D01*
X73307619Y88837620D01*
X73450476Y88790000D01*
X73783809Y88837620D02*
X74021904Y87837620D01*
X74212380Y88551905D01*
X74402857Y87837620D01*
X74640952Y88837620D01*
X75212380Y88837620D02*
X75402857Y88837620D01*
X75498095Y88790000D01*
X75593333Y88694762D01*
X75640952Y88504286D01*
X75640952Y88170953D01*
X75593333Y87980477D01*
X75498095Y87885239D01*
X75402857Y87837620D01*
X75212380Y87837620D01*
X75117142Y87885239D01*
X75021904Y87980477D01*
X74974285Y88170953D01*
X74974285Y88504286D01*
X75021904Y88694762D01*
X75117142Y88790000D01*
X75212380Y88837620D01*
X85708986Y19769259D02*
X85851843Y19721640D01*
X86089939Y19721640D01*
X86185177Y19769259D01*
X86232796Y19816878D01*
X86280415Y19912116D01*
X86280415Y20007354D01*
X86232796Y20102592D01*
X86185177Y20150211D01*
X86089939Y20197830D01*
X85899462Y20245449D01*
X85804224Y20293068D01*
X85756605Y20340687D01*
X85708986Y20435925D01*
X85708986Y20531163D01*
X85756605Y20626401D01*
X85804224Y20674020D01*
X85899462Y20721640D01*
X86137558Y20721640D01*
X86280415Y20674020D01*
X86613748Y20721640D02*
X86851843Y19721640D01*
X87042320Y20435925D01*
X87232796Y19721640D01*
X87470891Y20721640D01*
X88375653Y19721640D02*
X87804224Y19721640D01*
X88089939Y19721640D02*
X88089939Y20721640D01*
X87994700Y20578782D01*
X87899462Y20483544D01*
X87804224Y20435925D01*
D15*
X14245056Y22297116D02*
X14785713Y22297116D01*
X14893844Y22261072D01*
X14965932Y22188984D01*
X15001976Y22080853D01*
X15001976Y22008765D01*
X15001976Y23054036D02*
X15001976Y22621510D01*
X15001976Y22837773D02*
X14245056Y22837773D01*
X14353187Y22765685D01*
X14425275Y22693598D01*
X14461319Y22621510D01*
X14317143Y23342386D02*
X14281100Y23378430D01*
X14245056Y23450518D01*
X14245056Y23630737D01*
X14281100Y23702824D01*
X14317143Y23738868D01*
X14389231Y23774912D01*
X14461319Y23774912D01*
X14569450Y23738868D01*
X15001976Y23306342D01*
X15001976Y23774912D01*
D10*
X14980476Y10257620D02*
X14980476Y9543334D01*
X14932857Y9400477D01*
X14837619Y9305239D01*
X14694761Y9257620D01*
X14599523Y9257620D01*
X15980476Y9257620D02*
X15409047Y9257620D01*
X15694761Y9257620D02*
X15694761Y10257620D01*
X15599523Y10114762D01*
X15504285Y10019524D01*
X15409047Y9971905D01*
X16932857Y9257620D02*
X16361428Y9257620D01*
X16647142Y9257620D02*
X16647142Y10257620D01*
X16551904Y10114762D01*
X16456666Y10019524D01*
X16361428Y9971905D01*
X17946666Y42827620D02*
X17946666Y42113334D01*
X17899047Y41970477D01*
X17803809Y41875239D01*
X17660952Y41827620D01*
X17565714Y41827620D01*
X18327619Y42827620D02*
X18994285Y42827620D01*
X18565714Y41827620D01*
X17866666Y49787620D02*
X17866666Y49073334D01*
X17819047Y48930477D01*
X17723809Y48835239D01*
X17580952Y48787620D01*
X17485714Y48787620D01*
X18390476Y48787620D02*
X18580952Y48787620D01*
X18676190Y48835239D01*
X18723809Y48882858D01*
X18819047Y49025715D01*
X18866666Y49216191D01*
X18866666Y49597143D01*
X18819047Y49692381D01*
X18771428Y49740000D01*
X18676190Y49787620D01*
X18485714Y49787620D01*
X18390476Y49740000D01*
X18342857Y49692381D01*
X18295238Y49597143D01*
X18295238Y49359048D01*
X18342857Y49263810D01*
X18390476Y49216191D01*
X18485714Y49168572D01*
X18676190Y49168572D01*
X18771428Y49216191D01*
X18819047Y49263810D01*
X18866666Y49359048D01*
X17860476Y56947620D02*
X17860476Y56233334D01*
X17812857Y56090477D01*
X17717619Y55995239D01*
X17574761Y55947620D01*
X17479523Y55947620D01*
X18860476Y55947620D02*
X18289047Y55947620D01*
X18574761Y55947620D02*
X18574761Y56947620D01*
X18479523Y56804762D01*
X18384285Y56709524D01*
X18289047Y56661905D01*
X19479523Y56947620D02*
X19574761Y56947620D01*
X19670000Y56900000D01*
X19717619Y56852381D01*
X19765238Y56757143D01*
X19812857Y56566667D01*
X19812857Y56328572D01*
X19765238Y56138096D01*
X19717619Y56042858D01*
X19670000Y55995239D01*
X19574761Y55947620D01*
X19479523Y55947620D01*
X19384285Y55995239D01*
X19336666Y56042858D01*
X19289047Y56138096D01*
X19241428Y56328572D01*
X19241428Y56566667D01*
X19289047Y56757143D01*
X19336666Y56852381D01*
X19384285Y56900000D01*
X19479523Y56947620D01*
X15550476Y30717620D02*
X15550476Y30003334D01*
X15502857Y29860477D01*
X15407619Y29765239D01*
X15264761Y29717620D01*
X15169523Y29717620D01*
X16550476Y29717620D02*
X15979047Y29717620D01*
X16264761Y29717620D02*
X16264761Y30717620D01*
X16169523Y30574762D01*
X16074285Y30479524D01*
X15979047Y30431905D01*
X16883809Y30717620D02*
X17502857Y30717620D01*
X17169523Y30336667D01*
X17312380Y30336667D01*
X17407619Y30289048D01*
X17455238Y30241429D01*
X17502857Y30146191D01*
X17502857Y29908096D01*
X17455238Y29812858D01*
X17407619Y29765239D01*
X17312380Y29717620D01*
X17026666Y29717620D01*
X16931428Y29765239D01*
X16883809Y29812858D01*
X83280476Y59857620D02*
X83280476Y59143334D01*
X83232857Y59000477D01*
X83137619Y58905239D01*
X82994761Y58857620D01*
X82899523Y58857620D01*
X84280476Y58857620D02*
X83709047Y58857620D01*
X83994761Y58857620D02*
X83994761Y59857620D01*
X83899523Y59714762D01*
X83804285Y59619524D01*
X83709047Y59571905D01*
X84613809Y59857620D02*
X85280476Y59857620D01*
X84851904Y58857620D01*
X86200476Y59847620D02*
X86200476Y59133334D01*
X86152857Y58990477D01*
X86057619Y58895239D01*
X85914761Y58847620D01*
X85819523Y58847620D01*
X87200476Y58847620D02*
X86629047Y58847620D01*
X86914761Y58847620D02*
X86914761Y59847620D01*
X86819523Y59704762D01*
X86724285Y59609524D01*
X86629047Y59561905D01*
X87771904Y59419048D02*
X87676666Y59466667D01*
X87629047Y59514286D01*
X87581428Y59609524D01*
X87581428Y59657143D01*
X87629047Y59752381D01*
X87676666Y59800000D01*
X87771904Y59847620D01*
X87962380Y59847620D01*
X88057619Y59800000D01*
X88105238Y59752381D01*
X88152857Y59657143D01*
X88152857Y59609524D01*
X88105238Y59514286D01*
X88057619Y59466667D01*
X87962380Y59419048D01*
X87771904Y59419048D01*
X87676666Y59371429D01*
X87629047Y59323810D01*
X87581428Y59228572D01*
X87581428Y59038096D01*
X87629047Y58942858D01*
X87676666Y58895239D01*
X87771904Y58847620D01*
X87962380Y58847620D01*
X88057619Y58895239D01*
X88105238Y58942858D01*
X88152857Y59038096D01*
X88152857Y59228572D01*
X88105238Y59323810D01*
X88057619Y59371429D01*
X87962380Y59419048D01*
X80400476Y59857620D02*
X80400476Y59143334D01*
X80352857Y59000477D01*
X80257619Y58905239D01*
X80114761Y58857620D01*
X80019523Y58857620D01*
X80829047Y59762381D02*
X80876666Y59810000D01*
X80971904Y59857620D01*
X81210000Y59857620D01*
X81305238Y59810000D01*
X81352857Y59762381D01*
X81400476Y59667143D01*
X81400476Y59571905D01*
X81352857Y59429048D01*
X80781428Y58857620D01*
X81400476Y58857620D01*
X82019523Y59857620D02*
X82114761Y59857620D01*
X82210000Y59810000D01*
X82257619Y59762381D01*
X82305238Y59667143D01*
X82352857Y59476667D01*
X82352857Y59238572D01*
X82305238Y59048096D01*
X82257619Y58952858D01*
X82210000Y58905239D01*
X82114761Y58857620D01*
X82019523Y58857620D01*
X81924285Y58905239D01*
X81876666Y58952858D01*
X81829047Y59048096D01*
X81781428Y59238572D01*
X81781428Y59476667D01*
X81829047Y59667143D01*
X81876666Y59762381D01*
X81924285Y59810000D01*
X82019523Y59857620D01*
X79510476Y64437620D02*
X79510476Y63723334D01*
X79462857Y63580477D01*
X79367619Y63485239D01*
X79224761Y63437620D01*
X79129523Y63437620D01*
X79939047Y64342381D02*
X79986666Y64390000D01*
X80081904Y64437620D01*
X80320000Y64437620D01*
X80415238Y64390000D01*
X80462857Y64342381D01*
X80510476Y64247143D01*
X80510476Y64151905D01*
X80462857Y64009048D01*
X79891428Y63437620D01*
X80510476Y63437620D01*
X81462857Y63437620D02*
X80891428Y63437620D01*
X81177142Y63437620D02*
X81177142Y64437620D01*
X81081904Y64294762D01*
X80986666Y64199524D01*
X80891428Y64151905D01*
X47352857Y73067620D02*
X46876666Y73067620D01*
X46876666Y74067620D01*
X48257619Y73162858D02*
X48210000Y73115239D01*
X48067142Y73067620D01*
X47971904Y73067620D01*
X47829047Y73115239D01*
X47733809Y73210477D01*
X47686190Y73305715D01*
X47638571Y73496191D01*
X47638571Y73639048D01*
X47686190Y73829524D01*
X47733809Y73924762D01*
X47829047Y74020000D01*
X47971904Y74067620D01*
X48067142Y74067620D01*
X48210000Y74020000D01*
X48257619Y73972381D01*
X48686190Y73067620D02*
X48686190Y74067620D01*
X48924285Y74067620D01*
X49067142Y74020000D01*
X49162380Y73924762D01*
X49210000Y73829524D01*
X49257619Y73639048D01*
X49257619Y73496191D01*
X49210000Y73305715D01*
X49162380Y73210477D01*
X49067142Y73115239D01*
X48924285Y73067620D01*
X48686190Y73067620D01*
X50781428Y73591429D02*
X50924285Y73543810D01*
X50971904Y73496191D01*
X51019523Y73400953D01*
X51019523Y73258096D01*
X50971904Y73162858D01*
X50924285Y73115239D01*
X50829047Y73067620D01*
X50448095Y73067620D01*
X50448095Y74067620D01*
X50781428Y74067620D01*
X50876666Y74020000D01*
X50924285Y73972381D01*
X50971904Y73877143D01*
X50971904Y73781905D01*
X50924285Y73686667D01*
X50876666Y73639048D01*
X50781428Y73591429D01*
X50448095Y73591429D01*
X51448095Y73067620D02*
X51448095Y73734286D01*
X51448095Y73543810D02*
X51495714Y73639048D01*
X51543333Y73686667D01*
X51638571Y73734286D01*
X51733809Y73734286D01*
X52448095Y73115239D02*
X52352857Y73067620D01*
X52162380Y73067620D01*
X52067142Y73115239D01*
X52019523Y73210477D01*
X52019523Y73591429D01*
X52067142Y73686667D01*
X52162380Y73734286D01*
X52352857Y73734286D01*
X52448095Y73686667D01*
X52495714Y73591429D01*
X52495714Y73496191D01*
X52019523Y73400953D01*
X53352857Y73067620D02*
X53352857Y73591429D01*
X53305238Y73686667D01*
X53210000Y73734286D01*
X53019523Y73734286D01*
X52924285Y73686667D01*
X53352857Y73115239D02*
X53257619Y73067620D01*
X53019523Y73067620D01*
X52924285Y73115239D01*
X52876666Y73210477D01*
X52876666Y73305715D01*
X52924285Y73400953D01*
X53019523Y73448572D01*
X53257619Y73448572D01*
X53352857Y73496191D01*
X53829047Y73067620D02*
X53829047Y74067620D01*
X53924285Y73448572D02*
X54210000Y73067620D01*
X54210000Y73734286D02*
X53829047Y73353334D01*
X54781428Y73067620D02*
X54686190Y73115239D01*
X54638571Y73162858D01*
X54590952Y73258096D01*
X54590952Y73543810D01*
X54638571Y73639048D01*
X54686190Y73686667D01*
X54781428Y73734286D01*
X54924285Y73734286D01*
X55019523Y73686667D01*
X55067142Y73639048D01*
X55114761Y73543810D01*
X55114761Y73258096D01*
X55067142Y73162858D01*
X55019523Y73115239D01*
X54924285Y73067620D01*
X54781428Y73067620D01*
X55971904Y73734286D02*
X55971904Y73067620D01*
X55543333Y73734286D02*
X55543333Y73210477D01*
X55590952Y73115239D01*
X55686190Y73067620D01*
X55829047Y73067620D01*
X55924285Y73115239D01*
X55971904Y73162858D01*
X56305238Y73734286D02*
X56686190Y73734286D01*
X56448095Y74067620D02*
X56448095Y73210477D01*
X56495714Y73115239D01*
X56590952Y73067620D01*
X56686190Y73067620D01*
X1791904Y50357620D02*
X1791904Y51357620D01*
X2030000Y51357620D01*
X2172857Y51310000D01*
X2268095Y51214762D01*
X2315714Y51119524D01*
X2363333Y50929048D01*
X2363333Y50786191D01*
X2315714Y50595715D01*
X2268095Y50500477D01*
X2172857Y50405239D01*
X2030000Y50357620D01*
X1791904Y50357620D01*
X2696666Y51357620D02*
X3315714Y51357620D01*
X2982380Y50976667D01*
X3125238Y50976667D01*
X3220476Y50929048D01*
X3268095Y50881429D01*
X3315714Y50786191D01*
X3315714Y50548096D01*
X3268095Y50452858D01*
X3220476Y50405239D01*
X3125238Y50357620D01*
X2839523Y50357620D01*
X2744285Y50405239D01*
X2696666Y50452858D01*
X-17620Y48497620D02*
X315714Y47497620D01*
X649047Y48497620D01*
X839523Y48164286D02*
X1220476Y48164286D01*
X982380Y48497620D02*
X982380Y47640477D01*
X1030000Y47545239D01*
X1125238Y47497620D01*
X1220476Y47497620D01*
X1982380Y47497620D02*
X1982380Y48021429D01*
X1934761Y48116667D01*
X1839523Y48164286D01*
X1649047Y48164286D01*
X1553809Y48116667D01*
X1982380Y47545239D02*
X1887142Y47497620D01*
X1649047Y47497620D01*
X1553809Y47545239D01*
X1506190Y47640477D01*
X1506190Y47735715D01*
X1553809Y47830953D01*
X1649047Y47878572D01*
X1887142Y47878572D01*
X1982380Y47926191D01*
X2458571Y47497620D02*
X2458571Y48164286D01*
X2458571Y47973810D02*
X2506190Y48069048D01*
X2553809Y48116667D01*
X2649047Y48164286D01*
X2744285Y48164286D01*
X3506190Y48164286D02*
X3506190Y47354762D01*
X3458571Y47259524D01*
X3410952Y47211905D01*
X3315714Y47164286D01*
X3172857Y47164286D01*
X3077619Y47211905D01*
X3506190Y47545239D02*
X3410952Y47497620D01*
X3220476Y47497620D01*
X3125238Y47545239D01*
X3077619Y47592858D01*
X3030000Y47688096D01*
X3030000Y47973810D01*
X3077619Y48069048D01*
X3125238Y48116667D01*
X3220476Y48164286D01*
X3410952Y48164286D01*
X3506190Y48116667D01*
X4363333Y47545239D02*
X4268095Y47497620D01*
X4077619Y47497620D01*
X3982380Y47545239D01*
X3934761Y47640477D01*
X3934761Y48021429D01*
X3982380Y48116667D01*
X4077619Y48164286D01*
X4268095Y48164286D01*
X4363333Y48116667D01*
X4410952Y48021429D01*
X4410952Y47926191D01*
X3934761Y47830953D01*
X4696666Y48164286D02*
X5077619Y48164286D01*
X4839523Y48497620D02*
X4839523Y47640477D01*
X4887142Y47545239D01*
X4982380Y47497620D01*
X5077619Y47497620D01*
X1791904Y57517620D02*
X1791904Y58517620D01*
X2030000Y58517620D01*
X2172857Y58470000D01*
X2268095Y58374762D01*
X2315714Y58279524D01*
X2363333Y58089048D01*
X2363333Y57946191D01*
X2315714Y57755715D01*
X2268095Y57660477D01*
X2172857Y57565239D01*
X2030000Y57517620D01*
X1791904Y57517620D01*
X3268095Y58517620D02*
X2791904Y58517620D01*
X2744285Y58041429D01*
X2791904Y58089048D01*
X2887142Y58136667D01*
X3125238Y58136667D01*
X3220476Y58089048D01*
X3268095Y58041429D01*
X3315714Y57946191D01*
X3315714Y57708096D01*
X3268095Y57612858D01*
X3220476Y57565239D01*
X3125238Y57517620D01*
X2887142Y57517620D01*
X2791904Y57565239D01*
X2744285Y57612858D01*
X-208096Y55657620D02*
X125238Y54657620D01*
X458571Y55657620D01*
X744285Y54705239D02*
X839523Y54657620D01*
X1030000Y54657620D01*
X1125238Y54705239D01*
X1172857Y54800477D01*
X1172857Y54848096D01*
X1125238Y54943334D01*
X1030000Y54990953D01*
X887142Y54990953D01*
X791904Y55038572D01*
X744285Y55133810D01*
X744285Y55181429D01*
X791904Y55276667D01*
X887142Y55324286D01*
X1030000Y55324286D01*
X1125238Y55276667D01*
X2030000Y55324286D02*
X2030000Y54657620D01*
X1601428Y55324286D02*
X1601428Y54800477D01*
X1649047Y54705239D01*
X1744285Y54657620D01*
X1887142Y54657620D01*
X1982380Y54705239D01*
X2030000Y54752858D01*
X2506190Y55324286D02*
X2506190Y54324286D01*
X2506190Y55276667D02*
X2601428Y55324286D01*
X2791904Y55324286D01*
X2887142Y55276667D01*
X2934761Y55229048D01*
X2982380Y55133810D01*
X2982380Y54848096D01*
X2934761Y54752858D01*
X2887142Y54705239D01*
X2791904Y54657620D01*
X2601428Y54657620D01*
X2506190Y54705239D01*
X3410952Y55324286D02*
X3410952Y54324286D01*
X3410952Y55276667D02*
X3506190Y55324286D01*
X3696666Y55324286D01*
X3791904Y55276667D01*
X3839523Y55229048D01*
X3887142Y55133810D01*
X3887142Y54848096D01*
X3839523Y54752858D01*
X3791904Y54705239D01*
X3696666Y54657620D01*
X3506190Y54657620D01*
X3410952Y54705239D01*
X4458571Y54657620D02*
X4363333Y54705239D01*
X4315714Y54800477D01*
X4315714Y55657620D01*
X4744285Y55324286D02*
X4982380Y54657620D01*
X5220476Y55324286D02*
X4982380Y54657620D01*
X4887142Y54419524D01*
X4839523Y54371905D01*
X4744285Y54324286D01*
X24840476Y57877620D02*
X24840476Y57163334D01*
X24792857Y57020477D01*
X24697619Y56925239D01*
X24554761Y56877620D01*
X24459523Y56877620D01*
X25840476Y56877620D02*
X25269047Y56877620D01*
X25554761Y56877620D02*
X25554761Y57877620D01*
X25459523Y57734762D01*
X25364285Y57639524D01*
X25269047Y57591905D01*
X26697619Y57544286D02*
X26697619Y56877620D01*
X26459523Y57925239D02*
X26221428Y57210953D01*
X26840476Y57210953D01*
X29820476Y57877620D02*
X29820476Y57163334D01*
X29772857Y57020477D01*
X29677619Y56925239D01*
X29534761Y56877620D01*
X29439523Y56877620D01*
X30249047Y57782381D02*
X30296666Y57830000D01*
X30391904Y57877620D01*
X30630000Y57877620D01*
X30725238Y57830000D01*
X30772857Y57782381D01*
X30820476Y57687143D01*
X30820476Y57591905D01*
X30772857Y57449048D01*
X30201428Y56877620D01*
X30820476Y56877620D01*
X31725238Y57877620D02*
X31249047Y57877620D01*
X31201428Y57401429D01*
X31249047Y57449048D01*
X31344285Y57496667D01*
X31582380Y57496667D01*
X31677619Y57449048D01*
X31725238Y57401429D01*
X31772857Y57306191D01*
X31772857Y57068096D01*
X31725238Y56972858D01*
X31677619Y56925239D01*
X31582380Y56877620D01*
X31344285Y56877620D01*
X31249047Y56925239D01*
X31201428Y56972858D01*
%LPC*%
G36*
G01*
X60920000Y10420000D02*
X60920000Y34920000D01*
G75*
G02*
X62170000Y36170000I1250000J0D01*
G01*
X64670000Y36170000D01*
G75*
G02*
X65920000Y34920000I0J-1250000D01*
G01*
X65920000Y10420000D01*
G75*
G02*
X64670000Y9170000I-1250000J0D01*
G01*
X62170000Y9170000D01*
G75*
G02*
X60920000Y10420000I0J1250000D01*
G01*
G37*
D16*
X89570000Y121710000D03*
X89570000Y118376667D03*
X89570000Y111710000D03*
X89550000Y115050000D03*
X40870000Y128808000D03*
X40870000Y136422000D03*
X40870000Y131346000D03*
X3858000Y128140000D03*
X40870000Y138960000D03*
X40870000Y133884000D03*
X40870000Y126270000D03*
X3858000Y120950000D03*
X3858000Y124545000D03*
X75010000Y127260000D03*
X75030000Y130890000D03*
X75030000Y134520000D03*
X70700000Y80990000D03*
X70700000Y84630000D03*
X70700000Y88270000D03*
D17*
X87530000Y18080000D03*
X87530000Y11280000D03*
D18*
X84780000Y17180000D03*
X84780000Y14680000D03*
X84780000Y12180000D03*
D19*
X6400000Y21056000D03*
X6400000Y19024000D03*
D20*
X14020000Y20040000D03*
D21*
X10210000Y19405000D03*
X10210000Y20675000D03*
X11480000Y19405000D03*
X11480000Y20675000D03*
X12750000Y19405000D03*
X12750000Y20675000D03*
X8940000Y20675000D03*
X8940000Y19405000D03*
X7670000Y20675000D03*
X7670000Y19405000D03*
D22*
X12090000Y10260000D03*
D23*
X12090000Y8990000D03*
X10820000Y10060000D03*
X10820000Y8790000D03*
X9550000Y10260000D03*
X9550000Y8990000D03*
X8280000Y10060000D03*
X8280000Y8790000D03*
X7010000Y10260000D03*
X7010000Y8990000D03*
D24*
X25860000Y1790000D03*
X34500000Y1790000D03*
D25*
X25860000Y7150000D03*
X34500000Y7150000D03*
D26*
X15375001Y42245001D03*
X12835001Y42245001D03*
X10295001Y42245001D03*
D27*
X7755001Y42245001D03*
X7755001Y49375001D03*
D26*
X10295001Y49375001D03*
X12835001Y49375001D03*
X15375001Y49375001D03*
D27*
X7755001Y56505001D03*
D26*
X10295001Y56505001D03*
X12835001Y56505001D03*
X15375001Y56505001D03*
D27*
X12160000Y33180000D03*
D26*
X12160000Y30640000D03*
X9620000Y33180000D03*
X9620000Y30640000D03*
X7080000Y33180000D03*
X7080000Y30640000D03*
D27*
X84090000Y56980000D03*
D26*
X84090000Y54440000D03*
X84090000Y51900000D03*
X84090000Y49360000D03*
D27*
X86630000Y56980000D03*
D26*
X86630000Y54440000D03*
X86630000Y51900000D03*
X86630000Y49360000D03*
X81550000Y49360000D03*
X81550000Y51900000D03*
X81550000Y54440000D03*
D27*
X81550000Y56980000D03*
X76900000Y66720000D03*
D26*
X76900000Y64180000D03*
X74360000Y66720000D03*
X74360000Y64180000D03*
X71820000Y66720000D03*
X71820000Y64180000D03*
X69280000Y66720000D03*
X69280000Y64180000D03*
X66740000Y66720000D03*
X66740000Y64180000D03*
X64200000Y66720000D03*
X64200000Y64180000D03*
X61660000Y66720000D03*
X61660000Y64180000D03*
X59120000Y66720000D03*
X59120000Y64180000D03*
X56580000Y66720000D03*
X56580000Y64180000D03*
X54040000Y66720000D03*
X54040000Y64180000D03*
X51500000Y66720000D03*
X51500000Y64180000D03*
X48960000Y66720000D03*
X48960000Y64180000D03*
X46420000Y66720000D03*
X46420000Y64180000D03*
X43880000Y66720000D03*
X43880000Y64180000D03*
X41340000Y66720000D03*
X41340000Y64180000D03*
X38800000Y66720000D03*
X38800000Y64180000D03*
X36260000Y66720000D03*
X36260000Y64180000D03*
X33720000Y66720000D03*
X33720000Y64180000D03*
X31180000Y66720000D03*
X31180000Y64180000D03*
X28640000Y66720000D03*
X28640000Y64180000D03*
G36*
G01*
X2880000Y49123750D02*
X2880000Y49636250D01*
G75*
G02*
X3098750Y49855000I218750J0D01*
G01*
X3536250Y49855000D01*
G75*
G02*
X3755000Y49636250I0J-218750D01*
G01*
X3755000Y49123750D01*
G75*
G02*
X3536250Y48905000I-218750J0D01*
G01*
X3098750Y48905000D01*
G75*
G02*
X2880000Y49123750I0J218750D01*
G01*
G37*
G36*
G01*
X1305000Y49123750D02*
X1305000Y49636250D01*
G75*
G02*
X1523750Y49855000I218750J0D01*
G01*
X1961250Y49855000D01*
G75*
G02*
X2180000Y49636250I0J-218750D01*
G01*
X2180000Y49123750D01*
G75*
G02*
X1961250Y48905000I-218750J0D01*
G01*
X1523750Y48905000D01*
G75*
G02*
X1305000Y49123750I0J218750D01*
G01*
G37*
G36*
G01*
X1305000Y56283750D02*
X1305000Y56796250D01*
G75*
G02*
X1523750Y57015000I218750J0D01*
G01*
X1961250Y57015000D01*
G75*
G02*
X2180000Y56796250I0J-218750D01*
G01*
X2180000Y56283750D01*
G75*
G02*
X1961250Y56065000I-218750J0D01*
G01*
X1523750Y56065000D01*
G75*
G02*
X1305000Y56283750I0J218750D01*
G01*
G37*
G36*
G01*
X2880000Y56283750D02*
X2880000Y56796250D01*
G75*
G02*
X3098750Y57015000I218750J0D01*
G01*
X3536250Y57015000D01*
G75*
G02*
X3755000Y56796250I0J-218750D01*
G01*
X3755000Y56283750D01*
G75*
G02*
X3536250Y56065000I-218750J0D01*
G01*
X3098750Y56065000D01*
G75*
G02*
X2880000Y56283750I0J218750D01*
G01*
G37*
D27*
X25650000Y55000000D03*
D26*
X25650000Y52460000D03*
X25650000Y49920000D03*
X30630000Y49920000D03*
X30630000Y52460000D03*
D27*
X30630000Y55000000D03*
M02*
