G04 #@! TF.GenerationSoftware,KiCad,Pcbnew,(5.1.9)-1*
G04 #@! TF.CreationDate,2021-01-16T04:06:45-07:00*
G04 #@! TF.ProjectId,purplewizard-pogo,70757270-6c65-4776-997a-6172642d706f,1*
G04 #@! TF.SameCoordinates,PX774a7a0PYac0e4a0*
G04 #@! TF.FileFunction,Other,Fab,Bot*
%FSLAX46Y46*%
G04 Gerber Fmt 4.6, Leading zero omitted, Abs format (unit mm)*
G04 Created by KiCad (PCBNEW (5.1.9)-1) date 2021-01-16 04:06:45*
%MOMM*%
%LPD*%
G01*
G04 APERTURE LIST*
%ADD10C,0.100000*%
%ADD11C,0.127000*%
%ADD12C,0.150000*%
%ADD13C,0.060000*%
%ADD14C,0.075000*%
%ADD15C,0.015000*%
G04 APERTURE END LIST*
D10*
X73780000Y7630000D02*
X78380000Y7630000D01*
X78380000Y7630000D02*
X78380000Y10630000D01*
X73780000Y10630000D02*
X73780000Y7630000D01*
X73780000Y10630000D02*
X78380000Y10630000D01*
X76729440Y9128980D02*
X77631140Y9128980D01*
X75578820Y9128980D02*
X74580600Y9128980D01*
X76729440Y9929080D02*
X76729440Y8328880D01*
X75578820Y8379680D02*
X75578820Y9929080D01*
X76729440Y9128980D02*
X75578820Y8379680D01*
X76729440Y9128980D02*
X75578820Y9929080D01*
X44160000Y17540000D02*
X42560000Y17540000D01*
X44160000Y16740000D02*
X44160000Y17540000D01*
X42560000Y16740000D02*
X44160000Y16740000D01*
X42560000Y17540000D02*
X42560000Y16740000D01*
X53600000Y22710000D02*
X53600000Y36760000D01*
X53600000Y36760000D02*
X58200000Y36760000D01*
X58200000Y36760000D02*
X58200000Y36160000D01*
X58200000Y36160000D02*
X58500000Y36160000D01*
X58500000Y36160000D02*
X58500000Y36660000D01*
X58500000Y36660000D02*
X59200000Y36660000D01*
X59200000Y36660000D02*
X59200000Y22710000D01*
X53600000Y22710000D02*
X53600000Y8660000D01*
X53600000Y8660000D02*
X58200000Y8660000D01*
X58200000Y8660000D02*
X58200000Y9260000D01*
X58200000Y9260000D02*
X58500000Y9260000D01*
X58500000Y9260000D02*
X58500000Y8760000D01*
X58500000Y8760000D02*
X59200000Y8760000D01*
X59200000Y8760000D02*
X59200000Y22710000D01*
X53600000Y35460000D02*
X54307107Y34960000D01*
X54307107Y34960000D02*
X53600000Y34460000D01*
X73780000Y13170000D02*
X78380000Y13170000D01*
X78380000Y13170000D02*
X78380000Y16170000D01*
X73780000Y16170000D02*
X73780000Y13170000D01*
X73780000Y16170000D02*
X78380000Y16170000D01*
X76729440Y14668980D02*
X77631140Y14668980D01*
X75578820Y14668980D02*
X74580600Y14668980D01*
X76729440Y15469080D02*
X76729440Y13868880D01*
X75578820Y13919680D02*
X75578820Y15469080D01*
X76729440Y14668980D02*
X75578820Y13919680D01*
X76729440Y14668980D02*
X75578820Y15469080D01*
X29556668Y12820000D02*
X29556668Y13620000D01*
X29556668Y13620000D02*
X27956668Y13620000D01*
X27956668Y13620000D02*
X27956668Y12820000D01*
X27956668Y12820000D02*
X29556668Y12820000D01*
X32583334Y12830000D02*
X32583334Y13630000D01*
X32583334Y13630000D02*
X30983334Y13630000D01*
X30983334Y13630000D02*
X30983334Y12830000D01*
X30983334Y12830000D02*
X32583334Y12830000D01*
X37940000Y7210000D02*
X37140000Y7210000D01*
X37140000Y7210000D02*
X37140000Y5610000D01*
X37140000Y5610000D02*
X37940000Y5610000D01*
X37940000Y5610000D02*
X37940000Y7210000D01*
X29290000Y17710000D02*
X28790000Y17210000D01*
X28790000Y17210000D02*
X28790000Y15310000D01*
X31790000Y17710000D02*
X29290000Y17710000D01*
X31790000Y15310000D02*
X31790000Y17710000D01*
X28790000Y15310000D02*
X31790000Y15310000D01*
X49490000Y35920000D02*
X48690000Y35920000D01*
X48690000Y35920000D02*
X48690000Y34320000D01*
X48690000Y34320000D02*
X49490000Y34320000D01*
X49490000Y34320000D02*
X49490000Y35920000D01*
X26080000Y13170000D02*
X26880000Y13170000D01*
X26880000Y13170000D02*
X26880000Y14770000D01*
X26880000Y14770000D02*
X26080000Y14770000D01*
X26080000Y14770000D02*
X26080000Y13170000D01*
X25420000Y11620000D02*
X25420000Y10820000D01*
X25420000Y10820000D02*
X27020000Y10820000D01*
X27020000Y10820000D02*
X27020000Y11620000D01*
X27020000Y11620000D02*
X25420000Y11620000D01*
X33350000Y11620000D02*
X33350000Y10820000D01*
X33350000Y10820000D02*
X34950000Y10820000D01*
X34950000Y10820000D02*
X34950000Y11620000D01*
X34950000Y11620000D02*
X33350000Y11620000D01*
X33660000Y13180000D02*
X34460000Y13180000D01*
X34460000Y13180000D02*
X34460000Y14780000D01*
X34460000Y14780000D02*
X33660000Y14780000D01*
X33660000Y14780000D02*
X33660000Y13180000D01*
D11*
X34650000Y-160000D02*
X25710000Y-160000D01*
X25710000Y-160000D02*
X25710000Y7740000D01*
X25710000Y7740000D02*
X34650000Y7740000D01*
X34650000Y7740000D02*
X34650000Y-160000D01*
D10*
X39610000Y7210000D02*
X38810000Y7210000D01*
X38810000Y7210000D02*
X38810000Y5610000D01*
X38810000Y5610000D02*
X39610000Y5610000D01*
X39610000Y5610000D02*
X39610000Y7210000D01*
X44210000Y15390000D02*
X42610000Y15390000D01*
X44210000Y14590000D02*
X44210000Y15390000D01*
X42610000Y14590000D02*
X44210000Y14590000D01*
X42610000Y15390000D02*
X42610000Y14590000D01*
X4920000Y50907500D02*
X4920000Y51732500D01*
X4920000Y51732500D02*
X3320000Y51732500D01*
X3320000Y51732500D02*
X3320000Y50907500D01*
X3320000Y50907500D02*
X4920000Y50907500D01*
X3400000Y58127500D02*
X5000000Y58127500D01*
X3400000Y58952500D02*
X3400000Y58127500D01*
X5000000Y58952500D02*
X3400000Y58952500D01*
X5000000Y58127500D02*
X5000000Y58952500D01*
X58440000Y112260000D02*
X58440000Y110660000D01*
X59240000Y112260000D02*
X58440000Y112260000D01*
X59240000Y110660000D02*
X59240000Y112260000D01*
X58440000Y110660000D02*
X59240000Y110660000D01*
D12*
X67960000Y113280000D02*
X66960000Y114280000D01*
X67960000Y109380000D02*
X67960000Y113280000D01*
X64060000Y109380000D02*
X67960000Y109380000D01*
X64060000Y114280000D02*
X64060000Y109380000D01*
X66960000Y114280000D02*
X64060000Y114280000D01*
X79889523Y6077620D02*
X79889523Y7077620D01*
X79651428Y7077620D01*
X79508571Y7030000D01*
X79413333Y6934762D01*
X79365714Y6839524D01*
X79318095Y6649048D01*
X79318095Y6506191D01*
X79365714Y6315715D01*
X79413333Y6220477D01*
X79508571Y6125239D01*
X79651428Y6077620D01*
X79889523Y6077620D01*
X79127619Y5982381D02*
X78365714Y5982381D01*
X78175238Y6125239D02*
X78032380Y6077620D01*
X77794285Y6077620D01*
X77699047Y6125239D01*
X77651428Y6172858D01*
X77603809Y6268096D01*
X77603809Y6363334D01*
X77651428Y6458572D01*
X77699047Y6506191D01*
X77794285Y6553810D01*
X77984761Y6601429D01*
X78080000Y6649048D01*
X78127619Y6696667D01*
X78175238Y6791905D01*
X78175238Y6887143D01*
X78127619Y6982381D01*
X78080000Y7030000D01*
X77984761Y7077620D01*
X77746666Y7077620D01*
X77603809Y7030000D01*
X76746666Y6125239D02*
X76841904Y6077620D01*
X77032380Y6077620D01*
X77127619Y6125239D01*
X77175238Y6172858D01*
X77222857Y6268096D01*
X77222857Y6553810D01*
X77175238Y6649048D01*
X77127619Y6696667D01*
X77032380Y6744286D01*
X76841904Y6744286D01*
X76746666Y6696667D01*
X76318095Y6077620D02*
X76318095Y7077620D01*
X75889523Y6077620D02*
X75889523Y6601429D01*
X75937142Y6696667D01*
X76032380Y6744286D01*
X76175238Y6744286D01*
X76270476Y6696667D01*
X76318095Y6649048D01*
X75270476Y6077620D02*
X75365714Y6125239D01*
X75413333Y6172858D01*
X75460952Y6268096D01*
X75460952Y6553810D01*
X75413333Y6649048D01*
X75365714Y6696667D01*
X75270476Y6744286D01*
X75127619Y6744286D01*
X75032380Y6696667D01*
X74984761Y6649048D01*
X74937142Y6553810D01*
X74937142Y6268096D01*
X74984761Y6172858D01*
X75032380Y6125239D01*
X75127619Y6077620D01*
X75270476Y6077620D01*
X74651428Y6744286D02*
X74270476Y6744286D01*
X74508571Y7077620D02*
X74508571Y6220477D01*
X74460952Y6125239D01*
X74365714Y6077620D01*
X74270476Y6077620D01*
X74080000Y6744286D02*
X73699047Y6744286D01*
X73937142Y7077620D02*
X73937142Y6220477D01*
X73889523Y6125239D01*
X73794285Y6077620D01*
X73699047Y6077620D01*
X73365714Y6077620D02*
X73365714Y7077620D01*
X73270476Y6458572D02*
X72984761Y6077620D01*
X72984761Y6744286D02*
X73365714Y6363334D01*
X72651428Y6744286D02*
X72413333Y6077620D01*
X72175238Y6744286D02*
X72413333Y6077620D01*
X72508571Y5839524D01*
X72556190Y5791905D01*
X72651428Y5744286D01*
X76818095Y11177620D02*
X76818095Y12177620D01*
X76580000Y12177620D01*
X76437142Y12130000D01*
X76341904Y12034762D01*
X76294285Y11939524D01*
X76246666Y11749048D01*
X76246666Y11606191D01*
X76294285Y11415715D01*
X76341904Y11320477D01*
X76437142Y11225239D01*
X76580000Y11177620D01*
X76818095Y11177620D01*
X75294285Y11177620D02*
X75865714Y11177620D01*
X75580000Y11177620D02*
X75580000Y12177620D01*
X75675238Y12034762D01*
X75770476Y11939524D01*
X75865714Y11891905D01*
X44431428Y18117620D02*
X45002857Y18117620D01*
X44717142Y18117620D02*
X44717142Y19117620D01*
X44812380Y18974762D01*
X44907619Y18879524D01*
X45002857Y18831905D01*
X43812380Y19117620D02*
X43717142Y19117620D01*
X43621904Y19070000D01*
X43574285Y19022381D01*
X43526666Y18927143D01*
X43479047Y18736667D01*
X43479047Y18498572D01*
X43526666Y18308096D01*
X43574285Y18212858D01*
X43621904Y18165239D01*
X43717142Y18117620D01*
X43812380Y18117620D01*
X43907619Y18165239D01*
X43955238Y18212858D01*
X44002857Y18308096D01*
X44050476Y18498572D01*
X44050476Y18736667D01*
X44002857Y18927143D01*
X43955238Y19022381D01*
X43907619Y19070000D01*
X43812380Y19117620D01*
X42621904Y18784286D02*
X42621904Y18117620D01*
X43050476Y18784286D02*
X43050476Y18260477D01*
X43002857Y18165239D01*
X42907619Y18117620D01*
X42764761Y18117620D01*
X42669523Y18165239D01*
X42621904Y18212858D01*
X41812380Y18641429D02*
X42145714Y18641429D01*
X42145714Y18117620D02*
X42145714Y19117620D01*
X41669523Y19117620D01*
D13*
X43617142Y16997143D02*
X43636190Y16978096D01*
X43693333Y16959048D01*
X43731428Y16959048D01*
X43788571Y16978096D01*
X43826666Y17016191D01*
X43845714Y17054286D01*
X43864761Y17130477D01*
X43864761Y17187620D01*
X43845714Y17263810D01*
X43826666Y17301905D01*
X43788571Y17340000D01*
X43731428Y17359048D01*
X43693333Y17359048D01*
X43636190Y17340000D01*
X43617142Y17320953D01*
X43464761Y17320953D02*
X43445714Y17340000D01*
X43407619Y17359048D01*
X43312380Y17359048D01*
X43274285Y17340000D01*
X43255238Y17320953D01*
X43236190Y17282858D01*
X43236190Y17244762D01*
X43255238Y17187620D01*
X43483809Y16959048D01*
X43236190Y16959048D01*
X42893333Y17359048D02*
X42969523Y17359048D01*
X43007619Y17340000D01*
X43026666Y17320953D01*
X43064761Y17263810D01*
X43083809Y17187620D01*
X43083809Y17035239D01*
X43064761Y16997143D01*
X43045714Y16978096D01*
X43007619Y16959048D01*
X42931428Y16959048D01*
X42893333Y16978096D01*
X42874285Y16997143D01*
X42855238Y17035239D01*
X42855238Y17130477D01*
X42874285Y17168572D01*
X42893333Y17187620D01*
X42931428Y17206667D01*
X43007619Y17206667D01*
X43045714Y17187620D01*
X43064761Y17168572D01*
X43083809Y17130477D01*
D12*
X60757142Y26448096D02*
X60804761Y26495715D01*
X60852380Y26638572D01*
X60852380Y26733810D01*
X60804761Y26876667D01*
X60709523Y26971905D01*
X60614285Y27019524D01*
X60423809Y27067143D01*
X60280952Y27067143D01*
X60090476Y27019524D01*
X59995238Y26971905D01*
X59900000Y26876667D01*
X59852380Y26733810D01*
X59852380Y26638572D01*
X59900000Y26495715D01*
X59947619Y26448096D01*
X60852380Y25876667D02*
X60804761Y25971905D01*
X60757142Y26019524D01*
X60661904Y26067143D01*
X60376190Y26067143D01*
X60280952Y26019524D01*
X60233333Y25971905D01*
X60185714Y25876667D01*
X60185714Y25733810D01*
X60233333Y25638572D01*
X60280952Y25590953D01*
X60376190Y25543334D01*
X60661904Y25543334D01*
X60757142Y25590953D01*
X60804761Y25638572D01*
X60852380Y25733810D01*
X60852380Y25876667D01*
X60185714Y25114762D02*
X60852380Y25114762D01*
X60280952Y25114762D02*
X60233333Y25067143D01*
X60185714Y24971905D01*
X60185714Y24829048D01*
X60233333Y24733810D01*
X60328571Y24686191D01*
X60852380Y24686191D01*
X60185714Y24210000D02*
X60852380Y24210000D01*
X60280952Y24210000D02*
X60233333Y24162381D01*
X60185714Y24067143D01*
X60185714Y23924286D01*
X60233333Y23829048D01*
X60328571Y23781429D01*
X60852380Y23781429D01*
X60947619Y23543334D02*
X60947619Y22781429D01*
X59852380Y22352858D02*
X59852380Y22257620D01*
X59900000Y22162381D01*
X59947619Y22114762D01*
X60042857Y22067143D01*
X60233333Y22019524D01*
X60471428Y22019524D01*
X60661904Y22067143D01*
X60757142Y22114762D01*
X60804761Y22162381D01*
X60852380Y22257620D01*
X60852380Y22352858D01*
X60804761Y22448096D01*
X60757142Y22495715D01*
X60661904Y22543334D01*
X60471428Y22590953D01*
X60233333Y22590953D01*
X60042857Y22543334D01*
X59947619Y22495715D01*
X59900000Y22448096D01*
X59852380Y22352858D01*
X60852380Y21067143D02*
X60852380Y21638572D01*
X60852380Y21352858D02*
X59852380Y21352858D01*
X59995238Y21448096D01*
X60090476Y21543334D01*
X60138095Y21638572D01*
X60852380Y20733810D02*
X60185714Y20210000D01*
X60185714Y20733810D02*
X60852380Y20210000D01*
X59852380Y19352858D02*
X59852380Y19829048D01*
X60328571Y19876667D01*
X60280952Y19829048D01*
X60233333Y19733810D01*
X60233333Y19495715D01*
X60280952Y19400477D01*
X60328571Y19352858D01*
X60423809Y19305239D01*
X60661904Y19305239D01*
X60757142Y19352858D01*
X60804761Y19400477D01*
X60852380Y19495715D01*
X60852380Y19733810D01*
X60804761Y19829048D01*
X60757142Y19876667D01*
X59852380Y18686191D02*
X59852380Y18590953D01*
X59900000Y18495715D01*
X59947619Y18448096D01*
X60042857Y18400477D01*
X60233333Y18352858D01*
X60471428Y18352858D01*
X60661904Y18400477D01*
X60757142Y18448096D01*
X60804761Y18495715D01*
X60852380Y18590953D01*
X60852380Y18686191D01*
X60804761Y18781429D01*
X60757142Y18829048D01*
X60661904Y18876667D01*
X60471428Y18924286D01*
X60233333Y18924286D01*
X60042857Y18876667D01*
X59947619Y18829048D01*
X59900000Y18781429D01*
X59852380Y18686191D01*
X57952380Y23519524D02*
X58666666Y23519524D01*
X58809523Y23567143D01*
X58904761Y23662381D01*
X58952380Y23805239D01*
X58952380Y23900477D01*
X58952380Y22519524D02*
X58952380Y23090953D01*
X58952380Y22805239D02*
X57952380Y22805239D01*
X58095238Y22900477D01*
X58190476Y22995715D01*
X58238095Y23090953D01*
X57952380Y21662381D02*
X57952380Y21852858D01*
X58000000Y21948096D01*
X58047619Y21995715D01*
X58190476Y22090953D01*
X58380952Y22138572D01*
X58761904Y22138572D01*
X58857142Y22090953D01*
X58904761Y22043334D01*
X58952380Y21948096D01*
X58952380Y21757620D01*
X58904761Y21662381D01*
X58857142Y21614762D01*
X58761904Y21567143D01*
X58523809Y21567143D01*
X58428571Y21614762D01*
X58380952Y21662381D01*
X58333333Y21757620D01*
X58333333Y21948096D01*
X58380952Y22043334D01*
X58428571Y22090953D01*
X58523809Y22138572D01*
X78607363Y11528940D02*
X78607363Y12528940D01*
X78369268Y12528940D01*
X78226411Y12481320D01*
X78131173Y12386082D01*
X78083554Y12290844D01*
X78035935Y12100368D01*
X78035935Y11957511D01*
X78083554Y11767035D01*
X78131173Y11671797D01*
X78226411Y11576559D01*
X78369268Y11528940D01*
X78607363Y11528940D01*
X77845459Y11433701D02*
X77083554Y11433701D01*
X76893078Y11576559D02*
X76750220Y11528940D01*
X76512125Y11528940D01*
X76416887Y11576559D01*
X76369268Y11624178D01*
X76321649Y11719416D01*
X76321649Y11814654D01*
X76369268Y11909892D01*
X76416887Y11957511D01*
X76512125Y12005130D01*
X76702601Y12052749D01*
X76797840Y12100368D01*
X76845459Y12147987D01*
X76893078Y12243225D01*
X76893078Y12338463D01*
X76845459Y12433701D01*
X76797840Y12481320D01*
X76702601Y12528940D01*
X76464506Y12528940D01*
X76321649Y12481320D01*
X75464506Y11576559D02*
X75559744Y11528940D01*
X75750220Y11528940D01*
X75845459Y11576559D01*
X75893078Y11624178D01*
X75940697Y11719416D01*
X75940697Y12005130D01*
X75893078Y12100368D01*
X75845459Y12147987D01*
X75750220Y12195606D01*
X75559744Y12195606D01*
X75464506Y12147987D01*
X75035935Y11528940D02*
X75035935Y12528940D01*
X74607363Y11528940D02*
X74607363Y12052749D01*
X74654982Y12147987D01*
X74750220Y12195606D01*
X74893078Y12195606D01*
X74988316Y12147987D01*
X75035935Y12100368D01*
X73988316Y11528940D02*
X74083554Y11576559D01*
X74131173Y11624178D01*
X74178792Y11719416D01*
X74178792Y12005130D01*
X74131173Y12100368D01*
X74083554Y12147987D01*
X73988316Y12195606D01*
X73845459Y12195606D01*
X73750220Y12147987D01*
X73702601Y12100368D01*
X73654982Y12005130D01*
X73654982Y11719416D01*
X73702601Y11624178D01*
X73750220Y11576559D01*
X73845459Y11528940D01*
X73988316Y11528940D01*
X73369268Y12195606D02*
X72988316Y12195606D01*
X73226411Y12528940D02*
X73226411Y11671797D01*
X73178792Y11576559D01*
X73083554Y11528940D01*
X72988316Y11528940D01*
X72797840Y12195606D02*
X72416887Y12195606D01*
X72654982Y12528940D02*
X72654982Y11671797D01*
X72607363Y11576559D01*
X72512125Y11528940D01*
X72416887Y11528940D01*
X72083554Y11528940D02*
X72083554Y12528940D01*
X71988316Y11909892D02*
X71702601Y11528940D01*
X71702601Y12195606D02*
X72083554Y11814654D01*
X71369268Y12195606D02*
X71131173Y11528940D01*
X70893078Y12195606D02*
X71131173Y11528940D01*
X71226411Y11290844D01*
X71274030Y11243225D01*
X71369268Y11195606D01*
X76818095Y16717620D02*
X76818095Y17717620D01*
X76580000Y17717620D01*
X76437142Y17670000D01*
X76341904Y17574762D01*
X76294285Y17479524D01*
X76246666Y17289048D01*
X76246666Y17146191D01*
X76294285Y16955715D01*
X76341904Y16860477D01*
X76437142Y16765239D01*
X76580000Y16717620D01*
X76818095Y16717620D01*
X75865714Y17622381D02*
X75818095Y17670000D01*
X75722857Y17717620D01*
X75484761Y17717620D01*
X75389523Y17670000D01*
X75341904Y17622381D01*
X75294285Y17527143D01*
X75294285Y17431905D01*
X75341904Y17289048D01*
X75913333Y16717620D01*
X75294285Y16717620D01*
X29923334Y12004286D02*
X29923334Y11337620D01*
X30161429Y12385239D02*
X30399525Y11670953D01*
X29780477Y11670953D01*
X29494763Y12337620D02*
X28828096Y12337620D01*
X29256668Y11337620D01*
X28447144Y12004286D02*
X28447144Y11004286D01*
X28447144Y11956667D02*
X28351906Y12004286D01*
X28161429Y12004286D01*
X28066191Y11956667D01*
X28018572Y11909048D01*
X27970953Y11813810D01*
X27970953Y11528096D01*
X28018572Y11432858D01*
X28066191Y11385239D01*
X28161429Y11337620D01*
X28351906Y11337620D01*
X28447144Y11385239D01*
X27209048Y11861429D02*
X27542382Y11861429D01*
X27542382Y11337620D02*
X27542382Y12337620D01*
X27066191Y12337620D01*
D13*
X29013810Y13077143D02*
X29032858Y13058096D01*
X29090001Y13039048D01*
X29128096Y13039048D01*
X29185239Y13058096D01*
X29223334Y13096191D01*
X29242382Y13134286D01*
X29261429Y13210477D01*
X29261429Y13267620D01*
X29242382Y13343810D01*
X29223334Y13381905D01*
X29185239Y13420000D01*
X29128096Y13439048D01*
X29090001Y13439048D01*
X29032858Y13420000D01*
X29013810Y13400953D01*
X28632858Y13039048D02*
X28861429Y13039048D01*
X28747144Y13039048D02*
X28747144Y13439048D01*
X28785239Y13381905D01*
X28823334Y13343810D01*
X28861429Y13324762D01*
X28385239Y13439048D02*
X28347144Y13439048D01*
X28309048Y13420000D01*
X28290001Y13400953D01*
X28270953Y13362858D01*
X28251906Y13286667D01*
X28251906Y13191429D01*
X28270953Y13115239D01*
X28290001Y13077143D01*
X28309048Y13058096D01*
X28347144Y13039048D01*
X28385239Y13039048D01*
X28423334Y13058096D01*
X28442382Y13077143D01*
X28461429Y13115239D01*
X28480477Y13191429D01*
X28480477Y13286667D01*
X28461429Y13362858D01*
X28442382Y13400953D01*
X28423334Y13420000D01*
X28385239Y13439048D01*
D12*
X32796666Y14704286D02*
X32796666Y14037620D01*
X33034761Y15085239D02*
X33272857Y14370953D01*
X32653809Y14370953D01*
X32368095Y15037620D02*
X31701428Y15037620D01*
X32130000Y14037620D01*
X31320476Y14704286D02*
X31320476Y13704286D01*
X31320476Y14656667D02*
X31225238Y14704286D01*
X31034761Y14704286D01*
X30939523Y14656667D01*
X30891904Y14609048D01*
X30844285Y14513810D01*
X30844285Y14228096D01*
X30891904Y14132858D01*
X30939523Y14085239D01*
X31034761Y14037620D01*
X31225238Y14037620D01*
X31320476Y14085239D01*
X30082380Y14561429D02*
X30415714Y14561429D01*
X30415714Y14037620D02*
X30415714Y15037620D01*
X29939523Y15037620D01*
D13*
X32040476Y13087143D02*
X32059524Y13068096D01*
X32116667Y13049048D01*
X32154762Y13049048D01*
X32211905Y13068096D01*
X32250000Y13106191D01*
X32269048Y13144286D01*
X32288095Y13220477D01*
X32288095Y13277620D01*
X32269048Y13353810D01*
X32250000Y13391905D01*
X32211905Y13430000D01*
X32154762Y13449048D01*
X32116667Y13449048D01*
X32059524Y13430000D01*
X32040476Y13410953D01*
X31659524Y13049048D02*
X31888095Y13049048D01*
X31773810Y13049048D02*
X31773810Y13449048D01*
X31811905Y13391905D01*
X31850000Y13353810D01*
X31888095Y13334762D01*
X31278572Y13049048D02*
X31507143Y13049048D01*
X31392857Y13049048D02*
X31392857Y13449048D01*
X31430953Y13391905D01*
X31469048Y13353810D01*
X31507143Y13334762D01*
D12*
X35672380Y8062858D02*
X35672380Y7967620D01*
X35720000Y7872381D01*
X35767619Y7824762D01*
X35862857Y7777143D01*
X36053333Y7729524D01*
X36291428Y7729524D01*
X36481904Y7777143D01*
X36577142Y7824762D01*
X36624761Y7872381D01*
X36672380Y7967620D01*
X36672380Y8062858D01*
X36624761Y8158096D01*
X36577142Y8205715D01*
X36481904Y8253334D01*
X36291428Y8300953D01*
X36053333Y8300953D01*
X35862857Y8253334D01*
X35767619Y8205715D01*
X35720000Y8158096D01*
X35672380Y8062858D01*
X36577142Y7300953D02*
X36624761Y7253334D01*
X36672380Y7300953D01*
X36624761Y7348572D01*
X36577142Y7300953D01*
X36672380Y7300953D01*
X36672380Y6300953D02*
X36672380Y6872381D01*
X36672380Y6586667D02*
X35672380Y6586667D01*
X35815238Y6681905D01*
X35910476Y6777143D01*
X35958095Y6872381D01*
X36005714Y5443810D02*
X36672380Y5443810D01*
X36005714Y5872381D02*
X36529523Y5872381D01*
X36624761Y5824762D01*
X36672380Y5729524D01*
X36672380Y5586667D01*
X36624761Y5491429D01*
X36577142Y5443810D01*
X36148571Y4634286D02*
X36148571Y4967620D01*
X36672380Y4967620D02*
X35672380Y4967620D01*
X35672380Y4491429D01*
D13*
X37682857Y6667143D02*
X37701904Y6686191D01*
X37720952Y6743334D01*
X37720952Y6781429D01*
X37701904Y6838572D01*
X37663809Y6876667D01*
X37625714Y6895715D01*
X37549523Y6914762D01*
X37492380Y6914762D01*
X37416190Y6895715D01*
X37378095Y6876667D01*
X37340000Y6838572D01*
X37320952Y6781429D01*
X37320952Y6743334D01*
X37340000Y6686191D01*
X37359047Y6667143D01*
X37720952Y6286191D02*
X37720952Y6514762D01*
X37720952Y6400477D02*
X37320952Y6400477D01*
X37378095Y6438572D01*
X37416190Y6476667D01*
X37435238Y6514762D01*
X37454285Y5943334D02*
X37720952Y5943334D01*
X37301904Y6038572D02*
X37587619Y6133810D01*
X37587619Y5886191D01*
D12*
X34603809Y18485239D02*
X34460952Y18437620D01*
X34222857Y18437620D01*
X34127619Y18485239D01*
X34080000Y18532858D01*
X34032380Y18628096D01*
X34032380Y18723334D01*
X34080000Y18818572D01*
X34127619Y18866191D01*
X34222857Y18913810D01*
X34413333Y18961429D01*
X34508571Y19009048D01*
X34556190Y19056667D01*
X34603809Y19151905D01*
X34603809Y19247143D01*
X34556190Y19342381D01*
X34508571Y19390000D01*
X34413333Y19437620D01*
X34175238Y19437620D01*
X34032380Y19390000D01*
X33603809Y18437620D02*
X33603809Y19437620D01*
X33222857Y19437620D01*
X33127619Y19390000D01*
X33080000Y19342381D01*
X33032380Y19247143D01*
X33032380Y19104286D01*
X33080000Y19009048D01*
X33127619Y18961429D01*
X33222857Y18913810D01*
X33603809Y18913810D01*
X32413333Y19437620D02*
X32318095Y19437620D01*
X32222857Y19390000D01*
X32175238Y19342381D01*
X32127619Y19247143D01*
X32080000Y19056667D01*
X32080000Y18818572D01*
X32127619Y18628096D01*
X32175238Y18532858D01*
X32222857Y18485239D01*
X32318095Y18437620D01*
X32413333Y18437620D01*
X32508571Y18485239D01*
X32556190Y18532858D01*
X32603809Y18628096D01*
X32651428Y18818572D01*
X32651428Y19056667D01*
X32603809Y19247143D01*
X32556190Y19342381D01*
X32508571Y19390000D01*
X32413333Y19437620D01*
X31175238Y19437620D02*
X31651428Y19437620D01*
X31699047Y18961429D01*
X31651428Y19009048D01*
X31556190Y19056667D01*
X31318095Y19056667D01*
X31222857Y19009048D01*
X31175238Y18961429D01*
X31127619Y18866191D01*
X31127619Y18628096D01*
X31175238Y18532858D01*
X31222857Y18485239D01*
X31318095Y18437620D01*
X31556190Y18437620D01*
X31651428Y18485239D01*
X31699047Y18532858D01*
X30508571Y19437620D02*
X30413333Y19437620D01*
X30318095Y19390000D01*
X30270476Y19342381D01*
X30222857Y19247143D01*
X30175238Y19056667D01*
X30175238Y18818572D01*
X30222857Y18628096D01*
X30270476Y18532858D01*
X30318095Y18485239D01*
X30413333Y18437620D01*
X30508571Y18437620D01*
X30603809Y18485239D01*
X30651428Y18532858D01*
X30699047Y18628096D01*
X30746666Y18818572D01*
X30746666Y19056667D01*
X30699047Y19247143D01*
X30651428Y19342381D01*
X30603809Y19390000D01*
X30508571Y19437620D01*
X29841904Y19437620D02*
X29222857Y19437620D01*
X29556190Y19056667D01*
X29413333Y19056667D01*
X29318095Y19009048D01*
X29270476Y18961429D01*
X29222857Y18866191D01*
X29222857Y18628096D01*
X29270476Y18532858D01*
X29318095Y18485239D01*
X29413333Y18437620D01*
X29699047Y18437620D01*
X29794285Y18485239D01*
X29841904Y18532858D01*
X28460952Y18961429D02*
X28318095Y18913810D01*
X28270476Y18866191D01*
X28222857Y18770953D01*
X28222857Y18628096D01*
X28270476Y18532858D01*
X28318095Y18485239D01*
X28413333Y18437620D01*
X28794285Y18437620D01*
X28794285Y19437620D01*
X28460952Y19437620D01*
X28365714Y19390000D01*
X28318095Y19342381D01*
X28270476Y19247143D01*
X28270476Y19151905D01*
X28318095Y19056667D01*
X28365714Y19009048D01*
X28460952Y18961429D01*
X28794285Y18961429D01*
X27841904Y18723334D02*
X27365714Y18723334D01*
X27937142Y18437620D02*
X27603809Y19437620D01*
X27270476Y18437620D01*
X26937142Y18437620D02*
X26937142Y19437620D01*
X26937142Y18961429D02*
X26365714Y18961429D01*
X26365714Y18437620D02*
X26365714Y19437620D01*
X26032380Y19437620D02*
X25460952Y19437620D01*
X25746666Y18437620D02*
X25746666Y19437620D01*
D14*
X30659047Y16283810D02*
X30659047Y16783810D01*
X30540000Y16783810D01*
X30468571Y16760000D01*
X30420952Y16712381D01*
X30397142Y16664762D01*
X30373333Y16569524D01*
X30373333Y16498096D01*
X30397142Y16402858D01*
X30420952Y16355239D01*
X30468571Y16307620D01*
X30540000Y16283810D01*
X30659047Y16283810D01*
X29944761Y16617143D02*
X29944761Y16283810D01*
X30063809Y16807620D02*
X30182857Y16450477D01*
X29873333Y16450477D01*
D12*
X46852380Y36409524D02*
X46852380Y35790477D01*
X47233333Y36123810D01*
X47233333Y35980953D01*
X47280952Y35885715D01*
X47328571Y35838096D01*
X47423809Y35790477D01*
X47661904Y35790477D01*
X47757142Y35838096D01*
X47804761Y35885715D01*
X47852380Y35980953D01*
X47852380Y36266667D01*
X47804761Y36361905D01*
X47757142Y36409524D01*
X46852380Y35457143D02*
X46852380Y34838096D01*
X47233333Y35171429D01*
X47233333Y35028572D01*
X47280952Y34933334D01*
X47328571Y34885715D01*
X47423809Y34838096D01*
X47661904Y34838096D01*
X47757142Y34885715D01*
X47804761Y34933334D01*
X47852380Y35028572D01*
X47852380Y35314286D01*
X47804761Y35409524D01*
X47757142Y35457143D01*
X47852380Y33838096D02*
X47376190Y34171429D01*
X47852380Y34409524D02*
X46852380Y34409524D01*
X46852380Y34028572D01*
X46900000Y33933334D01*
X46947619Y33885715D01*
X47042857Y33838096D01*
X47185714Y33838096D01*
X47280952Y33885715D01*
X47328571Y33933334D01*
X47376190Y34028572D01*
X47376190Y34409524D01*
D13*
X49270952Y35377143D02*
X49080476Y35510477D01*
X49270952Y35605715D02*
X48870952Y35605715D01*
X48870952Y35453334D01*
X48890000Y35415239D01*
X48909047Y35396191D01*
X48947142Y35377143D01*
X49004285Y35377143D01*
X49042380Y35396191D01*
X49061428Y35415239D01*
X49080476Y35453334D01*
X49080476Y35605715D01*
X49270952Y34996191D02*
X49270952Y35224762D01*
X49270952Y35110477D02*
X48870952Y35110477D01*
X48928095Y35148572D01*
X48966190Y35186667D01*
X48985238Y35224762D01*
X48870952Y34862858D02*
X48870952Y34615239D01*
X49023333Y34748572D01*
X49023333Y34691429D01*
X49042380Y34653334D01*
X49061428Y34634286D01*
X49099523Y34615239D01*
X49194761Y34615239D01*
X49232857Y34634286D01*
X49251904Y34653334D01*
X49270952Y34691429D01*
X49270952Y34805715D01*
X49251904Y34843810D01*
X49232857Y34862858D01*
D12*
X24597619Y15231905D02*
X24550000Y15184286D01*
X24502380Y15089048D01*
X24502380Y14850953D01*
X24550000Y14755715D01*
X24597619Y14708096D01*
X24692857Y14660477D01*
X24788095Y14660477D01*
X24930952Y14708096D01*
X25502380Y15279524D01*
X25502380Y14660477D01*
X24502380Y14327143D02*
X24502380Y13660477D01*
X25502380Y14089048D01*
X25502380Y12708096D02*
X25026190Y13041429D01*
X25502380Y13279524D02*
X24502380Y13279524D01*
X24502380Y12898572D01*
X24550000Y12803334D01*
X24597619Y12755715D01*
X24692857Y12708096D01*
X24835714Y12708096D01*
X24930952Y12755715D01*
X24978571Y12803334D01*
X25026190Y12898572D01*
X25026190Y13279524D01*
D13*
X26660952Y14036667D02*
X26470476Y14170000D01*
X26660952Y14265239D02*
X26260952Y14265239D01*
X26260952Y14112858D01*
X26280000Y14074762D01*
X26299047Y14055715D01*
X26337142Y14036667D01*
X26394285Y14036667D01*
X26432380Y14055715D01*
X26451428Y14074762D01*
X26470476Y14112858D01*
X26470476Y14265239D01*
X26260952Y13903334D02*
X26260952Y13636667D01*
X26660952Y13808096D01*
D12*
X27090952Y10287620D02*
X27567142Y10287620D01*
X27614761Y9811429D01*
X27567142Y9859048D01*
X27471904Y9906667D01*
X27233809Y9906667D01*
X27138571Y9859048D01*
X27090952Y9811429D01*
X27043333Y9716191D01*
X27043333Y9478096D01*
X27090952Y9382858D01*
X27138571Y9335239D01*
X27233809Y9287620D01*
X27471904Y9287620D01*
X27567142Y9335239D01*
X27614761Y9382858D01*
X26614761Y9382858D02*
X26567142Y9335239D01*
X26614761Y9287620D01*
X26662380Y9335239D01*
X26614761Y9382858D01*
X26614761Y9287620D01*
X25614761Y9287620D02*
X26186190Y9287620D01*
X25900476Y9287620D02*
X25900476Y10287620D01*
X25995714Y10144762D01*
X26090952Y10049524D01*
X26186190Y10001905D01*
X25186190Y9287620D02*
X25186190Y10287620D01*
X25090952Y9668572D02*
X24805238Y9287620D01*
X24805238Y9954286D02*
X25186190Y9573334D01*
D13*
X26477142Y11039048D02*
X26610476Y11229524D01*
X26705714Y11039048D02*
X26705714Y11439048D01*
X26553333Y11439048D01*
X26515238Y11420000D01*
X26496190Y11400953D01*
X26477142Y11362858D01*
X26477142Y11305715D01*
X26496190Y11267620D01*
X26515238Y11248572D01*
X26553333Y11229524D01*
X26705714Y11229524D01*
X26096190Y11039048D02*
X26324761Y11039048D01*
X26210476Y11039048D02*
X26210476Y11439048D01*
X26248571Y11381905D01*
X26286666Y11343810D01*
X26324761Y11324762D01*
X25715238Y11039048D02*
X25943809Y11039048D01*
X25829523Y11039048D02*
X25829523Y11439048D01*
X25867619Y11381905D01*
X25905714Y11343810D01*
X25943809Y11324762D01*
D12*
X35000952Y10257620D02*
X35477142Y10257620D01*
X35524761Y9781429D01*
X35477142Y9829048D01*
X35381904Y9876667D01*
X35143809Y9876667D01*
X35048571Y9829048D01*
X35000952Y9781429D01*
X34953333Y9686191D01*
X34953333Y9448096D01*
X35000952Y9352858D01*
X35048571Y9305239D01*
X35143809Y9257620D01*
X35381904Y9257620D01*
X35477142Y9305239D01*
X35524761Y9352858D01*
X34524761Y9352858D02*
X34477142Y9305239D01*
X34524761Y9257620D01*
X34572380Y9305239D01*
X34524761Y9352858D01*
X34524761Y9257620D01*
X33524761Y9257620D02*
X34096190Y9257620D01*
X33810476Y9257620D02*
X33810476Y10257620D01*
X33905714Y10114762D01*
X34000952Y10019524D01*
X34096190Y9971905D01*
X33096190Y9257620D02*
X33096190Y10257620D01*
X33000952Y9638572D02*
X32715238Y9257620D01*
X32715238Y9924286D02*
X33096190Y9543334D01*
D13*
X34407142Y11039048D02*
X34540476Y11229524D01*
X34635714Y11039048D02*
X34635714Y11439048D01*
X34483333Y11439048D01*
X34445238Y11420000D01*
X34426190Y11400953D01*
X34407142Y11362858D01*
X34407142Y11305715D01*
X34426190Y11267620D01*
X34445238Y11248572D01*
X34483333Y11229524D01*
X34635714Y11229524D01*
X34026190Y11039048D02*
X34254761Y11039048D01*
X34140476Y11039048D02*
X34140476Y11439048D01*
X34178571Y11381905D01*
X34216666Y11343810D01*
X34254761Y11324762D01*
X33778571Y11439048D02*
X33740476Y11439048D01*
X33702380Y11420000D01*
X33683333Y11400953D01*
X33664285Y11362858D01*
X33645238Y11286667D01*
X33645238Y11191429D01*
X33664285Y11115239D01*
X33683333Y11077143D01*
X33702380Y11058096D01*
X33740476Y11039048D01*
X33778571Y11039048D01*
X33816666Y11058096D01*
X33835714Y11077143D01*
X33854761Y11115239D01*
X33873809Y11191429D01*
X33873809Y11286667D01*
X33854761Y11362858D01*
X33835714Y11400953D01*
X33816666Y11420000D01*
X33778571Y11439048D01*
D12*
X34967619Y15351905D02*
X34920000Y15304286D01*
X34872380Y15209048D01*
X34872380Y14970953D01*
X34920000Y14875715D01*
X34967619Y14828096D01*
X35062857Y14780477D01*
X35158095Y14780477D01*
X35300952Y14828096D01*
X35872380Y15399524D01*
X35872380Y14780477D01*
X34872380Y14447143D02*
X34872380Y13780477D01*
X35872380Y14209048D01*
X35872380Y12828096D02*
X35396190Y13161429D01*
X35872380Y13399524D02*
X34872380Y13399524D01*
X34872380Y13018572D01*
X34920000Y12923334D01*
X34967619Y12875715D01*
X35062857Y12828096D01*
X35205714Y12828096D01*
X35300952Y12875715D01*
X35348571Y12923334D01*
X35396190Y13018572D01*
X35396190Y13399524D01*
D13*
X34240952Y14046667D02*
X34050476Y14180000D01*
X34240952Y14275239D02*
X33840952Y14275239D01*
X33840952Y14122858D01*
X33860000Y14084762D01*
X33879047Y14065715D01*
X33917142Y14046667D01*
X33974285Y14046667D01*
X34012380Y14065715D01*
X34031428Y14084762D01*
X34050476Y14122858D01*
X34050476Y14275239D01*
X34012380Y13818096D02*
X33993333Y13856191D01*
X33974285Y13875239D01*
X33936190Y13894286D01*
X33917142Y13894286D01*
X33879047Y13875239D01*
X33860000Y13856191D01*
X33840952Y13818096D01*
X33840952Y13741905D01*
X33860000Y13703810D01*
X33879047Y13684762D01*
X33917142Y13665715D01*
X33936190Y13665715D01*
X33974285Y13684762D01*
X33993333Y13703810D01*
X34012380Y13741905D01*
X34012380Y13818096D01*
X34031428Y13856191D01*
X34050476Y13875239D01*
X34088571Y13894286D01*
X34164761Y13894286D01*
X34202857Y13875239D01*
X34221904Y13856191D01*
X34240952Y13818096D01*
X34240952Y13741905D01*
X34221904Y13703810D01*
X34202857Y13684762D01*
X34164761Y13665715D01*
X34088571Y13665715D01*
X34050476Y13684762D01*
X34031428Y13703810D01*
X34012380Y13741905D01*
D15*
X34155626Y-1378267D02*
X34155626Y-2190627D01*
X34107840Y-2286199D01*
X34060054Y-2333985D01*
X33964483Y-2381771D01*
X33773339Y-2381771D01*
X33677767Y-2333985D01*
X33629981Y-2286199D01*
X33582195Y-2190627D01*
X33582195Y-1378267D01*
X33152122Y-2333985D02*
X33008764Y-2381771D01*
X32769835Y-2381771D01*
X32674263Y-2333985D01*
X32626477Y-2286199D01*
X32578691Y-2190627D01*
X32578691Y-2095055D01*
X32626477Y-1999483D01*
X32674263Y-1951697D01*
X32769835Y-1903912D01*
X32960979Y-1856126D01*
X33056550Y-1808340D01*
X33104336Y-1760554D01*
X33152122Y-1664982D01*
X33152122Y-1569410D01*
X33104336Y-1473838D01*
X33056550Y-1426053D01*
X32960979Y-1378267D01*
X32722049Y-1378267D01*
X32578691Y-1426053D01*
X31814117Y-1856126D02*
X31670759Y-1903912D01*
X31622973Y-1951697D01*
X31575187Y-2047269D01*
X31575187Y-2190627D01*
X31622973Y-2286199D01*
X31670759Y-2333985D01*
X31766331Y-2381771D01*
X32148618Y-2381771D01*
X32148618Y-1378267D01*
X31814117Y-1378267D01*
X31718545Y-1426053D01*
X31670759Y-1473838D01*
X31622973Y-1569410D01*
X31622973Y-1664982D01*
X31670759Y-1760554D01*
X31718545Y-1808340D01*
X31814117Y-1856126D01*
X32148618Y-1856126D01*
X31384044Y-2477342D02*
X30619469Y-2477342D01*
X29807109Y-2286199D02*
X29854895Y-2333985D01*
X29998252Y-2381771D01*
X30093824Y-2381771D01*
X30237182Y-2333985D01*
X30332754Y-2238413D01*
X30380540Y-2142841D01*
X30428326Y-1951697D01*
X30428326Y-1808340D01*
X30380540Y-1617196D01*
X30332754Y-1521624D01*
X30237182Y-1426053D01*
X30093824Y-1378267D01*
X29998252Y-1378267D01*
X29854895Y-1426053D01*
X29807109Y-1473838D01*
X29615965Y-2477342D02*
X28851391Y-2477342D01*
X28039030Y-2381771D02*
X28373532Y-1903912D01*
X28612461Y-2381771D02*
X28612461Y-1378267D01*
X28230174Y-1378267D01*
X28134602Y-1426053D01*
X28086816Y-1473838D01*
X28039030Y-1569410D01*
X28039030Y-1712768D01*
X28086816Y-1808340D01*
X28134602Y-1856126D01*
X28230174Y-1903912D01*
X28612461Y-1903912D01*
X27226670Y-2333985D02*
X27322242Y-2381771D01*
X27513385Y-2381771D01*
X27608957Y-2333985D01*
X27656743Y-2238413D01*
X27656743Y-1856126D01*
X27608957Y-1760554D01*
X27513385Y-1712768D01*
X27322242Y-1712768D01*
X27226670Y-1760554D01*
X27178884Y-1856126D01*
X27178884Y-1951697D01*
X27656743Y-2047269D01*
X26318738Y-2333985D02*
X26414310Y-2381771D01*
X26605453Y-2381771D01*
X26701025Y-2333985D01*
X26748811Y-2286199D01*
X26796597Y-2190627D01*
X26796597Y-1903912D01*
X26748811Y-1808340D01*
X26701025Y-1760554D01*
X26605453Y-1712768D01*
X26414310Y-1712768D01*
X26318738Y-1760554D01*
X25506377Y-2333985D02*
X25601949Y-2381771D01*
X25793093Y-2381771D01*
X25888665Y-2333985D01*
X25936451Y-2238413D01*
X25936451Y-1856126D01*
X25888665Y-1760554D01*
X25793093Y-1712768D01*
X25601949Y-1712768D01*
X25506377Y-1760554D01*
X25458591Y-1856126D01*
X25458591Y-1951697D01*
X25936451Y-2047269D01*
X25028518Y-1712768D02*
X25028518Y-2716272D01*
X25028518Y-1760554D02*
X24932947Y-1712768D01*
X24741803Y-1712768D01*
X24646231Y-1760554D01*
X24598445Y-1808340D01*
X24550659Y-1903912D01*
X24550659Y-2190627D01*
X24598445Y-2286199D01*
X24646231Y-2333985D01*
X24741803Y-2381771D01*
X24932947Y-2381771D01*
X25028518Y-2333985D01*
X24263944Y-1712768D02*
X23881657Y-1712768D01*
X24120586Y-1378267D02*
X24120586Y-2238413D01*
X24072800Y-2333985D01*
X23977228Y-2381771D01*
X23881657Y-2381771D01*
X23117082Y-2381771D02*
X23117082Y-1856126D01*
X23164868Y-1760554D01*
X23260440Y-1712768D01*
X23451583Y-1712768D01*
X23547155Y-1760554D01*
X23117082Y-2333985D02*
X23212654Y-2381771D01*
X23451583Y-2381771D01*
X23547155Y-2333985D01*
X23594941Y-2238413D01*
X23594941Y-2142841D01*
X23547155Y-2047269D01*
X23451583Y-1999483D01*
X23212654Y-1999483D01*
X23117082Y-1951697D01*
X22209150Y-2333985D02*
X22304722Y-2381771D01*
X22495865Y-2381771D01*
X22591437Y-2333985D01*
X22639223Y-2286199D01*
X22687009Y-2190627D01*
X22687009Y-1903912D01*
X22639223Y-1808340D01*
X22591437Y-1760554D01*
X22495865Y-1712768D01*
X22304722Y-1712768D01*
X22209150Y-1760554D01*
X21635719Y-2381771D02*
X21731291Y-2333985D01*
X21779077Y-2238413D01*
X21779077Y-1378267D01*
X20871145Y-2333985D02*
X20966716Y-2381771D01*
X21157860Y-2381771D01*
X21253432Y-2333985D01*
X21301218Y-2238413D01*
X21301218Y-1856126D01*
X21253432Y-1760554D01*
X21157860Y-1712768D01*
X20966716Y-1712768D01*
X20871145Y-1760554D01*
X20823359Y-1856126D01*
X20823359Y-1951697D01*
X21301218Y-2047269D01*
X20632215Y-2477342D02*
X19867641Y-2477342D01*
X19628711Y-1378267D02*
X19628711Y-2190627D01*
X19580925Y-2286199D01*
X19533139Y-2333985D01*
X19437567Y-2381771D01*
X19246424Y-2381771D01*
X19150852Y-2333985D01*
X19103066Y-2286199D01*
X19055280Y-2190627D01*
X19055280Y-1378267D01*
X18625207Y-2333985D02*
X18481849Y-2381771D01*
X18242920Y-2381771D01*
X18147348Y-2333985D01*
X18099562Y-2286199D01*
X18051776Y-2190627D01*
X18051776Y-2095055D01*
X18099562Y-1999483D01*
X18147348Y-1951697D01*
X18242920Y-1903912D01*
X18434063Y-1856126D01*
X18529635Y-1808340D01*
X18577421Y-1760554D01*
X18625207Y-1664982D01*
X18625207Y-1569410D01*
X18577421Y-1473838D01*
X18529635Y-1426053D01*
X18434063Y-1378267D01*
X18195134Y-1378267D01*
X18051776Y-1426053D01*
X17287202Y-1856126D02*
X17143844Y-1903912D01*
X17096058Y-1951697D01*
X17048272Y-2047269D01*
X17048272Y-2190627D01*
X17096058Y-2286199D01*
X17143844Y-2333985D01*
X17239416Y-2381771D01*
X17621703Y-2381771D01*
X17621703Y-1378267D01*
X17287202Y-1378267D01*
X17191630Y-1426053D01*
X17143844Y-1473838D01*
X17096058Y-1569410D01*
X17096058Y-1664982D01*
X17143844Y-1760554D01*
X17191630Y-1808340D01*
X17287202Y-1856126D01*
X17621703Y-1856126D01*
X16665985Y-1473838D02*
X16618199Y-1426053D01*
X16522627Y-1378267D01*
X16283698Y-1378267D01*
X16188126Y-1426053D01*
X16140340Y-1473838D01*
X16092554Y-1569410D01*
X16092554Y-1664982D01*
X16140340Y-1808340D01*
X16713771Y-2381771D01*
X16092554Y-2381771D01*
X15662481Y-2286199D02*
X15614695Y-2333985D01*
X15662481Y-2381771D01*
X15710267Y-2333985D01*
X15662481Y-2286199D01*
X15662481Y-2381771D01*
X14993478Y-1378267D02*
X14897907Y-1378267D01*
X14802335Y-1426053D01*
X14754549Y-1473838D01*
X14706763Y-1569410D01*
X14658977Y-1760554D01*
X14658977Y-1999483D01*
X14706763Y-2190627D01*
X14754549Y-2286199D01*
X14802335Y-2333985D01*
X14897907Y-2381771D01*
X14993478Y-2381771D01*
X15089050Y-2333985D01*
X15136836Y-2286199D01*
X15184622Y-2190627D01*
X15232408Y-1999483D01*
X15232408Y-1760554D01*
X15184622Y-1569410D01*
X15136836Y-1473838D01*
X15089050Y-1426053D01*
X14993478Y-1378267D01*
D12*
X41092380Y7005239D02*
X41092380Y7576667D01*
X41092380Y7290953D02*
X40092380Y7290953D01*
X40235238Y7386191D01*
X40330476Y7481429D01*
X40378095Y7576667D01*
X40092380Y6386191D02*
X40092380Y6290953D01*
X40140000Y6195715D01*
X40187619Y6148096D01*
X40282857Y6100477D01*
X40473333Y6052858D01*
X40711428Y6052858D01*
X40901904Y6100477D01*
X40997142Y6148096D01*
X41044761Y6195715D01*
X41092380Y6290953D01*
X41092380Y6386191D01*
X41044761Y6481429D01*
X40997142Y6529048D01*
X40901904Y6576667D01*
X40711428Y6624286D01*
X40473333Y6624286D01*
X40282857Y6576667D01*
X40187619Y6529048D01*
X40140000Y6481429D01*
X40092380Y6386191D01*
X41092380Y5624286D02*
X40092380Y5624286D01*
X40711428Y5529048D02*
X41092380Y5243334D01*
X40425714Y5243334D02*
X40806666Y5624286D01*
D13*
X39390952Y6667143D02*
X39200476Y6800477D01*
X39390952Y6895715D02*
X38990952Y6895715D01*
X38990952Y6743334D01*
X39010000Y6705239D01*
X39029047Y6686191D01*
X39067142Y6667143D01*
X39124285Y6667143D01*
X39162380Y6686191D01*
X39181428Y6705239D01*
X39200476Y6743334D01*
X39200476Y6895715D01*
X39390952Y6286191D02*
X39390952Y6514762D01*
X39390952Y6400477D02*
X38990952Y6400477D01*
X39048095Y6438572D01*
X39086190Y6476667D01*
X39105238Y6514762D01*
X39029047Y6133810D02*
X39010000Y6114762D01*
X38990952Y6076667D01*
X38990952Y5981429D01*
X39010000Y5943334D01*
X39029047Y5924286D01*
X39067142Y5905239D01*
X39105238Y5905239D01*
X39162380Y5924286D01*
X39390952Y6152858D01*
X39390952Y5905239D01*
D12*
X44912857Y13897620D02*
X44817619Y13897620D01*
X44722380Y13850000D01*
X44674761Y13802381D01*
X44627142Y13707143D01*
X44579523Y13516667D01*
X44579523Y13278572D01*
X44627142Y13088096D01*
X44674761Y12992858D01*
X44722380Y12945239D01*
X44817619Y12897620D01*
X44912857Y12897620D01*
X45008095Y12945239D01*
X45055714Y12992858D01*
X45103333Y13088096D01*
X45150952Y13278572D01*
X45150952Y13516667D01*
X45103333Y13707143D01*
X45055714Y13802381D01*
X45008095Y13850000D01*
X44912857Y13897620D01*
X44150952Y12992858D02*
X44103333Y12945239D01*
X44150952Y12897620D01*
X44198571Y12945239D01*
X44150952Y12992858D01*
X44150952Y12897620D01*
X43150952Y12897620D02*
X43722380Y12897620D01*
X43436666Y12897620D02*
X43436666Y13897620D01*
X43531904Y13754762D01*
X43627142Y13659524D01*
X43722380Y13611905D01*
X42293809Y13564286D02*
X42293809Y12897620D01*
X42722380Y13564286D02*
X42722380Y13040477D01*
X42674761Y12945239D01*
X42579523Y12897620D01*
X42436666Y12897620D01*
X42341428Y12945239D01*
X42293809Y12992858D01*
X41484285Y13421429D02*
X41817619Y13421429D01*
X41817619Y12897620D02*
X41817619Y13897620D01*
X41341428Y13897620D01*
D13*
X43667142Y14847143D02*
X43686190Y14828096D01*
X43743333Y14809048D01*
X43781428Y14809048D01*
X43838571Y14828096D01*
X43876666Y14866191D01*
X43895714Y14904286D01*
X43914761Y14980477D01*
X43914761Y15037620D01*
X43895714Y15113810D01*
X43876666Y15151905D01*
X43838571Y15190000D01*
X43781428Y15209048D01*
X43743333Y15209048D01*
X43686190Y15190000D01*
X43667142Y15170953D01*
X43514761Y15170953D02*
X43495714Y15190000D01*
X43457619Y15209048D01*
X43362380Y15209048D01*
X43324285Y15190000D01*
X43305238Y15170953D01*
X43286190Y15132858D01*
X43286190Y15094762D01*
X43305238Y15037620D01*
X43533809Y14809048D01*
X43286190Y14809048D01*
X42924285Y15209048D02*
X43114761Y15209048D01*
X43133809Y15018572D01*
X43114761Y15037620D01*
X43076666Y15056667D01*
X42981428Y15056667D01*
X42943333Y15037620D01*
X42924285Y15018572D01*
X42905238Y14980477D01*
X42905238Y14885239D01*
X42924285Y14847143D01*
X42943333Y14828096D01*
X42981428Y14809048D01*
X43076666Y14809048D01*
X43114761Y14828096D01*
X43133809Y14847143D01*
D12*
X3810476Y49437620D02*
X4143809Y49913810D01*
X4381904Y49437620D02*
X4381904Y50437620D01*
X4000952Y50437620D01*
X3905714Y50390000D01*
X3858095Y50342381D01*
X3810476Y50247143D01*
X3810476Y50104286D01*
X3858095Y50009048D01*
X3905714Y49961429D01*
X4000952Y49913810D01*
X4381904Y49913810D01*
D13*
X4186666Y51139048D02*
X4320000Y51329524D01*
X4415238Y51139048D02*
X4415238Y51539048D01*
X4262857Y51539048D01*
X4224761Y51520000D01*
X4205714Y51500953D01*
X4186666Y51462858D01*
X4186666Y51405715D01*
X4205714Y51367620D01*
X4224761Y51348572D01*
X4262857Y51329524D01*
X4415238Y51329524D01*
X3805714Y51139048D02*
X4034285Y51139048D01*
X3920000Y51139048D02*
X3920000Y51539048D01*
X3958095Y51481905D01*
X3996190Y51443810D01*
X4034285Y51424762D01*
D12*
X3890476Y56657620D02*
X4223809Y57133810D01*
X4461904Y56657620D02*
X4461904Y57657620D01*
X4080952Y57657620D01*
X3985714Y57610000D01*
X3938095Y57562381D01*
X3890476Y57467143D01*
X3890476Y57324286D01*
X3938095Y57229048D01*
X3985714Y57181429D01*
X4080952Y57133810D01*
X4461904Y57133810D01*
D13*
X4266666Y58359048D02*
X4400000Y58549524D01*
X4495238Y58359048D02*
X4495238Y58759048D01*
X4342857Y58759048D01*
X4304761Y58740000D01*
X4285714Y58720953D01*
X4266666Y58682858D01*
X4266666Y58625715D01*
X4285714Y58587620D01*
X4304761Y58568572D01*
X4342857Y58549524D01*
X4495238Y58549524D01*
X4114285Y58720953D02*
X4095238Y58740000D01*
X4057142Y58759048D01*
X3961904Y58759048D01*
X3923809Y58740000D01*
X3904761Y58720953D01*
X3885714Y58682858D01*
X3885714Y58644762D01*
X3904761Y58587620D01*
X4133333Y58359048D01*
X3885714Y58359048D01*
D12*
X57862380Y113007620D02*
X57862380Y113579048D01*
X57862380Y113293334D02*
X56862380Y113293334D01*
X57005238Y113388572D01*
X57100476Y113483810D01*
X57148095Y113579048D01*
X56862380Y112388572D02*
X56862380Y112293334D01*
X56910000Y112198096D01*
X56957619Y112150477D01*
X57052857Y112102858D01*
X57243333Y112055239D01*
X57481428Y112055239D01*
X57671904Y112102858D01*
X57767142Y112150477D01*
X57814761Y112198096D01*
X57862380Y112293334D01*
X57862380Y112388572D01*
X57814761Y112483810D01*
X57767142Y112531429D01*
X57671904Y112579048D01*
X57481428Y112626667D01*
X57243333Y112626667D01*
X57052857Y112579048D01*
X56957619Y112531429D01*
X56910000Y112483810D01*
X56862380Y112388572D01*
X56862380Y111436191D02*
X56862380Y111340953D01*
X56910000Y111245715D01*
X56957619Y111198096D01*
X57052857Y111150477D01*
X57243333Y111102858D01*
X57481428Y111102858D01*
X57671904Y111150477D01*
X57767142Y111198096D01*
X57814761Y111245715D01*
X57862380Y111340953D01*
X57862380Y111436191D01*
X57814761Y111531429D01*
X57767142Y111579048D01*
X57671904Y111626667D01*
X57481428Y111674286D01*
X57243333Y111674286D01*
X57052857Y111626667D01*
X56957619Y111579048D01*
X56910000Y111531429D01*
X56862380Y111436191D01*
X57195714Y110674286D02*
X57862380Y110674286D01*
X57290952Y110674286D02*
X57243333Y110626667D01*
X57195714Y110531429D01*
X57195714Y110388572D01*
X57243333Y110293334D01*
X57338571Y110245715D01*
X57862380Y110245715D01*
X57338571Y109436191D02*
X57338571Y109769524D01*
X57862380Y109769524D02*
X56862380Y109769524D01*
X56862380Y109293334D01*
D13*
X58982857Y111526667D02*
X59001904Y111545715D01*
X59020952Y111602858D01*
X59020952Y111640953D01*
X59001904Y111698096D01*
X58963809Y111736191D01*
X58925714Y111755239D01*
X58849523Y111774286D01*
X58792380Y111774286D01*
X58716190Y111755239D01*
X58678095Y111736191D01*
X58640000Y111698096D01*
X58620952Y111640953D01*
X58620952Y111602858D01*
X58640000Y111545715D01*
X58659047Y111526667D01*
X59020952Y111145715D02*
X59020952Y111374286D01*
X59020952Y111260000D02*
X58620952Y111260000D01*
X58678095Y111298096D01*
X58716190Y111336191D01*
X58735238Y111374286D01*
D12*
X68629047Y108401429D02*
X68962380Y108401429D01*
X68962380Y107877620D02*
X68962380Y108877620D01*
X68486190Y108877620D01*
X68248095Y108877620D02*
X67676666Y108877620D01*
X67962380Y107877620D02*
X67962380Y108877620D01*
X67390952Y108782381D02*
X67343333Y108830000D01*
X67248095Y108877620D01*
X67010000Y108877620D01*
X66914761Y108830000D01*
X66867142Y108782381D01*
X66819523Y108687143D01*
X66819523Y108591905D01*
X66867142Y108449048D01*
X67438571Y107877620D01*
X66819523Y107877620D01*
X66486190Y108877620D02*
X65867142Y108877620D01*
X66200476Y108496667D01*
X66057619Y108496667D01*
X65962380Y108449048D01*
X65914761Y108401429D01*
X65867142Y108306191D01*
X65867142Y108068096D01*
X65914761Y107972858D01*
X65962380Y107925239D01*
X66057619Y107877620D01*
X66343333Y107877620D01*
X66438571Y107925239D01*
X66486190Y107972858D01*
X65248095Y108877620D02*
X65152857Y108877620D01*
X65057619Y108830000D01*
X65010000Y108782381D01*
X64962380Y108687143D01*
X64914761Y108496667D01*
X64914761Y108258572D01*
X64962380Y108068096D01*
X65010000Y107972858D01*
X65057619Y107925239D01*
X65152857Y107877620D01*
X65248095Y107877620D01*
X65343333Y107925239D01*
X65390952Y107972858D01*
X65438571Y108068096D01*
X65486190Y108258572D01*
X65486190Y108496667D01*
X65438571Y108687143D01*
X65390952Y108782381D01*
X65343333Y108830000D01*
X65248095Y108877620D01*
X64581428Y108877620D02*
X63914761Y107877620D01*
X63914761Y108877620D02*
X64581428Y107877620D01*
X63581428Y107925239D02*
X63438571Y107877620D01*
X63200476Y107877620D01*
X63105238Y107925239D01*
X63057619Y107972858D01*
X63010000Y108068096D01*
X63010000Y108163334D01*
X63057619Y108258572D01*
X63105238Y108306191D01*
X63200476Y108353810D01*
X63390952Y108401429D01*
X63486190Y108449048D01*
X63533809Y108496667D01*
X63581428Y108591905D01*
X63581428Y108687143D01*
X63533809Y108782381D01*
X63486190Y108830000D01*
X63390952Y108877620D01*
X63152857Y108877620D01*
X63010000Y108830000D01*
X66619523Y112268096D02*
X66619523Y111620477D01*
X66581428Y111544286D01*
X66543333Y111506191D01*
X66467142Y111468096D01*
X66314761Y111468096D01*
X66238571Y111506191D01*
X66200476Y111544286D01*
X66162380Y111620477D01*
X66162380Y112268096D01*
X65362380Y111468096D02*
X65819523Y111468096D01*
X65590952Y111468096D02*
X65590952Y112268096D01*
X65667142Y112153810D01*
X65743333Y112077620D01*
X65819523Y112039524D01*
M02*
