G04 #@! TF.GenerationSoftware,KiCad,Pcbnew,(5.1.9)-1*
G04 #@! TF.CreationDate,2021-01-16T04:06:45-07:00*
G04 #@! TF.ProjectId,purplewizard-pogo,70757270-6c65-4776-997a-6172642d706f,1*
G04 #@! TF.SameCoordinates,PX774a7a0PYac0e4a0*
G04 #@! TF.FileFunction,Soldermask,Top*
G04 #@! TF.FilePolarity,Negative*
%FSLAX46Y46*%
G04 Gerber Fmt 4.6, Leading zero omitted, Abs format (unit mm)*
G04 Created by KiCad (PCBNEW (5.1.9)-1) date 2021-01-16 04:06:45*
%MOMM*%
%LPD*%
G01*
G04 APERTURE LIST*
%ADD10C,2.200000*%
%ADD11C,0.900000*%
%ADD12R,2.500000X1.250000*%
%ADD13C,0.985520*%
%ADD14C,0.988060*%
%ADD15C,0.784860*%
%ADD16R,1.000000X1.000000*%
%ADD17O,1.000000X1.000000*%
%ADD18O,1.300000X2.600000*%
%ADD19O,1.100000X2.200000*%
%ADD20O,1.700000X1.700000*%
%ADD21R,1.700000X1.700000*%
G04 APERTURE END LIST*
G36*
G01*
X60920000Y10420000D02*
X60920000Y34920000D01*
G75*
G02*
X62170000Y36170000I1250000J0D01*
G01*
X64670000Y36170000D01*
G75*
G02*
X65920000Y34920000I0J-1250000D01*
G01*
X65920000Y10420000D01*
G75*
G02*
X64670000Y9170000I-1250000J0D01*
G01*
X62170000Y9170000D01*
G75*
G02*
X60920000Y10420000I0J1250000D01*
G01*
G37*
D10*
X89570000Y121710000D03*
X89570000Y118376667D03*
X89570000Y111710000D03*
X89550000Y115050000D03*
X40870000Y128808000D03*
X40870000Y136422000D03*
X40870000Y131346000D03*
X3858000Y128140000D03*
X40870000Y138960000D03*
X40870000Y133884000D03*
X40870000Y126270000D03*
X3858000Y120950000D03*
X3858000Y124545000D03*
X75010000Y127260000D03*
X75030000Y130890000D03*
X75030000Y134520000D03*
X70700000Y80990000D03*
X70700000Y84630000D03*
X70700000Y88270000D03*
D11*
X87530000Y18080000D03*
X87530000Y11280000D03*
D12*
X84780000Y17180000D03*
X84780000Y14680000D03*
X84780000Y12180000D03*
D13*
X6400000Y21056000D03*
X6400000Y19024000D03*
D14*
X14020000Y20040000D03*
D15*
X10210000Y19405000D03*
X10210000Y20675000D03*
X11480000Y19405000D03*
X11480000Y20675000D03*
X12750000Y19405000D03*
X12750000Y20675000D03*
X8940000Y20675000D03*
X8940000Y19405000D03*
X7670000Y20675000D03*
X7670000Y19405000D03*
D16*
X12090000Y10260000D03*
D17*
X12090000Y8990000D03*
X10820000Y10060000D03*
X10820000Y8790000D03*
X9550000Y10260000D03*
X9550000Y8990000D03*
X8280000Y10060000D03*
X8280000Y8790000D03*
X7010000Y10260000D03*
X7010000Y8990000D03*
D18*
X25860000Y1790000D03*
X34500000Y1790000D03*
D19*
X25860000Y7150000D03*
X34500000Y7150000D03*
D20*
X15375001Y42245001D03*
X12835001Y42245001D03*
X10295001Y42245001D03*
D21*
X7755001Y42245001D03*
X7755001Y49375001D03*
D20*
X10295001Y49375001D03*
X12835001Y49375001D03*
X15375001Y49375001D03*
D21*
X7755001Y56505001D03*
D20*
X10295001Y56505001D03*
X12835001Y56505001D03*
X15375001Y56505001D03*
D21*
X12160000Y33180000D03*
D20*
X12160000Y30640000D03*
X9620000Y33180000D03*
X9620000Y30640000D03*
X7080000Y33180000D03*
X7080000Y30640000D03*
D21*
X84090000Y56980000D03*
D20*
X84090000Y54440000D03*
X84090000Y51900000D03*
X84090000Y49360000D03*
D21*
X86630000Y56980000D03*
D20*
X86630000Y54440000D03*
X86630000Y51900000D03*
X86630000Y49360000D03*
X81550000Y49360000D03*
X81550000Y51900000D03*
X81550000Y54440000D03*
D21*
X81550000Y56980000D03*
X76900000Y66720000D03*
D20*
X76900000Y64180000D03*
X74360000Y66720000D03*
X74360000Y64180000D03*
X71820000Y66720000D03*
X71820000Y64180000D03*
X69280000Y66720000D03*
X69280000Y64180000D03*
X66740000Y66720000D03*
X66740000Y64180000D03*
X64200000Y66720000D03*
X64200000Y64180000D03*
X61660000Y66720000D03*
X61660000Y64180000D03*
X59120000Y66720000D03*
X59120000Y64180000D03*
X56580000Y66720000D03*
X56580000Y64180000D03*
X54040000Y66720000D03*
X54040000Y64180000D03*
X51500000Y66720000D03*
X51500000Y64180000D03*
X48960000Y66720000D03*
X48960000Y64180000D03*
X46420000Y66720000D03*
X46420000Y64180000D03*
X43880000Y66720000D03*
X43880000Y64180000D03*
X41340000Y66720000D03*
X41340000Y64180000D03*
X38800000Y66720000D03*
X38800000Y64180000D03*
X36260000Y66720000D03*
X36260000Y64180000D03*
X33720000Y66720000D03*
X33720000Y64180000D03*
X31180000Y66720000D03*
X31180000Y64180000D03*
X28640000Y66720000D03*
X28640000Y64180000D03*
G36*
G01*
X2880000Y49123750D02*
X2880000Y49636250D01*
G75*
G02*
X3098750Y49855000I218750J0D01*
G01*
X3536250Y49855000D01*
G75*
G02*
X3755000Y49636250I0J-218750D01*
G01*
X3755000Y49123750D01*
G75*
G02*
X3536250Y48905000I-218750J0D01*
G01*
X3098750Y48905000D01*
G75*
G02*
X2880000Y49123750I0J218750D01*
G01*
G37*
G36*
G01*
X1305000Y49123750D02*
X1305000Y49636250D01*
G75*
G02*
X1523750Y49855000I218750J0D01*
G01*
X1961250Y49855000D01*
G75*
G02*
X2180000Y49636250I0J-218750D01*
G01*
X2180000Y49123750D01*
G75*
G02*
X1961250Y48905000I-218750J0D01*
G01*
X1523750Y48905000D01*
G75*
G02*
X1305000Y49123750I0J218750D01*
G01*
G37*
G36*
G01*
X1305000Y56283750D02*
X1305000Y56796250D01*
G75*
G02*
X1523750Y57015000I218750J0D01*
G01*
X1961250Y57015000D01*
G75*
G02*
X2180000Y56796250I0J-218750D01*
G01*
X2180000Y56283750D01*
G75*
G02*
X1961250Y56065000I-218750J0D01*
G01*
X1523750Y56065000D01*
G75*
G02*
X1305000Y56283750I0J218750D01*
G01*
G37*
G36*
G01*
X2880000Y56283750D02*
X2880000Y56796250D01*
G75*
G02*
X3098750Y57015000I218750J0D01*
G01*
X3536250Y57015000D01*
G75*
G02*
X3755000Y56796250I0J-218750D01*
G01*
X3755000Y56283750D01*
G75*
G02*
X3536250Y56065000I-218750J0D01*
G01*
X3098750Y56065000D01*
G75*
G02*
X2880000Y56283750I0J218750D01*
G01*
G37*
D21*
X25650000Y55000000D03*
D20*
X25650000Y52460000D03*
X25650000Y49920000D03*
X30630000Y49920000D03*
X30630000Y52460000D03*
D21*
X30630000Y55000000D03*
M02*
