G04 #@! TF.GenerationSoftware,KiCad,Pcbnew,(5.1.0)-1*
G04 #@! TF.CreationDate,2019-04-28T22:44:37-06:00*
G04 #@! TF.ProjectId,hcrn,6863726e-2e6b-4696-9361-645f70636258,0.1*
G04 #@! TF.SameCoordinates,Original*
G04 #@! TF.FileFunction,Soldermask,Top*
G04 #@! TF.FilePolarity,Negative*
%FSLAX46Y46*%
G04 Gerber Fmt 4.6, Leading zero omitted, Abs format (unit mm)*
G04 Created by KiCad (PCBNEW (5.1.0)-1) date 2019-04-28 22:44:37*
%MOMM*%
%LPD*%
G04 APERTURE LIST*
%ADD10C,0.100000*%
%ADD11C,0.150000*%
%ADD12C,0.300000*%
%ADD13C,0.400000*%
%ADD14C,1.900000*%
%ADD15C,1.400000*%
%ADD16R,2.400000X2.400000*%
%ADD17C,2.400000*%
%ADD18C,3.900000*%
%ADD19C,5.400000*%
%ADD20C,1.120000*%
%ADD21C,1.600000*%
%ADD22R,1.950000X1.700000*%
%ADD23C,1.275000*%
%ADD24R,1.470000X2.200000*%
%ADD25O,1.470000X2.200000*%
%ADD26C,1.850000*%
%ADD27C,1.600000*%
%ADD28C,1.300000*%
%ADD29R,1.400000X1.400000*%
%ADD30O,1.400000X1.400000*%
%ADD31C,2.178000*%
%ADD32C,2.127200*%
%ADD33O,2.127200X2.127200*%
%ADD34R,2.127200X2.127200*%
G04 APERTURE END LIST*
D10*
D11*
X159400000Y-171900000D02*
X159400000Y-203900000D01*
X267400000Y-203900000D01*
X267400000Y-171900000D01*
X159400000Y-171900000D01*
D10*
D11*
X10000000Y-10000000D02*
X10000000Y-205900000D01*
X269400000Y-205900000D01*
X269400000Y-10000000D01*
X10000000Y-10000000D01*
D10*
D11*
X12000000Y-12000000D02*
X12000000Y-203900000D01*
X267400000Y-203900000D01*
X267400000Y-12000000D01*
X12000000Y-12000000D01*
D10*
D11*
X60000000Y-12000000D02*
X60000000Y-10000000D01*
D10*
D11*
X110000000Y-12000000D02*
X110000000Y-10000000D01*
D10*
D11*
X160000000Y-12000000D02*
X160000000Y-10000000D01*
D10*
D11*
X210000000Y-12000000D02*
X210000000Y-10000000D01*
D10*
D11*
X260000000Y-12000000D02*
X260000000Y-10000000D01*
D10*
D11*
X36065476Y-11588095D02*
X35322619Y-11588095D01*
X35694047Y-11588095D02*
X35694047Y-10288095D01*
X35570238Y-10473809D01*
X35446428Y-10597619D01*
X35322619Y-10659523D01*
D10*
D11*
X85322619Y-10411904D02*
X85384523Y-10350000D01*
X85508333Y-10288095D01*
X85817857Y-10288095D01*
X85941666Y-10350000D01*
X86003571Y-10411904D01*
X86065476Y-10535714D01*
X86065476Y-10659523D01*
X86003571Y-10845238D01*
X85260714Y-11588095D01*
X86065476Y-11588095D01*
D10*
D11*
X135260714Y-10288095D02*
X136065476Y-10288095D01*
X135632142Y-10783333D01*
X135817857Y-10783333D01*
X135941666Y-10845238D01*
X136003571Y-10907142D01*
X136065476Y-11030952D01*
X136065476Y-11340476D01*
X136003571Y-11464285D01*
X135941666Y-11526190D01*
X135817857Y-11588095D01*
X135446428Y-11588095D01*
X135322619Y-11526190D01*
X135260714Y-11464285D01*
D10*
D11*
X185941666Y-10721428D02*
X185941666Y-11588095D01*
X185632142Y-10226190D02*
X185322619Y-11154761D01*
X186127380Y-11154761D01*
D10*
D11*
X236003571Y-10288095D02*
X235384523Y-10288095D01*
X235322619Y-10907142D01*
X235384523Y-10845238D01*
X235508333Y-10783333D01*
X235817857Y-10783333D01*
X235941666Y-10845238D01*
X236003571Y-10907142D01*
X236065476Y-11030952D01*
X236065476Y-11340476D01*
X236003571Y-11464285D01*
X235941666Y-11526190D01*
X235817857Y-11588095D01*
X235508333Y-11588095D01*
X235384523Y-11526190D01*
X235322619Y-11464285D01*
D10*
D11*
X60000000Y-203900000D02*
X60000000Y-205900000D01*
D10*
D11*
X110000000Y-203900000D02*
X110000000Y-205900000D01*
D10*
D11*
X160000000Y-203900000D02*
X160000000Y-205900000D01*
D10*
D11*
X210000000Y-203900000D02*
X210000000Y-205900000D01*
D10*
D11*
X260000000Y-203900000D02*
X260000000Y-205900000D01*
D10*
D11*
X36065476Y-205488095D02*
X35322619Y-205488095D01*
X35694047Y-205488095D02*
X35694047Y-204188095D01*
X35570238Y-204373809D01*
X35446428Y-204497619D01*
X35322619Y-204559523D01*
D10*
D11*
X85322619Y-204311904D02*
X85384523Y-204250000D01*
X85508333Y-204188095D01*
X85817857Y-204188095D01*
X85941666Y-204250000D01*
X86003571Y-204311904D01*
X86065476Y-204435714D01*
X86065476Y-204559523D01*
X86003571Y-204745238D01*
X85260714Y-205488095D01*
X86065476Y-205488095D01*
D10*
D11*
X135260714Y-204188095D02*
X136065476Y-204188095D01*
X135632142Y-204683333D01*
X135817857Y-204683333D01*
X135941666Y-204745238D01*
X136003571Y-204807142D01*
X136065476Y-204930952D01*
X136065476Y-205240476D01*
X136003571Y-205364285D01*
X135941666Y-205426190D01*
X135817857Y-205488095D01*
X135446428Y-205488095D01*
X135322619Y-205426190D01*
X135260714Y-205364285D01*
D10*
D11*
X185941666Y-204621428D02*
X185941666Y-205488095D01*
X185632142Y-204126190D02*
X185322619Y-205054761D01*
X186127380Y-205054761D01*
D10*
D11*
X236003571Y-204188095D02*
X235384523Y-204188095D01*
X235322619Y-204807142D01*
X235384523Y-204745238D01*
X235508333Y-204683333D01*
X235817857Y-204683333D01*
X235941666Y-204745238D01*
X236003571Y-204807142D01*
X236065476Y-204930952D01*
X236065476Y-205240476D01*
X236003571Y-205364285D01*
X235941666Y-205426190D01*
X235817857Y-205488095D01*
X235508333Y-205488095D01*
X235384523Y-205426190D01*
X235322619Y-205364285D01*
D10*
D11*
X10000000Y-60000000D02*
X12000000Y-60000000D01*
D10*
D11*
X10000000Y-110000000D02*
X12000000Y-110000000D01*
D10*
D11*
X10000000Y-160000000D02*
X12000000Y-160000000D01*
D10*
D11*
X10690476Y-35216666D02*
X11309523Y-35216666D01*
X10566666Y-35588095D02*
X11000000Y-34288095D01*
X11433333Y-35588095D01*
D10*
D11*
X11092857Y-84907142D02*
X11278571Y-84969047D01*
X11340476Y-85030952D01*
X11402380Y-85154761D01*
X11402380Y-85340476D01*
X11340476Y-85464285D01*
X11278571Y-85526190D01*
X11154761Y-85588095D01*
X10659523Y-85588095D01*
X10659523Y-84288095D01*
X11092857Y-84288095D01*
X11216666Y-84350000D01*
X11278571Y-84411904D01*
X11340476Y-84535714D01*
X11340476Y-84659523D01*
X11278571Y-84783333D01*
X11216666Y-84845238D01*
X11092857Y-84907142D01*
X10659523Y-84907142D01*
D10*
D11*
X11402380Y-135464285D02*
X11340476Y-135526190D01*
X11154761Y-135588095D01*
X11030952Y-135588095D01*
X10845238Y-135526190D01*
X10721428Y-135402380D01*
X10659523Y-135278571D01*
X10597619Y-135030952D01*
X10597619Y-134845238D01*
X10659523Y-134597619D01*
X10721428Y-134473809D01*
X10845238Y-134350000D01*
X11030952Y-134288095D01*
X11154761Y-134288095D01*
X11340476Y-134350000D01*
X11402380Y-134411904D01*
D10*
D11*
X10659523Y-185588095D02*
X10659523Y-184288095D01*
X10969047Y-184288095D01*
X11154761Y-184350000D01*
X11278571Y-184473809D01*
X11340476Y-184597619D01*
X11402380Y-184845238D01*
X11402380Y-185030952D01*
X11340476Y-185278571D01*
X11278571Y-185402380D01*
X11154761Y-185526190D01*
X10969047Y-185588095D01*
X10659523Y-185588095D01*
D10*
D11*
X269400000Y-60000000D02*
X267400000Y-60000000D01*
D10*
D11*
X269400000Y-110000000D02*
X267400000Y-110000000D01*
D10*
D11*
X269400000Y-160000000D02*
X267400000Y-160000000D01*
D10*
D11*
X268090476Y-35216666D02*
X268709523Y-35216666D01*
X267966666Y-35588095D02*
X268400000Y-34288095D01*
X268833333Y-35588095D01*
D10*
D11*
X268492857Y-84907142D02*
X268678571Y-84969047D01*
X268740476Y-85030952D01*
X268802380Y-85154761D01*
X268802380Y-85340476D01*
X268740476Y-85464285D01*
X268678571Y-85526190D01*
X268554761Y-85588095D01*
X268059523Y-85588095D01*
X268059523Y-84288095D01*
X268492857Y-84288095D01*
X268616666Y-84350000D01*
X268678571Y-84411904D01*
X268740476Y-84535714D01*
X268740476Y-84659523D01*
X268678571Y-84783333D01*
X268616666Y-84845238D01*
X268492857Y-84907142D01*
X268059523Y-84907142D01*
D10*
D11*
X268802380Y-135464285D02*
X268740476Y-135526190D01*
X268554761Y-135588095D01*
X268430952Y-135588095D01*
X268245238Y-135526190D01*
X268121428Y-135402380D01*
X268059523Y-135278571D01*
X267997619Y-135030952D01*
X267997619Y-134845238D01*
X268059523Y-134597619D01*
X268121428Y-134473809D01*
X268245238Y-134350000D01*
X268430952Y-134288095D01*
X268554761Y-134288095D01*
X268740476Y-134350000D01*
X268802380Y-134411904D01*
D10*
D11*
X268059523Y-185588095D02*
X268059523Y-184288095D01*
X268369047Y-184288095D01*
X268554761Y-184350000D01*
X268678571Y-184473809D01*
X268740476Y-184597619D01*
X268802380Y-184845238D01*
X268802380Y-185030952D01*
X268740476Y-185278571D01*
X268678571Y-185402380D01*
X268554761Y-185526190D01*
X268369047Y-185588095D01*
X268059523Y-185588095D01*
D10*
D11*
X182832142Y-199678571D02*
X182832142Y-198178571D01*
X183189285Y-198178571D01*
X183403571Y-198250000D01*
X183546428Y-198392857D01*
X183617857Y-198535714D01*
X183689285Y-198821428D01*
X183689285Y-199035714D01*
X183617857Y-199321428D01*
X183546428Y-199464285D01*
X183403571Y-199607142D01*
X183189285Y-199678571D01*
X182832142Y-199678571D01*
X184975000Y-199678571D02*
X184975000Y-198892857D01*
X184903571Y-198750000D01*
X184760714Y-198678571D01*
X184475000Y-198678571D01*
X184332142Y-198750000D01*
X184975000Y-199607142D02*
X184832142Y-199678571D01*
X184475000Y-199678571D01*
X184332142Y-199607142D01*
X184260714Y-199464285D01*
X184260714Y-199321428D01*
X184332142Y-199178571D01*
X184475000Y-199107142D01*
X184832142Y-199107142D01*
X184975000Y-199035714D01*
X185475000Y-198678571D02*
X186046428Y-198678571D01*
X185689285Y-198178571D02*
X185689285Y-199464285D01*
X185760714Y-199607142D01*
X185903571Y-199678571D01*
X186046428Y-199678571D01*
X187117857Y-199607142D02*
X186975000Y-199678571D01*
X186689285Y-199678571D01*
X186546428Y-199607142D01*
X186475000Y-199464285D01*
X186475000Y-198892857D01*
X186546428Y-198750000D01*
X186689285Y-198678571D01*
X186975000Y-198678571D01*
X187117857Y-198750000D01*
X187189285Y-198892857D01*
X187189285Y-199035714D01*
X186475000Y-199178571D01*
X187832142Y-199535714D02*
X187903571Y-199607142D01*
X187832142Y-199678571D01*
X187760714Y-199607142D01*
X187832142Y-199535714D01*
X187832142Y-199678571D01*
X187832142Y-198750000D02*
X187903571Y-198821428D01*
X187832142Y-198892857D01*
X187760714Y-198821428D01*
X187832142Y-198750000D01*
X187832142Y-198892857D01*
X189617857Y-198321428D02*
X189689285Y-198250000D01*
X189832142Y-198178571D01*
X190189285Y-198178571D01*
X190332142Y-198250000D01*
X190403571Y-198321428D01*
X190475000Y-198464285D01*
X190475000Y-198607142D01*
X190403571Y-198821428D01*
X189546428Y-199678571D01*
X190475000Y-199678571D01*
X191403571Y-198178571D02*
X191546428Y-198178571D01*
X191689285Y-198250000D01*
X191760714Y-198321428D01*
X191832142Y-198464285D01*
X191903571Y-198750000D01*
X191903571Y-199107142D01*
X191832142Y-199392857D01*
X191760714Y-199535714D01*
X191689285Y-199607142D01*
X191546428Y-199678571D01*
X191403571Y-199678571D01*
X191260714Y-199607142D01*
X191189285Y-199535714D01*
X191117857Y-199392857D01*
X191046428Y-199107142D01*
X191046428Y-198750000D01*
X191117857Y-198464285D01*
X191189285Y-198321428D01*
X191260714Y-198250000D01*
X191403571Y-198178571D01*
X193332142Y-199678571D02*
X192475000Y-199678571D01*
X192903571Y-199678571D02*
X192903571Y-198178571D01*
X192760714Y-198392857D01*
X192617857Y-198535714D01*
X192475000Y-198607142D01*
X194046428Y-199678571D02*
X194332142Y-199678571D01*
X194475000Y-199607142D01*
X194546428Y-199535714D01*
X194689285Y-199321428D01*
X194760714Y-199035714D01*
X194760714Y-198464285D01*
X194689285Y-198321428D01*
X194617857Y-198250000D01*
X194475000Y-198178571D01*
X194189285Y-198178571D01*
X194046428Y-198250000D01*
X193975000Y-198321428D01*
X193903571Y-198464285D01*
X193903571Y-198821428D01*
X193975000Y-198964285D01*
X194046428Y-199035714D01*
X194189285Y-199107142D01*
X194475000Y-199107142D01*
X194617857Y-199035714D01*
X194689285Y-198964285D01*
X194760714Y-198821428D01*
X195403571Y-199107142D02*
X196546428Y-199107142D01*
X197546428Y-198178571D02*
X197689285Y-198178571D01*
X197832142Y-198250000D01*
X197903571Y-198321428D01*
X197975000Y-198464285D01*
X198046428Y-198750000D01*
X198046428Y-199107142D01*
X197975000Y-199392857D01*
X197903571Y-199535714D01*
X197832142Y-199607142D01*
X197689285Y-199678571D01*
X197546428Y-199678571D01*
X197403571Y-199607142D01*
X197332142Y-199535714D01*
X197260714Y-199392857D01*
X197189285Y-199107142D01*
X197189285Y-198750000D01*
X197260714Y-198464285D01*
X197332142Y-198321428D01*
X197403571Y-198250000D01*
X197546428Y-198178571D01*
X198546428Y-198178571D02*
X199475000Y-198178571D01*
X198975000Y-198750000D01*
X199189285Y-198750000D01*
X199332142Y-198821428D01*
X199403571Y-198892857D01*
X199475000Y-199035714D01*
X199475000Y-199392857D01*
X199403571Y-199535714D01*
X199332142Y-199607142D01*
X199189285Y-199678571D01*
X198760714Y-199678571D01*
X198617857Y-199607142D01*
X198546428Y-199535714D01*
X200117857Y-199107142D02*
X201260714Y-199107142D01*
X201903571Y-198321428D02*
X201975000Y-198250000D01*
X202117857Y-198178571D01*
X202475000Y-198178571D01*
X202617857Y-198250000D01*
X202689285Y-198321428D01*
X202760714Y-198464285D01*
X202760714Y-198607142D01*
X202689285Y-198821428D01*
X201832142Y-199678571D01*
X202760714Y-199678571D01*
X204046428Y-198678571D02*
X204046428Y-199678571D01*
X203689285Y-198107142D02*
X203332142Y-199178571D01*
X204260714Y-199178571D01*
D10*
D11*
X159400000Y-200400000D02*
X267400000Y-200400000D01*
D10*
D11*
X160832142Y-202478571D02*
X160832142Y-200978571D01*
X161689285Y-202478571D02*
X161046428Y-201621428D01*
X161689285Y-200978571D02*
X160832142Y-201835714D01*
X162332142Y-202478571D02*
X162332142Y-201478571D01*
X162332142Y-200978571D02*
X162260714Y-201050000D01*
X162332142Y-201121428D01*
X162403571Y-201050000D01*
X162332142Y-200978571D01*
X162332142Y-201121428D01*
X163903571Y-202335714D02*
X163832142Y-202407142D01*
X163617857Y-202478571D01*
X163475000Y-202478571D01*
X163260714Y-202407142D01*
X163117857Y-202264285D01*
X163046428Y-202121428D01*
X162975000Y-201835714D01*
X162975000Y-201621428D01*
X163046428Y-201335714D01*
X163117857Y-201192857D01*
X163260714Y-201050000D01*
X163475000Y-200978571D01*
X163617857Y-200978571D01*
X163832142Y-201050000D01*
X163903571Y-201121428D01*
X165189285Y-202478571D02*
X165189285Y-201692857D01*
X165117857Y-201550000D01*
X164975000Y-201478571D01*
X164689285Y-201478571D01*
X164546428Y-201550000D01*
X165189285Y-202407142D02*
X165046428Y-202478571D01*
X164689285Y-202478571D01*
X164546428Y-202407142D01*
X164475000Y-202264285D01*
X164475000Y-202121428D01*
X164546428Y-201978571D01*
X164689285Y-201907142D01*
X165046428Y-201907142D01*
X165189285Y-201835714D01*
X166546428Y-202478571D02*
X166546428Y-200978571D01*
X166546428Y-202407142D02*
X166403571Y-202478571D01*
X166117857Y-202478571D01*
X165975000Y-202407142D01*
X165903571Y-202335714D01*
X165832142Y-202192857D01*
X165832142Y-201764285D01*
X165903571Y-201621428D01*
X165975000Y-201550000D01*
X166117857Y-201478571D01*
X166403571Y-201478571D01*
X166546428Y-201550000D01*
X168403571Y-201692857D02*
X168903571Y-201692857D01*
X169117857Y-202478571D02*
X168403571Y-202478571D01*
X168403571Y-200978571D01*
X169117857Y-200978571D01*
X169760714Y-202335714D02*
X169832142Y-202407142D01*
X169760714Y-202478571D01*
X169689285Y-202407142D01*
X169760714Y-202335714D01*
X169760714Y-202478571D01*
X170475000Y-202478571D02*
X170475000Y-200978571D01*
X170832142Y-200978571D01*
X171046428Y-201050000D01*
X171189285Y-201192857D01*
X171260714Y-201335714D01*
X171332142Y-201621428D01*
X171332142Y-201835714D01*
X171260714Y-202121428D01*
X171189285Y-202264285D01*
X171046428Y-202407142D01*
X170832142Y-202478571D01*
X170475000Y-202478571D01*
X171975000Y-202335714D02*
X172046428Y-202407142D01*
X171975000Y-202478571D01*
X171903571Y-202407142D01*
X171975000Y-202335714D01*
X171975000Y-202478571D01*
X172617857Y-202050000D02*
X173332142Y-202050000D01*
X172475000Y-202478571D02*
X172975000Y-200978571D01*
X173475000Y-202478571D01*
X173975000Y-202335714D02*
X174046428Y-202407142D01*
X173975000Y-202478571D01*
X173903571Y-202407142D01*
X173975000Y-202335714D01*
X173975000Y-202478571D01*
X176975000Y-202478571D02*
X176975000Y-200978571D01*
X177117857Y-201907142D02*
X177546428Y-202478571D01*
X177546428Y-201478571D02*
X176975000Y-202050000D01*
X178189285Y-202478571D02*
X178189285Y-201478571D01*
X178189285Y-200978571D02*
X178117857Y-201050000D01*
X178189285Y-201121428D01*
X178260714Y-201050000D01*
X178189285Y-200978571D01*
X178189285Y-201121428D01*
X179546428Y-202407142D02*
X179403571Y-202478571D01*
X179117857Y-202478571D01*
X178975000Y-202407142D01*
X178903571Y-202335714D01*
X178832142Y-202192857D01*
X178832142Y-201764285D01*
X178903571Y-201621428D01*
X178975000Y-201550000D01*
X179117857Y-201478571D01*
X179403571Y-201478571D01*
X179546428Y-201550000D01*
X180832142Y-202478571D02*
X180832142Y-201692857D01*
X180760714Y-201550000D01*
X180617857Y-201478571D01*
X180332142Y-201478571D01*
X180189285Y-201550000D01*
X180832142Y-202407142D02*
X180689285Y-202478571D01*
X180332142Y-202478571D01*
X180189285Y-202407142D01*
X180117857Y-202264285D01*
X180117857Y-202121428D01*
X180189285Y-201978571D01*
X180332142Y-201907142D01*
X180689285Y-201907142D01*
X180832142Y-201835714D01*
X182189285Y-202478571D02*
X182189285Y-200978571D01*
X182189285Y-202407142D02*
X182046428Y-202478571D01*
X181760714Y-202478571D01*
X181617857Y-202407142D01*
X181546428Y-202335714D01*
X181475000Y-202192857D01*
X181475000Y-201764285D01*
X181546428Y-201621428D01*
X181617857Y-201550000D01*
X181760714Y-201478571D01*
X182046428Y-201478571D01*
X182189285Y-201550000D01*
X184475000Y-203050000D02*
X184403571Y-202978571D01*
X184260714Y-202764285D01*
X184189285Y-202621428D01*
X184117857Y-202407142D01*
X184046428Y-202050000D01*
X184046428Y-201764285D01*
X184117857Y-201407142D01*
X184189285Y-201192857D01*
X184260714Y-201050000D01*
X184403571Y-200835714D01*
X184475000Y-200764285D01*
X185760714Y-200978571D02*
X185046428Y-200978571D01*
X184975000Y-201692857D01*
X185046428Y-201621428D01*
X185189285Y-201550000D01*
X185546428Y-201550000D01*
X185689285Y-201621428D01*
X185760714Y-201692857D01*
X185832142Y-201835714D01*
X185832142Y-202192857D01*
X185760714Y-202335714D01*
X185689285Y-202407142D01*
X185546428Y-202478571D01*
X185189285Y-202478571D01*
X185046428Y-202407142D01*
X184975000Y-202335714D01*
X186475000Y-202335714D02*
X186546428Y-202407142D01*
X186475000Y-202478571D01*
X186403571Y-202407142D01*
X186475000Y-202335714D01*
X186475000Y-202478571D01*
X187975000Y-202478571D02*
X187117857Y-202478571D01*
X187546428Y-202478571D02*
X187546428Y-200978571D01*
X187403571Y-201192857D01*
X187260714Y-201335714D01*
X187117857Y-201407142D01*
X188617857Y-202335714D02*
X188689285Y-202407142D01*
X188617857Y-202478571D01*
X188546428Y-202407142D01*
X188617857Y-202335714D01*
X188617857Y-202478571D01*
X189617857Y-200978571D02*
X189760714Y-200978571D01*
X189903571Y-201050000D01*
X189975000Y-201121428D01*
X190046428Y-201264285D01*
X190117857Y-201550000D01*
X190117857Y-201907142D01*
X190046428Y-202192857D01*
X189975000Y-202335714D01*
X189903571Y-202407142D01*
X189760714Y-202478571D01*
X189617857Y-202478571D01*
X189475000Y-202407142D01*
X189403571Y-202335714D01*
X189332142Y-202192857D01*
X189260714Y-201907142D01*
X189260714Y-201550000D01*
X189332142Y-201264285D01*
X189403571Y-201121428D01*
X189475000Y-201050000D01*
X189617857Y-200978571D01*
X190617857Y-203050000D02*
X190689285Y-202978571D01*
X190832142Y-202764285D01*
X190903571Y-202621428D01*
X190975000Y-202407142D01*
X191046428Y-202050000D01*
X191046428Y-201764285D01*
X190975000Y-201407142D01*
X190903571Y-201192857D01*
X190832142Y-201050000D01*
X190689285Y-200835714D01*
X190617857Y-200764285D01*
X191760714Y-201907142D02*
X192903571Y-201907142D01*
X194403571Y-202478571D02*
X193546428Y-202478571D01*
X193975000Y-202478571D02*
X193975000Y-200978571D01*
X193832142Y-201192857D01*
X193689285Y-201335714D01*
X193546428Y-201407142D01*
D10*
D11*
X159400000Y-197400000D02*
X267400000Y-197400000D01*
D10*
D12*
X246809285Y-199678571D02*
X246309285Y-198964285D01*
X245952142Y-199678571D02*
X245952142Y-198178571D01*
X246523571Y-198178571D01*
X246666428Y-198250000D01*
X246737857Y-198321428D01*
X246809285Y-198464285D01*
X246809285Y-198678571D01*
X246737857Y-198821428D01*
X246666428Y-198892857D01*
X246523571Y-198964285D01*
X245952142Y-198964285D01*
X248023571Y-199607142D02*
X247880714Y-199678571D01*
X247595000Y-199678571D01*
X247452142Y-199607142D01*
X247380714Y-199464285D01*
X247380714Y-198892857D01*
X247452142Y-198750000D01*
X247595000Y-198678571D01*
X247880714Y-198678571D01*
X248023571Y-198750000D01*
X248095000Y-198892857D01*
X248095000Y-199035714D01*
X247380714Y-199178571D01*
X248595000Y-198678571D02*
X248952142Y-199678571D01*
X249309285Y-198678571D01*
X249880714Y-199535714D02*
X249952142Y-199607142D01*
X249880714Y-199678571D01*
X249809285Y-199607142D01*
X249880714Y-199535714D01*
X249880714Y-199678571D01*
X249880714Y-198750000D02*
X249952142Y-198821428D01*
X249880714Y-198892857D01*
X249809285Y-198821428D01*
X249880714Y-198750000D01*
X249880714Y-198892857D01*
X252023571Y-198178571D02*
X252166428Y-198178571D01*
X252309285Y-198250000D01*
X252380714Y-198321428D01*
X252452142Y-198464285D01*
X252523571Y-198750000D01*
X252523571Y-199107142D01*
X252452142Y-199392857D01*
X252380714Y-199535714D01*
X252309285Y-199607142D01*
X252166428Y-199678571D01*
X252023571Y-199678571D01*
X251880714Y-199607142D01*
X251809285Y-199535714D01*
X251737857Y-199392857D01*
X251666428Y-199107142D01*
X251666428Y-198750000D01*
X251737857Y-198464285D01*
X251809285Y-198321428D01*
X251880714Y-198250000D01*
X252023571Y-198178571D01*
X253166428Y-199535714D02*
X253237857Y-199607142D01*
X253166428Y-199678571D01*
X253095000Y-199607142D01*
X253166428Y-199535714D01*
X253166428Y-199678571D01*
X254666428Y-199678571D02*
X253809285Y-199678571D01*
X254237857Y-199678571D02*
X254237857Y-198178571D01*
X254095000Y-198392857D01*
X253952142Y-198535714D01*
X253809285Y-198607142D01*
D10*
D11*
X160760714Y-199607142D02*
X160975000Y-199678571D01*
X161332142Y-199678571D01*
X161475000Y-199607142D01*
X161546428Y-199535714D01*
X161617857Y-199392857D01*
X161617857Y-199250000D01*
X161546428Y-199107142D01*
X161475000Y-199035714D01*
X161332142Y-198964285D01*
X161046428Y-198892857D01*
X160903571Y-198821428D01*
X160832142Y-198750000D01*
X160760714Y-198607142D01*
X160760714Y-198464285D01*
X160832142Y-198321428D01*
X160903571Y-198250000D01*
X161046428Y-198178571D01*
X161403571Y-198178571D01*
X161617857Y-198250000D01*
X162260714Y-199678571D02*
X162260714Y-198678571D01*
X162260714Y-198178571D02*
X162189285Y-198250000D01*
X162260714Y-198321428D01*
X162332142Y-198250000D01*
X162260714Y-198178571D01*
X162260714Y-198321428D01*
X162832142Y-198678571D02*
X163617857Y-198678571D01*
X162832142Y-199678571D01*
X163617857Y-199678571D01*
X164760714Y-199607142D02*
X164617857Y-199678571D01*
X164332142Y-199678571D01*
X164189285Y-199607142D01*
X164117857Y-199464285D01*
X164117857Y-198892857D01*
X164189285Y-198750000D01*
X164332142Y-198678571D01*
X164617857Y-198678571D01*
X164760714Y-198750000D01*
X164832142Y-198892857D01*
X164832142Y-199035714D01*
X164117857Y-199178571D01*
X165475000Y-199535714D02*
X165546428Y-199607142D01*
X165475000Y-199678571D01*
X165403571Y-199607142D01*
X165475000Y-199535714D01*
X165475000Y-199678571D01*
X165475000Y-198750000D02*
X165546428Y-198821428D01*
X165475000Y-198892857D01*
X165403571Y-198821428D01*
X165475000Y-198750000D01*
X165475000Y-198892857D01*
X167332142Y-198178571D02*
X167332142Y-199392857D01*
X167403571Y-199535714D01*
X167475000Y-199607142D01*
X167617857Y-199678571D01*
X167903571Y-199678571D01*
X168046428Y-199607142D01*
X168117857Y-199535714D01*
X168189285Y-199392857D01*
X168189285Y-198178571D01*
X168832142Y-199607142D02*
X169046428Y-199678571D01*
X169403571Y-199678571D01*
X169546428Y-199607142D01*
X169617857Y-199535714D01*
X169689285Y-199392857D01*
X169689285Y-199250000D01*
X169617857Y-199107142D01*
X169546428Y-199035714D01*
X169403571Y-198964285D01*
X169117857Y-198892857D01*
X168975000Y-198821428D01*
X168903571Y-198750000D01*
X168832142Y-198607142D01*
X168832142Y-198464285D01*
X168903571Y-198321428D01*
X168975000Y-198250000D01*
X169117857Y-198178571D01*
X169475000Y-198178571D01*
X169689285Y-198250000D01*
X171046428Y-199678571D02*
X170332142Y-199678571D01*
X170332142Y-198178571D01*
X172117857Y-199607142D02*
X171975000Y-199678571D01*
X171689285Y-199678571D01*
X171546428Y-199607142D01*
X171475000Y-199464285D01*
X171475000Y-198892857D01*
X171546428Y-198750000D01*
X171689285Y-198678571D01*
X171975000Y-198678571D01*
X172117857Y-198750000D01*
X172189285Y-198892857D01*
X172189285Y-199035714D01*
X171475000Y-199178571D01*
X172617857Y-198678571D02*
X173189285Y-198678571D01*
X172832142Y-198178571D02*
X172832142Y-199464285D01*
X172903571Y-199607142D01*
X173046428Y-199678571D01*
X173189285Y-199678571D01*
X173475000Y-198678571D02*
X174046428Y-198678571D01*
X173689285Y-198178571D02*
X173689285Y-199464285D01*
X173760714Y-199607142D01*
X173903571Y-199678571D01*
X174046428Y-199678571D01*
X175117857Y-199607142D02*
X174975000Y-199678571D01*
X174689285Y-199678571D01*
X174546428Y-199607142D01*
X174475000Y-199464285D01*
X174475000Y-198892857D01*
X174546428Y-198750000D01*
X174689285Y-198678571D01*
X174975000Y-198678571D01*
X175117857Y-198750000D01*
X175189285Y-198892857D01*
X175189285Y-199035714D01*
X174475000Y-199178571D01*
X175832142Y-199678571D02*
X175832142Y-198678571D01*
X175832142Y-198964285D02*
X175903571Y-198821428D01*
X175975000Y-198750000D01*
X176117857Y-198678571D01*
X176260714Y-198678571D01*
D10*
D11*
X245832142Y-202478571D02*
X245832142Y-200978571D01*
X247189285Y-202478571D02*
X247189285Y-200978571D01*
X247189285Y-202407142D02*
X247046428Y-202478571D01*
X246760714Y-202478571D01*
X246617857Y-202407142D01*
X246546428Y-202335714D01*
X246475000Y-202192857D01*
X246475000Y-201764285D01*
X246546428Y-201621428D01*
X246617857Y-201550000D01*
X246760714Y-201478571D01*
X247046428Y-201478571D01*
X247189285Y-201550000D01*
X247903571Y-202335714D02*
X247975000Y-202407142D01*
X247903571Y-202478571D01*
X247832142Y-202407142D01*
X247903571Y-202335714D01*
X247903571Y-202478571D01*
X247903571Y-201550000D02*
X247975000Y-201621428D01*
X247903571Y-201692857D01*
X247832142Y-201621428D01*
X247903571Y-201550000D01*
X247903571Y-201692857D01*
X250546428Y-202478571D02*
X249689285Y-202478571D01*
X250117857Y-202478571D02*
X250117857Y-200978571D01*
X249975000Y-201192857D01*
X249832142Y-201335714D01*
X249689285Y-201407142D01*
X252260714Y-200907142D02*
X250975000Y-202835714D01*
X253546428Y-202478571D02*
X252689285Y-202478571D01*
X253117857Y-202478571D02*
X253117857Y-200978571D01*
X252975000Y-201192857D01*
X252832142Y-201335714D01*
X252689285Y-201407142D01*
D10*
D11*
X159400000Y-193400000D02*
X267400000Y-193400000D01*
D10*
D13*
X161112380Y-194104761D02*
X162255238Y-194104761D01*
X161433809Y-196104761D02*
X161683809Y-194104761D01*
X162671904Y-196104761D02*
X162838571Y-194771428D01*
X162921904Y-194104761D02*
X162814761Y-194200000D01*
X162898095Y-194295238D01*
X163005238Y-194200000D01*
X162921904Y-194104761D01*
X162898095Y-194295238D01*
X163505238Y-194771428D02*
X164267142Y-194771428D01*
X163874285Y-194104761D02*
X163660000Y-195819047D01*
X163731428Y-196009523D01*
X163910000Y-196104761D01*
X164100476Y-196104761D01*
X165052857Y-196104761D02*
X164874285Y-196009523D01*
X164802857Y-195819047D01*
X165017142Y-194104761D01*
X166588571Y-196009523D02*
X166386190Y-196104761D01*
X166005238Y-196104761D01*
X165826666Y-196009523D01*
X165755238Y-195819047D01*
X165850476Y-195057142D01*
X165969523Y-194866666D01*
X166171904Y-194771428D01*
X166552857Y-194771428D01*
X166731428Y-194866666D01*
X166802857Y-195057142D01*
X166779047Y-195247619D01*
X165802857Y-195438095D01*
X167552857Y-195914285D02*
X167636190Y-196009523D01*
X167529047Y-196104761D01*
X167445714Y-196009523D01*
X167552857Y-195914285D01*
X167529047Y-196104761D01*
X167683809Y-194866666D02*
X167767142Y-194961904D01*
X167660000Y-195057142D01*
X167576666Y-194961904D01*
X167683809Y-194866666D01*
X167660000Y-195057142D01*
X170005238Y-196104761D02*
X170255238Y-194104761D01*
X170731428Y-194104761D01*
X171005238Y-194200000D01*
X171171904Y-194390476D01*
X171243333Y-194580952D01*
X171290952Y-194961904D01*
X171255238Y-195247619D01*
X171112380Y-195628571D01*
X170993333Y-195819047D01*
X170779047Y-196009523D01*
X170481428Y-196104761D01*
X170005238Y-196104761D01*
X173171904Y-195914285D02*
X173064761Y-196009523D01*
X172767142Y-196104761D01*
X172576666Y-196104761D01*
X172302857Y-196009523D01*
X172136190Y-195819047D01*
X172064761Y-195628571D01*
X172017142Y-195247619D01*
X172052857Y-194961904D01*
X172195714Y-194580952D01*
X172314761Y-194390476D01*
X172529047Y-194200000D01*
X172826666Y-194104761D01*
X173017142Y-194104761D01*
X173290952Y-194200000D01*
X173374285Y-194295238D01*
X174433809Y-194961904D02*
X174255238Y-194866666D01*
X174171904Y-194771428D01*
X174100476Y-194580952D01*
X174112380Y-194485714D01*
X174231428Y-194295238D01*
X174338571Y-194200000D01*
X174540952Y-194104761D01*
X174921904Y-194104761D01*
X175100476Y-194200000D01*
X175183809Y-194295238D01*
X175255238Y-194485714D01*
X175243333Y-194580952D01*
X175124285Y-194771428D01*
X175017142Y-194866666D01*
X174814761Y-194961904D01*
X174433809Y-194961904D01*
X174231428Y-195057142D01*
X174124285Y-195152380D01*
X174005238Y-195342857D01*
X173957619Y-195723809D01*
X174029047Y-195914285D01*
X174112380Y-196009523D01*
X174290952Y-196104761D01*
X174671904Y-196104761D01*
X174874285Y-196009523D01*
X174981428Y-195914285D01*
X175100476Y-195723809D01*
X175148095Y-195342857D01*
X175076666Y-195152380D01*
X174993333Y-195057142D01*
X174814761Y-194961904D01*
X176540952Y-194104761D02*
X176731428Y-194104761D01*
X176910000Y-194200000D01*
X176993333Y-194295238D01*
X177064761Y-194485714D01*
X177112380Y-194866666D01*
X177052857Y-195342857D01*
X176910000Y-195723809D01*
X176790952Y-195914285D01*
X176683809Y-196009523D01*
X176481428Y-196104761D01*
X176290952Y-196104761D01*
X176112380Y-196009523D01*
X176029047Y-195914285D01*
X175957619Y-195723809D01*
X175910000Y-195342857D01*
X175969523Y-194866666D01*
X176112380Y-194485714D01*
X176231428Y-194295238D01*
X176338571Y-194200000D01*
X176540952Y-194104761D01*
X178862380Y-196104761D02*
X177719523Y-196104761D01*
X178290952Y-196104761D02*
X178540952Y-194104761D01*
X178314761Y-194390476D01*
X178100476Y-194580952D01*
X177898095Y-194676190D01*
X182040952Y-195057142D02*
X182314761Y-195152380D01*
X182398095Y-195247619D01*
X182469523Y-195438095D01*
X182433809Y-195723809D01*
X182314761Y-195914285D01*
X182207619Y-196009523D01*
X182005238Y-196104761D01*
X181243333Y-196104761D01*
X181493333Y-194104761D01*
X182160000Y-194104761D01*
X182338571Y-194200000D01*
X182421904Y-194295238D01*
X182493333Y-194485714D01*
X182469523Y-194676190D01*
X182350476Y-194866666D01*
X182243333Y-194961904D01*
X182040952Y-195057142D01*
X181374285Y-195057142D01*
X184100476Y-196104761D02*
X184231428Y-195057142D01*
X184160000Y-194866666D01*
X183981428Y-194771428D01*
X183600476Y-194771428D01*
X183398095Y-194866666D01*
X184112380Y-196009523D02*
X183910000Y-196104761D01*
X183433809Y-196104761D01*
X183255238Y-196009523D01*
X183183809Y-195819047D01*
X183207619Y-195628571D01*
X183326666Y-195438095D01*
X183529047Y-195342857D01*
X184005238Y-195342857D01*
X184207619Y-195247619D01*
X185910000Y-196104761D02*
X186160000Y-194104761D01*
X185921904Y-196009523D02*
X185719523Y-196104761D01*
X185338571Y-196104761D01*
X185160000Y-196009523D01*
X185076666Y-195914285D01*
X185005238Y-195723809D01*
X185076666Y-195152380D01*
X185195714Y-194961904D01*
X185302857Y-194866666D01*
X185505238Y-194771428D01*
X185886190Y-194771428D01*
X186064761Y-194866666D01*
X187886190Y-194771428D02*
X187683809Y-196390476D01*
X187564761Y-196580952D01*
X187457619Y-196676190D01*
X187255238Y-196771428D01*
X186969523Y-196771428D01*
X186790952Y-196676190D01*
X187731428Y-196009523D02*
X187529047Y-196104761D01*
X187148095Y-196104761D01*
X186969523Y-196009523D01*
X186886190Y-195914285D01*
X186814761Y-195723809D01*
X186886190Y-195152380D01*
X187005238Y-194961904D01*
X187112380Y-194866666D01*
X187314761Y-194771428D01*
X187695714Y-194771428D01*
X187874285Y-194866666D01*
X189445714Y-196009523D02*
X189243333Y-196104761D01*
X188862380Y-196104761D01*
X188683809Y-196009523D01*
X188612380Y-195819047D01*
X188707619Y-195057142D01*
X188826666Y-194866666D01*
X189029047Y-194771428D01*
X189410000Y-194771428D01*
X189588571Y-194866666D01*
X189660000Y-195057142D01*
X189636190Y-195247619D01*
X188660000Y-195438095D01*
X192005238Y-195342857D02*
X193529047Y-195342857D01*
X195910000Y-196104761D02*
X196160000Y-194104761D01*
X196636190Y-194104761D01*
X196910000Y-194200000D01*
X197076666Y-194390476D01*
X197148095Y-194580952D01*
X197195714Y-194961904D01*
X197160000Y-195247619D01*
X197017142Y-195628571D01*
X196898095Y-195819047D01*
X196683809Y-196009523D01*
X196386190Y-196104761D01*
X195910000Y-196104761D01*
X198683809Y-196009523D02*
X198481428Y-196104761D01*
X198100476Y-196104761D01*
X197921904Y-196009523D01*
X197850476Y-195819047D01*
X197945714Y-195057142D01*
X198064761Y-194866666D01*
X198267142Y-194771428D01*
X198648095Y-194771428D01*
X198826666Y-194866666D01*
X198898095Y-195057142D01*
X198874285Y-195247619D01*
X197898095Y-195438095D01*
X199505238Y-194771428D02*
X200267142Y-194771428D01*
X199624285Y-196104761D02*
X199838571Y-194390476D01*
X199957619Y-194200000D01*
X200160000Y-194104761D01*
X200350476Y-194104761D01*
X201636190Y-196009523D02*
X201433809Y-196104761D01*
X201052857Y-196104761D01*
X200874285Y-196009523D01*
X200790952Y-195914285D01*
X200719523Y-195723809D01*
X200790952Y-195152380D01*
X200910000Y-194961904D01*
X201017142Y-194866666D01*
X201219523Y-194771428D01*
X201600476Y-194771428D01*
X201779047Y-194866666D01*
X202767142Y-196104761D02*
X202588571Y-196009523D01*
X202505238Y-195914285D01*
X202433809Y-195723809D01*
X202505238Y-195152380D01*
X202624285Y-194961904D01*
X202731428Y-194866666D01*
X202933809Y-194771428D01*
X203219523Y-194771428D01*
X203398095Y-194866666D01*
X203481428Y-194961904D01*
X203552857Y-195152380D01*
X203481428Y-195723809D01*
X203362380Y-195914285D01*
X203255238Y-196009523D01*
X203052857Y-196104761D01*
X202767142Y-196104761D01*
X204457619Y-194771428D02*
X204290952Y-196104761D01*
X204433809Y-194961904D02*
X204540952Y-194866666D01*
X204743333Y-194771428D01*
X205029047Y-194771428D01*
X205207619Y-194866666D01*
X205279047Y-195057142D01*
X205148095Y-196104761D01*
X207755238Y-194295238D02*
X207862380Y-194200000D01*
X208064761Y-194104761D01*
X208540952Y-194104761D01*
X208719523Y-194200000D01*
X208802857Y-194295238D01*
X208874285Y-194485714D01*
X208850476Y-194676190D01*
X208719523Y-194961904D01*
X207433809Y-196104761D01*
X208671904Y-196104761D01*
X209588571Y-194104761D02*
X210921904Y-194104761D01*
X209814761Y-196104761D01*
D10*
D11*
X161332142Y-191492857D02*
X160832142Y-191492857D01*
X160832142Y-192278571D02*
X160832142Y-190778571D01*
X161546428Y-190778571D01*
X162117857Y-192278571D02*
X162117857Y-191278571D01*
X162117857Y-190778571D02*
X162046428Y-190850000D01*
X162117857Y-190921428D01*
X162189285Y-190850000D01*
X162117857Y-190778571D01*
X162117857Y-190921428D01*
X163046428Y-192278571D02*
X162903571Y-192207142D01*
X162832142Y-192064285D01*
X162832142Y-190778571D01*
X164189285Y-192207142D02*
X164046428Y-192278571D01*
X163760714Y-192278571D01*
X163617857Y-192207142D01*
X163546428Y-192064285D01*
X163546428Y-191492857D01*
X163617857Y-191350000D01*
X163760714Y-191278571D01*
X164046428Y-191278571D01*
X164189285Y-191350000D01*
X164260714Y-191492857D01*
X164260714Y-191635714D01*
X163546428Y-191778571D01*
X164903571Y-192135714D02*
X164975000Y-192207142D01*
X164903571Y-192278571D01*
X164832142Y-192207142D01*
X164903571Y-192135714D01*
X164903571Y-192278571D01*
X164903571Y-191350000D02*
X164975000Y-191421428D01*
X164903571Y-191492857D01*
X164832142Y-191421428D01*
X164903571Y-191350000D01*
X164903571Y-191492857D01*
X166760714Y-192278571D02*
X166760714Y-190778571D01*
X167403571Y-192278571D02*
X167403571Y-191492857D01*
X167332142Y-191350000D01*
X167189285Y-191278571D01*
X166975000Y-191278571D01*
X166832142Y-191350000D01*
X166760714Y-191421428D01*
X168760714Y-192207142D02*
X168617857Y-192278571D01*
X168332142Y-192278571D01*
X168189285Y-192207142D01*
X168117857Y-192135714D01*
X168046428Y-191992857D01*
X168046428Y-191564285D01*
X168117857Y-191421428D01*
X168189285Y-191350000D01*
X168332142Y-191278571D01*
X168617857Y-191278571D01*
X168760714Y-191350000D01*
X169403571Y-192278571D02*
X169403571Y-191278571D01*
X169403571Y-191564285D02*
X169475000Y-191421428D01*
X169546428Y-191350000D01*
X169689285Y-191278571D01*
X169832142Y-191278571D01*
X170332142Y-191278571D02*
X170332142Y-192278571D01*
X170332142Y-191421428D02*
X170403571Y-191350000D01*
X170546428Y-191278571D01*
X170760714Y-191278571D01*
X170903571Y-191350000D01*
X170975000Y-191492857D01*
X170975000Y-192278571D01*
X171689285Y-192135714D02*
X171760714Y-192207142D01*
X171689285Y-192278571D01*
X171617857Y-192207142D01*
X171689285Y-192135714D01*
X171689285Y-192278571D01*
X172403571Y-192278571D02*
X172403571Y-190778571D01*
X172546428Y-191707142D02*
X172975000Y-192278571D01*
X172975000Y-191278571D02*
X172403571Y-191850000D01*
X173617857Y-192278571D02*
X173617857Y-191278571D01*
X173617857Y-190778571D02*
X173546428Y-190850000D01*
X173617857Y-190921428D01*
X173689285Y-190850000D01*
X173617857Y-190778571D01*
X173617857Y-190921428D01*
X174975000Y-192207142D02*
X174832142Y-192278571D01*
X174546428Y-192278571D01*
X174403571Y-192207142D01*
X174332142Y-192135714D01*
X174260714Y-191992857D01*
X174260714Y-191564285D01*
X174332142Y-191421428D01*
X174403571Y-191350000D01*
X174546428Y-191278571D01*
X174832142Y-191278571D01*
X174975000Y-191350000D01*
X176260714Y-192278571D02*
X176260714Y-191492857D01*
X176189285Y-191350000D01*
X176046428Y-191278571D01*
X175760714Y-191278571D01*
X175617857Y-191350000D01*
X176260714Y-192207142D02*
X176117857Y-192278571D01*
X175760714Y-192278571D01*
X175617857Y-192207142D01*
X175546428Y-192064285D01*
X175546428Y-191921428D01*
X175617857Y-191778571D01*
X175760714Y-191707142D01*
X176117857Y-191707142D01*
X176260714Y-191635714D01*
X177617857Y-192278571D02*
X177617857Y-190778571D01*
X177617857Y-192207142D02*
X177475000Y-192278571D01*
X177189285Y-192278571D01*
X177046428Y-192207142D01*
X176975000Y-192135714D01*
X176903571Y-191992857D01*
X176903571Y-191564285D01*
X176975000Y-191421428D01*
X177046428Y-191350000D01*
X177189285Y-191278571D01*
X177475000Y-191278571D01*
X177617857Y-191350000D01*
X177975000Y-192421428D02*
X179117857Y-192421428D01*
X179475000Y-191278571D02*
X179475000Y-192778571D01*
X179475000Y-191350000D02*
X179617857Y-191278571D01*
X179903571Y-191278571D01*
X180046428Y-191350000D01*
X180117857Y-191421428D01*
X180189285Y-191564285D01*
X180189285Y-191992857D01*
X180117857Y-192135714D01*
X180046428Y-192207142D01*
X179903571Y-192278571D01*
X179617857Y-192278571D01*
X179475000Y-192207142D01*
X181475000Y-192207142D02*
X181332142Y-192278571D01*
X181046428Y-192278571D01*
X180903571Y-192207142D01*
X180832142Y-192135714D01*
X180760714Y-191992857D01*
X180760714Y-191564285D01*
X180832142Y-191421428D01*
X180903571Y-191350000D01*
X181046428Y-191278571D01*
X181332142Y-191278571D01*
X181475000Y-191350000D01*
X182117857Y-192278571D02*
X182117857Y-190778571D01*
X182117857Y-191350000D02*
X182260714Y-191278571D01*
X182546428Y-191278571D01*
X182689285Y-191350000D01*
X182760714Y-191421428D01*
X182832142Y-191564285D01*
X182832142Y-191992857D01*
X182760714Y-192135714D01*
X182689285Y-192207142D01*
X182546428Y-192278571D01*
X182260714Y-192278571D01*
X182117857Y-192207142D01*
D10*
D11*
X159400000Y-187400000D02*
X267400000Y-187400000D01*
D10*
D11*
X160760714Y-189507142D02*
X160975000Y-189578571D01*
X161332142Y-189578571D01*
X161475000Y-189507142D01*
X161546428Y-189435714D01*
X161617857Y-189292857D01*
X161617857Y-189150000D01*
X161546428Y-189007142D01*
X161475000Y-188935714D01*
X161332142Y-188864285D01*
X161046428Y-188792857D01*
X160903571Y-188721428D01*
X160832142Y-188650000D01*
X160760714Y-188507142D01*
X160760714Y-188364285D01*
X160832142Y-188221428D01*
X160903571Y-188150000D01*
X161046428Y-188078571D01*
X161403571Y-188078571D01*
X161617857Y-188150000D01*
X162260714Y-189578571D02*
X162260714Y-188078571D01*
X162903571Y-189578571D02*
X162903571Y-188792857D01*
X162832142Y-188650000D01*
X162689285Y-188578571D01*
X162475000Y-188578571D01*
X162332142Y-188650000D01*
X162260714Y-188721428D01*
X164189285Y-189507142D02*
X164046428Y-189578571D01*
X163760714Y-189578571D01*
X163617857Y-189507142D01*
X163546428Y-189364285D01*
X163546428Y-188792857D01*
X163617857Y-188650000D01*
X163760714Y-188578571D01*
X164046428Y-188578571D01*
X164189285Y-188650000D01*
X164260714Y-188792857D01*
X164260714Y-188935714D01*
X163546428Y-189078571D01*
X165475000Y-189507142D02*
X165332142Y-189578571D01*
X165046428Y-189578571D01*
X164903571Y-189507142D01*
X164832142Y-189364285D01*
X164832142Y-188792857D01*
X164903571Y-188650000D01*
X165046428Y-188578571D01*
X165332142Y-188578571D01*
X165475000Y-188650000D01*
X165546428Y-188792857D01*
X165546428Y-188935714D01*
X164832142Y-189078571D01*
X165975000Y-188578571D02*
X166546428Y-188578571D01*
X166189285Y-188078571D02*
X166189285Y-189364285D01*
X166260714Y-189507142D01*
X166403571Y-189578571D01*
X166546428Y-189578571D01*
X167046428Y-189435714D02*
X167117857Y-189507142D01*
X167046428Y-189578571D01*
X166975000Y-189507142D01*
X167046428Y-189435714D01*
X167046428Y-189578571D01*
X167046428Y-188650000D02*
X167117857Y-188721428D01*
X167046428Y-188792857D01*
X166975000Y-188721428D01*
X167046428Y-188650000D01*
X167046428Y-188792857D01*
D10*
D12*
X160952142Y-186578571D02*
X160952142Y-185078571D01*
X161309285Y-185078571D01*
X161523571Y-185150000D01*
X161666428Y-185292857D01*
X161737857Y-185435714D01*
X161809285Y-185721428D01*
X161809285Y-185935714D01*
X161737857Y-186221428D01*
X161666428Y-186364285D01*
X161523571Y-186507142D01*
X161309285Y-186578571D01*
X160952142Y-186578571D01*
X163309285Y-186435714D02*
X163237857Y-186507142D01*
X163023571Y-186578571D01*
X162880714Y-186578571D01*
X162666428Y-186507142D01*
X162523571Y-186364285D01*
X162452142Y-186221428D01*
X162380714Y-185935714D01*
X162380714Y-185721428D01*
X162452142Y-185435714D01*
X162523571Y-185292857D01*
X162666428Y-185150000D01*
X162880714Y-185078571D01*
X163023571Y-185078571D01*
X163237857Y-185150000D01*
X163309285Y-185221428D01*
X164166428Y-185721428D02*
X164023571Y-185650000D01*
X163952142Y-185578571D01*
X163880714Y-185435714D01*
X163880714Y-185364285D01*
X163952142Y-185221428D01*
X164023571Y-185150000D01*
X164166428Y-185078571D01*
X164452142Y-185078571D01*
X164595000Y-185150000D01*
X164666428Y-185221428D01*
X164737857Y-185364285D01*
X164737857Y-185435714D01*
X164666428Y-185578571D01*
X164595000Y-185650000D01*
X164452142Y-185721428D01*
X164166428Y-185721428D01*
X164023571Y-185792857D01*
X163952142Y-185864285D01*
X163880714Y-186007142D01*
X163880714Y-186292857D01*
X163952142Y-186435714D01*
X164023571Y-186507142D01*
X164166428Y-186578571D01*
X164452142Y-186578571D01*
X164595000Y-186507142D01*
X164666428Y-186435714D01*
X164737857Y-186292857D01*
X164737857Y-186007142D01*
X164666428Y-185864285D01*
X164595000Y-185792857D01*
X164452142Y-185721428D01*
X165666428Y-185078571D02*
X165809285Y-185078571D01*
X165952142Y-185150000D01*
X166023571Y-185221428D01*
X166095000Y-185364285D01*
X166166428Y-185650000D01*
X166166428Y-186007142D01*
X166095000Y-186292857D01*
X166023571Y-186435714D01*
X165952142Y-186507142D01*
X165809285Y-186578571D01*
X165666428Y-186578571D01*
X165523571Y-186507142D01*
X165452142Y-186435714D01*
X165380714Y-186292857D01*
X165309285Y-186007142D01*
X165309285Y-185650000D01*
X165380714Y-185364285D01*
X165452142Y-185221428D01*
X165523571Y-185150000D01*
X165666428Y-185078571D01*
X167595000Y-186578571D02*
X166737857Y-186578571D01*
X167166428Y-186578571D02*
X167166428Y-185078571D01*
X167023571Y-185292857D01*
X166880714Y-185435714D01*
X166737857Y-185507142D01*
D10*
D11*
X179400000Y-197400000D02*
X179400000Y-200400000D01*
D10*
D11*
X243400000Y-197400000D02*
X243400000Y-203900000D01*
D10*
G36*
X101220000Y-45580000D02*
G01*
X100470000Y-45580000D01*
X100470000Y-44390000D01*
X101220000Y-44390000D01*
X101220000Y-45580000D01*
G37*
X101220000Y-45580000D02*
X100470000Y-45580000D01*
X100470000Y-44390000D01*
X101220000Y-44390000D01*
X101220000Y-45580000D01*
G36*
X101220000Y-44340000D02*
G01*
X99450000Y-44340000D01*
X99450000Y-45630000D01*
X101220000Y-45630000D01*
X101220000Y-46880000D01*
X99640000Y-46890000D01*
X99630000Y-49720000D01*
X98060000Y-48530000D01*
X96900000Y-50210000D01*
X94750000Y-50210000D01*
X99500000Y-43130000D01*
X101220000Y-43130000D01*
X101220000Y-44340000D01*
G37*
X101220000Y-44340000D02*
X99450000Y-44340000D01*
X99450000Y-45630000D01*
X101220000Y-45630000D01*
X101220000Y-46880000D01*
X99640000Y-46890000D01*
X99630000Y-49720000D01*
X98060000Y-48530000D01*
X96900000Y-50210000D01*
X94750000Y-50210000D01*
X99500000Y-43130000D01*
X101220000Y-43130000D01*
X101220000Y-44340000D01*
G36*
X102740000Y-45590000D02*
G01*
X101850000Y-45590000D01*
X101850000Y-44390000D01*
X102740000Y-44390000D01*
X102740000Y-45590000D01*
G37*
X102740000Y-45590000D02*
X101850000Y-45590000D01*
X101850000Y-44390000D01*
X102740000Y-44390000D01*
X102740000Y-45590000D01*
G36*
X104560000Y-46880000D02*
G01*
X101840000Y-46890000D01*
X101850000Y-45640000D01*
X103760000Y-45640000D01*
X103760000Y-44340000D01*
X101850000Y-44340000D01*
X101850000Y-43130000D01*
X104560000Y-43120000D01*
X104560000Y-46880000D01*
G37*
X104560000Y-46880000D02*
X101840000Y-46890000D01*
X101850000Y-45640000D01*
X103760000Y-45640000D01*
X103760000Y-44340000D01*
X101850000Y-44340000D01*
X101850000Y-43130000D01*
X104560000Y-43120000D01*
X104560000Y-46880000D01*
G36*
X105990000Y-45590000D02*
G01*
X105120000Y-45590000D01*
X105120000Y-44390000D01*
X105990000Y-44390000D01*
X105990000Y-45590000D01*
G37*
X105990000Y-45590000D02*
X105120000Y-45590000D01*
X105120000Y-44390000D01*
X105990000Y-44390000D01*
X105990000Y-45590000D01*
G36*
X111560000Y-49760000D02*
G01*
X111560000Y-50210000D01*
X110050000Y-50210000D01*
X108990000Y-48740000D01*
X106910000Y-49820000D01*
X106910000Y-46900000D01*
X105120000Y-46890000D01*
X105120000Y-45640000D01*
X107000000Y-45630000D01*
X107010000Y-44340000D01*
X105120000Y-44340000D01*
X105120000Y-43130000D01*
X107020000Y-43130000D01*
X111560000Y-49760000D01*
G37*
X111560000Y-49760000D02*
X111560000Y-50210000D01*
X110050000Y-50210000D01*
X108990000Y-48740000D01*
X106910000Y-49820000D01*
X106910000Y-46900000D01*
X105120000Y-46890000D01*
X105120000Y-45640000D01*
X107000000Y-45630000D01*
X107010000Y-44340000D01*
X105120000Y-44340000D01*
X105120000Y-43130000D01*
X107020000Y-43130000D01*
X111560000Y-49760000D01*
G36*
X108950000Y-136020000D02*
G01*
X109710000Y-136950000D01*
X109710000Y-151790000D01*
X97080000Y-151790000D01*
X97090000Y-137430000D01*
X97860000Y-136480000D01*
X98450000Y-136480000D01*
X98450000Y-149720000D01*
X99640000Y-151270000D01*
X107670000Y-151260000D01*
X108620000Y-149740000D01*
X108620000Y-136400000D01*
X108350000Y-135010000D01*
X107410000Y-133480000D01*
X99640000Y-133480000D01*
X98450000Y-135010000D01*
X98450000Y-136470000D01*
X97860000Y-136470000D01*
X97850000Y-130340000D01*
X108950000Y-130340000D01*
X108950000Y-136020000D01*
G37*
X108950000Y-136020000D02*
X109710000Y-136950000D01*
X109710000Y-151790000D01*
X97080000Y-151790000D01*
X97090000Y-137430000D01*
X97860000Y-136480000D01*
X98450000Y-136480000D01*
X98450000Y-149720000D01*
X99640000Y-151270000D01*
X107670000Y-151260000D01*
X108620000Y-149740000D01*
X108620000Y-136400000D01*
X108350000Y-135010000D01*
X107410000Y-133480000D01*
X99640000Y-133480000D01*
X98450000Y-135010000D01*
X98450000Y-136470000D01*
X97860000Y-136470000D01*
X97850000Y-130340000D01*
X108950000Y-130340000D01*
X108950000Y-136020000D01*
G36*
X125980000Y-92330000D02*
G01*
X126100000Y-99680000D01*
X123250000Y-98010000D01*
X123250000Y-89750000D01*
X125980000Y-92330000D01*
G37*
X125980000Y-92330000D02*
X126100000Y-99680000D01*
X123250000Y-98010000D01*
X123250000Y-89750000D01*
X125980000Y-92330000D01*
G36*
X99690000Y-154170000D02*
G01*
X98600000Y-154170000D01*
X98610000Y-153730000D01*
X99690000Y-153730000D01*
X99690000Y-154170000D01*
G37*
X99690000Y-154170000D02*
X98600000Y-154170000D01*
X98610000Y-153730000D01*
X99690000Y-153730000D01*
X99690000Y-154170000D01*
G36*
X106260000Y-168310000D02*
G01*
X105300000Y-168310000D01*
X105300000Y-168090000D01*
X106380000Y-168090000D01*
X106260000Y-168310000D01*
G37*
X106260000Y-168310000D02*
X105300000Y-168310000D01*
X105300000Y-168090000D01*
X106380000Y-168090000D01*
X106260000Y-168310000D01*
G36*
X99950000Y-157240000D02*
G01*
X98610000Y-157240000D01*
X98610000Y-155350000D01*
X99950000Y-155350000D01*
X99950000Y-157240000D01*
G37*
X99950000Y-157240000D02*
X98610000Y-157240000D01*
X98610000Y-155350000D01*
X99950000Y-155350000D01*
X99950000Y-157240000D01*
G36*
X85350000Y-110330000D02*
G01*
X84570000Y-110330000D01*
X84560000Y-114190000D01*
X85330000Y-114670000D01*
X85330000Y-116500000D01*
X80920000Y-112730000D01*
X80940000Y-102220000D01*
X85340000Y-100400000D01*
X85350000Y-110330000D01*
G37*
X85350000Y-110330000D02*
X84570000Y-110330000D01*
X84560000Y-114190000D01*
X85330000Y-114670000D01*
X85330000Y-116500000D01*
X80920000Y-112730000D01*
X80940000Y-102220000D01*
X85340000Y-100400000D01*
X85350000Y-110330000D01*
G36*
X118450000Y-168630000D02*
G01*
X115030000Y-168630000D01*
X115030000Y-167570000D01*
X118450000Y-167570000D01*
X118450000Y-168630000D01*
G37*
X118450000Y-168630000D02*
X115030000Y-168630000D01*
X115030000Y-167570000D01*
X118450000Y-167570000D01*
X118450000Y-168630000D01*
G36*
X121590000Y-141210000D02*
G01*
X120690000Y-141210000D01*
X120690000Y-140980000D01*
X119400000Y-140980000D01*
X119400000Y-136510000D01*
X121590000Y-136500000D01*
X121590000Y-141210000D01*
G37*
X121590000Y-141210000D02*
X120690000Y-141210000D01*
X120690000Y-140980000D01*
X119400000Y-140980000D01*
X119400000Y-136510000D01*
X121590000Y-136500000D01*
X121590000Y-141210000D01*
G36*
X108420000Y-157230000D02*
G01*
X107330000Y-157230000D01*
X107330000Y-153720000D01*
X108420000Y-153720000D01*
X108420000Y-157230000D01*
G37*
X108420000Y-157230000D02*
X107330000Y-157230000D01*
X107330000Y-153720000D01*
X108420000Y-153720000D01*
X108420000Y-157230000D01*
G36*
X83580000Y-99490000D02*
G01*
X80420000Y-101080000D01*
X80400000Y-93350000D01*
X81190000Y-93020000D01*
X81180000Y-91840000D01*
X83670000Y-90890000D01*
X83580000Y-99490000D01*
G37*
X83580000Y-99490000D02*
X80420000Y-101080000D01*
X80400000Y-93350000D01*
X81190000Y-93020000D01*
X81180000Y-91840000D01*
X83670000Y-90890000D01*
X83580000Y-99490000D01*
G36*
X121440000Y-151800000D02*
G01*
X119390000Y-151800000D01*
X119400000Y-144740000D01*
X121440000Y-144740000D01*
X121440000Y-151800000D01*
G37*
X121440000Y-151800000D02*
X119390000Y-151800000D01*
X119400000Y-144740000D01*
X121440000Y-144740000D01*
X121440000Y-151800000D01*
G36*
X87640000Y-151810000D02*
G01*
X85730000Y-151810000D01*
X85720000Y-150260000D01*
X86810000Y-149280000D01*
X86810000Y-148930000D01*
X86030000Y-147740000D01*
X86030000Y-138500000D01*
X86610000Y-137160000D01*
X86820000Y-137160000D01*
X86820000Y-136520000D01*
X87650000Y-136520000D01*
X87640000Y-151810000D01*
G37*
X87640000Y-151810000D02*
X85730000Y-151810000D01*
X85720000Y-150260000D01*
X86810000Y-149280000D01*
X86810000Y-148930000D01*
X86030000Y-147740000D01*
X86030000Y-138500000D01*
X86610000Y-137160000D01*
X86820000Y-137160000D01*
X86820000Y-136520000D01*
X87650000Y-136520000D01*
X87640000Y-151810000D01*
G36*
X92030000Y-168620000D02*
G01*
X88370000Y-168620000D01*
X88370000Y-167560000D01*
X92030000Y-167560000D01*
X92030000Y-168620000D01*
G37*
X92030000Y-168620000D02*
X88370000Y-168620000D01*
X88370000Y-167560000D01*
X92030000Y-167560000D01*
X92030000Y-168620000D01*
G36*
X103830000Y-100070000D02*
G01*
X104040000Y-100120000D01*
X104250000Y-100190000D01*
X104470000Y-100300000D01*
X104730000Y-100460000D01*
X104950000Y-100650000D01*
X105130000Y-100850000D01*
X105300000Y-101080000D01*
X105420000Y-101300000D01*
X105540000Y-101620000D01*
X105590000Y-101840000D01*
X105620000Y-102070000D01*
X105630000Y-102240000D01*
X105620000Y-102450000D01*
X105590000Y-102670000D01*
X105530000Y-102920000D01*
X105450000Y-103130000D01*
X105350000Y-103320000D01*
X105270000Y-103450000D01*
X105140000Y-103630000D01*
X105000000Y-103790000D01*
X104840000Y-103940000D01*
X104670000Y-104060000D01*
X104490000Y-104180000D01*
X104230000Y-104300000D01*
X103950000Y-104390000D01*
X103630000Y-104450000D01*
X103440000Y-104470000D01*
X103170000Y-104450000D01*
X102920000Y-104400000D01*
X102600000Y-104300000D01*
X102320000Y-104170000D01*
X102110000Y-104030000D01*
X101980000Y-103920000D01*
X101850000Y-103800000D01*
X101730000Y-103660000D01*
X101590000Y-103480000D01*
X101480000Y-103320000D01*
X101390000Y-103110000D01*
X101320000Y-102940000D01*
X101260000Y-102700000D01*
X101230000Y-102550000D01*
X101210000Y-102370000D01*
X101210000Y-102090000D01*
X101250000Y-101800000D01*
X101330000Y-101520000D01*
X101430000Y-101270000D01*
X101580000Y-101010000D01*
X101750000Y-100790000D01*
X101950000Y-100580000D01*
X102180000Y-100410000D01*
X102450000Y-100250000D01*
X102640000Y-100170000D01*
X102800000Y-100120000D01*
X102970000Y-100080000D01*
X103170000Y-100060000D01*
X103340000Y-100050000D01*
X103600000Y-100050000D01*
X103830000Y-100070000D01*
G37*
X103830000Y-100070000D02*
X104040000Y-100120000D01*
X104250000Y-100190000D01*
X104470000Y-100300000D01*
X104730000Y-100460000D01*
X104950000Y-100650000D01*
X105130000Y-100850000D01*
X105300000Y-101080000D01*
X105420000Y-101300000D01*
X105540000Y-101620000D01*
X105590000Y-101840000D01*
X105620000Y-102070000D01*
X105630000Y-102240000D01*
X105620000Y-102450000D01*
X105590000Y-102670000D01*
X105530000Y-102920000D01*
X105450000Y-103130000D01*
X105350000Y-103320000D01*
X105270000Y-103450000D01*
X105140000Y-103630000D01*
X105000000Y-103790000D01*
X104840000Y-103940000D01*
X104670000Y-104060000D01*
X104490000Y-104180000D01*
X104230000Y-104300000D01*
X103950000Y-104390000D01*
X103630000Y-104450000D01*
X103440000Y-104470000D01*
X103170000Y-104450000D01*
X102920000Y-104400000D01*
X102600000Y-104300000D01*
X102320000Y-104170000D01*
X102110000Y-104030000D01*
X101980000Y-103920000D01*
X101850000Y-103800000D01*
X101730000Y-103660000D01*
X101590000Y-103480000D01*
X101480000Y-103320000D01*
X101390000Y-103110000D01*
X101320000Y-102940000D01*
X101260000Y-102700000D01*
X101230000Y-102550000D01*
X101210000Y-102370000D01*
X101210000Y-102090000D01*
X101250000Y-101800000D01*
X101330000Y-101520000D01*
X101430000Y-101270000D01*
X101580000Y-101010000D01*
X101750000Y-100790000D01*
X101950000Y-100580000D01*
X102180000Y-100410000D01*
X102450000Y-100250000D01*
X102640000Y-100170000D01*
X102800000Y-100120000D01*
X102970000Y-100080000D01*
X103170000Y-100060000D01*
X103340000Y-100050000D01*
X103600000Y-100050000D01*
X103830000Y-100070000D01*
G36*
X102260000Y-168310000D02*
G01*
X100880000Y-168310000D01*
X100660000Y-168200000D01*
X100660000Y-168090000D01*
X102260000Y-168090000D01*
X102260000Y-168310000D01*
G37*
X102260000Y-168310000D02*
X100880000Y-168310000D01*
X100660000Y-168200000D01*
X100660000Y-168090000D01*
X102260000Y-168090000D01*
X102260000Y-168310000D01*
G36*
X98360000Y-98080000D02*
G01*
X99190000Y-98090000D01*
X99190000Y-99270000D01*
X98410000Y-99270000D01*
X95080000Y-95730000D01*
X93490000Y-95730000D01*
X93500000Y-92910000D01*
X98360000Y-98080000D01*
G37*
X98360000Y-98080000D02*
X99190000Y-98090000D01*
X99190000Y-99270000D01*
X98410000Y-99270000D01*
X95080000Y-95730000D01*
X93490000Y-95730000D01*
X93500000Y-92910000D01*
X98360000Y-98080000D01*
G36*
X126100000Y-102210000D02*
G01*
X126120000Y-112220000D01*
X126120000Y-112970000D01*
X121710000Y-116740000D01*
X121710000Y-114580000D01*
X122210000Y-114580000D01*
X122210000Y-110590000D01*
X121700000Y-110590000D01*
X121720000Y-100410000D01*
X126100000Y-102210000D01*
G37*
X126100000Y-102210000D02*
X126120000Y-112220000D01*
X126120000Y-112970000D01*
X121710000Y-116740000D01*
X121710000Y-114580000D01*
X122210000Y-114580000D01*
X122210000Y-110590000D01*
X121700000Y-110590000D01*
X121720000Y-100410000D01*
X126100000Y-102210000D01*
G36*
X113560000Y-95500000D02*
G01*
X111950000Y-95500000D01*
X108630000Y-99030000D01*
X107600000Y-99030000D01*
X107600000Y-98560000D01*
X108420000Y-98560000D01*
X113550000Y-93270000D01*
X113560000Y-93270000D01*
X113560000Y-95500000D01*
G37*
X113560000Y-95500000D02*
X111950000Y-95500000D01*
X108630000Y-99030000D01*
X107600000Y-99030000D01*
X107600000Y-98560000D01*
X108420000Y-98560000D01*
X113550000Y-93270000D01*
X113560000Y-93270000D01*
X113560000Y-95500000D01*
G36*
X106620000Y-117440000D02*
G01*
X106620000Y-125900000D01*
X100150000Y-125900000D01*
X100160000Y-117490000D01*
X100670000Y-117180000D01*
X106330000Y-117180000D01*
X106620000Y-117440000D01*
G37*
X106620000Y-117440000D02*
X106620000Y-125900000D01*
X100150000Y-125900000D01*
X100160000Y-117490000D01*
X100670000Y-117180000D01*
X106330000Y-117180000D01*
X106620000Y-117440000D01*
G36*
X107900000Y-158400000D02*
G01*
X107900000Y-158580000D01*
X106620000Y-159760000D01*
X106620000Y-166190000D01*
X107150000Y-166700000D01*
X107150000Y-166860000D01*
X100660000Y-166860000D01*
X100660000Y-159760000D01*
X99400000Y-158590000D01*
X99400000Y-158390000D01*
X107900000Y-158400000D01*
G37*
X107900000Y-158400000D02*
X107900000Y-158580000D01*
X106620000Y-159760000D01*
X106620000Y-166190000D01*
X107150000Y-166700000D01*
X107150000Y-166860000D01*
X100660000Y-166860000D01*
X100660000Y-159760000D01*
X99400000Y-158590000D01*
X99400000Y-158390000D01*
X107900000Y-158400000D01*
D14*
X84860000Y-35710000D03*
X113010000Y-35680000D03*
D15*
X106822832Y-26531340D03*
X106832832Y-30951340D03*
X103010000Y-33170000D03*
X99177168Y-30968660D03*
X99167168Y-26548660D03*
X102990000Y-24330000D03*
D16*
X90710000Y-141270000D03*
D17*
X103410000Y-141270000D03*
D18*
X114205000Y-164993600D03*
X90710000Y-164993600D03*
D10*
G36*
X107212323Y-57566501D02*
G01*
X107343372Y-57585940D01*
X107471884Y-57618131D01*
X107596623Y-57662763D01*
X107716386Y-57719406D01*
X107830020Y-57787516D01*
X107936431Y-57866436D01*
X108034594Y-57955406D01*
X108123564Y-58053569D01*
X108202484Y-58159980D01*
X108270594Y-58273614D01*
X108327237Y-58393377D01*
X108371869Y-58518116D01*
X108404060Y-58646628D01*
X108423499Y-58777677D01*
X108430000Y-58910000D01*
X108430000Y-61610000D01*
X108423499Y-61742323D01*
X108404060Y-61873372D01*
X108371869Y-62001884D01*
X108327237Y-62126623D01*
X108270594Y-62246386D01*
X108202484Y-62360020D01*
X108123564Y-62466431D01*
X108034594Y-62564594D01*
X107936431Y-62653564D01*
X107830020Y-62732484D01*
X107716386Y-62800594D01*
X107596623Y-62857237D01*
X107471884Y-62901869D01*
X107343372Y-62934060D01*
X107212323Y-62953499D01*
X107080000Y-62960000D01*
X99380000Y-62960000D01*
X99247677Y-62953499D01*
X99116628Y-62934060D01*
X98988116Y-62901869D01*
X98863377Y-62857237D01*
X98743614Y-62800594D01*
X98629980Y-62732484D01*
X98523569Y-62653564D01*
X98425406Y-62564594D01*
X98336436Y-62466431D01*
X98257516Y-62360020D01*
X98189406Y-62246386D01*
X98132763Y-62126623D01*
X98088131Y-62001884D01*
X98055940Y-61873372D01*
X98036501Y-61742323D01*
X98030000Y-61610000D01*
X98030000Y-58910000D01*
X98036501Y-58777677D01*
X98055940Y-58646628D01*
X98088131Y-58518116D01*
X98132763Y-58393377D01*
X98189406Y-58273614D01*
X98257516Y-58159980D01*
X98336436Y-58053569D01*
X98425406Y-57955406D01*
X98523569Y-57866436D01*
X98629980Y-57787516D01*
X98743614Y-57719406D01*
X98863377Y-57662763D01*
X98988116Y-57618131D01*
X99116628Y-57585940D01*
X99247677Y-57566501D01*
X99380000Y-57560000D01*
X107080000Y-57560000D01*
X107212323Y-57566501D01*
X107212323Y-57566501D01*
G37*
D19*
X103230000Y-60260000D03*
D20*
X86930000Y-88560000D03*
X119530000Y-88560000D03*
D21*
X139000000Y-96460000D03*
X139000000Y-104440000D03*
D22*
X60155000Y-99820000D03*
X68105000Y-99820000D03*
X60155000Y-104320000D03*
X68105000Y-104320000D03*
D10*
G36*
X86707493Y-90336535D02*
G01*
X86738435Y-90341125D01*
X86768778Y-90348725D01*
X86798230Y-90359263D01*
X86826508Y-90372638D01*
X86853338Y-90388719D01*
X86878463Y-90407353D01*
X86901640Y-90428360D01*
X86922647Y-90451537D01*
X86941281Y-90476662D01*
X86957362Y-90503492D01*
X86970737Y-90531770D01*
X86981275Y-90561222D01*
X86988875Y-90591565D01*
X86993465Y-90622507D01*
X86995000Y-90653750D01*
X86995000Y-91291250D01*
X86993465Y-91322493D01*
X86988875Y-91353435D01*
X86981275Y-91383778D01*
X86970737Y-91413230D01*
X86957362Y-91441508D01*
X86941281Y-91468338D01*
X86922647Y-91493463D01*
X86901640Y-91516640D01*
X86878463Y-91537647D01*
X86853338Y-91556281D01*
X86826508Y-91572362D01*
X86798230Y-91585737D01*
X86768778Y-91596275D01*
X86738435Y-91603875D01*
X86707493Y-91608465D01*
X86676250Y-91610000D01*
X85963750Y-91610000D01*
X85932507Y-91608465D01*
X85901565Y-91603875D01*
X85871222Y-91596275D01*
X85841770Y-91585737D01*
X85813492Y-91572362D01*
X85786662Y-91556281D01*
X85761537Y-91537647D01*
X85738360Y-91516640D01*
X85717353Y-91493463D01*
X85698719Y-91468338D01*
X85682638Y-91441508D01*
X85669263Y-91413230D01*
X85658725Y-91383778D01*
X85651125Y-91353435D01*
X85646535Y-91322493D01*
X85645000Y-91291250D01*
X85645000Y-90653750D01*
X85646535Y-90622507D01*
X85651125Y-90591565D01*
X85658725Y-90561222D01*
X85669263Y-90531770D01*
X85682638Y-90503492D01*
X85698719Y-90476662D01*
X85717353Y-90451537D01*
X85738360Y-90428360D01*
X85761537Y-90407353D01*
X85786662Y-90388719D01*
X85813492Y-90372638D01*
X85841770Y-90359263D01*
X85871222Y-90348725D01*
X85901565Y-90341125D01*
X85932507Y-90336535D01*
X85963750Y-90335000D01*
X86676250Y-90335000D01*
X86707493Y-90336535D01*
X86707493Y-90336535D01*
G37*
D23*
X86320000Y-90972500D03*
D10*
G36*
X86707493Y-91911535D02*
G01*
X86738435Y-91916125D01*
X86768778Y-91923725D01*
X86798230Y-91934263D01*
X86826508Y-91947638D01*
X86853338Y-91963719D01*
X86878463Y-91982353D01*
X86901640Y-92003360D01*
X86922647Y-92026537D01*
X86941281Y-92051662D01*
X86957362Y-92078492D01*
X86970737Y-92106770D01*
X86981275Y-92136222D01*
X86988875Y-92166565D01*
X86993465Y-92197507D01*
X86995000Y-92228750D01*
X86995000Y-92866250D01*
X86993465Y-92897493D01*
X86988875Y-92928435D01*
X86981275Y-92958778D01*
X86970737Y-92988230D01*
X86957362Y-93016508D01*
X86941281Y-93043338D01*
X86922647Y-93068463D01*
X86901640Y-93091640D01*
X86878463Y-93112647D01*
X86853338Y-93131281D01*
X86826508Y-93147362D01*
X86798230Y-93160737D01*
X86768778Y-93171275D01*
X86738435Y-93178875D01*
X86707493Y-93183465D01*
X86676250Y-93185000D01*
X85963750Y-93185000D01*
X85932507Y-93183465D01*
X85901565Y-93178875D01*
X85871222Y-93171275D01*
X85841770Y-93160737D01*
X85813492Y-93147362D01*
X85786662Y-93131281D01*
X85761537Y-93112647D01*
X85738360Y-93091640D01*
X85717353Y-93068463D01*
X85698719Y-93043338D01*
X85682638Y-93016508D01*
X85669263Y-92988230D01*
X85658725Y-92958778D01*
X85651125Y-92928435D01*
X85646535Y-92897493D01*
X85645000Y-92866250D01*
X85645000Y-92228750D01*
X85646535Y-92197507D01*
X85651125Y-92166565D01*
X85658725Y-92136222D01*
X85669263Y-92106770D01*
X85682638Y-92078492D01*
X85698719Y-92051662D01*
X85717353Y-92026537D01*
X85738360Y-92003360D01*
X85761537Y-91982353D01*
X85786662Y-91963719D01*
X85813492Y-91947638D01*
X85841770Y-91934263D01*
X85871222Y-91923725D01*
X85901565Y-91916125D01*
X85932507Y-91911535D01*
X85963750Y-91910000D01*
X86676250Y-91910000D01*
X86707493Y-91911535D01*
X86707493Y-91911535D01*
G37*
D23*
X86320000Y-92547500D03*
D10*
G36*
X84287493Y-73836535D02*
G01*
X84318435Y-73841125D01*
X84348778Y-73848725D01*
X84378230Y-73859263D01*
X84406508Y-73872638D01*
X84433338Y-73888719D01*
X84458463Y-73907353D01*
X84481640Y-73928360D01*
X84502647Y-73951537D01*
X84521281Y-73976662D01*
X84537362Y-74003492D01*
X84550737Y-74031770D01*
X84561275Y-74061222D01*
X84568875Y-74091565D01*
X84573465Y-74122507D01*
X84575000Y-74153750D01*
X84575000Y-74866250D01*
X84573465Y-74897493D01*
X84568875Y-74928435D01*
X84561275Y-74958778D01*
X84550737Y-74988230D01*
X84537362Y-75016508D01*
X84521281Y-75043338D01*
X84502647Y-75068463D01*
X84481640Y-75091640D01*
X84458463Y-75112647D01*
X84433338Y-75131281D01*
X84406508Y-75147362D01*
X84378230Y-75160737D01*
X84348778Y-75171275D01*
X84318435Y-75178875D01*
X84287493Y-75183465D01*
X84256250Y-75185000D01*
X83618750Y-75185000D01*
X83587507Y-75183465D01*
X83556565Y-75178875D01*
X83526222Y-75171275D01*
X83496770Y-75160737D01*
X83468492Y-75147362D01*
X83441662Y-75131281D01*
X83416537Y-75112647D01*
X83393360Y-75091640D01*
X83372353Y-75068463D01*
X83353719Y-75043338D01*
X83337638Y-75016508D01*
X83324263Y-74988230D01*
X83313725Y-74958778D01*
X83306125Y-74928435D01*
X83301535Y-74897493D01*
X83300000Y-74866250D01*
X83300000Y-74153750D01*
X83301535Y-74122507D01*
X83306125Y-74091565D01*
X83313725Y-74061222D01*
X83324263Y-74031770D01*
X83337638Y-74003492D01*
X83353719Y-73976662D01*
X83372353Y-73951537D01*
X83393360Y-73928360D01*
X83416537Y-73907353D01*
X83441662Y-73888719D01*
X83468492Y-73872638D01*
X83496770Y-73859263D01*
X83526222Y-73848725D01*
X83556565Y-73841125D01*
X83587507Y-73836535D01*
X83618750Y-73835000D01*
X84256250Y-73835000D01*
X84287493Y-73836535D01*
X84287493Y-73836535D01*
G37*
D23*
X83937500Y-74510000D03*
D10*
G36*
X82712493Y-73836535D02*
G01*
X82743435Y-73841125D01*
X82773778Y-73848725D01*
X82803230Y-73859263D01*
X82831508Y-73872638D01*
X82858338Y-73888719D01*
X82883463Y-73907353D01*
X82906640Y-73928360D01*
X82927647Y-73951537D01*
X82946281Y-73976662D01*
X82962362Y-74003492D01*
X82975737Y-74031770D01*
X82986275Y-74061222D01*
X82993875Y-74091565D01*
X82998465Y-74122507D01*
X83000000Y-74153750D01*
X83000000Y-74866250D01*
X82998465Y-74897493D01*
X82993875Y-74928435D01*
X82986275Y-74958778D01*
X82975737Y-74988230D01*
X82962362Y-75016508D01*
X82946281Y-75043338D01*
X82927647Y-75068463D01*
X82906640Y-75091640D01*
X82883463Y-75112647D01*
X82858338Y-75131281D01*
X82831508Y-75147362D01*
X82803230Y-75160737D01*
X82773778Y-75171275D01*
X82743435Y-75178875D01*
X82712493Y-75183465D01*
X82681250Y-75185000D01*
X82043750Y-75185000D01*
X82012507Y-75183465D01*
X81981565Y-75178875D01*
X81951222Y-75171275D01*
X81921770Y-75160737D01*
X81893492Y-75147362D01*
X81866662Y-75131281D01*
X81841537Y-75112647D01*
X81818360Y-75091640D01*
X81797353Y-75068463D01*
X81778719Y-75043338D01*
X81762638Y-75016508D01*
X81749263Y-74988230D01*
X81738725Y-74958778D01*
X81731125Y-74928435D01*
X81726535Y-74897493D01*
X81725000Y-74866250D01*
X81725000Y-74153750D01*
X81726535Y-74122507D01*
X81731125Y-74091565D01*
X81738725Y-74061222D01*
X81749263Y-74031770D01*
X81762638Y-74003492D01*
X81778719Y-73976662D01*
X81797353Y-73951537D01*
X81818360Y-73928360D01*
X81841537Y-73907353D01*
X81866662Y-73888719D01*
X81893492Y-73872638D01*
X81921770Y-73859263D01*
X81951222Y-73848725D01*
X81981565Y-73841125D01*
X82012507Y-73836535D01*
X82043750Y-73835000D01*
X82681250Y-73835000D01*
X82712493Y-73836535D01*
X82712493Y-73836535D01*
G37*
D23*
X82362500Y-74510000D03*
D10*
G36*
X82712493Y-76142785D02*
G01*
X82743435Y-76147375D01*
X82773778Y-76154975D01*
X82803230Y-76165513D01*
X82831508Y-76178888D01*
X82858338Y-76194969D01*
X82883463Y-76213603D01*
X82906640Y-76234610D01*
X82927647Y-76257787D01*
X82946281Y-76282912D01*
X82962362Y-76309742D01*
X82975737Y-76338020D01*
X82986275Y-76367472D01*
X82993875Y-76397815D01*
X82998465Y-76428757D01*
X83000000Y-76460000D01*
X83000000Y-77172500D01*
X82998465Y-77203743D01*
X82993875Y-77234685D01*
X82986275Y-77265028D01*
X82975737Y-77294480D01*
X82962362Y-77322758D01*
X82946281Y-77349588D01*
X82927647Y-77374713D01*
X82906640Y-77397890D01*
X82883463Y-77418897D01*
X82858338Y-77437531D01*
X82831508Y-77453612D01*
X82803230Y-77466987D01*
X82773778Y-77477525D01*
X82743435Y-77485125D01*
X82712493Y-77489715D01*
X82681250Y-77491250D01*
X82043750Y-77491250D01*
X82012507Y-77489715D01*
X81981565Y-77485125D01*
X81951222Y-77477525D01*
X81921770Y-77466987D01*
X81893492Y-77453612D01*
X81866662Y-77437531D01*
X81841537Y-77418897D01*
X81818360Y-77397890D01*
X81797353Y-77374713D01*
X81778719Y-77349588D01*
X81762638Y-77322758D01*
X81749263Y-77294480D01*
X81738725Y-77265028D01*
X81731125Y-77234685D01*
X81726535Y-77203743D01*
X81725000Y-77172500D01*
X81725000Y-76460000D01*
X81726535Y-76428757D01*
X81731125Y-76397815D01*
X81738725Y-76367472D01*
X81749263Y-76338020D01*
X81762638Y-76309742D01*
X81778719Y-76282912D01*
X81797353Y-76257787D01*
X81818360Y-76234610D01*
X81841537Y-76213603D01*
X81866662Y-76194969D01*
X81893492Y-76178888D01*
X81921770Y-76165513D01*
X81951222Y-76154975D01*
X81981565Y-76147375D01*
X82012507Y-76142785D01*
X82043750Y-76141250D01*
X82681250Y-76141250D01*
X82712493Y-76142785D01*
X82712493Y-76142785D01*
G37*
D23*
X82362500Y-76816250D03*
D10*
G36*
X84287493Y-76142785D02*
G01*
X84318435Y-76147375D01*
X84348778Y-76154975D01*
X84378230Y-76165513D01*
X84406508Y-76178888D01*
X84433338Y-76194969D01*
X84458463Y-76213603D01*
X84481640Y-76234610D01*
X84502647Y-76257787D01*
X84521281Y-76282912D01*
X84537362Y-76309742D01*
X84550737Y-76338020D01*
X84561275Y-76367472D01*
X84568875Y-76397815D01*
X84573465Y-76428757D01*
X84575000Y-76460000D01*
X84575000Y-77172500D01*
X84573465Y-77203743D01*
X84568875Y-77234685D01*
X84561275Y-77265028D01*
X84550737Y-77294480D01*
X84537362Y-77322758D01*
X84521281Y-77349588D01*
X84502647Y-77374713D01*
X84481640Y-77397890D01*
X84458463Y-77418897D01*
X84433338Y-77437531D01*
X84406508Y-77453612D01*
X84378230Y-77466987D01*
X84348778Y-77477525D01*
X84318435Y-77485125D01*
X84287493Y-77489715D01*
X84256250Y-77491250D01*
X83618750Y-77491250D01*
X83587507Y-77489715D01*
X83556565Y-77485125D01*
X83526222Y-77477525D01*
X83496770Y-77466987D01*
X83468492Y-77453612D01*
X83441662Y-77437531D01*
X83416537Y-77418897D01*
X83393360Y-77397890D01*
X83372353Y-77374713D01*
X83353719Y-77349588D01*
X83337638Y-77322758D01*
X83324263Y-77294480D01*
X83313725Y-77265028D01*
X83306125Y-77234685D01*
X83301535Y-77203743D01*
X83300000Y-77172500D01*
X83300000Y-76460000D01*
X83301535Y-76428757D01*
X83306125Y-76397815D01*
X83313725Y-76367472D01*
X83324263Y-76338020D01*
X83337638Y-76309742D01*
X83353719Y-76282912D01*
X83372353Y-76257787D01*
X83393360Y-76234610D01*
X83416537Y-76213603D01*
X83441662Y-76194969D01*
X83468492Y-76178888D01*
X83496770Y-76165513D01*
X83526222Y-76154975D01*
X83556565Y-76147375D01*
X83587507Y-76142785D01*
X83618750Y-76141250D01*
X84256250Y-76141250D01*
X84287493Y-76142785D01*
X84287493Y-76142785D01*
G37*
D23*
X83937500Y-76816250D03*
D10*
G36*
X82712493Y-78449035D02*
G01*
X82743435Y-78453625D01*
X82773778Y-78461225D01*
X82803230Y-78471763D01*
X82831508Y-78485138D01*
X82858338Y-78501219D01*
X82883463Y-78519853D01*
X82906640Y-78540860D01*
X82927647Y-78564037D01*
X82946281Y-78589162D01*
X82962362Y-78615992D01*
X82975737Y-78644270D01*
X82986275Y-78673722D01*
X82993875Y-78704065D01*
X82998465Y-78735007D01*
X83000000Y-78766250D01*
X83000000Y-79478750D01*
X82998465Y-79509993D01*
X82993875Y-79540935D01*
X82986275Y-79571278D01*
X82975737Y-79600730D01*
X82962362Y-79629008D01*
X82946281Y-79655838D01*
X82927647Y-79680963D01*
X82906640Y-79704140D01*
X82883463Y-79725147D01*
X82858338Y-79743781D01*
X82831508Y-79759862D01*
X82803230Y-79773237D01*
X82773778Y-79783775D01*
X82743435Y-79791375D01*
X82712493Y-79795965D01*
X82681250Y-79797500D01*
X82043750Y-79797500D01*
X82012507Y-79795965D01*
X81981565Y-79791375D01*
X81951222Y-79783775D01*
X81921770Y-79773237D01*
X81893492Y-79759862D01*
X81866662Y-79743781D01*
X81841537Y-79725147D01*
X81818360Y-79704140D01*
X81797353Y-79680963D01*
X81778719Y-79655838D01*
X81762638Y-79629008D01*
X81749263Y-79600730D01*
X81738725Y-79571278D01*
X81731125Y-79540935D01*
X81726535Y-79509993D01*
X81725000Y-79478750D01*
X81725000Y-78766250D01*
X81726535Y-78735007D01*
X81731125Y-78704065D01*
X81738725Y-78673722D01*
X81749263Y-78644270D01*
X81762638Y-78615992D01*
X81778719Y-78589162D01*
X81797353Y-78564037D01*
X81818360Y-78540860D01*
X81841537Y-78519853D01*
X81866662Y-78501219D01*
X81893492Y-78485138D01*
X81921770Y-78471763D01*
X81951222Y-78461225D01*
X81981565Y-78453625D01*
X82012507Y-78449035D01*
X82043750Y-78447500D01*
X82681250Y-78447500D01*
X82712493Y-78449035D01*
X82712493Y-78449035D01*
G37*
D23*
X82362500Y-79122500D03*
D10*
G36*
X84287493Y-78449035D02*
G01*
X84318435Y-78453625D01*
X84348778Y-78461225D01*
X84378230Y-78471763D01*
X84406508Y-78485138D01*
X84433338Y-78501219D01*
X84458463Y-78519853D01*
X84481640Y-78540860D01*
X84502647Y-78564037D01*
X84521281Y-78589162D01*
X84537362Y-78615992D01*
X84550737Y-78644270D01*
X84561275Y-78673722D01*
X84568875Y-78704065D01*
X84573465Y-78735007D01*
X84575000Y-78766250D01*
X84575000Y-79478750D01*
X84573465Y-79509993D01*
X84568875Y-79540935D01*
X84561275Y-79571278D01*
X84550737Y-79600730D01*
X84537362Y-79629008D01*
X84521281Y-79655838D01*
X84502647Y-79680963D01*
X84481640Y-79704140D01*
X84458463Y-79725147D01*
X84433338Y-79743781D01*
X84406508Y-79759862D01*
X84378230Y-79773237D01*
X84348778Y-79783775D01*
X84318435Y-79791375D01*
X84287493Y-79795965D01*
X84256250Y-79797500D01*
X83618750Y-79797500D01*
X83587507Y-79795965D01*
X83556565Y-79791375D01*
X83526222Y-79783775D01*
X83496770Y-79773237D01*
X83468492Y-79759862D01*
X83441662Y-79743781D01*
X83416537Y-79725147D01*
X83393360Y-79704140D01*
X83372353Y-79680963D01*
X83353719Y-79655838D01*
X83337638Y-79629008D01*
X83324263Y-79600730D01*
X83313725Y-79571278D01*
X83306125Y-79540935D01*
X83301535Y-79509993D01*
X83300000Y-79478750D01*
X83300000Y-78766250D01*
X83301535Y-78735007D01*
X83306125Y-78704065D01*
X83313725Y-78673722D01*
X83324263Y-78644270D01*
X83337638Y-78615992D01*
X83353719Y-78589162D01*
X83372353Y-78564037D01*
X83393360Y-78540860D01*
X83416537Y-78519853D01*
X83441662Y-78501219D01*
X83468492Y-78485138D01*
X83496770Y-78471763D01*
X83526222Y-78461225D01*
X83556565Y-78453625D01*
X83587507Y-78449035D01*
X83618750Y-78447500D01*
X84256250Y-78447500D01*
X84287493Y-78449035D01*
X84287493Y-78449035D01*
G37*
D23*
X83937500Y-79122500D03*
D10*
G36*
X82712493Y-80755285D02*
G01*
X82743435Y-80759875D01*
X82773778Y-80767475D01*
X82803230Y-80778013D01*
X82831508Y-80791388D01*
X82858338Y-80807469D01*
X82883463Y-80826103D01*
X82906640Y-80847110D01*
X82927647Y-80870287D01*
X82946281Y-80895412D01*
X82962362Y-80922242D01*
X82975737Y-80950520D01*
X82986275Y-80979972D01*
X82993875Y-81010315D01*
X82998465Y-81041257D01*
X83000000Y-81072500D01*
X83000000Y-81785000D01*
X82998465Y-81816243D01*
X82993875Y-81847185D01*
X82986275Y-81877528D01*
X82975737Y-81906980D01*
X82962362Y-81935258D01*
X82946281Y-81962088D01*
X82927647Y-81987213D01*
X82906640Y-82010390D01*
X82883463Y-82031397D01*
X82858338Y-82050031D01*
X82831508Y-82066112D01*
X82803230Y-82079487D01*
X82773778Y-82090025D01*
X82743435Y-82097625D01*
X82712493Y-82102215D01*
X82681250Y-82103750D01*
X82043750Y-82103750D01*
X82012507Y-82102215D01*
X81981565Y-82097625D01*
X81951222Y-82090025D01*
X81921770Y-82079487D01*
X81893492Y-82066112D01*
X81866662Y-82050031D01*
X81841537Y-82031397D01*
X81818360Y-82010390D01*
X81797353Y-81987213D01*
X81778719Y-81962088D01*
X81762638Y-81935258D01*
X81749263Y-81906980D01*
X81738725Y-81877528D01*
X81731125Y-81847185D01*
X81726535Y-81816243D01*
X81725000Y-81785000D01*
X81725000Y-81072500D01*
X81726535Y-81041257D01*
X81731125Y-81010315D01*
X81738725Y-80979972D01*
X81749263Y-80950520D01*
X81762638Y-80922242D01*
X81778719Y-80895412D01*
X81797353Y-80870287D01*
X81818360Y-80847110D01*
X81841537Y-80826103D01*
X81866662Y-80807469D01*
X81893492Y-80791388D01*
X81921770Y-80778013D01*
X81951222Y-80767475D01*
X81981565Y-80759875D01*
X82012507Y-80755285D01*
X82043750Y-80753750D01*
X82681250Y-80753750D01*
X82712493Y-80755285D01*
X82712493Y-80755285D01*
G37*
D23*
X82362500Y-81428750D03*
D10*
G36*
X84287493Y-80755285D02*
G01*
X84318435Y-80759875D01*
X84348778Y-80767475D01*
X84378230Y-80778013D01*
X84406508Y-80791388D01*
X84433338Y-80807469D01*
X84458463Y-80826103D01*
X84481640Y-80847110D01*
X84502647Y-80870287D01*
X84521281Y-80895412D01*
X84537362Y-80922242D01*
X84550737Y-80950520D01*
X84561275Y-80979972D01*
X84568875Y-81010315D01*
X84573465Y-81041257D01*
X84575000Y-81072500D01*
X84575000Y-81785000D01*
X84573465Y-81816243D01*
X84568875Y-81847185D01*
X84561275Y-81877528D01*
X84550737Y-81906980D01*
X84537362Y-81935258D01*
X84521281Y-81962088D01*
X84502647Y-81987213D01*
X84481640Y-82010390D01*
X84458463Y-82031397D01*
X84433338Y-82050031D01*
X84406508Y-82066112D01*
X84378230Y-82079487D01*
X84348778Y-82090025D01*
X84318435Y-82097625D01*
X84287493Y-82102215D01*
X84256250Y-82103750D01*
X83618750Y-82103750D01*
X83587507Y-82102215D01*
X83556565Y-82097625D01*
X83526222Y-82090025D01*
X83496770Y-82079487D01*
X83468492Y-82066112D01*
X83441662Y-82050031D01*
X83416537Y-82031397D01*
X83393360Y-82010390D01*
X83372353Y-81987213D01*
X83353719Y-81962088D01*
X83337638Y-81935258D01*
X83324263Y-81906980D01*
X83313725Y-81877528D01*
X83306125Y-81847185D01*
X83301535Y-81816243D01*
X83300000Y-81785000D01*
X83300000Y-81072500D01*
X83301535Y-81041257D01*
X83306125Y-81010315D01*
X83313725Y-80979972D01*
X83324263Y-80950520D01*
X83337638Y-80922242D01*
X83353719Y-80895412D01*
X83372353Y-80870287D01*
X83393360Y-80847110D01*
X83416537Y-80826103D01*
X83441662Y-80807469D01*
X83468492Y-80791388D01*
X83496770Y-80778013D01*
X83526222Y-80767475D01*
X83556565Y-80759875D01*
X83587507Y-80755285D01*
X83618750Y-80753750D01*
X84256250Y-80753750D01*
X84287493Y-80755285D01*
X84287493Y-80755285D01*
G37*
D23*
X83937500Y-81428750D03*
D10*
G36*
X84287493Y-83061535D02*
G01*
X84318435Y-83066125D01*
X84348778Y-83073725D01*
X84378230Y-83084263D01*
X84406508Y-83097638D01*
X84433338Y-83113719D01*
X84458463Y-83132353D01*
X84481640Y-83153360D01*
X84502647Y-83176537D01*
X84521281Y-83201662D01*
X84537362Y-83228492D01*
X84550737Y-83256770D01*
X84561275Y-83286222D01*
X84568875Y-83316565D01*
X84573465Y-83347507D01*
X84575000Y-83378750D01*
X84575000Y-84091250D01*
X84573465Y-84122493D01*
X84568875Y-84153435D01*
X84561275Y-84183778D01*
X84550737Y-84213230D01*
X84537362Y-84241508D01*
X84521281Y-84268338D01*
X84502647Y-84293463D01*
X84481640Y-84316640D01*
X84458463Y-84337647D01*
X84433338Y-84356281D01*
X84406508Y-84372362D01*
X84378230Y-84385737D01*
X84348778Y-84396275D01*
X84318435Y-84403875D01*
X84287493Y-84408465D01*
X84256250Y-84410000D01*
X83618750Y-84410000D01*
X83587507Y-84408465D01*
X83556565Y-84403875D01*
X83526222Y-84396275D01*
X83496770Y-84385737D01*
X83468492Y-84372362D01*
X83441662Y-84356281D01*
X83416537Y-84337647D01*
X83393360Y-84316640D01*
X83372353Y-84293463D01*
X83353719Y-84268338D01*
X83337638Y-84241508D01*
X83324263Y-84213230D01*
X83313725Y-84183778D01*
X83306125Y-84153435D01*
X83301535Y-84122493D01*
X83300000Y-84091250D01*
X83300000Y-83378750D01*
X83301535Y-83347507D01*
X83306125Y-83316565D01*
X83313725Y-83286222D01*
X83324263Y-83256770D01*
X83337638Y-83228492D01*
X83353719Y-83201662D01*
X83372353Y-83176537D01*
X83393360Y-83153360D01*
X83416537Y-83132353D01*
X83441662Y-83113719D01*
X83468492Y-83097638D01*
X83496770Y-83084263D01*
X83526222Y-83073725D01*
X83556565Y-83066125D01*
X83587507Y-83061535D01*
X83618750Y-83060000D01*
X84256250Y-83060000D01*
X84287493Y-83061535D01*
X84287493Y-83061535D01*
G37*
D23*
X83937500Y-83735000D03*
D10*
G36*
X82712493Y-83061535D02*
G01*
X82743435Y-83066125D01*
X82773778Y-83073725D01*
X82803230Y-83084263D01*
X82831508Y-83097638D01*
X82858338Y-83113719D01*
X82883463Y-83132353D01*
X82906640Y-83153360D01*
X82927647Y-83176537D01*
X82946281Y-83201662D01*
X82962362Y-83228492D01*
X82975737Y-83256770D01*
X82986275Y-83286222D01*
X82993875Y-83316565D01*
X82998465Y-83347507D01*
X83000000Y-83378750D01*
X83000000Y-84091250D01*
X82998465Y-84122493D01*
X82993875Y-84153435D01*
X82986275Y-84183778D01*
X82975737Y-84213230D01*
X82962362Y-84241508D01*
X82946281Y-84268338D01*
X82927647Y-84293463D01*
X82906640Y-84316640D01*
X82883463Y-84337647D01*
X82858338Y-84356281D01*
X82831508Y-84372362D01*
X82803230Y-84385737D01*
X82773778Y-84396275D01*
X82743435Y-84403875D01*
X82712493Y-84408465D01*
X82681250Y-84410000D01*
X82043750Y-84410000D01*
X82012507Y-84408465D01*
X81981565Y-84403875D01*
X81951222Y-84396275D01*
X81921770Y-84385737D01*
X81893492Y-84372362D01*
X81866662Y-84356281D01*
X81841537Y-84337647D01*
X81818360Y-84316640D01*
X81797353Y-84293463D01*
X81778719Y-84268338D01*
X81762638Y-84241508D01*
X81749263Y-84213230D01*
X81738725Y-84183778D01*
X81731125Y-84153435D01*
X81726535Y-84122493D01*
X81725000Y-84091250D01*
X81725000Y-83378750D01*
X81726535Y-83347507D01*
X81731125Y-83316565D01*
X81738725Y-83286222D01*
X81749263Y-83256770D01*
X81762638Y-83228492D01*
X81778719Y-83201662D01*
X81797353Y-83176537D01*
X81818360Y-83153360D01*
X81841537Y-83132353D01*
X81866662Y-83113719D01*
X81893492Y-83097638D01*
X81921770Y-83084263D01*
X81951222Y-83073725D01*
X81981565Y-83066125D01*
X82012507Y-83061535D01*
X82043750Y-83060000D01*
X82681250Y-83060000D01*
X82712493Y-83061535D01*
X82712493Y-83061535D01*
G37*
D23*
X82362500Y-83735000D03*
D10*
G36*
X72687493Y-100406535D02*
G01*
X72718435Y-100411125D01*
X72748778Y-100418725D01*
X72778230Y-100429263D01*
X72806508Y-100442638D01*
X72833338Y-100458719D01*
X72858463Y-100477353D01*
X72881640Y-100498360D01*
X72902647Y-100521537D01*
X72921281Y-100546662D01*
X72937362Y-100573492D01*
X72950737Y-100601770D01*
X72961275Y-100631222D01*
X72968875Y-100661565D01*
X72973465Y-100692507D01*
X72975000Y-100723750D01*
X72975000Y-101361250D01*
X72973465Y-101392493D01*
X72968875Y-101423435D01*
X72961275Y-101453778D01*
X72950737Y-101483230D01*
X72937362Y-101511508D01*
X72921281Y-101538338D01*
X72902647Y-101563463D01*
X72881640Y-101586640D01*
X72858463Y-101607647D01*
X72833338Y-101626281D01*
X72806508Y-101642362D01*
X72778230Y-101655737D01*
X72748778Y-101666275D01*
X72718435Y-101673875D01*
X72687493Y-101678465D01*
X72656250Y-101680000D01*
X71943750Y-101680000D01*
X71912507Y-101678465D01*
X71881565Y-101673875D01*
X71851222Y-101666275D01*
X71821770Y-101655737D01*
X71793492Y-101642362D01*
X71766662Y-101626281D01*
X71741537Y-101607647D01*
X71718360Y-101586640D01*
X71697353Y-101563463D01*
X71678719Y-101538338D01*
X71662638Y-101511508D01*
X71649263Y-101483230D01*
X71638725Y-101453778D01*
X71631125Y-101423435D01*
X71626535Y-101392493D01*
X71625000Y-101361250D01*
X71625000Y-100723750D01*
X71626535Y-100692507D01*
X71631125Y-100661565D01*
X71638725Y-100631222D01*
X71649263Y-100601770D01*
X71662638Y-100573492D01*
X71678719Y-100546662D01*
X71697353Y-100521537D01*
X71718360Y-100498360D01*
X71741537Y-100477353D01*
X71766662Y-100458719D01*
X71793492Y-100442638D01*
X71821770Y-100429263D01*
X71851222Y-100418725D01*
X71881565Y-100411125D01*
X71912507Y-100406535D01*
X71943750Y-100405000D01*
X72656250Y-100405000D01*
X72687493Y-100406535D01*
X72687493Y-100406535D01*
G37*
D23*
X72300000Y-101042500D03*
D10*
G36*
X72687493Y-101981535D02*
G01*
X72718435Y-101986125D01*
X72748778Y-101993725D01*
X72778230Y-102004263D01*
X72806508Y-102017638D01*
X72833338Y-102033719D01*
X72858463Y-102052353D01*
X72881640Y-102073360D01*
X72902647Y-102096537D01*
X72921281Y-102121662D01*
X72937362Y-102148492D01*
X72950737Y-102176770D01*
X72961275Y-102206222D01*
X72968875Y-102236565D01*
X72973465Y-102267507D01*
X72975000Y-102298750D01*
X72975000Y-102936250D01*
X72973465Y-102967493D01*
X72968875Y-102998435D01*
X72961275Y-103028778D01*
X72950737Y-103058230D01*
X72937362Y-103086508D01*
X72921281Y-103113338D01*
X72902647Y-103138463D01*
X72881640Y-103161640D01*
X72858463Y-103182647D01*
X72833338Y-103201281D01*
X72806508Y-103217362D01*
X72778230Y-103230737D01*
X72748778Y-103241275D01*
X72718435Y-103248875D01*
X72687493Y-103253465D01*
X72656250Y-103255000D01*
X71943750Y-103255000D01*
X71912507Y-103253465D01*
X71881565Y-103248875D01*
X71851222Y-103241275D01*
X71821770Y-103230737D01*
X71793492Y-103217362D01*
X71766662Y-103201281D01*
X71741537Y-103182647D01*
X71718360Y-103161640D01*
X71697353Y-103138463D01*
X71678719Y-103113338D01*
X71662638Y-103086508D01*
X71649263Y-103058230D01*
X71638725Y-103028778D01*
X71631125Y-102998435D01*
X71626535Y-102967493D01*
X71625000Y-102936250D01*
X71625000Y-102298750D01*
X71626535Y-102267507D01*
X71631125Y-102236565D01*
X71638725Y-102206222D01*
X71649263Y-102176770D01*
X71662638Y-102148492D01*
X71678719Y-102121662D01*
X71697353Y-102096537D01*
X71718360Y-102073360D01*
X71741537Y-102052353D01*
X71766662Y-102033719D01*
X71793492Y-102017638D01*
X71821770Y-102004263D01*
X71851222Y-101993725D01*
X71881565Y-101986125D01*
X71912507Y-101981535D01*
X71943750Y-101980000D01*
X72656250Y-101980000D01*
X72687493Y-101981535D01*
X72687493Y-101981535D01*
G37*
D23*
X72300000Y-102617500D03*
D10*
G36*
X84072493Y-52896535D02*
G01*
X84103435Y-52901125D01*
X84133778Y-52908725D01*
X84163230Y-52919263D01*
X84191508Y-52932638D01*
X84218338Y-52948719D01*
X84243463Y-52967353D01*
X84266640Y-52988360D01*
X84287647Y-53011537D01*
X84306281Y-53036662D01*
X84322362Y-53063492D01*
X84335737Y-53091770D01*
X84346275Y-53121222D01*
X84353875Y-53151565D01*
X84358465Y-53182507D01*
X84360000Y-53213750D01*
X84360000Y-53926250D01*
X84358465Y-53957493D01*
X84353875Y-53988435D01*
X84346275Y-54018778D01*
X84335737Y-54048230D01*
X84322362Y-54076508D01*
X84306281Y-54103338D01*
X84287647Y-54128463D01*
X84266640Y-54151640D01*
X84243463Y-54172647D01*
X84218338Y-54191281D01*
X84191508Y-54207362D01*
X84163230Y-54220737D01*
X84133778Y-54231275D01*
X84103435Y-54238875D01*
X84072493Y-54243465D01*
X84041250Y-54245000D01*
X83403750Y-54245000D01*
X83372507Y-54243465D01*
X83341565Y-54238875D01*
X83311222Y-54231275D01*
X83281770Y-54220737D01*
X83253492Y-54207362D01*
X83226662Y-54191281D01*
X83201537Y-54172647D01*
X83178360Y-54151640D01*
X83157353Y-54128463D01*
X83138719Y-54103338D01*
X83122638Y-54076508D01*
X83109263Y-54048230D01*
X83098725Y-54018778D01*
X83091125Y-53988435D01*
X83086535Y-53957493D01*
X83085000Y-53926250D01*
X83085000Y-53213750D01*
X83086535Y-53182507D01*
X83091125Y-53151565D01*
X83098725Y-53121222D01*
X83109263Y-53091770D01*
X83122638Y-53063492D01*
X83138719Y-53036662D01*
X83157353Y-53011537D01*
X83178360Y-52988360D01*
X83201537Y-52967353D01*
X83226662Y-52948719D01*
X83253492Y-52932638D01*
X83281770Y-52919263D01*
X83311222Y-52908725D01*
X83341565Y-52901125D01*
X83372507Y-52896535D01*
X83403750Y-52895000D01*
X84041250Y-52895000D01*
X84072493Y-52896535D01*
X84072493Y-52896535D01*
G37*
D23*
X83722500Y-53570000D03*
D10*
G36*
X85647493Y-52896535D02*
G01*
X85678435Y-52901125D01*
X85708778Y-52908725D01*
X85738230Y-52919263D01*
X85766508Y-52932638D01*
X85793338Y-52948719D01*
X85818463Y-52967353D01*
X85841640Y-52988360D01*
X85862647Y-53011537D01*
X85881281Y-53036662D01*
X85897362Y-53063492D01*
X85910737Y-53091770D01*
X85921275Y-53121222D01*
X85928875Y-53151565D01*
X85933465Y-53182507D01*
X85935000Y-53213750D01*
X85935000Y-53926250D01*
X85933465Y-53957493D01*
X85928875Y-53988435D01*
X85921275Y-54018778D01*
X85910737Y-54048230D01*
X85897362Y-54076508D01*
X85881281Y-54103338D01*
X85862647Y-54128463D01*
X85841640Y-54151640D01*
X85818463Y-54172647D01*
X85793338Y-54191281D01*
X85766508Y-54207362D01*
X85738230Y-54220737D01*
X85708778Y-54231275D01*
X85678435Y-54238875D01*
X85647493Y-54243465D01*
X85616250Y-54245000D01*
X84978750Y-54245000D01*
X84947507Y-54243465D01*
X84916565Y-54238875D01*
X84886222Y-54231275D01*
X84856770Y-54220737D01*
X84828492Y-54207362D01*
X84801662Y-54191281D01*
X84776537Y-54172647D01*
X84753360Y-54151640D01*
X84732353Y-54128463D01*
X84713719Y-54103338D01*
X84697638Y-54076508D01*
X84684263Y-54048230D01*
X84673725Y-54018778D01*
X84666125Y-53988435D01*
X84661535Y-53957493D01*
X84660000Y-53926250D01*
X84660000Y-53213750D01*
X84661535Y-53182507D01*
X84666125Y-53151565D01*
X84673725Y-53121222D01*
X84684263Y-53091770D01*
X84697638Y-53063492D01*
X84713719Y-53036662D01*
X84732353Y-53011537D01*
X84753360Y-52988360D01*
X84776537Y-52967353D01*
X84801662Y-52948719D01*
X84828492Y-52932638D01*
X84856770Y-52919263D01*
X84886222Y-52908725D01*
X84916565Y-52901125D01*
X84947507Y-52896535D01*
X84978750Y-52895000D01*
X85616250Y-52895000D01*
X85647493Y-52896535D01*
X85647493Y-52896535D01*
G37*
D23*
X85297500Y-53570000D03*
D10*
G36*
X92557493Y-106161535D02*
G01*
X92588435Y-106166125D01*
X92618778Y-106173725D01*
X92648230Y-106184263D01*
X92676508Y-106197638D01*
X92703338Y-106213719D01*
X92728463Y-106232353D01*
X92751640Y-106253360D01*
X92772647Y-106276537D01*
X92791281Y-106301662D01*
X92807362Y-106328492D01*
X92820737Y-106356770D01*
X92831275Y-106386222D01*
X92838875Y-106416565D01*
X92843465Y-106447507D01*
X92845000Y-106478750D01*
X92845000Y-107116250D01*
X92843465Y-107147493D01*
X92838875Y-107178435D01*
X92831275Y-107208778D01*
X92820737Y-107238230D01*
X92807362Y-107266508D01*
X92791281Y-107293338D01*
X92772647Y-107318463D01*
X92751640Y-107341640D01*
X92728463Y-107362647D01*
X92703338Y-107381281D01*
X92676508Y-107397362D01*
X92648230Y-107410737D01*
X92618778Y-107421275D01*
X92588435Y-107428875D01*
X92557493Y-107433465D01*
X92526250Y-107435000D01*
X91813750Y-107435000D01*
X91782507Y-107433465D01*
X91751565Y-107428875D01*
X91721222Y-107421275D01*
X91691770Y-107410737D01*
X91663492Y-107397362D01*
X91636662Y-107381281D01*
X91611537Y-107362647D01*
X91588360Y-107341640D01*
X91567353Y-107318463D01*
X91548719Y-107293338D01*
X91532638Y-107266508D01*
X91519263Y-107238230D01*
X91508725Y-107208778D01*
X91501125Y-107178435D01*
X91496535Y-107147493D01*
X91495000Y-107116250D01*
X91495000Y-106478750D01*
X91496535Y-106447507D01*
X91501125Y-106416565D01*
X91508725Y-106386222D01*
X91519263Y-106356770D01*
X91532638Y-106328492D01*
X91548719Y-106301662D01*
X91567353Y-106276537D01*
X91588360Y-106253360D01*
X91611537Y-106232353D01*
X91636662Y-106213719D01*
X91663492Y-106197638D01*
X91691770Y-106184263D01*
X91721222Y-106173725D01*
X91751565Y-106166125D01*
X91782507Y-106161535D01*
X91813750Y-106160000D01*
X92526250Y-106160000D01*
X92557493Y-106161535D01*
X92557493Y-106161535D01*
G37*
D23*
X92170000Y-106797500D03*
D10*
G36*
X92557493Y-104586535D02*
G01*
X92588435Y-104591125D01*
X92618778Y-104598725D01*
X92648230Y-104609263D01*
X92676508Y-104622638D01*
X92703338Y-104638719D01*
X92728463Y-104657353D01*
X92751640Y-104678360D01*
X92772647Y-104701537D01*
X92791281Y-104726662D01*
X92807362Y-104753492D01*
X92820737Y-104781770D01*
X92831275Y-104811222D01*
X92838875Y-104841565D01*
X92843465Y-104872507D01*
X92845000Y-104903750D01*
X92845000Y-105541250D01*
X92843465Y-105572493D01*
X92838875Y-105603435D01*
X92831275Y-105633778D01*
X92820737Y-105663230D01*
X92807362Y-105691508D01*
X92791281Y-105718338D01*
X92772647Y-105743463D01*
X92751640Y-105766640D01*
X92728463Y-105787647D01*
X92703338Y-105806281D01*
X92676508Y-105822362D01*
X92648230Y-105835737D01*
X92618778Y-105846275D01*
X92588435Y-105853875D01*
X92557493Y-105858465D01*
X92526250Y-105860000D01*
X91813750Y-105860000D01*
X91782507Y-105858465D01*
X91751565Y-105853875D01*
X91721222Y-105846275D01*
X91691770Y-105835737D01*
X91663492Y-105822362D01*
X91636662Y-105806281D01*
X91611537Y-105787647D01*
X91588360Y-105766640D01*
X91567353Y-105743463D01*
X91548719Y-105718338D01*
X91532638Y-105691508D01*
X91519263Y-105663230D01*
X91508725Y-105633778D01*
X91501125Y-105603435D01*
X91496535Y-105572493D01*
X91495000Y-105541250D01*
X91495000Y-104903750D01*
X91496535Y-104872507D01*
X91501125Y-104841565D01*
X91508725Y-104811222D01*
X91519263Y-104781770D01*
X91532638Y-104753492D01*
X91548719Y-104726662D01*
X91567353Y-104701537D01*
X91588360Y-104678360D01*
X91611537Y-104657353D01*
X91636662Y-104638719D01*
X91663492Y-104622638D01*
X91691770Y-104609263D01*
X91721222Y-104598725D01*
X91751565Y-104591125D01*
X91782507Y-104586535D01*
X91813750Y-104585000D01*
X92526250Y-104585000D01*
X92557493Y-104586535D01*
X92557493Y-104586535D01*
G37*
D23*
X92170000Y-105222500D03*
D10*
G36*
X92557493Y-109271535D02*
G01*
X92588435Y-109276125D01*
X92618778Y-109283725D01*
X92648230Y-109294263D01*
X92676508Y-109307638D01*
X92703338Y-109323719D01*
X92728463Y-109342353D01*
X92751640Y-109363360D01*
X92772647Y-109386537D01*
X92791281Y-109411662D01*
X92807362Y-109438492D01*
X92820737Y-109466770D01*
X92831275Y-109496222D01*
X92838875Y-109526565D01*
X92843465Y-109557507D01*
X92845000Y-109588750D01*
X92845000Y-110226250D01*
X92843465Y-110257493D01*
X92838875Y-110288435D01*
X92831275Y-110318778D01*
X92820737Y-110348230D01*
X92807362Y-110376508D01*
X92791281Y-110403338D01*
X92772647Y-110428463D01*
X92751640Y-110451640D01*
X92728463Y-110472647D01*
X92703338Y-110491281D01*
X92676508Y-110507362D01*
X92648230Y-110520737D01*
X92618778Y-110531275D01*
X92588435Y-110538875D01*
X92557493Y-110543465D01*
X92526250Y-110545000D01*
X91813750Y-110545000D01*
X91782507Y-110543465D01*
X91751565Y-110538875D01*
X91721222Y-110531275D01*
X91691770Y-110520737D01*
X91663492Y-110507362D01*
X91636662Y-110491281D01*
X91611537Y-110472647D01*
X91588360Y-110451640D01*
X91567353Y-110428463D01*
X91548719Y-110403338D01*
X91532638Y-110376508D01*
X91519263Y-110348230D01*
X91508725Y-110318778D01*
X91501125Y-110288435D01*
X91496535Y-110257493D01*
X91495000Y-110226250D01*
X91495000Y-109588750D01*
X91496535Y-109557507D01*
X91501125Y-109526565D01*
X91508725Y-109496222D01*
X91519263Y-109466770D01*
X91532638Y-109438492D01*
X91548719Y-109411662D01*
X91567353Y-109386537D01*
X91588360Y-109363360D01*
X91611537Y-109342353D01*
X91636662Y-109323719D01*
X91663492Y-109307638D01*
X91691770Y-109294263D01*
X91721222Y-109283725D01*
X91751565Y-109276125D01*
X91782507Y-109271535D01*
X91813750Y-109270000D01*
X92526250Y-109270000D01*
X92557493Y-109271535D01*
X92557493Y-109271535D01*
G37*
D23*
X92170000Y-109907500D03*
D10*
G36*
X92557493Y-107696535D02*
G01*
X92588435Y-107701125D01*
X92618778Y-107708725D01*
X92648230Y-107719263D01*
X92676508Y-107732638D01*
X92703338Y-107748719D01*
X92728463Y-107767353D01*
X92751640Y-107788360D01*
X92772647Y-107811537D01*
X92791281Y-107836662D01*
X92807362Y-107863492D01*
X92820737Y-107891770D01*
X92831275Y-107921222D01*
X92838875Y-107951565D01*
X92843465Y-107982507D01*
X92845000Y-108013750D01*
X92845000Y-108651250D01*
X92843465Y-108682493D01*
X92838875Y-108713435D01*
X92831275Y-108743778D01*
X92820737Y-108773230D01*
X92807362Y-108801508D01*
X92791281Y-108828338D01*
X92772647Y-108853463D01*
X92751640Y-108876640D01*
X92728463Y-108897647D01*
X92703338Y-108916281D01*
X92676508Y-108932362D01*
X92648230Y-108945737D01*
X92618778Y-108956275D01*
X92588435Y-108963875D01*
X92557493Y-108968465D01*
X92526250Y-108970000D01*
X91813750Y-108970000D01*
X91782507Y-108968465D01*
X91751565Y-108963875D01*
X91721222Y-108956275D01*
X91691770Y-108945737D01*
X91663492Y-108932362D01*
X91636662Y-108916281D01*
X91611537Y-108897647D01*
X91588360Y-108876640D01*
X91567353Y-108853463D01*
X91548719Y-108828338D01*
X91532638Y-108801508D01*
X91519263Y-108773230D01*
X91508725Y-108743778D01*
X91501125Y-108713435D01*
X91496535Y-108682493D01*
X91495000Y-108651250D01*
X91495000Y-108013750D01*
X91496535Y-107982507D01*
X91501125Y-107951565D01*
X91508725Y-107921222D01*
X91519263Y-107891770D01*
X91532638Y-107863492D01*
X91548719Y-107836662D01*
X91567353Y-107811537D01*
X91588360Y-107788360D01*
X91611537Y-107767353D01*
X91636662Y-107748719D01*
X91663492Y-107732638D01*
X91691770Y-107719263D01*
X91721222Y-107708725D01*
X91751565Y-107701125D01*
X91782507Y-107696535D01*
X91813750Y-107695000D01*
X92526250Y-107695000D01*
X92557493Y-107696535D01*
X92557493Y-107696535D01*
G37*
D23*
X92170000Y-108332500D03*
D10*
G36*
X92847493Y-121386535D02*
G01*
X92878435Y-121391125D01*
X92908778Y-121398725D01*
X92938230Y-121409263D01*
X92966508Y-121422638D01*
X92993338Y-121438719D01*
X93018463Y-121457353D01*
X93041640Y-121478360D01*
X93062647Y-121501537D01*
X93081281Y-121526662D01*
X93097362Y-121553492D01*
X93110737Y-121581770D01*
X93121275Y-121611222D01*
X93128875Y-121641565D01*
X93133465Y-121672507D01*
X93135000Y-121703750D01*
X93135000Y-122341250D01*
X93133465Y-122372493D01*
X93128875Y-122403435D01*
X93121275Y-122433778D01*
X93110737Y-122463230D01*
X93097362Y-122491508D01*
X93081281Y-122518338D01*
X93062647Y-122543463D01*
X93041640Y-122566640D01*
X93018463Y-122587647D01*
X92993338Y-122606281D01*
X92966508Y-122622362D01*
X92938230Y-122635737D01*
X92908778Y-122646275D01*
X92878435Y-122653875D01*
X92847493Y-122658465D01*
X92816250Y-122660000D01*
X92103750Y-122660000D01*
X92072507Y-122658465D01*
X92041565Y-122653875D01*
X92011222Y-122646275D01*
X91981770Y-122635737D01*
X91953492Y-122622362D01*
X91926662Y-122606281D01*
X91901537Y-122587647D01*
X91878360Y-122566640D01*
X91857353Y-122543463D01*
X91838719Y-122518338D01*
X91822638Y-122491508D01*
X91809263Y-122463230D01*
X91798725Y-122433778D01*
X91791125Y-122403435D01*
X91786535Y-122372493D01*
X91785000Y-122341250D01*
X91785000Y-121703750D01*
X91786535Y-121672507D01*
X91791125Y-121641565D01*
X91798725Y-121611222D01*
X91809263Y-121581770D01*
X91822638Y-121553492D01*
X91838719Y-121526662D01*
X91857353Y-121501537D01*
X91878360Y-121478360D01*
X91901537Y-121457353D01*
X91926662Y-121438719D01*
X91953492Y-121422638D01*
X91981770Y-121409263D01*
X92011222Y-121398725D01*
X92041565Y-121391125D01*
X92072507Y-121386535D01*
X92103750Y-121385000D01*
X92816250Y-121385000D01*
X92847493Y-121386535D01*
X92847493Y-121386535D01*
G37*
D23*
X92460000Y-122022500D03*
D10*
G36*
X92847493Y-122961535D02*
G01*
X92878435Y-122966125D01*
X92908778Y-122973725D01*
X92938230Y-122984263D01*
X92966508Y-122997638D01*
X92993338Y-123013719D01*
X93018463Y-123032353D01*
X93041640Y-123053360D01*
X93062647Y-123076537D01*
X93081281Y-123101662D01*
X93097362Y-123128492D01*
X93110737Y-123156770D01*
X93121275Y-123186222D01*
X93128875Y-123216565D01*
X93133465Y-123247507D01*
X93135000Y-123278750D01*
X93135000Y-123916250D01*
X93133465Y-123947493D01*
X93128875Y-123978435D01*
X93121275Y-124008778D01*
X93110737Y-124038230D01*
X93097362Y-124066508D01*
X93081281Y-124093338D01*
X93062647Y-124118463D01*
X93041640Y-124141640D01*
X93018463Y-124162647D01*
X92993338Y-124181281D01*
X92966508Y-124197362D01*
X92938230Y-124210737D01*
X92908778Y-124221275D01*
X92878435Y-124228875D01*
X92847493Y-124233465D01*
X92816250Y-124235000D01*
X92103750Y-124235000D01*
X92072507Y-124233465D01*
X92041565Y-124228875D01*
X92011222Y-124221275D01*
X91981770Y-124210737D01*
X91953492Y-124197362D01*
X91926662Y-124181281D01*
X91901537Y-124162647D01*
X91878360Y-124141640D01*
X91857353Y-124118463D01*
X91838719Y-124093338D01*
X91822638Y-124066508D01*
X91809263Y-124038230D01*
X91798725Y-124008778D01*
X91791125Y-123978435D01*
X91786535Y-123947493D01*
X91785000Y-123916250D01*
X91785000Y-123278750D01*
X91786535Y-123247507D01*
X91791125Y-123216565D01*
X91798725Y-123186222D01*
X91809263Y-123156770D01*
X91822638Y-123128492D01*
X91838719Y-123101662D01*
X91857353Y-123076537D01*
X91878360Y-123053360D01*
X91901537Y-123032353D01*
X91926662Y-123013719D01*
X91953492Y-122997638D01*
X91981770Y-122984263D01*
X92011222Y-122973725D01*
X92041565Y-122966125D01*
X92072507Y-122961535D01*
X92103750Y-122960000D01*
X92816250Y-122960000D01*
X92847493Y-122961535D01*
X92847493Y-122961535D01*
G37*
D23*
X92460000Y-123597500D03*
D10*
G36*
X91097493Y-150696535D02*
G01*
X91128435Y-150701125D01*
X91158778Y-150708725D01*
X91188230Y-150719263D01*
X91216508Y-150732638D01*
X91243338Y-150748719D01*
X91268463Y-150767353D01*
X91291640Y-150788360D01*
X91312647Y-150811537D01*
X91331281Y-150836662D01*
X91347362Y-150863492D01*
X91360737Y-150891770D01*
X91371275Y-150921222D01*
X91378875Y-150951565D01*
X91383465Y-150982507D01*
X91385000Y-151013750D01*
X91385000Y-151726250D01*
X91383465Y-151757493D01*
X91378875Y-151788435D01*
X91371275Y-151818778D01*
X91360737Y-151848230D01*
X91347362Y-151876508D01*
X91331281Y-151903338D01*
X91312647Y-151928463D01*
X91291640Y-151951640D01*
X91268463Y-151972647D01*
X91243338Y-151991281D01*
X91216508Y-152007362D01*
X91188230Y-152020737D01*
X91158778Y-152031275D01*
X91128435Y-152038875D01*
X91097493Y-152043465D01*
X91066250Y-152045000D01*
X90428750Y-152045000D01*
X90397507Y-152043465D01*
X90366565Y-152038875D01*
X90336222Y-152031275D01*
X90306770Y-152020737D01*
X90278492Y-152007362D01*
X90251662Y-151991281D01*
X90226537Y-151972647D01*
X90203360Y-151951640D01*
X90182353Y-151928463D01*
X90163719Y-151903338D01*
X90147638Y-151876508D01*
X90134263Y-151848230D01*
X90123725Y-151818778D01*
X90116125Y-151788435D01*
X90111535Y-151757493D01*
X90110000Y-151726250D01*
X90110000Y-151013750D01*
X90111535Y-150982507D01*
X90116125Y-150951565D01*
X90123725Y-150921222D01*
X90134263Y-150891770D01*
X90147638Y-150863492D01*
X90163719Y-150836662D01*
X90182353Y-150811537D01*
X90203360Y-150788360D01*
X90226537Y-150767353D01*
X90251662Y-150748719D01*
X90278492Y-150732638D01*
X90306770Y-150719263D01*
X90336222Y-150708725D01*
X90366565Y-150701125D01*
X90397507Y-150696535D01*
X90428750Y-150695000D01*
X91066250Y-150695000D01*
X91097493Y-150696535D01*
X91097493Y-150696535D01*
G37*
D23*
X90747500Y-151370000D03*
D10*
G36*
X89522493Y-150696535D02*
G01*
X89553435Y-150701125D01*
X89583778Y-150708725D01*
X89613230Y-150719263D01*
X89641508Y-150732638D01*
X89668338Y-150748719D01*
X89693463Y-150767353D01*
X89716640Y-150788360D01*
X89737647Y-150811537D01*
X89756281Y-150836662D01*
X89772362Y-150863492D01*
X89785737Y-150891770D01*
X89796275Y-150921222D01*
X89803875Y-150951565D01*
X89808465Y-150982507D01*
X89810000Y-151013750D01*
X89810000Y-151726250D01*
X89808465Y-151757493D01*
X89803875Y-151788435D01*
X89796275Y-151818778D01*
X89785737Y-151848230D01*
X89772362Y-151876508D01*
X89756281Y-151903338D01*
X89737647Y-151928463D01*
X89716640Y-151951640D01*
X89693463Y-151972647D01*
X89668338Y-151991281D01*
X89641508Y-152007362D01*
X89613230Y-152020737D01*
X89583778Y-152031275D01*
X89553435Y-152038875D01*
X89522493Y-152043465D01*
X89491250Y-152045000D01*
X88853750Y-152045000D01*
X88822507Y-152043465D01*
X88791565Y-152038875D01*
X88761222Y-152031275D01*
X88731770Y-152020737D01*
X88703492Y-152007362D01*
X88676662Y-151991281D01*
X88651537Y-151972647D01*
X88628360Y-151951640D01*
X88607353Y-151928463D01*
X88588719Y-151903338D01*
X88572638Y-151876508D01*
X88559263Y-151848230D01*
X88548725Y-151818778D01*
X88541125Y-151788435D01*
X88536535Y-151757493D01*
X88535000Y-151726250D01*
X88535000Y-151013750D01*
X88536535Y-150982507D01*
X88541125Y-150951565D01*
X88548725Y-150921222D01*
X88559263Y-150891770D01*
X88572638Y-150863492D01*
X88588719Y-150836662D01*
X88607353Y-150811537D01*
X88628360Y-150788360D01*
X88651537Y-150767353D01*
X88676662Y-150748719D01*
X88703492Y-150732638D01*
X88731770Y-150719263D01*
X88761222Y-150708725D01*
X88791565Y-150701125D01*
X88822507Y-150696535D01*
X88853750Y-150695000D01*
X89491250Y-150695000D01*
X89522493Y-150696535D01*
X89522493Y-150696535D01*
G37*
D23*
X89172500Y-151370000D03*
D10*
G36*
X89717493Y-134451535D02*
G01*
X89748435Y-134456125D01*
X89778778Y-134463725D01*
X89808230Y-134474263D01*
X89836508Y-134487638D01*
X89863338Y-134503719D01*
X89888463Y-134522353D01*
X89911640Y-134543360D01*
X89932647Y-134566537D01*
X89951281Y-134591662D01*
X89967362Y-134618492D01*
X89980737Y-134646770D01*
X89991275Y-134676222D01*
X89998875Y-134706565D01*
X90003465Y-134737507D01*
X90005000Y-134768750D01*
X90005000Y-135406250D01*
X90003465Y-135437493D01*
X89998875Y-135468435D01*
X89991275Y-135498778D01*
X89980737Y-135528230D01*
X89967362Y-135556508D01*
X89951281Y-135583338D01*
X89932647Y-135608463D01*
X89911640Y-135631640D01*
X89888463Y-135652647D01*
X89863338Y-135671281D01*
X89836508Y-135687362D01*
X89808230Y-135700737D01*
X89778778Y-135711275D01*
X89748435Y-135718875D01*
X89717493Y-135723465D01*
X89686250Y-135725000D01*
X88973750Y-135725000D01*
X88942507Y-135723465D01*
X88911565Y-135718875D01*
X88881222Y-135711275D01*
X88851770Y-135700737D01*
X88823492Y-135687362D01*
X88796662Y-135671281D01*
X88771537Y-135652647D01*
X88748360Y-135631640D01*
X88727353Y-135608463D01*
X88708719Y-135583338D01*
X88692638Y-135556508D01*
X88679263Y-135528230D01*
X88668725Y-135498778D01*
X88661125Y-135468435D01*
X88656535Y-135437493D01*
X88655000Y-135406250D01*
X88655000Y-134768750D01*
X88656535Y-134737507D01*
X88661125Y-134706565D01*
X88668725Y-134676222D01*
X88679263Y-134646770D01*
X88692638Y-134618492D01*
X88708719Y-134591662D01*
X88727353Y-134566537D01*
X88748360Y-134543360D01*
X88771537Y-134522353D01*
X88796662Y-134503719D01*
X88823492Y-134487638D01*
X88851770Y-134474263D01*
X88881222Y-134463725D01*
X88911565Y-134456125D01*
X88942507Y-134451535D01*
X88973750Y-134450000D01*
X89686250Y-134450000D01*
X89717493Y-134451535D01*
X89717493Y-134451535D01*
G37*
D23*
X89330000Y-135087500D03*
D10*
G36*
X89717493Y-132876535D02*
G01*
X89748435Y-132881125D01*
X89778778Y-132888725D01*
X89808230Y-132899263D01*
X89836508Y-132912638D01*
X89863338Y-132928719D01*
X89888463Y-132947353D01*
X89911640Y-132968360D01*
X89932647Y-132991537D01*
X89951281Y-133016662D01*
X89967362Y-133043492D01*
X89980737Y-133071770D01*
X89991275Y-133101222D01*
X89998875Y-133131565D01*
X90003465Y-133162507D01*
X90005000Y-133193750D01*
X90005000Y-133831250D01*
X90003465Y-133862493D01*
X89998875Y-133893435D01*
X89991275Y-133923778D01*
X89980737Y-133953230D01*
X89967362Y-133981508D01*
X89951281Y-134008338D01*
X89932647Y-134033463D01*
X89911640Y-134056640D01*
X89888463Y-134077647D01*
X89863338Y-134096281D01*
X89836508Y-134112362D01*
X89808230Y-134125737D01*
X89778778Y-134136275D01*
X89748435Y-134143875D01*
X89717493Y-134148465D01*
X89686250Y-134150000D01*
X88973750Y-134150000D01*
X88942507Y-134148465D01*
X88911565Y-134143875D01*
X88881222Y-134136275D01*
X88851770Y-134125737D01*
X88823492Y-134112362D01*
X88796662Y-134096281D01*
X88771537Y-134077647D01*
X88748360Y-134056640D01*
X88727353Y-134033463D01*
X88708719Y-134008338D01*
X88692638Y-133981508D01*
X88679263Y-133953230D01*
X88668725Y-133923778D01*
X88661125Y-133893435D01*
X88656535Y-133862493D01*
X88655000Y-133831250D01*
X88655000Y-133193750D01*
X88656535Y-133162507D01*
X88661125Y-133131565D01*
X88668725Y-133101222D01*
X88679263Y-133071770D01*
X88692638Y-133043492D01*
X88708719Y-133016662D01*
X88727353Y-132991537D01*
X88748360Y-132968360D01*
X88771537Y-132947353D01*
X88796662Y-132928719D01*
X88823492Y-132912638D01*
X88851770Y-132899263D01*
X88881222Y-132888725D01*
X88911565Y-132881125D01*
X88942507Y-132876535D01*
X88973750Y-132875000D01*
X89686250Y-132875000D01*
X89717493Y-132876535D01*
X89717493Y-132876535D01*
G37*
D23*
X89330000Y-133512500D03*
D10*
G36*
X87807493Y-132876535D02*
G01*
X87838435Y-132881125D01*
X87868778Y-132888725D01*
X87898230Y-132899263D01*
X87926508Y-132912638D01*
X87953338Y-132928719D01*
X87978463Y-132947353D01*
X88001640Y-132968360D01*
X88022647Y-132991537D01*
X88041281Y-133016662D01*
X88057362Y-133043492D01*
X88070737Y-133071770D01*
X88081275Y-133101222D01*
X88088875Y-133131565D01*
X88093465Y-133162507D01*
X88095000Y-133193750D01*
X88095000Y-133831250D01*
X88093465Y-133862493D01*
X88088875Y-133893435D01*
X88081275Y-133923778D01*
X88070737Y-133953230D01*
X88057362Y-133981508D01*
X88041281Y-134008338D01*
X88022647Y-134033463D01*
X88001640Y-134056640D01*
X87978463Y-134077647D01*
X87953338Y-134096281D01*
X87926508Y-134112362D01*
X87898230Y-134125737D01*
X87868778Y-134136275D01*
X87838435Y-134143875D01*
X87807493Y-134148465D01*
X87776250Y-134150000D01*
X87063750Y-134150000D01*
X87032507Y-134148465D01*
X87001565Y-134143875D01*
X86971222Y-134136275D01*
X86941770Y-134125737D01*
X86913492Y-134112362D01*
X86886662Y-134096281D01*
X86861537Y-134077647D01*
X86838360Y-134056640D01*
X86817353Y-134033463D01*
X86798719Y-134008338D01*
X86782638Y-133981508D01*
X86769263Y-133953230D01*
X86758725Y-133923778D01*
X86751125Y-133893435D01*
X86746535Y-133862493D01*
X86745000Y-133831250D01*
X86745000Y-133193750D01*
X86746535Y-133162507D01*
X86751125Y-133131565D01*
X86758725Y-133101222D01*
X86769263Y-133071770D01*
X86782638Y-133043492D01*
X86798719Y-133016662D01*
X86817353Y-132991537D01*
X86838360Y-132968360D01*
X86861537Y-132947353D01*
X86886662Y-132928719D01*
X86913492Y-132912638D01*
X86941770Y-132899263D01*
X86971222Y-132888725D01*
X87001565Y-132881125D01*
X87032507Y-132876535D01*
X87063750Y-132875000D01*
X87776250Y-132875000D01*
X87807493Y-132876535D01*
X87807493Y-132876535D01*
G37*
D23*
X87420000Y-133512500D03*
D10*
G36*
X87807493Y-134451535D02*
G01*
X87838435Y-134456125D01*
X87868778Y-134463725D01*
X87898230Y-134474263D01*
X87926508Y-134487638D01*
X87953338Y-134503719D01*
X87978463Y-134522353D01*
X88001640Y-134543360D01*
X88022647Y-134566537D01*
X88041281Y-134591662D01*
X88057362Y-134618492D01*
X88070737Y-134646770D01*
X88081275Y-134676222D01*
X88088875Y-134706565D01*
X88093465Y-134737507D01*
X88095000Y-134768750D01*
X88095000Y-135406250D01*
X88093465Y-135437493D01*
X88088875Y-135468435D01*
X88081275Y-135498778D01*
X88070737Y-135528230D01*
X88057362Y-135556508D01*
X88041281Y-135583338D01*
X88022647Y-135608463D01*
X88001640Y-135631640D01*
X87978463Y-135652647D01*
X87953338Y-135671281D01*
X87926508Y-135687362D01*
X87898230Y-135700737D01*
X87868778Y-135711275D01*
X87838435Y-135718875D01*
X87807493Y-135723465D01*
X87776250Y-135725000D01*
X87063750Y-135725000D01*
X87032507Y-135723465D01*
X87001565Y-135718875D01*
X86971222Y-135711275D01*
X86941770Y-135700737D01*
X86913492Y-135687362D01*
X86886662Y-135671281D01*
X86861537Y-135652647D01*
X86838360Y-135631640D01*
X86817353Y-135608463D01*
X86798719Y-135583338D01*
X86782638Y-135556508D01*
X86769263Y-135528230D01*
X86758725Y-135498778D01*
X86751125Y-135468435D01*
X86746535Y-135437493D01*
X86745000Y-135406250D01*
X86745000Y-134768750D01*
X86746535Y-134737507D01*
X86751125Y-134706565D01*
X86758725Y-134676222D01*
X86769263Y-134646770D01*
X86782638Y-134618492D01*
X86798719Y-134591662D01*
X86817353Y-134566537D01*
X86838360Y-134543360D01*
X86861537Y-134522353D01*
X86886662Y-134503719D01*
X86913492Y-134487638D01*
X86941770Y-134474263D01*
X86971222Y-134463725D01*
X87001565Y-134456125D01*
X87032507Y-134451535D01*
X87063750Y-134450000D01*
X87776250Y-134450000D01*
X87807493Y-134451535D01*
X87807493Y-134451535D01*
G37*
D23*
X87420000Y-135087500D03*
D10*
G36*
X115247493Y-104606535D02*
G01*
X115278435Y-104611125D01*
X115308778Y-104618725D01*
X115338230Y-104629263D01*
X115366508Y-104642638D01*
X115393338Y-104658719D01*
X115418463Y-104677353D01*
X115441640Y-104698360D01*
X115462647Y-104721537D01*
X115481281Y-104746662D01*
X115497362Y-104773492D01*
X115510737Y-104801770D01*
X115521275Y-104831222D01*
X115528875Y-104861565D01*
X115533465Y-104892507D01*
X115535000Y-104923750D01*
X115535000Y-105561250D01*
X115533465Y-105592493D01*
X115528875Y-105623435D01*
X115521275Y-105653778D01*
X115510737Y-105683230D01*
X115497362Y-105711508D01*
X115481281Y-105738338D01*
X115462647Y-105763463D01*
X115441640Y-105786640D01*
X115418463Y-105807647D01*
X115393338Y-105826281D01*
X115366508Y-105842362D01*
X115338230Y-105855737D01*
X115308778Y-105866275D01*
X115278435Y-105873875D01*
X115247493Y-105878465D01*
X115216250Y-105880000D01*
X114503750Y-105880000D01*
X114472507Y-105878465D01*
X114441565Y-105873875D01*
X114411222Y-105866275D01*
X114381770Y-105855737D01*
X114353492Y-105842362D01*
X114326662Y-105826281D01*
X114301537Y-105807647D01*
X114278360Y-105786640D01*
X114257353Y-105763463D01*
X114238719Y-105738338D01*
X114222638Y-105711508D01*
X114209263Y-105683230D01*
X114198725Y-105653778D01*
X114191125Y-105623435D01*
X114186535Y-105592493D01*
X114185000Y-105561250D01*
X114185000Y-104923750D01*
X114186535Y-104892507D01*
X114191125Y-104861565D01*
X114198725Y-104831222D01*
X114209263Y-104801770D01*
X114222638Y-104773492D01*
X114238719Y-104746662D01*
X114257353Y-104721537D01*
X114278360Y-104698360D01*
X114301537Y-104677353D01*
X114326662Y-104658719D01*
X114353492Y-104642638D01*
X114381770Y-104629263D01*
X114411222Y-104618725D01*
X114441565Y-104611125D01*
X114472507Y-104606535D01*
X114503750Y-104605000D01*
X115216250Y-104605000D01*
X115247493Y-104606535D01*
X115247493Y-104606535D01*
G37*
D23*
X114860000Y-105242500D03*
D10*
G36*
X115247493Y-106181535D02*
G01*
X115278435Y-106186125D01*
X115308778Y-106193725D01*
X115338230Y-106204263D01*
X115366508Y-106217638D01*
X115393338Y-106233719D01*
X115418463Y-106252353D01*
X115441640Y-106273360D01*
X115462647Y-106296537D01*
X115481281Y-106321662D01*
X115497362Y-106348492D01*
X115510737Y-106376770D01*
X115521275Y-106406222D01*
X115528875Y-106436565D01*
X115533465Y-106467507D01*
X115535000Y-106498750D01*
X115535000Y-107136250D01*
X115533465Y-107167493D01*
X115528875Y-107198435D01*
X115521275Y-107228778D01*
X115510737Y-107258230D01*
X115497362Y-107286508D01*
X115481281Y-107313338D01*
X115462647Y-107338463D01*
X115441640Y-107361640D01*
X115418463Y-107382647D01*
X115393338Y-107401281D01*
X115366508Y-107417362D01*
X115338230Y-107430737D01*
X115308778Y-107441275D01*
X115278435Y-107448875D01*
X115247493Y-107453465D01*
X115216250Y-107455000D01*
X114503750Y-107455000D01*
X114472507Y-107453465D01*
X114441565Y-107448875D01*
X114411222Y-107441275D01*
X114381770Y-107430737D01*
X114353492Y-107417362D01*
X114326662Y-107401281D01*
X114301537Y-107382647D01*
X114278360Y-107361640D01*
X114257353Y-107338463D01*
X114238719Y-107313338D01*
X114222638Y-107286508D01*
X114209263Y-107258230D01*
X114198725Y-107228778D01*
X114191125Y-107198435D01*
X114186535Y-107167493D01*
X114185000Y-107136250D01*
X114185000Y-106498750D01*
X114186535Y-106467507D01*
X114191125Y-106436565D01*
X114198725Y-106406222D01*
X114209263Y-106376770D01*
X114222638Y-106348492D01*
X114238719Y-106321662D01*
X114257353Y-106296537D01*
X114278360Y-106273360D01*
X114301537Y-106252353D01*
X114326662Y-106233719D01*
X114353492Y-106217638D01*
X114381770Y-106204263D01*
X114411222Y-106193725D01*
X114441565Y-106186125D01*
X114472507Y-106181535D01*
X114503750Y-106180000D01*
X115216250Y-106180000D01*
X115247493Y-106181535D01*
X115247493Y-106181535D01*
G37*
D23*
X114860000Y-106817500D03*
D10*
G36*
X115257493Y-109271535D02*
G01*
X115288435Y-109276125D01*
X115318778Y-109283725D01*
X115348230Y-109294263D01*
X115376508Y-109307638D01*
X115403338Y-109323719D01*
X115428463Y-109342353D01*
X115451640Y-109363360D01*
X115472647Y-109386537D01*
X115491281Y-109411662D01*
X115507362Y-109438492D01*
X115520737Y-109466770D01*
X115531275Y-109496222D01*
X115538875Y-109526565D01*
X115543465Y-109557507D01*
X115545000Y-109588750D01*
X115545000Y-110226250D01*
X115543465Y-110257493D01*
X115538875Y-110288435D01*
X115531275Y-110318778D01*
X115520737Y-110348230D01*
X115507362Y-110376508D01*
X115491281Y-110403338D01*
X115472647Y-110428463D01*
X115451640Y-110451640D01*
X115428463Y-110472647D01*
X115403338Y-110491281D01*
X115376508Y-110507362D01*
X115348230Y-110520737D01*
X115318778Y-110531275D01*
X115288435Y-110538875D01*
X115257493Y-110543465D01*
X115226250Y-110545000D01*
X114513750Y-110545000D01*
X114482507Y-110543465D01*
X114451565Y-110538875D01*
X114421222Y-110531275D01*
X114391770Y-110520737D01*
X114363492Y-110507362D01*
X114336662Y-110491281D01*
X114311537Y-110472647D01*
X114288360Y-110451640D01*
X114267353Y-110428463D01*
X114248719Y-110403338D01*
X114232638Y-110376508D01*
X114219263Y-110348230D01*
X114208725Y-110318778D01*
X114201125Y-110288435D01*
X114196535Y-110257493D01*
X114195000Y-110226250D01*
X114195000Y-109588750D01*
X114196535Y-109557507D01*
X114201125Y-109526565D01*
X114208725Y-109496222D01*
X114219263Y-109466770D01*
X114232638Y-109438492D01*
X114248719Y-109411662D01*
X114267353Y-109386537D01*
X114288360Y-109363360D01*
X114311537Y-109342353D01*
X114336662Y-109323719D01*
X114363492Y-109307638D01*
X114391770Y-109294263D01*
X114421222Y-109283725D01*
X114451565Y-109276125D01*
X114482507Y-109271535D01*
X114513750Y-109270000D01*
X115226250Y-109270000D01*
X115257493Y-109271535D01*
X115257493Y-109271535D01*
G37*
D23*
X114870000Y-109907500D03*
D10*
G36*
X115257493Y-107696535D02*
G01*
X115288435Y-107701125D01*
X115318778Y-107708725D01*
X115348230Y-107719263D01*
X115376508Y-107732638D01*
X115403338Y-107748719D01*
X115428463Y-107767353D01*
X115451640Y-107788360D01*
X115472647Y-107811537D01*
X115491281Y-107836662D01*
X115507362Y-107863492D01*
X115520737Y-107891770D01*
X115531275Y-107921222D01*
X115538875Y-107951565D01*
X115543465Y-107982507D01*
X115545000Y-108013750D01*
X115545000Y-108651250D01*
X115543465Y-108682493D01*
X115538875Y-108713435D01*
X115531275Y-108743778D01*
X115520737Y-108773230D01*
X115507362Y-108801508D01*
X115491281Y-108828338D01*
X115472647Y-108853463D01*
X115451640Y-108876640D01*
X115428463Y-108897647D01*
X115403338Y-108916281D01*
X115376508Y-108932362D01*
X115348230Y-108945737D01*
X115318778Y-108956275D01*
X115288435Y-108963875D01*
X115257493Y-108968465D01*
X115226250Y-108970000D01*
X114513750Y-108970000D01*
X114482507Y-108968465D01*
X114451565Y-108963875D01*
X114421222Y-108956275D01*
X114391770Y-108945737D01*
X114363492Y-108932362D01*
X114336662Y-108916281D01*
X114311537Y-108897647D01*
X114288360Y-108876640D01*
X114267353Y-108853463D01*
X114248719Y-108828338D01*
X114232638Y-108801508D01*
X114219263Y-108773230D01*
X114208725Y-108743778D01*
X114201125Y-108713435D01*
X114196535Y-108682493D01*
X114195000Y-108651250D01*
X114195000Y-108013750D01*
X114196535Y-107982507D01*
X114201125Y-107951565D01*
X114208725Y-107921222D01*
X114219263Y-107891770D01*
X114232638Y-107863492D01*
X114248719Y-107836662D01*
X114267353Y-107811537D01*
X114288360Y-107788360D01*
X114311537Y-107767353D01*
X114336662Y-107748719D01*
X114363492Y-107732638D01*
X114391770Y-107719263D01*
X114421222Y-107708725D01*
X114451565Y-107701125D01*
X114482507Y-107696535D01*
X114513750Y-107695000D01*
X115226250Y-107695000D01*
X115257493Y-107696535D01*
X115257493Y-107696535D01*
G37*
D23*
X114870000Y-108332500D03*
D10*
G36*
X114887493Y-121376535D02*
G01*
X114918435Y-121381125D01*
X114948778Y-121388725D01*
X114978230Y-121399263D01*
X115006508Y-121412638D01*
X115033338Y-121428719D01*
X115058463Y-121447353D01*
X115081640Y-121468360D01*
X115102647Y-121491537D01*
X115121281Y-121516662D01*
X115137362Y-121543492D01*
X115150737Y-121571770D01*
X115161275Y-121601222D01*
X115168875Y-121631565D01*
X115173465Y-121662507D01*
X115175000Y-121693750D01*
X115175000Y-122331250D01*
X115173465Y-122362493D01*
X115168875Y-122393435D01*
X115161275Y-122423778D01*
X115150737Y-122453230D01*
X115137362Y-122481508D01*
X115121281Y-122508338D01*
X115102647Y-122533463D01*
X115081640Y-122556640D01*
X115058463Y-122577647D01*
X115033338Y-122596281D01*
X115006508Y-122612362D01*
X114978230Y-122625737D01*
X114948778Y-122636275D01*
X114918435Y-122643875D01*
X114887493Y-122648465D01*
X114856250Y-122650000D01*
X114143750Y-122650000D01*
X114112507Y-122648465D01*
X114081565Y-122643875D01*
X114051222Y-122636275D01*
X114021770Y-122625737D01*
X113993492Y-122612362D01*
X113966662Y-122596281D01*
X113941537Y-122577647D01*
X113918360Y-122556640D01*
X113897353Y-122533463D01*
X113878719Y-122508338D01*
X113862638Y-122481508D01*
X113849263Y-122453230D01*
X113838725Y-122423778D01*
X113831125Y-122393435D01*
X113826535Y-122362493D01*
X113825000Y-122331250D01*
X113825000Y-121693750D01*
X113826535Y-121662507D01*
X113831125Y-121631565D01*
X113838725Y-121601222D01*
X113849263Y-121571770D01*
X113862638Y-121543492D01*
X113878719Y-121516662D01*
X113897353Y-121491537D01*
X113918360Y-121468360D01*
X113941537Y-121447353D01*
X113966662Y-121428719D01*
X113993492Y-121412638D01*
X114021770Y-121399263D01*
X114051222Y-121388725D01*
X114081565Y-121381125D01*
X114112507Y-121376535D01*
X114143750Y-121375000D01*
X114856250Y-121375000D01*
X114887493Y-121376535D01*
X114887493Y-121376535D01*
G37*
D23*
X114500000Y-122012500D03*
D10*
G36*
X114887493Y-122951535D02*
G01*
X114918435Y-122956125D01*
X114948778Y-122963725D01*
X114978230Y-122974263D01*
X115006508Y-122987638D01*
X115033338Y-123003719D01*
X115058463Y-123022353D01*
X115081640Y-123043360D01*
X115102647Y-123066537D01*
X115121281Y-123091662D01*
X115137362Y-123118492D01*
X115150737Y-123146770D01*
X115161275Y-123176222D01*
X115168875Y-123206565D01*
X115173465Y-123237507D01*
X115175000Y-123268750D01*
X115175000Y-123906250D01*
X115173465Y-123937493D01*
X115168875Y-123968435D01*
X115161275Y-123998778D01*
X115150737Y-124028230D01*
X115137362Y-124056508D01*
X115121281Y-124083338D01*
X115102647Y-124108463D01*
X115081640Y-124131640D01*
X115058463Y-124152647D01*
X115033338Y-124171281D01*
X115006508Y-124187362D01*
X114978230Y-124200737D01*
X114948778Y-124211275D01*
X114918435Y-124218875D01*
X114887493Y-124223465D01*
X114856250Y-124225000D01*
X114143750Y-124225000D01*
X114112507Y-124223465D01*
X114081565Y-124218875D01*
X114051222Y-124211275D01*
X114021770Y-124200737D01*
X113993492Y-124187362D01*
X113966662Y-124171281D01*
X113941537Y-124152647D01*
X113918360Y-124131640D01*
X113897353Y-124108463D01*
X113878719Y-124083338D01*
X113862638Y-124056508D01*
X113849263Y-124028230D01*
X113838725Y-123998778D01*
X113831125Y-123968435D01*
X113826535Y-123937493D01*
X113825000Y-123906250D01*
X113825000Y-123268750D01*
X113826535Y-123237507D01*
X113831125Y-123206565D01*
X113838725Y-123176222D01*
X113849263Y-123146770D01*
X113862638Y-123118492D01*
X113878719Y-123091662D01*
X113897353Y-123066537D01*
X113918360Y-123043360D01*
X113941537Y-123022353D01*
X113966662Y-123003719D01*
X113993492Y-122987638D01*
X114021770Y-122974263D01*
X114051222Y-122963725D01*
X114081565Y-122956125D01*
X114112507Y-122951535D01*
X114143750Y-122950000D01*
X114856250Y-122950000D01*
X114887493Y-122951535D01*
X114887493Y-122951535D01*
G37*
D23*
X114500000Y-123587500D03*
D10*
G36*
X116632493Y-150636535D02*
G01*
X116663435Y-150641125D01*
X116693778Y-150648725D01*
X116723230Y-150659263D01*
X116751508Y-150672638D01*
X116778338Y-150688719D01*
X116803463Y-150707353D01*
X116826640Y-150728360D01*
X116847647Y-150751537D01*
X116866281Y-150776662D01*
X116882362Y-150803492D01*
X116895737Y-150831770D01*
X116906275Y-150861222D01*
X116913875Y-150891565D01*
X116918465Y-150922507D01*
X116920000Y-150953750D01*
X116920000Y-151666250D01*
X116918465Y-151697493D01*
X116913875Y-151728435D01*
X116906275Y-151758778D01*
X116895737Y-151788230D01*
X116882362Y-151816508D01*
X116866281Y-151843338D01*
X116847647Y-151868463D01*
X116826640Y-151891640D01*
X116803463Y-151912647D01*
X116778338Y-151931281D01*
X116751508Y-151947362D01*
X116723230Y-151960737D01*
X116693778Y-151971275D01*
X116663435Y-151978875D01*
X116632493Y-151983465D01*
X116601250Y-151985000D01*
X115963750Y-151985000D01*
X115932507Y-151983465D01*
X115901565Y-151978875D01*
X115871222Y-151971275D01*
X115841770Y-151960737D01*
X115813492Y-151947362D01*
X115786662Y-151931281D01*
X115761537Y-151912647D01*
X115738360Y-151891640D01*
X115717353Y-151868463D01*
X115698719Y-151843338D01*
X115682638Y-151816508D01*
X115669263Y-151788230D01*
X115658725Y-151758778D01*
X115651125Y-151728435D01*
X115646535Y-151697493D01*
X115645000Y-151666250D01*
X115645000Y-150953750D01*
X115646535Y-150922507D01*
X115651125Y-150891565D01*
X115658725Y-150861222D01*
X115669263Y-150831770D01*
X115682638Y-150803492D01*
X115698719Y-150776662D01*
X115717353Y-150751537D01*
X115738360Y-150728360D01*
X115761537Y-150707353D01*
X115786662Y-150688719D01*
X115813492Y-150672638D01*
X115841770Y-150659263D01*
X115871222Y-150648725D01*
X115901565Y-150641125D01*
X115932507Y-150636535D01*
X115963750Y-150635000D01*
X116601250Y-150635000D01*
X116632493Y-150636535D01*
X116632493Y-150636535D01*
G37*
D23*
X116282500Y-151310000D03*
D10*
G36*
X118207493Y-150636535D02*
G01*
X118238435Y-150641125D01*
X118268778Y-150648725D01*
X118298230Y-150659263D01*
X118326508Y-150672638D01*
X118353338Y-150688719D01*
X118378463Y-150707353D01*
X118401640Y-150728360D01*
X118422647Y-150751537D01*
X118441281Y-150776662D01*
X118457362Y-150803492D01*
X118470737Y-150831770D01*
X118481275Y-150861222D01*
X118488875Y-150891565D01*
X118493465Y-150922507D01*
X118495000Y-150953750D01*
X118495000Y-151666250D01*
X118493465Y-151697493D01*
X118488875Y-151728435D01*
X118481275Y-151758778D01*
X118470737Y-151788230D01*
X118457362Y-151816508D01*
X118441281Y-151843338D01*
X118422647Y-151868463D01*
X118401640Y-151891640D01*
X118378463Y-151912647D01*
X118353338Y-151931281D01*
X118326508Y-151947362D01*
X118298230Y-151960737D01*
X118268778Y-151971275D01*
X118238435Y-151978875D01*
X118207493Y-151983465D01*
X118176250Y-151985000D01*
X117538750Y-151985000D01*
X117507507Y-151983465D01*
X117476565Y-151978875D01*
X117446222Y-151971275D01*
X117416770Y-151960737D01*
X117388492Y-151947362D01*
X117361662Y-151931281D01*
X117336537Y-151912647D01*
X117313360Y-151891640D01*
X117292353Y-151868463D01*
X117273719Y-151843338D01*
X117257638Y-151816508D01*
X117244263Y-151788230D01*
X117233725Y-151758778D01*
X117226125Y-151728435D01*
X117221535Y-151697493D01*
X117220000Y-151666250D01*
X117220000Y-150953750D01*
X117221535Y-150922507D01*
X117226125Y-150891565D01*
X117233725Y-150861222D01*
X117244263Y-150831770D01*
X117257638Y-150803492D01*
X117273719Y-150776662D01*
X117292353Y-150751537D01*
X117313360Y-150728360D01*
X117336537Y-150707353D01*
X117361662Y-150688719D01*
X117388492Y-150672638D01*
X117416770Y-150659263D01*
X117446222Y-150648725D01*
X117476565Y-150641125D01*
X117507507Y-150636535D01*
X117538750Y-150635000D01*
X118176250Y-150635000D01*
X118207493Y-150636535D01*
X118207493Y-150636535D01*
G37*
D23*
X117857500Y-151310000D03*
D10*
G36*
X118067493Y-134431535D02*
G01*
X118098435Y-134436125D01*
X118128778Y-134443725D01*
X118158230Y-134454263D01*
X118186508Y-134467638D01*
X118213338Y-134483719D01*
X118238463Y-134502353D01*
X118261640Y-134523360D01*
X118282647Y-134546537D01*
X118301281Y-134571662D01*
X118317362Y-134598492D01*
X118330737Y-134626770D01*
X118341275Y-134656222D01*
X118348875Y-134686565D01*
X118353465Y-134717507D01*
X118355000Y-134748750D01*
X118355000Y-135386250D01*
X118353465Y-135417493D01*
X118348875Y-135448435D01*
X118341275Y-135478778D01*
X118330737Y-135508230D01*
X118317362Y-135536508D01*
X118301281Y-135563338D01*
X118282647Y-135588463D01*
X118261640Y-135611640D01*
X118238463Y-135632647D01*
X118213338Y-135651281D01*
X118186508Y-135667362D01*
X118158230Y-135680737D01*
X118128778Y-135691275D01*
X118098435Y-135698875D01*
X118067493Y-135703465D01*
X118036250Y-135705000D01*
X117323750Y-135705000D01*
X117292507Y-135703465D01*
X117261565Y-135698875D01*
X117231222Y-135691275D01*
X117201770Y-135680737D01*
X117173492Y-135667362D01*
X117146662Y-135651281D01*
X117121537Y-135632647D01*
X117098360Y-135611640D01*
X117077353Y-135588463D01*
X117058719Y-135563338D01*
X117042638Y-135536508D01*
X117029263Y-135508230D01*
X117018725Y-135478778D01*
X117011125Y-135448435D01*
X117006535Y-135417493D01*
X117005000Y-135386250D01*
X117005000Y-134748750D01*
X117006535Y-134717507D01*
X117011125Y-134686565D01*
X117018725Y-134656222D01*
X117029263Y-134626770D01*
X117042638Y-134598492D01*
X117058719Y-134571662D01*
X117077353Y-134546537D01*
X117098360Y-134523360D01*
X117121537Y-134502353D01*
X117146662Y-134483719D01*
X117173492Y-134467638D01*
X117201770Y-134454263D01*
X117231222Y-134443725D01*
X117261565Y-134436125D01*
X117292507Y-134431535D01*
X117323750Y-134430000D01*
X118036250Y-134430000D01*
X118067493Y-134431535D01*
X118067493Y-134431535D01*
G37*
D23*
X117680000Y-135067500D03*
D10*
G36*
X118067493Y-132856535D02*
G01*
X118098435Y-132861125D01*
X118128778Y-132868725D01*
X118158230Y-132879263D01*
X118186508Y-132892638D01*
X118213338Y-132908719D01*
X118238463Y-132927353D01*
X118261640Y-132948360D01*
X118282647Y-132971537D01*
X118301281Y-132996662D01*
X118317362Y-133023492D01*
X118330737Y-133051770D01*
X118341275Y-133081222D01*
X118348875Y-133111565D01*
X118353465Y-133142507D01*
X118355000Y-133173750D01*
X118355000Y-133811250D01*
X118353465Y-133842493D01*
X118348875Y-133873435D01*
X118341275Y-133903778D01*
X118330737Y-133933230D01*
X118317362Y-133961508D01*
X118301281Y-133988338D01*
X118282647Y-134013463D01*
X118261640Y-134036640D01*
X118238463Y-134057647D01*
X118213338Y-134076281D01*
X118186508Y-134092362D01*
X118158230Y-134105737D01*
X118128778Y-134116275D01*
X118098435Y-134123875D01*
X118067493Y-134128465D01*
X118036250Y-134130000D01*
X117323750Y-134130000D01*
X117292507Y-134128465D01*
X117261565Y-134123875D01*
X117231222Y-134116275D01*
X117201770Y-134105737D01*
X117173492Y-134092362D01*
X117146662Y-134076281D01*
X117121537Y-134057647D01*
X117098360Y-134036640D01*
X117077353Y-134013463D01*
X117058719Y-133988338D01*
X117042638Y-133961508D01*
X117029263Y-133933230D01*
X117018725Y-133903778D01*
X117011125Y-133873435D01*
X117006535Y-133842493D01*
X117005000Y-133811250D01*
X117005000Y-133173750D01*
X117006535Y-133142507D01*
X117011125Y-133111565D01*
X117018725Y-133081222D01*
X117029263Y-133051770D01*
X117042638Y-133023492D01*
X117058719Y-132996662D01*
X117077353Y-132971537D01*
X117098360Y-132948360D01*
X117121537Y-132927353D01*
X117146662Y-132908719D01*
X117173492Y-132892638D01*
X117201770Y-132879263D01*
X117231222Y-132868725D01*
X117261565Y-132861125D01*
X117292507Y-132856535D01*
X117323750Y-132855000D01*
X118036250Y-132855000D01*
X118067493Y-132856535D01*
X118067493Y-132856535D01*
G37*
D23*
X117680000Y-133492500D03*
D10*
G36*
X120057493Y-132846535D02*
G01*
X120088435Y-132851125D01*
X120118778Y-132858725D01*
X120148230Y-132869263D01*
X120176508Y-132882638D01*
X120203338Y-132898719D01*
X120228463Y-132917353D01*
X120251640Y-132938360D01*
X120272647Y-132961537D01*
X120291281Y-132986662D01*
X120307362Y-133013492D01*
X120320737Y-133041770D01*
X120331275Y-133071222D01*
X120338875Y-133101565D01*
X120343465Y-133132507D01*
X120345000Y-133163750D01*
X120345000Y-133801250D01*
X120343465Y-133832493D01*
X120338875Y-133863435D01*
X120331275Y-133893778D01*
X120320737Y-133923230D01*
X120307362Y-133951508D01*
X120291281Y-133978338D01*
X120272647Y-134003463D01*
X120251640Y-134026640D01*
X120228463Y-134047647D01*
X120203338Y-134066281D01*
X120176508Y-134082362D01*
X120148230Y-134095737D01*
X120118778Y-134106275D01*
X120088435Y-134113875D01*
X120057493Y-134118465D01*
X120026250Y-134120000D01*
X119313750Y-134120000D01*
X119282507Y-134118465D01*
X119251565Y-134113875D01*
X119221222Y-134106275D01*
X119191770Y-134095737D01*
X119163492Y-134082362D01*
X119136662Y-134066281D01*
X119111537Y-134047647D01*
X119088360Y-134026640D01*
X119067353Y-134003463D01*
X119048719Y-133978338D01*
X119032638Y-133951508D01*
X119019263Y-133923230D01*
X119008725Y-133893778D01*
X119001125Y-133863435D01*
X118996535Y-133832493D01*
X118995000Y-133801250D01*
X118995000Y-133163750D01*
X118996535Y-133132507D01*
X119001125Y-133101565D01*
X119008725Y-133071222D01*
X119019263Y-133041770D01*
X119032638Y-133013492D01*
X119048719Y-132986662D01*
X119067353Y-132961537D01*
X119088360Y-132938360D01*
X119111537Y-132917353D01*
X119136662Y-132898719D01*
X119163492Y-132882638D01*
X119191770Y-132869263D01*
X119221222Y-132858725D01*
X119251565Y-132851125D01*
X119282507Y-132846535D01*
X119313750Y-132845000D01*
X120026250Y-132845000D01*
X120057493Y-132846535D01*
X120057493Y-132846535D01*
G37*
D23*
X119670000Y-133482500D03*
D10*
G36*
X120057493Y-134421535D02*
G01*
X120088435Y-134426125D01*
X120118778Y-134433725D01*
X120148230Y-134444263D01*
X120176508Y-134457638D01*
X120203338Y-134473719D01*
X120228463Y-134492353D01*
X120251640Y-134513360D01*
X120272647Y-134536537D01*
X120291281Y-134561662D01*
X120307362Y-134588492D01*
X120320737Y-134616770D01*
X120331275Y-134646222D01*
X120338875Y-134676565D01*
X120343465Y-134707507D01*
X120345000Y-134738750D01*
X120345000Y-135376250D01*
X120343465Y-135407493D01*
X120338875Y-135438435D01*
X120331275Y-135468778D01*
X120320737Y-135498230D01*
X120307362Y-135526508D01*
X120291281Y-135553338D01*
X120272647Y-135578463D01*
X120251640Y-135601640D01*
X120228463Y-135622647D01*
X120203338Y-135641281D01*
X120176508Y-135657362D01*
X120148230Y-135670737D01*
X120118778Y-135681275D01*
X120088435Y-135688875D01*
X120057493Y-135693465D01*
X120026250Y-135695000D01*
X119313750Y-135695000D01*
X119282507Y-135693465D01*
X119251565Y-135688875D01*
X119221222Y-135681275D01*
X119191770Y-135670737D01*
X119163492Y-135657362D01*
X119136662Y-135641281D01*
X119111537Y-135622647D01*
X119088360Y-135601640D01*
X119067353Y-135578463D01*
X119048719Y-135553338D01*
X119032638Y-135526508D01*
X119019263Y-135498230D01*
X119008725Y-135468778D01*
X119001125Y-135438435D01*
X118996535Y-135407493D01*
X118995000Y-135376250D01*
X118995000Y-134738750D01*
X118996535Y-134707507D01*
X119001125Y-134676565D01*
X119008725Y-134646222D01*
X119019263Y-134616770D01*
X119032638Y-134588492D01*
X119048719Y-134561662D01*
X119067353Y-134536537D01*
X119088360Y-134513360D01*
X119111537Y-134492353D01*
X119136662Y-134473719D01*
X119163492Y-134457638D01*
X119191770Y-134444263D01*
X119221222Y-134433725D01*
X119251565Y-134426125D01*
X119282507Y-134421535D01*
X119313750Y-134420000D01*
X120026250Y-134420000D01*
X120057493Y-134421535D01*
X120057493Y-134421535D01*
G37*
D23*
X119670000Y-135057500D03*
D10*
G36*
X120547493Y-90336535D02*
G01*
X120578435Y-90341125D01*
X120608778Y-90348725D01*
X120638230Y-90359263D01*
X120666508Y-90372638D01*
X120693338Y-90388719D01*
X120718463Y-90407353D01*
X120741640Y-90428360D01*
X120762647Y-90451537D01*
X120781281Y-90476662D01*
X120797362Y-90503492D01*
X120810737Y-90531770D01*
X120821275Y-90561222D01*
X120828875Y-90591565D01*
X120833465Y-90622507D01*
X120835000Y-90653750D01*
X120835000Y-91291250D01*
X120833465Y-91322493D01*
X120828875Y-91353435D01*
X120821275Y-91383778D01*
X120810737Y-91413230D01*
X120797362Y-91441508D01*
X120781281Y-91468338D01*
X120762647Y-91493463D01*
X120741640Y-91516640D01*
X120718463Y-91537647D01*
X120693338Y-91556281D01*
X120666508Y-91572362D01*
X120638230Y-91585737D01*
X120608778Y-91596275D01*
X120578435Y-91603875D01*
X120547493Y-91608465D01*
X120516250Y-91610000D01*
X119803750Y-91610000D01*
X119772507Y-91608465D01*
X119741565Y-91603875D01*
X119711222Y-91596275D01*
X119681770Y-91585737D01*
X119653492Y-91572362D01*
X119626662Y-91556281D01*
X119601537Y-91537647D01*
X119578360Y-91516640D01*
X119557353Y-91493463D01*
X119538719Y-91468338D01*
X119522638Y-91441508D01*
X119509263Y-91413230D01*
X119498725Y-91383778D01*
X119491125Y-91353435D01*
X119486535Y-91322493D01*
X119485000Y-91291250D01*
X119485000Y-90653750D01*
X119486535Y-90622507D01*
X119491125Y-90591565D01*
X119498725Y-90561222D01*
X119509263Y-90531770D01*
X119522638Y-90503492D01*
X119538719Y-90476662D01*
X119557353Y-90451537D01*
X119578360Y-90428360D01*
X119601537Y-90407353D01*
X119626662Y-90388719D01*
X119653492Y-90372638D01*
X119681770Y-90359263D01*
X119711222Y-90348725D01*
X119741565Y-90341125D01*
X119772507Y-90336535D01*
X119803750Y-90335000D01*
X120516250Y-90335000D01*
X120547493Y-90336535D01*
X120547493Y-90336535D01*
G37*
D23*
X120160000Y-90972500D03*
D10*
G36*
X120547493Y-91911535D02*
G01*
X120578435Y-91916125D01*
X120608778Y-91923725D01*
X120638230Y-91934263D01*
X120666508Y-91947638D01*
X120693338Y-91963719D01*
X120718463Y-91982353D01*
X120741640Y-92003360D01*
X120762647Y-92026537D01*
X120781281Y-92051662D01*
X120797362Y-92078492D01*
X120810737Y-92106770D01*
X120821275Y-92136222D01*
X120828875Y-92166565D01*
X120833465Y-92197507D01*
X120835000Y-92228750D01*
X120835000Y-92866250D01*
X120833465Y-92897493D01*
X120828875Y-92928435D01*
X120821275Y-92958778D01*
X120810737Y-92988230D01*
X120797362Y-93016508D01*
X120781281Y-93043338D01*
X120762647Y-93068463D01*
X120741640Y-93091640D01*
X120718463Y-93112647D01*
X120693338Y-93131281D01*
X120666508Y-93147362D01*
X120638230Y-93160737D01*
X120608778Y-93171275D01*
X120578435Y-93178875D01*
X120547493Y-93183465D01*
X120516250Y-93185000D01*
X119803750Y-93185000D01*
X119772507Y-93183465D01*
X119741565Y-93178875D01*
X119711222Y-93171275D01*
X119681770Y-93160737D01*
X119653492Y-93147362D01*
X119626662Y-93131281D01*
X119601537Y-93112647D01*
X119578360Y-93091640D01*
X119557353Y-93068463D01*
X119538719Y-93043338D01*
X119522638Y-93016508D01*
X119509263Y-92988230D01*
X119498725Y-92958778D01*
X119491125Y-92928435D01*
X119486535Y-92897493D01*
X119485000Y-92866250D01*
X119485000Y-92228750D01*
X119486535Y-92197507D01*
X119491125Y-92166565D01*
X119498725Y-92136222D01*
X119509263Y-92106770D01*
X119522638Y-92078492D01*
X119538719Y-92051662D01*
X119557353Y-92026537D01*
X119578360Y-92003360D01*
X119601537Y-91982353D01*
X119626662Y-91963719D01*
X119653492Y-91947638D01*
X119681770Y-91934263D01*
X119711222Y-91923725D01*
X119741565Y-91916125D01*
X119772507Y-91911535D01*
X119803750Y-91910000D01*
X120516250Y-91910000D01*
X120547493Y-91911535D01*
X120547493Y-91911535D01*
G37*
D23*
X120160000Y-92547500D03*
D10*
G36*
X136987493Y-101496535D02*
G01*
X137018435Y-101501125D01*
X137048778Y-101508725D01*
X137078230Y-101519263D01*
X137106508Y-101532638D01*
X137133338Y-101548719D01*
X137158463Y-101567353D01*
X137181640Y-101588360D01*
X137202647Y-101611537D01*
X137221281Y-101636662D01*
X137237362Y-101663492D01*
X137250737Y-101691770D01*
X137261275Y-101721222D01*
X137268875Y-101751565D01*
X137273465Y-101782507D01*
X137275000Y-101813750D01*
X137275000Y-102526250D01*
X137273465Y-102557493D01*
X137268875Y-102588435D01*
X137261275Y-102618778D01*
X137250737Y-102648230D01*
X137237362Y-102676508D01*
X137221281Y-102703338D01*
X137202647Y-102728463D01*
X137181640Y-102751640D01*
X137158463Y-102772647D01*
X137133338Y-102791281D01*
X137106508Y-102807362D01*
X137078230Y-102820737D01*
X137048778Y-102831275D01*
X137018435Y-102838875D01*
X136987493Y-102843465D01*
X136956250Y-102845000D01*
X136318750Y-102845000D01*
X136287507Y-102843465D01*
X136256565Y-102838875D01*
X136226222Y-102831275D01*
X136196770Y-102820737D01*
X136168492Y-102807362D01*
X136141662Y-102791281D01*
X136116537Y-102772647D01*
X136093360Y-102751640D01*
X136072353Y-102728463D01*
X136053719Y-102703338D01*
X136037638Y-102676508D01*
X136024263Y-102648230D01*
X136013725Y-102618778D01*
X136006125Y-102588435D01*
X136001535Y-102557493D01*
X136000000Y-102526250D01*
X136000000Y-101813750D01*
X136001535Y-101782507D01*
X136006125Y-101751565D01*
X136013725Y-101721222D01*
X136024263Y-101691770D01*
X136037638Y-101663492D01*
X136053719Y-101636662D01*
X136072353Y-101611537D01*
X136093360Y-101588360D01*
X136116537Y-101567353D01*
X136141662Y-101548719D01*
X136168492Y-101532638D01*
X136196770Y-101519263D01*
X136226222Y-101508725D01*
X136256565Y-101501125D01*
X136287507Y-101496535D01*
X136318750Y-101495000D01*
X136956250Y-101495000D01*
X136987493Y-101496535D01*
X136987493Y-101496535D01*
G37*
D23*
X136637500Y-102170000D03*
D10*
G36*
X135412493Y-101496535D02*
G01*
X135443435Y-101501125D01*
X135473778Y-101508725D01*
X135503230Y-101519263D01*
X135531508Y-101532638D01*
X135558338Y-101548719D01*
X135583463Y-101567353D01*
X135606640Y-101588360D01*
X135627647Y-101611537D01*
X135646281Y-101636662D01*
X135662362Y-101663492D01*
X135675737Y-101691770D01*
X135686275Y-101721222D01*
X135693875Y-101751565D01*
X135698465Y-101782507D01*
X135700000Y-101813750D01*
X135700000Y-102526250D01*
X135698465Y-102557493D01*
X135693875Y-102588435D01*
X135686275Y-102618778D01*
X135675737Y-102648230D01*
X135662362Y-102676508D01*
X135646281Y-102703338D01*
X135627647Y-102728463D01*
X135606640Y-102751640D01*
X135583463Y-102772647D01*
X135558338Y-102791281D01*
X135531508Y-102807362D01*
X135503230Y-102820737D01*
X135473778Y-102831275D01*
X135443435Y-102838875D01*
X135412493Y-102843465D01*
X135381250Y-102845000D01*
X134743750Y-102845000D01*
X134712507Y-102843465D01*
X134681565Y-102838875D01*
X134651222Y-102831275D01*
X134621770Y-102820737D01*
X134593492Y-102807362D01*
X134566662Y-102791281D01*
X134541537Y-102772647D01*
X134518360Y-102751640D01*
X134497353Y-102728463D01*
X134478719Y-102703338D01*
X134462638Y-102676508D01*
X134449263Y-102648230D01*
X134438725Y-102618778D01*
X134431125Y-102588435D01*
X134426535Y-102557493D01*
X134425000Y-102526250D01*
X134425000Y-101813750D01*
X134426535Y-101782507D01*
X134431125Y-101751565D01*
X134438725Y-101721222D01*
X134449263Y-101691770D01*
X134462638Y-101663492D01*
X134478719Y-101636662D01*
X134497353Y-101611537D01*
X134518360Y-101588360D01*
X134541537Y-101567353D01*
X134566662Y-101548719D01*
X134593492Y-101532638D01*
X134621770Y-101519263D01*
X134651222Y-101508725D01*
X134681565Y-101501125D01*
X134712507Y-101496535D01*
X134743750Y-101495000D01*
X135381250Y-101495000D01*
X135412493Y-101496535D01*
X135412493Y-101496535D01*
G37*
D23*
X135062500Y-102170000D03*
D10*
G36*
X144757493Y-99001535D02*
G01*
X144788435Y-99006125D01*
X144818778Y-99013725D01*
X144848230Y-99024263D01*
X144876508Y-99037638D01*
X144903338Y-99053719D01*
X144928463Y-99072353D01*
X144951640Y-99093360D01*
X144972647Y-99116537D01*
X144991281Y-99141662D01*
X145007362Y-99168492D01*
X145020737Y-99196770D01*
X145031275Y-99226222D01*
X145038875Y-99256565D01*
X145043465Y-99287507D01*
X145045000Y-99318750D01*
X145045000Y-99956250D01*
X145043465Y-99987493D01*
X145038875Y-100018435D01*
X145031275Y-100048778D01*
X145020737Y-100078230D01*
X145007362Y-100106508D01*
X144991281Y-100133338D01*
X144972647Y-100158463D01*
X144951640Y-100181640D01*
X144928463Y-100202647D01*
X144903338Y-100221281D01*
X144876508Y-100237362D01*
X144848230Y-100250737D01*
X144818778Y-100261275D01*
X144788435Y-100268875D01*
X144757493Y-100273465D01*
X144726250Y-100275000D01*
X144013750Y-100275000D01*
X143982507Y-100273465D01*
X143951565Y-100268875D01*
X143921222Y-100261275D01*
X143891770Y-100250737D01*
X143863492Y-100237362D01*
X143836662Y-100221281D01*
X143811537Y-100202647D01*
X143788360Y-100181640D01*
X143767353Y-100158463D01*
X143748719Y-100133338D01*
X143732638Y-100106508D01*
X143719263Y-100078230D01*
X143708725Y-100048778D01*
X143701125Y-100018435D01*
X143696535Y-99987493D01*
X143695000Y-99956250D01*
X143695000Y-99318750D01*
X143696535Y-99287507D01*
X143701125Y-99256565D01*
X143708725Y-99226222D01*
X143719263Y-99196770D01*
X143732638Y-99168492D01*
X143748719Y-99141662D01*
X143767353Y-99116537D01*
X143788360Y-99093360D01*
X143811537Y-99072353D01*
X143836662Y-99053719D01*
X143863492Y-99037638D01*
X143891770Y-99024263D01*
X143921222Y-99013725D01*
X143951565Y-99006125D01*
X143982507Y-99001535D01*
X144013750Y-99000000D01*
X144726250Y-99000000D01*
X144757493Y-99001535D01*
X144757493Y-99001535D01*
G37*
D23*
X144370000Y-99637500D03*
D10*
G36*
X144757493Y-97426535D02*
G01*
X144788435Y-97431125D01*
X144818778Y-97438725D01*
X144848230Y-97449263D01*
X144876508Y-97462638D01*
X144903338Y-97478719D01*
X144928463Y-97497353D01*
X144951640Y-97518360D01*
X144972647Y-97541537D01*
X144991281Y-97566662D01*
X145007362Y-97593492D01*
X145020737Y-97621770D01*
X145031275Y-97651222D01*
X145038875Y-97681565D01*
X145043465Y-97712507D01*
X145045000Y-97743750D01*
X145045000Y-98381250D01*
X145043465Y-98412493D01*
X145038875Y-98443435D01*
X145031275Y-98473778D01*
X145020737Y-98503230D01*
X145007362Y-98531508D01*
X144991281Y-98558338D01*
X144972647Y-98583463D01*
X144951640Y-98606640D01*
X144928463Y-98627647D01*
X144903338Y-98646281D01*
X144876508Y-98662362D01*
X144848230Y-98675737D01*
X144818778Y-98686275D01*
X144788435Y-98693875D01*
X144757493Y-98698465D01*
X144726250Y-98700000D01*
X144013750Y-98700000D01*
X143982507Y-98698465D01*
X143951565Y-98693875D01*
X143921222Y-98686275D01*
X143891770Y-98675737D01*
X143863492Y-98662362D01*
X143836662Y-98646281D01*
X143811537Y-98627647D01*
X143788360Y-98606640D01*
X143767353Y-98583463D01*
X143748719Y-98558338D01*
X143732638Y-98531508D01*
X143719263Y-98503230D01*
X143708725Y-98473778D01*
X143701125Y-98443435D01*
X143696535Y-98412493D01*
X143695000Y-98381250D01*
X143695000Y-97743750D01*
X143696535Y-97712507D01*
X143701125Y-97681565D01*
X143708725Y-97651222D01*
X143719263Y-97621770D01*
X143732638Y-97593492D01*
X143748719Y-97566662D01*
X143767353Y-97541537D01*
X143788360Y-97518360D01*
X143811537Y-97497353D01*
X143836662Y-97478719D01*
X143863492Y-97462638D01*
X143891770Y-97449263D01*
X143921222Y-97438725D01*
X143951565Y-97431125D01*
X143982507Y-97426535D01*
X144013750Y-97425000D01*
X144726250Y-97425000D01*
X144757493Y-97426535D01*
X144757493Y-97426535D01*
G37*
D23*
X144370000Y-98062500D03*
D10*
G36*
X123087493Y-52766535D02*
G01*
X123118435Y-52771125D01*
X123148778Y-52778725D01*
X123178230Y-52789263D01*
X123206508Y-52802638D01*
X123233338Y-52818719D01*
X123258463Y-52837353D01*
X123281640Y-52858360D01*
X123302647Y-52881537D01*
X123321281Y-52906662D01*
X123337362Y-52933492D01*
X123350737Y-52961770D01*
X123361275Y-52991222D01*
X123368875Y-53021565D01*
X123373465Y-53052507D01*
X123375000Y-53083750D01*
X123375000Y-53796250D01*
X123373465Y-53827493D01*
X123368875Y-53858435D01*
X123361275Y-53888778D01*
X123350737Y-53918230D01*
X123337362Y-53946508D01*
X123321281Y-53973338D01*
X123302647Y-53998463D01*
X123281640Y-54021640D01*
X123258463Y-54042647D01*
X123233338Y-54061281D01*
X123206508Y-54077362D01*
X123178230Y-54090737D01*
X123148778Y-54101275D01*
X123118435Y-54108875D01*
X123087493Y-54113465D01*
X123056250Y-54115000D01*
X122418750Y-54115000D01*
X122387507Y-54113465D01*
X122356565Y-54108875D01*
X122326222Y-54101275D01*
X122296770Y-54090737D01*
X122268492Y-54077362D01*
X122241662Y-54061281D01*
X122216537Y-54042647D01*
X122193360Y-54021640D01*
X122172353Y-53998463D01*
X122153719Y-53973338D01*
X122137638Y-53946508D01*
X122124263Y-53918230D01*
X122113725Y-53888778D01*
X122106125Y-53858435D01*
X122101535Y-53827493D01*
X122100000Y-53796250D01*
X122100000Y-53083750D01*
X122101535Y-53052507D01*
X122106125Y-53021565D01*
X122113725Y-52991222D01*
X122124263Y-52961770D01*
X122137638Y-52933492D01*
X122153719Y-52906662D01*
X122172353Y-52881537D01*
X122193360Y-52858360D01*
X122216537Y-52837353D01*
X122241662Y-52818719D01*
X122268492Y-52802638D01*
X122296770Y-52789263D01*
X122326222Y-52778725D01*
X122356565Y-52771125D01*
X122387507Y-52766535D01*
X122418750Y-52765000D01*
X123056250Y-52765000D01*
X123087493Y-52766535D01*
X123087493Y-52766535D01*
G37*
D23*
X122737500Y-53440000D03*
D10*
G36*
X121512493Y-52766535D02*
G01*
X121543435Y-52771125D01*
X121573778Y-52778725D01*
X121603230Y-52789263D01*
X121631508Y-52802638D01*
X121658338Y-52818719D01*
X121683463Y-52837353D01*
X121706640Y-52858360D01*
X121727647Y-52881537D01*
X121746281Y-52906662D01*
X121762362Y-52933492D01*
X121775737Y-52961770D01*
X121786275Y-52991222D01*
X121793875Y-53021565D01*
X121798465Y-53052507D01*
X121800000Y-53083750D01*
X121800000Y-53796250D01*
X121798465Y-53827493D01*
X121793875Y-53858435D01*
X121786275Y-53888778D01*
X121775737Y-53918230D01*
X121762362Y-53946508D01*
X121746281Y-53973338D01*
X121727647Y-53998463D01*
X121706640Y-54021640D01*
X121683463Y-54042647D01*
X121658338Y-54061281D01*
X121631508Y-54077362D01*
X121603230Y-54090737D01*
X121573778Y-54101275D01*
X121543435Y-54108875D01*
X121512493Y-54113465D01*
X121481250Y-54115000D01*
X120843750Y-54115000D01*
X120812507Y-54113465D01*
X120781565Y-54108875D01*
X120751222Y-54101275D01*
X120721770Y-54090737D01*
X120693492Y-54077362D01*
X120666662Y-54061281D01*
X120641537Y-54042647D01*
X120618360Y-54021640D01*
X120597353Y-53998463D01*
X120578719Y-53973338D01*
X120562638Y-53946508D01*
X120549263Y-53918230D01*
X120538725Y-53888778D01*
X120531125Y-53858435D01*
X120526535Y-53827493D01*
X120525000Y-53796250D01*
X120525000Y-53083750D01*
X120526535Y-53052507D01*
X120531125Y-53021565D01*
X120538725Y-52991222D01*
X120549263Y-52961770D01*
X120562638Y-52933492D01*
X120578719Y-52906662D01*
X120597353Y-52881537D01*
X120618360Y-52858360D01*
X120641537Y-52837353D01*
X120666662Y-52818719D01*
X120693492Y-52802638D01*
X120721770Y-52789263D01*
X120751222Y-52778725D01*
X120781565Y-52771125D01*
X120812507Y-52766535D01*
X120843750Y-52765000D01*
X121481250Y-52765000D01*
X121512493Y-52766535D01*
X121512493Y-52766535D01*
G37*
D23*
X121162500Y-53440000D03*
D10*
G36*
X102917493Y-38796535D02*
G01*
X102948435Y-38801125D01*
X102978778Y-38808725D01*
X103008230Y-38819263D01*
X103036508Y-38832638D01*
X103063338Y-38848719D01*
X103088463Y-38867353D01*
X103111640Y-38888360D01*
X103132647Y-38911537D01*
X103151281Y-38936662D01*
X103167362Y-38963492D01*
X103180737Y-38991770D01*
X103191275Y-39021222D01*
X103198875Y-39051565D01*
X103203465Y-39082507D01*
X103205000Y-39113750D01*
X103205000Y-39751250D01*
X103203465Y-39782493D01*
X103198875Y-39813435D01*
X103191275Y-39843778D01*
X103180737Y-39873230D01*
X103167362Y-39901508D01*
X103151281Y-39928338D01*
X103132647Y-39953463D01*
X103111640Y-39976640D01*
X103088463Y-39997647D01*
X103063338Y-40016281D01*
X103036508Y-40032362D01*
X103008230Y-40045737D01*
X102978778Y-40056275D01*
X102948435Y-40063875D01*
X102917493Y-40068465D01*
X102886250Y-40070000D01*
X102173750Y-40070000D01*
X102142507Y-40068465D01*
X102111565Y-40063875D01*
X102081222Y-40056275D01*
X102051770Y-40045737D01*
X102023492Y-40032362D01*
X101996662Y-40016281D01*
X101971537Y-39997647D01*
X101948360Y-39976640D01*
X101927353Y-39953463D01*
X101908719Y-39928338D01*
X101892638Y-39901508D01*
X101879263Y-39873230D01*
X101868725Y-39843778D01*
X101861125Y-39813435D01*
X101856535Y-39782493D01*
X101855000Y-39751250D01*
X101855000Y-39113750D01*
X101856535Y-39082507D01*
X101861125Y-39051565D01*
X101868725Y-39021222D01*
X101879263Y-38991770D01*
X101892638Y-38963492D01*
X101908719Y-38936662D01*
X101927353Y-38911537D01*
X101948360Y-38888360D01*
X101971537Y-38867353D01*
X101996662Y-38848719D01*
X102023492Y-38832638D01*
X102051770Y-38819263D01*
X102081222Y-38808725D01*
X102111565Y-38801125D01*
X102142507Y-38796535D01*
X102173750Y-38795000D01*
X102886250Y-38795000D01*
X102917493Y-38796535D01*
X102917493Y-38796535D01*
G37*
D23*
X102530000Y-39432500D03*
D10*
G36*
X102917493Y-40371535D02*
G01*
X102948435Y-40376125D01*
X102978778Y-40383725D01*
X103008230Y-40394263D01*
X103036508Y-40407638D01*
X103063338Y-40423719D01*
X103088463Y-40442353D01*
X103111640Y-40463360D01*
X103132647Y-40486537D01*
X103151281Y-40511662D01*
X103167362Y-40538492D01*
X103180737Y-40566770D01*
X103191275Y-40596222D01*
X103198875Y-40626565D01*
X103203465Y-40657507D01*
X103205000Y-40688750D01*
X103205000Y-41326250D01*
X103203465Y-41357493D01*
X103198875Y-41388435D01*
X103191275Y-41418778D01*
X103180737Y-41448230D01*
X103167362Y-41476508D01*
X103151281Y-41503338D01*
X103132647Y-41528463D01*
X103111640Y-41551640D01*
X103088463Y-41572647D01*
X103063338Y-41591281D01*
X103036508Y-41607362D01*
X103008230Y-41620737D01*
X102978778Y-41631275D01*
X102948435Y-41638875D01*
X102917493Y-41643465D01*
X102886250Y-41645000D01*
X102173750Y-41645000D01*
X102142507Y-41643465D01*
X102111565Y-41638875D01*
X102081222Y-41631275D01*
X102051770Y-41620737D01*
X102023492Y-41607362D01*
X101996662Y-41591281D01*
X101971537Y-41572647D01*
X101948360Y-41551640D01*
X101927353Y-41528463D01*
X101908719Y-41503338D01*
X101892638Y-41476508D01*
X101879263Y-41448230D01*
X101868725Y-41418778D01*
X101861125Y-41388435D01*
X101856535Y-41357493D01*
X101855000Y-41326250D01*
X101855000Y-40688750D01*
X101856535Y-40657507D01*
X101861125Y-40626565D01*
X101868725Y-40596222D01*
X101879263Y-40566770D01*
X101892638Y-40538492D01*
X101908719Y-40511662D01*
X101927353Y-40486537D01*
X101948360Y-40463360D01*
X101971537Y-40442353D01*
X101996662Y-40423719D01*
X102023492Y-40407638D01*
X102051770Y-40394263D01*
X102081222Y-40383725D01*
X102111565Y-40376125D01*
X102142507Y-40371535D01*
X102173750Y-40370000D01*
X102886250Y-40370000D01*
X102917493Y-40371535D01*
X102917493Y-40371535D01*
G37*
D23*
X102530000Y-41007500D03*
D10*
G36*
X104957493Y-38816535D02*
G01*
X104988435Y-38821125D01*
X105018778Y-38828725D01*
X105048230Y-38839263D01*
X105076508Y-38852638D01*
X105103338Y-38868719D01*
X105128463Y-38887353D01*
X105151640Y-38908360D01*
X105172647Y-38931537D01*
X105191281Y-38956662D01*
X105207362Y-38983492D01*
X105220737Y-39011770D01*
X105231275Y-39041222D01*
X105238875Y-39071565D01*
X105243465Y-39102507D01*
X105245000Y-39133750D01*
X105245000Y-39771250D01*
X105243465Y-39802493D01*
X105238875Y-39833435D01*
X105231275Y-39863778D01*
X105220737Y-39893230D01*
X105207362Y-39921508D01*
X105191281Y-39948338D01*
X105172647Y-39973463D01*
X105151640Y-39996640D01*
X105128463Y-40017647D01*
X105103338Y-40036281D01*
X105076508Y-40052362D01*
X105048230Y-40065737D01*
X105018778Y-40076275D01*
X104988435Y-40083875D01*
X104957493Y-40088465D01*
X104926250Y-40090000D01*
X104213750Y-40090000D01*
X104182507Y-40088465D01*
X104151565Y-40083875D01*
X104121222Y-40076275D01*
X104091770Y-40065737D01*
X104063492Y-40052362D01*
X104036662Y-40036281D01*
X104011537Y-40017647D01*
X103988360Y-39996640D01*
X103967353Y-39973463D01*
X103948719Y-39948338D01*
X103932638Y-39921508D01*
X103919263Y-39893230D01*
X103908725Y-39863778D01*
X103901125Y-39833435D01*
X103896535Y-39802493D01*
X103895000Y-39771250D01*
X103895000Y-39133750D01*
X103896535Y-39102507D01*
X103901125Y-39071565D01*
X103908725Y-39041222D01*
X103919263Y-39011770D01*
X103932638Y-38983492D01*
X103948719Y-38956662D01*
X103967353Y-38931537D01*
X103988360Y-38908360D01*
X104011537Y-38887353D01*
X104036662Y-38868719D01*
X104063492Y-38852638D01*
X104091770Y-38839263D01*
X104121222Y-38828725D01*
X104151565Y-38821125D01*
X104182507Y-38816535D01*
X104213750Y-38815000D01*
X104926250Y-38815000D01*
X104957493Y-38816535D01*
X104957493Y-38816535D01*
G37*
D23*
X104570000Y-39452500D03*
D10*
G36*
X104957493Y-40391535D02*
G01*
X104988435Y-40396125D01*
X105018778Y-40403725D01*
X105048230Y-40414263D01*
X105076508Y-40427638D01*
X105103338Y-40443719D01*
X105128463Y-40462353D01*
X105151640Y-40483360D01*
X105172647Y-40506537D01*
X105191281Y-40531662D01*
X105207362Y-40558492D01*
X105220737Y-40586770D01*
X105231275Y-40616222D01*
X105238875Y-40646565D01*
X105243465Y-40677507D01*
X105245000Y-40708750D01*
X105245000Y-41346250D01*
X105243465Y-41377493D01*
X105238875Y-41408435D01*
X105231275Y-41438778D01*
X105220737Y-41468230D01*
X105207362Y-41496508D01*
X105191281Y-41523338D01*
X105172647Y-41548463D01*
X105151640Y-41571640D01*
X105128463Y-41592647D01*
X105103338Y-41611281D01*
X105076508Y-41627362D01*
X105048230Y-41640737D01*
X105018778Y-41651275D01*
X104988435Y-41658875D01*
X104957493Y-41663465D01*
X104926250Y-41665000D01*
X104213750Y-41665000D01*
X104182507Y-41663465D01*
X104151565Y-41658875D01*
X104121222Y-41651275D01*
X104091770Y-41640737D01*
X104063492Y-41627362D01*
X104036662Y-41611281D01*
X104011537Y-41592647D01*
X103988360Y-41571640D01*
X103967353Y-41548463D01*
X103948719Y-41523338D01*
X103932638Y-41496508D01*
X103919263Y-41468230D01*
X103908725Y-41438778D01*
X103901125Y-41408435D01*
X103896535Y-41377493D01*
X103895000Y-41346250D01*
X103895000Y-40708750D01*
X103896535Y-40677507D01*
X103901125Y-40646565D01*
X103908725Y-40616222D01*
X103919263Y-40586770D01*
X103932638Y-40558492D01*
X103948719Y-40531662D01*
X103967353Y-40506537D01*
X103988360Y-40483360D01*
X104011537Y-40462353D01*
X104036662Y-40443719D01*
X104063492Y-40427638D01*
X104091770Y-40414263D01*
X104121222Y-40403725D01*
X104151565Y-40396125D01*
X104182507Y-40391535D01*
X104213750Y-40390000D01*
X104926250Y-40390000D01*
X104957493Y-40391535D01*
X104957493Y-40391535D01*
G37*
D23*
X104570000Y-41027500D03*
D10*
G36*
X109357493Y-28486535D02*
G01*
X109388435Y-28491125D01*
X109418778Y-28498725D01*
X109448230Y-28509263D01*
X109476508Y-28522638D01*
X109503338Y-28538719D01*
X109528463Y-28557353D01*
X109551640Y-28578360D01*
X109572647Y-28601537D01*
X109591281Y-28626662D01*
X109607362Y-28653492D01*
X109620737Y-28681770D01*
X109631275Y-28711222D01*
X109638875Y-28741565D01*
X109643465Y-28772507D01*
X109645000Y-28803750D01*
X109645000Y-29516250D01*
X109643465Y-29547493D01*
X109638875Y-29578435D01*
X109631275Y-29608778D01*
X109620737Y-29638230D01*
X109607362Y-29666508D01*
X109591281Y-29693338D01*
X109572647Y-29718463D01*
X109551640Y-29741640D01*
X109528463Y-29762647D01*
X109503338Y-29781281D01*
X109476508Y-29797362D01*
X109448230Y-29810737D01*
X109418778Y-29821275D01*
X109388435Y-29828875D01*
X109357493Y-29833465D01*
X109326250Y-29835000D01*
X108688750Y-29835000D01*
X108657507Y-29833465D01*
X108626565Y-29828875D01*
X108596222Y-29821275D01*
X108566770Y-29810737D01*
X108538492Y-29797362D01*
X108511662Y-29781281D01*
X108486537Y-29762647D01*
X108463360Y-29741640D01*
X108442353Y-29718463D01*
X108423719Y-29693338D01*
X108407638Y-29666508D01*
X108394263Y-29638230D01*
X108383725Y-29608778D01*
X108376125Y-29578435D01*
X108371535Y-29547493D01*
X108370000Y-29516250D01*
X108370000Y-28803750D01*
X108371535Y-28772507D01*
X108376125Y-28741565D01*
X108383725Y-28711222D01*
X108394263Y-28681770D01*
X108407638Y-28653492D01*
X108423719Y-28626662D01*
X108442353Y-28601537D01*
X108463360Y-28578360D01*
X108486537Y-28557353D01*
X108511662Y-28538719D01*
X108538492Y-28522638D01*
X108566770Y-28509263D01*
X108596222Y-28498725D01*
X108626565Y-28491125D01*
X108657507Y-28486535D01*
X108688750Y-28485000D01*
X109326250Y-28485000D01*
X109357493Y-28486535D01*
X109357493Y-28486535D01*
G37*
D23*
X109007500Y-29160000D03*
D10*
G36*
X107782493Y-28486535D02*
G01*
X107813435Y-28491125D01*
X107843778Y-28498725D01*
X107873230Y-28509263D01*
X107901508Y-28522638D01*
X107928338Y-28538719D01*
X107953463Y-28557353D01*
X107976640Y-28578360D01*
X107997647Y-28601537D01*
X108016281Y-28626662D01*
X108032362Y-28653492D01*
X108045737Y-28681770D01*
X108056275Y-28711222D01*
X108063875Y-28741565D01*
X108068465Y-28772507D01*
X108070000Y-28803750D01*
X108070000Y-29516250D01*
X108068465Y-29547493D01*
X108063875Y-29578435D01*
X108056275Y-29608778D01*
X108045737Y-29638230D01*
X108032362Y-29666508D01*
X108016281Y-29693338D01*
X107997647Y-29718463D01*
X107976640Y-29741640D01*
X107953463Y-29762647D01*
X107928338Y-29781281D01*
X107901508Y-29797362D01*
X107873230Y-29810737D01*
X107843778Y-29821275D01*
X107813435Y-29828875D01*
X107782493Y-29833465D01*
X107751250Y-29835000D01*
X107113750Y-29835000D01*
X107082507Y-29833465D01*
X107051565Y-29828875D01*
X107021222Y-29821275D01*
X106991770Y-29810737D01*
X106963492Y-29797362D01*
X106936662Y-29781281D01*
X106911537Y-29762647D01*
X106888360Y-29741640D01*
X106867353Y-29718463D01*
X106848719Y-29693338D01*
X106832638Y-29666508D01*
X106819263Y-29638230D01*
X106808725Y-29608778D01*
X106801125Y-29578435D01*
X106796535Y-29547493D01*
X106795000Y-29516250D01*
X106795000Y-28803750D01*
X106796535Y-28772507D01*
X106801125Y-28741565D01*
X106808725Y-28711222D01*
X106819263Y-28681770D01*
X106832638Y-28653492D01*
X106848719Y-28626662D01*
X106867353Y-28601537D01*
X106888360Y-28578360D01*
X106911537Y-28557353D01*
X106936662Y-28538719D01*
X106963492Y-28522638D01*
X106991770Y-28509263D01*
X107021222Y-28498725D01*
X107051565Y-28491125D01*
X107082507Y-28486535D01*
X107113750Y-28485000D01*
X107751250Y-28485000D01*
X107782493Y-28486535D01*
X107782493Y-28486535D01*
G37*
D23*
X107432500Y-29160000D03*
D10*
G36*
X96667493Y-22366535D02*
G01*
X96698435Y-22371125D01*
X96728778Y-22378725D01*
X96758230Y-22389263D01*
X96786508Y-22402638D01*
X96813338Y-22418719D01*
X96838463Y-22437353D01*
X96861640Y-22458360D01*
X96882647Y-22481537D01*
X96901281Y-22506662D01*
X96917362Y-22533492D01*
X96930737Y-22561770D01*
X96941275Y-22591222D01*
X96948875Y-22621565D01*
X96953465Y-22652507D01*
X96955000Y-22683750D01*
X96955000Y-23396250D01*
X96953465Y-23427493D01*
X96948875Y-23458435D01*
X96941275Y-23488778D01*
X96930737Y-23518230D01*
X96917362Y-23546508D01*
X96901281Y-23573338D01*
X96882647Y-23598463D01*
X96861640Y-23621640D01*
X96838463Y-23642647D01*
X96813338Y-23661281D01*
X96786508Y-23677362D01*
X96758230Y-23690737D01*
X96728778Y-23701275D01*
X96698435Y-23708875D01*
X96667493Y-23713465D01*
X96636250Y-23715000D01*
X95998750Y-23715000D01*
X95967507Y-23713465D01*
X95936565Y-23708875D01*
X95906222Y-23701275D01*
X95876770Y-23690737D01*
X95848492Y-23677362D01*
X95821662Y-23661281D01*
X95796537Y-23642647D01*
X95773360Y-23621640D01*
X95752353Y-23598463D01*
X95733719Y-23573338D01*
X95717638Y-23546508D01*
X95704263Y-23518230D01*
X95693725Y-23488778D01*
X95686125Y-23458435D01*
X95681535Y-23427493D01*
X95680000Y-23396250D01*
X95680000Y-22683750D01*
X95681535Y-22652507D01*
X95686125Y-22621565D01*
X95693725Y-22591222D01*
X95704263Y-22561770D01*
X95717638Y-22533492D01*
X95733719Y-22506662D01*
X95752353Y-22481537D01*
X95773360Y-22458360D01*
X95796537Y-22437353D01*
X95821662Y-22418719D01*
X95848492Y-22402638D01*
X95876770Y-22389263D01*
X95906222Y-22378725D01*
X95936565Y-22371125D01*
X95967507Y-22366535D01*
X95998750Y-22365000D01*
X96636250Y-22365000D01*
X96667493Y-22366535D01*
X96667493Y-22366535D01*
G37*
D23*
X96317500Y-23040000D03*
D10*
G36*
X95092493Y-22366535D02*
G01*
X95123435Y-22371125D01*
X95153778Y-22378725D01*
X95183230Y-22389263D01*
X95211508Y-22402638D01*
X95238338Y-22418719D01*
X95263463Y-22437353D01*
X95286640Y-22458360D01*
X95307647Y-22481537D01*
X95326281Y-22506662D01*
X95342362Y-22533492D01*
X95355737Y-22561770D01*
X95366275Y-22591222D01*
X95373875Y-22621565D01*
X95378465Y-22652507D01*
X95380000Y-22683750D01*
X95380000Y-23396250D01*
X95378465Y-23427493D01*
X95373875Y-23458435D01*
X95366275Y-23488778D01*
X95355737Y-23518230D01*
X95342362Y-23546508D01*
X95326281Y-23573338D01*
X95307647Y-23598463D01*
X95286640Y-23621640D01*
X95263463Y-23642647D01*
X95238338Y-23661281D01*
X95211508Y-23677362D01*
X95183230Y-23690737D01*
X95153778Y-23701275D01*
X95123435Y-23708875D01*
X95092493Y-23713465D01*
X95061250Y-23715000D01*
X94423750Y-23715000D01*
X94392507Y-23713465D01*
X94361565Y-23708875D01*
X94331222Y-23701275D01*
X94301770Y-23690737D01*
X94273492Y-23677362D01*
X94246662Y-23661281D01*
X94221537Y-23642647D01*
X94198360Y-23621640D01*
X94177353Y-23598463D01*
X94158719Y-23573338D01*
X94142638Y-23546508D01*
X94129263Y-23518230D01*
X94118725Y-23488778D01*
X94111125Y-23458435D01*
X94106535Y-23427493D01*
X94105000Y-23396250D01*
X94105000Y-22683750D01*
X94106535Y-22652507D01*
X94111125Y-22621565D01*
X94118725Y-22591222D01*
X94129263Y-22561770D01*
X94142638Y-22533492D01*
X94158719Y-22506662D01*
X94177353Y-22481537D01*
X94198360Y-22458360D01*
X94221537Y-22437353D01*
X94246662Y-22418719D01*
X94273492Y-22402638D01*
X94301770Y-22389263D01*
X94331222Y-22378725D01*
X94361565Y-22371125D01*
X94392507Y-22366535D01*
X94423750Y-22365000D01*
X95061250Y-22365000D01*
X95092493Y-22366535D01*
X95092493Y-22366535D01*
G37*
D23*
X94742500Y-23040000D03*
D24*
X101480000Y-187450000D03*
D25*
X102750000Y-187450000D03*
X104020000Y-187450000D03*
X105290000Y-187450000D03*
D26*
X84549061Y-51116456D03*
X85520233Y-46211680D03*
D21*
X81706248Y-51572978D03*
D27*
X82049582Y-51640960D02*
X81362914Y-51504996D01*
D21*
X83065888Y-44706292D03*
D27*
X82722554Y-44638310D02*
X83409222Y-44774274D01*
D28*
X77752149Y-81171744D03*
X79107851Y-74508256D03*
D22*
X76185000Y-95420000D03*
X68235000Y-95420000D03*
X76185000Y-90920000D03*
X68235000Y-90920000D03*
X68155000Y-108720000D03*
X76105000Y-108720000D03*
X68155000Y-113220000D03*
X76105000Y-113220000D03*
X84125000Y-104320000D03*
X76175000Y-104320000D03*
X84125000Y-99820000D03*
X76175000Y-99820000D03*
X145065000Y-110560000D03*
X137115000Y-110560000D03*
X145065000Y-106060000D03*
X137115000Y-106060000D03*
X134725000Y-98740000D03*
X126775000Y-98740000D03*
X134725000Y-94240000D03*
X126775000Y-94240000D03*
D29*
X117322600Y-48615600D03*
D30*
X117322600Y-49885600D03*
X118592600Y-48615600D03*
X118592600Y-49885600D03*
X119862600Y-48615600D03*
X119862600Y-49885600D03*
X121132600Y-48615600D03*
X121132600Y-49885600D03*
X122402600Y-48615600D03*
X122402600Y-49885600D03*
D10*
G36*
X96227493Y-162321535D02*
G01*
X96258435Y-162326125D01*
X96288778Y-162333725D01*
X96318230Y-162344263D01*
X96346508Y-162357638D01*
X96373338Y-162373719D01*
X96398463Y-162392353D01*
X96421640Y-162413360D01*
X96442647Y-162436537D01*
X96461281Y-162461662D01*
X96477362Y-162488492D01*
X96490737Y-162516770D01*
X96501275Y-162546222D01*
X96508875Y-162576565D01*
X96513465Y-162607507D01*
X96515000Y-162638750D01*
X96515000Y-163276250D01*
X96513465Y-163307493D01*
X96508875Y-163338435D01*
X96501275Y-163368778D01*
X96490737Y-163398230D01*
X96477362Y-163426508D01*
X96461281Y-163453338D01*
X96442647Y-163478463D01*
X96421640Y-163501640D01*
X96398463Y-163522647D01*
X96373338Y-163541281D01*
X96346508Y-163557362D01*
X96318230Y-163570737D01*
X96288778Y-163581275D01*
X96258435Y-163588875D01*
X96227493Y-163593465D01*
X96196250Y-163595000D01*
X95483750Y-163595000D01*
X95452507Y-163593465D01*
X95421565Y-163588875D01*
X95391222Y-163581275D01*
X95361770Y-163570737D01*
X95333492Y-163557362D01*
X95306662Y-163541281D01*
X95281537Y-163522647D01*
X95258360Y-163501640D01*
X95237353Y-163478463D01*
X95218719Y-163453338D01*
X95202638Y-163426508D01*
X95189263Y-163398230D01*
X95178725Y-163368778D01*
X95171125Y-163338435D01*
X95166535Y-163307493D01*
X95165000Y-163276250D01*
X95165000Y-162638750D01*
X95166535Y-162607507D01*
X95171125Y-162576565D01*
X95178725Y-162546222D01*
X95189263Y-162516770D01*
X95202638Y-162488492D01*
X95218719Y-162461662D01*
X95237353Y-162436537D01*
X95258360Y-162413360D01*
X95281537Y-162392353D01*
X95306662Y-162373719D01*
X95333492Y-162357638D01*
X95361770Y-162344263D01*
X95391222Y-162333725D01*
X95421565Y-162326125D01*
X95452507Y-162321535D01*
X95483750Y-162320000D01*
X96196250Y-162320000D01*
X96227493Y-162321535D01*
X96227493Y-162321535D01*
G37*
D23*
X95840000Y-162957500D03*
D10*
G36*
X96227493Y-160746535D02*
G01*
X96258435Y-160751125D01*
X96288778Y-160758725D01*
X96318230Y-160769263D01*
X96346508Y-160782638D01*
X96373338Y-160798719D01*
X96398463Y-160817353D01*
X96421640Y-160838360D01*
X96442647Y-160861537D01*
X96461281Y-160886662D01*
X96477362Y-160913492D01*
X96490737Y-160941770D01*
X96501275Y-160971222D01*
X96508875Y-161001565D01*
X96513465Y-161032507D01*
X96515000Y-161063750D01*
X96515000Y-161701250D01*
X96513465Y-161732493D01*
X96508875Y-161763435D01*
X96501275Y-161793778D01*
X96490737Y-161823230D01*
X96477362Y-161851508D01*
X96461281Y-161878338D01*
X96442647Y-161903463D01*
X96421640Y-161926640D01*
X96398463Y-161947647D01*
X96373338Y-161966281D01*
X96346508Y-161982362D01*
X96318230Y-161995737D01*
X96288778Y-162006275D01*
X96258435Y-162013875D01*
X96227493Y-162018465D01*
X96196250Y-162020000D01*
X95483750Y-162020000D01*
X95452507Y-162018465D01*
X95421565Y-162013875D01*
X95391222Y-162006275D01*
X95361770Y-161995737D01*
X95333492Y-161982362D01*
X95306662Y-161966281D01*
X95281537Y-161947647D01*
X95258360Y-161926640D01*
X95237353Y-161903463D01*
X95218719Y-161878338D01*
X95202638Y-161851508D01*
X95189263Y-161823230D01*
X95178725Y-161793778D01*
X95171125Y-161763435D01*
X95166535Y-161732493D01*
X95165000Y-161701250D01*
X95165000Y-161063750D01*
X95166535Y-161032507D01*
X95171125Y-161001565D01*
X95178725Y-160971222D01*
X95189263Y-160941770D01*
X95202638Y-160913492D01*
X95218719Y-160886662D01*
X95237353Y-160861537D01*
X95258360Y-160838360D01*
X95281537Y-160817353D01*
X95306662Y-160798719D01*
X95333492Y-160782638D01*
X95361770Y-160769263D01*
X95391222Y-160758725D01*
X95421565Y-160751125D01*
X95452507Y-160746535D01*
X95483750Y-160745000D01*
X96196250Y-160745000D01*
X96227493Y-160746535D01*
X96227493Y-160746535D01*
G37*
D23*
X95840000Y-161382500D03*
D10*
G36*
X102922493Y-145846535D02*
G01*
X102953435Y-145851125D01*
X102983778Y-145858725D01*
X103013230Y-145869263D01*
X103041508Y-145882638D01*
X103068338Y-145898719D01*
X103093463Y-145917353D01*
X103116640Y-145938360D01*
X103137647Y-145961537D01*
X103156281Y-145986662D01*
X103172362Y-146013492D01*
X103185737Y-146041770D01*
X103196275Y-146071222D01*
X103203875Y-146101565D01*
X103208465Y-146132507D01*
X103210000Y-146163750D01*
X103210000Y-146876250D01*
X103208465Y-146907493D01*
X103203875Y-146938435D01*
X103196275Y-146968778D01*
X103185737Y-146998230D01*
X103172362Y-147026508D01*
X103156281Y-147053338D01*
X103137647Y-147078463D01*
X103116640Y-147101640D01*
X103093463Y-147122647D01*
X103068338Y-147141281D01*
X103041508Y-147157362D01*
X103013230Y-147170737D01*
X102983778Y-147181275D01*
X102953435Y-147188875D01*
X102922493Y-147193465D01*
X102891250Y-147195000D01*
X102253750Y-147195000D01*
X102222507Y-147193465D01*
X102191565Y-147188875D01*
X102161222Y-147181275D01*
X102131770Y-147170737D01*
X102103492Y-147157362D01*
X102076662Y-147141281D01*
X102051537Y-147122647D01*
X102028360Y-147101640D01*
X102007353Y-147078463D01*
X101988719Y-147053338D01*
X101972638Y-147026508D01*
X101959263Y-146998230D01*
X101948725Y-146968778D01*
X101941125Y-146938435D01*
X101936535Y-146907493D01*
X101935000Y-146876250D01*
X101935000Y-146163750D01*
X101936535Y-146132507D01*
X101941125Y-146101565D01*
X101948725Y-146071222D01*
X101959263Y-146041770D01*
X101972638Y-146013492D01*
X101988719Y-145986662D01*
X102007353Y-145961537D01*
X102028360Y-145938360D01*
X102051537Y-145917353D01*
X102076662Y-145898719D01*
X102103492Y-145882638D01*
X102131770Y-145869263D01*
X102161222Y-145858725D01*
X102191565Y-145851125D01*
X102222507Y-145846535D01*
X102253750Y-145845000D01*
X102891250Y-145845000D01*
X102922493Y-145846535D01*
X102922493Y-145846535D01*
G37*
D23*
X102572500Y-146520000D03*
D10*
G36*
X104497493Y-145846535D02*
G01*
X104528435Y-145851125D01*
X104558778Y-145858725D01*
X104588230Y-145869263D01*
X104616508Y-145882638D01*
X104643338Y-145898719D01*
X104668463Y-145917353D01*
X104691640Y-145938360D01*
X104712647Y-145961537D01*
X104731281Y-145986662D01*
X104747362Y-146013492D01*
X104760737Y-146041770D01*
X104771275Y-146071222D01*
X104778875Y-146101565D01*
X104783465Y-146132507D01*
X104785000Y-146163750D01*
X104785000Y-146876250D01*
X104783465Y-146907493D01*
X104778875Y-146938435D01*
X104771275Y-146968778D01*
X104760737Y-146998230D01*
X104747362Y-147026508D01*
X104731281Y-147053338D01*
X104712647Y-147078463D01*
X104691640Y-147101640D01*
X104668463Y-147122647D01*
X104643338Y-147141281D01*
X104616508Y-147157362D01*
X104588230Y-147170737D01*
X104558778Y-147181275D01*
X104528435Y-147188875D01*
X104497493Y-147193465D01*
X104466250Y-147195000D01*
X103828750Y-147195000D01*
X103797507Y-147193465D01*
X103766565Y-147188875D01*
X103736222Y-147181275D01*
X103706770Y-147170737D01*
X103678492Y-147157362D01*
X103651662Y-147141281D01*
X103626537Y-147122647D01*
X103603360Y-147101640D01*
X103582353Y-147078463D01*
X103563719Y-147053338D01*
X103547638Y-147026508D01*
X103534263Y-146998230D01*
X103523725Y-146968778D01*
X103516125Y-146938435D01*
X103511535Y-146907493D01*
X103510000Y-146876250D01*
X103510000Y-146163750D01*
X103511535Y-146132507D01*
X103516125Y-146101565D01*
X103523725Y-146071222D01*
X103534263Y-146041770D01*
X103547638Y-146013492D01*
X103563719Y-145986662D01*
X103582353Y-145961537D01*
X103603360Y-145938360D01*
X103626537Y-145917353D01*
X103651662Y-145898719D01*
X103678492Y-145882638D01*
X103706770Y-145869263D01*
X103736222Y-145858725D01*
X103766565Y-145851125D01*
X103797507Y-145846535D01*
X103828750Y-145845000D01*
X104466250Y-145845000D01*
X104497493Y-145846535D01*
X104497493Y-145846535D01*
G37*
D23*
X104147500Y-146520000D03*
D10*
G36*
X111417493Y-160746535D02*
G01*
X111448435Y-160751125D01*
X111478778Y-160758725D01*
X111508230Y-160769263D01*
X111536508Y-160782638D01*
X111563338Y-160798719D01*
X111588463Y-160817353D01*
X111611640Y-160838360D01*
X111632647Y-160861537D01*
X111651281Y-160886662D01*
X111667362Y-160913492D01*
X111680737Y-160941770D01*
X111691275Y-160971222D01*
X111698875Y-161001565D01*
X111703465Y-161032507D01*
X111705000Y-161063750D01*
X111705000Y-161701250D01*
X111703465Y-161732493D01*
X111698875Y-161763435D01*
X111691275Y-161793778D01*
X111680737Y-161823230D01*
X111667362Y-161851508D01*
X111651281Y-161878338D01*
X111632647Y-161903463D01*
X111611640Y-161926640D01*
X111588463Y-161947647D01*
X111563338Y-161966281D01*
X111536508Y-161982362D01*
X111508230Y-161995737D01*
X111478778Y-162006275D01*
X111448435Y-162013875D01*
X111417493Y-162018465D01*
X111386250Y-162020000D01*
X110673750Y-162020000D01*
X110642507Y-162018465D01*
X110611565Y-162013875D01*
X110581222Y-162006275D01*
X110551770Y-161995737D01*
X110523492Y-161982362D01*
X110496662Y-161966281D01*
X110471537Y-161947647D01*
X110448360Y-161926640D01*
X110427353Y-161903463D01*
X110408719Y-161878338D01*
X110392638Y-161851508D01*
X110379263Y-161823230D01*
X110368725Y-161793778D01*
X110361125Y-161763435D01*
X110356535Y-161732493D01*
X110355000Y-161701250D01*
X110355000Y-161063750D01*
X110356535Y-161032507D01*
X110361125Y-161001565D01*
X110368725Y-160971222D01*
X110379263Y-160941770D01*
X110392638Y-160913492D01*
X110408719Y-160886662D01*
X110427353Y-160861537D01*
X110448360Y-160838360D01*
X110471537Y-160817353D01*
X110496662Y-160798719D01*
X110523492Y-160782638D01*
X110551770Y-160769263D01*
X110581222Y-160758725D01*
X110611565Y-160751125D01*
X110642507Y-160746535D01*
X110673750Y-160745000D01*
X111386250Y-160745000D01*
X111417493Y-160746535D01*
X111417493Y-160746535D01*
G37*
D23*
X111030000Y-161382500D03*
D10*
G36*
X111417493Y-162321535D02*
G01*
X111448435Y-162326125D01*
X111478778Y-162333725D01*
X111508230Y-162344263D01*
X111536508Y-162357638D01*
X111563338Y-162373719D01*
X111588463Y-162392353D01*
X111611640Y-162413360D01*
X111632647Y-162436537D01*
X111651281Y-162461662D01*
X111667362Y-162488492D01*
X111680737Y-162516770D01*
X111691275Y-162546222D01*
X111698875Y-162576565D01*
X111703465Y-162607507D01*
X111705000Y-162638750D01*
X111705000Y-163276250D01*
X111703465Y-163307493D01*
X111698875Y-163338435D01*
X111691275Y-163368778D01*
X111680737Y-163398230D01*
X111667362Y-163426508D01*
X111651281Y-163453338D01*
X111632647Y-163478463D01*
X111611640Y-163501640D01*
X111588463Y-163522647D01*
X111563338Y-163541281D01*
X111536508Y-163557362D01*
X111508230Y-163570737D01*
X111478778Y-163581275D01*
X111448435Y-163588875D01*
X111417493Y-163593465D01*
X111386250Y-163595000D01*
X110673750Y-163595000D01*
X110642507Y-163593465D01*
X110611565Y-163588875D01*
X110581222Y-163581275D01*
X110551770Y-163570737D01*
X110523492Y-163557362D01*
X110496662Y-163541281D01*
X110471537Y-163522647D01*
X110448360Y-163501640D01*
X110427353Y-163478463D01*
X110408719Y-163453338D01*
X110392638Y-163426508D01*
X110379263Y-163398230D01*
X110368725Y-163368778D01*
X110361125Y-163338435D01*
X110356535Y-163307493D01*
X110355000Y-163276250D01*
X110355000Y-162638750D01*
X110356535Y-162607507D01*
X110361125Y-162576565D01*
X110368725Y-162546222D01*
X110379263Y-162516770D01*
X110392638Y-162488492D01*
X110408719Y-162461662D01*
X110427353Y-162436537D01*
X110448360Y-162413360D01*
X110471537Y-162392353D01*
X110496662Y-162373719D01*
X110523492Y-162357638D01*
X110551770Y-162344263D01*
X110581222Y-162333725D01*
X110611565Y-162326125D01*
X110642507Y-162321535D01*
X110673750Y-162320000D01*
X111386250Y-162320000D01*
X111417493Y-162321535D01*
X111417493Y-162321535D01*
G37*
D23*
X111030000Y-162957500D03*
D10*
G36*
X104497493Y-147686535D02*
G01*
X104528435Y-147691125D01*
X104558778Y-147698725D01*
X104588230Y-147709263D01*
X104616508Y-147722638D01*
X104643338Y-147738719D01*
X104668463Y-147757353D01*
X104691640Y-147778360D01*
X104712647Y-147801537D01*
X104731281Y-147826662D01*
X104747362Y-147853492D01*
X104760737Y-147881770D01*
X104771275Y-147911222D01*
X104778875Y-147941565D01*
X104783465Y-147972507D01*
X104785000Y-148003750D01*
X104785000Y-148716250D01*
X104783465Y-148747493D01*
X104778875Y-148778435D01*
X104771275Y-148808778D01*
X104760737Y-148838230D01*
X104747362Y-148866508D01*
X104731281Y-148893338D01*
X104712647Y-148918463D01*
X104691640Y-148941640D01*
X104668463Y-148962647D01*
X104643338Y-148981281D01*
X104616508Y-148997362D01*
X104588230Y-149010737D01*
X104558778Y-149021275D01*
X104528435Y-149028875D01*
X104497493Y-149033465D01*
X104466250Y-149035000D01*
X103828750Y-149035000D01*
X103797507Y-149033465D01*
X103766565Y-149028875D01*
X103736222Y-149021275D01*
X103706770Y-149010737D01*
X103678492Y-148997362D01*
X103651662Y-148981281D01*
X103626537Y-148962647D01*
X103603360Y-148941640D01*
X103582353Y-148918463D01*
X103563719Y-148893338D01*
X103547638Y-148866508D01*
X103534263Y-148838230D01*
X103523725Y-148808778D01*
X103516125Y-148778435D01*
X103511535Y-148747493D01*
X103510000Y-148716250D01*
X103510000Y-148003750D01*
X103511535Y-147972507D01*
X103516125Y-147941565D01*
X103523725Y-147911222D01*
X103534263Y-147881770D01*
X103547638Y-147853492D01*
X103563719Y-147826662D01*
X103582353Y-147801537D01*
X103603360Y-147778360D01*
X103626537Y-147757353D01*
X103651662Y-147738719D01*
X103678492Y-147722638D01*
X103706770Y-147709263D01*
X103736222Y-147698725D01*
X103766565Y-147691125D01*
X103797507Y-147686535D01*
X103828750Y-147685000D01*
X104466250Y-147685000D01*
X104497493Y-147686535D01*
X104497493Y-147686535D01*
G37*
D23*
X104147500Y-148360000D03*
D10*
G36*
X102922493Y-147686535D02*
G01*
X102953435Y-147691125D01*
X102983778Y-147698725D01*
X103013230Y-147709263D01*
X103041508Y-147722638D01*
X103068338Y-147738719D01*
X103093463Y-147757353D01*
X103116640Y-147778360D01*
X103137647Y-147801537D01*
X103156281Y-147826662D01*
X103172362Y-147853492D01*
X103185737Y-147881770D01*
X103196275Y-147911222D01*
X103203875Y-147941565D01*
X103208465Y-147972507D01*
X103210000Y-148003750D01*
X103210000Y-148716250D01*
X103208465Y-148747493D01*
X103203875Y-148778435D01*
X103196275Y-148808778D01*
X103185737Y-148838230D01*
X103172362Y-148866508D01*
X103156281Y-148893338D01*
X103137647Y-148918463D01*
X103116640Y-148941640D01*
X103093463Y-148962647D01*
X103068338Y-148981281D01*
X103041508Y-148997362D01*
X103013230Y-149010737D01*
X102983778Y-149021275D01*
X102953435Y-149028875D01*
X102922493Y-149033465D01*
X102891250Y-149035000D01*
X102253750Y-149035000D01*
X102222507Y-149033465D01*
X102191565Y-149028875D01*
X102161222Y-149021275D01*
X102131770Y-149010737D01*
X102103492Y-148997362D01*
X102076662Y-148981281D01*
X102051537Y-148962647D01*
X102028360Y-148941640D01*
X102007353Y-148918463D01*
X101988719Y-148893338D01*
X101972638Y-148866508D01*
X101959263Y-148838230D01*
X101948725Y-148808778D01*
X101941125Y-148778435D01*
X101936535Y-148747493D01*
X101935000Y-148716250D01*
X101935000Y-148003750D01*
X101936535Y-147972507D01*
X101941125Y-147941565D01*
X101948725Y-147911222D01*
X101959263Y-147881770D01*
X101972638Y-147853492D01*
X101988719Y-147826662D01*
X102007353Y-147801537D01*
X102028360Y-147778360D01*
X102051537Y-147757353D01*
X102076662Y-147738719D01*
X102103492Y-147722638D01*
X102131770Y-147709263D01*
X102161222Y-147698725D01*
X102191565Y-147691125D01*
X102222507Y-147686535D01*
X102253750Y-147685000D01*
X102891250Y-147685000D01*
X102922493Y-147686535D01*
X102922493Y-147686535D01*
G37*
D23*
X102572500Y-148360000D03*
D10*
G36*
X103272493Y-155216535D02*
G01*
X103303435Y-155221125D01*
X103333778Y-155228725D01*
X103363230Y-155239263D01*
X103391508Y-155252638D01*
X103418338Y-155268719D01*
X103443463Y-155287353D01*
X103466640Y-155308360D01*
X103487647Y-155331537D01*
X103506281Y-155356662D01*
X103522362Y-155383492D01*
X103535737Y-155411770D01*
X103546275Y-155441222D01*
X103553875Y-155471565D01*
X103558465Y-155502507D01*
X103560000Y-155533750D01*
X103560000Y-156246250D01*
X103558465Y-156277493D01*
X103553875Y-156308435D01*
X103546275Y-156338778D01*
X103535737Y-156368230D01*
X103522362Y-156396508D01*
X103506281Y-156423338D01*
X103487647Y-156448463D01*
X103466640Y-156471640D01*
X103443463Y-156492647D01*
X103418338Y-156511281D01*
X103391508Y-156527362D01*
X103363230Y-156540737D01*
X103333778Y-156551275D01*
X103303435Y-156558875D01*
X103272493Y-156563465D01*
X103241250Y-156565000D01*
X102603750Y-156565000D01*
X102572507Y-156563465D01*
X102541565Y-156558875D01*
X102511222Y-156551275D01*
X102481770Y-156540737D01*
X102453492Y-156527362D01*
X102426662Y-156511281D01*
X102401537Y-156492647D01*
X102378360Y-156471640D01*
X102357353Y-156448463D01*
X102338719Y-156423338D01*
X102322638Y-156396508D01*
X102309263Y-156368230D01*
X102298725Y-156338778D01*
X102291125Y-156308435D01*
X102286535Y-156277493D01*
X102285000Y-156246250D01*
X102285000Y-155533750D01*
X102286535Y-155502507D01*
X102291125Y-155471565D01*
X102298725Y-155441222D01*
X102309263Y-155411770D01*
X102322638Y-155383492D01*
X102338719Y-155356662D01*
X102357353Y-155331537D01*
X102378360Y-155308360D01*
X102401537Y-155287353D01*
X102426662Y-155268719D01*
X102453492Y-155252638D01*
X102481770Y-155239263D01*
X102511222Y-155228725D01*
X102541565Y-155221125D01*
X102572507Y-155216535D01*
X102603750Y-155215000D01*
X103241250Y-155215000D01*
X103272493Y-155216535D01*
X103272493Y-155216535D01*
G37*
D23*
X102922500Y-155890000D03*
D10*
G36*
X104847493Y-155216535D02*
G01*
X104878435Y-155221125D01*
X104908778Y-155228725D01*
X104938230Y-155239263D01*
X104966508Y-155252638D01*
X104993338Y-155268719D01*
X105018463Y-155287353D01*
X105041640Y-155308360D01*
X105062647Y-155331537D01*
X105081281Y-155356662D01*
X105097362Y-155383492D01*
X105110737Y-155411770D01*
X105121275Y-155441222D01*
X105128875Y-155471565D01*
X105133465Y-155502507D01*
X105135000Y-155533750D01*
X105135000Y-156246250D01*
X105133465Y-156277493D01*
X105128875Y-156308435D01*
X105121275Y-156338778D01*
X105110737Y-156368230D01*
X105097362Y-156396508D01*
X105081281Y-156423338D01*
X105062647Y-156448463D01*
X105041640Y-156471640D01*
X105018463Y-156492647D01*
X104993338Y-156511281D01*
X104966508Y-156527362D01*
X104938230Y-156540737D01*
X104908778Y-156551275D01*
X104878435Y-156558875D01*
X104847493Y-156563465D01*
X104816250Y-156565000D01*
X104178750Y-156565000D01*
X104147507Y-156563465D01*
X104116565Y-156558875D01*
X104086222Y-156551275D01*
X104056770Y-156540737D01*
X104028492Y-156527362D01*
X104001662Y-156511281D01*
X103976537Y-156492647D01*
X103953360Y-156471640D01*
X103932353Y-156448463D01*
X103913719Y-156423338D01*
X103897638Y-156396508D01*
X103884263Y-156368230D01*
X103873725Y-156338778D01*
X103866125Y-156308435D01*
X103861535Y-156277493D01*
X103860000Y-156246250D01*
X103860000Y-155533750D01*
X103861535Y-155502507D01*
X103866125Y-155471565D01*
X103873725Y-155441222D01*
X103884263Y-155411770D01*
X103897638Y-155383492D01*
X103913719Y-155356662D01*
X103932353Y-155331537D01*
X103953360Y-155308360D01*
X103976537Y-155287353D01*
X104001662Y-155268719D01*
X104028492Y-155252638D01*
X104056770Y-155239263D01*
X104086222Y-155228725D01*
X104116565Y-155221125D01*
X104147507Y-155216535D01*
X104178750Y-155215000D01*
X104816250Y-155215000D01*
X104847493Y-155216535D01*
X104847493Y-155216535D01*
G37*
D23*
X104497500Y-155890000D03*
D31*
X112450000Y-136380000D03*
X109910000Y-136380000D03*
X107370000Y-136380000D03*
X104830000Y-136380000D03*
X102290000Y-136380000D03*
X99750000Y-136380000D03*
X97210000Y-136380000D03*
X94670000Y-136380000D03*
X112450000Y-118600000D03*
X109910000Y-118600000D03*
X107370000Y-118600000D03*
X104830000Y-118600000D03*
X102290000Y-118600000D03*
X99750000Y-118600000D03*
X97210000Y-118600000D03*
X94670000Y-118600000D03*
D32*
X91750000Y-38550000D03*
X91750000Y-41090000D03*
D33*
X89210000Y-38550000D03*
X89210000Y-41090000D03*
X86670000Y-38550000D03*
D34*
X86670000Y-41090000D03*
X115090000Y-41030000D03*
D33*
X115090000Y-38490000D03*
X117630000Y-41030000D03*
X117630000Y-38490000D03*
D32*
X120170000Y-41030000D03*
X120170000Y-38490000D03*
M02*
