M48
; DRILL file {KiCad (5.1.0)-1} date 4/28/2019 10:35:55 PM
; FORMAT={3:3/ absolute / metric / suppress leading zeros}
; #@! TF.CreationDate,2019-04-28T22:35:55-06:00
; #@! TF.GenerationSoftware,Kicad,Pcbnew,(5.1.0)-1
FMAT,2
METRIC,TZ
T1C0.200
T2C0.400
T3C0.600
T4C0.650
T5C0.850
T6C0.900
T7C1.016
T8C1.020
T9C0.720
T10C0.900
T11C1.000
T12C1.500
T13C3.500
T14C5.000
%
G90
G05
T1
X95898Y-71070
X96629Y-70339
X96629Y-71801
X97359Y-69609
X97359Y-71070
X97359Y-72531
X98090Y-68878
X98090Y-70339
X98090Y-71801
X98090Y-73262
X98821Y-69609
X98821Y-71070
X98821Y-72531
X99551Y-70339
X99551Y-71801
X100282Y-71070
T2
X62180Y-104340
X62260Y-95150
X64550Y-95210
X66030Y-104330
X68110Y-97530
X69970Y-95070
X72977Y-92373
X74240Y-113230
X74280Y-108790
X75130Y-87950
X75140Y-86780
X76170Y-92380
X76170Y-93980
X76900Y-118310
X77010Y-101380
X77840Y-96090
X77840Y-99710
X78140Y-116840
X78808Y-78388
X79140Y-118310
X79920Y-115610
X79920Y-137480
X81300Y-59190
X81370Y-122120
X81380Y-119330
X81910Y-65380
X82340Y-104330
X82363Y-68897
X82363Y-86398
X82560Y-118060
X83300Y-122120
X84120Y-98250
X84510Y-121410
X84900Y-120010
X85220Y-117660
X85280Y-71860
X85590Y-155790
X86140Y-96150
X86320Y-94110
X86410Y-119810
X86470Y-111320
X86630Y-72510
X86840Y-77190
X87590Y-72520
X87600Y-121970
X87630Y-76430
X87630Y-87050
X87990Y-48120
X88020Y-51060
X88220Y-162630
X88330Y-75780
X88330Y-125880
X88550Y-72510
X89030Y-75130
X89030Y-126530
X89510Y-72510
X89730Y-74480
X90440Y-73830
X90650Y-67590
X90660Y-64250
X90940Y-31720
X90940Y-35250
X91130Y-73170
X91190Y-122000
X91208Y-123598
X91830Y-72520
X91830Y-89510
X92060Y-45220
X92060Y-48600
X92253Y-58039
X92304Y-55778
X92380Y-151330
X92490Y-68250
X93140Y-66940
X93640Y-146740
X93820Y-109910
X93840Y-66290
X93840Y-78680
X93850Y-105200
X93920Y-143160
X94240Y-162630
X94520Y-65620
X94970Y-42520
X94996Y-54534
X95200Y-106780
X95870Y-105200
X96610Y-63110
X97550Y-161400
X97930Y-65500
X98090Y-77460
X99960Y-50370
X99974Y-88748
X100120Y-74210
X100170Y-108680
X100680Y-85410
X101330Y-86110
X101340Y-146520
X101420Y-155880
X101690Y-73600
X101730Y-74610
X101980Y-86810
X102020Y-68730
X102110Y-75520
X102610Y-149700
X102630Y-86110
X103070Y-75530
X103280Y-50370
X103280Y-85410
X104030Y-75520
X104980Y-87110
X105000Y-75510
X105270Y-145750
X105440Y-148530
X105486Y-40107
X105790Y-155890
X105990Y-65500
X106350Y-108680
X106375Y-36424
X106386Y-39435
X106570Y-88710
X106600Y-72490
X106629Y-41427
X106710Y-50360
X107360Y-71770
X107370Y-69620
X107850Y-128350
X107874Y-42520
X108000Y-121190
X108077Y-53924
X108110Y-70800
X108340Y-112670
X108380Y-114040
X108712Y-56185
X108870Y-121920
X108870Y-128360
X109000Y-95720
X109080Y-113390
X109080Y-114720
X109144Y-44475
X109170Y-52580
X109220Y-161400
X109372Y-42113
X109400Y-63420
X109780Y-35220
X109930Y-111320
X109960Y-65400
X109960Y-99710
X110250Y-94570
X110840Y-65970
X110930Y-98570
X111100Y-62400
X111110Y-54080
X111240Y-33520
X111300Y-36830
X111500Y-148520
X111830Y-74570
X111830Y-93430
X111830Y-97250
X111840Y-65670
X111840Y-69620
X111887Y-46101
X111931Y-53459
X111940Y-63440
X111979Y-42912
X111990Y-37500
X112990Y-105200
X113010Y-106780
X113030Y-109910
X113120Y-123600
X113230Y-96810
X113600Y-83160
X113640Y-44540
X113800Y-148670
X114010Y-131200
X114070Y-45440
X114260Y-72430
X114260Y-102520
X114280Y-59780
X114300Y-58780
X114310Y-57800
X114340Y-56810
X114427Y-54356
X114430Y-119640
X114570Y-120640
X114670Y-151330
X114830Y-116740
X115020Y-73150
X115020Y-101860
X115680Y-101130
X115770Y-122290
X115950Y-135060
X116027Y-56794
X116332Y-68809
X116390Y-100480
X116400Y-73150
X116450Y-109920
X116860Y-67870
X117050Y-78680
X117050Y-89820
X117070Y-72440
X117080Y-97010
X117090Y-65610
X117450Y-102440
X117570Y-112460
X117680Y-132290
X117720Y-66760
X117750Y-73150
X118200Y-100350
X118270Y-113220
X118430Y-72450
X118890Y-101460
X118900Y-114000
X118990Y-154810
X119080Y-73150
X119170Y-97000
X119228Y-43332
X119228Y-46609
X119300Y-99190
X119560Y-114710
X119660Y-132260
X119660Y-153480
X119760Y-72400
X120150Y-93820
X120410Y-73150
X120505Y-89845
X120650Y-110170
X120740Y-67620
X120970Y-135050
X121564Y-51613
X121640Y-123810
X122142Y-56769
X122540Y-91700
X122670Y-98120
X122784Y-72365
X122800Y-100080
X123419Y-74803
X126450Y-123050
X126770Y-91690
X126898Y-74016
X128760Y-124720
X130120Y-98740
X130950Y-100380
X132260Y-112350
X134720Y-111990
X136440Y-98730
X136640Y-103650
X139500Y-90420
X145090Y-107600
T4
X117323Y-48616
X117323Y-49886
X118593Y-48616
X118593Y-49886
X119863Y-48616
X119863Y-49886
X121133Y-48616
X121133Y-49886
X122403Y-48616
X122403Y-49886
T5
X84549Y-51116
X85520Y-46212
T6
X101480Y-187450
X102750Y-187450
X104020Y-187450
X105290Y-187450
T7
X115090Y-38490
X115090Y-41030
X117630Y-38490
X117630Y-41030
X120170Y-38490
X120170Y-41030
X94670Y-118600
X94670Y-136380
X97210Y-118600
X97210Y-136380
X99750Y-118600
X99750Y-136380
X102290Y-118600
X102290Y-136380
X104830Y-118600
X104830Y-136380
X107370Y-118600
X107370Y-136380
X109910Y-118600
X109910Y-136380
X112450Y-118600
X112450Y-136380
X86670Y-38550
X86670Y-41090
X89210Y-38550
X89210Y-41090
X91750Y-38550
X91750Y-41090
T8
X90710Y-141270
X103410Y-141270
T9
X86930Y-88560
X119530Y-88560
T10
X77752Y-81172
X79108Y-74508
T11
X99177Y-30969
X99167Y-26549
X102990Y-24330
X139000Y-96460
X139000Y-104440
X103010Y-33170
X106833Y-30951
X106823Y-26531
T12
X84860Y-35710
X113010Y-35680
T13
X90710Y-164994
X114205Y-164994
T3
G00X82050Y-51641
M15
G01X81363Y-51505
M16
G05
G00X82723Y-44638
M15
G01X83409Y-44774
M16
G05
T14
G00X105730Y-60260
M15
G01X100730Y-60260
M16
G05
T0
M30
