G04 #@! TF.GenerationSoftware,KiCad,Pcbnew,(5.1.0)-1*
G04 #@! TF.CreationDate,2019-04-28T22:44:37-06:00*
G04 #@! TF.ProjectId,hcrn,6863726e-2e6b-4696-9361-645f70636258,0.1*
G04 #@! TF.SameCoordinates,Original*
G04 #@! TF.FileFunction,Paste,Top*
G04 #@! TF.FilePolarity,Positive*
%FSLAX46Y46*%
G04 Gerber Fmt 4.6, Leading zero omitted, Abs format (unit mm)*
G04 Created by KiCad (PCBNEW (5.1.0)-1) date 2019-04-28 22:44:37*
%MOMM*%
%LPD*%
G04 APERTURE LIST*
%ADD10C,0.100000*%
%ADD11C,0.150000*%
%ADD12C,0.300000*%
%ADD13C,0.400000*%
%ADD14R,1.550000X1.300000*%
%ADD15C,0.875000*%
G04 APERTURE END LIST*
D10*
D11*
X159400000Y-171900000D02*
X159400000Y-203900000D01*
X267400000Y-203900000D01*
X267400000Y-171900000D01*
X159400000Y-171900000D01*
D10*
D11*
X10000000Y-10000000D02*
X10000000Y-205900000D01*
X269400000Y-205900000D01*
X269400000Y-10000000D01*
X10000000Y-10000000D01*
D10*
D11*
X12000000Y-12000000D02*
X12000000Y-203900000D01*
X267400000Y-203900000D01*
X267400000Y-12000000D01*
X12000000Y-12000000D01*
D10*
D11*
X60000000Y-12000000D02*
X60000000Y-10000000D01*
D10*
D11*
X110000000Y-12000000D02*
X110000000Y-10000000D01*
D10*
D11*
X160000000Y-12000000D02*
X160000000Y-10000000D01*
D10*
D11*
X210000000Y-12000000D02*
X210000000Y-10000000D01*
D10*
D11*
X260000000Y-12000000D02*
X260000000Y-10000000D01*
D10*
D11*
X36065476Y-11588095D02*
X35322619Y-11588095D01*
X35694047Y-11588095D02*
X35694047Y-10288095D01*
X35570238Y-10473809D01*
X35446428Y-10597619D01*
X35322619Y-10659523D01*
D10*
D11*
X85322619Y-10411904D02*
X85384523Y-10350000D01*
X85508333Y-10288095D01*
X85817857Y-10288095D01*
X85941666Y-10350000D01*
X86003571Y-10411904D01*
X86065476Y-10535714D01*
X86065476Y-10659523D01*
X86003571Y-10845238D01*
X85260714Y-11588095D01*
X86065476Y-11588095D01*
D10*
D11*
X135260714Y-10288095D02*
X136065476Y-10288095D01*
X135632142Y-10783333D01*
X135817857Y-10783333D01*
X135941666Y-10845238D01*
X136003571Y-10907142D01*
X136065476Y-11030952D01*
X136065476Y-11340476D01*
X136003571Y-11464285D01*
X135941666Y-11526190D01*
X135817857Y-11588095D01*
X135446428Y-11588095D01*
X135322619Y-11526190D01*
X135260714Y-11464285D01*
D10*
D11*
X185941666Y-10721428D02*
X185941666Y-11588095D01*
X185632142Y-10226190D02*
X185322619Y-11154761D01*
X186127380Y-11154761D01*
D10*
D11*
X236003571Y-10288095D02*
X235384523Y-10288095D01*
X235322619Y-10907142D01*
X235384523Y-10845238D01*
X235508333Y-10783333D01*
X235817857Y-10783333D01*
X235941666Y-10845238D01*
X236003571Y-10907142D01*
X236065476Y-11030952D01*
X236065476Y-11340476D01*
X236003571Y-11464285D01*
X235941666Y-11526190D01*
X235817857Y-11588095D01*
X235508333Y-11588095D01*
X235384523Y-11526190D01*
X235322619Y-11464285D01*
D10*
D11*
X60000000Y-203900000D02*
X60000000Y-205900000D01*
D10*
D11*
X110000000Y-203900000D02*
X110000000Y-205900000D01*
D10*
D11*
X160000000Y-203900000D02*
X160000000Y-205900000D01*
D10*
D11*
X210000000Y-203900000D02*
X210000000Y-205900000D01*
D10*
D11*
X260000000Y-203900000D02*
X260000000Y-205900000D01*
D10*
D11*
X36065476Y-205488095D02*
X35322619Y-205488095D01*
X35694047Y-205488095D02*
X35694047Y-204188095D01*
X35570238Y-204373809D01*
X35446428Y-204497619D01*
X35322619Y-204559523D01*
D10*
D11*
X85322619Y-204311904D02*
X85384523Y-204250000D01*
X85508333Y-204188095D01*
X85817857Y-204188095D01*
X85941666Y-204250000D01*
X86003571Y-204311904D01*
X86065476Y-204435714D01*
X86065476Y-204559523D01*
X86003571Y-204745238D01*
X85260714Y-205488095D01*
X86065476Y-205488095D01*
D10*
D11*
X135260714Y-204188095D02*
X136065476Y-204188095D01*
X135632142Y-204683333D01*
X135817857Y-204683333D01*
X135941666Y-204745238D01*
X136003571Y-204807142D01*
X136065476Y-204930952D01*
X136065476Y-205240476D01*
X136003571Y-205364285D01*
X135941666Y-205426190D01*
X135817857Y-205488095D01*
X135446428Y-205488095D01*
X135322619Y-205426190D01*
X135260714Y-205364285D01*
D10*
D11*
X185941666Y-204621428D02*
X185941666Y-205488095D01*
X185632142Y-204126190D02*
X185322619Y-205054761D01*
X186127380Y-205054761D01*
D10*
D11*
X236003571Y-204188095D02*
X235384523Y-204188095D01*
X235322619Y-204807142D01*
X235384523Y-204745238D01*
X235508333Y-204683333D01*
X235817857Y-204683333D01*
X235941666Y-204745238D01*
X236003571Y-204807142D01*
X236065476Y-204930952D01*
X236065476Y-205240476D01*
X236003571Y-205364285D01*
X235941666Y-205426190D01*
X235817857Y-205488095D01*
X235508333Y-205488095D01*
X235384523Y-205426190D01*
X235322619Y-205364285D01*
D10*
D11*
X10000000Y-60000000D02*
X12000000Y-60000000D01*
D10*
D11*
X10000000Y-110000000D02*
X12000000Y-110000000D01*
D10*
D11*
X10000000Y-160000000D02*
X12000000Y-160000000D01*
D10*
D11*
X10690476Y-35216666D02*
X11309523Y-35216666D01*
X10566666Y-35588095D02*
X11000000Y-34288095D01*
X11433333Y-35588095D01*
D10*
D11*
X11092857Y-84907142D02*
X11278571Y-84969047D01*
X11340476Y-85030952D01*
X11402380Y-85154761D01*
X11402380Y-85340476D01*
X11340476Y-85464285D01*
X11278571Y-85526190D01*
X11154761Y-85588095D01*
X10659523Y-85588095D01*
X10659523Y-84288095D01*
X11092857Y-84288095D01*
X11216666Y-84350000D01*
X11278571Y-84411904D01*
X11340476Y-84535714D01*
X11340476Y-84659523D01*
X11278571Y-84783333D01*
X11216666Y-84845238D01*
X11092857Y-84907142D01*
X10659523Y-84907142D01*
D10*
D11*
X11402380Y-135464285D02*
X11340476Y-135526190D01*
X11154761Y-135588095D01*
X11030952Y-135588095D01*
X10845238Y-135526190D01*
X10721428Y-135402380D01*
X10659523Y-135278571D01*
X10597619Y-135030952D01*
X10597619Y-134845238D01*
X10659523Y-134597619D01*
X10721428Y-134473809D01*
X10845238Y-134350000D01*
X11030952Y-134288095D01*
X11154761Y-134288095D01*
X11340476Y-134350000D01*
X11402380Y-134411904D01*
D10*
D11*
X10659523Y-185588095D02*
X10659523Y-184288095D01*
X10969047Y-184288095D01*
X11154761Y-184350000D01*
X11278571Y-184473809D01*
X11340476Y-184597619D01*
X11402380Y-184845238D01*
X11402380Y-185030952D01*
X11340476Y-185278571D01*
X11278571Y-185402380D01*
X11154761Y-185526190D01*
X10969047Y-185588095D01*
X10659523Y-185588095D01*
D10*
D11*
X269400000Y-60000000D02*
X267400000Y-60000000D01*
D10*
D11*
X269400000Y-110000000D02*
X267400000Y-110000000D01*
D10*
D11*
X269400000Y-160000000D02*
X267400000Y-160000000D01*
D10*
D11*
X268090476Y-35216666D02*
X268709523Y-35216666D01*
X267966666Y-35588095D02*
X268400000Y-34288095D01*
X268833333Y-35588095D01*
D10*
D11*
X268492857Y-84907142D02*
X268678571Y-84969047D01*
X268740476Y-85030952D01*
X268802380Y-85154761D01*
X268802380Y-85340476D01*
X268740476Y-85464285D01*
X268678571Y-85526190D01*
X268554761Y-85588095D01*
X268059523Y-85588095D01*
X268059523Y-84288095D01*
X268492857Y-84288095D01*
X268616666Y-84350000D01*
X268678571Y-84411904D01*
X268740476Y-84535714D01*
X268740476Y-84659523D01*
X268678571Y-84783333D01*
X268616666Y-84845238D01*
X268492857Y-84907142D01*
X268059523Y-84907142D01*
D10*
D11*
X268802380Y-135464285D02*
X268740476Y-135526190D01*
X268554761Y-135588095D01*
X268430952Y-135588095D01*
X268245238Y-135526190D01*
X268121428Y-135402380D01*
X268059523Y-135278571D01*
X267997619Y-135030952D01*
X267997619Y-134845238D01*
X268059523Y-134597619D01*
X268121428Y-134473809D01*
X268245238Y-134350000D01*
X268430952Y-134288095D01*
X268554761Y-134288095D01*
X268740476Y-134350000D01*
X268802380Y-134411904D01*
D10*
D11*
X268059523Y-185588095D02*
X268059523Y-184288095D01*
X268369047Y-184288095D01*
X268554761Y-184350000D01*
X268678571Y-184473809D01*
X268740476Y-184597619D01*
X268802380Y-184845238D01*
X268802380Y-185030952D01*
X268740476Y-185278571D01*
X268678571Y-185402380D01*
X268554761Y-185526190D01*
X268369047Y-185588095D01*
X268059523Y-185588095D01*
D10*
D11*
X182832142Y-199678571D02*
X182832142Y-198178571D01*
X183189285Y-198178571D01*
X183403571Y-198250000D01*
X183546428Y-198392857D01*
X183617857Y-198535714D01*
X183689285Y-198821428D01*
X183689285Y-199035714D01*
X183617857Y-199321428D01*
X183546428Y-199464285D01*
X183403571Y-199607142D01*
X183189285Y-199678571D01*
X182832142Y-199678571D01*
X184975000Y-199678571D02*
X184975000Y-198892857D01*
X184903571Y-198750000D01*
X184760714Y-198678571D01*
X184475000Y-198678571D01*
X184332142Y-198750000D01*
X184975000Y-199607142D02*
X184832142Y-199678571D01*
X184475000Y-199678571D01*
X184332142Y-199607142D01*
X184260714Y-199464285D01*
X184260714Y-199321428D01*
X184332142Y-199178571D01*
X184475000Y-199107142D01*
X184832142Y-199107142D01*
X184975000Y-199035714D01*
X185475000Y-198678571D02*
X186046428Y-198678571D01*
X185689285Y-198178571D02*
X185689285Y-199464285D01*
X185760714Y-199607142D01*
X185903571Y-199678571D01*
X186046428Y-199678571D01*
X187117857Y-199607142D02*
X186975000Y-199678571D01*
X186689285Y-199678571D01*
X186546428Y-199607142D01*
X186475000Y-199464285D01*
X186475000Y-198892857D01*
X186546428Y-198750000D01*
X186689285Y-198678571D01*
X186975000Y-198678571D01*
X187117857Y-198750000D01*
X187189285Y-198892857D01*
X187189285Y-199035714D01*
X186475000Y-199178571D01*
X187832142Y-199535714D02*
X187903571Y-199607142D01*
X187832142Y-199678571D01*
X187760714Y-199607142D01*
X187832142Y-199535714D01*
X187832142Y-199678571D01*
X187832142Y-198750000D02*
X187903571Y-198821428D01*
X187832142Y-198892857D01*
X187760714Y-198821428D01*
X187832142Y-198750000D01*
X187832142Y-198892857D01*
X189617857Y-198321428D02*
X189689285Y-198250000D01*
X189832142Y-198178571D01*
X190189285Y-198178571D01*
X190332142Y-198250000D01*
X190403571Y-198321428D01*
X190475000Y-198464285D01*
X190475000Y-198607142D01*
X190403571Y-198821428D01*
X189546428Y-199678571D01*
X190475000Y-199678571D01*
X191403571Y-198178571D02*
X191546428Y-198178571D01*
X191689285Y-198250000D01*
X191760714Y-198321428D01*
X191832142Y-198464285D01*
X191903571Y-198750000D01*
X191903571Y-199107142D01*
X191832142Y-199392857D01*
X191760714Y-199535714D01*
X191689285Y-199607142D01*
X191546428Y-199678571D01*
X191403571Y-199678571D01*
X191260714Y-199607142D01*
X191189285Y-199535714D01*
X191117857Y-199392857D01*
X191046428Y-199107142D01*
X191046428Y-198750000D01*
X191117857Y-198464285D01*
X191189285Y-198321428D01*
X191260714Y-198250000D01*
X191403571Y-198178571D01*
X193332142Y-199678571D02*
X192475000Y-199678571D01*
X192903571Y-199678571D02*
X192903571Y-198178571D01*
X192760714Y-198392857D01*
X192617857Y-198535714D01*
X192475000Y-198607142D01*
X194046428Y-199678571D02*
X194332142Y-199678571D01*
X194475000Y-199607142D01*
X194546428Y-199535714D01*
X194689285Y-199321428D01*
X194760714Y-199035714D01*
X194760714Y-198464285D01*
X194689285Y-198321428D01*
X194617857Y-198250000D01*
X194475000Y-198178571D01*
X194189285Y-198178571D01*
X194046428Y-198250000D01*
X193975000Y-198321428D01*
X193903571Y-198464285D01*
X193903571Y-198821428D01*
X193975000Y-198964285D01*
X194046428Y-199035714D01*
X194189285Y-199107142D01*
X194475000Y-199107142D01*
X194617857Y-199035714D01*
X194689285Y-198964285D01*
X194760714Y-198821428D01*
X195403571Y-199107142D02*
X196546428Y-199107142D01*
X197546428Y-198178571D02*
X197689285Y-198178571D01*
X197832142Y-198250000D01*
X197903571Y-198321428D01*
X197975000Y-198464285D01*
X198046428Y-198750000D01*
X198046428Y-199107142D01*
X197975000Y-199392857D01*
X197903571Y-199535714D01*
X197832142Y-199607142D01*
X197689285Y-199678571D01*
X197546428Y-199678571D01*
X197403571Y-199607142D01*
X197332142Y-199535714D01*
X197260714Y-199392857D01*
X197189285Y-199107142D01*
X197189285Y-198750000D01*
X197260714Y-198464285D01*
X197332142Y-198321428D01*
X197403571Y-198250000D01*
X197546428Y-198178571D01*
X198546428Y-198178571D02*
X199475000Y-198178571D01*
X198975000Y-198750000D01*
X199189285Y-198750000D01*
X199332142Y-198821428D01*
X199403571Y-198892857D01*
X199475000Y-199035714D01*
X199475000Y-199392857D01*
X199403571Y-199535714D01*
X199332142Y-199607142D01*
X199189285Y-199678571D01*
X198760714Y-199678571D01*
X198617857Y-199607142D01*
X198546428Y-199535714D01*
X200117857Y-199107142D02*
X201260714Y-199107142D01*
X201903571Y-198321428D02*
X201975000Y-198250000D01*
X202117857Y-198178571D01*
X202475000Y-198178571D01*
X202617857Y-198250000D01*
X202689285Y-198321428D01*
X202760714Y-198464285D01*
X202760714Y-198607142D01*
X202689285Y-198821428D01*
X201832142Y-199678571D01*
X202760714Y-199678571D01*
X204046428Y-198678571D02*
X204046428Y-199678571D01*
X203689285Y-198107142D02*
X203332142Y-199178571D01*
X204260714Y-199178571D01*
D10*
D11*
X159400000Y-200400000D02*
X267400000Y-200400000D01*
D10*
D11*
X160832142Y-202478571D02*
X160832142Y-200978571D01*
X161689285Y-202478571D02*
X161046428Y-201621428D01*
X161689285Y-200978571D02*
X160832142Y-201835714D01*
X162332142Y-202478571D02*
X162332142Y-201478571D01*
X162332142Y-200978571D02*
X162260714Y-201050000D01*
X162332142Y-201121428D01*
X162403571Y-201050000D01*
X162332142Y-200978571D01*
X162332142Y-201121428D01*
X163903571Y-202335714D02*
X163832142Y-202407142D01*
X163617857Y-202478571D01*
X163475000Y-202478571D01*
X163260714Y-202407142D01*
X163117857Y-202264285D01*
X163046428Y-202121428D01*
X162975000Y-201835714D01*
X162975000Y-201621428D01*
X163046428Y-201335714D01*
X163117857Y-201192857D01*
X163260714Y-201050000D01*
X163475000Y-200978571D01*
X163617857Y-200978571D01*
X163832142Y-201050000D01*
X163903571Y-201121428D01*
X165189285Y-202478571D02*
X165189285Y-201692857D01*
X165117857Y-201550000D01*
X164975000Y-201478571D01*
X164689285Y-201478571D01*
X164546428Y-201550000D01*
X165189285Y-202407142D02*
X165046428Y-202478571D01*
X164689285Y-202478571D01*
X164546428Y-202407142D01*
X164475000Y-202264285D01*
X164475000Y-202121428D01*
X164546428Y-201978571D01*
X164689285Y-201907142D01*
X165046428Y-201907142D01*
X165189285Y-201835714D01*
X166546428Y-202478571D02*
X166546428Y-200978571D01*
X166546428Y-202407142D02*
X166403571Y-202478571D01*
X166117857Y-202478571D01*
X165975000Y-202407142D01*
X165903571Y-202335714D01*
X165832142Y-202192857D01*
X165832142Y-201764285D01*
X165903571Y-201621428D01*
X165975000Y-201550000D01*
X166117857Y-201478571D01*
X166403571Y-201478571D01*
X166546428Y-201550000D01*
X168403571Y-201692857D02*
X168903571Y-201692857D01*
X169117857Y-202478571D02*
X168403571Y-202478571D01*
X168403571Y-200978571D01*
X169117857Y-200978571D01*
X169760714Y-202335714D02*
X169832142Y-202407142D01*
X169760714Y-202478571D01*
X169689285Y-202407142D01*
X169760714Y-202335714D01*
X169760714Y-202478571D01*
X170475000Y-202478571D02*
X170475000Y-200978571D01*
X170832142Y-200978571D01*
X171046428Y-201050000D01*
X171189285Y-201192857D01*
X171260714Y-201335714D01*
X171332142Y-201621428D01*
X171332142Y-201835714D01*
X171260714Y-202121428D01*
X171189285Y-202264285D01*
X171046428Y-202407142D01*
X170832142Y-202478571D01*
X170475000Y-202478571D01*
X171975000Y-202335714D02*
X172046428Y-202407142D01*
X171975000Y-202478571D01*
X171903571Y-202407142D01*
X171975000Y-202335714D01*
X171975000Y-202478571D01*
X172617857Y-202050000D02*
X173332142Y-202050000D01*
X172475000Y-202478571D02*
X172975000Y-200978571D01*
X173475000Y-202478571D01*
X173975000Y-202335714D02*
X174046428Y-202407142D01*
X173975000Y-202478571D01*
X173903571Y-202407142D01*
X173975000Y-202335714D01*
X173975000Y-202478571D01*
X176975000Y-202478571D02*
X176975000Y-200978571D01*
X177117857Y-201907142D02*
X177546428Y-202478571D01*
X177546428Y-201478571D02*
X176975000Y-202050000D01*
X178189285Y-202478571D02*
X178189285Y-201478571D01*
X178189285Y-200978571D02*
X178117857Y-201050000D01*
X178189285Y-201121428D01*
X178260714Y-201050000D01*
X178189285Y-200978571D01*
X178189285Y-201121428D01*
X179546428Y-202407142D02*
X179403571Y-202478571D01*
X179117857Y-202478571D01*
X178975000Y-202407142D01*
X178903571Y-202335714D01*
X178832142Y-202192857D01*
X178832142Y-201764285D01*
X178903571Y-201621428D01*
X178975000Y-201550000D01*
X179117857Y-201478571D01*
X179403571Y-201478571D01*
X179546428Y-201550000D01*
X180832142Y-202478571D02*
X180832142Y-201692857D01*
X180760714Y-201550000D01*
X180617857Y-201478571D01*
X180332142Y-201478571D01*
X180189285Y-201550000D01*
X180832142Y-202407142D02*
X180689285Y-202478571D01*
X180332142Y-202478571D01*
X180189285Y-202407142D01*
X180117857Y-202264285D01*
X180117857Y-202121428D01*
X180189285Y-201978571D01*
X180332142Y-201907142D01*
X180689285Y-201907142D01*
X180832142Y-201835714D01*
X182189285Y-202478571D02*
X182189285Y-200978571D01*
X182189285Y-202407142D02*
X182046428Y-202478571D01*
X181760714Y-202478571D01*
X181617857Y-202407142D01*
X181546428Y-202335714D01*
X181475000Y-202192857D01*
X181475000Y-201764285D01*
X181546428Y-201621428D01*
X181617857Y-201550000D01*
X181760714Y-201478571D01*
X182046428Y-201478571D01*
X182189285Y-201550000D01*
X184475000Y-203050000D02*
X184403571Y-202978571D01*
X184260714Y-202764285D01*
X184189285Y-202621428D01*
X184117857Y-202407142D01*
X184046428Y-202050000D01*
X184046428Y-201764285D01*
X184117857Y-201407142D01*
X184189285Y-201192857D01*
X184260714Y-201050000D01*
X184403571Y-200835714D01*
X184475000Y-200764285D01*
X185760714Y-200978571D02*
X185046428Y-200978571D01*
X184975000Y-201692857D01*
X185046428Y-201621428D01*
X185189285Y-201550000D01*
X185546428Y-201550000D01*
X185689285Y-201621428D01*
X185760714Y-201692857D01*
X185832142Y-201835714D01*
X185832142Y-202192857D01*
X185760714Y-202335714D01*
X185689285Y-202407142D01*
X185546428Y-202478571D01*
X185189285Y-202478571D01*
X185046428Y-202407142D01*
X184975000Y-202335714D01*
X186475000Y-202335714D02*
X186546428Y-202407142D01*
X186475000Y-202478571D01*
X186403571Y-202407142D01*
X186475000Y-202335714D01*
X186475000Y-202478571D01*
X187975000Y-202478571D02*
X187117857Y-202478571D01*
X187546428Y-202478571D02*
X187546428Y-200978571D01*
X187403571Y-201192857D01*
X187260714Y-201335714D01*
X187117857Y-201407142D01*
X188617857Y-202335714D02*
X188689285Y-202407142D01*
X188617857Y-202478571D01*
X188546428Y-202407142D01*
X188617857Y-202335714D01*
X188617857Y-202478571D01*
X189617857Y-200978571D02*
X189760714Y-200978571D01*
X189903571Y-201050000D01*
X189975000Y-201121428D01*
X190046428Y-201264285D01*
X190117857Y-201550000D01*
X190117857Y-201907142D01*
X190046428Y-202192857D01*
X189975000Y-202335714D01*
X189903571Y-202407142D01*
X189760714Y-202478571D01*
X189617857Y-202478571D01*
X189475000Y-202407142D01*
X189403571Y-202335714D01*
X189332142Y-202192857D01*
X189260714Y-201907142D01*
X189260714Y-201550000D01*
X189332142Y-201264285D01*
X189403571Y-201121428D01*
X189475000Y-201050000D01*
X189617857Y-200978571D01*
X190617857Y-203050000D02*
X190689285Y-202978571D01*
X190832142Y-202764285D01*
X190903571Y-202621428D01*
X190975000Y-202407142D01*
X191046428Y-202050000D01*
X191046428Y-201764285D01*
X190975000Y-201407142D01*
X190903571Y-201192857D01*
X190832142Y-201050000D01*
X190689285Y-200835714D01*
X190617857Y-200764285D01*
X191760714Y-201907142D02*
X192903571Y-201907142D01*
X194403571Y-202478571D02*
X193546428Y-202478571D01*
X193975000Y-202478571D02*
X193975000Y-200978571D01*
X193832142Y-201192857D01*
X193689285Y-201335714D01*
X193546428Y-201407142D01*
D10*
D11*
X159400000Y-197400000D02*
X267400000Y-197400000D01*
D10*
D12*
X246809285Y-199678571D02*
X246309285Y-198964285D01*
X245952142Y-199678571D02*
X245952142Y-198178571D01*
X246523571Y-198178571D01*
X246666428Y-198250000D01*
X246737857Y-198321428D01*
X246809285Y-198464285D01*
X246809285Y-198678571D01*
X246737857Y-198821428D01*
X246666428Y-198892857D01*
X246523571Y-198964285D01*
X245952142Y-198964285D01*
X248023571Y-199607142D02*
X247880714Y-199678571D01*
X247595000Y-199678571D01*
X247452142Y-199607142D01*
X247380714Y-199464285D01*
X247380714Y-198892857D01*
X247452142Y-198750000D01*
X247595000Y-198678571D01*
X247880714Y-198678571D01*
X248023571Y-198750000D01*
X248095000Y-198892857D01*
X248095000Y-199035714D01*
X247380714Y-199178571D01*
X248595000Y-198678571D02*
X248952142Y-199678571D01*
X249309285Y-198678571D01*
X249880714Y-199535714D02*
X249952142Y-199607142D01*
X249880714Y-199678571D01*
X249809285Y-199607142D01*
X249880714Y-199535714D01*
X249880714Y-199678571D01*
X249880714Y-198750000D02*
X249952142Y-198821428D01*
X249880714Y-198892857D01*
X249809285Y-198821428D01*
X249880714Y-198750000D01*
X249880714Y-198892857D01*
X252023571Y-198178571D02*
X252166428Y-198178571D01*
X252309285Y-198250000D01*
X252380714Y-198321428D01*
X252452142Y-198464285D01*
X252523571Y-198750000D01*
X252523571Y-199107142D01*
X252452142Y-199392857D01*
X252380714Y-199535714D01*
X252309285Y-199607142D01*
X252166428Y-199678571D01*
X252023571Y-199678571D01*
X251880714Y-199607142D01*
X251809285Y-199535714D01*
X251737857Y-199392857D01*
X251666428Y-199107142D01*
X251666428Y-198750000D01*
X251737857Y-198464285D01*
X251809285Y-198321428D01*
X251880714Y-198250000D01*
X252023571Y-198178571D01*
X253166428Y-199535714D02*
X253237857Y-199607142D01*
X253166428Y-199678571D01*
X253095000Y-199607142D01*
X253166428Y-199535714D01*
X253166428Y-199678571D01*
X254666428Y-199678571D02*
X253809285Y-199678571D01*
X254237857Y-199678571D02*
X254237857Y-198178571D01*
X254095000Y-198392857D01*
X253952142Y-198535714D01*
X253809285Y-198607142D01*
D10*
D11*
X160760714Y-199607142D02*
X160975000Y-199678571D01*
X161332142Y-199678571D01*
X161475000Y-199607142D01*
X161546428Y-199535714D01*
X161617857Y-199392857D01*
X161617857Y-199250000D01*
X161546428Y-199107142D01*
X161475000Y-199035714D01*
X161332142Y-198964285D01*
X161046428Y-198892857D01*
X160903571Y-198821428D01*
X160832142Y-198750000D01*
X160760714Y-198607142D01*
X160760714Y-198464285D01*
X160832142Y-198321428D01*
X160903571Y-198250000D01*
X161046428Y-198178571D01*
X161403571Y-198178571D01*
X161617857Y-198250000D01*
X162260714Y-199678571D02*
X162260714Y-198678571D01*
X162260714Y-198178571D02*
X162189285Y-198250000D01*
X162260714Y-198321428D01*
X162332142Y-198250000D01*
X162260714Y-198178571D01*
X162260714Y-198321428D01*
X162832142Y-198678571D02*
X163617857Y-198678571D01*
X162832142Y-199678571D01*
X163617857Y-199678571D01*
X164760714Y-199607142D02*
X164617857Y-199678571D01*
X164332142Y-199678571D01*
X164189285Y-199607142D01*
X164117857Y-199464285D01*
X164117857Y-198892857D01*
X164189285Y-198750000D01*
X164332142Y-198678571D01*
X164617857Y-198678571D01*
X164760714Y-198750000D01*
X164832142Y-198892857D01*
X164832142Y-199035714D01*
X164117857Y-199178571D01*
X165475000Y-199535714D02*
X165546428Y-199607142D01*
X165475000Y-199678571D01*
X165403571Y-199607142D01*
X165475000Y-199535714D01*
X165475000Y-199678571D01*
X165475000Y-198750000D02*
X165546428Y-198821428D01*
X165475000Y-198892857D01*
X165403571Y-198821428D01*
X165475000Y-198750000D01*
X165475000Y-198892857D01*
X167332142Y-198178571D02*
X167332142Y-199392857D01*
X167403571Y-199535714D01*
X167475000Y-199607142D01*
X167617857Y-199678571D01*
X167903571Y-199678571D01*
X168046428Y-199607142D01*
X168117857Y-199535714D01*
X168189285Y-199392857D01*
X168189285Y-198178571D01*
X168832142Y-199607142D02*
X169046428Y-199678571D01*
X169403571Y-199678571D01*
X169546428Y-199607142D01*
X169617857Y-199535714D01*
X169689285Y-199392857D01*
X169689285Y-199250000D01*
X169617857Y-199107142D01*
X169546428Y-199035714D01*
X169403571Y-198964285D01*
X169117857Y-198892857D01*
X168975000Y-198821428D01*
X168903571Y-198750000D01*
X168832142Y-198607142D01*
X168832142Y-198464285D01*
X168903571Y-198321428D01*
X168975000Y-198250000D01*
X169117857Y-198178571D01*
X169475000Y-198178571D01*
X169689285Y-198250000D01*
X171046428Y-199678571D02*
X170332142Y-199678571D01*
X170332142Y-198178571D01*
X172117857Y-199607142D02*
X171975000Y-199678571D01*
X171689285Y-199678571D01*
X171546428Y-199607142D01*
X171475000Y-199464285D01*
X171475000Y-198892857D01*
X171546428Y-198750000D01*
X171689285Y-198678571D01*
X171975000Y-198678571D01*
X172117857Y-198750000D01*
X172189285Y-198892857D01*
X172189285Y-199035714D01*
X171475000Y-199178571D01*
X172617857Y-198678571D02*
X173189285Y-198678571D01*
X172832142Y-198178571D02*
X172832142Y-199464285D01*
X172903571Y-199607142D01*
X173046428Y-199678571D01*
X173189285Y-199678571D01*
X173475000Y-198678571D02*
X174046428Y-198678571D01*
X173689285Y-198178571D02*
X173689285Y-199464285D01*
X173760714Y-199607142D01*
X173903571Y-199678571D01*
X174046428Y-199678571D01*
X175117857Y-199607142D02*
X174975000Y-199678571D01*
X174689285Y-199678571D01*
X174546428Y-199607142D01*
X174475000Y-199464285D01*
X174475000Y-198892857D01*
X174546428Y-198750000D01*
X174689285Y-198678571D01*
X174975000Y-198678571D01*
X175117857Y-198750000D01*
X175189285Y-198892857D01*
X175189285Y-199035714D01*
X174475000Y-199178571D01*
X175832142Y-199678571D02*
X175832142Y-198678571D01*
X175832142Y-198964285D02*
X175903571Y-198821428D01*
X175975000Y-198750000D01*
X176117857Y-198678571D01*
X176260714Y-198678571D01*
D10*
D11*
X245832142Y-202478571D02*
X245832142Y-200978571D01*
X247189285Y-202478571D02*
X247189285Y-200978571D01*
X247189285Y-202407142D02*
X247046428Y-202478571D01*
X246760714Y-202478571D01*
X246617857Y-202407142D01*
X246546428Y-202335714D01*
X246475000Y-202192857D01*
X246475000Y-201764285D01*
X246546428Y-201621428D01*
X246617857Y-201550000D01*
X246760714Y-201478571D01*
X247046428Y-201478571D01*
X247189285Y-201550000D01*
X247903571Y-202335714D02*
X247975000Y-202407142D01*
X247903571Y-202478571D01*
X247832142Y-202407142D01*
X247903571Y-202335714D01*
X247903571Y-202478571D01*
X247903571Y-201550000D02*
X247975000Y-201621428D01*
X247903571Y-201692857D01*
X247832142Y-201621428D01*
X247903571Y-201550000D01*
X247903571Y-201692857D01*
X250546428Y-202478571D02*
X249689285Y-202478571D01*
X250117857Y-202478571D02*
X250117857Y-200978571D01*
X249975000Y-201192857D01*
X249832142Y-201335714D01*
X249689285Y-201407142D01*
X252260714Y-200907142D02*
X250975000Y-202835714D01*
X253546428Y-202478571D02*
X252689285Y-202478571D01*
X253117857Y-202478571D02*
X253117857Y-200978571D01*
X252975000Y-201192857D01*
X252832142Y-201335714D01*
X252689285Y-201407142D01*
D10*
D11*
X159400000Y-193400000D02*
X267400000Y-193400000D01*
D10*
D13*
X161112380Y-194104761D02*
X162255238Y-194104761D01*
X161433809Y-196104761D02*
X161683809Y-194104761D01*
X162671904Y-196104761D02*
X162838571Y-194771428D01*
X162921904Y-194104761D02*
X162814761Y-194200000D01*
X162898095Y-194295238D01*
X163005238Y-194200000D01*
X162921904Y-194104761D01*
X162898095Y-194295238D01*
X163505238Y-194771428D02*
X164267142Y-194771428D01*
X163874285Y-194104761D02*
X163660000Y-195819047D01*
X163731428Y-196009523D01*
X163910000Y-196104761D01*
X164100476Y-196104761D01*
X165052857Y-196104761D02*
X164874285Y-196009523D01*
X164802857Y-195819047D01*
X165017142Y-194104761D01*
X166588571Y-196009523D02*
X166386190Y-196104761D01*
X166005238Y-196104761D01*
X165826666Y-196009523D01*
X165755238Y-195819047D01*
X165850476Y-195057142D01*
X165969523Y-194866666D01*
X166171904Y-194771428D01*
X166552857Y-194771428D01*
X166731428Y-194866666D01*
X166802857Y-195057142D01*
X166779047Y-195247619D01*
X165802857Y-195438095D01*
X167552857Y-195914285D02*
X167636190Y-196009523D01*
X167529047Y-196104761D01*
X167445714Y-196009523D01*
X167552857Y-195914285D01*
X167529047Y-196104761D01*
X167683809Y-194866666D02*
X167767142Y-194961904D01*
X167660000Y-195057142D01*
X167576666Y-194961904D01*
X167683809Y-194866666D01*
X167660000Y-195057142D01*
X170005238Y-196104761D02*
X170255238Y-194104761D01*
X170731428Y-194104761D01*
X171005238Y-194200000D01*
X171171904Y-194390476D01*
X171243333Y-194580952D01*
X171290952Y-194961904D01*
X171255238Y-195247619D01*
X171112380Y-195628571D01*
X170993333Y-195819047D01*
X170779047Y-196009523D01*
X170481428Y-196104761D01*
X170005238Y-196104761D01*
X173171904Y-195914285D02*
X173064761Y-196009523D01*
X172767142Y-196104761D01*
X172576666Y-196104761D01*
X172302857Y-196009523D01*
X172136190Y-195819047D01*
X172064761Y-195628571D01*
X172017142Y-195247619D01*
X172052857Y-194961904D01*
X172195714Y-194580952D01*
X172314761Y-194390476D01*
X172529047Y-194200000D01*
X172826666Y-194104761D01*
X173017142Y-194104761D01*
X173290952Y-194200000D01*
X173374285Y-194295238D01*
X174433809Y-194961904D02*
X174255238Y-194866666D01*
X174171904Y-194771428D01*
X174100476Y-194580952D01*
X174112380Y-194485714D01*
X174231428Y-194295238D01*
X174338571Y-194200000D01*
X174540952Y-194104761D01*
X174921904Y-194104761D01*
X175100476Y-194200000D01*
X175183809Y-194295238D01*
X175255238Y-194485714D01*
X175243333Y-194580952D01*
X175124285Y-194771428D01*
X175017142Y-194866666D01*
X174814761Y-194961904D01*
X174433809Y-194961904D01*
X174231428Y-195057142D01*
X174124285Y-195152380D01*
X174005238Y-195342857D01*
X173957619Y-195723809D01*
X174029047Y-195914285D01*
X174112380Y-196009523D01*
X174290952Y-196104761D01*
X174671904Y-196104761D01*
X174874285Y-196009523D01*
X174981428Y-195914285D01*
X175100476Y-195723809D01*
X175148095Y-195342857D01*
X175076666Y-195152380D01*
X174993333Y-195057142D01*
X174814761Y-194961904D01*
X176540952Y-194104761D02*
X176731428Y-194104761D01*
X176910000Y-194200000D01*
X176993333Y-194295238D01*
X177064761Y-194485714D01*
X177112380Y-194866666D01*
X177052857Y-195342857D01*
X176910000Y-195723809D01*
X176790952Y-195914285D01*
X176683809Y-196009523D01*
X176481428Y-196104761D01*
X176290952Y-196104761D01*
X176112380Y-196009523D01*
X176029047Y-195914285D01*
X175957619Y-195723809D01*
X175910000Y-195342857D01*
X175969523Y-194866666D01*
X176112380Y-194485714D01*
X176231428Y-194295238D01*
X176338571Y-194200000D01*
X176540952Y-194104761D01*
X178862380Y-196104761D02*
X177719523Y-196104761D01*
X178290952Y-196104761D02*
X178540952Y-194104761D01*
X178314761Y-194390476D01*
X178100476Y-194580952D01*
X177898095Y-194676190D01*
X182040952Y-195057142D02*
X182314761Y-195152380D01*
X182398095Y-195247619D01*
X182469523Y-195438095D01*
X182433809Y-195723809D01*
X182314761Y-195914285D01*
X182207619Y-196009523D01*
X182005238Y-196104761D01*
X181243333Y-196104761D01*
X181493333Y-194104761D01*
X182160000Y-194104761D01*
X182338571Y-194200000D01*
X182421904Y-194295238D01*
X182493333Y-194485714D01*
X182469523Y-194676190D01*
X182350476Y-194866666D01*
X182243333Y-194961904D01*
X182040952Y-195057142D01*
X181374285Y-195057142D01*
X184100476Y-196104761D02*
X184231428Y-195057142D01*
X184160000Y-194866666D01*
X183981428Y-194771428D01*
X183600476Y-194771428D01*
X183398095Y-194866666D01*
X184112380Y-196009523D02*
X183910000Y-196104761D01*
X183433809Y-196104761D01*
X183255238Y-196009523D01*
X183183809Y-195819047D01*
X183207619Y-195628571D01*
X183326666Y-195438095D01*
X183529047Y-195342857D01*
X184005238Y-195342857D01*
X184207619Y-195247619D01*
X185910000Y-196104761D02*
X186160000Y-194104761D01*
X185921904Y-196009523D02*
X185719523Y-196104761D01*
X185338571Y-196104761D01*
X185160000Y-196009523D01*
X185076666Y-195914285D01*
X185005238Y-195723809D01*
X185076666Y-195152380D01*
X185195714Y-194961904D01*
X185302857Y-194866666D01*
X185505238Y-194771428D01*
X185886190Y-194771428D01*
X186064761Y-194866666D01*
X187886190Y-194771428D02*
X187683809Y-196390476D01*
X187564761Y-196580952D01*
X187457619Y-196676190D01*
X187255238Y-196771428D01*
X186969523Y-196771428D01*
X186790952Y-196676190D01*
X187731428Y-196009523D02*
X187529047Y-196104761D01*
X187148095Y-196104761D01*
X186969523Y-196009523D01*
X186886190Y-195914285D01*
X186814761Y-195723809D01*
X186886190Y-195152380D01*
X187005238Y-194961904D01*
X187112380Y-194866666D01*
X187314761Y-194771428D01*
X187695714Y-194771428D01*
X187874285Y-194866666D01*
X189445714Y-196009523D02*
X189243333Y-196104761D01*
X188862380Y-196104761D01*
X188683809Y-196009523D01*
X188612380Y-195819047D01*
X188707619Y-195057142D01*
X188826666Y-194866666D01*
X189029047Y-194771428D01*
X189410000Y-194771428D01*
X189588571Y-194866666D01*
X189660000Y-195057142D01*
X189636190Y-195247619D01*
X188660000Y-195438095D01*
X192005238Y-195342857D02*
X193529047Y-195342857D01*
X195910000Y-196104761D02*
X196160000Y-194104761D01*
X196636190Y-194104761D01*
X196910000Y-194200000D01*
X197076666Y-194390476D01*
X197148095Y-194580952D01*
X197195714Y-194961904D01*
X197160000Y-195247619D01*
X197017142Y-195628571D01*
X196898095Y-195819047D01*
X196683809Y-196009523D01*
X196386190Y-196104761D01*
X195910000Y-196104761D01*
X198683809Y-196009523D02*
X198481428Y-196104761D01*
X198100476Y-196104761D01*
X197921904Y-196009523D01*
X197850476Y-195819047D01*
X197945714Y-195057142D01*
X198064761Y-194866666D01*
X198267142Y-194771428D01*
X198648095Y-194771428D01*
X198826666Y-194866666D01*
X198898095Y-195057142D01*
X198874285Y-195247619D01*
X197898095Y-195438095D01*
X199505238Y-194771428D02*
X200267142Y-194771428D01*
X199624285Y-196104761D02*
X199838571Y-194390476D01*
X199957619Y-194200000D01*
X200160000Y-194104761D01*
X200350476Y-194104761D01*
X201636190Y-196009523D02*
X201433809Y-196104761D01*
X201052857Y-196104761D01*
X200874285Y-196009523D01*
X200790952Y-195914285D01*
X200719523Y-195723809D01*
X200790952Y-195152380D01*
X200910000Y-194961904D01*
X201017142Y-194866666D01*
X201219523Y-194771428D01*
X201600476Y-194771428D01*
X201779047Y-194866666D01*
X202767142Y-196104761D02*
X202588571Y-196009523D01*
X202505238Y-195914285D01*
X202433809Y-195723809D01*
X202505238Y-195152380D01*
X202624285Y-194961904D01*
X202731428Y-194866666D01*
X202933809Y-194771428D01*
X203219523Y-194771428D01*
X203398095Y-194866666D01*
X203481428Y-194961904D01*
X203552857Y-195152380D01*
X203481428Y-195723809D01*
X203362380Y-195914285D01*
X203255238Y-196009523D01*
X203052857Y-196104761D01*
X202767142Y-196104761D01*
X204457619Y-194771428D02*
X204290952Y-196104761D01*
X204433809Y-194961904D02*
X204540952Y-194866666D01*
X204743333Y-194771428D01*
X205029047Y-194771428D01*
X205207619Y-194866666D01*
X205279047Y-195057142D01*
X205148095Y-196104761D01*
X207755238Y-194295238D02*
X207862380Y-194200000D01*
X208064761Y-194104761D01*
X208540952Y-194104761D01*
X208719523Y-194200000D01*
X208802857Y-194295238D01*
X208874285Y-194485714D01*
X208850476Y-194676190D01*
X208719523Y-194961904D01*
X207433809Y-196104761D01*
X208671904Y-196104761D01*
X209588571Y-194104761D02*
X210921904Y-194104761D01*
X209814761Y-196104761D01*
D10*
D11*
X161332142Y-191492857D02*
X160832142Y-191492857D01*
X160832142Y-192278571D02*
X160832142Y-190778571D01*
X161546428Y-190778571D01*
X162117857Y-192278571D02*
X162117857Y-191278571D01*
X162117857Y-190778571D02*
X162046428Y-190850000D01*
X162117857Y-190921428D01*
X162189285Y-190850000D01*
X162117857Y-190778571D01*
X162117857Y-190921428D01*
X163046428Y-192278571D02*
X162903571Y-192207142D01*
X162832142Y-192064285D01*
X162832142Y-190778571D01*
X164189285Y-192207142D02*
X164046428Y-192278571D01*
X163760714Y-192278571D01*
X163617857Y-192207142D01*
X163546428Y-192064285D01*
X163546428Y-191492857D01*
X163617857Y-191350000D01*
X163760714Y-191278571D01*
X164046428Y-191278571D01*
X164189285Y-191350000D01*
X164260714Y-191492857D01*
X164260714Y-191635714D01*
X163546428Y-191778571D01*
X164903571Y-192135714D02*
X164975000Y-192207142D01*
X164903571Y-192278571D01*
X164832142Y-192207142D01*
X164903571Y-192135714D01*
X164903571Y-192278571D01*
X164903571Y-191350000D02*
X164975000Y-191421428D01*
X164903571Y-191492857D01*
X164832142Y-191421428D01*
X164903571Y-191350000D01*
X164903571Y-191492857D01*
X166760714Y-192278571D02*
X166760714Y-190778571D01*
X167403571Y-192278571D02*
X167403571Y-191492857D01*
X167332142Y-191350000D01*
X167189285Y-191278571D01*
X166975000Y-191278571D01*
X166832142Y-191350000D01*
X166760714Y-191421428D01*
X168760714Y-192207142D02*
X168617857Y-192278571D01*
X168332142Y-192278571D01*
X168189285Y-192207142D01*
X168117857Y-192135714D01*
X168046428Y-191992857D01*
X168046428Y-191564285D01*
X168117857Y-191421428D01*
X168189285Y-191350000D01*
X168332142Y-191278571D01*
X168617857Y-191278571D01*
X168760714Y-191350000D01*
X169403571Y-192278571D02*
X169403571Y-191278571D01*
X169403571Y-191564285D02*
X169475000Y-191421428D01*
X169546428Y-191350000D01*
X169689285Y-191278571D01*
X169832142Y-191278571D01*
X170332142Y-191278571D02*
X170332142Y-192278571D01*
X170332142Y-191421428D02*
X170403571Y-191350000D01*
X170546428Y-191278571D01*
X170760714Y-191278571D01*
X170903571Y-191350000D01*
X170975000Y-191492857D01*
X170975000Y-192278571D01*
X171689285Y-192135714D02*
X171760714Y-192207142D01*
X171689285Y-192278571D01*
X171617857Y-192207142D01*
X171689285Y-192135714D01*
X171689285Y-192278571D01*
X172403571Y-192278571D02*
X172403571Y-190778571D01*
X172546428Y-191707142D02*
X172975000Y-192278571D01*
X172975000Y-191278571D02*
X172403571Y-191850000D01*
X173617857Y-192278571D02*
X173617857Y-191278571D01*
X173617857Y-190778571D02*
X173546428Y-190850000D01*
X173617857Y-190921428D01*
X173689285Y-190850000D01*
X173617857Y-190778571D01*
X173617857Y-190921428D01*
X174975000Y-192207142D02*
X174832142Y-192278571D01*
X174546428Y-192278571D01*
X174403571Y-192207142D01*
X174332142Y-192135714D01*
X174260714Y-191992857D01*
X174260714Y-191564285D01*
X174332142Y-191421428D01*
X174403571Y-191350000D01*
X174546428Y-191278571D01*
X174832142Y-191278571D01*
X174975000Y-191350000D01*
X176260714Y-192278571D02*
X176260714Y-191492857D01*
X176189285Y-191350000D01*
X176046428Y-191278571D01*
X175760714Y-191278571D01*
X175617857Y-191350000D01*
X176260714Y-192207142D02*
X176117857Y-192278571D01*
X175760714Y-192278571D01*
X175617857Y-192207142D01*
X175546428Y-192064285D01*
X175546428Y-191921428D01*
X175617857Y-191778571D01*
X175760714Y-191707142D01*
X176117857Y-191707142D01*
X176260714Y-191635714D01*
X177617857Y-192278571D02*
X177617857Y-190778571D01*
X177617857Y-192207142D02*
X177475000Y-192278571D01*
X177189285Y-192278571D01*
X177046428Y-192207142D01*
X176975000Y-192135714D01*
X176903571Y-191992857D01*
X176903571Y-191564285D01*
X176975000Y-191421428D01*
X177046428Y-191350000D01*
X177189285Y-191278571D01*
X177475000Y-191278571D01*
X177617857Y-191350000D01*
X177975000Y-192421428D02*
X179117857Y-192421428D01*
X179475000Y-191278571D02*
X179475000Y-192778571D01*
X179475000Y-191350000D02*
X179617857Y-191278571D01*
X179903571Y-191278571D01*
X180046428Y-191350000D01*
X180117857Y-191421428D01*
X180189285Y-191564285D01*
X180189285Y-191992857D01*
X180117857Y-192135714D01*
X180046428Y-192207142D01*
X179903571Y-192278571D01*
X179617857Y-192278571D01*
X179475000Y-192207142D01*
X181475000Y-192207142D02*
X181332142Y-192278571D01*
X181046428Y-192278571D01*
X180903571Y-192207142D01*
X180832142Y-192135714D01*
X180760714Y-191992857D01*
X180760714Y-191564285D01*
X180832142Y-191421428D01*
X180903571Y-191350000D01*
X181046428Y-191278571D01*
X181332142Y-191278571D01*
X181475000Y-191350000D01*
X182117857Y-192278571D02*
X182117857Y-190778571D01*
X182117857Y-191350000D02*
X182260714Y-191278571D01*
X182546428Y-191278571D01*
X182689285Y-191350000D01*
X182760714Y-191421428D01*
X182832142Y-191564285D01*
X182832142Y-191992857D01*
X182760714Y-192135714D01*
X182689285Y-192207142D01*
X182546428Y-192278571D01*
X182260714Y-192278571D01*
X182117857Y-192207142D01*
D10*
D11*
X159400000Y-187400000D02*
X267400000Y-187400000D01*
D10*
D11*
X160760714Y-189507142D02*
X160975000Y-189578571D01*
X161332142Y-189578571D01*
X161475000Y-189507142D01*
X161546428Y-189435714D01*
X161617857Y-189292857D01*
X161617857Y-189150000D01*
X161546428Y-189007142D01*
X161475000Y-188935714D01*
X161332142Y-188864285D01*
X161046428Y-188792857D01*
X160903571Y-188721428D01*
X160832142Y-188650000D01*
X160760714Y-188507142D01*
X160760714Y-188364285D01*
X160832142Y-188221428D01*
X160903571Y-188150000D01*
X161046428Y-188078571D01*
X161403571Y-188078571D01*
X161617857Y-188150000D01*
X162260714Y-189578571D02*
X162260714Y-188078571D01*
X162903571Y-189578571D02*
X162903571Y-188792857D01*
X162832142Y-188650000D01*
X162689285Y-188578571D01*
X162475000Y-188578571D01*
X162332142Y-188650000D01*
X162260714Y-188721428D01*
X164189285Y-189507142D02*
X164046428Y-189578571D01*
X163760714Y-189578571D01*
X163617857Y-189507142D01*
X163546428Y-189364285D01*
X163546428Y-188792857D01*
X163617857Y-188650000D01*
X163760714Y-188578571D01*
X164046428Y-188578571D01*
X164189285Y-188650000D01*
X164260714Y-188792857D01*
X164260714Y-188935714D01*
X163546428Y-189078571D01*
X165475000Y-189507142D02*
X165332142Y-189578571D01*
X165046428Y-189578571D01*
X164903571Y-189507142D01*
X164832142Y-189364285D01*
X164832142Y-188792857D01*
X164903571Y-188650000D01*
X165046428Y-188578571D01*
X165332142Y-188578571D01*
X165475000Y-188650000D01*
X165546428Y-188792857D01*
X165546428Y-188935714D01*
X164832142Y-189078571D01*
X165975000Y-188578571D02*
X166546428Y-188578571D01*
X166189285Y-188078571D02*
X166189285Y-189364285D01*
X166260714Y-189507142D01*
X166403571Y-189578571D01*
X166546428Y-189578571D01*
X167046428Y-189435714D02*
X167117857Y-189507142D01*
X167046428Y-189578571D01*
X166975000Y-189507142D01*
X167046428Y-189435714D01*
X167046428Y-189578571D01*
X167046428Y-188650000D02*
X167117857Y-188721428D01*
X167046428Y-188792857D01*
X166975000Y-188721428D01*
X167046428Y-188650000D01*
X167046428Y-188792857D01*
D10*
D12*
X160952142Y-186578571D02*
X160952142Y-185078571D01*
X161309285Y-185078571D01*
X161523571Y-185150000D01*
X161666428Y-185292857D01*
X161737857Y-185435714D01*
X161809285Y-185721428D01*
X161809285Y-185935714D01*
X161737857Y-186221428D01*
X161666428Y-186364285D01*
X161523571Y-186507142D01*
X161309285Y-186578571D01*
X160952142Y-186578571D01*
X163309285Y-186435714D02*
X163237857Y-186507142D01*
X163023571Y-186578571D01*
X162880714Y-186578571D01*
X162666428Y-186507142D01*
X162523571Y-186364285D01*
X162452142Y-186221428D01*
X162380714Y-185935714D01*
X162380714Y-185721428D01*
X162452142Y-185435714D01*
X162523571Y-185292857D01*
X162666428Y-185150000D01*
X162880714Y-185078571D01*
X163023571Y-185078571D01*
X163237857Y-185150000D01*
X163309285Y-185221428D01*
X164166428Y-185721428D02*
X164023571Y-185650000D01*
X163952142Y-185578571D01*
X163880714Y-185435714D01*
X163880714Y-185364285D01*
X163952142Y-185221428D01*
X164023571Y-185150000D01*
X164166428Y-185078571D01*
X164452142Y-185078571D01*
X164595000Y-185150000D01*
X164666428Y-185221428D01*
X164737857Y-185364285D01*
X164737857Y-185435714D01*
X164666428Y-185578571D01*
X164595000Y-185650000D01*
X164452142Y-185721428D01*
X164166428Y-185721428D01*
X164023571Y-185792857D01*
X163952142Y-185864285D01*
X163880714Y-186007142D01*
X163880714Y-186292857D01*
X163952142Y-186435714D01*
X164023571Y-186507142D01*
X164166428Y-186578571D01*
X164452142Y-186578571D01*
X164595000Y-186507142D01*
X164666428Y-186435714D01*
X164737857Y-186292857D01*
X164737857Y-186007142D01*
X164666428Y-185864285D01*
X164595000Y-185792857D01*
X164452142Y-185721428D01*
X165666428Y-185078571D02*
X165809285Y-185078571D01*
X165952142Y-185150000D01*
X166023571Y-185221428D01*
X166095000Y-185364285D01*
X166166428Y-185650000D01*
X166166428Y-186007142D01*
X166095000Y-186292857D01*
X166023571Y-186435714D01*
X165952142Y-186507142D01*
X165809285Y-186578571D01*
X165666428Y-186578571D01*
X165523571Y-186507142D01*
X165452142Y-186435714D01*
X165380714Y-186292857D01*
X165309285Y-186007142D01*
X165309285Y-185650000D01*
X165380714Y-185364285D01*
X165452142Y-185221428D01*
X165523571Y-185150000D01*
X165666428Y-185078571D01*
X167595000Y-186578571D02*
X166737857Y-186578571D01*
X167166428Y-186578571D02*
X167166428Y-185078571D01*
X167023571Y-185292857D01*
X166880714Y-185435714D01*
X166737857Y-185507142D01*
D10*
D11*
X179400000Y-197400000D02*
X179400000Y-200400000D01*
D10*
D11*
X243400000Y-197400000D02*
X243400000Y-203900000D01*
D14*
X60155000Y-99820000D03*
X68105000Y-99820000D03*
X60155000Y-104320000D03*
X68105000Y-104320000D03*
D10*
G36*
X86597691Y-90536053D02*
G01*
X86618926Y-90539203D01*
X86639750Y-90544419D01*
X86659962Y-90551651D01*
X86679368Y-90560830D01*
X86697781Y-90571866D01*
X86715024Y-90584654D01*
X86730930Y-90599070D01*
X86745346Y-90614976D01*
X86758134Y-90632219D01*
X86769170Y-90650632D01*
X86778349Y-90670038D01*
X86785581Y-90690250D01*
X86790797Y-90711074D01*
X86793947Y-90732309D01*
X86795000Y-90753750D01*
X86795000Y-91191250D01*
X86793947Y-91212691D01*
X86790797Y-91233926D01*
X86785581Y-91254750D01*
X86778349Y-91274962D01*
X86769170Y-91294368D01*
X86758134Y-91312781D01*
X86745346Y-91330024D01*
X86730930Y-91345930D01*
X86715024Y-91360346D01*
X86697781Y-91373134D01*
X86679368Y-91384170D01*
X86659962Y-91393349D01*
X86639750Y-91400581D01*
X86618926Y-91405797D01*
X86597691Y-91408947D01*
X86576250Y-91410000D01*
X86063750Y-91410000D01*
X86042309Y-91408947D01*
X86021074Y-91405797D01*
X86000250Y-91400581D01*
X85980038Y-91393349D01*
X85960632Y-91384170D01*
X85942219Y-91373134D01*
X85924976Y-91360346D01*
X85909070Y-91345930D01*
X85894654Y-91330024D01*
X85881866Y-91312781D01*
X85870830Y-91294368D01*
X85861651Y-91274962D01*
X85854419Y-91254750D01*
X85849203Y-91233926D01*
X85846053Y-91212691D01*
X85845000Y-91191250D01*
X85845000Y-90753750D01*
X85846053Y-90732309D01*
X85849203Y-90711074D01*
X85854419Y-90690250D01*
X85861651Y-90670038D01*
X85870830Y-90650632D01*
X85881866Y-90632219D01*
X85894654Y-90614976D01*
X85909070Y-90599070D01*
X85924976Y-90584654D01*
X85942219Y-90571866D01*
X85960632Y-90560830D01*
X85980038Y-90551651D01*
X86000250Y-90544419D01*
X86021074Y-90539203D01*
X86042309Y-90536053D01*
X86063750Y-90535000D01*
X86576250Y-90535000D01*
X86597691Y-90536053D01*
X86597691Y-90536053D01*
G37*
D15*
X86320000Y-90972500D03*
D10*
G36*
X86597691Y-92111053D02*
G01*
X86618926Y-92114203D01*
X86639750Y-92119419D01*
X86659962Y-92126651D01*
X86679368Y-92135830D01*
X86697781Y-92146866D01*
X86715024Y-92159654D01*
X86730930Y-92174070D01*
X86745346Y-92189976D01*
X86758134Y-92207219D01*
X86769170Y-92225632D01*
X86778349Y-92245038D01*
X86785581Y-92265250D01*
X86790797Y-92286074D01*
X86793947Y-92307309D01*
X86795000Y-92328750D01*
X86795000Y-92766250D01*
X86793947Y-92787691D01*
X86790797Y-92808926D01*
X86785581Y-92829750D01*
X86778349Y-92849962D01*
X86769170Y-92869368D01*
X86758134Y-92887781D01*
X86745346Y-92905024D01*
X86730930Y-92920930D01*
X86715024Y-92935346D01*
X86697781Y-92948134D01*
X86679368Y-92959170D01*
X86659962Y-92968349D01*
X86639750Y-92975581D01*
X86618926Y-92980797D01*
X86597691Y-92983947D01*
X86576250Y-92985000D01*
X86063750Y-92985000D01*
X86042309Y-92983947D01*
X86021074Y-92980797D01*
X86000250Y-92975581D01*
X85980038Y-92968349D01*
X85960632Y-92959170D01*
X85942219Y-92948134D01*
X85924976Y-92935346D01*
X85909070Y-92920930D01*
X85894654Y-92905024D01*
X85881866Y-92887781D01*
X85870830Y-92869368D01*
X85861651Y-92849962D01*
X85854419Y-92829750D01*
X85849203Y-92808926D01*
X85846053Y-92787691D01*
X85845000Y-92766250D01*
X85845000Y-92328750D01*
X85846053Y-92307309D01*
X85849203Y-92286074D01*
X85854419Y-92265250D01*
X85861651Y-92245038D01*
X85870830Y-92225632D01*
X85881866Y-92207219D01*
X85894654Y-92189976D01*
X85909070Y-92174070D01*
X85924976Y-92159654D01*
X85942219Y-92146866D01*
X85960632Y-92135830D01*
X85980038Y-92126651D01*
X86000250Y-92119419D01*
X86021074Y-92114203D01*
X86042309Y-92111053D01*
X86063750Y-92110000D01*
X86576250Y-92110000D01*
X86597691Y-92111053D01*
X86597691Y-92111053D01*
G37*
D15*
X86320000Y-92547500D03*
D10*
G36*
X84177691Y-74036053D02*
G01*
X84198926Y-74039203D01*
X84219750Y-74044419D01*
X84239962Y-74051651D01*
X84259368Y-74060830D01*
X84277781Y-74071866D01*
X84295024Y-74084654D01*
X84310930Y-74099070D01*
X84325346Y-74114976D01*
X84338134Y-74132219D01*
X84349170Y-74150632D01*
X84358349Y-74170038D01*
X84365581Y-74190250D01*
X84370797Y-74211074D01*
X84373947Y-74232309D01*
X84375000Y-74253750D01*
X84375000Y-74766250D01*
X84373947Y-74787691D01*
X84370797Y-74808926D01*
X84365581Y-74829750D01*
X84358349Y-74849962D01*
X84349170Y-74869368D01*
X84338134Y-74887781D01*
X84325346Y-74905024D01*
X84310930Y-74920930D01*
X84295024Y-74935346D01*
X84277781Y-74948134D01*
X84259368Y-74959170D01*
X84239962Y-74968349D01*
X84219750Y-74975581D01*
X84198926Y-74980797D01*
X84177691Y-74983947D01*
X84156250Y-74985000D01*
X83718750Y-74985000D01*
X83697309Y-74983947D01*
X83676074Y-74980797D01*
X83655250Y-74975581D01*
X83635038Y-74968349D01*
X83615632Y-74959170D01*
X83597219Y-74948134D01*
X83579976Y-74935346D01*
X83564070Y-74920930D01*
X83549654Y-74905024D01*
X83536866Y-74887781D01*
X83525830Y-74869368D01*
X83516651Y-74849962D01*
X83509419Y-74829750D01*
X83504203Y-74808926D01*
X83501053Y-74787691D01*
X83500000Y-74766250D01*
X83500000Y-74253750D01*
X83501053Y-74232309D01*
X83504203Y-74211074D01*
X83509419Y-74190250D01*
X83516651Y-74170038D01*
X83525830Y-74150632D01*
X83536866Y-74132219D01*
X83549654Y-74114976D01*
X83564070Y-74099070D01*
X83579976Y-74084654D01*
X83597219Y-74071866D01*
X83615632Y-74060830D01*
X83635038Y-74051651D01*
X83655250Y-74044419D01*
X83676074Y-74039203D01*
X83697309Y-74036053D01*
X83718750Y-74035000D01*
X84156250Y-74035000D01*
X84177691Y-74036053D01*
X84177691Y-74036053D01*
G37*
D15*
X83937500Y-74510000D03*
D10*
G36*
X82602691Y-74036053D02*
G01*
X82623926Y-74039203D01*
X82644750Y-74044419D01*
X82664962Y-74051651D01*
X82684368Y-74060830D01*
X82702781Y-74071866D01*
X82720024Y-74084654D01*
X82735930Y-74099070D01*
X82750346Y-74114976D01*
X82763134Y-74132219D01*
X82774170Y-74150632D01*
X82783349Y-74170038D01*
X82790581Y-74190250D01*
X82795797Y-74211074D01*
X82798947Y-74232309D01*
X82800000Y-74253750D01*
X82800000Y-74766250D01*
X82798947Y-74787691D01*
X82795797Y-74808926D01*
X82790581Y-74829750D01*
X82783349Y-74849962D01*
X82774170Y-74869368D01*
X82763134Y-74887781D01*
X82750346Y-74905024D01*
X82735930Y-74920930D01*
X82720024Y-74935346D01*
X82702781Y-74948134D01*
X82684368Y-74959170D01*
X82664962Y-74968349D01*
X82644750Y-74975581D01*
X82623926Y-74980797D01*
X82602691Y-74983947D01*
X82581250Y-74985000D01*
X82143750Y-74985000D01*
X82122309Y-74983947D01*
X82101074Y-74980797D01*
X82080250Y-74975581D01*
X82060038Y-74968349D01*
X82040632Y-74959170D01*
X82022219Y-74948134D01*
X82004976Y-74935346D01*
X81989070Y-74920930D01*
X81974654Y-74905024D01*
X81961866Y-74887781D01*
X81950830Y-74869368D01*
X81941651Y-74849962D01*
X81934419Y-74829750D01*
X81929203Y-74808926D01*
X81926053Y-74787691D01*
X81925000Y-74766250D01*
X81925000Y-74253750D01*
X81926053Y-74232309D01*
X81929203Y-74211074D01*
X81934419Y-74190250D01*
X81941651Y-74170038D01*
X81950830Y-74150632D01*
X81961866Y-74132219D01*
X81974654Y-74114976D01*
X81989070Y-74099070D01*
X82004976Y-74084654D01*
X82022219Y-74071866D01*
X82040632Y-74060830D01*
X82060038Y-74051651D01*
X82080250Y-74044419D01*
X82101074Y-74039203D01*
X82122309Y-74036053D01*
X82143750Y-74035000D01*
X82581250Y-74035000D01*
X82602691Y-74036053D01*
X82602691Y-74036053D01*
G37*
D15*
X82362500Y-74510000D03*
D10*
G36*
X82602691Y-76342303D02*
G01*
X82623926Y-76345453D01*
X82644750Y-76350669D01*
X82664962Y-76357901D01*
X82684368Y-76367080D01*
X82702781Y-76378116D01*
X82720024Y-76390904D01*
X82735930Y-76405320D01*
X82750346Y-76421226D01*
X82763134Y-76438469D01*
X82774170Y-76456882D01*
X82783349Y-76476288D01*
X82790581Y-76496500D01*
X82795797Y-76517324D01*
X82798947Y-76538559D01*
X82800000Y-76560000D01*
X82800000Y-77072500D01*
X82798947Y-77093941D01*
X82795797Y-77115176D01*
X82790581Y-77136000D01*
X82783349Y-77156212D01*
X82774170Y-77175618D01*
X82763134Y-77194031D01*
X82750346Y-77211274D01*
X82735930Y-77227180D01*
X82720024Y-77241596D01*
X82702781Y-77254384D01*
X82684368Y-77265420D01*
X82664962Y-77274599D01*
X82644750Y-77281831D01*
X82623926Y-77287047D01*
X82602691Y-77290197D01*
X82581250Y-77291250D01*
X82143750Y-77291250D01*
X82122309Y-77290197D01*
X82101074Y-77287047D01*
X82080250Y-77281831D01*
X82060038Y-77274599D01*
X82040632Y-77265420D01*
X82022219Y-77254384D01*
X82004976Y-77241596D01*
X81989070Y-77227180D01*
X81974654Y-77211274D01*
X81961866Y-77194031D01*
X81950830Y-77175618D01*
X81941651Y-77156212D01*
X81934419Y-77136000D01*
X81929203Y-77115176D01*
X81926053Y-77093941D01*
X81925000Y-77072500D01*
X81925000Y-76560000D01*
X81926053Y-76538559D01*
X81929203Y-76517324D01*
X81934419Y-76496500D01*
X81941651Y-76476288D01*
X81950830Y-76456882D01*
X81961866Y-76438469D01*
X81974654Y-76421226D01*
X81989070Y-76405320D01*
X82004976Y-76390904D01*
X82022219Y-76378116D01*
X82040632Y-76367080D01*
X82060038Y-76357901D01*
X82080250Y-76350669D01*
X82101074Y-76345453D01*
X82122309Y-76342303D01*
X82143750Y-76341250D01*
X82581250Y-76341250D01*
X82602691Y-76342303D01*
X82602691Y-76342303D01*
G37*
D15*
X82362500Y-76816250D03*
D10*
G36*
X84177691Y-76342303D02*
G01*
X84198926Y-76345453D01*
X84219750Y-76350669D01*
X84239962Y-76357901D01*
X84259368Y-76367080D01*
X84277781Y-76378116D01*
X84295024Y-76390904D01*
X84310930Y-76405320D01*
X84325346Y-76421226D01*
X84338134Y-76438469D01*
X84349170Y-76456882D01*
X84358349Y-76476288D01*
X84365581Y-76496500D01*
X84370797Y-76517324D01*
X84373947Y-76538559D01*
X84375000Y-76560000D01*
X84375000Y-77072500D01*
X84373947Y-77093941D01*
X84370797Y-77115176D01*
X84365581Y-77136000D01*
X84358349Y-77156212D01*
X84349170Y-77175618D01*
X84338134Y-77194031D01*
X84325346Y-77211274D01*
X84310930Y-77227180D01*
X84295024Y-77241596D01*
X84277781Y-77254384D01*
X84259368Y-77265420D01*
X84239962Y-77274599D01*
X84219750Y-77281831D01*
X84198926Y-77287047D01*
X84177691Y-77290197D01*
X84156250Y-77291250D01*
X83718750Y-77291250D01*
X83697309Y-77290197D01*
X83676074Y-77287047D01*
X83655250Y-77281831D01*
X83635038Y-77274599D01*
X83615632Y-77265420D01*
X83597219Y-77254384D01*
X83579976Y-77241596D01*
X83564070Y-77227180D01*
X83549654Y-77211274D01*
X83536866Y-77194031D01*
X83525830Y-77175618D01*
X83516651Y-77156212D01*
X83509419Y-77136000D01*
X83504203Y-77115176D01*
X83501053Y-77093941D01*
X83500000Y-77072500D01*
X83500000Y-76560000D01*
X83501053Y-76538559D01*
X83504203Y-76517324D01*
X83509419Y-76496500D01*
X83516651Y-76476288D01*
X83525830Y-76456882D01*
X83536866Y-76438469D01*
X83549654Y-76421226D01*
X83564070Y-76405320D01*
X83579976Y-76390904D01*
X83597219Y-76378116D01*
X83615632Y-76367080D01*
X83635038Y-76357901D01*
X83655250Y-76350669D01*
X83676074Y-76345453D01*
X83697309Y-76342303D01*
X83718750Y-76341250D01*
X84156250Y-76341250D01*
X84177691Y-76342303D01*
X84177691Y-76342303D01*
G37*
D15*
X83937500Y-76816250D03*
D10*
G36*
X82602691Y-78648553D02*
G01*
X82623926Y-78651703D01*
X82644750Y-78656919D01*
X82664962Y-78664151D01*
X82684368Y-78673330D01*
X82702781Y-78684366D01*
X82720024Y-78697154D01*
X82735930Y-78711570D01*
X82750346Y-78727476D01*
X82763134Y-78744719D01*
X82774170Y-78763132D01*
X82783349Y-78782538D01*
X82790581Y-78802750D01*
X82795797Y-78823574D01*
X82798947Y-78844809D01*
X82800000Y-78866250D01*
X82800000Y-79378750D01*
X82798947Y-79400191D01*
X82795797Y-79421426D01*
X82790581Y-79442250D01*
X82783349Y-79462462D01*
X82774170Y-79481868D01*
X82763134Y-79500281D01*
X82750346Y-79517524D01*
X82735930Y-79533430D01*
X82720024Y-79547846D01*
X82702781Y-79560634D01*
X82684368Y-79571670D01*
X82664962Y-79580849D01*
X82644750Y-79588081D01*
X82623926Y-79593297D01*
X82602691Y-79596447D01*
X82581250Y-79597500D01*
X82143750Y-79597500D01*
X82122309Y-79596447D01*
X82101074Y-79593297D01*
X82080250Y-79588081D01*
X82060038Y-79580849D01*
X82040632Y-79571670D01*
X82022219Y-79560634D01*
X82004976Y-79547846D01*
X81989070Y-79533430D01*
X81974654Y-79517524D01*
X81961866Y-79500281D01*
X81950830Y-79481868D01*
X81941651Y-79462462D01*
X81934419Y-79442250D01*
X81929203Y-79421426D01*
X81926053Y-79400191D01*
X81925000Y-79378750D01*
X81925000Y-78866250D01*
X81926053Y-78844809D01*
X81929203Y-78823574D01*
X81934419Y-78802750D01*
X81941651Y-78782538D01*
X81950830Y-78763132D01*
X81961866Y-78744719D01*
X81974654Y-78727476D01*
X81989070Y-78711570D01*
X82004976Y-78697154D01*
X82022219Y-78684366D01*
X82040632Y-78673330D01*
X82060038Y-78664151D01*
X82080250Y-78656919D01*
X82101074Y-78651703D01*
X82122309Y-78648553D01*
X82143750Y-78647500D01*
X82581250Y-78647500D01*
X82602691Y-78648553D01*
X82602691Y-78648553D01*
G37*
D15*
X82362500Y-79122500D03*
D10*
G36*
X84177691Y-78648553D02*
G01*
X84198926Y-78651703D01*
X84219750Y-78656919D01*
X84239962Y-78664151D01*
X84259368Y-78673330D01*
X84277781Y-78684366D01*
X84295024Y-78697154D01*
X84310930Y-78711570D01*
X84325346Y-78727476D01*
X84338134Y-78744719D01*
X84349170Y-78763132D01*
X84358349Y-78782538D01*
X84365581Y-78802750D01*
X84370797Y-78823574D01*
X84373947Y-78844809D01*
X84375000Y-78866250D01*
X84375000Y-79378750D01*
X84373947Y-79400191D01*
X84370797Y-79421426D01*
X84365581Y-79442250D01*
X84358349Y-79462462D01*
X84349170Y-79481868D01*
X84338134Y-79500281D01*
X84325346Y-79517524D01*
X84310930Y-79533430D01*
X84295024Y-79547846D01*
X84277781Y-79560634D01*
X84259368Y-79571670D01*
X84239962Y-79580849D01*
X84219750Y-79588081D01*
X84198926Y-79593297D01*
X84177691Y-79596447D01*
X84156250Y-79597500D01*
X83718750Y-79597500D01*
X83697309Y-79596447D01*
X83676074Y-79593297D01*
X83655250Y-79588081D01*
X83635038Y-79580849D01*
X83615632Y-79571670D01*
X83597219Y-79560634D01*
X83579976Y-79547846D01*
X83564070Y-79533430D01*
X83549654Y-79517524D01*
X83536866Y-79500281D01*
X83525830Y-79481868D01*
X83516651Y-79462462D01*
X83509419Y-79442250D01*
X83504203Y-79421426D01*
X83501053Y-79400191D01*
X83500000Y-79378750D01*
X83500000Y-78866250D01*
X83501053Y-78844809D01*
X83504203Y-78823574D01*
X83509419Y-78802750D01*
X83516651Y-78782538D01*
X83525830Y-78763132D01*
X83536866Y-78744719D01*
X83549654Y-78727476D01*
X83564070Y-78711570D01*
X83579976Y-78697154D01*
X83597219Y-78684366D01*
X83615632Y-78673330D01*
X83635038Y-78664151D01*
X83655250Y-78656919D01*
X83676074Y-78651703D01*
X83697309Y-78648553D01*
X83718750Y-78647500D01*
X84156250Y-78647500D01*
X84177691Y-78648553D01*
X84177691Y-78648553D01*
G37*
D15*
X83937500Y-79122500D03*
D10*
G36*
X82602691Y-80954803D02*
G01*
X82623926Y-80957953D01*
X82644750Y-80963169D01*
X82664962Y-80970401D01*
X82684368Y-80979580D01*
X82702781Y-80990616D01*
X82720024Y-81003404D01*
X82735930Y-81017820D01*
X82750346Y-81033726D01*
X82763134Y-81050969D01*
X82774170Y-81069382D01*
X82783349Y-81088788D01*
X82790581Y-81109000D01*
X82795797Y-81129824D01*
X82798947Y-81151059D01*
X82800000Y-81172500D01*
X82800000Y-81685000D01*
X82798947Y-81706441D01*
X82795797Y-81727676D01*
X82790581Y-81748500D01*
X82783349Y-81768712D01*
X82774170Y-81788118D01*
X82763134Y-81806531D01*
X82750346Y-81823774D01*
X82735930Y-81839680D01*
X82720024Y-81854096D01*
X82702781Y-81866884D01*
X82684368Y-81877920D01*
X82664962Y-81887099D01*
X82644750Y-81894331D01*
X82623926Y-81899547D01*
X82602691Y-81902697D01*
X82581250Y-81903750D01*
X82143750Y-81903750D01*
X82122309Y-81902697D01*
X82101074Y-81899547D01*
X82080250Y-81894331D01*
X82060038Y-81887099D01*
X82040632Y-81877920D01*
X82022219Y-81866884D01*
X82004976Y-81854096D01*
X81989070Y-81839680D01*
X81974654Y-81823774D01*
X81961866Y-81806531D01*
X81950830Y-81788118D01*
X81941651Y-81768712D01*
X81934419Y-81748500D01*
X81929203Y-81727676D01*
X81926053Y-81706441D01*
X81925000Y-81685000D01*
X81925000Y-81172500D01*
X81926053Y-81151059D01*
X81929203Y-81129824D01*
X81934419Y-81109000D01*
X81941651Y-81088788D01*
X81950830Y-81069382D01*
X81961866Y-81050969D01*
X81974654Y-81033726D01*
X81989070Y-81017820D01*
X82004976Y-81003404D01*
X82022219Y-80990616D01*
X82040632Y-80979580D01*
X82060038Y-80970401D01*
X82080250Y-80963169D01*
X82101074Y-80957953D01*
X82122309Y-80954803D01*
X82143750Y-80953750D01*
X82581250Y-80953750D01*
X82602691Y-80954803D01*
X82602691Y-80954803D01*
G37*
D15*
X82362500Y-81428750D03*
D10*
G36*
X84177691Y-80954803D02*
G01*
X84198926Y-80957953D01*
X84219750Y-80963169D01*
X84239962Y-80970401D01*
X84259368Y-80979580D01*
X84277781Y-80990616D01*
X84295024Y-81003404D01*
X84310930Y-81017820D01*
X84325346Y-81033726D01*
X84338134Y-81050969D01*
X84349170Y-81069382D01*
X84358349Y-81088788D01*
X84365581Y-81109000D01*
X84370797Y-81129824D01*
X84373947Y-81151059D01*
X84375000Y-81172500D01*
X84375000Y-81685000D01*
X84373947Y-81706441D01*
X84370797Y-81727676D01*
X84365581Y-81748500D01*
X84358349Y-81768712D01*
X84349170Y-81788118D01*
X84338134Y-81806531D01*
X84325346Y-81823774D01*
X84310930Y-81839680D01*
X84295024Y-81854096D01*
X84277781Y-81866884D01*
X84259368Y-81877920D01*
X84239962Y-81887099D01*
X84219750Y-81894331D01*
X84198926Y-81899547D01*
X84177691Y-81902697D01*
X84156250Y-81903750D01*
X83718750Y-81903750D01*
X83697309Y-81902697D01*
X83676074Y-81899547D01*
X83655250Y-81894331D01*
X83635038Y-81887099D01*
X83615632Y-81877920D01*
X83597219Y-81866884D01*
X83579976Y-81854096D01*
X83564070Y-81839680D01*
X83549654Y-81823774D01*
X83536866Y-81806531D01*
X83525830Y-81788118D01*
X83516651Y-81768712D01*
X83509419Y-81748500D01*
X83504203Y-81727676D01*
X83501053Y-81706441D01*
X83500000Y-81685000D01*
X83500000Y-81172500D01*
X83501053Y-81151059D01*
X83504203Y-81129824D01*
X83509419Y-81109000D01*
X83516651Y-81088788D01*
X83525830Y-81069382D01*
X83536866Y-81050969D01*
X83549654Y-81033726D01*
X83564070Y-81017820D01*
X83579976Y-81003404D01*
X83597219Y-80990616D01*
X83615632Y-80979580D01*
X83635038Y-80970401D01*
X83655250Y-80963169D01*
X83676074Y-80957953D01*
X83697309Y-80954803D01*
X83718750Y-80953750D01*
X84156250Y-80953750D01*
X84177691Y-80954803D01*
X84177691Y-80954803D01*
G37*
D15*
X83937500Y-81428750D03*
D10*
G36*
X84177691Y-83261053D02*
G01*
X84198926Y-83264203D01*
X84219750Y-83269419D01*
X84239962Y-83276651D01*
X84259368Y-83285830D01*
X84277781Y-83296866D01*
X84295024Y-83309654D01*
X84310930Y-83324070D01*
X84325346Y-83339976D01*
X84338134Y-83357219D01*
X84349170Y-83375632D01*
X84358349Y-83395038D01*
X84365581Y-83415250D01*
X84370797Y-83436074D01*
X84373947Y-83457309D01*
X84375000Y-83478750D01*
X84375000Y-83991250D01*
X84373947Y-84012691D01*
X84370797Y-84033926D01*
X84365581Y-84054750D01*
X84358349Y-84074962D01*
X84349170Y-84094368D01*
X84338134Y-84112781D01*
X84325346Y-84130024D01*
X84310930Y-84145930D01*
X84295024Y-84160346D01*
X84277781Y-84173134D01*
X84259368Y-84184170D01*
X84239962Y-84193349D01*
X84219750Y-84200581D01*
X84198926Y-84205797D01*
X84177691Y-84208947D01*
X84156250Y-84210000D01*
X83718750Y-84210000D01*
X83697309Y-84208947D01*
X83676074Y-84205797D01*
X83655250Y-84200581D01*
X83635038Y-84193349D01*
X83615632Y-84184170D01*
X83597219Y-84173134D01*
X83579976Y-84160346D01*
X83564070Y-84145930D01*
X83549654Y-84130024D01*
X83536866Y-84112781D01*
X83525830Y-84094368D01*
X83516651Y-84074962D01*
X83509419Y-84054750D01*
X83504203Y-84033926D01*
X83501053Y-84012691D01*
X83500000Y-83991250D01*
X83500000Y-83478750D01*
X83501053Y-83457309D01*
X83504203Y-83436074D01*
X83509419Y-83415250D01*
X83516651Y-83395038D01*
X83525830Y-83375632D01*
X83536866Y-83357219D01*
X83549654Y-83339976D01*
X83564070Y-83324070D01*
X83579976Y-83309654D01*
X83597219Y-83296866D01*
X83615632Y-83285830D01*
X83635038Y-83276651D01*
X83655250Y-83269419D01*
X83676074Y-83264203D01*
X83697309Y-83261053D01*
X83718750Y-83260000D01*
X84156250Y-83260000D01*
X84177691Y-83261053D01*
X84177691Y-83261053D01*
G37*
D15*
X83937500Y-83735000D03*
D10*
G36*
X82602691Y-83261053D02*
G01*
X82623926Y-83264203D01*
X82644750Y-83269419D01*
X82664962Y-83276651D01*
X82684368Y-83285830D01*
X82702781Y-83296866D01*
X82720024Y-83309654D01*
X82735930Y-83324070D01*
X82750346Y-83339976D01*
X82763134Y-83357219D01*
X82774170Y-83375632D01*
X82783349Y-83395038D01*
X82790581Y-83415250D01*
X82795797Y-83436074D01*
X82798947Y-83457309D01*
X82800000Y-83478750D01*
X82800000Y-83991250D01*
X82798947Y-84012691D01*
X82795797Y-84033926D01*
X82790581Y-84054750D01*
X82783349Y-84074962D01*
X82774170Y-84094368D01*
X82763134Y-84112781D01*
X82750346Y-84130024D01*
X82735930Y-84145930D01*
X82720024Y-84160346D01*
X82702781Y-84173134D01*
X82684368Y-84184170D01*
X82664962Y-84193349D01*
X82644750Y-84200581D01*
X82623926Y-84205797D01*
X82602691Y-84208947D01*
X82581250Y-84210000D01*
X82143750Y-84210000D01*
X82122309Y-84208947D01*
X82101074Y-84205797D01*
X82080250Y-84200581D01*
X82060038Y-84193349D01*
X82040632Y-84184170D01*
X82022219Y-84173134D01*
X82004976Y-84160346D01*
X81989070Y-84145930D01*
X81974654Y-84130024D01*
X81961866Y-84112781D01*
X81950830Y-84094368D01*
X81941651Y-84074962D01*
X81934419Y-84054750D01*
X81929203Y-84033926D01*
X81926053Y-84012691D01*
X81925000Y-83991250D01*
X81925000Y-83478750D01*
X81926053Y-83457309D01*
X81929203Y-83436074D01*
X81934419Y-83415250D01*
X81941651Y-83395038D01*
X81950830Y-83375632D01*
X81961866Y-83357219D01*
X81974654Y-83339976D01*
X81989070Y-83324070D01*
X82004976Y-83309654D01*
X82022219Y-83296866D01*
X82040632Y-83285830D01*
X82060038Y-83276651D01*
X82080250Y-83269419D01*
X82101074Y-83264203D01*
X82122309Y-83261053D01*
X82143750Y-83260000D01*
X82581250Y-83260000D01*
X82602691Y-83261053D01*
X82602691Y-83261053D01*
G37*
D15*
X82362500Y-83735000D03*
D10*
G36*
X72577691Y-100606053D02*
G01*
X72598926Y-100609203D01*
X72619750Y-100614419D01*
X72639962Y-100621651D01*
X72659368Y-100630830D01*
X72677781Y-100641866D01*
X72695024Y-100654654D01*
X72710930Y-100669070D01*
X72725346Y-100684976D01*
X72738134Y-100702219D01*
X72749170Y-100720632D01*
X72758349Y-100740038D01*
X72765581Y-100760250D01*
X72770797Y-100781074D01*
X72773947Y-100802309D01*
X72775000Y-100823750D01*
X72775000Y-101261250D01*
X72773947Y-101282691D01*
X72770797Y-101303926D01*
X72765581Y-101324750D01*
X72758349Y-101344962D01*
X72749170Y-101364368D01*
X72738134Y-101382781D01*
X72725346Y-101400024D01*
X72710930Y-101415930D01*
X72695024Y-101430346D01*
X72677781Y-101443134D01*
X72659368Y-101454170D01*
X72639962Y-101463349D01*
X72619750Y-101470581D01*
X72598926Y-101475797D01*
X72577691Y-101478947D01*
X72556250Y-101480000D01*
X72043750Y-101480000D01*
X72022309Y-101478947D01*
X72001074Y-101475797D01*
X71980250Y-101470581D01*
X71960038Y-101463349D01*
X71940632Y-101454170D01*
X71922219Y-101443134D01*
X71904976Y-101430346D01*
X71889070Y-101415930D01*
X71874654Y-101400024D01*
X71861866Y-101382781D01*
X71850830Y-101364368D01*
X71841651Y-101344962D01*
X71834419Y-101324750D01*
X71829203Y-101303926D01*
X71826053Y-101282691D01*
X71825000Y-101261250D01*
X71825000Y-100823750D01*
X71826053Y-100802309D01*
X71829203Y-100781074D01*
X71834419Y-100760250D01*
X71841651Y-100740038D01*
X71850830Y-100720632D01*
X71861866Y-100702219D01*
X71874654Y-100684976D01*
X71889070Y-100669070D01*
X71904976Y-100654654D01*
X71922219Y-100641866D01*
X71940632Y-100630830D01*
X71960038Y-100621651D01*
X71980250Y-100614419D01*
X72001074Y-100609203D01*
X72022309Y-100606053D01*
X72043750Y-100605000D01*
X72556250Y-100605000D01*
X72577691Y-100606053D01*
X72577691Y-100606053D01*
G37*
D15*
X72300000Y-101042500D03*
D10*
G36*
X72577691Y-102181053D02*
G01*
X72598926Y-102184203D01*
X72619750Y-102189419D01*
X72639962Y-102196651D01*
X72659368Y-102205830D01*
X72677781Y-102216866D01*
X72695024Y-102229654D01*
X72710930Y-102244070D01*
X72725346Y-102259976D01*
X72738134Y-102277219D01*
X72749170Y-102295632D01*
X72758349Y-102315038D01*
X72765581Y-102335250D01*
X72770797Y-102356074D01*
X72773947Y-102377309D01*
X72775000Y-102398750D01*
X72775000Y-102836250D01*
X72773947Y-102857691D01*
X72770797Y-102878926D01*
X72765581Y-102899750D01*
X72758349Y-102919962D01*
X72749170Y-102939368D01*
X72738134Y-102957781D01*
X72725346Y-102975024D01*
X72710930Y-102990930D01*
X72695024Y-103005346D01*
X72677781Y-103018134D01*
X72659368Y-103029170D01*
X72639962Y-103038349D01*
X72619750Y-103045581D01*
X72598926Y-103050797D01*
X72577691Y-103053947D01*
X72556250Y-103055000D01*
X72043750Y-103055000D01*
X72022309Y-103053947D01*
X72001074Y-103050797D01*
X71980250Y-103045581D01*
X71960038Y-103038349D01*
X71940632Y-103029170D01*
X71922219Y-103018134D01*
X71904976Y-103005346D01*
X71889070Y-102990930D01*
X71874654Y-102975024D01*
X71861866Y-102957781D01*
X71850830Y-102939368D01*
X71841651Y-102919962D01*
X71834419Y-102899750D01*
X71829203Y-102878926D01*
X71826053Y-102857691D01*
X71825000Y-102836250D01*
X71825000Y-102398750D01*
X71826053Y-102377309D01*
X71829203Y-102356074D01*
X71834419Y-102335250D01*
X71841651Y-102315038D01*
X71850830Y-102295632D01*
X71861866Y-102277219D01*
X71874654Y-102259976D01*
X71889070Y-102244070D01*
X71904976Y-102229654D01*
X71922219Y-102216866D01*
X71940632Y-102205830D01*
X71960038Y-102196651D01*
X71980250Y-102189419D01*
X72001074Y-102184203D01*
X72022309Y-102181053D01*
X72043750Y-102180000D01*
X72556250Y-102180000D01*
X72577691Y-102181053D01*
X72577691Y-102181053D01*
G37*
D15*
X72300000Y-102617500D03*
D10*
G36*
X83962691Y-53096053D02*
G01*
X83983926Y-53099203D01*
X84004750Y-53104419D01*
X84024962Y-53111651D01*
X84044368Y-53120830D01*
X84062781Y-53131866D01*
X84080024Y-53144654D01*
X84095930Y-53159070D01*
X84110346Y-53174976D01*
X84123134Y-53192219D01*
X84134170Y-53210632D01*
X84143349Y-53230038D01*
X84150581Y-53250250D01*
X84155797Y-53271074D01*
X84158947Y-53292309D01*
X84160000Y-53313750D01*
X84160000Y-53826250D01*
X84158947Y-53847691D01*
X84155797Y-53868926D01*
X84150581Y-53889750D01*
X84143349Y-53909962D01*
X84134170Y-53929368D01*
X84123134Y-53947781D01*
X84110346Y-53965024D01*
X84095930Y-53980930D01*
X84080024Y-53995346D01*
X84062781Y-54008134D01*
X84044368Y-54019170D01*
X84024962Y-54028349D01*
X84004750Y-54035581D01*
X83983926Y-54040797D01*
X83962691Y-54043947D01*
X83941250Y-54045000D01*
X83503750Y-54045000D01*
X83482309Y-54043947D01*
X83461074Y-54040797D01*
X83440250Y-54035581D01*
X83420038Y-54028349D01*
X83400632Y-54019170D01*
X83382219Y-54008134D01*
X83364976Y-53995346D01*
X83349070Y-53980930D01*
X83334654Y-53965024D01*
X83321866Y-53947781D01*
X83310830Y-53929368D01*
X83301651Y-53909962D01*
X83294419Y-53889750D01*
X83289203Y-53868926D01*
X83286053Y-53847691D01*
X83285000Y-53826250D01*
X83285000Y-53313750D01*
X83286053Y-53292309D01*
X83289203Y-53271074D01*
X83294419Y-53250250D01*
X83301651Y-53230038D01*
X83310830Y-53210632D01*
X83321866Y-53192219D01*
X83334654Y-53174976D01*
X83349070Y-53159070D01*
X83364976Y-53144654D01*
X83382219Y-53131866D01*
X83400632Y-53120830D01*
X83420038Y-53111651D01*
X83440250Y-53104419D01*
X83461074Y-53099203D01*
X83482309Y-53096053D01*
X83503750Y-53095000D01*
X83941250Y-53095000D01*
X83962691Y-53096053D01*
X83962691Y-53096053D01*
G37*
D15*
X83722500Y-53570000D03*
D10*
G36*
X85537691Y-53096053D02*
G01*
X85558926Y-53099203D01*
X85579750Y-53104419D01*
X85599962Y-53111651D01*
X85619368Y-53120830D01*
X85637781Y-53131866D01*
X85655024Y-53144654D01*
X85670930Y-53159070D01*
X85685346Y-53174976D01*
X85698134Y-53192219D01*
X85709170Y-53210632D01*
X85718349Y-53230038D01*
X85725581Y-53250250D01*
X85730797Y-53271074D01*
X85733947Y-53292309D01*
X85735000Y-53313750D01*
X85735000Y-53826250D01*
X85733947Y-53847691D01*
X85730797Y-53868926D01*
X85725581Y-53889750D01*
X85718349Y-53909962D01*
X85709170Y-53929368D01*
X85698134Y-53947781D01*
X85685346Y-53965024D01*
X85670930Y-53980930D01*
X85655024Y-53995346D01*
X85637781Y-54008134D01*
X85619368Y-54019170D01*
X85599962Y-54028349D01*
X85579750Y-54035581D01*
X85558926Y-54040797D01*
X85537691Y-54043947D01*
X85516250Y-54045000D01*
X85078750Y-54045000D01*
X85057309Y-54043947D01*
X85036074Y-54040797D01*
X85015250Y-54035581D01*
X84995038Y-54028349D01*
X84975632Y-54019170D01*
X84957219Y-54008134D01*
X84939976Y-53995346D01*
X84924070Y-53980930D01*
X84909654Y-53965024D01*
X84896866Y-53947781D01*
X84885830Y-53929368D01*
X84876651Y-53909962D01*
X84869419Y-53889750D01*
X84864203Y-53868926D01*
X84861053Y-53847691D01*
X84860000Y-53826250D01*
X84860000Y-53313750D01*
X84861053Y-53292309D01*
X84864203Y-53271074D01*
X84869419Y-53250250D01*
X84876651Y-53230038D01*
X84885830Y-53210632D01*
X84896866Y-53192219D01*
X84909654Y-53174976D01*
X84924070Y-53159070D01*
X84939976Y-53144654D01*
X84957219Y-53131866D01*
X84975632Y-53120830D01*
X84995038Y-53111651D01*
X85015250Y-53104419D01*
X85036074Y-53099203D01*
X85057309Y-53096053D01*
X85078750Y-53095000D01*
X85516250Y-53095000D01*
X85537691Y-53096053D01*
X85537691Y-53096053D01*
G37*
D15*
X85297500Y-53570000D03*
D10*
G36*
X92447691Y-106361053D02*
G01*
X92468926Y-106364203D01*
X92489750Y-106369419D01*
X92509962Y-106376651D01*
X92529368Y-106385830D01*
X92547781Y-106396866D01*
X92565024Y-106409654D01*
X92580930Y-106424070D01*
X92595346Y-106439976D01*
X92608134Y-106457219D01*
X92619170Y-106475632D01*
X92628349Y-106495038D01*
X92635581Y-106515250D01*
X92640797Y-106536074D01*
X92643947Y-106557309D01*
X92645000Y-106578750D01*
X92645000Y-107016250D01*
X92643947Y-107037691D01*
X92640797Y-107058926D01*
X92635581Y-107079750D01*
X92628349Y-107099962D01*
X92619170Y-107119368D01*
X92608134Y-107137781D01*
X92595346Y-107155024D01*
X92580930Y-107170930D01*
X92565024Y-107185346D01*
X92547781Y-107198134D01*
X92529368Y-107209170D01*
X92509962Y-107218349D01*
X92489750Y-107225581D01*
X92468926Y-107230797D01*
X92447691Y-107233947D01*
X92426250Y-107235000D01*
X91913750Y-107235000D01*
X91892309Y-107233947D01*
X91871074Y-107230797D01*
X91850250Y-107225581D01*
X91830038Y-107218349D01*
X91810632Y-107209170D01*
X91792219Y-107198134D01*
X91774976Y-107185346D01*
X91759070Y-107170930D01*
X91744654Y-107155024D01*
X91731866Y-107137781D01*
X91720830Y-107119368D01*
X91711651Y-107099962D01*
X91704419Y-107079750D01*
X91699203Y-107058926D01*
X91696053Y-107037691D01*
X91695000Y-107016250D01*
X91695000Y-106578750D01*
X91696053Y-106557309D01*
X91699203Y-106536074D01*
X91704419Y-106515250D01*
X91711651Y-106495038D01*
X91720830Y-106475632D01*
X91731866Y-106457219D01*
X91744654Y-106439976D01*
X91759070Y-106424070D01*
X91774976Y-106409654D01*
X91792219Y-106396866D01*
X91810632Y-106385830D01*
X91830038Y-106376651D01*
X91850250Y-106369419D01*
X91871074Y-106364203D01*
X91892309Y-106361053D01*
X91913750Y-106360000D01*
X92426250Y-106360000D01*
X92447691Y-106361053D01*
X92447691Y-106361053D01*
G37*
D15*
X92170000Y-106797500D03*
D10*
G36*
X92447691Y-104786053D02*
G01*
X92468926Y-104789203D01*
X92489750Y-104794419D01*
X92509962Y-104801651D01*
X92529368Y-104810830D01*
X92547781Y-104821866D01*
X92565024Y-104834654D01*
X92580930Y-104849070D01*
X92595346Y-104864976D01*
X92608134Y-104882219D01*
X92619170Y-104900632D01*
X92628349Y-104920038D01*
X92635581Y-104940250D01*
X92640797Y-104961074D01*
X92643947Y-104982309D01*
X92645000Y-105003750D01*
X92645000Y-105441250D01*
X92643947Y-105462691D01*
X92640797Y-105483926D01*
X92635581Y-105504750D01*
X92628349Y-105524962D01*
X92619170Y-105544368D01*
X92608134Y-105562781D01*
X92595346Y-105580024D01*
X92580930Y-105595930D01*
X92565024Y-105610346D01*
X92547781Y-105623134D01*
X92529368Y-105634170D01*
X92509962Y-105643349D01*
X92489750Y-105650581D01*
X92468926Y-105655797D01*
X92447691Y-105658947D01*
X92426250Y-105660000D01*
X91913750Y-105660000D01*
X91892309Y-105658947D01*
X91871074Y-105655797D01*
X91850250Y-105650581D01*
X91830038Y-105643349D01*
X91810632Y-105634170D01*
X91792219Y-105623134D01*
X91774976Y-105610346D01*
X91759070Y-105595930D01*
X91744654Y-105580024D01*
X91731866Y-105562781D01*
X91720830Y-105544368D01*
X91711651Y-105524962D01*
X91704419Y-105504750D01*
X91699203Y-105483926D01*
X91696053Y-105462691D01*
X91695000Y-105441250D01*
X91695000Y-105003750D01*
X91696053Y-104982309D01*
X91699203Y-104961074D01*
X91704419Y-104940250D01*
X91711651Y-104920038D01*
X91720830Y-104900632D01*
X91731866Y-104882219D01*
X91744654Y-104864976D01*
X91759070Y-104849070D01*
X91774976Y-104834654D01*
X91792219Y-104821866D01*
X91810632Y-104810830D01*
X91830038Y-104801651D01*
X91850250Y-104794419D01*
X91871074Y-104789203D01*
X91892309Y-104786053D01*
X91913750Y-104785000D01*
X92426250Y-104785000D01*
X92447691Y-104786053D01*
X92447691Y-104786053D01*
G37*
D15*
X92170000Y-105222500D03*
D10*
G36*
X92447691Y-109471053D02*
G01*
X92468926Y-109474203D01*
X92489750Y-109479419D01*
X92509962Y-109486651D01*
X92529368Y-109495830D01*
X92547781Y-109506866D01*
X92565024Y-109519654D01*
X92580930Y-109534070D01*
X92595346Y-109549976D01*
X92608134Y-109567219D01*
X92619170Y-109585632D01*
X92628349Y-109605038D01*
X92635581Y-109625250D01*
X92640797Y-109646074D01*
X92643947Y-109667309D01*
X92645000Y-109688750D01*
X92645000Y-110126250D01*
X92643947Y-110147691D01*
X92640797Y-110168926D01*
X92635581Y-110189750D01*
X92628349Y-110209962D01*
X92619170Y-110229368D01*
X92608134Y-110247781D01*
X92595346Y-110265024D01*
X92580930Y-110280930D01*
X92565024Y-110295346D01*
X92547781Y-110308134D01*
X92529368Y-110319170D01*
X92509962Y-110328349D01*
X92489750Y-110335581D01*
X92468926Y-110340797D01*
X92447691Y-110343947D01*
X92426250Y-110345000D01*
X91913750Y-110345000D01*
X91892309Y-110343947D01*
X91871074Y-110340797D01*
X91850250Y-110335581D01*
X91830038Y-110328349D01*
X91810632Y-110319170D01*
X91792219Y-110308134D01*
X91774976Y-110295346D01*
X91759070Y-110280930D01*
X91744654Y-110265024D01*
X91731866Y-110247781D01*
X91720830Y-110229368D01*
X91711651Y-110209962D01*
X91704419Y-110189750D01*
X91699203Y-110168926D01*
X91696053Y-110147691D01*
X91695000Y-110126250D01*
X91695000Y-109688750D01*
X91696053Y-109667309D01*
X91699203Y-109646074D01*
X91704419Y-109625250D01*
X91711651Y-109605038D01*
X91720830Y-109585632D01*
X91731866Y-109567219D01*
X91744654Y-109549976D01*
X91759070Y-109534070D01*
X91774976Y-109519654D01*
X91792219Y-109506866D01*
X91810632Y-109495830D01*
X91830038Y-109486651D01*
X91850250Y-109479419D01*
X91871074Y-109474203D01*
X91892309Y-109471053D01*
X91913750Y-109470000D01*
X92426250Y-109470000D01*
X92447691Y-109471053D01*
X92447691Y-109471053D01*
G37*
D15*
X92170000Y-109907500D03*
D10*
G36*
X92447691Y-107896053D02*
G01*
X92468926Y-107899203D01*
X92489750Y-107904419D01*
X92509962Y-107911651D01*
X92529368Y-107920830D01*
X92547781Y-107931866D01*
X92565024Y-107944654D01*
X92580930Y-107959070D01*
X92595346Y-107974976D01*
X92608134Y-107992219D01*
X92619170Y-108010632D01*
X92628349Y-108030038D01*
X92635581Y-108050250D01*
X92640797Y-108071074D01*
X92643947Y-108092309D01*
X92645000Y-108113750D01*
X92645000Y-108551250D01*
X92643947Y-108572691D01*
X92640797Y-108593926D01*
X92635581Y-108614750D01*
X92628349Y-108634962D01*
X92619170Y-108654368D01*
X92608134Y-108672781D01*
X92595346Y-108690024D01*
X92580930Y-108705930D01*
X92565024Y-108720346D01*
X92547781Y-108733134D01*
X92529368Y-108744170D01*
X92509962Y-108753349D01*
X92489750Y-108760581D01*
X92468926Y-108765797D01*
X92447691Y-108768947D01*
X92426250Y-108770000D01*
X91913750Y-108770000D01*
X91892309Y-108768947D01*
X91871074Y-108765797D01*
X91850250Y-108760581D01*
X91830038Y-108753349D01*
X91810632Y-108744170D01*
X91792219Y-108733134D01*
X91774976Y-108720346D01*
X91759070Y-108705930D01*
X91744654Y-108690024D01*
X91731866Y-108672781D01*
X91720830Y-108654368D01*
X91711651Y-108634962D01*
X91704419Y-108614750D01*
X91699203Y-108593926D01*
X91696053Y-108572691D01*
X91695000Y-108551250D01*
X91695000Y-108113750D01*
X91696053Y-108092309D01*
X91699203Y-108071074D01*
X91704419Y-108050250D01*
X91711651Y-108030038D01*
X91720830Y-108010632D01*
X91731866Y-107992219D01*
X91744654Y-107974976D01*
X91759070Y-107959070D01*
X91774976Y-107944654D01*
X91792219Y-107931866D01*
X91810632Y-107920830D01*
X91830038Y-107911651D01*
X91850250Y-107904419D01*
X91871074Y-107899203D01*
X91892309Y-107896053D01*
X91913750Y-107895000D01*
X92426250Y-107895000D01*
X92447691Y-107896053D01*
X92447691Y-107896053D01*
G37*
D15*
X92170000Y-108332500D03*
D10*
G36*
X92737691Y-121586053D02*
G01*
X92758926Y-121589203D01*
X92779750Y-121594419D01*
X92799962Y-121601651D01*
X92819368Y-121610830D01*
X92837781Y-121621866D01*
X92855024Y-121634654D01*
X92870930Y-121649070D01*
X92885346Y-121664976D01*
X92898134Y-121682219D01*
X92909170Y-121700632D01*
X92918349Y-121720038D01*
X92925581Y-121740250D01*
X92930797Y-121761074D01*
X92933947Y-121782309D01*
X92935000Y-121803750D01*
X92935000Y-122241250D01*
X92933947Y-122262691D01*
X92930797Y-122283926D01*
X92925581Y-122304750D01*
X92918349Y-122324962D01*
X92909170Y-122344368D01*
X92898134Y-122362781D01*
X92885346Y-122380024D01*
X92870930Y-122395930D01*
X92855024Y-122410346D01*
X92837781Y-122423134D01*
X92819368Y-122434170D01*
X92799962Y-122443349D01*
X92779750Y-122450581D01*
X92758926Y-122455797D01*
X92737691Y-122458947D01*
X92716250Y-122460000D01*
X92203750Y-122460000D01*
X92182309Y-122458947D01*
X92161074Y-122455797D01*
X92140250Y-122450581D01*
X92120038Y-122443349D01*
X92100632Y-122434170D01*
X92082219Y-122423134D01*
X92064976Y-122410346D01*
X92049070Y-122395930D01*
X92034654Y-122380024D01*
X92021866Y-122362781D01*
X92010830Y-122344368D01*
X92001651Y-122324962D01*
X91994419Y-122304750D01*
X91989203Y-122283926D01*
X91986053Y-122262691D01*
X91985000Y-122241250D01*
X91985000Y-121803750D01*
X91986053Y-121782309D01*
X91989203Y-121761074D01*
X91994419Y-121740250D01*
X92001651Y-121720038D01*
X92010830Y-121700632D01*
X92021866Y-121682219D01*
X92034654Y-121664976D01*
X92049070Y-121649070D01*
X92064976Y-121634654D01*
X92082219Y-121621866D01*
X92100632Y-121610830D01*
X92120038Y-121601651D01*
X92140250Y-121594419D01*
X92161074Y-121589203D01*
X92182309Y-121586053D01*
X92203750Y-121585000D01*
X92716250Y-121585000D01*
X92737691Y-121586053D01*
X92737691Y-121586053D01*
G37*
D15*
X92460000Y-122022500D03*
D10*
G36*
X92737691Y-123161053D02*
G01*
X92758926Y-123164203D01*
X92779750Y-123169419D01*
X92799962Y-123176651D01*
X92819368Y-123185830D01*
X92837781Y-123196866D01*
X92855024Y-123209654D01*
X92870930Y-123224070D01*
X92885346Y-123239976D01*
X92898134Y-123257219D01*
X92909170Y-123275632D01*
X92918349Y-123295038D01*
X92925581Y-123315250D01*
X92930797Y-123336074D01*
X92933947Y-123357309D01*
X92935000Y-123378750D01*
X92935000Y-123816250D01*
X92933947Y-123837691D01*
X92930797Y-123858926D01*
X92925581Y-123879750D01*
X92918349Y-123899962D01*
X92909170Y-123919368D01*
X92898134Y-123937781D01*
X92885346Y-123955024D01*
X92870930Y-123970930D01*
X92855024Y-123985346D01*
X92837781Y-123998134D01*
X92819368Y-124009170D01*
X92799962Y-124018349D01*
X92779750Y-124025581D01*
X92758926Y-124030797D01*
X92737691Y-124033947D01*
X92716250Y-124035000D01*
X92203750Y-124035000D01*
X92182309Y-124033947D01*
X92161074Y-124030797D01*
X92140250Y-124025581D01*
X92120038Y-124018349D01*
X92100632Y-124009170D01*
X92082219Y-123998134D01*
X92064976Y-123985346D01*
X92049070Y-123970930D01*
X92034654Y-123955024D01*
X92021866Y-123937781D01*
X92010830Y-123919368D01*
X92001651Y-123899962D01*
X91994419Y-123879750D01*
X91989203Y-123858926D01*
X91986053Y-123837691D01*
X91985000Y-123816250D01*
X91985000Y-123378750D01*
X91986053Y-123357309D01*
X91989203Y-123336074D01*
X91994419Y-123315250D01*
X92001651Y-123295038D01*
X92010830Y-123275632D01*
X92021866Y-123257219D01*
X92034654Y-123239976D01*
X92049070Y-123224070D01*
X92064976Y-123209654D01*
X92082219Y-123196866D01*
X92100632Y-123185830D01*
X92120038Y-123176651D01*
X92140250Y-123169419D01*
X92161074Y-123164203D01*
X92182309Y-123161053D01*
X92203750Y-123160000D01*
X92716250Y-123160000D01*
X92737691Y-123161053D01*
X92737691Y-123161053D01*
G37*
D15*
X92460000Y-123597500D03*
D10*
G36*
X90987691Y-150896053D02*
G01*
X91008926Y-150899203D01*
X91029750Y-150904419D01*
X91049962Y-150911651D01*
X91069368Y-150920830D01*
X91087781Y-150931866D01*
X91105024Y-150944654D01*
X91120930Y-150959070D01*
X91135346Y-150974976D01*
X91148134Y-150992219D01*
X91159170Y-151010632D01*
X91168349Y-151030038D01*
X91175581Y-151050250D01*
X91180797Y-151071074D01*
X91183947Y-151092309D01*
X91185000Y-151113750D01*
X91185000Y-151626250D01*
X91183947Y-151647691D01*
X91180797Y-151668926D01*
X91175581Y-151689750D01*
X91168349Y-151709962D01*
X91159170Y-151729368D01*
X91148134Y-151747781D01*
X91135346Y-151765024D01*
X91120930Y-151780930D01*
X91105024Y-151795346D01*
X91087781Y-151808134D01*
X91069368Y-151819170D01*
X91049962Y-151828349D01*
X91029750Y-151835581D01*
X91008926Y-151840797D01*
X90987691Y-151843947D01*
X90966250Y-151845000D01*
X90528750Y-151845000D01*
X90507309Y-151843947D01*
X90486074Y-151840797D01*
X90465250Y-151835581D01*
X90445038Y-151828349D01*
X90425632Y-151819170D01*
X90407219Y-151808134D01*
X90389976Y-151795346D01*
X90374070Y-151780930D01*
X90359654Y-151765024D01*
X90346866Y-151747781D01*
X90335830Y-151729368D01*
X90326651Y-151709962D01*
X90319419Y-151689750D01*
X90314203Y-151668926D01*
X90311053Y-151647691D01*
X90310000Y-151626250D01*
X90310000Y-151113750D01*
X90311053Y-151092309D01*
X90314203Y-151071074D01*
X90319419Y-151050250D01*
X90326651Y-151030038D01*
X90335830Y-151010632D01*
X90346866Y-150992219D01*
X90359654Y-150974976D01*
X90374070Y-150959070D01*
X90389976Y-150944654D01*
X90407219Y-150931866D01*
X90425632Y-150920830D01*
X90445038Y-150911651D01*
X90465250Y-150904419D01*
X90486074Y-150899203D01*
X90507309Y-150896053D01*
X90528750Y-150895000D01*
X90966250Y-150895000D01*
X90987691Y-150896053D01*
X90987691Y-150896053D01*
G37*
D15*
X90747500Y-151370000D03*
D10*
G36*
X89412691Y-150896053D02*
G01*
X89433926Y-150899203D01*
X89454750Y-150904419D01*
X89474962Y-150911651D01*
X89494368Y-150920830D01*
X89512781Y-150931866D01*
X89530024Y-150944654D01*
X89545930Y-150959070D01*
X89560346Y-150974976D01*
X89573134Y-150992219D01*
X89584170Y-151010632D01*
X89593349Y-151030038D01*
X89600581Y-151050250D01*
X89605797Y-151071074D01*
X89608947Y-151092309D01*
X89610000Y-151113750D01*
X89610000Y-151626250D01*
X89608947Y-151647691D01*
X89605797Y-151668926D01*
X89600581Y-151689750D01*
X89593349Y-151709962D01*
X89584170Y-151729368D01*
X89573134Y-151747781D01*
X89560346Y-151765024D01*
X89545930Y-151780930D01*
X89530024Y-151795346D01*
X89512781Y-151808134D01*
X89494368Y-151819170D01*
X89474962Y-151828349D01*
X89454750Y-151835581D01*
X89433926Y-151840797D01*
X89412691Y-151843947D01*
X89391250Y-151845000D01*
X88953750Y-151845000D01*
X88932309Y-151843947D01*
X88911074Y-151840797D01*
X88890250Y-151835581D01*
X88870038Y-151828349D01*
X88850632Y-151819170D01*
X88832219Y-151808134D01*
X88814976Y-151795346D01*
X88799070Y-151780930D01*
X88784654Y-151765024D01*
X88771866Y-151747781D01*
X88760830Y-151729368D01*
X88751651Y-151709962D01*
X88744419Y-151689750D01*
X88739203Y-151668926D01*
X88736053Y-151647691D01*
X88735000Y-151626250D01*
X88735000Y-151113750D01*
X88736053Y-151092309D01*
X88739203Y-151071074D01*
X88744419Y-151050250D01*
X88751651Y-151030038D01*
X88760830Y-151010632D01*
X88771866Y-150992219D01*
X88784654Y-150974976D01*
X88799070Y-150959070D01*
X88814976Y-150944654D01*
X88832219Y-150931866D01*
X88850632Y-150920830D01*
X88870038Y-150911651D01*
X88890250Y-150904419D01*
X88911074Y-150899203D01*
X88932309Y-150896053D01*
X88953750Y-150895000D01*
X89391250Y-150895000D01*
X89412691Y-150896053D01*
X89412691Y-150896053D01*
G37*
D15*
X89172500Y-151370000D03*
D10*
G36*
X89607691Y-134651053D02*
G01*
X89628926Y-134654203D01*
X89649750Y-134659419D01*
X89669962Y-134666651D01*
X89689368Y-134675830D01*
X89707781Y-134686866D01*
X89725024Y-134699654D01*
X89740930Y-134714070D01*
X89755346Y-134729976D01*
X89768134Y-134747219D01*
X89779170Y-134765632D01*
X89788349Y-134785038D01*
X89795581Y-134805250D01*
X89800797Y-134826074D01*
X89803947Y-134847309D01*
X89805000Y-134868750D01*
X89805000Y-135306250D01*
X89803947Y-135327691D01*
X89800797Y-135348926D01*
X89795581Y-135369750D01*
X89788349Y-135389962D01*
X89779170Y-135409368D01*
X89768134Y-135427781D01*
X89755346Y-135445024D01*
X89740930Y-135460930D01*
X89725024Y-135475346D01*
X89707781Y-135488134D01*
X89689368Y-135499170D01*
X89669962Y-135508349D01*
X89649750Y-135515581D01*
X89628926Y-135520797D01*
X89607691Y-135523947D01*
X89586250Y-135525000D01*
X89073750Y-135525000D01*
X89052309Y-135523947D01*
X89031074Y-135520797D01*
X89010250Y-135515581D01*
X88990038Y-135508349D01*
X88970632Y-135499170D01*
X88952219Y-135488134D01*
X88934976Y-135475346D01*
X88919070Y-135460930D01*
X88904654Y-135445024D01*
X88891866Y-135427781D01*
X88880830Y-135409368D01*
X88871651Y-135389962D01*
X88864419Y-135369750D01*
X88859203Y-135348926D01*
X88856053Y-135327691D01*
X88855000Y-135306250D01*
X88855000Y-134868750D01*
X88856053Y-134847309D01*
X88859203Y-134826074D01*
X88864419Y-134805250D01*
X88871651Y-134785038D01*
X88880830Y-134765632D01*
X88891866Y-134747219D01*
X88904654Y-134729976D01*
X88919070Y-134714070D01*
X88934976Y-134699654D01*
X88952219Y-134686866D01*
X88970632Y-134675830D01*
X88990038Y-134666651D01*
X89010250Y-134659419D01*
X89031074Y-134654203D01*
X89052309Y-134651053D01*
X89073750Y-134650000D01*
X89586250Y-134650000D01*
X89607691Y-134651053D01*
X89607691Y-134651053D01*
G37*
D15*
X89330000Y-135087500D03*
D10*
G36*
X89607691Y-133076053D02*
G01*
X89628926Y-133079203D01*
X89649750Y-133084419D01*
X89669962Y-133091651D01*
X89689368Y-133100830D01*
X89707781Y-133111866D01*
X89725024Y-133124654D01*
X89740930Y-133139070D01*
X89755346Y-133154976D01*
X89768134Y-133172219D01*
X89779170Y-133190632D01*
X89788349Y-133210038D01*
X89795581Y-133230250D01*
X89800797Y-133251074D01*
X89803947Y-133272309D01*
X89805000Y-133293750D01*
X89805000Y-133731250D01*
X89803947Y-133752691D01*
X89800797Y-133773926D01*
X89795581Y-133794750D01*
X89788349Y-133814962D01*
X89779170Y-133834368D01*
X89768134Y-133852781D01*
X89755346Y-133870024D01*
X89740930Y-133885930D01*
X89725024Y-133900346D01*
X89707781Y-133913134D01*
X89689368Y-133924170D01*
X89669962Y-133933349D01*
X89649750Y-133940581D01*
X89628926Y-133945797D01*
X89607691Y-133948947D01*
X89586250Y-133950000D01*
X89073750Y-133950000D01*
X89052309Y-133948947D01*
X89031074Y-133945797D01*
X89010250Y-133940581D01*
X88990038Y-133933349D01*
X88970632Y-133924170D01*
X88952219Y-133913134D01*
X88934976Y-133900346D01*
X88919070Y-133885930D01*
X88904654Y-133870024D01*
X88891866Y-133852781D01*
X88880830Y-133834368D01*
X88871651Y-133814962D01*
X88864419Y-133794750D01*
X88859203Y-133773926D01*
X88856053Y-133752691D01*
X88855000Y-133731250D01*
X88855000Y-133293750D01*
X88856053Y-133272309D01*
X88859203Y-133251074D01*
X88864419Y-133230250D01*
X88871651Y-133210038D01*
X88880830Y-133190632D01*
X88891866Y-133172219D01*
X88904654Y-133154976D01*
X88919070Y-133139070D01*
X88934976Y-133124654D01*
X88952219Y-133111866D01*
X88970632Y-133100830D01*
X88990038Y-133091651D01*
X89010250Y-133084419D01*
X89031074Y-133079203D01*
X89052309Y-133076053D01*
X89073750Y-133075000D01*
X89586250Y-133075000D01*
X89607691Y-133076053D01*
X89607691Y-133076053D01*
G37*
D15*
X89330000Y-133512500D03*
D10*
G36*
X87697691Y-133076053D02*
G01*
X87718926Y-133079203D01*
X87739750Y-133084419D01*
X87759962Y-133091651D01*
X87779368Y-133100830D01*
X87797781Y-133111866D01*
X87815024Y-133124654D01*
X87830930Y-133139070D01*
X87845346Y-133154976D01*
X87858134Y-133172219D01*
X87869170Y-133190632D01*
X87878349Y-133210038D01*
X87885581Y-133230250D01*
X87890797Y-133251074D01*
X87893947Y-133272309D01*
X87895000Y-133293750D01*
X87895000Y-133731250D01*
X87893947Y-133752691D01*
X87890797Y-133773926D01*
X87885581Y-133794750D01*
X87878349Y-133814962D01*
X87869170Y-133834368D01*
X87858134Y-133852781D01*
X87845346Y-133870024D01*
X87830930Y-133885930D01*
X87815024Y-133900346D01*
X87797781Y-133913134D01*
X87779368Y-133924170D01*
X87759962Y-133933349D01*
X87739750Y-133940581D01*
X87718926Y-133945797D01*
X87697691Y-133948947D01*
X87676250Y-133950000D01*
X87163750Y-133950000D01*
X87142309Y-133948947D01*
X87121074Y-133945797D01*
X87100250Y-133940581D01*
X87080038Y-133933349D01*
X87060632Y-133924170D01*
X87042219Y-133913134D01*
X87024976Y-133900346D01*
X87009070Y-133885930D01*
X86994654Y-133870024D01*
X86981866Y-133852781D01*
X86970830Y-133834368D01*
X86961651Y-133814962D01*
X86954419Y-133794750D01*
X86949203Y-133773926D01*
X86946053Y-133752691D01*
X86945000Y-133731250D01*
X86945000Y-133293750D01*
X86946053Y-133272309D01*
X86949203Y-133251074D01*
X86954419Y-133230250D01*
X86961651Y-133210038D01*
X86970830Y-133190632D01*
X86981866Y-133172219D01*
X86994654Y-133154976D01*
X87009070Y-133139070D01*
X87024976Y-133124654D01*
X87042219Y-133111866D01*
X87060632Y-133100830D01*
X87080038Y-133091651D01*
X87100250Y-133084419D01*
X87121074Y-133079203D01*
X87142309Y-133076053D01*
X87163750Y-133075000D01*
X87676250Y-133075000D01*
X87697691Y-133076053D01*
X87697691Y-133076053D01*
G37*
D15*
X87420000Y-133512500D03*
D10*
G36*
X87697691Y-134651053D02*
G01*
X87718926Y-134654203D01*
X87739750Y-134659419D01*
X87759962Y-134666651D01*
X87779368Y-134675830D01*
X87797781Y-134686866D01*
X87815024Y-134699654D01*
X87830930Y-134714070D01*
X87845346Y-134729976D01*
X87858134Y-134747219D01*
X87869170Y-134765632D01*
X87878349Y-134785038D01*
X87885581Y-134805250D01*
X87890797Y-134826074D01*
X87893947Y-134847309D01*
X87895000Y-134868750D01*
X87895000Y-135306250D01*
X87893947Y-135327691D01*
X87890797Y-135348926D01*
X87885581Y-135369750D01*
X87878349Y-135389962D01*
X87869170Y-135409368D01*
X87858134Y-135427781D01*
X87845346Y-135445024D01*
X87830930Y-135460930D01*
X87815024Y-135475346D01*
X87797781Y-135488134D01*
X87779368Y-135499170D01*
X87759962Y-135508349D01*
X87739750Y-135515581D01*
X87718926Y-135520797D01*
X87697691Y-135523947D01*
X87676250Y-135525000D01*
X87163750Y-135525000D01*
X87142309Y-135523947D01*
X87121074Y-135520797D01*
X87100250Y-135515581D01*
X87080038Y-135508349D01*
X87060632Y-135499170D01*
X87042219Y-135488134D01*
X87024976Y-135475346D01*
X87009070Y-135460930D01*
X86994654Y-135445024D01*
X86981866Y-135427781D01*
X86970830Y-135409368D01*
X86961651Y-135389962D01*
X86954419Y-135369750D01*
X86949203Y-135348926D01*
X86946053Y-135327691D01*
X86945000Y-135306250D01*
X86945000Y-134868750D01*
X86946053Y-134847309D01*
X86949203Y-134826074D01*
X86954419Y-134805250D01*
X86961651Y-134785038D01*
X86970830Y-134765632D01*
X86981866Y-134747219D01*
X86994654Y-134729976D01*
X87009070Y-134714070D01*
X87024976Y-134699654D01*
X87042219Y-134686866D01*
X87060632Y-134675830D01*
X87080038Y-134666651D01*
X87100250Y-134659419D01*
X87121074Y-134654203D01*
X87142309Y-134651053D01*
X87163750Y-134650000D01*
X87676250Y-134650000D01*
X87697691Y-134651053D01*
X87697691Y-134651053D01*
G37*
D15*
X87420000Y-135087500D03*
D10*
G36*
X115137691Y-104806053D02*
G01*
X115158926Y-104809203D01*
X115179750Y-104814419D01*
X115199962Y-104821651D01*
X115219368Y-104830830D01*
X115237781Y-104841866D01*
X115255024Y-104854654D01*
X115270930Y-104869070D01*
X115285346Y-104884976D01*
X115298134Y-104902219D01*
X115309170Y-104920632D01*
X115318349Y-104940038D01*
X115325581Y-104960250D01*
X115330797Y-104981074D01*
X115333947Y-105002309D01*
X115335000Y-105023750D01*
X115335000Y-105461250D01*
X115333947Y-105482691D01*
X115330797Y-105503926D01*
X115325581Y-105524750D01*
X115318349Y-105544962D01*
X115309170Y-105564368D01*
X115298134Y-105582781D01*
X115285346Y-105600024D01*
X115270930Y-105615930D01*
X115255024Y-105630346D01*
X115237781Y-105643134D01*
X115219368Y-105654170D01*
X115199962Y-105663349D01*
X115179750Y-105670581D01*
X115158926Y-105675797D01*
X115137691Y-105678947D01*
X115116250Y-105680000D01*
X114603750Y-105680000D01*
X114582309Y-105678947D01*
X114561074Y-105675797D01*
X114540250Y-105670581D01*
X114520038Y-105663349D01*
X114500632Y-105654170D01*
X114482219Y-105643134D01*
X114464976Y-105630346D01*
X114449070Y-105615930D01*
X114434654Y-105600024D01*
X114421866Y-105582781D01*
X114410830Y-105564368D01*
X114401651Y-105544962D01*
X114394419Y-105524750D01*
X114389203Y-105503926D01*
X114386053Y-105482691D01*
X114385000Y-105461250D01*
X114385000Y-105023750D01*
X114386053Y-105002309D01*
X114389203Y-104981074D01*
X114394419Y-104960250D01*
X114401651Y-104940038D01*
X114410830Y-104920632D01*
X114421866Y-104902219D01*
X114434654Y-104884976D01*
X114449070Y-104869070D01*
X114464976Y-104854654D01*
X114482219Y-104841866D01*
X114500632Y-104830830D01*
X114520038Y-104821651D01*
X114540250Y-104814419D01*
X114561074Y-104809203D01*
X114582309Y-104806053D01*
X114603750Y-104805000D01*
X115116250Y-104805000D01*
X115137691Y-104806053D01*
X115137691Y-104806053D01*
G37*
D15*
X114860000Y-105242500D03*
D10*
G36*
X115137691Y-106381053D02*
G01*
X115158926Y-106384203D01*
X115179750Y-106389419D01*
X115199962Y-106396651D01*
X115219368Y-106405830D01*
X115237781Y-106416866D01*
X115255024Y-106429654D01*
X115270930Y-106444070D01*
X115285346Y-106459976D01*
X115298134Y-106477219D01*
X115309170Y-106495632D01*
X115318349Y-106515038D01*
X115325581Y-106535250D01*
X115330797Y-106556074D01*
X115333947Y-106577309D01*
X115335000Y-106598750D01*
X115335000Y-107036250D01*
X115333947Y-107057691D01*
X115330797Y-107078926D01*
X115325581Y-107099750D01*
X115318349Y-107119962D01*
X115309170Y-107139368D01*
X115298134Y-107157781D01*
X115285346Y-107175024D01*
X115270930Y-107190930D01*
X115255024Y-107205346D01*
X115237781Y-107218134D01*
X115219368Y-107229170D01*
X115199962Y-107238349D01*
X115179750Y-107245581D01*
X115158926Y-107250797D01*
X115137691Y-107253947D01*
X115116250Y-107255000D01*
X114603750Y-107255000D01*
X114582309Y-107253947D01*
X114561074Y-107250797D01*
X114540250Y-107245581D01*
X114520038Y-107238349D01*
X114500632Y-107229170D01*
X114482219Y-107218134D01*
X114464976Y-107205346D01*
X114449070Y-107190930D01*
X114434654Y-107175024D01*
X114421866Y-107157781D01*
X114410830Y-107139368D01*
X114401651Y-107119962D01*
X114394419Y-107099750D01*
X114389203Y-107078926D01*
X114386053Y-107057691D01*
X114385000Y-107036250D01*
X114385000Y-106598750D01*
X114386053Y-106577309D01*
X114389203Y-106556074D01*
X114394419Y-106535250D01*
X114401651Y-106515038D01*
X114410830Y-106495632D01*
X114421866Y-106477219D01*
X114434654Y-106459976D01*
X114449070Y-106444070D01*
X114464976Y-106429654D01*
X114482219Y-106416866D01*
X114500632Y-106405830D01*
X114520038Y-106396651D01*
X114540250Y-106389419D01*
X114561074Y-106384203D01*
X114582309Y-106381053D01*
X114603750Y-106380000D01*
X115116250Y-106380000D01*
X115137691Y-106381053D01*
X115137691Y-106381053D01*
G37*
D15*
X114860000Y-106817500D03*
D10*
G36*
X115147691Y-109471053D02*
G01*
X115168926Y-109474203D01*
X115189750Y-109479419D01*
X115209962Y-109486651D01*
X115229368Y-109495830D01*
X115247781Y-109506866D01*
X115265024Y-109519654D01*
X115280930Y-109534070D01*
X115295346Y-109549976D01*
X115308134Y-109567219D01*
X115319170Y-109585632D01*
X115328349Y-109605038D01*
X115335581Y-109625250D01*
X115340797Y-109646074D01*
X115343947Y-109667309D01*
X115345000Y-109688750D01*
X115345000Y-110126250D01*
X115343947Y-110147691D01*
X115340797Y-110168926D01*
X115335581Y-110189750D01*
X115328349Y-110209962D01*
X115319170Y-110229368D01*
X115308134Y-110247781D01*
X115295346Y-110265024D01*
X115280930Y-110280930D01*
X115265024Y-110295346D01*
X115247781Y-110308134D01*
X115229368Y-110319170D01*
X115209962Y-110328349D01*
X115189750Y-110335581D01*
X115168926Y-110340797D01*
X115147691Y-110343947D01*
X115126250Y-110345000D01*
X114613750Y-110345000D01*
X114592309Y-110343947D01*
X114571074Y-110340797D01*
X114550250Y-110335581D01*
X114530038Y-110328349D01*
X114510632Y-110319170D01*
X114492219Y-110308134D01*
X114474976Y-110295346D01*
X114459070Y-110280930D01*
X114444654Y-110265024D01*
X114431866Y-110247781D01*
X114420830Y-110229368D01*
X114411651Y-110209962D01*
X114404419Y-110189750D01*
X114399203Y-110168926D01*
X114396053Y-110147691D01*
X114395000Y-110126250D01*
X114395000Y-109688750D01*
X114396053Y-109667309D01*
X114399203Y-109646074D01*
X114404419Y-109625250D01*
X114411651Y-109605038D01*
X114420830Y-109585632D01*
X114431866Y-109567219D01*
X114444654Y-109549976D01*
X114459070Y-109534070D01*
X114474976Y-109519654D01*
X114492219Y-109506866D01*
X114510632Y-109495830D01*
X114530038Y-109486651D01*
X114550250Y-109479419D01*
X114571074Y-109474203D01*
X114592309Y-109471053D01*
X114613750Y-109470000D01*
X115126250Y-109470000D01*
X115147691Y-109471053D01*
X115147691Y-109471053D01*
G37*
D15*
X114870000Y-109907500D03*
D10*
G36*
X115147691Y-107896053D02*
G01*
X115168926Y-107899203D01*
X115189750Y-107904419D01*
X115209962Y-107911651D01*
X115229368Y-107920830D01*
X115247781Y-107931866D01*
X115265024Y-107944654D01*
X115280930Y-107959070D01*
X115295346Y-107974976D01*
X115308134Y-107992219D01*
X115319170Y-108010632D01*
X115328349Y-108030038D01*
X115335581Y-108050250D01*
X115340797Y-108071074D01*
X115343947Y-108092309D01*
X115345000Y-108113750D01*
X115345000Y-108551250D01*
X115343947Y-108572691D01*
X115340797Y-108593926D01*
X115335581Y-108614750D01*
X115328349Y-108634962D01*
X115319170Y-108654368D01*
X115308134Y-108672781D01*
X115295346Y-108690024D01*
X115280930Y-108705930D01*
X115265024Y-108720346D01*
X115247781Y-108733134D01*
X115229368Y-108744170D01*
X115209962Y-108753349D01*
X115189750Y-108760581D01*
X115168926Y-108765797D01*
X115147691Y-108768947D01*
X115126250Y-108770000D01*
X114613750Y-108770000D01*
X114592309Y-108768947D01*
X114571074Y-108765797D01*
X114550250Y-108760581D01*
X114530038Y-108753349D01*
X114510632Y-108744170D01*
X114492219Y-108733134D01*
X114474976Y-108720346D01*
X114459070Y-108705930D01*
X114444654Y-108690024D01*
X114431866Y-108672781D01*
X114420830Y-108654368D01*
X114411651Y-108634962D01*
X114404419Y-108614750D01*
X114399203Y-108593926D01*
X114396053Y-108572691D01*
X114395000Y-108551250D01*
X114395000Y-108113750D01*
X114396053Y-108092309D01*
X114399203Y-108071074D01*
X114404419Y-108050250D01*
X114411651Y-108030038D01*
X114420830Y-108010632D01*
X114431866Y-107992219D01*
X114444654Y-107974976D01*
X114459070Y-107959070D01*
X114474976Y-107944654D01*
X114492219Y-107931866D01*
X114510632Y-107920830D01*
X114530038Y-107911651D01*
X114550250Y-107904419D01*
X114571074Y-107899203D01*
X114592309Y-107896053D01*
X114613750Y-107895000D01*
X115126250Y-107895000D01*
X115147691Y-107896053D01*
X115147691Y-107896053D01*
G37*
D15*
X114870000Y-108332500D03*
D10*
G36*
X114777691Y-121576053D02*
G01*
X114798926Y-121579203D01*
X114819750Y-121584419D01*
X114839962Y-121591651D01*
X114859368Y-121600830D01*
X114877781Y-121611866D01*
X114895024Y-121624654D01*
X114910930Y-121639070D01*
X114925346Y-121654976D01*
X114938134Y-121672219D01*
X114949170Y-121690632D01*
X114958349Y-121710038D01*
X114965581Y-121730250D01*
X114970797Y-121751074D01*
X114973947Y-121772309D01*
X114975000Y-121793750D01*
X114975000Y-122231250D01*
X114973947Y-122252691D01*
X114970797Y-122273926D01*
X114965581Y-122294750D01*
X114958349Y-122314962D01*
X114949170Y-122334368D01*
X114938134Y-122352781D01*
X114925346Y-122370024D01*
X114910930Y-122385930D01*
X114895024Y-122400346D01*
X114877781Y-122413134D01*
X114859368Y-122424170D01*
X114839962Y-122433349D01*
X114819750Y-122440581D01*
X114798926Y-122445797D01*
X114777691Y-122448947D01*
X114756250Y-122450000D01*
X114243750Y-122450000D01*
X114222309Y-122448947D01*
X114201074Y-122445797D01*
X114180250Y-122440581D01*
X114160038Y-122433349D01*
X114140632Y-122424170D01*
X114122219Y-122413134D01*
X114104976Y-122400346D01*
X114089070Y-122385930D01*
X114074654Y-122370024D01*
X114061866Y-122352781D01*
X114050830Y-122334368D01*
X114041651Y-122314962D01*
X114034419Y-122294750D01*
X114029203Y-122273926D01*
X114026053Y-122252691D01*
X114025000Y-122231250D01*
X114025000Y-121793750D01*
X114026053Y-121772309D01*
X114029203Y-121751074D01*
X114034419Y-121730250D01*
X114041651Y-121710038D01*
X114050830Y-121690632D01*
X114061866Y-121672219D01*
X114074654Y-121654976D01*
X114089070Y-121639070D01*
X114104976Y-121624654D01*
X114122219Y-121611866D01*
X114140632Y-121600830D01*
X114160038Y-121591651D01*
X114180250Y-121584419D01*
X114201074Y-121579203D01*
X114222309Y-121576053D01*
X114243750Y-121575000D01*
X114756250Y-121575000D01*
X114777691Y-121576053D01*
X114777691Y-121576053D01*
G37*
D15*
X114500000Y-122012500D03*
D10*
G36*
X114777691Y-123151053D02*
G01*
X114798926Y-123154203D01*
X114819750Y-123159419D01*
X114839962Y-123166651D01*
X114859368Y-123175830D01*
X114877781Y-123186866D01*
X114895024Y-123199654D01*
X114910930Y-123214070D01*
X114925346Y-123229976D01*
X114938134Y-123247219D01*
X114949170Y-123265632D01*
X114958349Y-123285038D01*
X114965581Y-123305250D01*
X114970797Y-123326074D01*
X114973947Y-123347309D01*
X114975000Y-123368750D01*
X114975000Y-123806250D01*
X114973947Y-123827691D01*
X114970797Y-123848926D01*
X114965581Y-123869750D01*
X114958349Y-123889962D01*
X114949170Y-123909368D01*
X114938134Y-123927781D01*
X114925346Y-123945024D01*
X114910930Y-123960930D01*
X114895024Y-123975346D01*
X114877781Y-123988134D01*
X114859368Y-123999170D01*
X114839962Y-124008349D01*
X114819750Y-124015581D01*
X114798926Y-124020797D01*
X114777691Y-124023947D01*
X114756250Y-124025000D01*
X114243750Y-124025000D01*
X114222309Y-124023947D01*
X114201074Y-124020797D01*
X114180250Y-124015581D01*
X114160038Y-124008349D01*
X114140632Y-123999170D01*
X114122219Y-123988134D01*
X114104976Y-123975346D01*
X114089070Y-123960930D01*
X114074654Y-123945024D01*
X114061866Y-123927781D01*
X114050830Y-123909368D01*
X114041651Y-123889962D01*
X114034419Y-123869750D01*
X114029203Y-123848926D01*
X114026053Y-123827691D01*
X114025000Y-123806250D01*
X114025000Y-123368750D01*
X114026053Y-123347309D01*
X114029203Y-123326074D01*
X114034419Y-123305250D01*
X114041651Y-123285038D01*
X114050830Y-123265632D01*
X114061866Y-123247219D01*
X114074654Y-123229976D01*
X114089070Y-123214070D01*
X114104976Y-123199654D01*
X114122219Y-123186866D01*
X114140632Y-123175830D01*
X114160038Y-123166651D01*
X114180250Y-123159419D01*
X114201074Y-123154203D01*
X114222309Y-123151053D01*
X114243750Y-123150000D01*
X114756250Y-123150000D01*
X114777691Y-123151053D01*
X114777691Y-123151053D01*
G37*
D15*
X114500000Y-123587500D03*
D10*
G36*
X116522691Y-150836053D02*
G01*
X116543926Y-150839203D01*
X116564750Y-150844419D01*
X116584962Y-150851651D01*
X116604368Y-150860830D01*
X116622781Y-150871866D01*
X116640024Y-150884654D01*
X116655930Y-150899070D01*
X116670346Y-150914976D01*
X116683134Y-150932219D01*
X116694170Y-150950632D01*
X116703349Y-150970038D01*
X116710581Y-150990250D01*
X116715797Y-151011074D01*
X116718947Y-151032309D01*
X116720000Y-151053750D01*
X116720000Y-151566250D01*
X116718947Y-151587691D01*
X116715797Y-151608926D01*
X116710581Y-151629750D01*
X116703349Y-151649962D01*
X116694170Y-151669368D01*
X116683134Y-151687781D01*
X116670346Y-151705024D01*
X116655930Y-151720930D01*
X116640024Y-151735346D01*
X116622781Y-151748134D01*
X116604368Y-151759170D01*
X116584962Y-151768349D01*
X116564750Y-151775581D01*
X116543926Y-151780797D01*
X116522691Y-151783947D01*
X116501250Y-151785000D01*
X116063750Y-151785000D01*
X116042309Y-151783947D01*
X116021074Y-151780797D01*
X116000250Y-151775581D01*
X115980038Y-151768349D01*
X115960632Y-151759170D01*
X115942219Y-151748134D01*
X115924976Y-151735346D01*
X115909070Y-151720930D01*
X115894654Y-151705024D01*
X115881866Y-151687781D01*
X115870830Y-151669368D01*
X115861651Y-151649962D01*
X115854419Y-151629750D01*
X115849203Y-151608926D01*
X115846053Y-151587691D01*
X115845000Y-151566250D01*
X115845000Y-151053750D01*
X115846053Y-151032309D01*
X115849203Y-151011074D01*
X115854419Y-150990250D01*
X115861651Y-150970038D01*
X115870830Y-150950632D01*
X115881866Y-150932219D01*
X115894654Y-150914976D01*
X115909070Y-150899070D01*
X115924976Y-150884654D01*
X115942219Y-150871866D01*
X115960632Y-150860830D01*
X115980038Y-150851651D01*
X116000250Y-150844419D01*
X116021074Y-150839203D01*
X116042309Y-150836053D01*
X116063750Y-150835000D01*
X116501250Y-150835000D01*
X116522691Y-150836053D01*
X116522691Y-150836053D01*
G37*
D15*
X116282500Y-151310000D03*
D10*
G36*
X118097691Y-150836053D02*
G01*
X118118926Y-150839203D01*
X118139750Y-150844419D01*
X118159962Y-150851651D01*
X118179368Y-150860830D01*
X118197781Y-150871866D01*
X118215024Y-150884654D01*
X118230930Y-150899070D01*
X118245346Y-150914976D01*
X118258134Y-150932219D01*
X118269170Y-150950632D01*
X118278349Y-150970038D01*
X118285581Y-150990250D01*
X118290797Y-151011074D01*
X118293947Y-151032309D01*
X118295000Y-151053750D01*
X118295000Y-151566250D01*
X118293947Y-151587691D01*
X118290797Y-151608926D01*
X118285581Y-151629750D01*
X118278349Y-151649962D01*
X118269170Y-151669368D01*
X118258134Y-151687781D01*
X118245346Y-151705024D01*
X118230930Y-151720930D01*
X118215024Y-151735346D01*
X118197781Y-151748134D01*
X118179368Y-151759170D01*
X118159962Y-151768349D01*
X118139750Y-151775581D01*
X118118926Y-151780797D01*
X118097691Y-151783947D01*
X118076250Y-151785000D01*
X117638750Y-151785000D01*
X117617309Y-151783947D01*
X117596074Y-151780797D01*
X117575250Y-151775581D01*
X117555038Y-151768349D01*
X117535632Y-151759170D01*
X117517219Y-151748134D01*
X117499976Y-151735346D01*
X117484070Y-151720930D01*
X117469654Y-151705024D01*
X117456866Y-151687781D01*
X117445830Y-151669368D01*
X117436651Y-151649962D01*
X117429419Y-151629750D01*
X117424203Y-151608926D01*
X117421053Y-151587691D01*
X117420000Y-151566250D01*
X117420000Y-151053750D01*
X117421053Y-151032309D01*
X117424203Y-151011074D01*
X117429419Y-150990250D01*
X117436651Y-150970038D01*
X117445830Y-150950632D01*
X117456866Y-150932219D01*
X117469654Y-150914976D01*
X117484070Y-150899070D01*
X117499976Y-150884654D01*
X117517219Y-150871866D01*
X117535632Y-150860830D01*
X117555038Y-150851651D01*
X117575250Y-150844419D01*
X117596074Y-150839203D01*
X117617309Y-150836053D01*
X117638750Y-150835000D01*
X118076250Y-150835000D01*
X118097691Y-150836053D01*
X118097691Y-150836053D01*
G37*
D15*
X117857500Y-151310000D03*
D10*
G36*
X117957691Y-134631053D02*
G01*
X117978926Y-134634203D01*
X117999750Y-134639419D01*
X118019962Y-134646651D01*
X118039368Y-134655830D01*
X118057781Y-134666866D01*
X118075024Y-134679654D01*
X118090930Y-134694070D01*
X118105346Y-134709976D01*
X118118134Y-134727219D01*
X118129170Y-134745632D01*
X118138349Y-134765038D01*
X118145581Y-134785250D01*
X118150797Y-134806074D01*
X118153947Y-134827309D01*
X118155000Y-134848750D01*
X118155000Y-135286250D01*
X118153947Y-135307691D01*
X118150797Y-135328926D01*
X118145581Y-135349750D01*
X118138349Y-135369962D01*
X118129170Y-135389368D01*
X118118134Y-135407781D01*
X118105346Y-135425024D01*
X118090930Y-135440930D01*
X118075024Y-135455346D01*
X118057781Y-135468134D01*
X118039368Y-135479170D01*
X118019962Y-135488349D01*
X117999750Y-135495581D01*
X117978926Y-135500797D01*
X117957691Y-135503947D01*
X117936250Y-135505000D01*
X117423750Y-135505000D01*
X117402309Y-135503947D01*
X117381074Y-135500797D01*
X117360250Y-135495581D01*
X117340038Y-135488349D01*
X117320632Y-135479170D01*
X117302219Y-135468134D01*
X117284976Y-135455346D01*
X117269070Y-135440930D01*
X117254654Y-135425024D01*
X117241866Y-135407781D01*
X117230830Y-135389368D01*
X117221651Y-135369962D01*
X117214419Y-135349750D01*
X117209203Y-135328926D01*
X117206053Y-135307691D01*
X117205000Y-135286250D01*
X117205000Y-134848750D01*
X117206053Y-134827309D01*
X117209203Y-134806074D01*
X117214419Y-134785250D01*
X117221651Y-134765038D01*
X117230830Y-134745632D01*
X117241866Y-134727219D01*
X117254654Y-134709976D01*
X117269070Y-134694070D01*
X117284976Y-134679654D01*
X117302219Y-134666866D01*
X117320632Y-134655830D01*
X117340038Y-134646651D01*
X117360250Y-134639419D01*
X117381074Y-134634203D01*
X117402309Y-134631053D01*
X117423750Y-134630000D01*
X117936250Y-134630000D01*
X117957691Y-134631053D01*
X117957691Y-134631053D01*
G37*
D15*
X117680000Y-135067500D03*
D10*
G36*
X117957691Y-133056053D02*
G01*
X117978926Y-133059203D01*
X117999750Y-133064419D01*
X118019962Y-133071651D01*
X118039368Y-133080830D01*
X118057781Y-133091866D01*
X118075024Y-133104654D01*
X118090930Y-133119070D01*
X118105346Y-133134976D01*
X118118134Y-133152219D01*
X118129170Y-133170632D01*
X118138349Y-133190038D01*
X118145581Y-133210250D01*
X118150797Y-133231074D01*
X118153947Y-133252309D01*
X118155000Y-133273750D01*
X118155000Y-133711250D01*
X118153947Y-133732691D01*
X118150797Y-133753926D01*
X118145581Y-133774750D01*
X118138349Y-133794962D01*
X118129170Y-133814368D01*
X118118134Y-133832781D01*
X118105346Y-133850024D01*
X118090930Y-133865930D01*
X118075024Y-133880346D01*
X118057781Y-133893134D01*
X118039368Y-133904170D01*
X118019962Y-133913349D01*
X117999750Y-133920581D01*
X117978926Y-133925797D01*
X117957691Y-133928947D01*
X117936250Y-133930000D01*
X117423750Y-133930000D01*
X117402309Y-133928947D01*
X117381074Y-133925797D01*
X117360250Y-133920581D01*
X117340038Y-133913349D01*
X117320632Y-133904170D01*
X117302219Y-133893134D01*
X117284976Y-133880346D01*
X117269070Y-133865930D01*
X117254654Y-133850024D01*
X117241866Y-133832781D01*
X117230830Y-133814368D01*
X117221651Y-133794962D01*
X117214419Y-133774750D01*
X117209203Y-133753926D01*
X117206053Y-133732691D01*
X117205000Y-133711250D01*
X117205000Y-133273750D01*
X117206053Y-133252309D01*
X117209203Y-133231074D01*
X117214419Y-133210250D01*
X117221651Y-133190038D01*
X117230830Y-133170632D01*
X117241866Y-133152219D01*
X117254654Y-133134976D01*
X117269070Y-133119070D01*
X117284976Y-133104654D01*
X117302219Y-133091866D01*
X117320632Y-133080830D01*
X117340038Y-133071651D01*
X117360250Y-133064419D01*
X117381074Y-133059203D01*
X117402309Y-133056053D01*
X117423750Y-133055000D01*
X117936250Y-133055000D01*
X117957691Y-133056053D01*
X117957691Y-133056053D01*
G37*
D15*
X117680000Y-133492500D03*
D10*
G36*
X119947691Y-133046053D02*
G01*
X119968926Y-133049203D01*
X119989750Y-133054419D01*
X120009962Y-133061651D01*
X120029368Y-133070830D01*
X120047781Y-133081866D01*
X120065024Y-133094654D01*
X120080930Y-133109070D01*
X120095346Y-133124976D01*
X120108134Y-133142219D01*
X120119170Y-133160632D01*
X120128349Y-133180038D01*
X120135581Y-133200250D01*
X120140797Y-133221074D01*
X120143947Y-133242309D01*
X120145000Y-133263750D01*
X120145000Y-133701250D01*
X120143947Y-133722691D01*
X120140797Y-133743926D01*
X120135581Y-133764750D01*
X120128349Y-133784962D01*
X120119170Y-133804368D01*
X120108134Y-133822781D01*
X120095346Y-133840024D01*
X120080930Y-133855930D01*
X120065024Y-133870346D01*
X120047781Y-133883134D01*
X120029368Y-133894170D01*
X120009962Y-133903349D01*
X119989750Y-133910581D01*
X119968926Y-133915797D01*
X119947691Y-133918947D01*
X119926250Y-133920000D01*
X119413750Y-133920000D01*
X119392309Y-133918947D01*
X119371074Y-133915797D01*
X119350250Y-133910581D01*
X119330038Y-133903349D01*
X119310632Y-133894170D01*
X119292219Y-133883134D01*
X119274976Y-133870346D01*
X119259070Y-133855930D01*
X119244654Y-133840024D01*
X119231866Y-133822781D01*
X119220830Y-133804368D01*
X119211651Y-133784962D01*
X119204419Y-133764750D01*
X119199203Y-133743926D01*
X119196053Y-133722691D01*
X119195000Y-133701250D01*
X119195000Y-133263750D01*
X119196053Y-133242309D01*
X119199203Y-133221074D01*
X119204419Y-133200250D01*
X119211651Y-133180038D01*
X119220830Y-133160632D01*
X119231866Y-133142219D01*
X119244654Y-133124976D01*
X119259070Y-133109070D01*
X119274976Y-133094654D01*
X119292219Y-133081866D01*
X119310632Y-133070830D01*
X119330038Y-133061651D01*
X119350250Y-133054419D01*
X119371074Y-133049203D01*
X119392309Y-133046053D01*
X119413750Y-133045000D01*
X119926250Y-133045000D01*
X119947691Y-133046053D01*
X119947691Y-133046053D01*
G37*
D15*
X119670000Y-133482500D03*
D10*
G36*
X119947691Y-134621053D02*
G01*
X119968926Y-134624203D01*
X119989750Y-134629419D01*
X120009962Y-134636651D01*
X120029368Y-134645830D01*
X120047781Y-134656866D01*
X120065024Y-134669654D01*
X120080930Y-134684070D01*
X120095346Y-134699976D01*
X120108134Y-134717219D01*
X120119170Y-134735632D01*
X120128349Y-134755038D01*
X120135581Y-134775250D01*
X120140797Y-134796074D01*
X120143947Y-134817309D01*
X120145000Y-134838750D01*
X120145000Y-135276250D01*
X120143947Y-135297691D01*
X120140797Y-135318926D01*
X120135581Y-135339750D01*
X120128349Y-135359962D01*
X120119170Y-135379368D01*
X120108134Y-135397781D01*
X120095346Y-135415024D01*
X120080930Y-135430930D01*
X120065024Y-135445346D01*
X120047781Y-135458134D01*
X120029368Y-135469170D01*
X120009962Y-135478349D01*
X119989750Y-135485581D01*
X119968926Y-135490797D01*
X119947691Y-135493947D01*
X119926250Y-135495000D01*
X119413750Y-135495000D01*
X119392309Y-135493947D01*
X119371074Y-135490797D01*
X119350250Y-135485581D01*
X119330038Y-135478349D01*
X119310632Y-135469170D01*
X119292219Y-135458134D01*
X119274976Y-135445346D01*
X119259070Y-135430930D01*
X119244654Y-135415024D01*
X119231866Y-135397781D01*
X119220830Y-135379368D01*
X119211651Y-135359962D01*
X119204419Y-135339750D01*
X119199203Y-135318926D01*
X119196053Y-135297691D01*
X119195000Y-135276250D01*
X119195000Y-134838750D01*
X119196053Y-134817309D01*
X119199203Y-134796074D01*
X119204419Y-134775250D01*
X119211651Y-134755038D01*
X119220830Y-134735632D01*
X119231866Y-134717219D01*
X119244654Y-134699976D01*
X119259070Y-134684070D01*
X119274976Y-134669654D01*
X119292219Y-134656866D01*
X119310632Y-134645830D01*
X119330038Y-134636651D01*
X119350250Y-134629419D01*
X119371074Y-134624203D01*
X119392309Y-134621053D01*
X119413750Y-134620000D01*
X119926250Y-134620000D01*
X119947691Y-134621053D01*
X119947691Y-134621053D01*
G37*
D15*
X119670000Y-135057500D03*
D10*
G36*
X120437691Y-90536053D02*
G01*
X120458926Y-90539203D01*
X120479750Y-90544419D01*
X120499962Y-90551651D01*
X120519368Y-90560830D01*
X120537781Y-90571866D01*
X120555024Y-90584654D01*
X120570930Y-90599070D01*
X120585346Y-90614976D01*
X120598134Y-90632219D01*
X120609170Y-90650632D01*
X120618349Y-90670038D01*
X120625581Y-90690250D01*
X120630797Y-90711074D01*
X120633947Y-90732309D01*
X120635000Y-90753750D01*
X120635000Y-91191250D01*
X120633947Y-91212691D01*
X120630797Y-91233926D01*
X120625581Y-91254750D01*
X120618349Y-91274962D01*
X120609170Y-91294368D01*
X120598134Y-91312781D01*
X120585346Y-91330024D01*
X120570930Y-91345930D01*
X120555024Y-91360346D01*
X120537781Y-91373134D01*
X120519368Y-91384170D01*
X120499962Y-91393349D01*
X120479750Y-91400581D01*
X120458926Y-91405797D01*
X120437691Y-91408947D01*
X120416250Y-91410000D01*
X119903750Y-91410000D01*
X119882309Y-91408947D01*
X119861074Y-91405797D01*
X119840250Y-91400581D01*
X119820038Y-91393349D01*
X119800632Y-91384170D01*
X119782219Y-91373134D01*
X119764976Y-91360346D01*
X119749070Y-91345930D01*
X119734654Y-91330024D01*
X119721866Y-91312781D01*
X119710830Y-91294368D01*
X119701651Y-91274962D01*
X119694419Y-91254750D01*
X119689203Y-91233926D01*
X119686053Y-91212691D01*
X119685000Y-91191250D01*
X119685000Y-90753750D01*
X119686053Y-90732309D01*
X119689203Y-90711074D01*
X119694419Y-90690250D01*
X119701651Y-90670038D01*
X119710830Y-90650632D01*
X119721866Y-90632219D01*
X119734654Y-90614976D01*
X119749070Y-90599070D01*
X119764976Y-90584654D01*
X119782219Y-90571866D01*
X119800632Y-90560830D01*
X119820038Y-90551651D01*
X119840250Y-90544419D01*
X119861074Y-90539203D01*
X119882309Y-90536053D01*
X119903750Y-90535000D01*
X120416250Y-90535000D01*
X120437691Y-90536053D01*
X120437691Y-90536053D01*
G37*
D15*
X120160000Y-90972500D03*
D10*
G36*
X120437691Y-92111053D02*
G01*
X120458926Y-92114203D01*
X120479750Y-92119419D01*
X120499962Y-92126651D01*
X120519368Y-92135830D01*
X120537781Y-92146866D01*
X120555024Y-92159654D01*
X120570930Y-92174070D01*
X120585346Y-92189976D01*
X120598134Y-92207219D01*
X120609170Y-92225632D01*
X120618349Y-92245038D01*
X120625581Y-92265250D01*
X120630797Y-92286074D01*
X120633947Y-92307309D01*
X120635000Y-92328750D01*
X120635000Y-92766250D01*
X120633947Y-92787691D01*
X120630797Y-92808926D01*
X120625581Y-92829750D01*
X120618349Y-92849962D01*
X120609170Y-92869368D01*
X120598134Y-92887781D01*
X120585346Y-92905024D01*
X120570930Y-92920930D01*
X120555024Y-92935346D01*
X120537781Y-92948134D01*
X120519368Y-92959170D01*
X120499962Y-92968349D01*
X120479750Y-92975581D01*
X120458926Y-92980797D01*
X120437691Y-92983947D01*
X120416250Y-92985000D01*
X119903750Y-92985000D01*
X119882309Y-92983947D01*
X119861074Y-92980797D01*
X119840250Y-92975581D01*
X119820038Y-92968349D01*
X119800632Y-92959170D01*
X119782219Y-92948134D01*
X119764976Y-92935346D01*
X119749070Y-92920930D01*
X119734654Y-92905024D01*
X119721866Y-92887781D01*
X119710830Y-92869368D01*
X119701651Y-92849962D01*
X119694419Y-92829750D01*
X119689203Y-92808926D01*
X119686053Y-92787691D01*
X119685000Y-92766250D01*
X119685000Y-92328750D01*
X119686053Y-92307309D01*
X119689203Y-92286074D01*
X119694419Y-92265250D01*
X119701651Y-92245038D01*
X119710830Y-92225632D01*
X119721866Y-92207219D01*
X119734654Y-92189976D01*
X119749070Y-92174070D01*
X119764976Y-92159654D01*
X119782219Y-92146866D01*
X119800632Y-92135830D01*
X119820038Y-92126651D01*
X119840250Y-92119419D01*
X119861074Y-92114203D01*
X119882309Y-92111053D01*
X119903750Y-92110000D01*
X120416250Y-92110000D01*
X120437691Y-92111053D01*
X120437691Y-92111053D01*
G37*
D15*
X120160000Y-92547500D03*
D10*
G36*
X136877691Y-101696053D02*
G01*
X136898926Y-101699203D01*
X136919750Y-101704419D01*
X136939962Y-101711651D01*
X136959368Y-101720830D01*
X136977781Y-101731866D01*
X136995024Y-101744654D01*
X137010930Y-101759070D01*
X137025346Y-101774976D01*
X137038134Y-101792219D01*
X137049170Y-101810632D01*
X137058349Y-101830038D01*
X137065581Y-101850250D01*
X137070797Y-101871074D01*
X137073947Y-101892309D01*
X137075000Y-101913750D01*
X137075000Y-102426250D01*
X137073947Y-102447691D01*
X137070797Y-102468926D01*
X137065581Y-102489750D01*
X137058349Y-102509962D01*
X137049170Y-102529368D01*
X137038134Y-102547781D01*
X137025346Y-102565024D01*
X137010930Y-102580930D01*
X136995024Y-102595346D01*
X136977781Y-102608134D01*
X136959368Y-102619170D01*
X136939962Y-102628349D01*
X136919750Y-102635581D01*
X136898926Y-102640797D01*
X136877691Y-102643947D01*
X136856250Y-102645000D01*
X136418750Y-102645000D01*
X136397309Y-102643947D01*
X136376074Y-102640797D01*
X136355250Y-102635581D01*
X136335038Y-102628349D01*
X136315632Y-102619170D01*
X136297219Y-102608134D01*
X136279976Y-102595346D01*
X136264070Y-102580930D01*
X136249654Y-102565024D01*
X136236866Y-102547781D01*
X136225830Y-102529368D01*
X136216651Y-102509962D01*
X136209419Y-102489750D01*
X136204203Y-102468926D01*
X136201053Y-102447691D01*
X136200000Y-102426250D01*
X136200000Y-101913750D01*
X136201053Y-101892309D01*
X136204203Y-101871074D01*
X136209419Y-101850250D01*
X136216651Y-101830038D01*
X136225830Y-101810632D01*
X136236866Y-101792219D01*
X136249654Y-101774976D01*
X136264070Y-101759070D01*
X136279976Y-101744654D01*
X136297219Y-101731866D01*
X136315632Y-101720830D01*
X136335038Y-101711651D01*
X136355250Y-101704419D01*
X136376074Y-101699203D01*
X136397309Y-101696053D01*
X136418750Y-101695000D01*
X136856250Y-101695000D01*
X136877691Y-101696053D01*
X136877691Y-101696053D01*
G37*
D15*
X136637500Y-102170000D03*
D10*
G36*
X135302691Y-101696053D02*
G01*
X135323926Y-101699203D01*
X135344750Y-101704419D01*
X135364962Y-101711651D01*
X135384368Y-101720830D01*
X135402781Y-101731866D01*
X135420024Y-101744654D01*
X135435930Y-101759070D01*
X135450346Y-101774976D01*
X135463134Y-101792219D01*
X135474170Y-101810632D01*
X135483349Y-101830038D01*
X135490581Y-101850250D01*
X135495797Y-101871074D01*
X135498947Y-101892309D01*
X135500000Y-101913750D01*
X135500000Y-102426250D01*
X135498947Y-102447691D01*
X135495797Y-102468926D01*
X135490581Y-102489750D01*
X135483349Y-102509962D01*
X135474170Y-102529368D01*
X135463134Y-102547781D01*
X135450346Y-102565024D01*
X135435930Y-102580930D01*
X135420024Y-102595346D01*
X135402781Y-102608134D01*
X135384368Y-102619170D01*
X135364962Y-102628349D01*
X135344750Y-102635581D01*
X135323926Y-102640797D01*
X135302691Y-102643947D01*
X135281250Y-102645000D01*
X134843750Y-102645000D01*
X134822309Y-102643947D01*
X134801074Y-102640797D01*
X134780250Y-102635581D01*
X134760038Y-102628349D01*
X134740632Y-102619170D01*
X134722219Y-102608134D01*
X134704976Y-102595346D01*
X134689070Y-102580930D01*
X134674654Y-102565024D01*
X134661866Y-102547781D01*
X134650830Y-102529368D01*
X134641651Y-102509962D01*
X134634419Y-102489750D01*
X134629203Y-102468926D01*
X134626053Y-102447691D01*
X134625000Y-102426250D01*
X134625000Y-101913750D01*
X134626053Y-101892309D01*
X134629203Y-101871074D01*
X134634419Y-101850250D01*
X134641651Y-101830038D01*
X134650830Y-101810632D01*
X134661866Y-101792219D01*
X134674654Y-101774976D01*
X134689070Y-101759070D01*
X134704976Y-101744654D01*
X134722219Y-101731866D01*
X134740632Y-101720830D01*
X134760038Y-101711651D01*
X134780250Y-101704419D01*
X134801074Y-101699203D01*
X134822309Y-101696053D01*
X134843750Y-101695000D01*
X135281250Y-101695000D01*
X135302691Y-101696053D01*
X135302691Y-101696053D01*
G37*
D15*
X135062500Y-102170000D03*
D10*
G36*
X144647691Y-99201053D02*
G01*
X144668926Y-99204203D01*
X144689750Y-99209419D01*
X144709962Y-99216651D01*
X144729368Y-99225830D01*
X144747781Y-99236866D01*
X144765024Y-99249654D01*
X144780930Y-99264070D01*
X144795346Y-99279976D01*
X144808134Y-99297219D01*
X144819170Y-99315632D01*
X144828349Y-99335038D01*
X144835581Y-99355250D01*
X144840797Y-99376074D01*
X144843947Y-99397309D01*
X144845000Y-99418750D01*
X144845000Y-99856250D01*
X144843947Y-99877691D01*
X144840797Y-99898926D01*
X144835581Y-99919750D01*
X144828349Y-99939962D01*
X144819170Y-99959368D01*
X144808134Y-99977781D01*
X144795346Y-99995024D01*
X144780930Y-100010930D01*
X144765024Y-100025346D01*
X144747781Y-100038134D01*
X144729368Y-100049170D01*
X144709962Y-100058349D01*
X144689750Y-100065581D01*
X144668926Y-100070797D01*
X144647691Y-100073947D01*
X144626250Y-100075000D01*
X144113750Y-100075000D01*
X144092309Y-100073947D01*
X144071074Y-100070797D01*
X144050250Y-100065581D01*
X144030038Y-100058349D01*
X144010632Y-100049170D01*
X143992219Y-100038134D01*
X143974976Y-100025346D01*
X143959070Y-100010930D01*
X143944654Y-99995024D01*
X143931866Y-99977781D01*
X143920830Y-99959368D01*
X143911651Y-99939962D01*
X143904419Y-99919750D01*
X143899203Y-99898926D01*
X143896053Y-99877691D01*
X143895000Y-99856250D01*
X143895000Y-99418750D01*
X143896053Y-99397309D01*
X143899203Y-99376074D01*
X143904419Y-99355250D01*
X143911651Y-99335038D01*
X143920830Y-99315632D01*
X143931866Y-99297219D01*
X143944654Y-99279976D01*
X143959070Y-99264070D01*
X143974976Y-99249654D01*
X143992219Y-99236866D01*
X144010632Y-99225830D01*
X144030038Y-99216651D01*
X144050250Y-99209419D01*
X144071074Y-99204203D01*
X144092309Y-99201053D01*
X144113750Y-99200000D01*
X144626250Y-99200000D01*
X144647691Y-99201053D01*
X144647691Y-99201053D01*
G37*
D15*
X144370000Y-99637500D03*
D10*
G36*
X144647691Y-97626053D02*
G01*
X144668926Y-97629203D01*
X144689750Y-97634419D01*
X144709962Y-97641651D01*
X144729368Y-97650830D01*
X144747781Y-97661866D01*
X144765024Y-97674654D01*
X144780930Y-97689070D01*
X144795346Y-97704976D01*
X144808134Y-97722219D01*
X144819170Y-97740632D01*
X144828349Y-97760038D01*
X144835581Y-97780250D01*
X144840797Y-97801074D01*
X144843947Y-97822309D01*
X144845000Y-97843750D01*
X144845000Y-98281250D01*
X144843947Y-98302691D01*
X144840797Y-98323926D01*
X144835581Y-98344750D01*
X144828349Y-98364962D01*
X144819170Y-98384368D01*
X144808134Y-98402781D01*
X144795346Y-98420024D01*
X144780930Y-98435930D01*
X144765024Y-98450346D01*
X144747781Y-98463134D01*
X144729368Y-98474170D01*
X144709962Y-98483349D01*
X144689750Y-98490581D01*
X144668926Y-98495797D01*
X144647691Y-98498947D01*
X144626250Y-98500000D01*
X144113750Y-98500000D01*
X144092309Y-98498947D01*
X144071074Y-98495797D01*
X144050250Y-98490581D01*
X144030038Y-98483349D01*
X144010632Y-98474170D01*
X143992219Y-98463134D01*
X143974976Y-98450346D01*
X143959070Y-98435930D01*
X143944654Y-98420024D01*
X143931866Y-98402781D01*
X143920830Y-98384368D01*
X143911651Y-98364962D01*
X143904419Y-98344750D01*
X143899203Y-98323926D01*
X143896053Y-98302691D01*
X143895000Y-98281250D01*
X143895000Y-97843750D01*
X143896053Y-97822309D01*
X143899203Y-97801074D01*
X143904419Y-97780250D01*
X143911651Y-97760038D01*
X143920830Y-97740632D01*
X143931866Y-97722219D01*
X143944654Y-97704976D01*
X143959070Y-97689070D01*
X143974976Y-97674654D01*
X143992219Y-97661866D01*
X144010632Y-97650830D01*
X144030038Y-97641651D01*
X144050250Y-97634419D01*
X144071074Y-97629203D01*
X144092309Y-97626053D01*
X144113750Y-97625000D01*
X144626250Y-97625000D01*
X144647691Y-97626053D01*
X144647691Y-97626053D01*
G37*
D15*
X144370000Y-98062500D03*
D10*
G36*
X122977691Y-52966053D02*
G01*
X122998926Y-52969203D01*
X123019750Y-52974419D01*
X123039962Y-52981651D01*
X123059368Y-52990830D01*
X123077781Y-53001866D01*
X123095024Y-53014654D01*
X123110930Y-53029070D01*
X123125346Y-53044976D01*
X123138134Y-53062219D01*
X123149170Y-53080632D01*
X123158349Y-53100038D01*
X123165581Y-53120250D01*
X123170797Y-53141074D01*
X123173947Y-53162309D01*
X123175000Y-53183750D01*
X123175000Y-53696250D01*
X123173947Y-53717691D01*
X123170797Y-53738926D01*
X123165581Y-53759750D01*
X123158349Y-53779962D01*
X123149170Y-53799368D01*
X123138134Y-53817781D01*
X123125346Y-53835024D01*
X123110930Y-53850930D01*
X123095024Y-53865346D01*
X123077781Y-53878134D01*
X123059368Y-53889170D01*
X123039962Y-53898349D01*
X123019750Y-53905581D01*
X122998926Y-53910797D01*
X122977691Y-53913947D01*
X122956250Y-53915000D01*
X122518750Y-53915000D01*
X122497309Y-53913947D01*
X122476074Y-53910797D01*
X122455250Y-53905581D01*
X122435038Y-53898349D01*
X122415632Y-53889170D01*
X122397219Y-53878134D01*
X122379976Y-53865346D01*
X122364070Y-53850930D01*
X122349654Y-53835024D01*
X122336866Y-53817781D01*
X122325830Y-53799368D01*
X122316651Y-53779962D01*
X122309419Y-53759750D01*
X122304203Y-53738926D01*
X122301053Y-53717691D01*
X122300000Y-53696250D01*
X122300000Y-53183750D01*
X122301053Y-53162309D01*
X122304203Y-53141074D01*
X122309419Y-53120250D01*
X122316651Y-53100038D01*
X122325830Y-53080632D01*
X122336866Y-53062219D01*
X122349654Y-53044976D01*
X122364070Y-53029070D01*
X122379976Y-53014654D01*
X122397219Y-53001866D01*
X122415632Y-52990830D01*
X122435038Y-52981651D01*
X122455250Y-52974419D01*
X122476074Y-52969203D01*
X122497309Y-52966053D01*
X122518750Y-52965000D01*
X122956250Y-52965000D01*
X122977691Y-52966053D01*
X122977691Y-52966053D01*
G37*
D15*
X122737500Y-53440000D03*
D10*
G36*
X121402691Y-52966053D02*
G01*
X121423926Y-52969203D01*
X121444750Y-52974419D01*
X121464962Y-52981651D01*
X121484368Y-52990830D01*
X121502781Y-53001866D01*
X121520024Y-53014654D01*
X121535930Y-53029070D01*
X121550346Y-53044976D01*
X121563134Y-53062219D01*
X121574170Y-53080632D01*
X121583349Y-53100038D01*
X121590581Y-53120250D01*
X121595797Y-53141074D01*
X121598947Y-53162309D01*
X121600000Y-53183750D01*
X121600000Y-53696250D01*
X121598947Y-53717691D01*
X121595797Y-53738926D01*
X121590581Y-53759750D01*
X121583349Y-53779962D01*
X121574170Y-53799368D01*
X121563134Y-53817781D01*
X121550346Y-53835024D01*
X121535930Y-53850930D01*
X121520024Y-53865346D01*
X121502781Y-53878134D01*
X121484368Y-53889170D01*
X121464962Y-53898349D01*
X121444750Y-53905581D01*
X121423926Y-53910797D01*
X121402691Y-53913947D01*
X121381250Y-53915000D01*
X120943750Y-53915000D01*
X120922309Y-53913947D01*
X120901074Y-53910797D01*
X120880250Y-53905581D01*
X120860038Y-53898349D01*
X120840632Y-53889170D01*
X120822219Y-53878134D01*
X120804976Y-53865346D01*
X120789070Y-53850930D01*
X120774654Y-53835024D01*
X120761866Y-53817781D01*
X120750830Y-53799368D01*
X120741651Y-53779962D01*
X120734419Y-53759750D01*
X120729203Y-53738926D01*
X120726053Y-53717691D01*
X120725000Y-53696250D01*
X120725000Y-53183750D01*
X120726053Y-53162309D01*
X120729203Y-53141074D01*
X120734419Y-53120250D01*
X120741651Y-53100038D01*
X120750830Y-53080632D01*
X120761866Y-53062219D01*
X120774654Y-53044976D01*
X120789070Y-53029070D01*
X120804976Y-53014654D01*
X120822219Y-53001866D01*
X120840632Y-52990830D01*
X120860038Y-52981651D01*
X120880250Y-52974419D01*
X120901074Y-52969203D01*
X120922309Y-52966053D01*
X120943750Y-52965000D01*
X121381250Y-52965000D01*
X121402691Y-52966053D01*
X121402691Y-52966053D01*
G37*
D15*
X121162500Y-53440000D03*
D10*
G36*
X102807691Y-38996053D02*
G01*
X102828926Y-38999203D01*
X102849750Y-39004419D01*
X102869962Y-39011651D01*
X102889368Y-39020830D01*
X102907781Y-39031866D01*
X102925024Y-39044654D01*
X102940930Y-39059070D01*
X102955346Y-39074976D01*
X102968134Y-39092219D01*
X102979170Y-39110632D01*
X102988349Y-39130038D01*
X102995581Y-39150250D01*
X103000797Y-39171074D01*
X103003947Y-39192309D01*
X103005000Y-39213750D01*
X103005000Y-39651250D01*
X103003947Y-39672691D01*
X103000797Y-39693926D01*
X102995581Y-39714750D01*
X102988349Y-39734962D01*
X102979170Y-39754368D01*
X102968134Y-39772781D01*
X102955346Y-39790024D01*
X102940930Y-39805930D01*
X102925024Y-39820346D01*
X102907781Y-39833134D01*
X102889368Y-39844170D01*
X102869962Y-39853349D01*
X102849750Y-39860581D01*
X102828926Y-39865797D01*
X102807691Y-39868947D01*
X102786250Y-39870000D01*
X102273750Y-39870000D01*
X102252309Y-39868947D01*
X102231074Y-39865797D01*
X102210250Y-39860581D01*
X102190038Y-39853349D01*
X102170632Y-39844170D01*
X102152219Y-39833134D01*
X102134976Y-39820346D01*
X102119070Y-39805930D01*
X102104654Y-39790024D01*
X102091866Y-39772781D01*
X102080830Y-39754368D01*
X102071651Y-39734962D01*
X102064419Y-39714750D01*
X102059203Y-39693926D01*
X102056053Y-39672691D01*
X102055000Y-39651250D01*
X102055000Y-39213750D01*
X102056053Y-39192309D01*
X102059203Y-39171074D01*
X102064419Y-39150250D01*
X102071651Y-39130038D01*
X102080830Y-39110632D01*
X102091866Y-39092219D01*
X102104654Y-39074976D01*
X102119070Y-39059070D01*
X102134976Y-39044654D01*
X102152219Y-39031866D01*
X102170632Y-39020830D01*
X102190038Y-39011651D01*
X102210250Y-39004419D01*
X102231074Y-38999203D01*
X102252309Y-38996053D01*
X102273750Y-38995000D01*
X102786250Y-38995000D01*
X102807691Y-38996053D01*
X102807691Y-38996053D01*
G37*
D15*
X102530000Y-39432500D03*
D10*
G36*
X102807691Y-40571053D02*
G01*
X102828926Y-40574203D01*
X102849750Y-40579419D01*
X102869962Y-40586651D01*
X102889368Y-40595830D01*
X102907781Y-40606866D01*
X102925024Y-40619654D01*
X102940930Y-40634070D01*
X102955346Y-40649976D01*
X102968134Y-40667219D01*
X102979170Y-40685632D01*
X102988349Y-40705038D01*
X102995581Y-40725250D01*
X103000797Y-40746074D01*
X103003947Y-40767309D01*
X103005000Y-40788750D01*
X103005000Y-41226250D01*
X103003947Y-41247691D01*
X103000797Y-41268926D01*
X102995581Y-41289750D01*
X102988349Y-41309962D01*
X102979170Y-41329368D01*
X102968134Y-41347781D01*
X102955346Y-41365024D01*
X102940930Y-41380930D01*
X102925024Y-41395346D01*
X102907781Y-41408134D01*
X102889368Y-41419170D01*
X102869962Y-41428349D01*
X102849750Y-41435581D01*
X102828926Y-41440797D01*
X102807691Y-41443947D01*
X102786250Y-41445000D01*
X102273750Y-41445000D01*
X102252309Y-41443947D01*
X102231074Y-41440797D01*
X102210250Y-41435581D01*
X102190038Y-41428349D01*
X102170632Y-41419170D01*
X102152219Y-41408134D01*
X102134976Y-41395346D01*
X102119070Y-41380930D01*
X102104654Y-41365024D01*
X102091866Y-41347781D01*
X102080830Y-41329368D01*
X102071651Y-41309962D01*
X102064419Y-41289750D01*
X102059203Y-41268926D01*
X102056053Y-41247691D01*
X102055000Y-41226250D01*
X102055000Y-40788750D01*
X102056053Y-40767309D01*
X102059203Y-40746074D01*
X102064419Y-40725250D01*
X102071651Y-40705038D01*
X102080830Y-40685632D01*
X102091866Y-40667219D01*
X102104654Y-40649976D01*
X102119070Y-40634070D01*
X102134976Y-40619654D01*
X102152219Y-40606866D01*
X102170632Y-40595830D01*
X102190038Y-40586651D01*
X102210250Y-40579419D01*
X102231074Y-40574203D01*
X102252309Y-40571053D01*
X102273750Y-40570000D01*
X102786250Y-40570000D01*
X102807691Y-40571053D01*
X102807691Y-40571053D01*
G37*
D15*
X102530000Y-41007500D03*
D10*
G36*
X104847691Y-39016053D02*
G01*
X104868926Y-39019203D01*
X104889750Y-39024419D01*
X104909962Y-39031651D01*
X104929368Y-39040830D01*
X104947781Y-39051866D01*
X104965024Y-39064654D01*
X104980930Y-39079070D01*
X104995346Y-39094976D01*
X105008134Y-39112219D01*
X105019170Y-39130632D01*
X105028349Y-39150038D01*
X105035581Y-39170250D01*
X105040797Y-39191074D01*
X105043947Y-39212309D01*
X105045000Y-39233750D01*
X105045000Y-39671250D01*
X105043947Y-39692691D01*
X105040797Y-39713926D01*
X105035581Y-39734750D01*
X105028349Y-39754962D01*
X105019170Y-39774368D01*
X105008134Y-39792781D01*
X104995346Y-39810024D01*
X104980930Y-39825930D01*
X104965024Y-39840346D01*
X104947781Y-39853134D01*
X104929368Y-39864170D01*
X104909962Y-39873349D01*
X104889750Y-39880581D01*
X104868926Y-39885797D01*
X104847691Y-39888947D01*
X104826250Y-39890000D01*
X104313750Y-39890000D01*
X104292309Y-39888947D01*
X104271074Y-39885797D01*
X104250250Y-39880581D01*
X104230038Y-39873349D01*
X104210632Y-39864170D01*
X104192219Y-39853134D01*
X104174976Y-39840346D01*
X104159070Y-39825930D01*
X104144654Y-39810024D01*
X104131866Y-39792781D01*
X104120830Y-39774368D01*
X104111651Y-39754962D01*
X104104419Y-39734750D01*
X104099203Y-39713926D01*
X104096053Y-39692691D01*
X104095000Y-39671250D01*
X104095000Y-39233750D01*
X104096053Y-39212309D01*
X104099203Y-39191074D01*
X104104419Y-39170250D01*
X104111651Y-39150038D01*
X104120830Y-39130632D01*
X104131866Y-39112219D01*
X104144654Y-39094976D01*
X104159070Y-39079070D01*
X104174976Y-39064654D01*
X104192219Y-39051866D01*
X104210632Y-39040830D01*
X104230038Y-39031651D01*
X104250250Y-39024419D01*
X104271074Y-39019203D01*
X104292309Y-39016053D01*
X104313750Y-39015000D01*
X104826250Y-39015000D01*
X104847691Y-39016053D01*
X104847691Y-39016053D01*
G37*
D15*
X104570000Y-39452500D03*
D10*
G36*
X104847691Y-40591053D02*
G01*
X104868926Y-40594203D01*
X104889750Y-40599419D01*
X104909962Y-40606651D01*
X104929368Y-40615830D01*
X104947781Y-40626866D01*
X104965024Y-40639654D01*
X104980930Y-40654070D01*
X104995346Y-40669976D01*
X105008134Y-40687219D01*
X105019170Y-40705632D01*
X105028349Y-40725038D01*
X105035581Y-40745250D01*
X105040797Y-40766074D01*
X105043947Y-40787309D01*
X105045000Y-40808750D01*
X105045000Y-41246250D01*
X105043947Y-41267691D01*
X105040797Y-41288926D01*
X105035581Y-41309750D01*
X105028349Y-41329962D01*
X105019170Y-41349368D01*
X105008134Y-41367781D01*
X104995346Y-41385024D01*
X104980930Y-41400930D01*
X104965024Y-41415346D01*
X104947781Y-41428134D01*
X104929368Y-41439170D01*
X104909962Y-41448349D01*
X104889750Y-41455581D01*
X104868926Y-41460797D01*
X104847691Y-41463947D01*
X104826250Y-41465000D01*
X104313750Y-41465000D01*
X104292309Y-41463947D01*
X104271074Y-41460797D01*
X104250250Y-41455581D01*
X104230038Y-41448349D01*
X104210632Y-41439170D01*
X104192219Y-41428134D01*
X104174976Y-41415346D01*
X104159070Y-41400930D01*
X104144654Y-41385024D01*
X104131866Y-41367781D01*
X104120830Y-41349368D01*
X104111651Y-41329962D01*
X104104419Y-41309750D01*
X104099203Y-41288926D01*
X104096053Y-41267691D01*
X104095000Y-41246250D01*
X104095000Y-40808750D01*
X104096053Y-40787309D01*
X104099203Y-40766074D01*
X104104419Y-40745250D01*
X104111651Y-40725038D01*
X104120830Y-40705632D01*
X104131866Y-40687219D01*
X104144654Y-40669976D01*
X104159070Y-40654070D01*
X104174976Y-40639654D01*
X104192219Y-40626866D01*
X104210632Y-40615830D01*
X104230038Y-40606651D01*
X104250250Y-40599419D01*
X104271074Y-40594203D01*
X104292309Y-40591053D01*
X104313750Y-40590000D01*
X104826250Y-40590000D01*
X104847691Y-40591053D01*
X104847691Y-40591053D01*
G37*
D15*
X104570000Y-41027500D03*
D10*
G36*
X109247691Y-28686053D02*
G01*
X109268926Y-28689203D01*
X109289750Y-28694419D01*
X109309962Y-28701651D01*
X109329368Y-28710830D01*
X109347781Y-28721866D01*
X109365024Y-28734654D01*
X109380930Y-28749070D01*
X109395346Y-28764976D01*
X109408134Y-28782219D01*
X109419170Y-28800632D01*
X109428349Y-28820038D01*
X109435581Y-28840250D01*
X109440797Y-28861074D01*
X109443947Y-28882309D01*
X109445000Y-28903750D01*
X109445000Y-29416250D01*
X109443947Y-29437691D01*
X109440797Y-29458926D01*
X109435581Y-29479750D01*
X109428349Y-29499962D01*
X109419170Y-29519368D01*
X109408134Y-29537781D01*
X109395346Y-29555024D01*
X109380930Y-29570930D01*
X109365024Y-29585346D01*
X109347781Y-29598134D01*
X109329368Y-29609170D01*
X109309962Y-29618349D01*
X109289750Y-29625581D01*
X109268926Y-29630797D01*
X109247691Y-29633947D01*
X109226250Y-29635000D01*
X108788750Y-29635000D01*
X108767309Y-29633947D01*
X108746074Y-29630797D01*
X108725250Y-29625581D01*
X108705038Y-29618349D01*
X108685632Y-29609170D01*
X108667219Y-29598134D01*
X108649976Y-29585346D01*
X108634070Y-29570930D01*
X108619654Y-29555024D01*
X108606866Y-29537781D01*
X108595830Y-29519368D01*
X108586651Y-29499962D01*
X108579419Y-29479750D01*
X108574203Y-29458926D01*
X108571053Y-29437691D01*
X108570000Y-29416250D01*
X108570000Y-28903750D01*
X108571053Y-28882309D01*
X108574203Y-28861074D01*
X108579419Y-28840250D01*
X108586651Y-28820038D01*
X108595830Y-28800632D01*
X108606866Y-28782219D01*
X108619654Y-28764976D01*
X108634070Y-28749070D01*
X108649976Y-28734654D01*
X108667219Y-28721866D01*
X108685632Y-28710830D01*
X108705038Y-28701651D01*
X108725250Y-28694419D01*
X108746074Y-28689203D01*
X108767309Y-28686053D01*
X108788750Y-28685000D01*
X109226250Y-28685000D01*
X109247691Y-28686053D01*
X109247691Y-28686053D01*
G37*
D15*
X109007500Y-29160000D03*
D10*
G36*
X107672691Y-28686053D02*
G01*
X107693926Y-28689203D01*
X107714750Y-28694419D01*
X107734962Y-28701651D01*
X107754368Y-28710830D01*
X107772781Y-28721866D01*
X107790024Y-28734654D01*
X107805930Y-28749070D01*
X107820346Y-28764976D01*
X107833134Y-28782219D01*
X107844170Y-28800632D01*
X107853349Y-28820038D01*
X107860581Y-28840250D01*
X107865797Y-28861074D01*
X107868947Y-28882309D01*
X107870000Y-28903750D01*
X107870000Y-29416250D01*
X107868947Y-29437691D01*
X107865797Y-29458926D01*
X107860581Y-29479750D01*
X107853349Y-29499962D01*
X107844170Y-29519368D01*
X107833134Y-29537781D01*
X107820346Y-29555024D01*
X107805930Y-29570930D01*
X107790024Y-29585346D01*
X107772781Y-29598134D01*
X107754368Y-29609170D01*
X107734962Y-29618349D01*
X107714750Y-29625581D01*
X107693926Y-29630797D01*
X107672691Y-29633947D01*
X107651250Y-29635000D01*
X107213750Y-29635000D01*
X107192309Y-29633947D01*
X107171074Y-29630797D01*
X107150250Y-29625581D01*
X107130038Y-29618349D01*
X107110632Y-29609170D01*
X107092219Y-29598134D01*
X107074976Y-29585346D01*
X107059070Y-29570930D01*
X107044654Y-29555024D01*
X107031866Y-29537781D01*
X107020830Y-29519368D01*
X107011651Y-29499962D01*
X107004419Y-29479750D01*
X106999203Y-29458926D01*
X106996053Y-29437691D01*
X106995000Y-29416250D01*
X106995000Y-28903750D01*
X106996053Y-28882309D01*
X106999203Y-28861074D01*
X107004419Y-28840250D01*
X107011651Y-28820038D01*
X107020830Y-28800632D01*
X107031866Y-28782219D01*
X107044654Y-28764976D01*
X107059070Y-28749070D01*
X107074976Y-28734654D01*
X107092219Y-28721866D01*
X107110632Y-28710830D01*
X107130038Y-28701651D01*
X107150250Y-28694419D01*
X107171074Y-28689203D01*
X107192309Y-28686053D01*
X107213750Y-28685000D01*
X107651250Y-28685000D01*
X107672691Y-28686053D01*
X107672691Y-28686053D01*
G37*
D15*
X107432500Y-29160000D03*
D10*
G36*
X96557691Y-22566053D02*
G01*
X96578926Y-22569203D01*
X96599750Y-22574419D01*
X96619962Y-22581651D01*
X96639368Y-22590830D01*
X96657781Y-22601866D01*
X96675024Y-22614654D01*
X96690930Y-22629070D01*
X96705346Y-22644976D01*
X96718134Y-22662219D01*
X96729170Y-22680632D01*
X96738349Y-22700038D01*
X96745581Y-22720250D01*
X96750797Y-22741074D01*
X96753947Y-22762309D01*
X96755000Y-22783750D01*
X96755000Y-23296250D01*
X96753947Y-23317691D01*
X96750797Y-23338926D01*
X96745581Y-23359750D01*
X96738349Y-23379962D01*
X96729170Y-23399368D01*
X96718134Y-23417781D01*
X96705346Y-23435024D01*
X96690930Y-23450930D01*
X96675024Y-23465346D01*
X96657781Y-23478134D01*
X96639368Y-23489170D01*
X96619962Y-23498349D01*
X96599750Y-23505581D01*
X96578926Y-23510797D01*
X96557691Y-23513947D01*
X96536250Y-23515000D01*
X96098750Y-23515000D01*
X96077309Y-23513947D01*
X96056074Y-23510797D01*
X96035250Y-23505581D01*
X96015038Y-23498349D01*
X95995632Y-23489170D01*
X95977219Y-23478134D01*
X95959976Y-23465346D01*
X95944070Y-23450930D01*
X95929654Y-23435024D01*
X95916866Y-23417781D01*
X95905830Y-23399368D01*
X95896651Y-23379962D01*
X95889419Y-23359750D01*
X95884203Y-23338926D01*
X95881053Y-23317691D01*
X95880000Y-23296250D01*
X95880000Y-22783750D01*
X95881053Y-22762309D01*
X95884203Y-22741074D01*
X95889419Y-22720250D01*
X95896651Y-22700038D01*
X95905830Y-22680632D01*
X95916866Y-22662219D01*
X95929654Y-22644976D01*
X95944070Y-22629070D01*
X95959976Y-22614654D01*
X95977219Y-22601866D01*
X95995632Y-22590830D01*
X96015038Y-22581651D01*
X96035250Y-22574419D01*
X96056074Y-22569203D01*
X96077309Y-22566053D01*
X96098750Y-22565000D01*
X96536250Y-22565000D01*
X96557691Y-22566053D01*
X96557691Y-22566053D01*
G37*
D15*
X96317500Y-23040000D03*
D10*
G36*
X94982691Y-22566053D02*
G01*
X95003926Y-22569203D01*
X95024750Y-22574419D01*
X95044962Y-22581651D01*
X95064368Y-22590830D01*
X95082781Y-22601866D01*
X95100024Y-22614654D01*
X95115930Y-22629070D01*
X95130346Y-22644976D01*
X95143134Y-22662219D01*
X95154170Y-22680632D01*
X95163349Y-22700038D01*
X95170581Y-22720250D01*
X95175797Y-22741074D01*
X95178947Y-22762309D01*
X95180000Y-22783750D01*
X95180000Y-23296250D01*
X95178947Y-23317691D01*
X95175797Y-23338926D01*
X95170581Y-23359750D01*
X95163349Y-23379962D01*
X95154170Y-23399368D01*
X95143134Y-23417781D01*
X95130346Y-23435024D01*
X95115930Y-23450930D01*
X95100024Y-23465346D01*
X95082781Y-23478134D01*
X95064368Y-23489170D01*
X95044962Y-23498349D01*
X95024750Y-23505581D01*
X95003926Y-23510797D01*
X94982691Y-23513947D01*
X94961250Y-23515000D01*
X94523750Y-23515000D01*
X94502309Y-23513947D01*
X94481074Y-23510797D01*
X94460250Y-23505581D01*
X94440038Y-23498349D01*
X94420632Y-23489170D01*
X94402219Y-23478134D01*
X94384976Y-23465346D01*
X94369070Y-23450930D01*
X94354654Y-23435024D01*
X94341866Y-23417781D01*
X94330830Y-23399368D01*
X94321651Y-23379962D01*
X94314419Y-23359750D01*
X94309203Y-23338926D01*
X94306053Y-23317691D01*
X94305000Y-23296250D01*
X94305000Y-22783750D01*
X94306053Y-22762309D01*
X94309203Y-22741074D01*
X94314419Y-22720250D01*
X94321651Y-22700038D01*
X94330830Y-22680632D01*
X94341866Y-22662219D01*
X94354654Y-22644976D01*
X94369070Y-22629070D01*
X94384976Y-22614654D01*
X94402219Y-22601866D01*
X94420632Y-22590830D01*
X94440038Y-22581651D01*
X94460250Y-22574419D01*
X94481074Y-22569203D01*
X94502309Y-22566053D01*
X94523750Y-22565000D01*
X94961250Y-22565000D01*
X94982691Y-22566053D01*
X94982691Y-22566053D01*
G37*
D15*
X94742500Y-23040000D03*
D14*
X76185000Y-95420000D03*
X68235000Y-95420000D03*
X76185000Y-90920000D03*
X68235000Y-90920000D03*
X68155000Y-108720000D03*
X76105000Y-108720000D03*
X68155000Y-113220000D03*
X76105000Y-113220000D03*
X84125000Y-104320000D03*
X76175000Y-104320000D03*
X84125000Y-99820000D03*
X76175000Y-99820000D03*
X145065000Y-110560000D03*
X137115000Y-110560000D03*
X145065000Y-106060000D03*
X137115000Y-106060000D03*
X134725000Y-98740000D03*
X126775000Y-98740000D03*
X134725000Y-94240000D03*
X126775000Y-94240000D03*
D10*
G36*
X96117691Y-162521053D02*
G01*
X96138926Y-162524203D01*
X96159750Y-162529419D01*
X96179962Y-162536651D01*
X96199368Y-162545830D01*
X96217781Y-162556866D01*
X96235024Y-162569654D01*
X96250930Y-162584070D01*
X96265346Y-162599976D01*
X96278134Y-162617219D01*
X96289170Y-162635632D01*
X96298349Y-162655038D01*
X96305581Y-162675250D01*
X96310797Y-162696074D01*
X96313947Y-162717309D01*
X96315000Y-162738750D01*
X96315000Y-163176250D01*
X96313947Y-163197691D01*
X96310797Y-163218926D01*
X96305581Y-163239750D01*
X96298349Y-163259962D01*
X96289170Y-163279368D01*
X96278134Y-163297781D01*
X96265346Y-163315024D01*
X96250930Y-163330930D01*
X96235024Y-163345346D01*
X96217781Y-163358134D01*
X96199368Y-163369170D01*
X96179962Y-163378349D01*
X96159750Y-163385581D01*
X96138926Y-163390797D01*
X96117691Y-163393947D01*
X96096250Y-163395000D01*
X95583750Y-163395000D01*
X95562309Y-163393947D01*
X95541074Y-163390797D01*
X95520250Y-163385581D01*
X95500038Y-163378349D01*
X95480632Y-163369170D01*
X95462219Y-163358134D01*
X95444976Y-163345346D01*
X95429070Y-163330930D01*
X95414654Y-163315024D01*
X95401866Y-163297781D01*
X95390830Y-163279368D01*
X95381651Y-163259962D01*
X95374419Y-163239750D01*
X95369203Y-163218926D01*
X95366053Y-163197691D01*
X95365000Y-163176250D01*
X95365000Y-162738750D01*
X95366053Y-162717309D01*
X95369203Y-162696074D01*
X95374419Y-162675250D01*
X95381651Y-162655038D01*
X95390830Y-162635632D01*
X95401866Y-162617219D01*
X95414654Y-162599976D01*
X95429070Y-162584070D01*
X95444976Y-162569654D01*
X95462219Y-162556866D01*
X95480632Y-162545830D01*
X95500038Y-162536651D01*
X95520250Y-162529419D01*
X95541074Y-162524203D01*
X95562309Y-162521053D01*
X95583750Y-162520000D01*
X96096250Y-162520000D01*
X96117691Y-162521053D01*
X96117691Y-162521053D01*
G37*
D15*
X95840000Y-162957500D03*
D10*
G36*
X96117691Y-160946053D02*
G01*
X96138926Y-160949203D01*
X96159750Y-160954419D01*
X96179962Y-160961651D01*
X96199368Y-160970830D01*
X96217781Y-160981866D01*
X96235024Y-160994654D01*
X96250930Y-161009070D01*
X96265346Y-161024976D01*
X96278134Y-161042219D01*
X96289170Y-161060632D01*
X96298349Y-161080038D01*
X96305581Y-161100250D01*
X96310797Y-161121074D01*
X96313947Y-161142309D01*
X96315000Y-161163750D01*
X96315000Y-161601250D01*
X96313947Y-161622691D01*
X96310797Y-161643926D01*
X96305581Y-161664750D01*
X96298349Y-161684962D01*
X96289170Y-161704368D01*
X96278134Y-161722781D01*
X96265346Y-161740024D01*
X96250930Y-161755930D01*
X96235024Y-161770346D01*
X96217781Y-161783134D01*
X96199368Y-161794170D01*
X96179962Y-161803349D01*
X96159750Y-161810581D01*
X96138926Y-161815797D01*
X96117691Y-161818947D01*
X96096250Y-161820000D01*
X95583750Y-161820000D01*
X95562309Y-161818947D01*
X95541074Y-161815797D01*
X95520250Y-161810581D01*
X95500038Y-161803349D01*
X95480632Y-161794170D01*
X95462219Y-161783134D01*
X95444976Y-161770346D01*
X95429070Y-161755930D01*
X95414654Y-161740024D01*
X95401866Y-161722781D01*
X95390830Y-161704368D01*
X95381651Y-161684962D01*
X95374419Y-161664750D01*
X95369203Y-161643926D01*
X95366053Y-161622691D01*
X95365000Y-161601250D01*
X95365000Y-161163750D01*
X95366053Y-161142309D01*
X95369203Y-161121074D01*
X95374419Y-161100250D01*
X95381651Y-161080038D01*
X95390830Y-161060632D01*
X95401866Y-161042219D01*
X95414654Y-161024976D01*
X95429070Y-161009070D01*
X95444976Y-160994654D01*
X95462219Y-160981866D01*
X95480632Y-160970830D01*
X95500038Y-160961651D01*
X95520250Y-160954419D01*
X95541074Y-160949203D01*
X95562309Y-160946053D01*
X95583750Y-160945000D01*
X96096250Y-160945000D01*
X96117691Y-160946053D01*
X96117691Y-160946053D01*
G37*
D15*
X95840000Y-161382500D03*
D10*
G36*
X102812691Y-146046053D02*
G01*
X102833926Y-146049203D01*
X102854750Y-146054419D01*
X102874962Y-146061651D01*
X102894368Y-146070830D01*
X102912781Y-146081866D01*
X102930024Y-146094654D01*
X102945930Y-146109070D01*
X102960346Y-146124976D01*
X102973134Y-146142219D01*
X102984170Y-146160632D01*
X102993349Y-146180038D01*
X103000581Y-146200250D01*
X103005797Y-146221074D01*
X103008947Y-146242309D01*
X103010000Y-146263750D01*
X103010000Y-146776250D01*
X103008947Y-146797691D01*
X103005797Y-146818926D01*
X103000581Y-146839750D01*
X102993349Y-146859962D01*
X102984170Y-146879368D01*
X102973134Y-146897781D01*
X102960346Y-146915024D01*
X102945930Y-146930930D01*
X102930024Y-146945346D01*
X102912781Y-146958134D01*
X102894368Y-146969170D01*
X102874962Y-146978349D01*
X102854750Y-146985581D01*
X102833926Y-146990797D01*
X102812691Y-146993947D01*
X102791250Y-146995000D01*
X102353750Y-146995000D01*
X102332309Y-146993947D01*
X102311074Y-146990797D01*
X102290250Y-146985581D01*
X102270038Y-146978349D01*
X102250632Y-146969170D01*
X102232219Y-146958134D01*
X102214976Y-146945346D01*
X102199070Y-146930930D01*
X102184654Y-146915024D01*
X102171866Y-146897781D01*
X102160830Y-146879368D01*
X102151651Y-146859962D01*
X102144419Y-146839750D01*
X102139203Y-146818926D01*
X102136053Y-146797691D01*
X102135000Y-146776250D01*
X102135000Y-146263750D01*
X102136053Y-146242309D01*
X102139203Y-146221074D01*
X102144419Y-146200250D01*
X102151651Y-146180038D01*
X102160830Y-146160632D01*
X102171866Y-146142219D01*
X102184654Y-146124976D01*
X102199070Y-146109070D01*
X102214976Y-146094654D01*
X102232219Y-146081866D01*
X102250632Y-146070830D01*
X102270038Y-146061651D01*
X102290250Y-146054419D01*
X102311074Y-146049203D01*
X102332309Y-146046053D01*
X102353750Y-146045000D01*
X102791250Y-146045000D01*
X102812691Y-146046053D01*
X102812691Y-146046053D01*
G37*
D15*
X102572500Y-146520000D03*
D10*
G36*
X104387691Y-146046053D02*
G01*
X104408926Y-146049203D01*
X104429750Y-146054419D01*
X104449962Y-146061651D01*
X104469368Y-146070830D01*
X104487781Y-146081866D01*
X104505024Y-146094654D01*
X104520930Y-146109070D01*
X104535346Y-146124976D01*
X104548134Y-146142219D01*
X104559170Y-146160632D01*
X104568349Y-146180038D01*
X104575581Y-146200250D01*
X104580797Y-146221074D01*
X104583947Y-146242309D01*
X104585000Y-146263750D01*
X104585000Y-146776250D01*
X104583947Y-146797691D01*
X104580797Y-146818926D01*
X104575581Y-146839750D01*
X104568349Y-146859962D01*
X104559170Y-146879368D01*
X104548134Y-146897781D01*
X104535346Y-146915024D01*
X104520930Y-146930930D01*
X104505024Y-146945346D01*
X104487781Y-146958134D01*
X104469368Y-146969170D01*
X104449962Y-146978349D01*
X104429750Y-146985581D01*
X104408926Y-146990797D01*
X104387691Y-146993947D01*
X104366250Y-146995000D01*
X103928750Y-146995000D01*
X103907309Y-146993947D01*
X103886074Y-146990797D01*
X103865250Y-146985581D01*
X103845038Y-146978349D01*
X103825632Y-146969170D01*
X103807219Y-146958134D01*
X103789976Y-146945346D01*
X103774070Y-146930930D01*
X103759654Y-146915024D01*
X103746866Y-146897781D01*
X103735830Y-146879368D01*
X103726651Y-146859962D01*
X103719419Y-146839750D01*
X103714203Y-146818926D01*
X103711053Y-146797691D01*
X103710000Y-146776250D01*
X103710000Y-146263750D01*
X103711053Y-146242309D01*
X103714203Y-146221074D01*
X103719419Y-146200250D01*
X103726651Y-146180038D01*
X103735830Y-146160632D01*
X103746866Y-146142219D01*
X103759654Y-146124976D01*
X103774070Y-146109070D01*
X103789976Y-146094654D01*
X103807219Y-146081866D01*
X103825632Y-146070830D01*
X103845038Y-146061651D01*
X103865250Y-146054419D01*
X103886074Y-146049203D01*
X103907309Y-146046053D01*
X103928750Y-146045000D01*
X104366250Y-146045000D01*
X104387691Y-146046053D01*
X104387691Y-146046053D01*
G37*
D15*
X104147500Y-146520000D03*
D10*
G36*
X111307691Y-160946053D02*
G01*
X111328926Y-160949203D01*
X111349750Y-160954419D01*
X111369962Y-160961651D01*
X111389368Y-160970830D01*
X111407781Y-160981866D01*
X111425024Y-160994654D01*
X111440930Y-161009070D01*
X111455346Y-161024976D01*
X111468134Y-161042219D01*
X111479170Y-161060632D01*
X111488349Y-161080038D01*
X111495581Y-161100250D01*
X111500797Y-161121074D01*
X111503947Y-161142309D01*
X111505000Y-161163750D01*
X111505000Y-161601250D01*
X111503947Y-161622691D01*
X111500797Y-161643926D01*
X111495581Y-161664750D01*
X111488349Y-161684962D01*
X111479170Y-161704368D01*
X111468134Y-161722781D01*
X111455346Y-161740024D01*
X111440930Y-161755930D01*
X111425024Y-161770346D01*
X111407781Y-161783134D01*
X111389368Y-161794170D01*
X111369962Y-161803349D01*
X111349750Y-161810581D01*
X111328926Y-161815797D01*
X111307691Y-161818947D01*
X111286250Y-161820000D01*
X110773750Y-161820000D01*
X110752309Y-161818947D01*
X110731074Y-161815797D01*
X110710250Y-161810581D01*
X110690038Y-161803349D01*
X110670632Y-161794170D01*
X110652219Y-161783134D01*
X110634976Y-161770346D01*
X110619070Y-161755930D01*
X110604654Y-161740024D01*
X110591866Y-161722781D01*
X110580830Y-161704368D01*
X110571651Y-161684962D01*
X110564419Y-161664750D01*
X110559203Y-161643926D01*
X110556053Y-161622691D01*
X110555000Y-161601250D01*
X110555000Y-161163750D01*
X110556053Y-161142309D01*
X110559203Y-161121074D01*
X110564419Y-161100250D01*
X110571651Y-161080038D01*
X110580830Y-161060632D01*
X110591866Y-161042219D01*
X110604654Y-161024976D01*
X110619070Y-161009070D01*
X110634976Y-160994654D01*
X110652219Y-160981866D01*
X110670632Y-160970830D01*
X110690038Y-160961651D01*
X110710250Y-160954419D01*
X110731074Y-160949203D01*
X110752309Y-160946053D01*
X110773750Y-160945000D01*
X111286250Y-160945000D01*
X111307691Y-160946053D01*
X111307691Y-160946053D01*
G37*
D15*
X111030000Y-161382500D03*
D10*
G36*
X111307691Y-162521053D02*
G01*
X111328926Y-162524203D01*
X111349750Y-162529419D01*
X111369962Y-162536651D01*
X111389368Y-162545830D01*
X111407781Y-162556866D01*
X111425024Y-162569654D01*
X111440930Y-162584070D01*
X111455346Y-162599976D01*
X111468134Y-162617219D01*
X111479170Y-162635632D01*
X111488349Y-162655038D01*
X111495581Y-162675250D01*
X111500797Y-162696074D01*
X111503947Y-162717309D01*
X111505000Y-162738750D01*
X111505000Y-163176250D01*
X111503947Y-163197691D01*
X111500797Y-163218926D01*
X111495581Y-163239750D01*
X111488349Y-163259962D01*
X111479170Y-163279368D01*
X111468134Y-163297781D01*
X111455346Y-163315024D01*
X111440930Y-163330930D01*
X111425024Y-163345346D01*
X111407781Y-163358134D01*
X111389368Y-163369170D01*
X111369962Y-163378349D01*
X111349750Y-163385581D01*
X111328926Y-163390797D01*
X111307691Y-163393947D01*
X111286250Y-163395000D01*
X110773750Y-163395000D01*
X110752309Y-163393947D01*
X110731074Y-163390797D01*
X110710250Y-163385581D01*
X110690038Y-163378349D01*
X110670632Y-163369170D01*
X110652219Y-163358134D01*
X110634976Y-163345346D01*
X110619070Y-163330930D01*
X110604654Y-163315024D01*
X110591866Y-163297781D01*
X110580830Y-163279368D01*
X110571651Y-163259962D01*
X110564419Y-163239750D01*
X110559203Y-163218926D01*
X110556053Y-163197691D01*
X110555000Y-163176250D01*
X110555000Y-162738750D01*
X110556053Y-162717309D01*
X110559203Y-162696074D01*
X110564419Y-162675250D01*
X110571651Y-162655038D01*
X110580830Y-162635632D01*
X110591866Y-162617219D01*
X110604654Y-162599976D01*
X110619070Y-162584070D01*
X110634976Y-162569654D01*
X110652219Y-162556866D01*
X110670632Y-162545830D01*
X110690038Y-162536651D01*
X110710250Y-162529419D01*
X110731074Y-162524203D01*
X110752309Y-162521053D01*
X110773750Y-162520000D01*
X111286250Y-162520000D01*
X111307691Y-162521053D01*
X111307691Y-162521053D01*
G37*
D15*
X111030000Y-162957500D03*
D10*
G36*
X104387691Y-147886053D02*
G01*
X104408926Y-147889203D01*
X104429750Y-147894419D01*
X104449962Y-147901651D01*
X104469368Y-147910830D01*
X104487781Y-147921866D01*
X104505024Y-147934654D01*
X104520930Y-147949070D01*
X104535346Y-147964976D01*
X104548134Y-147982219D01*
X104559170Y-148000632D01*
X104568349Y-148020038D01*
X104575581Y-148040250D01*
X104580797Y-148061074D01*
X104583947Y-148082309D01*
X104585000Y-148103750D01*
X104585000Y-148616250D01*
X104583947Y-148637691D01*
X104580797Y-148658926D01*
X104575581Y-148679750D01*
X104568349Y-148699962D01*
X104559170Y-148719368D01*
X104548134Y-148737781D01*
X104535346Y-148755024D01*
X104520930Y-148770930D01*
X104505024Y-148785346D01*
X104487781Y-148798134D01*
X104469368Y-148809170D01*
X104449962Y-148818349D01*
X104429750Y-148825581D01*
X104408926Y-148830797D01*
X104387691Y-148833947D01*
X104366250Y-148835000D01*
X103928750Y-148835000D01*
X103907309Y-148833947D01*
X103886074Y-148830797D01*
X103865250Y-148825581D01*
X103845038Y-148818349D01*
X103825632Y-148809170D01*
X103807219Y-148798134D01*
X103789976Y-148785346D01*
X103774070Y-148770930D01*
X103759654Y-148755024D01*
X103746866Y-148737781D01*
X103735830Y-148719368D01*
X103726651Y-148699962D01*
X103719419Y-148679750D01*
X103714203Y-148658926D01*
X103711053Y-148637691D01*
X103710000Y-148616250D01*
X103710000Y-148103750D01*
X103711053Y-148082309D01*
X103714203Y-148061074D01*
X103719419Y-148040250D01*
X103726651Y-148020038D01*
X103735830Y-148000632D01*
X103746866Y-147982219D01*
X103759654Y-147964976D01*
X103774070Y-147949070D01*
X103789976Y-147934654D01*
X103807219Y-147921866D01*
X103825632Y-147910830D01*
X103845038Y-147901651D01*
X103865250Y-147894419D01*
X103886074Y-147889203D01*
X103907309Y-147886053D01*
X103928750Y-147885000D01*
X104366250Y-147885000D01*
X104387691Y-147886053D01*
X104387691Y-147886053D01*
G37*
D15*
X104147500Y-148360000D03*
D10*
G36*
X102812691Y-147886053D02*
G01*
X102833926Y-147889203D01*
X102854750Y-147894419D01*
X102874962Y-147901651D01*
X102894368Y-147910830D01*
X102912781Y-147921866D01*
X102930024Y-147934654D01*
X102945930Y-147949070D01*
X102960346Y-147964976D01*
X102973134Y-147982219D01*
X102984170Y-148000632D01*
X102993349Y-148020038D01*
X103000581Y-148040250D01*
X103005797Y-148061074D01*
X103008947Y-148082309D01*
X103010000Y-148103750D01*
X103010000Y-148616250D01*
X103008947Y-148637691D01*
X103005797Y-148658926D01*
X103000581Y-148679750D01*
X102993349Y-148699962D01*
X102984170Y-148719368D01*
X102973134Y-148737781D01*
X102960346Y-148755024D01*
X102945930Y-148770930D01*
X102930024Y-148785346D01*
X102912781Y-148798134D01*
X102894368Y-148809170D01*
X102874962Y-148818349D01*
X102854750Y-148825581D01*
X102833926Y-148830797D01*
X102812691Y-148833947D01*
X102791250Y-148835000D01*
X102353750Y-148835000D01*
X102332309Y-148833947D01*
X102311074Y-148830797D01*
X102290250Y-148825581D01*
X102270038Y-148818349D01*
X102250632Y-148809170D01*
X102232219Y-148798134D01*
X102214976Y-148785346D01*
X102199070Y-148770930D01*
X102184654Y-148755024D01*
X102171866Y-148737781D01*
X102160830Y-148719368D01*
X102151651Y-148699962D01*
X102144419Y-148679750D01*
X102139203Y-148658926D01*
X102136053Y-148637691D01*
X102135000Y-148616250D01*
X102135000Y-148103750D01*
X102136053Y-148082309D01*
X102139203Y-148061074D01*
X102144419Y-148040250D01*
X102151651Y-148020038D01*
X102160830Y-148000632D01*
X102171866Y-147982219D01*
X102184654Y-147964976D01*
X102199070Y-147949070D01*
X102214976Y-147934654D01*
X102232219Y-147921866D01*
X102250632Y-147910830D01*
X102270038Y-147901651D01*
X102290250Y-147894419D01*
X102311074Y-147889203D01*
X102332309Y-147886053D01*
X102353750Y-147885000D01*
X102791250Y-147885000D01*
X102812691Y-147886053D01*
X102812691Y-147886053D01*
G37*
D15*
X102572500Y-148360000D03*
D10*
G36*
X103162691Y-155416053D02*
G01*
X103183926Y-155419203D01*
X103204750Y-155424419D01*
X103224962Y-155431651D01*
X103244368Y-155440830D01*
X103262781Y-155451866D01*
X103280024Y-155464654D01*
X103295930Y-155479070D01*
X103310346Y-155494976D01*
X103323134Y-155512219D01*
X103334170Y-155530632D01*
X103343349Y-155550038D01*
X103350581Y-155570250D01*
X103355797Y-155591074D01*
X103358947Y-155612309D01*
X103360000Y-155633750D01*
X103360000Y-156146250D01*
X103358947Y-156167691D01*
X103355797Y-156188926D01*
X103350581Y-156209750D01*
X103343349Y-156229962D01*
X103334170Y-156249368D01*
X103323134Y-156267781D01*
X103310346Y-156285024D01*
X103295930Y-156300930D01*
X103280024Y-156315346D01*
X103262781Y-156328134D01*
X103244368Y-156339170D01*
X103224962Y-156348349D01*
X103204750Y-156355581D01*
X103183926Y-156360797D01*
X103162691Y-156363947D01*
X103141250Y-156365000D01*
X102703750Y-156365000D01*
X102682309Y-156363947D01*
X102661074Y-156360797D01*
X102640250Y-156355581D01*
X102620038Y-156348349D01*
X102600632Y-156339170D01*
X102582219Y-156328134D01*
X102564976Y-156315346D01*
X102549070Y-156300930D01*
X102534654Y-156285024D01*
X102521866Y-156267781D01*
X102510830Y-156249368D01*
X102501651Y-156229962D01*
X102494419Y-156209750D01*
X102489203Y-156188926D01*
X102486053Y-156167691D01*
X102485000Y-156146250D01*
X102485000Y-155633750D01*
X102486053Y-155612309D01*
X102489203Y-155591074D01*
X102494419Y-155570250D01*
X102501651Y-155550038D01*
X102510830Y-155530632D01*
X102521866Y-155512219D01*
X102534654Y-155494976D01*
X102549070Y-155479070D01*
X102564976Y-155464654D01*
X102582219Y-155451866D01*
X102600632Y-155440830D01*
X102620038Y-155431651D01*
X102640250Y-155424419D01*
X102661074Y-155419203D01*
X102682309Y-155416053D01*
X102703750Y-155415000D01*
X103141250Y-155415000D01*
X103162691Y-155416053D01*
X103162691Y-155416053D01*
G37*
D15*
X102922500Y-155890000D03*
D10*
G36*
X104737691Y-155416053D02*
G01*
X104758926Y-155419203D01*
X104779750Y-155424419D01*
X104799962Y-155431651D01*
X104819368Y-155440830D01*
X104837781Y-155451866D01*
X104855024Y-155464654D01*
X104870930Y-155479070D01*
X104885346Y-155494976D01*
X104898134Y-155512219D01*
X104909170Y-155530632D01*
X104918349Y-155550038D01*
X104925581Y-155570250D01*
X104930797Y-155591074D01*
X104933947Y-155612309D01*
X104935000Y-155633750D01*
X104935000Y-156146250D01*
X104933947Y-156167691D01*
X104930797Y-156188926D01*
X104925581Y-156209750D01*
X104918349Y-156229962D01*
X104909170Y-156249368D01*
X104898134Y-156267781D01*
X104885346Y-156285024D01*
X104870930Y-156300930D01*
X104855024Y-156315346D01*
X104837781Y-156328134D01*
X104819368Y-156339170D01*
X104799962Y-156348349D01*
X104779750Y-156355581D01*
X104758926Y-156360797D01*
X104737691Y-156363947D01*
X104716250Y-156365000D01*
X104278750Y-156365000D01*
X104257309Y-156363947D01*
X104236074Y-156360797D01*
X104215250Y-156355581D01*
X104195038Y-156348349D01*
X104175632Y-156339170D01*
X104157219Y-156328134D01*
X104139976Y-156315346D01*
X104124070Y-156300930D01*
X104109654Y-156285024D01*
X104096866Y-156267781D01*
X104085830Y-156249368D01*
X104076651Y-156229962D01*
X104069419Y-156209750D01*
X104064203Y-156188926D01*
X104061053Y-156167691D01*
X104060000Y-156146250D01*
X104060000Y-155633750D01*
X104061053Y-155612309D01*
X104064203Y-155591074D01*
X104069419Y-155570250D01*
X104076651Y-155550038D01*
X104085830Y-155530632D01*
X104096866Y-155512219D01*
X104109654Y-155494976D01*
X104124070Y-155479070D01*
X104139976Y-155464654D01*
X104157219Y-155451866D01*
X104175632Y-155440830D01*
X104195038Y-155431651D01*
X104215250Y-155424419D01*
X104236074Y-155419203D01*
X104257309Y-155416053D01*
X104278750Y-155415000D01*
X104716250Y-155415000D01*
X104737691Y-155416053D01*
X104737691Y-155416053D01*
G37*
D15*
X104497500Y-155890000D03*
M02*
