M48
; DRILL file {KiCad (5.1.5)-3} date 8/11/2020 11:16:43 PM
; FORMAT={-:-/ absolute / metric / decimal}
; #@! TF.CreationDate,2020-08-11T23:16:43-06:00
; #@! TF.GenerationSoftware,Kicad,Pcbnew,(5.1.5)-3
FMAT,2
METRIC
T1C0.200
T2C0.400
T3C0.600
T4C0.650
T5C1.000
T6C0.750
T7C0.900
T8C0.986
T9C0.988
T10C1.000
T11C1.050
T12C1.270
T13C5.000
%
G90
G05
T1
X126.636Y-69.914
X126.636Y-70.947
X126.636Y-71.98
X126.636Y-73.014
X127.669Y-69.914
X127.669Y-70.947
X127.669Y-71.98
X127.669Y-73.014
X128.702Y-69.914
X128.702Y-70.947
X128.702Y-71.98
X128.702Y-73.014
X129.736Y-69.914
X129.736Y-70.947
X129.736Y-71.98
X129.736Y-73.014
T2
X103.936Y-120.454
X104.206Y-112.657
X106.796Y-111.814
X107.111Y-110.179
X109.25Y-159.504
X109.256Y-162.224
X109.576Y-111.834
X111.95Y-99.53
X111.95Y-106.538
X111.956Y-92.565
X111.976Y-85.57
X112.546Y-112.974
X113.056Y-123.064
X113.056Y-127.444
X113.356Y-112.144
X113.976Y-131.664
X113.987Y-151.575
X113.996Y-103.634
X114.136Y-111.404
X114.816Y-141.404
X115.646Y-103.634
X116.166Y-76.274
X117.236Y-134.784
X117.256Y-159.474
X117.476Y-85.574
X117.676Y-141.404
X117.836Y-136.124
X118.236Y-86.434
X118.706Y-136.964
X118.916Y-112.904
X119.126Y-87.254
X119.706Y-137.724
X119.976Y-112.194
X119.996Y-88.054
X120.476Y-115.334
X120.776Y-138.744
X120.786Y-122.614
X120.816Y-80.154
X120.924Y-132.537
X121.466Y-74.614
X121.626Y-107.714
X121.786Y-121.974
X122.526Y-121.274
X123.076Y-102.054
X123.236Y-120.634
X123.236Y-124.164
X123.446Y-94.994
X124.116Y-69.884
X124.286Y-89.684
X124.586Y-64.744
X124.696Y-74.614
X124.816Y-124.155
X125.357Y-150.32
X125.396Y-65.734
X125.476Y-80.154
X125.501Y-157.046
X125.556Y-119.954
X125.786Y-63.984
X126.086Y-89.674
X126.476Y-125.224
X126.736Y-102.904
X126.946Y-80.144
X127.262Y-150.34
X127.326Y-125.794
X127.363Y-157.025
X127.576Y-101.904
X127.666Y-60.364
X127.968Y-132.573
X127.995Y-66.423
X128.046Y-76.294
X128.176Y-135.354
X128.346Y-116.404
X128.483Y-142.677
X128.536Y-101.064
X129.256Y-89.074
X129.576Y-66.244
X129.576Y-100.344
X129.706Y-88.204
X129.986Y-75.274
X130.226Y-121.284
X130.236Y-123.974
X130.326Y-115.364
X130.356Y-64.014
X130.916Y-112.214
X131.016Y-64.754
X131.116Y-109.354
X131.161Y-142.677
X131.166Y-136.234
X132.116Y-108.734
X132.536Y-111.784
X133.266Y-48.174
X133.836Y-136.974
X133.839Y-142.677
X134.945Y-132.565
X135.208Y-74.934
X135.466Y-114.754
X135.466Y-115.794
X136.176Y-103.884
X136.516Y-137.724
X136.517Y-142.677
X136.526Y-48.004
X136.966Y-102.684
X137.246Y-121.964
X137.246Y-123.994
X137.286Y-58.384
X137.546Y-101.894
X137.776Y-144.844
X137.786Y-130.624
X137.786Y-133.434
X138.186Y-101.054
X138.976Y-100.344
X139.046Y-77.424
X139.195Y-142.677
X139.656Y-78.214
X140.266Y-79.114
X140.276Y-28.664
X140.706Y-161.054
X140.726Y-162.014
X140.936Y-79.904
X141.316Y-138.734
X141.376Y-116.394
X141.576Y-81.284
X141.766Y-87.464
X141.876Y-162.104
X141.938Y-132.552
X142.276Y-30.914
X142.556Y-81.624
X142.796Y-87.484
X142.876Y-57.534
X142.906Y-110.954
X142.916Y-114.534
X143.106Y-75.184
X143.126Y-68.014
X143.286Y-91.934
X143.316Y-89.074
X143.736Y-110.234
X143.746Y-115.164
X144.326Y-78.574
X144.826Y-59.564
X145.166Y-116.364
X145.67Y-77.069
X146.076Y-89.544
X148.206Y-76.274
X148.556Y-112.744
X148.606Y-106.234
X148.816Y-132.552
X150.226Y-142.884
X150.356Y-101.434
X150.356Y-104.714
X150.746Y-77.114
X151.126Y-141.024
X151.236Y-120.634
X151.236Y-124.154
X152.176Y-77.454
X152.814Y-124.155
X152.816Y-119.954
X153.166Y-27.674
X153.266Y-75.164
X153.306Y-68.074
X153.706Y-89.544
X154.739Y-135.351
X155.041Y-121.938
X155.066Y-115.784
X155.126Y-55.414
X155.446Y-38.124
X155.456Y-32.394
X155.905Y-132.555
X156.146Y-89.544
X156.246Y-116.414
X156.256Y-122.674
X156.586Y-38.134
X156.596Y-33.064
X156.751Y-142.677
X156.836Y-75.904
X156.976Y-56.824
X157.376Y-116.834
X158.226Y-121.284
X158.236Y-124.154
X159.226Y-47.594
X159.575Y-136.233
X159.575Y-142.677
X160.786Y-118.474
X161.076Y-45.764
X161.196Y-44.374
X161.276Y-49.324
X161.326Y-48.144
X161.696Y-75.924
X161.939Y-136.97
X162.086Y-56.164
X162.096Y-60.374
X162.399Y-142.677
X162.456Y-66.314
X162.789Y-132.532
X163.146Y-114.614
X163.486Y-64.314
X163.696Y-147.274
X164.426Y-59.124
X164.426Y-63.604
X164.896Y-117.604
X164.996Y-75.944
X165.176Y-62.844
X165.223Y-137.731
X165.223Y-142.677
X165.226Y-121.924
X165.226Y-124.154
X165.253Y-77.214
X165.396Y-48.214
X165.406Y-47.144
X165.766Y-69.124
X166.216Y-66.324
X167.276Y-75.934
X168.006Y-138.734
X168.046Y-142.677
X168.246Y-69.134
X169.696Y-115.814
X169.723Y-132.56
X169.746Y-70.704
X169.746Y-104.864
X171.736Y-75.934
X176.006Y-119.544
X176.356Y-121.664
X176.436Y-75.954
X176.476Y-104.854
X176.566Y-131.204
X176.566Y-150.414
X176.576Y-134.064
X177.366Y-127.264
X178.956Y-106.994
X178.956Y-109.444
X179.356Y-118.924
X179.456Y-76.384
X179.776Y-157.684
X179.866Y-122.204
X180.226Y-134.104
X180.226Y-138.524
X180.226Y-147.004
X180.314Y-85.675
X180.606Y-115.414
X181.036Y-149.194
X181.486Y-147.894
X181.906Y-80.544
X181.976Y-130.204
X182.026Y-125.974
X182.486Y-79.684
X182.826Y-126.814
X182.936Y-129.524
X183.086Y-78.834
X183.606Y-127.434
X183.746Y-77.974
X183.996Y-129.344
X184.376Y-77.084
X184.676Y-128.094
X185.016Y-76.124
X185.646Y-122.494
X185.726Y-75.184
X185.776Y-147.194
X186.246Y-74.364
X186.906Y-73.634
X187.144Y-128.014
X187.656Y-142.114
X187.996Y-121.704
X188.116Y-80.014
X188.156Y-119.714
X188.306Y-81.124
X188.696Y-122.404
X188.816Y-102.524
X188.826Y-88.464
X188.876Y-95.514
X189.216Y-120.034
X190.156Y-119.794
X190.186Y-97.974
X190.186Y-104.984
X190.224Y-83.975
X190.234Y-90.98
X190.776Y-120.744
X191.686Y-81.434
X191.736Y-150.884
X191.745Y-148.544
X192.196Y-109.684
T4
X188.808Y-144.734
X188.808Y-147.274
X188.808Y-149.814
X189.008Y-146.004
X189.008Y-148.544
X190.078Y-144.734
X190.078Y-147.274
X190.078Y-149.814
X190.278Y-146.004
X190.278Y-148.544
T5
X145.339Y-26.391
X145.339Y-28.931
X147.879Y-26.391
X147.879Y-28.931
X150.419Y-26.391
X150.419Y-28.931
X136.804Y-166.116
X136.804Y-168.656
X139.344Y-166.116
X139.344Y-168.656
X141.884Y-166.116
X141.884Y-168.656
X144.424Y-166.116
X144.424Y-168.656
X146.964Y-166.116
X146.964Y-168.656
X149.504Y-166.116
X149.504Y-168.656
X152.044Y-166.116
X152.044Y-168.656
X154.584Y-166.116
X154.584Y-168.656
X157.124Y-166.116
X157.124Y-168.656
X159.664Y-166.116
X159.664Y-168.656
T6
X132.54Y-147.348
X160.937Y-147.348
T7
X105.806Y-141.874
X105.806Y-148.674
T8
X182.369Y-144.084
X184.401Y-144.084
T9
X183.385Y-151.704
T11
X135.227Y-150.035
X163.624Y-150.035
T12
X143.706Y-24.884
T3
G00X163.496Y-43.394
M15
G01X162.496Y-43.394
M16
G05
G00X163.496Y-52.034
M15
G01X162.496Y-52.034
M16
G05
G00X169.106Y-43.394
M15
G01X167.606Y-43.394
M16
G05
G00X169.106Y-52.034
M15
G01X167.606Y-52.034
M16
G05
T10
G00X145.879Y-31.471
M15
G01X149.879Y-31.471
M16
G05
T13
G00X162.136Y-87.247
M15
G01X162.136Y-109.247
M16
G05
T0
M30
