G04 #@! TF.GenerationSoftware,KiCad,Pcbnew,(5.1.9)-1*
G04 #@! TF.CreationDate,2021-01-16T23:54:46-07:00*
G04 #@! TF.ProjectId,purplewizard,70757270-6c65-4776-997a-6172642e6b69,0.1*
G04 #@! TF.SameCoordinates,PX613b810PYa454c00*
G04 #@! TF.FileFunction,Soldermask,Top*
G04 #@! TF.FilePolarity,Negative*
%FSLAX46Y46*%
G04 Gerber Fmt 4.6, Leading zero omitted, Abs format (unit mm)*
G04 Created by KiCad (PCBNEW (5.1.9)-1) date 2021-01-16 23:54:46*
%MOMM*%
%LPD*%
G01*
G04 APERTURE LIST*
%ADD10C,0.010000*%
%ADD11C,1.700000*%
%ADD12O,1.700000X1.700000*%
%ADD13C,1.524000*%
%ADD14C,2.000000*%
%ADD15C,0.900000*%
%ADD16R,1.550000X1.000000*%
%ADD17C,0.100000*%
%ADD18C,1.050000*%
%ADD19C,0.750000*%
%ADD20R,1.000000X1.550000*%
%ADD21C,0.985520*%
%ADD22C,0.988060*%
%ADD23R,1.000000X1.000000*%
%ADD24O,1.000000X1.000000*%
%ADD25O,2.600000X1.300000*%
%ADD26O,2.200000X1.100000*%
%ADD27R,1.700000X1.700000*%
G04 APERTURE END LIST*
D10*
G36*
X46650776Y139192703D02*
G01*
X46792610Y139180610D01*
X46923370Y139164692D01*
X47056362Y139142795D01*
X47204890Y139112760D01*
X47358916Y139077907D01*
X47481177Y139052117D01*
X47619524Y139027198D01*
X47749143Y139007521D01*
X47782250Y139003338D01*
X47873296Y138991718D01*
X47948500Y138980568D01*
X47997963Y138971442D01*
X48011626Y138967328D01*
X48038782Y138961524D01*
X48098870Y138954146D01*
X48182564Y138946205D01*
X48265626Y138939747D01*
X48376762Y138930070D01*
X48508055Y138915730D01*
X48650002Y138898067D01*
X48793102Y138878417D01*
X48927849Y138858121D01*
X49044742Y138838515D01*
X49134278Y138820940D01*
X49168666Y138812555D01*
X49227202Y138802315D01*
X49310366Y138794931D01*
X49400475Y138791957D01*
X49403205Y138791952D01*
X49495031Y138787776D01*
X49610187Y138776653D01*
X49730613Y138760526D01*
X49794789Y138749822D01*
X49905418Y138731949D01*
X50016442Y138717787D01*
X50111937Y138709199D01*
X50156824Y138707489D01*
X50248292Y138702488D01*
X50355477Y138689792D01*
X50442102Y138674694D01*
X50554596Y138653899D01*
X50702249Y138631050D01*
X50877988Y138607042D01*
X51074741Y138582773D01*
X51285436Y138559137D01*
X51503001Y138537030D01*
X51602833Y138527676D01*
X51871739Y138501743D01*
X52125227Y138474468D01*
X52357785Y138446548D01*
X52563904Y138418678D01*
X52738071Y138391554D01*
X52859940Y138368976D01*
X52971587Y138349550D01*
X53089600Y138334728D01*
X53193972Y138326851D01*
X53225305Y138326167D01*
X53332992Y138321320D01*
X53451559Y138308751D01*
X53535184Y138294982D01*
X53627209Y138277298D01*
X53741401Y138256962D01*
X53858039Y138237443D01*
X53899416Y138230883D01*
X53993979Y138213257D01*
X54116412Y138186157D01*
X54254135Y138152593D01*
X54394569Y138115578D01*
X54470916Y138094114D01*
X54705508Y138029184D01*
X54904160Y137980345D01*
X55069829Y137946986D01*
X55205474Y137928497D01*
X55294709Y137924000D01*
X55364309Y137919110D01*
X55419497Y137906640D01*
X55437505Y137897542D01*
X55459142Y137870339D01*
X55496594Y137813326D01*
X55545311Y137733810D01*
X55600746Y137639094D01*
X55625288Y137595917D01*
X55783592Y137317816D01*
X55929784Y137066886D01*
X56062895Y136844654D01*
X56181957Y136652649D01*
X56286001Y136492401D01*
X56374058Y136365438D01*
X56445162Y136273289D01*
X56498342Y136217482D01*
X56498629Y136217240D01*
X56536926Y136176868D01*
X56590855Y136109245D01*
X56653804Y136023140D01*
X56719165Y135927321D01*
X56732005Y135907670D01*
X56810491Y135793092D01*
X56893838Y135682366D01*
X56972827Y135587299D01*
X57026234Y135530886D01*
X57112444Y135447683D01*
X57176815Y135384394D01*
X57228071Y135331640D01*
X57274935Y135280043D01*
X57326129Y135220222D01*
X57390376Y135142798D01*
X57415368Y135112469D01*
X57497342Y135018095D01*
X57588895Y134920846D01*
X57676896Y134834324D01*
X57728368Y134788252D01*
X57790433Y134733250D01*
X57874533Y134654880D01*
X57973290Y134560225D01*
X58079324Y134456363D01*
X58185259Y134350377D01*
X58196250Y134339237D01*
X58449535Y134094748D01*
X58707313Y133872572D01*
X58863000Y133749866D01*
X58997970Y133644256D01*
X59148562Y133522495D01*
X59301314Y133395715D01*
X59442762Y133275047D01*
X59527574Y133200413D01*
X59631271Y133108148D01*
X59730901Y133020558D01*
X59819679Y132943529D01*
X59890819Y132882949D01*
X59937535Y132844704D01*
X59938441Y132844000D01*
X60029279Y132765184D01*
X60087268Y132692373D01*
X60119061Y132616355D01*
X60125656Y132584719D01*
X60129806Y132548039D01*
X60125173Y132517221D01*
X60106723Y132484186D01*
X60069425Y132440854D01*
X60008246Y132379146D01*
X59980946Y132352382D01*
X59934503Y132306235D01*
X59890643Y132260558D01*
X59847218Y132212349D01*
X59802080Y132158605D01*
X59753082Y132096322D01*
X59698075Y132022498D01*
X59634911Y131934130D01*
X59561444Y131828214D01*
X59475524Y131701747D01*
X59375005Y131551727D01*
X59257739Y131375150D01*
X59121577Y131169013D01*
X58970088Y130939000D01*
X58772775Y130640376D01*
X58589169Y130364963D01*
X58420262Y130114184D01*
X58267049Y129889462D01*
X58130521Y129692220D01*
X58011670Y129523880D01*
X57911491Y129385866D01*
X57830974Y129279599D01*
X57771114Y129206503D01*
X57736318Y129170752D01*
X57696984Y129142699D01*
X57653721Y129126862D01*
X57592942Y129119961D01*
X57520656Y129118667D01*
X57416157Y129114529D01*
X57321207Y129099953D01*
X57225714Y129071693D01*
X57119584Y129026507D01*
X56992724Y128961149D01*
X56939943Y128932005D01*
X56822141Y128870997D01*
X56683915Y128806803D01*
X56545369Y128748461D01*
X56460583Y128716514D01*
X56357408Y128679966D01*
X56276522Y128650212D01*
X56208535Y128622927D01*
X56144056Y128593788D01*
X56073696Y128558470D01*
X55988065Y128512650D01*
X55877770Y128452004D01*
X55836166Y128428999D01*
X55663723Y128336916D01*
X55518831Y128267264D01*
X55394979Y128217336D01*
X55285653Y128184425D01*
X55212316Y128169754D01*
X55092743Y128151003D01*
X55000758Y128334156D01*
X54963956Y128411262D01*
X54915603Y128518208D01*
X54859842Y128645519D01*
X54800817Y128783719D01*
X54742671Y128923332D01*
X54735964Y128939696D01*
X54667338Y129101545D01*
X54586002Y129284039D01*
X54499325Y129471196D01*
X54414678Y129647032D01*
X54355729Y129764250D01*
X54238822Y129990851D01*
X54139504Y130183185D01*
X54056000Y130344631D01*
X53986535Y130478567D01*
X53929334Y130588372D01*
X53882623Y130677425D01*
X53844628Y130749105D01*
X53813574Y130806790D01*
X53787687Y130853858D01*
X53765191Y130893690D01*
X53744313Y130929662D01*
X53738066Y130940262D01*
X53688246Y131030743D01*
X53639758Y131128900D01*
X53606664Y131204846D01*
X53568865Y131286833D01*
X53516640Y131382304D01*
X53461101Y131470978D01*
X53459539Y131473266D01*
X53382937Y131599909D01*
X53334707Y131713302D01*
X53317461Y131807275D01*
X53317451Y131808728D01*
X53334331Y131844076D01*
X53386555Y131872172D01*
X53476088Y131893605D01*
X53604892Y131908965D01*
X53666583Y131913461D01*
X53779209Y131922635D01*
X53916665Y131936972D01*
X54062043Y131954556D01*
X54198436Y131973470D01*
X54206227Y131974645D01*
X54342387Y131996738D01*
X54450853Y132018702D01*
X54546067Y132044498D01*
X54642471Y132078087D01*
X54754506Y132123430D01*
X54765299Y132127989D01*
X54921460Y132189259D01*
X55049288Y132229076D01*
X55139142Y132245831D01*
X55208208Y132250854D01*
X55248208Y132246940D01*
X55272183Y132229540D01*
X55293172Y132194103D01*
X55294445Y132191646D01*
X55322278Y132100663D01*
X55326851Y131979234D01*
X55308064Y131825891D01*
X55265817Y131639168D01*
X55253841Y131595167D01*
X55216488Y131462895D01*
X55186808Y131363565D01*
X55161549Y131289224D01*
X55137457Y131231915D01*
X55111279Y131183682D01*
X55079764Y131136571D01*
X55049730Y131095942D01*
X54988434Y131011253D01*
X54951706Y130945244D01*
X54939219Y130886835D01*
X54950646Y130824948D01*
X54985659Y130748503D01*
X55036800Y130658554D01*
X55098072Y130553346D01*
X55164095Y130438666D01*
X55224025Y130333390D01*
X55245241Y130295680D01*
X55297480Y130208218D01*
X55353112Y130124415D01*
X55402071Y130059223D01*
X55412833Y130046759D01*
X55486916Y129964909D01*
X55629557Y130017603D01*
X55698215Y130039069D01*
X55799630Y130065758D01*
X55924833Y130095737D01*
X56064854Y130127072D01*
X56210728Y130157829D01*
X56353484Y130186075D01*
X56484156Y130209876D01*
X56593774Y130227299D01*
X56616344Y130230367D01*
X56696717Y130246671D01*
X56754186Y130276403D01*
X56796786Y130327635D01*
X56832551Y130408436D01*
X56851730Y130466812D01*
X56881078Y130551413D01*
X56922298Y130656577D01*
X56968446Y130764948D01*
X56989839Y130812000D01*
X57125878Y131129028D01*
X57252453Y131473259D01*
X57364705Y131829817D01*
X57457776Y132183823D01*
X57498672Y132370279D01*
X57518600Y132471360D01*
X57534816Y132558696D01*
X57545695Y132623172D01*
X57549614Y132655672D01*
X57549604Y132656160D01*
X57531249Y132679567D01*
X57484368Y132712082D01*
X57424593Y132743933D01*
X57374617Y132770760D01*
X57322839Y132806225D01*
X57263961Y132855019D01*
X57192680Y132921829D01*
X57103698Y133011346D01*
X56999688Y133119847D01*
X56906045Y133217579D01*
X56823655Y133300626D01*
X56745974Y133374576D01*
X56666460Y133445014D01*
X56578571Y133517526D01*
X56475763Y133597699D01*
X56351496Y133691118D01*
X56199225Y133803370D01*
X56198657Y133803787D01*
X55894500Y134026279D01*
X55622208Y134224262D01*
X55380021Y134398950D01*
X55166184Y134551558D01*
X54978938Y134683299D01*
X54816526Y134795389D01*
X54677191Y134889043D01*
X54559176Y134965475D01*
X54460722Y135025899D01*
X54380074Y135071530D01*
X54322923Y135100189D01*
X54229582Y135149381D01*
X54135247Y135208902D01*
X54059737Y135266206D01*
X54057278Y135268373D01*
X53982243Y135326708D01*
X53888645Y135388075D01*
X53798117Y135438469D01*
X53700508Y135488625D01*
X53635460Y135528683D01*
X53596552Y135565058D01*
X53577366Y135604164D01*
X53571480Y135652417D01*
X53571333Y135665071D01*
X53575755Y135717654D01*
X53594413Y135759423D01*
X53635393Y135804684D01*
X53665805Y135832238D01*
X53752541Y135929966D01*
X53826901Y136053707D01*
X53880542Y136187331D01*
X53902931Y136290528D01*
X53916243Y136402930D01*
X53802719Y136517882D01*
X53739179Y136578962D01*
X53691943Y136614086D01*
X53650205Y136629813D01*
X53613254Y136632834D01*
X53526996Y136619904D01*
X53433840Y136579451D01*
X53329883Y136508977D01*
X53211222Y136405986D01*
X53123269Y136319304D01*
X53014598Y136212182D01*
X52924308Y136133801D01*
X52845026Y136079303D01*
X52769381Y136043831D01*
X52689998Y136022527D01*
X52666842Y136018554D01*
X52577268Y136004662D01*
X52493335Y136145941D01*
X52441109Y136224477D01*
X52380606Y136301219D01*
X52319236Y136368232D01*
X52264409Y136417579D01*
X52223533Y136441326D01*
X52216605Y136442334D01*
X52204474Y136423316D01*
X52196843Y136374775D01*
X52195500Y136338362D01*
X52186055Y136208344D01*
X52159841Y136056319D01*
X52120042Y135897616D01*
X52076520Y135765180D01*
X52013755Y135624123D01*
X51926868Y135475672D01*
X51813062Y135315912D01*
X51669539Y135140927D01*
X51493501Y134946804D01*
X51486447Y134939329D01*
X51383959Y134828570D01*
X51279740Y134711896D01*
X51181960Y134598735D01*
X51098790Y134498515D01*
X51046397Y134431500D01*
X50920762Y134267103D01*
X50813423Y134135704D01*
X50720933Y134033979D01*
X50639842Y133958605D01*
X50566702Y133906259D01*
X50498065Y133873616D01*
X50454962Y133861542D01*
X50421350Y133856895D01*
X50391991Y133862442D01*
X50358918Y133883372D01*
X50314166Y133924871D01*
X50249769Y133992128D01*
X50242431Y133999949D01*
X50165882Y134076723D01*
X50084495Y134150526D01*
X50011866Y134209271D01*
X49988431Y134225767D01*
X49913413Y134270918D01*
X49838069Y134309189D01*
X49772254Y134336344D01*
X49725823Y134348146D01*
X49710408Y134345297D01*
X49708963Y134318237D01*
X49720853Y134261725D01*
X49742972Y134185319D01*
X49772212Y134098577D01*
X49805465Y134011056D01*
X49839625Y133932314D01*
X49854376Y133902462D01*
X49931488Y133736714D01*
X50001718Y133547317D01*
X50067638Y133326907D01*
X50102139Y133193250D01*
X50126021Y133091095D01*
X50143707Y132999815D01*
X50156467Y132908482D01*
X50165570Y132806171D01*
X50172286Y132681953D01*
X50177173Y132547667D01*
X50183418Y132387978D01*
X50190899Y132267138D01*
X50199947Y132181673D01*
X50210894Y132128109D01*
X50218899Y132109204D01*
X50235782Y132061249D01*
X50246357Y131990982D01*
X50248166Y131948926D01*
X50254471Y131891683D01*
X50272162Y131800987D01*
X50299399Y131683598D01*
X50334345Y131546279D01*
X50375162Y131395791D01*
X50420012Y131238896D01*
X50467056Y131082356D01*
X50514456Y130932931D01*
X50560375Y130797383D01*
X50563967Y130787236D01*
X50593352Y130697410D01*
X50615858Y130615061D01*
X50627996Y130553541D01*
X50629166Y130537824D01*
X50638823Y130481225D01*
X50663522Y130408619D01*
X50683009Y130365672D01*
X50719060Y130279416D01*
X50749118Y130181778D01*
X50758601Y130138834D01*
X50773550Y130081158D01*
X50802094Y129993017D01*
X50841222Y129882887D01*
X50887919Y129759241D01*
X50939173Y129630554D01*
X50940324Y129627743D01*
X51024265Y129417872D01*
X51100622Y129215476D01*
X51171684Y129013306D01*
X51239739Y128804114D01*
X51307076Y128580649D01*
X51375985Y128335663D01*
X51448753Y128061908D01*
X51508715Y127827500D01*
X51557503Y127633732D01*
X51596834Y127475601D01*
X51627728Y127347731D01*
X51651206Y127244742D01*
X51668288Y127161258D01*
X51679995Y127091900D01*
X51687348Y127031290D01*
X51691367Y126974050D01*
X51693073Y126914802D01*
X51693476Y126853834D01*
X51691564Y126742392D01*
X51684327Y126638765D01*
X51670160Y126534809D01*
X51647460Y126422385D01*
X51614625Y126293349D01*
X51570050Y126139559D01*
X51522586Y125986000D01*
X51487400Y125867149D01*
X51454667Y125744019D01*
X51428239Y125631845D01*
X51412908Y125552084D01*
X51388947Y125434931D01*
X51357389Y125333590D01*
X51321550Y125256749D01*
X51284745Y125213094D01*
X51283139Y125212061D01*
X51247424Y125197695D01*
X51191611Y125182062D01*
X51183672Y125180221D01*
X51119408Y125173947D01*
X51066619Y125193534D01*
X51049983Y125204626D01*
X50970499Y125249940D01*
X50883031Y125282488D01*
X50802963Y125297494D01*
X50759235Y125294926D01*
X50703992Y125276615D01*
X50636857Y125247960D01*
X50620602Y125240064D01*
X50537955Y125198635D01*
X50636349Y125114530D01*
X50710471Y125044442D01*
X50798016Y124950859D01*
X50894102Y124840122D01*
X50993845Y124718571D01*
X51092361Y124592547D01*
X51184767Y124468389D01*
X51266180Y124352437D01*
X51331716Y124251032D01*
X51376492Y124170513D01*
X51391667Y124133917D01*
X51417149Y124064856D01*
X51448447Y124008625D01*
X51493067Y123956482D01*
X51558517Y123899684D01*
X51652305Y123829488D01*
X51654334Y123828022D01*
X51751379Y123752004D01*
X51842922Y123666232D01*
X51938725Y123560950D01*
X52019101Y123463496D01*
X52261690Y123184819D01*
X52530088Y122924238D01*
X52763015Y122727892D01*
X52857329Y122648175D01*
X52953737Y122558942D01*
X53038632Y122473139D01*
X53082029Y122424338D01*
X53203944Y122277702D01*
X53145091Y122158059D01*
X53106935Y122074909D01*
X53071976Y121989497D01*
X53055392Y121943167D01*
X52993257Y121759856D01*
X52938936Y121617775D01*
X52898047Y121527768D01*
X52866322Y121452419D01*
X52842775Y121373782D01*
X52839964Y121360099D01*
X52820460Y121288476D01*
X52789578Y121208024D01*
X52776787Y121180705D01*
X52752494Y121119378D01*
X52725043Y121029966D01*
X52698363Y120926122D01*
X52682345Y120852621D01*
X52646416Y120681881D01*
X52614511Y120548515D01*
X52586990Y120453819D01*
X52564211Y120399090D01*
X52553542Y120386310D01*
X52527407Y120355426D01*
X52494610Y120297159D01*
X52461162Y120224521D01*
X52433070Y120150521D01*
X52416653Y120089915D01*
X52399586Y120020367D01*
X52377633Y119959488D01*
X52374550Y119953056D01*
X52358427Y119907643D01*
X52339411Y119834127D01*
X52320947Y119746261D01*
X52316216Y119720222D01*
X52298166Y119640851D01*
X52266795Y119529271D01*
X52224344Y119392644D01*
X52173053Y119238129D01*
X52115160Y119072889D01*
X52104492Y119043334D01*
X52055650Y118905872D01*
X51996967Y118736222D01*
X51930890Y118541823D01*
X51859865Y118330113D01*
X51786339Y118108532D01*
X51712760Y117884519D01*
X51641575Y117665511D01*
X51575231Y117458949D01*
X51516175Y117272272D01*
X51466854Y117112918D01*
X51439355Y117021349D01*
X51401750Y116893781D01*
X50989000Y116936682D01*
X50576250Y116979584D01*
X50527906Y117159500D01*
X50488444Y117304656D01*
X50456457Y117416546D01*
X50429038Y117502946D01*
X50403279Y117571632D01*
X50376273Y117630378D01*
X50345111Y117686960D01*
X50308132Y117747181D01*
X50260690Y117821128D01*
X50220328Y117881886D01*
X50193326Y117920087D01*
X50187383Y117927250D01*
X50169026Y117919511D01*
X50138386Y117878133D01*
X50099404Y117808578D01*
X50094004Y117797900D01*
X50056250Y117714101D01*
X50025748Y117624983D01*
X50000152Y117521141D01*
X49977117Y117393169D01*
X49955925Y117244167D01*
X49940691Y117127750D01*
X49845720Y117114427D01*
X49804358Y117112586D01*
X49743579Y117116728D01*
X49659395Y117127467D01*
X49547817Y117145416D01*
X49404858Y117171190D01*
X49226530Y117205403D01*
X49126333Y117225175D01*
X48967547Y117256779D01*
X48820778Y117286094D01*
X48691570Y117312003D01*
X48585466Y117333393D01*
X48508011Y117349146D01*
X48464748Y117358148D01*
X48458999Y117359429D01*
X48424303Y117374076D01*
X48362689Y117406108D01*
X48283229Y117450621D01*
X48204999Y117496676D01*
X48021404Y117595686D01*
X47830476Y117673510D01*
X47750500Y117699949D01*
X47634757Y117738121D01*
X47482864Y117791348D01*
X47297786Y117858501D01*
X47082489Y117938450D01*
X46839940Y118030065D01*
X46573105Y118132217D01*
X46284951Y118243776D01*
X45978443Y118363613D01*
X45656548Y118490598D01*
X45322231Y118623601D01*
X45263416Y118647112D01*
X45068292Y118725096D01*
X44880865Y118799863D01*
X44705676Y118869612D01*
X44547265Y118932542D01*
X44410172Y118986851D01*
X44298937Y119030739D01*
X44218101Y119062403D01*
X44173333Y119079621D01*
X44077854Y119118657D01*
X44015404Y119154535D01*
X43977889Y119194143D01*
X43957214Y119244364D01*
X43952055Y119267846D01*
X43947797Y119308847D01*
X43955694Y119346164D01*
X43980585Y119390769D01*
X44027308Y119453635D01*
X44042450Y119472837D01*
X44125225Y119582515D01*
X44209178Y119703242D01*
X44291731Y119830261D01*
X44370303Y119958814D01*
X44442315Y120084145D01*
X44505186Y120201495D01*
X44556336Y120306108D01*
X44593187Y120393226D01*
X44613158Y120458091D01*
X44613669Y120495947D01*
X44601538Y120503834D01*
X44577818Y120490260D01*
X44531503Y120453845D01*
X44470549Y120401051D01*
X44435201Y120368796D01*
X44360271Y120291093D01*
X44270877Y120185570D01*
X44173580Y120061148D01*
X44074944Y119926748D01*
X43981533Y119791292D01*
X43899909Y119663700D01*
X43840853Y119560903D01*
X43793012Y119475646D01*
X43752919Y119420751D01*
X43711269Y119387834D01*
X43658756Y119368508D01*
X43617756Y119359875D01*
X43550720Y119353527D01*
X43494136Y119366906D01*
X43443518Y119392944D01*
X43378996Y119426572D01*
X43293951Y119465976D01*
X43212964Y119500106D01*
X43081845Y119565428D01*
X42986303Y119642176D01*
X42928908Y119727998D01*
X42915553Y119772300D01*
X42910532Y119812417D01*
X42916328Y119846405D01*
X42938035Y119884394D01*
X42980744Y119936514D01*
X43020312Y119980706D01*
X43103896Y120081111D01*
X43199270Y120208960D01*
X43299452Y120353754D01*
X43397461Y120504993D01*
X43486316Y120652176D01*
X43559035Y120784805D01*
X43571654Y120809929D01*
X43603365Y120881977D01*
X43638346Y120973892D01*
X43674164Y121077595D01*
X43708384Y121185009D01*
X43738576Y121288057D01*
X43762305Y121378662D01*
X43777139Y121448746D01*
X43780645Y121490232D01*
X43778538Y121496774D01*
X43759945Y121490640D01*
X43727362Y121465024D01*
X43691775Y121437534D01*
X43629487Y121394368D01*
X43549924Y121341911D01*
X43479471Y121297110D01*
X43370550Y121225251D01*
X43288091Y121160579D01*
X43220036Y121092720D01*
X43167598Y121028828D01*
X43109483Y120957165D01*
X43031869Y120867102D01*
X42945038Y120770326D01*
X42861974Y120681351D01*
X42774475Y120585143D01*
X42685664Y120479528D01*
X42606394Y120377847D01*
X42551360Y120299461D01*
X42481600Y120197155D01*
X42422203Y120126273D01*
X42365241Y120080063D01*
X42302781Y120051771D01*
X42243744Y120037541D01*
X42175996Y120031684D01*
X42122213Y120047636D01*
X42090240Y120067000D01*
X42032189Y120101624D01*
X41956000Y120141435D01*
X41907590Y120164390D01*
X41857130Y120190075D01*
X41777249Y120234296D01*
X41674495Y120293263D01*
X41555414Y120363189D01*
X41426555Y120440281D01*
X41337000Y120494673D01*
X41207564Y120572806D01*
X41085518Y120644653D01*
X40976899Y120706804D01*
X40887740Y120755849D01*
X40824077Y120788376D01*
X40797250Y120799705D01*
X40746485Y120820507D01*
X40669435Y120857746D01*
X40576244Y120906293D01*
X40477055Y120961023D01*
X40469166Y120965515D01*
X40019988Y121201079D01*
X39536362Y121415149D01*
X39020769Y121606926D01*
X38475689Y121775614D01*
X37903604Y121920414D01*
X37306994Y122040529D01*
X36940367Y122100109D01*
X36656411Y122139140D01*
X36360390Y122174097D01*
X36061453Y122204202D01*
X35768749Y122228679D01*
X35491426Y122246750D01*
X35238632Y122257639D01*
X35050065Y122260667D01*
X34951186Y122262213D01*
X34868529Y122266421D01*
X34810852Y122272643D01*
X34787001Y122280078D01*
X34776986Y122311584D01*
X34765960Y122367910D01*
X34762120Y122393493D01*
X34749235Y122487497D01*
X34905159Y122552248D01*
X35021339Y122597130D01*
X35149511Y122639665D01*
X35295861Y122681522D01*
X35466575Y122724371D01*
X35667840Y122769883D01*
X35865416Y122811470D01*
X36010243Y122841632D01*
X36156074Y122872802D01*
X36292178Y122902632D01*
X36407829Y122928770D01*
X36489833Y122948253D01*
X36602464Y122972961D01*
X36724348Y122994557D01*
X36833706Y123009304D01*
X36860250Y123011789D01*
X36971383Y123023499D01*
X37095668Y123040756D01*
X37198916Y123058484D01*
X37324729Y123076983D01*
X37457974Y123083040D01*
X37595843Y123078783D01*
X37792081Y123075755D01*
X37964735Y123091063D01*
X37999042Y123096609D01*
X38102510Y123111873D01*
X38240976Y123128130D01*
X38407133Y123144776D01*
X38593675Y123161206D01*
X38793296Y123176818D01*
X38998689Y123191007D01*
X39202549Y123203170D01*
X39397569Y123212703D01*
X39410833Y123213262D01*
X39554236Y123220214D01*
X39700658Y123229024D01*
X39837810Y123238834D01*
X39953403Y123248791D01*
X40014083Y123255287D01*
X40180266Y123268099D01*
X40372466Y123270872D01*
X40575704Y123264124D01*
X40775000Y123248377D01*
X40955377Y123224151D01*
X40966583Y123222208D01*
X41129271Y123201992D01*
X41322087Y123193916D01*
X41453416Y123194707D01*
X41584375Y123195197D01*
X41740627Y123192372D01*
X41905303Y123186725D01*
X42061533Y123178745D01*
X42109583Y123175599D01*
X42340464Y123159392D01*
X42533168Y123145727D01*
X42691753Y123134270D01*
X42820280Y123124686D01*
X42922805Y123116641D01*
X43003389Y123109799D01*
X43066088Y123103828D01*
X43114963Y123098391D01*
X43154072Y123093154D01*
X43187474Y123087783D01*
X43198262Y123085865D01*
X43280341Y123075137D01*
X43381774Y123067606D01*
X43473429Y123064997D01*
X43582074Y123060440D01*
X43702718Y123048603D01*
X43792333Y123034979D01*
X43869860Y123022297D01*
X43977718Y123007347D01*
X44104074Y122991639D01*
X44237092Y122976681D01*
X44300333Y122970163D01*
X44443583Y122954033D01*
X44596631Y122933690D01*
X44743854Y122911400D01*
X44869626Y122889429D01*
X44903583Y122882672D01*
X45004018Y122862509D01*
X45135078Y122837190D01*
X45285679Y122808803D01*
X45444735Y122779433D01*
X45601163Y122751166D01*
X45623250Y122747233D01*
X45779866Y122719144D01*
X45909957Y122694891D01*
X46022530Y122672324D01*
X46126595Y122649291D01*
X46231159Y122623643D01*
X46345233Y122593230D01*
X46477824Y122555903D01*
X46637941Y122509510D01*
X46720440Y122485377D01*
X47057882Y122394014D01*
X47367129Y122325761D01*
X47645729Y122281116D01*
X47799113Y122265722D01*
X47891176Y122259274D01*
X47965238Y122254798D01*
X48012677Y122252768D01*
X48025666Y122253238D01*
X48011950Y122269221D01*
X47975229Y122308386D01*
X47922147Y122363698D01*
X47893375Y122393335D01*
X47797589Y122481499D01*
X47678371Y122572426D01*
X47531940Y122668531D01*
X47354518Y122772228D01*
X47142325Y122885929D01*
X47041416Y122937505D01*
X46780058Y123064128D01*
X46550724Y123163805D01*
X46352945Y123236728D01*
X46186250Y123283083D01*
X46173583Y123285787D01*
X46085869Y123307381D01*
X45976992Y123339009D01*
X45865196Y123375232D01*
X45819702Y123391253D01*
X45589343Y123467996D01*
X45375983Y123525348D01*
X45187000Y123561439D01*
X45115301Y123569933D01*
X44967186Y123583584D01*
X44948161Y123673972D01*
X44939209Y123731791D01*
X44939159Y123770470D01*
X44941840Y123777064D01*
X44959545Y123789124D01*
X44988733Y123799518D01*
X45032311Y123808365D01*
X45093188Y123815785D01*
X45174272Y123821896D01*
X45278472Y123826818D01*
X45408696Y123830670D01*
X45567852Y123833571D01*
X45758848Y123835641D01*
X45984593Y123836999D01*
X46247994Y123837764D01*
X46427583Y123837990D01*
X46785621Y123838560D01*
X47103500Y123839737D01*
X47383391Y123841620D01*
X47627465Y123844309D01*
X47837894Y123847903D01*
X48016849Y123852500D01*
X48166500Y123858199D01*
X48289020Y123865099D01*
X48386579Y123873298D01*
X48461349Y123882897D01*
X48515500Y123893994D01*
X48551205Y123906687D01*
X48570633Y123921075D01*
X48576000Y123935835D01*
X48556773Y123960703D01*
X48503571Y123994465D01*
X48423110Y124034342D01*
X48322106Y124077553D01*
X48207276Y124121319D01*
X48085335Y124162860D01*
X47963001Y124199396D01*
X47898666Y124216182D01*
X47784642Y124243216D01*
X47677328Y124266105D01*
X47571794Y124285242D01*
X47463106Y124301020D01*
X47346333Y124313832D01*
X47216543Y124324070D01*
X47068803Y124332129D01*
X46898181Y124338401D01*
X46699746Y124343278D01*
X46468565Y124347154D01*
X46215916Y124350247D01*
X45822377Y124352815D01*
X45466636Y124351374D01*
X45144323Y124345652D01*
X44851067Y124335377D01*
X44582498Y124320276D01*
X44334247Y124300077D01*
X44101943Y124274508D01*
X43881216Y124243296D01*
X43667696Y124206169D01*
X43559500Y124184732D01*
X43416132Y124155817D01*
X43254441Y124124218D01*
X43094524Y124093812D01*
X42959906Y124069087D01*
X42817286Y124042348D01*
X42707897Y124018219D01*
X42622998Y123993770D01*
X42553850Y123966068D01*
X42491716Y123932183D01*
X42431592Y123891856D01*
X42342416Y123828205D01*
X41699272Y123825825D01*
X41056129Y123823445D01*
X40952251Y124010431D01*
X40902501Y124094622D01*
X40853794Y124167892D01*
X40813270Y124219898D01*
X40796353Y124236224D01*
X40763792Y124268368D01*
X40748313Y124311076D01*
X40744334Y124379910D01*
X40744333Y124381255D01*
X40740658Y124428584D01*
X40728454Y124488022D01*
X40705952Y124565195D01*
X40671384Y124665728D01*
X40622981Y124795247D01*
X40576867Y124913948D01*
X40512408Y125079076D01*
X40462219Y125210577D01*
X40424563Y125314014D01*
X40397703Y125394950D01*
X40379900Y125458948D01*
X40369419Y125511570D01*
X40364521Y125558381D01*
X40363451Y125597341D01*
X40372358Y125681576D01*
X40397830Y125796496D01*
X40437728Y125934811D01*
X40489910Y126089229D01*
X40552236Y126252459D01*
X40564922Y126283561D01*
X40608796Y126397081D01*
X40650919Y126518324D01*
X40685423Y126629809D01*
X40701011Y126688878D01*
X40728571Y126790580D01*
X40770571Y126925422D01*
X40824837Y127087604D01*
X40889198Y127271327D01*
X40961482Y127470792D01*
X41039517Y127680200D01*
X41121131Y127893752D01*
X41204151Y128105649D01*
X41286406Y128310092D01*
X41365724Y128501281D01*
X41439932Y128673419D01*
X41467330Y128734828D01*
X41532246Y128885344D01*
X41586368Y129024227D01*
X41626405Y129142563D01*
X41647175Y129221661D01*
X41669318Y129310632D01*
X41702768Y129422150D01*
X41742372Y129539758D01*
X41770680Y129616084D01*
X41805820Y129709146D01*
X41850676Y129831870D01*
X41901502Y129973783D01*
X41954551Y130124413D01*
X42006076Y130273284D01*
X42012965Y130293417D01*
X42061648Y130432013D01*
X42122691Y130599638D01*
X42192285Y130786197D01*
X42266623Y130981594D01*
X42341898Y131175733D01*
X42414303Y131358520D01*
X42419556Y131371600D01*
X42560664Y131724529D01*
X42699184Y132074746D01*
X42833963Y132419165D01*
X42963850Y132754698D01*
X43087689Y133078258D01*
X43204329Y133386758D01*
X43312616Y133677111D01*
X43411398Y133946230D01*
X43499521Y134191027D01*
X43575832Y134408416D01*
X43639177Y134595310D01*
X43688405Y134748620D01*
X43716635Y134844250D01*
X43753889Y134976671D01*
X43791926Y135109117D01*
X43827446Y135230285D01*
X43857149Y135328871D01*
X43871107Y135373417D01*
X43898310Y135452691D01*
X43937005Y135557994D01*
X43984996Y135683955D01*
X44040088Y135825203D01*
X44100086Y135976367D01*
X44162795Y136132077D01*
X44226019Y136286961D01*
X44287562Y136435649D01*
X44345231Y136572770D01*
X44396829Y136692954D01*
X44440162Y136790828D01*
X44473033Y136861023D01*
X44493247Y136898168D01*
X44495546Y136901123D01*
X44515085Y136933346D01*
X44547526Y136999242D01*
X44590448Y137093020D01*
X44641433Y137208890D01*
X44698060Y137341060D01*
X44757910Y137483740D01*
X44818563Y137631139D01*
X44877600Y137777467D01*
X44932601Y137916932D01*
X44981146Y138043745D01*
X45020815Y138152114D01*
X45033514Y138188584D01*
X45073588Y138304282D01*
X45105444Y138387385D01*
X45134323Y138445432D01*
X45165467Y138485964D01*
X45204119Y138516522D01*
X45255521Y138544646D01*
X45293901Y138563128D01*
X45363001Y138599709D01*
X45455809Y138654101D01*
X45561463Y138719688D01*
X45669099Y138789851D01*
X45697333Y138808885D01*
X45815384Y138885429D01*
X45946360Y138964384D01*
X46075057Y139036912D01*
X46186273Y139094172D01*
X46195693Y139098645D01*
X46429470Y139208595D01*
X46650776Y139192703D01*
G37*
X46650776Y139192703D02*
X46792610Y139180610D01*
X46923370Y139164692D01*
X47056362Y139142795D01*
X47204890Y139112760D01*
X47358916Y139077907D01*
X47481177Y139052117D01*
X47619524Y139027198D01*
X47749143Y139007521D01*
X47782250Y139003338D01*
X47873296Y138991718D01*
X47948500Y138980568D01*
X47997963Y138971442D01*
X48011626Y138967328D01*
X48038782Y138961524D01*
X48098870Y138954146D01*
X48182564Y138946205D01*
X48265626Y138939747D01*
X48376762Y138930070D01*
X48508055Y138915730D01*
X48650002Y138898067D01*
X48793102Y138878417D01*
X48927849Y138858121D01*
X49044742Y138838515D01*
X49134278Y138820940D01*
X49168666Y138812555D01*
X49227202Y138802315D01*
X49310366Y138794931D01*
X49400475Y138791957D01*
X49403205Y138791952D01*
X49495031Y138787776D01*
X49610187Y138776653D01*
X49730613Y138760526D01*
X49794789Y138749822D01*
X49905418Y138731949D01*
X50016442Y138717787D01*
X50111937Y138709199D01*
X50156824Y138707489D01*
X50248292Y138702488D01*
X50355477Y138689792D01*
X50442102Y138674694D01*
X50554596Y138653899D01*
X50702249Y138631050D01*
X50877988Y138607042D01*
X51074741Y138582773D01*
X51285436Y138559137D01*
X51503001Y138537030D01*
X51602833Y138527676D01*
X51871739Y138501743D01*
X52125227Y138474468D01*
X52357785Y138446548D01*
X52563904Y138418678D01*
X52738071Y138391554D01*
X52859940Y138368976D01*
X52971587Y138349550D01*
X53089600Y138334728D01*
X53193972Y138326851D01*
X53225305Y138326167D01*
X53332992Y138321320D01*
X53451559Y138308751D01*
X53535184Y138294982D01*
X53627209Y138277298D01*
X53741401Y138256962D01*
X53858039Y138237443D01*
X53899416Y138230883D01*
X53993979Y138213257D01*
X54116412Y138186157D01*
X54254135Y138152593D01*
X54394569Y138115578D01*
X54470916Y138094114D01*
X54705508Y138029184D01*
X54904160Y137980345D01*
X55069829Y137946986D01*
X55205474Y137928497D01*
X55294709Y137924000D01*
X55364309Y137919110D01*
X55419497Y137906640D01*
X55437505Y137897542D01*
X55459142Y137870339D01*
X55496594Y137813326D01*
X55545311Y137733810D01*
X55600746Y137639094D01*
X55625288Y137595917D01*
X55783592Y137317816D01*
X55929784Y137066886D01*
X56062895Y136844654D01*
X56181957Y136652649D01*
X56286001Y136492401D01*
X56374058Y136365438D01*
X56445162Y136273289D01*
X56498342Y136217482D01*
X56498629Y136217240D01*
X56536926Y136176868D01*
X56590855Y136109245D01*
X56653804Y136023140D01*
X56719165Y135927321D01*
X56732005Y135907670D01*
X56810491Y135793092D01*
X56893838Y135682366D01*
X56972827Y135587299D01*
X57026234Y135530886D01*
X57112444Y135447683D01*
X57176815Y135384394D01*
X57228071Y135331640D01*
X57274935Y135280043D01*
X57326129Y135220222D01*
X57390376Y135142798D01*
X57415368Y135112469D01*
X57497342Y135018095D01*
X57588895Y134920846D01*
X57676896Y134834324D01*
X57728368Y134788252D01*
X57790433Y134733250D01*
X57874533Y134654880D01*
X57973290Y134560225D01*
X58079324Y134456363D01*
X58185259Y134350377D01*
X58196250Y134339237D01*
X58449535Y134094748D01*
X58707313Y133872572D01*
X58863000Y133749866D01*
X58997970Y133644256D01*
X59148562Y133522495D01*
X59301314Y133395715D01*
X59442762Y133275047D01*
X59527574Y133200413D01*
X59631271Y133108148D01*
X59730901Y133020558D01*
X59819679Y132943529D01*
X59890819Y132882949D01*
X59937535Y132844704D01*
X59938441Y132844000D01*
X60029279Y132765184D01*
X60087268Y132692373D01*
X60119061Y132616355D01*
X60125656Y132584719D01*
X60129806Y132548039D01*
X60125173Y132517221D01*
X60106723Y132484186D01*
X60069425Y132440854D01*
X60008246Y132379146D01*
X59980946Y132352382D01*
X59934503Y132306235D01*
X59890643Y132260558D01*
X59847218Y132212349D01*
X59802080Y132158605D01*
X59753082Y132096322D01*
X59698075Y132022498D01*
X59634911Y131934130D01*
X59561444Y131828214D01*
X59475524Y131701747D01*
X59375005Y131551727D01*
X59257739Y131375150D01*
X59121577Y131169013D01*
X58970088Y130939000D01*
X58772775Y130640376D01*
X58589169Y130364963D01*
X58420262Y130114184D01*
X58267049Y129889462D01*
X58130521Y129692220D01*
X58011670Y129523880D01*
X57911491Y129385866D01*
X57830974Y129279599D01*
X57771114Y129206503D01*
X57736318Y129170752D01*
X57696984Y129142699D01*
X57653721Y129126862D01*
X57592942Y129119961D01*
X57520656Y129118667D01*
X57416157Y129114529D01*
X57321207Y129099953D01*
X57225714Y129071693D01*
X57119584Y129026507D01*
X56992724Y128961149D01*
X56939943Y128932005D01*
X56822141Y128870997D01*
X56683915Y128806803D01*
X56545369Y128748461D01*
X56460583Y128716514D01*
X56357408Y128679966D01*
X56276522Y128650212D01*
X56208535Y128622927D01*
X56144056Y128593788D01*
X56073696Y128558470D01*
X55988065Y128512650D01*
X55877770Y128452004D01*
X55836166Y128428999D01*
X55663723Y128336916D01*
X55518831Y128267264D01*
X55394979Y128217336D01*
X55285653Y128184425D01*
X55212316Y128169754D01*
X55092743Y128151003D01*
X55000758Y128334156D01*
X54963956Y128411262D01*
X54915603Y128518208D01*
X54859842Y128645519D01*
X54800817Y128783719D01*
X54742671Y128923332D01*
X54735964Y128939696D01*
X54667338Y129101545D01*
X54586002Y129284039D01*
X54499325Y129471196D01*
X54414678Y129647032D01*
X54355729Y129764250D01*
X54238822Y129990851D01*
X54139504Y130183185D01*
X54056000Y130344631D01*
X53986535Y130478567D01*
X53929334Y130588372D01*
X53882623Y130677425D01*
X53844628Y130749105D01*
X53813574Y130806790D01*
X53787687Y130853858D01*
X53765191Y130893690D01*
X53744313Y130929662D01*
X53738066Y130940262D01*
X53688246Y131030743D01*
X53639758Y131128900D01*
X53606664Y131204846D01*
X53568865Y131286833D01*
X53516640Y131382304D01*
X53461101Y131470978D01*
X53459539Y131473266D01*
X53382937Y131599909D01*
X53334707Y131713302D01*
X53317461Y131807275D01*
X53317451Y131808728D01*
X53334331Y131844076D01*
X53386555Y131872172D01*
X53476088Y131893605D01*
X53604892Y131908965D01*
X53666583Y131913461D01*
X53779209Y131922635D01*
X53916665Y131936972D01*
X54062043Y131954556D01*
X54198436Y131973470D01*
X54206227Y131974645D01*
X54342387Y131996738D01*
X54450853Y132018702D01*
X54546067Y132044498D01*
X54642471Y132078087D01*
X54754506Y132123430D01*
X54765299Y132127989D01*
X54921460Y132189259D01*
X55049288Y132229076D01*
X55139142Y132245831D01*
X55208208Y132250854D01*
X55248208Y132246940D01*
X55272183Y132229540D01*
X55293172Y132194103D01*
X55294445Y132191646D01*
X55322278Y132100663D01*
X55326851Y131979234D01*
X55308064Y131825891D01*
X55265817Y131639168D01*
X55253841Y131595167D01*
X55216488Y131462895D01*
X55186808Y131363565D01*
X55161549Y131289224D01*
X55137457Y131231915D01*
X55111279Y131183682D01*
X55079764Y131136571D01*
X55049730Y131095942D01*
X54988434Y131011253D01*
X54951706Y130945244D01*
X54939219Y130886835D01*
X54950646Y130824948D01*
X54985659Y130748503D01*
X55036800Y130658554D01*
X55098072Y130553346D01*
X55164095Y130438666D01*
X55224025Y130333390D01*
X55245241Y130295680D01*
X55297480Y130208218D01*
X55353112Y130124415D01*
X55402071Y130059223D01*
X55412833Y130046759D01*
X55486916Y129964909D01*
X55629557Y130017603D01*
X55698215Y130039069D01*
X55799630Y130065758D01*
X55924833Y130095737D01*
X56064854Y130127072D01*
X56210728Y130157829D01*
X56353484Y130186075D01*
X56484156Y130209876D01*
X56593774Y130227299D01*
X56616344Y130230367D01*
X56696717Y130246671D01*
X56754186Y130276403D01*
X56796786Y130327635D01*
X56832551Y130408436D01*
X56851730Y130466812D01*
X56881078Y130551413D01*
X56922298Y130656577D01*
X56968446Y130764948D01*
X56989839Y130812000D01*
X57125878Y131129028D01*
X57252453Y131473259D01*
X57364705Y131829817D01*
X57457776Y132183823D01*
X57498672Y132370279D01*
X57518600Y132471360D01*
X57534816Y132558696D01*
X57545695Y132623172D01*
X57549614Y132655672D01*
X57549604Y132656160D01*
X57531249Y132679567D01*
X57484368Y132712082D01*
X57424593Y132743933D01*
X57374617Y132770760D01*
X57322839Y132806225D01*
X57263961Y132855019D01*
X57192680Y132921829D01*
X57103698Y133011346D01*
X56999688Y133119847D01*
X56906045Y133217579D01*
X56823655Y133300626D01*
X56745974Y133374576D01*
X56666460Y133445014D01*
X56578571Y133517526D01*
X56475763Y133597699D01*
X56351496Y133691118D01*
X56199225Y133803370D01*
X56198657Y133803787D01*
X55894500Y134026279D01*
X55622208Y134224262D01*
X55380021Y134398950D01*
X55166184Y134551558D01*
X54978938Y134683299D01*
X54816526Y134795389D01*
X54677191Y134889043D01*
X54559176Y134965475D01*
X54460722Y135025899D01*
X54380074Y135071530D01*
X54322923Y135100189D01*
X54229582Y135149381D01*
X54135247Y135208902D01*
X54059737Y135266206D01*
X54057278Y135268373D01*
X53982243Y135326708D01*
X53888645Y135388075D01*
X53798117Y135438469D01*
X53700508Y135488625D01*
X53635460Y135528683D01*
X53596552Y135565058D01*
X53577366Y135604164D01*
X53571480Y135652417D01*
X53571333Y135665071D01*
X53575755Y135717654D01*
X53594413Y135759423D01*
X53635393Y135804684D01*
X53665805Y135832238D01*
X53752541Y135929966D01*
X53826901Y136053707D01*
X53880542Y136187331D01*
X53902931Y136290528D01*
X53916243Y136402930D01*
X53802719Y136517882D01*
X53739179Y136578962D01*
X53691943Y136614086D01*
X53650205Y136629813D01*
X53613254Y136632834D01*
X53526996Y136619904D01*
X53433840Y136579451D01*
X53329883Y136508977D01*
X53211222Y136405986D01*
X53123269Y136319304D01*
X53014598Y136212182D01*
X52924308Y136133801D01*
X52845026Y136079303D01*
X52769381Y136043831D01*
X52689998Y136022527D01*
X52666842Y136018554D01*
X52577268Y136004662D01*
X52493335Y136145941D01*
X52441109Y136224477D01*
X52380606Y136301219D01*
X52319236Y136368232D01*
X52264409Y136417579D01*
X52223533Y136441326D01*
X52216605Y136442334D01*
X52204474Y136423316D01*
X52196843Y136374775D01*
X52195500Y136338362D01*
X52186055Y136208344D01*
X52159841Y136056319D01*
X52120042Y135897616D01*
X52076520Y135765180D01*
X52013755Y135624123D01*
X51926868Y135475672D01*
X51813062Y135315912D01*
X51669539Y135140927D01*
X51493501Y134946804D01*
X51486447Y134939329D01*
X51383959Y134828570D01*
X51279740Y134711896D01*
X51181960Y134598735D01*
X51098790Y134498515D01*
X51046397Y134431500D01*
X50920762Y134267103D01*
X50813423Y134135704D01*
X50720933Y134033979D01*
X50639842Y133958605D01*
X50566702Y133906259D01*
X50498065Y133873616D01*
X50454962Y133861542D01*
X50421350Y133856895D01*
X50391991Y133862442D01*
X50358918Y133883372D01*
X50314166Y133924871D01*
X50249769Y133992128D01*
X50242431Y133999949D01*
X50165882Y134076723D01*
X50084495Y134150526D01*
X50011866Y134209271D01*
X49988431Y134225767D01*
X49913413Y134270918D01*
X49838069Y134309189D01*
X49772254Y134336344D01*
X49725823Y134348146D01*
X49710408Y134345297D01*
X49708963Y134318237D01*
X49720853Y134261725D01*
X49742972Y134185319D01*
X49772212Y134098577D01*
X49805465Y134011056D01*
X49839625Y133932314D01*
X49854376Y133902462D01*
X49931488Y133736714D01*
X50001718Y133547317D01*
X50067638Y133326907D01*
X50102139Y133193250D01*
X50126021Y133091095D01*
X50143707Y132999815D01*
X50156467Y132908482D01*
X50165570Y132806171D01*
X50172286Y132681953D01*
X50177173Y132547667D01*
X50183418Y132387978D01*
X50190899Y132267138D01*
X50199947Y132181673D01*
X50210894Y132128109D01*
X50218899Y132109204D01*
X50235782Y132061249D01*
X50246357Y131990982D01*
X50248166Y131948926D01*
X50254471Y131891683D01*
X50272162Y131800987D01*
X50299399Y131683598D01*
X50334345Y131546279D01*
X50375162Y131395791D01*
X50420012Y131238896D01*
X50467056Y131082356D01*
X50514456Y130932931D01*
X50560375Y130797383D01*
X50563967Y130787236D01*
X50593352Y130697410D01*
X50615858Y130615061D01*
X50627996Y130553541D01*
X50629166Y130537824D01*
X50638823Y130481225D01*
X50663522Y130408619D01*
X50683009Y130365672D01*
X50719060Y130279416D01*
X50749118Y130181778D01*
X50758601Y130138834D01*
X50773550Y130081158D01*
X50802094Y129993017D01*
X50841222Y129882887D01*
X50887919Y129759241D01*
X50939173Y129630554D01*
X50940324Y129627743D01*
X51024265Y129417872D01*
X51100622Y129215476D01*
X51171684Y129013306D01*
X51239739Y128804114D01*
X51307076Y128580649D01*
X51375985Y128335663D01*
X51448753Y128061908D01*
X51508715Y127827500D01*
X51557503Y127633732D01*
X51596834Y127475601D01*
X51627728Y127347731D01*
X51651206Y127244742D01*
X51668288Y127161258D01*
X51679995Y127091900D01*
X51687348Y127031290D01*
X51691367Y126974050D01*
X51693073Y126914802D01*
X51693476Y126853834D01*
X51691564Y126742392D01*
X51684327Y126638765D01*
X51670160Y126534809D01*
X51647460Y126422385D01*
X51614625Y126293349D01*
X51570050Y126139559D01*
X51522586Y125986000D01*
X51487400Y125867149D01*
X51454667Y125744019D01*
X51428239Y125631845D01*
X51412908Y125552084D01*
X51388947Y125434931D01*
X51357389Y125333590D01*
X51321550Y125256749D01*
X51284745Y125213094D01*
X51283139Y125212061D01*
X51247424Y125197695D01*
X51191611Y125182062D01*
X51183672Y125180221D01*
X51119408Y125173947D01*
X51066619Y125193534D01*
X51049983Y125204626D01*
X50970499Y125249940D01*
X50883031Y125282488D01*
X50802963Y125297494D01*
X50759235Y125294926D01*
X50703992Y125276615D01*
X50636857Y125247960D01*
X50620602Y125240064D01*
X50537955Y125198635D01*
X50636349Y125114530D01*
X50710471Y125044442D01*
X50798016Y124950859D01*
X50894102Y124840122D01*
X50993845Y124718571D01*
X51092361Y124592547D01*
X51184767Y124468389D01*
X51266180Y124352437D01*
X51331716Y124251032D01*
X51376492Y124170513D01*
X51391667Y124133917D01*
X51417149Y124064856D01*
X51448447Y124008625D01*
X51493067Y123956482D01*
X51558517Y123899684D01*
X51652305Y123829488D01*
X51654334Y123828022D01*
X51751379Y123752004D01*
X51842922Y123666232D01*
X51938725Y123560950D01*
X52019101Y123463496D01*
X52261690Y123184819D01*
X52530088Y122924238D01*
X52763015Y122727892D01*
X52857329Y122648175D01*
X52953737Y122558942D01*
X53038632Y122473139D01*
X53082029Y122424338D01*
X53203944Y122277702D01*
X53145091Y122158059D01*
X53106935Y122074909D01*
X53071976Y121989497D01*
X53055392Y121943167D01*
X52993257Y121759856D01*
X52938936Y121617775D01*
X52898047Y121527768D01*
X52866322Y121452419D01*
X52842775Y121373782D01*
X52839964Y121360099D01*
X52820460Y121288476D01*
X52789578Y121208024D01*
X52776787Y121180705D01*
X52752494Y121119378D01*
X52725043Y121029966D01*
X52698363Y120926122D01*
X52682345Y120852621D01*
X52646416Y120681881D01*
X52614511Y120548515D01*
X52586990Y120453819D01*
X52564211Y120399090D01*
X52553542Y120386310D01*
X52527407Y120355426D01*
X52494610Y120297159D01*
X52461162Y120224521D01*
X52433070Y120150521D01*
X52416653Y120089915D01*
X52399586Y120020367D01*
X52377633Y119959488D01*
X52374550Y119953056D01*
X52358427Y119907643D01*
X52339411Y119834127D01*
X52320947Y119746261D01*
X52316216Y119720222D01*
X52298166Y119640851D01*
X52266795Y119529271D01*
X52224344Y119392644D01*
X52173053Y119238129D01*
X52115160Y119072889D01*
X52104492Y119043334D01*
X52055650Y118905872D01*
X51996967Y118736222D01*
X51930890Y118541823D01*
X51859865Y118330113D01*
X51786339Y118108532D01*
X51712760Y117884519D01*
X51641575Y117665511D01*
X51575231Y117458949D01*
X51516175Y117272272D01*
X51466854Y117112918D01*
X51439355Y117021349D01*
X51401750Y116893781D01*
X50989000Y116936682D01*
X50576250Y116979584D01*
X50527906Y117159500D01*
X50488444Y117304656D01*
X50456457Y117416546D01*
X50429038Y117502946D01*
X50403279Y117571632D01*
X50376273Y117630378D01*
X50345111Y117686960D01*
X50308132Y117747181D01*
X50260690Y117821128D01*
X50220328Y117881886D01*
X50193326Y117920087D01*
X50187383Y117927250D01*
X50169026Y117919511D01*
X50138386Y117878133D01*
X50099404Y117808578D01*
X50094004Y117797900D01*
X50056250Y117714101D01*
X50025748Y117624983D01*
X50000152Y117521141D01*
X49977117Y117393169D01*
X49955925Y117244167D01*
X49940691Y117127750D01*
X49845720Y117114427D01*
X49804358Y117112586D01*
X49743579Y117116728D01*
X49659395Y117127467D01*
X49547817Y117145416D01*
X49404858Y117171190D01*
X49226530Y117205403D01*
X49126333Y117225175D01*
X48967547Y117256779D01*
X48820778Y117286094D01*
X48691570Y117312003D01*
X48585466Y117333393D01*
X48508011Y117349146D01*
X48464748Y117358148D01*
X48458999Y117359429D01*
X48424303Y117374076D01*
X48362689Y117406108D01*
X48283229Y117450621D01*
X48204999Y117496676D01*
X48021404Y117595686D01*
X47830476Y117673510D01*
X47750500Y117699949D01*
X47634757Y117738121D01*
X47482864Y117791348D01*
X47297786Y117858501D01*
X47082489Y117938450D01*
X46839940Y118030065D01*
X46573105Y118132217D01*
X46284951Y118243776D01*
X45978443Y118363613D01*
X45656548Y118490598D01*
X45322231Y118623601D01*
X45263416Y118647112D01*
X45068292Y118725096D01*
X44880865Y118799863D01*
X44705676Y118869612D01*
X44547265Y118932542D01*
X44410172Y118986851D01*
X44298937Y119030739D01*
X44218101Y119062403D01*
X44173333Y119079621D01*
X44077854Y119118657D01*
X44015404Y119154535D01*
X43977889Y119194143D01*
X43957214Y119244364D01*
X43952055Y119267846D01*
X43947797Y119308847D01*
X43955694Y119346164D01*
X43980585Y119390769D01*
X44027308Y119453635D01*
X44042450Y119472837D01*
X44125225Y119582515D01*
X44209178Y119703242D01*
X44291731Y119830261D01*
X44370303Y119958814D01*
X44442315Y120084145D01*
X44505186Y120201495D01*
X44556336Y120306108D01*
X44593187Y120393226D01*
X44613158Y120458091D01*
X44613669Y120495947D01*
X44601538Y120503834D01*
X44577818Y120490260D01*
X44531503Y120453845D01*
X44470549Y120401051D01*
X44435201Y120368796D01*
X44360271Y120291093D01*
X44270877Y120185570D01*
X44173580Y120061148D01*
X44074944Y119926748D01*
X43981533Y119791292D01*
X43899909Y119663700D01*
X43840853Y119560903D01*
X43793012Y119475646D01*
X43752919Y119420751D01*
X43711269Y119387834D01*
X43658756Y119368508D01*
X43617756Y119359875D01*
X43550720Y119353527D01*
X43494136Y119366906D01*
X43443518Y119392944D01*
X43378996Y119426572D01*
X43293951Y119465976D01*
X43212964Y119500106D01*
X43081845Y119565428D01*
X42986303Y119642176D01*
X42928908Y119727998D01*
X42915553Y119772300D01*
X42910532Y119812417D01*
X42916328Y119846405D01*
X42938035Y119884394D01*
X42980744Y119936514D01*
X43020312Y119980706D01*
X43103896Y120081111D01*
X43199270Y120208960D01*
X43299452Y120353754D01*
X43397461Y120504993D01*
X43486316Y120652176D01*
X43559035Y120784805D01*
X43571654Y120809929D01*
X43603365Y120881977D01*
X43638346Y120973892D01*
X43674164Y121077595D01*
X43708384Y121185009D01*
X43738576Y121288057D01*
X43762305Y121378662D01*
X43777139Y121448746D01*
X43780645Y121490232D01*
X43778538Y121496774D01*
X43759945Y121490640D01*
X43727362Y121465024D01*
X43691775Y121437534D01*
X43629487Y121394368D01*
X43549924Y121341911D01*
X43479471Y121297110D01*
X43370550Y121225251D01*
X43288091Y121160579D01*
X43220036Y121092720D01*
X43167598Y121028828D01*
X43109483Y120957165D01*
X43031869Y120867102D01*
X42945038Y120770326D01*
X42861974Y120681351D01*
X42774475Y120585143D01*
X42685664Y120479528D01*
X42606394Y120377847D01*
X42551360Y120299461D01*
X42481600Y120197155D01*
X42422203Y120126273D01*
X42365241Y120080063D01*
X42302781Y120051771D01*
X42243744Y120037541D01*
X42175996Y120031684D01*
X42122213Y120047636D01*
X42090240Y120067000D01*
X42032189Y120101624D01*
X41956000Y120141435D01*
X41907590Y120164390D01*
X41857130Y120190075D01*
X41777249Y120234296D01*
X41674495Y120293263D01*
X41555414Y120363189D01*
X41426555Y120440281D01*
X41337000Y120494673D01*
X41207564Y120572806D01*
X41085518Y120644653D01*
X40976899Y120706804D01*
X40887740Y120755849D01*
X40824077Y120788376D01*
X40797250Y120799705D01*
X40746485Y120820507D01*
X40669435Y120857746D01*
X40576244Y120906293D01*
X40477055Y120961023D01*
X40469166Y120965515D01*
X40019988Y121201079D01*
X39536362Y121415149D01*
X39020769Y121606926D01*
X38475689Y121775614D01*
X37903604Y121920414D01*
X37306994Y122040529D01*
X36940367Y122100109D01*
X36656411Y122139140D01*
X36360390Y122174097D01*
X36061453Y122204202D01*
X35768749Y122228679D01*
X35491426Y122246750D01*
X35238632Y122257639D01*
X35050065Y122260667D01*
X34951186Y122262213D01*
X34868529Y122266421D01*
X34810852Y122272643D01*
X34787001Y122280078D01*
X34776986Y122311584D01*
X34765960Y122367910D01*
X34762120Y122393493D01*
X34749235Y122487497D01*
X34905159Y122552248D01*
X35021339Y122597130D01*
X35149511Y122639665D01*
X35295861Y122681522D01*
X35466575Y122724371D01*
X35667840Y122769883D01*
X35865416Y122811470D01*
X36010243Y122841632D01*
X36156074Y122872802D01*
X36292178Y122902632D01*
X36407829Y122928770D01*
X36489833Y122948253D01*
X36602464Y122972961D01*
X36724348Y122994557D01*
X36833706Y123009304D01*
X36860250Y123011789D01*
X36971383Y123023499D01*
X37095668Y123040756D01*
X37198916Y123058484D01*
X37324729Y123076983D01*
X37457974Y123083040D01*
X37595843Y123078783D01*
X37792081Y123075755D01*
X37964735Y123091063D01*
X37999042Y123096609D01*
X38102510Y123111873D01*
X38240976Y123128130D01*
X38407133Y123144776D01*
X38593675Y123161206D01*
X38793296Y123176818D01*
X38998689Y123191007D01*
X39202549Y123203170D01*
X39397569Y123212703D01*
X39410833Y123213262D01*
X39554236Y123220214D01*
X39700658Y123229024D01*
X39837810Y123238834D01*
X39953403Y123248791D01*
X40014083Y123255287D01*
X40180266Y123268099D01*
X40372466Y123270872D01*
X40575704Y123264124D01*
X40775000Y123248377D01*
X40955377Y123224151D01*
X40966583Y123222208D01*
X41129271Y123201992D01*
X41322087Y123193916D01*
X41453416Y123194707D01*
X41584375Y123195197D01*
X41740627Y123192372D01*
X41905303Y123186725D01*
X42061533Y123178745D01*
X42109583Y123175599D01*
X42340464Y123159392D01*
X42533168Y123145727D01*
X42691753Y123134270D01*
X42820280Y123124686D01*
X42922805Y123116641D01*
X43003389Y123109799D01*
X43066088Y123103828D01*
X43114963Y123098391D01*
X43154072Y123093154D01*
X43187474Y123087783D01*
X43198262Y123085865D01*
X43280341Y123075137D01*
X43381774Y123067606D01*
X43473429Y123064997D01*
X43582074Y123060440D01*
X43702718Y123048603D01*
X43792333Y123034979D01*
X43869860Y123022297D01*
X43977718Y123007347D01*
X44104074Y122991639D01*
X44237092Y122976681D01*
X44300333Y122970163D01*
X44443583Y122954033D01*
X44596631Y122933690D01*
X44743854Y122911400D01*
X44869626Y122889429D01*
X44903583Y122882672D01*
X45004018Y122862509D01*
X45135078Y122837190D01*
X45285679Y122808803D01*
X45444735Y122779433D01*
X45601163Y122751166D01*
X45623250Y122747233D01*
X45779866Y122719144D01*
X45909957Y122694891D01*
X46022530Y122672324D01*
X46126595Y122649291D01*
X46231159Y122623643D01*
X46345233Y122593230D01*
X46477824Y122555903D01*
X46637941Y122509510D01*
X46720440Y122485377D01*
X47057882Y122394014D01*
X47367129Y122325761D01*
X47645729Y122281116D01*
X47799113Y122265722D01*
X47891176Y122259274D01*
X47965238Y122254798D01*
X48012677Y122252768D01*
X48025666Y122253238D01*
X48011950Y122269221D01*
X47975229Y122308386D01*
X47922147Y122363698D01*
X47893375Y122393335D01*
X47797589Y122481499D01*
X47678371Y122572426D01*
X47531940Y122668531D01*
X47354518Y122772228D01*
X47142325Y122885929D01*
X47041416Y122937505D01*
X46780058Y123064128D01*
X46550724Y123163805D01*
X46352945Y123236728D01*
X46186250Y123283083D01*
X46173583Y123285787D01*
X46085869Y123307381D01*
X45976992Y123339009D01*
X45865196Y123375232D01*
X45819702Y123391253D01*
X45589343Y123467996D01*
X45375983Y123525348D01*
X45187000Y123561439D01*
X45115301Y123569933D01*
X44967186Y123583584D01*
X44948161Y123673972D01*
X44939209Y123731791D01*
X44939159Y123770470D01*
X44941840Y123777064D01*
X44959545Y123789124D01*
X44988733Y123799518D01*
X45032311Y123808365D01*
X45093188Y123815785D01*
X45174272Y123821896D01*
X45278472Y123826818D01*
X45408696Y123830670D01*
X45567852Y123833571D01*
X45758848Y123835641D01*
X45984593Y123836999D01*
X46247994Y123837764D01*
X46427583Y123837990D01*
X46785621Y123838560D01*
X47103500Y123839737D01*
X47383391Y123841620D01*
X47627465Y123844309D01*
X47837894Y123847903D01*
X48016849Y123852500D01*
X48166500Y123858199D01*
X48289020Y123865099D01*
X48386579Y123873298D01*
X48461349Y123882897D01*
X48515500Y123893994D01*
X48551205Y123906687D01*
X48570633Y123921075D01*
X48576000Y123935835D01*
X48556773Y123960703D01*
X48503571Y123994465D01*
X48423110Y124034342D01*
X48322106Y124077553D01*
X48207276Y124121319D01*
X48085335Y124162860D01*
X47963001Y124199396D01*
X47898666Y124216182D01*
X47784642Y124243216D01*
X47677328Y124266105D01*
X47571794Y124285242D01*
X47463106Y124301020D01*
X47346333Y124313832D01*
X47216543Y124324070D01*
X47068803Y124332129D01*
X46898181Y124338401D01*
X46699746Y124343278D01*
X46468565Y124347154D01*
X46215916Y124350247D01*
X45822377Y124352815D01*
X45466636Y124351374D01*
X45144323Y124345652D01*
X44851067Y124335377D01*
X44582498Y124320276D01*
X44334247Y124300077D01*
X44101943Y124274508D01*
X43881216Y124243296D01*
X43667696Y124206169D01*
X43559500Y124184732D01*
X43416132Y124155817D01*
X43254441Y124124218D01*
X43094524Y124093812D01*
X42959906Y124069087D01*
X42817286Y124042348D01*
X42707897Y124018219D01*
X42622998Y123993770D01*
X42553850Y123966068D01*
X42491716Y123932183D01*
X42431592Y123891856D01*
X42342416Y123828205D01*
X41699272Y123825825D01*
X41056129Y123823445D01*
X40952251Y124010431D01*
X40902501Y124094622D01*
X40853794Y124167892D01*
X40813270Y124219898D01*
X40796353Y124236224D01*
X40763792Y124268368D01*
X40748313Y124311076D01*
X40744334Y124379910D01*
X40744333Y124381255D01*
X40740658Y124428584D01*
X40728454Y124488022D01*
X40705952Y124565195D01*
X40671384Y124665728D01*
X40622981Y124795247D01*
X40576867Y124913948D01*
X40512408Y125079076D01*
X40462219Y125210577D01*
X40424563Y125314014D01*
X40397703Y125394950D01*
X40379900Y125458948D01*
X40369419Y125511570D01*
X40364521Y125558381D01*
X40363451Y125597341D01*
X40372358Y125681576D01*
X40397830Y125796496D01*
X40437728Y125934811D01*
X40489910Y126089229D01*
X40552236Y126252459D01*
X40564922Y126283561D01*
X40608796Y126397081D01*
X40650919Y126518324D01*
X40685423Y126629809D01*
X40701011Y126688878D01*
X40728571Y126790580D01*
X40770571Y126925422D01*
X40824837Y127087604D01*
X40889198Y127271327D01*
X40961482Y127470792D01*
X41039517Y127680200D01*
X41121131Y127893752D01*
X41204151Y128105649D01*
X41286406Y128310092D01*
X41365724Y128501281D01*
X41439932Y128673419D01*
X41467330Y128734828D01*
X41532246Y128885344D01*
X41586368Y129024227D01*
X41626405Y129142563D01*
X41647175Y129221661D01*
X41669318Y129310632D01*
X41702768Y129422150D01*
X41742372Y129539758D01*
X41770680Y129616084D01*
X41805820Y129709146D01*
X41850676Y129831870D01*
X41901502Y129973783D01*
X41954551Y130124413D01*
X42006076Y130273284D01*
X42012965Y130293417D01*
X42061648Y130432013D01*
X42122691Y130599638D01*
X42192285Y130786197D01*
X42266623Y130981594D01*
X42341898Y131175733D01*
X42414303Y131358520D01*
X42419556Y131371600D01*
X42560664Y131724529D01*
X42699184Y132074746D01*
X42833963Y132419165D01*
X42963850Y132754698D01*
X43087689Y133078258D01*
X43204329Y133386758D01*
X43312616Y133677111D01*
X43411398Y133946230D01*
X43499521Y134191027D01*
X43575832Y134408416D01*
X43639177Y134595310D01*
X43688405Y134748620D01*
X43716635Y134844250D01*
X43753889Y134976671D01*
X43791926Y135109117D01*
X43827446Y135230285D01*
X43857149Y135328871D01*
X43871107Y135373417D01*
X43898310Y135452691D01*
X43937005Y135557994D01*
X43984996Y135683955D01*
X44040088Y135825203D01*
X44100086Y135976367D01*
X44162795Y136132077D01*
X44226019Y136286961D01*
X44287562Y136435649D01*
X44345231Y136572770D01*
X44396829Y136692954D01*
X44440162Y136790828D01*
X44473033Y136861023D01*
X44493247Y136898168D01*
X44495546Y136901123D01*
X44515085Y136933346D01*
X44547526Y136999242D01*
X44590448Y137093020D01*
X44641433Y137208890D01*
X44698060Y137341060D01*
X44757910Y137483740D01*
X44818563Y137631139D01*
X44877600Y137777467D01*
X44932601Y137916932D01*
X44981146Y138043745D01*
X45020815Y138152114D01*
X45033514Y138188584D01*
X45073588Y138304282D01*
X45105444Y138387385D01*
X45134323Y138445432D01*
X45165467Y138485964D01*
X45204119Y138516522D01*
X45255521Y138544646D01*
X45293901Y138563128D01*
X45363001Y138599709D01*
X45455809Y138654101D01*
X45561463Y138719688D01*
X45669099Y138789851D01*
X45697333Y138808885D01*
X45815384Y138885429D01*
X45946360Y138964384D01*
X46075057Y139036912D01*
X46186273Y139094172D01*
X46195693Y139098645D01*
X46429470Y139208595D01*
X46650776Y139192703D01*
G36*
X56693416Y122569213D02*
G01*
X57096248Y122532875D01*
X57472083Y122468385D01*
X57819588Y122376138D01*
X58137433Y122256531D01*
X58424285Y122109962D01*
X58587833Y122004421D01*
X58762225Y121867882D01*
X58896940Y121730843D01*
X58994510Y121589597D01*
X59057469Y121440436D01*
X59088350Y121279652D01*
X59089134Y121270813D01*
X59092953Y121189114D01*
X59089414Y121132587D01*
X59080719Y121110825D01*
X59055298Y121103377D01*
X59005438Y121099573D01*
X58925516Y121099263D01*
X58809904Y121102298D01*
X58787712Y121103084D01*
X58721754Y121100887D01*
X58656990Y121086453D01*
X58579367Y121055793D01*
X58517837Y121026500D01*
X58444215Y120987991D01*
X58387924Y120954507D01*
X58357772Y120931455D01*
X58355000Y120926499D01*
X58374405Y120896432D01*
X58427120Y120861430D01*
X58504889Y120824595D01*
X58599459Y120789032D01*
X58702575Y120757842D01*
X58805982Y120734129D01*
X58901427Y120720996D01*
X58901711Y120720974D01*
X59001671Y120709901D01*
X59065891Y120690912D01*
X59100924Y120657881D01*
X59113325Y120604682D01*
X59109782Y120526510D01*
X59096876Y120439143D01*
X59074994Y120333671D01*
X59046979Y120220269D01*
X59015673Y120109115D01*
X58983919Y120010384D01*
X58954560Y119934253D01*
X58933186Y119894332D01*
X58884097Y119849129D01*
X58819603Y119813543D01*
X58810548Y119810253D01*
X58756577Y119795504D01*
X58717912Y119799737D01*
X58673713Y119826811D01*
X58658193Y119838489D01*
X58570582Y119895509D01*
X58458016Y119954355D01*
X58329574Y120011699D01*
X58194336Y120064214D01*
X58061382Y120108573D01*
X57939791Y120141448D01*
X57838645Y120159511D01*
X57778081Y120161015D01*
X57757896Y120156860D01*
X57752466Y120147552D01*
X57765479Y120129831D01*
X57800624Y120100433D01*
X57861590Y120056099D01*
X57952066Y119993565D01*
X58018905Y119948087D01*
X58141100Y119868106D01*
X58263127Y119793451D01*
X58374901Y119729997D01*
X58466334Y119683621D01*
X58492583Y119672133D01*
X58661916Y119602676D01*
X58668363Y119503025D01*
X58666688Y119426645D01*
X58645644Y119367738D01*
X58623569Y119334478D01*
X58590757Y119286339D01*
X58544416Y119213220D01*
X58491941Y119126942D01*
X58461348Y119075084D01*
X58382898Y118945676D01*
X58311252Y118842251D01*
X58237043Y118754422D01*
X58150904Y118671801D01*
X58043469Y118584003D01*
X57964817Y118524462D01*
X57813148Y118414587D01*
X57651110Y118302363D01*
X57483157Y118190447D01*
X57313743Y118081500D01*
X57147321Y117978178D01*
X56988348Y117883140D01*
X56841276Y117799045D01*
X56710560Y117728551D01*
X56600655Y117674315D01*
X56516015Y117638997D01*
X56461094Y117625255D01*
X56457940Y117625167D01*
X56382577Y117607214D01*
X56326860Y117572250D01*
X56271288Y117537108D01*
X56216737Y117519732D01*
X56209603Y117519334D01*
X56159413Y117511614D01*
X56089517Y117491819D01*
X56043325Y117475185D01*
X55922246Y117429275D01*
X55778398Y117377749D01*
X55618618Y117322778D01*
X55449743Y117266537D01*
X55278610Y117211199D01*
X55112056Y117158937D01*
X54956918Y117111925D01*
X54820033Y117072336D01*
X54708238Y117042343D01*
X54628371Y117024119D01*
X54619083Y117022452D01*
X54509798Y117001534D01*
X54378198Y116972704D01*
X54242540Y116940121D01*
X54143986Y116914314D01*
X54044131Y116887184D01*
X53959407Y116864695D01*
X53897956Y116848969D01*
X53867921Y116842129D01*
X53866622Y116842000D01*
X53868344Y116860920D01*
X53881923Y116913301D01*
X53905433Y116992580D01*
X53936951Y117092190D01*
X53964378Y117175375D01*
X54017012Y117333092D01*
X54075131Y117508330D01*
X54137364Y117696862D01*
X54202337Y117894462D01*
X54268678Y118096905D01*
X54335015Y118299964D01*
X54399973Y118499413D01*
X54462181Y118691026D01*
X54520265Y118870577D01*
X54572853Y119033839D01*
X54618572Y119176586D01*
X54656049Y119294593D01*
X54683911Y119383633D01*
X54700786Y119439480D01*
X54705234Y119456084D01*
X54732381Y119564745D01*
X54773597Y119697327D01*
X54824417Y119839691D01*
X54835521Y119868559D01*
X54866388Y119958543D01*
X54898025Y120068134D01*
X54924102Y120175206D01*
X54926396Y120186059D01*
X54971103Y120350967D01*
X55030163Y120488884D01*
X55100828Y120594232D01*
X55151088Y120642147D01*
X55205537Y120692799D01*
X55248583Y120748129D01*
X55254105Y120757877D01*
X55276197Y120830803D01*
X55284757Y120927378D01*
X55279430Y121031020D01*
X55261859Y121118691D01*
X55251199Y121167554D01*
X55251126Y121218895D01*
X55262763Y121285836D01*
X55283025Y121366005D01*
X55304531Y121453244D01*
X55320476Y121532292D01*
X55327953Y121588373D01*
X55328177Y121595359D01*
X55335768Y121650659D01*
X55355173Y121724180D01*
X55370510Y121768769D01*
X55395230Y121851317D01*
X55410475Y121935952D01*
X55412833Y121972483D01*
X55420598Y122054847D01*
X55439760Y122140094D01*
X55444583Y122154834D01*
X55464891Y122235722D01*
X55475760Y122324458D01*
X55476333Y122345027D01*
X55476333Y122445231D01*
X55703875Y122490148D01*
X55991175Y122536763D01*
X56280860Y122564855D01*
X56557592Y122573198D01*
X56693416Y122569213D01*
G37*
X56693416Y122569213D02*
X57096248Y122532875D01*
X57472083Y122468385D01*
X57819588Y122376138D01*
X58137433Y122256531D01*
X58424285Y122109962D01*
X58587833Y122004421D01*
X58762225Y121867882D01*
X58896940Y121730843D01*
X58994510Y121589597D01*
X59057469Y121440436D01*
X59088350Y121279652D01*
X59089134Y121270813D01*
X59092953Y121189114D01*
X59089414Y121132587D01*
X59080719Y121110825D01*
X59055298Y121103377D01*
X59005438Y121099573D01*
X58925516Y121099263D01*
X58809904Y121102298D01*
X58787712Y121103084D01*
X58721754Y121100887D01*
X58656990Y121086453D01*
X58579367Y121055793D01*
X58517837Y121026500D01*
X58444215Y120987991D01*
X58387924Y120954507D01*
X58357772Y120931455D01*
X58355000Y120926499D01*
X58374405Y120896432D01*
X58427120Y120861430D01*
X58504889Y120824595D01*
X58599459Y120789032D01*
X58702575Y120757842D01*
X58805982Y120734129D01*
X58901427Y120720996D01*
X58901711Y120720974D01*
X59001671Y120709901D01*
X59065891Y120690912D01*
X59100924Y120657881D01*
X59113325Y120604682D01*
X59109782Y120526510D01*
X59096876Y120439143D01*
X59074994Y120333671D01*
X59046979Y120220269D01*
X59015673Y120109115D01*
X58983919Y120010384D01*
X58954560Y119934253D01*
X58933186Y119894332D01*
X58884097Y119849129D01*
X58819603Y119813543D01*
X58810548Y119810253D01*
X58756577Y119795504D01*
X58717912Y119799737D01*
X58673713Y119826811D01*
X58658193Y119838489D01*
X58570582Y119895509D01*
X58458016Y119954355D01*
X58329574Y120011699D01*
X58194336Y120064214D01*
X58061382Y120108573D01*
X57939791Y120141448D01*
X57838645Y120159511D01*
X57778081Y120161015D01*
X57757896Y120156860D01*
X57752466Y120147552D01*
X57765479Y120129831D01*
X57800624Y120100433D01*
X57861590Y120056099D01*
X57952066Y119993565D01*
X58018905Y119948087D01*
X58141100Y119868106D01*
X58263127Y119793451D01*
X58374901Y119729997D01*
X58466334Y119683621D01*
X58492583Y119672133D01*
X58661916Y119602676D01*
X58668363Y119503025D01*
X58666688Y119426645D01*
X58645644Y119367738D01*
X58623569Y119334478D01*
X58590757Y119286339D01*
X58544416Y119213220D01*
X58491941Y119126942D01*
X58461348Y119075084D01*
X58382898Y118945676D01*
X58311252Y118842251D01*
X58237043Y118754422D01*
X58150904Y118671801D01*
X58043469Y118584003D01*
X57964817Y118524462D01*
X57813148Y118414587D01*
X57651110Y118302363D01*
X57483157Y118190447D01*
X57313743Y118081500D01*
X57147321Y117978178D01*
X56988348Y117883140D01*
X56841276Y117799045D01*
X56710560Y117728551D01*
X56600655Y117674315D01*
X56516015Y117638997D01*
X56461094Y117625255D01*
X56457940Y117625167D01*
X56382577Y117607214D01*
X56326860Y117572250D01*
X56271288Y117537108D01*
X56216737Y117519732D01*
X56209603Y117519334D01*
X56159413Y117511614D01*
X56089517Y117491819D01*
X56043325Y117475185D01*
X55922246Y117429275D01*
X55778398Y117377749D01*
X55618618Y117322778D01*
X55449743Y117266537D01*
X55278610Y117211199D01*
X55112056Y117158937D01*
X54956918Y117111925D01*
X54820033Y117072336D01*
X54708238Y117042343D01*
X54628371Y117024119D01*
X54619083Y117022452D01*
X54509798Y117001534D01*
X54378198Y116972704D01*
X54242540Y116940121D01*
X54143986Y116914314D01*
X54044131Y116887184D01*
X53959407Y116864695D01*
X53897956Y116848969D01*
X53867921Y116842129D01*
X53866622Y116842000D01*
X53868344Y116860920D01*
X53881923Y116913301D01*
X53905433Y116992580D01*
X53936951Y117092190D01*
X53964378Y117175375D01*
X54017012Y117333092D01*
X54075131Y117508330D01*
X54137364Y117696862D01*
X54202337Y117894462D01*
X54268678Y118096905D01*
X54335015Y118299964D01*
X54399973Y118499413D01*
X54462181Y118691026D01*
X54520265Y118870577D01*
X54572853Y119033839D01*
X54618572Y119176586D01*
X54656049Y119294593D01*
X54683911Y119383633D01*
X54700786Y119439480D01*
X54705234Y119456084D01*
X54732381Y119564745D01*
X54773597Y119697327D01*
X54824417Y119839691D01*
X54835521Y119868559D01*
X54866388Y119958543D01*
X54898025Y120068134D01*
X54924102Y120175206D01*
X54926396Y120186059D01*
X54971103Y120350967D01*
X55030163Y120488884D01*
X55100828Y120594232D01*
X55151088Y120642147D01*
X55205537Y120692799D01*
X55248583Y120748129D01*
X55254105Y120757877D01*
X55276197Y120830803D01*
X55284757Y120927378D01*
X55279430Y121031020D01*
X55261859Y121118691D01*
X55251199Y121167554D01*
X55251126Y121218895D01*
X55262763Y121285836D01*
X55283025Y121366005D01*
X55304531Y121453244D01*
X55320476Y121532292D01*
X55327953Y121588373D01*
X55328177Y121595359D01*
X55335768Y121650659D01*
X55355173Y121724180D01*
X55370510Y121768769D01*
X55395230Y121851317D01*
X55410475Y121935952D01*
X55412833Y121972483D01*
X55420598Y122054847D01*
X55439760Y122140094D01*
X55444583Y122154834D01*
X55464891Y122235722D01*
X55475760Y122324458D01*
X55476333Y122345027D01*
X55476333Y122445231D01*
X55703875Y122490148D01*
X55991175Y122536763D01*
X56280860Y122564855D01*
X56557592Y122573198D01*
X56693416Y122569213D01*
G36*
X34922711Y121844193D02*
G01*
X35046163Y121837147D01*
X35050500Y121836878D01*
X35303020Y121815542D01*
X35522278Y121784126D01*
X35716540Y121740747D01*
X35894074Y121683525D01*
X36063149Y121610578D01*
X36078711Y121602941D01*
X36160579Y121564535D01*
X36233481Y121536880D01*
X36310626Y121516377D01*
X36405222Y121499425D01*
X36512627Y121484684D01*
X36658643Y121464660D01*
X36770450Y121444378D01*
X36856033Y121420123D01*
X36923376Y121388176D01*
X36980462Y121344822D01*
X37035275Y121286343D01*
X37090963Y121215455D01*
X37162303Y121129598D01*
X37253351Y121032497D01*
X37350158Y120938589D01*
X37407415Y120887912D01*
X37670613Y120659222D01*
X37910243Y120436600D01*
X38134072Y120211795D01*
X38349865Y119976555D01*
X38565388Y119722631D01*
X38788409Y119441770D01*
X38874600Y119329084D01*
X38948226Y119235498D01*
X39036307Y119128757D01*
X39124198Y119026452D01*
X39159280Y118987106D01*
X39248405Y118879487D01*
X39345664Y118746372D01*
X39441727Y118600829D01*
X39481188Y118536260D01*
X39547381Y118428587D01*
X39615052Y118324579D01*
X39677462Y118234208D01*
X39727873Y118167447D01*
X39740480Y118152573D01*
X39834166Y118047087D01*
X39834166Y117856626D01*
X39827410Y117708519D01*
X39805971Y117587463D01*
X39792652Y117542933D01*
X39770834Y117456360D01*
X39750954Y117335970D01*
X39733834Y117190265D01*
X39720296Y117027748D01*
X39711162Y116856919D01*
X39707252Y116686282D01*
X39707166Y116658346D01*
X39705376Y116548679D01*
X39699678Y116476967D01*
X39689580Y116438967D01*
X39680708Y116430418D01*
X39563451Y116413518D01*
X39444026Y116436175D01*
X39425226Y116443050D01*
X39372150Y116458164D01*
X39285583Y116476575D01*
X39174087Y116496736D01*
X39046228Y116517104D01*
X38910568Y116536131D01*
X38906643Y116536642D01*
X38704352Y116565302D01*
X38532093Y116596137D01*
X38378546Y116632599D01*
X38232390Y116678141D01*
X38082306Y116736217D01*
X37916974Y116810280D01*
X37759833Y116886479D01*
X37631425Y116953414D01*
X37489834Y117032753D01*
X37341212Y117120525D01*
X37191714Y117212757D01*
X37047493Y117305477D01*
X36914702Y117394714D01*
X36799495Y117476495D01*
X36708024Y117546848D01*
X36646443Y117601801D01*
X36638494Y117610325D01*
X36593226Y117654694D01*
X36522718Y117716192D01*
X36436066Y117787188D01*
X36342364Y117860050D01*
X36327790Y117871023D01*
X36180047Y117988802D01*
X36067788Y118095101D01*
X35987216Y118194233D01*
X35934536Y118290510D01*
X35918255Y118336259D01*
X35905433Y118385690D01*
X35905883Y118422241D01*
X35923720Y118460428D01*
X35963059Y118514765D01*
X35972262Y118526759D01*
X36022974Y118601069D01*
X36077455Y118693767D01*
X36121310Y118779441D01*
X36155478Y118858995D01*
X36190223Y118950067D01*
X36222689Y119043700D01*
X36250017Y119130936D01*
X36269350Y119202818D01*
X36277832Y119250388D01*
X36275964Y119264258D01*
X36250974Y119261921D01*
X36198664Y119240436D01*
X36126852Y119204270D01*
X36043353Y119157889D01*
X35955985Y119105758D01*
X35872563Y119052345D01*
X35800903Y119002113D01*
X35759583Y118969217D01*
X35657083Y118885644D01*
X35572929Y118830317D01*
X35498881Y118798535D01*
X35439704Y118786724D01*
X35415038Y118786736D01*
X35388828Y118794599D01*
X35356446Y118814053D01*
X35313261Y118848838D01*
X35254647Y118902692D01*
X35175974Y118979354D01*
X35072615Y119082565D01*
X35068985Y119086210D01*
X34921618Y119238268D01*
X34796399Y119377489D01*
X34682116Y119517099D01*
X34567557Y119670323D01*
X34534407Y119716755D01*
X34399328Y119910534D01*
X34268244Y120104293D01*
X34144916Y120292138D01*
X34033108Y120468172D01*
X33936582Y120626503D01*
X33859100Y120761234D01*
X33816985Y120840782D01*
X33774519Y120928316D01*
X33747640Y120995900D01*
X33732281Y121059662D01*
X33724372Y121135727D01*
X33720419Y121223527D01*
X33713254Y121428072D01*
X33985002Y121588792D01*
X34096260Y121653594D01*
X34183121Y121700623D01*
X34257031Y121734633D01*
X34329437Y121760379D01*
X34411785Y121782614D01*
X34500166Y121802745D01*
X34599925Y121823815D01*
X34679696Y121837727D01*
X34751841Y121845250D01*
X34828725Y121847150D01*
X34922711Y121844193D01*
G37*
X34922711Y121844193D02*
X35046163Y121837147D01*
X35050500Y121836878D01*
X35303020Y121815542D01*
X35522278Y121784126D01*
X35716540Y121740747D01*
X35894074Y121683525D01*
X36063149Y121610578D01*
X36078711Y121602941D01*
X36160579Y121564535D01*
X36233481Y121536880D01*
X36310626Y121516377D01*
X36405222Y121499425D01*
X36512627Y121484684D01*
X36658643Y121464660D01*
X36770450Y121444378D01*
X36856033Y121420123D01*
X36923376Y121388176D01*
X36980462Y121344822D01*
X37035275Y121286343D01*
X37090963Y121215455D01*
X37162303Y121129598D01*
X37253351Y121032497D01*
X37350158Y120938589D01*
X37407415Y120887912D01*
X37670613Y120659222D01*
X37910243Y120436600D01*
X38134072Y120211795D01*
X38349865Y119976555D01*
X38565388Y119722631D01*
X38788409Y119441770D01*
X38874600Y119329084D01*
X38948226Y119235498D01*
X39036307Y119128757D01*
X39124198Y119026452D01*
X39159280Y118987106D01*
X39248405Y118879487D01*
X39345664Y118746372D01*
X39441727Y118600829D01*
X39481188Y118536260D01*
X39547381Y118428587D01*
X39615052Y118324579D01*
X39677462Y118234208D01*
X39727873Y118167447D01*
X39740480Y118152573D01*
X39834166Y118047087D01*
X39834166Y117856626D01*
X39827410Y117708519D01*
X39805971Y117587463D01*
X39792652Y117542933D01*
X39770834Y117456360D01*
X39750954Y117335970D01*
X39733834Y117190265D01*
X39720296Y117027748D01*
X39711162Y116856919D01*
X39707252Y116686282D01*
X39707166Y116658346D01*
X39705376Y116548679D01*
X39699678Y116476967D01*
X39689580Y116438967D01*
X39680708Y116430418D01*
X39563451Y116413518D01*
X39444026Y116436175D01*
X39425226Y116443050D01*
X39372150Y116458164D01*
X39285583Y116476575D01*
X39174087Y116496736D01*
X39046228Y116517104D01*
X38910568Y116536131D01*
X38906643Y116536642D01*
X38704352Y116565302D01*
X38532093Y116596137D01*
X38378546Y116632599D01*
X38232390Y116678141D01*
X38082306Y116736217D01*
X37916974Y116810280D01*
X37759833Y116886479D01*
X37631425Y116953414D01*
X37489834Y117032753D01*
X37341212Y117120525D01*
X37191714Y117212757D01*
X37047493Y117305477D01*
X36914702Y117394714D01*
X36799495Y117476495D01*
X36708024Y117546848D01*
X36646443Y117601801D01*
X36638494Y117610325D01*
X36593226Y117654694D01*
X36522718Y117716192D01*
X36436066Y117787188D01*
X36342364Y117860050D01*
X36327790Y117871023D01*
X36180047Y117988802D01*
X36067788Y118095101D01*
X35987216Y118194233D01*
X35934536Y118290510D01*
X35918255Y118336259D01*
X35905433Y118385690D01*
X35905883Y118422241D01*
X35923720Y118460428D01*
X35963059Y118514765D01*
X35972262Y118526759D01*
X36022974Y118601069D01*
X36077455Y118693767D01*
X36121310Y118779441D01*
X36155478Y118858995D01*
X36190223Y118950067D01*
X36222689Y119043700D01*
X36250017Y119130936D01*
X36269350Y119202818D01*
X36277832Y119250388D01*
X36275964Y119264258D01*
X36250974Y119261921D01*
X36198664Y119240436D01*
X36126852Y119204270D01*
X36043353Y119157889D01*
X35955985Y119105758D01*
X35872563Y119052345D01*
X35800903Y119002113D01*
X35759583Y118969217D01*
X35657083Y118885644D01*
X35572929Y118830317D01*
X35498881Y118798535D01*
X35439704Y118786724D01*
X35415038Y118786736D01*
X35388828Y118794599D01*
X35356446Y118814053D01*
X35313261Y118848838D01*
X35254647Y118902692D01*
X35175974Y118979354D01*
X35072615Y119082565D01*
X35068985Y119086210D01*
X34921618Y119238268D01*
X34796399Y119377489D01*
X34682116Y119517099D01*
X34567557Y119670323D01*
X34534407Y119716755D01*
X34399328Y119910534D01*
X34268244Y120104293D01*
X34144916Y120292138D01*
X34033108Y120468172D01*
X33936582Y120626503D01*
X33859100Y120761234D01*
X33816985Y120840782D01*
X33774519Y120928316D01*
X33747640Y120995900D01*
X33732281Y121059662D01*
X33724372Y121135727D01*
X33720419Y121223527D01*
X33713254Y121428072D01*
X33985002Y121588792D01*
X34096260Y121653594D01*
X34183121Y121700623D01*
X34257031Y121734633D01*
X34329437Y121760379D01*
X34411785Y121782614D01*
X34500166Y121802745D01*
X34599925Y121823815D01*
X34679696Y121837727D01*
X34751841Y121845250D01*
X34828725Y121847150D01*
X34922711Y121844193D01*
G36*
X44268562Y116371715D02*
G01*
X44414276Y116356321D01*
X44480250Y116344353D01*
X44667993Y116288955D01*
X44830722Y116205971D01*
X44970598Y116093066D01*
X45089783Y115947908D01*
X45190440Y115768162D01*
X45274732Y115551496D01*
X45303893Y115455584D01*
X45365479Y115183386D01*
X45396809Y114903209D01*
X45398292Y114607545D01*
X45370339Y114288885D01*
X45368452Y114274310D01*
X45336829Y114073882D01*
X45298220Y113911187D01*
X45250167Y113781865D01*
X45190208Y113681558D01*
X45115884Y113605907D01*
X45024737Y113550555D01*
X44942386Y113519283D01*
X44782357Y113482748D01*
X44612382Y113466064D01*
X44449470Y113470190D01*
X44349380Y113485830D01*
X44166986Y113542386D01*
X43996905Y113623999D01*
X43850330Y113724690D01*
X43780105Y113789890D01*
X43718120Y113872466D01*
X43652986Y113989950D01*
X43587313Y114135310D01*
X43523716Y114301512D01*
X43464805Y114481525D01*
X43413193Y114668317D01*
X43371493Y114854857D01*
X43358843Y114923898D01*
X43339337Y115073328D01*
X43328503Y115235301D01*
X43326220Y115398919D01*
X43332365Y115553288D01*
X43346816Y115687510D01*
X43368522Y115787723D01*
X43436467Y115947833D01*
X43533495Y116091821D01*
X43653034Y116212586D01*
X43788512Y116303032D01*
X43881875Y116342158D01*
X43988632Y116364583D01*
X44122104Y116374453D01*
X44268562Y116371715D01*
G37*
X44268562Y116371715D02*
X44414276Y116356321D01*
X44480250Y116344353D01*
X44667993Y116288955D01*
X44830722Y116205971D01*
X44970598Y116093066D01*
X45089783Y115947908D01*
X45190440Y115768162D01*
X45274732Y115551496D01*
X45303893Y115455584D01*
X45365479Y115183386D01*
X45396809Y114903209D01*
X45398292Y114607545D01*
X45370339Y114288885D01*
X45368452Y114274310D01*
X45336829Y114073882D01*
X45298220Y113911187D01*
X45250167Y113781865D01*
X45190208Y113681558D01*
X45115884Y113605907D01*
X45024737Y113550555D01*
X44942386Y113519283D01*
X44782357Y113482748D01*
X44612382Y113466064D01*
X44449470Y113470190D01*
X44349380Y113485830D01*
X44166986Y113542386D01*
X43996905Y113623999D01*
X43850330Y113724690D01*
X43780105Y113789890D01*
X43718120Y113872466D01*
X43652986Y113989950D01*
X43587313Y114135310D01*
X43523716Y114301512D01*
X43464805Y114481525D01*
X43413193Y114668317D01*
X43371493Y114854857D01*
X43358843Y114923898D01*
X43339337Y115073328D01*
X43328503Y115235301D01*
X43326220Y115398919D01*
X43332365Y115553288D01*
X43346816Y115687510D01*
X43368522Y115787723D01*
X43436467Y115947833D01*
X43533495Y116091821D01*
X43653034Y116212586D01*
X43788512Y116303032D01*
X43881875Y116342158D01*
X43988632Y116364583D01*
X44122104Y116374453D01*
X44268562Y116371715D01*
G36*
X49171217Y116026245D02*
G01*
X49249121Y116022503D01*
X49307495Y116014017D01*
X49357736Y115998948D01*
X49411237Y115975456D01*
X49425693Y115968427D01*
X49527190Y115904289D01*
X49635822Y115811793D01*
X49741758Y115701369D01*
X49835170Y115583443D01*
X49906229Y115468445D01*
X49916358Y115447859D01*
X49946347Y115380697D01*
X49965406Y115324931D01*
X49975851Y115267380D01*
X49979997Y115194867D01*
X49980158Y115094213D01*
X49980074Y115085167D01*
X49974477Y114967381D01*
X49960683Y114822594D01*
X49940267Y114660466D01*
X49914802Y114490659D01*
X49885865Y114322835D01*
X49855028Y114166656D01*
X49823868Y114031782D01*
X49793959Y113927875D01*
X49789260Y113914395D01*
X49737090Y113784768D01*
X49681585Y113683357D01*
X49613755Y113596425D01*
X49524929Y113510516D01*
X49376946Y113400102D01*
X49224546Y113323393D01*
X49073016Y113282094D01*
X48927642Y113277910D01*
X48849671Y113292754D01*
X48698241Y113356015D01*
X48554765Y113455890D01*
X48424166Y113586766D01*
X48311371Y113743032D01*
X48221304Y113919076D01*
X48169723Y114067495D01*
X48135396Y114215828D01*
X48107493Y114385872D01*
X48086713Y114567392D01*
X48073754Y114750155D01*
X48069315Y114923925D01*
X48074093Y115078467D01*
X48088788Y115203547D01*
X48091319Y115216417D01*
X48148506Y115394165D01*
X48241585Y115565056D01*
X48364135Y115720925D01*
X48509734Y115853605D01*
X48671963Y115954931D01*
X48672046Y115954972D01*
X48737624Y115986208D01*
X48790842Y116006817D01*
X48843633Y116019002D01*
X48907928Y116024969D01*
X48995662Y116026922D01*
X49062388Y116027084D01*
X49171217Y116026245D01*
G37*
X49171217Y116026245D02*
X49249121Y116022503D01*
X49307495Y116014017D01*
X49357736Y115998948D01*
X49411237Y115975456D01*
X49425693Y115968427D01*
X49527190Y115904289D01*
X49635822Y115811793D01*
X49741758Y115701369D01*
X49835170Y115583443D01*
X49906229Y115468445D01*
X49916358Y115447859D01*
X49946347Y115380697D01*
X49965406Y115324931D01*
X49975851Y115267380D01*
X49979997Y115194867D01*
X49980158Y115094213D01*
X49980074Y115085167D01*
X49974477Y114967381D01*
X49960683Y114822594D01*
X49940267Y114660466D01*
X49914802Y114490659D01*
X49885865Y114322835D01*
X49855028Y114166656D01*
X49823868Y114031782D01*
X49793959Y113927875D01*
X49789260Y113914395D01*
X49737090Y113784768D01*
X49681585Y113683357D01*
X49613755Y113596425D01*
X49524929Y113510516D01*
X49376946Y113400102D01*
X49224546Y113323393D01*
X49073016Y113282094D01*
X48927642Y113277910D01*
X48849671Y113292754D01*
X48698241Y113356015D01*
X48554765Y113455890D01*
X48424166Y113586766D01*
X48311371Y113743032D01*
X48221304Y113919076D01*
X48169723Y114067495D01*
X48135396Y114215828D01*
X48107493Y114385872D01*
X48086713Y114567392D01*
X48073754Y114750155D01*
X48069315Y114923925D01*
X48074093Y115078467D01*
X48088788Y115203547D01*
X48091319Y115216417D01*
X48148506Y115394165D01*
X48241585Y115565056D01*
X48364135Y115720925D01*
X48509734Y115853605D01*
X48671963Y115954931D01*
X48672046Y115954972D01*
X48737624Y115986208D01*
X48790842Y116006817D01*
X48843633Y116019002D01*
X48907928Y116024969D01*
X48995662Y116026922D01*
X49062388Y116027084D01*
X49171217Y116026245D01*
G36*
X62173882Y110572172D02*
G01*
X62197299Y110564442D01*
X62208625Y110550122D01*
X62214661Y110530945D01*
X62224779Y110479625D01*
X62220655Y110436694D01*
X62197678Y110392765D01*
X62151237Y110338449D01*
X62090069Y110277295D01*
X62028051Y110212288D01*
X61949398Y110122815D01*
X61862372Y110018647D01*
X61775235Y109909556D01*
X61735527Y109857959D01*
X61586176Y109671718D01*
X61444055Y109515524D01*
X61339500Y109416393D01*
X61243447Y109332262D01*
X61137142Y109238471D01*
X61037615Y109150068D01*
X60997075Y109113809D01*
X60834567Y108968000D01*
X60054703Y108968000D01*
X59961560Y109032639D01*
X59890037Y109082197D01*
X59818056Y109131959D01*
X59792814Y109149371D01*
X59731496Y109181272D01*
X59648009Y109211880D01*
X59573744Y109231483D01*
X59500720Y109247853D01*
X59445670Y109262234D01*
X59420207Y109271585D01*
X59420025Y109271752D01*
X59408491Y109300042D01*
X59400358Y109348519D01*
X59396826Y109401106D01*
X59399094Y109441725D01*
X59406371Y109454834D01*
X59429521Y109467874D01*
X59477142Y109503229D01*
X59541920Y109555248D01*
X59604950Y109608292D01*
X59702707Y109688144D01*
X59813872Y109772710D01*
X59920401Y109848468D01*
X59963666Y109877140D01*
X60079227Y109947741D01*
X60214809Y110024931D01*
X60361411Y110104101D01*
X60510030Y110180639D01*
X60651664Y110249936D01*
X60777311Y110307380D01*
X60877968Y110348362D01*
X60896793Y110355027D01*
X61040067Y110398432D01*
X61210806Y110441721D01*
X61396299Y110482362D01*
X61583834Y110517820D01*
X61760701Y110545563D01*
X61914187Y110563057D01*
X61955658Y110566040D01*
X62060603Y110571949D01*
X62130830Y110574334D01*
X62173882Y110572172D01*
G37*
X62173882Y110572172D02*
X62197299Y110564442D01*
X62208625Y110550122D01*
X62214661Y110530945D01*
X62224779Y110479625D01*
X62220655Y110436694D01*
X62197678Y110392765D01*
X62151237Y110338449D01*
X62090069Y110277295D01*
X62028051Y110212288D01*
X61949398Y110122815D01*
X61862372Y110018647D01*
X61775235Y109909556D01*
X61735527Y109857959D01*
X61586176Y109671718D01*
X61444055Y109515524D01*
X61339500Y109416393D01*
X61243447Y109332262D01*
X61137142Y109238471D01*
X61037615Y109150068D01*
X60997075Y109113809D01*
X60834567Y108968000D01*
X60054703Y108968000D01*
X59961560Y109032639D01*
X59890037Y109082197D01*
X59818056Y109131959D01*
X59792814Y109149371D01*
X59731496Y109181272D01*
X59648009Y109211880D01*
X59573744Y109231483D01*
X59500720Y109247853D01*
X59445670Y109262234D01*
X59420207Y109271585D01*
X59420025Y109271752D01*
X59408491Y109300042D01*
X59400358Y109348519D01*
X59396826Y109401106D01*
X59399094Y109441725D01*
X59406371Y109454834D01*
X59429521Y109467874D01*
X59477142Y109503229D01*
X59541920Y109555248D01*
X59604950Y109608292D01*
X59702707Y109688144D01*
X59813872Y109772710D01*
X59920401Y109848468D01*
X59963666Y109877140D01*
X60079227Y109947741D01*
X60214809Y110024931D01*
X60361411Y110104101D01*
X60510030Y110180639D01*
X60651664Y110249936D01*
X60777311Y110307380D01*
X60877968Y110348362D01*
X60896793Y110355027D01*
X61040067Y110398432D01*
X61210806Y110441721D01*
X61396299Y110482362D01*
X61583834Y110517820D01*
X61760701Y110545563D01*
X61914187Y110563057D01*
X61955658Y110566040D01*
X62060603Y110571949D01*
X62130830Y110574334D01*
X62173882Y110572172D01*
G36*
X46982220Y109924325D02*
G01*
X47098025Y109917651D01*
X47193539Y109906210D01*
X47276092Y109889113D01*
X47353013Y109865472D01*
X47431634Y109834400D01*
X47434528Y109833158D01*
X47543577Y109765652D01*
X47625408Y109672319D01*
X47674656Y109560946D01*
X47687000Y109466746D01*
X47676771Y109343803D01*
X47645579Y109255786D01*
X47599527Y109204953D01*
X47564597Y109167019D01*
X47528759Y109108157D01*
X47518098Y109085425D01*
X47471725Y109009405D01*
X47404482Y108960403D01*
X47400471Y108958466D01*
X47306283Y108926855D01*
X47184442Y108905018D01*
X47048846Y108894652D01*
X46913397Y108897448D01*
X46905177Y108898105D01*
X46805458Y108899905D01*
X46681085Y108892248D01*
X46548417Y108876160D01*
X46544000Y108875484D01*
X46316809Y108843521D01*
X46086834Y108817707D01*
X45845437Y108797380D01*
X45583978Y108781876D01*
X45293820Y108770532D01*
X45113972Y108765712D01*
X44498861Y108751512D01*
X44460298Y108812131D01*
X44426536Y108861846D01*
X44378529Y108928609D01*
X44337782Y108983242D01*
X44253828Y109093734D01*
X44281203Y109317722D01*
X44293895Y109417466D01*
X44305383Y109485278D01*
X44319447Y109531265D01*
X44339864Y109565534D01*
X44370414Y109598192D01*
X44394414Y109620514D01*
X44456157Y109669511D01*
X44522003Y109701508D01*
X44609832Y109724843D01*
X44624636Y109727841D01*
X44705275Y109746264D01*
X44753655Y109765124D01*
X44779639Y109789105D01*
X44787599Y109805223D01*
X44812155Y109840050D01*
X44860051Y109859555D01*
X44897213Y109865780D01*
X45306701Y109905051D01*
X45748550Y109921963D01*
X45834916Y109922627D01*
X45984678Y109923183D01*
X46161004Y109923994D01*
X46348129Y109924980D01*
X46530286Y109926058D01*
X46660416Y109926922D01*
X46838793Y109927120D01*
X46982220Y109924325D01*
G37*
X46982220Y109924325D02*
X47098025Y109917651D01*
X47193539Y109906210D01*
X47276092Y109889113D01*
X47353013Y109865472D01*
X47431634Y109834400D01*
X47434528Y109833158D01*
X47543577Y109765652D01*
X47625408Y109672319D01*
X47674656Y109560946D01*
X47687000Y109466746D01*
X47676771Y109343803D01*
X47645579Y109255786D01*
X47599527Y109204953D01*
X47564597Y109167019D01*
X47528759Y109108157D01*
X47518098Y109085425D01*
X47471725Y109009405D01*
X47404482Y108960403D01*
X47400471Y108958466D01*
X47306283Y108926855D01*
X47184442Y108905018D01*
X47048846Y108894652D01*
X46913397Y108897448D01*
X46905177Y108898105D01*
X46805458Y108899905D01*
X46681085Y108892248D01*
X46548417Y108876160D01*
X46544000Y108875484D01*
X46316809Y108843521D01*
X46086834Y108817707D01*
X45845437Y108797380D01*
X45583978Y108781876D01*
X45293820Y108770532D01*
X45113972Y108765712D01*
X44498861Y108751512D01*
X44460298Y108812131D01*
X44426536Y108861846D01*
X44378529Y108928609D01*
X44337782Y108983242D01*
X44253828Y109093734D01*
X44281203Y109317722D01*
X44293895Y109417466D01*
X44305383Y109485278D01*
X44319447Y109531265D01*
X44339864Y109565534D01*
X44370414Y109598192D01*
X44394414Y109620514D01*
X44456157Y109669511D01*
X44522003Y109701508D01*
X44609832Y109724843D01*
X44624636Y109727841D01*
X44705275Y109746264D01*
X44753655Y109765124D01*
X44779639Y109789105D01*
X44787599Y109805223D01*
X44812155Y109840050D01*
X44860051Y109859555D01*
X44897213Y109865780D01*
X45306701Y109905051D01*
X45748550Y109921963D01*
X45834916Y109922627D01*
X45984678Y109923183D01*
X46161004Y109923994D01*
X46348129Y109924980D01*
X46530286Y109926058D01*
X46660416Y109926922D01*
X46838793Y109927120D01*
X46982220Y109924325D01*
G36*
X29262163Y109813046D02*
G01*
X29356656Y109806020D01*
X29486872Y109793844D01*
X29494250Y109793131D01*
X29876737Y109735019D01*
X30251481Y109635595D01*
X30616814Y109495445D01*
X30971068Y109315151D01*
X31124887Y109222056D01*
X31230674Y109155288D01*
X31344865Y109084056D01*
X31450690Y109018785D01*
X31505083Y108985679D01*
X31645738Y108896454D01*
X31752130Y108817992D01*
X31829271Y108745250D01*
X31882169Y108673185D01*
X31915834Y108596753D01*
X31925326Y108562625D01*
X31930062Y108538216D01*
X31926429Y108520132D01*
X31908142Y108505553D01*
X31868916Y108491660D01*
X31802465Y108475636D01*
X31702503Y108454660D01*
X31669482Y108447891D01*
X31632346Y108432012D01*
X31570943Y108397186D01*
X31495280Y108349317D01*
X31447232Y108316812D01*
X31272250Y108195417D01*
X30986500Y108192540D01*
X30874928Y108192082D01*
X30773525Y108192880D01*
X30692458Y108194772D01*
X30641896Y108197594D01*
X30637250Y108198130D01*
X30547266Y108211246D01*
X30481331Y108226381D01*
X30427770Y108249574D01*
X30374909Y108286863D01*
X30311071Y108344285D01*
X30260534Y108392962D01*
X30191568Y108461878D01*
X30102478Y108553818D01*
X30001367Y108660260D01*
X29896338Y108772679D01*
X29804406Y108872750D01*
X29701029Y108985793D01*
X29592751Y109103253D01*
X29488185Y109215852D01*
X29395944Y109314309D01*
X29332894Y109380750D01*
X29242197Y109477017D01*
X29178154Y109550241D01*
X29136919Y109606739D01*
X29114642Y109652825D01*
X29107477Y109694811D01*
X29111576Y109739014D01*
X29112271Y109742813D01*
X29119550Y109773583D01*
X29132086Y109795189D01*
X29155971Y109808433D01*
X29197299Y109814117D01*
X29262163Y109813046D01*
G37*
X29262163Y109813046D02*
X29356656Y109806020D01*
X29486872Y109793844D01*
X29494250Y109793131D01*
X29876737Y109735019D01*
X30251481Y109635595D01*
X30616814Y109495445D01*
X30971068Y109315151D01*
X31124887Y109222056D01*
X31230674Y109155288D01*
X31344865Y109084056D01*
X31450690Y109018785D01*
X31505083Y108985679D01*
X31645738Y108896454D01*
X31752130Y108817992D01*
X31829271Y108745250D01*
X31882169Y108673185D01*
X31915834Y108596753D01*
X31925326Y108562625D01*
X31930062Y108538216D01*
X31926429Y108520132D01*
X31908142Y108505553D01*
X31868916Y108491660D01*
X31802465Y108475636D01*
X31702503Y108454660D01*
X31669482Y108447891D01*
X31632346Y108432012D01*
X31570943Y108397186D01*
X31495280Y108349317D01*
X31447232Y108316812D01*
X31272250Y108195417D01*
X30986500Y108192540D01*
X30874928Y108192082D01*
X30773525Y108192880D01*
X30692458Y108194772D01*
X30641896Y108197594D01*
X30637250Y108198130D01*
X30547266Y108211246D01*
X30481331Y108226381D01*
X30427770Y108249574D01*
X30374909Y108286863D01*
X30311071Y108344285D01*
X30260534Y108392962D01*
X30191568Y108461878D01*
X30102478Y108553818D01*
X30001367Y108660260D01*
X29896338Y108772679D01*
X29804406Y108872750D01*
X29701029Y108985793D01*
X29592751Y109103253D01*
X29488185Y109215852D01*
X29395944Y109314309D01*
X29332894Y109380750D01*
X29242197Y109477017D01*
X29178154Y109550241D01*
X29136919Y109606739D01*
X29114642Y109652825D01*
X29107477Y109694811D01*
X29111576Y109739014D01*
X29112271Y109742813D01*
X29119550Y109773583D01*
X29132086Y109795189D01*
X29155971Y109808433D01*
X29197299Y109814117D01*
X29262163Y109813046D01*
G36*
X44455678Y108276236D02*
G01*
X44598761Y108245434D01*
X44736943Y108197745D01*
X44792863Y108172067D01*
X44905865Y108106555D01*
X44984455Y108038540D01*
X45032594Y107968927D01*
X45056911Y107908924D01*
X45057870Y107857222D01*
X45032046Y107805319D01*
X44976011Y107744716D01*
X44923372Y107698000D01*
X44787592Y107592701D01*
X44666465Y107521905D01*
X44554775Y107482735D01*
X44522583Y107476758D01*
X44481355Y107472189D01*
X44449263Y107476596D01*
X44417267Y107495542D01*
X44376329Y107534590D01*
X44317409Y107599304D01*
X44310010Y107607591D01*
X44223565Y107706612D01*
X44161411Y107784427D01*
X44117977Y107849836D01*
X44087692Y107911641D01*
X44064986Y107978642D01*
X44057323Y108006768D01*
X44034789Y108101043D01*
X44027027Y108164240D01*
X44035609Y108205504D01*
X44062104Y108233979D01*
X44099968Y108254997D01*
X44195985Y108282250D01*
X44317987Y108288919D01*
X44455678Y108276236D01*
G37*
X44455678Y108276236D02*
X44598761Y108245434D01*
X44736943Y108197745D01*
X44792863Y108172067D01*
X44905865Y108106555D01*
X44984455Y108038540D01*
X45032594Y107968927D01*
X45056911Y107908924D01*
X45057870Y107857222D01*
X45032046Y107805319D01*
X44976011Y107744716D01*
X44923372Y107698000D01*
X44787592Y107592701D01*
X44666465Y107521905D01*
X44554775Y107482735D01*
X44522583Y107476758D01*
X44481355Y107472189D01*
X44449263Y107476596D01*
X44417267Y107495542D01*
X44376329Y107534590D01*
X44317409Y107599304D01*
X44310010Y107607591D01*
X44223565Y107706612D01*
X44161411Y107784427D01*
X44117977Y107849836D01*
X44087692Y107911641D01*
X44064986Y107978642D01*
X44057323Y108006768D01*
X44034789Y108101043D01*
X44027027Y108164240D01*
X44035609Y108205504D01*
X44062104Y108233979D01*
X44099968Y108254997D01*
X44195985Y108282250D01*
X44317987Y108288919D01*
X44455678Y108276236D01*
G36*
X66219500Y109554977D02*
G01*
X66259025Y109534886D01*
X66310601Y109495864D01*
X66380482Y109433382D01*
X66441137Y109375675D01*
X66649036Y109146473D01*
X66831093Y108886726D01*
X66985395Y108600809D01*
X67110029Y108293098D01*
X67203082Y107967970D01*
X67262641Y107629799D01*
X67279157Y107458705D01*
X67285121Y107365011D01*
X67286297Y107304626D01*
X67281505Y107268682D01*
X67269565Y107248308D01*
X67249352Y107234663D01*
X67204318Y107214683D01*
X67165089Y107210539D01*
X67126285Y107226086D01*
X67082527Y107265178D01*
X67028437Y107331669D01*
X66958637Y107429414D01*
X66940107Y107456268D01*
X66842391Y107592542D01*
X66756314Y107696930D01*
X66674457Y107775346D01*
X66589401Y107833705D01*
X66493726Y107877923D01*
X66380015Y107913914D01*
X66359163Y107919431D01*
X66292473Y107932668D01*
X66194586Y107947023D01*
X66076577Y107961313D01*
X65949518Y107974353D01*
X65824484Y107984958D01*
X65712548Y107991944D01*
X65664679Y107993716D01*
X65640652Y108012256D01*
X65610885Y108058093D01*
X65581831Y108117982D01*
X65559944Y108178681D01*
X65551666Y108225621D01*
X65564770Y108267659D01*
X65598655Y108325994D01*
X65633430Y108372396D01*
X65709575Y108470099D01*
X65790778Y108584673D01*
X65869068Y108703948D01*
X65936469Y108815753D01*
X65985010Y108907918D01*
X65986783Y108911758D01*
X66024745Y109023461D01*
X66052224Y109171134D01*
X66060395Y109240386D01*
X66074343Y109364094D01*
X66088245Y109451594D01*
X66104473Y109508940D01*
X66125398Y109542190D01*
X66153389Y109557399D01*
X66185774Y109560667D01*
X66219500Y109554977D01*
G37*
X66219500Y109554977D02*
X66259025Y109534886D01*
X66310601Y109495864D01*
X66380482Y109433382D01*
X66441137Y109375675D01*
X66649036Y109146473D01*
X66831093Y108886726D01*
X66985395Y108600809D01*
X67110029Y108293098D01*
X67203082Y107967970D01*
X67262641Y107629799D01*
X67279157Y107458705D01*
X67285121Y107365011D01*
X67286297Y107304626D01*
X67281505Y107268682D01*
X67269565Y107248308D01*
X67249352Y107234663D01*
X67204318Y107214683D01*
X67165089Y107210539D01*
X67126285Y107226086D01*
X67082527Y107265178D01*
X67028437Y107331669D01*
X66958637Y107429414D01*
X66940107Y107456268D01*
X66842391Y107592542D01*
X66756314Y107696930D01*
X66674457Y107775346D01*
X66589401Y107833705D01*
X66493726Y107877923D01*
X66380015Y107913914D01*
X66359163Y107919431D01*
X66292473Y107932668D01*
X66194586Y107947023D01*
X66076577Y107961313D01*
X65949518Y107974353D01*
X65824484Y107984958D01*
X65712548Y107991944D01*
X65664679Y107993716D01*
X65640652Y108012256D01*
X65610885Y108058093D01*
X65581831Y108117982D01*
X65559944Y108178681D01*
X65551666Y108225621D01*
X65564770Y108267659D01*
X65598655Y108325994D01*
X65633430Y108372396D01*
X65709575Y108470099D01*
X65790778Y108584673D01*
X65869068Y108703948D01*
X65936469Y108815753D01*
X65985010Y108907918D01*
X65986783Y108911758D01*
X66024745Y109023461D01*
X66052224Y109171134D01*
X66060395Y109240386D01*
X66074343Y109364094D01*
X66088245Y109451594D01*
X66104473Y109508940D01*
X66125398Y109542190D01*
X66153389Y109557399D01*
X66185774Y109560667D01*
X66219500Y109554977D01*
G36*
X25176770Y108795947D02*
G01*
X25201223Y108782562D01*
X25217339Y108750674D01*
X25229030Y108692443D01*
X25240212Y108600032D01*
X25240479Y108597584D01*
X25258920Y108489580D01*
X25293110Y108351473D01*
X25340823Y108191487D01*
X25390413Y108044253D01*
X25420340Y107983944D01*
X25469340Y107909219D01*
X25526951Y107835992D01*
X25528486Y107834233D01*
X25618910Y107726268D01*
X25682525Y107637987D01*
X25724336Y107561141D01*
X25749345Y107487482D01*
X25755117Y107460592D01*
X25764080Y107397346D01*
X25757642Y107355657D01*
X25730929Y107316078D01*
X25714192Y107297266D01*
X25658734Y107250127D01*
X25598453Y107233033D01*
X25578558Y107232334D01*
X25504808Y107222181D01*
X25436021Y107198095D01*
X25387467Y107181419D01*
X25308945Y107163569D01*
X25212656Y107147049D01*
X25140894Y107137577D01*
X24939530Y107102117D01*
X24770304Y107043910D01*
X24627780Y106959710D01*
X24506522Y106846272D01*
X24401092Y106700350D01*
X24396872Y106693366D01*
X24319298Y106582390D01*
X24239885Y106502597D01*
X24162978Y106457767D01*
X24116212Y106449167D01*
X24072578Y106463869D01*
X24056563Y106486209D01*
X24042887Y106570874D01*
X24041406Y106687562D01*
X24051173Y106828054D01*
X24071241Y106984130D01*
X24100662Y107147572D01*
X24138489Y107310160D01*
X24160745Y107390211D01*
X24208534Y107539205D01*
X24261824Y107677065D01*
X24324773Y107811660D01*
X24401542Y107950862D01*
X24496288Y108102540D01*
X24613172Y108274565D01*
X24672178Y108358019D01*
X24791685Y108516098D01*
X24900286Y108640549D01*
X24996528Y108730005D01*
X25078961Y108783101D01*
X25140064Y108798667D01*
X25176770Y108795947D01*
G37*
X25176770Y108795947D02*
X25201223Y108782562D01*
X25217339Y108750674D01*
X25229030Y108692443D01*
X25240212Y108600032D01*
X25240479Y108597584D01*
X25258920Y108489580D01*
X25293110Y108351473D01*
X25340823Y108191487D01*
X25390413Y108044253D01*
X25420340Y107983944D01*
X25469340Y107909219D01*
X25526951Y107835992D01*
X25528486Y107834233D01*
X25618910Y107726268D01*
X25682525Y107637987D01*
X25724336Y107561141D01*
X25749345Y107487482D01*
X25755117Y107460592D01*
X25764080Y107397346D01*
X25757642Y107355657D01*
X25730929Y107316078D01*
X25714192Y107297266D01*
X25658734Y107250127D01*
X25598453Y107233033D01*
X25578558Y107232334D01*
X25504808Y107222181D01*
X25436021Y107198095D01*
X25387467Y107181419D01*
X25308945Y107163569D01*
X25212656Y107147049D01*
X25140894Y107137577D01*
X24939530Y107102117D01*
X24770304Y107043910D01*
X24627780Y106959710D01*
X24506522Y106846272D01*
X24401092Y106700350D01*
X24396872Y106693366D01*
X24319298Y106582390D01*
X24239885Y106502597D01*
X24162978Y106457767D01*
X24116212Y106449167D01*
X24072578Y106463869D01*
X24056563Y106486209D01*
X24042887Y106570874D01*
X24041406Y106687562D01*
X24051173Y106828054D01*
X24071241Y106984130D01*
X24100662Y107147572D01*
X24138489Y107310160D01*
X24160745Y107390211D01*
X24208534Y107539205D01*
X24261824Y107677065D01*
X24324773Y107811660D01*
X24401542Y107950862D01*
X24496288Y108102540D01*
X24613172Y108274565D01*
X24672178Y108358019D01*
X24791685Y108516098D01*
X24900286Y108640549D01*
X24996528Y108730005D01*
X25078961Y108783101D01*
X25140064Y108798667D01*
X25176770Y108795947D01*
G36*
X47150302Y107211049D02*
G01*
X47277493Y107205295D01*
X47376453Y107185465D01*
X47460117Y107147353D01*
X47541421Y107086749D01*
X47546721Y107082118D01*
X47600686Y107032543D01*
X47629969Y106994071D01*
X47642110Y106950345D01*
X47644647Y106885011D01*
X47644666Y106869650D01*
X47638149Y106769113D01*
X47614177Y106692667D01*
X47566118Y106629667D01*
X47487340Y106569467D01*
X47439307Y106539987D01*
X47332782Y106481338D01*
X47238289Y106440602D01*
X47146569Y106416779D01*
X47048364Y106408872D01*
X46934416Y106415881D01*
X46795466Y106436807D01*
X46682584Y106458355D01*
X46581013Y106479369D01*
X46513011Y106496125D01*
X46470509Y106512014D01*
X46445441Y106530428D01*
X46429738Y106554759D01*
X46424247Y106566965D01*
X46401978Y106629240D01*
X46399798Y106677363D01*
X46422030Y106720348D01*
X46472998Y106767211D01*
X46544993Y106818778D01*
X46631090Y106881997D01*
X46729670Y106961042D01*
X46823307Y107041777D01*
X46849671Y107065931D01*
X47005188Y107211167D01*
X47150302Y107211049D01*
G37*
X47150302Y107211049D02*
X47277493Y107205295D01*
X47376453Y107185465D01*
X47460117Y107147353D01*
X47541421Y107086749D01*
X47546721Y107082118D01*
X47600686Y107032543D01*
X47629969Y106994071D01*
X47642110Y106950345D01*
X47644647Y106885011D01*
X47644666Y106869650D01*
X47638149Y106769113D01*
X47614177Y106692667D01*
X47566118Y106629667D01*
X47487340Y106569467D01*
X47439307Y106539987D01*
X47332782Y106481338D01*
X47238289Y106440602D01*
X47146569Y106416779D01*
X47048364Y106408872D01*
X46934416Y106415881D01*
X46795466Y106436807D01*
X46682584Y106458355D01*
X46581013Y106479369D01*
X46513011Y106496125D01*
X46470509Y106512014D01*
X46445441Y106530428D01*
X46429738Y106554759D01*
X46424247Y106566965D01*
X46401978Y106629240D01*
X46399798Y106677363D01*
X46422030Y106720348D01*
X46472998Y106767211D01*
X46544993Y106818778D01*
X46631090Y106881997D01*
X46729670Y106961042D01*
X46823307Y107041777D01*
X46849671Y107065931D01*
X47005188Y107211167D01*
X47150302Y107211049D01*
G36*
X46635172Y108393129D02*
G01*
X46822236Y108385917D01*
X46905368Y108296778D01*
X46953588Y108241040D01*
X46978412Y108195107D01*
X46987463Y108139979D01*
X46988500Y108089623D01*
X46985885Y108034409D01*
X46976006Y107980059D01*
X46955811Y107917318D01*
X46922245Y107836927D01*
X46872256Y107729629D01*
X46864332Y107713095D01*
X46803530Y107591780D01*
X46747582Y107495974D01*
X46688319Y107415966D01*
X46617573Y107342043D01*
X46527178Y107264494D01*
X46413425Y107176944D01*
X46325175Y107097720D01*
X46237862Y106996564D01*
X46198443Y106941556D01*
X46103551Y106816954D01*
X45987698Y106700009D01*
X45843056Y106583321D01*
X45750250Y106517829D01*
X45630047Y106442003D01*
X45503693Y106372225D01*
X45382416Y106314076D01*
X45277445Y106273134D01*
X45231666Y106260183D01*
X45112988Y106244059D01*
X44967877Y106241385D01*
X44809951Y106251898D01*
X44676059Y106270958D01*
X44515024Y106306493D01*
X44374245Y106350278D01*
X44262368Y106399366D01*
X44216112Y106427683D01*
X44180666Y106456351D01*
X44161612Y106487001D01*
X44154066Y106533303D01*
X44153107Y106604067D01*
X44154048Y106734917D01*
X44440703Y106922661D01*
X44568811Y107008736D01*
X44714607Y107110385D01*
X44872942Y107223705D01*
X45038668Y107344793D01*
X45206634Y107469746D01*
X45371692Y107594660D01*
X45528692Y107715633D01*
X45672486Y107828760D01*
X45797922Y107930140D01*
X45899854Y108015869D01*
X45973130Y108082044D01*
X45983083Y108091780D01*
X46089837Y108191597D01*
X46184942Y108264919D01*
X46280108Y108320557D01*
X46300262Y108330377D01*
X46375634Y108364459D01*
X46434741Y108384645D01*
X46493483Y108393912D01*
X46567756Y108395239D01*
X46635172Y108393129D01*
G37*
X46635172Y108393129D02*
X46822236Y108385917D01*
X46905368Y108296778D01*
X46953588Y108241040D01*
X46978412Y108195107D01*
X46987463Y108139979D01*
X46988500Y108089623D01*
X46985885Y108034409D01*
X46976006Y107980059D01*
X46955811Y107917318D01*
X46922245Y107836927D01*
X46872256Y107729629D01*
X46864332Y107713095D01*
X46803530Y107591780D01*
X46747582Y107495974D01*
X46688319Y107415966D01*
X46617573Y107342043D01*
X46527178Y107264494D01*
X46413425Y107176944D01*
X46325175Y107097720D01*
X46237862Y106996564D01*
X46198443Y106941556D01*
X46103551Y106816954D01*
X45987698Y106700009D01*
X45843056Y106583321D01*
X45750250Y106517829D01*
X45630047Y106442003D01*
X45503693Y106372225D01*
X45382416Y106314076D01*
X45277445Y106273134D01*
X45231666Y106260183D01*
X45112988Y106244059D01*
X44967877Y106241385D01*
X44809951Y106251898D01*
X44676059Y106270958D01*
X44515024Y106306493D01*
X44374245Y106350278D01*
X44262368Y106399366D01*
X44216112Y106427683D01*
X44180666Y106456351D01*
X44161612Y106487001D01*
X44154066Y106533303D01*
X44153107Y106604067D01*
X44154048Y106734917D01*
X44440703Y106922661D01*
X44568811Y107008736D01*
X44714607Y107110385D01*
X44872942Y107223705D01*
X45038668Y107344793D01*
X45206634Y107469746D01*
X45371692Y107594660D01*
X45528692Y107715633D01*
X45672486Y107828760D01*
X45797922Y107930140D01*
X45899854Y108015869D01*
X45973130Y108082044D01*
X45983083Y108091780D01*
X46089837Y108191597D01*
X46184942Y108264919D01*
X46280108Y108320557D01*
X46300262Y108330377D01*
X46375634Y108364459D01*
X46434741Y108384645D01*
X46493483Y108393912D01*
X46567756Y108395239D01*
X46635172Y108393129D01*
G36*
X64456101Y110814231D02*
G01*
X64586105Y110791612D01*
X64708984Y110760249D01*
X64761003Y110742750D01*
X64928603Y110663078D01*
X65078061Y110557960D01*
X65204896Y110432956D01*
X65304626Y110293626D01*
X65372769Y110145529D01*
X65404844Y109994227D01*
X65406721Y109941667D01*
X65395914Y109834461D01*
X65367740Y109699930D01*
X65325165Y109547881D01*
X65271153Y109388119D01*
X65208669Y109230452D01*
X65158286Y109120001D01*
X65099332Y109003932D01*
X65046652Y108914286D01*
X64991305Y108837982D01*
X64924346Y108761941D01*
X64887206Y108723469D01*
X64770104Y108615082D01*
X64664363Y108538699D01*
X64618350Y108514203D01*
X64565478Y108495476D01*
X64479909Y108471286D01*
X64370503Y108443579D01*
X64246119Y108414298D01*
X64115617Y108385388D01*
X63987857Y108358794D01*
X63871699Y108336460D01*
X63776004Y108320330D01*
X63709630Y108312349D01*
X63696273Y108311834D01*
X63640119Y108304170D01*
X63593700Y108290648D01*
X63537977Y108269463D01*
X63579921Y108210559D01*
X63612801Y108148150D01*
X63635965Y108076176D01*
X63636983Y108071061D01*
X63643124Y108026641D01*
X63637226Y107993391D01*
X63613127Y107959728D01*
X63564664Y107914068D01*
X63543616Y107895566D01*
X63479056Y107833995D01*
X63402400Y107753378D01*
X63327312Y107668262D01*
X63306001Y107642638D01*
X63176874Y107484613D01*
X63233162Y107369563D01*
X63281172Y107280551D01*
X63327302Y107224614D01*
X63382581Y107195704D01*
X63458039Y107187771D01*
X63553850Y107193715D01*
X63634514Y107201243D01*
X63745219Y107211363D01*
X63873832Y107222976D01*
X64008223Y107234983D01*
X64070000Y107240456D01*
X64210190Y107254583D01*
X64357195Y107272362D01*
X64496450Y107291846D01*
X64613394Y107311089D01*
X64647916Y107317721D01*
X64740991Y107335493D01*
X64817901Y107348065D01*
X64869774Y107354122D01*
X64887517Y107353205D01*
X64884789Y107329953D01*
X64865701Y107282777D01*
X64849410Y107250260D01*
X64825212Y107198066D01*
X64810398Y107144088D01*
X64802848Y107075661D01*
X64800446Y106980123D01*
X64800397Y106957167D01*
X64801882Y106856546D01*
X64808078Y106783923D01*
X64821648Y106725011D01*
X64845257Y106665525D01*
X64860915Y106632618D01*
X64935759Y106510808D01*
X65037962Y106387026D01*
X65155267Y106274227D01*
X65275416Y106185362D01*
X65295419Y106173466D01*
X65378741Y106121112D01*
X65462240Y106061067D01*
X65514400Y106018078D01*
X65658727Y105913670D01*
X65816875Y105848612D01*
X65986583Y105823092D01*
X66165587Y105837301D01*
X66351623Y105891429D01*
X66457195Y105938826D01*
X66521500Y105975842D01*
X66598981Y106027243D01*
X66682197Y106087210D01*
X66763708Y106149924D01*
X66836072Y106209566D01*
X66891850Y106260318D01*
X66923601Y106296359D01*
X66928143Y106307134D01*
X66935720Y106315859D01*
X66946720Y106301000D01*
X66953972Y106269463D01*
X66961912Y106203935D01*
X66969762Y106112732D01*
X66976745Y106004173D01*
X66979402Y105951750D01*
X66988138Y105791378D01*
X66998544Y105665940D01*
X67012053Y105568041D01*
X67030093Y105490281D01*
X67054094Y105425265D01*
X67085486Y105365593D01*
X67096007Y105348500D01*
X67143536Y105249058D01*
X67168823Y105130382D01*
X67170465Y105115667D01*
X67180841Y105031458D01*
X67193136Y104954064D01*
X67202309Y104910249D01*
X67209315Y104853088D01*
X67191506Y104818883D01*
X67190191Y104817764D01*
X67165988Y104787283D01*
X67129601Y104729557D01*
X67086335Y104654466D01*
X67041494Y104571893D01*
X67000382Y104491720D01*
X66968305Y104423828D01*
X66950565Y104378100D01*
X66948666Y104367815D01*
X66930738Y104337331D01*
X66884768Y104299568D01*
X66822473Y104261778D01*
X66755574Y104231210D01*
X66703797Y104216313D01*
X66667638Y104214947D01*
X66631062Y104228032D01*
X66584636Y104260871D01*
X66518930Y104318770D01*
X66514750Y104322621D01*
X66431766Y104391120D01*
X66336642Y104457785D01*
X66250611Y104507838D01*
X66172699Y104543744D01*
X66107780Y104564259D01*
X66037428Y104573433D01*
X65943695Y104575321D01*
X65868429Y104573813D01*
X65806937Y104567790D01*
X65748754Y104554098D01*
X65683413Y104529585D01*
X65600449Y104491098D01*
X65503869Y104442819D01*
X65479698Y104451979D01*
X65435508Y104486769D01*
X65378150Y104540107D01*
X65314475Y104604910D01*
X65251334Y104674096D01*
X65195578Y104740582D01*
X65154058Y104797286D01*
X65142618Y104816286D01*
X65114808Y104877371D01*
X65080771Y104967057D01*
X65044941Y105072976D01*
X65013628Y105176145D01*
X64983355Y105284025D01*
X64964021Y105360315D01*
X64954507Y105414007D01*
X64953692Y105454092D01*
X64960458Y105489559D01*
X64970698Y105520996D01*
X64994973Y105632568D01*
X65000581Y105763931D01*
X64987973Y105897106D01*
X64958370Y106012075D01*
X64904983Y106126704D01*
X64827712Y106255122D01*
X64732678Y106390078D01*
X64626001Y106524322D01*
X64513801Y106650603D01*
X64402199Y106761671D01*
X64297315Y106850276D01*
X64205271Y106909167D01*
X64198200Y106912586D01*
X64140117Y106937651D01*
X64086422Y106953801D01*
X64025053Y106962933D01*
X63943953Y106966946D01*
X63847750Y106967750D01*
X63740570Y106966743D01*
X63663389Y106962363D01*
X63603892Y106952578D01*
X63549765Y106935354D01*
X63488695Y106908655D01*
X63487979Y106908319D01*
X63414850Y106871075D01*
X63352282Y106833963D01*
X63318637Y106809051D01*
X63272627Y106780568D01*
X63205409Y106754672D01*
X63173538Y106746200D01*
X63039644Y106703946D01*
X62918435Y106636572D01*
X62863500Y106596107D01*
X62796090Y106556028D01*
X62713944Y106523878D01*
X62683025Y106515948D01*
X62606925Y106495050D01*
X62515072Y106462345D01*
X62419811Y106423104D01*
X62333486Y106382595D01*
X62268443Y106346088D01*
X62245932Y106329371D01*
X62203314Y106304644D01*
X62140167Y106282068D01*
X62118889Y106276692D01*
X62060175Y106257269D01*
X61978451Y106222139D01*
X61887068Y106177274D01*
X61839303Y106151602D01*
X61756295Y106107358D01*
X61684121Y106072381D01*
X61632528Y106051209D01*
X61614744Y106047000D01*
X61577812Y106037738D01*
X61517457Y106013571D01*
X61453607Y105983141D01*
X61328916Y105919282D01*
X61239093Y106016790D01*
X61179847Y106086981D01*
X61114121Y106173659D01*
X61061521Y106249982D01*
X61009321Y106325050D01*
X60969144Y106367960D01*
X60934855Y106384793D01*
X60924618Y106385667D01*
X60890627Y106377573D01*
X60867770Y106346352D01*
X60851300Y106295928D01*
X60837199Y106162576D01*
X60862920Y106015904D01*
X60905973Y105902619D01*
X60932605Y105839884D01*
X60948140Y105794098D01*
X60949678Y105777123D01*
X60929054Y105766439D01*
X60875482Y105740720D01*
X60794434Y105702495D01*
X60691382Y105654288D01*
X60571800Y105598628D01*
X60441160Y105538041D01*
X60304934Y105475053D01*
X60168596Y105412192D01*
X60037618Y105351984D01*
X59917472Y105296955D01*
X59813632Y105249634D01*
X59731570Y105212545D01*
X59676759Y105188217D01*
X59654671Y105179176D01*
X59654568Y105179167D01*
X59648929Y105197757D01*
X59646211Y105243246D01*
X59646166Y105250589D01*
X59627514Y105368526D01*
X59572596Y105501502D01*
X59501200Y105619560D01*
X59443113Y105705252D01*
X59380492Y105798897D01*
X59342465Y105856500D01*
X59297391Y105920278D01*
X59233431Y106004241D01*
X59159628Y106096762D01*
X59095447Y106174000D01*
X59019786Y106263860D01*
X58945084Y106353922D01*
X58880656Y106432883D01*
X58840624Y106483220D01*
X58756593Y106591357D01*
X58840337Y106682972D01*
X58919631Y106782950D01*
X58985899Y106891577D01*
X59030889Y106994477D01*
X59041739Y107033858D01*
X59041684Y107090233D01*
X59011650Y107116840D01*
X58951895Y107113538D01*
X58915853Y107102429D01*
X58859521Y107088861D01*
X58815994Y107089634D01*
X58814013Y107090313D01*
X58792435Y107116293D01*
X58763983Y107176454D01*
X58731736Y107263831D01*
X58716686Y107310560D01*
X58685912Y107403919D01*
X58655219Y107486609D01*
X58629047Y107547126D01*
X58617205Y107568232D01*
X58581898Y107618380D01*
X58551046Y107547065D01*
X58527173Y107487166D01*
X58497970Y107407494D01*
X58477758Y107348967D01*
X58448171Y107270943D01*
X58415831Y107201125D01*
X58394703Y107165140D01*
X58354083Y107108095D01*
X58232833Y107164327D01*
X58100332Y107207086D01*
X57955482Y107222407D01*
X57809301Y107211503D01*
X57672807Y107175587D01*
X57557018Y107115871D01*
X57519180Y107085784D01*
X57475160Y107057527D01*
X57408237Y107026772D01*
X57361437Y107009698D01*
X57198748Y106947906D01*
X57010020Y106860568D01*
X56800634Y106750508D01*
X56575972Y106620549D01*
X56350319Y106479297D01*
X56176554Y106366572D01*
X56047943Y106452455D01*
X55927774Y106548181D01*
X55831498Y106656283D01*
X55766247Y106768060D01*
X55748878Y106817344D01*
X55737861Y106889571D01*
X55733624Y106997143D01*
X55736386Y107133580D01*
X55737431Y107156424D01*
X55743394Y107265392D01*
X55750373Y107342808D01*
X55760828Y107399431D01*
X55777218Y107446019D01*
X55802002Y107493329D01*
X55822112Y107526841D01*
X55862670Y107597004D01*
X55895122Y107660119D01*
X55910305Y107696586D01*
X55929740Y107746088D01*
X55960673Y107812029D01*
X55976406Y107842613D01*
X56005498Y107901803D01*
X56023644Y107947334D01*
X56026666Y107961225D01*
X56040285Y107988186D01*
X56075768Y108034462D01*
X56119107Y108083170D01*
X56202303Y108181264D01*
X56259432Y108276601D01*
X56295163Y108381312D01*
X56314166Y108507531D01*
X56319677Y108604369D01*
X56326939Y108822821D01*
X56457261Y108918879D01*
X56661766Y109049389D01*
X56880740Y109152641D01*
X57039795Y109206121D01*
X57103060Y109222077D01*
X57166084Y109233861D01*
X57236918Y109242106D01*
X57323614Y109247447D01*
X57434223Y109250517D01*
X57576795Y109251948D01*
X57624750Y109252146D01*
X58048083Y109253521D01*
X58184240Y109183201D01*
X58269307Y109136921D01*
X58354201Y109086970D01*
X58411905Y109049922D01*
X58550883Y108967379D01*
X58718136Y108889187D01*
X58899645Y108821475D01*
X59011166Y108787991D01*
X59092163Y108764982D01*
X59204075Y108731688D01*
X59337574Y108690966D01*
X59483333Y108645668D01*
X59632024Y108598650D01*
X59677916Y108583959D01*
X59865664Y108524893D01*
X60020268Y108479813D01*
X60148262Y108447954D01*
X60256182Y108428549D01*
X60350563Y108420832D01*
X60437939Y108424036D01*
X60524846Y108437395D01*
X60617818Y108460142D01*
X60651583Y108469765D01*
X60763157Y108505920D01*
X60884492Y108550758D01*
X60992249Y108595570D01*
X61008208Y108602870D01*
X61100496Y108649313D01*
X61167199Y108693627D01*
X61222910Y108747023D01*
X61268737Y108802983D01*
X61317048Y108862719D01*
X61356824Y108906372D01*
X61380241Y108925436D01*
X61381553Y108925667D01*
X61402470Y108939599D01*
X61447970Y108978004D01*
X61512326Y109035798D01*
X61589815Y109107897D01*
X61633532Y109149481D01*
X61773620Y109290627D01*
X61892134Y109427083D01*
X62003699Y109576111D01*
X62041505Y109631023D01*
X62155775Y109792529D01*
X62258626Y109922882D01*
X62348469Y110020393D01*
X62423716Y110083375D01*
X62482779Y110110139D01*
X62493094Y110111000D01*
X62546733Y110117472D01*
X62600641Y110140323D01*
X62663586Y110184706D01*
X62744337Y110255778D01*
X62752744Y110263628D01*
X62845677Y110338805D01*
X62958683Y110407243D01*
X63097313Y110471522D01*
X63267115Y110534218D01*
X63470131Y110596904D01*
X63595918Y110633962D01*
X63726507Y110673950D01*
X63847098Y110712248D01*
X63942889Y110744237D01*
X63949093Y110746404D01*
X64045516Y110777614D01*
X64140289Y110803869D01*
X64217234Y110820819D01*
X64236527Y110823697D01*
X64334423Y110825721D01*
X64456101Y110814231D01*
G37*
X64456101Y110814231D02*
X64586105Y110791612D01*
X64708984Y110760249D01*
X64761003Y110742750D01*
X64928603Y110663078D01*
X65078061Y110557960D01*
X65204896Y110432956D01*
X65304626Y110293626D01*
X65372769Y110145529D01*
X65404844Y109994227D01*
X65406721Y109941667D01*
X65395914Y109834461D01*
X65367740Y109699930D01*
X65325165Y109547881D01*
X65271153Y109388119D01*
X65208669Y109230452D01*
X65158286Y109120001D01*
X65099332Y109003932D01*
X65046652Y108914286D01*
X64991305Y108837982D01*
X64924346Y108761941D01*
X64887206Y108723469D01*
X64770104Y108615082D01*
X64664363Y108538699D01*
X64618350Y108514203D01*
X64565478Y108495476D01*
X64479909Y108471286D01*
X64370503Y108443579D01*
X64246119Y108414298D01*
X64115617Y108385388D01*
X63987857Y108358794D01*
X63871699Y108336460D01*
X63776004Y108320330D01*
X63709630Y108312349D01*
X63696273Y108311834D01*
X63640119Y108304170D01*
X63593700Y108290648D01*
X63537977Y108269463D01*
X63579921Y108210559D01*
X63612801Y108148150D01*
X63635965Y108076176D01*
X63636983Y108071061D01*
X63643124Y108026641D01*
X63637226Y107993391D01*
X63613127Y107959728D01*
X63564664Y107914068D01*
X63543616Y107895566D01*
X63479056Y107833995D01*
X63402400Y107753378D01*
X63327312Y107668262D01*
X63306001Y107642638D01*
X63176874Y107484613D01*
X63233162Y107369563D01*
X63281172Y107280551D01*
X63327302Y107224614D01*
X63382581Y107195704D01*
X63458039Y107187771D01*
X63553850Y107193715D01*
X63634514Y107201243D01*
X63745219Y107211363D01*
X63873832Y107222976D01*
X64008223Y107234983D01*
X64070000Y107240456D01*
X64210190Y107254583D01*
X64357195Y107272362D01*
X64496450Y107291846D01*
X64613394Y107311089D01*
X64647916Y107317721D01*
X64740991Y107335493D01*
X64817901Y107348065D01*
X64869774Y107354122D01*
X64887517Y107353205D01*
X64884789Y107329953D01*
X64865701Y107282777D01*
X64849410Y107250260D01*
X64825212Y107198066D01*
X64810398Y107144088D01*
X64802848Y107075661D01*
X64800446Y106980123D01*
X64800397Y106957167D01*
X64801882Y106856546D01*
X64808078Y106783923D01*
X64821648Y106725011D01*
X64845257Y106665525D01*
X64860915Y106632618D01*
X64935759Y106510808D01*
X65037962Y106387026D01*
X65155267Y106274227D01*
X65275416Y106185362D01*
X65295419Y106173466D01*
X65378741Y106121112D01*
X65462240Y106061067D01*
X65514400Y106018078D01*
X65658727Y105913670D01*
X65816875Y105848612D01*
X65986583Y105823092D01*
X66165587Y105837301D01*
X66351623Y105891429D01*
X66457195Y105938826D01*
X66521500Y105975842D01*
X66598981Y106027243D01*
X66682197Y106087210D01*
X66763708Y106149924D01*
X66836072Y106209566D01*
X66891850Y106260318D01*
X66923601Y106296359D01*
X66928143Y106307134D01*
X66935720Y106315859D01*
X66946720Y106301000D01*
X66953972Y106269463D01*
X66961912Y106203935D01*
X66969762Y106112732D01*
X66976745Y106004173D01*
X66979402Y105951750D01*
X66988138Y105791378D01*
X66998544Y105665940D01*
X67012053Y105568041D01*
X67030093Y105490281D01*
X67054094Y105425265D01*
X67085486Y105365593D01*
X67096007Y105348500D01*
X67143536Y105249058D01*
X67168823Y105130382D01*
X67170465Y105115667D01*
X67180841Y105031458D01*
X67193136Y104954064D01*
X67202309Y104910249D01*
X67209315Y104853088D01*
X67191506Y104818883D01*
X67190191Y104817764D01*
X67165988Y104787283D01*
X67129601Y104729557D01*
X67086335Y104654466D01*
X67041494Y104571893D01*
X67000382Y104491720D01*
X66968305Y104423828D01*
X66950565Y104378100D01*
X66948666Y104367815D01*
X66930738Y104337331D01*
X66884768Y104299568D01*
X66822473Y104261778D01*
X66755574Y104231210D01*
X66703797Y104216313D01*
X66667638Y104214947D01*
X66631062Y104228032D01*
X66584636Y104260871D01*
X66518930Y104318770D01*
X66514750Y104322621D01*
X66431766Y104391120D01*
X66336642Y104457785D01*
X66250611Y104507838D01*
X66172699Y104543744D01*
X66107780Y104564259D01*
X66037428Y104573433D01*
X65943695Y104575321D01*
X65868429Y104573813D01*
X65806937Y104567790D01*
X65748754Y104554098D01*
X65683413Y104529585D01*
X65600449Y104491098D01*
X65503869Y104442819D01*
X65479698Y104451979D01*
X65435508Y104486769D01*
X65378150Y104540107D01*
X65314475Y104604910D01*
X65251334Y104674096D01*
X65195578Y104740582D01*
X65154058Y104797286D01*
X65142618Y104816286D01*
X65114808Y104877371D01*
X65080771Y104967057D01*
X65044941Y105072976D01*
X65013628Y105176145D01*
X64983355Y105284025D01*
X64964021Y105360315D01*
X64954507Y105414007D01*
X64953692Y105454092D01*
X64960458Y105489559D01*
X64970698Y105520996D01*
X64994973Y105632568D01*
X65000581Y105763931D01*
X64987973Y105897106D01*
X64958370Y106012075D01*
X64904983Y106126704D01*
X64827712Y106255122D01*
X64732678Y106390078D01*
X64626001Y106524322D01*
X64513801Y106650603D01*
X64402199Y106761671D01*
X64297315Y106850276D01*
X64205271Y106909167D01*
X64198200Y106912586D01*
X64140117Y106937651D01*
X64086422Y106953801D01*
X64025053Y106962933D01*
X63943953Y106966946D01*
X63847750Y106967750D01*
X63740570Y106966743D01*
X63663389Y106962363D01*
X63603892Y106952578D01*
X63549765Y106935354D01*
X63488695Y106908655D01*
X63487979Y106908319D01*
X63414850Y106871075D01*
X63352282Y106833963D01*
X63318637Y106809051D01*
X63272627Y106780568D01*
X63205409Y106754672D01*
X63173538Y106746200D01*
X63039644Y106703946D01*
X62918435Y106636572D01*
X62863500Y106596107D01*
X62796090Y106556028D01*
X62713944Y106523878D01*
X62683025Y106515948D01*
X62606925Y106495050D01*
X62515072Y106462345D01*
X62419811Y106423104D01*
X62333486Y106382595D01*
X62268443Y106346088D01*
X62245932Y106329371D01*
X62203314Y106304644D01*
X62140167Y106282068D01*
X62118889Y106276692D01*
X62060175Y106257269D01*
X61978451Y106222139D01*
X61887068Y106177274D01*
X61839303Y106151602D01*
X61756295Y106107358D01*
X61684121Y106072381D01*
X61632528Y106051209D01*
X61614744Y106047000D01*
X61577812Y106037738D01*
X61517457Y106013571D01*
X61453607Y105983141D01*
X61328916Y105919282D01*
X61239093Y106016790D01*
X61179847Y106086981D01*
X61114121Y106173659D01*
X61061521Y106249982D01*
X61009321Y106325050D01*
X60969144Y106367960D01*
X60934855Y106384793D01*
X60924618Y106385667D01*
X60890627Y106377573D01*
X60867770Y106346352D01*
X60851300Y106295928D01*
X60837199Y106162576D01*
X60862920Y106015904D01*
X60905973Y105902619D01*
X60932605Y105839884D01*
X60948140Y105794098D01*
X60949678Y105777123D01*
X60929054Y105766439D01*
X60875482Y105740720D01*
X60794434Y105702495D01*
X60691382Y105654288D01*
X60571800Y105598628D01*
X60441160Y105538041D01*
X60304934Y105475053D01*
X60168596Y105412192D01*
X60037618Y105351984D01*
X59917472Y105296955D01*
X59813632Y105249634D01*
X59731570Y105212545D01*
X59676759Y105188217D01*
X59654671Y105179176D01*
X59654568Y105179167D01*
X59648929Y105197757D01*
X59646211Y105243246D01*
X59646166Y105250589D01*
X59627514Y105368526D01*
X59572596Y105501502D01*
X59501200Y105619560D01*
X59443113Y105705252D01*
X59380492Y105798897D01*
X59342465Y105856500D01*
X59297391Y105920278D01*
X59233431Y106004241D01*
X59159628Y106096762D01*
X59095447Y106174000D01*
X59019786Y106263860D01*
X58945084Y106353922D01*
X58880656Y106432883D01*
X58840624Y106483220D01*
X58756593Y106591357D01*
X58840337Y106682972D01*
X58919631Y106782950D01*
X58985899Y106891577D01*
X59030889Y106994477D01*
X59041739Y107033858D01*
X59041684Y107090233D01*
X59011650Y107116840D01*
X58951895Y107113538D01*
X58915853Y107102429D01*
X58859521Y107088861D01*
X58815994Y107089634D01*
X58814013Y107090313D01*
X58792435Y107116293D01*
X58763983Y107176454D01*
X58731736Y107263831D01*
X58716686Y107310560D01*
X58685912Y107403919D01*
X58655219Y107486609D01*
X58629047Y107547126D01*
X58617205Y107568232D01*
X58581898Y107618380D01*
X58551046Y107547065D01*
X58527173Y107487166D01*
X58497970Y107407494D01*
X58477758Y107348967D01*
X58448171Y107270943D01*
X58415831Y107201125D01*
X58394703Y107165140D01*
X58354083Y107108095D01*
X58232833Y107164327D01*
X58100332Y107207086D01*
X57955482Y107222407D01*
X57809301Y107211503D01*
X57672807Y107175587D01*
X57557018Y107115871D01*
X57519180Y107085784D01*
X57475160Y107057527D01*
X57408237Y107026772D01*
X57361437Y107009698D01*
X57198748Y106947906D01*
X57010020Y106860568D01*
X56800634Y106750508D01*
X56575972Y106620549D01*
X56350319Y106479297D01*
X56176554Y106366572D01*
X56047943Y106452455D01*
X55927774Y106548181D01*
X55831498Y106656283D01*
X55766247Y106768060D01*
X55748878Y106817344D01*
X55737861Y106889571D01*
X55733624Y106997143D01*
X55736386Y107133580D01*
X55737431Y107156424D01*
X55743394Y107265392D01*
X55750373Y107342808D01*
X55760828Y107399431D01*
X55777218Y107446019D01*
X55802002Y107493329D01*
X55822112Y107526841D01*
X55862670Y107597004D01*
X55895122Y107660119D01*
X55910305Y107696586D01*
X55929740Y107746088D01*
X55960673Y107812029D01*
X55976406Y107842613D01*
X56005498Y107901803D01*
X56023644Y107947334D01*
X56026666Y107961225D01*
X56040285Y107988186D01*
X56075768Y108034462D01*
X56119107Y108083170D01*
X56202303Y108181264D01*
X56259432Y108276601D01*
X56295163Y108381312D01*
X56314166Y108507531D01*
X56319677Y108604369D01*
X56326939Y108822821D01*
X56457261Y108918879D01*
X56661766Y109049389D01*
X56880740Y109152641D01*
X57039795Y109206121D01*
X57103060Y109222077D01*
X57166084Y109233861D01*
X57236918Y109242106D01*
X57323614Y109247447D01*
X57434223Y109250517D01*
X57576795Y109251948D01*
X57624750Y109252146D01*
X58048083Y109253521D01*
X58184240Y109183201D01*
X58269307Y109136921D01*
X58354201Y109086970D01*
X58411905Y109049922D01*
X58550883Y108967379D01*
X58718136Y108889187D01*
X58899645Y108821475D01*
X59011166Y108787991D01*
X59092163Y108764982D01*
X59204075Y108731688D01*
X59337574Y108690966D01*
X59483333Y108645668D01*
X59632024Y108598650D01*
X59677916Y108583959D01*
X59865664Y108524893D01*
X60020268Y108479813D01*
X60148262Y108447954D01*
X60256182Y108428549D01*
X60350563Y108420832D01*
X60437939Y108424036D01*
X60524846Y108437395D01*
X60617818Y108460142D01*
X60651583Y108469765D01*
X60763157Y108505920D01*
X60884492Y108550758D01*
X60992249Y108595570D01*
X61008208Y108602870D01*
X61100496Y108649313D01*
X61167199Y108693627D01*
X61222910Y108747023D01*
X61268737Y108802983D01*
X61317048Y108862719D01*
X61356824Y108906372D01*
X61380241Y108925436D01*
X61381553Y108925667D01*
X61402470Y108939599D01*
X61447970Y108978004D01*
X61512326Y109035798D01*
X61589815Y109107897D01*
X61633532Y109149481D01*
X61773620Y109290627D01*
X61892134Y109427083D01*
X62003699Y109576111D01*
X62041505Y109631023D01*
X62155775Y109792529D01*
X62258626Y109922882D01*
X62348469Y110020393D01*
X62423716Y110083375D01*
X62482779Y110110139D01*
X62493094Y110111000D01*
X62546733Y110117472D01*
X62600641Y110140323D01*
X62663586Y110184706D01*
X62744337Y110255778D01*
X62752744Y110263628D01*
X62845677Y110338805D01*
X62958683Y110407243D01*
X63097313Y110471522D01*
X63267115Y110534218D01*
X63470131Y110596904D01*
X63595918Y110633962D01*
X63726507Y110673950D01*
X63847098Y110712248D01*
X63942889Y110744237D01*
X63949093Y110746404D01*
X64045516Y110777614D01*
X64140289Y110803869D01*
X64217234Y110820819D01*
X64236527Y110823697D01*
X64334423Y110825721D01*
X64456101Y110814231D01*
G36*
X67075021Y103682096D02*
G01*
X67082970Y103666663D01*
X67088386Y103636838D01*
X67074168Y103642627D01*
X67064212Y103656575D01*
X67057706Y103684279D01*
X67060348Y103689238D01*
X67075021Y103682096D01*
G37*
X67075021Y103682096D02*
X67082970Y103666663D01*
X67088386Y103636838D01*
X67074168Y103642627D01*
X67064212Y103656575D01*
X67057706Y103684279D01*
X67060348Y103689238D01*
X67075021Y103682096D01*
G36*
X64603304Y104706016D02*
G01*
X64648594Y104605312D01*
X64706419Y104511786D01*
X64786178Y104410763D01*
X64809889Y104383476D01*
X64869328Y104313749D01*
X64915277Y104255482D01*
X64942261Y104215900D01*
X64946781Y104202855D01*
X64922005Y104190601D01*
X64870742Y104177522D01*
X64847764Y104173333D01*
X64769749Y104155190D01*
X64685187Y104127920D01*
X64662666Y104119096D01*
X64579822Y104089304D01*
X64488563Y104062925D01*
X64462468Y104056778D01*
X64376240Y104031419D01*
X64286998Y103995406D01*
X64261385Y103982666D01*
X64192271Y103953067D01*
X64100208Y103923163D01*
X64004095Y103899027D01*
X63995916Y103897350D01*
X63917722Y103877949D01*
X63811226Y103846323D01*
X63687417Y103805998D01*
X63557289Y103760504D01*
X63477333Y103730898D01*
X63350871Y103683987D01*
X63225973Y103639542D01*
X63112995Y103601114D01*
X63022291Y103572256D01*
X62979916Y103560245D01*
X62900899Y103536997D01*
X62796613Y103502267D01*
X62680877Y103460830D01*
X62572111Y103419288D01*
X62473895Y103381025D01*
X62389282Y103349223D01*
X62326326Y103326825D01*
X62293078Y103316772D01*
X62290815Y103316500D01*
X62266921Y103330082D01*
X62220204Y103366627D01*
X62158431Y103419833D01*
X62116537Y103457905D01*
X62051012Y103518468D01*
X61998029Y103567163D01*
X61964624Y103597539D01*
X61956812Y103604357D01*
X61964607Y103617455D01*
X62007023Y103638508D01*
X62077666Y103664973D01*
X62170146Y103694304D01*
X62215202Y103707210D01*
X62307941Y103734470D01*
X62396297Y103762974D01*
X62463468Y103787257D01*
X62471916Y103790716D01*
X62535611Y103821142D01*
X62622157Y103867100D01*
X62718729Y103921343D01*
X62812496Y103976622D01*
X62890632Y104025687D01*
X62906242Y104036147D01*
X62964334Y104068947D01*
X63012076Y104088385D01*
X63075899Y104113028D01*
X63160481Y104152598D01*
X63250804Y104199388D01*
X63331853Y104245693D01*
X63379759Y104277088D01*
X63449955Y104318717D01*
X63524198Y104347765D01*
X63590058Y104360684D01*
X63635103Y104353930D01*
X63639178Y104351098D01*
X63674312Y104339534D01*
X63700615Y104355044D01*
X63702417Y104385664D01*
X63714646Y104410776D01*
X63766411Y104442257D01*
X63808104Y104460592D01*
X63888589Y104500092D01*
X63978609Y104554353D01*
X64043246Y104600069D01*
X64108737Y104646365D01*
X64166987Y104679634D01*
X64205560Y104692790D01*
X64205991Y104692799D01*
X64261034Y104704160D01*
X64335430Y104732779D01*
X64413785Y104771732D01*
X64480702Y104814096D01*
X64487787Y104819514D01*
X64542781Y104862773D01*
X64603304Y104706016D01*
G37*
X64603304Y104706016D02*
X64648594Y104605312D01*
X64706419Y104511786D01*
X64786178Y104410763D01*
X64809889Y104383476D01*
X64869328Y104313749D01*
X64915277Y104255482D01*
X64942261Y104215900D01*
X64946781Y104202855D01*
X64922005Y104190601D01*
X64870742Y104177522D01*
X64847764Y104173333D01*
X64769749Y104155190D01*
X64685187Y104127920D01*
X64662666Y104119096D01*
X64579822Y104089304D01*
X64488563Y104062925D01*
X64462468Y104056778D01*
X64376240Y104031419D01*
X64286998Y103995406D01*
X64261385Y103982666D01*
X64192271Y103953067D01*
X64100208Y103923163D01*
X64004095Y103899027D01*
X63995916Y103897350D01*
X63917722Y103877949D01*
X63811226Y103846323D01*
X63687417Y103805998D01*
X63557289Y103760504D01*
X63477333Y103730898D01*
X63350871Y103683987D01*
X63225973Y103639542D01*
X63112995Y103601114D01*
X63022291Y103572256D01*
X62979916Y103560245D01*
X62900899Y103536997D01*
X62796613Y103502267D01*
X62680877Y103460830D01*
X62572111Y103419288D01*
X62473895Y103381025D01*
X62389282Y103349223D01*
X62326326Y103326825D01*
X62293078Y103316772D01*
X62290815Y103316500D01*
X62266921Y103330082D01*
X62220204Y103366627D01*
X62158431Y103419833D01*
X62116537Y103457905D01*
X62051012Y103518468D01*
X61998029Y103567163D01*
X61964624Y103597539D01*
X61956812Y103604357D01*
X61964607Y103617455D01*
X62007023Y103638508D01*
X62077666Y103664973D01*
X62170146Y103694304D01*
X62215202Y103707210D01*
X62307941Y103734470D01*
X62396297Y103762974D01*
X62463468Y103787257D01*
X62471916Y103790716D01*
X62535611Y103821142D01*
X62622157Y103867100D01*
X62718729Y103921343D01*
X62812496Y103976622D01*
X62890632Y104025687D01*
X62906242Y104036147D01*
X62964334Y104068947D01*
X63012076Y104088385D01*
X63075899Y104113028D01*
X63160481Y104152598D01*
X63250804Y104199388D01*
X63331853Y104245693D01*
X63379759Y104277088D01*
X63449955Y104318717D01*
X63524198Y104347765D01*
X63590058Y104360684D01*
X63635103Y104353930D01*
X63639178Y104351098D01*
X63674312Y104339534D01*
X63700615Y104355044D01*
X63702417Y104385664D01*
X63714646Y104410776D01*
X63766411Y104442257D01*
X63808104Y104460592D01*
X63888589Y104500092D01*
X63978609Y104554353D01*
X64043246Y104600069D01*
X64108737Y104646365D01*
X64166987Y104679634D01*
X64205560Y104692790D01*
X64205991Y104692799D01*
X64261034Y104704160D01*
X64335430Y104732779D01*
X64413785Y104771732D01*
X64480702Y104814096D01*
X64487787Y104819514D01*
X64542781Y104862773D01*
X64603304Y104706016D01*
G36*
X26955249Y110058101D02*
G01*
X27079371Y110038938D01*
X27219594Y110002984D01*
X27368862Y109951335D01*
X27370931Y109950526D01*
X27477274Y109913203D01*
X27606273Y109874355D01*
X27738837Y109839483D01*
X27820077Y109821096D01*
X27971091Y109786943D01*
X28093872Y109750837D01*
X28201725Y109706923D01*
X28307959Y109649348D01*
X28425882Y109572257D01*
X28492141Y109525457D01*
X28594146Y109455088D01*
X28704965Y109383199D01*
X28808573Y109319990D01*
X28864881Y109288166D01*
X28924627Y109255222D01*
X28973182Y109224942D01*
X29016389Y109191502D01*
X29060089Y109149077D01*
X29110126Y109091844D01*
X29172340Y109013979D01*
X29252574Y108909656D01*
X29277929Y108876404D01*
X29473565Y108626587D01*
X29653283Y108412298D01*
X29819825Y108231067D01*
X29975931Y108080424D01*
X30124343Y107957896D01*
X30267801Y107861013D01*
X30409048Y107787305D01*
X30542000Y107737021D01*
X30624004Y107713988D01*
X30701467Y107699334D01*
X30788025Y107691467D01*
X30897312Y107688796D01*
X30954750Y107688850D01*
X31063994Y107691149D01*
X31162219Y107697881D01*
X31257672Y107710781D01*
X31358602Y107731587D01*
X31473256Y107762034D01*
X31609882Y107803860D01*
X31776729Y107858801D01*
X31801416Y107867114D01*
X31929813Y107908920D01*
X32073871Y107953443D01*
X32212914Y107994394D01*
X32294782Y108017188D01*
X32424477Y108053244D01*
X32528307Y108086012D01*
X32618269Y108120702D01*
X32706362Y108162523D01*
X32804582Y108216686D01*
X32924927Y108288401D01*
X32938939Y108296920D01*
X33059094Y108368691D01*
X33157465Y108422089D01*
X33243934Y108459552D01*
X33328386Y108483523D01*
X33420702Y108496441D01*
X33530766Y108500747D01*
X33668462Y108498880D01*
X33747233Y108496510D01*
X33891936Y108490917D01*
X34004386Y108483981D01*
X34094666Y108474474D01*
X34172855Y108461170D01*
X34249035Y108442840D01*
X34295008Y108429795D01*
X34550148Y108335478D01*
X34776553Y108211018D01*
X34976573Y108055007D01*
X35062089Y107970433D01*
X35200130Y107805847D01*
X35313743Y107629831D01*
X35404363Y107437838D01*
X35473426Y107225323D01*
X35522368Y106987739D01*
X35552622Y106720540D01*
X35565625Y106419179D01*
X35566153Y106373680D01*
X35569083Y106012442D01*
X35508119Y105920178D01*
X35415065Y105801790D01*
X35305159Y105708674D01*
X35193115Y105642780D01*
X35099132Y105602599D01*
X34974018Y105560391D01*
X34828687Y105519040D01*
X34674056Y105481426D01*
X34521041Y105450434D01*
X34385842Y105429592D01*
X34292035Y105418907D01*
X34224883Y105415527D01*
X34169126Y105420815D01*
X34109506Y105436132D01*
X34036738Y105460739D01*
X33819502Y105555844D01*
X33607088Y105684332D01*
X33405269Y105840392D01*
X33219819Y106018213D01*
X33056511Y106211985D01*
X32921118Y106415896D01*
X32819414Y106624137D01*
X32785420Y106720146D01*
X32763861Y106781526D01*
X32744679Y106822112D01*
X32735183Y106831964D01*
X32712982Y106813060D01*
X32682966Y106764570D01*
X32650027Y106697288D01*
X32619053Y106622010D01*
X32594936Y106549532D01*
X32583256Y106496561D01*
X32570884Y106417473D01*
X32554863Y106373234D01*
X32527461Y106356560D01*
X32480948Y106360165D01*
X32446478Y106367673D01*
X32327388Y106382769D01*
X32194379Y106379352D01*
X32059620Y106359603D01*
X31935282Y106325705D01*
X31833533Y106279837D01*
X31791606Y106250295D01*
X31755471Y106231476D01*
X31691560Y106208654D01*
X31613498Y106186674D01*
X31611031Y106186066D01*
X31542420Y106165184D01*
X31442346Y106129294D01*
X31317694Y106081318D01*
X31175350Y106024176D01*
X31022200Y105960790D01*
X30865128Y105894081D01*
X30711020Y105826971D01*
X30566763Y105762380D01*
X30439242Y105703230D01*
X30335342Y105652442D01*
X30266833Y105615786D01*
X30183334Y105569821D01*
X30103567Y105529775D01*
X30041940Y105502788D01*
X30031001Y105498900D01*
X29892278Y105433266D01*
X29769347Y105336023D01*
X29668010Y105214929D01*
X29594068Y105077744D01*
X29553324Y104932226D01*
X29547166Y104851848D01*
X29545896Y104806075D01*
X29537338Y104773280D01*
X29514376Y104744724D01*
X29469888Y104711668D01*
X29396758Y104665376D01*
X29393708Y104663480D01*
X29153381Y104526815D01*
X28920890Y104422043D01*
X28683754Y104343919D01*
X28561764Y104313705D01*
X28448253Y104286418D01*
X28340013Y104257000D01*
X28248871Y104228880D01*
X28186651Y104205481D01*
X28183958Y104204238D01*
X28106724Y104157799D01*
X28015405Y104087442D01*
X27918976Y104001843D01*
X27826408Y103909677D01*
X27746673Y103819619D01*
X27688745Y103740346D01*
X27671237Y103708494D01*
X27640322Y103632320D01*
X27634175Y103590289D01*
X27652835Y103582412D01*
X27696342Y103608698D01*
X27764733Y103669157D01*
X27849195Y103754476D01*
X27937660Y103845090D01*
X28013486Y103914591D01*
X28085006Y103966745D01*
X28160558Y104005319D01*
X28248475Y104034078D01*
X28357093Y104056788D01*
X28494747Y104077215D01*
X28590532Y104089422D01*
X28815508Y104126918D01*
X29048570Y104183091D01*
X29275758Y104253798D01*
X29483114Y104334894D01*
X29592208Y104386818D01*
X29633342Y104403722D01*
X29652897Y104403173D01*
X29653151Y104401836D01*
X29666383Y104380764D01*
X29702612Y104334161D01*
X29756814Y104268227D01*
X29823962Y104189163D01*
X29848943Y104160283D01*
X29954089Y104045081D01*
X30070358Y103927409D01*
X30189144Y103815276D01*
X30301840Y103716691D01*
X30399838Y103639665D01*
X30433206Y103616546D01*
X30467106Y103592342D01*
X30466875Y103579303D01*
X30438788Y103567328D01*
X30403521Y103557884D01*
X30334778Y103542408D01*
X30240699Y103522626D01*
X30129423Y103500269D01*
X30054227Y103485654D01*
X29927319Y103460291D01*
X29803917Y103433815D01*
X29694952Y103408697D01*
X29611360Y103387409D01*
X29582978Y103379126D01*
X29488040Y103354530D01*
X29378798Y103333824D01*
X29303750Y103324114D01*
X29220599Y103314286D01*
X29147658Y103301988D01*
X29102666Y103290482D01*
X29049750Y103270593D01*
X29123833Y103232802D01*
X29191914Y103206209D01*
X29273947Y103184766D01*
X29301815Y103179872D01*
X29397171Y103162812D01*
X29459151Y103141753D01*
X29496699Y103111600D01*
X29518758Y103067254D01*
X29522729Y103053979D01*
X29529892Y103024516D01*
X29530119Y102999148D01*
X29519279Y102971869D01*
X29493239Y102936673D01*
X29447869Y102887553D01*
X29379036Y102818504D01*
X29322271Y102762564D01*
X29207177Y102652049D01*
X29110334Y102566842D01*
X29022187Y102500330D01*
X28933181Y102445901D01*
X28833761Y102396942D01*
X28731416Y102353675D01*
X28645031Y102321723D01*
X28540225Y102287280D01*
X28426821Y102253083D01*
X28314637Y102221870D01*
X28213494Y102196380D01*
X28133212Y102179350D01*
X28085177Y102173500D01*
X28050127Y102194297D01*
X28022387Y102252875D01*
X27953575Y102402760D01*
X27849900Y102538682D01*
X27718358Y102652986D01*
X27587563Y102728493D01*
X27532479Y102750722D01*
X27476136Y102764964D01*
X27406883Y102772878D01*
X27313071Y102776126D01*
X27250583Y102776523D01*
X27142657Y102775549D01*
X27064957Y102771111D01*
X27005402Y102761303D01*
X26951913Y102744222D01*
X26899089Y102721108D01*
X26780428Y102665466D01*
X26744404Y102726451D01*
X26700339Y102786214D01*
X26631647Y102862448D01*
X26547556Y102946205D01*
X26457291Y103028537D01*
X26370080Y103100498D01*
X26323297Y103134810D01*
X26263177Y103178492D01*
X26220001Y103214274D01*
X26202850Y103234609D01*
X26202833Y103234916D01*
X26217275Y103257206D01*
X26254896Y103298110D01*
X26300579Y103342228D01*
X26370361Y103412436D01*
X26439441Y103495124D01*
X26511508Y103595728D01*
X26590252Y103719685D01*
X26679363Y103872433D01*
X26763502Y104024351D01*
X26846516Y104175786D01*
X26913612Y104294702D01*
X26968492Y104386089D01*
X27014856Y104454941D01*
X27056408Y104506250D01*
X27096848Y104545007D01*
X27139879Y104576205D01*
X27189202Y104604836D01*
X27197076Y104609060D01*
X27340930Y104700852D01*
X27471215Y104812921D01*
X27581542Y104937777D01*
X27665524Y105067928D01*
X27716775Y105195883D01*
X27723748Y105226776D01*
X27732628Y105286990D01*
X27734226Y105327753D01*
X27731862Y105336416D01*
X27713001Y105328062D01*
X27674305Y105295900D01*
X27631117Y105253901D01*
X27522440Y105169400D01*
X27390391Y105116897D01*
X27231800Y105095240D01*
X27192346Y105094500D01*
X27109252Y105098900D01*
X27046728Y105116172D01*
X26983555Y105152431D01*
X26977934Y105156268D01*
X26905191Y105221219D01*
X26855507Y105294967D01*
X26853670Y105299143D01*
X26824165Y105368501D01*
X26789191Y105450668D01*
X26774111Y105486084D01*
X26729040Y105591917D01*
X26696376Y105517834D01*
X26673334Y105457224D01*
X26646770Y105375310D01*
X26626926Y105306167D01*
X26599605Y105214336D01*
X26559341Y105092459D01*
X26509484Y104949563D01*
X26453385Y104794676D01*
X26394393Y104636823D01*
X26335860Y104485033D01*
X26281135Y104348331D01*
X26233568Y104235744D01*
X26211722Y104187477D01*
X26106284Y103986982D01*
X25994297Y103819529D01*
X25878394Y103688797D01*
X25816906Y103636134D01*
X25707820Y103552951D01*
X25590202Y103644099D01*
X25518054Y103696936D01*
X25447092Y103743922D01*
X25398500Y103771789D01*
X25354341Y103800787D01*
X25289284Y103852514D01*
X25212179Y103919580D01*
X25133916Y103992624D01*
X25039930Y104079982D01*
X24935869Y104171018D01*
X24836218Y104253317D01*
X24774085Y104301104D01*
X24683222Y104371533D01*
X24589434Y104450403D01*
X24509011Y104523847D01*
X24488335Y104544371D01*
X24425755Y104605879D01*
X24368074Y104658275D01*
X24326572Y104691374D01*
X24322820Y104693811D01*
X24290417Y104719483D01*
X24285970Y104749630D01*
X24298515Y104787629D01*
X24308138Y104830018D01*
X24318626Y104905905D01*
X24329022Y105006494D01*
X24338370Y105122988D01*
X24343155Y105198189D01*
X24358007Y105390166D01*
X24380983Y105551766D01*
X24415894Y105694257D01*
X24466550Y105828907D01*
X24536762Y105966986D01*
X24630341Y106119762D01*
X24680321Y106195167D01*
X24748471Y106289551D01*
X24810739Y106356799D01*
X24879558Y106407944D01*
X24967359Y106454018D01*
X24977127Y106458525D01*
X25079394Y106502797D01*
X25174920Y106537381D01*
X25271170Y106563440D01*
X25375609Y106582134D01*
X25495704Y106594626D01*
X25638918Y106602075D01*
X25812718Y106605644D01*
X25927666Y106606385D01*
X26126558Y106605883D01*
X26293563Y106602408D01*
X26439080Y106595023D01*
X26573506Y106582790D01*
X26707239Y106564772D01*
X26850678Y106540033D01*
X27007166Y106509088D01*
X27070621Y106498145D01*
X27160396Y106485518D01*
X27269303Y106471930D01*
X27390155Y106458102D01*
X27515766Y106444756D01*
X27638947Y106432615D01*
X27752512Y106422401D01*
X27849274Y106414836D01*
X27922044Y106410642D01*
X27963636Y106410541D01*
X27970521Y106412289D01*
X27982391Y106431513D01*
X28010470Y106477451D01*
X28048978Y106540641D01*
X28053906Y106548738D01*
X28095539Y106620462D01*
X28116681Y106669039D01*
X28120878Y106706170D01*
X28112374Y106741573D01*
X28069816Y106834561D01*
X28009085Y106930095D01*
X27937733Y107019405D01*
X27863316Y107093716D01*
X27793387Y107144257D01*
X27751425Y107160740D01*
X27707598Y107173797D01*
X27688720Y107198792D01*
X27684510Y107250299D01*
X27684500Y107255635D01*
X27696211Y107331027D01*
X27724616Y107402836D01*
X27726754Y107406447D01*
X27760487Y107471230D01*
X27764631Y107509860D01*
X27738773Y107526861D01*
X27715570Y107528667D01*
X27659218Y107536945D01*
X27594075Y107557096D01*
X27588619Y107559317D01*
X27532301Y107576950D01*
X27449987Y107595737D01*
X27357751Y107612095D01*
X27340590Y107614611D01*
X27154389Y107641365D01*
X27004268Y107664881D01*
X26884320Y107687318D01*
X26788636Y107710838D01*
X26711310Y107737601D01*
X26646434Y107769768D01*
X26588100Y107809501D01*
X26530401Y107858959D01*
X26467429Y107920303D01*
X26446250Y107941730D01*
X26296622Y108118260D01*
X26164095Y108323078D01*
X26056466Y108543176D01*
X26009035Y108671134D01*
X25961182Y108861689D01*
X25940164Y109051520D01*
X25945553Y109232927D01*
X25976926Y109398215D01*
X26033855Y109539686D01*
X26059397Y109581644D01*
X26095723Y109625937D01*
X26154893Y109688061D01*
X26227501Y109758424D01*
X26277636Y109804202D01*
X26357189Y109873391D01*
X26416977Y109919559D01*
X26467794Y109948980D01*
X26520435Y109967929D01*
X26584282Y109982400D01*
X26666726Y110001725D01*
X26741418Y110024476D01*
X26783536Y110041676D01*
X26854286Y110059379D01*
X26955249Y110058101D01*
G37*
X26955249Y110058101D02*
X27079371Y110038938D01*
X27219594Y110002984D01*
X27368862Y109951335D01*
X27370931Y109950526D01*
X27477274Y109913203D01*
X27606273Y109874355D01*
X27738837Y109839483D01*
X27820077Y109821096D01*
X27971091Y109786943D01*
X28093872Y109750837D01*
X28201725Y109706923D01*
X28307959Y109649348D01*
X28425882Y109572257D01*
X28492141Y109525457D01*
X28594146Y109455088D01*
X28704965Y109383199D01*
X28808573Y109319990D01*
X28864881Y109288166D01*
X28924627Y109255222D01*
X28973182Y109224942D01*
X29016389Y109191502D01*
X29060089Y109149077D01*
X29110126Y109091844D01*
X29172340Y109013979D01*
X29252574Y108909656D01*
X29277929Y108876404D01*
X29473565Y108626587D01*
X29653283Y108412298D01*
X29819825Y108231067D01*
X29975931Y108080424D01*
X30124343Y107957896D01*
X30267801Y107861013D01*
X30409048Y107787305D01*
X30542000Y107737021D01*
X30624004Y107713988D01*
X30701467Y107699334D01*
X30788025Y107691467D01*
X30897312Y107688796D01*
X30954750Y107688850D01*
X31063994Y107691149D01*
X31162219Y107697881D01*
X31257672Y107710781D01*
X31358602Y107731587D01*
X31473256Y107762034D01*
X31609882Y107803860D01*
X31776729Y107858801D01*
X31801416Y107867114D01*
X31929813Y107908920D01*
X32073871Y107953443D01*
X32212914Y107994394D01*
X32294782Y108017188D01*
X32424477Y108053244D01*
X32528307Y108086012D01*
X32618269Y108120702D01*
X32706362Y108162523D01*
X32804582Y108216686D01*
X32924927Y108288401D01*
X32938939Y108296920D01*
X33059094Y108368691D01*
X33157465Y108422089D01*
X33243934Y108459552D01*
X33328386Y108483523D01*
X33420702Y108496441D01*
X33530766Y108500747D01*
X33668462Y108498880D01*
X33747233Y108496510D01*
X33891936Y108490917D01*
X34004386Y108483981D01*
X34094666Y108474474D01*
X34172855Y108461170D01*
X34249035Y108442840D01*
X34295008Y108429795D01*
X34550148Y108335478D01*
X34776553Y108211018D01*
X34976573Y108055007D01*
X35062089Y107970433D01*
X35200130Y107805847D01*
X35313743Y107629831D01*
X35404363Y107437838D01*
X35473426Y107225323D01*
X35522368Y106987739D01*
X35552622Y106720540D01*
X35565625Y106419179D01*
X35566153Y106373680D01*
X35569083Y106012442D01*
X35508119Y105920178D01*
X35415065Y105801790D01*
X35305159Y105708674D01*
X35193115Y105642780D01*
X35099132Y105602599D01*
X34974018Y105560391D01*
X34828687Y105519040D01*
X34674056Y105481426D01*
X34521041Y105450434D01*
X34385842Y105429592D01*
X34292035Y105418907D01*
X34224883Y105415527D01*
X34169126Y105420815D01*
X34109506Y105436132D01*
X34036738Y105460739D01*
X33819502Y105555844D01*
X33607088Y105684332D01*
X33405269Y105840392D01*
X33219819Y106018213D01*
X33056511Y106211985D01*
X32921118Y106415896D01*
X32819414Y106624137D01*
X32785420Y106720146D01*
X32763861Y106781526D01*
X32744679Y106822112D01*
X32735183Y106831964D01*
X32712982Y106813060D01*
X32682966Y106764570D01*
X32650027Y106697288D01*
X32619053Y106622010D01*
X32594936Y106549532D01*
X32583256Y106496561D01*
X32570884Y106417473D01*
X32554863Y106373234D01*
X32527461Y106356560D01*
X32480948Y106360165D01*
X32446478Y106367673D01*
X32327388Y106382769D01*
X32194379Y106379352D01*
X32059620Y106359603D01*
X31935282Y106325705D01*
X31833533Y106279837D01*
X31791606Y106250295D01*
X31755471Y106231476D01*
X31691560Y106208654D01*
X31613498Y106186674D01*
X31611031Y106186066D01*
X31542420Y106165184D01*
X31442346Y106129294D01*
X31317694Y106081318D01*
X31175350Y106024176D01*
X31022200Y105960790D01*
X30865128Y105894081D01*
X30711020Y105826971D01*
X30566763Y105762380D01*
X30439242Y105703230D01*
X30335342Y105652442D01*
X30266833Y105615786D01*
X30183334Y105569821D01*
X30103567Y105529775D01*
X30041940Y105502788D01*
X30031001Y105498900D01*
X29892278Y105433266D01*
X29769347Y105336023D01*
X29668010Y105214929D01*
X29594068Y105077744D01*
X29553324Y104932226D01*
X29547166Y104851848D01*
X29545896Y104806075D01*
X29537338Y104773280D01*
X29514376Y104744724D01*
X29469888Y104711668D01*
X29396758Y104665376D01*
X29393708Y104663480D01*
X29153381Y104526815D01*
X28920890Y104422043D01*
X28683754Y104343919D01*
X28561764Y104313705D01*
X28448253Y104286418D01*
X28340013Y104257000D01*
X28248871Y104228880D01*
X28186651Y104205481D01*
X28183958Y104204238D01*
X28106724Y104157799D01*
X28015405Y104087442D01*
X27918976Y104001843D01*
X27826408Y103909677D01*
X27746673Y103819619D01*
X27688745Y103740346D01*
X27671237Y103708494D01*
X27640322Y103632320D01*
X27634175Y103590289D01*
X27652835Y103582412D01*
X27696342Y103608698D01*
X27764733Y103669157D01*
X27849195Y103754476D01*
X27937660Y103845090D01*
X28013486Y103914591D01*
X28085006Y103966745D01*
X28160558Y104005319D01*
X28248475Y104034078D01*
X28357093Y104056788D01*
X28494747Y104077215D01*
X28590532Y104089422D01*
X28815508Y104126918D01*
X29048570Y104183091D01*
X29275758Y104253798D01*
X29483114Y104334894D01*
X29592208Y104386818D01*
X29633342Y104403722D01*
X29652897Y104403173D01*
X29653151Y104401836D01*
X29666383Y104380764D01*
X29702612Y104334161D01*
X29756814Y104268227D01*
X29823962Y104189163D01*
X29848943Y104160283D01*
X29954089Y104045081D01*
X30070358Y103927409D01*
X30189144Y103815276D01*
X30301840Y103716691D01*
X30399838Y103639665D01*
X30433206Y103616546D01*
X30467106Y103592342D01*
X30466875Y103579303D01*
X30438788Y103567328D01*
X30403521Y103557884D01*
X30334778Y103542408D01*
X30240699Y103522626D01*
X30129423Y103500269D01*
X30054227Y103485654D01*
X29927319Y103460291D01*
X29803917Y103433815D01*
X29694952Y103408697D01*
X29611360Y103387409D01*
X29582978Y103379126D01*
X29488040Y103354530D01*
X29378798Y103333824D01*
X29303750Y103324114D01*
X29220599Y103314286D01*
X29147658Y103301988D01*
X29102666Y103290482D01*
X29049750Y103270593D01*
X29123833Y103232802D01*
X29191914Y103206209D01*
X29273947Y103184766D01*
X29301815Y103179872D01*
X29397171Y103162812D01*
X29459151Y103141753D01*
X29496699Y103111600D01*
X29518758Y103067254D01*
X29522729Y103053979D01*
X29529892Y103024516D01*
X29530119Y102999148D01*
X29519279Y102971869D01*
X29493239Y102936673D01*
X29447869Y102887553D01*
X29379036Y102818504D01*
X29322271Y102762564D01*
X29207177Y102652049D01*
X29110334Y102566842D01*
X29022187Y102500330D01*
X28933181Y102445901D01*
X28833761Y102396942D01*
X28731416Y102353675D01*
X28645031Y102321723D01*
X28540225Y102287280D01*
X28426821Y102253083D01*
X28314637Y102221870D01*
X28213494Y102196380D01*
X28133212Y102179350D01*
X28085177Y102173500D01*
X28050127Y102194297D01*
X28022387Y102252875D01*
X27953575Y102402760D01*
X27849900Y102538682D01*
X27718358Y102652986D01*
X27587563Y102728493D01*
X27532479Y102750722D01*
X27476136Y102764964D01*
X27406883Y102772878D01*
X27313071Y102776126D01*
X27250583Y102776523D01*
X27142657Y102775549D01*
X27064957Y102771111D01*
X27005402Y102761303D01*
X26951913Y102744222D01*
X26899089Y102721108D01*
X26780428Y102665466D01*
X26744404Y102726451D01*
X26700339Y102786214D01*
X26631647Y102862448D01*
X26547556Y102946205D01*
X26457291Y103028537D01*
X26370080Y103100498D01*
X26323297Y103134810D01*
X26263177Y103178492D01*
X26220001Y103214274D01*
X26202850Y103234609D01*
X26202833Y103234916D01*
X26217275Y103257206D01*
X26254896Y103298110D01*
X26300579Y103342228D01*
X26370361Y103412436D01*
X26439441Y103495124D01*
X26511508Y103595728D01*
X26590252Y103719685D01*
X26679363Y103872433D01*
X26763502Y104024351D01*
X26846516Y104175786D01*
X26913612Y104294702D01*
X26968492Y104386089D01*
X27014856Y104454941D01*
X27056408Y104506250D01*
X27096848Y104545007D01*
X27139879Y104576205D01*
X27189202Y104604836D01*
X27197076Y104609060D01*
X27340930Y104700852D01*
X27471215Y104812921D01*
X27581542Y104937777D01*
X27665524Y105067928D01*
X27716775Y105195883D01*
X27723748Y105226776D01*
X27732628Y105286990D01*
X27734226Y105327753D01*
X27731862Y105336416D01*
X27713001Y105328062D01*
X27674305Y105295900D01*
X27631117Y105253901D01*
X27522440Y105169400D01*
X27390391Y105116897D01*
X27231800Y105095240D01*
X27192346Y105094500D01*
X27109252Y105098900D01*
X27046728Y105116172D01*
X26983555Y105152431D01*
X26977934Y105156268D01*
X26905191Y105221219D01*
X26855507Y105294967D01*
X26853670Y105299143D01*
X26824165Y105368501D01*
X26789191Y105450668D01*
X26774111Y105486084D01*
X26729040Y105591917D01*
X26696376Y105517834D01*
X26673334Y105457224D01*
X26646770Y105375310D01*
X26626926Y105306167D01*
X26599605Y105214336D01*
X26559341Y105092459D01*
X26509484Y104949563D01*
X26453385Y104794676D01*
X26394393Y104636823D01*
X26335860Y104485033D01*
X26281135Y104348331D01*
X26233568Y104235744D01*
X26211722Y104187477D01*
X26106284Y103986982D01*
X25994297Y103819529D01*
X25878394Y103688797D01*
X25816906Y103636134D01*
X25707820Y103552951D01*
X25590202Y103644099D01*
X25518054Y103696936D01*
X25447092Y103743922D01*
X25398500Y103771789D01*
X25354341Y103800787D01*
X25289284Y103852514D01*
X25212179Y103919580D01*
X25133916Y103992624D01*
X25039930Y104079982D01*
X24935869Y104171018D01*
X24836218Y104253317D01*
X24774085Y104301104D01*
X24683222Y104371533D01*
X24589434Y104450403D01*
X24509011Y104523847D01*
X24488335Y104544371D01*
X24425755Y104605879D01*
X24368074Y104658275D01*
X24326572Y104691374D01*
X24322820Y104693811D01*
X24290417Y104719483D01*
X24285970Y104749630D01*
X24298515Y104787629D01*
X24308138Y104830018D01*
X24318626Y104905905D01*
X24329022Y105006494D01*
X24338370Y105122988D01*
X24343155Y105198189D01*
X24358007Y105390166D01*
X24380983Y105551766D01*
X24415894Y105694257D01*
X24466550Y105828907D01*
X24536762Y105966986D01*
X24630341Y106119762D01*
X24680321Y106195167D01*
X24748471Y106289551D01*
X24810739Y106356799D01*
X24879558Y106407944D01*
X24967359Y106454018D01*
X24977127Y106458525D01*
X25079394Y106502797D01*
X25174920Y106537381D01*
X25271170Y106563440D01*
X25375609Y106582134D01*
X25495704Y106594626D01*
X25638918Y106602075D01*
X25812718Y106605644D01*
X25927666Y106606385D01*
X26126558Y106605883D01*
X26293563Y106602408D01*
X26439080Y106595023D01*
X26573506Y106582790D01*
X26707239Y106564772D01*
X26850678Y106540033D01*
X27007166Y106509088D01*
X27070621Y106498145D01*
X27160396Y106485518D01*
X27269303Y106471930D01*
X27390155Y106458102D01*
X27515766Y106444756D01*
X27638947Y106432615D01*
X27752512Y106422401D01*
X27849274Y106414836D01*
X27922044Y106410642D01*
X27963636Y106410541D01*
X27970521Y106412289D01*
X27982391Y106431513D01*
X28010470Y106477451D01*
X28048978Y106540641D01*
X28053906Y106548738D01*
X28095539Y106620462D01*
X28116681Y106669039D01*
X28120878Y106706170D01*
X28112374Y106741573D01*
X28069816Y106834561D01*
X28009085Y106930095D01*
X27937733Y107019405D01*
X27863316Y107093716D01*
X27793387Y107144257D01*
X27751425Y107160740D01*
X27707598Y107173797D01*
X27688720Y107198792D01*
X27684510Y107250299D01*
X27684500Y107255635D01*
X27696211Y107331027D01*
X27724616Y107402836D01*
X27726754Y107406447D01*
X27760487Y107471230D01*
X27764631Y107509860D01*
X27738773Y107526861D01*
X27715570Y107528667D01*
X27659218Y107536945D01*
X27594075Y107557096D01*
X27588619Y107559317D01*
X27532301Y107576950D01*
X27449987Y107595737D01*
X27357751Y107612095D01*
X27340590Y107614611D01*
X27154389Y107641365D01*
X27004268Y107664881D01*
X26884320Y107687318D01*
X26788636Y107710838D01*
X26711310Y107737601D01*
X26646434Y107769768D01*
X26588100Y107809501D01*
X26530401Y107858959D01*
X26467429Y107920303D01*
X26446250Y107941730D01*
X26296622Y108118260D01*
X26164095Y108323078D01*
X26056466Y108543176D01*
X26009035Y108671134D01*
X25961182Y108861689D01*
X25940164Y109051520D01*
X25945553Y109232927D01*
X25976926Y109398215D01*
X26033855Y109539686D01*
X26059397Y109581644D01*
X26095723Y109625937D01*
X26154893Y109688061D01*
X26227501Y109758424D01*
X26277636Y109804202D01*
X26357189Y109873391D01*
X26416977Y109919559D01*
X26467794Y109948980D01*
X26520435Y109967929D01*
X26584282Y109982400D01*
X26666726Y110001725D01*
X26741418Y110024476D01*
X26783536Y110041676D01*
X26854286Y110059379D01*
X26955249Y110058101D01*
G36*
X67197306Y103514697D02*
G01*
X67268025Y103443067D01*
X67346667Y103370469D01*
X67399627Y103325980D01*
X67470915Y103268170D01*
X67542200Y103207645D01*
X67576715Y103176942D01*
X67652093Y103107899D01*
X67577856Y102984658D01*
X67477432Y102812642D01*
X67388920Y102650485D01*
X67315987Y102505304D01*
X67262298Y102384216D01*
X67245173Y102338852D01*
X67201192Y102228746D01*
X67154270Y102151289D01*
X67096283Y102097119D01*
X67019105Y102056869D01*
X66991298Y102046218D01*
X66832956Y102010537D01*
X66665120Y102015289D01*
X66599416Y102027421D01*
X66533110Y102044953D01*
X66449808Y102070772D01*
X66358303Y102101659D01*
X66267391Y102134395D01*
X66185867Y102165760D01*
X66122526Y102192536D01*
X66086161Y102211503D01*
X66080833Y102217240D01*
X66099561Y102231587D01*
X66148930Y102252688D01*
X66218717Y102276242D01*
X66227109Y102278771D01*
X66320156Y102312614D01*
X66414023Y102356503D01*
X66476713Y102393411D01*
X66553877Y102443407D01*
X66635406Y102491629D01*
X66673439Y102512136D01*
X66778865Y102581732D01*
X66886233Y102679801D01*
X66984532Y102794512D01*
X67062752Y102914034D01*
X67081234Y102950283D01*
X67133877Y103099281D01*
X67159007Y103257214D01*
X67155455Y103410569D01*
X67130726Y103522224D01*
X67096696Y103623417D01*
X67197306Y103514697D01*
G37*
X67197306Y103514697D02*
X67268025Y103443067D01*
X67346667Y103370469D01*
X67399627Y103325980D01*
X67470915Y103268170D01*
X67542200Y103207645D01*
X67576715Y103176942D01*
X67652093Y103107899D01*
X67577856Y102984658D01*
X67477432Y102812642D01*
X67388920Y102650485D01*
X67315987Y102505304D01*
X67262298Y102384216D01*
X67245173Y102338852D01*
X67201192Y102228746D01*
X67154270Y102151289D01*
X67096283Y102097119D01*
X67019105Y102056869D01*
X66991298Y102046218D01*
X66832956Y102010537D01*
X66665120Y102015289D01*
X66599416Y102027421D01*
X66533110Y102044953D01*
X66449808Y102070772D01*
X66358303Y102101659D01*
X66267391Y102134395D01*
X66185867Y102165760D01*
X66122526Y102192536D01*
X66086161Y102211503D01*
X66080833Y102217240D01*
X66099561Y102231587D01*
X66148930Y102252688D01*
X66218717Y102276242D01*
X66227109Y102278771D01*
X66320156Y102312614D01*
X66414023Y102356503D01*
X66476713Y102393411D01*
X66553877Y102443407D01*
X66635406Y102491629D01*
X66673439Y102512136D01*
X66778865Y102581732D01*
X66886233Y102679801D01*
X66984532Y102794512D01*
X67062752Y102914034D01*
X67081234Y102950283D01*
X67133877Y103099281D01*
X67159007Y103257214D01*
X67155455Y103410569D01*
X67130726Y103522224D01*
X67096696Y103623417D01*
X67197306Y103514697D01*
G36*
X24271344Y101567332D02*
G01*
X24344110Y101516108D01*
X24420675Y101468647D01*
X24454480Y101450308D01*
X24529423Y101407024D01*
X24589319Y101361761D01*
X24627713Y101320710D01*
X24638148Y101290060D01*
X24631260Y101280814D01*
X24597445Y101272914D01*
X24534740Y101268234D01*
X24456476Y101266872D01*
X24375980Y101268926D01*
X24306581Y101274495D01*
X24282122Y101278250D01*
X24239183Y101305570D01*
X24186892Y101371619D01*
X24159405Y101415805D01*
X24084150Y101544209D01*
X24129564Y101592550D01*
X24174977Y101640891D01*
X24271344Y101567332D01*
G37*
X24271344Y101567332D02*
X24344110Y101516108D01*
X24420675Y101468647D01*
X24454480Y101450308D01*
X24529423Y101407024D01*
X24589319Y101361761D01*
X24627713Y101320710D01*
X24638148Y101290060D01*
X24631260Y101280814D01*
X24597445Y101272914D01*
X24534740Y101268234D01*
X24456476Y101266872D01*
X24375980Y101268926D01*
X24306581Y101274495D01*
X24282122Y101278250D01*
X24239183Y101305570D01*
X24186892Y101371619D01*
X24159405Y101415805D01*
X24084150Y101544209D01*
X24129564Y101592550D01*
X24174977Y101640891D01*
X24271344Y101567332D01*
G36*
G01*
X43420660Y139084240D02*
X43420660Y139584240D01*
G75*
G02*
X43670660Y139834240I250000J0D01*
G01*
X48170660Y139834240D01*
G75*
G02*
X48420660Y139584240I0J-250000D01*
G01*
X48420660Y139084240D01*
G75*
G02*
X48170660Y138834240I-250000J0D01*
G01*
X43670660Y138834240D01*
G75*
G02*
X43420660Y139084240I0J250000D01*
G01*
G37*
D11*
X48463200Y145923000D03*
D12*
X48463200Y143383000D03*
D13*
X41727120Y148648420D03*
D11*
X45923200Y145923000D03*
D12*
X45923200Y143383000D03*
X43383200Y145923000D03*
X43383200Y143383000D03*
D14*
X5730000Y93340000D03*
X79410000Y6550000D03*
G36*
G01*
X57680400Y61816400D02*
X57680400Y86316400D01*
G75*
G02*
X58930400Y87566400I1250000J0D01*
G01*
X61430400Y87566400D01*
G75*
G02*
X62680400Y86316400I0J-1250000D01*
G01*
X62680400Y61816400D01*
G75*
G02*
X61430400Y60566400I-1250000J0D01*
G01*
X58930400Y60566400D01*
G75*
G02*
X57680400Y61816400I0J1250000D01*
G01*
G37*
D15*
X3850000Y30440000D03*
X3850000Y23640000D03*
G36*
G01*
X14066000Y77052884D02*
X14066000Y77565384D01*
G75*
G02*
X14284750Y77784134I218750J0D01*
G01*
X14722250Y77784134D01*
G75*
G02*
X14941000Y77565384I0J-218750D01*
G01*
X14941000Y77052884D01*
G75*
G02*
X14722250Y76834134I-218750J0D01*
G01*
X14284750Y76834134D01*
G75*
G02*
X14066000Y77052884I0J218750D01*
G01*
G37*
G36*
G01*
X12491000Y77052884D02*
X12491000Y77565384D01*
G75*
G02*
X12709750Y77784134I218750J0D01*
G01*
X13147250Y77784134D01*
G75*
G02*
X13366000Y77565384I0J-218750D01*
G01*
X13366000Y77052884D01*
G75*
G02*
X13147250Y76834134I-218750J0D01*
G01*
X12709750Y76834134D01*
G75*
G02*
X12491000Y77052884I0J218750D01*
G01*
G37*
G36*
G01*
X14066000Y70008618D02*
X14066000Y70521118D01*
G75*
G02*
X14284750Y70739868I218750J0D01*
G01*
X14722250Y70739868D01*
G75*
G02*
X14941000Y70521118I0J-218750D01*
G01*
X14941000Y70008618D01*
G75*
G02*
X14722250Y69789868I-218750J0D01*
G01*
X14284750Y69789868D01*
G75*
G02*
X14066000Y70008618I0J218750D01*
G01*
G37*
G36*
G01*
X12491000Y70008618D02*
X12491000Y70521118D01*
G75*
G02*
X12709750Y70739868I218750J0D01*
G01*
X13147250Y70739868D01*
G75*
G02*
X13366000Y70521118I0J-218750D01*
G01*
X13366000Y70008618D01*
G75*
G02*
X13147250Y69789868I-218750J0D01*
G01*
X12709750Y69789868D01*
G75*
G02*
X12491000Y70008618I0J218750D01*
G01*
G37*
G36*
G01*
X78796400Y70817450D02*
X78796400Y70304950D01*
G75*
G02*
X78577650Y70086200I-218750J0D01*
G01*
X78140150Y70086200D01*
G75*
G02*
X77921400Y70304950I0J218750D01*
G01*
X77921400Y70817450D01*
G75*
G02*
X78140150Y71036200I218750J0D01*
G01*
X78577650Y71036200D01*
G75*
G02*
X78796400Y70817450I0J-218750D01*
G01*
G37*
G36*
G01*
X80371400Y70817450D02*
X80371400Y70304950D01*
G75*
G02*
X80152650Y70086200I-218750J0D01*
G01*
X79715150Y70086200D01*
G75*
G02*
X79496400Y70304950I0J218750D01*
G01*
X79496400Y70817450D01*
G75*
G02*
X79715150Y71036200I218750J0D01*
G01*
X80152650Y71036200D01*
G75*
G02*
X80371400Y70817450I0J-218750D01*
G01*
G37*
G36*
G01*
X35721628Y48414650D02*
X35721628Y47902150D01*
G75*
G02*
X35502878Y47683400I-218750J0D01*
G01*
X35065378Y47683400D01*
G75*
G02*
X34846628Y47902150I0J218750D01*
G01*
X34846628Y48414650D01*
G75*
G02*
X35065378Y48633400I218750J0D01*
G01*
X35502878Y48633400D01*
G75*
G02*
X35721628Y48414650I0J-218750D01*
G01*
G37*
G36*
G01*
X37296628Y48414650D02*
X37296628Y47902150D01*
G75*
G02*
X37077878Y47683400I-218750J0D01*
G01*
X36640378Y47683400D01*
G75*
G02*
X36421628Y47902150I0J218750D01*
G01*
X36421628Y48414650D01*
G75*
G02*
X36640378Y48633400I218750J0D01*
G01*
X37077878Y48633400D01*
G75*
G02*
X37296628Y48414650I0J-218750D01*
G01*
G37*
G36*
G01*
X32520000Y130713750D02*
X32520000Y131226250D01*
G75*
G02*
X32738750Y131445000I218750J0D01*
G01*
X33176250Y131445000D01*
G75*
G02*
X33395000Y131226250I0J-218750D01*
G01*
X33395000Y130713750D01*
G75*
G02*
X33176250Y130495000I-218750J0D01*
G01*
X32738750Y130495000D01*
G75*
G02*
X32520000Y130713750I0J218750D01*
G01*
G37*
G36*
G01*
X30945000Y130713750D02*
X30945000Y131226250D01*
G75*
G02*
X31163750Y131445000I218750J0D01*
G01*
X31601250Y131445000D01*
G75*
G02*
X31820000Y131226250I0J-218750D01*
G01*
X31820000Y130713750D01*
G75*
G02*
X31601250Y130495000I-218750J0D01*
G01*
X31163750Y130495000D01*
G75*
G02*
X30945000Y130713750I0J218750D01*
G01*
G37*
G36*
G01*
X14040600Y62964350D02*
X14040600Y63476850D01*
G75*
G02*
X14259350Y63695600I218750J0D01*
G01*
X14696850Y63695600D01*
G75*
G02*
X14915600Y63476850I0J-218750D01*
G01*
X14915600Y62964350D01*
G75*
G02*
X14696850Y62745600I-218750J0D01*
G01*
X14259350Y62745600D01*
G75*
G02*
X14040600Y62964350I0J218750D01*
G01*
G37*
G36*
G01*
X12465600Y62964350D02*
X12465600Y63476850D01*
G75*
G02*
X12684350Y63695600I218750J0D01*
G01*
X13121850Y63695600D01*
G75*
G02*
X13340600Y63476850I0J-218750D01*
G01*
X13340600Y62964350D01*
G75*
G02*
X13121850Y62745600I-218750J0D01*
G01*
X12684350Y62745600D01*
G75*
G02*
X12465600Y62964350I0J218750D01*
G01*
G37*
G36*
G01*
X63310000Y130653750D02*
X63310000Y131166250D01*
G75*
G02*
X63528750Y131385000I218750J0D01*
G01*
X63966250Y131385000D01*
G75*
G02*
X64185000Y131166250I0J-218750D01*
G01*
X64185000Y130653750D01*
G75*
G02*
X63966250Y130435000I-218750J0D01*
G01*
X63528750Y130435000D01*
G75*
G02*
X63310000Y130653750I0J218750D01*
G01*
G37*
G36*
G01*
X61735000Y130653750D02*
X61735000Y131166250D01*
G75*
G02*
X61953750Y131385000I218750J0D01*
G01*
X62391250Y131385000D01*
G75*
G02*
X62610000Y131166250I0J-218750D01*
G01*
X62610000Y130653750D01*
G75*
G02*
X62391250Y130435000I-218750J0D01*
G01*
X61953750Y130435000D01*
G75*
G02*
X61735000Y130653750I0J218750D01*
G01*
G37*
G36*
G01*
X14066000Y84097150D02*
X14066000Y84609650D01*
G75*
G02*
X14284750Y84828400I218750J0D01*
G01*
X14722250Y84828400D01*
G75*
G02*
X14941000Y84609650I0J-218750D01*
G01*
X14941000Y84097150D01*
G75*
G02*
X14722250Y83878400I-218750J0D01*
G01*
X14284750Y83878400D01*
G75*
G02*
X14066000Y84097150I0J218750D01*
G01*
G37*
G36*
G01*
X12491000Y84097150D02*
X12491000Y84609650D01*
G75*
G02*
X12709750Y84828400I218750J0D01*
G01*
X13147250Y84828400D01*
G75*
G02*
X13366000Y84609650I0J-218750D01*
G01*
X13366000Y84097150D01*
G75*
G02*
X13147250Y83878400I-218750J0D01*
G01*
X12709750Y83878400D01*
G75*
G02*
X12491000Y84097150I0J218750D01*
G01*
G37*
G36*
G01*
X28722114Y48414650D02*
X28722114Y47902150D01*
G75*
G02*
X28503364Y47683400I-218750J0D01*
G01*
X28065864Y47683400D01*
G75*
G02*
X27847114Y47902150I0J218750D01*
G01*
X27847114Y48414650D01*
G75*
G02*
X28065864Y48633400I218750J0D01*
G01*
X28503364Y48633400D01*
G75*
G02*
X28722114Y48414650I0J-218750D01*
G01*
G37*
G36*
G01*
X30297114Y48414650D02*
X30297114Y47902150D01*
G75*
G02*
X30078364Y47683400I-218750J0D01*
G01*
X29640864Y47683400D01*
G75*
G02*
X29422114Y47902150I0J218750D01*
G01*
X29422114Y48414650D01*
G75*
G02*
X29640864Y48633400I218750J0D01*
G01*
X30078364Y48633400D01*
G75*
G02*
X30297114Y48414650I0J-218750D01*
G01*
G37*
G36*
G01*
X63719684Y48414650D02*
X63719684Y47902150D01*
G75*
G02*
X63500934Y47683400I-218750J0D01*
G01*
X63063434Y47683400D01*
G75*
G02*
X62844684Y47902150I0J218750D01*
G01*
X62844684Y48414650D01*
G75*
G02*
X63063434Y48633400I218750J0D01*
G01*
X63500934Y48633400D01*
G75*
G02*
X63719684Y48414650I0J-218750D01*
G01*
G37*
G36*
G01*
X65294684Y48414650D02*
X65294684Y47902150D01*
G75*
G02*
X65075934Y47683400I-218750J0D01*
G01*
X64638434Y47683400D01*
G75*
G02*
X64419684Y47902150I0J218750D01*
G01*
X64419684Y48414650D01*
G75*
G02*
X64638434Y48633400I218750J0D01*
G01*
X65075934Y48633400D01*
G75*
G02*
X65294684Y48414650I0J-218750D01*
G01*
G37*
G36*
G01*
X49720656Y48414650D02*
X49720656Y47902150D01*
G75*
G02*
X49501906Y47683400I-218750J0D01*
G01*
X49064406Y47683400D01*
G75*
G02*
X48845656Y47902150I0J218750D01*
G01*
X48845656Y48414650D01*
G75*
G02*
X49064406Y48633400I218750J0D01*
G01*
X49501906Y48633400D01*
G75*
G02*
X49720656Y48414650I0J-218750D01*
G01*
G37*
G36*
G01*
X51295656Y48414650D02*
X51295656Y47902150D01*
G75*
G02*
X51076906Y47683400I-218750J0D01*
G01*
X50639406Y47683400D01*
G75*
G02*
X50420656Y47902150I0J218750D01*
G01*
X50420656Y48414650D01*
G75*
G02*
X50639406Y48633400I218750J0D01*
G01*
X51076906Y48633400D01*
G75*
G02*
X51295656Y48414650I0J-218750D01*
G01*
G37*
G36*
G01*
X21722600Y48414650D02*
X21722600Y47902150D01*
G75*
G02*
X21503850Y47683400I-218750J0D01*
G01*
X21066350Y47683400D01*
G75*
G02*
X20847600Y47902150I0J218750D01*
G01*
X20847600Y48414650D01*
G75*
G02*
X21066350Y48633400I218750J0D01*
G01*
X21503850Y48633400D01*
G75*
G02*
X21722600Y48414650I0J-218750D01*
G01*
G37*
G36*
G01*
X23297600Y48414650D02*
X23297600Y47902150D01*
G75*
G02*
X23078850Y47683400I-218750J0D01*
G01*
X22641350Y47683400D01*
G75*
G02*
X22422600Y47902150I0J218750D01*
G01*
X22422600Y48414650D01*
G75*
G02*
X22641350Y48633400I218750J0D01*
G01*
X23078850Y48633400D01*
G75*
G02*
X23297600Y48414650I0J-218750D01*
G01*
G37*
G36*
G01*
X78796400Y77878650D02*
X78796400Y77366150D01*
G75*
G02*
X78577650Y77147400I-218750J0D01*
G01*
X78140150Y77147400D01*
G75*
G02*
X77921400Y77366150I0J218750D01*
G01*
X77921400Y77878650D01*
G75*
G02*
X78140150Y78097400I218750J0D01*
G01*
X78577650Y78097400D01*
G75*
G02*
X78796400Y77878650I0J-218750D01*
G01*
G37*
G36*
G01*
X80371400Y77878650D02*
X80371400Y77366150D01*
G75*
G02*
X80152650Y77147400I-218750J0D01*
G01*
X79715150Y77147400D01*
G75*
G02*
X79496400Y77366150I0J218750D01*
G01*
X79496400Y77878650D01*
G75*
G02*
X79715150Y78097400I218750J0D01*
G01*
X80152650Y78097400D01*
G75*
G02*
X80371400Y77878650I0J-218750D01*
G01*
G37*
G36*
G01*
X56720170Y48414650D02*
X56720170Y47902150D01*
G75*
G02*
X56501420Y47683400I-218750J0D01*
G01*
X56063920Y47683400D01*
G75*
G02*
X55845170Y47902150I0J218750D01*
G01*
X55845170Y48414650D01*
G75*
G02*
X56063920Y48633400I218750J0D01*
G01*
X56501420Y48633400D01*
G75*
G02*
X56720170Y48414650I0J-218750D01*
G01*
G37*
G36*
G01*
X58295170Y48414650D02*
X58295170Y47902150D01*
G75*
G02*
X58076420Y47683400I-218750J0D01*
G01*
X57638920Y47683400D01*
G75*
G02*
X57420170Y47902150I0J218750D01*
G01*
X57420170Y48414650D01*
G75*
G02*
X57638920Y48633400I218750J0D01*
G01*
X58076420Y48633400D01*
G75*
G02*
X58295170Y48414650I0J-218750D01*
G01*
G37*
G36*
G01*
X78796400Y84939850D02*
X78796400Y84427350D01*
G75*
G02*
X78577650Y84208600I-218750J0D01*
G01*
X78140150Y84208600D01*
G75*
G02*
X77921400Y84427350I0J218750D01*
G01*
X77921400Y84939850D01*
G75*
G02*
X78140150Y85158600I218750J0D01*
G01*
X78577650Y85158600D01*
G75*
G02*
X78796400Y84939850I0J-218750D01*
G01*
G37*
G36*
G01*
X80371400Y84939850D02*
X80371400Y84427350D01*
G75*
G02*
X80152650Y84208600I-218750J0D01*
G01*
X79715150Y84208600D01*
G75*
G02*
X79496400Y84427350I0J218750D01*
G01*
X79496400Y84939850D01*
G75*
G02*
X79715150Y85158600I218750J0D01*
G01*
X80152650Y85158600D01*
G75*
G02*
X80371400Y84939850I0J-218750D01*
G01*
G37*
G36*
G01*
X54629800Y132839750D02*
X54629800Y133352250D01*
G75*
G02*
X54848550Y133571000I218750J0D01*
G01*
X55286050Y133571000D01*
G75*
G02*
X55504800Y133352250I0J-218750D01*
G01*
X55504800Y132839750D01*
G75*
G02*
X55286050Y132621000I-218750J0D01*
G01*
X54848550Y132621000D01*
G75*
G02*
X54629800Y132839750I0J218750D01*
G01*
G37*
G36*
G01*
X53054800Y132839750D02*
X53054800Y133352250D01*
G75*
G02*
X53273550Y133571000I218750J0D01*
G01*
X53711050Y133571000D01*
G75*
G02*
X53929800Y133352250I0J-218750D01*
G01*
X53929800Y132839750D01*
G75*
G02*
X53711050Y132621000I-218750J0D01*
G01*
X53273550Y132621000D01*
G75*
G02*
X53054800Y132839750I0J218750D01*
G01*
G37*
D16*
X9985000Y71186260D03*
X9985000Y74386260D03*
X4735000Y74386260D03*
X4735000Y71186260D03*
D17*
G36*
X63118071Y19414715D02*
G01*
X61845279Y20687507D01*
X63259493Y22101721D01*
X64532285Y20828929D01*
X63118071Y19414715D01*
G37*
G36*
X57390507Y25142279D02*
G01*
X56117715Y26415071D01*
X57531929Y27829285D01*
X58804721Y26556493D01*
X57390507Y25142279D01*
G37*
G36*
X63736790Y24311430D02*
G01*
X63029684Y25018536D01*
X63984278Y25973130D01*
X64691384Y25266024D01*
X63736790Y24311430D01*
G37*
G36*
X61721536Y26326684D02*
G01*
X61014430Y27033790D01*
X61969024Y27988384D01*
X62676130Y27281278D01*
X61721536Y26326684D01*
G37*
G36*
X62729163Y25319057D02*
G01*
X62022057Y26026163D01*
X62976651Y26980757D01*
X63683757Y26273651D01*
X62729163Y25319057D01*
G37*
G36*
X58680976Y19255616D02*
G01*
X57973870Y19962722D01*
X58928464Y20917316D01*
X59635570Y20210210D01*
X58680976Y19255616D01*
G37*
G36*
X56665722Y21270870D02*
G01*
X55958616Y21977976D01*
X56913210Y22932570D01*
X57620316Y22225464D01*
X56665722Y21270870D01*
G37*
G36*
X57673349Y20263243D02*
G01*
X56966243Y20970349D01*
X57920837Y21924943D01*
X58627943Y21217837D01*
X57673349Y20263243D01*
G37*
D18*
X61668503Y22278497D03*
D19*
X58981497Y24965503D03*
D20*
X44620342Y45017600D03*
X41420342Y45017600D03*
X41420342Y39767600D03*
X44620342Y39767600D03*
D16*
X88218720Y85140200D03*
X88218720Y88340200D03*
X82968720Y88340200D03*
X82968720Y85140200D03*
X88218720Y78132954D03*
X88218720Y81332954D03*
X82968720Y81332954D03*
X82968720Y78132954D03*
D17*
G36*
X34720871Y19414715D02*
G01*
X33448079Y20687507D01*
X34862293Y22101721D01*
X36135085Y20828929D01*
X34720871Y19414715D01*
G37*
G36*
X28993307Y25142279D02*
G01*
X27720515Y26415071D01*
X29134729Y27829285D01*
X30407521Y26556493D01*
X28993307Y25142279D01*
G37*
G36*
X35339590Y24311430D02*
G01*
X34632484Y25018536D01*
X35587078Y25973130D01*
X36294184Y25266024D01*
X35339590Y24311430D01*
G37*
G36*
X33324336Y26326684D02*
G01*
X32617230Y27033790D01*
X33571824Y27988384D01*
X34278930Y27281278D01*
X33324336Y26326684D01*
G37*
G36*
X34331963Y25319057D02*
G01*
X33624857Y26026163D01*
X34579451Y26980757D01*
X35286557Y26273651D01*
X34331963Y25319057D01*
G37*
G36*
X30283776Y19255616D02*
G01*
X29576670Y19962722D01*
X30531264Y20917316D01*
X31238370Y20210210D01*
X30283776Y19255616D01*
G37*
G36*
X28268522Y21270870D02*
G01*
X27561416Y21977976D01*
X28516010Y22932570D01*
X29223116Y22225464D01*
X28268522Y21270870D01*
G37*
G36*
X29276149Y20263243D02*
G01*
X28569043Y20970349D01*
X29523637Y21924943D01*
X30230743Y21217837D01*
X29276149Y20263243D01*
G37*
D18*
X33271303Y22278497D03*
D19*
X30584297Y24965503D03*
D20*
X72557440Y45017600D03*
X69357440Y45017600D03*
X69357440Y39767600D03*
X72557440Y39767600D03*
X65573164Y45017600D03*
X62373164Y45017600D03*
X62373164Y39767600D03*
X65573164Y39767600D03*
X58588890Y45017600D03*
X55388890Y45017600D03*
X55388890Y39767600D03*
X58588890Y39767600D03*
D16*
X9985000Y64200000D03*
X9985000Y67400000D03*
X4735000Y67400000D03*
X4735000Y64200000D03*
D20*
X30651794Y45017600D03*
X27451794Y45017600D03*
X27451794Y39767600D03*
X30651794Y39767600D03*
D16*
X88218720Y71125708D03*
X88218720Y74325708D03*
X82968720Y74325708D03*
X82968720Y71125708D03*
X88218720Y64118460D03*
X88218720Y67318460D03*
X82968720Y67318460D03*
X82968720Y64118460D03*
X9985000Y78172520D03*
X9985000Y81372520D03*
X4735000Y81372520D03*
X4735000Y78172520D03*
D20*
X51604616Y45017600D03*
X48404616Y45017600D03*
X48404616Y39767600D03*
X51604616Y39767600D03*
X23667520Y45017600D03*
X20467520Y45017600D03*
X20467520Y39767600D03*
X23667520Y39767600D03*
D16*
X9985000Y85158780D03*
X9985000Y88358780D03*
X4735000Y88358780D03*
X4735000Y85158780D03*
D20*
X37636068Y45017600D03*
X34436068Y45017600D03*
X34436068Y39767600D03*
X37636068Y39767600D03*
D21*
X80413860Y28229560D03*
X82445860Y28229560D03*
D22*
X81429860Y20609560D03*
D23*
X86852760Y22499320D03*
D24*
X88122760Y22499320D03*
X87052760Y23769320D03*
X88322760Y23769320D03*
X86852760Y25039320D03*
X88122760Y25039320D03*
X87052760Y26309320D03*
X88322760Y26309320D03*
X86852760Y27579320D03*
X88122760Y27579320D03*
D25*
X66400000Y120280000D03*
X66400000Y128920000D03*
D26*
X61040000Y120280000D03*
X61040000Y128920000D03*
G36*
G01*
X42721142Y48414650D02*
X42721142Y47902150D01*
G75*
G02*
X42502392Y47683400I-218750J0D01*
G01*
X42064892Y47683400D01*
G75*
G02*
X41846142Y47902150I0J218750D01*
G01*
X41846142Y48414650D01*
G75*
G02*
X42064892Y48633400I218750J0D01*
G01*
X42502392Y48633400D01*
G75*
G02*
X42721142Y48414650I0J-218750D01*
G01*
G37*
G36*
G01*
X44296142Y48414650D02*
X44296142Y47902150D01*
G75*
G02*
X44077392Y47683400I-218750J0D01*
G01*
X43639892Y47683400D01*
G75*
G02*
X43421142Y47902150I0J218750D01*
G01*
X43421142Y48414650D01*
G75*
G02*
X43639892Y48633400I218750J0D01*
G01*
X44077392Y48633400D01*
G75*
G02*
X44296142Y48414650I0J-218750D01*
G01*
G37*
G36*
G01*
X78745600Y63756250D02*
X78745600Y63243750D01*
G75*
G02*
X78526850Y63025000I-218750J0D01*
G01*
X78089350Y63025000D01*
G75*
G02*
X77870600Y63243750I0J218750D01*
G01*
X77870600Y63756250D01*
G75*
G02*
X78089350Y63975000I218750J0D01*
G01*
X78526850Y63975000D01*
G75*
G02*
X78745600Y63756250I0J-218750D01*
G01*
G37*
G36*
G01*
X80320600Y63756250D02*
X80320600Y63243750D01*
G75*
G02*
X80101850Y63025000I-218750J0D01*
G01*
X79664350Y63025000D01*
G75*
G02*
X79445600Y63243750I0J218750D01*
G01*
X79445600Y63756250D01*
G75*
G02*
X79664350Y63975000I218750J0D01*
G01*
X80101850Y63975000D01*
G75*
G02*
X80320600Y63756250I0J-218750D01*
G01*
G37*
G36*
G01*
X70719200Y48414650D02*
X70719200Y47902150D01*
G75*
G02*
X70500450Y47683400I-218750J0D01*
G01*
X70062950Y47683400D01*
G75*
G02*
X69844200Y47902150I0J218750D01*
G01*
X69844200Y48414650D01*
G75*
G02*
X70062950Y48633400I218750J0D01*
G01*
X70500450Y48633400D01*
G75*
G02*
X70719200Y48414650I0J-218750D01*
G01*
G37*
G36*
G01*
X72294200Y48414650D02*
X72294200Y47902150D01*
G75*
G02*
X72075450Y47683400I-218750J0D01*
G01*
X71637950Y47683400D01*
G75*
G02*
X71419200Y47902150I0J218750D01*
G01*
X71419200Y48414650D01*
G75*
G02*
X71637950Y48633400I218750J0D01*
G01*
X72075450Y48633400D01*
G75*
G02*
X72294200Y48414650I0J-218750D01*
G01*
G37*
D12*
X57708800Y3657600D03*
X57708800Y6197600D03*
X55168800Y3657600D03*
X55168800Y6197600D03*
X52628800Y3657600D03*
X52628800Y6197600D03*
X50088800Y3657600D03*
X50088800Y6197600D03*
X47548800Y3657600D03*
X47548800Y6197600D03*
X45008800Y3657600D03*
X45008800Y6197600D03*
X42468800Y3657600D03*
X42468800Y6197600D03*
X39928800Y3657600D03*
X39928800Y6197600D03*
X37388800Y3657600D03*
X37388800Y6197600D03*
X34848800Y3657600D03*
D27*
X34848800Y6197600D03*
M02*
