G04 #@! TF.GenerationSoftware,KiCad,Pcbnew,(5.1.9)-1*
G04 #@! TF.CreationDate,2021-01-16T23:54:46-07:00*
G04 #@! TF.ProjectId,purplewizard,70757270-6c65-4776-997a-6172642e6b69,0.1*
G04 #@! TF.SameCoordinates,PX613b810PYa454c00*
G04 #@! TF.FileFunction,Paste,Bot*
G04 #@! TF.FilePolarity,Positive*
%FSLAX46Y46*%
G04 Gerber Fmt 4.6, Leading zero omitted, Abs format (unit mm)*
G04 Created by KiCad (PCBNEW (5.1.9)-1) date 2021-01-16 23:54:46*
%MOMM*%
%LPD*%
G01*
G04 APERTURE LIST*
%ADD10C,0.100000*%
%ADD11R,1.300000X0.300000*%
%ADD12R,2.200000X1.800000*%
%ADD13R,1.800000X2.500000*%
%ADD14R,2.500000X1.250000*%
%ADD15R,1.400000X1.000000*%
%ADD16R,1.400000X1.200000*%
%ADD17R,1.060000X0.650000*%
%ADD18R,0.650000X1.060000*%
%ADD19R,0.500000X0.500000*%
%ADD20R,0.700000X1.000000*%
%ADD21R,0.700000X0.300000*%
%ADD22R,1.000000X1.000000*%
%ADD23R,1.000000X3.000000*%
G04 APERTURE END LIST*
D10*
G36*
X28799600Y121208932D02*
G01*
X27234742Y121873175D01*
X27629380Y122802884D01*
X29194238Y122138641D01*
X28799600Y121208932D01*
G37*
G36*
X35933513Y118180765D02*
G01*
X34874933Y118630106D01*
X35078113Y119108769D01*
X36136693Y118659428D01*
X35933513Y118180765D01*
G37*
G36*
X37820548Y117379766D02*
G01*
X37065734Y117700166D01*
X37268914Y118178828D01*
X38023728Y117858428D01*
X37820548Y117379766D01*
G37*
G36*
X41318467Y115894988D02*
G01*
X39615533Y116617840D01*
X39838249Y117142528D01*
X41541183Y116419676D01*
X41318467Y115894988D01*
G37*
G36*
X41421324Y116905097D02*
G01*
X40915047Y117119999D01*
X41520680Y118546781D01*
X42026957Y118331879D01*
X41421324Y116905097D01*
G37*
G36*
X41867568Y119236034D02*
G01*
X41223214Y119509546D01*
X41496726Y120153900D01*
X42141080Y119880388D01*
X41867568Y119236034D01*
G37*
G36*
X45465197Y126866948D02*
G01*
X45050970Y127042777D01*
X45558921Y128239434D01*
X45973148Y128063605D01*
X45465197Y126866948D01*
G37*
G36*
X46542541Y128202138D02*
G01*
X44738352Y128967971D01*
X44961069Y129492658D01*
X46765258Y128726825D01*
X46542541Y128202138D01*
G37*
G36*
X40302644Y130905135D02*
G01*
X38783811Y131549841D01*
X38986992Y132028503D01*
X40505825Y131383797D01*
X40302644Y130905135D01*
G37*
G36*
X33793549Y133613764D02*
G01*
X32458817Y134180324D01*
X32681533Y134705012D01*
X34016265Y134138452D01*
X33793549Y133613764D01*
G37*
G36*
X35482748Y119806099D02*
G01*
X34654294Y120157757D01*
X34904362Y120746881D01*
X35732816Y120395223D01*
X35482748Y119806099D01*
G37*
G36*
X35912552Y120818654D02*
G01*
X35084098Y121170312D01*
X35334166Y121759436D01*
X36162620Y121407778D01*
X35912552Y120818654D01*
G37*
G36*
X36342356Y121831209D02*
G01*
X35513902Y122182867D01*
X35763970Y122771991D01*
X36592424Y122420333D01*
X36342356Y121831209D01*
G37*
G36*
X36772160Y122843765D02*
G01*
X35943706Y123195423D01*
X36193774Y123784547D01*
X37022228Y123432889D01*
X36772160Y122843765D01*
G37*
G36*
X37201965Y123856320D02*
G01*
X36373511Y124207978D01*
X36623579Y124797102D01*
X37452033Y124445444D01*
X37201965Y123856320D01*
G37*
G36*
X37631769Y124868875D02*
G01*
X36803315Y125220533D01*
X37053383Y125809657D01*
X37881837Y125457999D01*
X37631769Y124868875D01*
G37*
G36*
X38061573Y125881431D02*
G01*
X37233119Y126233089D01*
X37483187Y126822213D01*
X38311641Y126470555D01*
X38061573Y125881431D01*
G37*
G36*
X38491377Y126893986D02*
G01*
X37662923Y127245644D01*
X37912991Y127834768D01*
X38741445Y127483110D01*
X38491377Y126893986D01*
G37*
G36*
G01*
X44445000Y66163750D02*
X44445000Y66676250D01*
G75*
G02*
X44663750Y66895000I218750J0D01*
G01*
X45101250Y66895000D01*
G75*
G02*
X45320000Y66676250I0J-218750D01*
G01*
X45320000Y66163750D01*
G75*
G02*
X45101250Y65945000I-218750J0D01*
G01*
X44663750Y65945000D01*
G75*
G02*
X44445000Y66163750I0J218750D01*
G01*
G37*
G36*
G01*
X46020000Y66163750D02*
X46020000Y66676250D01*
G75*
G02*
X46238750Y66895000I218750J0D01*
G01*
X46676250Y66895000D01*
G75*
G02*
X46895000Y66676250I0J-218750D01*
G01*
X46895000Y66163750D01*
G75*
G02*
X46676250Y65945000I-218750J0D01*
G01*
X46238750Y65945000D01*
G75*
G02*
X46020000Y66163750I0J218750D01*
G01*
G37*
G36*
X25454660Y100278993D02*
G01*
X25478408Y100271789D01*
X25500294Y100260091D01*
X25519477Y100244348D01*
X25624348Y100139477D01*
X25640091Y100120294D01*
X25651789Y100098408D01*
X25658993Y100074660D01*
X25661425Y100049964D01*
X25661425Y99583370D01*
X25658993Y99558674D01*
X25651789Y99534926D01*
X25640091Y99513040D01*
X25624348Y99493857D01*
X25519477Y99388986D01*
X25500294Y99373243D01*
X25478408Y99361545D01*
X25454660Y99354341D01*
X25429964Y99351909D01*
X24963370Y99351909D01*
X24938674Y99354341D01*
X24914926Y99361545D01*
X24893040Y99373243D01*
X24873857Y99388986D01*
X24768986Y99493857D01*
X24753243Y99513040D01*
X24741545Y99534926D01*
X24734341Y99558674D01*
X24731909Y99583370D01*
X24731909Y100049964D01*
X24734341Y100074660D01*
X24741545Y100098408D01*
X24753243Y100120294D01*
X24768986Y100139477D01*
X24873857Y100244348D01*
X24893040Y100260091D01*
X24914926Y100271789D01*
X24938674Y100278993D01*
X24963370Y100281425D01*
X25429964Y100281425D01*
X25454660Y100278993D01*
G37*
G36*
X25454660Y101312326D02*
G01*
X25478408Y101305122D01*
X25500294Y101293424D01*
X25519477Y101277681D01*
X25624348Y101172810D01*
X25640091Y101153627D01*
X25651789Y101131741D01*
X25658993Y101107993D01*
X25661425Y101083297D01*
X25661425Y100616703D01*
X25658993Y100592007D01*
X25651789Y100568259D01*
X25640091Y100546373D01*
X25624348Y100527190D01*
X25519477Y100422319D01*
X25500294Y100406576D01*
X25478408Y100394878D01*
X25454660Y100387674D01*
X25429964Y100385242D01*
X24963370Y100385242D01*
X24938674Y100387674D01*
X24914926Y100394878D01*
X24893040Y100406576D01*
X24873857Y100422319D01*
X24768986Y100527190D01*
X24753243Y100546373D01*
X24741545Y100568259D01*
X24734341Y100592007D01*
X24731909Y100616703D01*
X24731909Y101083297D01*
X24734341Y101107993D01*
X24741545Y101131741D01*
X24753243Y101153627D01*
X24768986Y101172810D01*
X24873857Y101277681D01*
X24893040Y101293424D01*
X24914926Y101305122D01*
X24938674Y101312326D01*
X24963370Y101314758D01*
X25429964Y101314758D01*
X25454660Y101312326D01*
G37*
G36*
X25454660Y102345659D02*
G01*
X25478408Y102338455D01*
X25500294Y102326757D01*
X25519477Y102311014D01*
X25624348Y102206143D01*
X25640091Y102186960D01*
X25651789Y102165074D01*
X25658993Y102141326D01*
X25661425Y102116630D01*
X25661425Y101650036D01*
X25658993Y101625340D01*
X25651789Y101601592D01*
X25640091Y101579706D01*
X25624348Y101560523D01*
X25519477Y101455652D01*
X25500294Y101439909D01*
X25478408Y101428211D01*
X25454660Y101421007D01*
X25429964Y101418575D01*
X24963370Y101418575D01*
X24938674Y101421007D01*
X24914926Y101428211D01*
X24893040Y101439909D01*
X24873857Y101455652D01*
X24768986Y101560523D01*
X24753243Y101579706D01*
X24741545Y101601592D01*
X24734341Y101625340D01*
X24731909Y101650036D01*
X24731909Y102116630D01*
X24734341Y102141326D01*
X24741545Y102165074D01*
X24753243Y102186960D01*
X24768986Y102206143D01*
X24873857Y102311014D01*
X24893040Y102326757D01*
X24914926Y102338455D01*
X24938674Y102345659D01*
X24963370Y102348091D01*
X25429964Y102348091D01*
X25454660Y102345659D01*
G37*
G36*
X26487993Y100278993D02*
G01*
X26511741Y100271789D01*
X26533627Y100260091D01*
X26552810Y100244348D01*
X26657681Y100139477D01*
X26673424Y100120294D01*
X26685122Y100098408D01*
X26692326Y100074660D01*
X26694758Y100049964D01*
X26694758Y99583370D01*
X26692326Y99558674D01*
X26685122Y99534926D01*
X26673424Y99513040D01*
X26657681Y99493857D01*
X26552810Y99388986D01*
X26533627Y99373243D01*
X26511741Y99361545D01*
X26487993Y99354341D01*
X26463297Y99351909D01*
X25996703Y99351909D01*
X25972007Y99354341D01*
X25948259Y99361545D01*
X25926373Y99373243D01*
X25907190Y99388986D01*
X25802319Y99493857D01*
X25786576Y99513040D01*
X25774878Y99534926D01*
X25767674Y99558674D01*
X25765242Y99583370D01*
X25765242Y100049964D01*
X25767674Y100074660D01*
X25774878Y100098408D01*
X25786576Y100120294D01*
X25802319Y100139477D01*
X25907190Y100244348D01*
X25926373Y100260091D01*
X25948259Y100271789D01*
X25972007Y100278993D01*
X25996703Y100281425D01*
X26463297Y100281425D01*
X26487993Y100278993D01*
G37*
G36*
X26487993Y101312326D02*
G01*
X26511741Y101305122D01*
X26533627Y101293424D01*
X26552810Y101277681D01*
X26657681Y101172810D01*
X26673424Y101153627D01*
X26685122Y101131741D01*
X26692326Y101107993D01*
X26694758Y101083297D01*
X26694758Y100616703D01*
X26692326Y100592007D01*
X26685122Y100568259D01*
X26673424Y100546373D01*
X26657681Y100527190D01*
X26552810Y100422319D01*
X26533627Y100406576D01*
X26511741Y100394878D01*
X26487993Y100387674D01*
X26463297Y100385242D01*
X25996703Y100385242D01*
X25972007Y100387674D01*
X25948259Y100394878D01*
X25926373Y100406576D01*
X25907190Y100422319D01*
X25802319Y100527190D01*
X25786576Y100546373D01*
X25774878Y100568259D01*
X25767674Y100592007D01*
X25765242Y100616703D01*
X25765242Y101083297D01*
X25767674Y101107993D01*
X25774878Y101131741D01*
X25786576Y101153627D01*
X25802319Y101172810D01*
X25907190Y101277681D01*
X25926373Y101293424D01*
X25948259Y101305122D01*
X25972007Y101312326D01*
X25996703Y101314758D01*
X26463297Y101314758D01*
X26487993Y101312326D01*
G37*
G36*
X26487993Y102345659D02*
G01*
X26511741Y102338455D01*
X26533627Y102326757D01*
X26552810Y102311014D01*
X26657681Y102206143D01*
X26673424Y102186960D01*
X26685122Y102165074D01*
X26692326Y102141326D01*
X26694758Y102116630D01*
X26694758Y101650036D01*
X26692326Y101625340D01*
X26685122Y101601592D01*
X26673424Y101579706D01*
X26657681Y101560523D01*
X26552810Y101455652D01*
X26533627Y101439909D01*
X26511741Y101428211D01*
X26487993Y101421007D01*
X26463297Y101418575D01*
X25996703Y101418575D01*
X25972007Y101421007D01*
X25948259Y101428211D01*
X25926373Y101439909D01*
X25907190Y101455652D01*
X25802319Y101560523D01*
X25786576Y101579706D01*
X25774878Y101601592D01*
X25767674Y101625340D01*
X25765242Y101650036D01*
X25765242Y102116630D01*
X25767674Y102141326D01*
X25774878Y102165074D01*
X25786576Y102186960D01*
X25802319Y102206143D01*
X25907190Y102311014D01*
X25926373Y102326757D01*
X25948259Y102338455D01*
X25972007Y102345659D01*
X25996703Y102348091D01*
X26463297Y102348091D01*
X26487993Y102345659D01*
G37*
G36*
X27521326Y100278993D02*
G01*
X27545074Y100271789D01*
X27566960Y100260091D01*
X27586143Y100244348D01*
X27691014Y100139477D01*
X27706757Y100120294D01*
X27718455Y100098408D01*
X27725659Y100074660D01*
X27728091Y100049964D01*
X27728091Y99583370D01*
X27725659Y99558674D01*
X27718455Y99534926D01*
X27706757Y99513040D01*
X27691014Y99493857D01*
X27586143Y99388986D01*
X27566960Y99373243D01*
X27545074Y99361545D01*
X27521326Y99354341D01*
X27496630Y99351909D01*
X27030036Y99351909D01*
X27005340Y99354341D01*
X26981592Y99361545D01*
X26959706Y99373243D01*
X26940523Y99388986D01*
X26835652Y99493857D01*
X26819909Y99513040D01*
X26808211Y99534926D01*
X26801007Y99558674D01*
X26798575Y99583370D01*
X26798575Y100049964D01*
X26801007Y100074660D01*
X26808211Y100098408D01*
X26819909Y100120294D01*
X26835652Y100139477D01*
X26940523Y100244348D01*
X26959706Y100260091D01*
X26981592Y100271789D01*
X27005340Y100278993D01*
X27030036Y100281425D01*
X27496630Y100281425D01*
X27521326Y100278993D01*
G37*
G36*
X27521326Y101312326D02*
G01*
X27545074Y101305122D01*
X27566960Y101293424D01*
X27586143Y101277681D01*
X27691014Y101172810D01*
X27706757Y101153627D01*
X27718455Y101131741D01*
X27725659Y101107993D01*
X27728091Y101083297D01*
X27728091Y100616703D01*
X27725659Y100592007D01*
X27718455Y100568259D01*
X27706757Y100546373D01*
X27691014Y100527190D01*
X27586143Y100422319D01*
X27566960Y100406576D01*
X27545074Y100394878D01*
X27521326Y100387674D01*
X27496630Y100385242D01*
X27030036Y100385242D01*
X27005340Y100387674D01*
X26981592Y100394878D01*
X26959706Y100406576D01*
X26940523Y100422319D01*
X26835652Y100527190D01*
X26819909Y100546373D01*
X26808211Y100568259D01*
X26801007Y100592007D01*
X26798575Y100616703D01*
X26798575Y101083297D01*
X26801007Y101107993D01*
X26808211Y101131741D01*
X26819909Y101153627D01*
X26835652Y101172810D01*
X26940523Y101277681D01*
X26959706Y101293424D01*
X26981592Y101305122D01*
X27005340Y101312326D01*
X27030036Y101314758D01*
X27496630Y101314758D01*
X27521326Y101312326D01*
G37*
G36*
X27521326Y102345659D02*
G01*
X27545074Y102338455D01*
X27566960Y102326757D01*
X27586143Y102311014D01*
X27691014Y102206143D01*
X27706757Y102186960D01*
X27718455Y102165074D01*
X27725659Y102141326D01*
X27728091Y102116630D01*
X27728091Y101650036D01*
X27725659Y101625340D01*
X27718455Y101601592D01*
X27706757Y101579706D01*
X27691014Y101560523D01*
X27586143Y101455652D01*
X27566960Y101439909D01*
X27545074Y101428211D01*
X27521326Y101421007D01*
X27496630Y101418575D01*
X27030036Y101418575D01*
X27005340Y101421007D01*
X26981592Y101428211D01*
X26959706Y101439909D01*
X26940523Y101455652D01*
X26835652Y101560523D01*
X26819909Y101579706D01*
X26808211Y101601592D01*
X26801007Y101625340D01*
X26798575Y101650036D01*
X26798575Y102116630D01*
X26801007Y102141326D01*
X26808211Y102165074D01*
X26819909Y102186960D01*
X26835652Y102206143D01*
X26940523Y102311014D01*
X26959706Y102326757D01*
X26981592Y102338455D01*
X27005340Y102345659D01*
X27030036Y102348091D01*
X27496630Y102348091D01*
X27521326Y102345659D01*
G37*
G36*
G01*
X23380000Y98987500D02*
X23380000Y99112500D01*
G75*
G02*
X23442500Y99175000I62500J0D01*
G01*
X24142500Y99175000D01*
G75*
G02*
X24205000Y99112500I0J-62500D01*
G01*
X24205000Y98987500D01*
G75*
G02*
X24142500Y98925000I-62500J0D01*
G01*
X23442500Y98925000D01*
G75*
G02*
X23380000Y98987500I0J62500D01*
G01*
G37*
G36*
G01*
X23380000Y99387500D02*
X23380000Y99512500D01*
G75*
G02*
X23442500Y99575000I62500J0D01*
G01*
X24142500Y99575000D01*
G75*
G02*
X24205000Y99512500I0J-62500D01*
G01*
X24205000Y99387500D01*
G75*
G02*
X24142500Y99325000I-62500J0D01*
G01*
X23442500Y99325000D01*
G75*
G02*
X23380000Y99387500I0J62500D01*
G01*
G37*
G36*
G01*
X23380000Y99787500D02*
X23380000Y99912500D01*
G75*
G02*
X23442500Y99975000I62500J0D01*
G01*
X24142500Y99975000D01*
G75*
G02*
X24205000Y99912500I0J-62500D01*
G01*
X24205000Y99787500D01*
G75*
G02*
X24142500Y99725000I-62500J0D01*
G01*
X23442500Y99725000D01*
G75*
G02*
X23380000Y99787500I0J62500D01*
G01*
G37*
G36*
G01*
X23380000Y100187500D02*
X23380000Y100312500D01*
G75*
G02*
X23442500Y100375000I62500J0D01*
G01*
X24142500Y100375000D01*
G75*
G02*
X24205000Y100312500I0J-62500D01*
G01*
X24205000Y100187500D01*
G75*
G02*
X24142500Y100125000I-62500J0D01*
G01*
X23442500Y100125000D01*
G75*
G02*
X23380000Y100187500I0J62500D01*
G01*
G37*
G36*
G01*
X23380000Y100587500D02*
X23380000Y100712500D01*
G75*
G02*
X23442500Y100775000I62500J0D01*
G01*
X24142500Y100775000D01*
G75*
G02*
X24205000Y100712500I0J-62500D01*
G01*
X24205000Y100587500D01*
G75*
G02*
X24142500Y100525000I-62500J0D01*
G01*
X23442500Y100525000D01*
G75*
G02*
X23380000Y100587500I0J62500D01*
G01*
G37*
G36*
G01*
X23380000Y100987500D02*
X23380000Y101112500D01*
G75*
G02*
X23442500Y101175000I62500J0D01*
G01*
X24142500Y101175000D01*
G75*
G02*
X24205000Y101112500I0J-62500D01*
G01*
X24205000Y100987500D01*
G75*
G02*
X24142500Y100925000I-62500J0D01*
G01*
X23442500Y100925000D01*
G75*
G02*
X23380000Y100987500I0J62500D01*
G01*
G37*
G36*
G01*
X23380000Y101387500D02*
X23380000Y101512500D01*
G75*
G02*
X23442500Y101575000I62500J0D01*
G01*
X24142500Y101575000D01*
G75*
G02*
X24205000Y101512500I0J-62500D01*
G01*
X24205000Y101387500D01*
G75*
G02*
X24142500Y101325000I-62500J0D01*
G01*
X23442500Y101325000D01*
G75*
G02*
X23380000Y101387500I0J62500D01*
G01*
G37*
G36*
G01*
X23380000Y101787500D02*
X23380000Y101912500D01*
G75*
G02*
X23442500Y101975000I62500J0D01*
G01*
X24142500Y101975000D01*
G75*
G02*
X24205000Y101912500I0J-62500D01*
G01*
X24205000Y101787500D01*
G75*
G02*
X24142500Y101725000I-62500J0D01*
G01*
X23442500Y101725000D01*
G75*
G02*
X23380000Y101787500I0J62500D01*
G01*
G37*
G36*
G01*
X23380000Y102187500D02*
X23380000Y102312500D01*
G75*
G02*
X23442500Y102375000I62500J0D01*
G01*
X24142500Y102375000D01*
G75*
G02*
X24205000Y102312500I0J-62500D01*
G01*
X24205000Y102187500D01*
G75*
G02*
X24142500Y102125000I-62500J0D01*
G01*
X23442500Y102125000D01*
G75*
G02*
X23380000Y102187500I0J62500D01*
G01*
G37*
G36*
G01*
X23380000Y102587500D02*
X23380000Y102712500D01*
G75*
G02*
X23442500Y102775000I62500J0D01*
G01*
X24142500Y102775000D01*
G75*
G02*
X24205000Y102712500I0J-62500D01*
G01*
X24205000Y102587500D01*
G75*
G02*
X24142500Y102525000I-62500J0D01*
G01*
X23442500Y102525000D01*
G75*
G02*
X23380000Y102587500I0J62500D01*
G01*
G37*
G36*
G01*
X24305000Y102937500D02*
X24305000Y103637500D01*
G75*
G02*
X24367500Y103700000I62500J0D01*
G01*
X24492500Y103700000D01*
G75*
G02*
X24555000Y103637500I0J-62500D01*
G01*
X24555000Y102937500D01*
G75*
G02*
X24492500Y102875000I-62500J0D01*
G01*
X24367500Y102875000D01*
G75*
G02*
X24305000Y102937500I0J62500D01*
G01*
G37*
G36*
G01*
X24705000Y102937500D02*
X24705000Y103637500D01*
G75*
G02*
X24767500Y103700000I62500J0D01*
G01*
X24892500Y103700000D01*
G75*
G02*
X24955000Y103637500I0J-62500D01*
G01*
X24955000Y102937500D01*
G75*
G02*
X24892500Y102875000I-62500J0D01*
G01*
X24767500Y102875000D01*
G75*
G02*
X24705000Y102937500I0J62500D01*
G01*
G37*
G36*
G01*
X25105000Y102937500D02*
X25105000Y103637500D01*
G75*
G02*
X25167500Y103700000I62500J0D01*
G01*
X25292500Y103700000D01*
G75*
G02*
X25355000Y103637500I0J-62500D01*
G01*
X25355000Y102937500D01*
G75*
G02*
X25292500Y102875000I-62500J0D01*
G01*
X25167500Y102875000D01*
G75*
G02*
X25105000Y102937500I0J62500D01*
G01*
G37*
G36*
G01*
X25505000Y102937500D02*
X25505000Y103637500D01*
G75*
G02*
X25567500Y103700000I62500J0D01*
G01*
X25692500Y103700000D01*
G75*
G02*
X25755000Y103637500I0J-62500D01*
G01*
X25755000Y102937500D01*
G75*
G02*
X25692500Y102875000I-62500J0D01*
G01*
X25567500Y102875000D01*
G75*
G02*
X25505000Y102937500I0J62500D01*
G01*
G37*
G36*
G01*
X25905000Y102937500D02*
X25905000Y103637500D01*
G75*
G02*
X25967500Y103700000I62500J0D01*
G01*
X26092500Y103700000D01*
G75*
G02*
X26155000Y103637500I0J-62500D01*
G01*
X26155000Y102937500D01*
G75*
G02*
X26092500Y102875000I-62500J0D01*
G01*
X25967500Y102875000D01*
G75*
G02*
X25905000Y102937500I0J62500D01*
G01*
G37*
G36*
G01*
X26305000Y102937500D02*
X26305000Y103637500D01*
G75*
G02*
X26367500Y103700000I62500J0D01*
G01*
X26492500Y103700000D01*
G75*
G02*
X26555000Y103637500I0J-62500D01*
G01*
X26555000Y102937500D01*
G75*
G02*
X26492500Y102875000I-62500J0D01*
G01*
X26367500Y102875000D01*
G75*
G02*
X26305000Y102937500I0J62500D01*
G01*
G37*
G36*
G01*
X26705000Y102937500D02*
X26705000Y103637500D01*
G75*
G02*
X26767500Y103700000I62500J0D01*
G01*
X26892500Y103700000D01*
G75*
G02*
X26955000Y103637500I0J-62500D01*
G01*
X26955000Y102937500D01*
G75*
G02*
X26892500Y102875000I-62500J0D01*
G01*
X26767500Y102875000D01*
G75*
G02*
X26705000Y102937500I0J62500D01*
G01*
G37*
G36*
G01*
X27105000Y102937500D02*
X27105000Y103637500D01*
G75*
G02*
X27167500Y103700000I62500J0D01*
G01*
X27292500Y103700000D01*
G75*
G02*
X27355000Y103637500I0J-62500D01*
G01*
X27355000Y102937500D01*
G75*
G02*
X27292500Y102875000I-62500J0D01*
G01*
X27167500Y102875000D01*
G75*
G02*
X27105000Y102937500I0J62500D01*
G01*
G37*
G36*
G01*
X27505000Y102937500D02*
X27505000Y103637500D01*
G75*
G02*
X27567500Y103700000I62500J0D01*
G01*
X27692500Y103700000D01*
G75*
G02*
X27755000Y103637500I0J-62500D01*
G01*
X27755000Y102937500D01*
G75*
G02*
X27692500Y102875000I-62500J0D01*
G01*
X27567500Y102875000D01*
G75*
G02*
X27505000Y102937500I0J62500D01*
G01*
G37*
G36*
G01*
X27905000Y102937500D02*
X27905000Y103637500D01*
G75*
G02*
X27967500Y103700000I62500J0D01*
G01*
X28092500Y103700000D01*
G75*
G02*
X28155000Y103637500I0J-62500D01*
G01*
X28155000Y102937500D01*
G75*
G02*
X28092500Y102875000I-62500J0D01*
G01*
X27967500Y102875000D01*
G75*
G02*
X27905000Y102937500I0J62500D01*
G01*
G37*
G36*
G01*
X28255000Y102587500D02*
X28255000Y102712500D01*
G75*
G02*
X28317500Y102775000I62500J0D01*
G01*
X29017500Y102775000D01*
G75*
G02*
X29080000Y102712500I0J-62500D01*
G01*
X29080000Y102587500D01*
G75*
G02*
X29017500Y102525000I-62500J0D01*
G01*
X28317500Y102525000D01*
G75*
G02*
X28255000Y102587500I0J62500D01*
G01*
G37*
G36*
G01*
X28255000Y102187500D02*
X28255000Y102312500D01*
G75*
G02*
X28317500Y102375000I62500J0D01*
G01*
X29017500Y102375000D01*
G75*
G02*
X29080000Y102312500I0J-62500D01*
G01*
X29080000Y102187500D01*
G75*
G02*
X29017500Y102125000I-62500J0D01*
G01*
X28317500Y102125000D01*
G75*
G02*
X28255000Y102187500I0J62500D01*
G01*
G37*
G36*
G01*
X28255000Y101787500D02*
X28255000Y101912500D01*
G75*
G02*
X28317500Y101975000I62500J0D01*
G01*
X29017500Y101975000D01*
G75*
G02*
X29080000Y101912500I0J-62500D01*
G01*
X29080000Y101787500D01*
G75*
G02*
X29017500Y101725000I-62500J0D01*
G01*
X28317500Y101725000D01*
G75*
G02*
X28255000Y101787500I0J62500D01*
G01*
G37*
G36*
G01*
X28255000Y101387500D02*
X28255000Y101512500D01*
G75*
G02*
X28317500Y101575000I62500J0D01*
G01*
X29017500Y101575000D01*
G75*
G02*
X29080000Y101512500I0J-62500D01*
G01*
X29080000Y101387500D01*
G75*
G02*
X29017500Y101325000I-62500J0D01*
G01*
X28317500Y101325000D01*
G75*
G02*
X28255000Y101387500I0J62500D01*
G01*
G37*
G36*
G01*
X28255000Y100987500D02*
X28255000Y101112500D01*
G75*
G02*
X28317500Y101175000I62500J0D01*
G01*
X29017500Y101175000D01*
G75*
G02*
X29080000Y101112500I0J-62500D01*
G01*
X29080000Y100987500D01*
G75*
G02*
X29017500Y100925000I-62500J0D01*
G01*
X28317500Y100925000D01*
G75*
G02*
X28255000Y100987500I0J62500D01*
G01*
G37*
G36*
G01*
X28255000Y100587500D02*
X28255000Y100712500D01*
G75*
G02*
X28317500Y100775000I62500J0D01*
G01*
X29017500Y100775000D01*
G75*
G02*
X29080000Y100712500I0J-62500D01*
G01*
X29080000Y100587500D01*
G75*
G02*
X29017500Y100525000I-62500J0D01*
G01*
X28317500Y100525000D01*
G75*
G02*
X28255000Y100587500I0J62500D01*
G01*
G37*
G36*
G01*
X28255000Y100187500D02*
X28255000Y100312500D01*
G75*
G02*
X28317500Y100375000I62500J0D01*
G01*
X29017500Y100375000D01*
G75*
G02*
X29080000Y100312500I0J-62500D01*
G01*
X29080000Y100187500D01*
G75*
G02*
X29017500Y100125000I-62500J0D01*
G01*
X28317500Y100125000D01*
G75*
G02*
X28255000Y100187500I0J62500D01*
G01*
G37*
G36*
G01*
X28255000Y99787500D02*
X28255000Y99912500D01*
G75*
G02*
X28317500Y99975000I62500J0D01*
G01*
X29017500Y99975000D01*
G75*
G02*
X29080000Y99912500I0J-62500D01*
G01*
X29080000Y99787500D01*
G75*
G02*
X29017500Y99725000I-62500J0D01*
G01*
X28317500Y99725000D01*
G75*
G02*
X28255000Y99787500I0J62500D01*
G01*
G37*
G36*
G01*
X28255000Y99387500D02*
X28255000Y99512500D01*
G75*
G02*
X28317500Y99575000I62500J0D01*
G01*
X29017500Y99575000D01*
G75*
G02*
X29080000Y99512500I0J-62500D01*
G01*
X29080000Y99387500D01*
G75*
G02*
X29017500Y99325000I-62500J0D01*
G01*
X28317500Y99325000D01*
G75*
G02*
X28255000Y99387500I0J62500D01*
G01*
G37*
G36*
G01*
X28255000Y98987500D02*
X28255000Y99112500D01*
G75*
G02*
X28317500Y99175000I62500J0D01*
G01*
X29017500Y99175000D01*
G75*
G02*
X29080000Y99112500I0J-62500D01*
G01*
X29080000Y98987500D01*
G75*
G02*
X29017500Y98925000I-62500J0D01*
G01*
X28317500Y98925000D01*
G75*
G02*
X28255000Y98987500I0J62500D01*
G01*
G37*
G36*
G01*
X27905000Y98062500D02*
X27905000Y98762500D01*
G75*
G02*
X27967500Y98825000I62500J0D01*
G01*
X28092500Y98825000D01*
G75*
G02*
X28155000Y98762500I0J-62500D01*
G01*
X28155000Y98062500D01*
G75*
G02*
X28092500Y98000000I-62500J0D01*
G01*
X27967500Y98000000D01*
G75*
G02*
X27905000Y98062500I0J62500D01*
G01*
G37*
G36*
G01*
X27505000Y98062500D02*
X27505000Y98762500D01*
G75*
G02*
X27567500Y98825000I62500J0D01*
G01*
X27692500Y98825000D01*
G75*
G02*
X27755000Y98762500I0J-62500D01*
G01*
X27755000Y98062500D01*
G75*
G02*
X27692500Y98000000I-62500J0D01*
G01*
X27567500Y98000000D01*
G75*
G02*
X27505000Y98062500I0J62500D01*
G01*
G37*
G36*
G01*
X27105000Y98062500D02*
X27105000Y98762500D01*
G75*
G02*
X27167500Y98825000I62500J0D01*
G01*
X27292500Y98825000D01*
G75*
G02*
X27355000Y98762500I0J-62500D01*
G01*
X27355000Y98062500D01*
G75*
G02*
X27292500Y98000000I-62500J0D01*
G01*
X27167500Y98000000D01*
G75*
G02*
X27105000Y98062500I0J62500D01*
G01*
G37*
G36*
G01*
X26705000Y98062500D02*
X26705000Y98762500D01*
G75*
G02*
X26767500Y98825000I62500J0D01*
G01*
X26892500Y98825000D01*
G75*
G02*
X26955000Y98762500I0J-62500D01*
G01*
X26955000Y98062500D01*
G75*
G02*
X26892500Y98000000I-62500J0D01*
G01*
X26767500Y98000000D01*
G75*
G02*
X26705000Y98062500I0J62500D01*
G01*
G37*
G36*
G01*
X26305000Y98062500D02*
X26305000Y98762500D01*
G75*
G02*
X26367500Y98825000I62500J0D01*
G01*
X26492500Y98825000D01*
G75*
G02*
X26555000Y98762500I0J-62500D01*
G01*
X26555000Y98062500D01*
G75*
G02*
X26492500Y98000000I-62500J0D01*
G01*
X26367500Y98000000D01*
G75*
G02*
X26305000Y98062500I0J62500D01*
G01*
G37*
G36*
G01*
X25905000Y98062500D02*
X25905000Y98762500D01*
G75*
G02*
X25967500Y98825000I62500J0D01*
G01*
X26092500Y98825000D01*
G75*
G02*
X26155000Y98762500I0J-62500D01*
G01*
X26155000Y98062500D01*
G75*
G02*
X26092500Y98000000I-62500J0D01*
G01*
X25967500Y98000000D01*
G75*
G02*
X25905000Y98062500I0J62500D01*
G01*
G37*
G36*
G01*
X25505000Y98062500D02*
X25505000Y98762500D01*
G75*
G02*
X25567500Y98825000I62500J0D01*
G01*
X25692500Y98825000D01*
G75*
G02*
X25755000Y98762500I0J-62500D01*
G01*
X25755000Y98062500D01*
G75*
G02*
X25692500Y98000000I-62500J0D01*
G01*
X25567500Y98000000D01*
G75*
G02*
X25505000Y98062500I0J62500D01*
G01*
G37*
G36*
G01*
X25105000Y98062500D02*
X25105000Y98762500D01*
G75*
G02*
X25167500Y98825000I62500J0D01*
G01*
X25292500Y98825000D01*
G75*
G02*
X25355000Y98762500I0J-62500D01*
G01*
X25355000Y98062500D01*
G75*
G02*
X25292500Y98000000I-62500J0D01*
G01*
X25167500Y98000000D01*
G75*
G02*
X25105000Y98062500I0J62500D01*
G01*
G37*
G36*
G01*
X24705000Y98062500D02*
X24705000Y98762500D01*
G75*
G02*
X24767500Y98825000I62500J0D01*
G01*
X24892500Y98825000D01*
G75*
G02*
X24955000Y98762500I0J-62500D01*
G01*
X24955000Y98062500D01*
G75*
G02*
X24892500Y98000000I-62500J0D01*
G01*
X24767500Y98000000D01*
G75*
G02*
X24705000Y98062500I0J62500D01*
G01*
G37*
G36*
G01*
X24305000Y98062500D02*
X24305000Y98762500D01*
G75*
G02*
X24367500Y98825000I62500J0D01*
G01*
X24492500Y98825000D01*
G75*
G02*
X24555000Y98762500I0J-62500D01*
G01*
X24555000Y98062500D01*
G75*
G02*
X24492500Y98000000I-62500J0D01*
G01*
X24367500Y98000000D01*
G75*
G02*
X24305000Y98062500I0J62500D01*
G01*
G37*
D11*
X49710000Y61850000D03*
X49710000Y62350000D03*
X49710000Y62850000D03*
X49710000Y63350000D03*
X49710000Y63850000D03*
X49710000Y64350000D03*
X49710000Y64850000D03*
X49710000Y65350000D03*
X49710000Y65850000D03*
X49710000Y66350000D03*
X49710000Y66850000D03*
X49710000Y67350000D03*
X49710000Y67850000D03*
X49710000Y68350000D03*
X49710000Y68850000D03*
X49710000Y69350000D03*
X49710000Y69850000D03*
X49710000Y70350000D03*
X49710000Y70850000D03*
X49710000Y71350000D03*
X49710000Y71850000D03*
X49710000Y72350000D03*
X49710000Y72850000D03*
X49710000Y73350000D03*
X49710000Y73850000D03*
X49710000Y74350000D03*
X49710000Y74850000D03*
X49710000Y75350000D03*
X49710000Y75850000D03*
X49710000Y76350000D03*
X49710000Y76850000D03*
X49710000Y77350000D03*
X49710000Y77850000D03*
X49710000Y78350000D03*
X49710000Y78850000D03*
X49710000Y79350000D03*
X49710000Y79850000D03*
X49710000Y80350000D03*
X49710000Y80850000D03*
X49710000Y81350000D03*
X49710000Y81850000D03*
X49710000Y82350000D03*
X49710000Y82850000D03*
X49710000Y83350000D03*
X49710000Y83850000D03*
X49710000Y84350000D03*
X49710000Y84850000D03*
X49710000Y85350000D03*
X49710000Y85850000D03*
X49710000Y86350000D03*
D12*
X52960000Y88250000D03*
X52960000Y59950000D03*
D13*
X84688680Y19007840D03*
X84688680Y15007840D03*
G36*
G01*
X54713750Y122826668D02*
X55226250Y122826668D01*
G75*
G02*
X55445000Y122607918I0J-218750D01*
G01*
X55445000Y122170418D01*
G75*
G02*
X55226250Y121951668I-218750J0D01*
G01*
X54713750Y121951668D01*
G75*
G02*
X54495000Y122170418I0J218750D01*
G01*
X54495000Y122607918D01*
G75*
G02*
X54713750Y122826668I218750J0D01*
G01*
G37*
G36*
G01*
X54713750Y124401668D02*
X55226250Y124401668D01*
G75*
G02*
X55445000Y124182918I0J-218750D01*
G01*
X55445000Y123745418D01*
G75*
G02*
X55226250Y123526668I-218750J0D01*
G01*
X54713750Y123526668D01*
G75*
G02*
X54495000Y123745418I0J218750D01*
G01*
X54495000Y124182918D01*
G75*
G02*
X54713750Y124401668I218750J0D01*
G01*
G37*
G36*
G01*
X9063010Y48699940D02*
X9575510Y48699940D01*
G75*
G02*
X9794260Y48481190I0J-218750D01*
G01*
X9794260Y48043690D01*
G75*
G02*
X9575510Y47824940I-218750J0D01*
G01*
X9063010Y47824940D01*
G75*
G02*
X8844260Y48043690I0J218750D01*
G01*
X8844260Y48481190D01*
G75*
G02*
X9063010Y48699940I218750J0D01*
G01*
G37*
G36*
G01*
X9063010Y50274940D02*
X9575510Y50274940D01*
G75*
G02*
X9794260Y50056190I0J-218750D01*
G01*
X9794260Y49618690D01*
G75*
G02*
X9575510Y49399940I-218750J0D01*
G01*
X9063010Y49399940D01*
G75*
G02*
X8844260Y49618690I0J218750D01*
G01*
X8844260Y50056190D01*
G75*
G02*
X9063010Y50274940I218750J0D01*
G01*
G37*
G36*
G01*
X6651970Y45925220D02*
X6139470Y45925220D01*
G75*
G02*
X5920720Y46143970I0J218750D01*
G01*
X5920720Y46581470D01*
G75*
G02*
X6139470Y46800220I218750J0D01*
G01*
X6651970Y46800220D01*
G75*
G02*
X6870720Y46581470I0J-218750D01*
G01*
X6870720Y46143970D01*
G75*
G02*
X6651970Y45925220I-218750J0D01*
G01*
G37*
G36*
G01*
X6651970Y44350220D02*
X6139470Y44350220D01*
G75*
G02*
X5920720Y44568970I0J218750D01*
G01*
X5920720Y45006470D01*
G75*
G02*
X6139470Y45225220I218750J0D01*
G01*
X6651970Y45225220D01*
G75*
G02*
X6870720Y45006470I0J-218750D01*
G01*
X6870720Y44568970D01*
G75*
G02*
X6651970Y44350220I-218750J0D01*
G01*
G37*
G36*
G01*
X34390000Y101593750D02*
X34390000Y102106250D01*
G75*
G02*
X34608750Y102325000I218750J0D01*
G01*
X35046250Y102325000D01*
G75*
G02*
X35265000Y102106250I0J-218750D01*
G01*
X35265000Y101593750D01*
G75*
G02*
X35046250Y101375000I-218750J0D01*
G01*
X34608750Y101375000D01*
G75*
G02*
X34390000Y101593750I0J218750D01*
G01*
G37*
G36*
G01*
X32815000Y101593750D02*
X32815000Y102106250D01*
G75*
G02*
X33033750Y102325000I218750J0D01*
G01*
X33471250Y102325000D01*
G75*
G02*
X33690000Y102106250I0J-218750D01*
G01*
X33690000Y101593750D01*
G75*
G02*
X33471250Y101375000I-218750J0D01*
G01*
X33033750Y101375000D01*
G75*
G02*
X32815000Y101593750I0J218750D01*
G01*
G37*
G36*
G01*
X81105750Y12002600D02*
X81618250Y12002600D01*
G75*
G02*
X81837000Y11783850I0J-218750D01*
G01*
X81837000Y11346350D01*
G75*
G02*
X81618250Y11127600I-218750J0D01*
G01*
X81105750Y11127600D01*
G75*
G02*
X80887000Y11346350I0J218750D01*
G01*
X80887000Y11783850D01*
G75*
G02*
X81105750Y12002600I218750J0D01*
G01*
G37*
G36*
G01*
X81105750Y13577600D02*
X81618250Y13577600D01*
G75*
G02*
X81837000Y13358850I0J-218750D01*
G01*
X81837000Y12921350D01*
G75*
G02*
X81618250Y12702600I-218750J0D01*
G01*
X81105750Y12702600D01*
G75*
G02*
X80887000Y12921350I0J218750D01*
G01*
X80887000Y13358850D01*
G75*
G02*
X81105750Y13577600I218750J0D01*
G01*
G37*
G36*
G01*
X12283150Y26037020D02*
X11770650Y26037020D01*
G75*
G02*
X11551900Y26255770I0J218750D01*
G01*
X11551900Y26693270D01*
G75*
G02*
X11770650Y26912020I218750J0D01*
G01*
X12283150Y26912020D01*
G75*
G02*
X12501900Y26693270I0J-218750D01*
G01*
X12501900Y26255770D01*
G75*
G02*
X12283150Y26037020I-218750J0D01*
G01*
G37*
G36*
G01*
X12283150Y24462020D02*
X11770650Y24462020D01*
G75*
G02*
X11551900Y24680770I0J218750D01*
G01*
X11551900Y25118270D01*
G75*
G02*
X11770650Y25337020I218750J0D01*
G01*
X12283150Y25337020D01*
G75*
G02*
X12501900Y25118270I0J-218750D01*
G01*
X12501900Y24680770D01*
G75*
G02*
X12283150Y24462020I-218750J0D01*
G01*
G37*
G36*
G01*
X9406250Y15100000D02*
X8893750Y15100000D01*
G75*
G02*
X8675000Y15318750I0J218750D01*
G01*
X8675000Y15756250D01*
G75*
G02*
X8893750Y15975000I218750J0D01*
G01*
X9406250Y15975000D01*
G75*
G02*
X9625000Y15756250I0J-218750D01*
G01*
X9625000Y15318750D01*
G75*
G02*
X9406250Y15100000I-218750J0D01*
G01*
G37*
G36*
G01*
X9406250Y13525000D02*
X8893750Y13525000D01*
G75*
G02*
X8675000Y13743750I0J218750D01*
G01*
X8675000Y14181250D01*
G75*
G02*
X8893750Y14400000I218750J0D01*
G01*
X9406250Y14400000D01*
G75*
G02*
X9625000Y14181250I0J-218750D01*
G01*
X9625000Y13743750D01*
G75*
G02*
X9406250Y13525000I-218750J0D01*
G01*
G37*
G36*
G01*
X62860000Y92893750D02*
X62860000Y93406250D01*
G75*
G02*
X63078750Y93625000I218750J0D01*
G01*
X63516250Y93625000D01*
G75*
G02*
X63735000Y93406250I0J-218750D01*
G01*
X63735000Y92893750D01*
G75*
G02*
X63516250Y92675000I-218750J0D01*
G01*
X63078750Y92675000D01*
G75*
G02*
X62860000Y92893750I0J218750D01*
G01*
G37*
G36*
G01*
X61285000Y92893750D02*
X61285000Y93406250D01*
G75*
G02*
X61503750Y93625000I218750J0D01*
G01*
X61941250Y93625000D01*
G75*
G02*
X62160000Y93406250I0J-218750D01*
G01*
X62160000Y92893750D01*
G75*
G02*
X61941250Y92675000I-218750J0D01*
G01*
X61503750Y92675000D01*
G75*
G02*
X61285000Y92893750I0J218750D01*
G01*
G37*
G36*
G01*
X67746250Y99480000D02*
X67233750Y99480000D01*
G75*
G02*
X67015000Y99698750I0J218750D01*
G01*
X67015000Y100136250D01*
G75*
G02*
X67233750Y100355000I218750J0D01*
G01*
X67746250Y100355000D01*
G75*
G02*
X67965000Y100136250I0J-218750D01*
G01*
X67965000Y99698750D01*
G75*
G02*
X67746250Y99480000I-218750J0D01*
G01*
G37*
G36*
G01*
X67746250Y97905000D02*
X67233750Y97905000D01*
G75*
G02*
X67015000Y98123750I0J218750D01*
G01*
X67015000Y98561250D01*
G75*
G02*
X67233750Y98780000I218750J0D01*
G01*
X67746250Y98780000D01*
G75*
G02*
X67965000Y98561250I0J-218750D01*
G01*
X67965000Y98123750D01*
G75*
G02*
X67746250Y97905000I-218750J0D01*
G01*
G37*
G36*
G01*
X75810000Y37973750D02*
X75810000Y38486250D01*
G75*
G02*
X76028750Y38705000I218750J0D01*
G01*
X76466250Y38705000D01*
G75*
G02*
X76685000Y38486250I0J-218750D01*
G01*
X76685000Y37973750D01*
G75*
G02*
X76466250Y37755000I-218750J0D01*
G01*
X76028750Y37755000D01*
G75*
G02*
X75810000Y37973750I0J218750D01*
G01*
G37*
G36*
G01*
X74235000Y37973750D02*
X74235000Y38486250D01*
G75*
G02*
X74453750Y38705000I218750J0D01*
G01*
X74891250Y38705000D01*
G75*
G02*
X75110000Y38486250I0J-218750D01*
G01*
X75110000Y37973750D01*
G75*
G02*
X74891250Y37755000I-218750J0D01*
G01*
X74453750Y37755000D01*
G75*
G02*
X74235000Y37973750I0J218750D01*
G01*
G37*
G36*
G01*
X62860000Y94843750D02*
X62860000Y95356250D01*
G75*
G02*
X63078750Y95575000I218750J0D01*
G01*
X63516250Y95575000D01*
G75*
G02*
X63735000Y95356250I0J-218750D01*
G01*
X63735000Y94843750D01*
G75*
G02*
X63516250Y94625000I-218750J0D01*
G01*
X63078750Y94625000D01*
G75*
G02*
X62860000Y94843750I0J218750D01*
G01*
G37*
G36*
G01*
X61285000Y94843750D02*
X61285000Y95356250D01*
G75*
G02*
X61503750Y95575000I218750J0D01*
G01*
X61941250Y95575000D01*
G75*
G02*
X62160000Y95356250I0J-218750D01*
G01*
X62160000Y94843750D01*
G75*
G02*
X61941250Y94625000I-218750J0D01*
G01*
X61503750Y94625000D01*
G75*
G02*
X61285000Y94843750I0J218750D01*
G01*
G37*
D14*
X6600000Y29540000D03*
X6600000Y27040000D03*
X6600000Y24540000D03*
G36*
G01*
X54703750Y125853334D02*
X55216250Y125853334D01*
G75*
G02*
X55435000Y125634584I0J-218750D01*
G01*
X55435000Y125197084D01*
G75*
G02*
X55216250Y124978334I-218750J0D01*
G01*
X54703750Y124978334D01*
G75*
G02*
X54485000Y125197084I0J218750D01*
G01*
X54485000Y125634584D01*
G75*
G02*
X54703750Y125853334I218750J0D01*
G01*
G37*
G36*
G01*
X54703750Y127428334D02*
X55216250Y127428334D01*
G75*
G02*
X55435000Y127209584I0J-218750D01*
G01*
X55435000Y126772084D01*
G75*
G02*
X55216250Y126553334I-218750J0D01*
G01*
X54703750Y126553334D01*
G75*
G02*
X54485000Y126772084I0J218750D01*
G01*
X54485000Y127209584D01*
G75*
G02*
X54703750Y127428334I218750J0D01*
G01*
G37*
G36*
G01*
X63176250Y57260000D02*
X62663750Y57260000D01*
G75*
G02*
X62445000Y57478750I0J218750D01*
G01*
X62445000Y57916250D01*
G75*
G02*
X62663750Y58135000I218750J0D01*
G01*
X63176250Y58135000D01*
G75*
G02*
X63395000Y57916250I0J-218750D01*
G01*
X63395000Y57478750D01*
G75*
G02*
X63176250Y57260000I-218750J0D01*
G01*
G37*
G36*
G01*
X63176250Y55685000D02*
X62663750Y55685000D01*
G75*
G02*
X62445000Y55903750I0J218750D01*
G01*
X62445000Y56341250D01*
G75*
G02*
X62663750Y56560000I218750J0D01*
G01*
X63176250Y56560000D01*
G75*
G02*
X63395000Y56341250I0J-218750D01*
G01*
X63395000Y55903750D01*
G75*
G02*
X63176250Y55685000I-218750J0D01*
G01*
G37*
G36*
G01*
X62130000Y131703750D02*
X62130000Y132216250D01*
G75*
G02*
X62348750Y132435000I218750J0D01*
G01*
X62786250Y132435000D01*
G75*
G02*
X63005000Y132216250I0J-218750D01*
G01*
X63005000Y131703750D01*
G75*
G02*
X62786250Y131485000I-218750J0D01*
G01*
X62348750Y131485000D01*
G75*
G02*
X62130000Y131703750I0J218750D01*
G01*
G37*
G36*
G01*
X60555000Y131703750D02*
X60555000Y132216250D01*
G75*
G02*
X60773750Y132435000I218750J0D01*
G01*
X61211250Y132435000D01*
G75*
G02*
X61430000Y132216250I0J-218750D01*
G01*
X61430000Y131703750D01*
G75*
G02*
X61211250Y131485000I-218750J0D01*
G01*
X60773750Y131485000D01*
G75*
G02*
X60555000Y131703750I0J218750D01*
G01*
G37*
G36*
G01*
X33690000Y100616250D02*
X33690000Y100103750D01*
G75*
G02*
X33471250Y99885000I-218750J0D01*
G01*
X33033750Y99885000D01*
G75*
G02*
X32815000Y100103750I0J218750D01*
G01*
X32815000Y100616250D01*
G75*
G02*
X33033750Y100835000I218750J0D01*
G01*
X33471250Y100835000D01*
G75*
G02*
X33690000Y100616250I0J-218750D01*
G01*
G37*
G36*
G01*
X35265000Y100616250D02*
X35265000Y100103750D01*
G75*
G02*
X35046250Y99885000I-218750J0D01*
G01*
X34608750Y99885000D01*
G75*
G02*
X34390000Y100103750I0J218750D01*
G01*
X34390000Y100616250D01*
G75*
G02*
X34608750Y100835000I218750J0D01*
G01*
X35046250Y100835000D01*
G75*
G02*
X35265000Y100616250I0J-218750D01*
G01*
G37*
G36*
G01*
X33690000Y97636250D02*
X33690000Y97123750D01*
G75*
G02*
X33471250Y96905000I-218750J0D01*
G01*
X33033750Y96905000D01*
G75*
G02*
X32815000Y97123750I0J218750D01*
G01*
X32815000Y97636250D01*
G75*
G02*
X33033750Y97855000I218750J0D01*
G01*
X33471250Y97855000D01*
G75*
G02*
X33690000Y97636250I0J-218750D01*
G01*
G37*
G36*
G01*
X35265000Y97636250D02*
X35265000Y97123750D01*
G75*
G02*
X35046250Y96905000I-218750J0D01*
G01*
X34608750Y96905000D01*
G75*
G02*
X34390000Y97123750I0J218750D01*
G01*
X34390000Y97636250D01*
G75*
G02*
X34608750Y97855000I218750J0D01*
G01*
X35046250Y97855000D01*
G75*
G02*
X35265000Y97636250I0J-218750D01*
G01*
G37*
G36*
G01*
X25640000Y109201250D02*
X25640000Y108688750D01*
G75*
G02*
X25421250Y108470000I-218750J0D01*
G01*
X24983750Y108470000D01*
G75*
G02*
X24765000Y108688750I0J218750D01*
G01*
X24765000Y109201250D01*
G75*
G02*
X24983750Y109420000I218750J0D01*
G01*
X25421250Y109420000D01*
G75*
G02*
X25640000Y109201250I0J-218750D01*
G01*
G37*
G36*
G01*
X27215000Y109201250D02*
X27215000Y108688750D01*
G75*
G02*
X26996250Y108470000I-218750J0D01*
G01*
X26558750Y108470000D01*
G75*
G02*
X26340000Y108688750I0J218750D01*
G01*
X26340000Y109201250D01*
G75*
G02*
X26558750Y109420000I218750J0D01*
G01*
X26996250Y109420000D01*
G75*
G02*
X27215000Y109201250I0J-218750D01*
G01*
G37*
G36*
G01*
X25640000Y110746250D02*
X25640000Y110233750D01*
G75*
G02*
X25421250Y110015000I-218750J0D01*
G01*
X24983750Y110015000D01*
G75*
G02*
X24765000Y110233750I0J218750D01*
G01*
X24765000Y110746250D01*
G75*
G02*
X24983750Y110965000I218750J0D01*
G01*
X25421250Y110965000D01*
G75*
G02*
X25640000Y110746250I0J-218750D01*
G01*
G37*
G36*
G01*
X27215000Y110746250D02*
X27215000Y110233750D01*
G75*
G02*
X26996250Y110015000I-218750J0D01*
G01*
X26558750Y110015000D01*
G75*
G02*
X26340000Y110233750I0J218750D01*
G01*
X26340000Y110746250D01*
G75*
G02*
X26558750Y110965000I218750J0D01*
G01*
X26996250Y110965000D01*
G75*
G02*
X27215000Y110746250I0J-218750D01*
G01*
G37*
G36*
G01*
X34390000Y98613750D02*
X34390000Y99126250D01*
G75*
G02*
X34608750Y99345000I218750J0D01*
G01*
X35046250Y99345000D01*
G75*
G02*
X35265000Y99126250I0J-218750D01*
G01*
X35265000Y98613750D01*
G75*
G02*
X35046250Y98395000I-218750J0D01*
G01*
X34608750Y98395000D01*
G75*
G02*
X34390000Y98613750I0J218750D01*
G01*
G37*
G36*
G01*
X32815000Y98613750D02*
X32815000Y99126250D01*
G75*
G02*
X33033750Y99345000I218750J0D01*
G01*
X33471250Y99345000D01*
G75*
G02*
X33690000Y99126250I0J-218750D01*
G01*
X33690000Y98613750D01*
G75*
G02*
X33471250Y98395000I-218750J0D01*
G01*
X33033750Y98395000D01*
G75*
G02*
X32815000Y98613750I0J218750D01*
G01*
G37*
D15*
X52780000Y123760000D03*
X52780000Y125660000D03*
X50580000Y125660000D03*
D16*
X50580000Y123940000D03*
G36*
G01*
X2809530Y49238420D02*
X3322030Y49238420D01*
G75*
G02*
X3540780Y49019670I0J-218750D01*
G01*
X3540780Y48582170D01*
G75*
G02*
X3322030Y48363420I-218750J0D01*
G01*
X2809530Y48363420D01*
G75*
G02*
X2590780Y48582170I0J218750D01*
G01*
X2590780Y49019670D01*
G75*
G02*
X2809530Y49238420I218750J0D01*
G01*
G37*
G36*
G01*
X2809530Y50813420D02*
X3322030Y50813420D01*
G75*
G02*
X3540780Y50594670I0J-218750D01*
G01*
X3540780Y50157170D01*
G75*
G02*
X3322030Y49938420I-218750J0D01*
G01*
X2809530Y49938420D01*
G75*
G02*
X2590780Y50157170I0J218750D01*
G01*
X2590780Y50594670D01*
G75*
G02*
X2809530Y50813420I218750J0D01*
G01*
G37*
G36*
G01*
X8643750Y17575000D02*
X9556250Y17575000D01*
G75*
G02*
X9800000Y17331250I0J-243750D01*
G01*
X9800000Y16843750D01*
G75*
G02*
X9556250Y16600000I-243750J0D01*
G01*
X8643750Y16600000D01*
G75*
G02*
X8400000Y16843750I0J243750D01*
G01*
X8400000Y17331250D01*
G75*
G02*
X8643750Y17575000I243750J0D01*
G01*
G37*
G36*
G01*
X8643750Y19450000D02*
X9556250Y19450000D01*
G75*
G02*
X9800000Y19206250I0J-243750D01*
G01*
X9800000Y18718750D01*
G75*
G02*
X9556250Y18475000I-243750J0D01*
G01*
X8643750Y18475000D01*
G75*
G02*
X8400000Y18718750I0J243750D01*
G01*
X8400000Y19206250D01*
G75*
G02*
X8643750Y19450000I243750J0D01*
G01*
G37*
G36*
G01*
X27726250Y61760000D02*
X27213750Y61760000D01*
G75*
G02*
X26995000Y61978750I0J218750D01*
G01*
X26995000Y62416250D01*
G75*
G02*
X27213750Y62635000I218750J0D01*
G01*
X27726250Y62635000D01*
G75*
G02*
X27945000Y62416250I0J-218750D01*
G01*
X27945000Y61978750D01*
G75*
G02*
X27726250Y61760000I-218750J0D01*
G01*
G37*
G36*
G01*
X27726250Y60185000D02*
X27213750Y60185000D01*
G75*
G02*
X26995000Y60403750I0J218750D01*
G01*
X26995000Y60841250D01*
G75*
G02*
X27213750Y61060000I218750J0D01*
G01*
X27726250Y61060000D01*
G75*
G02*
X27945000Y60841250I0J-218750D01*
G01*
X27945000Y60403750D01*
G75*
G02*
X27726250Y60185000I-218750J0D01*
G01*
G37*
G36*
G01*
X79865650Y12702600D02*
X79353150Y12702600D01*
G75*
G02*
X79134400Y12921350I0J218750D01*
G01*
X79134400Y13358850D01*
G75*
G02*
X79353150Y13577600I218750J0D01*
G01*
X79865650Y13577600D01*
G75*
G02*
X80084400Y13358850I0J-218750D01*
G01*
X80084400Y12921350D01*
G75*
G02*
X79865650Y12702600I-218750J0D01*
G01*
G37*
G36*
G01*
X79865650Y11127600D02*
X79353150Y11127600D01*
G75*
G02*
X79134400Y11346350I0J218750D01*
G01*
X79134400Y11783850D01*
G75*
G02*
X79353150Y12002600I218750J0D01*
G01*
X79865650Y12002600D01*
G75*
G02*
X80084400Y11783850I0J-218750D01*
G01*
X80084400Y11346350D01*
G75*
G02*
X79865650Y11127600I-218750J0D01*
G01*
G37*
G36*
G01*
X46296250Y85880000D02*
X45783750Y85880000D01*
G75*
G02*
X45565000Y86098750I0J218750D01*
G01*
X45565000Y86536250D01*
G75*
G02*
X45783750Y86755000I218750J0D01*
G01*
X46296250Y86755000D01*
G75*
G02*
X46515000Y86536250I0J-218750D01*
G01*
X46515000Y86098750D01*
G75*
G02*
X46296250Y85880000I-218750J0D01*
G01*
G37*
G36*
G01*
X46296250Y84305000D02*
X45783750Y84305000D01*
G75*
G02*
X45565000Y84523750I0J218750D01*
G01*
X45565000Y84961250D01*
G75*
G02*
X45783750Y85180000I218750J0D01*
G01*
X46296250Y85180000D01*
G75*
G02*
X46515000Y84961250I0J-218750D01*
G01*
X46515000Y84523750D01*
G75*
G02*
X46296250Y84305000I-218750J0D01*
G01*
G37*
G36*
G01*
X53870000Y121156250D02*
X53870000Y120643750D01*
G75*
G02*
X53651250Y120425000I-218750J0D01*
G01*
X53213750Y120425000D01*
G75*
G02*
X52995000Y120643750I0J218750D01*
G01*
X52995000Y121156250D01*
G75*
G02*
X53213750Y121375000I218750J0D01*
G01*
X53651250Y121375000D01*
G75*
G02*
X53870000Y121156250I0J-218750D01*
G01*
G37*
G36*
G01*
X55445000Y121156250D02*
X55445000Y120643750D01*
G75*
G02*
X55226250Y120425000I-218750J0D01*
G01*
X54788750Y120425000D01*
G75*
G02*
X54570000Y120643750I0J218750D01*
G01*
X54570000Y121156250D01*
G75*
G02*
X54788750Y121375000I218750J0D01*
G01*
X55226250Y121375000D01*
G75*
G02*
X55445000Y121156250I0J-218750D01*
G01*
G37*
G36*
G01*
X57226250Y120990000D02*
X56713750Y120990000D01*
G75*
G02*
X56495000Y121208750I0J218750D01*
G01*
X56495000Y121646250D01*
G75*
G02*
X56713750Y121865000I218750J0D01*
G01*
X57226250Y121865000D01*
G75*
G02*
X57445000Y121646250I0J-218750D01*
G01*
X57445000Y121208750D01*
G75*
G02*
X57226250Y120990000I-218750J0D01*
G01*
G37*
G36*
G01*
X57226250Y119415000D02*
X56713750Y119415000D01*
G75*
G02*
X56495000Y119633750I0J218750D01*
G01*
X56495000Y120071250D01*
G75*
G02*
X56713750Y120290000I218750J0D01*
G01*
X57226250Y120290000D01*
G75*
G02*
X57445000Y120071250I0J-218750D01*
G01*
X57445000Y119633750D01*
G75*
G02*
X57226250Y119415000I-218750J0D01*
G01*
G37*
G36*
G01*
X57226250Y128920000D02*
X56713750Y128920000D01*
G75*
G02*
X56495000Y129138750I0J218750D01*
G01*
X56495000Y129576250D01*
G75*
G02*
X56713750Y129795000I218750J0D01*
G01*
X57226250Y129795000D01*
G75*
G02*
X57445000Y129576250I0J-218750D01*
G01*
X57445000Y129138750D01*
G75*
G02*
X57226250Y128920000I-218750J0D01*
G01*
G37*
G36*
G01*
X57226250Y127345000D02*
X56713750Y127345000D01*
G75*
G02*
X56495000Y127563750I0J218750D01*
G01*
X56495000Y128001250D01*
G75*
G02*
X56713750Y128220000I218750J0D01*
G01*
X57226250Y128220000D01*
G75*
G02*
X57445000Y128001250I0J-218750D01*
G01*
X57445000Y127563750D01*
G75*
G02*
X57226250Y127345000I-218750J0D01*
G01*
G37*
D17*
X5153480Y50490160D03*
X5153480Y48590160D03*
X7353480Y48590160D03*
X7353480Y49540160D03*
X7353480Y50490160D03*
G36*
G01*
X53860000Y128736250D02*
X53860000Y128223750D01*
G75*
G02*
X53641250Y128005000I-218750J0D01*
G01*
X53203750Y128005000D01*
G75*
G02*
X52985000Y128223750I0J218750D01*
G01*
X52985000Y128736250D01*
G75*
G02*
X53203750Y128955000I218750J0D01*
G01*
X53641250Y128955000D01*
G75*
G02*
X53860000Y128736250I0J-218750D01*
G01*
G37*
G36*
G01*
X55435000Y128736250D02*
X55435000Y128223750D01*
G75*
G02*
X55216250Y128005000I-218750J0D01*
G01*
X54778750Y128005000D01*
G75*
G02*
X54560000Y128223750I0J218750D01*
G01*
X54560000Y128736250D01*
G75*
G02*
X54778750Y128955000I218750J0D01*
G01*
X55216250Y128955000D01*
G75*
G02*
X55435000Y128736250I0J-218750D01*
G01*
G37*
G36*
G01*
X22902840Y16005500D02*
X25802840Y16005500D01*
G75*
G02*
X26052840Y15755500I0J-250000D01*
G01*
X26052840Y14755500D01*
G75*
G02*
X25802840Y14505500I-250000J0D01*
G01*
X22902840Y14505500D01*
G75*
G02*
X22652840Y14755500I0J250000D01*
G01*
X22652840Y15755500D01*
G75*
G02*
X22902840Y16005500I250000J0D01*
G01*
G37*
G36*
G01*
X22902840Y22705500D02*
X25802840Y22705500D01*
G75*
G02*
X26052840Y22455500I0J-250000D01*
G01*
X26052840Y21455500D01*
G75*
G02*
X25802840Y21205500I-250000J0D01*
G01*
X22902840Y21205500D01*
G75*
G02*
X22652840Y21455500I0J250000D01*
G01*
X22652840Y22455500D01*
G75*
G02*
X22902840Y22705500I250000J0D01*
G01*
G37*
G36*
G01*
X17102840Y18105500D02*
X20102840Y18105500D01*
G75*
G02*
X20352840Y17855500I0J-250000D01*
G01*
X20352840Y17355500D01*
G75*
G02*
X20102840Y17105500I-250000J0D01*
G01*
X17102840Y17105500D01*
G75*
G02*
X16852840Y17355500I0J250000D01*
G01*
X16852840Y17855500D01*
G75*
G02*
X17102840Y18105500I250000J0D01*
G01*
G37*
G36*
G01*
X17102840Y20105500D02*
X20102840Y20105500D01*
G75*
G02*
X20352840Y19855500I0J-250000D01*
G01*
X20352840Y19355500D01*
G75*
G02*
X20102840Y19105500I-250000J0D01*
G01*
X17102840Y19105500D01*
G75*
G02*
X16852840Y19355500I0J250000D01*
G01*
X16852840Y19855500D01*
G75*
G02*
X17102840Y20105500I250000J0D01*
G01*
G37*
D15*
X14231800Y21689060D03*
X12031800Y22639060D03*
X12031800Y20739060D03*
G36*
G01*
X45286250Y120090000D02*
X44773750Y120090000D01*
G75*
G02*
X44555000Y120308750I0J218750D01*
G01*
X44555000Y120746250D01*
G75*
G02*
X44773750Y120965000I218750J0D01*
G01*
X45286250Y120965000D01*
G75*
G02*
X45505000Y120746250I0J-218750D01*
G01*
X45505000Y120308750D01*
G75*
G02*
X45286250Y120090000I-218750J0D01*
G01*
G37*
G36*
G01*
X45286250Y118515000D02*
X44773750Y118515000D01*
G75*
G02*
X44555000Y118733750I0J218750D01*
G01*
X44555000Y119171250D01*
G75*
G02*
X44773750Y119390000I218750J0D01*
G01*
X45286250Y119390000D01*
G75*
G02*
X45505000Y119171250I0J-218750D01*
G01*
X45505000Y118733750D01*
G75*
G02*
X45286250Y118515000I-218750J0D01*
G01*
G37*
G36*
G01*
X12475000Y19331250D02*
X12475000Y18818750D01*
G75*
G02*
X12256250Y18600000I-218750J0D01*
G01*
X11818750Y18600000D01*
G75*
G02*
X11600000Y18818750I0J218750D01*
G01*
X11600000Y19331250D01*
G75*
G02*
X11818750Y19550000I218750J0D01*
G01*
X12256250Y19550000D01*
G75*
G02*
X12475000Y19331250I0J-218750D01*
G01*
G37*
G36*
G01*
X14050000Y19331250D02*
X14050000Y18818750D01*
G75*
G02*
X13831250Y18600000I-218750J0D01*
G01*
X13393750Y18600000D01*
G75*
G02*
X13175000Y18818750I0J218750D01*
G01*
X13175000Y19331250D01*
G75*
G02*
X13393750Y19550000I218750J0D01*
G01*
X13831250Y19550000D01*
G75*
G02*
X14050000Y19331250I0J-218750D01*
G01*
G37*
G36*
G01*
X64917500Y98785000D02*
X64217500Y98785000D01*
G75*
G02*
X64155000Y98847500I0J62500D01*
G01*
X64155000Y98972500D01*
G75*
G02*
X64217500Y99035000I62500J0D01*
G01*
X64917500Y99035000D01*
G75*
G02*
X64980000Y98972500I0J-62500D01*
G01*
X64980000Y98847500D01*
G75*
G02*
X64917500Y98785000I-62500J0D01*
G01*
G37*
G36*
G01*
X64917500Y99285000D02*
X64217500Y99285000D01*
G75*
G02*
X64155000Y99347500I0J62500D01*
G01*
X64155000Y99472500D01*
G75*
G02*
X64217500Y99535000I62500J0D01*
G01*
X64917500Y99535000D01*
G75*
G02*
X64980000Y99472500I0J-62500D01*
G01*
X64980000Y99347500D01*
G75*
G02*
X64917500Y99285000I-62500J0D01*
G01*
G37*
G36*
G01*
X64917500Y99785000D02*
X64217500Y99785000D01*
G75*
G02*
X64155000Y99847500I0J62500D01*
G01*
X64155000Y99972500D01*
G75*
G02*
X64217500Y100035000I62500J0D01*
G01*
X64917500Y100035000D01*
G75*
G02*
X64980000Y99972500I0J-62500D01*
G01*
X64980000Y99847500D01*
G75*
G02*
X64917500Y99785000I-62500J0D01*
G01*
G37*
G36*
G01*
X64917500Y100285000D02*
X64217500Y100285000D01*
G75*
G02*
X64155000Y100347500I0J62500D01*
G01*
X64155000Y100472500D01*
G75*
G02*
X64217500Y100535000I62500J0D01*
G01*
X64917500Y100535000D01*
G75*
G02*
X64980000Y100472500I0J-62500D01*
G01*
X64980000Y100347500D01*
G75*
G02*
X64917500Y100285000I-62500J0D01*
G01*
G37*
G36*
G01*
X64917500Y100785000D02*
X64217500Y100785000D01*
G75*
G02*
X64155000Y100847500I0J62500D01*
G01*
X64155000Y100972500D01*
G75*
G02*
X64217500Y101035000I62500J0D01*
G01*
X64917500Y101035000D01*
G75*
G02*
X64980000Y100972500I0J-62500D01*
G01*
X64980000Y100847500D01*
G75*
G02*
X64917500Y100785000I-62500J0D01*
G01*
G37*
G36*
G01*
X63692500Y101435000D02*
X63567500Y101435000D01*
G75*
G02*
X63505000Y101497500I0J62500D01*
G01*
X63505000Y102197500D01*
G75*
G02*
X63567500Y102260000I62500J0D01*
G01*
X63692500Y102260000D01*
G75*
G02*
X63755000Y102197500I0J-62500D01*
G01*
X63755000Y101497500D01*
G75*
G02*
X63692500Y101435000I-62500J0D01*
G01*
G37*
G36*
G01*
X63192500Y101435000D02*
X63067500Y101435000D01*
G75*
G02*
X63005000Y101497500I0J62500D01*
G01*
X63005000Y102197500D01*
G75*
G02*
X63067500Y102260000I62500J0D01*
G01*
X63192500Y102260000D01*
G75*
G02*
X63255000Y102197500I0J-62500D01*
G01*
X63255000Y101497500D01*
G75*
G02*
X63192500Y101435000I-62500J0D01*
G01*
G37*
G36*
G01*
X62692500Y101435000D02*
X62567500Y101435000D01*
G75*
G02*
X62505000Y101497500I0J62500D01*
G01*
X62505000Y102197500D01*
G75*
G02*
X62567500Y102260000I62500J0D01*
G01*
X62692500Y102260000D01*
G75*
G02*
X62755000Y102197500I0J-62500D01*
G01*
X62755000Y101497500D01*
G75*
G02*
X62692500Y101435000I-62500J0D01*
G01*
G37*
G36*
G01*
X62192500Y101435000D02*
X62067500Y101435000D01*
G75*
G02*
X62005000Y101497500I0J62500D01*
G01*
X62005000Y102197500D01*
G75*
G02*
X62067500Y102260000I62500J0D01*
G01*
X62192500Y102260000D01*
G75*
G02*
X62255000Y102197500I0J-62500D01*
G01*
X62255000Y101497500D01*
G75*
G02*
X62192500Y101435000I-62500J0D01*
G01*
G37*
G36*
G01*
X61692500Y101435000D02*
X61567500Y101435000D01*
G75*
G02*
X61505000Y101497500I0J62500D01*
G01*
X61505000Y102197500D01*
G75*
G02*
X61567500Y102260000I62500J0D01*
G01*
X61692500Y102260000D01*
G75*
G02*
X61755000Y102197500I0J-62500D01*
G01*
X61755000Y101497500D01*
G75*
G02*
X61692500Y101435000I-62500J0D01*
G01*
G37*
G36*
G01*
X61042500Y100785000D02*
X60342500Y100785000D01*
G75*
G02*
X60280000Y100847500I0J62500D01*
G01*
X60280000Y100972500D01*
G75*
G02*
X60342500Y101035000I62500J0D01*
G01*
X61042500Y101035000D01*
G75*
G02*
X61105000Y100972500I0J-62500D01*
G01*
X61105000Y100847500D01*
G75*
G02*
X61042500Y100785000I-62500J0D01*
G01*
G37*
G36*
G01*
X61042500Y100285000D02*
X60342500Y100285000D01*
G75*
G02*
X60280000Y100347500I0J62500D01*
G01*
X60280000Y100472500D01*
G75*
G02*
X60342500Y100535000I62500J0D01*
G01*
X61042500Y100535000D01*
G75*
G02*
X61105000Y100472500I0J-62500D01*
G01*
X61105000Y100347500D01*
G75*
G02*
X61042500Y100285000I-62500J0D01*
G01*
G37*
G36*
G01*
X61042500Y99785000D02*
X60342500Y99785000D01*
G75*
G02*
X60280000Y99847500I0J62500D01*
G01*
X60280000Y99972500D01*
G75*
G02*
X60342500Y100035000I62500J0D01*
G01*
X61042500Y100035000D01*
G75*
G02*
X61105000Y99972500I0J-62500D01*
G01*
X61105000Y99847500D01*
G75*
G02*
X61042500Y99785000I-62500J0D01*
G01*
G37*
G36*
G01*
X61042500Y99285000D02*
X60342500Y99285000D01*
G75*
G02*
X60280000Y99347500I0J62500D01*
G01*
X60280000Y99472500D01*
G75*
G02*
X60342500Y99535000I62500J0D01*
G01*
X61042500Y99535000D01*
G75*
G02*
X61105000Y99472500I0J-62500D01*
G01*
X61105000Y99347500D01*
G75*
G02*
X61042500Y99285000I-62500J0D01*
G01*
G37*
G36*
G01*
X61042500Y98785000D02*
X60342500Y98785000D01*
G75*
G02*
X60280000Y98847500I0J62500D01*
G01*
X60280000Y98972500D01*
G75*
G02*
X60342500Y99035000I62500J0D01*
G01*
X61042500Y99035000D01*
G75*
G02*
X61105000Y98972500I0J-62500D01*
G01*
X61105000Y98847500D01*
G75*
G02*
X61042500Y98785000I-62500J0D01*
G01*
G37*
G36*
G01*
X61692500Y97560000D02*
X61567500Y97560000D01*
G75*
G02*
X61505000Y97622500I0J62500D01*
G01*
X61505000Y98322500D01*
G75*
G02*
X61567500Y98385000I62500J0D01*
G01*
X61692500Y98385000D01*
G75*
G02*
X61755000Y98322500I0J-62500D01*
G01*
X61755000Y97622500D01*
G75*
G02*
X61692500Y97560000I-62500J0D01*
G01*
G37*
G36*
G01*
X62192500Y97560000D02*
X62067500Y97560000D01*
G75*
G02*
X62005000Y97622500I0J62500D01*
G01*
X62005000Y98322500D01*
G75*
G02*
X62067500Y98385000I62500J0D01*
G01*
X62192500Y98385000D01*
G75*
G02*
X62255000Y98322500I0J-62500D01*
G01*
X62255000Y97622500D01*
G75*
G02*
X62192500Y97560000I-62500J0D01*
G01*
G37*
G36*
G01*
X62692500Y97560000D02*
X62567500Y97560000D01*
G75*
G02*
X62505000Y97622500I0J62500D01*
G01*
X62505000Y98322500D01*
G75*
G02*
X62567500Y98385000I62500J0D01*
G01*
X62692500Y98385000D01*
G75*
G02*
X62755000Y98322500I0J-62500D01*
G01*
X62755000Y97622500D01*
G75*
G02*
X62692500Y97560000I-62500J0D01*
G01*
G37*
G36*
G01*
X63192500Y97560000D02*
X63067500Y97560000D01*
G75*
G02*
X63005000Y97622500I0J62500D01*
G01*
X63005000Y98322500D01*
G75*
G02*
X63067500Y98385000I62500J0D01*
G01*
X63192500Y98385000D01*
G75*
G02*
X63255000Y98322500I0J-62500D01*
G01*
X63255000Y97622500D01*
G75*
G02*
X63192500Y97560000I-62500J0D01*
G01*
G37*
G36*
G01*
X63692500Y97560000D02*
X63567500Y97560000D01*
G75*
G02*
X63505000Y97622500I0J62500D01*
G01*
X63505000Y98322500D01*
G75*
G02*
X63567500Y98385000I62500J0D01*
G01*
X63692500Y98385000D01*
G75*
G02*
X63755000Y98322500I0J-62500D01*
G01*
X63755000Y97622500D01*
G75*
G02*
X63692500Y97560000I-62500J0D01*
G01*
G37*
G36*
G01*
X62260000Y100030000D02*
X61750000Y100030000D01*
G75*
G02*
X61500000Y100280000I0J250000D01*
G01*
X61500000Y100790000D01*
G75*
G02*
X61750000Y101040000I250000J0D01*
G01*
X62260000Y101040000D01*
G75*
G02*
X62510000Y100790000I0J-250000D01*
G01*
X62510000Y100280000D01*
G75*
G02*
X62260000Y100030000I-250000J0D01*
G01*
G37*
G36*
G01*
X63510000Y100030000D02*
X63000000Y100030000D01*
G75*
G02*
X62750000Y100280000I0J250000D01*
G01*
X62750000Y100790000D01*
G75*
G02*
X63000000Y101040000I250000J0D01*
G01*
X63510000Y101040000D01*
G75*
G02*
X63760000Y100790000I0J-250000D01*
G01*
X63760000Y100280000D01*
G75*
G02*
X63510000Y100030000I-250000J0D01*
G01*
G37*
G36*
G01*
X62260000Y98780000D02*
X61750000Y98780000D01*
G75*
G02*
X61500000Y99030000I0J250000D01*
G01*
X61500000Y99540000D01*
G75*
G02*
X61750000Y99790000I250000J0D01*
G01*
X62260000Y99790000D01*
G75*
G02*
X62510000Y99540000I0J-250000D01*
G01*
X62510000Y99030000D01*
G75*
G02*
X62260000Y98780000I-250000J0D01*
G01*
G37*
G36*
G01*
X63510000Y98780000D02*
X63000000Y98780000D01*
G75*
G02*
X62750000Y99030000I0J250000D01*
G01*
X62750000Y99540000D01*
G75*
G02*
X63000000Y99790000I250000J0D01*
G01*
X63510000Y99790000D01*
G75*
G02*
X63760000Y99540000I0J-250000D01*
G01*
X63760000Y99030000D01*
G75*
G02*
X63510000Y98780000I-250000J0D01*
G01*
G37*
D18*
X6950000Y17375000D03*
X5050000Y17375000D03*
X5050000Y15175000D03*
X6000000Y15175000D03*
X6950000Y15175000D03*
G36*
G01*
X4866930Y52936660D02*
X5379430Y52936660D01*
G75*
G02*
X5598180Y52717910I0J-218750D01*
G01*
X5598180Y52280410D01*
G75*
G02*
X5379430Y52061660I-218750J0D01*
G01*
X4866930Y52061660D01*
G75*
G02*
X4648180Y52280410I0J218750D01*
G01*
X4648180Y52717910D01*
G75*
G02*
X4866930Y52936660I218750J0D01*
G01*
G37*
G36*
G01*
X4866930Y54511660D02*
X5379430Y54511660D01*
G75*
G02*
X5598180Y54292910I0J-218750D01*
G01*
X5598180Y53855410D01*
G75*
G02*
X5379430Y53636660I-218750J0D01*
G01*
X4866930Y53636660D01*
G75*
G02*
X4648180Y53855410I0J218750D01*
G01*
X4648180Y54292910D01*
G75*
G02*
X4866930Y54511660I218750J0D01*
G01*
G37*
G36*
G01*
X47310000Y94056250D02*
X47310000Y93543750D01*
G75*
G02*
X47091250Y93325000I-218750J0D01*
G01*
X46653750Y93325000D01*
G75*
G02*
X46435000Y93543750I0J218750D01*
G01*
X46435000Y94056250D01*
G75*
G02*
X46653750Y94275000I218750J0D01*
G01*
X47091250Y94275000D01*
G75*
G02*
X47310000Y94056250I0J-218750D01*
G01*
G37*
G36*
G01*
X48885000Y94056250D02*
X48885000Y93543750D01*
G75*
G02*
X48666250Y93325000I-218750J0D01*
G01*
X48228750Y93325000D01*
G75*
G02*
X48010000Y93543750I0J218750D01*
G01*
X48010000Y94056250D01*
G75*
G02*
X48228750Y94275000I218750J0D01*
G01*
X48666250Y94275000D01*
G75*
G02*
X48885000Y94056250I0J-218750D01*
G01*
G37*
G36*
G01*
X33690000Y96026250D02*
X33690000Y95513750D01*
G75*
G02*
X33471250Y95295000I-218750J0D01*
G01*
X33033750Y95295000D01*
G75*
G02*
X32815000Y95513750I0J218750D01*
G01*
X32815000Y96026250D01*
G75*
G02*
X33033750Y96245000I218750J0D01*
G01*
X33471250Y96245000D01*
G75*
G02*
X33690000Y96026250I0J-218750D01*
G01*
G37*
G36*
G01*
X35265000Y96026250D02*
X35265000Y95513750D01*
G75*
G02*
X35046250Y95295000I-218750J0D01*
G01*
X34608750Y95295000D01*
G75*
G02*
X34390000Y95513750I0J218750D01*
G01*
X34390000Y96026250D01*
G75*
G02*
X34608750Y96245000I218750J0D01*
G01*
X35046250Y96245000D01*
G75*
G02*
X35265000Y96026250I0J-218750D01*
G01*
G37*
D19*
X77285340Y48058700D03*
X77285340Y40358700D03*
X77285340Y46958700D03*
X77285340Y45858700D03*
X77285340Y44758700D03*
X77285340Y43658700D03*
X77285340Y42558700D03*
X77285340Y41458700D03*
X79985340Y45308700D03*
X79985340Y44208700D03*
X79985340Y43108700D03*
X85885340Y46808700D03*
X81485340Y46808700D03*
X82585340Y46808700D03*
X83685340Y46808700D03*
X84785340Y46808700D03*
X81485340Y41608700D03*
X82585340Y41608700D03*
X83685340Y41608700D03*
X84785340Y41608700D03*
X85885340Y41608700D03*
X86985340Y42558700D03*
X86985340Y45858700D03*
X86985340Y48608700D03*
X86435340Y47708700D03*
X85885340Y48608700D03*
X85335340Y47708700D03*
X84785340Y48608700D03*
X84235340Y47708700D03*
X83685340Y48608700D03*
X83135340Y47708700D03*
X82585340Y48608700D03*
X82035340Y47708700D03*
X81485340Y48608700D03*
X80935340Y47708700D03*
X80385340Y48608700D03*
X79835340Y47708700D03*
X79285340Y48608700D03*
X78185340Y48608700D03*
X78185340Y47508700D03*
X79085340Y46958700D03*
X78185340Y46408700D03*
X79085340Y45858700D03*
X78185340Y45308700D03*
X79085340Y44758700D03*
X78185340Y44208700D03*
X79085340Y43658700D03*
X78185340Y43108700D03*
X79085340Y42558700D03*
X78185340Y42008700D03*
X79085340Y41458700D03*
X78185340Y40908700D03*
X78185340Y39808700D03*
X79285340Y39808700D03*
X79835340Y40708700D03*
X80385340Y39808700D03*
X80935340Y40708700D03*
X81485340Y39808700D03*
X82035340Y40708700D03*
X82585340Y39808700D03*
X83135340Y40708700D03*
X83685340Y39808700D03*
X84235340Y40708700D03*
X84785340Y39808700D03*
X85335340Y40708700D03*
X85885340Y39808700D03*
X86435340Y40708700D03*
X86985340Y39808700D03*
D20*
X61930000Y127700000D03*
D21*
X61930000Y126850000D03*
X61930000Y126350000D03*
X61930000Y125850000D03*
X61930000Y125350000D03*
X61930000Y124850000D03*
X61930000Y124350000D03*
X61930000Y123850000D03*
X61930000Y123350000D03*
X61930000Y122850000D03*
X61930000Y122350000D03*
D20*
X61930000Y121500000D03*
D21*
X60630000Y121600000D03*
X60630000Y122100000D03*
X60630000Y122600000D03*
X60630000Y123100000D03*
X60630000Y123600000D03*
X60630000Y124100000D03*
X60630000Y125100000D03*
X60630000Y125600000D03*
X60630000Y126100000D03*
X60630000Y126600000D03*
X60630000Y127100000D03*
X60630000Y127600000D03*
G36*
G01*
X24390000Y95393750D02*
X24390000Y95906250D01*
G75*
G02*
X24608750Y96125000I218750J0D01*
G01*
X25046250Y96125000D01*
G75*
G02*
X25265000Y95906250I0J-218750D01*
G01*
X25265000Y95393750D01*
G75*
G02*
X25046250Y95175000I-218750J0D01*
G01*
X24608750Y95175000D01*
G75*
G02*
X24390000Y95393750I0J218750D01*
G01*
G37*
G36*
G01*
X22815000Y95393750D02*
X22815000Y95906250D01*
G75*
G02*
X23033750Y96125000I218750J0D01*
G01*
X23471250Y96125000D01*
G75*
G02*
X23690000Y95906250I0J-218750D01*
G01*
X23690000Y95393750D01*
G75*
G02*
X23471250Y95175000I-218750J0D01*
G01*
X23033750Y95175000D01*
G75*
G02*
X22815000Y95393750I0J218750D01*
G01*
G37*
G36*
G01*
X79865650Y15776000D02*
X79353150Y15776000D01*
G75*
G02*
X79134400Y15994750I0J218750D01*
G01*
X79134400Y16432250D01*
G75*
G02*
X79353150Y16651000I218750J0D01*
G01*
X79865650Y16651000D01*
G75*
G02*
X80084400Y16432250I0J-218750D01*
G01*
X80084400Y15994750D01*
G75*
G02*
X79865650Y15776000I-218750J0D01*
G01*
G37*
G36*
G01*
X79865650Y14201000D02*
X79353150Y14201000D01*
G75*
G02*
X79134400Y14419750I0J218750D01*
G01*
X79134400Y14857250D01*
G75*
G02*
X79353150Y15076000I218750J0D01*
G01*
X79865650Y15076000D01*
G75*
G02*
X80084400Y14857250I0J-218750D01*
G01*
X80084400Y14419750D01*
G75*
G02*
X79865650Y14201000I-218750J0D01*
G01*
G37*
G36*
G01*
X44850000Y93543750D02*
X44850000Y94056250D01*
G75*
G02*
X45068750Y94275000I218750J0D01*
G01*
X45506250Y94275000D01*
G75*
G02*
X45725000Y94056250I0J-218750D01*
G01*
X45725000Y93543750D01*
G75*
G02*
X45506250Y93325000I-218750J0D01*
G01*
X45068750Y93325000D01*
G75*
G02*
X44850000Y93543750I0J218750D01*
G01*
G37*
G36*
G01*
X43275000Y93543750D02*
X43275000Y94056250D01*
G75*
G02*
X43493750Y94275000I218750J0D01*
G01*
X43931250Y94275000D01*
G75*
G02*
X44150000Y94056250I0J-218750D01*
G01*
X44150000Y93543750D01*
G75*
G02*
X43931250Y93325000I-218750J0D01*
G01*
X43493750Y93325000D01*
G75*
G02*
X43275000Y93543750I0J218750D01*
G01*
G37*
G36*
G01*
X73925000Y55125000D02*
X73925000Y55425000D01*
G75*
G02*
X74075000Y55575000I150000J0D01*
G01*
X75825000Y55575000D01*
G75*
G02*
X75975000Y55425000I0J-150000D01*
G01*
X75975000Y55125000D01*
G75*
G02*
X75825000Y54975000I-150000J0D01*
G01*
X74075000Y54975000D01*
G75*
G02*
X73925000Y55125000I0J150000D01*
G01*
G37*
G36*
G01*
X73925000Y56395000D02*
X73925000Y56695000D01*
G75*
G02*
X74075000Y56845000I150000J0D01*
G01*
X75825000Y56845000D01*
G75*
G02*
X75975000Y56695000I0J-150000D01*
G01*
X75975000Y56395000D01*
G75*
G02*
X75825000Y56245000I-150000J0D01*
G01*
X74075000Y56245000D01*
G75*
G02*
X73925000Y56395000I0J150000D01*
G01*
G37*
G36*
G01*
X73925000Y57665000D02*
X73925000Y57965000D01*
G75*
G02*
X74075000Y58115000I150000J0D01*
G01*
X75825000Y58115000D01*
G75*
G02*
X75975000Y57965000I0J-150000D01*
G01*
X75975000Y57665000D01*
G75*
G02*
X75825000Y57515000I-150000J0D01*
G01*
X74075000Y57515000D01*
G75*
G02*
X73925000Y57665000I0J150000D01*
G01*
G37*
G36*
G01*
X73925000Y58935000D02*
X73925000Y59235000D01*
G75*
G02*
X74075000Y59385000I150000J0D01*
G01*
X75825000Y59385000D01*
G75*
G02*
X75975000Y59235000I0J-150000D01*
G01*
X75975000Y58935000D01*
G75*
G02*
X75825000Y58785000I-150000J0D01*
G01*
X74075000Y58785000D01*
G75*
G02*
X73925000Y58935000I0J150000D01*
G01*
G37*
G36*
G01*
X73925000Y60205000D02*
X73925000Y60505000D01*
G75*
G02*
X74075000Y60655000I150000J0D01*
G01*
X75825000Y60655000D01*
G75*
G02*
X75975000Y60505000I0J-150000D01*
G01*
X75975000Y60205000D01*
G75*
G02*
X75825000Y60055000I-150000J0D01*
G01*
X74075000Y60055000D01*
G75*
G02*
X73925000Y60205000I0J150000D01*
G01*
G37*
G36*
G01*
X73925000Y61475000D02*
X73925000Y61775000D01*
G75*
G02*
X74075000Y61925000I150000J0D01*
G01*
X75825000Y61925000D01*
G75*
G02*
X75975000Y61775000I0J-150000D01*
G01*
X75975000Y61475000D01*
G75*
G02*
X75825000Y61325000I-150000J0D01*
G01*
X74075000Y61325000D01*
G75*
G02*
X73925000Y61475000I0J150000D01*
G01*
G37*
G36*
G01*
X73925000Y62745000D02*
X73925000Y63045000D01*
G75*
G02*
X74075000Y63195000I150000J0D01*
G01*
X75825000Y63195000D01*
G75*
G02*
X75975000Y63045000I0J-150000D01*
G01*
X75975000Y62745000D01*
G75*
G02*
X75825000Y62595000I-150000J0D01*
G01*
X74075000Y62595000D01*
G75*
G02*
X73925000Y62745000I0J150000D01*
G01*
G37*
G36*
G01*
X73925000Y64015000D02*
X73925000Y64315000D01*
G75*
G02*
X74075000Y64465000I150000J0D01*
G01*
X75825000Y64465000D01*
G75*
G02*
X75975000Y64315000I0J-150000D01*
G01*
X75975000Y64015000D01*
G75*
G02*
X75825000Y63865000I-150000J0D01*
G01*
X74075000Y63865000D01*
G75*
G02*
X73925000Y64015000I0J150000D01*
G01*
G37*
G36*
G01*
X64625000Y64015000D02*
X64625000Y64315000D01*
G75*
G02*
X64775000Y64465000I150000J0D01*
G01*
X66525000Y64465000D01*
G75*
G02*
X66675000Y64315000I0J-150000D01*
G01*
X66675000Y64015000D01*
G75*
G02*
X66525000Y63865000I-150000J0D01*
G01*
X64775000Y63865000D01*
G75*
G02*
X64625000Y64015000I0J150000D01*
G01*
G37*
G36*
G01*
X64625000Y62745000D02*
X64625000Y63045000D01*
G75*
G02*
X64775000Y63195000I150000J0D01*
G01*
X66525000Y63195000D01*
G75*
G02*
X66675000Y63045000I0J-150000D01*
G01*
X66675000Y62745000D01*
G75*
G02*
X66525000Y62595000I-150000J0D01*
G01*
X64775000Y62595000D01*
G75*
G02*
X64625000Y62745000I0J150000D01*
G01*
G37*
G36*
G01*
X64625000Y61475000D02*
X64625000Y61775000D01*
G75*
G02*
X64775000Y61925000I150000J0D01*
G01*
X66525000Y61925000D01*
G75*
G02*
X66675000Y61775000I0J-150000D01*
G01*
X66675000Y61475000D01*
G75*
G02*
X66525000Y61325000I-150000J0D01*
G01*
X64775000Y61325000D01*
G75*
G02*
X64625000Y61475000I0J150000D01*
G01*
G37*
G36*
G01*
X64625000Y60205000D02*
X64625000Y60505000D01*
G75*
G02*
X64775000Y60655000I150000J0D01*
G01*
X66525000Y60655000D01*
G75*
G02*
X66675000Y60505000I0J-150000D01*
G01*
X66675000Y60205000D01*
G75*
G02*
X66525000Y60055000I-150000J0D01*
G01*
X64775000Y60055000D01*
G75*
G02*
X64625000Y60205000I0J150000D01*
G01*
G37*
G36*
G01*
X64625000Y58935000D02*
X64625000Y59235000D01*
G75*
G02*
X64775000Y59385000I150000J0D01*
G01*
X66525000Y59385000D01*
G75*
G02*
X66675000Y59235000I0J-150000D01*
G01*
X66675000Y58935000D01*
G75*
G02*
X66525000Y58785000I-150000J0D01*
G01*
X64775000Y58785000D01*
G75*
G02*
X64625000Y58935000I0J150000D01*
G01*
G37*
G36*
G01*
X64625000Y57665000D02*
X64625000Y57965000D01*
G75*
G02*
X64775000Y58115000I150000J0D01*
G01*
X66525000Y58115000D01*
G75*
G02*
X66675000Y57965000I0J-150000D01*
G01*
X66675000Y57665000D01*
G75*
G02*
X66525000Y57515000I-150000J0D01*
G01*
X64775000Y57515000D01*
G75*
G02*
X64625000Y57665000I0J150000D01*
G01*
G37*
G36*
G01*
X64625000Y56395000D02*
X64625000Y56695000D01*
G75*
G02*
X64775000Y56845000I150000J0D01*
G01*
X66525000Y56845000D01*
G75*
G02*
X66675000Y56695000I0J-150000D01*
G01*
X66675000Y56395000D01*
G75*
G02*
X66525000Y56245000I-150000J0D01*
G01*
X64775000Y56245000D01*
G75*
G02*
X64625000Y56395000I0J150000D01*
G01*
G37*
G36*
G01*
X64625000Y55125000D02*
X64625000Y55425000D01*
G75*
G02*
X64775000Y55575000I150000J0D01*
G01*
X66525000Y55575000D01*
G75*
G02*
X66675000Y55425000I0J-150000D01*
G01*
X66675000Y55125000D01*
G75*
G02*
X66525000Y54975000I-150000J0D01*
G01*
X64775000Y54975000D01*
G75*
G02*
X64625000Y55125000I0J150000D01*
G01*
G37*
G36*
G01*
X3548900Y46583310D02*
X3548900Y46070810D01*
G75*
G02*
X3330150Y45852060I-218750J0D01*
G01*
X2892650Y45852060D01*
G75*
G02*
X2673900Y46070810I0J218750D01*
G01*
X2673900Y46583310D01*
G75*
G02*
X2892650Y46802060I218750J0D01*
G01*
X3330150Y46802060D01*
G75*
G02*
X3548900Y46583310I0J-218750D01*
G01*
G37*
G36*
G01*
X5123900Y46583310D02*
X5123900Y46070810D01*
G75*
G02*
X4905150Y45852060I-218750J0D01*
G01*
X4467650Y45852060D01*
G75*
G02*
X4248900Y46070810I0J218750D01*
G01*
X4248900Y46583310D01*
G75*
G02*
X4467650Y46802060I218750J0D01*
G01*
X4905150Y46802060D01*
G75*
G02*
X5123900Y46583310I0J-218750D01*
G01*
G37*
G36*
G01*
X33385000Y59152500D02*
X33385000Y59852500D01*
G75*
G02*
X33447500Y59915000I62500J0D01*
G01*
X33572500Y59915000D01*
G75*
G02*
X33635000Y59852500I0J-62500D01*
G01*
X33635000Y59152500D01*
G75*
G02*
X33572500Y59090000I-62500J0D01*
G01*
X33447500Y59090000D01*
G75*
G02*
X33385000Y59152500I0J62500D01*
G01*
G37*
G36*
G01*
X33885000Y59152500D02*
X33885000Y59852500D01*
G75*
G02*
X33947500Y59915000I62500J0D01*
G01*
X34072500Y59915000D01*
G75*
G02*
X34135000Y59852500I0J-62500D01*
G01*
X34135000Y59152500D01*
G75*
G02*
X34072500Y59090000I-62500J0D01*
G01*
X33947500Y59090000D01*
G75*
G02*
X33885000Y59152500I0J62500D01*
G01*
G37*
G36*
G01*
X34385000Y59152500D02*
X34385000Y59852500D01*
G75*
G02*
X34447500Y59915000I62500J0D01*
G01*
X34572500Y59915000D01*
G75*
G02*
X34635000Y59852500I0J-62500D01*
G01*
X34635000Y59152500D01*
G75*
G02*
X34572500Y59090000I-62500J0D01*
G01*
X34447500Y59090000D01*
G75*
G02*
X34385000Y59152500I0J62500D01*
G01*
G37*
G36*
G01*
X34885000Y59152500D02*
X34885000Y59852500D01*
G75*
G02*
X34947500Y59915000I62500J0D01*
G01*
X35072500Y59915000D01*
G75*
G02*
X35135000Y59852500I0J-62500D01*
G01*
X35135000Y59152500D01*
G75*
G02*
X35072500Y59090000I-62500J0D01*
G01*
X34947500Y59090000D01*
G75*
G02*
X34885000Y59152500I0J62500D01*
G01*
G37*
G36*
G01*
X35385000Y59152500D02*
X35385000Y59852500D01*
G75*
G02*
X35447500Y59915000I62500J0D01*
G01*
X35572500Y59915000D01*
G75*
G02*
X35635000Y59852500I0J-62500D01*
G01*
X35635000Y59152500D01*
G75*
G02*
X35572500Y59090000I-62500J0D01*
G01*
X35447500Y59090000D01*
G75*
G02*
X35385000Y59152500I0J62500D01*
G01*
G37*
G36*
G01*
X35885000Y59152500D02*
X35885000Y59852500D01*
G75*
G02*
X35947500Y59915000I62500J0D01*
G01*
X36072500Y59915000D01*
G75*
G02*
X36135000Y59852500I0J-62500D01*
G01*
X36135000Y59152500D01*
G75*
G02*
X36072500Y59090000I-62500J0D01*
G01*
X35947500Y59090000D01*
G75*
G02*
X35885000Y59152500I0J62500D01*
G01*
G37*
G36*
G01*
X36285000Y60127500D02*
X36285000Y60252500D01*
G75*
G02*
X36347500Y60315000I62500J0D01*
G01*
X37047500Y60315000D01*
G75*
G02*
X37110000Y60252500I0J-62500D01*
G01*
X37110000Y60127500D01*
G75*
G02*
X37047500Y60065000I-62500J0D01*
G01*
X36347500Y60065000D01*
G75*
G02*
X36285000Y60127500I0J62500D01*
G01*
G37*
G36*
G01*
X36285000Y60627500D02*
X36285000Y60752500D01*
G75*
G02*
X36347500Y60815000I62500J0D01*
G01*
X37047500Y60815000D01*
G75*
G02*
X37110000Y60752500I0J-62500D01*
G01*
X37110000Y60627500D01*
G75*
G02*
X37047500Y60565000I-62500J0D01*
G01*
X36347500Y60565000D01*
G75*
G02*
X36285000Y60627500I0J62500D01*
G01*
G37*
G36*
G01*
X36285000Y61127500D02*
X36285000Y61252500D01*
G75*
G02*
X36347500Y61315000I62500J0D01*
G01*
X37047500Y61315000D01*
G75*
G02*
X37110000Y61252500I0J-62500D01*
G01*
X37110000Y61127500D01*
G75*
G02*
X37047500Y61065000I-62500J0D01*
G01*
X36347500Y61065000D01*
G75*
G02*
X36285000Y61127500I0J62500D01*
G01*
G37*
G36*
G01*
X36285000Y61627500D02*
X36285000Y61752500D01*
G75*
G02*
X36347500Y61815000I62500J0D01*
G01*
X37047500Y61815000D01*
G75*
G02*
X37110000Y61752500I0J-62500D01*
G01*
X37110000Y61627500D01*
G75*
G02*
X37047500Y61565000I-62500J0D01*
G01*
X36347500Y61565000D01*
G75*
G02*
X36285000Y61627500I0J62500D01*
G01*
G37*
G36*
G01*
X36285000Y62127500D02*
X36285000Y62252500D01*
G75*
G02*
X36347500Y62315000I62500J0D01*
G01*
X37047500Y62315000D01*
G75*
G02*
X37110000Y62252500I0J-62500D01*
G01*
X37110000Y62127500D01*
G75*
G02*
X37047500Y62065000I-62500J0D01*
G01*
X36347500Y62065000D01*
G75*
G02*
X36285000Y62127500I0J62500D01*
G01*
G37*
G36*
G01*
X36285000Y62627500D02*
X36285000Y62752500D01*
G75*
G02*
X36347500Y62815000I62500J0D01*
G01*
X37047500Y62815000D01*
G75*
G02*
X37110000Y62752500I0J-62500D01*
G01*
X37110000Y62627500D01*
G75*
G02*
X37047500Y62565000I-62500J0D01*
G01*
X36347500Y62565000D01*
G75*
G02*
X36285000Y62627500I0J62500D01*
G01*
G37*
G36*
G01*
X35885000Y63027500D02*
X35885000Y63727500D01*
G75*
G02*
X35947500Y63790000I62500J0D01*
G01*
X36072500Y63790000D01*
G75*
G02*
X36135000Y63727500I0J-62500D01*
G01*
X36135000Y63027500D01*
G75*
G02*
X36072500Y62965000I-62500J0D01*
G01*
X35947500Y62965000D01*
G75*
G02*
X35885000Y63027500I0J62500D01*
G01*
G37*
G36*
G01*
X35385000Y63027500D02*
X35385000Y63727500D01*
G75*
G02*
X35447500Y63790000I62500J0D01*
G01*
X35572500Y63790000D01*
G75*
G02*
X35635000Y63727500I0J-62500D01*
G01*
X35635000Y63027500D01*
G75*
G02*
X35572500Y62965000I-62500J0D01*
G01*
X35447500Y62965000D01*
G75*
G02*
X35385000Y63027500I0J62500D01*
G01*
G37*
G36*
G01*
X34885000Y63027500D02*
X34885000Y63727500D01*
G75*
G02*
X34947500Y63790000I62500J0D01*
G01*
X35072500Y63790000D01*
G75*
G02*
X35135000Y63727500I0J-62500D01*
G01*
X35135000Y63027500D01*
G75*
G02*
X35072500Y62965000I-62500J0D01*
G01*
X34947500Y62965000D01*
G75*
G02*
X34885000Y63027500I0J62500D01*
G01*
G37*
G36*
G01*
X34385000Y63027500D02*
X34385000Y63727500D01*
G75*
G02*
X34447500Y63790000I62500J0D01*
G01*
X34572500Y63790000D01*
G75*
G02*
X34635000Y63727500I0J-62500D01*
G01*
X34635000Y63027500D01*
G75*
G02*
X34572500Y62965000I-62500J0D01*
G01*
X34447500Y62965000D01*
G75*
G02*
X34385000Y63027500I0J62500D01*
G01*
G37*
G36*
G01*
X33885000Y63027500D02*
X33885000Y63727500D01*
G75*
G02*
X33947500Y63790000I62500J0D01*
G01*
X34072500Y63790000D01*
G75*
G02*
X34135000Y63727500I0J-62500D01*
G01*
X34135000Y63027500D01*
G75*
G02*
X34072500Y62965000I-62500J0D01*
G01*
X33947500Y62965000D01*
G75*
G02*
X33885000Y63027500I0J62500D01*
G01*
G37*
G36*
G01*
X33385000Y63027500D02*
X33385000Y63727500D01*
G75*
G02*
X33447500Y63790000I62500J0D01*
G01*
X33572500Y63790000D01*
G75*
G02*
X33635000Y63727500I0J-62500D01*
G01*
X33635000Y63027500D01*
G75*
G02*
X33572500Y62965000I-62500J0D01*
G01*
X33447500Y62965000D01*
G75*
G02*
X33385000Y63027500I0J62500D01*
G01*
G37*
G36*
G01*
X32410000Y62627500D02*
X32410000Y62752500D01*
G75*
G02*
X32472500Y62815000I62500J0D01*
G01*
X33172500Y62815000D01*
G75*
G02*
X33235000Y62752500I0J-62500D01*
G01*
X33235000Y62627500D01*
G75*
G02*
X33172500Y62565000I-62500J0D01*
G01*
X32472500Y62565000D01*
G75*
G02*
X32410000Y62627500I0J62500D01*
G01*
G37*
G36*
G01*
X32410000Y62127500D02*
X32410000Y62252500D01*
G75*
G02*
X32472500Y62315000I62500J0D01*
G01*
X33172500Y62315000D01*
G75*
G02*
X33235000Y62252500I0J-62500D01*
G01*
X33235000Y62127500D01*
G75*
G02*
X33172500Y62065000I-62500J0D01*
G01*
X32472500Y62065000D01*
G75*
G02*
X32410000Y62127500I0J62500D01*
G01*
G37*
G36*
G01*
X32410000Y61627500D02*
X32410000Y61752500D01*
G75*
G02*
X32472500Y61815000I62500J0D01*
G01*
X33172500Y61815000D01*
G75*
G02*
X33235000Y61752500I0J-62500D01*
G01*
X33235000Y61627500D01*
G75*
G02*
X33172500Y61565000I-62500J0D01*
G01*
X32472500Y61565000D01*
G75*
G02*
X32410000Y61627500I0J62500D01*
G01*
G37*
G36*
G01*
X32410000Y61127500D02*
X32410000Y61252500D01*
G75*
G02*
X32472500Y61315000I62500J0D01*
G01*
X33172500Y61315000D01*
G75*
G02*
X33235000Y61252500I0J-62500D01*
G01*
X33235000Y61127500D01*
G75*
G02*
X33172500Y61065000I-62500J0D01*
G01*
X32472500Y61065000D01*
G75*
G02*
X32410000Y61127500I0J62500D01*
G01*
G37*
G36*
G01*
X32410000Y60627500D02*
X32410000Y60752500D01*
G75*
G02*
X32472500Y60815000I62500J0D01*
G01*
X33172500Y60815000D01*
G75*
G02*
X33235000Y60752500I0J-62500D01*
G01*
X33235000Y60627500D01*
G75*
G02*
X33172500Y60565000I-62500J0D01*
G01*
X32472500Y60565000D01*
G75*
G02*
X32410000Y60627500I0J62500D01*
G01*
G37*
G36*
G01*
X32410000Y60127500D02*
X32410000Y60252500D01*
G75*
G02*
X32472500Y60315000I62500J0D01*
G01*
X33172500Y60315000D01*
G75*
G02*
X33235000Y60252500I0J-62500D01*
G01*
X33235000Y60127500D01*
G75*
G02*
X33172500Y60065000I-62500J0D01*
G01*
X32472500Y60065000D01*
G75*
G02*
X32410000Y60127500I0J62500D01*
G01*
G37*
G36*
G01*
X34885000Y61814999D02*
X34885000Y62365001D01*
G75*
G02*
X35134999Y62615000I249999J0D01*
G01*
X35685001Y62615000D01*
G75*
G02*
X35935000Y62365001I0J-249999D01*
G01*
X35935000Y61814999D01*
G75*
G02*
X35685001Y61565000I-249999J0D01*
G01*
X35134999Y61565000D01*
G75*
G02*
X34885000Y61814999I0J249999D01*
G01*
G37*
G36*
G01*
X34885000Y60514999D02*
X34885000Y61065001D01*
G75*
G02*
X35134999Y61315000I249999J0D01*
G01*
X35685001Y61315000D01*
G75*
G02*
X35935000Y61065001I0J-249999D01*
G01*
X35935000Y60514999D01*
G75*
G02*
X35685001Y60265000I-249999J0D01*
G01*
X35134999Y60265000D01*
G75*
G02*
X34885000Y60514999I0J249999D01*
G01*
G37*
G36*
G01*
X33585000Y61814999D02*
X33585000Y62365001D01*
G75*
G02*
X33834999Y62615000I249999J0D01*
G01*
X34385001Y62615000D01*
G75*
G02*
X34635000Y62365001I0J-249999D01*
G01*
X34635000Y61814999D01*
G75*
G02*
X34385001Y61565000I-249999J0D01*
G01*
X33834999Y61565000D01*
G75*
G02*
X33585000Y61814999I0J249999D01*
G01*
G37*
G36*
G01*
X33585000Y60514999D02*
X33585000Y61065001D01*
G75*
G02*
X33834999Y61315000I249999J0D01*
G01*
X34385001Y61315000D01*
G75*
G02*
X34635000Y61065001I0J-249999D01*
G01*
X34635000Y60514999D01*
G75*
G02*
X34385001Y60265000I-249999J0D01*
G01*
X33834999Y60265000D01*
G75*
G02*
X33585000Y60514999I0J249999D01*
G01*
G37*
G36*
G01*
X62130000Y133373750D02*
X62130000Y133886250D01*
G75*
G02*
X62348750Y134105000I218750J0D01*
G01*
X62786250Y134105000D01*
G75*
G02*
X63005000Y133886250I0J-218750D01*
G01*
X63005000Y133373750D01*
G75*
G02*
X62786250Y133155000I-218750J0D01*
G01*
X62348750Y133155000D01*
G75*
G02*
X62130000Y133373750I0J218750D01*
G01*
G37*
G36*
G01*
X60555000Y133373750D02*
X60555000Y133886250D01*
G75*
G02*
X60773750Y134105000I218750J0D01*
G01*
X61211250Y134105000D01*
G75*
G02*
X61430000Y133886250I0J-218750D01*
G01*
X61430000Y133373750D01*
G75*
G02*
X61211250Y133155000I-218750J0D01*
G01*
X60773750Y133155000D01*
G75*
G02*
X60555000Y133373750I0J218750D01*
G01*
G37*
D22*
X88280000Y81356667D03*
X88280000Y83856667D03*
X26527760Y29636400D03*
X26527760Y32136400D03*
X39779302Y41162920D03*
X39779302Y43662920D03*
X37238940Y29636400D03*
X37238940Y32136400D03*
X63266955Y29636400D03*
X63266955Y32136400D03*
X54795420Y29636400D03*
X54795420Y32136400D03*
X88280000Y88390000D03*
X88280000Y90890000D03*
X11570000Y86770000D03*
X14070000Y86770000D03*
X66090800Y29636400D03*
X66090800Y32136400D03*
X11570000Y65740000D03*
X14070000Y65740000D03*
X88280000Y74323334D03*
X88280000Y76823334D03*
X29205555Y29636400D03*
X29205555Y32136400D03*
X60443110Y29636400D03*
X60443110Y32136400D03*
X25815834Y41162920D03*
X25815834Y43662920D03*
X53742770Y41162920D03*
X53742770Y43662920D03*
X32797568Y41162920D03*
X32797568Y43662920D03*
X18834100Y41162920D03*
X18834100Y43662920D03*
X60724504Y41162920D03*
X60724504Y43662920D03*
X11570000Y79760000D03*
X14070000Y79760000D03*
X11570000Y72750000D03*
X14070000Y72750000D03*
X67706240Y41162920D03*
X67706240Y43662920D03*
X88280000Y67290000D03*
X88280000Y69790000D03*
X31883350Y29636400D03*
X31883350Y32136400D03*
X34561145Y29636400D03*
X34561145Y32136400D03*
X46761036Y41162920D03*
X46761036Y43662920D03*
X57619265Y29636400D03*
X57619265Y32136400D03*
G36*
G01*
X26340000Y107143750D02*
X26340000Y107656250D01*
G75*
G02*
X26558750Y107875000I218750J0D01*
G01*
X26996250Y107875000D01*
G75*
G02*
X27215000Y107656250I0J-218750D01*
G01*
X27215000Y107143750D01*
G75*
G02*
X26996250Y106925000I-218750J0D01*
G01*
X26558750Y106925000D01*
G75*
G02*
X26340000Y107143750I0J218750D01*
G01*
G37*
G36*
G01*
X24765000Y107143750D02*
X24765000Y107656250D01*
G75*
G02*
X24983750Y107875000I218750J0D01*
G01*
X25421250Y107875000D01*
G75*
G02*
X25640000Y107656250I0J-218750D01*
G01*
X25640000Y107143750D01*
G75*
G02*
X25421250Y106925000I-218750J0D01*
G01*
X24983750Y106925000D01*
G75*
G02*
X24765000Y107143750I0J218750D01*
G01*
G37*
G36*
G01*
X29490000Y95393750D02*
X29490000Y95906250D01*
G75*
G02*
X29708750Y96125000I218750J0D01*
G01*
X30146250Y96125000D01*
G75*
G02*
X30365000Y95906250I0J-218750D01*
G01*
X30365000Y95393750D01*
G75*
G02*
X30146250Y95175000I-218750J0D01*
G01*
X29708750Y95175000D01*
G75*
G02*
X29490000Y95393750I0J218750D01*
G01*
G37*
G36*
G01*
X27915000Y95393750D02*
X27915000Y95906250D01*
G75*
G02*
X28133750Y96125000I218750J0D01*
G01*
X28571250Y96125000D01*
G75*
G02*
X28790000Y95906250I0J-218750D01*
G01*
X28790000Y95393750D01*
G75*
G02*
X28571250Y95175000I-218750J0D01*
G01*
X28133750Y95175000D01*
G75*
G02*
X27915000Y95393750I0J218750D01*
G01*
G37*
D13*
X4777740Y40653720D03*
X4777740Y36653720D03*
G36*
G01*
X44495000Y64013750D02*
X44495000Y64526250D01*
G75*
G02*
X44713750Y64745000I218750J0D01*
G01*
X45151250Y64745000D01*
G75*
G02*
X45370000Y64526250I0J-218750D01*
G01*
X45370000Y64013750D01*
G75*
G02*
X45151250Y63795000I-218750J0D01*
G01*
X44713750Y63795000D01*
G75*
G02*
X44495000Y64013750I0J218750D01*
G01*
G37*
G36*
G01*
X46070000Y64013750D02*
X46070000Y64526250D01*
G75*
G02*
X46288750Y64745000I218750J0D01*
G01*
X46726250Y64745000D01*
G75*
G02*
X46945000Y64526250I0J-218750D01*
G01*
X46945000Y64013750D01*
G75*
G02*
X46726250Y63795000I-218750J0D01*
G01*
X46288750Y63795000D01*
G75*
G02*
X46070000Y64013750I0J218750D01*
G01*
G37*
D23*
X51334300Y103220000D03*
X51334300Y98180000D03*
X48794300Y103220000D03*
X48794300Y98180000D03*
X46254300Y103220000D03*
X46254300Y98180000D03*
X43714300Y103220000D03*
X43714300Y98180000D03*
X41174300Y103220000D03*
X41174300Y98180000D03*
G36*
G01*
X33975000Y111623750D02*
X33975000Y112136250D01*
G75*
G02*
X34193750Y112355000I218750J0D01*
G01*
X34631250Y112355000D01*
G75*
G02*
X34850000Y112136250I0J-218750D01*
G01*
X34850000Y111623750D01*
G75*
G02*
X34631250Y111405000I-218750J0D01*
G01*
X34193750Y111405000D01*
G75*
G02*
X33975000Y111623750I0J218750D01*
G01*
G37*
G36*
G01*
X35550000Y111623750D02*
X35550000Y112136250D01*
G75*
G02*
X35768750Y112355000I218750J0D01*
G01*
X36206250Y112355000D01*
G75*
G02*
X36425000Y112136250I0J-218750D01*
G01*
X36425000Y111623750D01*
G75*
G02*
X36206250Y111405000I-218750J0D01*
G01*
X35768750Y111405000D01*
G75*
G02*
X35550000Y111623750I0J218750D01*
G01*
G37*
G36*
G01*
X3466250Y18560000D02*
X2953750Y18560000D01*
G75*
G02*
X2735000Y18778750I0J218750D01*
G01*
X2735000Y19216250D01*
G75*
G02*
X2953750Y19435000I218750J0D01*
G01*
X3466250Y19435000D01*
G75*
G02*
X3685000Y19216250I0J-218750D01*
G01*
X3685000Y18778750D01*
G75*
G02*
X3466250Y18560000I-218750J0D01*
G01*
G37*
G36*
G01*
X3466250Y16985000D02*
X2953750Y16985000D01*
G75*
G02*
X2735000Y17203750I0J218750D01*
G01*
X2735000Y17641250D01*
G75*
G02*
X2953750Y17860000I218750J0D01*
G01*
X3466250Y17860000D01*
G75*
G02*
X3685000Y17641250I0J-218750D01*
G01*
X3685000Y17203750D01*
G75*
G02*
X3466250Y16985000I-218750J0D01*
G01*
G37*
G36*
G01*
X3476250Y13795000D02*
X2963750Y13795000D01*
G75*
G02*
X2745000Y14013750I0J218750D01*
G01*
X2745000Y14451250D01*
G75*
G02*
X2963750Y14670000I218750J0D01*
G01*
X3476250Y14670000D01*
G75*
G02*
X3695000Y14451250I0J-218750D01*
G01*
X3695000Y14013750D01*
G75*
G02*
X3476250Y13795000I-218750J0D01*
G01*
G37*
G36*
G01*
X3476250Y15370000D02*
X2963750Y15370000D01*
G75*
G02*
X2745000Y15588750I0J218750D01*
G01*
X2745000Y16026250D01*
G75*
G02*
X2963750Y16245000I218750J0D01*
G01*
X3476250Y16245000D01*
G75*
G02*
X3695000Y16026250I0J-218750D01*
G01*
X3695000Y15588750D01*
G75*
G02*
X3476250Y15370000I-218750J0D01*
G01*
G37*
G36*
G01*
X7406250Y18575000D02*
X6493750Y18575000D01*
G75*
G02*
X6250000Y18818750I0J243750D01*
G01*
X6250000Y19306250D01*
G75*
G02*
X6493750Y19550000I243750J0D01*
G01*
X7406250Y19550000D01*
G75*
G02*
X7650000Y19306250I0J-243750D01*
G01*
X7650000Y18818750D01*
G75*
G02*
X7406250Y18575000I-243750J0D01*
G01*
G37*
G36*
G01*
X7406250Y20450000D02*
X6493750Y20450000D01*
G75*
G02*
X6250000Y20693750I0J243750D01*
G01*
X6250000Y21181250D01*
G75*
G02*
X6493750Y21425000I243750J0D01*
G01*
X7406250Y21425000D01*
G75*
G02*
X7650000Y21181250I0J-243750D01*
G01*
X7650000Y20693750D01*
G75*
G02*
X7406250Y20450000I-243750J0D01*
G01*
G37*
M02*
