G04 #@! TF.GenerationSoftware,KiCad,Pcbnew,(5.1.5)-3*
G04 #@! TF.CreationDate,2021-01-15T00:49:49-07:00*
G04 #@! TF.ProjectId,purplewizard,70757270-6c65-4776-997a-6172642e6b69,0.1*
G04 #@! TF.SameCoordinates,PX613b810PYa454c00*
G04 #@! TF.FileFunction,Profile,NP*
%FSLAX46Y46*%
G04 Gerber Fmt 4.6, Leading zero omitted, Abs format (unit mm)*
G04 Created by KiCad (PCBNEW (5.1.5)-3) date 2021-01-15 00:49:49*
%MOMM*%
%LPD*%
G04 APERTURE LIST*
%ADD10C,0.150000*%
G04 APERTURE END LIST*
D10*
X67990000Y119470000D02*
X68280000Y119790000D01*
X67400000Y118940000D02*
X67990000Y119470000D01*
X66830000Y118530000D02*
X67400000Y118940000D01*
X66150000Y118160000D02*
X66830000Y118530000D01*
X65650000Y117740000D02*
X66150000Y118160000D01*
X65180000Y117250000D02*
X65650000Y117740000D01*
X64680000Y116630000D02*
X65180000Y117250000D01*
X64170000Y116030000D02*
X64680000Y116630000D01*
X63860000Y115660000D02*
X64170000Y116030000D01*
X64100000Y115220000D02*
X63860000Y115660000D01*
X64280000Y114840000D02*
X64100000Y115220000D01*
X64550000Y114200000D02*
X64280000Y114840000D01*
X64710000Y113500000D02*
X64550000Y114200000D01*
X64780000Y113080000D02*
X64710000Y113500000D01*
X64790000Y112440000D02*
X64780000Y113080000D01*
X64770000Y112180000D02*
X64790000Y112440000D01*
X64750000Y112040000D02*
X64770000Y112180000D01*
X64900000Y111920000D02*
X64750000Y112040000D01*
X65280000Y111660000D02*
X64900000Y111920000D01*
X65830000Y111210000D02*
X65280000Y111660000D01*
X67210000Y110200000D02*
X65830000Y111210000D01*
X68270000Y109380000D02*
X67210000Y110200000D01*
X69300000Y108600000D02*
X68270000Y109380000D01*
X71240000Y106990000D02*
X69300000Y108600000D01*
X72420000Y106050000D02*
X71240000Y106990000D01*
X74070000Y105260000D02*
X72420000Y106050000D01*
X75760000Y104920000D02*
X74070000Y105260000D01*
X77640000Y104630000D02*
X75760000Y104920000D01*
X79650000Y104510000D02*
X77640000Y104630000D01*
X82120000Y104480000D02*
X79650000Y104510000D01*
X83910000Y104440000D02*
X82120000Y104480000D01*
X85410000Y104140000D02*
X83910000Y104440000D01*
X86770000Y103650000D02*
X85410000Y104140000D01*
X88180000Y102920000D02*
X86770000Y103650000D01*
X89260000Y102040000D02*
X88180000Y102920000D01*
X90560000Y100600000D02*
X89260000Y102040000D01*
X91540000Y98980000D02*
X90560000Y100600000D01*
X92060000Y97640000D02*
X91540000Y98980000D01*
X92400000Y95870000D02*
X92060000Y97640000D01*
X92480000Y93390000D02*
X92400000Y95870000D01*
X92430000Y12230000D02*
X92480000Y93390000D01*
X92350000Y10960000D02*
X92430000Y12230000D01*
X92090000Y9570000D02*
X92350000Y10960000D01*
X91490000Y7850000D02*
X92090000Y9570000D01*
X90840000Y6470000D02*
X91490000Y7850000D01*
X90020000Y5250000D02*
X90840000Y6470000D01*
X89030000Y4020000D02*
X90020000Y5250000D01*
X88020000Y3040000D02*
X89030000Y4020000D01*
X86630000Y2030000D02*
X88020000Y3040000D01*
X84980000Y1130000D02*
X86630000Y2030000D01*
X83060000Y440000D02*
X84980000Y1130000D01*
X81270000Y70000D02*
X83060000Y440000D01*
X79870000Y-10000D02*
X81270000Y70000D01*
X12340000Y-30000D02*
X79870000Y-10000D01*
X11040000Y100000D02*
X12340000Y-30000D01*
X9370000Y440000D02*
X11040000Y100000D01*
X7710000Y1070000D02*
X9370000Y440000D01*
X6160000Y1830000D02*
X7710000Y1070000D01*
X4550000Y2990000D02*
X6160000Y1830000D01*
X3250000Y4250000D02*
X4550000Y2990000D01*
X2210000Y5600000D02*
X3250000Y4250000D01*
X1440000Y6840000D02*
X2210000Y5600000D01*
X850000Y8140000D02*
X1440000Y6840000D01*
X360000Y9670000D02*
X850000Y8140000D01*
X80000Y11120000D02*
X360000Y9670000D01*
X0Y12070000D02*
X80000Y11120000D01*
X-20000Y95410000D02*
X0Y12070000D01*
X180000Y96810000D02*
X-20000Y95410000D01*
X460000Y97910000D02*
X180000Y96810000D01*
X790000Y98710000D02*
X460000Y97910000D01*
X1240000Y99650000D02*
X790000Y98710000D01*
X1720000Y100390000D02*
X1240000Y99650000D01*
X2350000Y101190000D02*
X1720000Y100390000D01*
X2910000Y101790000D02*
X2350000Y101190000D01*
X3680000Y102440000D02*
X2910000Y101790000D01*
X4660000Y103120000D02*
X3680000Y102440000D01*
X5510000Y103570000D02*
X4660000Y103120000D01*
X6600000Y104010000D02*
X5510000Y103570000D01*
X7630000Y104260000D02*
X6600000Y104010000D01*
X8610000Y104430000D02*
X7630000Y104260000D01*
X9330000Y104470000D02*
X8610000Y104430000D01*
X10490000Y104480000D02*
X9330000Y104470000D01*
X11480000Y104580000D02*
X10490000Y104480000D01*
X12370000Y104680000D02*
X11480000Y104580000D01*
X13140000Y104900000D02*
X12370000Y104680000D01*
X13820000Y105100000D02*
X13140000Y104900000D01*
X14370000Y105360000D02*
X13820000Y105100000D01*
X15230000Y105920000D02*
X14370000Y105360000D01*
X16140000Y106690000D02*
X15230000Y105920000D01*
X17340000Y107860000D02*
X16140000Y106690000D01*
X18110000Y108480000D02*
X17340000Y107860000D01*
X18980000Y109160000D02*
X18110000Y108480000D01*
X19600000Y109600000D02*
X18980000Y109160000D01*
X20710000Y110330000D02*
X19600000Y109600000D01*
X21820000Y110950000D02*
X20710000Y110330000D01*
X22140000Y111120000D02*
X21820000Y110950000D01*
X21920000Y111680000D02*
X22140000Y111120000D01*
X21770000Y112120000D02*
X21920000Y111680000D01*
X21610000Y112810000D02*
X21770000Y112120000D01*
X21510000Y113440000D02*
X21610000Y112810000D01*
X21480000Y113890000D02*
X21510000Y113440000D01*
X21520000Y114680000D02*
X21480000Y113890000D01*
X21610000Y115260000D02*
X21520000Y114680000D01*
X21770000Y115900000D02*
X21610000Y115260000D01*
X22020000Y116480000D02*
X21770000Y115900000D01*
X23180000Y119550000D02*
X22020000Y116480000D01*
X24020000Y121380000D02*
X23180000Y119550000D01*
X26100000Y125780000D02*
X24020000Y121380000D01*
X29580000Y134020000D02*
X26100000Y125780000D01*
X32980000Y142070000D02*
X29580000Y134020000D01*
X33980000Y144000000D02*
X32980000Y142070000D01*
X35470000Y146640000D02*
X33980000Y144000000D01*
X36230000Y147700000D02*
X35470000Y146640000D01*
X36780000Y148330000D02*
X36230000Y147700000D01*
X37270000Y148730000D02*
X36780000Y148330000D01*
X37790000Y148990000D02*
X37270000Y148730000D01*
X38460000Y149220000D02*
X37790000Y148990000D01*
X39610000Y149660000D02*
X38460000Y149220000D01*
X40920000Y150150000D02*
X39610000Y149660000D01*
X42370000Y150570000D02*
X40920000Y150150000D01*
X43850000Y150890000D02*
X42370000Y150570000D01*
X45370000Y150910000D02*
X43850000Y150890000D01*
X46740000Y150920000D02*
X45370000Y150910000D01*
X47450000Y150820000D02*
X46740000Y150920000D01*
X48570000Y150520000D02*
X47450000Y150820000D01*
X49890000Y150100000D02*
X48570000Y150520000D01*
X51230000Y149590000D02*
X49890000Y150100000D01*
X52410000Y149060000D02*
X51230000Y149590000D01*
X54280000Y148130000D02*
X52410000Y149060000D01*
X55740000Y147410000D02*
X54280000Y148130000D01*
X56770000Y146900000D02*
X55740000Y147410000D01*
X57680000Y146350000D02*
X56770000Y146900000D01*
X58340000Y145780000D02*
X57680000Y146350000D01*
X59210000Y144820000D02*
X58340000Y145780000D01*
X60880000Y142620000D02*
X59210000Y144820000D01*
X63560000Y138520000D02*
X60880000Y142620000D01*
X64520000Y136830000D02*
X63560000Y138520000D01*
X65680000Y134470000D02*
X64520000Y136830000D01*
X67910000Y130210000D02*
X65680000Y134470000D01*
X68380000Y129270000D02*
X67910000Y130210000D01*
X68810000Y128450000D02*
X68380000Y129270000D01*
X69140000Y127680000D02*
X68810000Y128450000D01*
X69420000Y126970000D02*
X69140000Y127680000D01*
X69590000Y126470000D02*
X69420000Y126970000D01*
X69730000Y125830000D02*
X69590000Y126470000D01*
X69800000Y125290000D02*
X69730000Y125830000D01*
X69850000Y124750000D02*
X69800000Y125290000D01*
X69880000Y124310000D02*
X69850000Y124750000D01*
X69880000Y123910000D02*
X69880000Y124310000D01*
X69850000Y123550000D02*
X69880000Y123910000D01*
X69800000Y123070000D02*
X69850000Y123550000D01*
X69700000Y122530000D02*
X69800000Y123070000D01*
X69590000Y122080000D02*
X69700000Y122530000D01*
X69440000Y121670000D02*
X69590000Y122080000D01*
X69270000Y121260000D02*
X69440000Y121670000D01*
X69120000Y120980000D02*
X69270000Y121260000D01*
X68890000Y120600000D02*
X69120000Y120980000D01*
X68660000Y120280000D02*
X68890000Y120600000D01*
X68490000Y120050000D02*
X68660000Y120280000D01*
X68280000Y119790000D02*
X68490000Y120050000D01*
X7330000Y98720000D02*
G75*
G03X7330000Y98720000I-1600000J0D01*
G01*
X89120000Y98720000D02*
G75*
G03X89120000Y98720000I-1600000J0D01*
G01*
X86100000Y6500000D02*
G75*
G03X86100000Y6500000I-1600000J0D01*
G01*
X9600000Y6500000D02*
G75*
G03X9600000Y6500000I-1600000J0D01*
G01*
M02*
