G04 #@! TF.GenerationSoftware,KiCad,Pcbnew,(5.1.5)-3*
G04 #@! TF.CreationDate,2021-01-11T00:29:40-07:00*
G04 #@! TF.ProjectId,purplewizard,70757270-6c65-4776-997a-6172642e6b69,0.1*
G04 #@! TF.SameCoordinates,PX613b810PYa454c00*
G04 #@! TF.FileFunction,Profile,NP*
%FSLAX46Y46*%
G04 Gerber Fmt 4.6, Leading zero omitted, Abs format (unit mm)*
G04 Created by KiCad (PCBNEW (5.1.5)-3) date 2021-01-11 00:29:40*
%MOMM*%
%LPD*%
G04 APERTURE LIST*
%ADD10C,0.100000*%
%ADD11C,0.150000*%
%ADD12C,0.300000*%
%ADD13C,0.400000*%
G04 APERTURE END LIST*
D10*
D11*
X133644400Y413600D02*
X133644400Y-31586400D01*
X241644400Y-31586400D01*
X241644400Y413600D01*
X133644400Y413600D01*
D10*
D11*
X-91955600Y162313600D02*
X-91955600Y-33586400D01*
X243644400Y-33586400D01*
X243644400Y162313600D01*
X-91955600Y162313600D01*
D10*
D11*
X-89955600Y160313600D02*
X-89955600Y-31586400D01*
X241644400Y-31586400D01*
X241644400Y160313600D01*
X-89955600Y160313600D01*
D10*
D11*
X-41955600Y160313600D02*
X-41955600Y162313600D01*
D10*
D11*
X8044400Y160313600D02*
X8044400Y162313600D01*
D10*
D11*
X58044400Y160313600D02*
X58044400Y162313600D01*
D10*
D11*
X108044400Y160313600D02*
X108044400Y162313600D01*
D10*
D11*
X158044400Y160313600D02*
X158044400Y162313600D01*
D10*
D11*
X208044400Y160313600D02*
X208044400Y162313600D01*
D10*
D11*
X-65890124Y160725505D02*
X-66632981Y160725505D01*
X-66261553Y160725505D02*
X-66261553Y162025505D01*
X-66385362Y161839791D01*
X-66509172Y161715981D01*
X-66632981Y161654077D01*
D10*
D11*
X-16632981Y161901696D02*
X-16571077Y161963600D01*
X-16447267Y162025505D01*
X-16137743Y162025505D01*
X-16013934Y161963600D01*
X-15952029Y161901696D01*
X-15890124Y161777886D01*
X-15890124Y161654077D01*
X-15952029Y161468362D01*
X-16694886Y160725505D01*
X-15890124Y160725505D01*
D10*
D11*
X33305114Y162025505D02*
X34109876Y162025505D01*
X33676542Y161530267D01*
X33862257Y161530267D01*
X33986066Y161468362D01*
X34047971Y161406458D01*
X34109876Y161282648D01*
X34109876Y160973124D01*
X34047971Y160849315D01*
X33986066Y160787410D01*
X33862257Y160725505D01*
X33490828Y160725505D01*
X33367019Y160787410D01*
X33305114Y160849315D01*
D10*
D11*
X83986066Y161592172D02*
X83986066Y160725505D01*
X83676542Y162087410D02*
X83367019Y161158839D01*
X84171780Y161158839D01*
D10*
D11*
X134047971Y162025505D02*
X133428923Y162025505D01*
X133367019Y161406458D01*
X133428923Y161468362D01*
X133552733Y161530267D01*
X133862257Y161530267D01*
X133986066Y161468362D01*
X134047971Y161406458D01*
X134109876Y161282648D01*
X134109876Y160973124D01*
X134047971Y160849315D01*
X133986066Y160787410D01*
X133862257Y160725505D01*
X133552733Y160725505D01*
X133428923Y160787410D01*
X133367019Y160849315D01*
D10*
D11*
X183986066Y162025505D02*
X183738447Y162025505D01*
X183614638Y161963600D01*
X183552733Y161901696D01*
X183428923Y161715981D01*
X183367019Y161468362D01*
X183367019Y160973124D01*
X183428923Y160849315D01*
X183490828Y160787410D01*
X183614638Y160725505D01*
X183862257Y160725505D01*
X183986066Y160787410D01*
X184047971Y160849315D01*
X184109876Y160973124D01*
X184109876Y161282648D01*
X184047971Y161406458D01*
X183986066Y161468362D01*
X183862257Y161530267D01*
X183614638Y161530267D01*
X183490828Y161468362D01*
X183428923Y161406458D01*
X183367019Y161282648D01*
D10*
D11*
X233305114Y162025505D02*
X234171780Y162025505D01*
X233614638Y160725505D01*
D10*
D11*
X-41955600Y-31586400D02*
X-41955600Y-33586400D01*
D10*
D11*
X8044400Y-31586400D02*
X8044400Y-33586400D01*
D10*
D11*
X58044400Y-31586400D02*
X58044400Y-33586400D01*
D10*
D11*
X108044400Y-31586400D02*
X108044400Y-33586400D01*
D10*
D11*
X158044400Y-31586400D02*
X158044400Y-33586400D01*
D10*
D11*
X208044400Y-31586400D02*
X208044400Y-33586400D01*
D10*
D11*
X-65890124Y-33174495D02*
X-66632981Y-33174495D01*
X-66261553Y-33174495D02*
X-66261553Y-31874495D01*
X-66385362Y-32060209D01*
X-66509172Y-32184019D01*
X-66632981Y-32245923D01*
D10*
D11*
X-16632981Y-31998304D02*
X-16571077Y-31936400D01*
X-16447267Y-31874495D01*
X-16137743Y-31874495D01*
X-16013934Y-31936400D01*
X-15952029Y-31998304D01*
X-15890124Y-32122114D01*
X-15890124Y-32245923D01*
X-15952029Y-32431638D01*
X-16694886Y-33174495D01*
X-15890124Y-33174495D01*
D10*
D11*
X33305114Y-31874495D02*
X34109876Y-31874495D01*
X33676542Y-32369733D01*
X33862257Y-32369733D01*
X33986066Y-32431638D01*
X34047971Y-32493542D01*
X34109876Y-32617352D01*
X34109876Y-32926876D01*
X34047971Y-33050685D01*
X33986066Y-33112590D01*
X33862257Y-33174495D01*
X33490828Y-33174495D01*
X33367019Y-33112590D01*
X33305114Y-33050685D01*
D10*
D11*
X83986066Y-32307828D02*
X83986066Y-33174495D01*
X83676542Y-31812590D02*
X83367019Y-32741161D01*
X84171780Y-32741161D01*
D10*
D11*
X134047971Y-31874495D02*
X133428923Y-31874495D01*
X133367019Y-32493542D01*
X133428923Y-32431638D01*
X133552733Y-32369733D01*
X133862257Y-32369733D01*
X133986066Y-32431638D01*
X134047971Y-32493542D01*
X134109876Y-32617352D01*
X134109876Y-32926876D01*
X134047971Y-33050685D01*
X133986066Y-33112590D01*
X133862257Y-33174495D01*
X133552733Y-33174495D01*
X133428923Y-33112590D01*
X133367019Y-33050685D01*
D10*
D11*
X183986066Y-31874495D02*
X183738447Y-31874495D01*
X183614638Y-31936400D01*
X183552733Y-31998304D01*
X183428923Y-32184019D01*
X183367019Y-32431638D01*
X183367019Y-32926876D01*
X183428923Y-33050685D01*
X183490828Y-33112590D01*
X183614638Y-33174495D01*
X183862257Y-33174495D01*
X183986066Y-33112590D01*
X184047971Y-33050685D01*
X184109876Y-32926876D01*
X184109876Y-32617352D01*
X184047971Y-32493542D01*
X183986066Y-32431638D01*
X183862257Y-32369733D01*
X183614638Y-32369733D01*
X183490828Y-32431638D01*
X183428923Y-32493542D01*
X183367019Y-32617352D01*
D10*
D11*
X233305114Y-31874495D02*
X234171780Y-31874495D01*
X233614638Y-33174495D01*
D10*
D11*
X-91955600Y112313600D02*
X-89955600Y112313600D01*
D10*
D11*
X-91955600Y62313600D02*
X-89955600Y62313600D01*
D10*
D11*
X-91955600Y12313600D02*
X-89955600Y12313600D01*
D10*
D11*
X-91265124Y137096934D02*
X-90646077Y137096934D01*
X-91388934Y136725505D02*
X-90955600Y138025505D01*
X-90522267Y136725505D01*
D10*
D11*
X-90862743Y87406458D02*
X-90677029Y87344553D01*
X-90615124Y87282648D01*
X-90553220Y87158839D01*
X-90553220Y86973124D01*
X-90615124Y86849315D01*
X-90677029Y86787410D01*
X-90800839Y86725505D01*
X-91296077Y86725505D01*
X-91296077Y88025505D01*
X-90862743Y88025505D01*
X-90738934Y87963600D01*
X-90677029Y87901696D01*
X-90615124Y87777886D01*
X-90615124Y87654077D01*
X-90677029Y87530267D01*
X-90738934Y87468362D01*
X-90862743Y87406458D01*
X-91296077Y87406458D01*
D10*
D11*
X-90553220Y36849315D02*
X-90615124Y36787410D01*
X-90800839Y36725505D01*
X-90924648Y36725505D01*
X-91110362Y36787410D01*
X-91234172Y36911220D01*
X-91296077Y37035029D01*
X-91357981Y37282648D01*
X-91357981Y37468362D01*
X-91296077Y37715981D01*
X-91234172Y37839791D01*
X-91110362Y37963600D01*
X-90924648Y38025505D01*
X-90800839Y38025505D01*
X-90615124Y37963600D01*
X-90553220Y37901696D01*
D10*
D11*
X-91296077Y-13274495D02*
X-91296077Y-11974495D01*
X-90986553Y-11974495D01*
X-90800839Y-12036400D01*
X-90677029Y-12160209D01*
X-90615124Y-12284019D01*
X-90553220Y-12531638D01*
X-90553220Y-12717352D01*
X-90615124Y-12964971D01*
X-90677029Y-13088780D01*
X-90800839Y-13212590D01*
X-90986553Y-13274495D01*
X-91296077Y-13274495D01*
D10*
D11*
X243644400Y112313600D02*
X241644400Y112313600D01*
D10*
D11*
X243644400Y62313600D02*
X241644400Y62313600D01*
D10*
D11*
X243644400Y12313600D02*
X241644400Y12313600D01*
D10*
D11*
X242334876Y137096934D02*
X242953923Y137096934D01*
X242211066Y136725505D02*
X242644400Y138025505D01*
X243077733Y136725505D01*
D10*
D11*
X242737257Y87406458D02*
X242922971Y87344553D01*
X242984876Y87282648D01*
X243046780Y87158839D01*
X243046780Y86973124D01*
X242984876Y86849315D01*
X242922971Y86787410D01*
X242799161Y86725505D01*
X242303923Y86725505D01*
X242303923Y88025505D01*
X242737257Y88025505D01*
X242861066Y87963600D01*
X242922971Y87901696D01*
X242984876Y87777886D01*
X242984876Y87654077D01*
X242922971Y87530267D01*
X242861066Y87468362D01*
X242737257Y87406458D01*
X242303923Y87406458D01*
D10*
D11*
X243046780Y36849315D02*
X242984876Y36787410D01*
X242799161Y36725505D01*
X242675352Y36725505D01*
X242489638Y36787410D01*
X242365828Y36911220D01*
X242303923Y37035029D01*
X242242019Y37282648D01*
X242242019Y37468362D01*
X242303923Y37715981D01*
X242365828Y37839791D01*
X242489638Y37963600D01*
X242675352Y38025505D01*
X242799161Y38025505D01*
X242984876Y37963600D01*
X243046780Y37901696D01*
D10*
D11*
X242303923Y-13274495D02*
X242303923Y-11974495D01*
X242613447Y-11974495D01*
X242799161Y-12036400D01*
X242922971Y-12160209D01*
X242984876Y-12284019D01*
X243046780Y-12531638D01*
X243046780Y-12717352D01*
X242984876Y-12964971D01*
X242922971Y-13088780D01*
X242799161Y-13212590D01*
X242613447Y-13274495D01*
X242303923Y-13274495D01*
D10*
D11*
X157076542Y-27364971D02*
X157076542Y-25864971D01*
X157433685Y-25864971D01*
X157647971Y-25936400D01*
X157790828Y-26079257D01*
X157862257Y-26222114D01*
X157933685Y-26507828D01*
X157933685Y-26722114D01*
X157862257Y-27007828D01*
X157790828Y-27150685D01*
X157647971Y-27293542D01*
X157433685Y-27364971D01*
X157076542Y-27364971D01*
X159219400Y-27364971D02*
X159219400Y-26579257D01*
X159147971Y-26436400D01*
X159005114Y-26364971D01*
X158719400Y-26364971D01*
X158576542Y-26436400D01*
X159219400Y-27293542D02*
X159076542Y-27364971D01*
X158719400Y-27364971D01*
X158576542Y-27293542D01*
X158505114Y-27150685D01*
X158505114Y-27007828D01*
X158576542Y-26864971D01*
X158719400Y-26793542D01*
X159076542Y-26793542D01*
X159219400Y-26722114D01*
X159719400Y-26364971D02*
X160290828Y-26364971D01*
X159933685Y-25864971D02*
X159933685Y-27150685D01*
X160005114Y-27293542D01*
X160147971Y-27364971D01*
X160290828Y-27364971D01*
X161362257Y-27293542D02*
X161219400Y-27364971D01*
X160933685Y-27364971D01*
X160790828Y-27293542D01*
X160719400Y-27150685D01*
X160719400Y-26579257D01*
X160790828Y-26436400D01*
X160933685Y-26364971D01*
X161219400Y-26364971D01*
X161362257Y-26436400D01*
X161433685Y-26579257D01*
X161433685Y-26722114D01*
X160719400Y-26864971D01*
X162076542Y-27222114D02*
X162147971Y-27293542D01*
X162076542Y-27364971D01*
X162005114Y-27293542D01*
X162076542Y-27222114D01*
X162076542Y-27364971D01*
X162076542Y-26436400D02*
X162147971Y-26507828D01*
X162076542Y-26579257D01*
X162005114Y-26507828D01*
X162076542Y-26436400D01*
X162076542Y-26579257D01*
X163862257Y-26007828D02*
X163933685Y-25936400D01*
X164076542Y-25864971D01*
X164433685Y-25864971D01*
X164576542Y-25936400D01*
X164647971Y-26007828D01*
X164719400Y-26150685D01*
X164719400Y-26293542D01*
X164647971Y-26507828D01*
X163790828Y-27364971D01*
X164719400Y-27364971D01*
X165647971Y-25864971D02*
X165790828Y-25864971D01*
X165933685Y-25936400D01*
X166005114Y-26007828D01*
X166076542Y-26150685D01*
X166147971Y-26436400D01*
X166147971Y-26793542D01*
X166076542Y-27079257D01*
X166005114Y-27222114D01*
X165933685Y-27293542D01*
X165790828Y-27364971D01*
X165647971Y-27364971D01*
X165505114Y-27293542D01*
X165433685Y-27222114D01*
X165362257Y-27079257D01*
X165290828Y-26793542D01*
X165290828Y-26436400D01*
X165362257Y-26150685D01*
X165433685Y-26007828D01*
X165505114Y-25936400D01*
X165647971Y-25864971D01*
X166719400Y-26007828D02*
X166790828Y-25936400D01*
X166933685Y-25864971D01*
X167290828Y-25864971D01*
X167433685Y-25936400D01*
X167505114Y-26007828D01*
X167576542Y-26150685D01*
X167576542Y-26293542D01*
X167505114Y-26507828D01*
X166647971Y-27364971D01*
X167576542Y-27364971D01*
X168505114Y-25864971D02*
X168647971Y-25864971D01*
X168790828Y-25936400D01*
X168862257Y-26007828D01*
X168933685Y-26150685D01*
X169005114Y-26436400D01*
X169005114Y-26793542D01*
X168933685Y-27079257D01*
X168862257Y-27222114D01*
X168790828Y-27293542D01*
X168647971Y-27364971D01*
X168505114Y-27364971D01*
X168362257Y-27293542D01*
X168290828Y-27222114D01*
X168219400Y-27079257D01*
X168147971Y-26793542D01*
X168147971Y-26436400D01*
X168219400Y-26150685D01*
X168290828Y-26007828D01*
X168362257Y-25936400D01*
X168505114Y-25864971D01*
X169647971Y-26793542D02*
X170790828Y-26793542D01*
X171790828Y-25864971D02*
X171933685Y-25864971D01*
X172076542Y-25936400D01*
X172147971Y-26007828D01*
X172219400Y-26150685D01*
X172290828Y-26436400D01*
X172290828Y-26793542D01*
X172219400Y-27079257D01*
X172147971Y-27222114D01*
X172076542Y-27293542D01*
X171933685Y-27364971D01*
X171790828Y-27364971D01*
X171647971Y-27293542D01*
X171576542Y-27222114D01*
X171505114Y-27079257D01*
X171433685Y-26793542D01*
X171433685Y-26436400D01*
X171505114Y-26150685D01*
X171576542Y-26007828D01*
X171647971Y-25936400D01*
X171790828Y-25864971D01*
X173147971Y-26507828D02*
X173005114Y-26436400D01*
X172933685Y-26364971D01*
X172862257Y-26222114D01*
X172862257Y-26150685D01*
X172933685Y-26007828D01*
X173005114Y-25936400D01*
X173147971Y-25864971D01*
X173433685Y-25864971D01*
X173576542Y-25936400D01*
X173647971Y-26007828D01*
X173719400Y-26150685D01*
X173719400Y-26222114D01*
X173647971Y-26364971D01*
X173576542Y-26436400D01*
X173433685Y-26507828D01*
X173147971Y-26507828D01*
X173005114Y-26579257D01*
X172933685Y-26650685D01*
X172862257Y-26793542D01*
X172862257Y-27079257D01*
X172933685Y-27222114D01*
X173005114Y-27293542D01*
X173147971Y-27364971D01*
X173433685Y-27364971D01*
X173576542Y-27293542D01*
X173647971Y-27222114D01*
X173719400Y-27079257D01*
X173719400Y-26793542D01*
X173647971Y-26650685D01*
X173576542Y-26579257D01*
X173433685Y-26507828D01*
X174362257Y-26793542D02*
X175505114Y-26793542D01*
X176505114Y-25864971D02*
X176647971Y-25864971D01*
X176790828Y-25936400D01*
X176862257Y-26007828D01*
X176933685Y-26150685D01*
X177005114Y-26436400D01*
X177005114Y-26793542D01*
X176933685Y-27079257D01*
X176862257Y-27222114D01*
X176790828Y-27293542D01*
X176647971Y-27364971D01*
X176505114Y-27364971D01*
X176362257Y-27293542D01*
X176290828Y-27222114D01*
X176219400Y-27079257D01*
X176147971Y-26793542D01*
X176147971Y-26436400D01*
X176219400Y-26150685D01*
X176290828Y-26007828D01*
X176362257Y-25936400D01*
X176505114Y-25864971D01*
X178433685Y-27364971D02*
X177576542Y-27364971D01*
X178005114Y-27364971D02*
X178005114Y-25864971D01*
X177862257Y-26079257D01*
X177719400Y-26222114D01*
X177576542Y-26293542D01*
D10*
D11*
X133644400Y-28086400D02*
X241644400Y-28086400D01*
D10*
D11*
X135076542Y-30164971D02*
X135076542Y-28664971D01*
X135933685Y-30164971D02*
X135290828Y-29307828D01*
X135933685Y-28664971D02*
X135076542Y-29522114D01*
X136576542Y-30164971D02*
X136576542Y-29164971D01*
X136576542Y-28664971D02*
X136505114Y-28736400D01*
X136576542Y-28807828D01*
X136647971Y-28736400D01*
X136576542Y-28664971D01*
X136576542Y-28807828D01*
X138147971Y-30022114D02*
X138076542Y-30093542D01*
X137862257Y-30164971D01*
X137719400Y-30164971D01*
X137505114Y-30093542D01*
X137362257Y-29950685D01*
X137290828Y-29807828D01*
X137219400Y-29522114D01*
X137219400Y-29307828D01*
X137290828Y-29022114D01*
X137362257Y-28879257D01*
X137505114Y-28736400D01*
X137719400Y-28664971D01*
X137862257Y-28664971D01*
X138076542Y-28736400D01*
X138147971Y-28807828D01*
X139433685Y-30164971D02*
X139433685Y-29379257D01*
X139362257Y-29236400D01*
X139219400Y-29164971D01*
X138933685Y-29164971D01*
X138790828Y-29236400D01*
X139433685Y-30093542D02*
X139290828Y-30164971D01*
X138933685Y-30164971D01*
X138790828Y-30093542D01*
X138719400Y-29950685D01*
X138719400Y-29807828D01*
X138790828Y-29664971D01*
X138933685Y-29593542D01*
X139290828Y-29593542D01*
X139433685Y-29522114D01*
X140790828Y-30164971D02*
X140790828Y-28664971D01*
X140790828Y-30093542D02*
X140647971Y-30164971D01*
X140362257Y-30164971D01*
X140219400Y-30093542D01*
X140147971Y-30022114D01*
X140076542Y-29879257D01*
X140076542Y-29450685D01*
X140147971Y-29307828D01*
X140219400Y-29236400D01*
X140362257Y-29164971D01*
X140647971Y-29164971D01*
X140790828Y-29236400D01*
X142647971Y-29379257D02*
X143147971Y-29379257D01*
X143362257Y-30164971D02*
X142647971Y-30164971D01*
X142647971Y-28664971D01*
X143362257Y-28664971D01*
X144005114Y-30022114D02*
X144076542Y-30093542D01*
X144005114Y-30164971D01*
X143933685Y-30093542D01*
X144005114Y-30022114D01*
X144005114Y-30164971D01*
X144719400Y-30164971D02*
X144719400Y-28664971D01*
X145076542Y-28664971D01*
X145290828Y-28736400D01*
X145433685Y-28879257D01*
X145505114Y-29022114D01*
X145576542Y-29307828D01*
X145576542Y-29522114D01*
X145505114Y-29807828D01*
X145433685Y-29950685D01*
X145290828Y-30093542D01*
X145076542Y-30164971D01*
X144719400Y-30164971D01*
X146219400Y-30022114D02*
X146290828Y-30093542D01*
X146219400Y-30164971D01*
X146147971Y-30093542D01*
X146219400Y-30022114D01*
X146219400Y-30164971D01*
X146862257Y-29736400D02*
X147576542Y-29736400D01*
X146719400Y-30164971D02*
X147219400Y-28664971D01*
X147719400Y-30164971D01*
X148219400Y-30022114D02*
X148290828Y-30093542D01*
X148219400Y-30164971D01*
X148147971Y-30093542D01*
X148219400Y-30022114D01*
X148219400Y-30164971D01*
X151219400Y-30164971D02*
X151219400Y-28664971D01*
X151362257Y-29593542D02*
X151790828Y-30164971D01*
X151790828Y-29164971D02*
X151219400Y-29736400D01*
X152433685Y-30164971D02*
X152433685Y-29164971D01*
X152433685Y-28664971D02*
X152362257Y-28736400D01*
X152433685Y-28807828D01*
X152505114Y-28736400D01*
X152433685Y-28664971D01*
X152433685Y-28807828D01*
X153790828Y-30093542D02*
X153647971Y-30164971D01*
X153362257Y-30164971D01*
X153219400Y-30093542D01*
X153147971Y-30022114D01*
X153076542Y-29879257D01*
X153076542Y-29450685D01*
X153147971Y-29307828D01*
X153219400Y-29236400D01*
X153362257Y-29164971D01*
X153647971Y-29164971D01*
X153790828Y-29236400D01*
X155076542Y-30164971D02*
X155076542Y-29379257D01*
X155005114Y-29236400D01*
X154862257Y-29164971D01*
X154576542Y-29164971D01*
X154433685Y-29236400D01*
X155076542Y-30093542D02*
X154933685Y-30164971D01*
X154576542Y-30164971D01*
X154433685Y-30093542D01*
X154362257Y-29950685D01*
X154362257Y-29807828D01*
X154433685Y-29664971D01*
X154576542Y-29593542D01*
X154933685Y-29593542D01*
X155076542Y-29522114D01*
X156433685Y-30164971D02*
X156433685Y-28664971D01*
X156433685Y-30093542D02*
X156290828Y-30164971D01*
X156005114Y-30164971D01*
X155862257Y-30093542D01*
X155790828Y-30022114D01*
X155719400Y-29879257D01*
X155719400Y-29450685D01*
X155790828Y-29307828D01*
X155862257Y-29236400D01*
X156005114Y-29164971D01*
X156290828Y-29164971D01*
X156433685Y-29236400D01*
X158719400Y-30736400D02*
X158647971Y-30664971D01*
X158505114Y-30450685D01*
X158433685Y-30307828D01*
X158362257Y-30093542D01*
X158290828Y-29736400D01*
X158290828Y-29450685D01*
X158362257Y-29093542D01*
X158433685Y-28879257D01*
X158505114Y-28736400D01*
X158647971Y-28522114D01*
X158719400Y-28450685D01*
X160005114Y-28664971D02*
X159290828Y-28664971D01*
X159219400Y-29379257D01*
X159290828Y-29307828D01*
X159433685Y-29236400D01*
X159790828Y-29236400D01*
X159933685Y-29307828D01*
X160005114Y-29379257D01*
X160076542Y-29522114D01*
X160076542Y-29879257D01*
X160005114Y-30022114D01*
X159933685Y-30093542D01*
X159790828Y-30164971D01*
X159433685Y-30164971D01*
X159290828Y-30093542D01*
X159219400Y-30022114D01*
X160719400Y-30022114D02*
X160790828Y-30093542D01*
X160719400Y-30164971D01*
X160647971Y-30093542D01*
X160719400Y-30022114D01*
X160719400Y-30164971D01*
X162219400Y-30164971D02*
X161362257Y-30164971D01*
X161790828Y-30164971D02*
X161790828Y-28664971D01*
X161647971Y-28879257D01*
X161505114Y-29022114D01*
X161362257Y-29093542D01*
X162862257Y-30022114D02*
X162933685Y-30093542D01*
X162862257Y-30164971D01*
X162790828Y-30093542D01*
X162862257Y-30022114D01*
X162862257Y-30164971D01*
X164290828Y-28664971D02*
X163576542Y-28664971D01*
X163505114Y-29379257D01*
X163576542Y-29307828D01*
X163719400Y-29236400D01*
X164076542Y-29236400D01*
X164219400Y-29307828D01*
X164290828Y-29379257D01*
X164362257Y-29522114D01*
X164362257Y-29879257D01*
X164290828Y-30022114D01*
X164219400Y-30093542D01*
X164076542Y-30164971D01*
X163719400Y-30164971D01*
X163576542Y-30093542D01*
X163505114Y-30022114D01*
X164862257Y-30736400D02*
X164933685Y-30664971D01*
X165076542Y-30450685D01*
X165147971Y-30307828D01*
X165219400Y-30093542D01*
X165290828Y-29736400D01*
X165290828Y-29450685D01*
X165219400Y-29093542D01*
X165147971Y-28879257D01*
X165076542Y-28736400D01*
X164933685Y-28522114D01*
X164862257Y-28450685D01*
X166005114Y-29593542D02*
X167147971Y-29593542D01*
X167719400Y-28664971D02*
X168647971Y-28664971D01*
X168147971Y-29236400D01*
X168362257Y-29236400D01*
X168505114Y-29307828D01*
X168576542Y-29379257D01*
X168647971Y-29522114D01*
X168647971Y-29879257D01*
X168576542Y-30022114D01*
X168505114Y-30093542D01*
X168362257Y-30164971D01*
X167933685Y-30164971D01*
X167790828Y-30093542D01*
X167719400Y-30022114D01*
D10*
D11*
X133644400Y-25086400D02*
X241644400Y-25086400D01*
D10*
D12*
X221053685Y-27364971D02*
X220553685Y-26650685D01*
X220196542Y-27364971D02*
X220196542Y-25864971D01*
X220767971Y-25864971D01*
X220910828Y-25936400D01*
X220982257Y-26007828D01*
X221053685Y-26150685D01*
X221053685Y-26364971D01*
X220982257Y-26507828D01*
X220910828Y-26579257D01*
X220767971Y-26650685D01*
X220196542Y-26650685D01*
X222267971Y-27293542D02*
X222125114Y-27364971D01*
X221839400Y-27364971D01*
X221696542Y-27293542D01*
X221625114Y-27150685D01*
X221625114Y-26579257D01*
X221696542Y-26436400D01*
X221839400Y-26364971D01*
X222125114Y-26364971D01*
X222267971Y-26436400D01*
X222339400Y-26579257D01*
X222339400Y-26722114D01*
X221625114Y-26864971D01*
X222839400Y-26364971D02*
X223196542Y-27364971D01*
X223553685Y-26364971D01*
X224125114Y-27222114D02*
X224196542Y-27293542D01*
X224125114Y-27364971D01*
X224053685Y-27293542D01*
X224125114Y-27222114D01*
X224125114Y-27364971D01*
X224125114Y-26436400D02*
X224196542Y-26507828D01*
X224125114Y-26579257D01*
X224053685Y-26507828D01*
X224125114Y-26436400D01*
X224125114Y-26579257D01*
X226267971Y-25864971D02*
X226410828Y-25864971D01*
X226553685Y-25936400D01*
X226625114Y-26007828D01*
X226696542Y-26150685D01*
X226767971Y-26436400D01*
X226767971Y-26793542D01*
X226696542Y-27079257D01*
X226625114Y-27222114D01*
X226553685Y-27293542D01*
X226410828Y-27364971D01*
X226267971Y-27364971D01*
X226125114Y-27293542D01*
X226053685Y-27222114D01*
X225982257Y-27079257D01*
X225910828Y-26793542D01*
X225910828Y-26436400D01*
X225982257Y-26150685D01*
X226053685Y-26007828D01*
X226125114Y-25936400D01*
X226267971Y-25864971D01*
X227410828Y-27222114D02*
X227482257Y-27293542D01*
X227410828Y-27364971D01*
X227339400Y-27293542D01*
X227410828Y-27222114D01*
X227410828Y-27364971D01*
X228910828Y-27364971D02*
X228053685Y-27364971D01*
X228482257Y-27364971D02*
X228482257Y-25864971D01*
X228339400Y-26079257D01*
X228196542Y-26222114D01*
X228053685Y-26293542D01*
D10*
D11*
X135005114Y-27293542D02*
X135219400Y-27364971D01*
X135576542Y-27364971D01*
X135719400Y-27293542D01*
X135790828Y-27222114D01*
X135862257Y-27079257D01*
X135862257Y-26936400D01*
X135790828Y-26793542D01*
X135719400Y-26722114D01*
X135576542Y-26650685D01*
X135290828Y-26579257D01*
X135147971Y-26507828D01*
X135076542Y-26436400D01*
X135005114Y-26293542D01*
X135005114Y-26150685D01*
X135076542Y-26007828D01*
X135147971Y-25936400D01*
X135290828Y-25864971D01*
X135647971Y-25864971D01*
X135862257Y-25936400D01*
X136505114Y-27364971D02*
X136505114Y-26364971D01*
X136505114Y-25864971D02*
X136433685Y-25936400D01*
X136505114Y-26007828D01*
X136576542Y-25936400D01*
X136505114Y-25864971D01*
X136505114Y-26007828D01*
X137076542Y-26364971D02*
X137862257Y-26364971D01*
X137076542Y-27364971D01*
X137862257Y-27364971D01*
X139005114Y-27293542D02*
X138862257Y-27364971D01*
X138576542Y-27364971D01*
X138433685Y-27293542D01*
X138362257Y-27150685D01*
X138362257Y-26579257D01*
X138433685Y-26436400D01*
X138576542Y-26364971D01*
X138862257Y-26364971D01*
X139005114Y-26436400D01*
X139076542Y-26579257D01*
X139076542Y-26722114D01*
X138362257Y-26864971D01*
X139719400Y-27222114D02*
X139790828Y-27293542D01*
X139719400Y-27364971D01*
X139647971Y-27293542D01*
X139719400Y-27222114D01*
X139719400Y-27364971D01*
X139719400Y-26436400D02*
X139790828Y-26507828D01*
X139719400Y-26579257D01*
X139647971Y-26507828D01*
X139719400Y-26436400D01*
X139719400Y-26579257D01*
X141576542Y-25864971D02*
X141576542Y-27079257D01*
X141647971Y-27222114D01*
X141719400Y-27293542D01*
X141862257Y-27364971D01*
X142147971Y-27364971D01*
X142290828Y-27293542D01*
X142362257Y-27222114D01*
X142433685Y-27079257D01*
X142433685Y-25864971D01*
X143076542Y-27293542D02*
X143290828Y-27364971D01*
X143647971Y-27364971D01*
X143790828Y-27293542D01*
X143862257Y-27222114D01*
X143933685Y-27079257D01*
X143933685Y-26936400D01*
X143862257Y-26793542D01*
X143790828Y-26722114D01*
X143647971Y-26650685D01*
X143362257Y-26579257D01*
X143219400Y-26507828D01*
X143147971Y-26436400D01*
X143076542Y-26293542D01*
X143076542Y-26150685D01*
X143147971Y-26007828D01*
X143219400Y-25936400D01*
X143362257Y-25864971D01*
X143719400Y-25864971D01*
X143933685Y-25936400D01*
X145290828Y-27364971D02*
X144576542Y-27364971D01*
X144576542Y-25864971D01*
X146362257Y-27293542D02*
X146219400Y-27364971D01*
X145933685Y-27364971D01*
X145790828Y-27293542D01*
X145719400Y-27150685D01*
X145719400Y-26579257D01*
X145790828Y-26436400D01*
X145933685Y-26364971D01*
X146219400Y-26364971D01*
X146362257Y-26436400D01*
X146433685Y-26579257D01*
X146433685Y-26722114D01*
X145719400Y-26864971D01*
X147719400Y-26364971D02*
X147719400Y-27579257D01*
X147647971Y-27722114D01*
X147576542Y-27793542D01*
X147433685Y-27864971D01*
X147219400Y-27864971D01*
X147076542Y-27793542D01*
X147719400Y-27293542D02*
X147576542Y-27364971D01*
X147290828Y-27364971D01*
X147147971Y-27293542D01*
X147076542Y-27222114D01*
X147005114Y-27079257D01*
X147005114Y-26650685D01*
X147076542Y-26507828D01*
X147147971Y-26436400D01*
X147290828Y-26364971D01*
X147576542Y-26364971D01*
X147719400Y-26436400D01*
X149076542Y-27364971D02*
X149076542Y-26579257D01*
X149005114Y-26436400D01*
X148862257Y-26364971D01*
X148576542Y-26364971D01*
X148433685Y-26436400D01*
X149076542Y-27293542D02*
X148933685Y-27364971D01*
X148576542Y-27364971D01*
X148433685Y-27293542D01*
X148362257Y-27150685D01*
X148362257Y-27007828D01*
X148433685Y-26864971D01*
X148576542Y-26793542D01*
X148933685Y-26793542D01*
X149076542Y-26722114D01*
X150005114Y-27364971D02*
X149862257Y-27293542D01*
X149790828Y-27150685D01*
X149790828Y-25864971D01*
D10*
D11*
X220076542Y-30164971D02*
X220076542Y-28664971D01*
X221433685Y-30164971D02*
X221433685Y-28664971D01*
X221433685Y-30093542D02*
X221290828Y-30164971D01*
X221005114Y-30164971D01*
X220862257Y-30093542D01*
X220790828Y-30022114D01*
X220719400Y-29879257D01*
X220719400Y-29450685D01*
X220790828Y-29307828D01*
X220862257Y-29236400D01*
X221005114Y-29164971D01*
X221290828Y-29164971D01*
X221433685Y-29236400D01*
X222147971Y-30022114D02*
X222219400Y-30093542D01*
X222147971Y-30164971D01*
X222076542Y-30093542D01*
X222147971Y-30022114D01*
X222147971Y-30164971D01*
X222147971Y-29236400D02*
X222219400Y-29307828D01*
X222147971Y-29379257D01*
X222076542Y-29307828D01*
X222147971Y-29236400D01*
X222147971Y-29379257D01*
X224790828Y-30164971D02*
X223933685Y-30164971D01*
X224362257Y-30164971D02*
X224362257Y-28664971D01*
X224219400Y-28879257D01*
X224076542Y-29022114D01*
X223933685Y-29093542D01*
X226505114Y-28593542D02*
X225219400Y-30522114D01*
X227790828Y-30164971D02*
X226933685Y-30164971D01*
X227362257Y-30164971D02*
X227362257Y-28664971D01*
X227219400Y-28879257D01*
X227076542Y-29022114D01*
X226933685Y-29093542D01*
D10*
D11*
X133644400Y-21086400D02*
X241644400Y-21086400D01*
D10*
D13*
X135356780Y-21791161D02*
X136499638Y-21791161D01*
X135678209Y-23791161D02*
X135928209Y-21791161D01*
X136916304Y-23791161D02*
X137082971Y-22457828D01*
X137166304Y-21791161D02*
X137059161Y-21886400D01*
X137142495Y-21981638D01*
X137249638Y-21886400D01*
X137166304Y-21791161D01*
X137142495Y-21981638D01*
X137749638Y-22457828D02*
X138511542Y-22457828D01*
X138118685Y-21791161D02*
X137904400Y-23505447D01*
X137975828Y-23695923D01*
X138154400Y-23791161D01*
X138344876Y-23791161D01*
X139297257Y-23791161D02*
X139118685Y-23695923D01*
X139047257Y-23505447D01*
X139261542Y-21791161D01*
X140832971Y-23695923D02*
X140630590Y-23791161D01*
X140249638Y-23791161D01*
X140071066Y-23695923D01*
X139999638Y-23505447D01*
X140094876Y-22743542D01*
X140213923Y-22553066D01*
X140416304Y-22457828D01*
X140797257Y-22457828D01*
X140975828Y-22553066D01*
X141047257Y-22743542D01*
X141023447Y-22934019D01*
X140047257Y-23124495D01*
X141797257Y-23600685D02*
X141880590Y-23695923D01*
X141773447Y-23791161D01*
X141690114Y-23695923D01*
X141797257Y-23600685D01*
X141773447Y-23791161D01*
X141928209Y-22553066D02*
X142011542Y-22648304D01*
X141904400Y-22743542D01*
X141821066Y-22648304D01*
X141928209Y-22553066D01*
X141904400Y-22743542D01*
X144249638Y-23791161D02*
X144499638Y-21791161D01*
X144975828Y-21791161D01*
X145249638Y-21886400D01*
X145416304Y-22076876D01*
X145487733Y-22267352D01*
X145535352Y-22648304D01*
X145499638Y-22934019D01*
X145356780Y-23314971D01*
X145237733Y-23505447D01*
X145023447Y-23695923D01*
X144725828Y-23791161D01*
X144249638Y-23791161D01*
X147416304Y-23600685D02*
X147309161Y-23695923D01*
X147011542Y-23791161D01*
X146821066Y-23791161D01*
X146547257Y-23695923D01*
X146380590Y-23505447D01*
X146309161Y-23314971D01*
X146261542Y-22934019D01*
X146297257Y-22648304D01*
X146440114Y-22267352D01*
X146559161Y-22076876D01*
X146773447Y-21886400D01*
X147071066Y-21791161D01*
X147261542Y-21791161D01*
X147535352Y-21886400D01*
X147618685Y-21981638D01*
X148678209Y-22648304D02*
X148499638Y-22553066D01*
X148416304Y-22457828D01*
X148344876Y-22267352D01*
X148356780Y-22172114D01*
X148475828Y-21981638D01*
X148582971Y-21886400D01*
X148785352Y-21791161D01*
X149166304Y-21791161D01*
X149344876Y-21886400D01*
X149428209Y-21981638D01*
X149499638Y-22172114D01*
X149487733Y-22267352D01*
X149368685Y-22457828D01*
X149261542Y-22553066D01*
X149059161Y-22648304D01*
X148678209Y-22648304D01*
X148475828Y-22743542D01*
X148368685Y-22838780D01*
X148249638Y-23029257D01*
X148202019Y-23410209D01*
X148273447Y-23600685D01*
X148356780Y-23695923D01*
X148535352Y-23791161D01*
X148916304Y-23791161D01*
X149118685Y-23695923D01*
X149225828Y-23600685D01*
X149344876Y-23410209D01*
X149392495Y-23029257D01*
X149321066Y-22838780D01*
X149237733Y-22743542D01*
X149059161Y-22648304D01*
X150785352Y-21791161D02*
X150975828Y-21791161D01*
X151154400Y-21886400D01*
X151237733Y-21981638D01*
X151309161Y-22172114D01*
X151356780Y-22553066D01*
X151297257Y-23029257D01*
X151154400Y-23410209D01*
X151035352Y-23600685D01*
X150928209Y-23695923D01*
X150725828Y-23791161D01*
X150535352Y-23791161D01*
X150356780Y-23695923D01*
X150273447Y-23600685D01*
X150202019Y-23410209D01*
X150154400Y-23029257D01*
X150213923Y-22553066D01*
X150356780Y-22172114D01*
X150475828Y-21981638D01*
X150582971Y-21886400D01*
X150785352Y-21791161D01*
X153106780Y-23791161D02*
X151963923Y-23791161D01*
X152535352Y-23791161D02*
X152785352Y-21791161D01*
X152559161Y-22076876D01*
X152344876Y-22267352D01*
X152142495Y-22362590D01*
X156285352Y-22743542D02*
X156559161Y-22838780D01*
X156642495Y-22934019D01*
X156713923Y-23124495D01*
X156678209Y-23410209D01*
X156559161Y-23600685D01*
X156452019Y-23695923D01*
X156249638Y-23791161D01*
X155487733Y-23791161D01*
X155737733Y-21791161D01*
X156404400Y-21791161D01*
X156582971Y-21886400D01*
X156666304Y-21981638D01*
X156737733Y-22172114D01*
X156713923Y-22362590D01*
X156594876Y-22553066D01*
X156487733Y-22648304D01*
X156285352Y-22743542D01*
X155618685Y-22743542D01*
X158344876Y-23791161D02*
X158475828Y-22743542D01*
X158404400Y-22553066D01*
X158225828Y-22457828D01*
X157844876Y-22457828D01*
X157642495Y-22553066D01*
X158356780Y-23695923D02*
X158154400Y-23791161D01*
X157678209Y-23791161D01*
X157499638Y-23695923D01*
X157428209Y-23505447D01*
X157452019Y-23314971D01*
X157571066Y-23124495D01*
X157773447Y-23029257D01*
X158249638Y-23029257D01*
X158452019Y-22934019D01*
X160154400Y-23791161D02*
X160404400Y-21791161D01*
X160166304Y-23695923D02*
X159963923Y-23791161D01*
X159582971Y-23791161D01*
X159404400Y-23695923D01*
X159321066Y-23600685D01*
X159249638Y-23410209D01*
X159321066Y-22838780D01*
X159440114Y-22648304D01*
X159547257Y-22553066D01*
X159749638Y-22457828D01*
X160130590Y-22457828D01*
X160309161Y-22553066D01*
X162130590Y-22457828D02*
X161928209Y-24076876D01*
X161809161Y-24267352D01*
X161702019Y-24362590D01*
X161499638Y-24457828D01*
X161213923Y-24457828D01*
X161035352Y-24362590D01*
X161975828Y-23695923D02*
X161773447Y-23791161D01*
X161392495Y-23791161D01*
X161213923Y-23695923D01*
X161130590Y-23600685D01*
X161059161Y-23410209D01*
X161130590Y-22838780D01*
X161249638Y-22648304D01*
X161356780Y-22553066D01*
X161559161Y-22457828D01*
X161940114Y-22457828D01*
X162118685Y-22553066D01*
X163690114Y-23695923D02*
X163487733Y-23791161D01*
X163106780Y-23791161D01*
X162928209Y-23695923D01*
X162856780Y-23505447D01*
X162952019Y-22743542D01*
X163071066Y-22553066D01*
X163273447Y-22457828D01*
X163654400Y-22457828D01*
X163832971Y-22553066D01*
X163904400Y-22743542D01*
X163880590Y-22934019D01*
X162904400Y-23124495D01*
X166249638Y-23029257D02*
X167773447Y-23029257D01*
X170952019Y-22743542D02*
X171225828Y-22838780D01*
X171309161Y-22934019D01*
X171380590Y-23124495D01*
X171344876Y-23410209D01*
X171225828Y-23600685D01*
X171118685Y-23695923D01*
X170916304Y-23791161D01*
X170154400Y-23791161D01*
X170404400Y-21791161D01*
X171071066Y-21791161D01*
X171249638Y-21886400D01*
X171332971Y-21981638D01*
X171404400Y-22172114D01*
X171380590Y-22362590D01*
X171261542Y-22553066D01*
X171154400Y-22648304D01*
X170952019Y-22743542D01*
X170285352Y-22743542D01*
X172154400Y-23791161D02*
X172404400Y-21791161D01*
X172892495Y-23219733D01*
X173737733Y-21791161D01*
X173487733Y-23791161D01*
D10*
D11*
X135576542Y-19179257D02*
X135076542Y-19179257D01*
X135076542Y-19964971D02*
X135076542Y-18464971D01*
X135790828Y-18464971D01*
X136362257Y-19964971D02*
X136362257Y-18964971D01*
X136362257Y-18464971D02*
X136290828Y-18536400D01*
X136362257Y-18607828D01*
X136433685Y-18536400D01*
X136362257Y-18464971D01*
X136362257Y-18607828D01*
X137290828Y-19964971D02*
X137147971Y-19893542D01*
X137076542Y-19750685D01*
X137076542Y-18464971D01*
X138433685Y-19893542D02*
X138290828Y-19964971D01*
X138005114Y-19964971D01*
X137862257Y-19893542D01*
X137790828Y-19750685D01*
X137790828Y-19179257D01*
X137862257Y-19036400D01*
X138005114Y-18964971D01*
X138290828Y-18964971D01*
X138433685Y-19036400D01*
X138505114Y-19179257D01*
X138505114Y-19322114D01*
X137790828Y-19464971D01*
X139147971Y-19822114D02*
X139219400Y-19893542D01*
X139147971Y-19964971D01*
X139076542Y-19893542D01*
X139147971Y-19822114D01*
X139147971Y-19964971D01*
X139147971Y-19036400D02*
X139219400Y-19107828D01*
X139147971Y-19179257D01*
X139076542Y-19107828D01*
X139147971Y-19036400D01*
X139147971Y-19179257D01*
X141005114Y-18964971D02*
X141005114Y-20464971D01*
X141005114Y-19036400D02*
X141147971Y-18964971D01*
X141433685Y-18964971D01*
X141576542Y-19036400D01*
X141647971Y-19107828D01*
X141719400Y-19250685D01*
X141719400Y-19679257D01*
X141647971Y-19822114D01*
X141576542Y-19893542D01*
X141433685Y-19964971D01*
X141147971Y-19964971D01*
X141005114Y-19893542D01*
X143005114Y-18964971D02*
X143005114Y-19964971D01*
X142362257Y-18964971D02*
X142362257Y-19750685D01*
X142433685Y-19893542D01*
X142576542Y-19964971D01*
X142790828Y-19964971D01*
X142933685Y-19893542D01*
X143005114Y-19822114D01*
X143719400Y-19964971D02*
X143719400Y-18964971D01*
X143719400Y-19250685D02*
X143790828Y-19107828D01*
X143862257Y-19036400D01*
X144005114Y-18964971D01*
X144147971Y-18964971D01*
X144647971Y-18964971D02*
X144647971Y-20464971D01*
X144647971Y-19036400D02*
X144790828Y-18964971D01*
X145076542Y-18964971D01*
X145219400Y-19036400D01*
X145290828Y-19107828D01*
X145362257Y-19250685D01*
X145362257Y-19679257D01*
X145290828Y-19822114D01*
X145219400Y-19893542D01*
X145076542Y-19964971D01*
X144790828Y-19964971D01*
X144647971Y-19893542D01*
X146219400Y-19964971D02*
X146076542Y-19893542D01*
X146005114Y-19750685D01*
X146005114Y-18464971D01*
X147362257Y-19893542D02*
X147219400Y-19964971D01*
X146933685Y-19964971D01*
X146790828Y-19893542D01*
X146719400Y-19750685D01*
X146719400Y-19179257D01*
X146790828Y-19036400D01*
X146933685Y-18964971D01*
X147219400Y-18964971D01*
X147362257Y-19036400D01*
X147433685Y-19179257D01*
X147433685Y-19322114D01*
X146719400Y-19464971D01*
X147933685Y-18964971D02*
X148219400Y-19964971D01*
X148505114Y-19250685D01*
X148790828Y-19964971D01*
X149076542Y-18964971D01*
X149647971Y-19964971D02*
X149647971Y-18964971D01*
X149647971Y-18464971D02*
X149576542Y-18536400D01*
X149647971Y-18607828D01*
X149719400Y-18536400D01*
X149647971Y-18464971D01*
X149647971Y-18607828D01*
X150219400Y-18964971D02*
X151005114Y-18964971D01*
X150219400Y-19964971D01*
X151005114Y-19964971D01*
X152219400Y-19964971D02*
X152219400Y-19179257D01*
X152147971Y-19036400D01*
X152005114Y-18964971D01*
X151719400Y-18964971D01*
X151576542Y-19036400D01*
X152219400Y-19893542D02*
X152076542Y-19964971D01*
X151719400Y-19964971D01*
X151576542Y-19893542D01*
X151505114Y-19750685D01*
X151505114Y-19607828D01*
X151576542Y-19464971D01*
X151719400Y-19393542D01*
X152076542Y-19393542D01*
X152219400Y-19322114D01*
X152933685Y-19964971D02*
X152933685Y-18964971D01*
X152933685Y-19250685D02*
X153005114Y-19107828D01*
X153076542Y-19036400D01*
X153219400Y-18964971D01*
X153362257Y-18964971D01*
X154505114Y-19964971D02*
X154505114Y-18464971D01*
X154505114Y-19893542D02*
X154362257Y-19964971D01*
X154076542Y-19964971D01*
X153933685Y-19893542D01*
X153862257Y-19822114D01*
X153790828Y-19679257D01*
X153790828Y-19250685D01*
X153862257Y-19107828D01*
X153933685Y-19036400D01*
X154076542Y-18964971D01*
X154362257Y-18964971D01*
X154505114Y-19036400D01*
X155219400Y-19822114D02*
X155290828Y-19893542D01*
X155219400Y-19964971D01*
X155147971Y-19893542D01*
X155219400Y-19822114D01*
X155219400Y-19964971D01*
X155933685Y-19964971D02*
X155933685Y-18464971D01*
X156076542Y-19393542D02*
X156505114Y-19964971D01*
X156505114Y-18964971D02*
X155933685Y-19536400D01*
X157147971Y-19964971D02*
X157147971Y-18964971D01*
X157147971Y-18464971D02*
X157076542Y-18536400D01*
X157147971Y-18607828D01*
X157219400Y-18536400D01*
X157147971Y-18464971D01*
X157147971Y-18607828D01*
X158505114Y-19893542D02*
X158362257Y-19964971D01*
X158076542Y-19964971D01*
X157933685Y-19893542D01*
X157862257Y-19822114D01*
X157790828Y-19679257D01*
X157790828Y-19250685D01*
X157862257Y-19107828D01*
X157933685Y-19036400D01*
X158076542Y-18964971D01*
X158362257Y-18964971D01*
X158505114Y-19036400D01*
X159790828Y-19964971D02*
X159790828Y-19179257D01*
X159719400Y-19036400D01*
X159576542Y-18964971D01*
X159290828Y-18964971D01*
X159147971Y-19036400D01*
X159790828Y-19893542D02*
X159647971Y-19964971D01*
X159290828Y-19964971D01*
X159147971Y-19893542D01*
X159076542Y-19750685D01*
X159076542Y-19607828D01*
X159147971Y-19464971D01*
X159290828Y-19393542D01*
X159647971Y-19393542D01*
X159790828Y-19322114D01*
X161147971Y-19964971D02*
X161147971Y-18464971D01*
X161147971Y-19893542D02*
X161005114Y-19964971D01*
X160719400Y-19964971D01*
X160576542Y-19893542D01*
X160505114Y-19822114D01*
X160433685Y-19679257D01*
X160433685Y-19250685D01*
X160505114Y-19107828D01*
X160576542Y-19036400D01*
X160719400Y-18964971D01*
X161005114Y-18964971D01*
X161147971Y-19036400D01*
X161505114Y-20107828D02*
X162647971Y-20107828D01*
X163005114Y-18964971D02*
X163005114Y-20464971D01*
X163005114Y-19036400D02*
X163147971Y-18964971D01*
X163433685Y-18964971D01*
X163576542Y-19036400D01*
X163647971Y-19107828D01*
X163719400Y-19250685D01*
X163719400Y-19679257D01*
X163647971Y-19822114D01*
X163576542Y-19893542D01*
X163433685Y-19964971D01*
X163147971Y-19964971D01*
X163005114Y-19893542D01*
X165005114Y-19893542D02*
X164862257Y-19964971D01*
X164576542Y-19964971D01*
X164433685Y-19893542D01*
X164362257Y-19822114D01*
X164290828Y-19679257D01*
X164290828Y-19250685D01*
X164362257Y-19107828D01*
X164433685Y-19036400D01*
X164576542Y-18964971D01*
X164862257Y-18964971D01*
X165005114Y-19036400D01*
X165647971Y-19964971D02*
X165647971Y-18464971D01*
X165647971Y-19036400D02*
X165790828Y-18964971D01*
X166076542Y-18964971D01*
X166219400Y-19036400D01*
X166290828Y-19107828D01*
X166362257Y-19250685D01*
X166362257Y-19679257D01*
X166290828Y-19822114D01*
X166219400Y-19893542D01*
X166076542Y-19964971D01*
X165790828Y-19964971D01*
X165647971Y-19893542D01*
D10*
D11*
X133644400Y-15086400D02*
X241644400Y-15086400D01*
D10*
D11*
X135005114Y-17193542D02*
X135219400Y-17264971D01*
X135576542Y-17264971D01*
X135719400Y-17193542D01*
X135790828Y-17122114D01*
X135862257Y-16979257D01*
X135862257Y-16836400D01*
X135790828Y-16693542D01*
X135719400Y-16622114D01*
X135576542Y-16550685D01*
X135290828Y-16479257D01*
X135147971Y-16407828D01*
X135076542Y-16336400D01*
X135005114Y-16193542D01*
X135005114Y-16050685D01*
X135076542Y-15907828D01*
X135147971Y-15836400D01*
X135290828Y-15764971D01*
X135647971Y-15764971D01*
X135862257Y-15836400D01*
X136505114Y-17264971D02*
X136505114Y-15764971D01*
X137147971Y-17264971D02*
X137147971Y-16479257D01*
X137076542Y-16336400D01*
X136933685Y-16264971D01*
X136719400Y-16264971D01*
X136576542Y-16336400D01*
X136505114Y-16407828D01*
X138433685Y-17193542D02*
X138290828Y-17264971D01*
X138005114Y-17264971D01*
X137862257Y-17193542D01*
X137790828Y-17050685D01*
X137790828Y-16479257D01*
X137862257Y-16336400D01*
X138005114Y-16264971D01*
X138290828Y-16264971D01*
X138433685Y-16336400D01*
X138505114Y-16479257D01*
X138505114Y-16622114D01*
X137790828Y-16764971D01*
X139719400Y-17193542D02*
X139576542Y-17264971D01*
X139290828Y-17264971D01*
X139147971Y-17193542D01*
X139076542Y-17050685D01*
X139076542Y-16479257D01*
X139147971Y-16336400D01*
X139290828Y-16264971D01*
X139576542Y-16264971D01*
X139719400Y-16336400D01*
X139790828Y-16479257D01*
X139790828Y-16622114D01*
X139076542Y-16764971D01*
X140219400Y-16264971D02*
X140790828Y-16264971D01*
X140433685Y-15764971D02*
X140433685Y-17050685D01*
X140505114Y-17193542D01*
X140647971Y-17264971D01*
X140790828Y-17264971D01*
X141290828Y-17122114D02*
X141362257Y-17193542D01*
X141290828Y-17264971D01*
X141219400Y-17193542D01*
X141290828Y-17122114D01*
X141290828Y-17264971D01*
X141290828Y-16336400D02*
X141362257Y-16407828D01*
X141290828Y-16479257D01*
X141219400Y-16407828D01*
X141290828Y-16336400D01*
X141290828Y-16479257D01*
D10*
D12*
X135196542Y-14264971D02*
X135196542Y-12764971D01*
X135553685Y-12764971D01*
X135767971Y-12836400D01*
X135910828Y-12979257D01*
X135982257Y-13122114D01*
X136053685Y-13407828D01*
X136053685Y-13622114D01*
X135982257Y-13907828D01*
X135910828Y-14050685D01*
X135767971Y-14193542D01*
X135553685Y-14264971D01*
X135196542Y-14264971D01*
X137553685Y-14122114D02*
X137482257Y-14193542D01*
X137267971Y-14264971D01*
X137125114Y-14264971D01*
X136910828Y-14193542D01*
X136767971Y-14050685D01*
X136696542Y-13907828D01*
X136625114Y-13622114D01*
X136625114Y-13407828D01*
X136696542Y-13122114D01*
X136767971Y-12979257D01*
X136910828Y-12836400D01*
X137125114Y-12764971D01*
X137267971Y-12764971D01*
X137482257Y-12836400D01*
X137553685Y-12907828D01*
X138410828Y-13407828D02*
X138267971Y-13336400D01*
X138196542Y-13264971D01*
X138125114Y-13122114D01*
X138125114Y-13050685D01*
X138196542Y-12907828D01*
X138267971Y-12836400D01*
X138410828Y-12764971D01*
X138696542Y-12764971D01*
X138839400Y-12836400D01*
X138910828Y-12907828D01*
X138982257Y-13050685D01*
X138982257Y-13122114D01*
X138910828Y-13264971D01*
X138839400Y-13336400D01*
X138696542Y-13407828D01*
X138410828Y-13407828D01*
X138267971Y-13479257D01*
X138196542Y-13550685D01*
X138125114Y-13693542D01*
X138125114Y-13979257D01*
X138196542Y-14122114D01*
X138267971Y-14193542D01*
X138410828Y-14264971D01*
X138696542Y-14264971D01*
X138839400Y-14193542D01*
X138910828Y-14122114D01*
X138982257Y-13979257D01*
X138982257Y-13693542D01*
X138910828Y-13550685D01*
X138839400Y-13479257D01*
X138696542Y-13407828D01*
X139910828Y-12764971D02*
X140053685Y-12764971D01*
X140196542Y-12836400D01*
X140267971Y-12907828D01*
X140339400Y-13050685D01*
X140410828Y-13336400D01*
X140410828Y-13693542D01*
X140339400Y-13979257D01*
X140267971Y-14122114D01*
X140196542Y-14193542D01*
X140053685Y-14264971D01*
X139910828Y-14264971D01*
X139767971Y-14193542D01*
X139696542Y-14122114D01*
X139625114Y-13979257D01*
X139553685Y-13693542D01*
X139553685Y-13336400D01*
X139625114Y-13050685D01*
X139696542Y-12907828D01*
X139767971Y-12836400D01*
X139910828Y-12764971D01*
X141839400Y-14264971D02*
X140982257Y-14264971D01*
X141410828Y-14264971D02*
X141410828Y-12764971D01*
X141267971Y-12979257D01*
X141125114Y-13122114D01*
X140982257Y-13193542D01*
D10*
D11*
X135719400Y-11193542D02*
X135576542Y-11264971D01*
X135290828Y-11264971D01*
X135147971Y-11193542D01*
X135076542Y-11122114D01*
X135005114Y-10979257D01*
X135005114Y-10550685D01*
X135076542Y-10407828D01*
X135147971Y-10336400D01*
X135290828Y-10264971D01*
X135576542Y-10264971D01*
X135719400Y-10336400D01*
X136576542Y-11264971D02*
X136433685Y-11193542D01*
X136362257Y-11122114D01*
X136290828Y-10979257D01*
X136290828Y-10550685D01*
X136362257Y-10407828D01*
X136433685Y-10336400D01*
X136576542Y-10264971D01*
X136790828Y-10264971D01*
X136933685Y-10336400D01*
X137005114Y-10407828D01*
X137076542Y-10550685D01*
X137076542Y-10979257D01*
X137005114Y-11122114D01*
X136933685Y-11193542D01*
X136790828Y-11264971D01*
X136576542Y-11264971D01*
X138362257Y-11264971D02*
X138362257Y-9764971D01*
X138362257Y-11193542D02*
X138219400Y-11264971D01*
X137933685Y-11264971D01*
X137790828Y-11193542D01*
X137719400Y-11122114D01*
X137647971Y-10979257D01*
X137647971Y-10550685D01*
X137719400Y-10407828D01*
X137790828Y-10336400D01*
X137933685Y-10264971D01*
X138219400Y-10264971D01*
X138362257Y-10336400D01*
X139647971Y-11193542D02*
X139505114Y-11264971D01*
X139219400Y-11264971D01*
X139076542Y-11193542D01*
X139005114Y-11050685D01*
X139005114Y-10479257D01*
X139076542Y-10336400D01*
X139219400Y-10264971D01*
X139505114Y-10264971D01*
X139647971Y-10336400D01*
X139719400Y-10479257D01*
X139719400Y-10622114D01*
X139005114Y-10764971D01*
X140362257Y-10264971D02*
X140362257Y-11264971D01*
X140362257Y-10407828D02*
X140433685Y-10336400D01*
X140576542Y-10264971D01*
X140790828Y-10264971D01*
X140933685Y-10336400D01*
X141005114Y-10479257D01*
X141005114Y-11264971D01*
X142362257Y-11264971D02*
X142362257Y-10479257D01*
X142290828Y-10336400D01*
X142147971Y-10264971D01*
X141862257Y-10264971D01*
X141719400Y-10336400D01*
X142362257Y-11193542D02*
X142219400Y-11264971D01*
X141862257Y-11264971D01*
X141719400Y-11193542D01*
X141647971Y-11050685D01*
X141647971Y-10907828D01*
X141719400Y-10764971D01*
X141862257Y-10693542D01*
X142219400Y-10693542D01*
X142362257Y-10622114D01*
X143076542Y-11264971D02*
X143076542Y-10264971D01*
X143076542Y-10407828D02*
X143147971Y-10336400D01*
X143290828Y-10264971D01*
X143505114Y-10264971D01*
X143647971Y-10336400D01*
X143719400Y-10479257D01*
X143719400Y-11264971D01*
X143719400Y-10479257D02*
X143790828Y-10336400D01*
X143933685Y-10264971D01*
X144147971Y-10264971D01*
X144290828Y-10336400D01*
X144362257Y-10479257D01*
X144362257Y-11264971D01*
X145647971Y-11193542D02*
X145505114Y-11264971D01*
X145219400Y-11264971D01*
X145076542Y-11193542D01*
X145005114Y-11050685D01*
X145005114Y-10479257D01*
X145076542Y-10336400D01*
X145219400Y-10264971D01*
X145505114Y-10264971D01*
X145647971Y-10336400D01*
X145719400Y-10479257D01*
X145719400Y-10622114D01*
X145005114Y-10764971D01*
X147505114Y-10264971D02*
X147505114Y-11764971D01*
X147505114Y-10336400D02*
X147647971Y-10264971D01*
X147933685Y-10264971D01*
X148076542Y-10336400D01*
X148147971Y-10407828D01*
X148219400Y-10550685D01*
X148219400Y-10979257D01*
X148147971Y-11122114D01*
X148076542Y-11193542D01*
X147933685Y-11264971D01*
X147647971Y-11264971D01*
X147505114Y-11193542D01*
X149505114Y-10264971D02*
X149505114Y-11264971D01*
X148862257Y-10264971D02*
X148862257Y-11050685D01*
X148933685Y-11193542D01*
X149076542Y-11264971D01*
X149290828Y-11264971D01*
X149433685Y-11193542D01*
X149505114Y-11122114D01*
X150219400Y-11264971D02*
X150219400Y-10264971D01*
X150219400Y-10550685D02*
X150290828Y-10407828D01*
X150362257Y-10336400D01*
X150505114Y-10264971D01*
X150647971Y-10264971D01*
X151147971Y-10264971D02*
X151147971Y-11764971D01*
X151147971Y-10336400D02*
X151290828Y-10264971D01*
X151576542Y-10264971D01*
X151719400Y-10336400D01*
X151790828Y-10407828D01*
X151862257Y-10550685D01*
X151862257Y-10979257D01*
X151790828Y-11122114D01*
X151719400Y-11193542D01*
X151576542Y-11264971D01*
X151290828Y-11264971D01*
X151147971Y-11193542D01*
X152719400Y-11264971D02*
X152576542Y-11193542D01*
X152505114Y-11050685D01*
X152505114Y-9764971D01*
X153862257Y-11193542D02*
X153719400Y-11264971D01*
X153433685Y-11264971D01*
X153290828Y-11193542D01*
X153219400Y-11050685D01*
X153219400Y-10479257D01*
X153290828Y-10336400D01*
X153433685Y-10264971D01*
X153719400Y-10264971D01*
X153862257Y-10336400D01*
X153933685Y-10479257D01*
X153933685Y-10622114D01*
X153219400Y-10764971D01*
X154433685Y-10264971D02*
X154719400Y-11264971D01*
X155005114Y-10550685D01*
X155290828Y-11264971D01*
X155576542Y-10264971D01*
X156147971Y-11264971D02*
X156147971Y-10264971D01*
X156147971Y-9764971D02*
X156076542Y-9836400D01*
X156147971Y-9907828D01*
X156219400Y-9836400D01*
X156147971Y-9764971D01*
X156147971Y-9907828D01*
X156719400Y-10264971D02*
X157505114Y-10264971D01*
X156719400Y-11264971D01*
X157505114Y-11264971D01*
X158719400Y-11264971D02*
X158719400Y-10479257D01*
X158647971Y-10336400D01*
X158505114Y-10264971D01*
X158219400Y-10264971D01*
X158076542Y-10336400D01*
X158719400Y-11193542D02*
X158576542Y-11264971D01*
X158219400Y-11264971D01*
X158076542Y-11193542D01*
X158005114Y-11050685D01*
X158005114Y-10907828D01*
X158076542Y-10764971D01*
X158219400Y-10693542D01*
X158576542Y-10693542D01*
X158719400Y-10622114D01*
X159433685Y-11264971D02*
X159433685Y-10264971D01*
X159433685Y-10550685D02*
X159505114Y-10407828D01*
X159576542Y-10336400D01*
X159719400Y-10264971D01*
X159862257Y-10264971D01*
X161005114Y-11264971D02*
X161005114Y-9764971D01*
X161005114Y-11193542D02*
X160862257Y-11264971D01*
X160576542Y-11264971D01*
X160433685Y-11193542D01*
X160362257Y-11122114D01*
X160290828Y-10979257D01*
X160290828Y-10550685D01*
X160362257Y-10407828D01*
X160433685Y-10336400D01*
X160576542Y-10264971D01*
X160862257Y-10264971D01*
X161005114Y-10336400D01*
D10*
D11*
X136005114Y-1550685D02*
X135933685Y-1479257D01*
X135790828Y-1407828D01*
X135647971Y-1407828D01*
X135505114Y-1479257D01*
X135433685Y-1550685D01*
X135362257Y-1693542D01*
X135362257Y-1836400D01*
X135433685Y-1979257D01*
X135505114Y-2050685D01*
X135647971Y-2122114D01*
X135790828Y-2122114D01*
X135933685Y-2050685D01*
X136005114Y-1979257D01*
X136005114Y-1407828D02*
X136005114Y-1979257D01*
X136076542Y-2050685D01*
X136147971Y-2050685D01*
X136290828Y-1979257D01*
X136362257Y-1836400D01*
X136362257Y-1479257D01*
X136219400Y-1264971D01*
X136005114Y-1122114D01*
X135719400Y-1050685D01*
X135433685Y-1122114D01*
X135219400Y-1264971D01*
X135076542Y-1479257D01*
X135005114Y-1764971D01*
X135076542Y-2050685D01*
X135219400Y-2264971D01*
X135433685Y-2407828D01*
X135719400Y-2479257D01*
X136005114Y-2407828D01*
X136219400Y-2264971D01*
X137005114Y-2264971D02*
X137005114Y-764971D01*
X137647971Y-2264971D02*
X137647971Y-1479257D01*
X137576542Y-1336400D01*
X137433685Y-1264971D01*
X137219400Y-1264971D01*
X137076542Y-1336400D01*
X137005114Y-1407828D01*
X139005114Y-2264971D02*
X139005114Y-1479257D01*
X138933685Y-1336400D01*
X138790828Y-1264971D01*
X138505114Y-1264971D01*
X138362257Y-1336400D01*
X139005114Y-2193542D02*
X138862257Y-2264971D01*
X138505114Y-2264971D01*
X138362257Y-2193542D01*
X138290828Y-2050685D01*
X138290828Y-1907828D01*
X138362257Y-1764971D01*
X138505114Y-1693542D01*
X138862257Y-1693542D01*
X139005114Y-1622114D01*
X139719400Y-2264971D02*
X139719400Y-1264971D01*
X139719400Y-1407828D02*
X139790828Y-1336400D01*
X139933685Y-1264971D01*
X140147971Y-1264971D01*
X140290828Y-1336400D01*
X140362257Y-1479257D01*
X140362257Y-2264971D01*
X140362257Y-1479257D02*
X140433685Y-1336400D01*
X140576542Y-1264971D01*
X140790828Y-1264971D01*
X140933685Y-1336400D01*
X141005114Y-1479257D01*
X141005114Y-2264971D01*
X141647971Y-2193542D02*
X141790828Y-2264971D01*
X142076542Y-2264971D01*
X142219400Y-2193542D01*
X142290828Y-2050685D01*
X142290828Y-1979257D01*
X142219400Y-1836400D01*
X142076542Y-1764971D01*
X141862257Y-1764971D01*
X141719400Y-1693542D01*
X141647971Y-1550685D01*
X141647971Y-1479257D01*
X141719400Y-1336400D01*
X141862257Y-1264971D01*
X142076542Y-1264971D01*
X142219400Y-1336400D01*
X142719400Y-1264971D02*
X143290828Y-1264971D01*
X142933685Y-764971D02*
X142933685Y-2050685D01*
X143005114Y-2193542D01*
X143147971Y-2264971D01*
X143290828Y-2264971D01*
X144362257Y-2193542D02*
X144219400Y-2264971D01*
X143933685Y-2264971D01*
X143790828Y-2193542D01*
X143719400Y-2050685D01*
X143719400Y-1479257D01*
X143790828Y-1336400D01*
X143933685Y-1264971D01*
X144219400Y-1264971D01*
X144362257Y-1336400D01*
X144433685Y-1479257D01*
X144433685Y-1622114D01*
X143719400Y-1764971D01*
X145076542Y-2264971D02*
X145076542Y-1264971D01*
X145076542Y-1550685D02*
X145147971Y-1407828D01*
X145219400Y-1336400D01*
X145362257Y-1264971D01*
X145505114Y-1264971D01*
X147790828Y-2264971D02*
X147790828Y-1479257D01*
X147719400Y-1336400D01*
X147576542Y-1264971D01*
X147290828Y-1264971D01*
X147147971Y-1336400D01*
X147790828Y-2193542D02*
X147647971Y-2264971D01*
X147290828Y-2264971D01*
X147147971Y-2193542D01*
X147076542Y-2050685D01*
X147076542Y-1907828D01*
X147147971Y-1764971D01*
X147290828Y-1693542D01*
X147647971Y-1693542D01*
X147790828Y-1622114D01*
X148505114Y-1264971D02*
X148505114Y-2264971D01*
X148505114Y-1407828D02*
X148576542Y-1336400D01*
X148719400Y-1264971D01*
X148933685Y-1264971D01*
X149076542Y-1336400D01*
X149147971Y-1479257D01*
X149147971Y-2264971D01*
X150505114Y-2264971D02*
X150505114Y-764971D01*
X150505114Y-2193542D02*
X150362257Y-2264971D01*
X150076542Y-2264971D01*
X149933685Y-2193542D01*
X149862257Y-2122114D01*
X149790828Y-1979257D01*
X149790828Y-1550685D01*
X149862257Y-1407828D01*
X149933685Y-1336400D01*
X150076542Y-1264971D01*
X150362257Y-1264971D01*
X150505114Y-1336400D01*
X152147971Y-1264971D02*
X152719400Y-1264971D01*
X152362257Y-764971D02*
X152362257Y-2050685D01*
X152433685Y-2193542D01*
X152576542Y-2264971D01*
X152719400Y-2264971D01*
X153219400Y-2264971D02*
X153219400Y-764971D01*
X153862257Y-2264971D02*
X153862257Y-1479257D01*
X153790828Y-1336400D01*
X153647971Y-1264971D01*
X153433685Y-1264971D01*
X153290828Y-1336400D01*
X153219400Y-1407828D01*
X155147971Y-2193542D02*
X155005114Y-2264971D01*
X154719400Y-2264971D01*
X154576542Y-2193542D01*
X154505114Y-2050685D01*
X154505114Y-1479257D01*
X154576542Y-1336400D01*
X154719400Y-1264971D01*
X155005114Y-1264971D01*
X155147971Y-1336400D01*
X155219400Y-1479257D01*
X155219400Y-1622114D01*
X154505114Y-1764971D01*
X157647971Y-2264971D02*
X157647971Y-764971D01*
X157647971Y-2193542D02*
X157505114Y-2264971D01*
X157219400Y-2264971D01*
X157076542Y-2193542D01*
X157005114Y-2122114D01*
X156933685Y-1979257D01*
X156933685Y-1550685D01*
X157005114Y-1407828D01*
X157076542Y-1336400D01*
X157219400Y-1264971D01*
X157505114Y-1264971D01*
X157647971Y-1336400D01*
X159005114Y-2193542D02*
X158862257Y-2264971D01*
X158576542Y-2264971D01*
X158433685Y-2193542D01*
X158362257Y-2122114D01*
X158290828Y-1979257D01*
X158290828Y-1550685D01*
X158362257Y-1407828D01*
X158433685Y-1336400D01*
X158576542Y-1264971D01*
X158862257Y-1264971D01*
X159005114Y-1336400D01*
X159862257Y-1407828D02*
X159719400Y-1336400D01*
X159647971Y-1264971D01*
X159576542Y-1122114D01*
X159576542Y-1050685D01*
X159647971Y-907828D01*
X159719400Y-836400D01*
X159862257Y-764971D01*
X160147971Y-764971D01*
X160290828Y-836400D01*
X160362257Y-907828D01*
X160433685Y-1050685D01*
X160433685Y-1122114D01*
X160362257Y-1264971D01*
X160290828Y-1336400D01*
X160147971Y-1407828D01*
X159862257Y-1407828D01*
X159719400Y-1479257D01*
X159647971Y-1550685D01*
X159576542Y-1693542D01*
X159576542Y-1979257D01*
X159647971Y-2122114D01*
X159719400Y-2193542D01*
X159862257Y-2264971D01*
X160147971Y-2264971D01*
X160290828Y-2193542D01*
X160362257Y-2122114D01*
X160433685Y-1979257D01*
X160433685Y-1693542D01*
X160362257Y-1550685D01*
X160290828Y-1479257D01*
X160147971Y-1407828D01*
X161362257Y-764971D02*
X161505114Y-764971D01*
X161647971Y-836400D01*
X161719400Y-907828D01*
X161790828Y-1050685D01*
X161862257Y-1336400D01*
X161862257Y-1693542D01*
X161790828Y-1979257D01*
X161719400Y-2122114D01*
X161647971Y-2193542D01*
X161505114Y-2264971D01*
X161362257Y-2264971D01*
X161219400Y-2193542D01*
X161147971Y-2122114D01*
X161076542Y-1979257D01*
X161005114Y-1693542D01*
X161005114Y-1336400D01*
X161076542Y-1050685D01*
X161147971Y-907828D01*
X161219400Y-836400D01*
X161362257Y-764971D01*
X163290828Y-2264971D02*
X162433685Y-2264971D01*
X162862257Y-2264971D02*
X162862257Y-764971D01*
X162719400Y-979257D01*
X162576542Y-1122114D01*
X162433685Y-1193542D01*
X165076542Y-2264971D02*
X165076542Y-764971D01*
X165076542Y-1336400D02*
X165219400Y-1264971D01*
X165505114Y-1264971D01*
X165647971Y-1336400D01*
X165719400Y-1407828D01*
X165790828Y-1550685D01*
X165790828Y-1979257D01*
X165719400Y-2122114D01*
X165647971Y-2193542D01*
X165505114Y-2264971D01*
X165219400Y-2264971D01*
X165076542Y-2193542D01*
X167076542Y-2264971D02*
X167076542Y-1479257D01*
X167005114Y-1336400D01*
X166862257Y-1264971D01*
X166576542Y-1264971D01*
X166433685Y-1336400D01*
X167076542Y-2193542D02*
X166933685Y-2264971D01*
X166576542Y-2264971D01*
X166433685Y-2193542D01*
X166362257Y-2050685D01*
X166362257Y-1907828D01*
X166433685Y-1764971D01*
X166576542Y-1693542D01*
X166933685Y-1693542D01*
X167076542Y-1622114D01*
X168433685Y-2264971D02*
X168433685Y-764971D01*
X168433685Y-2193542D02*
X168290828Y-2264971D01*
X168005114Y-2264971D01*
X167862257Y-2193542D01*
X167790828Y-2122114D01*
X167719400Y-1979257D01*
X167719400Y-1550685D01*
X167790828Y-1407828D01*
X167862257Y-1336400D01*
X168005114Y-1264971D01*
X168290828Y-1264971D01*
X168433685Y-1336400D01*
X169790828Y-1264971D02*
X169790828Y-2479257D01*
X169719400Y-2622114D01*
X169647971Y-2693542D01*
X169505114Y-2764971D01*
X169290828Y-2764971D01*
X169147971Y-2693542D01*
X169790828Y-2193542D02*
X169647971Y-2264971D01*
X169362257Y-2264971D01*
X169219400Y-2193542D01*
X169147971Y-2122114D01*
X169076542Y-1979257D01*
X169076542Y-1550685D01*
X169147971Y-1407828D01*
X169219400Y-1336400D01*
X169362257Y-1264971D01*
X169647971Y-1264971D01*
X169790828Y-1336400D01*
X171076542Y-2193542D02*
X170933685Y-2264971D01*
X170647971Y-2264971D01*
X170505114Y-2193542D01*
X170433685Y-2050685D01*
X170433685Y-1479257D01*
X170505114Y-1336400D01*
X170647971Y-1264971D01*
X170933685Y-1264971D01*
X171076542Y-1336400D01*
X171147971Y-1479257D01*
X171147971Y-1622114D01*
X170433685Y-1764971D01*
X172719400Y-1264971D02*
X173290828Y-1264971D01*
X172933685Y-764971D02*
X172933685Y-2050685D01*
X173005114Y-2193542D01*
X173147971Y-2264971D01*
X173290828Y-2264971D01*
X174362257Y-2193542D02*
X174219400Y-2264971D01*
X173933685Y-2264971D01*
X173790828Y-2193542D01*
X173719400Y-2050685D01*
X173719400Y-1479257D01*
X173790828Y-1336400D01*
X173933685Y-1264971D01*
X174219400Y-1264971D01*
X174362257Y-1336400D01*
X174433685Y-1479257D01*
X174433685Y-1622114D01*
X173719400Y-1764971D01*
X175719400Y-2264971D02*
X175719400Y-1479257D01*
X175647971Y-1336400D01*
X175505114Y-1264971D01*
X175219400Y-1264971D01*
X175076542Y-1336400D01*
X175719400Y-2193542D02*
X175576542Y-2264971D01*
X175219400Y-2264971D01*
X175076542Y-2193542D01*
X175005114Y-2050685D01*
X175005114Y-1907828D01*
X175076542Y-1764971D01*
X175219400Y-1693542D01*
X175576542Y-1693542D01*
X175719400Y-1622114D01*
X176433685Y-2264971D02*
X176433685Y-1264971D01*
X176433685Y-1407828D02*
X176505114Y-1336400D01*
X176647971Y-1264971D01*
X176862257Y-1264971D01*
X177005114Y-1336400D01*
X177076542Y-1479257D01*
X177076542Y-2264971D01*
X177076542Y-1479257D02*
X177147971Y-1336400D01*
X177290828Y-1264971D01*
X177505114Y-1264971D01*
X177647971Y-1336400D01*
X177719400Y-1479257D01*
X177719400Y-2264971D01*
D10*
D11*
X153644400Y-25086400D02*
X153644400Y-28086400D01*
D10*
D11*
X217644400Y-25086400D02*
X217644400Y-31586400D01*
X67990000Y119470000D02*
X68280000Y119790000D01*
X67400000Y118940000D02*
X67990000Y119470000D01*
X66830000Y118530000D02*
X67400000Y118940000D01*
X66150000Y118160000D02*
X66830000Y118530000D01*
X65650000Y117740000D02*
X66150000Y118160000D01*
X65180000Y117250000D02*
X65650000Y117740000D01*
X64680000Y116630000D02*
X65180000Y117250000D01*
X64170000Y116030000D02*
X64680000Y116630000D01*
X63860000Y115660000D02*
X64170000Y116030000D01*
X64100000Y115220000D02*
X63860000Y115660000D01*
X64280000Y114840000D02*
X64100000Y115220000D01*
X64550000Y114200000D02*
X64280000Y114840000D01*
X64710000Y113500000D02*
X64550000Y114200000D01*
X64780000Y113080000D02*
X64710000Y113500000D01*
X64790000Y112440000D02*
X64780000Y113080000D01*
X64770000Y112180000D02*
X64790000Y112440000D01*
X64750000Y112040000D02*
X64770000Y112180000D01*
X64900000Y111920000D02*
X64750000Y112040000D01*
X65280000Y111660000D02*
X64900000Y111920000D01*
X65830000Y111210000D02*
X65280000Y111660000D01*
X67210000Y110200000D02*
X65830000Y111210000D01*
X68270000Y109380000D02*
X67210000Y110200000D01*
X69300000Y108600000D02*
X68270000Y109380000D01*
X71240000Y106990000D02*
X69300000Y108600000D01*
X72420000Y106050000D02*
X71240000Y106990000D01*
X74070000Y105260000D02*
X72420000Y106050000D01*
X75760000Y104920000D02*
X74070000Y105260000D01*
X77640000Y104630000D02*
X75760000Y104920000D01*
X79650000Y104510000D02*
X77640000Y104630000D01*
X82120000Y104480000D02*
X79650000Y104510000D01*
X83910000Y104440000D02*
X82120000Y104480000D01*
X85410000Y104140000D02*
X83910000Y104440000D01*
X86770000Y103650000D02*
X85410000Y104140000D01*
X88180000Y102920000D02*
X86770000Y103650000D01*
X89260000Y102040000D02*
X88180000Y102920000D01*
X90560000Y100600000D02*
X89260000Y102040000D01*
X91540000Y98980000D02*
X90560000Y100600000D01*
X92060000Y97640000D02*
X91540000Y98980000D01*
X92400000Y95870000D02*
X92060000Y97640000D01*
X92480000Y93390000D02*
X92400000Y95870000D01*
X92430000Y12230000D02*
X92480000Y93390000D01*
X92350000Y10960000D02*
X92430000Y12230000D01*
X92090000Y9570000D02*
X92350000Y10960000D01*
X91490000Y7850000D02*
X92090000Y9570000D01*
X90840000Y6470000D02*
X91490000Y7850000D01*
X90020000Y5250000D02*
X90840000Y6470000D01*
X89030000Y4020000D02*
X90020000Y5250000D01*
X88020000Y3040000D02*
X89030000Y4020000D01*
X86630000Y2030000D02*
X88020000Y3040000D01*
X84980000Y1130000D02*
X86630000Y2030000D01*
X83060000Y440000D02*
X84980000Y1130000D01*
X81270000Y70000D02*
X83060000Y440000D01*
X79870000Y-10000D02*
X81270000Y70000D01*
X12340000Y-30000D02*
X79870000Y-10000D01*
X11040000Y100000D02*
X12340000Y-30000D01*
X9370000Y440000D02*
X11040000Y100000D01*
X7710000Y1070000D02*
X9370000Y440000D01*
X6160000Y1830000D02*
X7710000Y1070000D01*
X4550000Y2990000D02*
X6160000Y1830000D01*
X3250000Y4250000D02*
X4550000Y2990000D01*
X2210000Y5600000D02*
X3250000Y4250000D01*
X1440000Y6840000D02*
X2210000Y5600000D01*
X850000Y8140000D02*
X1440000Y6840000D01*
X360000Y9670000D02*
X850000Y8140000D01*
X80000Y11120000D02*
X360000Y9670000D01*
X0Y12070000D02*
X80000Y11120000D01*
X-20000Y95410000D02*
X0Y12070000D01*
X180000Y96810000D02*
X-20000Y95410000D01*
X460000Y97910000D02*
X180000Y96810000D01*
X790000Y98710000D02*
X460000Y97910000D01*
X1240000Y99650000D02*
X790000Y98710000D01*
X1720000Y100390000D02*
X1240000Y99650000D01*
X2350000Y101190000D02*
X1720000Y100390000D01*
X2910000Y101790000D02*
X2350000Y101190000D01*
X3680000Y102440000D02*
X2910000Y101790000D01*
X4660000Y103120000D02*
X3680000Y102440000D01*
X5510000Y103570000D02*
X4660000Y103120000D01*
X6600000Y104010000D02*
X5510000Y103570000D01*
X7630000Y104260000D02*
X6600000Y104010000D01*
X8610000Y104430000D02*
X7630000Y104260000D01*
X9330000Y104470000D02*
X8610000Y104430000D01*
X10490000Y104480000D02*
X9330000Y104470000D01*
X11480000Y104580000D02*
X10490000Y104480000D01*
X12370000Y104680000D02*
X11480000Y104580000D01*
X13140000Y104900000D02*
X12370000Y104680000D01*
X13820000Y105100000D02*
X13140000Y104900000D01*
X14370000Y105360000D02*
X13820000Y105100000D01*
X15230000Y105920000D02*
X14370000Y105360000D01*
X16140000Y106690000D02*
X15230000Y105920000D01*
X17340000Y107860000D02*
X16140000Y106690000D01*
X18110000Y108480000D02*
X17340000Y107860000D01*
X18980000Y109160000D02*
X18110000Y108480000D01*
X19600000Y109600000D02*
X18980000Y109160000D01*
X20710000Y110330000D02*
X19600000Y109600000D01*
X21820000Y110950000D02*
X20710000Y110330000D01*
X22140000Y111120000D02*
X21820000Y110950000D01*
X21920000Y111680000D02*
X22140000Y111120000D01*
X21770000Y112120000D02*
X21920000Y111680000D01*
X21610000Y112810000D02*
X21770000Y112120000D01*
X21510000Y113440000D02*
X21610000Y112810000D01*
X21480000Y113890000D02*
X21510000Y113440000D01*
X21520000Y114680000D02*
X21480000Y113890000D01*
X21610000Y115260000D02*
X21520000Y114680000D01*
X21770000Y115900000D02*
X21610000Y115260000D01*
X22020000Y116480000D02*
X21770000Y115900000D01*
X23180000Y119550000D02*
X22020000Y116480000D01*
X24020000Y121380000D02*
X23180000Y119550000D01*
X26100000Y125780000D02*
X24020000Y121380000D01*
X29580000Y134020000D02*
X26100000Y125780000D01*
X32980000Y142070000D02*
X29580000Y134020000D01*
X33980000Y144000000D02*
X32980000Y142070000D01*
X35470000Y146640000D02*
X33980000Y144000000D01*
X36230000Y147700000D02*
X35470000Y146640000D01*
X36780000Y148330000D02*
X36230000Y147700000D01*
X37270000Y148730000D02*
X36780000Y148330000D01*
X37790000Y148990000D02*
X37270000Y148730000D01*
X38460000Y149220000D02*
X37790000Y148990000D01*
X39610000Y149660000D02*
X38460000Y149220000D01*
X40920000Y150150000D02*
X39610000Y149660000D01*
X42370000Y150570000D02*
X40920000Y150150000D01*
X43850000Y150890000D02*
X42370000Y150570000D01*
X45370000Y150910000D02*
X43850000Y150890000D01*
X46740000Y150920000D02*
X45370000Y150910000D01*
X47450000Y150820000D02*
X46740000Y150920000D01*
X48570000Y150520000D02*
X47450000Y150820000D01*
X49890000Y150100000D02*
X48570000Y150520000D01*
X51230000Y149590000D02*
X49890000Y150100000D01*
X52410000Y149060000D02*
X51230000Y149590000D01*
X54280000Y148130000D02*
X52410000Y149060000D01*
X55740000Y147410000D02*
X54280000Y148130000D01*
X56770000Y146900000D02*
X55740000Y147410000D01*
X57680000Y146350000D02*
X56770000Y146900000D01*
X58340000Y145780000D02*
X57680000Y146350000D01*
X59210000Y144820000D02*
X58340000Y145780000D01*
X60880000Y142620000D02*
X59210000Y144820000D01*
X63560000Y138520000D02*
X60880000Y142620000D01*
X64520000Y136830000D02*
X63560000Y138520000D01*
X65680000Y134470000D02*
X64520000Y136830000D01*
X67910000Y130210000D02*
X65680000Y134470000D01*
X68380000Y129270000D02*
X67910000Y130210000D01*
X68810000Y128450000D02*
X68380000Y129270000D01*
X69140000Y127680000D02*
X68810000Y128450000D01*
X69420000Y126970000D02*
X69140000Y127680000D01*
X69590000Y126470000D02*
X69420000Y126970000D01*
X69730000Y125830000D02*
X69590000Y126470000D01*
X69800000Y125290000D02*
X69730000Y125830000D01*
X69850000Y124750000D02*
X69800000Y125290000D01*
X69880000Y124310000D02*
X69850000Y124750000D01*
X69880000Y123910000D02*
X69880000Y124310000D01*
X69850000Y123550000D02*
X69880000Y123910000D01*
X69800000Y123070000D02*
X69850000Y123550000D01*
X69700000Y122530000D02*
X69800000Y123070000D01*
X69590000Y122080000D02*
X69700000Y122530000D01*
X69440000Y121670000D02*
X69590000Y122080000D01*
X69270000Y121260000D02*
X69440000Y121670000D01*
X69120000Y120980000D02*
X69270000Y121260000D01*
X68890000Y120600000D02*
X69120000Y120980000D01*
X68660000Y120280000D02*
X68890000Y120600000D01*
X68490000Y120050000D02*
X68660000Y120280000D01*
X68280000Y119790000D02*
X68490000Y120050000D01*
X7330000Y98720000D02*
G75*
G03X7330000Y98720000I-1600000J0D01*
G01*
X89120000Y98720000D02*
G75*
G03X89120000Y98720000I-1600000J0D01*
G01*
X86100000Y6500000D02*
G75*
G03X86100000Y6500000I-1600000J0D01*
G01*
X9600000Y6500000D02*
G75*
G03X9600000Y6500000I-1600000J0D01*
G01*
M02*
