M48
; DRILL file {KiCad (5.1.5)-3} date 1/11/2021 12:28:32 AM
; FORMAT={-:-/ absolute / metric / decimal}
; #@! TF.CreationDate,2021-01-11T00:28:32-07:00
; #@! TF.GenerationSoftware,Kicad,Pcbnew,(5.1.5)-3
FMAT,2
METRIC
T1C0.300
T2C0.400
T3C0.600
T4C0.650
T5C1.000
T6C0.750
T7C0.900
T8C0.986
T9C0.988
T10C1.000
T11C1.050
T12C1.270
T13C5.000
%
G90
G05
T1
X24.68Y102.4
X24.68Y101.367
X24.68Y100.333
X24.68Y99.3
X25.713Y102.4
X25.713Y101.367
X25.713Y100.333
X25.713Y99.3
X26.747Y102.4
X26.747Y101.367
X26.747Y100.333
X26.747Y99.3
X27.78Y102.4
X27.78Y101.367
X27.78Y100.333
X27.78Y99.3
T2
X1.98Y51.86
X2.25Y59.657
X4.2Y12.775
X4.84Y60.5
X5.075Y19.4
X5.155Y62.135
X6.0Y16.3
X7.31Y9.25
X7.62Y60.48
X7.8Y16.25
X8.025Y14.85
X8.94Y12.47
X9.23Y26.32
X9.995Y72.784
X9.995Y65.776
X10.0Y79.748
X10.02Y86.744
X10.59Y59.34
X11.1Y49.25
X11.1Y44.87
X11.4Y60.17
X11.66Y13.99
X12.02Y40.65
X12.04Y68.68
X12.05Y17.65
X12.18Y60.91
X12.86Y30.91
X13.69Y68.68
X14.21Y96.04
X15.28Y37.53
X15.3Y12.84
X15.52Y86.74
X15.72Y30.91
X15.88Y36.19
X16.28Y85.88
X16.75Y35.35
X16.96Y59.41
X17.17Y85.06
X17.75Y34.59
X18.02Y60.12
X18.04Y84.26
X18.52Y56.98
X18.82Y33.57
X18.83Y49.7
X18.86Y92.16
X18.969Y39.776
X19.51Y97.7
X19.67Y64.6
X19.83Y50.34
X20.57Y51.04
X21.12Y70.26
X21.28Y51.68
X21.28Y49.03
X21.49Y77.32
X22.16Y102.43
X22.33Y82.63
X22.63Y107.57
X22.74Y97.7
X22.85Y49.04
X23.401Y21.994
X23.44Y106.58
X23.52Y92.16
X23.546Y15.268
X23.6Y52.36
X23.83Y108.33
X24.13Y82.64
X24.52Y47.09
X24.78Y69.41
X24.99Y92.17
X25.306Y21.974
X25.37Y46.52
X25.408Y15.288
X25.62Y70.41
X25.71Y111.95
X26.012Y39.741
X26.04Y105.89
X26.09Y96.02
X26.22Y36.96
X26.39Y55.91
X26.528Y28.47
X26.58Y71.25
X27.3Y83.24
X27.62Y106.07
X27.62Y71.97
X27.75Y84.11
X28.03Y97.04
X28.17Y28.47
X28.27Y51.03
X28.28Y49.04
X28.37Y56.95
X28.4Y108.3
X28.96Y60.1
X29.06Y107.56
X29.16Y62.96
X29.21Y36.08
X30.16Y63.58
X30.58Y60.53
X31.31Y124.14
X31.86Y28.47
X31.88Y35.34
X32.02Y97.4
X32.99Y39.748
X33.51Y57.56
X33.51Y56.52
X34.22Y68.43
X34.5Y28.47
X34.56Y34.59
X34.57Y124.31
X35.01Y69.63
X35.29Y50.35
X35.29Y49.03
X35.33Y113.93
X35.59Y70.42
X35.82Y27.47
X35.83Y41.69
X35.83Y38.88
X36.23Y71.26
X37.02Y71.97
X37.09Y94.89
X37.24Y28.47
X37.7Y94.1
X38.31Y93.2
X38.75Y11.26
X38.77Y10.3
X38.98Y92.41
X39.36Y33.58
X39.39Y144.58
X39.42Y55.92
X39.62Y91.03
X39.81Y84.85
X39.92Y10.21
X39.982Y39.761
X40.52Y57.06
X40.6Y90.69
X40.84Y84.83
X40.92Y114.78
X40.95Y61.36
X41.15Y97.13
X41.17Y104.3
X41.18Y142.39
X41.36Y83.24
X41.78Y62.08
X41.79Y57.15
X42.37Y93.74
X42.87Y112.75
X43.21Y55.95
X43.25Y68.15
X43.25Y66.14
X43.41Y84.09
X43.714Y95.244
X44.12Y82.77
X44.15Y73.81
X46.25Y96.04
X46.27Y59.42
X46.86Y39.761
X47.62Y81.66
X47.62Y73.76
X47.66Y66.4
X48.27Y29.43
X48.79Y95.2
X49.17Y31.29
X49.28Y51.68
X49.28Y49.01
X50.22Y94.86
X50.44Y142.41
X50.858Y49.01
X50.86Y52.36
X51.31Y97.15
X51.35Y104.24
X51.75Y82.77
X51.83Y55.39
X52.783Y36.963
X53.085Y50.375
X53.11Y56.53
X53.17Y116.9
X53.49Y134.19
X53.5Y139.92
X53.95Y39.759
X54.19Y82.77
X54.29Y55.9
X54.3Y49.64
X54.63Y134.18
X54.64Y139.25
X54.79Y28.45
X54.88Y96.41
X55.02Y115.49
X55.41Y64.18
X55.41Y58.7
X55.69Y98.25
X56.27Y51.03
X56.29Y49.01
X56.66Y28.45
X56.81Y101.43
X57.27Y124.72
X57.619Y36.081
X58.83Y53.84
X59.12Y126.55
X59.12Y98.24
X59.24Y127.94
X59.24Y58.68
X59.32Y122.99
X59.37Y124.17
X59.74Y96.39
X59.983Y35.343
X60.13Y116.15
X60.14Y111.94
X60.43Y28.45
X60.833Y39.781
X61.19Y57.7
X61.53Y108.0
X61.74Y25.04
X62.47Y113.19
X62.47Y108.71
X63.04Y96.37
X63.22Y109.47
X63.25Y28.45
X63.267Y34.583
X63.27Y50.39
X63.27Y49.05
X63.44Y124.1
X63.45Y125.17
X63.81Y103.19
X64.68Y95.12
X65.32Y96.38
X65.35Y53.11
X65.93Y97.77
X66.05Y33.58
X66.091Y28.45
X67.18Y57.17
X67.767Y39.754
X67.79Y67.45
X68.76Y53.11
X69.09Y101.61
X69.78Y96.38
X74.05Y52.77
X74.4Y50.65
X74.48Y96.36
X74.52Y67.46
X74.61Y41.11
X74.61Y21.9
X74.62Y38.25
X75.31Y98.66
X75.41Y45.05
X76.43Y52.09
X76.65Y59.72
X77.0Y65.32
X77.0Y62.87
X77.4Y53.39
X77.5Y95.93
X77.82Y14.63
X77.91Y50.11
X78.21Y59.72
X78.27Y38.21
X78.27Y33.79
X78.27Y25.31
X78.35Y57.84
X78.359Y86.639
X79.08Y23.12
X79.53Y24.42
X79.95Y91.77
X80.02Y42.11
X80.07Y46.34
X80.53Y92.63
X80.87Y45.5
X80.98Y42.79
X81.13Y93.48
X81.65Y44.88
X81.79Y94.34
X82.04Y42.97
X82.42Y95.23
X82.72Y44.22
X83.06Y98.14
X83.06Y97.16
X83.06Y96.19
X83.07Y99.14
X83.61Y59.75
X83.69Y49.82
X83.73Y42.64
X84.79Y42.67
X85.74Y45.62
X85.85Y42.67
X86.04Y50.61
X86.16Y92.3
X86.2Y52.6
X86.24Y32.09
X86.25Y34.71
X86.28Y37.34
X86.35Y91.19
X86.74Y49.91
X86.86Y69.79
X86.87Y83.85
X86.92Y76.8
X87.01Y30.2
X87.26Y52.28
X88.2Y52.52
X88.22Y79.81
X88.22Y72.73
X88.22Y65.79
X88.82Y51.57
X89.73Y90.88
X89.78Y21.43
X89.789Y23.769
X89.98Y88.35
X90.24Y62.63
T4
X86.853Y27.579
X86.853Y25.039
X86.853Y22.499
X87.053Y26.309
X87.053Y23.769
X88.123Y27.579
X88.123Y25.039
X88.123Y22.499
X88.323Y26.309
X88.323Y23.769
T5
X34.849Y6.198
X34.849Y3.658
X37.389Y6.198
X37.389Y3.658
X39.929Y6.198
X39.929Y3.658
X42.469Y6.198
X42.469Y3.658
X45.009Y6.198
X45.009Y3.658
X47.549Y6.198
X47.549Y3.658
X50.089Y6.198
X50.089Y3.658
X52.629Y6.198
X52.629Y3.658
X55.169Y6.198
X55.169Y3.658
X57.709Y6.198
X57.709Y3.658
X43.383Y145.923
X43.383Y143.383
X45.923Y145.923
X45.923Y143.383
X48.463Y145.923
X48.463Y143.383
T6
X58.981Y24.966
X30.584Y24.966
T7
X3.85Y30.44
X3.85Y23.64
T8
X80.414Y28.23
X82.446Y28.23
T9
X81.43Y20.61
T11
X61.669Y22.278
X33.271Y22.278
T12
X41.727Y148.648
T3
G00X61.54Y128.92
M15
G01X60.54Y128.92
M16
G05
G00X61.54Y120.28
M15
G01X60.54Y120.28
M16
G05
G00X67.15Y128.92
M15
G01X65.65Y128.92
M16
G05
G00X67.15Y120.28
M15
G01X65.65Y120.28
M16
G05
T10
G00X43.921Y139.334
M15
G01X47.921Y139.334
M16
G05
T13
G00X60.18Y85.066
M15
G01X60.18Y63.066
M16
G05
T0
M30
