G04 #@! TF.GenerationSoftware,KiCad,Pcbnew,(5.1.5)-3*
G04 #@! TF.CreationDate,2021-01-15T00:49:49-07:00*
G04 #@! TF.ProjectId,purplewizard,70757270-6c65-4776-997a-6172642e6b69,0.1*
G04 #@! TF.SameCoordinates,PX613b810PYa454c00*
G04 #@! TF.FileFunction,Other,Fab,Top*
%FSLAX46Y46*%
G04 Gerber Fmt 4.6, Leading zero omitted, Abs format (unit mm)*
G04 Created by KiCad (PCBNEW (5.1.5)-3) date 2021-01-15 00:49:49*
%MOMM*%
%LPD*%
G04 APERTURE LIST*
%ADD10C,0.150000*%
%ADD11C,0.100000*%
%ADD12C,0.120000*%
%ADD13C,0.040000*%
%ADD14C,0.060000*%
G04 APERTURE END LIST*
D10*
X21570000Y47480000D02*
X21570000Y45840000D01*
X21570000Y45840000D02*
X22470000Y46690000D01*
X22470000Y46700000D02*
X21570000Y47480000D01*
X21560000Y46700000D02*
X21200000Y46700000D01*
X22460000Y46700000D02*
X22870000Y46700000D01*
X22460000Y47490000D02*
X22460000Y45850000D01*
X29480000Y47530000D02*
X29480000Y45890000D01*
X28580000Y46740000D02*
X28220000Y46740000D01*
X28590000Y45880000D02*
X29490000Y46730000D01*
X29490000Y46740000D02*
X28590000Y47520000D01*
X28590000Y47520000D02*
X28590000Y45880000D01*
X29480000Y46740000D02*
X29890000Y46740000D01*
X36510000Y46740000D02*
X36920000Y46740000D01*
X36520000Y46740000D02*
X35620000Y47520000D01*
X35620000Y47520000D02*
X35620000Y45880000D01*
X35620000Y45880000D02*
X36520000Y46730000D01*
X36510000Y47530000D02*
X36510000Y45890000D01*
X35610000Y46740000D02*
X35250000Y46740000D01*
X42560000Y47520000D02*
X42560000Y45880000D01*
X42550000Y46740000D02*
X42190000Y46740000D01*
X42560000Y45880000D02*
X43460000Y46730000D01*
X43450000Y47530000D02*
X43450000Y45890000D01*
X43450000Y46740000D02*
X43860000Y46740000D01*
X43460000Y46740000D02*
X42560000Y47520000D01*
X50420000Y46730000D02*
X50830000Y46730000D01*
X49530000Y45870000D02*
X50430000Y46720000D01*
X50430000Y46730000D02*
X49530000Y47510000D01*
X49520000Y46730000D02*
X49160000Y46730000D01*
X50420000Y47520000D02*
X50420000Y45880000D01*
X49530000Y47510000D02*
X49530000Y45870000D01*
X57510000Y46700000D02*
X57920000Y46700000D01*
X56620000Y45840000D02*
X57520000Y46690000D01*
X57520000Y46700000D02*
X56620000Y47480000D01*
X56610000Y46700000D02*
X56250000Y46700000D01*
X57510000Y47490000D02*
X57510000Y45850000D01*
X56620000Y47480000D02*
X56620000Y45840000D01*
X64470000Y46580000D02*
X63570000Y47360000D01*
X63560000Y46580000D02*
X63200000Y46580000D01*
X64460000Y46580000D02*
X64870000Y46580000D01*
X64460000Y47370000D02*
X64460000Y45730000D01*
X63570000Y47360000D02*
X63570000Y45720000D01*
X63570000Y45720000D02*
X64470000Y46570000D01*
X70580000Y46620000D02*
X70220000Y46620000D01*
X71480000Y46620000D02*
X71890000Y46620000D01*
X71480000Y47410000D02*
X71480000Y45770000D01*
X71490000Y46620000D02*
X70590000Y47400000D01*
X70590000Y45760000D02*
X71490000Y46610000D01*
X70590000Y47400000D02*
X70590000Y45760000D01*
X78600000Y61140000D02*
X79500000Y61990000D01*
X79490000Y62000000D02*
X79900000Y62000000D01*
X79490000Y62790000D02*
X79490000Y61150000D01*
X78600000Y62780000D02*
X78600000Y61140000D01*
X79500000Y62000000D02*
X78600000Y62780000D01*
X78590000Y62000000D02*
X78230000Y62000000D01*
X78630000Y68190000D02*
X79530000Y69040000D01*
X79520000Y69840000D02*
X79520000Y68200000D01*
X78620000Y69050000D02*
X78260000Y69050000D01*
X78630000Y69830000D02*
X78630000Y68190000D01*
X79520000Y69050000D02*
X79930000Y69050000D01*
X79530000Y69050000D02*
X78630000Y69830000D01*
X78610000Y75230000D02*
X79510000Y76080000D01*
X79500000Y76090000D02*
X79910000Y76090000D01*
X79500000Y76880000D02*
X79500000Y75240000D01*
X78600000Y76090000D02*
X78240000Y76090000D01*
X79510000Y76090000D02*
X78610000Y76870000D01*
X78610000Y76870000D02*
X78610000Y75230000D01*
X78620000Y83960000D02*
X78620000Y82320000D01*
X78620000Y82320000D02*
X79520000Y83170000D01*
X79520000Y83180000D02*
X78620000Y83960000D01*
X79510000Y83180000D02*
X79920000Y83180000D01*
X79510000Y83970000D02*
X79510000Y82330000D01*
X78610000Y83180000D02*
X78250000Y83180000D01*
X62570000Y131610000D02*
X62570000Y133250000D01*
X62570000Y132400000D02*
X62160000Y132400000D01*
X62560000Y132400000D02*
X63460000Y131620000D01*
X63460000Y131620000D02*
X63460000Y133260000D01*
X63460000Y133260000D02*
X62560000Y132410000D01*
X63470000Y132400000D02*
X63830000Y132400000D01*
X53940000Y133860000D02*
X53940000Y135500000D01*
X54830000Y135510000D02*
X53930000Y134660000D01*
X53930000Y134650000D02*
X54830000Y133870000D01*
X53940000Y134650000D02*
X53530000Y134650000D01*
X54840000Y134650000D02*
X55200000Y134650000D01*
X54830000Y133870000D02*
X54830000Y135510000D01*
X31690000Y131750000D02*
X31690000Y133390000D01*
X32590000Y132540000D02*
X32950000Y132540000D01*
X32580000Y133400000D02*
X31680000Y132550000D01*
X31680000Y132540000D02*
X32580000Y131760000D01*
X32580000Y131760000D02*
X32580000Y133400000D01*
X31690000Y132540000D02*
X31280000Y132540000D01*
X14220000Y64760000D02*
X14580000Y64760000D01*
X13320000Y63970000D02*
X13320000Y65610000D01*
X13310000Y64760000D02*
X14210000Y63980000D01*
X14210000Y65620000D02*
X13310000Y64770000D01*
X13320000Y64760000D02*
X12910000Y64760000D01*
X14210000Y63980000D02*
X14210000Y65620000D01*
X14170000Y71810000D02*
X14530000Y71810000D01*
X13260000Y71810000D02*
X14160000Y71030000D01*
X13270000Y71810000D02*
X12860000Y71810000D01*
X13270000Y71020000D02*
X13270000Y72660000D01*
X14160000Y72670000D02*
X13260000Y71820000D01*
X14160000Y71030000D02*
X14160000Y72670000D01*
X13230000Y78050000D02*
X13230000Y79690000D01*
X14130000Y78840000D02*
X14490000Y78840000D01*
X14120000Y79700000D02*
X13220000Y78850000D01*
X13220000Y78840000D02*
X14120000Y78060000D01*
X14120000Y78060000D02*
X14120000Y79700000D01*
X13230000Y78840000D02*
X12820000Y78840000D01*
X13230000Y85820000D02*
X12820000Y85820000D01*
X13230000Y85030000D02*
X13230000Y86670000D01*
X14120000Y85040000D02*
X14120000Y86680000D01*
X14130000Y85820000D02*
X14490000Y85820000D01*
X14120000Y86680000D02*
X13220000Y85830000D01*
X13220000Y85820000D02*
X14120000Y85040000D01*
D11*
X6730000Y93340000D02*
G75*
G03X6730000Y93340000I-1000000J0D01*
G01*
X80410000Y6550000D02*
G75*
G03X80410000Y6550000I-1000000J0D01*
G01*
D12*
X16380400Y96066400D02*
X16380400Y52066400D01*
X76380400Y52066400D02*
X76380400Y96066400D01*
X16380400Y52066400D02*
X76380400Y52066400D01*
X16380400Y96066400D02*
X76380400Y96066400D01*
D11*
X14516000Y76909134D02*
X14516000Y77709134D01*
X12916000Y76909134D02*
X14516000Y76909134D01*
X12916000Y77409134D02*
X12916000Y76909134D01*
X13216000Y77709134D02*
X12916000Y77409134D01*
X14516000Y77709134D02*
X13216000Y77709134D01*
X14516000Y69864868D02*
X14516000Y70664868D01*
X12916000Y69864868D02*
X14516000Y69864868D01*
X12916000Y70364868D02*
X12916000Y69864868D01*
X13216000Y70664868D02*
X12916000Y70364868D01*
X14516000Y70664868D02*
X13216000Y70664868D01*
X78346400Y70961200D02*
X78346400Y70161200D01*
X79946400Y70961200D02*
X78346400Y70961200D01*
X79946400Y70461200D02*
X79946400Y70961200D01*
X79646400Y70161200D02*
X79946400Y70461200D01*
X78346400Y70161200D02*
X79646400Y70161200D01*
X35271628Y48558400D02*
X35271628Y47758400D01*
X36871628Y48558400D02*
X35271628Y48558400D01*
X36871628Y48058400D02*
X36871628Y48558400D01*
X36571628Y47758400D02*
X36871628Y48058400D01*
X35271628Y47758400D02*
X36571628Y47758400D01*
X32970000Y130570000D02*
X32970000Y131370000D01*
X31370000Y130570000D02*
X32970000Y130570000D01*
X31370000Y131070000D02*
X31370000Y130570000D01*
X31670000Y131370000D02*
X31370000Y131070000D01*
X32970000Y131370000D02*
X31670000Y131370000D01*
X14490600Y62820600D02*
X14490600Y63620600D01*
X12890600Y62820600D02*
X14490600Y62820600D01*
X12890600Y63320600D02*
X12890600Y62820600D01*
X13190600Y63620600D02*
X12890600Y63320600D01*
X14490600Y63620600D02*
X13190600Y63620600D01*
X63760000Y130510000D02*
X63760000Y131310000D01*
X62160000Y130510000D02*
X63760000Y130510000D01*
X62160000Y131010000D02*
X62160000Y130510000D01*
X62460000Y131310000D02*
X62160000Y131010000D01*
X63760000Y131310000D02*
X62460000Y131310000D01*
X14516000Y83953400D02*
X14516000Y84753400D01*
X12916000Y83953400D02*
X14516000Y83953400D01*
X12916000Y84453400D02*
X12916000Y83953400D01*
X13216000Y84753400D02*
X12916000Y84453400D01*
X14516000Y84753400D02*
X13216000Y84753400D01*
X28272114Y48558400D02*
X28272114Y47758400D01*
X29872114Y48558400D02*
X28272114Y48558400D01*
X29872114Y48058400D02*
X29872114Y48558400D01*
X29572114Y47758400D02*
X29872114Y48058400D01*
X28272114Y47758400D02*
X29572114Y47758400D01*
X63269684Y48558400D02*
X63269684Y47758400D01*
X64869684Y48558400D02*
X63269684Y48558400D01*
X64869684Y48058400D02*
X64869684Y48558400D01*
X64569684Y47758400D02*
X64869684Y48058400D01*
X63269684Y47758400D02*
X64569684Y47758400D01*
X49270656Y48558400D02*
X49270656Y47758400D01*
X50870656Y48558400D02*
X49270656Y48558400D01*
X50870656Y48058400D02*
X50870656Y48558400D01*
X50570656Y47758400D02*
X50870656Y48058400D01*
X49270656Y47758400D02*
X50570656Y47758400D01*
X21272600Y48558400D02*
X21272600Y47758400D01*
X22872600Y48558400D02*
X21272600Y48558400D01*
X22872600Y48058400D02*
X22872600Y48558400D01*
X22572600Y47758400D02*
X22872600Y48058400D01*
X21272600Y47758400D02*
X22572600Y47758400D01*
X78346400Y78022400D02*
X78346400Y77222400D01*
X79946400Y78022400D02*
X78346400Y78022400D01*
X79946400Y77522400D02*
X79946400Y78022400D01*
X79646400Y77222400D02*
X79946400Y77522400D01*
X78346400Y77222400D02*
X79646400Y77222400D01*
X56270170Y48558400D02*
X56270170Y47758400D01*
X57870170Y48558400D02*
X56270170Y48558400D01*
X57870170Y48058400D02*
X57870170Y48558400D01*
X57570170Y47758400D02*
X57870170Y48058400D01*
X56270170Y47758400D02*
X57570170Y47758400D01*
X78346400Y85083600D02*
X78346400Y84283600D01*
X79946400Y85083600D02*
X78346400Y85083600D01*
X79946400Y84583600D02*
X79946400Y85083600D01*
X79646400Y84283600D02*
X79946400Y84583600D01*
X78346400Y84283600D02*
X79646400Y84283600D01*
X55079800Y132696000D02*
X55079800Y133496000D01*
X53479800Y132696000D02*
X55079800Y132696000D01*
X53479800Y133196000D02*
X53479800Y132696000D01*
X53779800Y133496000D02*
X53479800Y133196000D01*
X55079800Y133496000D02*
X53779800Y133496000D01*
X9110714Y72786260D02*
G75*
G03X9110714Y72786260I-1750714J0D01*
G01*
X10360000Y75786260D02*
X4360000Y75786260D01*
X10360000Y69786260D02*
X10360000Y75786260D01*
X4360000Y69786260D02*
X10360000Y69786260D01*
X4360000Y75786260D02*
X4360000Y69786260D01*
X44771056Y42392600D02*
G75*
G03X44771056Y42392600I-1750714J0D01*
G01*
X40020342Y45392600D02*
X40020342Y39392600D01*
X46020342Y45392600D02*
X40020342Y45392600D01*
X46020342Y39392600D02*
X46020342Y45392600D01*
X40020342Y39392600D02*
X46020342Y39392600D01*
X87344434Y86740200D02*
G75*
G03X87344434Y86740200I-1750714J0D01*
G01*
X88593720Y89740200D02*
X82593720Y89740200D01*
X88593720Y83740200D02*
X88593720Y89740200D01*
X82593720Y83740200D02*
X88593720Y83740200D01*
X82593720Y89740200D02*
X82593720Y83740200D01*
X87344434Y79732954D02*
G75*
G03X87344434Y79732954I-1750714J0D01*
G01*
X88593720Y82732954D02*
X82593720Y82732954D01*
X88593720Y76732954D02*
X88593720Y82732954D01*
X82593720Y76732954D02*
X88593720Y76732954D01*
X82593720Y82732954D02*
X82593720Y76732954D01*
X72708154Y42392600D02*
G75*
G03X72708154Y42392600I-1750714J0D01*
G01*
X67957440Y45392600D02*
X67957440Y39392600D01*
X73957440Y45392600D02*
X67957440Y45392600D01*
X73957440Y39392600D02*
X73957440Y45392600D01*
X67957440Y39392600D02*
X73957440Y39392600D01*
X65723878Y42392600D02*
G75*
G03X65723878Y42392600I-1750714J0D01*
G01*
X60973164Y45392600D02*
X60973164Y39392600D01*
X66973164Y45392600D02*
X60973164Y45392600D01*
X66973164Y39392600D02*
X66973164Y45392600D01*
X60973164Y39392600D02*
X66973164Y39392600D01*
X58739604Y42392600D02*
G75*
G03X58739604Y42392600I-1750714J0D01*
G01*
X53988890Y45392600D02*
X53988890Y39392600D01*
X59988890Y45392600D02*
X53988890Y45392600D01*
X59988890Y39392600D02*
X59988890Y45392600D01*
X53988890Y39392600D02*
X59988890Y39392600D01*
X9110714Y65800000D02*
G75*
G03X9110714Y65800000I-1750714J0D01*
G01*
X10360000Y68800000D02*
X4360000Y68800000D01*
X10360000Y62800000D02*
X10360000Y68800000D01*
X4360000Y62800000D02*
X10360000Y62800000D01*
X4360000Y68800000D02*
X4360000Y62800000D01*
X30802508Y42392600D02*
G75*
G03X30802508Y42392600I-1750714J0D01*
G01*
X26051794Y45392600D02*
X26051794Y39392600D01*
X32051794Y45392600D02*
X26051794Y45392600D01*
X32051794Y39392600D02*
X32051794Y45392600D01*
X26051794Y39392600D02*
X32051794Y39392600D01*
X87344434Y72725708D02*
G75*
G03X87344434Y72725708I-1750714J0D01*
G01*
X88593720Y75725708D02*
X82593720Y75725708D01*
X88593720Y69725708D02*
X88593720Y75725708D01*
X82593720Y69725708D02*
X88593720Y69725708D01*
X82593720Y75725708D02*
X82593720Y69725708D01*
X87344434Y65718460D02*
G75*
G03X87344434Y65718460I-1750714J0D01*
G01*
X88593720Y68718460D02*
X82593720Y68718460D01*
X88593720Y62718460D02*
X88593720Y68718460D01*
X82593720Y62718460D02*
X88593720Y62718460D01*
X82593720Y68718460D02*
X82593720Y62718460D01*
X9110714Y79772520D02*
G75*
G03X9110714Y79772520I-1750714J0D01*
G01*
X10360000Y82772520D02*
X4360000Y82772520D01*
X10360000Y76772520D02*
X10360000Y82772520D01*
X4360000Y76772520D02*
X10360000Y76772520D01*
X4360000Y82772520D02*
X4360000Y76772520D01*
X51755330Y42392600D02*
G75*
G03X51755330Y42392600I-1750714J0D01*
G01*
X47004616Y45392600D02*
X47004616Y39392600D01*
X53004616Y45392600D02*
X47004616Y45392600D01*
X53004616Y39392600D02*
X53004616Y45392600D01*
X47004616Y39392600D02*
X53004616Y39392600D01*
X23818234Y42392600D02*
G75*
G03X23818234Y42392600I-1750714J0D01*
G01*
X19067520Y45392600D02*
X19067520Y39392600D01*
X25067520Y45392600D02*
X19067520Y45392600D01*
X25067520Y39392600D02*
X25067520Y45392600D01*
X19067520Y39392600D02*
X25067520Y39392600D01*
X9110714Y86758780D02*
G75*
G03X9110714Y86758780I-1750714J0D01*
G01*
X10360000Y89758780D02*
X4360000Y89758780D01*
X10360000Y83758780D02*
X10360000Y89758780D01*
X4360000Y83758780D02*
X10360000Y83758780D01*
X4360000Y89758780D02*
X4360000Y83758780D01*
X37786782Y42392600D02*
G75*
G03X37786782Y42392600I-1750714J0D01*
G01*
X33036068Y45392600D02*
X33036068Y39392600D01*
X39036068Y45392600D02*
X33036068Y45392600D01*
X39036068Y39392600D02*
X39036068Y45392600D01*
X33036068Y39392600D02*
X39036068Y39392600D01*
X42271142Y48558400D02*
X42271142Y47758400D01*
X43871142Y48558400D02*
X42271142Y48558400D01*
X43871142Y48058400D02*
X43871142Y48558400D01*
X43571142Y47758400D02*
X43871142Y48058400D01*
X42271142Y47758400D02*
X43571142Y47758400D01*
X78295600Y63900000D02*
X78295600Y63100000D01*
X79895600Y63900000D02*
X78295600Y63900000D01*
X79895600Y63400000D02*
X79895600Y63900000D01*
X79595600Y63100000D02*
X79895600Y63400000D01*
X78295600Y63100000D02*
X79595600Y63100000D01*
X70269200Y48558400D02*
X70269200Y47758400D01*
X71869200Y48558400D02*
X70269200Y48558400D01*
X71869200Y48058400D02*
X71869200Y48558400D01*
X71569200Y47758400D02*
X71869200Y48058400D01*
X70269200Y47758400D02*
X71569200Y47758400D01*
X58978800Y2387600D02*
X33578800Y2387600D01*
X58978800Y7467600D02*
X58978800Y2387600D01*
X34578800Y7467600D02*
X58978800Y7467600D01*
X33578800Y6467600D02*
X34578800Y7467600D01*
X33578800Y2387600D02*
X33578800Y6467600D01*
D10*
X3359047Y95441429D02*
X3025714Y95441429D01*
X3025714Y94917620D02*
X3025714Y95917620D01*
X3501904Y95917620D01*
X3882857Y94917620D02*
X3882857Y95584286D01*
X3882857Y95917620D02*
X3835238Y95870000D01*
X3882857Y95822381D01*
X3930476Y95870000D01*
X3882857Y95917620D01*
X3882857Y95822381D01*
X4787619Y94917620D02*
X4787619Y95917620D01*
X4787619Y94965239D02*
X4692380Y94917620D01*
X4501904Y94917620D01*
X4406666Y94965239D01*
X4359047Y95012858D01*
X4311428Y95108096D01*
X4311428Y95393810D01*
X4359047Y95489048D01*
X4406666Y95536667D01*
X4501904Y95584286D01*
X4692380Y95584286D01*
X4787619Y95536667D01*
X5692380Y95584286D02*
X5692380Y94917620D01*
X5263809Y95584286D02*
X5263809Y95060477D01*
X5311428Y94965239D01*
X5406666Y94917620D01*
X5549523Y94917620D01*
X5644761Y94965239D01*
X5692380Y95012858D01*
X6597142Y94965239D02*
X6501904Y94917620D01*
X6311428Y94917620D01*
X6216190Y94965239D01*
X6168571Y95012858D01*
X6120952Y95108096D01*
X6120952Y95393810D01*
X6168571Y95489048D01*
X6216190Y95536667D01*
X6311428Y95584286D01*
X6501904Y95584286D01*
X6597142Y95536667D01*
X7025714Y94917620D02*
X7025714Y95584286D01*
X7025714Y95917620D02*
X6978095Y95870000D01*
X7025714Y95822381D01*
X7073333Y95870000D01*
X7025714Y95917620D01*
X7025714Y95822381D01*
X7930476Y94917620D02*
X7930476Y95441429D01*
X7882857Y95536667D01*
X7787619Y95584286D01*
X7597142Y95584286D01*
X7501904Y95536667D01*
X7930476Y94965239D02*
X7835238Y94917620D01*
X7597142Y94917620D01*
X7501904Y94965239D01*
X7454285Y95060477D01*
X7454285Y95155715D01*
X7501904Y95250953D01*
X7597142Y95298572D01*
X7835238Y95298572D01*
X7930476Y95346191D01*
X8549523Y94917620D02*
X8454285Y94965239D01*
X8406666Y95060477D01*
X8406666Y95917620D01*
D13*
X5515714Y93354286D02*
X5449047Y93354286D01*
X5449047Y93249524D02*
X5449047Y93449524D01*
X5544285Y93449524D01*
X5620476Y93249524D02*
X5620476Y93449524D01*
X5715714Y93249524D02*
X5715714Y93449524D01*
X5763333Y93449524D01*
X5791904Y93440000D01*
X5810952Y93420953D01*
X5820476Y93401905D01*
X5830000Y93363810D01*
X5830000Y93335239D01*
X5820476Y93297143D01*
X5810952Y93278096D01*
X5791904Y93259048D01*
X5763333Y93249524D01*
X5715714Y93249524D01*
X5896666Y93449524D02*
X6020476Y93449524D01*
X5953809Y93373334D01*
X5982380Y93373334D01*
X6001428Y93363810D01*
X6010952Y93354286D01*
X6020476Y93335239D01*
X6020476Y93287620D01*
X6010952Y93268572D01*
X6001428Y93259048D01*
X5982380Y93249524D01*
X5925238Y93249524D01*
X5906190Y93259048D01*
X5896666Y93268572D01*
D10*
X77029047Y4906929D02*
X76695714Y4906929D01*
X76695714Y4383120D02*
X76695714Y5383120D01*
X77171904Y5383120D01*
X77552857Y4383120D02*
X77552857Y5049786D01*
X77552857Y5383120D02*
X77505238Y5335500D01*
X77552857Y5287881D01*
X77600476Y5335500D01*
X77552857Y5383120D01*
X77552857Y5287881D01*
X78457619Y4383120D02*
X78457619Y5383120D01*
X78457619Y4430739D02*
X78362380Y4383120D01*
X78171904Y4383120D01*
X78076666Y4430739D01*
X78029047Y4478358D01*
X77981428Y4573596D01*
X77981428Y4859310D01*
X78029047Y4954548D01*
X78076666Y5002167D01*
X78171904Y5049786D01*
X78362380Y5049786D01*
X78457619Y5002167D01*
X79362380Y5049786D02*
X79362380Y4383120D01*
X78933809Y5049786D02*
X78933809Y4525977D01*
X78981428Y4430739D01*
X79076666Y4383120D01*
X79219523Y4383120D01*
X79314761Y4430739D01*
X79362380Y4478358D01*
X80267142Y4430739D02*
X80171904Y4383120D01*
X79981428Y4383120D01*
X79886190Y4430739D01*
X79838571Y4478358D01*
X79790952Y4573596D01*
X79790952Y4859310D01*
X79838571Y4954548D01*
X79886190Y5002167D01*
X79981428Y5049786D01*
X80171904Y5049786D01*
X80267142Y5002167D01*
X80695714Y4383120D02*
X80695714Y5049786D01*
X80695714Y5383120D02*
X80648095Y5335500D01*
X80695714Y5287881D01*
X80743333Y5335500D01*
X80695714Y5383120D01*
X80695714Y5287881D01*
X81600476Y4383120D02*
X81600476Y4906929D01*
X81552857Y5002167D01*
X81457619Y5049786D01*
X81267142Y5049786D01*
X81171904Y5002167D01*
X81600476Y4430739D02*
X81505238Y4383120D01*
X81267142Y4383120D01*
X81171904Y4430739D01*
X81124285Y4525977D01*
X81124285Y4621215D01*
X81171904Y4716453D01*
X81267142Y4764072D01*
X81505238Y4764072D01*
X81600476Y4811691D01*
X82219523Y4383120D02*
X82124285Y4430739D01*
X82076666Y4525977D01*
X82076666Y5383120D01*
D13*
X79195714Y6564286D02*
X79129047Y6564286D01*
X79129047Y6459524D02*
X79129047Y6659524D01*
X79224285Y6659524D01*
X79300476Y6459524D02*
X79300476Y6659524D01*
X79395714Y6459524D02*
X79395714Y6659524D01*
X79443333Y6659524D01*
X79471904Y6650000D01*
X79490952Y6630953D01*
X79500476Y6611905D01*
X79510000Y6573810D01*
X79510000Y6545239D01*
X79500476Y6507143D01*
X79490952Y6488096D01*
X79471904Y6469048D01*
X79443333Y6459524D01*
X79395714Y6459524D01*
X79681428Y6592858D02*
X79681428Y6459524D01*
X79633809Y6669048D02*
X79586190Y6526191D01*
X79710000Y6526191D01*
D10*
X12477904Y75712468D02*
X12954095Y75712468D01*
X12382666Y75426754D02*
X12716000Y76426754D01*
X13049333Y75426754D01*
X13382666Y75426754D02*
X13382666Y76426754D01*
X13620761Y76426754D01*
X13763619Y76379134D01*
X13858857Y76283896D01*
X13906476Y76188658D01*
X13954095Y75998182D01*
X13954095Y75855325D01*
X13906476Y75664849D01*
X13858857Y75569611D01*
X13763619Y75474373D01*
X13620761Y75426754D01*
X13382666Y75426754D01*
X14382666Y75426754D02*
X14382666Y76426754D01*
X14620761Y76426754D01*
X14763619Y76379134D01*
X14858857Y76283896D01*
X14906476Y76188658D01*
X14954095Y75998182D01*
X14954095Y75855325D01*
X14906476Y75664849D01*
X14858857Y75569611D01*
X14763619Y75474373D01*
X14620761Y75426754D01*
X14382666Y75426754D01*
D14*
X13230285Y77128182D02*
X13230285Y77528182D01*
X13325523Y77528182D01*
X13382666Y77509134D01*
X13420761Y77471039D01*
X13439809Y77432944D01*
X13458857Y77356754D01*
X13458857Y77299611D01*
X13439809Y77223420D01*
X13420761Y77185325D01*
X13382666Y77147230D01*
X13325523Y77128182D01*
X13230285Y77128182D01*
X13839809Y77128182D02*
X13611238Y77128182D01*
X13725523Y77128182D02*
X13725523Y77528182D01*
X13687428Y77471039D01*
X13649333Y77432944D01*
X13611238Y77413896D01*
X14087428Y77528182D02*
X14125523Y77528182D01*
X14163619Y77509134D01*
X14182666Y77490087D01*
X14201714Y77451992D01*
X14220761Y77375801D01*
X14220761Y77280563D01*
X14201714Y77204373D01*
X14182666Y77166277D01*
X14163619Y77147230D01*
X14125523Y77128182D01*
X14087428Y77128182D01*
X14049333Y77147230D01*
X14030285Y77166277D01*
X14011238Y77204373D01*
X13992190Y77280563D01*
X13992190Y77375801D01*
X14011238Y77451992D01*
X14030285Y77490087D01*
X14049333Y77509134D01*
X14087428Y77528182D01*
D10*
X12406476Y68430107D02*
X12549333Y68382488D01*
X12787428Y68382488D01*
X12882666Y68430107D01*
X12930285Y68477726D01*
X12977904Y68572964D01*
X12977904Y68668202D01*
X12930285Y68763440D01*
X12882666Y68811059D01*
X12787428Y68858678D01*
X12596952Y68906297D01*
X12501714Y68953916D01*
X12454095Y69001535D01*
X12406476Y69096773D01*
X12406476Y69192011D01*
X12454095Y69287249D01*
X12501714Y69334868D01*
X12596952Y69382488D01*
X12835047Y69382488D01*
X12977904Y69334868D01*
X13406476Y69382488D02*
X13406476Y68572964D01*
X13454095Y68477726D01*
X13501714Y68430107D01*
X13596952Y68382488D01*
X13787428Y68382488D01*
X13882666Y68430107D01*
X13930285Y68477726D01*
X13977904Y68572964D01*
X13977904Y69382488D01*
X14787428Y68906297D02*
X14930285Y68858678D01*
X14977904Y68811059D01*
X15025523Y68715821D01*
X15025523Y68572964D01*
X14977904Y68477726D01*
X14930285Y68430107D01*
X14835047Y68382488D01*
X14454095Y68382488D01*
X14454095Y69382488D01*
X14787428Y69382488D01*
X14882666Y69334868D01*
X14930285Y69287249D01*
X14977904Y69192011D01*
X14977904Y69096773D01*
X14930285Y69001535D01*
X14882666Y68953916D01*
X14787428Y68906297D01*
X14454095Y68906297D01*
D14*
X13230285Y70083916D02*
X13230285Y70483916D01*
X13325523Y70483916D01*
X13382666Y70464868D01*
X13420761Y70426773D01*
X13439809Y70388678D01*
X13458857Y70312488D01*
X13458857Y70255345D01*
X13439809Y70179154D01*
X13420761Y70141059D01*
X13382666Y70102964D01*
X13325523Y70083916D01*
X13230285Y70083916D01*
X13839809Y70083916D02*
X13611238Y70083916D01*
X13725523Y70083916D02*
X13725523Y70483916D01*
X13687428Y70426773D01*
X13649333Y70388678D01*
X13611238Y70369630D01*
X14201714Y70483916D02*
X14011238Y70483916D01*
X13992190Y70293440D01*
X14011238Y70312488D01*
X14049333Y70331535D01*
X14144571Y70331535D01*
X14182666Y70312488D01*
X14201714Y70293440D01*
X14220761Y70255345D01*
X14220761Y70160107D01*
X14201714Y70122011D01*
X14182666Y70102964D01*
X14144571Y70083916D01*
X14049333Y70083916D01*
X14011238Y70102964D01*
X13992190Y70122011D01*
D10*
X77313066Y71538820D02*
X77313066Y72538820D01*
X77646400Y71824534D01*
X77979733Y72538820D01*
X77979733Y71538820D01*
X78455923Y72062629D02*
X78789257Y72062629D01*
X78932114Y71538820D02*
X78455923Y71538820D01*
X78455923Y72538820D01*
X78932114Y72538820D01*
X79360685Y71538820D02*
X79360685Y72538820D01*
X79694019Y71824534D01*
X80027352Y72538820D01*
X80027352Y71538820D01*
X80455923Y72443581D02*
X80503542Y72491200D01*
X80598780Y72538820D01*
X80836876Y72538820D01*
X80932114Y72491200D01*
X80979733Y72443581D01*
X81027352Y72348343D01*
X81027352Y72253105D01*
X80979733Y72110248D01*
X80408304Y71538820D01*
X81027352Y71538820D01*
D14*
X78660685Y70380248D02*
X78660685Y70780248D01*
X78755923Y70780248D01*
X78813066Y70761200D01*
X78851161Y70723105D01*
X78870209Y70685010D01*
X78889257Y70608820D01*
X78889257Y70551677D01*
X78870209Y70475486D01*
X78851161Y70437391D01*
X78813066Y70399296D01*
X78755923Y70380248D01*
X78660685Y70380248D01*
X79270209Y70380248D02*
X79041638Y70380248D01*
X79155923Y70380248D02*
X79155923Y70780248D01*
X79117828Y70723105D01*
X79079733Y70685010D01*
X79041638Y70665962D01*
X79613066Y70780248D02*
X79536876Y70780248D01*
X79498780Y70761200D01*
X79479733Y70742153D01*
X79441638Y70685010D01*
X79422590Y70608820D01*
X79422590Y70456439D01*
X79441638Y70418343D01*
X79460685Y70399296D01*
X79498780Y70380248D01*
X79574971Y70380248D01*
X79613066Y70399296D01*
X79632114Y70418343D01*
X79651161Y70456439D01*
X79651161Y70551677D01*
X79632114Y70589772D01*
X79613066Y70608820D01*
X79574971Y70627867D01*
X79498780Y70627867D01*
X79460685Y70608820D01*
X79441638Y70589772D01*
X79422590Y70551677D01*
D10*
X34571628Y49659829D02*
X34714485Y49612210D01*
X34762104Y49564591D01*
X34809723Y49469353D01*
X34809723Y49326496D01*
X34762104Y49231258D01*
X34714485Y49183639D01*
X34619247Y49136020D01*
X34238294Y49136020D01*
X34238294Y50136020D01*
X34571628Y50136020D01*
X34666866Y50088400D01*
X34714485Y50040781D01*
X34762104Y49945543D01*
X34762104Y49850305D01*
X34714485Y49755067D01*
X34666866Y49707448D01*
X34571628Y49659829D01*
X34238294Y49659829D01*
X35238294Y49136020D02*
X35238294Y50136020D01*
X35571628Y50136020D02*
X36143056Y50136020D01*
X35857342Y49136020D02*
X35857342Y50136020D01*
X36381151Y50136020D02*
X37000199Y50136020D01*
X36666866Y49755067D01*
X36809723Y49755067D01*
X36904961Y49707448D01*
X36952580Y49659829D01*
X37000199Y49564591D01*
X37000199Y49326496D01*
X36952580Y49231258D01*
X36904961Y49183639D01*
X36809723Y49136020D01*
X36524008Y49136020D01*
X36428770Y49183639D01*
X36381151Y49231258D01*
X37381151Y50040781D02*
X37428770Y50088400D01*
X37524008Y50136020D01*
X37762104Y50136020D01*
X37857342Y50088400D01*
X37904961Y50040781D01*
X37952580Y49945543D01*
X37952580Y49850305D01*
X37904961Y49707448D01*
X37333532Y49136020D01*
X37952580Y49136020D01*
D14*
X35585913Y47977448D02*
X35585913Y48377448D01*
X35681151Y48377448D01*
X35738294Y48358400D01*
X35776389Y48320305D01*
X35795437Y48282210D01*
X35814485Y48206020D01*
X35814485Y48148877D01*
X35795437Y48072686D01*
X35776389Y48034591D01*
X35738294Y47996496D01*
X35681151Y47977448D01*
X35585913Y47977448D01*
X36195437Y47977448D02*
X35966866Y47977448D01*
X36081151Y47977448D02*
X36081151Y48377448D01*
X36043056Y48320305D01*
X36004961Y48282210D01*
X35966866Y48263162D01*
X36328770Y48377448D02*
X36595437Y48377448D01*
X36424008Y47977448D01*
D10*
X31384285Y129135239D02*
X31527142Y129087620D01*
X31765238Y129087620D01*
X31860476Y129135239D01*
X31908095Y129182858D01*
X31955714Y129278096D01*
X31955714Y129373334D01*
X31908095Y129468572D01*
X31860476Y129516191D01*
X31765238Y129563810D01*
X31574761Y129611429D01*
X31479523Y129659048D01*
X31431904Y129706667D01*
X31384285Y129801905D01*
X31384285Y129897143D01*
X31431904Y129992381D01*
X31479523Y130040000D01*
X31574761Y130087620D01*
X31812857Y130087620D01*
X31955714Y130040000D01*
X32384285Y129087620D02*
X32384285Y130087620D01*
X32622380Y130087620D01*
X32765238Y130040000D01*
X32860476Y129944762D01*
X32908095Y129849524D01*
X32955714Y129659048D01*
X32955714Y129516191D01*
X32908095Y129325715D01*
X32860476Y129230477D01*
X32765238Y129135239D01*
X32622380Y129087620D01*
X32384285Y129087620D01*
D14*
X31684285Y130789048D02*
X31684285Y131189048D01*
X31779523Y131189048D01*
X31836666Y131170000D01*
X31874761Y131131905D01*
X31893809Y131093810D01*
X31912857Y131017620D01*
X31912857Y130960477D01*
X31893809Y130884286D01*
X31874761Y130846191D01*
X31836666Y130808096D01*
X31779523Y130789048D01*
X31684285Y130789048D01*
X32293809Y130789048D02*
X32065238Y130789048D01*
X32179523Y130789048D02*
X32179523Y131189048D01*
X32141428Y131131905D01*
X32103333Y131093810D01*
X32065238Y131074762D01*
X32484285Y130789048D02*
X32560476Y130789048D01*
X32598571Y130808096D01*
X32617619Y130827143D01*
X32655714Y130884286D01*
X32674761Y130960477D01*
X32674761Y131112858D01*
X32655714Y131150953D01*
X32636666Y131170000D01*
X32598571Y131189048D01*
X32522380Y131189048D01*
X32484285Y131170000D01*
X32465238Y131150953D01*
X32446190Y131112858D01*
X32446190Y131017620D01*
X32465238Y130979524D01*
X32484285Y130960477D01*
X32522380Y130941429D01*
X32598571Y130941429D01*
X32636666Y130960477D01*
X32655714Y130979524D01*
X32674761Y131017620D01*
D10*
X12047742Y61338220D02*
X12047742Y62338220D01*
X12428695Y62338220D01*
X12523933Y62290600D01*
X12571552Y62242981D01*
X12619171Y62147743D01*
X12619171Y62004886D01*
X12571552Y61909648D01*
X12523933Y61862029D01*
X12428695Y61814410D01*
X12047742Y61814410D01*
X13000123Y61623934D02*
X13476314Y61623934D01*
X12904885Y61338220D02*
X13238219Y62338220D01*
X13571552Y61338220D01*
X14428695Y62290600D02*
X14333457Y62338220D01*
X14190600Y62338220D01*
X14047742Y62290600D01*
X13952504Y62195362D01*
X13904885Y62100124D01*
X13857266Y61909648D01*
X13857266Y61766791D01*
X13904885Y61576315D01*
X13952504Y61481077D01*
X14047742Y61385839D01*
X14190600Y61338220D01*
X14285838Y61338220D01*
X14428695Y61385839D01*
X14476314Y61433458D01*
X14476314Y61766791D01*
X14285838Y61766791D01*
X14904885Y61862029D02*
X15238219Y61862029D01*
X15381076Y61338220D02*
X14904885Y61338220D01*
X14904885Y62338220D01*
X15381076Y62338220D01*
D14*
X13204885Y63039648D02*
X13204885Y63439648D01*
X13300123Y63439648D01*
X13357266Y63420600D01*
X13395361Y63382505D01*
X13414409Y63344410D01*
X13433457Y63268220D01*
X13433457Y63211077D01*
X13414409Y63134886D01*
X13395361Y63096791D01*
X13357266Y63058696D01*
X13300123Y63039648D01*
X13204885Y63039648D01*
X13585838Y63401553D02*
X13604885Y63420600D01*
X13642980Y63439648D01*
X13738219Y63439648D01*
X13776314Y63420600D01*
X13795361Y63401553D01*
X13814409Y63363458D01*
X13814409Y63325362D01*
X13795361Y63268220D01*
X13566790Y63039648D01*
X13814409Y63039648D01*
X14062028Y63439648D02*
X14100123Y63439648D01*
X14138219Y63420600D01*
X14157266Y63401553D01*
X14176314Y63363458D01*
X14195361Y63287267D01*
X14195361Y63192029D01*
X14176314Y63115839D01*
X14157266Y63077743D01*
X14138219Y63058696D01*
X14100123Y63039648D01*
X14062028Y63039648D01*
X14023933Y63058696D01*
X14004885Y63077743D01*
X13985838Y63115839D01*
X13966790Y63192029D01*
X13966790Y63287267D01*
X13985838Y63363458D01*
X14004885Y63401553D01*
X14023933Y63420600D01*
X14062028Y63439648D01*
D10*
X61698095Y130027620D02*
X61698095Y129218096D01*
X61745714Y129122858D01*
X61793333Y129075239D01*
X61888571Y129027620D01*
X62079047Y129027620D01*
X62174285Y129075239D01*
X62221904Y129122858D01*
X62269523Y129218096D01*
X62269523Y130027620D01*
X62698095Y129075239D02*
X62840952Y129027620D01*
X63079047Y129027620D01*
X63174285Y129075239D01*
X63221904Y129122858D01*
X63269523Y129218096D01*
X63269523Y129313334D01*
X63221904Y129408572D01*
X63174285Y129456191D01*
X63079047Y129503810D01*
X62888571Y129551429D01*
X62793333Y129599048D01*
X62745714Y129646667D01*
X62698095Y129741905D01*
X62698095Y129837143D01*
X62745714Y129932381D01*
X62793333Y129980000D01*
X62888571Y130027620D01*
X63126666Y130027620D01*
X63269523Y129980000D01*
X64031428Y129551429D02*
X64174285Y129503810D01*
X64221904Y129456191D01*
X64269523Y129360953D01*
X64269523Y129218096D01*
X64221904Y129122858D01*
X64174285Y129075239D01*
X64079047Y129027620D01*
X63698095Y129027620D01*
X63698095Y130027620D01*
X64031428Y130027620D01*
X64126666Y129980000D01*
X64174285Y129932381D01*
X64221904Y129837143D01*
X64221904Y129741905D01*
X64174285Y129646667D01*
X64126666Y129599048D01*
X64031428Y129551429D01*
X63698095Y129551429D01*
D14*
X62664761Y130729048D02*
X62664761Y131129048D01*
X62760000Y131129048D01*
X62817142Y131110000D01*
X62855238Y131071905D01*
X62874285Y131033810D01*
X62893333Y130957620D01*
X62893333Y130900477D01*
X62874285Y130824286D01*
X62855238Y130786191D01*
X62817142Y130748096D01*
X62760000Y130729048D01*
X62664761Y130729048D01*
X63083809Y130729048D02*
X63160000Y130729048D01*
X63198095Y130748096D01*
X63217142Y130767143D01*
X63255238Y130824286D01*
X63274285Y130900477D01*
X63274285Y131052858D01*
X63255238Y131090953D01*
X63236190Y131110000D01*
X63198095Y131129048D01*
X63121904Y131129048D01*
X63083809Y131110000D01*
X63064761Y131090953D01*
X63045714Y131052858D01*
X63045714Y130957620D01*
X63064761Y130919524D01*
X63083809Y130900477D01*
X63121904Y130881429D01*
X63198095Y130881429D01*
X63236190Y130900477D01*
X63255238Y130919524D01*
X63274285Y130957620D01*
D10*
X12358857Y83471020D02*
X13025523Y82471020D01*
X13025523Y83471020D02*
X12358857Y82471020D01*
X13596952Y83471020D02*
X13787428Y83471020D01*
X13882666Y83423400D01*
X13977904Y83328162D01*
X14025523Y83137686D01*
X14025523Y82804353D01*
X13977904Y82613877D01*
X13882666Y82518639D01*
X13787428Y82471020D01*
X13596952Y82471020D01*
X13501714Y82518639D01*
X13406476Y82613877D01*
X13358857Y82804353D01*
X13358857Y83137686D01*
X13406476Y83328162D01*
X13501714Y83423400D01*
X13596952Y83471020D01*
X15025523Y82471020D02*
X14692190Y82947210D01*
X14454095Y82471020D02*
X14454095Y83471020D01*
X14835047Y83471020D01*
X14930285Y83423400D01*
X14977904Y83375781D01*
X15025523Y83280543D01*
X15025523Y83137686D01*
X14977904Y83042448D01*
X14930285Y82994829D01*
X14835047Y82947210D01*
X14454095Y82947210D01*
D14*
X13420761Y84172448D02*
X13420761Y84572448D01*
X13516000Y84572448D01*
X13573142Y84553400D01*
X13611238Y84515305D01*
X13630285Y84477210D01*
X13649333Y84401020D01*
X13649333Y84343877D01*
X13630285Y84267686D01*
X13611238Y84229591D01*
X13573142Y84191496D01*
X13516000Y84172448D01*
X13420761Y84172448D01*
X14011238Y84572448D02*
X13820761Y84572448D01*
X13801714Y84381972D01*
X13820761Y84401020D01*
X13858857Y84420067D01*
X13954095Y84420067D01*
X13992190Y84401020D01*
X14011238Y84381972D01*
X14030285Y84343877D01*
X14030285Y84248639D01*
X14011238Y84210543D01*
X13992190Y84191496D01*
X13954095Y84172448D01*
X13858857Y84172448D01*
X13820761Y84191496D01*
X13801714Y84210543D01*
D10*
X27572114Y49659829D02*
X27714971Y49612210D01*
X27762590Y49564591D01*
X27810209Y49469353D01*
X27810209Y49326496D01*
X27762590Y49231258D01*
X27714971Y49183639D01*
X27619733Y49136020D01*
X27238780Y49136020D01*
X27238780Y50136020D01*
X27572114Y50136020D01*
X27667352Y50088400D01*
X27714971Y50040781D01*
X27762590Y49945543D01*
X27762590Y49850305D01*
X27714971Y49755067D01*
X27667352Y49707448D01*
X27572114Y49659829D01*
X27238780Y49659829D01*
X28238780Y49136020D02*
X28238780Y50136020D01*
X28572114Y50136020D02*
X29143542Y50136020D01*
X28857828Y49136020D02*
X28857828Y50136020D01*
X29905447Y50136020D02*
X29714971Y50136020D01*
X29619733Y50088400D01*
X29572114Y50040781D01*
X29476875Y49897924D01*
X29429256Y49707448D01*
X29429256Y49326496D01*
X29476875Y49231258D01*
X29524494Y49183639D01*
X29619733Y49136020D01*
X29810209Y49136020D01*
X29905447Y49183639D01*
X29953066Y49231258D01*
X30000685Y49326496D01*
X30000685Y49564591D01*
X29953066Y49659829D01*
X29905447Y49707448D01*
X29810209Y49755067D01*
X29619733Y49755067D01*
X29524494Y49707448D01*
X29476875Y49659829D01*
X29429256Y49564591D01*
X30857828Y49802686D02*
X30857828Y49136020D01*
X30619733Y50183639D02*
X30381637Y49469353D01*
X31000685Y49469353D01*
D14*
X28586399Y47977448D02*
X28586399Y48377448D01*
X28681637Y48377448D01*
X28738780Y48358400D01*
X28776875Y48320305D01*
X28795923Y48282210D01*
X28814971Y48206020D01*
X28814971Y48148877D01*
X28795923Y48072686D01*
X28776875Y48034591D01*
X28738780Y47996496D01*
X28681637Y47977448D01*
X28586399Y47977448D01*
X29195923Y47977448D02*
X28967352Y47977448D01*
X29081637Y47977448D02*
X29081637Y48377448D01*
X29043542Y48320305D01*
X29005447Y48282210D01*
X28967352Y48263162D01*
X29348304Y48339353D02*
X29367352Y48358400D01*
X29405447Y48377448D01*
X29500685Y48377448D01*
X29538780Y48358400D01*
X29557828Y48339353D01*
X29576875Y48301258D01*
X29576875Y48263162D01*
X29557828Y48206020D01*
X29329256Y47977448D01*
X29576875Y47977448D01*
D10*
X63045874Y49659829D02*
X63188731Y49612210D01*
X63236350Y49564591D01*
X63283969Y49469353D01*
X63283969Y49326496D01*
X63236350Y49231258D01*
X63188731Y49183639D01*
X63093493Y49136020D01*
X62712541Y49136020D01*
X62712541Y50136020D01*
X63045874Y50136020D01*
X63141112Y50088400D01*
X63188731Y50040781D01*
X63236350Y49945543D01*
X63236350Y49850305D01*
X63188731Y49755067D01*
X63141112Y49707448D01*
X63045874Y49659829D01*
X62712541Y49659829D01*
X63712541Y49136020D02*
X63712541Y50136020D01*
X64045874Y50136020D02*
X64617303Y50136020D01*
X64331588Y49136020D02*
X64331588Y50136020D01*
X64903017Y50040781D02*
X64950636Y50088400D01*
X65045874Y50136020D01*
X65283969Y50136020D01*
X65379207Y50088400D01*
X65426826Y50040781D01*
X65474445Y49945543D01*
X65474445Y49850305D01*
X65426826Y49707448D01*
X64855398Y49136020D01*
X65474445Y49136020D01*
D14*
X63583969Y47977448D02*
X63583969Y48377448D01*
X63679207Y48377448D01*
X63736350Y48358400D01*
X63774445Y48320305D01*
X63793493Y48282210D01*
X63812541Y48206020D01*
X63812541Y48148877D01*
X63793493Y48072686D01*
X63774445Y48034591D01*
X63736350Y47996496D01*
X63679207Y47977448D01*
X63583969Y47977448D01*
X64193493Y47977448D02*
X63964922Y47977448D01*
X64079207Y47977448D02*
X64079207Y48377448D01*
X64041112Y48320305D01*
X64003017Y48282210D01*
X63964922Y48263162D01*
X64422064Y48206020D02*
X64383969Y48225067D01*
X64364922Y48244115D01*
X64345874Y48282210D01*
X64345874Y48301258D01*
X64364922Y48339353D01*
X64383969Y48358400D01*
X64422064Y48377448D01*
X64498255Y48377448D01*
X64536350Y48358400D01*
X64555398Y48339353D01*
X64574445Y48301258D01*
X64574445Y48282210D01*
X64555398Y48244115D01*
X64536350Y48225067D01*
X64498255Y48206020D01*
X64422064Y48206020D01*
X64383969Y48186972D01*
X64364922Y48167924D01*
X64345874Y48129829D01*
X64345874Y48053639D01*
X64364922Y48015543D01*
X64383969Y47996496D01*
X64422064Y47977448D01*
X64498255Y47977448D01*
X64536350Y47996496D01*
X64555398Y48015543D01*
X64574445Y48053639D01*
X64574445Y48129829D01*
X64555398Y48167924D01*
X64536350Y48186972D01*
X64498255Y48206020D01*
D10*
X49046846Y49659829D02*
X49189703Y49612210D01*
X49237322Y49564591D01*
X49284941Y49469353D01*
X49284941Y49326496D01*
X49237322Y49231258D01*
X49189703Y49183639D01*
X49094465Y49136020D01*
X48713513Y49136020D01*
X48713513Y50136020D01*
X49046846Y50136020D01*
X49142084Y50088400D01*
X49189703Y50040781D01*
X49237322Y49945543D01*
X49237322Y49850305D01*
X49189703Y49755067D01*
X49142084Y49707448D01*
X49046846Y49659829D01*
X48713513Y49659829D01*
X49713513Y49136020D02*
X49713513Y50136020D01*
X50046846Y50136020D02*
X50618275Y50136020D01*
X50332560Y49136020D02*
X50332560Y50136020D01*
X51094465Y49707448D02*
X50999227Y49755067D01*
X50951608Y49802686D01*
X50903989Y49897924D01*
X50903989Y49945543D01*
X50951608Y50040781D01*
X50999227Y50088400D01*
X51094465Y50136020D01*
X51284941Y50136020D01*
X51380179Y50088400D01*
X51427798Y50040781D01*
X51475417Y49945543D01*
X51475417Y49897924D01*
X51427798Y49802686D01*
X51380179Y49755067D01*
X51284941Y49707448D01*
X51094465Y49707448D01*
X50999227Y49659829D01*
X50951608Y49612210D01*
X50903989Y49516972D01*
X50903989Y49326496D01*
X50951608Y49231258D01*
X50999227Y49183639D01*
X51094465Y49136020D01*
X51284941Y49136020D01*
X51380179Y49183639D01*
X51427798Y49231258D01*
X51475417Y49326496D01*
X51475417Y49516972D01*
X51427798Y49612210D01*
X51380179Y49659829D01*
X51284941Y49707448D01*
D14*
X49775417Y47977448D02*
X49775417Y48377448D01*
X49870656Y48377448D01*
X49927798Y48358400D01*
X49965894Y48320305D01*
X49984941Y48282210D01*
X50003989Y48206020D01*
X50003989Y48148877D01*
X49984941Y48072686D01*
X49965894Y48034591D01*
X49927798Y47996496D01*
X49870656Y47977448D01*
X49775417Y47977448D01*
X50232560Y48206020D02*
X50194465Y48225067D01*
X50175417Y48244115D01*
X50156370Y48282210D01*
X50156370Y48301258D01*
X50175417Y48339353D01*
X50194465Y48358400D01*
X50232560Y48377448D01*
X50308751Y48377448D01*
X50346846Y48358400D01*
X50365894Y48339353D01*
X50384941Y48301258D01*
X50384941Y48282210D01*
X50365894Y48244115D01*
X50346846Y48225067D01*
X50308751Y48206020D01*
X50232560Y48206020D01*
X50194465Y48186972D01*
X50175417Y48167924D01*
X50156370Y48129829D01*
X50156370Y48053639D01*
X50175417Y48015543D01*
X50194465Y47996496D01*
X50232560Y47977448D01*
X50308751Y47977448D01*
X50346846Y47996496D01*
X50365894Y48015543D01*
X50384941Y48053639D01*
X50384941Y48129829D01*
X50365894Y48167924D01*
X50346846Y48186972D01*
X50308751Y48206020D01*
D10*
X20096409Y49659829D02*
X20239266Y49612210D01*
X20286885Y49564591D01*
X20334504Y49469353D01*
X20334504Y49326496D01*
X20286885Y49231258D01*
X20239266Y49183639D01*
X20144028Y49136020D01*
X19763076Y49136020D01*
X19763076Y50136020D01*
X20096409Y50136020D01*
X20191647Y50088400D01*
X20239266Y50040781D01*
X20286885Y49945543D01*
X20286885Y49850305D01*
X20239266Y49755067D01*
X20191647Y49707448D01*
X20096409Y49659829D01*
X19763076Y49659829D01*
X20763076Y49136020D02*
X20763076Y50136020D01*
X21096409Y50136020D02*
X21667838Y50136020D01*
X21382123Y49136020D02*
X21382123Y50136020D01*
X22524980Y49136020D02*
X21953552Y49136020D01*
X22239266Y49136020D02*
X22239266Y50136020D01*
X22144028Y49993162D01*
X22048790Y49897924D01*
X21953552Y49850305D01*
X22905933Y50040781D02*
X22953552Y50088400D01*
X23048790Y50136020D01*
X23286885Y50136020D01*
X23382123Y50088400D01*
X23429742Y50040781D01*
X23477361Y49945543D01*
X23477361Y49850305D01*
X23429742Y49707448D01*
X22858314Y49136020D01*
X23477361Y49136020D01*
X24048790Y49707448D02*
X23953552Y49755067D01*
X23905933Y49802686D01*
X23858314Y49897924D01*
X23858314Y49945543D01*
X23905933Y50040781D01*
X23953552Y50088400D01*
X24048790Y50136020D01*
X24239266Y50136020D01*
X24334504Y50088400D01*
X24382123Y50040781D01*
X24429742Y49945543D01*
X24429742Y49897924D01*
X24382123Y49802686D01*
X24334504Y49755067D01*
X24239266Y49707448D01*
X24048790Y49707448D01*
X23953552Y49659829D01*
X23905933Y49612210D01*
X23858314Y49516972D01*
X23858314Y49326496D01*
X23905933Y49231258D01*
X23953552Y49183639D01*
X24048790Y49136020D01*
X24239266Y49136020D01*
X24334504Y49183639D01*
X24382123Y49231258D01*
X24429742Y49326496D01*
X24429742Y49516972D01*
X24382123Y49612210D01*
X24334504Y49659829D01*
X24239266Y49707448D01*
D14*
X21777361Y47977448D02*
X21777361Y48377448D01*
X21872600Y48377448D01*
X21929742Y48358400D01*
X21967838Y48320305D01*
X21986885Y48282210D01*
X22005933Y48206020D01*
X22005933Y48148877D01*
X21986885Y48072686D01*
X21967838Y48034591D01*
X21929742Y47996496D01*
X21872600Y47977448D01*
X21777361Y47977448D01*
X22139266Y48377448D02*
X22405933Y48377448D01*
X22234504Y47977448D01*
D10*
X77313066Y78600020D02*
X77313066Y79600020D01*
X77646400Y78885734D01*
X77979733Y79600020D01*
X77979733Y78600020D01*
X78455923Y79123829D02*
X78789257Y79123829D01*
X78932114Y78600020D02*
X78455923Y78600020D01*
X78455923Y79600020D01*
X78932114Y79600020D01*
X79360685Y78600020D02*
X79360685Y79600020D01*
X79694019Y78885734D01*
X80027352Y79600020D01*
X80027352Y78600020D01*
X81027352Y78600020D02*
X80455923Y78600020D01*
X80741638Y78600020D02*
X80741638Y79600020D01*
X80646400Y79457162D01*
X80551161Y79361924D01*
X80455923Y79314305D01*
D14*
X78660685Y77441448D02*
X78660685Y77841448D01*
X78755923Y77841448D01*
X78813066Y77822400D01*
X78851161Y77784305D01*
X78870209Y77746210D01*
X78889257Y77670020D01*
X78889257Y77612877D01*
X78870209Y77536686D01*
X78851161Y77498591D01*
X78813066Y77460496D01*
X78755923Y77441448D01*
X78660685Y77441448D01*
X79270209Y77441448D02*
X79041638Y77441448D01*
X79155923Y77441448D02*
X79155923Y77841448D01*
X79117828Y77784305D01*
X79079733Y77746210D01*
X79041638Y77727162D01*
X79651161Y77441448D02*
X79422590Y77441448D01*
X79536876Y77441448D02*
X79536876Y77841448D01*
X79498780Y77784305D01*
X79460685Y77746210D01*
X79422590Y77727162D01*
D10*
X56046360Y49659829D02*
X56189217Y49612210D01*
X56236836Y49564591D01*
X56284455Y49469353D01*
X56284455Y49326496D01*
X56236836Y49231258D01*
X56189217Y49183639D01*
X56093979Y49136020D01*
X55713027Y49136020D01*
X55713027Y50136020D01*
X56046360Y50136020D01*
X56141598Y50088400D01*
X56189217Y50040781D01*
X56236836Y49945543D01*
X56236836Y49850305D01*
X56189217Y49755067D01*
X56141598Y49707448D01*
X56046360Y49659829D01*
X55713027Y49659829D01*
X56713027Y49136020D02*
X56713027Y50136020D01*
X57046360Y50136020D02*
X57617789Y50136020D01*
X57332074Y49136020D02*
X57332074Y50136020D01*
X58379693Y49802686D02*
X58379693Y49136020D01*
X58141598Y50183639D02*
X57903503Y49469353D01*
X58522550Y49469353D01*
D14*
X56584455Y47977448D02*
X56584455Y48377448D01*
X56679693Y48377448D01*
X56736836Y48358400D01*
X56774931Y48320305D01*
X56793979Y48282210D01*
X56813027Y48206020D01*
X56813027Y48148877D01*
X56793979Y48072686D01*
X56774931Y48034591D01*
X56736836Y47996496D01*
X56679693Y47977448D01*
X56584455Y47977448D01*
X57193979Y47977448D02*
X56965408Y47977448D01*
X57079693Y47977448D02*
X57079693Y48377448D01*
X57041598Y48320305D01*
X57003503Y48282210D01*
X56965408Y48263162D01*
X57327312Y48377448D02*
X57574931Y48377448D01*
X57441598Y48225067D01*
X57498741Y48225067D01*
X57536836Y48206020D01*
X57555884Y48186972D01*
X57574931Y48148877D01*
X57574931Y48053639D01*
X57555884Y48015543D01*
X57536836Y47996496D01*
X57498741Y47977448D01*
X57384455Y47977448D01*
X57346360Y47996496D01*
X57327312Y48015543D01*
D10*
X77313066Y85661220D02*
X77313066Y86661220D01*
X77646400Y85946934D01*
X77979733Y86661220D01*
X77979733Y85661220D01*
X78455923Y86185029D02*
X78789257Y86185029D01*
X78932114Y85661220D02*
X78455923Y85661220D01*
X78455923Y86661220D01*
X78932114Y86661220D01*
X79360685Y85661220D02*
X79360685Y86661220D01*
X79694019Y85946934D01*
X80027352Y86661220D01*
X80027352Y85661220D01*
X80694019Y86661220D02*
X80789257Y86661220D01*
X80884495Y86613600D01*
X80932114Y86565981D01*
X80979733Y86470743D01*
X81027352Y86280267D01*
X81027352Y86042172D01*
X80979733Y85851696D01*
X80932114Y85756458D01*
X80884495Y85708839D01*
X80789257Y85661220D01*
X80694019Y85661220D01*
X80598780Y85708839D01*
X80551161Y85756458D01*
X80503542Y85851696D01*
X80455923Y86042172D01*
X80455923Y86280267D01*
X80503542Y86470743D01*
X80551161Y86565981D01*
X80598780Y86613600D01*
X80694019Y86661220D01*
D14*
X78851161Y84502648D02*
X78851161Y84902648D01*
X78946400Y84902648D01*
X79003542Y84883600D01*
X79041638Y84845505D01*
X79060685Y84807410D01*
X79079733Y84731220D01*
X79079733Y84674077D01*
X79060685Y84597886D01*
X79041638Y84559791D01*
X79003542Y84521696D01*
X78946400Y84502648D01*
X78851161Y84502648D01*
X79422590Y84902648D02*
X79346400Y84902648D01*
X79308304Y84883600D01*
X79289257Y84864553D01*
X79251161Y84807410D01*
X79232114Y84731220D01*
X79232114Y84578839D01*
X79251161Y84540743D01*
X79270209Y84521696D01*
X79308304Y84502648D01*
X79384495Y84502648D01*
X79422590Y84521696D01*
X79441638Y84540743D01*
X79460685Y84578839D01*
X79460685Y84674077D01*
X79441638Y84712172D01*
X79422590Y84731220D01*
X79384495Y84750267D01*
X79308304Y84750267D01*
X79270209Y84731220D01*
X79251161Y84712172D01*
X79232114Y84674077D01*
D10*
X53089323Y131213620D02*
X53089323Y132213620D01*
X53089323Y131737429D02*
X53660752Y131737429D01*
X53660752Y131213620D02*
X53660752Y132213620D01*
X54089323Y131499334D02*
X54565514Y131499334D01*
X53994085Y131213620D02*
X54327419Y132213620D01*
X54660752Y131213620D01*
X54898847Y132213620D02*
X55565514Y131213620D01*
X55565514Y132213620D02*
X54898847Y131213620D01*
D14*
X53794085Y132915048D02*
X53794085Y133315048D01*
X53889323Y133315048D01*
X53946466Y133296000D01*
X53984561Y133257905D01*
X54003609Y133219810D01*
X54022657Y133143620D01*
X54022657Y133086477D01*
X54003609Y133010286D01*
X53984561Y132972191D01*
X53946466Y132934096D01*
X53889323Y132915048D01*
X53794085Y132915048D01*
X54403609Y132915048D02*
X54175038Y132915048D01*
X54289323Y132915048D02*
X54289323Y133315048D01*
X54251228Y133257905D01*
X54213133Y133219810D01*
X54175038Y133200762D01*
X54746466Y133181715D02*
X54746466Y132915048D01*
X54651228Y133334096D02*
X54555990Y133048381D01*
X54803609Y133048381D01*
D10*
X3884761Y70920477D02*
X3932380Y71063334D01*
X3932380Y71301429D01*
X3884761Y71396667D01*
X3837142Y71444286D01*
X3741904Y71491905D01*
X3646666Y71491905D01*
X3551428Y71444286D01*
X3503809Y71396667D01*
X3456190Y71301429D01*
X3408571Y71110953D01*
X3360952Y71015715D01*
X3313333Y70968096D01*
X3218095Y70920477D01*
X3122857Y70920477D01*
X3027619Y70968096D01*
X2980000Y71015715D01*
X2932380Y71110953D01*
X2932380Y71349048D01*
X2980000Y71491905D01*
X2932380Y71825239D02*
X3932380Y72063334D01*
X3218095Y72253810D01*
X3932380Y72444286D01*
X2932380Y72682381D01*
X3932380Y73587143D02*
X3932380Y73015715D01*
X3932380Y73301429D02*
X2932380Y73301429D01*
X3075238Y73206191D01*
X3170476Y73110953D01*
X3218095Y73015715D01*
X2932380Y74444286D02*
X2932380Y74253810D01*
X2980000Y74158572D01*
X3027619Y74110953D01*
X3170476Y74015715D01*
X3360952Y73968096D01*
X3741904Y73968096D01*
X3837142Y74015715D01*
X3884761Y74063334D01*
X3932380Y74158572D01*
X3932380Y74349048D01*
X3884761Y74444286D01*
X3837142Y74491905D01*
X3741904Y74539524D01*
X3503809Y74539524D01*
X3408571Y74491905D01*
X3360952Y74444286D01*
X3313333Y74349048D01*
X3313333Y74158572D01*
X3360952Y74063334D01*
X3408571Y74015715D01*
X3503809Y73968096D01*
X61665471Y15735066D02*
X61800158Y15802409D01*
X61968517Y15970768D01*
X62002189Y16071783D01*
X62002189Y16139127D01*
X61968517Y16240142D01*
X61901174Y16307485D01*
X61800158Y16341157D01*
X61732815Y16341157D01*
X61631800Y16307485D01*
X61463441Y16206470D01*
X61362426Y16172798D01*
X61295082Y16172798D01*
X61194067Y16206470D01*
X61126723Y16273814D01*
X61093052Y16374829D01*
X61093052Y16442172D01*
X61126723Y16543188D01*
X61295082Y16711547D01*
X61429769Y16778890D01*
X62406250Y16408501D02*
X61699143Y17115608D01*
X62810311Y16812562D02*
X62103204Y16913577D01*
X62103204Y17519669D02*
X62103204Y16711547D01*
X63517418Y17519669D02*
X62944998Y17620684D01*
X63113357Y17115608D02*
X62406250Y17822714D01*
X62675624Y18092088D01*
X62776639Y18125760D01*
X62843983Y18125760D01*
X62944998Y18092088D01*
X63046013Y17991073D01*
X63079685Y17890058D01*
X63079685Y17822714D01*
X63046013Y17721699D01*
X62776639Y17452325D01*
X63820464Y17822714D02*
X63113357Y18529821D01*
X63450074Y18193104D02*
X63854135Y18597165D01*
X64224525Y18226775D02*
X63517418Y18933882D01*
X64325540Y18731852D02*
X64662257Y19068569D01*
X64460227Y18462478D02*
X63988822Y19405287D01*
X64931631Y18933882D01*
X65032647Y19775676D02*
X65167334Y19843019D01*
X65234677Y19843019D01*
X65335692Y19809348D01*
X65436708Y19708332D01*
X65470379Y19607317D01*
X65470379Y19539974D01*
X65436708Y19438958D01*
X65167334Y19169584D01*
X64460227Y19876691D01*
X64695929Y20112393D01*
X64796944Y20146065D01*
X64864288Y20146065D01*
X64965303Y20112393D01*
X65032647Y20045050D01*
X65066318Y19944035D01*
X65066318Y19876691D01*
X65032647Y19775676D01*
X64796944Y19539974D01*
X65504051Y20247080D02*
X65739753Y20482783D01*
X66211158Y20213409D02*
X65874440Y19876691D01*
X65167334Y20583798D01*
X65504051Y20920515D01*
X65941784Y21358248D02*
X66009127Y21425592D01*
X66110143Y21459263D01*
X66177486Y21459263D01*
X66278501Y21425592D01*
X66446860Y21324576D01*
X66615219Y21156218D01*
X66716234Y20987859D01*
X66749906Y20886844D01*
X66749906Y20819500D01*
X66716234Y20718485D01*
X66648891Y20651141D01*
X66547875Y20617470D01*
X66480532Y20617470D01*
X66379517Y20651141D01*
X66211158Y20752157D01*
X66042799Y20920515D01*
X65941784Y21088874D01*
X65908112Y21189889D01*
X65908112Y21257233D01*
X65941784Y21358248D01*
X67558028Y21560279D02*
X67153967Y21156218D01*
X67355997Y21358248D02*
X66648891Y22065355D01*
X66682562Y21896996D01*
X66682562Y21762309D01*
X66648891Y21661294D01*
X67288654Y22705118D02*
X67355997Y22772462D01*
X67457013Y22806134D01*
X67524356Y22806134D01*
X67625372Y22772462D01*
X67793730Y22671447D01*
X67962089Y22503088D01*
X68063104Y22334729D01*
X68096776Y22233714D01*
X68096776Y22166370D01*
X68063104Y22065355D01*
X67995761Y21998011D01*
X67894746Y21964340D01*
X67827402Y21964340D01*
X67726387Y21998011D01*
X67558028Y22099027D01*
X67389669Y22267386D01*
X67288654Y22435744D01*
X67254982Y22536760D01*
X67254982Y22604103D01*
X67288654Y22705118D01*
X41616666Y37985239D02*
X41759523Y37937620D01*
X41997619Y37937620D01*
X42092857Y37985239D01*
X42140476Y38032858D01*
X42188095Y38128096D01*
X42188095Y38223334D01*
X42140476Y38318572D01*
X42092857Y38366191D01*
X41997619Y38413810D01*
X41807142Y38461429D01*
X41711904Y38509048D01*
X41664285Y38556667D01*
X41616666Y38651905D01*
X41616666Y38747143D01*
X41664285Y38842381D01*
X41711904Y38890000D01*
X41807142Y38937620D01*
X42045238Y38937620D01*
X42188095Y38890000D01*
X42521428Y38937620D02*
X42759523Y37937620D01*
X42950000Y38651905D01*
X43140476Y37937620D01*
X43378571Y38937620D01*
X43807142Y37937620D02*
X43997619Y37937620D01*
X44092857Y37985239D01*
X44140476Y38032858D01*
X44235714Y38175715D01*
X44283333Y38366191D01*
X44283333Y38747143D01*
X44235714Y38842381D01*
X44188095Y38890000D01*
X44092857Y38937620D01*
X43902380Y38937620D01*
X43807142Y38890000D01*
X43759523Y38842381D01*
X43711904Y38747143D01*
X43711904Y38509048D01*
X43759523Y38413810D01*
X43807142Y38366191D01*
X43902380Y38318572D01*
X44092857Y38318572D01*
X44188095Y38366191D01*
X44235714Y38413810D01*
X44283333Y38509048D01*
X89904761Y85316667D02*
X89952380Y85459524D01*
X89952380Y85697620D01*
X89904761Y85792858D01*
X89857142Y85840477D01*
X89761904Y85888096D01*
X89666666Y85888096D01*
X89571428Y85840477D01*
X89523809Y85792858D01*
X89476190Y85697620D01*
X89428571Y85507143D01*
X89380952Y85411905D01*
X89333333Y85364286D01*
X89238095Y85316667D01*
X89142857Y85316667D01*
X89047619Y85364286D01*
X89000000Y85411905D01*
X88952380Y85507143D01*
X88952380Y85745239D01*
X89000000Y85888096D01*
X88952380Y86221429D02*
X89952380Y86459524D01*
X89238095Y86650000D01*
X89952380Y86840477D01*
X88952380Y87078572D01*
X89047619Y87411905D02*
X89000000Y87459524D01*
X88952380Y87554762D01*
X88952380Y87792858D01*
X89000000Y87888096D01*
X89047619Y87935715D01*
X89142857Y87983334D01*
X89238095Y87983334D01*
X89380952Y87935715D01*
X89952380Y87364286D01*
X89952380Y87983334D01*
X89904761Y78346667D02*
X89952380Y78489524D01*
X89952380Y78727620D01*
X89904761Y78822858D01*
X89857142Y78870477D01*
X89761904Y78918096D01*
X89666666Y78918096D01*
X89571428Y78870477D01*
X89523809Y78822858D01*
X89476190Y78727620D01*
X89428571Y78537143D01*
X89380952Y78441905D01*
X89333333Y78394286D01*
X89238095Y78346667D01*
X89142857Y78346667D01*
X89047619Y78394286D01*
X89000000Y78441905D01*
X88952380Y78537143D01*
X88952380Y78775239D01*
X89000000Y78918096D01*
X88952380Y79251429D02*
X89952380Y79489524D01*
X89238095Y79680000D01*
X89952380Y79870477D01*
X88952380Y80108572D01*
X88952380Y80394286D02*
X88952380Y81013334D01*
X89333333Y80680000D01*
X89333333Y80822858D01*
X89380952Y80918096D01*
X89428571Y80965715D01*
X89523809Y81013334D01*
X89761904Y81013334D01*
X89857142Y80965715D01*
X89904761Y80918096D01*
X89952380Y80822858D01*
X89952380Y80537143D01*
X89904761Y80441905D01*
X89857142Y80394286D01*
X33268271Y15735066D02*
X33402958Y15802409D01*
X33571317Y15970768D01*
X33604989Y16071783D01*
X33604989Y16139127D01*
X33571317Y16240142D01*
X33503974Y16307485D01*
X33402958Y16341157D01*
X33335615Y16341157D01*
X33234600Y16307485D01*
X33066241Y16206470D01*
X32965226Y16172798D01*
X32897882Y16172798D01*
X32796867Y16206470D01*
X32729523Y16273814D01*
X32695852Y16374829D01*
X32695852Y16442172D01*
X32729523Y16543188D01*
X32897882Y16711547D01*
X33032569Y16778890D01*
X34009050Y16408501D02*
X33301943Y17115608D01*
X34413111Y16812562D02*
X33706004Y16913577D01*
X33706004Y17519669D02*
X33706004Y16711547D01*
X35120218Y17519669D02*
X34547798Y17620684D01*
X34716157Y17115608D02*
X34009050Y17822714D01*
X34278424Y18092088D01*
X34379439Y18125760D01*
X34446783Y18125760D01*
X34547798Y18092088D01*
X34648813Y17991073D01*
X34682485Y17890058D01*
X34682485Y17822714D01*
X34648813Y17721699D01*
X34379439Y17452325D01*
X35423264Y17822714D02*
X34716157Y18529821D01*
X35052874Y18193104D02*
X35456935Y18597165D01*
X35827325Y18226775D02*
X35120218Y18933882D01*
X35928340Y18731852D02*
X36265057Y19068569D01*
X36063027Y18462478D02*
X35591622Y19405287D01*
X36534431Y18933882D01*
X36635447Y19775676D02*
X36770134Y19843019D01*
X36837477Y19843019D01*
X36938492Y19809348D01*
X37039508Y19708332D01*
X37073179Y19607317D01*
X37073179Y19539974D01*
X37039508Y19438958D01*
X36770134Y19169584D01*
X36063027Y19876691D01*
X36298729Y20112393D01*
X36399744Y20146065D01*
X36467088Y20146065D01*
X36568103Y20112393D01*
X36635447Y20045050D01*
X36669118Y19944035D01*
X36669118Y19876691D01*
X36635447Y19775676D01*
X36399744Y19539974D01*
X37106851Y20247080D02*
X37342553Y20482783D01*
X37813958Y20213409D02*
X37477240Y19876691D01*
X36770134Y20583798D01*
X37106851Y20920515D01*
X37544584Y21358248D02*
X37611927Y21425592D01*
X37712943Y21459263D01*
X37780286Y21459263D01*
X37881301Y21425592D01*
X38049660Y21324576D01*
X38218019Y21156218D01*
X38319034Y20987859D01*
X38352706Y20886844D01*
X38352706Y20819500D01*
X38319034Y20718485D01*
X38251691Y20651141D01*
X38150675Y20617470D01*
X38083332Y20617470D01*
X37982317Y20651141D01*
X37813958Y20752157D01*
X37645599Y20920515D01*
X37544584Y21088874D01*
X37510912Y21189889D01*
X37510912Y21257233D01*
X37544584Y21358248D01*
X39160828Y21560279D02*
X38756767Y21156218D01*
X38958797Y21358248D02*
X38251691Y22065355D01*
X38285362Y21896996D01*
X38285362Y21762309D01*
X38251691Y21661294D01*
X38891454Y22705118D02*
X38958797Y22772462D01*
X39059813Y22806134D01*
X39127156Y22806134D01*
X39228172Y22772462D01*
X39396530Y22671447D01*
X39564889Y22503088D01*
X39665904Y22334729D01*
X39699576Y22233714D01*
X39699576Y22166370D01*
X39665904Y22065355D01*
X39598561Y21998011D01*
X39497546Y21964340D01*
X39430202Y21964340D01*
X39329187Y21998011D01*
X39160828Y22099027D01*
X38992469Y22267386D01*
X38891454Y22435744D01*
X38857782Y22536760D01*
X38857782Y22604103D01*
X38891454Y22705118D01*
X68810476Y37945239D02*
X68953333Y37897620D01*
X69191428Y37897620D01*
X69286666Y37945239D01*
X69334285Y37992858D01*
X69381904Y38088096D01*
X69381904Y38183334D01*
X69334285Y38278572D01*
X69286666Y38326191D01*
X69191428Y38373810D01*
X69000952Y38421429D01*
X68905714Y38469048D01*
X68858095Y38516667D01*
X68810476Y38611905D01*
X68810476Y38707143D01*
X68858095Y38802381D01*
X68905714Y38850000D01*
X69000952Y38897620D01*
X69239047Y38897620D01*
X69381904Y38850000D01*
X69715238Y38897620D02*
X69953333Y37897620D01*
X70143809Y38611905D01*
X70334285Y37897620D01*
X70572380Y38897620D01*
X71477142Y37897620D02*
X70905714Y37897620D01*
X71191428Y37897620D02*
X71191428Y38897620D01*
X71096190Y38754762D01*
X71000952Y38659524D01*
X70905714Y38611905D01*
X71810476Y38897620D02*
X72429523Y38897620D01*
X72096190Y38516667D01*
X72239047Y38516667D01*
X72334285Y38469048D01*
X72381904Y38421429D01*
X72429523Y38326191D01*
X72429523Y38088096D01*
X72381904Y37992858D01*
X72334285Y37945239D01*
X72239047Y37897620D01*
X71953333Y37897620D01*
X71858095Y37945239D01*
X71810476Y37992858D01*
X62140476Y38015239D02*
X62283333Y37967620D01*
X62521428Y37967620D01*
X62616666Y38015239D01*
X62664285Y38062858D01*
X62711904Y38158096D01*
X62711904Y38253334D01*
X62664285Y38348572D01*
X62616666Y38396191D01*
X62521428Y38443810D01*
X62330952Y38491429D01*
X62235714Y38539048D01*
X62188095Y38586667D01*
X62140476Y38681905D01*
X62140476Y38777143D01*
X62188095Y38872381D01*
X62235714Y38920000D01*
X62330952Y38967620D01*
X62569047Y38967620D01*
X62711904Y38920000D01*
X63045238Y38967620D02*
X63283333Y37967620D01*
X63473809Y38681905D01*
X63664285Y37967620D01*
X63902380Y38967620D01*
X64807142Y37967620D02*
X64235714Y37967620D01*
X64521428Y37967620D02*
X64521428Y38967620D01*
X64426190Y38824762D01*
X64330952Y38729524D01*
X64235714Y38681905D01*
X65188095Y38872381D02*
X65235714Y38920000D01*
X65330952Y38967620D01*
X65569047Y38967620D01*
X65664285Y38920000D01*
X65711904Y38872381D01*
X65759523Y38777143D01*
X65759523Y38681905D01*
X65711904Y38539048D01*
X65140476Y37967620D01*
X65759523Y37967620D01*
X55190476Y38015239D02*
X55333333Y37967620D01*
X55571428Y37967620D01*
X55666666Y38015239D01*
X55714285Y38062858D01*
X55761904Y38158096D01*
X55761904Y38253334D01*
X55714285Y38348572D01*
X55666666Y38396191D01*
X55571428Y38443810D01*
X55380952Y38491429D01*
X55285714Y38539048D01*
X55238095Y38586667D01*
X55190476Y38681905D01*
X55190476Y38777143D01*
X55238095Y38872381D01*
X55285714Y38920000D01*
X55380952Y38967620D01*
X55619047Y38967620D01*
X55761904Y38920000D01*
X56095238Y38967620D02*
X56333333Y37967620D01*
X56523809Y38681905D01*
X56714285Y37967620D01*
X56952380Y38967620D01*
X57857142Y37967620D02*
X57285714Y37967620D01*
X57571428Y37967620D02*
X57571428Y38967620D01*
X57476190Y38824762D01*
X57380952Y38729524D01*
X57285714Y38681905D01*
X58809523Y37967620D02*
X58238095Y37967620D01*
X58523809Y37967620D02*
X58523809Y38967620D01*
X58428571Y38824762D01*
X58333333Y38729524D01*
X58238095Y38681905D01*
X3834761Y64120477D02*
X3882380Y64263334D01*
X3882380Y64501429D01*
X3834761Y64596667D01*
X3787142Y64644286D01*
X3691904Y64691905D01*
X3596666Y64691905D01*
X3501428Y64644286D01*
X3453809Y64596667D01*
X3406190Y64501429D01*
X3358571Y64310953D01*
X3310952Y64215715D01*
X3263333Y64168096D01*
X3168095Y64120477D01*
X3072857Y64120477D01*
X2977619Y64168096D01*
X2930000Y64215715D01*
X2882380Y64310953D01*
X2882380Y64549048D01*
X2930000Y64691905D01*
X2882380Y65025239D02*
X3882380Y65263334D01*
X3168095Y65453810D01*
X3882380Y65644286D01*
X2882380Y65882381D01*
X3882380Y66787143D02*
X3882380Y66215715D01*
X3882380Y66501429D02*
X2882380Y66501429D01*
X3025238Y66406191D01*
X3120476Y66310953D01*
X3168095Y66215715D01*
X2882380Y67120477D02*
X2882380Y67787143D01*
X3882380Y67358572D01*
X27576666Y37955239D02*
X27719523Y37907620D01*
X27957619Y37907620D01*
X28052857Y37955239D01*
X28100476Y38002858D01*
X28148095Y38098096D01*
X28148095Y38193334D01*
X28100476Y38288572D01*
X28052857Y38336191D01*
X27957619Y38383810D01*
X27767142Y38431429D01*
X27671904Y38479048D01*
X27624285Y38526667D01*
X27576666Y38621905D01*
X27576666Y38717143D01*
X27624285Y38812381D01*
X27671904Y38860000D01*
X27767142Y38907620D01*
X28005238Y38907620D01*
X28148095Y38860000D01*
X28481428Y38907620D02*
X28719523Y37907620D01*
X28910000Y38621905D01*
X29100476Y37907620D01*
X29338571Y38907620D01*
X29624285Y38907620D02*
X30290952Y38907620D01*
X29862380Y37907620D01*
X89884761Y71366667D02*
X89932380Y71509524D01*
X89932380Y71747620D01*
X89884761Y71842858D01*
X89837142Y71890477D01*
X89741904Y71938096D01*
X89646666Y71938096D01*
X89551428Y71890477D01*
X89503809Y71842858D01*
X89456190Y71747620D01*
X89408571Y71557143D01*
X89360952Y71461905D01*
X89313333Y71414286D01*
X89218095Y71366667D01*
X89122857Y71366667D01*
X89027619Y71414286D01*
X88980000Y71461905D01*
X88932380Y71557143D01*
X88932380Y71795239D01*
X88980000Y71938096D01*
X88932380Y72271429D02*
X89932380Y72509524D01*
X89218095Y72700000D01*
X89932380Y72890477D01*
X88932380Y73128572D01*
X89265714Y73938096D02*
X89932380Y73938096D01*
X88884761Y73700000D02*
X89599047Y73461905D01*
X89599047Y74080953D01*
X89884761Y64436667D02*
X89932380Y64579524D01*
X89932380Y64817620D01*
X89884761Y64912858D01*
X89837142Y64960477D01*
X89741904Y65008096D01*
X89646666Y65008096D01*
X89551428Y64960477D01*
X89503809Y64912858D01*
X89456190Y64817620D01*
X89408571Y64627143D01*
X89360952Y64531905D01*
X89313333Y64484286D01*
X89218095Y64436667D01*
X89122857Y64436667D01*
X89027619Y64484286D01*
X88980000Y64531905D01*
X88932380Y64627143D01*
X88932380Y64865239D01*
X88980000Y65008096D01*
X88932380Y65341429D02*
X89932380Y65579524D01*
X89218095Y65770000D01*
X89932380Y65960477D01*
X88932380Y66198572D01*
X88932380Y67055715D02*
X88932380Y66579524D01*
X89408571Y66531905D01*
X89360952Y66579524D01*
X89313333Y66674762D01*
X89313333Y66912858D01*
X89360952Y67008096D01*
X89408571Y67055715D01*
X89503809Y67103334D01*
X89741904Y67103334D01*
X89837142Y67055715D01*
X89884761Y67008096D01*
X89932380Y66912858D01*
X89932380Y66674762D01*
X89884761Y66579524D01*
X89837142Y66531905D01*
X3774761Y77960477D02*
X3822380Y78103334D01*
X3822380Y78341429D01*
X3774761Y78436667D01*
X3727142Y78484286D01*
X3631904Y78531905D01*
X3536666Y78531905D01*
X3441428Y78484286D01*
X3393809Y78436667D01*
X3346190Y78341429D01*
X3298571Y78150953D01*
X3250952Y78055715D01*
X3203333Y78008096D01*
X3108095Y77960477D01*
X3012857Y77960477D01*
X2917619Y78008096D01*
X2870000Y78055715D01*
X2822380Y78150953D01*
X2822380Y78389048D01*
X2870000Y78531905D01*
X2822380Y78865239D02*
X3822380Y79103334D01*
X3108095Y79293810D01*
X3822380Y79484286D01*
X2822380Y79722381D01*
X3822380Y80627143D02*
X3822380Y80055715D01*
X3822380Y80341429D02*
X2822380Y80341429D01*
X2965238Y80246191D01*
X3060476Y80150953D01*
X3108095Y80055715D01*
X2822380Y81531905D02*
X2822380Y81055715D01*
X3298571Y81008096D01*
X3250952Y81055715D01*
X3203333Y81150953D01*
X3203333Y81389048D01*
X3250952Y81484286D01*
X3298571Y81531905D01*
X3393809Y81579524D01*
X3631904Y81579524D01*
X3727142Y81531905D01*
X3774761Y81484286D01*
X3822380Y81389048D01*
X3822380Y81150953D01*
X3774761Y81055715D01*
X3727142Y81008096D01*
X48140476Y37985239D02*
X48283333Y37937620D01*
X48521428Y37937620D01*
X48616666Y37985239D01*
X48664285Y38032858D01*
X48711904Y38128096D01*
X48711904Y38223334D01*
X48664285Y38318572D01*
X48616666Y38366191D01*
X48521428Y38413810D01*
X48330952Y38461429D01*
X48235714Y38509048D01*
X48188095Y38556667D01*
X48140476Y38651905D01*
X48140476Y38747143D01*
X48188095Y38842381D01*
X48235714Y38890000D01*
X48330952Y38937620D01*
X48569047Y38937620D01*
X48711904Y38890000D01*
X49045238Y38937620D02*
X49283333Y37937620D01*
X49473809Y38651905D01*
X49664285Y37937620D01*
X49902380Y38937620D01*
X50807142Y37937620D02*
X50235714Y37937620D01*
X50521428Y37937620D02*
X50521428Y38937620D01*
X50426190Y38794762D01*
X50330952Y38699524D01*
X50235714Y38651905D01*
X51426190Y38937620D02*
X51521428Y38937620D01*
X51616666Y38890000D01*
X51664285Y38842381D01*
X51711904Y38747143D01*
X51759523Y38556667D01*
X51759523Y38318572D01*
X51711904Y38128096D01*
X51664285Y38032858D01*
X51616666Y37985239D01*
X51521428Y37937620D01*
X51426190Y37937620D01*
X51330952Y37985239D01*
X51283333Y38032858D01*
X51235714Y38128096D01*
X51188095Y38318572D01*
X51188095Y38556667D01*
X51235714Y38747143D01*
X51283333Y38842381D01*
X51330952Y38890000D01*
X51426190Y38937620D01*
X20726666Y38055239D02*
X20869523Y38007620D01*
X21107619Y38007620D01*
X21202857Y38055239D01*
X21250476Y38102858D01*
X21298095Y38198096D01*
X21298095Y38293334D01*
X21250476Y38388572D01*
X21202857Y38436191D01*
X21107619Y38483810D01*
X20917142Y38531429D01*
X20821904Y38579048D01*
X20774285Y38626667D01*
X20726666Y38721905D01*
X20726666Y38817143D01*
X20774285Y38912381D01*
X20821904Y38960000D01*
X20917142Y39007620D01*
X21155238Y39007620D01*
X21298095Y38960000D01*
X21631428Y39007620D02*
X21869523Y38007620D01*
X22060000Y38721905D01*
X22250476Y38007620D01*
X22488571Y39007620D01*
X23298095Y39007620D02*
X23107619Y39007620D01*
X23012380Y38960000D01*
X22964761Y38912381D01*
X22869523Y38769524D01*
X22821904Y38579048D01*
X22821904Y38198096D01*
X22869523Y38102858D01*
X22917142Y38055239D01*
X23012380Y38007620D01*
X23202857Y38007620D01*
X23298095Y38055239D01*
X23345714Y38102858D01*
X23393333Y38198096D01*
X23393333Y38436191D01*
X23345714Y38531429D01*
X23298095Y38579048D01*
X23202857Y38626667D01*
X23012380Y38626667D01*
X22917142Y38579048D01*
X22869523Y38531429D01*
X22821904Y38436191D01*
X3864761Y85030477D02*
X3912380Y85173334D01*
X3912380Y85411429D01*
X3864761Y85506667D01*
X3817142Y85554286D01*
X3721904Y85601905D01*
X3626666Y85601905D01*
X3531428Y85554286D01*
X3483809Y85506667D01*
X3436190Y85411429D01*
X3388571Y85220953D01*
X3340952Y85125715D01*
X3293333Y85078096D01*
X3198095Y85030477D01*
X3102857Y85030477D01*
X3007619Y85078096D01*
X2960000Y85125715D01*
X2912380Y85220953D01*
X2912380Y85459048D01*
X2960000Y85601905D01*
X2912380Y85935239D02*
X3912380Y86173334D01*
X3198095Y86363810D01*
X3912380Y86554286D01*
X2912380Y86792381D01*
X3912380Y87697143D02*
X3912380Y87125715D01*
X3912380Y87411429D02*
X2912380Y87411429D01*
X3055238Y87316191D01*
X3150476Y87220953D01*
X3198095Y87125715D01*
X3245714Y88554286D02*
X3912380Y88554286D01*
X2864761Y88316191D02*
X3579047Y88078096D01*
X3579047Y88697143D01*
X34556666Y37955239D02*
X34699523Y37907620D01*
X34937619Y37907620D01*
X35032857Y37955239D01*
X35080476Y38002858D01*
X35128095Y38098096D01*
X35128095Y38193334D01*
X35080476Y38288572D01*
X35032857Y38336191D01*
X34937619Y38383810D01*
X34747142Y38431429D01*
X34651904Y38479048D01*
X34604285Y38526667D01*
X34556666Y38621905D01*
X34556666Y38717143D01*
X34604285Y38812381D01*
X34651904Y38860000D01*
X34747142Y38907620D01*
X34985238Y38907620D01*
X35128095Y38860000D01*
X35461428Y38907620D02*
X35699523Y37907620D01*
X35890000Y38621905D01*
X36080476Y37907620D01*
X36318571Y38907620D01*
X36842380Y38479048D02*
X36747142Y38526667D01*
X36699523Y38574286D01*
X36651904Y38669524D01*
X36651904Y38717143D01*
X36699523Y38812381D01*
X36747142Y38860000D01*
X36842380Y38907620D01*
X37032857Y38907620D01*
X37128095Y38860000D01*
X37175714Y38812381D01*
X37223333Y38717143D01*
X37223333Y38669524D01*
X37175714Y38574286D01*
X37128095Y38526667D01*
X37032857Y38479048D01*
X36842380Y38479048D01*
X36747142Y38431429D01*
X36699523Y38383810D01*
X36651904Y38288572D01*
X36651904Y38098096D01*
X36699523Y38002858D01*
X36747142Y37955239D01*
X36842380Y37907620D01*
X37032857Y37907620D01*
X37128095Y37955239D01*
X37175714Y38002858D01*
X37223333Y38098096D01*
X37223333Y38288572D01*
X37175714Y38383810D01*
X37128095Y38431429D01*
X37032857Y38479048D01*
X41571142Y49659829D02*
X41713999Y49612210D01*
X41761618Y49564591D01*
X41809237Y49469353D01*
X41809237Y49326496D01*
X41761618Y49231258D01*
X41713999Y49183639D01*
X41618761Y49136020D01*
X41237808Y49136020D01*
X41237808Y50136020D01*
X41571142Y50136020D01*
X41666380Y50088400D01*
X41713999Y50040781D01*
X41761618Y49945543D01*
X41761618Y49850305D01*
X41713999Y49755067D01*
X41666380Y49707448D01*
X41571142Y49659829D01*
X41237808Y49659829D01*
X42237808Y49136020D02*
X42237808Y50136020D01*
X42571142Y50136020D02*
X43142570Y50136020D01*
X42856856Y49136020D02*
X42856856Y50136020D01*
X43999713Y49136020D02*
X43428284Y49136020D01*
X43713999Y49136020D02*
X43713999Y50136020D01*
X43618761Y49993162D01*
X43523522Y49897924D01*
X43428284Y49850305D01*
X44856856Y50136020D02*
X44666380Y50136020D01*
X44571142Y50088400D01*
X44523522Y50040781D01*
X44428284Y49897924D01*
X44380665Y49707448D01*
X44380665Y49326496D01*
X44428284Y49231258D01*
X44475903Y49183639D01*
X44571142Y49136020D01*
X44761618Y49136020D01*
X44856856Y49183639D01*
X44904475Y49231258D01*
X44952094Y49326496D01*
X44952094Y49564591D01*
X44904475Y49659829D01*
X44856856Y49707448D01*
X44761618Y49755067D01*
X44571142Y49755067D01*
X44475903Y49707448D01*
X44428284Y49659829D01*
X44380665Y49564591D01*
D14*
X42585427Y47977448D02*
X42585427Y48377448D01*
X42680665Y48377448D01*
X42737808Y48358400D01*
X42775903Y48320305D01*
X42794951Y48282210D01*
X42813999Y48206020D01*
X42813999Y48148877D01*
X42794951Y48072686D01*
X42775903Y48034591D01*
X42737808Y47996496D01*
X42680665Y47977448D01*
X42585427Y47977448D01*
X42966380Y48339353D02*
X42985427Y48358400D01*
X43023522Y48377448D01*
X43118761Y48377448D01*
X43156856Y48358400D01*
X43175903Y48339353D01*
X43194951Y48301258D01*
X43194951Y48263162D01*
X43175903Y48206020D01*
X42947332Y47977448D01*
X43194951Y47977448D01*
X43347332Y48339353D02*
X43366380Y48358400D01*
X43404475Y48377448D01*
X43499713Y48377448D01*
X43537808Y48358400D01*
X43556856Y48339353D01*
X43575903Y48301258D01*
X43575903Y48263162D01*
X43556856Y48206020D01*
X43328284Y47977448D01*
X43575903Y47977448D01*
D10*
X77262266Y64477620D02*
X77262266Y65477620D01*
X77595600Y64763334D01*
X77928933Y65477620D01*
X77928933Y64477620D01*
X78405123Y65001429D02*
X78738457Y65001429D01*
X78881314Y64477620D02*
X78405123Y64477620D01*
X78405123Y65477620D01*
X78881314Y65477620D01*
X79309885Y64477620D02*
X79309885Y65477620D01*
X79643219Y64763334D01*
X79976552Y65477620D01*
X79976552Y64477620D01*
X80357504Y65477620D02*
X80976552Y65477620D01*
X80643219Y65096667D01*
X80786076Y65096667D01*
X80881314Y65049048D01*
X80928933Y65001429D01*
X80976552Y64906191D01*
X80976552Y64668096D01*
X80928933Y64572858D01*
X80881314Y64525239D01*
X80786076Y64477620D01*
X80500361Y64477620D01*
X80405123Y64525239D01*
X80357504Y64572858D01*
D14*
X78609885Y63319048D02*
X78609885Y63719048D01*
X78705123Y63719048D01*
X78762266Y63700000D01*
X78800361Y63661905D01*
X78819409Y63623810D01*
X78838457Y63547620D01*
X78838457Y63490477D01*
X78819409Y63414286D01*
X78800361Y63376191D01*
X78762266Y63338096D01*
X78705123Y63319048D01*
X78609885Y63319048D01*
X78990838Y63680953D02*
X79009885Y63700000D01*
X79047980Y63719048D01*
X79143219Y63719048D01*
X79181314Y63700000D01*
X79200361Y63680953D01*
X79219409Y63642858D01*
X79219409Y63604762D01*
X79200361Y63547620D01*
X78971790Y63319048D01*
X79219409Y63319048D01*
X79600361Y63319048D02*
X79371790Y63319048D01*
X79486076Y63319048D02*
X79486076Y63719048D01*
X79447980Y63661905D01*
X79409885Y63623810D01*
X79371790Y63604762D01*
D10*
X70045390Y49659829D02*
X70188247Y49612210D01*
X70235866Y49564591D01*
X70283485Y49469353D01*
X70283485Y49326496D01*
X70235866Y49231258D01*
X70188247Y49183639D01*
X70093009Y49136020D01*
X69712057Y49136020D01*
X69712057Y50136020D01*
X70045390Y50136020D01*
X70140628Y50088400D01*
X70188247Y50040781D01*
X70235866Y49945543D01*
X70235866Y49850305D01*
X70188247Y49755067D01*
X70140628Y49707448D01*
X70045390Y49659829D01*
X69712057Y49659829D01*
X70712057Y49136020D02*
X70712057Y50136020D01*
X71045390Y50136020D02*
X71616819Y50136020D01*
X71331104Y49136020D02*
X71331104Y50136020D01*
X72473961Y49136020D02*
X71902533Y49136020D01*
X72188247Y49136020D02*
X72188247Y50136020D01*
X72093009Y49993162D01*
X71997771Y49897924D01*
X71902533Y49850305D01*
D14*
X70583485Y47977448D02*
X70583485Y48377448D01*
X70678723Y48377448D01*
X70735866Y48358400D01*
X70773961Y48320305D01*
X70793009Y48282210D01*
X70812057Y48206020D01*
X70812057Y48148877D01*
X70793009Y48072686D01*
X70773961Y48034591D01*
X70735866Y47996496D01*
X70678723Y47977448D01*
X70583485Y47977448D01*
X70964438Y48339353D02*
X70983485Y48358400D01*
X71021580Y48377448D01*
X71116819Y48377448D01*
X71154914Y48358400D01*
X71173961Y48339353D01*
X71193009Y48301258D01*
X71193009Y48263162D01*
X71173961Y48206020D01*
X70945390Y47977448D01*
X71193009Y47977448D01*
X71326342Y48377448D02*
X71573961Y48377448D01*
X71440628Y48225067D01*
X71497771Y48225067D01*
X71535866Y48206020D01*
X71554914Y48186972D01*
X71573961Y48148877D01*
X71573961Y48053639D01*
X71554914Y48015543D01*
X71535866Y47996496D01*
X71497771Y47977448D01*
X71383485Y47977448D01*
X71345390Y47996496D01*
X71326342Y48015543D01*
D10*
X38637142Y6117620D02*
X38637142Y7117620D01*
X38970476Y6403334D01*
X39303809Y7117620D01*
X39303809Y6117620D01*
X39780000Y6117620D02*
X39780000Y6784286D01*
X39780000Y7117620D02*
X39732380Y7070000D01*
X39780000Y7022381D01*
X39827619Y7070000D01*
X39780000Y7117620D01*
X39780000Y7022381D01*
X40256190Y6784286D02*
X40256190Y6117620D01*
X40256190Y6689048D02*
X40303809Y6736667D01*
X40399047Y6784286D01*
X40541904Y6784286D01*
X40637142Y6736667D01*
X40684761Y6641429D01*
X40684761Y6117620D01*
X41160952Y6117620D02*
X41160952Y6784286D01*
X41160952Y7117620D02*
X41113333Y7070000D01*
X41160952Y7022381D01*
X41208571Y7070000D01*
X41160952Y7117620D01*
X41160952Y7022381D01*
X41637142Y6117620D02*
X41637142Y7117620D01*
X41637142Y6736667D02*
X41732380Y6784286D01*
X41922857Y6784286D01*
X42018095Y6736667D01*
X42065714Y6689048D01*
X42113333Y6593810D01*
X42113333Y6308096D01*
X42065714Y6212858D01*
X42018095Y6165239D01*
X41922857Y6117620D01*
X41732380Y6117620D01*
X41637142Y6165239D01*
X42970476Y6117620D02*
X42970476Y6641429D01*
X42922857Y6736667D01*
X42827619Y6784286D01*
X42637142Y6784286D01*
X42541904Y6736667D01*
X42970476Y6165239D02*
X42875238Y6117620D01*
X42637142Y6117620D01*
X42541904Y6165239D01*
X42494285Y6260477D01*
X42494285Y6355715D01*
X42541904Y6450953D01*
X42637142Y6498572D01*
X42875238Y6498572D01*
X42970476Y6546191D01*
X43875238Y6117620D02*
X43875238Y7117620D01*
X43875238Y6165239D02*
X43780000Y6117620D01*
X43589523Y6117620D01*
X43494285Y6165239D01*
X43446666Y6212858D01*
X43399047Y6308096D01*
X43399047Y6593810D01*
X43446666Y6689048D01*
X43494285Y6736667D01*
X43589523Y6784286D01*
X43780000Y6784286D01*
X43875238Y6736667D01*
X44780000Y6784286D02*
X44780000Y5974762D01*
X44732380Y5879524D01*
X44684761Y5831905D01*
X44589523Y5784286D01*
X44446666Y5784286D01*
X44351428Y5831905D01*
X44780000Y6165239D02*
X44684761Y6117620D01*
X44494285Y6117620D01*
X44399047Y6165239D01*
X44351428Y6212858D01*
X44303809Y6308096D01*
X44303809Y6593810D01*
X44351428Y6689048D01*
X44399047Y6736667D01*
X44494285Y6784286D01*
X44684761Y6784286D01*
X44780000Y6736667D01*
X45637142Y6165239D02*
X45541904Y6117620D01*
X45351428Y6117620D01*
X45256190Y6165239D01*
X45208571Y6260477D01*
X45208571Y6641429D01*
X45256190Y6736667D01*
X45351428Y6784286D01*
X45541904Y6784286D01*
X45637142Y6736667D01*
X45684761Y6641429D01*
X45684761Y6546191D01*
X45208571Y6450953D01*
X46875238Y6641429D02*
X47208571Y6641429D01*
X47351428Y6117620D02*
X46875238Y6117620D01*
X46875238Y7117620D01*
X47351428Y7117620D01*
X47684761Y6117620D02*
X48208571Y6784286D01*
X47684761Y6784286D02*
X48208571Y6117620D01*
X48589523Y6784286D02*
X48589523Y5784286D01*
X48589523Y6736667D02*
X48684761Y6784286D01*
X48875238Y6784286D01*
X48970476Y6736667D01*
X49018095Y6689048D01*
X49065714Y6593810D01*
X49065714Y6308096D01*
X49018095Y6212858D01*
X48970476Y6165239D01*
X48875238Y6117620D01*
X48684761Y6117620D01*
X48589523Y6165239D01*
X49922857Y6117620D02*
X49922857Y6641429D01*
X49875238Y6736667D01*
X49780000Y6784286D01*
X49589523Y6784286D01*
X49494285Y6736667D01*
X49922857Y6165239D02*
X49827619Y6117620D01*
X49589523Y6117620D01*
X49494285Y6165239D01*
X49446666Y6260477D01*
X49446666Y6355715D01*
X49494285Y6450953D01*
X49589523Y6498572D01*
X49827619Y6498572D01*
X49922857Y6546191D01*
X50399047Y6784286D02*
X50399047Y6117620D01*
X50399047Y6689048D02*
X50446666Y6736667D01*
X50541904Y6784286D01*
X50684761Y6784286D01*
X50780000Y6736667D01*
X50827619Y6641429D01*
X50827619Y6117620D01*
X51256190Y6165239D02*
X51351428Y6117620D01*
X51541904Y6117620D01*
X51637142Y6165239D01*
X51684761Y6260477D01*
X51684761Y6308096D01*
X51637142Y6403334D01*
X51541904Y6450953D01*
X51399047Y6450953D01*
X51303809Y6498572D01*
X51256190Y6593810D01*
X51256190Y6641429D01*
X51303809Y6736667D01*
X51399047Y6784286D01*
X51541904Y6784286D01*
X51637142Y6736667D01*
X52113333Y6117620D02*
X52113333Y6784286D01*
X52113333Y7117620D02*
X52065714Y7070000D01*
X52113333Y7022381D01*
X52160952Y7070000D01*
X52113333Y7117620D01*
X52113333Y7022381D01*
X52732380Y6117620D02*
X52637142Y6165239D01*
X52589523Y6212858D01*
X52541904Y6308096D01*
X52541904Y6593810D01*
X52589523Y6689048D01*
X52637142Y6736667D01*
X52732380Y6784286D01*
X52875238Y6784286D01*
X52970476Y6736667D01*
X53018095Y6689048D01*
X53065714Y6593810D01*
X53065714Y6308096D01*
X53018095Y6212858D01*
X52970476Y6165239D01*
X52875238Y6117620D01*
X52732380Y6117620D01*
X53494285Y6784286D02*
X53494285Y6117620D01*
X53494285Y6689048D02*
X53541904Y6736667D01*
X53637142Y6784286D01*
X53780000Y6784286D01*
X53875238Y6736667D01*
X53922857Y6641429D01*
X53922857Y6117620D01*
X45469276Y5475220D02*
X45469276Y4760934D01*
X45421657Y4618077D01*
X45326419Y4522839D01*
X45183561Y4475220D01*
X45088323Y4475220D01*
X46469276Y4475220D02*
X45897847Y4475220D01*
X46183561Y4475220D02*
X46183561Y5475220D01*
X46088323Y5332362D01*
X45993085Y5237124D01*
X45897847Y5189505D01*
X46802609Y5475220D02*
X47421657Y5475220D01*
X47088323Y5094267D01*
X47231180Y5094267D01*
X47326419Y5046648D01*
X47374038Y4999029D01*
X47421657Y4903791D01*
X47421657Y4665696D01*
X47374038Y4570458D01*
X47326419Y4522839D01*
X47231180Y4475220D01*
X46945466Y4475220D01*
X46850228Y4522839D01*
X46802609Y4570458D01*
M02*
