G04 #@! TF.GenerationSoftware,KiCad,Pcbnew,(5.1.5)-3*
G04 #@! TF.CreationDate,2020-11-22T15:34:09-07:00*
G04 #@! TF.ProjectId,purplewizard,70757270-6c65-4776-997a-6172642e6b69,0.1*
G04 #@! TF.SameCoordinates,Original*
G04 #@! TF.FileFunction,Other,User*
%FSLAX46Y46*%
G04 Gerber Fmt 4.6, Leading zero omitted, Abs format (unit mm)*
G04 Created by KiCad (PCBNEW (5.1.5)-3) date 2020-11-22 15:34:09*
%MOMM*%
%LPD*%
G04 APERTURE LIST*
%ADD10C,0.050000*%
G04 APERTURE END LIST*
D10*
X128850811Y-50600484D02*
X143394788Y-56774036D01*
X134496876Y-37299189D02*
X128850811Y-50600484D01*
X149040852Y-43472741D02*
X134496876Y-37299189D01*
X143394788Y-56774036D02*
X149040852Y-43472741D01*
X142305600Y-93313600D02*
X144805600Y-93313600D01*
X142305600Y-93313600D02*
X142305600Y-90813600D01*
X144805600Y-90813600D02*
X144805600Y-93313600D01*
X144805600Y-90813600D02*
X142305600Y-90813600D01*
X142305600Y-98389600D02*
X144805600Y-98389600D01*
X142305600Y-98389600D02*
X142305600Y-95889600D01*
X144805600Y-95889600D02*
X144805600Y-98389600D01*
X144805600Y-95889600D02*
X142305600Y-95889600D01*
X146145600Y-105163600D02*
X146145600Y-106623600D01*
X146145600Y-106623600D02*
X149105600Y-106623600D01*
X149105600Y-106623600D02*
X149105600Y-105163600D01*
X149105600Y-105163600D02*
X146145600Y-105163600D01*
X144855600Y-96243600D02*
X144855600Y-99543600D01*
X144855600Y-96243600D02*
X147355600Y-96243600D01*
X147355600Y-99543600D02*
X144855600Y-99543600D01*
X147355600Y-99543600D02*
X147355600Y-96243600D01*
X144805600Y-103503600D02*
X142305600Y-103503600D01*
X144805600Y-103503600D02*
X144805600Y-106003600D01*
X142305600Y-106003600D02*
X142305600Y-103503600D01*
X142305600Y-106003600D02*
X144805600Y-106003600D01*
X182625600Y-165783600D02*
G75*
G03X182625600Y-165783600I-1250000J0D01*
G01*
X108925600Y-78973600D02*
G75*
G03X108925600Y-78973600I-1250000J0D01*
G01*
X125085600Y-74563600D02*
X125085600Y-68363600D01*
X125085600Y-68363600D02*
X131285600Y-68363600D01*
X131285600Y-68363600D02*
X131285600Y-74563600D01*
X131285600Y-74563600D02*
X125085600Y-74563600D01*
X150515600Y-113763600D02*
X150515600Y-82663600D01*
X158415600Y-113763600D02*
X150515600Y-113763600D01*
X158415600Y-82663600D02*
X158415600Y-113763600D01*
X150515600Y-82663600D02*
X158415600Y-82663600D01*
X184894280Y-158805760D02*
X188394280Y-158805760D01*
X184894280Y-151805760D02*
X184894280Y-158805760D01*
X188394280Y-151805760D02*
X184894280Y-151805760D01*
X188394280Y-158805760D02*
X188394280Y-151805760D01*
X157655600Y-50616932D02*
X157655600Y-47656932D01*
X156195600Y-50616932D02*
X157655600Y-50616932D01*
X156195600Y-47656932D02*
X156195600Y-50616932D01*
X157655600Y-47656932D02*
X156195600Y-47656932D01*
X112004860Y-124743660D02*
X112004860Y-121783660D01*
X110544860Y-124743660D02*
X112004860Y-124743660D01*
X110544860Y-121783660D02*
X110544860Y-124743660D01*
X112004860Y-121783660D02*
X110544860Y-121783660D01*
X107621320Y-125258380D02*
X107621320Y-128218380D01*
X109081320Y-125258380D02*
X107621320Y-125258380D01*
X109081320Y-128218380D02*
X109081320Y-125258380D01*
X107621320Y-128218380D02*
X109081320Y-128218380D01*
X137475600Y-69733600D02*
X134515600Y-69733600D01*
X137475600Y-71193600D02*
X137475600Y-69733600D01*
X134515600Y-71193600D02*
X137475600Y-71193600D01*
X134515600Y-69733600D02*
X134515600Y-71193600D01*
X184047600Y-161441000D02*
X184047600Y-158481000D01*
X182587600Y-161441000D02*
X184047600Y-161441000D01*
X182587600Y-158481000D02*
X182587600Y-161441000D01*
X184047600Y-158481000D02*
X182587600Y-158481000D01*
X113252500Y-145146580D02*
X113252500Y-148106580D01*
X114712500Y-145146580D02*
X113252500Y-145146580D01*
X114712500Y-148106580D02*
X114712500Y-145146580D01*
X113252500Y-148106580D02*
X114712500Y-148106580D01*
X110375600Y-156083600D02*
X110375600Y-159043600D01*
X111835600Y-156083600D02*
X110375600Y-156083600D01*
X111835600Y-159043600D02*
X111835600Y-156083600D01*
X110375600Y-159043600D02*
X111835600Y-159043600D01*
X165945600Y-78433600D02*
X162985600Y-78433600D01*
X165945600Y-79893600D02*
X165945600Y-78433600D01*
X162985600Y-79893600D02*
X165945600Y-79893600D01*
X162985600Y-78433600D02*
X162985600Y-79893600D01*
X168715600Y-71703600D02*
X168715600Y-74663600D01*
X170175600Y-71703600D02*
X168715600Y-71703600D01*
X170175600Y-74663600D02*
X170175600Y-71703600D01*
X168715600Y-74663600D02*
X170175600Y-74663600D01*
X178895600Y-133353600D02*
X175935600Y-133353600D01*
X178895600Y-134813600D02*
X178895600Y-133353600D01*
X175935600Y-134813600D02*
X178895600Y-134813600D01*
X175935600Y-133353600D02*
X175935600Y-134813600D01*
X165945600Y-76483600D02*
X162985600Y-76483600D01*
X165945600Y-77943600D02*
X165945600Y-76483600D01*
X162985600Y-77943600D02*
X165945600Y-77943600D01*
X162985600Y-76483600D02*
X162985600Y-77943600D01*
X108055600Y-150273600D02*
X108055600Y-150273600D01*
X108055600Y-148773600D02*
X108055600Y-150273600D01*
X110305600Y-148773600D02*
X108055600Y-148773600D01*
X110305600Y-141773600D02*
X110305600Y-148773600D01*
X108055600Y-141773600D02*
X110305600Y-141773600D01*
X108055600Y-140273600D02*
X108055600Y-141773600D01*
X103555600Y-140273600D02*
X108055600Y-140273600D01*
X103555600Y-142023600D02*
X103555600Y-140273600D01*
X103305600Y-142023600D02*
X103555600Y-142023600D01*
X103305600Y-142773600D02*
X103305600Y-142023600D01*
X101555600Y-142773600D02*
X103305600Y-142773600D01*
X101555600Y-147773600D02*
X101555600Y-142773600D01*
X103055600Y-147773600D02*
X101555600Y-147773600D01*
X103055600Y-148523600D02*
X103055600Y-147773600D01*
X103555600Y-148523600D02*
X103055600Y-148523600D01*
X103555600Y-150273600D02*
X103555600Y-148523600D01*
X108055600Y-150273600D02*
X103555600Y-150273600D01*
X157645600Y-47590266D02*
X157645600Y-44630266D01*
X156185600Y-47590266D02*
X157645600Y-47590266D01*
X156185600Y-44630266D02*
X156185600Y-47590266D01*
X157645600Y-44630266D02*
X156185600Y-44630266D01*
X164145600Y-113923600D02*
X164145600Y-116883600D01*
X165605600Y-113923600D02*
X164145600Y-113923600D01*
X165605600Y-116883600D02*
X165605600Y-113923600D01*
X164145600Y-116883600D02*
X165605600Y-116883600D01*
X165215600Y-39623600D02*
X162255600Y-39623600D01*
X165215600Y-41083600D02*
X165215600Y-39623600D01*
X162255600Y-41083600D02*
X165215600Y-41083600D01*
X162255600Y-39623600D02*
X162255600Y-41083600D01*
X134515600Y-72683600D02*
X137475600Y-72683600D01*
X134515600Y-71223600D02*
X134515600Y-72683600D01*
X137475600Y-71223600D02*
X134515600Y-71223600D01*
X137475600Y-72683600D02*
X137475600Y-71223600D01*
X134515600Y-75663600D02*
X137475600Y-75663600D01*
X134515600Y-74203600D02*
X134515600Y-75663600D01*
X137475600Y-74203600D02*
X134515600Y-74203600D01*
X137475600Y-75663600D02*
X137475600Y-74203600D01*
X126465600Y-64098600D02*
X129425600Y-64098600D01*
X126465600Y-62638600D02*
X126465600Y-64098600D01*
X129425600Y-62638600D02*
X126465600Y-62638600D01*
X129425600Y-64098600D02*
X129425600Y-62638600D01*
X126465600Y-62553600D02*
X129425600Y-62553600D01*
X126465600Y-61093600D02*
X126465600Y-62553600D01*
X129425600Y-61093600D02*
X126465600Y-61093600D01*
X129425600Y-62553600D02*
X129425600Y-61093600D01*
X137475600Y-72713600D02*
X134515600Y-72713600D01*
X137475600Y-74173600D02*
X137475600Y-72713600D01*
X134515600Y-74173600D02*
X137475600Y-74173600D01*
X134515600Y-72713600D02*
X134515600Y-74173600D01*
X151585600Y-45853600D02*
X151585600Y-49353600D01*
X151585600Y-45853600D02*
X155685600Y-45853600D01*
X155685600Y-49353600D02*
X151585600Y-49353600D01*
X155685600Y-49353600D02*
X155685600Y-45853600D01*
X105751380Y-124205180D02*
X105751380Y-121245180D01*
X104291380Y-124205180D02*
X105751380Y-124205180D01*
X104291380Y-121245180D02*
X104291380Y-124205180D01*
X105751380Y-121245180D02*
X104291380Y-121245180D01*
X112005600Y-155968600D02*
X112005600Y-152608600D01*
X110105600Y-155968600D02*
X112005600Y-155968600D01*
X110105600Y-152608600D02*
X110105600Y-155968600D01*
X112005600Y-152608600D02*
X110105600Y-152608600D01*
X128695600Y-109423600D02*
X128695600Y-112383600D01*
X130155600Y-109423600D02*
X128695600Y-109423600D01*
X130155600Y-112383600D02*
X130155600Y-109423600D01*
X128695600Y-112383600D02*
X130155600Y-112383600D01*
X180835000Y-158481000D02*
X180835000Y-161441000D01*
X182295000Y-158481000D02*
X180835000Y-158481000D01*
X182295000Y-161441000D02*
X182295000Y-158481000D01*
X180835000Y-161441000D02*
X182295000Y-161441000D01*
X147265600Y-85303600D02*
X147265600Y-88263600D01*
X148725600Y-85303600D02*
X147265600Y-85303600D01*
X148725600Y-88263600D02*
X148725600Y-85303600D01*
X147265600Y-88263600D02*
X148725600Y-88263600D01*
X154695600Y-52143600D02*
X157655600Y-52143600D01*
X154695600Y-50683600D02*
X154695600Y-52143600D01*
X157655600Y-50683600D02*
X154695600Y-50683600D01*
X157655600Y-52143600D02*
X157655600Y-50683600D01*
X158195600Y-50193600D02*
X158195600Y-53153600D01*
X159655600Y-50193600D02*
X158195600Y-50193600D01*
X159655600Y-53153600D02*
X159655600Y-50193600D01*
X158195600Y-53153600D02*
X159655600Y-53153600D01*
X158195600Y-42263600D02*
X158195600Y-45223600D01*
X159655600Y-42263600D02*
X158195600Y-42263600D01*
X159655600Y-45223600D02*
X159655600Y-42263600D01*
X158195600Y-45223600D02*
X159655600Y-45223600D01*
X110109080Y-124573440D02*
X110109080Y-120973440D01*
X106309080Y-124573440D02*
X110109080Y-124573440D01*
X106309080Y-120973440D02*
X106309080Y-124573440D01*
X110109080Y-120973440D02*
X106309080Y-120973440D01*
X154685600Y-44563600D02*
X157645600Y-44563600D01*
X154685600Y-43103600D02*
X154685600Y-44563600D01*
X157645600Y-43103600D02*
X154685600Y-43103600D01*
X157645600Y-44563600D02*
X157645600Y-43103600D01*
X118308440Y-158308100D02*
X118308440Y-149108100D01*
X128508440Y-158308100D02*
X118308440Y-158308100D01*
X128508440Y-149108100D02*
X128508440Y-158308100D01*
X118308440Y-149108100D02*
X128508440Y-149108100D01*
X117137400Y-148924540D02*
X113037400Y-148924540D01*
X117137400Y-148924540D02*
X117137400Y-152324540D01*
X113037400Y-152324540D02*
X113037400Y-148924540D01*
X113037400Y-152324540D02*
X117137400Y-152324540D01*
X187208360Y-150964280D02*
X187208360Y-143564280D01*
X187208360Y-143564280D02*
X191658360Y-143564280D01*
X191658360Y-143564280D02*
X191658360Y-150964280D01*
X191658360Y-150964280D02*
X187208360Y-150964280D01*
X146255600Y-51093600D02*
X146255600Y-54053600D01*
X147715600Y-51093600D02*
X146255600Y-51093600D01*
X147715600Y-54053600D02*
X147715600Y-51093600D01*
X146255600Y-54053600D02*
X147715600Y-54053600D01*
X113300600Y-153968600D02*
X116260600Y-153968600D01*
X113300600Y-152508600D02*
X113300600Y-153968600D01*
X116260600Y-152508600D02*
X113300600Y-152508600D01*
X116260600Y-153968600D02*
X116260600Y-152508600D01*
X167185600Y-69803600D02*
X167185600Y-75003600D01*
X161985600Y-69803600D02*
X167185600Y-69803600D01*
X161985600Y-75003600D02*
X161985600Y-69803600D01*
X167185600Y-75003600D02*
X161985600Y-75003600D01*
X106155600Y-157938600D02*
X109755600Y-157938600D01*
X106155600Y-154138600D02*
X106155600Y-157938600D01*
X109755600Y-154138600D02*
X106155600Y-154138600D01*
X109755600Y-157938600D02*
X109755600Y-154138600D01*
X107808780Y-120506940D02*
X107808780Y-117546940D01*
X106348780Y-120506940D02*
X107808780Y-120506940D01*
X106348780Y-117546940D02*
X106348780Y-120506940D01*
X107808780Y-117546940D02*
X106348780Y-117546940D01*
X148135600Y-79243600D02*
X151095600Y-79243600D01*
X148135600Y-77783600D02*
X148135600Y-79243600D01*
X151095600Y-77783600D02*
X148135600Y-77783600D01*
X151095600Y-79243600D02*
X151095600Y-77783600D01*
X134515600Y-77273600D02*
X137475600Y-77273600D01*
X134515600Y-75813600D02*
X134515600Y-77273600D01*
X137475600Y-75813600D02*
X134515600Y-75813600D01*
X137475600Y-77273600D02*
X137475600Y-75813600D01*
X170555600Y-42493600D02*
X161645600Y-42493600D01*
X170555600Y-52933600D02*
X170555600Y-42493600D01*
X161645600Y-52933600D02*
X170555600Y-52933600D01*
X161645600Y-42493600D02*
X161645600Y-52933600D01*
X127475600Y-75933600D02*
X124515600Y-75933600D01*
X127475600Y-77393600D02*
X127475600Y-75933600D01*
X124515600Y-77393600D02*
X127475600Y-77393600D01*
X124515600Y-75933600D02*
X124515600Y-77393600D01*
X180835000Y-155407600D02*
X180835000Y-158367600D01*
X182295000Y-155407600D02*
X180835000Y-155407600D01*
X182295000Y-158367600D02*
X182295000Y-155407600D01*
X180835000Y-158367600D02*
X182295000Y-158367600D01*
X147935600Y-77783600D02*
X144975600Y-77783600D01*
X147935600Y-79243600D02*
X147935600Y-77783600D01*
X144975600Y-79243600D02*
X147935600Y-79243600D01*
X144975600Y-77783600D02*
X144975600Y-79243600D01*
X178185600Y-117993600D02*
X166325600Y-117993600D01*
X178185600Y-107193600D02*
X178185600Y-117993600D01*
X166325600Y-107193600D02*
X178185600Y-107193600D01*
X166325600Y-117993600D02*
X166325600Y-107193600D01*
X104374500Y-126716540D02*
X107334500Y-126716540D01*
X104374500Y-125256540D02*
X104374500Y-126716540D01*
X107334500Y-125256540D02*
X104374500Y-125256540D01*
X107334500Y-126716540D02*
X107334500Y-125256540D01*
X139315600Y-113473600D02*
X134115600Y-113473600D01*
X139315600Y-108273600D02*
X139315600Y-113473600D01*
X134115600Y-108273600D02*
X139315600Y-108273600D01*
X134115600Y-113473600D02*
X134115600Y-108273600D01*
X165215600Y-37953600D02*
X162255600Y-37953600D01*
X165215600Y-39413600D02*
X165215600Y-37953600D01*
X162255600Y-39413600D02*
X165215600Y-39413600D01*
X162255600Y-37953600D02*
X162255600Y-39413600D01*
X160235600Y-63488600D02*
X157735600Y-63488600D01*
X160235600Y-63488600D02*
X160235600Y-65988600D01*
X157735600Y-65988600D02*
X157735600Y-63488600D01*
X157735600Y-65988600D02*
X160235600Y-65988600D01*
X189285600Y-87706933D02*
X191185600Y-87706933D01*
X191185600Y-87706933D02*
X191185600Y-91706933D01*
X189285600Y-91706933D02*
X191185600Y-91706933D01*
X189285600Y-87706933D02*
X189285600Y-91706933D01*
X193505600Y-108063600D02*
X191005600Y-108063600D01*
X193505600Y-108063600D02*
X193505600Y-110563600D01*
X191005600Y-110563600D02*
X191005600Y-108063600D01*
X191005600Y-110563600D02*
X193505600Y-110563600D01*
X127533360Y-139427200D02*
X129433360Y-139427200D01*
X129433360Y-139427200D02*
X129433360Y-143427200D01*
X127533360Y-143427200D02*
X129433360Y-143427200D01*
X127533360Y-139427200D02*
X127533360Y-143427200D01*
X193485600Y-114723600D02*
X190985600Y-114723600D01*
X193485600Y-114723600D02*
X193485600Y-117223600D01*
X190985600Y-117223600D02*
X190985600Y-114723600D01*
X190985600Y-117223600D02*
X193485600Y-117223600D01*
X193505600Y-111396933D02*
X191005600Y-111396933D01*
X193505600Y-111396933D02*
X193505600Y-113896933D01*
X191005600Y-113896933D02*
X191005600Y-111396933D01*
X191005600Y-113896933D02*
X193505600Y-113896933D01*
X140784902Y-127900680D02*
X142684902Y-127900680D01*
X142684902Y-127900680D02*
X142684902Y-131900680D01*
X140784902Y-131900680D02*
X142684902Y-131900680D01*
X140784902Y-127900680D02*
X140784902Y-131900680D01*
X138244540Y-139427200D02*
X140144540Y-139427200D01*
X140144540Y-139427200D02*
X140144540Y-143427200D01*
X138244540Y-143427200D02*
X140144540Y-143427200D01*
X138244540Y-139427200D02*
X138244540Y-143427200D01*
X164272555Y-139427200D02*
X166172555Y-139427200D01*
X166172555Y-139427200D02*
X166172555Y-143427200D01*
X164272555Y-143427200D02*
X166172555Y-143427200D01*
X164272555Y-139427200D02*
X164272555Y-143427200D01*
X155801020Y-139427200D02*
X157701020Y-139427200D01*
X157701020Y-139427200D02*
X157701020Y-143427200D01*
X155801020Y-143427200D02*
X157701020Y-143427200D01*
X155801020Y-139427200D02*
X155801020Y-143427200D01*
X189285600Y-80673600D02*
X191185600Y-80673600D01*
X191185600Y-80673600D02*
X191185600Y-84673600D01*
X189285600Y-84673600D02*
X191185600Y-84673600D01*
X189285600Y-80673600D02*
X189285600Y-84673600D01*
X116775600Y-84593600D02*
X116775600Y-86493600D01*
X116775600Y-86493600D02*
X112775600Y-86493600D01*
X112775600Y-84593600D02*
X112775600Y-86493600D01*
X116775600Y-84593600D02*
X112775600Y-84593600D01*
X167096400Y-139427200D02*
X168996400Y-139427200D01*
X168996400Y-139427200D02*
X168996400Y-143427200D01*
X167096400Y-143427200D02*
X168996400Y-143427200D01*
X167096400Y-139427200D02*
X167096400Y-143427200D01*
X193505600Y-118063600D02*
X191005600Y-118063600D01*
X193505600Y-118063600D02*
X193505600Y-120563600D01*
X191005600Y-120563600D02*
X191005600Y-118063600D01*
X191005600Y-120563600D02*
X193505600Y-120563600D01*
X116775600Y-105623600D02*
X116775600Y-107523600D01*
X116775600Y-107523600D02*
X112775600Y-107523600D01*
X112775600Y-105623600D02*
X112775600Y-107523600D01*
X116775600Y-105623600D02*
X112775600Y-105623600D01*
X144805600Y-100965600D02*
X142305600Y-100965600D01*
X144805600Y-100965600D02*
X144805600Y-103465600D01*
X142305600Y-103465600D02*
X142305600Y-100965600D01*
X142305600Y-103465600D02*
X144805600Y-103465600D01*
X144805600Y-98427600D02*
X142305600Y-98427600D01*
X144805600Y-98427600D02*
X144805600Y-100927600D01*
X142305600Y-100927600D02*
X142305600Y-98427600D01*
X142305600Y-100927600D02*
X144805600Y-100927600D01*
X189285600Y-94740266D02*
X191185600Y-94740266D01*
X191185600Y-94740266D02*
X191185600Y-98740266D01*
X189285600Y-98740266D02*
X191185600Y-98740266D01*
X189285600Y-94740266D02*
X189285600Y-98740266D01*
X130211155Y-139427200D02*
X132111155Y-139427200D01*
X132111155Y-139427200D02*
X132111155Y-143427200D01*
X130211155Y-143427200D02*
X132111155Y-143427200D01*
X130211155Y-139427200D02*
X130211155Y-143427200D01*
X161448710Y-139427200D02*
X163348710Y-139427200D01*
X163348710Y-139427200D02*
X163348710Y-143427200D01*
X161448710Y-143427200D02*
X163348710Y-143427200D01*
X161448710Y-139427200D02*
X161448710Y-143427200D01*
X144805600Y-93351600D02*
X142305600Y-93351600D01*
X144805600Y-93351600D02*
X144805600Y-95851600D01*
X142305600Y-95851600D02*
X142305600Y-93351600D01*
X142305600Y-95851600D02*
X144805600Y-95851600D01*
X126821434Y-127900680D02*
X128721434Y-127900680D01*
X128721434Y-127900680D02*
X128721434Y-131900680D01*
X126821434Y-131900680D02*
X128721434Y-131900680D01*
X126821434Y-127900680D02*
X126821434Y-131900680D01*
X154748370Y-127900680D02*
X156648370Y-127900680D01*
X156648370Y-127900680D02*
X156648370Y-131900680D01*
X154748370Y-131900680D02*
X156648370Y-131900680D01*
X154748370Y-127900680D02*
X154748370Y-131900680D01*
X133803168Y-127900680D02*
X135703168Y-127900680D01*
X135703168Y-127900680D02*
X135703168Y-131900680D01*
X133803168Y-131900680D02*
X135703168Y-131900680D01*
X133803168Y-127900680D02*
X133803168Y-131900680D01*
X119839700Y-127900680D02*
X121739700Y-127900680D01*
X121739700Y-127900680D02*
X121739700Y-131900680D01*
X119839700Y-131900680D02*
X121739700Y-131900680D01*
X119839700Y-127900680D02*
X119839700Y-131900680D01*
X161730104Y-127900680D02*
X163630104Y-127900680D01*
X163630104Y-127900680D02*
X163630104Y-131900680D01*
X161730104Y-131900680D02*
X163630104Y-131900680D01*
X161730104Y-127900680D02*
X161730104Y-131900680D01*
X116775600Y-91603600D02*
X116775600Y-93503600D01*
X116775600Y-93503600D02*
X112775600Y-93503600D01*
X112775600Y-91603600D02*
X112775600Y-93503600D01*
X116775600Y-91603600D02*
X112775600Y-91603600D01*
X116775600Y-98613600D02*
X116775600Y-100513600D01*
X116775600Y-100513600D02*
X112775600Y-100513600D01*
X112775600Y-98613600D02*
X112775600Y-100513600D01*
X116775600Y-98613600D02*
X112775600Y-98613600D01*
X168711840Y-127900680D02*
X170611840Y-127900680D01*
X170611840Y-127900680D02*
X170611840Y-131900680D01*
X168711840Y-131900680D02*
X170611840Y-131900680D01*
X168711840Y-127900680D02*
X168711840Y-131900680D01*
X189285600Y-101773600D02*
X191185600Y-101773600D01*
X191185600Y-101773600D02*
X191185600Y-105773600D01*
X189285600Y-105773600D02*
X191185600Y-105773600D01*
X189285600Y-101773600D02*
X189285600Y-105773600D01*
X132888950Y-139427200D02*
X134788950Y-139427200D01*
X134788950Y-139427200D02*
X134788950Y-143427200D01*
X132888950Y-143427200D02*
X134788950Y-143427200D01*
X132888950Y-139427200D02*
X132888950Y-143427200D01*
X135566745Y-139427200D02*
X137466745Y-139427200D01*
X137466745Y-139427200D02*
X137466745Y-143427200D01*
X135566745Y-143427200D02*
X137466745Y-143427200D01*
X135566745Y-139427200D02*
X135566745Y-143427200D01*
X147766636Y-127900680D02*
X149666636Y-127900680D01*
X149666636Y-127900680D02*
X149666636Y-131900680D01*
X147766636Y-131900680D02*
X149666636Y-131900680D01*
X147766636Y-127900680D02*
X147766636Y-131900680D01*
X158624865Y-139427200D02*
X160524865Y-139427200D01*
X160524865Y-139427200D02*
X160524865Y-143427200D01*
X158624865Y-143427200D02*
X160524865Y-143427200D01*
X158624865Y-139427200D02*
X158624865Y-143427200D01*
X129425600Y-64183600D02*
X126465600Y-64183600D01*
X129425600Y-65643600D02*
X129425600Y-64183600D01*
X126465600Y-65643600D02*
X129425600Y-65643600D01*
X126465600Y-64183600D02*
X126465600Y-65643600D01*
X132575600Y-75933600D02*
X129615600Y-75933600D01*
X132575600Y-77393600D02*
X132575600Y-75933600D01*
X129615600Y-77393600D02*
X132575600Y-77393600D01*
X129615600Y-75933600D02*
X129615600Y-77393600D01*
X104983340Y-137159880D02*
X108483340Y-137159880D01*
X104983340Y-130159880D02*
X104983340Y-137159880D01*
X108483340Y-130159880D02*
X104983340Y-130159880D01*
X108483340Y-137159880D02*
X108483340Y-130159880D01*
X146195600Y-107313600D02*
X146195600Y-108773600D01*
X146195600Y-108773600D02*
X149155600Y-108773600D01*
X149155600Y-108773600D02*
X149155600Y-107313600D01*
X149155600Y-107313600D02*
X146195600Y-107313600D01*
X155059900Y-67063600D02*
X141359900Y-67063600D01*
X155059900Y-76113600D02*
X155059900Y-67063600D01*
X141359900Y-76113600D02*
X155059900Y-76113600D01*
X141359900Y-67063600D02*
X141359900Y-76113600D01*
X135675600Y-59703600D02*
X135675600Y-61163600D01*
X135675600Y-61163600D02*
X138635600Y-61163600D01*
X138635600Y-61163600D02*
X138635600Y-59703600D01*
X138635600Y-59703600D02*
X135675600Y-59703600D01*
X189805600Y-138883600D02*
X187305600Y-138883600D01*
X189805600Y-138883600D02*
X189805600Y-141383600D01*
X187305600Y-141383600D02*
X187305600Y-138883600D01*
X187305600Y-141383600D02*
X189805600Y-141383600D01*
X187305600Y-138798600D02*
X189805600Y-138798600D01*
X187305600Y-138798600D02*
X187305600Y-136298600D01*
X189805600Y-136298600D02*
X189805600Y-138798600D01*
X189805600Y-136298600D02*
X187305600Y-136298600D01*
X187305600Y-136213600D02*
X189805600Y-136213600D01*
X187305600Y-136213600D02*
X187305600Y-133713600D01*
X189805600Y-133713600D02*
X189805600Y-136213600D01*
X189805600Y-133713600D02*
X187305600Y-133713600D01*
X104435600Y-152623600D02*
X104435600Y-155583600D01*
X105895600Y-152623600D02*
X104435600Y-152623600D01*
X105895600Y-155583600D02*
X105895600Y-152623600D01*
X104435600Y-155583600D02*
X105895600Y-155583600D01*
X104445600Y-158773600D02*
X105905600Y-158773600D01*
X105905600Y-158773600D02*
X105905600Y-155813600D01*
X105905600Y-155813600D02*
X104445600Y-155813600D01*
X104445600Y-155813600D02*
X104445600Y-158773600D01*
X107955600Y-153993600D02*
X109855600Y-153993600D01*
X109855600Y-153993600D02*
X109855600Y-150633600D01*
X109855600Y-150633600D02*
X107955600Y-150633600D01*
X107955600Y-150633600D02*
X107955600Y-153993600D01*
X157735600Y-62593600D02*
X160235600Y-62593600D01*
X157735600Y-62593600D02*
X157735600Y-60093600D01*
X160235600Y-60093600D02*
X160235600Y-62593600D01*
X160235600Y-60093600D02*
X157735600Y-60093600D01*
X160235600Y-66883600D02*
X157735600Y-66883600D01*
X160235600Y-66883600D02*
X160235600Y-69383600D01*
X157735600Y-69383600D02*
X157735600Y-66883600D01*
X157735600Y-69383600D02*
X160235600Y-69383600D01*
X176095600Y-73163600D02*
X178595600Y-73163600D01*
X176095600Y-73163600D02*
X176095600Y-70663600D01*
X178595600Y-70663600D02*
X178595600Y-73163600D01*
X178595600Y-70663600D02*
X176095600Y-70663600D01*
X179505600Y-73163600D02*
X182005600Y-73163600D01*
X179505600Y-73163600D02*
X179505600Y-70663600D01*
X182005600Y-70663600D02*
X182005600Y-73163600D01*
X182005600Y-70663600D02*
X179505600Y-70663600D01*
M02*
