G04 #@! TF.GenerationSoftware,KiCad,Pcbnew,(5.1.5)-3*
G04 #@! TF.CreationDate,2021-01-15T00:49:49-07:00*
G04 #@! TF.ProjectId,purplewizard,70757270-6c65-4776-997a-6172642e6b69,0.1*
G04 #@! TF.SameCoordinates,PX613b810PYa454c00*
G04 #@! TF.FileFunction,Other,User*
%FSLAX46Y46*%
G04 Gerber Fmt 4.6, Leading zero omitted, Abs format (unit mm)*
G04 Created by KiCad (PCBNEW (5.1.5)-3) date 2021-01-15 00:49:49*
%MOMM*%
%LPD*%
G04 APERTURE LIST*
%ADD10C,0.050000*%
G04 APERTURE END LIST*
D10*
X26895211Y121713116D02*
X41439188Y115539564D01*
X32541276Y135014411D02*
X26895211Y121713116D01*
X47085252Y128840859D02*
X32541276Y135014411D01*
X41439188Y115539564D02*
X47085252Y128840859D01*
X40350000Y79000000D02*
X42850000Y79000000D01*
X40350000Y79000000D02*
X40350000Y81500000D01*
X42850000Y81500000D02*
X42850000Y79000000D01*
X42850000Y81500000D02*
X40350000Y81500000D01*
X40350000Y73924000D02*
X42850000Y73924000D01*
X40350000Y73924000D02*
X40350000Y76424000D01*
X42850000Y76424000D02*
X42850000Y73924000D01*
X42850000Y76424000D02*
X40350000Y76424000D01*
X44190000Y67150000D02*
X44190000Y65690000D01*
X44190000Y65690000D02*
X47150000Y65690000D01*
X47150000Y65690000D02*
X47150000Y67150000D01*
X47150000Y67150000D02*
X44190000Y67150000D01*
X42900000Y76070000D02*
X42900000Y72770000D01*
X42900000Y76070000D02*
X45400000Y76070000D01*
X45400000Y72770000D02*
X42900000Y72770000D01*
X45400000Y72770000D02*
X45400000Y76070000D01*
X42850000Y68810000D02*
X40350000Y68810000D01*
X42850000Y68810000D02*
X42850000Y66310000D01*
X40350000Y66310000D02*
X40350000Y68810000D01*
X40350000Y66310000D02*
X42850000Y66310000D01*
X80670000Y6530000D02*
G75*
G03X80670000Y6530000I-1250000J0D01*
G01*
X6970000Y93340000D02*
G75*
G03X6970000Y93340000I-1250000J0D01*
G01*
X23130000Y97750000D02*
X23130000Y103950000D01*
X23130000Y103950000D02*
X29330000Y103950000D01*
X29330000Y103950000D02*
X29330000Y97750000D01*
X29330000Y97750000D02*
X23130000Y97750000D01*
X48560000Y58550000D02*
X48560000Y89650000D01*
X56460000Y58550000D02*
X48560000Y58550000D01*
X56460000Y89650000D02*
X56460000Y58550000D01*
X48560000Y89650000D02*
X56460000Y89650000D01*
X82938680Y13507840D02*
X86438680Y13507840D01*
X82938680Y20507840D02*
X82938680Y13507840D01*
X86438680Y20507840D02*
X82938680Y20507840D01*
X86438680Y13507840D02*
X86438680Y20507840D01*
X55700000Y121696668D02*
X55700000Y124656668D01*
X54240000Y121696668D02*
X55700000Y121696668D01*
X54240000Y124656668D02*
X54240000Y121696668D01*
X55700000Y124656668D02*
X54240000Y124656668D01*
X10049260Y47569940D02*
X10049260Y50529940D01*
X8589260Y47569940D02*
X10049260Y47569940D01*
X8589260Y50529940D02*
X8589260Y47569940D01*
X10049260Y50529940D02*
X8589260Y50529940D01*
X5665720Y47055220D02*
X5665720Y44095220D01*
X7125720Y47055220D02*
X5665720Y47055220D01*
X7125720Y44095220D02*
X7125720Y47055220D01*
X5665720Y44095220D02*
X7125720Y44095220D01*
X35520000Y102580000D02*
X32560000Y102580000D01*
X35520000Y101120000D02*
X35520000Y102580000D01*
X32560000Y101120000D02*
X35520000Y101120000D01*
X32560000Y102580000D02*
X32560000Y101120000D01*
X82092000Y10872600D02*
X82092000Y13832600D01*
X80632000Y10872600D02*
X82092000Y10872600D01*
X80632000Y13832600D02*
X80632000Y10872600D01*
X82092000Y13832600D02*
X80632000Y13832600D01*
X11296900Y27167020D02*
X11296900Y24207020D01*
X12756900Y27167020D02*
X11296900Y27167020D01*
X12756900Y24207020D02*
X12756900Y27167020D01*
X11296900Y24207020D02*
X12756900Y24207020D01*
X8420000Y16230000D02*
X8420000Y13270000D01*
X9880000Y16230000D02*
X8420000Y16230000D01*
X9880000Y13270000D02*
X9880000Y16230000D01*
X8420000Y13270000D02*
X9880000Y13270000D01*
X63990000Y93880000D02*
X61030000Y93880000D01*
X63990000Y92420000D02*
X63990000Y93880000D01*
X61030000Y92420000D02*
X63990000Y92420000D01*
X61030000Y93880000D02*
X61030000Y92420000D01*
X66760000Y100610000D02*
X66760000Y97650000D01*
X68220000Y100610000D02*
X66760000Y100610000D01*
X68220000Y97650000D02*
X68220000Y100610000D01*
X66760000Y97650000D02*
X68220000Y97650000D01*
X76940000Y38960000D02*
X73980000Y38960000D01*
X76940000Y37500000D02*
X76940000Y38960000D01*
X73980000Y37500000D02*
X76940000Y37500000D01*
X73980000Y38960000D02*
X73980000Y37500000D01*
X63990000Y95830000D02*
X61030000Y95830000D01*
X63990000Y94370000D02*
X63990000Y95830000D01*
X61030000Y94370000D02*
X63990000Y94370000D01*
X61030000Y95830000D02*
X61030000Y94370000D01*
X6100000Y22040000D02*
X6100000Y22040000D01*
X6100000Y23540000D02*
X6100000Y22040000D01*
X8350000Y23540000D02*
X6100000Y23540000D01*
X8350000Y30540000D02*
X8350000Y23540000D01*
X6100000Y30540000D02*
X8350000Y30540000D01*
X6100000Y32040000D02*
X6100000Y30540000D01*
X1600000Y32040000D02*
X6100000Y32040000D01*
X1600000Y30290000D02*
X1600000Y32040000D01*
X1350000Y30290000D02*
X1600000Y30290000D01*
X1350000Y29540000D02*
X1350000Y30290000D01*
X-400000Y29540000D02*
X1350000Y29540000D01*
X-400000Y24540000D02*
X-400000Y29540000D01*
X1100000Y24540000D02*
X-400000Y24540000D01*
X1100000Y23790000D02*
X1100000Y24540000D01*
X1600000Y23790000D02*
X1100000Y23790000D01*
X1600000Y22040000D02*
X1600000Y23790000D01*
X6100000Y22040000D02*
X1600000Y22040000D01*
X55690000Y124723334D02*
X55690000Y127683334D01*
X54230000Y124723334D02*
X55690000Y124723334D01*
X54230000Y127683334D02*
X54230000Y124723334D01*
X55690000Y127683334D02*
X54230000Y127683334D01*
X62190000Y58390000D02*
X62190000Y55430000D01*
X63650000Y58390000D02*
X62190000Y58390000D01*
X63650000Y55430000D02*
X63650000Y58390000D01*
X62190000Y55430000D02*
X63650000Y55430000D01*
X63260000Y132690000D02*
X60300000Y132690000D01*
X63260000Y131230000D02*
X63260000Y132690000D01*
X60300000Y131230000D02*
X63260000Y131230000D01*
X60300000Y132690000D02*
X60300000Y131230000D01*
X32560000Y99630000D02*
X35520000Y99630000D01*
X32560000Y101090000D02*
X32560000Y99630000D01*
X35520000Y101090000D02*
X32560000Y101090000D01*
X35520000Y99630000D02*
X35520000Y101090000D01*
X32560000Y96650000D02*
X35520000Y96650000D01*
X32560000Y98110000D02*
X32560000Y96650000D01*
X35520000Y98110000D02*
X32560000Y98110000D01*
X35520000Y96650000D02*
X35520000Y98110000D01*
X24510000Y108215000D02*
X27470000Y108215000D01*
X24510000Y109675000D02*
X24510000Y108215000D01*
X27470000Y109675000D02*
X24510000Y109675000D01*
X27470000Y108215000D02*
X27470000Y109675000D01*
X24510000Y109760000D02*
X27470000Y109760000D01*
X24510000Y111220000D02*
X24510000Y109760000D01*
X27470000Y111220000D02*
X24510000Y111220000D01*
X27470000Y109760000D02*
X27470000Y111220000D01*
X35520000Y99600000D02*
X32560000Y99600000D01*
X35520000Y98140000D02*
X35520000Y99600000D01*
X32560000Y98140000D02*
X35520000Y98140000D01*
X32560000Y99600000D02*
X32560000Y98140000D01*
X49630000Y126460000D02*
X49630000Y122960000D01*
X49630000Y126460000D02*
X53730000Y126460000D01*
X53730000Y122960000D02*
X49630000Y122960000D01*
X53730000Y122960000D02*
X53730000Y126460000D01*
X3795780Y48108420D02*
X3795780Y51068420D01*
X2335780Y48108420D02*
X3795780Y48108420D01*
X2335780Y51068420D02*
X2335780Y48108420D01*
X3795780Y51068420D02*
X2335780Y51068420D01*
X10050000Y16345000D02*
X10050000Y19705000D01*
X8150000Y16345000D02*
X10050000Y16345000D01*
X8150000Y19705000D02*
X8150000Y16345000D01*
X10050000Y19705000D02*
X8150000Y19705000D01*
X26740000Y62890000D02*
X26740000Y59930000D01*
X28200000Y62890000D02*
X26740000Y62890000D01*
X28200000Y59930000D02*
X28200000Y62890000D01*
X26740000Y59930000D02*
X28200000Y59930000D01*
X78879400Y13832600D02*
X78879400Y10872600D01*
X80339400Y13832600D02*
X78879400Y13832600D01*
X80339400Y10872600D02*
X80339400Y13832600D01*
X78879400Y10872600D02*
X80339400Y10872600D01*
X45310000Y87010000D02*
X45310000Y84050000D01*
X46770000Y87010000D02*
X45310000Y87010000D01*
X46770000Y84050000D02*
X46770000Y87010000D01*
X45310000Y84050000D02*
X46770000Y84050000D01*
X52740000Y120170000D02*
X55700000Y120170000D01*
X52740000Y121630000D02*
X52740000Y120170000D01*
X55700000Y121630000D02*
X52740000Y121630000D01*
X55700000Y120170000D02*
X55700000Y121630000D01*
X56240000Y122120000D02*
X56240000Y119160000D01*
X57700000Y122120000D02*
X56240000Y122120000D01*
X57700000Y119160000D02*
X57700000Y122120000D01*
X56240000Y119160000D02*
X57700000Y119160000D01*
X56240000Y130050000D02*
X56240000Y127090000D01*
X57700000Y130050000D02*
X56240000Y130050000D01*
X57700000Y127090000D02*
X57700000Y130050000D01*
X56240000Y127090000D02*
X57700000Y127090000D01*
X8153480Y47740160D02*
X8153480Y51340160D01*
X4353480Y47740160D02*
X8153480Y47740160D01*
X4353480Y51340160D02*
X4353480Y47740160D01*
X8153480Y51340160D02*
X4353480Y51340160D01*
X52730000Y127750000D02*
X55690000Y127750000D01*
X52730000Y129210000D02*
X52730000Y127750000D01*
X55690000Y129210000D02*
X52730000Y129210000D01*
X55690000Y127750000D02*
X55690000Y129210000D01*
X16352840Y14005500D02*
X16352840Y23205500D01*
X26552840Y14005500D02*
X16352840Y14005500D01*
X26552840Y23205500D02*
X26552840Y14005500D01*
X16352840Y23205500D02*
X26552840Y23205500D01*
X15181800Y23389060D02*
X11081800Y23389060D01*
X15181800Y23389060D02*
X15181800Y19989060D01*
X11081800Y19989060D02*
X11081800Y23389060D01*
X11081800Y19989060D02*
X15181800Y19989060D01*
X85252760Y21349320D02*
X85252760Y28749320D01*
X85252760Y28749320D02*
X89702760Y28749320D01*
X89702760Y28749320D02*
X89702760Y21349320D01*
X89702760Y21349320D02*
X85252760Y21349320D01*
X44300000Y121220000D02*
X44300000Y118260000D01*
X45760000Y121220000D02*
X44300000Y121220000D01*
X45760000Y118260000D02*
X45760000Y121220000D01*
X44300000Y118260000D02*
X45760000Y118260000D01*
X11345000Y18345000D02*
X14305000Y18345000D01*
X11345000Y19805000D02*
X11345000Y18345000D01*
X14305000Y19805000D02*
X11345000Y19805000D01*
X14305000Y18345000D02*
X14305000Y19805000D01*
X65230000Y102510000D02*
X65230000Y97310000D01*
X60030000Y102510000D02*
X65230000Y102510000D01*
X60030000Y97310000D02*
X60030000Y102510000D01*
X65230000Y97310000D02*
X60030000Y97310000D01*
X4200000Y14375000D02*
X7800000Y14375000D01*
X4200000Y18175000D02*
X4200000Y14375000D01*
X7800000Y18175000D02*
X4200000Y18175000D01*
X7800000Y14375000D02*
X7800000Y18175000D01*
X5853180Y51806660D02*
X5853180Y54766660D01*
X4393180Y51806660D02*
X5853180Y51806660D01*
X4393180Y54766660D02*
X4393180Y51806660D01*
X5853180Y54766660D02*
X4393180Y54766660D01*
X46180000Y93070000D02*
X49140000Y93070000D01*
X46180000Y94530000D02*
X46180000Y93070000D01*
X49140000Y94530000D02*
X46180000Y94530000D01*
X49140000Y93070000D02*
X49140000Y94530000D01*
X32560000Y95040000D02*
X35520000Y95040000D01*
X32560000Y96500000D02*
X32560000Y95040000D01*
X35520000Y96500000D02*
X32560000Y96500000D01*
X35520000Y95040000D02*
X35520000Y96500000D01*
X68600000Y129820000D02*
X59690000Y129820000D01*
X68600000Y119380000D02*
X68600000Y129820000D01*
X59690000Y119380000D02*
X68600000Y119380000D01*
X59690000Y129820000D02*
X59690000Y119380000D01*
X25520000Y96380000D02*
X22560000Y96380000D01*
X25520000Y94920000D02*
X25520000Y96380000D01*
X22560000Y94920000D02*
X25520000Y94920000D01*
X22560000Y96380000D02*
X22560000Y94920000D01*
X78879400Y16906000D02*
X78879400Y13946000D01*
X80339400Y16906000D02*
X78879400Y16906000D01*
X80339400Y13946000D02*
X80339400Y16906000D01*
X78879400Y13946000D02*
X80339400Y13946000D01*
X45980000Y94530000D02*
X43020000Y94530000D01*
X45980000Y93070000D02*
X45980000Y94530000D01*
X43020000Y93070000D02*
X45980000Y93070000D01*
X43020000Y94530000D02*
X43020000Y93070000D01*
X76230000Y54320000D02*
X64370000Y54320000D01*
X76230000Y65120000D02*
X76230000Y54320000D01*
X64370000Y65120000D02*
X76230000Y65120000D01*
X64370000Y54320000D02*
X64370000Y65120000D01*
X2418900Y45597060D02*
X5378900Y45597060D01*
X2418900Y47057060D02*
X2418900Y45597060D01*
X5378900Y47057060D02*
X2418900Y47057060D01*
X5378900Y45597060D02*
X5378900Y47057060D01*
X37360000Y58840000D02*
X32160000Y58840000D01*
X37360000Y64040000D02*
X37360000Y58840000D01*
X32160000Y64040000D02*
X37360000Y64040000D01*
X32160000Y58840000D02*
X32160000Y64040000D01*
X63260000Y134360000D02*
X60300000Y134360000D01*
X63260000Y132900000D02*
X63260000Y134360000D01*
X60300000Y132900000D02*
X63260000Y132900000D01*
X60300000Y134360000D02*
X60300000Y132900000D01*
X58280000Y108825000D02*
X55780000Y108825000D01*
X58280000Y108825000D02*
X58280000Y106325000D01*
X55780000Y106325000D02*
X55780000Y108825000D01*
X55780000Y106325000D02*
X58280000Y106325000D01*
X87330000Y84606667D02*
X89230000Y84606667D01*
X89230000Y84606667D02*
X89230000Y80606667D01*
X87330000Y80606667D02*
X89230000Y80606667D01*
X87330000Y84606667D02*
X87330000Y80606667D01*
X91550000Y64250000D02*
X89050000Y64250000D01*
X91550000Y64250000D02*
X91550000Y61750000D01*
X89050000Y61750000D02*
X89050000Y64250000D01*
X89050000Y61750000D02*
X91550000Y61750000D01*
X25577760Y32886400D02*
X27477760Y32886400D01*
X27477760Y32886400D02*
X27477760Y28886400D01*
X25577760Y28886400D02*
X27477760Y28886400D01*
X25577760Y32886400D02*
X25577760Y28886400D01*
X91530000Y57590000D02*
X89030000Y57590000D01*
X91530000Y57590000D02*
X91530000Y55090000D01*
X89030000Y55090000D02*
X89030000Y57590000D01*
X89030000Y55090000D02*
X91530000Y55090000D01*
X91550000Y60916667D02*
X89050000Y60916667D01*
X91550000Y60916667D02*
X91550000Y58416667D01*
X89050000Y58416667D02*
X89050000Y60916667D01*
X89050000Y58416667D02*
X91550000Y58416667D01*
X38829302Y44412920D02*
X40729302Y44412920D01*
X40729302Y44412920D02*
X40729302Y40412920D01*
X38829302Y40412920D02*
X40729302Y40412920D01*
X38829302Y44412920D02*
X38829302Y40412920D01*
X36288940Y32886400D02*
X38188940Y32886400D01*
X38188940Y32886400D02*
X38188940Y28886400D01*
X36288940Y28886400D02*
X38188940Y28886400D01*
X36288940Y32886400D02*
X36288940Y28886400D01*
X62316955Y32886400D02*
X64216955Y32886400D01*
X64216955Y32886400D02*
X64216955Y28886400D01*
X62316955Y28886400D02*
X64216955Y28886400D01*
X62316955Y32886400D02*
X62316955Y28886400D01*
X53845420Y32886400D02*
X55745420Y32886400D01*
X55745420Y32886400D02*
X55745420Y28886400D01*
X53845420Y28886400D02*
X55745420Y28886400D01*
X53845420Y32886400D02*
X53845420Y28886400D01*
X87330000Y91640000D02*
X89230000Y91640000D01*
X89230000Y91640000D02*
X89230000Y87640000D01*
X87330000Y87640000D02*
X89230000Y87640000D01*
X87330000Y91640000D02*
X87330000Y87640000D01*
X14820000Y87720000D02*
X14820000Y85820000D01*
X14820000Y85820000D02*
X10820000Y85820000D01*
X10820000Y87720000D02*
X10820000Y85820000D01*
X14820000Y87720000D02*
X10820000Y87720000D01*
X65140800Y32886400D02*
X67040800Y32886400D01*
X67040800Y32886400D02*
X67040800Y28886400D01*
X65140800Y28886400D02*
X67040800Y28886400D01*
X65140800Y32886400D02*
X65140800Y28886400D01*
X91550000Y54250000D02*
X89050000Y54250000D01*
X91550000Y54250000D02*
X91550000Y51750000D01*
X89050000Y51750000D02*
X89050000Y54250000D01*
X89050000Y51750000D02*
X91550000Y51750000D01*
X14820000Y66690000D02*
X14820000Y64790000D01*
X14820000Y64790000D02*
X10820000Y64790000D01*
X10820000Y66690000D02*
X10820000Y64790000D01*
X14820000Y66690000D02*
X10820000Y66690000D01*
X42850000Y71348000D02*
X40350000Y71348000D01*
X42850000Y71348000D02*
X42850000Y68848000D01*
X40350000Y68848000D02*
X40350000Y71348000D01*
X40350000Y68848000D02*
X42850000Y68848000D01*
X42850000Y73886000D02*
X40350000Y73886000D01*
X42850000Y73886000D02*
X42850000Y71386000D01*
X40350000Y71386000D02*
X40350000Y73886000D01*
X40350000Y71386000D02*
X42850000Y71386000D01*
X87330000Y77573334D02*
X89230000Y77573334D01*
X89230000Y77573334D02*
X89230000Y73573334D01*
X87330000Y73573334D02*
X89230000Y73573334D01*
X87330000Y77573334D02*
X87330000Y73573334D01*
X28255555Y32886400D02*
X30155555Y32886400D01*
X30155555Y32886400D02*
X30155555Y28886400D01*
X28255555Y28886400D02*
X30155555Y28886400D01*
X28255555Y32886400D02*
X28255555Y28886400D01*
X59493110Y32886400D02*
X61393110Y32886400D01*
X61393110Y32886400D02*
X61393110Y28886400D01*
X59493110Y28886400D02*
X61393110Y28886400D01*
X59493110Y32886400D02*
X59493110Y28886400D01*
X42850000Y78962000D02*
X40350000Y78962000D01*
X42850000Y78962000D02*
X42850000Y76462000D01*
X40350000Y76462000D02*
X40350000Y78962000D01*
X40350000Y76462000D02*
X42850000Y76462000D01*
X24865834Y44412920D02*
X26765834Y44412920D01*
X26765834Y44412920D02*
X26765834Y40412920D01*
X24865834Y40412920D02*
X26765834Y40412920D01*
X24865834Y44412920D02*
X24865834Y40412920D01*
X52792770Y44412920D02*
X54692770Y44412920D01*
X54692770Y44412920D02*
X54692770Y40412920D01*
X52792770Y40412920D02*
X54692770Y40412920D01*
X52792770Y44412920D02*
X52792770Y40412920D01*
X31847568Y44412920D02*
X33747568Y44412920D01*
X33747568Y44412920D02*
X33747568Y40412920D01*
X31847568Y40412920D02*
X33747568Y40412920D01*
X31847568Y44412920D02*
X31847568Y40412920D01*
X17884100Y44412920D02*
X19784100Y44412920D01*
X19784100Y44412920D02*
X19784100Y40412920D01*
X17884100Y40412920D02*
X19784100Y40412920D01*
X17884100Y44412920D02*
X17884100Y40412920D01*
X59774504Y44412920D02*
X61674504Y44412920D01*
X61674504Y44412920D02*
X61674504Y40412920D01*
X59774504Y40412920D02*
X61674504Y40412920D01*
X59774504Y44412920D02*
X59774504Y40412920D01*
X14820000Y80710000D02*
X14820000Y78810000D01*
X14820000Y78810000D02*
X10820000Y78810000D01*
X10820000Y80710000D02*
X10820000Y78810000D01*
X14820000Y80710000D02*
X10820000Y80710000D01*
X14820000Y73700000D02*
X14820000Y71800000D01*
X14820000Y71800000D02*
X10820000Y71800000D01*
X10820000Y73700000D02*
X10820000Y71800000D01*
X14820000Y73700000D02*
X10820000Y73700000D01*
X66756240Y44412920D02*
X68656240Y44412920D01*
X68656240Y44412920D02*
X68656240Y40412920D01*
X66756240Y40412920D02*
X68656240Y40412920D01*
X66756240Y44412920D02*
X66756240Y40412920D01*
X87330000Y70540000D02*
X89230000Y70540000D01*
X89230000Y70540000D02*
X89230000Y66540000D01*
X87330000Y66540000D02*
X89230000Y66540000D01*
X87330000Y70540000D02*
X87330000Y66540000D01*
X30933350Y32886400D02*
X32833350Y32886400D01*
X32833350Y32886400D02*
X32833350Y28886400D01*
X30933350Y28886400D02*
X32833350Y28886400D01*
X30933350Y32886400D02*
X30933350Y28886400D01*
X33611145Y32886400D02*
X35511145Y32886400D01*
X35511145Y32886400D02*
X35511145Y28886400D01*
X33611145Y28886400D02*
X35511145Y28886400D01*
X33611145Y32886400D02*
X33611145Y28886400D01*
X45811036Y44412920D02*
X47711036Y44412920D01*
X47711036Y44412920D02*
X47711036Y40412920D01*
X45811036Y40412920D02*
X47711036Y40412920D01*
X45811036Y44412920D02*
X45811036Y40412920D01*
X56669265Y32886400D02*
X58569265Y32886400D01*
X58569265Y32886400D02*
X58569265Y28886400D01*
X56669265Y28886400D02*
X58569265Y28886400D01*
X56669265Y32886400D02*
X56669265Y28886400D01*
X27470000Y108130000D02*
X24510000Y108130000D01*
X27470000Y106670000D02*
X27470000Y108130000D01*
X24510000Y106670000D02*
X27470000Y106670000D01*
X24510000Y108130000D02*
X24510000Y106670000D01*
X30620000Y96380000D02*
X27660000Y96380000D01*
X30620000Y94920000D02*
X30620000Y96380000D01*
X27660000Y94920000D02*
X30620000Y94920000D01*
X27660000Y96380000D02*
X27660000Y94920000D01*
X3027740Y35153720D02*
X6527740Y35153720D01*
X3027740Y42153720D02*
X3027740Y35153720D01*
X6527740Y42153720D02*
X3027740Y42153720D01*
X6527740Y35153720D02*
X6527740Y42153720D01*
X44240000Y65000000D02*
X44240000Y63540000D01*
X44240000Y63540000D02*
X47200000Y63540000D01*
X47200000Y63540000D02*
X47200000Y65000000D01*
X47200000Y65000000D02*
X44240000Y65000000D01*
X53104300Y105250000D02*
X39404300Y105250000D01*
X53104300Y96200000D02*
X53104300Y105250000D01*
X39404300Y96200000D02*
X53104300Y96200000D01*
X39404300Y105250000D02*
X39404300Y96200000D01*
X33720000Y112610000D02*
X33720000Y111150000D01*
X33720000Y111150000D02*
X36680000Y111150000D01*
X36680000Y111150000D02*
X36680000Y112610000D01*
X36680000Y112610000D02*
X33720000Y112610000D01*
X87850000Y33430000D02*
X85350000Y33430000D01*
X87850000Y33430000D02*
X87850000Y30930000D01*
X85350000Y30930000D02*
X85350000Y33430000D01*
X85350000Y30930000D02*
X87850000Y30930000D01*
X85350000Y33515000D02*
X87850000Y33515000D01*
X85350000Y33515000D02*
X85350000Y36015000D01*
X87850000Y36015000D02*
X87850000Y33515000D01*
X87850000Y36015000D02*
X85350000Y36015000D01*
X85350000Y36100000D02*
X87850000Y36100000D01*
X85350000Y36100000D02*
X85350000Y38600000D01*
X87850000Y38600000D02*
X87850000Y36100000D01*
X87850000Y38600000D02*
X85350000Y38600000D01*
X2480000Y19690000D02*
X2480000Y16730000D01*
X3940000Y19690000D02*
X2480000Y19690000D01*
X3940000Y16730000D02*
X3940000Y19690000D01*
X2480000Y16730000D02*
X3940000Y16730000D01*
X2490000Y13540000D02*
X3950000Y13540000D01*
X3950000Y13540000D02*
X3950000Y16500000D01*
X3950000Y16500000D02*
X2490000Y16500000D01*
X2490000Y16500000D02*
X2490000Y13540000D01*
X6000000Y18320000D02*
X7900000Y18320000D01*
X7900000Y18320000D02*
X7900000Y21680000D01*
X7900000Y21680000D02*
X6000000Y21680000D01*
X6000000Y21680000D02*
X6000000Y18320000D01*
X55780000Y109720000D02*
X58280000Y109720000D01*
X55780000Y109720000D02*
X55780000Y112220000D01*
X58280000Y112220000D02*
X58280000Y109720000D01*
X58280000Y112220000D02*
X55780000Y112220000D01*
X58280000Y105430000D02*
X55780000Y105430000D01*
X58280000Y105430000D02*
X58280000Y102930000D01*
X55780000Y102930000D02*
X55780000Y105430000D01*
X55780000Y102930000D02*
X58280000Y102930000D01*
X74140000Y99150000D02*
X76640000Y99150000D01*
X74140000Y99150000D02*
X74140000Y101650000D01*
X76640000Y101650000D02*
X76640000Y99150000D01*
X76640000Y101650000D02*
X74140000Y101650000D01*
X77550000Y99150000D02*
X80050000Y99150000D01*
X77550000Y99150000D02*
X77550000Y101650000D01*
X80050000Y101650000D02*
X80050000Y99150000D01*
X80050000Y101650000D02*
X77550000Y101650000D01*
X3338000Y68180000D02*
X5838000Y68180000D01*
X3338000Y68180000D02*
X3338000Y70680000D01*
X5838000Y70680000D02*
X5838000Y68180000D01*
X5838000Y70680000D02*
X3338000Y70680000D01*
X5838000Y63490000D02*
X3338000Y63490000D01*
X5838000Y63490000D02*
X5838000Y60990000D01*
X3338000Y60990000D02*
X3338000Y63490000D01*
X3338000Y60990000D02*
X5838000Y60990000D01*
X3338000Y64585000D02*
X5838000Y64585000D01*
X3338000Y64585000D02*
X3338000Y67085000D01*
X5838000Y67085000D02*
X5838000Y64585000D01*
X5838000Y67085000D02*
X3338000Y67085000D01*
X76990000Y69800000D02*
X74490000Y69800000D01*
X76990000Y69800000D02*
X76990000Y67300000D01*
X74490000Y67300000D02*
X74490000Y69800000D01*
X74490000Y67300000D02*
X76990000Y67300000D01*
X74510000Y70930000D02*
X77010000Y70930000D01*
X74510000Y70930000D02*
X74510000Y73430000D01*
X77010000Y73430000D02*
X77010000Y70930000D01*
X77010000Y73430000D02*
X74510000Y73430000D01*
X77010000Y77060000D02*
X74510000Y77060000D01*
X77010000Y77060000D02*
X77010000Y74560000D01*
X74510000Y74560000D02*
X74510000Y77060000D01*
X74510000Y74560000D02*
X77010000Y74560000D01*
M02*
