G04 #@! TF.GenerationSoftware,KiCad,Pcbnew,(5.1.5)-3*
G04 #@! TF.CreationDate,2021-01-11T00:29:40-07:00*
G04 #@! TF.ProjectId,purplewizard,70757270-6c65-4776-997a-6172642e6b69,0.1*
G04 #@! TF.SameCoordinates,PX613b810PYa454c00*
G04 #@! TF.FileFunction,Paste,Top*
G04 #@! TF.FilePolarity,Positive*
%FSLAX46Y46*%
G04 Gerber Fmt 4.6, Leading zero omitted, Abs format (unit mm)*
G04 Created by KiCad (PCBNEW (5.1.5)-3) date 2021-01-11 00:29:40*
%MOMM*%
%LPD*%
G04 APERTURE LIST*
%ADD10C,0.100000*%
%ADD11C,0.150000*%
%ADD12C,0.300000*%
%ADD13C,0.400000*%
%ADD14R,1.550000X1.000000*%
%ADD15R,1.000000X1.550000*%
G04 APERTURE END LIST*
D10*
D11*
X133644400Y413600D02*
X133644400Y-31586400D01*
X241644400Y-31586400D01*
X241644400Y413600D01*
X133644400Y413600D01*
D10*
D11*
X-91955600Y162313600D02*
X-91955600Y-33586400D01*
X243644400Y-33586400D01*
X243644400Y162313600D01*
X-91955600Y162313600D01*
D10*
D11*
X-89955600Y160313600D02*
X-89955600Y-31586400D01*
X241644400Y-31586400D01*
X241644400Y160313600D01*
X-89955600Y160313600D01*
D10*
D11*
X-41955600Y160313600D02*
X-41955600Y162313600D01*
D10*
D11*
X8044400Y160313600D02*
X8044400Y162313600D01*
D10*
D11*
X58044400Y160313600D02*
X58044400Y162313600D01*
D10*
D11*
X108044400Y160313600D02*
X108044400Y162313600D01*
D10*
D11*
X158044400Y160313600D02*
X158044400Y162313600D01*
D10*
D11*
X208044400Y160313600D02*
X208044400Y162313600D01*
D10*
D11*
X-65890124Y160725505D02*
X-66632981Y160725505D01*
X-66261553Y160725505D02*
X-66261553Y162025505D01*
X-66385362Y161839791D01*
X-66509172Y161715981D01*
X-66632981Y161654077D01*
D10*
D11*
X-16632981Y161901696D02*
X-16571077Y161963600D01*
X-16447267Y162025505D01*
X-16137743Y162025505D01*
X-16013934Y161963600D01*
X-15952029Y161901696D01*
X-15890124Y161777886D01*
X-15890124Y161654077D01*
X-15952029Y161468362D01*
X-16694886Y160725505D01*
X-15890124Y160725505D01*
D10*
D11*
X33305114Y162025505D02*
X34109876Y162025505D01*
X33676542Y161530267D01*
X33862257Y161530267D01*
X33986066Y161468362D01*
X34047971Y161406458D01*
X34109876Y161282648D01*
X34109876Y160973124D01*
X34047971Y160849315D01*
X33986066Y160787410D01*
X33862257Y160725505D01*
X33490828Y160725505D01*
X33367019Y160787410D01*
X33305114Y160849315D01*
D10*
D11*
X83986066Y161592172D02*
X83986066Y160725505D01*
X83676542Y162087410D02*
X83367019Y161158839D01*
X84171780Y161158839D01*
D10*
D11*
X134047971Y162025505D02*
X133428923Y162025505D01*
X133367019Y161406458D01*
X133428923Y161468362D01*
X133552733Y161530267D01*
X133862257Y161530267D01*
X133986066Y161468362D01*
X134047971Y161406458D01*
X134109876Y161282648D01*
X134109876Y160973124D01*
X134047971Y160849315D01*
X133986066Y160787410D01*
X133862257Y160725505D01*
X133552733Y160725505D01*
X133428923Y160787410D01*
X133367019Y160849315D01*
D10*
D11*
X183986066Y162025505D02*
X183738447Y162025505D01*
X183614638Y161963600D01*
X183552733Y161901696D01*
X183428923Y161715981D01*
X183367019Y161468362D01*
X183367019Y160973124D01*
X183428923Y160849315D01*
X183490828Y160787410D01*
X183614638Y160725505D01*
X183862257Y160725505D01*
X183986066Y160787410D01*
X184047971Y160849315D01*
X184109876Y160973124D01*
X184109876Y161282648D01*
X184047971Y161406458D01*
X183986066Y161468362D01*
X183862257Y161530267D01*
X183614638Y161530267D01*
X183490828Y161468362D01*
X183428923Y161406458D01*
X183367019Y161282648D01*
D10*
D11*
X233305114Y162025505D02*
X234171780Y162025505D01*
X233614638Y160725505D01*
D10*
D11*
X-41955600Y-31586400D02*
X-41955600Y-33586400D01*
D10*
D11*
X8044400Y-31586400D02*
X8044400Y-33586400D01*
D10*
D11*
X58044400Y-31586400D02*
X58044400Y-33586400D01*
D10*
D11*
X108044400Y-31586400D02*
X108044400Y-33586400D01*
D10*
D11*
X158044400Y-31586400D02*
X158044400Y-33586400D01*
D10*
D11*
X208044400Y-31586400D02*
X208044400Y-33586400D01*
D10*
D11*
X-65890124Y-33174495D02*
X-66632981Y-33174495D01*
X-66261553Y-33174495D02*
X-66261553Y-31874495D01*
X-66385362Y-32060209D01*
X-66509172Y-32184019D01*
X-66632981Y-32245923D01*
D10*
D11*
X-16632981Y-31998304D02*
X-16571077Y-31936400D01*
X-16447267Y-31874495D01*
X-16137743Y-31874495D01*
X-16013934Y-31936400D01*
X-15952029Y-31998304D01*
X-15890124Y-32122114D01*
X-15890124Y-32245923D01*
X-15952029Y-32431638D01*
X-16694886Y-33174495D01*
X-15890124Y-33174495D01*
D10*
D11*
X33305114Y-31874495D02*
X34109876Y-31874495D01*
X33676542Y-32369733D01*
X33862257Y-32369733D01*
X33986066Y-32431638D01*
X34047971Y-32493542D01*
X34109876Y-32617352D01*
X34109876Y-32926876D01*
X34047971Y-33050685D01*
X33986066Y-33112590D01*
X33862257Y-33174495D01*
X33490828Y-33174495D01*
X33367019Y-33112590D01*
X33305114Y-33050685D01*
D10*
D11*
X83986066Y-32307828D02*
X83986066Y-33174495D01*
X83676542Y-31812590D02*
X83367019Y-32741161D01*
X84171780Y-32741161D01*
D10*
D11*
X134047971Y-31874495D02*
X133428923Y-31874495D01*
X133367019Y-32493542D01*
X133428923Y-32431638D01*
X133552733Y-32369733D01*
X133862257Y-32369733D01*
X133986066Y-32431638D01*
X134047971Y-32493542D01*
X134109876Y-32617352D01*
X134109876Y-32926876D01*
X134047971Y-33050685D01*
X133986066Y-33112590D01*
X133862257Y-33174495D01*
X133552733Y-33174495D01*
X133428923Y-33112590D01*
X133367019Y-33050685D01*
D10*
D11*
X183986066Y-31874495D02*
X183738447Y-31874495D01*
X183614638Y-31936400D01*
X183552733Y-31998304D01*
X183428923Y-32184019D01*
X183367019Y-32431638D01*
X183367019Y-32926876D01*
X183428923Y-33050685D01*
X183490828Y-33112590D01*
X183614638Y-33174495D01*
X183862257Y-33174495D01*
X183986066Y-33112590D01*
X184047971Y-33050685D01*
X184109876Y-32926876D01*
X184109876Y-32617352D01*
X184047971Y-32493542D01*
X183986066Y-32431638D01*
X183862257Y-32369733D01*
X183614638Y-32369733D01*
X183490828Y-32431638D01*
X183428923Y-32493542D01*
X183367019Y-32617352D01*
D10*
D11*
X233305114Y-31874495D02*
X234171780Y-31874495D01*
X233614638Y-33174495D01*
D10*
D11*
X-91955600Y112313600D02*
X-89955600Y112313600D01*
D10*
D11*
X-91955600Y62313600D02*
X-89955600Y62313600D01*
D10*
D11*
X-91955600Y12313600D02*
X-89955600Y12313600D01*
D10*
D11*
X-91265124Y137096934D02*
X-90646077Y137096934D01*
X-91388934Y136725505D02*
X-90955600Y138025505D01*
X-90522267Y136725505D01*
D10*
D11*
X-90862743Y87406458D02*
X-90677029Y87344553D01*
X-90615124Y87282648D01*
X-90553220Y87158839D01*
X-90553220Y86973124D01*
X-90615124Y86849315D01*
X-90677029Y86787410D01*
X-90800839Y86725505D01*
X-91296077Y86725505D01*
X-91296077Y88025505D01*
X-90862743Y88025505D01*
X-90738934Y87963600D01*
X-90677029Y87901696D01*
X-90615124Y87777886D01*
X-90615124Y87654077D01*
X-90677029Y87530267D01*
X-90738934Y87468362D01*
X-90862743Y87406458D01*
X-91296077Y87406458D01*
D10*
D11*
X-90553220Y36849315D02*
X-90615124Y36787410D01*
X-90800839Y36725505D01*
X-90924648Y36725505D01*
X-91110362Y36787410D01*
X-91234172Y36911220D01*
X-91296077Y37035029D01*
X-91357981Y37282648D01*
X-91357981Y37468362D01*
X-91296077Y37715981D01*
X-91234172Y37839791D01*
X-91110362Y37963600D01*
X-90924648Y38025505D01*
X-90800839Y38025505D01*
X-90615124Y37963600D01*
X-90553220Y37901696D01*
D10*
D11*
X-91296077Y-13274495D02*
X-91296077Y-11974495D01*
X-90986553Y-11974495D01*
X-90800839Y-12036400D01*
X-90677029Y-12160209D01*
X-90615124Y-12284019D01*
X-90553220Y-12531638D01*
X-90553220Y-12717352D01*
X-90615124Y-12964971D01*
X-90677029Y-13088780D01*
X-90800839Y-13212590D01*
X-90986553Y-13274495D01*
X-91296077Y-13274495D01*
D10*
D11*
X243644400Y112313600D02*
X241644400Y112313600D01*
D10*
D11*
X243644400Y62313600D02*
X241644400Y62313600D01*
D10*
D11*
X243644400Y12313600D02*
X241644400Y12313600D01*
D10*
D11*
X242334876Y137096934D02*
X242953923Y137096934D01*
X242211066Y136725505D02*
X242644400Y138025505D01*
X243077733Y136725505D01*
D10*
D11*
X242737257Y87406458D02*
X242922971Y87344553D01*
X242984876Y87282648D01*
X243046780Y87158839D01*
X243046780Y86973124D01*
X242984876Y86849315D01*
X242922971Y86787410D01*
X242799161Y86725505D01*
X242303923Y86725505D01*
X242303923Y88025505D01*
X242737257Y88025505D01*
X242861066Y87963600D01*
X242922971Y87901696D01*
X242984876Y87777886D01*
X242984876Y87654077D01*
X242922971Y87530267D01*
X242861066Y87468362D01*
X242737257Y87406458D01*
X242303923Y87406458D01*
D10*
D11*
X243046780Y36849315D02*
X242984876Y36787410D01*
X242799161Y36725505D01*
X242675352Y36725505D01*
X242489638Y36787410D01*
X242365828Y36911220D01*
X242303923Y37035029D01*
X242242019Y37282648D01*
X242242019Y37468362D01*
X242303923Y37715981D01*
X242365828Y37839791D01*
X242489638Y37963600D01*
X242675352Y38025505D01*
X242799161Y38025505D01*
X242984876Y37963600D01*
X243046780Y37901696D01*
D10*
D11*
X242303923Y-13274495D02*
X242303923Y-11974495D01*
X242613447Y-11974495D01*
X242799161Y-12036400D01*
X242922971Y-12160209D01*
X242984876Y-12284019D01*
X243046780Y-12531638D01*
X243046780Y-12717352D01*
X242984876Y-12964971D01*
X242922971Y-13088780D01*
X242799161Y-13212590D01*
X242613447Y-13274495D01*
X242303923Y-13274495D01*
D10*
D11*
X157076542Y-27364971D02*
X157076542Y-25864971D01*
X157433685Y-25864971D01*
X157647971Y-25936400D01*
X157790828Y-26079257D01*
X157862257Y-26222114D01*
X157933685Y-26507828D01*
X157933685Y-26722114D01*
X157862257Y-27007828D01*
X157790828Y-27150685D01*
X157647971Y-27293542D01*
X157433685Y-27364971D01*
X157076542Y-27364971D01*
X159219400Y-27364971D02*
X159219400Y-26579257D01*
X159147971Y-26436400D01*
X159005114Y-26364971D01*
X158719400Y-26364971D01*
X158576542Y-26436400D01*
X159219400Y-27293542D02*
X159076542Y-27364971D01*
X158719400Y-27364971D01*
X158576542Y-27293542D01*
X158505114Y-27150685D01*
X158505114Y-27007828D01*
X158576542Y-26864971D01*
X158719400Y-26793542D01*
X159076542Y-26793542D01*
X159219400Y-26722114D01*
X159719400Y-26364971D02*
X160290828Y-26364971D01*
X159933685Y-25864971D02*
X159933685Y-27150685D01*
X160005114Y-27293542D01*
X160147971Y-27364971D01*
X160290828Y-27364971D01*
X161362257Y-27293542D02*
X161219400Y-27364971D01*
X160933685Y-27364971D01*
X160790828Y-27293542D01*
X160719400Y-27150685D01*
X160719400Y-26579257D01*
X160790828Y-26436400D01*
X160933685Y-26364971D01*
X161219400Y-26364971D01*
X161362257Y-26436400D01*
X161433685Y-26579257D01*
X161433685Y-26722114D01*
X160719400Y-26864971D01*
X162076542Y-27222114D02*
X162147971Y-27293542D01*
X162076542Y-27364971D01*
X162005114Y-27293542D01*
X162076542Y-27222114D01*
X162076542Y-27364971D01*
X162076542Y-26436400D02*
X162147971Y-26507828D01*
X162076542Y-26579257D01*
X162005114Y-26507828D01*
X162076542Y-26436400D01*
X162076542Y-26579257D01*
X163862257Y-26007828D02*
X163933685Y-25936400D01*
X164076542Y-25864971D01*
X164433685Y-25864971D01*
X164576542Y-25936400D01*
X164647971Y-26007828D01*
X164719400Y-26150685D01*
X164719400Y-26293542D01*
X164647971Y-26507828D01*
X163790828Y-27364971D01*
X164719400Y-27364971D01*
X165647971Y-25864971D02*
X165790828Y-25864971D01*
X165933685Y-25936400D01*
X166005114Y-26007828D01*
X166076542Y-26150685D01*
X166147971Y-26436400D01*
X166147971Y-26793542D01*
X166076542Y-27079257D01*
X166005114Y-27222114D01*
X165933685Y-27293542D01*
X165790828Y-27364971D01*
X165647971Y-27364971D01*
X165505114Y-27293542D01*
X165433685Y-27222114D01*
X165362257Y-27079257D01*
X165290828Y-26793542D01*
X165290828Y-26436400D01*
X165362257Y-26150685D01*
X165433685Y-26007828D01*
X165505114Y-25936400D01*
X165647971Y-25864971D01*
X166719400Y-26007828D02*
X166790828Y-25936400D01*
X166933685Y-25864971D01*
X167290828Y-25864971D01*
X167433685Y-25936400D01*
X167505114Y-26007828D01*
X167576542Y-26150685D01*
X167576542Y-26293542D01*
X167505114Y-26507828D01*
X166647971Y-27364971D01*
X167576542Y-27364971D01*
X168505114Y-25864971D02*
X168647971Y-25864971D01*
X168790828Y-25936400D01*
X168862257Y-26007828D01*
X168933685Y-26150685D01*
X169005114Y-26436400D01*
X169005114Y-26793542D01*
X168933685Y-27079257D01*
X168862257Y-27222114D01*
X168790828Y-27293542D01*
X168647971Y-27364971D01*
X168505114Y-27364971D01*
X168362257Y-27293542D01*
X168290828Y-27222114D01*
X168219400Y-27079257D01*
X168147971Y-26793542D01*
X168147971Y-26436400D01*
X168219400Y-26150685D01*
X168290828Y-26007828D01*
X168362257Y-25936400D01*
X168505114Y-25864971D01*
X169647971Y-26793542D02*
X170790828Y-26793542D01*
X171790828Y-25864971D02*
X171933685Y-25864971D01*
X172076542Y-25936400D01*
X172147971Y-26007828D01*
X172219400Y-26150685D01*
X172290828Y-26436400D01*
X172290828Y-26793542D01*
X172219400Y-27079257D01*
X172147971Y-27222114D01*
X172076542Y-27293542D01*
X171933685Y-27364971D01*
X171790828Y-27364971D01*
X171647971Y-27293542D01*
X171576542Y-27222114D01*
X171505114Y-27079257D01*
X171433685Y-26793542D01*
X171433685Y-26436400D01*
X171505114Y-26150685D01*
X171576542Y-26007828D01*
X171647971Y-25936400D01*
X171790828Y-25864971D01*
X173147971Y-26507828D02*
X173005114Y-26436400D01*
X172933685Y-26364971D01*
X172862257Y-26222114D01*
X172862257Y-26150685D01*
X172933685Y-26007828D01*
X173005114Y-25936400D01*
X173147971Y-25864971D01*
X173433685Y-25864971D01*
X173576542Y-25936400D01*
X173647971Y-26007828D01*
X173719400Y-26150685D01*
X173719400Y-26222114D01*
X173647971Y-26364971D01*
X173576542Y-26436400D01*
X173433685Y-26507828D01*
X173147971Y-26507828D01*
X173005114Y-26579257D01*
X172933685Y-26650685D01*
X172862257Y-26793542D01*
X172862257Y-27079257D01*
X172933685Y-27222114D01*
X173005114Y-27293542D01*
X173147971Y-27364971D01*
X173433685Y-27364971D01*
X173576542Y-27293542D01*
X173647971Y-27222114D01*
X173719400Y-27079257D01*
X173719400Y-26793542D01*
X173647971Y-26650685D01*
X173576542Y-26579257D01*
X173433685Y-26507828D01*
X174362257Y-26793542D02*
X175505114Y-26793542D01*
X176505114Y-25864971D02*
X176647971Y-25864971D01*
X176790828Y-25936400D01*
X176862257Y-26007828D01*
X176933685Y-26150685D01*
X177005114Y-26436400D01*
X177005114Y-26793542D01*
X176933685Y-27079257D01*
X176862257Y-27222114D01*
X176790828Y-27293542D01*
X176647971Y-27364971D01*
X176505114Y-27364971D01*
X176362257Y-27293542D01*
X176290828Y-27222114D01*
X176219400Y-27079257D01*
X176147971Y-26793542D01*
X176147971Y-26436400D01*
X176219400Y-26150685D01*
X176290828Y-26007828D01*
X176362257Y-25936400D01*
X176505114Y-25864971D01*
X178433685Y-27364971D02*
X177576542Y-27364971D01*
X178005114Y-27364971D02*
X178005114Y-25864971D01*
X177862257Y-26079257D01*
X177719400Y-26222114D01*
X177576542Y-26293542D01*
D10*
D11*
X133644400Y-28086400D02*
X241644400Y-28086400D01*
D10*
D11*
X135076542Y-30164971D02*
X135076542Y-28664971D01*
X135933685Y-30164971D02*
X135290828Y-29307828D01*
X135933685Y-28664971D02*
X135076542Y-29522114D01*
X136576542Y-30164971D02*
X136576542Y-29164971D01*
X136576542Y-28664971D02*
X136505114Y-28736400D01*
X136576542Y-28807828D01*
X136647971Y-28736400D01*
X136576542Y-28664971D01*
X136576542Y-28807828D01*
X138147971Y-30022114D02*
X138076542Y-30093542D01*
X137862257Y-30164971D01*
X137719400Y-30164971D01*
X137505114Y-30093542D01*
X137362257Y-29950685D01*
X137290828Y-29807828D01*
X137219400Y-29522114D01*
X137219400Y-29307828D01*
X137290828Y-29022114D01*
X137362257Y-28879257D01*
X137505114Y-28736400D01*
X137719400Y-28664971D01*
X137862257Y-28664971D01*
X138076542Y-28736400D01*
X138147971Y-28807828D01*
X139433685Y-30164971D02*
X139433685Y-29379257D01*
X139362257Y-29236400D01*
X139219400Y-29164971D01*
X138933685Y-29164971D01*
X138790828Y-29236400D01*
X139433685Y-30093542D02*
X139290828Y-30164971D01*
X138933685Y-30164971D01*
X138790828Y-30093542D01*
X138719400Y-29950685D01*
X138719400Y-29807828D01*
X138790828Y-29664971D01*
X138933685Y-29593542D01*
X139290828Y-29593542D01*
X139433685Y-29522114D01*
X140790828Y-30164971D02*
X140790828Y-28664971D01*
X140790828Y-30093542D02*
X140647971Y-30164971D01*
X140362257Y-30164971D01*
X140219400Y-30093542D01*
X140147971Y-30022114D01*
X140076542Y-29879257D01*
X140076542Y-29450685D01*
X140147971Y-29307828D01*
X140219400Y-29236400D01*
X140362257Y-29164971D01*
X140647971Y-29164971D01*
X140790828Y-29236400D01*
X142647971Y-29379257D02*
X143147971Y-29379257D01*
X143362257Y-30164971D02*
X142647971Y-30164971D01*
X142647971Y-28664971D01*
X143362257Y-28664971D01*
X144005114Y-30022114D02*
X144076542Y-30093542D01*
X144005114Y-30164971D01*
X143933685Y-30093542D01*
X144005114Y-30022114D01*
X144005114Y-30164971D01*
X144719400Y-30164971D02*
X144719400Y-28664971D01*
X145076542Y-28664971D01*
X145290828Y-28736400D01*
X145433685Y-28879257D01*
X145505114Y-29022114D01*
X145576542Y-29307828D01*
X145576542Y-29522114D01*
X145505114Y-29807828D01*
X145433685Y-29950685D01*
X145290828Y-30093542D01*
X145076542Y-30164971D01*
X144719400Y-30164971D01*
X146219400Y-30022114D02*
X146290828Y-30093542D01*
X146219400Y-30164971D01*
X146147971Y-30093542D01*
X146219400Y-30022114D01*
X146219400Y-30164971D01*
X146862257Y-29736400D02*
X147576542Y-29736400D01*
X146719400Y-30164971D02*
X147219400Y-28664971D01*
X147719400Y-30164971D01*
X148219400Y-30022114D02*
X148290828Y-30093542D01*
X148219400Y-30164971D01*
X148147971Y-30093542D01*
X148219400Y-30022114D01*
X148219400Y-30164971D01*
X151219400Y-30164971D02*
X151219400Y-28664971D01*
X151362257Y-29593542D02*
X151790828Y-30164971D01*
X151790828Y-29164971D02*
X151219400Y-29736400D01*
X152433685Y-30164971D02*
X152433685Y-29164971D01*
X152433685Y-28664971D02*
X152362257Y-28736400D01*
X152433685Y-28807828D01*
X152505114Y-28736400D01*
X152433685Y-28664971D01*
X152433685Y-28807828D01*
X153790828Y-30093542D02*
X153647971Y-30164971D01*
X153362257Y-30164971D01*
X153219400Y-30093542D01*
X153147971Y-30022114D01*
X153076542Y-29879257D01*
X153076542Y-29450685D01*
X153147971Y-29307828D01*
X153219400Y-29236400D01*
X153362257Y-29164971D01*
X153647971Y-29164971D01*
X153790828Y-29236400D01*
X155076542Y-30164971D02*
X155076542Y-29379257D01*
X155005114Y-29236400D01*
X154862257Y-29164971D01*
X154576542Y-29164971D01*
X154433685Y-29236400D01*
X155076542Y-30093542D02*
X154933685Y-30164971D01*
X154576542Y-30164971D01*
X154433685Y-30093542D01*
X154362257Y-29950685D01*
X154362257Y-29807828D01*
X154433685Y-29664971D01*
X154576542Y-29593542D01*
X154933685Y-29593542D01*
X155076542Y-29522114D01*
X156433685Y-30164971D02*
X156433685Y-28664971D01*
X156433685Y-30093542D02*
X156290828Y-30164971D01*
X156005114Y-30164971D01*
X155862257Y-30093542D01*
X155790828Y-30022114D01*
X155719400Y-29879257D01*
X155719400Y-29450685D01*
X155790828Y-29307828D01*
X155862257Y-29236400D01*
X156005114Y-29164971D01*
X156290828Y-29164971D01*
X156433685Y-29236400D01*
X158719400Y-30736400D02*
X158647971Y-30664971D01*
X158505114Y-30450685D01*
X158433685Y-30307828D01*
X158362257Y-30093542D01*
X158290828Y-29736400D01*
X158290828Y-29450685D01*
X158362257Y-29093542D01*
X158433685Y-28879257D01*
X158505114Y-28736400D01*
X158647971Y-28522114D01*
X158719400Y-28450685D01*
X160005114Y-28664971D02*
X159290828Y-28664971D01*
X159219400Y-29379257D01*
X159290828Y-29307828D01*
X159433685Y-29236400D01*
X159790828Y-29236400D01*
X159933685Y-29307828D01*
X160005114Y-29379257D01*
X160076542Y-29522114D01*
X160076542Y-29879257D01*
X160005114Y-30022114D01*
X159933685Y-30093542D01*
X159790828Y-30164971D01*
X159433685Y-30164971D01*
X159290828Y-30093542D01*
X159219400Y-30022114D01*
X160719400Y-30022114D02*
X160790828Y-30093542D01*
X160719400Y-30164971D01*
X160647971Y-30093542D01*
X160719400Y-30022114D01*
X160719400Y-30164971D01*
X162219400Y-30164971D02*
X161362257Y-30164971D01*
X161790828Y-30164971D02*
X161790828Y-28664971D01*
X161647971Y-28879257D01*
X161505114Y-29022114D01*
X161362257Y-29093542D01*
X162862257Y-30022114D02*
X162933685Y-30093542D01*
X162862257Y-30164971D01*
X162790828Y-30093542D01*
X162862257Y-30022114D01*
X162862257Y-30164971D01*
X164290828Y-28664971D02*
X163576542Y-28664971D01*
X163505114Y-29379257D01*
X163576542Y-29307828D01*
X163719400Y-29236400D01*
X164076542Y-29236400D01*
X164219400Y-29307828D01*
X164290828Y-29379257D01*
X164362257Y-29522114D01*
X164362257Y-29879257D01*
X164290828Y-30022114D01*
X164219400Y-30093542D01*
X164076542Y-30164971D01*
X163719400Y-30164971D01*
X163576542Y-30093542D01*
X163505114Y-30022114D01*
X164862257Y-30736400D02*
X164933685Y-30664971D01*
X165076542Y-30450685D01*
X165147971Y-30307828D01*
X165219400Y-30093542D01*
X165290828Y-29736400D01*
X165290828Y-29450685D01*
X165219400Y-29093542D01*
X165147971Y-28879257D01*
X165076542Y-28736400D01*
X164933685Y-28522114D01*
X164862257Y-28450685D01*
X166005114Y-29593542D02*
X167147971Y-29593542D01*
X167719400Y-28664971D02*
X168647971Y-28664971D01*
X168147971Y-29236400D01*
X168362257Y-29236400D01*
X168505114Y-29307828D01*
X168576542Y-29379257D01*
X168647971Y-29522114D01*
X168647971Y-29879257D01*
X168576542Y-30022114D01*
X168505114Y-30093542D01*
X168362257Y-30164971D01*
X167933685Y-30164971D01*
X167790828Y-30093542D01*
X167719400Y-30022114D01*
D10*
D11*
X133644400Y-25086400D02*
X241644400Y-25086400D01*
D10*
D12*
X221053685Y-27364971D02*
X220553685Y-26650685D01*
X220196542Y-27364971D02*
X220196542Y-25864971D01*
X220767971Y-25864971D01*
X220910828Y-25936400D01*
X220982257Y-26007828D01*
X221053685Y-26150685D01*
X221053685Y-26364971D01*
X220982257Y-26507828D01*
X220910828Y-26579257D01*
X220767971Y-26650685D01*
X220196542Y-26650685D01*
X222267971Y-27293542D02*
X222125114Y-27364971D01*
X221839400Y-27364971D01*
X221696542Y-27293542D01*
X221625114Y-27150685D01*
X221625114Y-26579257D01*
X221696542Y-26436400D01*
X221839400Y-26364971D01*
X222125114Y-26364971D01*
X222267971Y-26436400D01*
X222339400Y-26579257D01*
X222339400Y-26722114D01*
X221625114Y-26864971D01*
X222839400Y-26364971D02*
X223196542Y-27364971D01*
X223553685Y-26364971D01*
X224125114Y-27222114D02*
X224196542Y-27293542D01*
X224125114Y-27364971D01*
X224053685Y-27293542D01*
X224125114Y-27222114D01*
X224125114Y-27364971D01*
X224125114Y-26436400D02*
X224196542Y-26507828D01*
X224125114Y-26579257D01*
X224053685Y-26507828D01*
X224125114Y-26436400D01*
X224125114Y-26579257D01*
X226267971Y-25864971D02*
X226410828Y-25864971D01*
X226553685Y-25936400D01*
X226625114Y-26007828D01*
X226696542Y-26150685D01*
X226767971Y-26436400D01*
X226767971Y-26793542D01*
X226696542Y-27079257D01*
X226625114Y-27222114D01*
X226553685Y-27293542D01*
X226410828Y-27364971D01*
X226267971Y-27364971D01*
X226125114Y-27293542D01*
X226053685Y-27222114D01*
X225982257Y-27079257D01*
X225910828Y-26793542D01*
X225910828Y-26436400D01*
X225982257Y-26150685D01*
X226053685Y-26007828D01*
X226125114Y-25936400D01*
X226267971Y-25864971D01*
X227410828Y-27222114D02*
X227482257Y-27293542D01*
X227410828Y-27364971D01*
X227339400Y-27293542D01*
X227410828Y-27222114D01*
X227410828Y-27364971D01*
X228910828Y-27364971D02*
X228053685Y-27364971D01*
X228482257Y-27364971D02*
X228482257Y-25864971D01*
X228339400Y-26079257D01*
X228196542Y-26222114D01*
X228053685Y-26293542D01*
D10*
D11*
X135005114Y-27293542D02*
X135219400Y-27364971D01*
X135576542Y-27364971D01*
X135719400Y-27293542D01*
X135790828Y-27222114D01*
X135862257Y-27079257D01*
X135862257Y-26936400D01*
X135790828Y-26793542D01*
X135719400Y-26722114D01*
X135576542Y-26650685D01*
X135290828Y-26579257D01*
X135147971Y-26507828D01*
X135076542Y-26436400D01*
X135005114Y-26293542D01*
X135005114Y-26150685D01*
X135076542Y-26007828D01*
X135147971Y-25936400D01*
X135290828Y-25864971D01*
X135647971Y-25864971D01*
X135862257Y-25936400D01*
X136505114Y-27364971D02*
X136505114Y-26364971D01*
X136505114Y-25864971D02*
X136433685Y-25936400D01*
X136505114Y-26007828D01*
X136576542Y-25936400D01*
X136505114Y-25864971D01*
X136505114Y-26007828D01*
X137076542Y-26364971D02*
X137862257Y-26364971D01*
X137076542Y-27364971D01*
X137862257Y-27364971D01*
X139005114Y-27293542D02*
X138862257Y-27364971D01*
X138576542Y-27364971D01*
X138433685Y-27293542D01*
X138362257Y-27150685D01*
X138362257Y-26579257D01*
X138433685Y-26436400D01*
X138576542Y-26364971D01*
X138862257Y-26364971D01*
X139005114Y-26436400D01*
X139076542Y-26579257D01*
X139076542Y-26722114D01*
X138362257Y-26864971D01*
X139719400Y-27222114D02*
X139790828Y-27293542D01*
X139719400Y-27364971D01*
X139647971Y-27293542D01*
X139719400Y-27222114D01*
X139719400Y-27364971D01*
X139719400Y-26436400D02*
X139790828Y-26507828D01*
X139719400Y-26579257D01*
X139647971Y-26507828D01*
X139719400Y-26436400D01*
X139719400Y-26579257D01*
X141576542Y-25864971D02*
X141576542Y-27079257D01*
X141647971Y-27222114D01*
X141719400Y-27293542D01*
X141862257Y-27364971D01*
X142147971Y-27364971D01*
X142290828Y-27293542D01*
X142362257Y-27222114D01*
X142433685Y-27079257D01*
X142433685Y-25864971D01*
X143076542Y-27293542D02*
X143290828Y-27364971D01*
X143647971Y-27364971D01*
X143790828Y-27293542D01*
X143862257Y-27222114D01*
X143933685Y-27079257D01*
X143933685Y-26936400D01*
X143862257Y-26793542D01*
X143790828Y-26722114D01*
X143647971Y-26650685D01*
X143362257Y-26579257D01*
X143219400Y-26507828D01*
X143147971Y-26436400D01*
X143076542Y-26293542D01*
X143076542Y-26150685D01*
X143147971Y-26007828D01*
X143219400Y-25936400D01*
X143362257Y-25864971D01*
X143719400Y-25864971D01*
X143933685Y-25936400D01*
X145290828Y-27364971D02*
X144576542Y-27364971D01*
X144576542Y-25864971D01*
X146362257Y-27293542D02*
X146219400Y-27364971D01*
X145933685Y-27364971D01*
X145790828Y-27293542D01*
X145719400Y-27150685D01*
X145719400Y-26579257D01*
X145790828Y-26436400D01*
X145933685Y-26364971D01*
X146219400Y-26364971D01*
X146362257Y-26436400D01*
X146433685Y-26579257D01*
X146433685Y-26722114D01*
X145719400Y-26864971D01*
X147719400Y-26364971D02*
X147719400Y-27579257D01*
X147647971Y-27722114D01*
X147576542Y-27793542D01*
X147433685Y-27864971D01*
X147219400Y-27864971D01*
X147076542Y-27793542D01*
X147719400Y-27293542D02*
X147576542Y-27364971D01*
X147290828Y-27364971D01*
X147147971Y-27293542D01*
X147076542Y-27222114D01*
X147005114Y-27079257D01*
X147005114Y-26650685D01*
X147076542Y-26507828D01*
X147147971Y-26436400D01*
X147290828Y-26364971D01*
X147576542Y-26364971D01*
X147719400Y-26436400D01*
X149076542Y-27364971D02*
X149076542Y-26579257D01*
X149005114Y-26436400D01*
X148862257Y-26364971D01*
X148576542Y-26364971D01*
X148433685Y-26436400D01*
X149076542Y-27293542D02*
X148933685Y-27364971D01*
X148576542Y-27364971D01*
X148433685Y-27293542D01*
X148362257Y-27150685D01*
X148362257Y-27007828D01*
X148433685Y-26864971D01*
X148576542Y-26793542D01*
X148933685Y-26793542D01*
X149076542Y-26722114D01*
X150005114Y-27364971D02*
X149862257Y-27293542D01*
X149790828Y-27150685D01*
X149790828Y-25864971D01*
D10*
D11*
X220076542Y-30164971D02*
X220076542Y-28664971D01*
X221433685Y-30164971D02*
X221433685Y-28664971D01*
X221433685Y-30093542D02*
X221290828Y-30164971D01*
X221005114Y-30164971D01*
X220862257Y-30093542D01*
X220790828Y-30022114D01*
X220719400Y-29879257D01*
X220719400Y-29450685D01*
X220790828Y-29307828D01*
X220862257Y-29236400D01*
X221005114Y-29164971D01*
X221290828Y-29164971D01*
X221433685Y-29236400D01*
X222147971Y-30022114D02*
X222219400Y-30093542D01*
X222147971Y-30164971D01*
X222076542Y-30093542D01*
X222147971Y-30022114D01*
X222147971Y-30164971D01*
X222147971Y-29236400D02*
X222219400Y-29307828D01*
X222147971Y-29379257D01*
X222076542Y-29307828D01*
X222147971Y-29236400D01*
X222147971Y-29379257D01*
X224790828Y-30164971D02*
X223933685Y-30164971D01*
X224362257Y-30164971D02*
X224362257Y-28664971D01*
X224219400Y-28879257D01*
X224076542Y-29022114D01*
X223933685Y-29093542D01*
X226505114Y-28593542D02*
X225219400Y-30522114D01*
X227790828Y-30164971D02*
X226933685Y-30164971D01*
X227362257Y-30164971D02*
X227362257Y-28664971D01*
X227219400Y-28879257D01*
X227076542Y-29022114D01*
X226933685Y-29093542D01*
D10*
D11*
X133644400Y-21086400D02*
X241644400Y-21086400D01*
D10*
D13*
X135356780Y-21791161D02*
X136499638Y-21791161D01*
X135678209Y-23791161D02*
X135928209Y-21791161D01*
X136916304Y-23791161D02*
X137082971Y-22457828D01*
X137166304Y-21791161D02*
X137059161Y-21886400D01*
X137142495Y-21981638D01*
X137249638Y-21886400D01*
X137166304Y-21791161D01*
X137142495Y-21981638D01*
X137749638Y-22457828D02*
X138511542Y-22457828D01*
X138118685Y-21791161D02*
X137904400Y-23505447D01*
X137975828Y-23695923D01*
X138154400Y-23791161D01*
X138344876Y-23791161D01*
X139297257Y-23791161D02*
X139118685Y-23695923D01*
X139047257Y-23505447D01*
X139261542Y-21791161D01*
X140832971Y-23695923D02*
X140630590Y-23791161D01*
X140249638Y-23791161D01*
X140071066Y-23695923D01*
X139999638Y-23505447D01*
X140094876Y-22743542D01*
X140213923Y-22553066D01*
X140416304Y-22457828D01*
X140797257Y-22457828D01*
X140975828Y-22553066D01*
X141047257Y-22743542D01*
X141023447Y-22934019D01*
X140047257Y-23124495D01*
X141797257Y-23600685D02*
X141880590Y-23695923D01*
X141773447Y-23791161D01*
X141690114Y-23695923D01*
X141797257Y-23600685D01*
X141773447Y-23791161D01*
X141928209Y-22553066D02*
X142011542Y-22648304D01*
X141904400Y-22743542D01*
X141821066Y-22648304D01*
X141928209Y-22553066D01*
X141904400Y-22743542D01*
X144249638Y-23791161D02*
X144499638Y-21791161D01*
X144975828Y-21791161D01*
X145249638Y-21886400D01*
X145416304Y-22076876D01*
X145487733Y-22267352D01*
X145535352Y-22648304D01*
X145499638Y-22934019D01*
X145356780Y-23314971D01*
X145237733Y-23505447D01*
X145023447Y-23695923D01*
X144725828Y-23791161D01*
X144249638Y-23791161D01*
X147416304Y-23600685D02*
X147309161Y-23695923D01*
X147011542Y-23791161D01*
X146821066Y-23791161D01*
X146547257Y-23695923D01*
X146380590Y-23505447D01*
X146309161Y-23314971D01*
X146261542Y-22934019D01*
X146297257Y-22648304D01*
X146440114Y-22267352D01*
X146559161Y-22076876D01*
X146773447Y-21886400D01*
X147071066Y-21791161D01*
X147261542Y-21791161D01*
X147535352Y-21886400D01*
X147618685Y-21981638D01*
X148678209Y-22648304D02*
X148499638Y-22553066D01*
X148416304Y-22457828D01*
X148344876Y-22267352D01*
X148356780Y-22172114D01*
X148475828Y-21981638D01*
X148582971Y-21886400D01*
X148785352Y-21791161D01*
X149166304Y-21791161D01*
X149344876Y-21886400D01*
X149428209Y-21981638D01*
X149499638Y-22172114D01*
X149487733Y-22267352D01*
X149368685Y-22457828D01*
X149261542Y-22553066D01*
X149059161Y-22648304D01*
X148678209Y-22648304D01*
X148475828Y-22743542D01*
X148368685Y-22838780D01*
X148249638Y-23029257D01*
X148202019Y-23410209D01*
X148273447Y-23600685D01*
X148356780Y-23695923D01*
X148535352Y-23791161D01*
X148916304Y-23791161D01*
X149118685Y-23695923D01*
X149225828Y-23600685D01*
X149344876Y-23410209D01*
X149392495Y-23029257D01*
X149321066Y-22838780D01*
X149237733Y-22743542D01*
X149059161Y-22648304D01*
X150785352Y-21791161D02*
X150975828Y-21791161D01*
X151154400Y-21886400D01*
X151237733Y-21981638D01*
X151309161Y-22172114D01*
X151356780Y-22553066D01*
X151297257Y-23029257D01*
X151154400Y-23410209D01*
X151035352Y-23600685D01*
X150928209Y-23695923D01*
X150725828Y-23791161D01*
X150535352Y-23791161D01*
X150356780Y-23695923D01*
X150273447Y-23600685D01*
X150202019Y-23410209D01*
X150154400Y-23029257D01*
X150213923Y-22553066D01*
X150356780Y-22172114D01*
X150475828Y-21981638D01*
X150582971Y-21886400D01*
X150785352Y-21791161D01*
X153106780Y-23791161D02*
X151963923Y-23791161D01*
X152535352Y-23791161D02*
X152785352Y-21791161D01*
X152559161Y-22076876D01*
X152344876Y-22267352D01*
X152142495Y-22362590D01*
X156285352Y-22743542D02*
X156559161Y-22838780D01*
X156642495Y-22934019D01*
X156713923Y-23124495D01*
X156678209Y-23410209D01*
X156559161Y-23600685D01*
X156452019Y-23695923D01*
X156249638Y-23791161D01*
X155487733Y-23791161D01*
X155737733Y-21791161D01*
X156404400Y-21791161D01*
X156582971Y-21886400D01*
X156666304Y-21981638D01*
X156737733Y-22172114D01*
X156713923Y-22362590D01*
X156594876Y-22553066D01*
X156487733Y-22648304D01*
X156285352Y-22743542D01*
X155618685Y-22743542D01*
X158344876Y-23791161D02*
X158475828Y-22743542D01*
X158404400Y-22553066D01*
X158225828Y-22457828D01*
X157844876Y-22457828D01*
X157642495Y-22553066D01*
X158356780Y-23695923D02*
X158154400Y-23791161D01*
X157678209Y-23791161D01*
X157499638Y-23695923D01*
X157428209Y-23505447D01*
X157452019Y-23314971D01*
X157571066Y-23124495D01*
X157773447Y-23029257D01*
X158249638Y-23029257D01*
X158452019Y-22934019D01*
X160154400Y-23791161D02*
X160404400Y-21791161D01*
X160166304Y-23695923D02*
X159963923Y-23791161D01*
X159582971Y-23791161D01*
X159404400Y-23695923D01*
X159321066Y-23600685D01*
X159249638Y-23410209D01*
X159321066Y-22838780D01*
X159440114Y-22648304D01*
X159547257Y-22553066D01*
X159749638Y-22457828D01*
X160130590Y-22457828D01*
X160309161Y-22553066D01*
X162130590Y-22457828D02*
X161928209Y-24076876D01*
X161809161Y-24267352D01*
X161702019Y-24362590D01*
X161499638Y-24457828D01*
X161213923Y-24457828D01*
X161035352Y-24362590D01*
X161975828Y-23695923D02*
X161773447Y-23791161D01*
X161392495Y-23791161D01*
X161213923Y-23695923D01*
X161130590Y-23600685D01*
X161059161Y-23410209D01*
X161130590Y-22838780D01*
X161249638Y-22648304D01*
X161356780Y-22553066D01*
X161559161Y-22457828D01*
X161940114Y-22457828D01*
X162118685Y-22553066D01*
X163690114Y-23695923D02*
X163487733Y-23791161D01*
X163106780Y-23791161D01*
X162928209Y-23695923D01*
X162856780Y-23505447D01*
X162952019Y-22743542D01*
X163071066Y-22553066D01*
X163273447Y-22457828D01*
X163654400Y-22457828D01*
X163832971Y-22553066D01*
X163904400Y-22743542D01*
X163880590Y-22934019D01*
X162904400Y-23124495D01*
X166249638Y-23029257D02*
X167773447Y-23029257D01*
X170952019Y-22743542D02*
X171225828Y-22838780D01*
X171309161Y-22934019D01*
X171380590Y-23124495D01*
X171344876Y-23410209D01*
X171225828Y-23600685D01*
X171118685Y-23695923D01*
X170916304Y-23791161D01*
X170154400Y-23791161D01*
X170404400Y-21791161D01*
X171071066Y-21791161D01*
X171249638Y-21886400D01*
X171332971Y-21981638D01*
X171404400Y-22172114D01*
X171380590Y-22362590D01*
X171261542Y-22553066D01*
X171154400Y-22648304D01*
X170952019Y-22743542D01*
X170285352Y-22743542D01*
X172154400Y-23791161D02*
X172404400Y-21791161D01*
X172892495Y-23219733D01*
X173737733Y-21791161D01*
X173487733Y-23791161D01*
D10*
D11*
X135576542Y-19179257D02*
X135076542Y-19179257D01*
X135076542Y-19964971D02*
X135076542Y-18464971D01*
X135790828Y-18464971D01*
X136362257Y-19964971D02*
X136362257Y-18964971D01*
X136362257Y-18464971D02*
X136290828Y-18536400D01*
X136362257Y-18607828D01*
X136433685Y-18536400D01*
X136362257Y-18464971D01*
X136362257Y-18607828D01*
X137290828Y-19964971D02*
X137147971Y-19893542D01*
X137076542Y-19750685D01*
X137076542Y-18464971D01*
X138433685Y-19893542D02*
X138290828Y-19964971D01*
X138005114Y-19964971D01*
X137862257Y-19893542D01*
X137790828Y-19750685D01*
X137790828Y-19179257D01*
X137862257Y-19036400D01*
X138005114Y-18964971D01*
X138290828Y-18964971D01*
X138433685Y-19036400D01*
X138505114Y-19179257D01*
X138505114Y-19322114D01*
X137790828Y-19464971D01*
X139147971Y-19822114D02*
X139219400Y-19893542D01*
X139147971Y-19964971D01*
X139076542Y-19893542D01*
X139147971Y-19822114D01*
X139147971Y-19964971D01*
X139147971Y-19036400D02*
X139219400Y-19107828D01*
X139147971Y-19179257D01*
X139076542Y-19107828D01*
X139147971Y-19036400D01*
X139147971Y-19179257D01*
X141005114Y-18964971D02*
X141005114Y-20464971D01*
X141005114Y-19036400D02*
X141147971Y-18964971D01*
X141433685Y-18964971D01*
X141576542Y-19036400D01*
X141647971Y-19107828D01*
X141719400Y-19250685D01*
X141719400Y-19679257D01*
X141647971Y-19822114D01*
X141576542Y-19893542D01*
X141433685Y-19964971D01*
X141147971Y-19964971D01*
X141005114Y-19893542D01*
X143005114Y-18964971D02*
X143005114Y-19964971D01*
X142362257Y-18964971D02*
X142362257Y-19750685D01*
X142433685Y-19893542D01*
X142576542Y-19964971D01*
X142790828Y-19964971D01*
X142933685Y-19893542D01*
X143005114Y-19822114D01*
X143719400Y-19964971D02*
X143719400Y-18964971D01*
X143719400Y-19250685D02*
X143790828Y-19107828D01*
X143862257Y-19036400D01*
X144005114Y-18964971D01*
X144147971Y-18964971D01*
X144647971Y-18964971D02*
X144647971Y-20464971D01*
X144647971Y-19036400D02*
X144790828Y-18964971D01*
X145076542Y-18964971D01*
X145219400Y-19036400D01*
X145290828Y-19107828D01*
X145362257Y-19250685D01*
X145362257Y-19679257D01*
X145290828Y-19822114D01*
X145219400Y-19893542D01*
X145076542Y-19964971D01*
X144790828Y-19964971D01*
X144647971Y-19893542D01*
X146219400Y-19964971D02*
X146076542Y-19893542D01*
X146005114Y-19750685D01*
X146005114Y-18464971D01*
X147362257Y-19893542D02*
X147219400Y-19964971D01*
X146933685Y-19964971D01*
X146790828Y-19893542D01*
X146719400Y-19750685D01*
X146719400Y-19179257D01*
X146790828Y-19036400D01*
X146933685Y-18964971D01*
X147219400Y-18964971D01*
X147362257Y-19036400D01*
X147433685Y-19179257D01*
X147433685Y-19322114D01*
X146719400Y-19464971D01*
X147933685Y-18964971D02*
X148219400Y-19964971D01*
X148505114Y-19250685D01*
X148790828Y-19964971D01*
X149076542Y-18964971D01*
X149647971Y-19964971D02*
X149647971Y-18964971D01*
X149647971Y-18464971D02*
X149576542Y-18536400D01*
X149647971Y-18607828D01*
X149719400Y-18536400D01*
X149647971Y-18464971D01*
X149647971Y-18607828D01*
X150219400Y-18964971D02*
X151005114Y-18964971D01*
X150219400Y-19964971D01*
X151005114Y-19964971D01*
X152219400Y-19964971D02*
X152219400Y-19179257D01*
X152147971Y-19036400D01*
X152005114Y-18964971D01*
X151719400Y-18964971D01*
X151576542Y-19036400D01*
X152219400Y-19893542D02*
X152076542Y-19964971D01*
X151719400Y-19964971D01*
X151576542Y-19893542D01*
X151505114Y-19750685D01*
X151505114Y-19607828D01*
X151576542Y-19464971D01*
X151719400Y-19393542D01*
X152076542Y-19393542D01*
X152219400Y-19322114D01*
X152933685Y-19964971D02*
X152933685Y-18964971D01*
X152933685Y-19250685D02*
X153005114Y-19107828D01*
X153076542Y-19036400D01*
X153219400Y-18964971D01*
X153362257Y-18964971D01*
X154505114Y-19964971D02*
X154505114Y-18464971D01*
X154505114Y-19893542D02*
X154362257Y-19964971D01*
X154076542Y-19964971D01*
X153933685Y-19893542D01*
X153862257Y-19822114D01*
X153790828Y-19679257D01*
X153790828Y-19250685D01*
X153862257Y-19107828D01*
X153933685Y-19036400D01*
X154076542Y-18964971D01*
X154362257Y-18964971D01*
X154505114Y-19036400D01*
X155219400Y-19822114D02*
X155290828Y-19893542D01*
X155219400Y-19964971D01*
X155147971Y-19893542D01*
X155219400Y-19822114D01*
X155219400Y-19964971D01*
X155933685Y-19964971D02*
X155933685Y-18464971D01*
X156076542Y-19393542D02*
X156505114Y-19964971D01*
X156505114Y-18964971D02*
X155933685Y-19536400D01*
X157147971Y-19964971D02*
X157147971Y-18964971D01*
X157147971Y-18464971D02*
X157076542Y-18536400D01*
X157147971Y-18607828D01*
X157219400Y-18536400D01*
X157147971Y-18464971D01*
X157147971Y-18607828D01*
X158505114Y-19893542D02*
X158362257Y-19964971D01*
X158076542Y-19964971D01*
X157933685Y-19893542D01*
X157862257Y-19822114D01*
X157790828Y-19679257D01*
X157790828Y-19250685D01*
X157862257Y-19107828D01*
X157933685Y-19036400D01*
X158076542Y-18964971D01*
X158362257Y-18964971D01*
X158505114Y-19036400D01*
X159790828Y-19964971D02*
X159790828Y-19179257D01*
X159719400Y-19036400D01*
X159576542Y-18964971D01*
X159290828Y-18964971D01*
X159147971Y-19036400D01*
X159790828Y-19893542D02*
X159647971Y-19964971D01*
X159290828Y-19964971D01*
X159147971Y-19893542D01*
X159076542Y-19750685D01*
X159076542Y-19607828D01*
X159147971Y-19464971D01*
X159290828Y-19393542D01*
X159647971Y-19393542D01*
X159790828Y-19322114D01*
X161147971Y-19964971D02*
X161147971Y-18464971D01*
X161147971Y-19893542D02*
X161005114Y-19964971D01*
X160719400Y-19964971D01*
X160576542Y-19893542D01*
X160505114Y-19822114D01*
X160433685Y-19679257D01*
X160433685Y-19250685D01*
X160505114Y-19107828D01*
X160576542Y-19036400D01*
X160719400Y-18964971D01*
X161005114Y-18964971D01*
X161147971Y-19036400D01*
X161505114Y-20107828D02*
X162647971Y-20107828D01*
X163005114Y-18964971D02*
X163005114Y-20464971D01*
X163005114Y-19036400D02*
X163147971Y-18964971D01*
X163433685Y-18964971D01*
X163576542Y-19036400D01*
X163647971Y-19107828D01*
X163719400Y-19250685D01*
X163719400Y-19679257D01*
X163647971Y-19822114D01*
X163576542Y-19893542D01*
X163433685Y-19964971D01*
X163147971Y-19964971D01*
X163005114Y-19893542D01*
X165005114Y-19893542D02*
X164862257Y-19964971D01*
X164576542Y-19964971D01*
X164433685Y-19893542D01*
X164362257Y-19822114D01*
X164290828Y-19679257D01*
X164290828Y-19250685D01*
X164362257Y-19107828D01*
X164433685Y-19036400D01*
X164576542Y-18964971D01*
X164862257Y-18964971D01*
X165005114Y-19036400D01*
X165647971Y-19964971D02*
X165647971Y-18464971D01*
X165647971Y-19036400D02*
X165790828Y-18964971D01*
X166076542Y-18964971D01*
X166219400Y-19036400D01*
X166290828Y-19107828D01*
X166362257Y-19250685D01*
X166362257Y-19679257D01*
X166290828Y-19822114D01*
X166219400Y-19893542D01*
X166076542Y-19964971D01*
X165790828Y-19964971D01*
X165647971Y-19893542D01*
D10*
D11*
X133644400Y-15086400D02*
X241644400Y-15086400D01*
D10*
D11*
X135005114Y-17193542D02*
X135219400Y-17264971D01*
X135576542Y-17264971D01*
X135719400Y-17193542D01*
X135790828Y-17122114D01*
X135862257Y-16979257D01*
X135862257Y-16836400D01*
X135790828Y-16693542D01*
X135719400Y-16622114D01*
X135576542Y-16550685D01*
X135290828Y-16479257D01*
X135147971Y-16407828D01*
X135076542Y-16336400D01*
X135005114Y-16193542D01*
X135005114Y-16050685D01*
X135076542Y-15907828D01*
X135147971Y-15836400D01*
X135290828Y-15764971D01*
X135647971Y-15764971D01*
X135862257Y-15836400D01*
X136505114Y-17264971D02*
X136505114Y-15764971D01*
X137147971Y-17264971D02*
X137147971Y-16479257D01*
X137076542Y-16336400D01*
X136933685Y-16264971D01*
X136719400Y-16264971D01*
X136576542Y-16336400D01*
X136505114Y-16407828D01*
X138433685Y-17193542D02*
X138290828Y-17264971D01*
X138005114Y-17264971D01*
X137862257Y-17193542D01*
X137790828Y-17050685D01*
X137790828Y-16479257D01*
X137862257Y-16336400D01*
X138005114Y-16264971D01*
X138290828Y-16264971D01*
X138433685Y-16336400D01*
X138505114Y-16479257D01*
X138505114Y-16622114D01*
X137790828Y-16764971D01*
X139719400Y-17193542D02*
X139576542Y-17264971D01*
X139290828Y-17264971D01*
X139147971Y-17193542D01*
X139076542Y-17050685D01*
X139076542Y-16479257D01*
X139147971Y-16336400D01*
X139290828Y-16264971D01*
X139576542Y-16264971D01*
X139719400Y-16336400D01*
X139790828Y-16479257D01*
X139790828Y-16622114D01*
X139076542Y-16764971D01*
X140219400Y-16264971D02*
X140790828Y-16264971D01*
X140433685Y-15764971D02*
X140433685Y-17050685D01*
X140505114Y-17193542D01*
X140647971Y-17264971D01*
X140790828Y-17264971D01*
X141290828Y-17122114D02*
X141362257Y-17193542D01*
X141290828Y-17264971D01*
X141219400Y-17193542D01*
X141290828Y-17122114D01*
X141290828Y-17264971D01*
X141290828Y-16336400D02*
X141362257Y-16407828D01*
X141290828Y-16479257D01*
X141219400Y-16407828D01*
X141290828Y-16336400D01*
X141290828Y-16479257D01*
D10*
D12*
X135196542Y-14264971D02*
X135196542Y-12764971D01*
X135553685Y-12764971D01*
X135767971Y-12836400D01*
X135910828Y-12979257D01*
X135982257Y-13122114D01*
X136053685Y-13407828D01*
X136053685Y-13622114D01*
X135982257Y-13907828D01*
X135910828Y-14050685D01*
X135767971Y-14193542D01*
X135553685Y-14264971D01*
X135196542Y-14264971D01*
X137553685Y-14122114D02*
X137482257Y-14193542D01*
X137267971Y-14264971D01*
X137125114Y-14264971D01*
X136910828Y-14193542D01*
X136767971Y-14050685D01*
X136696542Y-13907828D01*
X136625114Y-13622114D01*
X136625114Y-13407828D01*
X136696542Y-13122114D01*
X136767971Y-12979257D01*
X136910828Y-12836400D01*
X137125114Y-12764971D01*
X137267971Y-12764971D01*
X137482257Y-12836400D01*
X137553685Y-12907828D01*
X138410828Y-13407828D02*
X138267971Y-13336400D01*
X138196542Y-13264971D01*
X138125114Y-13122114D01*
X138125114Y-13050685D01*
X138196542Y-12907828D01*
X138267971Y-12836400D01*
X138410828Y-12764971D01*
X138696542Y-12764971D01*
X138839400Y-12836400D01*
X138910828Y-12907828D01*
X138982257Y-13050685D01*
X138982257Y-13122114D01*
X138910828Y-13264971D01*
X138839400Y-13336400D01*
X138696542Y-13407828D01*
X138410828Y-13407828D01*
X138267971Y-13479257D01*
X138196542Y-13550685D01*
X138125114Y-13693542D01*
X138125114Y-13979257D01*
X138196542Y-14122114D01*
X138267971Y-14193542D01*
X138410828Y-14264971D01*
X138696542Y-14264971D01*
X138839400Y-14193542D01*
X138910828Y-14122114D01*
X138982257Y-13979257D01*
X138982257Y-13693542D01*
X138910828Y-13550685D01*
X138839400Y-13479257D01*
X138696542Y-13407828D01*
X139910828Y-12764971D02*
X140053685Y-12764971D01*
X140196542Y-12836400D01*
X140267971Y-12907828D01*
X140339400Y-13050685D01*
X140410828Y-13336400D01*
X140410828Y-13693542D01*
X140339400Y-13979257D01*
X140267971Y-14122114D01*
X140196542Y-14193542D01*
X140053685Y-14264971D01*
X139910828Y-14264971D01*
X139767971Y-14193542D01*
X139696542Y-14122114D01*
X139625114Y-13979257D01*
X139553685Y-13693542D01*
X139553685Y-13336400D01*
X139625114Y-13050685D01*
X139696542Y-12907828D01*
X139767971Y-12836400D01*
X139910828Y-12764971D01*
X141839400Y-14264971D02*
X140982257Y-14264971D01*
X141410828Y-14264971D02*
X141410828Y-12764971D01*
X141267971Y-12979257D01*
X141125114Y-13122114D01*
X140982257Y-13193542D01*
D10*
D11*
X135719400Y-11193542D02*
X135576542Y-11264971D01*
X135290828Y-11264971D01*
X135147971Y-11193542D01*
X135076542Y-11122114D01*
X135005114Y-10979257D01*
X135005114Y-10550685D01*
X135076542Y-10407828D01*
X135147971Y-10336400D01*
X135290828Y-10264971D01*
X135576542Y-10264971D01*
X135719400Y-10336400D01*
X136576542Y-11264971D02*
X136433685Y-11193542D01*
X136362257Y-11122114D01*
X136290828Y-10979257D01*
X136290828Y-10550685D01*
X136362257Y-10407828D01*
X136433685Y-10336400D01*
X136576542Y-10264971D01*
X136790828Y-10264971D01*
X136933685Y-10336400D01*
X137005114Y-10407828D01*
X137076542Y-10550685D01*
X137076542Y-10979257D01*
X137005114Y-11122114D01*
X136933685Y-11193542D01*
X136790828Y-11264971D01*
X136576542Y-11264971D01*
X138362257Y-11264971D02*
X138362257Y-9764971D01*
X138362257Y-11193542D02*
X138219400Y-11264971D01*
X137933685Y-11264971D01*
X137790828Y-11193542D01*
X137719400Y-11122114D01*
X137647971Y-10979257D01*
X137647971Y-10550685D01*
X137719400Y-10407828D01*
X137790828Y-10336400D01*
X137933685Y-10264971D01*
X138219400Y-10264971D01*
X138362257Y-10336400D01*
X139647971Y-11193542D02*
X139505114Y-11264971D01*
X139219400Y-11264971D01*
X139076542Y-11193542D01*
X139005114Y-11050685D01*
X139005114Y-10479257D01*
X139076542Y-10336400D01*
X139219400Y-10264971D01*
X139505114Y-10264971D01*
X139647971Y-10336400D01*
X139719400Y-10479257D01*
X139719400Y-10622114D01*
X139005114Y-10764971D01*
X140362257Y-10264971D02*
X140362257Y-11264971D01*
X140362257Y-10407828D02*
X140433685Y-10336400D01*
X140576542Y-10264971D01*
X140790828Y-10264971D01*
X140933685Y-10336400D01*
X141005114Y-10479257D01*
X141005114Y-11264971D01*
X142362257Y-11264971D02*
X142362257Y-10479257D01*
X142290828Y-10336400D01*
X142147971Y-10264971D01*
X141862257Y-10264971D01*
X141719400Y-10336400D01*
X142362257Y-11193542D02*
X142219400Y-11264971D01*
X141862257Y-11264971D01*
X141719400Y-11193542D01*
X141647971Y-11050685D01*
X141647971Y-10907828D01*
X141719400Y-10764971D01*
X141862257Y-10693542D01*
X142219400Y-10693542D01*
X142362257Y-10622114D01*
X143076542Y-11264971D02*
X143076542Y-10264971D01*
X143076542Y-10407828D02*
X143147971Y-10336400D01*
X143290828Y-10264971D01*
X143505114Y-10264971D01*
X143647971Y-10336400D01*
X143719400Y-10479257D01*
X143719400Y-11264971D01*
X143719400Y-10479257D02*
X143790828Y-10336400D01*
X143933685Y-10264971D01*
X144147971Y-10264971D01*
X144290828Y-10336400D01*
X144362257Y-10479257D01*
X144362257Y-11264971D01*
X145647971Y-11193542D02*
X145505114Y-11264971D01*
X145219400Y-11264971D01*
X145076542Y-11193542D01*
X145005114Y-11050685D01*
X145005114Y-10479257D01*
X145076542Y-10336400D01*
X145219400Y-10264971D01*
X145505114Y-10264971D01*
X145647971Y-10336400D01*
X145719400Y-10479257D01*
X145719400Y-10622114D01*
X145005114Y-10764971D01*
X147505114Y-10264971D02*
X147505114Y-11764971D01*
X147505114Y-10336400D02*
X147647971Y-10264971D01*
X147933685Y-10264971D01*
X148076542Y-10336400D01*
X148147971Y-10407828D01*
X148219400Y-10550685D01*
X148219400Y-10979257D01*
X148147971Y-11122114D01*
X148076542Y-11193542D01*
X147933685Y-11264971D01*
X147647971Y-11264971D01*
X147505114Y-11193542D01*
X149505114Y-10264971D02*
X149505114Y-11264971D01*
X148862257Y-10264971D02*
X148862257Y-11050685D01*
X148933685Y-11193542D01*
X149076542Y-11264971D01*
X149290828Y-11264971D01*
X149433685Y-11193542D01*
X149505114Y-11122114D01*
X150219400Y-11264971D02*
X150219400Y-10264971D01*
X150219400Y-10550685D02*
X150290828Y-10407828D01*
X150362257Y-10336400D01*
X150505114Y-10264971D01*
X150647971Y-10264971D01*
X151147971Y-10264971D02*
X151147971Y-11764971D01*
X151147971Y-10336400D02*
X151290828Y-10264971D01*
X151576542Y-10264971D01*
X151719400Y-10336400D01*
X151790828Y-10407828D01*
X151862257Y-10550685D01*
X151862257Y-10979257D01*
X151790828Y-11122114D01*
X151719400Y-11193542D01*
X151576542Y-11264971D01*
X151290828Y-11264971D01*
X151147971Y-11193542D01*
X152719400Y-11264971D02*
X152576542Y-11193542D01*
X152505114Y-11050685D01*
X152505114Y-9764971D01*
X153862257Y-11193542D02*
X153719400Y-11264971D01*
X153433685Y-11264971D01*
X153290828Y-11193542D01*
X153219400Y-11050685D01*
X153219400Y-10479257D01*
X153290828Y-10336400D01*
X153433685Y-10264971D01*
X153719400Y-10264971D01*
X153862257Y-10336400D01*
X153933685Y-10479257D01*
X153933685Y-10622114D01*
X153219400Y-10764971D01*
X154433685Y-10264971D02*
X154719400Y-11264971D01*
X155005114Y-10550685D01*
X155290828Y-11264971D01*
X155576542Y-10264971D01*
X156147971Y-11264971D02*
X156147971Y-10264971D01*
X156147971Y-9764971D02*
X156076542Y-9836400D01*
X156147971Y-9907828D01*
X156219400Y-9836400D01*
X156147971Y-9764971D01*
X156147971Y-9907828D01*
X156719400Y-10264971D02*
X157505114Y-10264971D01*
X156719400Y-11264971D01*
X157505114Y-11264971D01*
X158719400Y-11264971D02*
X158719400Y-10479257D01*
X158647971Y-10336400D01*
X158505114Y-10264971D01*
X158219400Y-10264971D01*
X158076542Y-10336400D01*
X158719400Y-11193542D02*
X158576542Y-11264971D01*
X158219400Y-11264971D01*
X158076542Y-11193542D01*
X158005114Y-11050685D01*
X158005114Y-10907828D01*
X158076542Y-10764971D01*
X158219400Y-10693542D01*
X158576542Y-10693542D01*
X158719400Y-10622114D01*
X159433685Y-11264971D02*
X159433685Y-10264971D01*
X159433685Y-10550685D02*
X159505114Y-10407828D01*
X159576542Y-10336400D01*
X159719400Y-10264971D01*
X159862257Y-10264971D01*
X161005114Y-11264971D02*
X161005114Y-9764971D01*
X161005114Y-11193542D02*
X160862257Y-11264971D01*
X160576542Y-11264971D01*
X160433685Y-11193542D01*
X160362257Y-11122114D01*
X160290828Y-10979257D01*
X160290828Y-10550685D01*
X160362257Y-10407828D01*
X160433685Y-10336400D01*
X160576542Y-10264971D01*
X160862257Y-10264971D01*
X161005114Y-10336400D01*
D10*
D11*
X136005114Y-1550685D02*
X135933685Y-1479257D01*
X135790828Y-1407828D01*
X135647971Y-1407828D01*
X135505114Y-1479257D01*
X135433685Y-1550685D01*
X135362257Y-1693542D01*
X135362257Y-1836400D01*
X135433685Y-1979257D01*
X135505114Y-2050685D01*
X135647971Y-2122114D01*
X135790828Y-2122114D01*
X135933685Y-2050685D01*
X136005114Y-1979257D01*
X136005114Y-1407828D02*
X136005114Y-1979257D01*
X136076542Y-2050685D01*
X136147971Y-2050685D01*
X136290828Y-1979257D01*
X136362257Y-1836400D01*
X136362257Y-1479257D01*
X136219400Y-1264971D01*
X136005114Y-1122114D01*
X135719400Y-1050685D01*
X135433685Y-1122114D01*
X135219400Y-1264971D01*
X135076542Y-1479257D01*
X135005114Y-1764971D01*
X135076542Y-2050685D01*
X135219400Y-2264971D01*
X135433685Y-2407828D01*
X135719400Y-2479257D01*
X136005114Y-2407828D01*
X136219400Y-2264971D01*
X137005114Y-2264971D02*
X137005114Y-764971D01*
X137647971Y-2264971D02*
X137647971Y-1479257D01*
X137576542Y-1336400D01*
X137433685Y-1264971D01*
X137219400Y-1264971D01*
X137076542Y-1336400D01*
X137005114Y-1407828D01*
X139005114Y-2264971D02*
X139005114Y-1479257D01*
X138933685Y-1336400D01*
X138790828Y-1264971D01*
X138505114Y-1264971D01*
X138362257Y-1336400D01*
X139005114Y-2193542D02*
X138862257Y-2264971D01*
X138505114Y-2264971D01*
X138362257Y-2193542D01*
X138290828Y-2050685D01*
X138290828Y-1907828D01*
X138362257Y-1764971D01*
X138505114Y-1693542D01*
X138862257Y-1693542D01*
X139005114Y-1622114D01*
X139719400Y-2264971D02*
X139719400Y-1264971D01*
X139719400Y-1407828D02*
X139790828Y-1336400D01*
X139933685Y-1264971D01*
X140147971Y-1264971D01*
X140290828Y-1336400D01*
X140362257Y-1479257D01*
X140362257Y-2264971D01*
X140362257Y-1479257D02*
X140433685Y-1336400D01*
X140576542Y-1264971D01*
X140790828Y-1264971D01*
X140933685Y-1336400D01*
X141005114Y-1479257D01*
X141005114Y-2264971D01*
X141647971Y-2193542D02*
X141790828Y-2264971D01*
X142076542Y-2264971D01*
X142219400Y-2193542D01*
X142290828Y-2050685D01*
X142290828Y-1979257D01*
X142219400Y-1836400D01*
X142076542Y-1764971D01*
X141862257Y-1764971D01*
X141719400Y-1693542D01*
X141647971Y-1550685D01*
X141647971Y-1479257D01*
X141719400Y-1336400D01*
X141862257Y-1264971D01*
X142076542Y-1264971D01*
X142219400Y-1336400D01*
X142719400Y-1264971D02*
X143290828Y-1264971D01*
X142933685Y-764971D02*
X142933685Y-2050685D01*
X143005114Y-2193542D01*
X143147971Y-2264971D01*
X143290828Y-2264971D01*
X144362257Y-2193542D02*
X144219400Y-2264971D01*
X143933685Y-2264971D01*
X143790828Y-2193542D01*
X143719400Y-2050685D01*
X143719400Y-1479257D01*
X143790828Y-1336400D01*
X143933685Y-1264971D01*
X144219400Y-1264971D01*
X144362257Y-1336400D01*
X144433685Y-1479257D01*
X144433685Y-1622114D01*
X143719400Y-1764971D01*
X145076542Y-2264971D02*
X145076542Y-1264971D01*
X145076542Y-1550685D02*
X145147971Y-1407828D01*
X145219400Y-1336400D01*
X145362257Y-1264971D01*
X145505114Y-1264971D01*
X147790828Y-2264971D02*
X147790828Y-1479257D01*
X147719400Y-1336400D01*
X147576542Y-1264971D01*
X147290828Y-1264971D01*
X147147971Y-1336400D01*
X147790828Y-2193542D02*
X147647971Y-2264971D01*
X147290828Y-2264971D01*
X147147971Y-2193542D01*
X147076542Y-2050685D01*
X147076542Y-1907828D01*
X147147971Y-1764971D01*
X147290828Y-1693542D01*
X147647971Y-1693542D01*
X147790828Y-1622114D01*
X148505114Y-1264971D02*
X148505114Y-2264971D01*
X148505114Y-1407828D02*
X148576542Y-1336400D01*
X148719400Y-1264971D01*
X148933685Y-1264971D01*
X149076542Y-1336400D01*
X149147971Y-1479257D01*
X149147971Y-2264971D01*
X150505114Y-2264971D02*
X150505114Y-764971D01*
X150505114Y-2193542D02*
X150362257Y-2264971D01*
X150076542Y-2264971D01*
X149933685Y-2193542D01*
X149862257Y-2122114D01*
X149790828Y-1979257D01*
X149790828Y-1550685D01*
X149862257Y-1407828D01*
X149933685Y-1336400D01*
X150076542Y-1264971D01*
X150362257Y-1264971D01*
X150505114Y-1336400D01*
X152147971Y-1264971D02*
X152719400Y-1264971D01*
X152362257Y-764971D02*
X152362257Y-2050685D01*
X152433685Y-2193542D01*
X152576542Y-2264971D01*
X152719400Y-2264971D01*
X153219400Y-2264971D02*
X153219400Y-764971D01*
X153862257Y-2264971D02*
X153862257Y-1479257D01*
X153790828Y-1336400D01*
X153647971Y-1264971D01*
X153433685Y-1264971D01*
X153290828Y-1336400D01*
X153219400Y-1407828D01*
X155147971Y-2193542D02*
X155005114Y-2264971D01*
X154719400Y-2264971D01*
X154576542Y-2193542D01*
X154505114Y-2050685D01*
X154505114Y-1479257D01*
X154576542Y-1336400D01*
X154719400Y-1264971D01*
X155005114Y-1264971D01*
X155147971Y-1336400D01*
X155219400Y-1479257D01*
X155219400Y-1622114D01*
X154505114Y-1764971D01*
X157647971Y-2264971D02*
X157647971Y-764971D01*
X157647971Y-2193542D02*
X157505114Y-2264971D01*
X157219400Y-2264971D01*
X157076542Y-2193542D01*
X157005114Y-2122114D01*
X156933685Y-1979257D01*
X156933685Y-1550685D01*
X157005114Y-1407828D01*
X157076542Y-1336400D01*
X157219400Y-1264971D01*
X157505114Y-1264971D01*
X157647971Y-1336400D01*
X159005114Y-2193542D02*
X158862257Y-2264971D01*
X158576542Y-2264971D01*
X158433685Y-2193542D01*
X158362257Y-2122114D01*
X158290828Y-1979257D01*
X158290828Y-1550685D01*
X158362257Y-1407828D01*
X158433685Y-1336400D01*
X158576542Y-1264971D01*
X158862257Y-1264971D01*
X159005114Y-1336400D01*
X159862257Y-1407828D02*
X159719400Y-1336400D01*
X159647971Y-1264971D01*
X159576542Y-1122114D01*
X159576542Y-1050685D01*
X159647971Y-907828D01*
X159719400Y-836400D01*
X159862257Y-764971D01*
X160147971Y-764971D01*
X160290828Y-836400D01*
X160362257Y-907828D01*
X160433685Y-1050685D01*
X160433685Y-1122114D01*
X160362257Y-1264971D01*
X160290828Y-1336400D01*
X160147971Y-1407828D01*
X159862257Y-1407828D01*
X159719400Y-1479257D01*
X159647971Y-1550685D01*
X159576542Y-1693542D01*
X159576542Y-1979257D01*
X159647971Y-2122114D01*
X159719400Y-2193542D01*
X159862257Y-2264971D01*
X160147971Y-2264971D01*
X160290828Y-2193542D01*
X160362257Y-2122114D01*
X160433685Y-1979257D01*
X160433685Y-1693542D01*
X160362257Y-1550685D01*
X160290828Y-1479257D01*
X160147971Y-1407828D01*
X161362257Y-764971D02*
X161505114Y-764971D01*
X161647971Y-836400D01*
X161719400Y-907828D01*
X161790828Y-1050685D01*
X161862257Y-1336400D01*
X161862257Y-1693542D01*
X161790828Y-1979257D01*
X161719400Y-2122114D01*
X161647971Y-2193542D01*
X161505114Y-2264971D01*
X161362257Y-2264971D01*
X161219400Y-2193542D01*
X161147971Y-2122114D01*
X161076542Y-1979257D01*
X161005114Y-1693542D01*
X161005114Y-1336400D01*
X161076542Y-1050685D01*
X161147971Y-907828D01*
X161219400Y-836400D01*
X161362257Y-764971D01*
X163290828Y-2264971D02*
X162433685Y-2264971D01*
X162862257Y-2264971D02*
X162862257Y-764971D01*
X162719400Y-979257D01*
X162576542Y-1122114D01*
X162433685Y-1193542D01*
X165076542Y-2264971D02*
X165076542Y-764971D01*
X165076542Y-1336400D02*
X165219400Y-1264971D01*
X165505114Y-1264971D01*
X165647971Y-1336400D01*
X165719400Y-1407828D01*
X165790828Y-1550685D01*
X165790828Y-1979257D01*
X165719400Y-2122114D01*
X165647971Y-2193542D01*
X165505114Y-2264971D01*
X165219400Y-2264971D01*
X165076542Y-2193542D01*
X167076542Y-2264971D02*
X167076542Y-1479257D01*
X167005114Y-1336400D01*
X166862257Y-1264971D01*
X166576542Y-1264971D01*
X166433685Y-1336400D01*
X167076542Y-2193542D02*
X166933685Y-2264971D01*
X166576542Y-2264971D01*
X166433685Y-2193542D01*
X166362257Y-2050685D01*
X166362257Y-1907828D01*
X166433685Y-1764971D01*
X166576542Y-1693542D01*
X166933685Y-1693542D01*
X167076542Y-1622114D01*
X168433685Y-2264971D02*
X168433685Y-764971D01*
X168433685Y-2193542D02*
X168290828Y-2264971D01*
X168005114Y-2264971D01*
X167862257Y-2193542D01*
X167790828Y-2122114D01*
X167719400Y-1979257D01*
X167719400Y-1550685D01*
X167790828Y-1407828D01*
X167862257Y-1336400D01*
X168005114Y-1264971D01*
X168290828Y-1264971D01*
X168433685Y-1336400D01*
X169790828Y-1264971D02*
X169790828Y-2479257D01*
X169719400Y-2622114D01*
X169647971Y-2693542D01*
X169505114Y-2764971D01*
X169290828Y-2764971D01*
X169147971Y-2693542D01*
X169790828Y-2193542D02*
X169647971Y-2264971D01*
X169362257Y-2264971D01*
X169219400Y-2193542D01*
X169147971Y-2122114D01*
X169076542Y-1979257D01*
X169076542Y-1550685D01*
X169147971Y-1407828D01*
X169219400Y-1336400D01*
X169362257Y-1264971D01*
X169647971Y-1264971D01*
X169790828Y-1336400D01*
X171076542Y-2193542D02*
X170933685Y-2264971D01*
X170647971Y-2264971D01*
X170505114Y-2193542D01*
X170433685Y-2050685D01*
X170433685Y-1479257D01*
X170505114Y-1336400D01*
X170647971Y-1264971D01*
X170933685Y-1264971D01*
X171076542Y-1336400D01*
X171147971Y-1479257D01*
X171147971Y-1622114D01*
X170433685Y-1764971D01*
X172719400Y-1264971D02*
X173290828Y-1264971D01*
X172933685Y-764971D02*
X172933685Y-2050685D01*
X173005114Y-2193542D01*
X173147971Y-2264971D01*
X173290828Y-2264971D01*
X174362257Y-2193542D02*
X174219400Y-2264971D01*
X173933685Y-2264971D01*
X173790828Y-2193542D01*
X173719400Y-2050685D01*
X173719400Y-1479257D01*
X173790828Y-1336400D01*
X173933685Y-1264971D01*
X174219400Y-1264971D01*
X174362257Y-1336400D01*
X174433685Y-1479257D01*
X174433685Y-1622114D01*
X173719400Y-1764971D01*
X175719400Y-2264971D02*
X175719400Y-1479257D01*
X175647971Y-1336400D01*
X175505114Y-1264971D01*
X175219400Y-1264971D01*
X175076542Y-1336400D01*
X175719400Y-2193542D02*
X175576542Y-2264971D01*
X175219400Y-2264971D01*
X175076542Y-2193542D01*
X175005114Y-2050685D01*
X175005114Y-1907828D01*
X175076542Y-1764971D01*
X175219400Y-1693542D01*
X175576542Y-1693542D01*
X175719400Y-1622114D01*
X176433685Y-2264971D02*
X176433685Y-1264971D01*
X176433685Y-1407828D02*
X176505114Y-1336400D01*
X176647971Y-1264971D01*
X176862257Y-1264971D01*
X177005114Y-1336400D01*
X177076542Y-1479257D01*
X177076542Y-2264971D01*
X177076542Y-1479257D02*
X177147971Y-1336400D01*
X177290828Y-1264971D01*
X177505114Y-1264971D01*
X177647971Y-1336400D01*
X177719400Y-1479257D01*
X177719400Y-2264971D01*
D10*
D11*
X153644400Y-25086400D02*
X153644400Y-28086400D01*
D10*
D11*
X217644400Y-25086400D02*
X217644400Y-31586400D01*
D10*
G36*
X14743691Y77783081D02*
G01*
X14764926Y77779931D01*
X14785750Y77774715D01*
X14805962Y77767483D01*
X14825368Y77758304D01*
X14843781Y77747268D01*
X14861024Y77734480D01*
X14876930Y77720064D01*
X14891346Y77704158D01*
X14904134Y77686915D01*
X14915170Y77668502D01*
X14924349Y77649096D01*
X14931581Y77628884D01*
X14936797Y77608060D01*
X14939947Y77586825D01*
X14941000Y77565384D01*
X14941000Y77052884D01*
X14939947Y77031443D01*
X14936797Y77010208D01*
X14931581Y76989384D01*
X14924349Y76969172D01*
X14915170Y76949766D01*
X14904134Y76931353D01*
X14891346Y76914110D01*
X14876930Y76898204D01*
X14861024Y76883788D01*
X14843781Y76871000D01*
X14825368Y76859964D01*
X14805962Y76850785D01*
X14785750Y76843553D01*
X14764926Y76838337D01*
X14743691Y76835187D01*
X14722250Y76834134D01*
X14284750Y76834134D01*
X14263309Y76835187D01*
X14242074Y76838337D01*
X14221250Y76843553D01*
X14201038Y76850785D01*
X14181632Y76859964D01*
X14163219Y76871000D01*
X14145976Y76883788D01*
X14130070Y76898204D01*
X14115654Y76914110D01*
X14102866Y76931353D01*
X14091830Y76949766D01*
X14082651Y76969172D01*
X14075419Y76989384D01*
X14070203Y77010208D01*
X14067053Y77031443D01*
X14066000Y77052884D01*
X14066000Y77565384D01*
X14067053Y77586825D01*
X14070203Y77608060D01*
X14075419Y77628884D01*
X14082651Y77649096D01*
X14091830Y77668502D01*
X14102866Y77686915D01*
X14115654Y77704158D01*
X14130070Y77720064D01*
X14145976Y77734480D01*
X14163219Y77747268D01*
X14181632Y77758304D01*
X14201038Y77767483D01*
X14221250Y77774715D01*
X14242074Y77779931D01*
X14263309Y77783081D01*
X14284750Y77784134D01*
X14722250Y77784134D01*
X14743691Y77783081D01*
G37*
G36*
X13168691Y77783081D02*
G01*
X13189926Y77779931D01*
X13210750Y77774715D01*
X13230962Y77767483D01*
X13250368Y77758304D01*
X13268781Y77747268D01*
X13286024Y77734480D01*
X13301930Y77720064D01*
X13316346Y77704158D01*
X13329134Y77686915D01*
X13340170Y77668502D01*
X13349349Y77649096D01*
X13356581Y77628884D01*
X13361797Y77608060D01*
X13364947Y77586825D01*
X13366000Y77565384D01*
X13366000Y77052884D01*
X13364947Y77031443D01*
X13361797Y77010208D01*
X13356581Y76989384D01*
X13349349Y76969172D01*
X13340170Y76949766D01*
X13329134Y76931353D01*
X13316346Y76914110D01*
X13301930Y76898204D01*
X13286024Y76883788D01*
X13268781Y76871000D01*
X13250368Y76859964D01*
X13230962Y76850785D01*
X13210750Y76843553D01*
X13189926Y76838337D01*
X13168691Y76835187D01*
X13147250Y76834134D01*
X12709750Y76834134D01*
X12688309Y76835187D01*
X12667074Y76838337D01*
X12646250Y76843553D01*
X12626038Y76850785D01*
X12606632Y76859964D01*
X12588219Y76871000D01*
X12570976Y76883788D01*
X12555070Y76898204D01*
X12540654Y76914110D01*
X12527866Y76931353D01*
X12516830Y76949766D01*
X12507651Y76969172D01*
X12500419Y76989384D01*
X12495203Y77010208D01*
X12492053Y77031443D01*
X12491000Y77052884D01*
X12491000Y77565384D01*
X12492053Y77586825D01*
X12495203Y77608060D01*
X12500419Y77628884D01*
X12507651Y77649096D01*
X12516830Y77668502D01*
X12527866Y77686915D01*
X12540654Y77704158D01*
X12555070Y77720064D01*
X12570976Y77734480D01*
X12588219Y77747268D01*
X12606632Y77758304D01*
X12626038Y77767483D01*
X12646250Y77774715D01*
X12667074Y77779931D01*
X12688309Y77783081D01*
X12709750Y77784134D01*
X13147250Y77784134D01*
X13168691Y77783081D01*
G37*
G36*
X14743691Y70738815D02*
G01*
X14764926Y70735665D01*
X14785750Y70730449D01*
X14805962Y70723217D01*
X14825368Y70714038D01*
X14843781Y70703002D01*
X14861024Y70690214D01*
X14876930Y70675798D01*
X14891346Y70659892D01*
X14904134Y70642649D01*
X14915170Y70624236D01*
X14924349Y70604830D01*
X14931581Y70584618D01*
X14936797Y70563794D01*
X14939947Y70542559D01*
X14941000Y70521118D01*
X14941000Y70008618D01*
X14939947Y69987177D01*
X14936797Y69965942D01*
X14931581Y69945118D01*
X14924349Y69924906D01*
X14915170Y69905500D01*
X14904134Y69887087D01*
X14891346Y69869844D01*
X14876930Y69853938D01*
X14861024Y69839522D01*
X14843781Y69826734D01*
X14825368Y69815698D01*
X14805962Y69806519D01*
X14785750Y69799287D01*
X14764926Y69794071D01*
X14743691Y69790921D01*
X14722250Y69789868D01*
X14284750Y69789868D01*
X14263309Y69790921D01*
X14242074Y69794071D01*
X14221250Y69799287D01*
X14201038Y69806519D01*
X14181632Y69815698D01*
X14163219Y69826734D01*
X14145976Y69839522D01*
X14130070Y69853938D01*
X14115654Y69869844D01*
X14102866Y69887087D01*
X14091830Y69905500D01*
X14082651Y69924906D01*
X14075419Y69945118D01*
X14070203Y69965942D01*
X14067053Y69987177D01*
X14066000Y70008618D01*
X14066000Y70521118D01*
X14067053Y70542559D01*
X14070203Y70563794D01*
X14075419Y70584618D01*
X14082651Y70604830D01*
X14091830Y70624236D01*
X14102866Y70642649D01*
X14115654Y70659892D01*
X14130070Y70675798D01*
X14145976Y70690214D01*
X14163219Y70703002D01*
X14181632Y70714038D01*
X14201038Y70723217D01*
X14221250Y70730449D01*
X14242074Y70735665D01*
X14263309Y70738815D01*
X14284750Y70739868D01*
X14722250Y70739868D01*
X14743691Y70738815D01*
G37*
G36*
X13168691Y70738815D02*
G01*
X13189926Y70735665D01*
X13210750Y70730449D01*
X13230962Y70723217D01*
X13250368Y70714038D01*
X13268781Y70703002D01*
X13286024Y70690214D01*
X13301930Y70675798D01*
X13316346Y70659892D01*
X13329134Y70642649D01*
X13340170Y70624236D01*
X13349349Y70604830D01*
X13356581Y70584618D01*
X13361797Y70563794D01*
X13364947Y70542559D01*
X13366000Y70521118D01*
X13366000Y70008618D01*
X13364947Y69987177D01*
X13361797Y69965942D01*
X13356581Y69945118D01*
X13349349Y69924906D01*
X13340170Y69905500D01*
X13329134Y69887087D01*
X13316346Y69869844D01*
X13301930Y69853938D01*
X13286024Y69839522D01*
X13268781Y69826734D01*
X13250368Y69815698D01*
X13230962Y69806519D01*
X13210750Y69799287D01*
X13189926Y69794071D01*
X13168691Y69790921D01*
X13147250Y69789868D01*
X12709750Y69789868D01*
X12688309Y69790921D01*
X12667074Y69794071D01*
X12646250Y69799287D01*
X12626038Y69806519D01*
X12606632Y69815698D01*
X12588219Y69826734D01*
X12570976Y69839522D01*
X12555070Y69853938D01*
X12540654Y69869844D01*
X12527866Y69887087D01*
X12516830Y69905500D01*
X12507651Y69924906D01*
X12500419Y69945118D01*
X12495203Y69965942D01*
X12492053Y69987177D01*
X12491000Y70008618D01*
X12491000Y70521118D01*
X12492053Y70542559D01*
X12495203Y70563794D01*
X12500419Y70584618D01*
X12507651Y70604830D01*
X12516830Y70624236D01*
X12527866Y70642649D01*
X12540654Y70659892D01*
X12555070Y70675798D01*
X12570976Y70690214D01*
X12588219Y70703002D01*
X12606632Y70714038D01*
X12626038Y70723217D01*
X12646250Y70730449D01*
X12667074Y70735665D01*
X12688309Y70738815D01*
X12709750Y70739868D01*
X13147250Y70739868D01*
X13168691Y70738815D01*
G37*
G36*
X78599091Y71035147D02*
G01*
X78620326Y71031997D01*
X78641150Y71026781D01*
X78661362Y71019549D01*
X78680768Y71010370D01*
X78699181Y70999334D01*
X78716424Y70986546D01*
X78732330Y70972130D01*
X78746746Y70956224D01*
X78759534Y70938981D01*
X78770570Y70920568D01*
X78779749Y70901162D01*
X78786981Y70880950D01*
X78792197Y70860126D01*
X78795347Y70838891D01*
X78796400Y70817450D01*
X78796400Y70304950D01*
X78795347Y70283509D01*
X78792197Y70262274D01*
X78786981Y70241450D01*
X78779749Y70221238D01*
X78770570Y70201832D01*
X78759534Y70183419D01*
X78746746Y70166176D01*
X78732330Y70150270D01*
X78716424Y70135854D01*
X78699181Y70123066D01*
X78680768Y70112030D01*
X78661362Y70102851D01*
X78641150Y70095619D01*
X78620326Y70090403D01*
X78599091Y70087253D01*
X78577650Y70086200D01*
X78140150Y70086200D01*
X78118709Y70087253D01*
X78097474Y70090403D01*
X78076650Y70095619D01*
X78056438Y70102851D01*
X78037032Y70112030D01*
X78018619Y70123066D01*
X78001376Y70135854D01*
X77985470Y70150270D01*
X77971054Y70166176D01*
X77958266Y70183419D01*
X77947230Y70201832D01*
X77938051Y70221238D01*
X77930819Y70241450D01*
X77925603Y70262274D01*
X77922453Y70283509D01*
X77921400Y70304950D01*
X77921400Y70817450D01*
X77922453Y70838891D01*
X77925603Y70860126D01*
X77930819Y70880950D01*
X77938051Y70901162D01*
X77947230Y70920568D01*
X77958266Y70938981D01*
X77971054Y70956224D01*
X77985470Y70972130D01*
X78001376Y70986546D01*
X78018619Y70999334D01*
X78037032Y71010370D01*
X78056438Y71019549D01*
X78076650Y71026781D01*
X78097474Y71031997D01*
X78118709Y71035147D01*
X78140150Y71036200D01*
X78577650Y71036200D01*
X78599091Y71035147D01*
G37*
G36*
X80174091Y71035147D02*
G01*
X80195326Y71031997D01*
X80216150Y71026781D01*
X80236362Y71019549D01*
X80255768Y71010370D01*
X80274181Y70999334D01*
X80291424Y70986546D01*
X80307330Y70972130D01*
X80321746Y70956224D01*
X80334534Y70938981D01*
X80345570Y70920568D01*
X80354749Y70901162D01*
X80361981Y70880950D01*
X80367197Y70860126D01*
X80370347Y70838891D01*
X80371400Y70817450D01*
X80371400Y70304950D01*
X80370347Y70283509D01*
X80367197Y70262274D01*
X80361981Y70241450D01*
X80354749Y70221238D01*
X80345570Y70201832D01*
X80334534Y70183419D01*
X80321746Y70166176D01*
X80307330Y70150270D01*
X80291424Y70135854D01*
X80274181Y70123066D01*
X80255768Y70112030D01*
X80236362Y70102851D01*
X80216150Y70095619D01*
X80195326Y70090403D01*
X80174091Y70087253D01*
X80152650Y70086200D01*
X79715150Y70086200D01*
X79693709Y70087253D01*
X79672474Y70090403D01*
X79651650Y70095619D01*
X79631438Y70102851D01*
X79612032Y70112030D01*
X79593619Y70123066D01*
X79576376Y70135854D01*
X79560470Y70150270D01*
X79546054Y70166176D01*
X79533266Y70183419D01*
X79522230Y70201832D01*
X79513051Y70221238D01*
X79505819Y70241450D01*
X79500603Y70262274D01*
X79497453Y70283509D01*
X79496400Y70304950D01*
X79496400Y70817450D01*
X79497453Y70838891D01*
X79500603Y70860126D01*
X79505819Y70880950D01*
X79513051Y70901162D01*
X79522230Y70920568D01*
X79533266Y70938981D01*
X79546054Y70956224D01*
X79560470Y70972130D01*
X79576376Y70986546D01*
X79593619Y70999334D01*
X79612032Y71010370D01*
X79631438Y71019549D01*
X79651650Y71026781D01*
X79672474Y71031997D01*
X79693709Y71035147D01*
X79715150Y71036200D01*
X80152650Y71036200D01*
X80174091Y71035147D01*
G37*
G36*
X35524319Y48632347D02*
G01*
X35545554Y48629197D01*
X35566378Y48623981D01*
X35586590Y48616749D01*
X35605996Y48607570D01*
X35624409Y48596534D01*
X35641652Y48583746D01*
X35657558Y48569330D01*
X35671974Y48553424D01*
X35684762Y48536181D01*
X35695798Y48517768D01*
X35704977Y48498362D01*
X35712209Y48478150D01*
X35717425Y48457326D01*
X35720575Y48436091D01*
X35721628Y48414650D01*
X35721628Y47902150D01*
X35720575Y47880709D01*
X35717425Y47859474D01*
X35712209Y47838650D01*
X35704977Y47818438D01*
X35695798Y47799032D01*
X35684762Y47780619D01*
X35671974Y47763376D01*
X35657558Y47747470D01*
X35641652Y47733054D01*
X35624409Y47720266D01*
X35605996Y47709230D01*
X35586590Y47700051D01*
X35566378Y47692819D01*
X35545554Y47687603D01*
X35524319Y47684453D01*
X35502878Y47683400D01*
X35065378Y47683400D01*
X35043937Y47684453D01*
X35022702Y47687603D01*
X35001878Y47692819D01*
X34981666Y47700051D01*
X34962260Y47709230D01*
X34943847Y47720266D01*
X34926604Y47733054D01*
X34910698Y47747470D01*
X34896282Y47763376D01*
X34883494Y47780619D01*
X34872458Y47799032D01*
X34863279Y47818438D01*
X34856047Y47838650D01*
X34850831Y47859474D01*
X34847681Y47880709D01*
X34846628Y47902150D01*
X34846628Y48414650D01*
X34847681Y48436091D01*
X34850831Y48457326D01*
X34856047Y48478150D01*
X34863279Y48498362D01*
X34872458Y48517768D01*
X34883494Y48536181D01*
X34896282Y48553424D01*
X34910698Y48569330D01*
X34926604Y48583746D01*
X34943847Y48596534D01*
X34962260Y48607570D01*
X34981666Y48616749D01*
X35001878Y48623981D01*
X35022702Y48629197D01*
X35043937Y48632347D01*
X35065378Y48633400D01*
X35502878Y48633400D01*
X35524319Y48632347D01*
G37*
G36*
X37099319Y48632347D02*
G01*
X37120554Y48629197D01*
X37141378Y48623981D01*
X37161590Y48616749D01*
X37180996Y48607570D01*
X37199409Y48596534D01*
X37216652Y48583746D01*
X37232558Y48569330D01*
X37246974Y48553424D01*
X37259762Y48536181D01*
X37270798Y48517768D01*
X37279977Y48498362D01*
X37287209Y48478150D01*
X37292425Y48457326D01*
X37295575Y48436091D01*
X37296628Y48414650D01*
X37296628Y47902150D01*
X37295575Y47880709D01*
X37292425Y47859474D01*
X37287209Y47838650D01*
X37279977Y47818438D01*
X37270798Y47799032D01*
X37259762Y47780619D01*
X37246974Y47763376D01*
X37232558Y47747470D01*
X37216652Y47733054D01*
X37199409Y47720266D01*
X37180996Y47709230D01*
X37161590Y47700051D01*
X37141378Y47692819D01*
X37120554Y47687603D01*
X37099319Y47684453D01*
X37077878Y47683400D01*
X36640378Y47683400D01*
X36618937Y47684453D01*
X36597702Y47687603D01*
X36576878Y47692819D01*
X36556666Y47700051D01*
X36537260Y47709230D01*
X36518847Y47720266D01*
X36501604Y47733054D01*
X36485698Y47747470D01*
X36471282Y47763376D01*
X36458494Y47780619D01*
X36447458Y47799032D01*
X36438279Y47818438D01*
X36431047Y47838650D01*
X36425831Y47859474D01*
X36422681Y47880709D01*
X36421628Y47902150D01*
X36421628Y48414650D01*
X36422681Y48436091D01*
X36425831Y48457326D01*
X36431047Y48478150D01*
X36438279Y48498362D01*
X36447458Y48517768D01*
X36458494Y48536181D01*
X36471282Y48553424D01*
X36485698Y48569330D01*
X36501604Y48583746D01*
X36518847Y48596534D01*
X36537260Y48607570D01*
X36556666Y48616749D01*
X36576878Y48623981D01*
X36597702Y48629197D01*
X36618937Y48632347D01*
X36640378Y48633400D01*
X37077878Y48633400D01*
X37099319Y48632347D01*
G37*
G36*
X33197691Y131443947D02*
G01*
X33218926Y131440797D01*
X33239750Y131435581D01*
X33259962Y131428349D01*
X33279368Y131419170D01*
X33297781Y131408134D01*
X33315024Y131395346D01*
X33330930Y131380930D01*
X33345346Y131365024D01*
X33358134Y131347781D01*
X33369170Y131329368D01*
X33378349Y131309962D01*
X33385581Y131289750D01*
X33390797Y131268926D01*
X33393947Y131247691D01*
X33395000Y131226250D01*
X33395000Y130713750D01*
X33393947Y130692309D01*
X33390797Y130671074D01*
X33385581Y130650250D01*
X33378349Y130630038D01*
X33369170Y130610632D01*
X33358134Y130592219D01*
X33345346Y130574976D01*
X33330930Y130559070D01*
X33315024Y130544654D01*
X33297781Y130531866D01*
X33279368Y130520830D01*
X33259962Y130511651D01*
X33239750Y130504419D01*
X33218926Y130499203D01*
X33197691Y130496053D01*
X33176250Y130495000D01*
X32738750Y130495000D01*
X32717309Y130496053D01*
X32696074Y130499203D01*
X32675250Y130504419D01*
X32655038Y130511651D01*
X32635632Y130520830D01*
X32617219Y130531866D01*
X32599976Y130544654D01*
X32584070Y130559070D01*
X32569654Y130574976D01*
X32556866Y130592219D01*
X32545830Y130610632D01*
X32536651Y130630038D01*
X32529419Y130650250D01*
X32524203Y130671074D01*
X32521053Y130692309D01*
X32520000Y130713750D01*
X32520000Y131226250D01*
X32521053Y131247691D01*
X32524203Y131268926D01*
X32529419Y131289750D01*
X32536651Y131309962D01*
X32545830Y131329368D01*
X32556866Y131347781D01*
X32569654Y131365024D01*
X32584070Y131380930D01*
X32599976Y131395346D01*
X32617219Y131408134D01*
X32635632Y131419170D01*
X32655038Y131428349D01*
X32675250Y131435581D01*
X32696074Y131440797D01*
X32717309Y131443947D01*
X32738750Y131445000D01*
X33176250Y131445000D01*
X33197691Y131443947D01*
G37*
G36*
X31622691Y131443947D02*
G01*
X31643926Y131440797D01*
X31664750Y131435581D01*
X31684962Y131428349D01*
X31704368Y131419170D01*
X31722781Y131408134D01*
X31740024Y131395346D01*
X31755930Y131380930D01*
X31770346Y131365024D01*
X31783134Y131347781D01*
X31794170Y131329368D01*
X31803349Y131309962D01*
X31810581Y131289750D01*
X31815797Y131268926D01*
X31818947Y131247691D01*
X31820000Y131226250D01*
X31820000Y130713750D01*
X31818947Y130692309D01*
X31815797Y130671074D01*
X31810581Y130650250D01*
X31803349Y130630038D01*
X31794170Y130610632D01*
X31783134Y130592219D01*
X31770346Y130574976D01*
X31755930Y130559070D01*
X31740024Y130544654D01*
X31722781Y130531866D01*
X31704368Y130520830D01*
X31684962Y130511651D01*
X31664750Y130504419D01*
X31643926Y130499203D01*
X31622691Y130496053D01*
X31601250Y130495000D01*
X31163750Y130495000D01*
X31142309Y130496053D01*
X31121074Y130499203D01*
X31100250Y130504419D01*
X31080038Y130511651D01*
X31060632Y130520830D01*
X31042219Y130531866D01*
X31024976Y130544654D01*
X31009070Y130559070D01*
X30994654Y130574976D01*
X30981866Y130592219D01*
X30970830Y130610632D01*
X30961651Y130630038D01*
X30954419Y130650250D01*
X30949203Y130671074D01*
X30946053Y130692309D01*
X30945000Y130713750D01*
X30945000Y131226250D01*
X30946053Y131247691D01*
X30949203Y131268926D01*
X30954419Y131289750D01*
X30961651Y131309962D01*
X30970830Y131329368D01*
X30981866Y131347781D01*
X30994654Y131365024D01*
X31009070Y131380930D01*
X31024976Y131395346D01*
X31042219Y131408134D01*
X31060632Y131419170D01*
X31080038Y131428349D01*
X31100250Y131435581D01*
X31121074Y131440797D01*
X31142309Y131443947D01*
X31163750Y131445000D01*
X31601250Y131445000D01*
X31622691Y131443947D01*
G37*
G36*
X14718291Y63694547D02*
G01*
X14739526Y63691397D01*
X14760350Y63686181D01*
X14780562Y63678949D01*
X14799968Y63669770D01*
X14818381Y63658734D01*
X14835624Y63645946D01*
X14851530Y63631530D01*
X14865946Y63615624D01*
X14878734Y63598381D01*
X14889770Y63579968D01*
X14898949Y63560562D01*
X14906181Y63540350D01*
X14911397Y63519526D01*
X14914547Y63498291D01*
X14915600Y63476850D01*
X14915600Y62964350D01*
X14914547Y62942909D01*
X14911397Y62921674D01*
X14906181Y62900850D01*
X14898949Y62880638D01*
X14889770Y62861232D01*
X14878734Y62842819D01*
X14865946Y62825576D01*
X14851530Y62809670D01*
X14835624Y62795254D01*
X14818381Y62782466D01*
X14799968Y62771430D01*
X14780562Y62762251D01*
X14760350Y62755019D01*
X14739526Y62749803D01*
X14718291Y62746653D01*
X14696850Y62745600D01*
X14259350Y62745600D01*
X14237909Y62746653D01*
X14216674Y62749803D01*
X14195850Y62755019D01*
X14175638Y62762251D01*
X14156232Y62771430D01*
X14137819Y62782466D01*
X14120576Y62795254D01*
X14104670Y62809670D01*
X14090254Y62825576D01*
X14077466Y62842819D01*
X14066430Y62861232D01*
X14057251Y62880638D01*
X14050019Y62900850D01*
X14044803Y62921674D01*
X14041653Y62942909D01*
X14040600Y62964350D01*
X14040600Y63476850D01*
X14041653Y63498291D01*
X14044803Y63519526D01*
X14050019Y63540350D01*
X14057251Y63560562D01*
X14066430Y63579968D01*
X14077466Y63598381D01*
X14090254Y63615624D01*
X14104670Y63631530D01*
X14120576Y63645946D01*
X14137819Y63658734D01*
X14156232Y63669770D01*
X14175638Y63678949D01*
X14195850Y63686181D01*
X14216674Y63691397D01*
X14237909Y63694547D01*
X14259350Y63695600D01*
X14696850Y63695600D01*
X14718291Y63694547D01*
G37*
G36*
X13143291Y63694547D02*
G01*
X13164526Y63691397D01*
X13185350Y63686181D01*
X13205562Y63678949D01*
X13224968Y63669770D01*
X13243381Y63658734D01*
X13260624Y63645946D01*
X13276530Y63631530D01*
X13290946Y63615624D01*
X13303734Y63598381D01*
X13314770Y63579968D01*
X13323949Y63560562D01*
X13331181Y63540350D01*
X13336397Y63519526D01*
X13339547Y63498291D01*
X13340600Y63476850D01*
X13340600Y62964350D01*
X13339547Y62942909D01*
X13336397Y62921674D01*
X13331181Y62900850D01*
X13323949Y62880638D01*
X13314770Y62861232D01*
X13303734Y62842819D01*
X13290946Y62825576D01*
X13276530Y62809670D01*
X13260624Y62795254D01*
X13243381Y62782466D01*
X13224968Y62771430D01*
X13205562Y62762251D01*
X13185350Y62755019D01*
X13164526Y62749803D01*
X13143291Y62746653D01*
X13121850Y62745600D01*
X12684350Y62745600D01*
X12662909Y62746653D01*
X12641674Y62749803D01*
X12620850Y62755019D01*
X12600638Y62762251D01*
X12581232Y62771430D01*
X12562819Y62782466D01*
X12545576Y62795254D01*
X12529670Y62809670D01*
X12515254Y62825576D01*
X12502466Y62842819D01*
X12491430Y62861232D01*
X12482251Y62880638D01*
X12475019Y62900850D01*
X12469803Y62921674D01*
X12466653Y62942909D01*
X12465600Y62964350D01*
X12465600Y63476850D01*
X12466653Y63498291D01*
X12469803Y63519526D01*
X12475019Y63540350D01*
X12482251Y63560562D01*
X12491430Y63579968D01*
X12502466Y63598381D01*
X12515254Y63615624D01*
X12529670Y63631530D01*
X12545576Y63645946D01*
X12562819Y63658734D01*
X12581232Y63669770D01*
X12600638Y63678949D01*
X12620850Y63686181D01*
X12641674Y63691397D01*
X12662909Y63694547D01*
X12684350Y63695600D01*
X13121850Y63695600D01*
X13143291Y63694547D01*
G37*
G36*
X63987691Y131383947D02*
G01*
X64008926Y131380797D01*
X64029750Y131375581D01*
X64049962Y131368349D01*
X64069368Y131359170D01*
X64087781Y131348134D01*
X64105024Y131335346D01*
X64120930Y131320930D01*
X64135346Y131305024D01*
X64148134Y131287781D01*
X64159170Y131269368D01*
X64168349Y131249962D01*
X64175581Y131229750D01*
X64180797Y131208926D01*
X64183947Y131187691D01*
X64185000Y131166250D01*
X64185000Y130653750D01*
X64183947Y130632309D01*
X64180797Y130611074D01*
X64175581Y130590250D01*
X64168349Y130570038D01*
X64159170Y130550632D01*
X64148134Y130532219D01*
X64135346Y130514976D01*
X64120930Y130499070D01*
X64105024Y130484654D01*
X64087781Y130471866D01*
X64069368Y130460830D01*
X64049962Y130451651D01*
X64029750Y130444419D01*
X64008926Y130439203D01*
X63987691Y130436053D01*
X63966250Y130435000D01*
X63528750Y130435000D01*
X63507309Y130436053D01*
X63486074Y130439203D01*
X63465250Y130444419D01*
X63445038Y130451651D01*
X63425632Y130460830D01*
X63407219Y130471866D01*
X63389976Y130484654D01*
X63374070Y130499070D01*
X63359654Y130514976D01*
X63346866Y130532219D01*
X63335830Y130550632D01*
X63326651Y130570038D01*
X63319419Y130590250D01*
X63314203Y130611074D01*
X63311053Y130632309D01*
X63310000Y130653750D01*
X63310000Y131166250D01*
X63311053Y131187691D01*
X63314203Y131208926D01*
X63319419Y131229750D01*
X63326651Y131249962D01*
X63335830Y131269368D01*
X63346866Y131287781D01*
X63359654Y131305024D01*
X63374070Y131320930D01*
X63389976Y131335346D01*
X63407219Y131348134D01*
X63425632Y131359170D01*
X63445038Y131368349D01*
X63465250Y131375581D01*
X63486074Y131380797D01*
X63507309Y131383947D01*
X63528750Y131385000D01*
X63966250Y131385000D01*
X63987691Y131383947D01*
G37*
G36*
X62412691Y131383947D02*
G01*
X62433926Y131380797D01*
X62454750Y131375581D01*
X62474962Y131368349D01*
X62494368Y131359170D01*
X62512781Y131348134D01*
X62530024Y131335346D01*
X62545930Y131320930D01*
X62560346Y131305024D01*
X62573134Y131287781D01*
X62584170Y131269368D01*
X62593349Y131249962D01*
X62600581Y131229750D01*
X62605797Y131208926D01*
X62608947Y131187691D01*
X62610000Y131166250D01*
X62610000Y130653750D01*
X62608947Y130632309D01*
X62605797Y130611074D01*
X62600581Y130590250D01*
X62593349Y130570038D01*
X62584170Y130550632D01*
X62573134Y130532219D01*
X62560346Y130514976D01*
X62545930Y130499070D01*
X62530024Y130484654D01*
X62512781Y130471866D01*
X62494368Y130460830D01*
X62474962Y130451651D01*
X62454750Y130444419D01*
X62433926Y130439203D01*
X62412691Y130436053D01*
X62391250Y130435000D01*
X61953750Y130435000D01*
X61932309Y130436053D01*
X61911074Y130439203D01*
X61890250Y130444419D01*
X61870038Y130451651D01*
X61850632Y130460830D01*
X61832219Y130471866D01*
X61814976Y130484654D01*
X61799070Y130499070D01*
X61784654Y130514976D01*
X61771866Y130532219D01*
X61760830Y130550632D01*
X61751651Y130570038D01*
X61744419Y130590250D01*
X61739203Y130611074D01*
X61736053Y130632309D01*
X61735000Y130653750D01*
X61735000Y131166250D01*
X61736053Y131187691D01*
X61739203Y131208926D01*
X61744419Y131229750D01*
X61751651Y131249962D01*
X61760830Y131269368D01*
X61771866Y131287781D01*
X61784654Y131305024D01*
X61799070Y131320930D01*
X61814976Y131335346D01*
X61832219Y131348134D01*
X61850632Y131359170D01*
X61870038Y131368349D01*
X61890250Y131375581D01*
X61911074Y131380797D01*
X61932309Y131383947D01*
X61953750Y131385000D01*
X62391250Y131385000D01*
X62412691Y131383947D01*
G37*
G36*
X14743691Y84827347D02*
G01*
X14764926Y84824197D01*
X14785750Y84818981D01*
X14805962Y84811749D01*
X14825368Y84802570D01*
X14843781Y84791534D01*
X14861024Y84778746D01*
X14876930Y84764330D01*
X14891346Y84748424D01*
X14904134Y84731181D01*
X14915170Y84712768D01*
X14924349Y84693362D01*
X14931581Y84673150D01*
X14936797Y84652326D01*
X14939947Y84631091D01*
X14941000Y84609650D01*
X14941000Y84097150D01*
X14939947Y84075709D01*
X14936797Y84054474D01*
X14931581Y84033650D01*
X14924349Y84013438D01*
X14915170Y83994032D01*
X14904134Y83975619D01*
X14891346Y83958376D01*
X14876930Y83942470D01*
X14861024Y83928054D01*
X14843781Y83915266D01*
X14825368Y83904230D01*
X14805962Y83895051D01*
X14785750Y83887819D01*
X14764926Y83882603D01*
X14743691Y83879453D01*
X14722250Y83878400D01*
X14284750Y83878400D01*
X14263309Y83879453D01*
X14242074Y83882603D01*
X14221250Y83887819D01*
X14201038Y83895051D01*
X14181632Y83904230D01*
X14163219Y83915266D01*
X14145976Y83928054D01*
X14130070Y83942470D01*
X14115654Y83958376D01*
X14102866Y83975619D01*
X14091830Y83994032D01*
X14082651Y84013438D01*
X14075419Y84033650D01*
X14070203Y84054474D01*
X14067053Y84075709D01*
X14066000Y84097150D01*
X14066000Y84609650D01*
X14067053Y84631091D01*
X14070203Y84652326D01*
X14075419Y84673150D01*
X14082651Y84693362D01*
X14091830Y84712768D01*
X14102866Y84731181D01*
X14115654Y84748424D01*
X14130070Y84764330D01*
X14145976Y84778746D01*
X14163219Y84791534D01*
X14181632Y84802570D01*
X14201038Y84811749D01*
X14221250Y84818981D01*
X14242074Y84824197D01*
X14263309Y84827347D01*
X14284750Y84828400D01*
X14722250Y84828400D01*
X14743691Y84827347D01*
G37*
G36*
X13168691Y84827347D02*
G01*
X13189926Y84824197D01*
X13210750Y84818981D01*
X13230962Y84811749D01*
X13250368Y84802570D01*
X13268781Y84791534D01*
X13286024Y84778746D01*
X13301930Y84764330D01*
X13316346Y84748424D01*
X13329134Y84731181D01*
X13340170Y84712768D01*
X13349349Y84693362D01*
X13356581Y84673150D01*
X13361797Y84652326D01*
X13364947Y84631091D01*
X13366000Y84609650D01*
X13366000Y84097150D01*
X13364947Y84075709D01*
X13361797Y84054474D01*
X13356581Y84033650D01*
X13349349Y84013438D01*
X13340170Y83994032D01*
X13329134Y83975619D01*
X13316346Y83958376D01*
X13301930Y83942470D01*
X13286024Y83928054D01*
X13268781Y83915266D01*
X13250368Y83904230D01*
X13230962Y83895051D01*
X13210750Y83887819D01*
X13189926Y83882603D01*
X13168691Y83879453D01*
X13147250Y83878400D01*
X12709750Y83878400D01*
X12688309Y83879453D01*
X12667074Y83882603D01*
X12646250Y83887819D01*
X12626038Y83895051D01*
X12606632Y83904230D01*
X12588219Y83915266D01*
X12570976Y83928054D01*
X12555070Y83942470D01*
X12540654Y83958376D01*
X12527866Y83975619D01*
X12516830Y83994032D01*
X12507651Y84013438D01*
X12500419Y84033650D01*
X12495203Y84054474D01*
X12492053Y84075709D01*
X12491000Y84097150D01*
X12491000Y84609650D01*
X12492053Y84631091D01*
X12495203Y84652326D01*
X12500419Y84673150D01*
X12507651Y84693362D01*
X12516830Y84712768D01*
X12527866Y84731181D01*
X12540654Y84748424D01*
X12555070Y84764330D01*
X12570976Y84778746D01*
X12588219Y84791534D01*
X12606632Y84802570D01*
X12626038Y84811749D01*
X12646250Y84818981D01*
X12667074Y84824197D01*
X12688309Y84827347D01*
X12709750Y84828400D01*
X13147250Y84828400D01*
X13168691Y84827347D01*
G37*
G36*
X28524805Y48632347D02*
G01*
X28546040Y48629197D01*
X28566864Y48623981D01*
X28587076Y48616749D01*
X28606482Y48607570D01*
X28624895Y48596534D01*
X28642138Y48583746D01*
X28658044Y48569330D01*
X28672460Y48553424D01*
X28685248Y48536181D01*
X28696284Y48517768D01*
X28705463Y48498362D01*
X28712695Y48478150D01*
X28717911Y48457326D01*
X28721061Y48436091D01*
X28722114Y48414650D01*
X28722114Y47902150D01*
X28721061Y47880709D01*
X28717911Y47859474D01*
X28712695Y47838650D01*
X28705463Y47818438D01*
X28696284Y47799032D01*
X28685248Y47780619D01*
X28672460Y47763376D01*
X28658044Y47747470D01*
X28642138Y47733054D01*
X28624895Y47720266D01*
X28606482Y47709230D01*
X28587076Y47700051D01*
X28566864Y47692819D01*
X28546040Y47687603D01*
X28524805Y47684453D01*
X28503364Y47683400D01*
X28065864Y47683400D01*
X28044423Y47684453D01*
X28023188Y47687603D01*
X28002364Y47692819D01*
X27982152Y47700051D01*
X27962746Y47709230D01*
X27944333Y47720266D01*
X27927090Y47733054D01*
X27911184Y47747470D01*
X27896768Y47763376D01*
X27883980Y47780619D01*
X27872944Y47799032D01*
X27863765Y47818438D01*
X27856533Y47838650D01*
X27851317Y47859474D01*
X27848167Y47880709D01*
X27847114Y47902150D01*
X27847114Y48414650D01*
X27848167Y48436091D01*
X27851317Y48457326D01*
X27856533Y48478150D01*
X27863765Y48498362D01*
X27872944Y48517768D01*
X27883980Y48536181D01*
X27896768Y48553424D01*
X27911184Y48569330D01*
X27927090Y48583746D01*
X27944333Y48596534D01*
X27962746Y48607570D01*
X27982152Y48616749D01*
X28002364Y48623981D01*
X28023188Y48629197D01*
X28044423Y48632347D01*
X28065864Y48633400D01*
X28503364Y48633400D01*
X28524805Y48632347D01*
G37*
G36*
X30099805Y48632347D02*
G01*
X30121040Y48629197D01*
X30141864Y48623981D01*
X30162076Y48616749D01*
X30181482Y48607570D01*
X30199895Y48596534D01*
X30217138Y48583746D01*
X30233044Y48569330D01*
X30247460Y48553424D01*
X30260248Y48536181D01*
X30271284Y48517768D01*
X30280463Y48498362D01*
X30287695Y48478150D01*
X30292911Y48457326D01*
X30296061Y48436091D01*
X30297114Y48414650D01*
X30297114Y47902150D01*
X30296061Y47880709D01*
X30292911Y47859474D01*
X30287695Y47838650D01*
X30280463Y47818438D01*
X30271284Y47799032D01*
X30260248Y47780619D01*
X30247460Y47763376D01*
X30233044Y47747470D01*
X30217138Y47733054D01*
X30199895Y47720266D01*
X30181482Y47709230D01*
X30162076Y47700051D01*
X30141864Y47692819D01*
X30121040Y47687603D01*
X30099805Y47684453D01*
X30078364Y47683400D01*
X29640864Y47683400D01*
X29619423Y47684453D01*
X29598188Y47687603D01*
X29577364Y47692819D01*
X29557152Y47700051D01*
X29537746Y47709230D01*
X29519333Y47720266D01*
X29502090Y47733054D01*
X29486184Y47747470D01*
X29471768Y47763376D01*
X29458980Y47780619D01*
X29447944Y47799032D01*
X29438765Y47818438D01*
X29431533Y47838650D01*
X29426317Y47859474D01*
X29423167Y47880709D01*
X29422114Y47902150D01*
X29422114Y48414650D01*
X29423167Y48436091D01*
X29426317Y48457326D01*
X29431533Y48478150D01*
X29438765Y48498362D01*
X29447944Y48517768D01*
X29458980Y48536181D01*
X29471768Y48553424D01*
X29486184Y48569330D01*
X29502090Y48583746D01*
X29519333Y48596534D01*
X29537746Y48607570D01*
X29557152Y48616749D01*
X29577364Y48623981D01*
X29598188Y48629197D01*
X29619423Y48632347D01*
X29640864Y48633400D01*
X30078364Y48633400D01*
X30099805Y48632347D01*
G37*
G36*
X63522375Y48632347D02*
G01*
X63543610Y48629197D01*
X63564434Y48623981D01*
X63584646Y48616749D01*
X63604052Y48607570D01*
X63622465Y48596534D01*
X63639708Y48583746D01*
X63655614Y48569330D01*
X63670030Y48553424D01*
X63682818Y48536181D01*
X63693854Y48517768D01*
X63703033Y48498362D01*
X63710265Y48478150D01*
X63715481Y48457326D01*
X63718631Y48436091D01*
X63719684Y48414650D01*
X63719684Y47902150D01*
X63718631Y47880709D01*
X63715481Y47859474D01*
X63710265Y47838650D01*
X63703033Y47818438D01*
X63693854Y47799032D01*
X63682818Y47780619D01*
X63670030Y47763376D01*
X63655614Y47747470D01*
X63639708Y47733054D01*
X63622465Y47720266D01*
X63604052Y47709230D01*
X63584646Y47700051D01*
X63564434Y47692819D01*
X63543610Y47687603D01*
X63522375Y47684453D01*
X63500934Y47683400D01*
X63063434Y47683400D01*
X63041993Y47684453D01*
X63020758Y47687603D01*
X62999934Y47692819D01*
X62979722Y47700051D01*
X62960316Y47709230D01*
X62941903Y47720266D01*
X62924660Y47733054D01*
X62908754Y47747470D01*
X62894338Y47763376D01*
X62881550Y47780619D01*
X62870514Y47799032D01*
X62861335Y47818438D01*
X62854103Y47838650D01*
X62848887Y47859474D01*
X62845737Y47880709D01*
X62844684Y47902150D01*
X62844684Y48414650D01*
X62845737Y48436091D01*
X62848887Y48457326D01*
X62854103Y48478150D01*
X62861335Y48498362D01*
X62870514Y48517768D01*
X62881550Y48536181D01*
X62894338Y48553424D01*
X62908754Y48569330D01*
X62924660Y48583746D01*
X62941903Y48596534D01*
X62960316Y48607570D01*
X62979722Y48616749D01*
X62999934Y48623981D01*
X63020758Y48629197D01*
X63041993Y48632347D01*
X63063434Y48633400D01*
X63500934Y48633400D01*
X63522375Y48632347D01*
G37*
G36*
X65097375Y48632347D02*
G01*
X65118610Y48629197D01*
X65139434Y48623981D01*
X65159646Y48616749D01*
X65179052Y48607570D01*
X65197465Y48596534D01*
X65214708Y48583746D01*
X65230614Y48569330D01*
X65245030Y48553424D01*
X65257818Y48536181D01*
X65268854Y48517768D01*
X65278033Y48498362D01*
X65285265Y48478150D01*
X65290481Y48457326D01*
X65293631Y48436091D01*
X65294684Y48414650D01*
X65294684Y47902150D01*
X65293631Y47880709D01*
X65290481Y47859474D01*
X65285265Y47838650D01*
X65278033Y47818438D01*
X65268854Y47799032D01*
X65257818Y47780619D01*
X65245030Y47763376D01*
X65230614Y47747470D01*
X65214708Y47733054D01*
X65197465Y47720266D01*
X65179052Y47709230D01*
X65159646Y47700051D01*
X65139434Y47692819D01*
X65118610Y47687603D01*
X65097375Y47684453D01*
X65075934Y47683400D01*
X64638434Y47683400D01*
X64616993Y47684453D01*
X64595758Y47687603D01*
X64574934Y47692819D01*
X64554722Y47700051D01*
X64535316Y47709230D01*
X64516903Y47720266D01*
X64499660Y47733054D01*
X64483754Y47747470D01*
X64469338Y47763376D01*
X64456550Y47780619D01*
X64445514Y47799032D01*
X64436335Y47818438D01*
X64429103Y47838650D01*
X64423887Y47859474D01*
X64420737Y47880709D01*
X64419684Y47902150D01*
X64419684Y48414650D01*
X64420737Y48436091D01*
X64423887Y48457326D01*
X64429103Y48478150D01*
X64436335Y48498362D01*
X64445514Y48517768D01*
X64456550Y48536181D01*
X64469338Y48553424D01*
X64483754Y48569330D01*
X64499660Y48583746D01*
X64516903Y48596534D01*
X64535316Y48607570D01*
X64554722Y48616749D01*
X64574934Y48623981D01*
X64595758Y48629197D01*
X64616993Y48632347D01*
X64638434Y48633400D01*
X65075934Y48633400D01*
X65097375Y48632347D01*
G37*
G36*
X49523347Y48632347D02*
G01*
X49544582Y48629197D01*
X49565406Y48623981D01*
X49585618Y48616749D01*
X49605024Y48607570D01*
X49623437Y48596534D01*
X49640680Y48583746D01*
X49656586Y48569330D01*
X49671002Y48553424D01*
X49683790Y48536181D01*
X49694826Y48517768D01*
X49704005Y48498362D01*
X49711237Y48478150D01*
X49716453Y48457326D01*
X49719603Y48436091D01*
X49720656Y48414650D01*
X49720656Y47902150D01*
X49719603Y47880709D01*
X49716453Y47859474D01*
X49711237Y47838650D01*
X49704005Y47818438D01*
X49694826Y47799032D01*
X49683790Y47780619D01*
X49671002Y47763376D01*
X49656586Y47747470D01*
X49640680Y47733054D01*
X49623437Y47720266D01*
X49605024Y47709230D01*
X49585618Y47700051D01*
X49565406Y47692819D01*
X49544582Y47687603D01*
X49523347Y47684453D01*
X49501906Y47683400D01*
X49064406Y47683400D01*
X49042965Y47684453D01*
X49021730Y47687603D01*
X49000906Y47692819D01*
X48980694Y47700051D01*
X48961288Y47709230D01*
X48942875Y47720266D01*
X48925632Y47733054D01*
X48909726Y47747470D01*
X48895310Y47763376D01*
X48882522Y47780619D01*
X48871486Y47799032D01*
X48862307Y47818438D01*
X48855075Y47838650D01*
X48849859Y47859474D01*
X48846709Y47880709D01*
X48845656Y47902150D01*
X48845656Y48414650D01*
X48846709Y48436091D01*
X48849859Y48457326D01*
X48855075Y48478150D01*
X48862307Y48498362D01*
X48871486Y48517768D01*
X48882522Y48536181D01*
X48895310Y48553424D01*
X48909726Y48569330D01*
X48925632Y48583746D01*
X48942875Y48596534D01*
X48961288Y48607570D01*
X48980694Y48616749D01*
X49000906Y48623981D01*
X49021730Y48629197D01*
X49042965Y48632347D01*
X49064406Y48633400D01*
X49501906Y48633400D01*
X49523347Y48632347D01*
G37*
G36*
X51098347Y48632347D02*
G01*
X51119582Y48629197D01*
X51140406Y48623981D01*
X51160618Y48616749D01*
X51180024Y48607570D01*
X51198437Y48596534D01*
X51215680Y48583746D01*
X51231586Y48569330D01*
X51246002Y48553424D01*
X51258790Y48536181D01*
X51269826Y48517768D01*
X51279005Y48498362D01*
X51286237Y48478150D01*
X51291453Y48457326D01*
X51294603Y48436091D01*
X51295656Y48414650D01*
X51295656Y47902150D01*
X51294603Y47880709D01*
X51291453Y47859474D01*
X51286237Y47838650D01*
X51279005Y47818438D01*
X51269826Y47799032D01*
X51258790Y47780619D01*
X51246002Y47763376D01*
X51231586Y47747470D01*
X51215680Y47733054D01*
X51198437Y47720266D01*
X51180024Y47709230D01*
X51160618Y47700051D01*
X51140406Y47692819D01*
X51119582Y47687603D01*
X51098347Y47684453D01*
X51076906Y47683400D01*
X50639406Y47683400D01*
X50617965Y47684453D01*
X50596730Y47687603D01*
X50575906Y47692819D01*
X50555694Y47700051D01*
X50536288Y47709230D01*
X50517875Y47720266D01*
X50500632Y47733054D01*
X50484726Y47747470D01*
X50470310Y47763376D01*
X50457522Y47780619D01*
X50446486Y47799032D01*
X50437307Y47818438D01*
X50430075Y47838650D01*
X50424859Y47859474D01*
X50421709Y47880709D01*
X50420656Y47902150D01*
X50420656Y48414650D01*
X50421709Y48436091D01*
X50424859Y48457326D01*
X50430075Y48478150D01*
X50437307Y48498362D01*
X50446486Y48517768D01*
X50457522Y48536181D01*
X50470310Y48553424D01*
X50484726Y48569330D01*
X50500632Y48583746D01*
X50517875Y48596534D01*
X50536288Y48607570D01*
X50555694Y48616749D01*
X50575906Y48623981D01*
X50596730Y48629197D01*
X50617965Y48632347D01*
X50639406Y48633400D01*
X51076906Y48633400D01*
X51098347Y48632347D01*
G37*
G36*
X21525291Y48632347D02*
G01*
X21546526Y48629197D01*
X21567350Y48623981D01*
X21587562Y48616749D01*
X21606968Y48607570D01*
X21625381Y48596534D01*
X21642624Y48583746D01*
X21658530Y48569330D01*
X21672946Y48553424D01*
X21685734Y48536181D01*
X21696770Y48517768D01*
X21705949Y48498362D01*
X21713181Y48478150D01*
X21718397Y48457326D01*
X21721547Y48436091D01*
X21722600Y48414650D01*
X21722600Y47902150D01*
X21721547Y47880709D01*
X21718397Y47859474D01*
X21713181Y47838650D01*
X21705949Y47818438D01*
X21696770Y47799032D01*
X21685734Y47780619D01*
X21672946Y47763376D01*
X21658530Y47747470D01*
X21642624Y47733054D01*
X21625381Y47720266D01*
X21606968Y47709230D01*
X21587562Y47700051D01*
X21567350Y47692819D01*
X21546526Y47687603D01*
X21525291Y47684453D01*
X21503850Y47683400D01*
X21066350Y47683400D01*
X21044909Y47684453D01*
X21023674Y47687603D01*
X21002850Y47692819D01*
X20982638Y47700051D01*
X20963232Y47709230D01*
X20944819Y47720266D01*
X20927576Y47733054D01*
X20911670Y47747470D01*
X20897254Y47763376D01*
X20884466Y47780619D01*
X20873430Y47799032D01*
X20864251Y47818438D01*
X20857019Y47838650D01*
X20851803Y47859474D01*
X20848653Y47880709D01*
X20847600Y47902150D01*
X20847600Y48414650D01*
X20848653Y48436091D01*
X20851803Y48457326D01*
X20857019Y48478150D01*
X20864251Y48498362D01*
X20873430Y48517768D01*
X20884466Y48536181D01*
X20897254Y48553424D01*
X20911670Y48569330D01*
X20927576Y48583746D01*
X20944819Y48596534D01*
X20963232Y48607570D01*
X20982638Y48616749D01*
X21002850Y48623981D01*
X21023674Y48629197D01*
X21044909Y48632347D01*
X21066350Y48633400D01*
X21503850Y48633400D01*
X21525291Y48632347D01*
G37*
G36*
X23100291Y48632347D02*
G01*
X23121526Y48629197D01*
X23142350Y48623981D01*
X23162562Y48616749D01*
X23181968Y48607570D01*
X23200381Y48596534D01*
X23217624Y48583746D01*
X23233530Y48569330D01*
X23247946Y48553424D01*
X23260734Y48536181D01*
X23271770Y48517768D01*
X23280949Y48498362D01*
X23288181Y48478150D01*
X23293397Y48457326D01*
X23296547Y48436091D01*
X23297600Y48414650D01*
X23297600Y47902150D01*
X23296547Y47880709D01*
X23293397Y47859474D01*
X23288181Y47838650D01*
X23280949Y47818438D01*
X23271770Y47799032D01*
X23260734Y47780619D01*
X23247946Y47763376D01*
X23233530Y47747470D01*
X23217624Y47733054D01*
X23200381Y47720266D01*
X23181968Y47709230D01*
X23162562Y47700051D01*
X23142350Y47692819D01*
X23121526Y47687603D01*
X23100291Y47684453D01*
X23078850Y47683400D01*
X22641350Y47683400D01*
X22619909Y47684453D01*
X22598674Y47687603D01*
X22577850Y47692819D01*
X22557638Y47700051D01*
X22538232Y47709230D01*
X22519819Y47720266D01*
X22502576Y47733054D01*
X22486670Y47747470D01*
X22472254Y47763376D01*
X22459466Y47780619D01*
X22448430Y47799032D01*
X22439251Y47818438D01*
X22432019Y47838650D01*
X22426803Y47859474D01*
X22423653Y47880709D01*
X22422600Y47902150D01*
X22422600Y48414650D01*
X22423653Y48436091D01*
X22426803Y48457326D01*
X22432019Y48478150D01*
X22439251Y48498362D01*
X22448430Y48517768D01*
X22459466Y48536181D01*
X22472254Y48553424D01*
X22486670Y48569330D01*
X22502576Y48583746D01*
X22519819Y48596534D01*
X22538232Y48607570D01*
X22557638Y48616749D01*
X22577850Y48623981D01*
X22598674Y48629197D01*
X22619909Y48632347D01*
X22641350Y48633400D01*
X23078850Y48633400D01*
X23100291Y48632347D01*
G37*
G36*
X78599091Y78096347D02*
G01*
X78620326Y78093197D01*
X78641150Y78087981D01*
X78661362Y78080749D01*
X78680768Y78071570D01*
X78699181Y78060534D01*
X78716424Y78047746D01*
X78732330Y78033330D01*
X78746746Y78017424D01*
X78759534Y78000181D01*
X78770570Y77981768D01*
X78779749Y77962362D01*
X78786981Y77942150D01*
X78792197Y77921326D01*
X78795347Y77900091D01*
X78796400Y77878650D01*
X78796400Y77366150D01*
X78795347Y77344709D01*
X78792197Y77323474D01*
X78786981Y77302650D01*
X78779749Y77282438D01*
X78770570Y77263032D01*
X78759534Y77244619D01*
X78746746Y77227376D01*
X78732330Y77211470D01*
X78716424Y77197054D01*
X78699181Y77184266D01*
X78680768Y77173230D01*
X78661362Y77164051D01*
X78641150Y77156819D01*
X78620326Y77151603D01*
X78599091Y77148453D01*
X78577650Y77147400D01*
X78140150Y77147400D01*
X78118709Y77148453D01*
X78097474Y77151603D01*
X78076650Y77156819D01*
X78056438Y77164051D01*
X78037032Y77173230D01*
X78018619Y77184266D01*
X78001376Y77197054D01*
X77985470Y77211470D01*
X77971054Y77227376D01*
X77958266Y77244619D01*
X77947230Y77263032D01*
X77938051Y77282438D01*
X77930819Y77302650D01*
X77925603Y77323474D01*
X77922453Y77344709D01*
X77921400Y77366150D01*
X77921400Y77878650D01*
X77922453Y77900091D01*
X77925603Y77921326D01*
X77930819Y77942150D01*
X77938051Y77962362D01*
X77947230Y77981768D01*
X77958266Y78000181D01*
X77971054Y78017424D01*
X77985470Y78033330D01*
X78001376Y78047746D01*
X78018619Y78060534D01*
X78037032Y78071570D01*
X78056438Y78080749D01*
X78076650Y78087981D01*
X78097474Y78093197D01*
X78118709Y78096347D01*
X78140150Y78097400D01*
X78577650Y78097400D01*
X78599091Y78096347D01*
G37*
G36*
X80174091Y78096347D02*
G01*
X80195326Y78093197D01*
X80216150Y78087981D01*
X80236362Y78080749D01*
X80255768Y78071570D01*
X80274181Y78060534D01*
X80291424Y78047746D01*
X80307330Y78033330D01*
X80321746Y78017424D01*
X80334534Y78000181D01*
X80345570Y77981768D01*
X80354749Y77962362D01*
X80361981Y77942150D01*
X80367197Y77921326D01*
X80370347Y77900091D01*
X80371400Y77878650D01*
X80371400Y77366150D01*
X80370347Y77344709D01*
X80367197Y77323474D01*
X80361981Y77302650D01*
X80354749Y77282438D01*
X80345570Y77263032D01*
X80334534Y77244619D01*
X80321746Y77227376D01*
X80307330Y77211470D01*
X80291424Y77197054D01*
X80274181Y77184266D01*
X80255768Y77173230D01*
X80236362Y77164051D01*
X80216150Y77156819D01*
X80195326Y77151603D01*
X80174091Y77148453D01*
X80152650Y77147400D01*
X79715150Y77147400D01*
X79693709Y77148453D01*
X79672474Y77151603D01*
X79651650Y77156819D01*
X79631438Y77164051D01*
X79612032Y77173230D01*
X79593619Y77184266D01*
X79576376Y77197054D01*
X79560470Y77211470D01*
X79546054Y77227376D01*
X79533266Y77244619D01*
X79522230Y77263032D01*
X79513051Y77282438D01*
X79505819Y77302650D01*
X79500603Y77323474D01*
X79497453Y77344709D01*
X79496400Y77366150D01*
X79496400Y77878650D01*
X79497453Y77900091D01*
X79500603Y77921326D01*
X79505819Y77942150D01*
X79513051Y77962362D01*
X79522230Y77981768D01*
X79533266Y78000181D01*
X79546054Y78017424D01*
X79560470Y78033330D01*
X79576376Y78047746D01*
X79593619Y78060534D01*
X79612032Y78071570D01*
X79631438Y78080749D01*
X79651650Y78087981D01*
X79672474Y78093197D01*
X79693709Y78096347D01*
X79715150Y78097400D01*
X80152650Y78097400D01*
X80174091Y78096347D01*
G37*
G36*
X56522861Y48632347D02*
G01*
X56544096Y48629197D01*
X56564920Y48623981D01*
X56585132Y48616749D01*
X56604538Y48607570D01*
X56622951Y48596534D01*
X56640194Y48583746D01*
X56656100Y48569330D01*
X56670516Y48553424D01*
X56683304Y48536181D01*
X56694340Y48517768D01*
X56703519Y48498362D01*
X56710751Y48478150D01*
X56715967Y48457326D01*
X56719117Y48436091D01*
X56720170Y48414650D01*
X56720170Y47902150D01*
X56719117Y47880709D01*
X56715967Y47859474D01*
X56710751Y47838650D01*
X56703519Y47818438D01*
X56694340Y47799032D01*
X56683304Y47780619D01*
X56670516Y47763376D01*
X56656100Y47747470D01*
X56640194Y47733054D01*
X56622951Y47720266D01*
X56604538Y47709230D01*
X56585132Y47700051D01*
X56564920Y47692819D01*
X56544096Y47687603D01*
X56522861Y47684453D01*
X56501420Y47683400D01*
X56063920Y47683400D01*
X56042479Y47684453D01*
X56021244Y47687603D01*
X56000420Y47692819D01*
X55980208Y47700051D01*
X55960802Y47709230D01*
X55942389Y47720266D01*
X55925146Y47733054D01*
X55909240Y47747470D01*
X55894824Y47763376D01*
X55882036Y47780619D01*
X55871000Y47799032D01*
X55861821Y47818438D01*
X55854589Y47838650D01*
X55849373Y47859474D01*
X55846223Y47880709D01*
X55845170Y47902150D01*
X55845170Y48414650D01*
X55846223Y48436091D01*
X55849373Y48457326D01*
X55854589Y48478150D01*
X55861821Y48498362D01*
X55871000Y48517768D01*
X55882036Y48536181D01*
X55894824Y48553424D01*
X55909240Y48569330D01*
X55925146Y48583746D01*
X55942389Y48596534D01*
X55960802Y48607570D01*
X55980208Y48616749D01*
X56000420Y48623981D01*
X56021244Y48629197D01*
X56042479Y48632347D01*
X56063920Y48633400D01*
X56501420Y48633400D01*
X56522861Y48632347D01*
G37*
G36*
X58097861Y48632347D02*
G01*
X58119096Y48629197D01*
X58139920Y48623981D01*
X58160132Y48616749D01*
X58179538Y48607570D01*
X58197951Y48596534D01*
X58215194Y48583746D01*
X58231100Y48569330D01*
X58245516Y48553424D01*
X58258304Y48536181D01*
X58269340Y48517768D01*
X58278519Y48498362D01*
X58285751Y48478150D01*
X58290967Y48457326D01*
X58294117Y48436091D01*
X58295170Y48414650D01*
X58295170Y47902150D01*
X58294117Y47880709D01*
X58290967Y47859474D01*
X58285751Y47838650D01*
X58278519Y47818438D01*
X58269340Y47799032D01*
X58258304Y47780619D01*
X58245516Y47763376D01*
X58231100Y47747470D01*
X58215194Y47733054D01*
X58197951Y47720266D01*
X58179538Y47709230D01*
X58160132Y47700051D01*
X58139920Y47692819D01*
X58119096Y47687603D01*
X58097861Y47684453D01*
X58076420Y47683400D01*
X57638920Y47683400D01*
X57617479Y47684453D01*
X57596244Y47687603D01*
X57575420Y47692819D01*
X57555208Y47700051D01*
X57535802Y47709230D01*
X57517389Y47720266D01*
X57500146Y47733054D01*
X57484240Y47747470D01*
X57469824Y47763376D01*
X57457036Y47780619D01*
X57446000Y47799032D01*
X57436821Y47818438D01*
X57429589Y47838650D01*
X57424373Y47859474D01*
X57421223Y47880709D01*
X57420170Y47902150D01*
X57420170Y48414650D01*
X57421223Y48436091D01*
X57424373Y48457326D01*
X57429589Y48478150D01*
X57436821Y48498362D01*
X57446000Y48517768D01*
X57457036Y48536181D01*
X57469824Y48553424D01*
X57484240Y48569330D01*
X57500146Y48583746D01*
X57517389Y48596534D01*
X57535802Y48607570D01*
X57555208Y48616749D01*
X57575420Y48623981D01*
X57596244Y48629197D01*
X57617479Y48632347D01*
X57638920Y48633400D01*
X58076420Y48633400D01*
X58097861Y48632347D01*
G37*
G36*
X78599091Y85157547D02*
G01*
X78620326Y85154397D01*
X78641150Y85149181D01*
X78661362Y85141949D01*
X78680768Y85132770D01*
X78699181Y85121734D01*
X78716424Y85108946D01*
X78732330Y85094530D01*
X78746746Y85078624D01*
X78759534Y85061381D01*
X78770570Y85042968D01*
X78779749Y85023562D01*
X78786981Y85003350D01*
X78792197Y84982526D01*
X78795347Y84961291D01*
X78796400Y84939850D01*
X78796400Y84427350D01*
X78795347Y84405909D01*
X78792197Y84384674D01*
X78786981Y84363850D01*
X78779749Y84343638D01*
X78770570Y84324232D01*
X78759534Y84305819D01*
X78746746Y84288576D01*
X78732330Y84272670D01*
X78716424Y84258254D01*
X78699181Y84245466D01*
X78680768Y84234430D01*
X78661362Y84225251D01*
X78641150Y84218019D01*
X78620326Y84212803D01*
X78599091Y84209653D01*
X78577650Y84208600D01*
X78140150Y84208600D01*
X78118709Y84209653D01*
X78097474Y84212803D01*
X78076650Y84218019D01*
X78056438Y84225251D01*
X78037032Y84234430D01*
X78018619Y84245466D01*
X78001376Y84258254D01*
X77985470Y84272670D01*
X77971054Y84288576D01*
X77958266Y84305819D01*
X77947230Y84324232D01*
X77938051Y84343638D01*
X77930819Y84363850D01*
X77925603Y84384674D01*
X77922453Y84405909D01*
X77921400Y84427350D01*
X77921400Y84939850D01*
X77922453Y84961291D01*
X77925603Y84982526D01*
X77930819Y85003350D01*
X77938051Y85023562D01*
X77947230Y85042968D01*
X77958266Y85061381D01*
X77971054Y85078624D01*
X77985470Y85094530D01*
X78001376Y85108946D01*
X78018619Y85121734D01*
X78037032Y85132770D01*
X78056438Y85141949D01*
X78076650Y85149181D01*
X78097474Y85154397D01*
X78118709Y85157547D01*
X78140150Y85158600D01*
X78577650Y85158600D01*
X78599091Y85157547D01*
G37*
G36*
X80174091Y85157547D02*
G01*
X80195326Y85154397D01*
X80216150Y85149181D01*
X80236362Y85141949D01*
X80255768Y85132770D01*
X80274181Y85121734D01*
X80291424Y85108946D01*
X80307330Y85094530D01*
X80321746Y85078624D01*
X80334534Y85061381D01*
X80345570Y85042968D01*
X80354749Y85023562D01*
X80361981Y85003350D01*
X80367197Y84982526D01*
X80370347Y84961291D01*
X80371400Y84939850D01*
X80371400Y84427350D01*
X80370347Y84405909D01*
X80367197Y84384674D01*
X80361981Y84363850D01*
X80354749Y84343638D01*
X80345570Y84324232D01*
X80334534Y84305819D01*
X80321746Y84288576D01*
X80307330Y84272670D01*
X80291424Y84258254D01*
X80274181Y84245466D01*
X80255768Y84234430D01*
X80236362Y84225251D01*
X80216150Y84218019D01*
X80195326Y84212803D01*
X80174091Y84209653D01*
X80152650Y84208600D01*
X79715150Y84208600D01*
X79693709Y84209653D01*
X79672474Y84212803D01*
X79651650Y84218019D01*
X79631438Y84225251D01*
X79612032Y84234430D01*
X79593619Y84245466D01*
X79576376Y84258254D01*
X79560470Y84272670D01*
X79546054Y84288576D01*
X79533266Y84305819D01*
X79522230Y84324232D01*
X79513051Y84343638D01*
X79505819Y84363850D01*
X79500603Y84384674D01*
X79497453Y84405909D01*
X79496400Y84427350D01*
X79496400Y84939850D01*
X79497453Y84961291D01*
X79500603Y84982526D01*
X79505819Y85003350D01*
X79513051Y85023562D01*
X79522230Y85042968D01*
X79533266Y85061381D01*
X79546054Y85078624D01*
X79560470Y85094530D01*
X79576376Y85108946D01*
X79593619Y85121734D01*
X79612032Y85132770D01*
X79631438Y85141949D01*
X79651650Y85149181D01*
X79672474Y85154397D01*
X79693709Y85157547D01*
X79715150Y85158600D01*
X80152650Y85158600D01*
X80174091Y85157547D01*
G37*
G36*
X55307491Y133569947D02*
G01*
X55328726Y133566797D01*
X55349550Y133561581D01*
X55369762Y133554349D01*
X55389168Y133545170D01*
X55407581Y133534134D01*
X55424824Y133521346D01*
X55440730Y133506930D01*
X55455146Y133491024D01*
X55467934Y133473781D01*
X55478970Y133455368D01*
X55488149Y133435962D01*
X55495381Y133415750D01*
X55500597Y133394926D01*
X55503747Y133373691D01*
X55504800Y133352250D01*
X55504800Y132839750D01*
X55503747Y132818309D01*
X55500597Y132797074D01*
X55495381Y132776250D01*
X55488149Y132756038D01*
X55478970Y132736632D01*
X55467934Y132718219D01*
X55455146Y132700976D01*
X55440730Y132685070D01*
X55424824Y132670654D01*
X55407581Y132657866D01*
X55389168Y132646830D01*
X55369762Y132637651D01*
X55349550Y132630419D01*
X55328726Y132625203D01*
X55307491Y132622053D01*
X55286050Y132621000D01*
X54848550Y132621000D01*
X54827109Y132622053D01*
X54805874Y132625203D01*
X54785050Y132630419D01*
X54764838Y132637651D01*
X54745432Y132646830D01*
X54727019Y132657866D01*
X54709776Y132670654D01*
X54693870Y132685070D01*
X54679454Y132700976D01*
X54666666Y132718219D01*
X54655630Y132736632D01*
X54646451Y132756038D01*
X54639219Y132776250D01*
X54634003Y132797074D01*
X54630853Y132818309D01*
X54629800Y132839750D01*
X54629800Y133352250D01*
X54630853Y133373691D01*
X54634003Y133394926D01*
X54639219Y133415750D01*
X54646451Y133435962D01*
X54655630Y133455368D01*
X54666666Y133473781D01*
X54679454Y133491024D01*
X54693870Y133506930D01*
X54709776Y133521346D01*
X54727019Y133534134D01*
X54745432Y133545170D01*
X54764838Y133554349D01*
X54785050Y133561581D01*
X54805874Y133566797D01*
X54827109Y133569947D01*
X54848550Y133571000D01*
X55286050Y133571000D01*
X55307491Y133569947D01*
G37*
G36*
X53732491Y133569947D02*
G01*
X53753726Y133566797D01*
X53774550Y133561581D01*
X53794762Y133554349D01*
X53814168Y133545170D01*
X53832581Y133534134D01*
X53849824Y133521346D01*
X53865730Y133506930D01*
X53880146Y133491024D01*
X53892934Y133473781D01*
X53903970Y133455368D01*
X53913149Y133435962D01*
X53920381Y133415750D01*
X53925597Y133394926D01*
X53928747Y133373691D01*
X53929800Y133352250D01*
X53929800Y132839750D01*
X53928747Y132818309D01*
X53925597Y132797074D01*
X53920381Y132776250D01*
X53913149Y132756038D01*
X53903970Y132736632D01*
X53892934Y132718219D01*
X53880146Y132700976D01*
X53865730Y132685070D01*
X53849824Y132670654D01*
X53832581Y132657866D01*
X53814168Y132646830D01*
X53794762Y132637651D01*
X53774550Y132630419D01*
X53753726Y132625203D01*
X53732491Y132622053D01*
X53711050Y132621000D01*
X53273550Y132621000D01*
X53252109Y132622053D01*
X53230874Y132625203D01*
X53210050Y132630419D01*
X53189838Y132637651D01*
X53170432Y132646830D01*
X53152019Y132657866D01*
X53134776Y132670654D01*
X53118870Y132685070D01*
X53104454Y132700976D01*
X53091666Y132718219D01*
X53080630Y132736632D01*
X53071451Y132756038D01*
X53064219Y132776250D01*
X53059003Y132797074D01*
X53055853Y132818309D01*
X53054800Y132839750D01*
X53054800Y133352250D01*
X53055853Y133373691D01*
X53059003Y133394926D01*
X53064219Y133415750D01*
X53071451Y133435962D01*
X53080630Y133455368D01*
X53091666Y133473781D01*
X53104454Y133491024D01*
X53118870Y133506930D01*
X53134776Y133521346D01*
X53152019Y133534134D01*
X53170432Y133545170D01*
X53189838Y133554349D01*
X53210050Y133561581D01*
X53230874Y133566797D01*
X53252109Y133569947D01*
X53273550Y133571000D01*
X53711050Y133571000D01*
X53732491Y133569947D01*
G37*
D14*
X9985000Y71186260D03*
X9985000Y74386260D03*
X4735000Y74386260D03*
X4735000Y71186260D03*
D10*
G36*
X63118071Y19414715D02*
G01*
X61845279Y20687507D01*
X63259493Y22101721D01*
X64532285Y20828929D01*
X63118071Y19414715D01*
G37*
G36*
X57390507Y25142279D02*
G01*
X56117715Y26415071D01*
X57531929Y27829285D01*
X58804721Y26556493D01*
X57390507Y25142279D01*
G37*
G36*
X63736790Y24311430D02*
G01*
X63029684Y25018536D01*
X63984278Y25973130D01*
X64691384Y25266024D01*
X63736790Y24311430D01*
G37*
G36*
X61721536Y26326684D02*
G01*
X61014430Y27033790D01*
X61969024Y27988384D01*
X62676130Y27281278D01*
X61721536Y26326684D01*
G37*
G36*
X62729163Y25319057D02*
G01*
X62022057Y26026163D01*
X62976651Y26980757D01*
X63683757Y26273651D01*
X62729163Y25319057D01*
G37*
G36*
X58680976Y19255616D02*
G01*
X57973870Y19962722D01*
X58928464Y20917316D01*
X59635570Y20210210D01*
X58680976Y19255616D01*
G37*
G36*
X56665722Y21270870D02*
G01*
X55958616Y21977976D01*
X56913210Y22932570D01*
X57620316Y22225464D01*
X56665722Y21270870D01*
G37*
G36*
X57673349Y20263243D02*
G01*
X56966243Y20970349D01*
X57920837Y21924943D01*
X58627943Y21217837D01*
X57673349Y20263243D01*
G37*
D15*
X44620342Y45017600D03*
X41420342Y45017600D03*
X41420342Y39767600D03*
X44620342Y39767600D03*
D14*
X88218720Y85140200D03*
X88218720Y88340200D03*
X82968720Y88340200D03*
X82968720Y85140200D03*
X88218720Y78132954D03*
X88218720Y81332954D03*
X82968720Y81332954D03*
X82968720Y78132954D03*
D10*
G36*
X34720871Y19414715D02*
G01*
X33448079Y20687507D01*
X34862293Y22101721D01*
X36135085Y20828929D01*
X34720871Y19414715D01*
G37*
G36*
X28993307Y25142279D02*
G01*
X27720515Y26415071D01*
X29134729Y27829285D01*
X30407521Y26556493D01*
X28993307Y25142279D01*
G37*
G36*
X35339590Y24311430D02*
G01*
X34632484Y25018536D01*
X35587078Y25973130D01*
X36294184Y25266024D01*
X35339590Y24311430D01*
G37*
G36*
X33324336Y26326684D02*
G01*
X32617230Y27033790D01*
X33571824Y27988384D01*
X34278930Y27281278D01*
X33324336Y26326684D01*
G37*
G36*
X34331963Y25319057D02*
G01*
X33624857Y26026163D01*
X34579451Y26980757D01*
X35286557Y26273651D01*
X34331963Y25319057D01*
G37*
G36*
X30283776Y19255616D02*
G01*
X29576670Y19962722D01*
X30531264Y20917316D01*
X31238370Y20210210D01*
X30283776Y19255616D01*
G37*
G36*
X28268522Y21270870D02*
G01*
X27561416Y21977976D01*
X28516010Y22932570D01*
X29223116Y22225464D01*
X28268522Y21270870D01*
G37*
G36*
X29276149Y20263243D02*
G01*
X28569043Y20970349D01*
X29523637Y21924943D01*
X30230743Y21217837D01*
X29276149Y20263243D01*
G37*
D15*
X72557440Y45017600D03*
X69357440Y45017600D03*
X69357440Y39767600D03*
X72557440Y39767600D03*
X65573164Y45017600D03*
X62373164Y45017600D03*
X62373164Y39767600D03*
X65573164Y39767600D03*
X58588890Y45017600D03*
X55388890Y45017600D03*
X55388890Y39767600D03*
X58588890Y39767600D03*
D14*
X9985000Y64200000D03*
X9985000Y67400000D03*
X4735000Y67400000D03*
X4735000Y64200000D03*
D15*
X30651794Y45017600D03*
X27451794Y45017600D03*
X27451794Y39767600D03*
X30651794Y39767600D03*
D14*
X88218720Y71125708D03*
X88218720Y74325708D03*
X82968720Y74325708D03*
X82968720Y71125708D03*
X88218720Y64118460D03*
X88218720Y67318460D03*
X82968720Y67318460D03*
X82968720Y64118460D03*
X9985000Y78172520D03*
X9985000Y81372520D03*
X4735000Y81372520D03*
X4735000Y78172520D03*
D15*
X51604616Y45017600D03*
X48404616Y45017600D03*
X48404616Y39767600D03*
X51604616Y39767600D03*
X23667520Y45017600D03*
X20467520Y45017600D03*
X20467520Y39767600D03*
X23667520Y39767600D03*
D14*
X9985000Y85158780D03*
X9985000Y88358780D03*
X4735000Y88358780D03*
X4735000Y85158780D03*
D15*
X37636068Y45017600D03*
X34436068Y45017600D03*
X34436068Y39767600D03*
X37636068Y39767600D03*
D10*
G36*
X42523833Y48632347D02*
G01*
X42545068Y48629197D01*
X42565892Y48623981D01*
X42586104Y48616749D01*
X42605510Y48607570D01*
X42623923Y48596534D01*
X42641166Y48583746D01*
X42657072Y48569330D01*
X42671488Y48553424D01*
X42684276Y48536181D01*
X42695312Y48517768D01*
X42704491Y48498362D01*
X42711723Y48478150D01*
X42716939Y48457326D01*
X42720089Y48436091D01*
X42721142Y48414650D01*
X42721142Y47902150D01*
X42720089Y47880709D01*
X42716939Y47859474D01*
X42711723Y47838650D01*
X42704491Y47818438D01*
X42695312Y47799032D01*
X42684276Y47780619D01*
X42671488Y47763376D01*
X42657072Y47747470D01*
X42641166Y47733054D01*
X42623923Y47720266D01*
X42605510Y47709230D01*
X42586104Y47700051D01*
X42565892Y47692819D01*
X42545068Y47687603D01*
X42523833Y47684453D01*
X42502392Y47683400D01*
X42064892Y47683400D01*
X42043451Y47684453D01*
X42022216Y47687603D01*
X42001392Y47692819D01*
X41981180Y47700051D01*
X41961774Y47709230D01*
X41943361Y47720266D01*
X41926118Y47733054D01*
X41910212Y47747470D01*
X41895796Y47763376D01*
X41883008Y47780619D01*
X41871972Y47799032D01*
X41862793Y47818438D01*
X41855561Y47838650D01*
X41850345Y47859474D01*
X41847195Y47880709D01*
X41846142Y47902150D01*
X41846142Y48414650D01*
X41847195Y48436091D01*
X41850345Y48457326D01*
X41855561Y48478150D01*
X41862793Y48498362D01*
X41871972Y48517768D01*
X41883008Y48536181D01*
X41895796Y48553424D01*
X41910212Y48569330D01*
X41926118Y48583746D01*
X41943361Y48596534D01*
X41961774Y48607570D01*
X41981180Y48616749D01*
X42001392Y48623981D01*
X42022216Y48629197D01*
X42043451Y48632347D01*
X42064892Y48633400D01*
X42502392Y48633400D01*
X42523833Y48632347D01*
G37*
G36*
X44098833Y48632347D02*
G01*
X44120068Y48629197D01*
X44140892Y48623981D01*
X44161104Y48616749D01*
X44180510Y48607570D01*
X44198923Y48596534D01*
X44216166Y48583746D01*
X44232072Y48569330D01*
X44246488Y48553424D01*
X44259276Y48536181D01*
X44270312Y48517768D01*
X44279491Y48498362D01*
X44286723Y48478150D01*
X44291939Y48457326D01*
X44295089Y48436091D01*
X44296142Y48414650D01*
X44296142Y47902150D01*
X44295089Y47880709D01*
X44291939Y47859474D01*
X44286723Y47838650D01*
X44279491Y47818438D01*
X44270312Y47799032D01*
X44259276Y47780619D01*
X44246488Y47763376D01*
X44232072Y47747470D01*
X44216166Y47733054D01*
X44198923Y47720266D01*
X44180510Y47709230D01*
X44161104Y47700051D01*
X44140892Y47692819D01*
X44120068Y47687603D01*
X44098833Y47684453D01*
X44077392Y47683400D01*
X43639892Y47683400D01*
X43618451Y47684453D01*
X43597216Y47687603D01*
X43576392Y47692819D01*
X43556180Y47700051D01*
X43536774Y47709230D01*
X43518361Y47720266D01*
X43501118Y47733054D01*
X43485212Y47747470D01*
X43470796Y47763376D01*
X43458008Y47780619D01*
X43446972Y47799032D01*
X43437793Y47818438D01*
X43430561Y47838650D01*
X43425345Y47859474D01*
X43422195Y47880709D01*
X43421142Y47902150D01*
X43421142Y48414650D01*
X43422195Y48436091D01*
X43425345Y48457326D01*
X43430561Y48478150D01*
X43437793Y48498362D01*
X43446972Y48517768D01*
X43458008Y48536181D01*
X43470796Y48553424D01*
X43485212Y48569330D01*
X43501118Y48583746D01*
X43518361Y48596534D01*
X43536774Y48607570D01*
X43556180Y48616749D01*
X43576392Y48623981D01*
X43597216Y48629197D01*
X43618451Y48632347D01*
X43639892Y48633400D01*
X44077392Y48633400D01*
X44098833Y48632347D01*
G37*
G36*
X78548291Y63973947D02*
G01*
X78569526Y63970797D01*
X78590350Y63965581D01*
X78610562Y63958349D01*
X78629968Y63949170D01*
X78648381Y63938134D01*
X78665624Y63925346D01*
X78681530Y63910930D01*
X78695946Y63895024D01*
X78708734Y63877781D01*
X78719770Y63859368D01*
X78728949Y63839962D01*
X78736181Y63819750D01*
X78741397Y63798926D01*
X78744547Y63777691D01*
X78745600Y63756250D01*
X78745600Y63243750D01*
X78744547Y63222309D01*
X78741397Y63201074D01*
X78736181Y63180250D01*
X78728949Y63160038D01*
X78719770Y63140632D01*
X78708734Y63122219D01*
X78695946Y63104976D01*
X78681530Y63089070D01*
X78665624Y63074654D01*
X78648381Y63061866D01*
X78629968Y63050830D01*
X78610562Y63041651D01*
X78590350Y63034419D01*
X78569526Y63029203D01*
X78548291Y63026053D01*
X78526850Y63025000D01*
X78089350Y63025000D01*
X78067909Y63026053D01*
X78046674Y63029203D01*
X78025850Y63034419D01*
X78005638Y63041651D01*
X77986232Y63050830D01*
X77967819Y63061866D01*
X77950576Y63074654D01*
X77934670Y63089070D01*
X77920254Y63104976D01*
X77907466Y63122219D01*
X77896430Y63140632D01*
X77887251Y63160038D01*
X77880019Y63180250D01*
X77874803Y63201074D01*
X77871653Y63222309D01*
X77870600Y63243750D01*
X77870600Y63756250D01*
X77871653Y63777691D01*
X77874803Y63798926D01*
X77880019Y63819750D01*
X77887251Y63839962D01*
X77896430Y63859368D01*
X77907466Y63877781D01*
X77920254Y63895024D01*
X77934670Y63910930D01*
X77950576Y63925346D01*
X77967819Y63938134D01*
X77986232Y63949170D01*
X78005638Y63958349D01*
X78025850Y63965581D01*
X78046674Y63970797D01*
X78067909Y63973947D01*
X78089350Y63975000D01*
X78526850Y63975000D01*
X78548291Y63973947D01*
G37*
G36*
X80123291Y63973947D02*
G01*
X80144526Y63970797D01*
X80165350Y63965581D01*
X80185562Y63958349D01*
X80204968Y63949170D01*
X80223381Y63938134D01*
X80240624Y63925346D01*
X80256530Y63910930D01*
X80270946Y63895024D01*
X80283734Y63877781D01*
X80294770Y63859368D01*
X80303949Y63839962D01*
X80311181Y63819750D01*
X80316397Y63798926D01*
X80319547Y63777691D01*
X80320600Y63756250D01*
X80320600Y63243750D01*
X80319547Y63222309D01*
X80316397Y63201074D01*
X80311181Y63180250D01*
X80303949Y63160038D01*
X80294770Y63140632D01*
X80283734Y63122219D01*
X80270946Y63104976D01*
X80256530Y63089070D01*
X80240624Y63074654D01*
X80223381Y63061866D01*
X80204968Y63050830D01*
X80185562Y63041651D01*
X80165350Y63034419D01*
X80144526Y63029203D01*
X80123291Y63026053D01*
X80101850Y63025000D01*
X79664350Y63025000D01*
X79642909Y63026053D01*
X79621674Y63029203D01*
X79600850Y63034419D01*
X79580638Y63041651D01*
X79561232Y63050830D01*
X79542819Y63061866D01*
X79525576Y63074654D01*
X79509670Y63089070D01*
X79495254Y63104976D01*
X79482466Y63122219D01*
X79471430Y63140632D01*
X79462251Y63160038D01*
X79455019Y63180250D01*
X79449803Y63201074D01*
X79446653Y63222309D01*
X79445600Y63243750D01*
X79445600Y63756250D01*
X79446653Y63777691D01*
X79449803Y63798926D01*
X79455019Y63819750D01*
X79462251Y63839962D01*
X79471430Y63859368D01*
X79482466Y63877781D01*
X79495254Y63895024D01*
X79509670Y63910930D01*
X79525576Y63925346D01*
X79542819Y63938134D01*
X79561232Y63949170D01*
X79580638Y63958349D01*
X79600850Y63965581D01*
X79621674Y63970797D01*
X79642909Y63973947D01*
X79664350Y63975000D01*
X80101850Y63975000D01*
X80123291Y63973947D01*
G37*
G36*
X70521891Y48632347D02*
G01*
X70543126Y48629197D01*
X70563950Y48623981D01*
X70584162Y48616749D01*
X70603568Y48607570D01*
X70621981Y48596534D01*
X70639224Y48583746D01*
X70655130Y48569330D01*
X70669546Y48553424D01*
X70682334Y48536181D01*
X70693370Y48517768D01*
X70702549Y48498362D01*
X70709781Y48478150D01*
X70714997Y48457326D01*
X70718147Y48436091D01*
X70719200Y48414650D01*
X70719200Y47902150D01*
X70718147Y47880709D01*
X70714997Y47859474D01*
X70709781Y47838650D01*
X70702549Y47818438D01*
X70693370Y47799032D01*
X70682334Y47780619D01*
X70669546Y47763376D01*
X70655130Y47747470D01*
X70639224Y47733054D01*
X70621981Y47720266D01*
X70603568Y47709230D01*
X70584162Y47700051D01*
X70563950Y47692819D01*
X70543126Y47687603D01*
X70521891Y47684453D01*
X70500450Y47683400D01*
X70062950Y47683400D01*
X70041509Y47684453D01*
X70020274Y47687603D01*
X69999450Y47692819D01*
X69979238Y47700051D01*
X69959832Y47709230D01*
X69941419Y47720266D01*
X69924176Y47733054D01*
X69908270Y47747470D01*
X69893854Y47763376D01*
X69881066Y47780619D01*
X69870030Y47799032D01*
X69860851Y47818438D01*
X69853619Y47838650D01*
X69848403Y47859474D01*
X69845253Y47880709D01*
X69844200Y47902150D01*
X69844200Y48414650D01*
X69845253Y48436091D01*
X69848403Y48457326D01*
X69853619Y48478150D01*
X69860851Y48498362D01*
X69870030Y48517768D01*
X69881066Y48536181D01*
X69893854Y48553424D01*
X69908270Y48569330D01*
X69924176Y48583746D01*
X69941419Y48596534D01*
X69959832Y48607570D01*
X69979238Y48616749D01*
X69999450Y48623981D01*
X70020274Y48629197D01*
X70041509Y48632347D01*
X70062950Y48633400D01*
X70500450Y48633400D01*
X70521891Y48632347D01*
G37*
G36*
X72096891Y48632347D02*
G01*
X72118126Y48629197D01*
X72138950Y48623981D01*
X72159162Y48616749D01*
X72178568Y48607570D01*
X72196981Y48596534D01*
X72214224Y48583746D01*
X72230130Y48569330D01*
X72244546Y48553424D01*
X72257334Y48536181D01*
X72268370Y48517768D01*
X72277549Y48498362D01*
X72284781Y48478150D01*
X72289997Y48457326D01*
X72293147Y48436091D01*
X72294200Y48414650D01*
X72294200Y47902150D01*
X72293147Y47880709D01*
X72289997Y47859474D01*
X72284781Y47838650D01*
X72277549Y47818438D01*
X72268370Y47799032D01*
X72257334Y47780619D01*
X72244546Y47763376D01*
X72230130Y47747470D01*
X72214224Y47733054D01*
X72196981Y47720266D01*
X72178568Y47709230D01*
X72159162Y47700051D01*
X72138950Y47692819D01*
X72118126Y47687603D01*
X72096891Y47684453D01*
X72075450Y47683400D01*
X71637950Y47683400D01*
X71616509Y47684453D01*
X71595274Y47687603D01*
X71574450Y47692819D01*
X71554238Y47700051D01*
X71534832Y47709230D01*
X71516419Y47720266D01*
X71499176Y47733054D01*
X71483270Y47747470D01*
X71468854Y47763376D01*
X71456066Y47780619D01*
X71445030Y47799032D01*
X71435851Y47818438D01*
X71428619Y47838650D01*
X71423403Y47859474D01*
X71420253Y47880709D01*
X71419200Y47902150D01*
X71419200Y48414650D01*
X71420253Y48436091D01*
X71423403Y48457326D01*
X71428619Y48478150D01*
X71435851Y48498362D01*
X71445030Y48517768D01*
X71456066Y48536181D01*
X71468854Y48553424D01*
X71483270Y48569330D01*
X71499176Y48583746D01*
X71516419Y48596534D01*
X71534832Y48607570D01*
X71554238Y48616749D01*
X71574450Y48623981D01*
X71595274Y48629197D01*
X71616509Y48632347D01*
X71637950Y48633400D01*
X72075450Y48633400D01*
X72096891Y48632347D01*
G37*
M02*
