G04 #@! TF.GenerationSoftware,KiCad,Pcbnew,(5.1.5)-3*
G04 #@! TF.CreationDate,2020-08-11T23:16:39-06:00*
G04 #@! TF.ProjectId,purplewizard,70757270-6c65-4776-997a-6172642e6b69,0.1*
G04 #@! TF.SameCoordinates,Original*
G04 #@! TF.FileFunction,Profile,NP*
%FSLAX46Y46*%
G04 Gerber Fmt 4.6, Leading zero omitted, Abs format (unit mm)*
G04 Created by KiCad (PCBNEW (5.1.5)-3) date 2020-08-11 23:16:39*
%MOMM*%
%LPD*%
G04 APERTURE LIST*
%ADD10C,0.100000*%
%ADD11C,0.150000*%
%ADD12C,0.300000*%
%ADD13C,0.400000*%
G04 APERTURE END LIST*
D10*
D11*
X235600000Y-171900000D02*
X235600000Y-203900000D01*
X343600000Y-203900000D01*
X343600000Y-171900000D01*
X235600000Y-171900000D01*
D10*
D11*
X10000000Y-10000000D02*
X10000000Y-205900000D01*
X345600000Y-205900000D01*
X345600000Y-10000000D01*
X10000000Y-10000000D01*
D10*
D11*
X12000000Y-12000000D02*
X12000000Y-203900000D01*
X343600000Y-203900000D01*
X343600000Y-12000000D01*
X12000000Y-12000000D01*
D10*
D11*
X60000000Y-12000000D02*
X60000000Y-10000000D01*
D10*
D11*
X110000000Y-12000000D02*
X110000000Y-10000000D01*
D10*
D11*
X160000000Y-12000000D02*
X160000000Y-10000000D01*
D10*
D11*
X210000000Y-12000000D02*
X210000000Y-10000000D01*
D10*
D11*
X260000000Y-12000000D02*
X260000000Y-10000000D01*
D10*
D11*
X310000000Y-12000000D02*
X310000000Y-10000000D01*
D10*
D11*
X36065476Y-11588095D02*
X35322619Y-11588095D01*
X35694047Y-11588095D02*
X35694047Y-10288095D01*
X35570238Y-10473809D01*
X35446428Y-10597619D01*
X35322619Y-10659523D01*
D10*
D11*
X85322619Y-10411904D02*
X85384523Y-10350000D01*
X85508333Y-10288095D01*
X85817857Y-10288095D01*
X85941666Y-10350000D01*
X86003571Y-10411904D01*
X86065476Y-10535714D01*
X86065476Y-10659523D01*
X86003571Y-10845238D01*
X85260714Y-11588095D01*
X86065476Y-11588095D01*
D10*
D11*
X135260714Y-10288095D02*
X136065476Y-10288095D01*
X135632142Y-10783333D01*
X135817857Y-10783333D01*
X135941666Y-10845238D01*
X136003571Y-10907142D01*
X136065476Y-11030952D01*
X136065476Y-11340476D01*
X136003571Y-11464285D01*
X135941666Y-11526190D01*
X135817857Y-11588095D01*
X135446428Y-11588095D01*
X135322619Y-11526190D01*
X135260714Y-11464285D01*
D10*
D11*
X185941666Y-10721428D02*
X185941666Y-11588095D01*
X185632142Y-10226190D02*
X185322619Y-11154761D01*
X186127380Y-11154761D01*
D10*
D11*
X236003571Y-10288095D02*
X235384523Y-10288095D01*
X235322619Y-10907142D01*
X235384523Y-10845238D01*
X235508333Y-10783333D01*
X235817857Y-10783333D01*
X235941666Y-10845238D01*
X236003571Y-10907142D01*
X236065476Y-11030952D01*
X236065476Y-11340476D01*
X236003571Y-11464285D01*
X235941666Y-11526190D01*
X235817857Y-11588095D01*
X235508333Y-11588095D01*
X235384523Y-11526190D01*
X235322619Y-11464285D01*
D10*
D11*
X285941666Y-10288095D02*
X285694047Y-10288095D01*
X285570238Y-10350000D01*
X285508333Y-10411904D01*
X285384523Y-10597619D01*
X285322619Y-10845238D01*
X285322619Y-11340476D01*
X285384523Y-11464285D01*
X285446428Y-11526190D01*
X285570238Y-11588095D01*
X285817857Y-11588095D01*
X285941666Y-11526190D01*
X286003571Y-11464285D01*
X286065476Y-11340476D01*
X286065476Y-11030952D01*
X286003571Y-10907142D01*
X285941666Y-10845238D01*
X285817857Y-10783333D01*
X285570238Y-10783333D01*
X285446428Y-10845238D01*
X285384523Y-10907142D01*
X285322619Y-11030952D01*
D10*
D11*
X335260714Y-10288095D02*
X336127380Y-10288095D01*
X335570238Y-11588095D01*
D10*
D11*
X60000000Y-203900000D02*
X60000000Y-205900000D01*
D10*
D11*
X110000000Y-203900000D02*
X110000000Y-205900000D01*
D10*
D11*
X160000000Y-203900000D02*
X160000000Y-205900000D01*
D10*
D11*
X210000000Y-203900000D02*
X210000000Y-205900000D01*
D10*
D11*
X260000000Y-203900000D02*
X260000000Y-205900000D01*
D10*
D11*
X310000000Y-203900000D02*
X310000000Y-205900000D01*
D10*
D11*
X36065476Y-205488095D02*
X35322619Y-205488095D01*
X35694047Y-205488095D02*
X35694047Y-204188095D01*
X35570238Y-204373809D01*
X35446428Y-204497619D01*
X35322619Y-204559523D01*
D10*
D11*
X85322619Y-204311904D02*
X85384523Y-204250000D01*
X85508333Y-204188095D01*
X85817857Y-204188095D01*
X85941666Y-204250000D01*
X86003571Y-204311904D01*
X86065476Y-204435714D01*
X86065476Y-204559523D01*
X86003571Y-204745238D01*
X85260714Y-205488095D01*
X86065476Y-205488095D01*
D10*
D11*
X135260714Y-204188095D02*
X136065476Y-204188095D01*
X135632142Y-204683333D01*
X135817857Y-204683333D01*
X135941666Y-204745238D01*
X136003571Y-204807142D01*
X136065476Y-204930952D01*
X136065476Y-205240476D01*
X136003571Y-205364285D01*
X135941666Y-205426190D01*
X135817857Y-205488095D01*
X135446428Y-205488095D01*
X135322619Y-205426190D01*
X135260714Y-205364285D01*
D10*
D11*
X185941666Y-204621428D02*
X185941666Y-205488095D01*
X185632142Y-204126190D02*
X185322619Y-205054761D01*
X186127380Y-205054761D01*
D10*
D11*
X236003571Y-204188095D02*
X235384523Y-204188095D01*
X235322619Y-204807142D01*
X235384523Y-204745238D01*
X235508333Y-204683333D01*
X235817857Y-204683333D01*
X235941666Y-204745238D01*
X236003571Y-204807142D01*
X236065476Y-204930952D01*
X236065476Y-205240476D01*
X236003571Y-205364285D01*
X235941666Y-205426190D01*
X235817857Y-205488095D01*
X235508333Y-205488095D01*
X235384523Y-205426190D01*
X235322619Y-205364285D01*
D10*
D11*
X285941666Y-204188095D02*
X285694047Y-204188095D01*
X285570238Y-204250000D01*
X285508333Y-204311904D01*
X285384523Y-204497619D01*
X285322619Y-204745238D01*
X285322619Y-205240476D01*
X285384523Y-205364285D01*
X285446428Y-205426190D01*
X285570238Y-205488095D01*
X285817857Y-205488095D01*
X285941666Y-205426190D01*
X286003571Y-205364285D01*
X286065476Y-205240476D01*
X286065476Y-204930952D01*
X286003571Y-204807142D01*
X285941666Y-204745238D01*
X285817857Y-204683333D01*
X285570238Y-204683333D01*
X285446428Y-204745238D01*
X285384523Y-204807142D01*
X285322619Y-204930952D01*
D10*
D11*
X335260714Y-204188095D02*
X336127380Y-204188095D01*
X335570238Y-205488095D01*
D10*
D11*
X10000000Y-60000000D02*
X12000000Y-60000000D01*
D10*
D11*
X10000000Y-110000000D02*
X12000000Y-110000000D01*
D10*
D11*
X10000000Y-160000000D02*
X12000000Y-160000000D01*
D10*
D11*
X10690476Y-35216666D02*
X11309523Y-35216666D01*
X10566666Y-35588095D02*
X11000000Y-34288095D01*
X11433333Y-35588095D01*
D10*
D11*
X11092857Y-84907142D02*
X11278571Y-84969047D01*
X11340476Y-85030952D01*
X11402380Y-85154761D01*
X11402380Y-85340476D01*
X11340476Y-85464285D01*
X11278571Y-85526190D01*
X11154761Y-85588095D01*
X10659523Y-85588095D01*
X10659523Y-84288095D01*
X11092857Y-84288095D01*
X11216666Y-84350000D01*
X11278571Y-84411904D01*
X11340476Y-84535714D01*
X11340476Y-84659523D01*
X11278571Y-84783333D01*
X11216666Y-84845238D01*
X11092857Y-84907142D01*
X10659523Y-84907142D01*
D10*
D11*
X11402380Y-135464285D02*
X11340476Y-135526190D01*
X11154761Y-135588095D01*
X11030952Y-135588095D01*
X10845238Y-135526190D01*
X10721428Y-135402380D01*
X10659523Y-135278571D01*
X10597619Y-135030952D01*
X10597619Y-134845238D01*
X10659523Y-134597619D01*
X10721428Y-134473809D01*
X10845238Y-134350000D01*
X11030952Y-134288095D01*
X11154761Y-134288095D01*
X11340476Y-134350000D01*
X11402380Y-134411904D01*
D10*
D11*
X10659523Y-185588095D02*
X10659523Y-184288095D01*
X10969047Y-184288095D01*
X11154761Y-184350000D01*
X11278571Y-184473809D01*
X11340476Y-184597619D01*
X11402380Y-184845238D01*
X11402380Y-185030952D01*
X11340476Y-185278571D01*
X11278571Y-185402380D01*
X11154761Y-185526190D01*
X10969047Y-185588095D01*
X10659523Y-185588095D01*
D10*
D11*
X345600000Y-60000000D02*
X343600000Y-60000000D01*
D10*
D11*
X345600000Y-110000000D02*
X343600000Y-110000000D01*
D10*
D11*
X345600000Y-160000000D02*
X343600000Y-160000000D01*
D10*
D11*
X344290476Y-35216666D02*
X344909523Y-35216666D01*
X344166666Y-35588095D02*
X344600000Y-34288095D01*
X345033333Y-35588095D01*
D10*
D11*
X344692857Y-84907142D02*
X344878571Y-84969047D01*
X344940476Y-85030952D01*
X345002380Y-85154761D01*
X345002380Y-85340476D01*
X344940476Y-85464285D01*
X344878571Y-85526190D01*
X344754761Y-85588095D01*
X344259523Y-85588095D01*
X344259523Y-84288095D01*
X344692857Y-84288095D01*
X344816666Y-84350000D01*
X344878571Y-84411904D01*
X344940476Y-84535714D01*
X344940476Y-84659523D01*
X344878571Y-84783333D01*
X344816666Y-84845238D01*
X344692857Y-84907142D01*
X344259523Y-84907142D01*
D10*
D11*
X345002380Y-135464285D02*
X344940476Y-135526190D01*
X344754761Y-135588095D01*
X344630952Y-135588095D01*
X344445238Y-135526190D01*
X344321428Y-135402380D01*
X344259523Y-135278571D01*
X344197619Y-135030952D01*
X344197619Y-134845238D01*
X344259523Y-134597619D01*
X344321428Y-134473809D01*
X344445238Y-134350000D01*
X344630952Y-134288095D01*
X344754761Y-134288095D01*
X344940476Y-134350000D01*
X345002380Y-134411904D01*
D10*
D11*
X344259523Y-185588095D02*
X344259523Y-184288095D01*
X344569047Y-184288095D01*
X344754761Y-184350000D01*
X344878571Y-184473809D01*
X344940476Y-184597619D01*
X345002380Y-184845238D01*
X345002380Y-185030952D01*
X344940476Y-185278571D01*
X344878571Y-185402380D01*
X344754761Y-185526190D01*
X344569047Y-185588095D01*
X344259523Y-185588095D01*
D10*
D11*
X259032142Y-199678571D02*
X259032142Y-198178571D01*
X259389285Y-198178571D01*
X259603571Y-198250000D01*
X259746428Y-198392857D01*
X259817857Y-198535714D01*
X259889285Y-198821428D01*
X259889285Y-199035714D01*
X259817857Y-199321428D01*
X259746428Y-199464285D01*
X259603571Y-199607142D01*
X259389285Y-199678571D01*
X259032142Y-199678571D01*
X261175000Y-199678571D02*
X261175000Y-198892857D01*
X261103571Y-198750000D01*
X260960714Y-198678571D01*
X260675000Y-198678571D01*
X260532142Y-198750000D01*
X261175000Y-199607142D02*
X261032142Y-199678571D01*
X260675000Y-199678571D01*
X260532142Y-199607142D01*
X260460714Y-199464285D01*
X260460714Y-199321428D01*
X260532142Y-199178571D01*
X260675000Y-199107142D01*
X261032142Y-199107142D01*
X261175000Y-199035714D01*
X261675000Y-198678571D02*
X262246428Y-198678571D01*
X261889285Y-198178571D02*
X261889285Y-199464285D01*
X261960714Y-199607142D01*
X262103571Y-199678571D01*
X262246428Y-199678571D01*
X263317857Y-199607142D02*
X263175000Y-199678571D01*
X262889285Y-199678571D01*
X262746428Y-199607142D01*
X262675000Y-199464285D01*
X262675000Y-198892857D01*
X262746428Y-198750000D01*
X262889285Y-198678571D01*
X263175000Y-198678571D01*
X263317857Y-198750000D01*
X263389285Y-198892857D01*
X263389285Y-199035714D01*
X262675000Y-199178571D01*
X264032142Y-199535714D02*
X264103571Y-199607142D01*
X264032142Y-199678571D01*
X263960714Y-199607142D01*
X264032142Y-199535714D01*
X264032142Y-199678571D01*
X264032142Y-198750000D02*
X264103571Y-198821428D01*
X264032142Y-198892857D01*
X263960714Y-198821428D01*
X264032142Y-198750000D01*
X264032142Y-198892857D01*
X265817857Y-198321428D02*
X265889285Y-198250000D01*
X266032142Y-198178571D01*
X266389285Y-198178571D01*
X266532142Y-198250000D01*
X266603571Y-198321428D01*
X266675000Y-198464285D01*
X266675000Y-198607142D01*
X266603571Y-198821428D01*
X265746428Y-199678571D01*
X266675000Y-199678571D01*
X267603571Y-198178571D02*
X267746428Y-198178571D01*
X267889285Y-198250000D01*
X267960714Y-198321428D01*
X268032142Y-198464285D01*
X268103571Y-198750000D01*
X268103571Y-199107142D01*
X268032142Y-199392857D01*
X267960714Y-199535714D01*
X267889285Y-199607142D01*
X267746428Y-199678571D01*
X267603571Y-199678571D01*
X267460714Y-199607142D01*
X267389285Y-199535714D01*
X267317857Y-199392857D01*
X267246428Y-199107142D01*
X267246428Y-198750000D01*
X267317857Y-198464285D01*
X267389285Y-198321428D01*
X267460714Y-198250000D01*
X267603571Y-198178571D01*
X268675000Y-198321428D02*
X268746428Y-198250000D01*
X268889285Y-198178571D01*
X269246428Y-198178571D01*
X269389285Y-198250000D01*
X269460714Y-198321428D01*
X269532142Y-198464285D01*
X269532142Y-198607142D01*
X269460714Y-198821428D01*
X268603571Y-199678571D01*
X269532142Y-199678571D01*
X270460714Y-198178571D02*
X270603571Y-198178571D01*
X270746428Y-198250000D01*
X270817857Y-198321428D01*
X270889285Y-198464285D01*
X270960714Y-198750000D01*
X270960714Y-199107142D01*
X270889285Y-199392857D01*
X270817857Y-199535714D01*
X270746428Y-199607142D01*
X270603571Y-199678571D01*
X270460714Y-199678571D01*
X270317857Y-199607142D01*
X270246428Y-199535714D01*
X270175000Y-199392857D01*
X270103571Y-199107142D01*
X270103571Y-198750000D01*
X270175000Y-198464285D01*
X270246428Y-198321428D01*
X270317857Y-198250000D01*
X270460714Y-198178571D01*
X271603571Y-199107142D02*
X272746428Y-199107142D01*
X273746428Y-198178571D02*
X273889285Y-198178571D01*
X274032142Y-198250000D01*
X274103571Y-198321428D01*
X274175000Y-198464285D01*
X274246428Y-198750000D01*
X274246428Y-199107142D01*
X274175000Y-199392857D01*
X274103571Y-199535714D01*
X274032142Y-199607142D01*
X273889285Y-199678571D01*
X273746428Y-199678571D01*
X273603571Y-199607142D01*
X273532142Y-199535714D01*
X273460714Y-199392857D01*
X273389285Y-199107142D01*
X273389285Y-198750000D01*
X273460714Y-198464285D01*
X273532142Y-198321428D01*
X273603571Y-198250000D01*
X273746428Y-198178571D01*
X275103571Y-198821428D02*
X274960714Y-198750000D01*
X274889285Y-198678571D01*
X274817857Y-198535714D01*
X274817857Y-198464285D01*
X274889285Y-198321428D01*
X274960714Y-198250000D01*
X275103571Y-198178571D01*
X275389285Y-198178571D01*
X275532142Y-198250000D01*
X275603571Y-198321428D01*
X275675000Y-198464285D01*
X275675000Y-198535714D01*
X275603571Y-198678571D01*
X275532142Y-198750000D01*
X275389285Y-198821428D01*
X275103571Y-198821428D01*
X274960714Y-198892857D01*
X274889285Y-198964285D01*
X274817857Y-199107142D01*
X274817857Y-199392857D01*
X274889285Y-199535714D01*
X274960714Y-199607142D01*
X275103571Y-199678571D01*
X275389285Y-199678571D01*
X275532142Y-199607142D01*
X275603571Y-199535714D01*
X275675000Y-199392857D01*
X275675000Y-199107142D01*
X275603571Y-198964285D01*
X275532142Y-198892857D01*
X275389285Y-198821428D01*
X276317857Y-199107142D02*
X277460714Y-199107142D01*
X278460714Y-198178571D02*
X278603571Y-198178571D01*
X278746428Y-198250000D01*
X278817857Y-198321428D01*
X278889285Y-198464285D01*
X278960714Y-198750000D01*
X278960714Y-199107142D01*
X278889285Y-199392857D01*
X278817857Y-199535714D01*
X278746428Y-199607142D01*
X278603571Y-199678571D01*
X278460714Y-199678571D01*
X278317857Y-199607142D01*
X278246428Y-199535714D01*
X278175000Y-199392857D01*
X278103571Y-199107142D01*
X278103571Y-198750000D01*
X278175000Y-198464285D01*
X278246428Y-198321428D01*
X278317857Y-198250000D01*
X278460714Y-198178571D01*
X280389285Y-199678571D02*
X279532142Y-199678571D01*
X279960714Y-199678571D02*
X279960714Y-198178571D01*
X279817857Y-198392857D01*
X279675000Y-198535714D01*
X279532142Y-198607142D01*
D10*
D11*
X235600000Y-200400000D02*
X343600000Y-200400000D01*
D10*
D11*
X237032142Y-202478571D02*
X237032142Y-200978571D01*
X237889285Y-202478571D02*
X237246428Y-201621428D01*
X237889285Y-200978571D02*
X237032142Y-201835714D01*
X238532142Y-202478571D02*
X238532142Y-201478571D01*
X238532142Y-200978571D02*
X238460714Y-201050000D01*
X238532142Y-201121428D01*
X238603571Y-201050000D01*
X238532142Y-200978571D01*
X238532142Y-201121428D01*
X240103571Y-202335714D02*
X240032142Y-202407142D01*
X239817857Y-202478571D01*
X239675000Y-202478571D01*
X239460714Y-202407142D01*
X239317857Y-202264285D01*
X239246428Y-202121428D01*
X239175000Y-201835714D01*
X239175000Y-201621428D01*
X239246428Y-201335714D01*
X239317857Y-201192857D01*
X239460714Y-201050000D01*
X239675000Y-200978571D01*
X239817857Y-200978571D01*
X240032142Y-201050000D01*
X240103571Y-201121428D01*
X241389285Y-202478571D02*
X241389285Y-201692857D01*
X241317857Y-201550000D01*
X241175000Y-201478571D01*
X240889285Y-201478571D01*
X240746428Y-201550000D01*
X241389285Y-202407142D02*
X241246428Y-202478571D01*
X240889285Y-202478571D01*
X240746428Y-202407142D01*
X240675000Y-202264285D01*
X240675000Y-202121428D01*
X240746428Y-201978571D01*
X240889285Y-201907142D01*
X241246428Y-201907142D01*
X241389285Y-201835714D01*
X242746428Y-202478571D02*
X242746428Y-200978571D01*
X242746428Y-202407142D02*
X242603571Y-202478571D01*
X242317857Y-202478571D01*
X242175000Y-202407142D01*
X242103571Y-202335714D01*
X242032142Y-202192857D01*
X242032142Y-201764285D01*
X242103571Y-201621428D01*
X242175000Y-201550000D01*
X242317857Y-201478571D01*
X242603571Y-201478571D01*
X242746428Y-201550000D01*
X244603571Y-201692857D02*
X245103571Y-201692857D01*
X245317857Y-202478571D02*
X244603571Y-202478571D01*
X244603571Y-200978571D01*
X245317857Y-200978571D01*
X245960714Y-202335714D02*
X246032142Y-202407142D01*
X245960714Y-202478571D01*
X245889285Y-202407142D01*
X245960714Y-202335714D01*
X245960714Y-202478571D01*
X246675000Y-202478571D02*
X246675000Y-200978571D01*
X247032142Y-200978571D01*
X247246428Y-201050000D01*
X247389285Y-201192857D01*
X247460714Y-201335714D01*
X247532142Y-201621428D01*
X247532142Y-201835714D01*
X247460714Y-202121428D01*
X247389285Y-202264285D01*
X247246428Y-202407142D01*
X247032142Y-202478571D01*
X246675000Y-202478571D01*
X248175000Y-202335714D02*
X248246428Y-202407142D01*
X248175000Y-202478571D01*
X248103571Y-202407142D01*
X248175000Y-202335714D01*
X248175000Y-202478571D01*
X248817857Y-202050000D02*
X249532142Y-202050000D01*
X248675000Y-202478571D02*
X249175000Y-200978571D01*
X249675000Y-202478571D01*
X250175000Y-202335714D02*
X250246428Y-202407142D01*
X250175000Y-202478571D01*
X250103571Y-202407142D01*
X250175000Y-202335714D01*
X250175000Y-202478571D01*
X253175000Y-202478571D02*
X253175000Y-200978571D01*
X253317857Y-201907142D02*
X253746428Y-202478571D01*
X253746428Y-201478571D02*
X253175000Y-202050000D01*
X254389285Y-202478571D02*
X254389285Y-201478571D01*
X254389285Y-200978571D02*
X254317857Y-201050000D01*
X254389285Y-201121428D01*
X254460714Y-201050000D01*
X254389285Y-200978571D01*
X254389285Y-201121428D01*
X255746428Y-202407142D02*
X255603571Y-202478571D01*
X255317857Y-202478571D01*
X255175000Y-202407142D01*
X255103571Y-202335714D01*
X255032142Y-202192857D01*
X255032142Y-201764285D01*
X255103571Y-201621428D01*
X255175000Y-201550000D01*
X255317857Y-201478571D01*
X255603571Y-201478571D01*
X255746428Y-201550000D01*
X257032142Y-202478571D02*
X257032142Y-201692857D01*
X256960714Y-201550000D01*
X256817857Y-201478571D01*
X256532142Y-201478571D01*
X256389285Y-201550000D01*
X257032142Y-202407142D02*
X256889285Y-202478571D01*
X256532142Y-202478571D01*
X256389285Y-202407142D01*
X256317857Y-202264285D01*
X256317857Y-202121428D01*
X256389285Y-201978571D01*
X256532142Y-201907142D01*
X256889285Y-201907142D01*
X257032142Y-201835714D01*
X258389285Y-202478571D02*
X258389285Y-200978571D01*
X258389285Y-202407142D02*
X258246428Y-202478571D01*
X257960714Y-202478571D01*
X257817857Y-202407142D01*
X257746428Y-202335714D01*
X257675000Y-202192857D01*
X257675000Y-201764285D01*
X257746428Y-201621428D01*
X257817857Y-201550000D01*
X257960714Y-201478571D01*
X258246428Y-201478571D01*
X258389285Y-201550000D01*
X260675000Y-203050000D02*
X260603571Y-202978571D01*
X260460714Y-202764285D01*
X260389285Y-202621428D01*
X260317857Y-202407142D01*
X260246428Y-202050000D01*
X260246428Y-201764285D01*
X260317857Y-201407142D01*
X260389285Y-201192857D01*
X260460714Y-201050000D01*
X260603571Y-200835714D01*
X260675000Y-200764285D01*
X261960714Y-200978571D02*
X261246428Y-200978571D01*
X261175000Y-201692857D01*
X261246428Y-201621428D01*
X261389285Y-201550000D01*
X261746428Y-201550000D01*
X261889285Y-201621428D01*
X261960714Y-201692857D01*
X262032142Y-201835714D01*
X262032142Y-202192857D01*
X261960714Y-202335714D01*
X261889285Y-202407142D01*
X261746428Y-202478571D01*
X261389285Y-202478571D01*
X261246428Y-202407142D01*
X261175000Y-202335714D01*
X262675000Y-202335714D02*
X262746428Y-202407142D01*
X262675000Y-202478571D01*
X262603571Y-202407142D01*
X262675000Y-202335714D01*
X262675000Y-202478571D01*
X264175000Y-202478571D02*
X263317857Y-202478571D01*
X263746428Y-202478571D02*
X263746428Y-200978571D01*
X263603571Y-201192857D01*
X263460714Y-201335714D01*
X263317857Y-201407142D01*
X264817857Y-202335714D02*
X264889285Y-202407142D01*
X264817857Y-202478571D01*
X264746428Y-202407142D01*
X264817857Y-202335714D01*
X264817857Y-202478571D01*
X266246428Y-200978571D02*
X265532142Y-200978571D01*
X265460714Y-201692857D01*
X265532142Y-201621428D01*
X265675000Y-201550000D01*
X266032142Y-201550000D01*
X266175000Y-201621428D01*
X266246428Y-201692857D01*
X266317857Y-201835714D01*
X266317857Y-202192857D01*
X266246428Y-202335714D01*
X266175000Y-202407142D01*
X266032142Y-202478571D01*
X265675000Y-202478571D01*
X265532142Y-202407142D01*
X265460714Y-202335714D01*
X266817857Y-203050000D02*
X266889285Y-202978571D01*
X267032142Y-202764285D01*
X267103571Y-202621428D01*
X267175000Y-202407142D01*
X267246428Y-202050000D01*
X267246428Y-201764285D01*
X267175000Y-201407142D01*
X267103571Y-201192857D01*
X267032142Y-201050000D01*
X266889285Y-200835714D01*
X266817857Y-200764285D01*
X267960714Y-201907142D02*
X269103571Y-201907142D01*
X269675000Y-200978571D02*
X270603571Y-200978571D01*
X270103571Y-201550000D01*
X270317857Y-201550000D01*
X270460714Y-201621428D01*
X270532142Y-201692857D01*
X270603571Y-201835714D01*
X270603571Y-202192857D01*
X270532142Y-202335714D01*
X270460714Y-202407142D01*
X270317857Y-202478571D01*
X269889285Y-202478571D01*
X269746428Y-202407142D01*
X269675000Y-202335714D01*
D10*
D11*
X235600000Y-197400000D02*
X343600000Y-197400000D01*
D10*
D12*
X323009285Y-199678571D02*
X322509285Y-198964285D01*
X322152142Y-199678571D02*
X322152142Y-198178571D01*
X322723571Y-198178571D01*
X322866428Y-198250000D01*
X322937857Y-198321428D01*
X323009285Y-198464285D01*
X323009285Y-198678571D01*
X322937857Y-198821428D01*
X322866428Y-198892857D01*
X322723571Y-198964285D01*
X322152142Y-198964285D01*
X324223571Y-199607142D02*
X324080714Y-199678571D01*
X323795000Y-199678571D01*
X323652142Y-199607142D01*
X323580714Y-199464285D01*
X323580714Y-198892857D01*
X323652142Y-198750000D01*
X323795000Y-198678571D01*
X324080714Y-198678571D01*
X324223571Y-198750000D01*
X324295000Y-198892857D01*
X324295000Y-199035714D01*
X323580714Y-199178571D01*
X324795000Y-198678571D02*
X325152142Y-199678571D01*
X325509285Y-198678571D01*
X326080714Y-199535714D02*
X326152142Y-199607142D01*
X326080714Y-199678571D01*
X326009285Y-199607142D01*
X326080714Y-199535714D01*
X326080714Y-199678571D01*
X326080714Y-198750000D02*
X326152142Y-198821428D01*
X326080714Y-198892857D01*
X326009285Y-198821428D01*
X326080714Y-198750000D01*
X326080714Y-198892857D01*
X328223571Y-198178571D02*
X328366428Y-198178571D01*
X328509285Y-198250000D01*
X328580714Y-198321428D01*
X328652142Y-198464285D01*
X328723571Y-198750000D01*
X328723571Y-199107142D01*
X328652142Y-199392857D01*
X328580714Y-199535714D01*
X328509285Y-199607142D01*
X328366428Y-199678571D01*
X328223571Y-199678571D01*
X328080714Y-199607142D01*
X328009285Y-199535714D01*
X327937857Y-199392857D01*
X327866428Y-199107142D01*
X327866428Y-198750000D01*
X327937857Y-198464285D01*
X328009285Y-198321428D01*
X328080714Y-198250000D01*
X328223571Y-198178571D01*
X329366428Y-199535714D02*
X329437857Y-199607142D01*
X329366428Y-199678571D01*
X329295000Y-199607142D01*
X329366428Y-199535714D01*
X329366428Y-199678571D01*
X330866428Y-199678571D02*
X330009285Y-199678571D01*
X330437857Y-199678571D02*
X330437857Y-198178571D01*
X330295000Y-198392857D01*
X330152142Y-198535714D01*
X330009285Y-198607142D01*
D10*
D11*
X236960714Y-199607142D02*
X237175000Y-199678571D01*
X237532142Y-199678571D01*
X237675000Y-199607142D01*
X237746428Y-199535714D01*
X237817857Y-199392857D01*
X237817857Y-199250000D01*
X237746428Y-199107142D01*
X237675000Y-199035714D01*
X237532142Y-198964285D01*
X237246428Y-198892857D01*
X237103571Y-198821428D01*
X237032142Y-198750000D01*
X236960714Y-198607142D01*
X236960714Y-198464285D01*
X237032142Y-198321428D01*
X237103571Y-198250000D01*
X237246428Y-198178571D01*
X237603571Y-198178571D01*
X237817857Y-198250000D01*
X238460714Y-199678571D02*
X238460714Y-198678571D01*
X238460714Y-198178571D02*
X238389285Y-198250000D01*
X238460714Y-198321428D01*
X238532142Y-198250000D01*
X238460714Y-198178571D01*
X238460714Y-198321428D01*
X239032142Y-198678571D02*
X239817857Y-198678571D01*
X239032142Y-199678571D01*
X239817857Y-199678571D01*
X240960714Y-199607142D02*
X240817857Y-199678571D01*
X240532142Y-199678571D01*
X240389285Y-199607142D01*
X240317857Y-199464285D01*
X240317857Y-198892857D01*
X240389285Y-198750000D01*
X240532142Y-198678571D01*
X240817857Y-198678571D01*
X240960714Y-198750000D01*
X241032142Y-198892857D01*
X241032142Y-199035714D01*
X240317857Y-199178571D01*
X241675000Y-199535714D02*
X241746428Y-199607142D01*
X241675000Y-199678571D01*
X241603571Y-199607142D01*
X241675000Y-199535714D01*
X241675000Y-199678571D01*
X241675000Y-198750000D02*
X241746428Y-198821428D01*
X241675000Y-198892857D01*
X241603571Y-198821428D01*
X241675000Y-198750000D01*
X241675000Y-198892857D01*
X243532142Y-198178571D02*
X243532142Y-199392857D01*
X243603571Y-199535714D01*
X243675000Y-199607142D01*
X243817857Y-199678571D01*
X244103571Y-199678571D01*
X244246428Y-199607142D01*
X244317857Y-199535714D01*
X244389285Y-199392857D01*
X244389285Y-198178571D01*
X245032142Y-199607142D02*
X245246428Y-199678571D01*
X245603571Y-199678571D01*
X245746428Y-199607142D01*
X245817857Y-199535714D01*
X245889285Y-199392857D01*
X245889285Y-199250000D01*
X245817857Y-199107142D01*
X245746428Y-199035714D01*
X245603571Y-198964285D01*
X245317857Y-198892857D01*
X245175000Y-198821428D01*
X245103571Y-198750000D01*
X245032142Y-198607142D01*
X245032142Y-198464285D01*
X245103571Y-198321428D01*
X245175000Y-198250000D01*
X245317857Y-198178571D01*
X245675000Y-198178571D01*
X245889285Y-198250000D01*
X247246428Y-199678571D02*
X246532142Y-199678571D01*
X246532142Y-198178571D01*
X248317857Y-199607142D02*
X248175000Y-199678571D01*
X247889285Y-199678571D01*
X247746428Y-199607142D01*
X247675000Y-199464285D01*
X247675000Y-198892857D01*
X247746428Y-198750000D01*
X247889285Y-198678571D01*
X248175000Y-198678571D01*
X248317857Y-198750000D01*
X248389285Y-198892857D01*
X248389285Y-199035714D01*
X247675000Y-199178571D01*
X249675000Y-198678571D02*
X249675000Y-199892857D01*
X249603571Y-200035714D01*
X249532142Y-200107142D01*
X249389285Y-200178571D01*
X249175000Y-200178571D01*
X249032142Y-200107142D01*
X249675000Y-199607142D02*
X249532142Y-199678571D01*
X249246428Y-199678571D01*
X249103571Y-199607142D01*
X249032142Y-199535714D01*
X248960714Y-199392857D01*
X248960714Y-198964285D01*
X249032142Y-198821428D01*
X249103571Y-198750000D01*
X249246428Y-198678571D01*
X249532142Y-198678571D01*
X249675000Y-198750000D01*
X251032142Y-199678571D02*
X251032142Y-198892857D01*
X250960714Y-198750000D01*
X250817857Y-198678571D01*
X250532142Y-198678571D01*
X250389285Y-198750000D01*
X251032142Y-199607142D02*
X250889285Y-199678571D01*
X250532142Y-199678571D01*
X250389285Y-199607142D01*
X250317857Y-199464285D01*
X250317857Y-199321428D01*
X250389285Y-199178571D01*
X250532142Y-199107142D01*
X250889285Y-199107142D01*
X251032142Y-199035714D01*
X251960714Y-199678571D02*
X251817857Y-199607142D01*
X251746428Y-199464285D01*
X251746428Y-198178571D01*
D10*
D11*
X322032142Y-202478571D02*
X322032142Y-200978571D01*
X323389285Y-202478571D02*
X323389285Y-200978571D01*
X323389285Y-202407142D02*
X323246428Y-202478571D01*
X322960714Y-202478571D01*
X322817857Y-202407142D01*
X322746428Y-202335714D01*
X322675000Y-202192857D01*
X322675000Y-201764285D01*
X322746428Y-201621428D01*
X322817857Y-201550000D01*
X322960714Y-201478571D01*
X323246428Y-201478571D01*
X323389285Y-201550000D01*
X324103571Y-202335714D02*
X324175000Y-202407142D01*
X324103571Y-202478571D01*
X324032142Y-202407142D01*
X324103571Y-202335714D01*
X324103571Y-202478571D01*
X324103571Y-201550000D02*
X324175000Y-201621428D01*
X324103571Y-201692857D01*
X324032142Y-201621428D01*
X324103571Y-201550000D01*
X324103571Y-201692857D01*
X326746428Y-202478571D02*
X325889285Y-202478571D01*
X326317857Y-202478571D02*
X326317857Y-200978571D01*
X326175000Y-201192857D01*
X326032142Y-201335714D01*
X325889285Y-201407142D01*
X328460714Y-200907142D02*
X327175000Y-202835714D01*
X329746428Y-202478571D02*
X328889285Y-202478571D01*
X329317857Y-202478571D02*
X329317857Y-200978571D01*
X329175000Y-201192857D01*
X329032142Y-201335714D01*
X328889285Y-201407142D01*
D10*
D11*
X235600000Y-193400000D02*
X343600000Y-193400000D01*
D10*
D13*
X237312380Y-194104761D02*
X238455238Y-194104761D01*
X237633809Y-196104761D02*
X237883809Y-194104761D01*
X238871904Y-196104761D02*
X239038571Y-194771428D01*
X239121904Y-194104761D02*
X239014761Y-194200000D01*
X239098095Y-194295238D01*
X239205238Y-194200000D01*
X239121904Y-194104761D01*
X239098095Y-194295238D01*
X239705238Y-194771428D02*
X240467142Y-194771428D01*
X240074285Y-194104761D02*
X239860000Y-195819047D01*
X239931428Y-196009523D01*
X240110000Y-196104761D01*
X240300476Y-196104761D01*
X241252857Y-196104761D02*
X241074285Y-196009523D01*
X241002857Y-195819047D01*
X241217142Y-194104761D01*
X242788571Y-196009523D02*
X242586190Y-196104761D01*
X242205238Y-196104761D01*
X242026666Y-196009523D01*
X241955238Y-195819047D01*
X242050476Y-195057142D01*
X242169523Y-194866666D01*
X242371904Y-194771428D01*
X242752857Y-194771428D01*
X242931428Y-194866666D01*
X243002857Y-195057142D01*
X242979047Y-195247619D01*
X242002857Y-195438095D01*
X243752857Y-195914285D02*
X243836190Y-196009523D01*
X243729047Y-196104761D01*
X243645714Y-196009523D01*
X243752857Y-195914285D01*
X243729047Y-196104761D01*
X243883809Y-194866666D02*
X243967142Y-194961904D01*
X243860000Y-195057142D01*
X243776666Y-194961904D01*
X243883809Y-194866666D01*
X243860000Y-195057142D01*
X246205238Y-196104761D02*
X246455238Y-194104761D01*
X246931428Y-194104761D01*
X247205238Y-194200000D01*
X247371904Y-194390476D01*
X247443333Y-194580952D01*
X247490952Y-194961904D01*
X247455238Y-195247619D01*
X247312380Y-195628571D01*
X247193333Y-195819047D01*
X246979047Y-196009523D01*
X246681428Y-196104761D01*
X246205238Y-196104761D01*
X249371904Y-195914285D02*
X249264761Y-196009523D01*
X248967142Y-196104761D01*
X248776666Y-196104761D01*
X248502857Y-196009523D01*
X248336190Y-195819047D01*
X248264761Y-195628571D01*
X248217142Y-195247619D01*
X248252857Y-194961904D01*
X248395714Y-194580952D01*
X248514761Y-194390476D01*
X248729047Y-194200000D01*
X249026666Y-194104761D01*
X249217142Y-194104761D01*
X249490952Y-194200000D01*
X249574285Y-194295238D01*
X250633809Y-194961904D02*
X250455238Y-194866666D01*
X250371904Y-194771428D01*
X250300476Y-194580952D01*
X250312380Y-194485714D01*
X250431428Y-194295238D01*
X250538571Y-194200000D01*
X250740952Y-194104761D01*
X251121904Y-194104761D01*
X251300476Y-194200000D01*
X251383809Y-194295238D01*
X251455238Y-194485714D01*
X251443333Y-194580952D01*
X251324285Y-194771428D01*
X251217142Y-194866666D01*
X251014761Y-194961904D01*
X250633809Y-194961904D01*
X250431428Y-195057142D01*
X250324285Y-195152380D01*
X250205238Y-195342857D01*
X250157619Y-195723809D01*
X250229047Y-195914285D01*
X250312380Y-196009523D01*
X250490952Y-196104761D01*
X250871904Y-196104761D01*
X251074285Y-196009523D01*
X251181428Y-195914285D01*
X251300476Y-195723809D01*
X251348095Y-195342857D01*
X251276666Y-195152380D01*
X251193333Y-195057142D01*
X251014761Y-194961904D01*
X252740952Y-194104761D02*
X252931428Y-194104761D01*
X253110000Y-194200000D01*
X253193333Y-194295238D01*
X253264761Y-194485714D01*
X253312380Y-194866666D01*
X253252857Y-195342857D01*
X253110000Y-195723809D01*
X252990952Y-195914285D01*
X252883809Y-196009523D01*
X252681428Y-196104761D01*
X252490952Y-196104761D01*
X252312380Y-196009523D01*
X252229047Y-195914285D01*
X252157619Y-195723809D01*
X252110000Y-195342857D01*
X252169523Y-194866666D01*
X252312380Y-194485714D01*
X252431428Y-194295238D01*
X252538571Y-194200000D01*
X252740952Y-194104761D01*
X255062380Y-196104761D02*
X253919523Y-196104761D01*
X254490952Y-196104761D02*
X254740952Y-194104761D01*
X254514761Y-194390476D01*
X254300476Y-194580952D01*
X254098095Y-194676190D01*
X258240952Y-195057142D02*
X258514761Y-195152380D01*
X258598095Y-195247619D01*
X258669523Y-195438095D01*
X258633809Y-195723809D01*
X258514761Y-195914285D01*
X258407619Y-196009523D01*
X258205238Y-196104761D01*
X257443333Y-196104761D01*
X257693333Y-194104761D01*
X258360000Y-194104761D01*
X258538571Y-194200000D01*
X258621904Y-194295238D01*
X258693333Y-194485714D01*
X258669523Y-194676190D01*
X258550476Y-194866666D01*
X258443333Y-194961904D01*
X258240952Y-195057142D01*
X257574285Y-195057142D01*
X260300476Y-196104761D02*
X260431428Y-195057142D01*
X260360000Y-194866666D01*
X260181428Y-194771428D01*
X259800476Y-194771428D01*
X259598095Y-194866666D01*
X260312380Y-196009523D02*
X260110000Y-196104761D01*
X259633809Y-196104761D01*
X259455238Y-196009523D01*
X259383809Y-195819047D01*
X259407619Y-195628571D01*
X259526666Y-195438095D01*
X259729047Y-195342857D01*
X260205238Y-195342857D01*
X260407619Y-195247619D01*
X262110000Y-196104761D02*
X262360000Y-194104761D01*
X262121904Y-196009523D02*
X261919523Y-196104761D01*
X261538571Y-196104761D01*
X261360000Y-196009523D01*
X261276666Y-195914285D01*
X261205238Y-195723809D01*
X261276666Y-195152380D01*
X261395714Y-194961904D01*
X261502857Y-194866666D01*
X261705238Y-194771428D01*
X262086190Y-194771428D01*
X262264761Y-194866666D01*
X264086190Y-194771428D02*
X263883809Y-196390476D01*
X263764761Y-196580952D01*
X263657619Y-196676190D01*
X263455238Y-196771428D01*
X263169523Y-196771428D01*
X262990952Y-196676190D01*
X263931428Y-196009523D02*
X263729047Y-196104761D01*
X263348095Y-196104761D01*
X263169523Y-196009523D01*
X263086190Y-195914285D01*
X263014761Y-195723809D01*
X263086190Y-195152380D01*
X263205238Y-194961904D01*
X263312380Y-194866666D01*
X263514761Y-194771428D01*
X263895714Y-194771428D01*
X264074285Y-194866666D01*
X265645714Y-196009523D02*
X265443333Y-196104761D01*
X265062380Y-196104761D01*
X264883809Y-196009523D01*
X264812380Y-195819047D01*
X264907619Y-195057142D01*
X265026666Y-194866666D01*
X265229047Y-194771428D01*
X265610000Y-194771428D01*
X265788571Y-194866666D01*
X265860000Y-195057142D01*
X265836190Y-195247619D01*
X264860000Y-195438095D01*
X268205238Y-195342857D02*
X269729047Y-195342857D01*
X272907619Y-195057142D02*
X273181428Y-195152380D01*
X273264761Y-195247619D01*
X273336190Y-195438095D01*
X273300476Y-195723809D01*
X273181428Y-195914285D01*
X273074285Y-196009523D01*
X272871904Y-196104761D01*
X272110000Y-196104761D01*
X272360000Y-194104761D01*
X273026666Y-194104761D01*
X273205238Y-194200000D01*
X273288571Y-194295238D01*
X273360000Y-194485714D01*
X273336190Y-194676190D01*
X273217142Y-194866666D01*
X273110000Y-194961904D01*
X272907619Y-195057142D01*
X272240952Y-195057142D01*
X274110000Y-196104761D02*
X274360000Y-194104761D01*
X274848095Y-195533333D01*
X275693333Y-194104761D01*
X275443333Y-196104761D01*
D10*
D11*
X237532142Y-191492857D02*
X237032142Y-191492857D01*
X237032142Y-192278571D02*
X237032142Y-190778571D01*
X237746428Y-190778571D01*
X238317857Y-192278571D02*
X238317857Y-191278571D01*
X238317857Y-190778571D02*
X238246428Y-190850000D01*
X238317857Y-190921428D01*
X238389285Y-190850000D01*
X238317857Y-190778571D01*
X238317857Y-190921428D01*
X239246428Y-192278571D02*
X239103571Y-192207142D01*
X239032142Y-192064285D01*
X239032142Y-190778571D01*
X240389285Y-192207142D02*
X240246428Y-192278571D01*
X239960714Y-192278571D01*
X239817857Y-192207142D01*
X239746428Y-192064285D01*
X239746428Y-191492857D01*
X239817857Y-191350000D01*
X239960714Y-191278571D01*
X240246428Y-191278571D01*
X240389285Y-191350000D01*
X240460714Y-191492857D01*
X240460714Y-191635714D01*
X239746428Y-191778571D01*
X241103571Y-192135714D02*
X241175000Y-192207142D01*
X241103571Y-192278571D01*
X241032142Y-192207142D01*
X241103571Y-192135714D01*
X241103571Y-192278571D01*
X241103571Y-191350000D02*
X241175000Y-191421428D01*
X241103571Y-191492857D01*
X241032142Y-191421428D01*
X241103571Y-191350000D01*
X241103571Y-191492857D01*
X242960714Y-191278571D02*
X242960714Y-192778571D01*
X242960714Y-191350000D02*
X243103571Y-191278571D01*
X243389285Y-191278571D01*
X243532142Y-191350000D01*
X243603571Y-191421428D01*
X243675000Y-191564285D01*
X243675000Y-191992857D01*
X243603571Y-192135714D01*
X243532142Y-192207142D01*
X243389285Y-192278571D01*
X243103571Y-192278571D01*
X242960714Y-192207142D01*
X244960714Y-191278571D02*
X244960714Y-192278571D01*
X244317857Y-191278571D02*
X244317857Y-192064285D01*
X244389285Y-192207142D01*
X244532142Y-192278571D01*
X244746428Y-192278571D01*
X244889285Y-192207142D01*
X244960714Y-192135714D01*
X245675000Y-192278571D02*
X245675000Y-191278571D01*
X245675000Y-191564285D02*
X245746428Y-191421428D01*
X245817857Y-191350000D01*
X245960714Y-191278571D01*
X246103571Y-191278571D01*
X246603571Y-191278571D02*
X246603571Y-192778571D01*
X246603571Y-191350000D02*
X246746428Y-191278571D01*
X247032142Y-191278571D01*
X247175000Y-191350000D01*
X247246428Y-191421428D01*
X247317857Y-191564285D01*
X247317857Y-191992857D01*
X247246428Y-192135714D01*
X247175000Y-192207142D01*
X247032142Y-192278571D01*
X246746428Y-192278571D01*
X246603571Y-192207142D01*
X248175000Y-192278571D02*
X248032142Y-192207142D01*
X247960714Y-192064285D01*
X247960714Y-190778571D01*
X249317857Y-192207142D02*
X249175000Y-192278571D01*
X248889285Y-192278571D01*
X248746428Y-192207142D01*
X248675000Y-192064285D01*
X248675000Y-191492857D01*
X248746428Y-191350000D01*
X248889285Y-191278571D01*
X249175000Y-191278571D01*
X249317857Y-191350000D01*
X249389285Y-191492857D01*
X249389285Y-191635714D01*
X248675000Y-191778571D01*
X249889285Y-191278571D02*
X250175000Y-192278571D01*
X250460714Y-191564285D01*
X250746428Y-192278571D01*
X251032142Y-191278571D01*
X251603571Y-192278571D02*
X251603571Y-191278571D01*
X251603571Y-190778571D02*
X251532142Y-190850000D01*
X251603571Y-190921428D01*
X251675000Y-190850000D01*
X251603571Y-190778571D01*
X251603571Y-190921428D01*
X252175000Y-191278571D02*
X252960714Y-191278571D01*
X252175000Y-192278571D01*
X252960714Y-192278571D01*
X254175000Y-192278571D02*
X254175000Y-191492857D01*
X254103571Y-191350000D01*
X253960714Y-191278571D01*
X253675000Y-191278571D01*
X253532142Y-191350000D01*
X254175000Y-192207142D02*
X254032142Y-192278571D01*
X253675000Y-192278571D01*
X253532142Y-192207142D01*
X253460714Y-192064285D01*
X253460714Y-191921428D01*
X253532142Y-191778571D01*
X253675000Y-191707142D01*
X254032142Y-191707142D01*
X254175000Y-191635714D01*
X254889285Y-192278571D02*
X254889285Y-191278571D01*
X254889285Y-191564285D02*
X254960714Y-191421428D01*
X255032142Y-191350000D01*
X255175000Y-191278571D01*
X255317857Y-191278571D01*
X256460714Y-192278571D02*
X256460714Y-190778571D01*
X256460714Y-192207142D02*
X256317857Y-192278571D01*
X256032142Y-192278571D01*
X255889285Y-192207142D01*
X255817857Y-192135714D01*
X255746428Y-191992857D01*
X255746428Y-191564285D01*
X255817857Y-191421428D01*
X255889285Y-191350000D01*
X256032142Y-191278571D01*
X256317857Y-191278571D01*
X256460714Y-191350000D01*
X257175000Y-192135714D02*
X257246428Y-192207142D01*
X257175000Y-192278571D01*
X257103571Y-192207142D01*
X257175000Y-192135714D01*
X257175000Y-192278571D01*
X257889285Y-192278571D02*
X257889285Y-190778571D01*
X258032142Y-191707142D02*
X258460714Y-192278571D01*
X258460714Y-191278571D02*
X257889285Y-191850000D01*
X259103571Y-192278571D02*
X259103571Y-191278571D01*
X259103571Y-190778571D02*
X259032142Y-190850000D01*
X259103571Y-190921428D01*
X259175000Y-190850000D01*
X259103571Y-190778571D01*
X259103571Y-190921428D01*
X260460714Y-192207142D02*
X260317857Y-192278571D01*
X260032142Y-192278571D01*
X259889285Y-192207142D01*
X259817857Y-192135714D01*
X259746428Y-191992857D01*
X259746428Y-191564285D01*
X259817857Y-191421428D01*
X259889285Y-191350000D01*
X260032142Y-191278571D01*
X260317857Y-191278571D01*
X260460714Y-191350000D01*
X261746428Y-192278571D02*
X261746428Y-191492857D01*
X261675000Y-191350000D01*
X261532142Y-191278571D01*
X261246428Y-191278571D01*
X261103571Y-191350000D01*
X261746428Y-192207142D02*
X261603571Y-192278571D01*
X261246428Y-192278571D01*
X261103571Y-192207142D01*
X261032142Y-192064285D01*
X261032142Y-191921428D01*
X261103571Y-191778571D01*
X261246428Y-191707142D01*
X261603571Y-191707142D01*
X261746428Y-191635714D01*
X263103571Y-192278571D02*
X263103571Y-190778571D01*
X263103571Y-192207142D02*
X262960714Y-192278571D01*
X262675000Y-192278571D01*
X262532142Y-192207142D01*
X262460714Y-192135714D01*
X262389285Y-191992857D01*
X262389285Y-191564285D01*
X262460714Y-191421428D01*
X262532142Y-191350000D01*
X262675000Y-191278571D01*
X262960714Y-191278571D01*
X263103571Y-191350000D01*
X263460714Y-192421428D02*
X264603571Y-192421428D01*
X264960714Y-191278571D02*
X264960714Y-192778571D01*
X264960714Y-191350000D02*
X265103571Y-191278571D01*
X265389285Y-191278571D01*
X265532142Y-191350000D01*
X265603571Y-191421428D01*
X265675000Y-191564285D01*
X265675000Y-191992857D01*
X265603571Y-192135714D01*
X265532142Y-192207142D01*
X265389285Y-192278571D01*
X265103571Y-192278571D01*
X264960714Y-192207142D01*
X266960714Y-192207142D02*
X266817857Y-192278571D01*
X266532142Y-192278571D01*
X266389285Y-192207142D01*
X266317857Y-192135714D01*
X266246428Y-191992857D01*
X266246428Y-191564285D01*
X266317857Y-191421428D01*
X266389285Y-191350000D01*
X266532142Y-191278571D01*
X266817857Y-191278571D01*
X266960714Y-191350000D01*
X267603571Y-192278571D02*
X267603571Y-190778571D01*
X267603571Y-191350000D02*
X267746428Y-191278571D01*
X268032142Y-191278571D01*
X268175000Y-191350000D01*
X268246428Y-191421428D01*
X268317857Y-191564285D01*
X268317857Y-191992857D01*
X268246428Y-192135714D01*
X268175000Y-192207142D01*
X268032142Y-192278571D01*
X267746428Y-192278571D01*
X267603571Y-192207142D01*
D10*
D11*
X235600000Y-187400000D02*
X343600000Y-187400000D01*
D10*
D11*
X236960714Y-189507142D02*
X237175000Y-189578571D01*
X237532142Y-189578571D01*
X237675000Y-189507142D01*
X237746428Y-189435714D01*
X237817857Y-189292857D01*
X237817857Y-189150000D01*
X237746428Y-189007142D01*
X237675000Y-188935714D01*
X237532142Y-188864285D01*
X237246428Y-188792857D01*
X237103571Y-188721428D01*
X237032142Y-188650000D01*
X236960714Y-188507142D01*
X236960714Y-188364285D01*
X237032142Y-188221428D01*
X237103571Y-188150000D01*
X237246428Y-188078571D01*
X237603571Y-188078571D01*
X237817857Y-188150000D01*
X238460714Y-189578571D02*
X238460714Y-188078571D01*
X239103571Y-189578571D02*
X239103571Y-188792857D01*
X239032142Y-188650000D01*
X238889285Y-188578571D01*
X238675000Y-188578571D01*
X238532142Y-188650000D01*
X238460714Y-188721428D01*
X240389285Y-189507142D02*
X240246428Y-189578571D01*
X239960714Y-189578571D01*
X239817857Y-189507142D01*
X239746428Y-189364285D01*
X239746428Y-188792857D01*
X239817857Y-188650000D01*
X239960714Y-188578571D01*
X240246428Y-188578571D01*
X240389285Y-188650000D01*
X240460714Y-188792857D01*
X240460714Y-188935714D01*
X239746428Y-189078571D01*
X241675000Y-189507142D02*
X241532142Y-189578571D01*
X241246428Y-189578571D01*
X241103571Y-189507142D01*
X241032142Y-189364285D01*
X241032142Y-188792857D01*
X241103571Y-188650000D01*
X241246428Y-188578571D01*
X241532142Y-188578571D01*
X241675000Y-188650000D01*
X241746428Y-188792857D01*
X241746428Y-188935714D01*
X241032142Y-189078571D01*
X242175000Y-188578571D02*
X242746428Y-188578571D01*
X242389285Y-188078571D02*
X242389285Y-189364285D01*
X242460714Y-189507142D01*
X242603571Y-189578571D01*
X242746428Y-189578571D01*
X243246428Y-189435714D02*
X243317857Y-189507142D01*
X243246428Y-189578571D01*
X243175000Y-189507142D01*
X243246428Y-189435714D01*
X243246428Y-189578571D01*
X243246428Y-188650000D02*
X243317857Y-188721428D01*
X243246428Y-188792857D01*
X243175000Y-188721428D01*
X243246428Y-188650000D01*
X243246428Y-188792857D01*
D10*
D12*
X237152142Y-186578571D02*
X237152142Y-185078571D01*
X237509285Y-185078571D01*
X237723571Y-185150000D01*
X237866428Y-185292857D01*
X237937857Y-185435714D01*
X238009285Y-185721428D01*
X238009285Y-185935714D01*
X237937857Y-186221428D01*
X237866428Y-186364285D01*
X237723571Y-186507142D01*
X237509285Y-186578571D01*
X237152142Y-186578571D01*
X239509285Y-186435714D02*
X239437857Y-186507142D01*
X239223571Y-186578571D01*
X239080714Y-186578571D01*
X238866428Y-186507142D01*
X238723571Y-186364285D01*
X238652142Y-186221428D01*
X238580714Y-185935714D01*
X238580714Y-185721428D01*
X238652142Y-185435714D01*
X238723571Y-185292857D01*
X238866428Y-185150000D01*
X239080714Y-185078571D01*
X239223571Y-185078571D01*
X239437857Y-185150000D01*
X239509285Y-185221428D01*
X240366428Y-185721428D02*
X240223571Y-185650000D01*
X240152142Y-185578571D01*
X240080714Y-185435714D01*
X240080714Y-185364285D01*
X240152142Y-185221428D01*
X240223571Y-185150000D01*
X240366428Y-185078571D01*
X240652142Y-185078571D01*
X240795000Y-185150000D01*
X240866428Y-185221428D01*
X240937857Y-185364285D01*
X240937857Y-185435714D01*
X240866428Y-185578571D01*
X240795000Y-185650000D01*
X240652142Y-185721428D01*
X240366428Y-185721428D01*
X240223571Y-185792857D01*
X240152142Y-185864285D01*
X240080714Y-186007142D01*
X240080714Y-186292857D01*
X240152142Y-186435714D01*
X240223571Y-186507142D01*
X240366428Y-186578571D01*
X240652142Y-186578571D01*
X240795000Y-186507142D01*
X240866428Y-186435714D01*
X240937857Y-186292857D01*
X240937857Y-186007142D01*
X240866428Y-185864285D01*
X240795000Y-185792857D01*
X240652142Y-185721428D01*
X241866428Y-185078571D02*
X242009285Y-185078571D01*
X242152142Y-185150000D01*
X242223571Y-185221428D01*
X242295000Y-185364285D01*
X242366428Y-185650000D01*
X242366428Y-186007142D01*
X242295000Y-186292857D01*
X242223571Y-186435714D01*
X242152142Y-186507142D01*
X242009285Y-186578571D01*
X241866428Y-186578571D01*
X241723571Y-186507142D01*
X241652142Y-186435714D01*
X241580714Y-186292857D01*
X241509285Y-186007142D01*
X241509285Y-185650000D01*
X241580714Y-185364285D01*
X241652142Y-185221428D01*
X241723571Y-185150000D01*
X241866428Y-185078571D01*
X243795000Y-186578571D02*
X242937857Y-186578571D01*
X243366428Y-186578571D02*
X243366428Y-185078571D01*
X243223571Y-185292857D01*
X243080714Y-185435714D01*
X242937857Y-185507142D01*
D10*
D11*
X237675000Y-183507142D02*
X237532142Y-183578571D01*
X237246428Y-183578571D01*
X237103571Y-183507142D01*
X237032142Y-183435714D01*
X236960714Y-183292857D01*
X236960714Y-182864285D01*
X237032142Y-182721428D01*
X237103571Y-182650000D01*
X237246428Y-182578571D01*
X237532142Y-182578571D01*
X237675000Y-182650000D01*
X238532142Y-183578571D02*
X238389285Y-183507142D01*
X238317857Y-183435714D01*
X238246428Y-183292857D01*
X238246428Y-182864285D01*
X238317857Y-182721428D01*
X238389285Y-182650000D01*
X238532142Y-182578571D01*
X238746428Y-182578571D01*
X238889285Y-182650000D01*
X238960714Y-182721428D01*
X239032142Y-182864285D01*
X239032142Y-183292857D01*
X238960714Y-183435714D01*
X238889285Y-183507142D01*
X238746428Y-183578571D01*
X238532142Y-183578571D01*
X240317857Y-183578571D02*
X240317857Y-182078571D01*
X240317857Y-183507142D02*
X240175000Y-183578571D01*
X239889285Y-183578571D01*
X239746428Y-183507142D01*
X239675000Y-183435714D01*
X239603571Y-183292857D01*
X239603571Y-182864285D01*
X239675000Y-182721428D01*
X239746428Y-182650000D01*
X239889285Y-182578571D01*
X240175000Y-182578571D01*
X240317857Y-182650000D01*
X241603571Y-183507142D02*
X241460714Y-183578571D01*
X241175000Y-183578571D01*
X241032142Y-183507142D01*
X240960714Y-183364285D01*
X240960714Y-182792857D01*
X241032142Y-182650000D01*
X241175000Y-182578571D01*
X241460714Y-182578571D01*
X241603571Y-182650000D01*
X241675000Y-182792857D01*
X241675000Y-182935714D01*
X240960714Y-183078571D01*
X242317857Y-182578571D02*
X242317857Y-183578571D01*
X242317857Y-182721428D02*
X242389285Y-182650000D01*
X242532142Y-182578571D01*
X242746428Y-182578571D01*
X242889285Y-182650000D01*
X242960714Y-182792857D01*
X242960714Y-183578571D01*
X244317857Y-183578571D02*
X244317857Y-182792857D01*
X244246428Y-182650000D01*
X244103571Y-182578571D01*
X243817857Y-182578571D01*
X243675000Y-182650000D01*
X244317857Y-183507142D02*
X244175000Y-183578571D01*
X243817857Y-183578571D01*
X243675000Y-183507142D01*
X243603571Y-183364285D01*
X243603571Y-183221428D01*
X243675000Y-183078571D01*
X243817857Y-183007142D01*
X244175000Y-183007142D01*
X244317857Y-182935714D01*
X245032142Y-183578571D02*
X245032142Y-182578571D01*
X245032142Y-182721428D02*
X245103571Y-182650000D01*
X245246428Y-182578571D01*
X245460714Y-182578571D01*
X245603571Y-182650000D01*
X245675000Y-182792857D01*
X245675000Y-183578571D01*
X245675000Y-182792857D02*
X245746428Y-182650000D01*
X245889285Y-182578571D01*
X246103571Y-182578571D01*
X246246428Y-182650000D01*
X246317857Y-182792857D01*
X246317857Y-183578571D01*
X247603571Y-183507142D02*
X247460714Y-183578571D01*
X247175000Y-183578571D01*
X247032142Y-183507142D01*
X246960714Y-183364285D01*
X246960714Y-182792857D01*
X247032142Y-182650000D01*
X247175000Y-182578571D01*
X247460714Y-182578571D01*
X247603571Y-182650000D01*
X247675000Y-182792857D01*
X247675000Y-182935714D01*
X246960714Y-183078571D01*
X249460714Y-182578571D02*
X249460714Y-184078571D01*
X249460714Y-182650000D02*
X249603571Y-182578571D01*
X249889285Y-182578571D01*
X250032142Y-182650000D01*
X250103571Y-182721428D01*
X250175000Y-182864285D01*
X250175000Y-183292857D01*
X250103571Y-183435714D01*
X250032142Y-183507142D01*
X249889285Y-183578571D01*
X249603571Y-183578571D01*
X249460714Y-183507142D01*
X251460714Y-182578571D02*
X251460714Y-183578571D01*
X250817857Y-182578571D02*
X250817857Y-183364285D01*
X250889285Y-183507142D01*
X251032142Y-183578571D01*
X251246428Y-183578571D01*
X251389285Y-183507142D01*
X251460714Y-183435714D01*
X252175000Y-183578571D02*
X252175000Y-182578571D01*
X252175000Y-182864285D02*
X252246428Y-182721428D01*
X252317857Y-182650000D01*
X252460714Y-182578571D01*
X252603571Y-182578571D01*
X253103571Y-182578571D02*
X253103571Y-184078571D01*
X253103571Y-182650000D02*
X253246428Y-182578571D01*
X253532142Y-182578571D01*
X253675000Y-182650000D01*
X253746428Y-182721428D01*
X253817857Y-182864285D01*
X253817857Y-183292857D01*
X253746428Y-183435714D01*
X253675000Y-183507142D01*
X253532142Y-183578571D01*
X253246428Y-183578571D01*
X253103571Y-183507142D01*
X254675000Y-183578571D02*
X254532142Y-183507142D01*
X254460714Y-183364285D01*
X254460714Y-182078571D01*
X255817857Y-183507142D02*
X255675000Y-183578571D01*
X255389285Y-183578571D01*
X255246428Y-183507142D01*
X255175000Y-183364285D01*
X255175000Y-182792857D01*
X255246428Y-182650000D01*
X255389285Y-182578571D01*
X255675000Y-182578571D01*
X255817857Y-182650000D01*
X255889285Y-182792857D01*
X255889285Y-182935714D01*
X255175000Y-183078571D01*
X256389285Y-182578571D02*
X256675000Y-183578571D01*
X256960714Y-182864285D01*
X257246428Y-183578571D01*
X257532142Y-182578571D01*
X258103571Y-183578571D02*
X258103571Y-182578571D01*
X258103571Y-182078571D02*
X258032142Y-182150000D01*
X258103571Y-182221428D01*
X258175000Y-182150000D01*
X258103571Y-182078571D01*
X258103571Y-182221428D01*
X258675000Y-182578571D02*
X259460714Y-182578571D01*
X258675000Y-183578571D01*
X259460714Y-183578571D01*
X260675000Y-183578571D02*
X260675000Y-182792857D01*
X260603571Y-182650000D01*
X260460714Y-182578571D01*
X260175000Y-182578571D01*
X260032142Y-182650000D01*
X260675000Y-183507142D02*
X260532142Y-183578571D01*
X260175000Y-183578571D01*
X260032142Y-183507142D01*
X259960714Y-183364285D01*
X259960714Y-183221428D01*
X260032142Y-183078571D01*
X260175000Y-183007142D01*
X260532142Y-183007142D01*
X260675000Y-182935714D01*
X261389285Y-183578571D02*
X261389285Y-182578571D01*
X261389285Y-182864285D02*
X261460714Y-182721428D01*
X261532142Y-182650000D01*
X261675000Y-182578571D01*
X261817857Y-182578571D01*
X262960714Y-183578571D02*
X262960714Y-182078571D01*
X262960714Y-183507142D02*
X262817857Y-183578571D01*
X262532142Y-183578571D01*
X262389285Y-183507142D01*
X262317857Y-183435714D01*
X262246428Y-183292857D01*
X262246428Y-182864285D01*
X262317857Y-182721428D01*
X262389285Y-182650000D01*
X262532142Y-182578571D01*
X262817857Y-182578571D01*
X262960714Y-182650000D01*
D10*
D11*
X237960714Y-173864285D02*
X237889285Y-173792857D01*
X237746428Y-173721428D01*
X237603571Y-173721428D01*
X237460714Y-173792857D01*
X237389285Y-173864285D01*
X237317857Y-174007142D01*
X237317857Y-174150000D01*
X237389285Y-174292857D01*
X237460714Y-174364285D01*
X237603571Y-174435714D01*
X237746428Y-174435714D01*
X237889285Y-174364285D01*
X237960714Y-174292857D01*
X237960714Y-173721428D02*
X237960714Y-174292857D01*
X238032142Y-174364285D01*
X238103571Y-174364285D01*
X238246428Y-174292857D01*
X238317857Y-174150000D01*
X238317857Y-173792857D01*
X238175000Y-173578571D01*
X237960714Y-173435714D01*
X237675000Y-173364285D01*
X237389285Y-173435714D01*
X237175000Y-173578571D01*
X237032142Y-173792857D01*
X236960714Y-174078571D01*
X237032142Y-174364285D01*
X237175000Y-174578571D01*
X237389285Y-174721428D01*
X237675000Y-174792857D01*
X237960714Y-174721428D01*
X238175000Y-174578571D01*
X238960714Y-174578571D02*
X238960714Y-173078571D01*
X239603571Y-174578571D02*
X239603571Y-173792857D01*
X239532142Y-173650000D01*
X239389285Y-173578571D01*
X239175000Y-173578571D01*
X239032142Y-173650000D01*
X238960714Y-173721428D01*
X240960714Y-174578571D02*
X240960714Y-173792857D01*
X240889285Y-173650000D01*
X240746428Y-173578571D01*
X240460714Y-173578571D01*
X240317857Y-173650000D01*
X240960714Y-174507142D02*
X240817857Y-174578571D01*
X240460714Y-174578571D01*
X240317857Y-174507142D01*
X240246428Y-174364285D01*
X240246428Y-174221428D01*
X240317857Y-174078571D01*
X240460714Y-174007142D01*
X240817857Y-174007142D01*
X240960714Y-173935714D01*
X241675000Y-174578571D02*
X241675000Y-173578571D01*
X241675000Y-173721428D02*
X241746428Y-173650000D01*
X241889285Y-173578571D01*
X242103571Y-173578571D01*
X242246428Y-173650000D01*
X242317857Y-173792857D01*
X242317857Y-174578571D01*
X242317857Y-173792857D02*
X242389285Y-173650000D01*
X242532142Y-173578571D01*
X242746428Y-173578571D01*
X242889285Y-173650000D01*
X242960714Y-173792857D01*
X242960714Y-174578571D01*
X243603571Y-174507142D02*
X243746428Y-174578571D01*
X244032142Y-174578571D01*
X244175000Y-174507142D01*
X244246428Y-174364285D01*
X244246428Y-174292857D01*
X244175000Y-174150000D01*
X244032142Y-174078571D01*
X243817857Y-174078571D01*
X243675000Y-174007142D01*
X243603571Y-173864285D01*
X243603571Y-173792857D01*
X243675000Y-173650000D01*
X243817857Y-173578571D01*
X244032142Y-173578571D01*
X244175000Y-173650000D01*
X244675000Y-173578571D02*
X245246428Y-173578571D01*
X244889285Y-173078571D02*
X244889285Y-174364285D01*
X244960714Y-174507142D01*
X245103571Y-174578571D01*
X245246428Y-174578571D01*
X246317857Y-174507142D02*
X246175000Y-174578571D01*
X245889285Y-174578571D01*
X245746428Y-174507142D01*
X245675000Y-174364285D01*
X245675000Y-173792857D01*
X245746428Y-173650000D01*
X245889285Y-173578571D01*
X246175000Y-173578571D01*
X246317857Y-173650000D01*
X246389285Y-173792857D01*
X246389285Y-173935714D01*
X245675000Y-174078571D01*
X247032142Y-174578571D02*
X247032142Y-173578571D01*
X247032142Y-173864285D02*
X247103571Y-173721428D01*
X247175000Y-173650000D01*
X247317857Y-173578571D01*
X247460714Y-173578571D01*
X249746428Y-174578571D02*
X249746428Y-173792857D01*
X249675000Y-173650000D01*
X249532142Y-173578571D01*
X249246428Y-173578571D01*
X249103571Y-173650000D01*
X249746428Y-174507142D02*
X249603571Y-174578571D01*
X249246428Y-174578571D01*
X249103571Y-174507142D01*
X249032142Y-174364285D01*
X249032142Y-174221428D01*
X249103571Y-174078571D01*
X249246428Y-174007142D01*
X249603571Y-174007142D01*
X249746428Y-173935714D01*
X250460714Y-173578571D02*
X250460714Y-174578571D01*
X250460714Y-173721428D02*
X250532142Y-173650000D01*
X250675000Y-173578571D01*
X250889285Y-173578571D01*
X251032142Y-173650000D01*
X251103571Y-173792857D01*
X251103571Y-174578571D01*
X252460714Y-174578571D02*
X252460714Y-173078571D01*
X252460714Y-174507142D02*
X252317857Y-174578571D01*
X252032142Y-174578571D01*
X251889285Y-174507142D01*
X251817857Y-174435714D01*
X251746428Y-174292857D01*
X251746428Y-173864285D01*
X251817857Y-173721428D01*
X251889285Y-173650000D01*
X252032142Y-173578571D01*
X252317857Y-173578571D01*
X252460714Y-173650000D01*
X254103571Y-173578571D02*
X254675000Y-173578571D01*
X254317857Y-173078571D02*
X254317857Y-174364285D01*
X254389285Y-174507142D01*
X254532142Y-174578571D01*
X254675000Y-174578571D01*
X255175000Y-174578571D02*
X255175000Y-173078571D01*
X255817857Y-174578571D02*
X255817857Y-173792857D01*
X255746428Y-173650000D01*
X255603571Y-173578571D01*
X255389285Y-173578571D01*
X255246428Y-173650000D01*
X255175000Y-173721428D01*
X257103571Y-174507142D02*
X256960714Y-174578571D01*
X256675000Y-174578571D01*
X256532142Y-174507142D01*
X256460714Y-174364285D01*
X256460714Y-173792857D01*
X256532142Y-173650000D01*
X256675000Y-173578571D01*
X256960714Y-173578571D01*
X257103571Y-173650000D01*
X257175000Y-173792857D01*
X257175000Y-173935714D01*
X256460714Y-174078571D01*
X259603571Y-174578571D02*
X259603571Y-173078571D01*
X259603571Y-174507142D02*
X259460714Y-174578571D01*
X259175000Y-174578571D01*
X259032142Y-174507142D01*
X258960714Y-174435714D01*
X258889285Y-174292857D01*
X258889285Y-173864285D01*
X258960714Y-173721428D01*
X259032142Y-173650000D01*
X259175000Y-173578571D01*
X259460714Y-173578571D01*
X259603571Y-173650000D01*
X260960714Y-174507142D02*
X260817857Y-174578571D01*
X260532142Y-174578571D01*
X260389285Y-174507142D01*
X260317857Y-174435714D01*
X260246428Y-174292857D01*
X260246428Y-173864285D01*
X260317857Y-173721428D01*
X260389285Y-173650000D01*
X260532142Y-173578571D01*
X260817857Y-173578571D01*
X260960714Y-173650000D01*
X261817857Y-173721428D02*
X261675000Y-173650000D01*
X261603571Y-173578571D01*
X261532142Y-173435714D01*
X261532142Y-173364285D01*
X261603571Y-173221428D01*
X261675000Y-173150000D01*
X261817857Y-173078571D01*
X262103571Y-173078571D01*
X262246428Y-173150000D01*
X262317857Y-173221428D01*
X262389285Y-173364285D01*
X262389285Y-173435714D01*
X262317857Y-173578571D01*
X262246428Y-173650000D01*
X262103571Y-173721428D01*
X261817857Y-173721428D01*
X261675000Y-173792857D01*
X261603571Y-173864285D01*
X261532142Y-174007142D01*
X261532142Y-174292857D01*
X261603571Y-174435714D01*
X261675000Y-174507142D01*
X261817857Y-174578571D01*
X262103571Y-174578571D01*
X262246428Y-174507142D01*
X262317857Y-174435714D01*
X262389285Y-174292857D01*
X262389285Y-174007142D01*
X262317857Y-173864285D01*
X262246428Y-173792857D01*
X262103571Y-173721428D01*
X263317857Y-173078571D02*
X263460714Y-173078571D01*
X263603571Y-173150000D01*
X263675000Y-173221428D01*
X263746428Y-173364285D01*
X263817857Y-173650000D01*
X263817857Y-174007142D01*
X263746428Y-174292857D01*
X263675000Y-174435714D01*
X263603571Y-174507142D01*
X263460714Y-174578571D01*
X263317857Y-174578571D01*
X263175000Y-174507142D01*
X263103571Y-174435714D01*
X263032142Y-174292857D01*
X262960714Y-174007142D01*
X262960714Y-173650000D01*
X263032142Y-173364285D01*
X263103571Y-173221428D01*
X263175000Y-173150000D01*
X263317857Y-173078571D01*
X265246428Y-174578571D02*
X264389285Y-174578571D01*
X264817857Y-174578571D02*
X264817857Y-173078571D01*
X264675000Y-173292857D01*
X264532142Y-173435714D01*
X264389285Y-173507142D01*
X267032142Y-174578571D02*
X267032142Y-173078571D01*
X267032142Y-173650000D02*
X267175000Y-173578571D01*
X267460714Y-173578571D01*
X267603571Y-173650000D01*
X267675000Y-173721428D01*
X267746428Y-173864285D01*
X267746428Y-174292857D01*
X267675000Y-174435714D01*
X267603571Y-174507142D01*
X267460714Y-174578571D01*
X267175000Y-174578571D01*
X267032142Y-174507142D01*
X269032142Y-174578571D02*
X269032142Y-173792857D01*
X268960714Y-173650000D01*
X268817857Y-173578571D01*
X268532142Y-173578571D01*
X268389285Y-173650000D01*
X269032142Y-174507142D02*
X268889285Y-174578571D01*
X268532142Y-174578571D01*
X268389285Y-174507142D01*
X268317857Y-174364285D01*
X268317857Y-174221428D01*
X268389285Y-174078571D01*
X268532142Y-174007142D01*
X268889285Y-174007142D01*
X269032142Y-173935714D01*
X270389285Y-174578571D02*
X270389285Y-173078571D01*
X270389285Y-174507142D02*
X270246428Y-174578571D01*
X269960714Y-174578571D01*
X269817857Y-174507142D01*
X269746428Y-174435714D01*
X269675000Y-174292857D01*
X269675000Y-173864285D01*
X269746428Y-173721428D01*
X269817857Y-173650000D01*
X269960714Y-173578571D01*
X270246428Y-173578571D01*
X270389285Y-173650000D01*
X271746428Y-173578571D02*
X271746428Y-174792857D01*
X271675000Y-174935714D01*
X271603571Y-175007142D01*
X271460714Y-175078571D01*
X271246428Y-175078571D01*
X271103571Y-175007142D01*
X271746428Y-174507142D02*
X271603571Y-174578571D01*
X271317857Y-174578571D01*
X271175000Y-174507142D01*
X271103571Y-174435714D01*
X271032142Y-174292857D01*
X271032142Y-173864285D01*
X271103571Y-173721428D01*
X271175000Y-173650000D01*
X271317857Y-173578571D01*
X271603571Y-173578571D01*
X271746428Y-173650000D01*
X273032142Y-174507142D02*
X272889285Y-174578571D01*
X272603571Y-174578571D01*
X272460714Y-174507142D01*
X272389285Y-174364285D01*
X272389285Y-173792857D01*
X272460714Y-173650000D01*
X272603571Y-173578571D01*
X272889285Y-173578571D01*
X273032142Y-173650000D01*
X273103571Y-173792857D01*
X273103571Y-173935714D01*
X272389285Y-174078571D01*
X274675000Y-173578571D02*
X275246428Y-173578571D01*
X274889285Y-173078571D02*
X274889285Y-174364285D01*
X274960714Y-174507142D01*
X275103571Y-174578571D01*
X275246428Y-174578571D01*
X276317857Y-174507142D02*
X276175000Y-174578571D01*
X275889285Y-174578571D01*
X275746428Y-174507142D01*
X275675000Y-174364285D01*
X275675000Y-173792857D01*
X275746428Y-173650000D01*
X275889285Y-173578571D01*
X276175000Y-173578571D01*
X276317857Y-173650000D01*
X276389285Y-173792857D01*
X276389285Y-173935714D01*
X275675000Y-174078571D01*
X277675000Y-174578571D02*
X277675000Y-173792857D01*
X277603571Y-173650000D01*
X277460714Y-173578571D01*
X277175000Y-173578571D01*
X277032142Y-173650000D01*
X277675000Y-174507142D02*
X277532142Y-174578571D01*
X277175000Y-174578571D01*
X277032142Y-174507142D01*
X276960714Y-174364285D01*
X276960714Y-174221428D01*
X277032142Y-174078571D01*
X277175000Y-174007142D01*
X277532142Y-174007142D01*
X277675000Y-173935714D01*
X278389285Y-174578571D02*
X278389285Y-173578571D01*
X278389285Y-173721428D02*
X278460714Y-173650000D01*
X278603571Y-173578571D01*
X278817857Y-173578571D01*
X278960714Y-173650000D01*
X279032142Y-173792857D01*
X279032142Y-174578571D01*
X279032142Y-173792857D02*
X279103571Y-173650000D01*
X279246428Y-173578571D01*
X279460714Y-173578571D01*
X279603571Y-173650000D01*
X279675000Y-173792857D01*
X279675000Y-174578571D01*
D10*
D11*
X255600000Y-197400000D02*
X255600000Y-200400000D01*
D10*
D11*
X319600000Y-197400000D02*
X319600000Y-203900000D01*
X169945600Y-52843600D02*
X170235600Y-52523600D01*
X169355600Y-53373600D02*
X169945600Y-52843600D01*
X168785600Y-53783600D02*
X169355600Y-53373600D01*
X168105600Y-54153600D02*
X168785600Y-53783600D01*
X167605600Y-54573600D02*
X168105600Y-54153600D01*
X167135600Y-55063600D02*
X167605600Y-54573600D01*
X166635600Y-55683600D02*
X167135600Y-55063600D01*
X166125600Y-56283600D02*
X166635600Y-55683600D01*
X165815600Y-56653600D02*
X166125600Y-56283600D01*
X166055600Y-57093600D02*
X165815600Y-56653600D01*
X166235600Y-57473600D02*
X166055600Y-57093600D01*
X166505600Y-58113600D02*
X166235600Y-57473600D01*
X166665600Y-58813600D02*
X166505600Y-58113600D01*
X166735600Y-59233600D02*
X166665600Y-58813600D01*
X166745600Y-59873600D02*
X166735600Y-59233600D01*
X166725600Y-60133600D02*
X166745600Y-59873600D01*
X166705600Y-60273600D02*
X166725600Y-60133600D01*
X166855600Y-60393600D02*
X166705600Y-60273600D01*
X167235600Y-60653600D02*
X166855600Y-60393600D01*
X167785600Y-61103600D02*
X167235600Y-60653600D01*
X169165600Y-62113600D02*
X167785600Y-61103600D01*
X170225600Y-62933600D02*
X169165600Y-62113600D01*
X171255600Y-63713600D02*
X170225600Y-62933600D01*
X173195600Y-65323600D02*
X171255600Y-63713600D01*
X174375600Y-66263600D02*
X173195600Y-65323600D01*
X176025600Y-67053600D02*
X174375600Y-66263600D01*
X177715600Y-67393600D02*
X176025600Y-67053600D01*
X179595600Y-67683600D02*
X177715600Y-67393600D01*
X181605600Y-67803600D02*
X179595600Y-67683600D01*
X184075600Y-67833600D02*
X181605600Y-67803600D01*
X185865600Y-67873600D02*
X184075600Y-67833600D01*
X187365600Y-68173600D02*
X185865600Y-67873600D01*
X188725600Y-68663600D02*
X187365600Y-68173600D01*
X190135600Y-69393600D02*
X188725600Y-68663600D01*
X191215600Y-70273600D02*
X190135600Y-69393600D01*
X192515600Y-71713600D02*
X191215600Y-70273600D01*
X193495600Y-73333600D02*
X192515600Y-71713600D01*
X194015600Y-74673600D02*
X193495600Y-73333600D01*
X194355600Y-76443600D02*
X194015600Y-74673600D01*
X194435600Y-78923600D02*
X194355600Y-76443600D01*
X194385600Y-160083600D02*
X194435600Y-78923600D01*
X194305600Y-161353600D02*
X194385600Y-160083600D01*
X194045600Y-162743600D02*
X194305600Y-161353600D01*
X193445600Y-164463600D02*
X194045600Y-162743600D01*
X192795600Y-165843600D02*
X193445600Y-164463600D01*
X191975600Y-167063600D02*
X192795600Y-165843600D01*
X190985600Y-168293600D02*
X191975600Y-167063600D01*
X189975600Y-169273600D02*
X190985600Y-168293600D01*
X188585600Y-170283600D02*
X189975600Y-169273600D01*
X186935600Y-171183600D02*
X188585600Y-170283600D01*
X185015600Y-171873600D02*
X186935600Y-171183600D01*
X183225600Y-172243600D02*
X185015600Y-171873600D01*
X181825600Y-172323600D02*
X183225600Y-172243600D01*
X114295600Y-172343600D02*
X181825600Y-172323600D01*
X112995600Y-172213600D02*
X114295600Y-172343600D01*
X111325600Y-171873600D02*
X112995600Y-172213600D01*
X109665600Y-171243600D02*
X111325600Y-171873600D01*
X108115600Y-170483600D02*
X109665600Y-171243600D01*
X106505600Y-169323600D02*
X108115600Y-170483600D01*
X105205600Y-168063600D02*
X106505600Y-169323600D01*
X104165600Y-166713600D02*
X105205600Y-168063600D01*
X103395600Y-165473600D02*
X104165600Y-166713600D01*
X102805600Y-164173600D02*
X103395600Y-165473600D01*
X102315600Y-162643600D02*
X102805600Y-164173600D01*
X102035600Y-161193600D02*
X102315600Y-162643600D01*
X101955600Y-160243600D02*
X102035600Y-161193600D01*
X101935600Y-76903600D02*
X101955600Y-160243600D01*
X102135600Y-75503600D02*
X101935600Y-76903600D01*
X102415600Y-74403600D02*
X102135600Y-75503600D01*
X102745600Y-73603600D02*
X102415600Y-74403600D01*
X103195600Y-72663600D02*
X102745600Y-73603600D01*
X103675600Y-71923600D02*
X103195600Y-72663600D01*
X104305600Y-71123600D02*
X103675600Y-71923600D01*
X104865600Y-70523600D02*
X104305600Y-71123600D01*
X105635600Y-69873600D02*
X104865600Y-70523600D01*
X106615600Y-69193600D02*
X105635600Y-69873600D01*
X107465600Y-68743600D02*
X106615600Y-69193600D01*
X108555600Y-68303600D02*
X107465600Y-68743600D01*
X109585600Y-68053600D02*
X108555600Y-68303600D01*
X110565600Y-67883600D02*
X109585600Y-68053600D01*
X111285600Y-67843600D02*
X110565600Y-67883600D01*
X112445600Y-67833600D02*
X111285600Y-67843600D01*
X113435600Y-67733600D02*
X112445600Y-67833600D01*
X114325600Y-67633600D02*
X113435600Y-67733600D01*
X115095600Y-67413600D02*
X114325600Y-67633600D01*
X115775600Y-67213600D02*
X115095600Y-67413600D01*
X116325600Y-66953600D02*
X115775600Y-67213600D01*
X117185600Y-66393600D02*
X116325600Y-66953600D01*
X118095600Y-65623600D02*
X117185600Y-66393600D01*
X119295600Y-64453600D02*
X118095600Y-65623600D01*
X120065600Y-63833600D02*
X119295600Y-64453600D01*
X120935600Y-63153600D02*
X120065600Y-63833600D01*
X121555600Y-62713600D02*
X120935600Y-63153600D01*
X122665600Y-61983600D02*
X121555600Y-62713600D01*
X123775600Y-61363600D02*
X122665600Y-61983600D01*
X124095600Y-61193600D02*
X123775600Y-61363600D01*
X123875600Y-60633600D02*
X124095600Y-61193600D01*
X123725600Y-60193600D02*
X123875600Y-60633600D01*
X123565600Y-59503600D02*
X123725600Y-60193600D01*
X123465600Y-58873600D02*
X123565600Y-59503600D01*
X123435600Y-58423600D02*
X123465600Y-58873600D01*
X123475600Y-57633600D02*
X123435600Y-58423600D01*
X123565600Y-57053600D02*
X123475600Y-57633600D01*
X123725600Y-56413600D02*
X123565600Y-57053600D01*
X123975600Y-55833600D02*
X123725600Y-56413600D01*
X125135600Y-52763600D02*
X123975600Y-55833600D01*
X125975600Y-50933600D02*
X125135600Y-52763600D01*
X128055600Y-46533600D02*
X125975600Y-50933600D01*
X131535600Y-38293600D02*
X128055600Y-46533600D01*
X134935600Y-30243600D02*
X131535600Y-38293600D01*
X135935600Y-28313600D02*
X134935600Y-30243600D01*
X137425600Y-25673600D02*
X135935600Y-28313600D01*
X138185600Y-24613600D02*
X137425600Y-25673600D01*
X138735600Y-23983600D02*
X138185600Y-24613600D01*
X139225600Y-23583600D02*
X138735600Y-23983600D01*
X139745600Y-23323600D02*
X139225600Y-23583600D01*
X140415600Y-23093600D02*
X139745600Y-23323600D01*
X141565600Y-22653600D02*
X140415600Y-23093600D01*
X142875600Y-22163600D02*
X141565600Y-22653600D01*
X144325600Y-21743600D02*
X142875600Y-22163600D01*
X145805600Y-21423600D02*
X144325600Y-21743600D01*
X147325600Y-21403600D02*
X145805600Y-21423600D01*
X148695600Y-21393600D02*
X147325600Y-21403600D01*
X149405600Y-21493600D02*
X148695600Y-21393600D01*
X150525600Y-21793600D02*
X149405600Y-21493600D01*
X151845600Y-22213600D02*
X150525600Y-21793600D01*
X153185600Y-22723600D02*
X151845600Y-22213600D01*
X154365600Y-23253600D02*
X153185600Y-22723600D01*
X156235600Y-24183600D02*
X154365600Y-23253600D01*
X157695600Y-24903600D02*
X156235600Y-24183600D01*
X158725600Y-25413600D02*
X157695600Y-24903600D01*
X159635600Y-25963600D02*
X158725600Y-25413600D01*
X160295600Y-26533600D02*
X159635600Y-25963600D01*
X161165600Y-27493600D02*
X160295600Y-26533600D01*
X162835600Y-29693600D02*
X161165600Y-27493600D01*
X165515600Y-33793600D02*
X162835600Y-29693600D01*
X166475600Y-35483600D02*
X165515600Y-33793600D01*
X167635600Y-37843600D02*
X166475600Y-35483600D01*
X169865600Y-42103600D02*
X167635600Y-37843600D01*
X170335600Y-43043600D02*
X169865600Y-42103600D01*
X170765600Y-43863600D02*
X170335600Y-43043600D01*
X171095600Y-44633600D02*
X170765600Y-43863600D01*
X171375600Y-45343600D02*
X171095600Y-44633600D01*
X171545600Y-45843600D02*
X171375600Y-45343600D01*
X171685600Y-46483600D02*
X171545600Y-45843600D01*
X171755600Y-47023600D02*
X171685600Y-46483600D01*
X171805600Y-47563600D02*
X171755600Y-47023600D01*
X171835600Y-48003600D02*
X171805600Y-47563600D01*
X171835600Y-48403600D02*
X171835600Y-48003600D01*
X171805600Y-48763600D02*
X171835600Y-48403600D01*
X171755600Y-49243600D02*
X171805600Y-48763600D01*
X171655600Y-49783600D02*
X171755600Y-49243600D01*
X171545600Y-50233600D02*
X171655600Y-49783600D01*
X171395600Y-50643600D02*
X171545600Y-50233600D01*
X171225600Y-51053600D02*
X171395600Y-50643600D01*
X171075600Y-51333600D02*
X171225600Y-51053600D01*
X170845600Y-51713600D02*
X171075600Y-51333600D01*
X170615600Y-52033600D02*
X170845600Y-51713600D01*
X170445600Y-52263600D02*
X170615600Y-52033600D01*
X170235600Y-52523600D02*
X170445600Y-52263600D01*
X109185600Y-73593600D02*
G75*
G03X109185600Y-73593600I-1500000J0D01*
G01*
X190975600Y-73593600D02*
G75*
G03X190975600Y-73593600I-1500000J0D01*
G01*
X187955600Y-165813600D02*
G75*
G03X187955600Y-165813600I-1500000J0D01*
G01*
X111455600Y-165813600D02*
G75*
G03X111455600Y-165813600I-1500000J0D01*
G01*
M02*
