G04 #@! TF.GenerationSoftware,KiCad,Pcbnew,(5.1.0)-1*
G04 #@! TF.CreationDate,2019-06-02T04:00:07-06:00*
G04 #@! TF.ProjectId,hcrn,6863726e-2e6b-4696-9361-645f70636258,0.1*
G04 #@! TF.SameCoordinates,Original*
G04 #@! TF.FileFunction,Paste,Top*
G04 #@! TF.FilePolarity,Positive*
%FSLAX46Y46*%
G04 Gerber Fmt 4.6, Leading zero omitted, Abs format (unit mm)*
G04 Created by KiCad (PCBNEW (5.1.0)-1) date 2019-06-02 04:00:07*
%MOMM*%
%LPD*%
G04 APERTURE LIST*
%ADD10R,1.550000X1.300000*%
%ADD11C,0.100000*%
%ADD12C,0.875000*%
G04 APERTURE END LIST*
D10*
X133535000Y-100620000D03*
X141485000Y-100620000D03*
X133535000Y-105120000D03*
X141485000Y-105120000D03*
D11*
G36*
X159977691Y-91336053D02*
G01*
X159998926Y-91339203D01*
X160019750Y-91344419D01*
X160039962Y-91351651D01*
X160059368Y-91360830D01*
X160077781Y-91371866D01*
X160095024Y-91384654D01*
X160110930Y-91399070D01*
X160125346Y-91414976D01*
X160138134Y-91432219D01*
X160149170Y-91450632D01*
X160158349Y-91470038D01*
X160165581Y-91490250D01*
X160170797Y-91511074D01*
X160173947Y-91532309D01*
X160175000Y-91553750D01*
X160175000Y-91991250D01*
X160173947Y-92012691D01*
X160170797Y-92033926D01*
X160165581Y-92054750D01*
X160158349Y-92074962D01*
X160149170Y-92094368D01*
X160138134Y-92112781D01*
X160125346Y-92130024D01*
X160110930Y-92145930D01*
X160095024Y-92160346D01*
X160077781Y-92173134D01*
X160059368Y-92184170D01*
X160039962Y-92193349D01*
X160019750Y-92200581D01*
X159998926Y-92205797D01*
X159977691Y-92208947D01*
X159956250Y-92210000D01*
X159443750Y-92210000D01*
X159422309Y-92208947D01*
X159401074Y-92205797D01*
X159380250Y-92200581D01*
X159360038Y-92193349D01*
X159340632Y-92184170D01*
X159322219Y-92173134D01*
X159304976Y-92160346D01*
X159289070Y-92145930D01*
X159274654Y-92130024D01*
X159261866Y-92112781D01*
X159250830Y-92094368D01*
X159241651Y-92074962D01*
X159234419Y-92054750D01*
X159229203Y-92033926D01*
X159226053Y-92012691D01*
X159225000Y-91991250D01*
X159225000Y-91553750D01*
X159226053Y-91532309D01*
X159229203Y-91511074D01*
X159234419Y-91490250D01*
X159241651Y-91470038D01*
X159250830Y-91450632D01*
X159261866Y-91432219D01*
X159274654Y-91414976D01*
X159289070Y-91399070D01*
X159304976Y-91384654D01*
X159322219Y-91371866D01*
X159340632Y-91360830D01*
X159360038Y-91351651D01*
X159380250Y-91344419D01*
X159401074Y-91339203D01*
X159422309Y-91336053D01*
X159443750Y-91335000D01*
X159956250Y-91335000D01*
X159977691Y-91336053D01*
X159977691Y-91336053D01*
G37*
D12*
X159700000Y-91772500D03*
D11*
G36*
X159977691Y-92911053D02*
G01*
X159998926Y-92914203D01*
X160019750Y-92919419D01*
X160039962Y-92926651D01*
X160059368Y-92935830D01*
X160077781Y-92946866D01*
X160095024Y-92959654D01*
X160110930Y-92974070D01*
X160125346Y-92989976D01*
X160138134Y-93007219D01*
X160149170Y-93025632D01*
X160158349Y-93045038D01*
X160165581Y-93065250D01*
X160170797Y-93086074D01*
X160173947Y-93107309D01*
X160175000Y-93128750D01*
X160175000Y-93566250D01*
X160173947Y-93587691D01*
X160170797Y-93608926D01*
X160165581Y-93629750D01*
X160158349Y-93649962D01*
X160149170Y-93669368D01*
X160138134Y-93687781D01*
X160125346Y-93705024D01*
X160110930Y-93720930D01*
X160095024Y-93735346D01*
X160077781Y-93748134D01*
X160059368Y-93759170D01*
X160039962Y-93768349D01*
X160019750Y-93775581D01*
X159998926Y-93780797D01*
X159977691Y-93783947D01*
X159956250Y-93785000D01*
X159443750Y-93785000D01*
X159422309Y-93783947D01*
X159401074Y-93780797D01*
X159380250Y-93775581D01*
X159360038Y-93768349D01*
X159340632Y-93759170D01*
X159322219Y-93748134D01*
X159304976Y-93735346D01*
X159289070Y-93720930D01*
X159274654Y-93705024D01*
X159261866Y-93687781D01*
X159250830Y-93669368D01*
X159241651Y-93649962D01*
X159234419Y-93629750D01*
X159229203Y-93608926D01*
X159226053Y-93587691D01*
X159225000Y-93566250D01*
X159225000Y-93128750D01*
X159226053Y-93107309D01*
X159229203Y-93086074D01*
X159234419Y-93065250D01*
X159241651Y-93045038D01*
X159250830Y-93025632D01*
X159261866Y-93007219D01*
X159274654Y-92989976D01*
X159289070Y-92974070D01*
X159304976Y-92959654D01*
X159322219Y-92946866D01*
X159340632Y-92935830D01*
X159360038Y-92926651D01*
X159380250Y-92919419D01*
X159401074Y-92914203D01*
X159422309Y-92911053D01*
X159443750Y-92910000D01*
X159956250Y-92910000D01*
X159977691Y-92911053D01*
X159977691Y-92911053D01*
G37*
D12*
X159700000Y-93347500D03*
D11*
G36*
X157557691Y-74836053D02*
G01*
X157578926Y-74839203D01*
X157599750Y-74844419D01*
X157619962Y-74851651D01*
X157639368Y-74860830D01*
X157657781Y-74871866D01*
X157675024Y-74884654D01*
X157690930Y-74899070D01*
X157705346Y-74914976D01*
X157718134Y-74932219D01*
X157729170Y-74950632D01*
X157738349Y-74970038D01*
X157745581Y-74990250D01*
X157750797Y-75011074D01*
X157753947Y-75032309D01*
X157755000Y-75053750D01*
X157755000Y-75566250D01*
X157753947Y-75587691D01*
X157750797Y-75608926D01*
X157745581Y-75629750D01*
X157738349Y-75649962D01*
X157729170Y-75669368D01*
X157718134Y-75687781D01*
X157705346Y-75705024D01*
X157690930Y-75720930D01*
X157675024Y-75735346D01*
X157657781Y-75748134D01*
X157639368Y-75759170D01*
X157619962Y-75768349D01*
X157599750Y-75775581D01*
X157578926Y-75780797D01*
X157557691Y-75783947D01*
X157536250Y-75785000D01*
X157098750Y-75785000D01*
X157077309Y-75783947D01*
X157056074Y-75780797D01*
X157035250Y-75775581D01*
X157015038Y-75768349D01*
X156995632Y-75759170D01*
X156977219Y-75748134D01*
X156959976Y-75735346D01*
X156944070Y-75720930D01*
X156929654Y-75705024D01*
X156916866Y-75687781D01*
X156905830Y-75669368D01*
X156896651Y-75649962D01*
X156889419Y-75629750D01*
X156884203Y-75608926D01*
X156881053Y-75587691D01*
X156880000Y-75566250D01*
X156880000Y-75053750D01*
X156881053Y-75032309D01*
X156884203Y-75011074D01*
X156889419Y-74990250D01*
X156896651Y-74970038D01*
X156905830Y-74950632D01*
X156916866Y-74932219D01*
X156929654Y-74914976D01*
X156944070Y-74899070D01*
X156959976Y-74884654D01*
X156977219Y-74871866D01*
X156995632Y-74860830D01*
X157015038Y-74851651D01*
X157035250Y-74844419D01*
X157056074Y-74839203D01*
X157077309Y-74836053D01*
X157098750Y-74835000D01*
X157536250Y-74835000D01*
X157557691Y-74836053D01*
X157557691Y-74836053D01*
G37*
D12*
X157317500Y-75310000D03*
D11*
G36*
X155982691Y-74836053D02*
G01*
X156003926Y-74839203D01*
X156024750Y-74844419D01*
X156044962Y-74851651D01*
X156064368Y-74860830D01*
X156082781Y-74871866D01*
X156100024Y-74884654D01*
X156115930Y-74899070D01*
X156130346Y-74914976D01*
X156143134Y-74932219D01*
X156154170Y-74950632D01*
X156163349Y-74970038D01*
X156170581Y-74990250D01*
X156175797Y-75011074D01*
X156178947Y-75032309D01*
X156180000Y-75053750D01*
X156180000Y-75566250D01*
X156178947Y-75587691D01*
X156175797Y-75608926D01*
X156170581Y-75629750D01*
X156163349Y-75649962D01*
X156154170Y-75669368D01*
X156143134Y-75687781D01*
X156130346Y-75705024D01*
X156115930Y-75720930D01*
X156100024Y-75735346D01*
X156082781Y-75748134D01*
X156064368Y-75759170D01*
X156044962Y-75768349D01*
X156024750Y-75775581D01*
X156003926Y-75780797D01*
X155982691Y-75783947D01*
X155961250Y-75785000D01*
X155523750Y-75785000D01*
X155502309Y-75783947D01*
X155481074Y-75780797D01*
X155460250Y-75775581D01*
X155440038Y-75768349D01*
X155420632Y-75759170D01*
X155402219Y-75748134D01*
X155384976Y-75735346D01*
X155369070Y-75720930D01*
X155354654Y-75705024D01*
X155341866Y-75687781D01*
X155330830Y-75669368D01*
X155321651Y-75649962D01*
X155314419Y-75629750D01*
X155309203Y-75608926D01*
X155306053Y-75587691D01*
X155305000Y-75566250D01*
X155305000Y-75053750D01*
X155306053Y-75032309D01*
X155309203Y-75011074D01*
X155314419Y-74990250D01*
X155321651Y-74970038D01*
X155330830Y-74950632D01*
X155341866Y-74932219D01*
X155354654Y-74914976D01*
X155369070Y-74899070D01*
X155384976Y-74884654D01*
X155402219Y-74871866D01*
X155420632Y-74860830D01*
X155440038Y-74851651D01*
X155460250Y-74844419D01*
X155481074Y-74839203D01*
X155502309Y-74836053D01*
X155523750Y-74835000D01*
X155961250Y-74835000D01*
X155982691Y-74836053D01*
X155982691Y-74836053D01*
G37*
D12*
X155742500Y-75310000D03*
D11*
G36*
X155982691Y-77142303D02*
G01*
X156003926Y-77145453D01*
X156024750Y-77150669D01*
X156044962Y-77157901D01*
X156064368Y-77167080D01*
X156082781Y-77178116D01*
X156100024Y-77190904D01*
X156115930Y-77205320D01*
X156130346Y-77221226D01*
X156143134Y-77238469D01*
X156154170Y-77256882D01*
X156163349Y-77276288D01*
X156170581Y-77296500D01*
X156175797Y-77317324D01*
X156178947Y-77338559D01*
X156180000Y-77360000D01*
X156180000Y-77872500D01*
X156178947Y-77893941D01*
X156175797Y-77915176D01*
X156170581Y-77936000D01*
X156163349Y-77956212D01*
X156154170Y-77975618D01*
X156143134Y-77994031D01*
X156130346Y-78011274D01*
X156115930Y-78027180D01*
X156100024Y-78041596D01*
X156082781Y-78054384D01*
X156064368Y-78065420D01*
X156044962Y-78074599D01*
X156024750Y-78081831D01*
X156003926Y-78087047D01*
X155982691Y-78090197D01*
X155961250Y-78091250D01*
X155523750Y-78091250D01*
X155502309Y-78090197D01*
X155481074Y-78087047D01*
X155460250Y-78081831D01*
X155440038Y-78074599D01*
X155420632Y-78065420D01*
X155402219Y-78054384D01*
X155384976Y-78041596D01*
X155369070Y-78027180D01*
X155354654Y-78011274D01*
X155341866Y-77994031D01*
X155330830Y-77975618D01*
X155321651Y-77956212D01*
X155314419Y-77936000D01*
X155309203Y-77915176D01*
X155306053Y-77893941D01*
X155305000Y-77872500D01*
X155305000Y-77360000D01*
X155306053Y-77338559D01*
X155309203Y-77317324D01*
X155314419Y-77296500D01*
X155321651Y-77276288D01*
X155330830Y-77256882D01*
X155341866Y-77238469D01*
X155354654Y-77221226D01*
X155369070Y-77205320D01*
X155384976Y-77190904D01*
X155402219Y-77178116D01*
X155420632Y-77167080D01*
X155440038Y-77157901D01*
X155460250Y-77150669D01*
X155481074Y-77145453D01*
X155502309Y-77142303D01*
X155523750Y-77141250D01*
X155961250Y-77141250D01*
X155982691Y-77142303D01*
X155982691Y-77142303D01*
G37*
D12*
X155742500Y-77616250D03*
D11*
G36*
X157557691Y-77142303D02*
G01*
X157578926Y-77145453D01*
X157599750Y-77150669D01*
X157619962Y-77157901D01*
X157639368Y-77167080D01*
X157657781Y-77178116D01*
X157675024Y-77190904D01*
X157690930Y-77205320D01*
X157705346Y-77221226D01*
X157718134Y-77238469D01*
X157729170Y-77256882D01*
X157738349Y-77276288D01*
X157745581Y-77296500D01*
X157750797Y-77317324D01*
X157753947Y-77338559D01*
X157755000Y-77360000D01*
X157755000Y-77872500D01*
X157753947Y-77893941D01*
X157750797Y-77915176D01*
X157745581Y-77936000D01*
X157738349Y-77956212D01*
X157729170Y-77975618D01*
X157718134Y-77994031D01*
X157705346Y-78011274D01*
X157690930Y-78027180D01*
X157675024Y-78041596D01*
X157657781Y-78054384D01*
X157639368Y-78065420D01*
X157619962Y-78074599D01*
X157599750Y-78081831D01*
X157578926Y-78087047D01*
X157557691Y-78090197D01*
X157536250Y-78091250D01*
X157098750Y-78091250D01*
X157077309Y-78090197D01*
X157056074Y-78087047D01*
X157035250Y-78081831D01*
X157015038Y-78074599D01*
X156995632Y-78065420D01*
X156977219Y-78054384D01*
X156959976Y-78041596D01*
X156944070Y-78027180D01*
X156929654Y-78011274D01*
X156916866Y-77994031D01*
X156905830Y-77975618D01*
X156896651Y-77956212D01*
X156889419Y-77936000D01*
X156884203Y-77915176D01*
X156881053Y-77893941D01*
X156880000Y-77872500D01*
X156880000Y-77360000D01*
X156881053Y-77338559D01*
X156884203Y-77317324D01*
X156889419Y-77296500D01*
X156896651Y-77276288D01*
X156905830Y-77256882D01*
X156916866Y-77238469D01*
X156929654Y-77221226D01*
X156944070Y-77205320D01*
X156959976Y-77190904D01*
X156977219Y-77178116D01*
X156995632Y-77167080D01*
X157015038Y-77157901D01*
X157035250Y-77150669D01*
X157056074Y-77145453D01*
X157077309Y-77142303D01*
X157098750Y-77141250D01*
X157536250Y-77141250D01*
X157557691Y-77142303D01*
X157557691Y-77142303D01*
G37*
D12*
X157317500Y-77616250D03*
D11*
G36*
X155982691Y-79448553D02*
G01*
X156003926Y-79451703D01*
X156024750Y-79456919D01*
X156044962Y-79464151D01*
X156064368Y-79473330D01*
X156082781Y-79484366D01*
X156100024Y-79497154D01*
X156115930Y-79511570D01*
X156130346Y-79527476D01*
X156143134Y-79544719D01*
X156154170Y-79563132D01*
X156163349Y-79582538D01*
X156170581Y-79602750D01*
X156175797Y-79623574D01*
X156178947Y-79644809D01*
X156180000Y-79666250D01*
X156180000Y-80178750D01*
X156178947Y-80200191D01*
X156175797Y-80221426D01*
X156170581Y-80242250D01*
X156163349Y-80262462D01*
X156154170Y-80281868D01*
X156143134Y-80300281D01*
X156130346Y-80317524D01*
X156115930Y-80333430D01*
X156100024Y-80347846D01*
X156082781Y-80360634D01*
X156064368Y-80371670D01*
X156044962Y-80380849D01*
X156024750Y-80388081D01*
X156003926Y-80393297D01*
X155982691Y-80396447D01*
X155961250Y-80397500D01*
X155523750Y-80397500D01*
X155502309Y-80396447D01*
X155481074Y-80393297D01*
X155460250Y-80388081D01*
X155440038Y-80380849D01*
X155420632Y-80371670D01*
X155402219Y-80360634D01*
X155384976Y-80347846D01*
X155369070Y-80333430D01*
X155354654Y-80317524D01*
X155341866Y-80300281D01*
X155330830Y-80281868D01*
X155321651Y-80262462D01*
X155314419Y-80242250D01*
X155309203Y-80221426D01*
X155306053Y-80200191D01*
X155305000Y-80178750D01*
X155305000Y-79666250D01*
X155306053Y-79644809D01*
X155309203Y-79623574D01*
X155314419Y-79602750D01*
X155321651Y-79582538D01*
X155330830Y-79563132D01*
X155341866Y-79544719D01*
X155354654Y-79527476D01*
X155369070Y-79511570D01*
X155384976Y-79497154D01*
X155402219Y-79484366D01*
X155420632Y-79473330D01*
X155440038Y-79464151D01*
X155460250Y-79456919D01*
X155481074Y-79451703D01*
X155502309Y-79448553D01*
X155523750Y-79447500D01*
X155961250Y-79447500D01*
X155982691Y-79448553D01*
X155982691Y-79448553D01*
G37*
D12*
X155742500Y-79922500D03*
D11*
G36*
X157557691Y-79448553D02*
G01*
X157578926Y-79451703D01*
X157599750Y-79456919D01*
X157619962Y-79464151D01*
X157639368Y-79473330D01*
X157657781Y-79484366D01*
X157675024Y-79497154D01*
X157690930Y-79511570D01*
X157705346Y-79527476D01*
X157718134Y-79544719D01*
X157729170Y-79563132D01*
X157738349Y-79582538D01*
X157745581Y-79602750D01*
X157750797Y-79623574D01*
X157753947Y-79644809D01*
X157755000Y-79666250D01*
X157755000Y-80178750D01*
X157753947Y-80200191D01*
X157750797Y-80221426D01*
X157745581Y-80242250D01*
X157738349Y-80262462D01*
X157729170Y-80281868D01*
X157718134Y-80300281D01*
X157705346Y-80317524D01*
X157690930Y-80333430D01*
X157675024Y-80347846D01*
X157657781Y-80360634D01*
X157639368Y-80371670D01*
X157619962Y-80380849D01*
X157599750Y-80388081D01*
X157578926Y-80393297D01*
X157557691Y-80396447D01*
X157536250Y-80397500D01*
X157098750Y-80397500D01*
X157077309Y-80396447D01*
X157056074Y-80393297D01*
X157035250Y-80388081D01*
X157015038Y-80380849D01*
X156995632Y-80371670D01*
X156977219Y-80360634D01*
X156959976Y-80347846D01*
X156944070Y-80333430D01*
X156929654Y-80317524D01*
X156916866Y-80300281D01*
X156905830Y-80281868D01*
X156896651Y-80262462D01*
X156889419Y-80242250D01*
X156884203Y-80221426D01*
X156881053Y-80200191D01*
X156880000Y-80178750D01*
X156880000Y-79666250D01*
X156881053Y-79644809D01*
X156884203Y-79623574D01*
X156889419Y-79602750D01*
X156896651Y-79582538D01*
X156905830Y-79563132D01*
X156916866Y-79544719D01*
X156929654Y-79527476D01*
X156944070Y-79511570D01*
X156959976Y-79497154D01*
X156977219Y-79484366D01*
X156995632Y-79473330D01*
X157015038Y-79464151D01*
X157035250Y-79456919D01*
X157056074Y-79451703D01*
X157077309Y-79448553D01*
X157098750Y-79447500D01*
X157536250Y-79447500D01*
X157557691Y-79448553D01*
X157557691Y-79448553D01*
G37*
D12*
X157317500Y-79922500D03*
D11*
G36*
X155982691Y-81754803D02*
G01*
X156003926Y-81757953D01*
X156024750Y-81763169D01*
X156044962Y-81770401D01*
X156064368Y-81779580D01*
X156082781Y-81790616D01*
X156100024Y-81803404D01*
X156115930Y-81817820D01*
X156130346Y-81833726D01*
X156143134Y-81850969D01*
X156154170Y-81869382D01*
X156163349Y-81888788D01*
X156170581Y-81909000D01*
X156175797Y-81929824D01*
X156178947Y-81951059D01*
X156180000Y-81972500D01*
X156180000Y-82485000D01*
X156178947Y-82506441D01*
X156175797Y-82527676D01*
X156170581Y-82548500D01*
X156163349Y-82568712D01*
X156154170Y-82588118D01*
X156143134Y-82606531D01*
X156130346Y-82623774D01*
X156115930Y-82639680D01*
X156100024Y-82654096D01*
X156082781Y-82666884D01*
X156064368Y-82677920D01*
X156044962Y-82687099D01*
X156024750Y-82694331D01*
X156003926Y-82699547D01*
X155982691Y-82702697D01*
X155961250Y-82703750D01*
X155523750Y-82703750D01*
X155502309Y-82702697D01*
X155481074Y-82699547D01*
X155460250Y-82694331D01*
X155440038Y-82687099D01*
X155420632Y-82677920D01*
X155402219Y-82666884D01*
X155384976Y-82654096D01*
X155369070Y-82639680D01*
X155354654Y-82623774D01*
X155341866Y-82606531D01*
X155330830Y-82588118D01*
X155321651Y-82568712D01*
X155314419Y-82548500D01*
X155309203Y-82527676D01*
X155306053Y-82506441D01*
X155305000Y-82485000D01*
X155305000Y-81972500D01*
X155306053Y-81951059D01*
X155309203Y-81929824D01*
X155314419Y-81909000D01*
X155321651Y-81888788D01*
X155330830Y-81869382D01*
X155341866Y-81850969D01*
X155354654Y-81833726D01*
X155369070Y-81817820D01*
X155384976Y-81803404D01*
X155402219Y-81790616D01*
X155420632Y-81779580D01*
X155440038Y-81770401D01*
X155460250Y-81763169D01*
X155481074Y-81757953D01*
X155502309Y-81754803D01*
X155523750Y-81753750D01*
X155961250Y-81753750D01*
X155982691Y-81754803D01*
X155982691Y-81754803D01*
G37*
D12*
X155742500Y-82228750D03*
D11*
G36*
X157557691Y-81754803D02*
G01*
X157578926Y-81757953D01*
X157599750Y-81763169D01*
X157619962Y-81770401D01*
X157639368Y-81779580D01*
X157657781Y-81790616D01*
X157675024Y-81803404D01*
X157690930Y-81817820D01*
X157705346Y-81833726D01*
X157718134Y-81850969D01*
X157729170Y-81869382D01*
X157738349Y-81888788D01*
X157745581Y-81909000D01*
X157750797Y-81929824D01*
X157753947Y-81951059D01*
X157755000Y-81972500D01*
X157755000Y-82485000D01*
X157753947Y-82506441D01*
X157750797Y-82527676D01*
X157745581Y-82548500D01*
X157738349Y-82568712D01*
X157729170Y-82588118D01*
X157718134Y-82606531D01*
X157705346Y-82623774D01*
X157690930Y-82639680D01*
X157675024Y-82654096D01*
X157657781Y-82666884D01*
X157639368Y-82677920D01*
X157619962Y-82687099D01*
X157599750Y-82694331D01*
X157578926Y-82699547D01*
X157557691Y-82702697D01*
X157536250Y-82703750D01*
X157098750Y-82703750D01*
X157077309Y-82702697D01*
X157056074Y-82699547D01*
X157035250Y-82694331D01*
X157015038Y-82687099D01*
X156995632Y-82677920D01*
X156977219Y-82666884D01*
X156959976Y-82654096D01*
X156944070Y-82639680D01*
X156929654Y-82623774D01*
X156916866Y-82606531D01*
X156905830Y-82588118D01*
X156896651Y-82568712D01*
X156889419Y-82548500D01*
X156884203Y-82527676D01*
X156881053Y-82506441D01*
X156880000Y-82485000D01*
X156880000Y-81972500D01*
X156881053Y-81951059D01*
X156884203Y-81929824D01*
X156889419Y-81909000D01*
X156896651Y-81888788D01*
X156905830Y-81869382D01*
X156916866Y-81850969D01*
X156929654Y-81833726D01*
X156944070Y-81817820D01*
X156959976Y-81803404D01*
X156977219Y-81790616D01*
X156995632Y-81779580D01*
X157015038Y-81770401D01*
X157035250Y-81763169D01*
X157056074Y-81757953D01*
X157077309Y-81754803D01*
X157098750Y-81753750D01*
X157536250Y-81753750D01*
X157557691Y-81754803D01*
X157557691Y-81754803D01*
G37*
D12*
X157317500Y-82228750D03*
D11*
G36*
X157557691Y-84061053D02*
G01*
X157578926Y-84064203D01*
X157599750Y-84069419D01*
X157619962Y-84076651D01*
X157639368Y-84085830D01*
X157657781Y-84096866D01*
X157675024Y-84109654D01*
X157690930Y-84124070D01*
X157705346Y-84139976D01*
X157718134Y-84157219D01*
X157729170Y-84175632D01*
X157738349Y-84195038D01*
X157745581Y-84215250D01*
X157750797Y-84236074D01*
X157753947Y-84257309D01*
X157755000Y-84278750D01*
X157755000Y-84791250D01*
X157753947Y-84812691D01*
X157750797Y-84833926D01*
X157745581Y-84854750D01*
X157738349Y-84874962D01*
X157729170Y-84894368D01*
X157718134Y-84912781D01*
X157705346Y-84930024D01*
X157690930Y-84945930D01*
X157675024Y-84960346D01*
X157657781Y-84973134D01*
X157639368Y-84984170D01*
X157619962Y-84993349D01*
X157599750Y-85000581D01*
X157578926Y-85005797D01*
X157557691Y-85008947D01*
X157536250Y-85010000D01*
X157098750Y-85010000D01*
X157077309Y-85008947D01*
X157056074Y-85005797D01*
X157035250Y-85000581D01*
X157015038Y-84993349D01*
X156995632Y-84984170D01*
X156977219Y-84973134D01*
X156959976Y-84960346D01*
X156944070Y-84945930D01*
X156929654Y-84930024D01*
X156916866Y-84912781D01*
X156905830Y-84894368D01*
X156896651Y-84874962D01*
X156889419Y-84854750D01*
X156884203Y-84833926D01*
X156881053Y-84812691D01*
X156880000Y-84791250D01*
X156880000Y-84278750D01*
X156881053Y-84257309D01*
X156884203Y-84236074D01*
X156889419Y-84215250D01*
X156896651Y-84195038D01*
X156905830Y-84175632D01*
X156916866Y-84157219D01*
X156929654Y-84139976D01*
X156944070Y-84124070D01*
X156959976Y-84109654D01*
X156977219Y-84096866D01*
X156995632Y-84085830D01*
X157015038Y-84076651D01*
X157035250Y-84069419D01*
X157056074Y-84064203D01*
X157077309Y-84061053D01*
X157098750Y-84060000D01*
X157536250Y-84060000D01*
X157557691Y-84061053D01*
X157557691Y-84061053D01*
G37*
D12*
X157317500Y-84535000D03*
D11*
G36*
X155982691Y-84061053D02*
G01*
X156003926Y-84064203D01*
X156024750Y-84069419D01*
X156044962Y-84076651D01*
X156064368Y-84085830D01*
X156082781Y-84096866D01*
X156100024Y-84109654D01*
X156115930Y-84124070D01*
X156130346Y-84139976D01*
X156143134Y-84157219D01*
X156154170Y-84175632D01*
X156163349Y-84195038D01*
X156170581Y-84215250D01*
X156175797Y-84236074D01*
X156178947Y-84257309D01*
X156180000Y-84278750D01*
X156180000Y-84791250D01*
X156178947Y-84812691D01*
X156175797Y-84833926D01*
X156170581Y-84854750D01*
X156163349Y-84874962D01*
X156154170Y-84894368D01*
X156143134Y-84912781D01*
X156130346Y-84930024D01*
X156115930Y-84945930D01*
X156100024Y-84960346D01*
X156082781Y-84973134D01*
X156064368Y-84984170D01*
X156044962Y-84993349D01*
X156024750Y-85000581D01*
X156003926Y-85005797D01*
X155982691Y-85008947D01*
X155961250Y-85010000D01*
X155523750Y-85010000D01*
X155502309Y-85008947D01*
X155481074Y-85005797D01*
X155460250Y-85000581D01*
X155440038Y-84993349D01*
X155420632Y-84984170D01*
X155402219Y-84973134D01*
X155384976Y-84960346D01*
X155369070Y-84945930D01*
X155354654Y-84930024D01*
X155341866Y-84912781D01*
X155330830Y-84894368D01*
X155321651Y-84874962D01*
X155314419Y-84854750D01*
X155309203Y-84833926D01*
X155306053Y-84812691D01*
X155305000Y-84791250D01*
X155305000Y-84278750D01*
X155306053Y-84257309D01*
X155309203Y-84236074D01*
X155314419Y-84215250D01*
X155321651Y-84195038D01*
X155330830Y-84175632D01*
X155341866Y-84157219D01*
X155354654Y-84139976D01*
X155369070Y-84124070D01*
X155384976Y-84109654D01*
X155402219Y-84096866D01*
X155420632Y-84085830D01*
X155440038Y-84076651D01*
X155460250Y-84069419D01*
X155481074Y-84064203D01*
X155502309Y-84061053D01*
X155523750Y-84060000D01*
X155961250Y-84060000D01*
X155982691Y-84061053D01*
X155982691Y-84061053D01*
G37*
D12*
X155742500Y-84535000D03*
D11*
G36*
X145957691Y-101406053D02*
G01*
X145978926Y-101409203D01*
X145999750Y-101414419D01*
X146019962Y-101421651D01*
X146039368Y-101430830D01*
X146057781Y-101441866D01*
X146075024Y-101454654D01*
X146090930Y-101469070D01*
X146105346Y-101484976D01*
X146118134Y-101502219D01*
X146129170Y-101520632D01*
X146138349Y-101540038D01*
X146145581Y-101560250D01*
X146150797Y-101581074D01*
X146153947Y-101602309D01*
X146155000Y-101623750D01*
X146155000Y-102061250D01*
X146153947Y-102082691D01*
X146150797Y-102103926D01*
X146145581Y-102124750D01*
X146138349Y-102144962D01*
X146129170Y-102164368D01*
X146118134Y-102182781D01*
X146105346Y-102200024D01*
X146090930Y-102215930D01*
X146075024Y-102230346D01*
X146057781Y-102243134D01*
X146039368Y-102254170D01*
X146019962Y-102263349D01*
X145999750Y-102270581D01*
X145978926Y-102275797D01*
X145957691Y-102278947D01*
X145936250Y-102280000D01*
X145423750Y-102280000D01*
X145402309Y-102278947D01*
X145381074Y-102275797D01*
X145360250Y-102270581D01*
X145340038Y-102263349D01*
X145320632Y-102254170D01*
X145302219Y-102243134D01*
X145284976Y-102230346D01*
X145269070Y-102215930D01*
X145254654Y-102200024D01*
X145241866Y-102182781D01*
X145230830Y-102164368D01*
X145221651Y-102144962D01*
X145214419Y-102124750D01*
X145209203Y-102103926D01*
X145206053Y-102082691D01*
X145205000Y-102061250D01*
X145205000Y-101623750D01*
X145206053Y-101602309D01*
X145209203Y-101581074D01*
X145214419Y-101560250D01*
X145221651Y-101540038D01*
X145230830Y-101520632D01*
X145241866Y-101502219D01*
X145254654Y-101484976D01*
X145269070Y-101469070D01*
X145284976Y-101454654D01*
X145302219Y-101441866D01*
X145320632Y-101430830D01*
X145340038Y-101421651D01*
X145360250Y-101414419D01*
X145381074Y-101409203D01*
X145402309Y-101406053D01*
X145423750Y-101405000D01*
X145936250Y-101405000D01*
X145957691Y-101406053D01*
X145957691Y-101406053D01*
G37*
D12*
X145680000Y-101842500D03*
D11*
G36*
X145957691Y-102981053D02*
G01*
X145978926Y-102984203D01*
X145999750Y-102989419D01*
X146019962Y-102996651D01*
X146039368Y-103005830D01*
X146057781Y-103016866D01*
X146075024Y-103029654D01*
X146090930Y-103044070D01*
X146105346Y-103059976D01*
X146118134Y-103077219D01*
X146129170Y-103095632D01*
X146138349Y-103115038D01*
X146145581Y-103135250D01*
X146150797Y-103156074D01*
X146153947Y-103177309D01*
X146155000Y-103198750D01*
X146155000Y-103636250D01*
X146153947Y-103657691D01*
X146150797Y-103678926D01*
X146145581Y-103699750D01*
X146138349Y-103719962D01*
X146129170Y-103739368D01*
X146118134Y-103757781D01*
X146105346Y-103775024D01*
X146090930Y-103790930D01*
X146075024Y-103805346D01*
X146057781Y-103818134D01*
X146039368Y-103829170D01*
X146019962Y-103838349D01*
X145999750Y-103845581D01*
X145978926Y-103850797D01*
X145957691Y-103853947D01*
X145936250Y-103855000D01*
X145423750Y-103855000D01*
X145402309Y-103853947D01*
X145381074Y-103850797D01*
X145360250Y-103845581D01*
X145340038Y-103838349D01*
X145320632Y-103829170D01*
X145302219Y-103818134D01*
X145284976Y-103805346D01*
X145269070Y-103790930D01*
X145254654Y-103775024D01*
X145241866Y-103757781D01*
X145230830Y-103739368D01*
X145221651Y-103719962D01*
X145214419Y-103699750D01*
X145209203Y-103678926D01*
X145206053Y-103657691D01*
X145205000Y-103636250D01*
X145205000Y-103198750D01*
X145206053Y-103177309D01*
X145209203Y-103156074D01*
X145214419Y-103135250D01*
X145221651Y-103115038D01*
X145230830Y-103095632D01*
X145241866Y-103077219D01*
X145254654Y-103059976D01*
X145269070Y-103044070D01*
X145284976Y-103029654D01*
X145302219Y-103016866D01*
X145320632Y-103005830D01*
X145340038Y-102996651D01*
X145360250Y-102989419D01*
X145381074Y-102984203D01*
X145402309Y-102981053D01*
X145423750Y-102980000D01*
X145936250Y-102980000D01*
X145957691Y-102981053D01*
X145957691Y-102981053D01*
G37*
D12*
X145680000Y-103417500D03*
D11*
G36*
X157342691Y-53896053D02*
G01*
X157363926Y-53899203D01*
X157384750Y-53904419D01*
X157404962Y-53911651D01*
X157424368Y-53920830D01*
X157442781Y-53931866D01*
X157460024Y-53944654D01*
X157475930Y-53959070D01*
X157490346Y-53974976D01*
X157503134Y-53992219D01*
X157514170Y-54010632D01*
X157523349Y-54030038D01*
X157530581Y-54050250D01*
X157535797Y-54071074D01*
X157538947Y-54092309D01*
X157540000Y-54113750D01*
X157540000Y-54626250D01*
X157538947Y-54647691D01*
X157535797Y-54668926D01*
X157530581Y-54689750D01*
X157523349Y-54709962D01*
X157514170Y-54729368D01*
X157503134Y-54747781D01*
X157490346Y-54765024D01*
X157475930Y-54780930D01*
X157460024Y-54795346D01*
X157442781Y-54808134D01*
X157424368Y-54819170D01*
X157404962Y-54828349D01*
X157384750Y-54835581D01*
X157363926Y-54840797D01*
X157342691Y-54843947D01*
X157321250Y-54845000D01*
X156883750Y-54845000D01*
X156862309Y-54843947D01*
X156841074Y-54840797D01*
X156820250Y-54835581D01*
X156800038Y-54828349D01*
X156780632Y-54819170D01*
X156762219Y-54808134D01*
X156744976Y-54795346D01*
X156729070Y-54780930D01*
X156714654Y-54765024D01*
X156701866Y-54747781D01*
X156690830Y-54729368D01*
X156681651Y-54709962D01*
X156674419Y-54689750D01*
X156669203Y-54668926D01*
X156666053Y-54647691D01*
X156665000Y-54626250D01*
X156665000Y-54113750D01*
X156666053Y-54092309D01*
X156669203Y-54071074D01*
X156674419Y-54050250D01*
X156681651Y-54030038D01*
X156690830Y-54010632D01*
X156701866Y-53992219D01*
X156714654Y-53974976D01*
X156729070Y-53959070D01*
X156744976Y-53944654D01*
X156762219Y-53931866D01*
X156780632Y-53920830D01*
X156800038Y-53911651D01*
X156820250Y-53904419D01*
X156841074Y-53899203D01*
X156862309Y-53896053D01*
X156883750Y-53895000D01*
X157321250Y-53895000D01*
X157342691Y-53896053D01*
X157342691Y-53896053D01*
G37*
D12*
X157102500Y-54370000D03*
D11*
G36*
X158917691Y-53896053D02*
G01*
X158938926Y-53899203D01*
X158959750Y-53904419D01*
X158979962Y-53911651D01*
X158999368Y-53920830D01*
X159017781Y-53931866D01*
X159035024Y-53944654D01*
X159050930Y-53959070D01*
X159065346Y-53974976D01*
X159078134Y-53992219D01*
X159089170Y-54010632D01*
X159098349Y-54030038D01*
X159105581Y-54050250D01*
X159110797Y-54071074D01*
X159113947Y-54092309D01*
X159115000Y-54113750D01*
X159115000Y-54626250D01*
X159113947Y-54647691D01*
X159110797Y-54668926D01*
X159105581Y-54689750D01*
X159098349Y-54709962D01*
X159089170Y-54729368D01*
X159078134Y-54747781D01*
X159065346Y-54765024D01*
X159050930Y-54780930D01*
X159035024Y-54795346D01*
X159017781Y-54808134D01*
X158999368Y-54819170D01*
X158979962Y-54828349D01*
X158959750Y-54835581D01*
X158938926Y-54840797D01*
X158917691Y-54843947D01*
X158896250Y-54845000D01*
X158458750Y-54845000D01*
X158437309Y-54843947D01*
X158416074Y-54840797D01*
X158395250Y-54835581D01*
X158375038Y-54828349D01*
X158355632Y-54819170D01*
X158337219Y-54808134D01*
X158319976Y-54795346D01*
X158304070Y-54780930D01*
X158289654Y-54765024D01*
X158276866Y-54747781D01*
X158265830Y-54729368D01*
X158256651Y-54709962D01*
X158249419Y-54689750D01*
X158244203Y-54668926D01*
X158241053Y-54647691D01*
X158240000Y-54626250D01*
X158240000Y-54113750D01*
X158241053Y-54092309D01*
X158244203Y-54071074D01*
X158249419Y-54050250D01*
X158256651Y-54030038D01*
X158265830Y-54010632D01*
X158276866Y-53992219D01*
X158289654Y-53974976D01*
X158304070Y-53959070D01*
X158319976Y-53944654D01*
X158337219Y-53931866D01*
X158355632Y-53920830D01*
X158375038Y-53911651D01*
X158395250Y-53904419D01*
X158416074Y-53899203D01*
X158437309Y-53896053D01*
X158458750Y-53895000D01*
X158896250Y-53895000D01*
X158917691Y-53896053D01*
X158917691Y-53896053D01*
G37*
D12*
X158677500Y-54370000D03*
D11*
G36*
X165827691Y-107161053D02*
G01*
X165848926Y-107164203D01*
X165869750Y-107169419D01*
X165889962Y-107176651D01*
X165909368Y-107185830D01*
X165927781Y-107196866D01*
X165945024Y-107209654D01*
X165960930Y-107224070D01*
X165975346Y-107239976D01*
X165988134Y-107257219D01*
X165999170Y-107275632D01*
X166008349Y-107295038D01*
X166015581Y-107315250D01*
X166020797Y-107336074D01*
X166023947Y-107357309D01*
X166025000Y-107378750D01*
X166025000Y-107816250D01*
X166023947Y-107837691D01*
X166020797Y-107858926D01*
X166015581Y-107879750D01*
X166008349Y-107899962D01*
X165999170Y-107919368D01*
X165988134Y-107937781D01*
X165975346Y-107955024D01*
X165960930Y-107970930D01*
X165945024Y-107985346D01*
X165927781Y-107998134D01*
X165909368Y-108009170D01*
X165889962Y-108018349D01*
X165869750Y-108025581D01*
X165848926Y-108030797D01*
X165827691Y-108033947D01*
X165806250Y-108035000D01*
X165293750Y-108035000D01*
X165272309Y-108033947D01*
X165251074Y-108030797D01*
X165230250Y-108025581D01*
X165210038Y-108018349D01*
X165190632Y-108009170D01*
X165172219Y-107998134D01*
X165154976Y-107985346D01*
X165139070Y-107970930D01*
X165124654Y-107955024D01*
X165111866Y-107937781D01*
X165100830Y-107919368D01*
X165091651Y-107899962D01*
X165084419Y-107879750D01*
X165079203Y-107858926D01*
X165076053Y-107837691D01*
X165075000Y-107816250D01*
X165075000Y-107378750D01*
X165076053Y-107357309D01*
X165079203Y-107336074D01*
X165084419Y-107315250D01*
X165091651Y-107295038D01*
X165100830Y-107275632D01*
X165111866Y-107257219D01*
X165124654Y-107239976D01*
X165139070Y-107224070D01*
X165154976Y-107209654D01*
X165172219Y-107196866D01*
X165190632Y-107185830D01*
X165210038Y-107176651D01*
X165230250Y-107169419D01*
X165251074Y-107164203D01*
X165272309Y-107161053D01*
X165293750Y-107160000D01*
X165806250Y-107160000D01*
X165827691Y-107161053D01*
X165827691Y-107161053D01*
G37*
D12*
X165550000Y-107597500D03*
D11*
G36*
X165827691Y-105586053D02*
G01*
X165848926Y-105589203D01*
X165869750Y-105594419D01*
X165889962Y-105601651D01*
X165909368Y-105610830D01*
X165927781Y-105621866D01*
X165945024Y-105634654D01*
X165960930Y-105649070D01*
X165975346Y-105664976D01*
X165988134Y-105682219D01*
X165999170Y-105700632D01*
X166008349Y-105720038D01*
X166015581Y-105740250D01*
X166020797Y-105761074D01*
X166023947Y-105782309D01*
X166025000Y-105803750D01*
X166025000Y-106241250D01*
X166023947Y-106262691D01*
X166020797Y-106283926D01*
X166015581Y-106304750D01*
X166008349Y-106324962D01*
X165999170Y-106344368D01*
X165988134Y-106362781D01*
X165975346Y-106380024D01*
X165960930Y-106395930D01*
X165945024Y-106410346D01*
X165927781Y-106423134D01*
X165909368Y-106434170D01*
X165889962Y-106443349D01*
X165869750Y-106450581D01*
X165848926Y-106455797D01*
X165827691Y-106458947D01*
X165806250Y-106460000D01*
X165293750Y-106460000D01*
X165272309Y-106458947D01*
X165251074Y-106455797D01*
X165230250Y-106450581D01*
X165210038Y-106443349D01*
X165190632Y-106434170D01*
X165172219Y-106423134D01*
X165154976Y-106410346D01*
X165139070Y-106395930D01*
X165124654Y-106380024D01*
X165111866Y-106362781D01*
X165100830Y-106344368D01*
X165091651Y-106324962D01*
X165084419Y-106304750D01*
X165079203Y-106283926D01*
X165076053Y-106262691D01*
X165075000Y-106241250D01*
X165075000Y-105803750D01*
X165076053Y-105782309D01*
X165079203Y-105761074D01*
X165084419Y-105740250D01*
X165091651Y-105720038D01*
X165100830Y-105700632D01*
X165111866Y-105682219D01*
X165124654Y-105664976D01*
X165139070Y-105649070D01*
X165154976Y-105634654D01*
X165172219Y-105621866D01*
X165190632Y-105610830D01*
X165210038Y-105601651D01*
X165230250Y-105594419D01*
X165251074Y-105589203D01*
X165272309Y-105586053D01*
X165293750Y-105585000D01*
X165806250Y-105585000D01*
X165827691Y-105586053D01*
X165827691Y-105586053D01*
G37*
D12*
X165550000Y-106022500D03*
D11*
G36*
X165827691Y-110271053D02*
G01*
X165848926Y-110274203D01*
X165869750Y-110279419D01*
X165889962Y-110286651D01*
X165909368Y-110295830D01*
X165927781Y-110306866D01*
X165945024Y-110319654D01*
X165960930Y-110334070D01*
X165975346Y-110349976D01*
X165988134Y-110367219D01*
X165999170Y-110385632D01*
X166008349Y-110405038D01*
X166015581Y-110425250D01*
X166020797Y-110446074D01*
X166023947Y-110467309D01*
X166025000Y-110488750D01*
X166025000Y-110926250D01*
X166023947Y-110947691D01*
X166020797Y-110968926D01*
X166015581Y-110989750D01*
X166008349Y-111009962D01*
X165999170Y-111029368D01*
X165988134Y-111047781D01*
X165975346Y-111065024D01*
X165960930Y-111080930D01*
X165945024Y-111095346D01*
X165927781Y-111108134D01*
X165909368Y-111119170D01*
X165889962Y-111128349D01*
X165869750Y-111135581D01*
X165848926Y-111140797D01*
X165827691Y-111143947D01*
X165806250Y-111145000D01*
X165293750Y-111145000D01*
X165272309Y-111143947D01*
X165251074Y-111140797D01*
X165230250Y-111135581D01*
X165210038Y-111128349D01*
X165190632Y-111119170D01*
X165172219Y-111108134D01*
X165154976Y-111095346D01*
X165139070Y-111080930D01*
X165124654Y-111065024D01*
X165111866Y-111047781D01*
X165100830Y-111029368D01*
X165091651Y-111009962D01*
X165084419Y-110989750D01*
X165079203Y-110968926D01*
X165076053Y-110947691D01*
X165075000Y-110926250D01*
X165075000Y-110488750D01*
X165076053Y-110467309D01*
X165079203Y-110446074D01*
X165084419Y-110425250D01*
X165091651Y-110405038D01*
X165100830Y-110385632D01*
X165111866Y-110367219D01*
X165124654Y-110349976D01*
X165139070Y-110334070D01*
X165154976Y-110319654D01*
X165172219Y-110306866D01*
X165190632Y-110295830D01*
X165210038Y-110286651D01*
X165230250Y-110279419D01*
X165251074Y-110274203D01*
X165272309Y-110271053D01*
X165293750Y-110270000D01*
X165806250Y-110270000D01*
X165827691Y-110271053D01*
X165827691Y-110271053D01*
G37*
D12*
X165550000Y-110707500D03*
D11*
G36*
X165827691Y-108696053D02*
G01*
X165848926Y-108699203D01*
X165869750Y-108704419D01*
X165889962Y-108711651D01*
X165909368Y-108720830D01*
X165927781Y-108731866D01*
X165945024Y-108744654D01*
X165960930Y-108759070D01*
X165975346Y-108774976D01*
X165988134Y-108792219D01*
X165999170Y-108810632D01*
X166008349Y-108830038D01*
X166015581Y-108850250D01*
X166020797Y-108871074D01*
X166023947Y-108892309D01*
X166025000Y-108913750D01*
X166025000Y-109351250D01*
X166023947Y-109372691D01*
X166020797Y-109393926D01*
X166015581Y-109414750D01*
X166008349Y-109434962D01*
X165999170Y-109454368D01*
X165988134Y-109472781D01*
X165975346Y-109490024D01*
X165960930Y-109505930D01*
X165945024Y-109520346D01*
X165927781Y-109533134D01*
X165909368Y-109544170D01*
X165889962Y-109553349D01*
X165869750Y-109560581D01*
X165848926Y-109565797D01*
X165827691Y-109568947D01*
X165806250Y-109570000D01*
X165293750Y-109570000D01*
X165272309Y-109568947D01*
X165251074Y-109565797D01*
X165230250Y-109560581D01*
X165210038Y-109553349D01*
X165190632Y-109544170D01*
X165172219Y-109533134D01*
X165154976Y-109520346D01*
X165139070Y-109505930D01*
X165124654Y-109490024D01*
X165111866Y-109472781D01*
X165100830Y-109454368D01*
X165091651Y-109434962D01*
X165084419Y-109414750D01*
X165079203Y-109393926D01*
X165076053Y-109372691D01*
X165075000Y-109351250D01*
X165075000Y-108913750D01*
X165076053Y-108892309D01*
X165079203Y-108871074D01*
X165084419Y-108850250D01*
X165091651Y-108830038D01*
X165100830Y-108810632D01*
X165111866Y-108792219D01*
X165124654Y-108774976D01*
X165139070Y-108759070D01*
X165154976Y-108744654D01*
X165172219Y-108731866D01*
X165190632Y-108720830D01*
X165210038Y-108711651D01*
X165230250Y-108704419D01*
X165251074Y-108699203D01*
X165272309Y-108696053D01*
X165293750Y-108695000D01*
X165806250Y-108695000D01*
X165827691Y-108696053D01*
X165827691Y-108696053D01*
G37*
D12*
X165550000Y-109132500D03*
D11*
G36*
X166117691Y-122386053D02*
G01*
X166138926Y-122389203D01*
X166159750Y-122394419D01*
X166179962Y-122401651D01*
X166199368Y-122410830D01*
X166217781Y-122421866D01*
X166235024Y-122434654D01*
X166250930Y-122449070D01*
X166265346Y-122464976D01*
X166278134Y-122482219D01*
X166289170Y-122500632D01*
X166298349Y-122520038D01*
X166305581Y-122540250D01*
X166310797Y-122561074D01*
X166313947Y-122582309D01*
X166315000Y-122603750D01*
X166315000Y-123041250D01*
X166313947Y-123062691D01*
X166310797Y-123083926D01*
X166305581Y-123104750D01*
X166298349Y-123124962D01*
X166289170Y-123144368D01*
X166278134Y-123162781D01*
X166265346Y-123180024D01*
X166250930Y-123195930D01*
X166235024Y-123210346D01*
X166217781Y-123223134D01*
X166199368Y-123234170D01*
X166179962Y-123243349D01*
X166159750Y-123250581D01*
X166138926Y-123255797D01*
X166117691Y-123258947D01*
X166096250Y-123260000D01*
X165583750Y-123260000D01*
X165562309Y-123258947D01*
X165541074Y-123255797D01*
X165520250Y-123250581D01*
X165500038Y-123243349D01*
X165480632Y-123234170D01*
X165462219Y-123223134D01*
X165444976Y-123210346D01*
X165429070Y-123195930D01*
X165414654Y-123180024D01*
X165401866Y-123162781D01*
X165390830Y-123144368D01*
X165381651Y-123124962D01*
X165374419Y-123104750D01*
X165369203Y-123083926D01*
X165366053Y-123062691D01*
X165365000Y-123041250D01*
X165365000Y-122603750D01*
X165366053Y-122582309D01*
X165369203Y-122561074D01*
X165374419Y-122540250D01*
X165381651Y-122520038D01*
X165390830Y-122500632D01*
X165401866Y-122482219D01*
X165414654Y-122464976D01*
X165429070Y-122449070D01*
X165444976Y-122434654D01*
X165462219Y-122421866D01*
X165480632Y-122410830D01*
X165500038Y-122401651D01*
X165520250Y-122394419D01*
X165541074Y-122389203D01*
X165562309Y-122386053D01*
X165583750Y-122385000D01*
X166096250Y-122385000D01*
X166117691Y-122386053D01*
X166117691Y-122386053D01*
G37*
D12*
X165840000Y-122822500D03*
D11*
G36*
X166117691Y-123961053D02*
G01*
X166138926Y-123964203D01*
X166159750Y-123969419D01*
X166179962Y-123976651D01*
X166199368Y-123985830D01*
X166217781Y-123996866D01*
X166235024Y-124009654D01*
X166250930Y-124024070D01*
X166265346Y-124039976D01*
X166278134Y-124057219D01*
X166289170Y-124075632D01*
X166298349Y-124095038D01*
X166305581Y-124115250D01*
X166310797Y-124136074D01*
X166313947Y-124157309D01*
X166315000Y-124178750D01*
X166315000Y-124616250D01*
X166313947Y-124637691D01*
X166310797Y-124658926D01*
X166305581Y-124679750D01*
X166298349Y-124699962D01*
X166289170Y-124719368D01*
X166278134Y-124737781D01*
X166265346Y-124755024D01*
X166250930Y-124770930D01*
X166235024Y-124785346D01*
X166217781Y-124798134D01*
X166199368Y-124809170D01*
X166179962Y-124818349D01*
X166159750Y-124825581D01*
X166138926Y-124830797D01*
X166117691Y-124833947D01*
X166096250Y-124835000D01*
X165583750Y-124835000D01*
X165562309Y-124833947D01*
X165541074Y-124830797D01*
X165520250Y-124825581D01*
X165500038Y-124818349D01*
X165480632Y-124809170D01*
X165462219Y-124798134D01*
X165444976Y-124785346D01*
X165429070Y-124770930D01*
X165414654Y-124755024D01*
X165401866Y-124737781D01*
X165390830Y-124719368D01*
X165381651Y-124699962D01*
X165374419Y-124679750D01*
X165369203Y-124658926D01*
X165366053Y-124637691D01*
X165365000Y-124616250D01*
X165365000Y-124178750D01*
X165366053Y-124157309D01*
X165369203Y-124136074D01*
X165374419Y-124115250D01*
X165381651Y-124095038D01*
X165390830Y-124075632D01*
X165401866Y-124057219D01*
X165414654Y-124039976D01*
X165429070Y-124024070D01*
X165444976Y-124009654D01*
X165462219Y-123996866D01*
X165480632Y-123985830D01*
X165500038Y-123976651D01*
X165520250Y-123969419D01*
X165541074Y-123964203D01*
X165562309Y-123961053D01*
X165583750Y-123960000D01*
X166096250Y-123960000D01*
X166117691Y-123961053D01*
X166117691Y-123961053D01*
G37*
D12*
X165840000Y-124397500D03*
D11*
G36*
X164367691Y-151696053D02*
G01*
X164388926Y-151699203D01*
X164409750Y-151704419D01*
X164429962Y-151711651D01*
X164449368Y-151720830D01*
X164467781Y-151731866D01*
X164485024Y-151744654D01*
X164500930Y-151759070D01*
X164515346Y-151774976D01*
X164528134Y-151792219D01*
X164539170Y-151810632D01*
X164548349Y-151830038D01*
X164555581Y-151850250D01*
X164560797Y-151871074D01*
X164563947Y-151892309D01*
X164565000Y-151913750D01*
X164565000Y-152426250D01*
X164563947Y-152447691D01*
X164560797Y-152468926D01*
X164555581Y-152489750D01*
X164548349Y-152509962D01*
X164539170Y-152529368D01*
X164528134Y-152547781D01*
X164515346Y-152565024D01*
X164500930Y-152580930D01*
X164485024Y-152595346D01*
X164467781Y-152608134D01*
X164449368Y-152619170D01*
X164429962Y-152628349D01*
X164409750Y-152635581D01*
X164388926Y-152640797D01*
X164367691Y-152643947D01*
X164346250Y-152645000D01*
X163908750Y-152645000D01*
X163887309Y-152643947D01*
X163866074Y-152640797D01*
X163845250Y-152635581D01*
X163825038Y-152628349D01*
X163805632Y-152619170D01*
X163787219Y-152608134D01*
X163769976Y-152595346D01*
X163754070Y-152580930D01*
X163739654Y-152565024D01*
X163726866Y-152547781D01*
X163715830Y-152529368D01*
X163706651Y-152509962D01*
X163699419Y-152489750D01*
X163694203Y-152468926D01*
X163691053Y-152447691D01*
X163690000Y-152426250D01*
X163690000Y-151913750D01*
X163691053Y-151892309D01*
X163694203Y-151871074D01*
X163699419Y-151850250D01*
X163706651Y-151830038D01*
X163715830Y-151810632D01*
X163726866Y-151792219D01*
X163739654Y-151774976D01*
X163754070Y-151759070D01*
X163769976Y-151744654D01*
X163787219Y-151731866D01*
X163805632Y-151720830D01*
X163825038Y-151711651D01*
X163845250Y-151704419D01*
X163866074Y-151699203D01*
X163887309Y-151696053D01*
X163908750Y-151695000D01*
X164346250Y-151695000D01*
X164367691Y-151696053D01*
X164367691Y-151696053D01*
G37*
D12*
X164127500Y-152170000D03*
D11*
G36*
X162792691Y-151696053D02*
G01*
X162813926Y-151699203D01*
X162834750Y-151704419D01*
X162854962Y-151711651D01*
X162874368Y-151720830D01*
X162892781Y-151731866D01*
X162910024Y-151744654D01*
X162925930Y-151759070D01*
X162940346Y-151774976D01*
X162953134Y-151792219D01*
X162964170Y-151810632D01*
X162973349Y-151830038D01*
X162980581Y-151850250D01*
X162985797Y-151871074D01*
X162988947Y-151892309D01*
X162990000Y-151913750D01*
X162990000Y-152426250D01*
X162988947Y-152447691D01*
X162985797Y-152468926D01*
X162980581Y-152489750D01*
X162973349Y-152509962D01*
X162964170Y-152529368D01*
X162953134Y-152547781D01*
X162940346Y-152565024D01*
X162925930Y-152580930D01*
X162910024Y-152595346D01*
X162892781Y-152608134D01*
X162874368Y-152619170D01*
X162854962Y-152628349D01*
X162834750Y-152635581D01*
X162813926Y-152640797D01*
X162792691Y-152643947D01*
X162771250Y-152645000D01*
X162333750Y-152645000D01*
X162312309Y-152643947D01*
X162291074Y-152640797D01*
X162270250Y-152635581D01*
X162250038Y-152628349D01*
X162230632Y-152619170D01*
X162212219Y-152608134D01*
X162194976Y-152595346D01*
X162179070Y-152580930D01*
X162164654Y-152565024D01*
X162151866Y-152547781D01*
X162140830Y-152529368D01*
X162131651Y-152509962D01*
X162124419Y-152489750D01*
X162119203Y-152468926D01*
X162116053Y-152447691D01*
X162115000Y-152426250D01*
X162115000Y-151913750D01*
X162116053Y-151892309D01*
X162119203Y-151871074D01*
X162124419Y-151850250D01*
X162131651Y-151830038D01*
X162140830Y-151810632D01*
X162151866Y-151792219D01*
X162164654Y-151774976D01*
X162179070Y-151759070D01*
X162194976Y-151744654D01*
X162212219Y-151731866D01*
X162230632Y-151720830D01*
X162250038Y-151711651D01*
X162270250Y-151704419D01*
X162291074Y-151699203D01*
X162312309Y-151696053D01*
X162333750Y-151695000D01*
X162771250Y-151695000D01*
X162792691Y-151696053D01*
X162792691Y-151696053D01*
G37*
D12*
X162552500Y-152170000D03*
D11*
G36*
X162987691Y-135451053D02*
G01*
X163008926Y-135454203D01*
X163029750Y-135459419D01*
X163049962Y-135466651D01*
X163069368Y-135475830D01*
X163087781Y-135486866D01*
X163105024Y-135499654D01*
X163120930Y-135514070D01*
X163135346Y-135529976D01*
X163148134Y-135547219D01*
X163159170Y-135565632D01*
X163168349Y-135585038D01*
X163175581Y-135605250D01*
X163180797Y-135626074D01*
X163183947Y-135647309D01*
X163185000Y-135668750D01*
X163185000Y-136106250D01*
X163183947Y-136127691D01*
X163180797Y-136148926D01*
X163175581Y-136169750D01*
X163168349Y-136189962D01*
X163159170Y-136209368D01*
X163148134Y-136227781D01*
X163135346Y-136245024D01*
X163120930Y-136260930D01*
X163105024Y-136275346D01*
X163087781Y-136288134D01*
X163069368Y-136299170D01*
X163049962Y-136308349D01*
X163029750Y-136315581D01*
X163008926Y-136320797D01*
X162987691Y-136323947D01*
X162966250Y-136325000D01*
X162453750Y-136325000D01*
X162432309Y-136323947D01*
X162411074Y-136320797D01*
X162390250Y-136315581D01*
X162370038Y-136308349D01*
X162350632Y-136299170D01*
X162332219Y-136288134D01*
X162314976Y-136275346D01*
X162299070Y-136260930D01*
X162284654Y-136245024D01*
X162271866Y-136227781D01*
X162260830Y-136209368D01*
X162251651Y-136189962D01*
X162244419Y-136169750D01*
X162239203Y-136148926D01*
X162236053Y-136127691D01*
X162235000Y-136106250D01*
X162235000Y-135668750D01*
X162236053Y-135647309D01*
X162239203Y-135626074D01*
X162244419Y-135605250D01*
X162251651Y-135585038D01*
X162260830Y-135565632D01*
X162271866Y-135547219D01*
X162284654Y-135529976D01*
X162299070Y-135514070D01*
X162314976Y-135499654D01*
X162332219Y-135486866D01*
X162350632Y-135475830D01*
X162370038Y-135466651D01*
X162390250Y-135459419D01*
X162411074Y-135454203D01*
X162432309Y-135451053D01*
X162453750Y-135450000D01*
X162966250Y-135450000D01*
X162987691Y-135451053D01*
X162987691Y-135451053D01*
G37*
D12*
X162710000Y-135887500D03*
D11*
G36*
X162987691Y-133876053D02*
G01*
X163008926Y-133879203D01*
X163029750Y-133884419D01*
X163049962Y-133891651D01*
X163069368Y-133900830D01*
X163087781Y-133911866D01*
X163105024Y-133924654D01*
X163120930Y-133939070D01*
X163135346Y-133954976D01*
X163148134Y-133972219D01*
X163159170Y-133990632D01*
X163168349Y-134010038D01*
X163175581Y-134030250D01*
X163180797Y-134051074D01*
X163183947Y-134072309D01*
X163185000Y-134093750D01*
X163185000Y-134531250D01*
X163183947Y-134552691D01*
X163180797Y-134573926D01*
X163175581Y-134594750D01*
X163168349Y-134614962D01*
X163159170Y-134634368D01*
X163148134Y-134652781D01*
X163135346Y-134670024D01*
X163120930Y-134685930D01*
X163105024Y-134700346D01*
X163087781Y-134713134D01*
X163069368Y-134724170D01*
X163049962Y-134733349D01*
X163029750Y-134740581D01*
X163008926Y-134745797D01*
X162987691Y-134748947D01*
X162966250Y-134750000D01*
X162453750Y-134750000D01*
X162432309Y-134748947D01*
X162411074Y-134745797D01*
X162390250Y-134740581D01*
X162370038Y-134733349D01*
X162350632Y-134724170D01*
X162332219Y-134713134D01*
X162314976Y-134700346D01*
X162299070Y-134685930D01*
X162284654Y-134670024D01*
X162271866Y-134652781D01*
X162260830Y-134634368D01*
X162251651Y-134614962D01*
X162244419Y-134594750D01*
X162239203Y-134573926D01*
X162236053Y-134552691D01*
X162235000Y-134531250D01*
X162235000Y-134093750D01*
X162236053Y-134072309D01*
X162239203Y-134051074D01*
X162244419Y-134030250D01*
X162251651Y-134010038D01*
X162260830Y-133990632D01*
X162271866Y-133972219D01*
X162284654Y-133954976D01*
X162299070Y-133939070D01*
X162314976Y-133924654D01*
X162332219Y-133911866D01*
X162350632Y-133900830D01*
X162370038Y-133891651D01*
X162390250Y-133884419D01*
X162411074Y-133879203D01*
X162432309Y-133876053D01*
X162453750Y-133875000D01*
X162966250Y-133875000D01*
X162987691Y-133876053D01*
X162987691Y-133876053D01*
G37*
D12*
X162710000Y-134312500D03*
D11*
G36*
X161077691Y-133876053D02*
G01*
X161098926Y-133879203D01*
X161119750Y-133884419D01*
X161139962Y-133891651D01*
X161159368Y-133900830D01*
X161177781Y-133911866D01*
X161195024Y-133924654D01*
X161210930Y-133939070D01*
X161225346Y-133954976D01*
X161238134Y-133972219D01*
X161249170Y-133990632D01*
X161258349Y-134010038D01*
X161265581Y-134030250D01*
X161270797Y-134051074D01*
X161273947Y-134072309D01*
X161275000Y-134093750D01*
X161275000Y-134531250D01*
X161273947Y-134552691D01*
X161270797Y-134573926D01*
X161265581Y-134594750D01*
X161258349Y-134614962D01*
X161249170Y-134634368D01*
X161238134Y-134652781D01*
X161225346Y-134670024D01*
X161210930Y-134685930D01*
X161195024Y-134700346D01*
X161177781Y-134713134D01*
X161159368Y-134724170D01*
X161139962Y-134733349D01*
X161119750Y-134740581D01*
X161098926Y-134745797D01*
X161077691Y-134748947D01*
X161056250Y-134750000D01*
X160543750Y-134750000D01*
X160522309Y-134748947D01*
X160501074Y-134745797D01*
X160480250Y-134740581D01*
X160460038Y-134733349D01*
X160440632Y-134724170D01*
X160422219Y-134713134D01*
X160404976Y-134700346D01*
X160389070Y-134685930D01*
X160374654Y-134670024D01*
X160361866Y-134652781D01*
X160350830Y-134634368D01*
X160341651Y-134614962D01*
X160334419Y-134594750D01*
X160329203Y-134573926D01*
X160326053Y-134552691D01*
X160325000Y-134531250D01*
X160325000Y-134093750D01*
X160326053Y-134072309D01*
X160329203Y-134051074D01*
X160334419Y-134030250D01*
X160341651Y-134010038D01*
X160350830Y-133990632D01*
X160361866Y-133972219D01*
X160374654Y-133954976D01*
X160389070Y-133939070D01*
X160404976Y-133924654D01*
X160422219Y-133911866D01*
X160440632Y-133900830D01*
X160460038Y-133891651D01*
X160480250Y-133884419D01*
X160501074Y-133879203D01*
X160522309Y-133876053D01*
X160543750Y-133875000D01*
X161056250Y-133875000D01*
X161077691Y-133876053D01*
X161077691Y-133876053D01*
G37*
D12*
X160800000Y-134312500D03*
D11*
G36*
X161077691Y-135451053D02*
G01*
X161098926Y-135454203D01*
X161119750Y-135459419D01*
X161139962Y-135466651D01*
X161159368Y-135475830D01*
X161177781Y-135486866D01*
X161195024Y-135499654D01*
X161210930Y-135514070D01*
X161225346Y-135529976D01*
X161238134Y-135547219D01*
X161249170Y-135565632D01*
X161258349Y-135585038D01*
X161265581Y-135605250D01*
X161270797Y-135626074D01*
X161273947Y-135647309D01*
X161275000Y-135668750D01*
X161275000Y-136106250D01*
X161273947Y-136127691D01*
X161270797Y-136148926D01*
X161265581Y-136169750D01*
X161258349Y-136189962D01*
X161249170Y-136209368D01*
X161238134Y-136227781D01*
X161225346Y-136245024D01*
X161210930Y-136260930D01*
X161195024Y-136275346D01*
X161177781Y-136288134D01*
X161159368Y-136299170D01*
X161139962Y-136308349D01*
X161119750Y-136315581D01*
X161098926Y-136320797D01*
X161077691Y-136323947D01*
X161056250Y-136325000D01*
X160543750Y-136325000D01*
X160522309Y-136323947D01*
X160501074Y-136320797D01*
X160480250Y-136315581D01*
X160460038Y-136308349D01*
X160440632Y-136299170D01*
X160422219Y-136288134D01*
X160404976Y-136275346D01*
X160389070Y-136260930D01*
X160374654Y-136245024D01*
X160361866Y-136227781D01*
X160350830Y-136209368D01*
X160341651Y-136189962D01*
X160334419Y-136169750D01*
X160329203Y-136148926D01*
X160326053Y-136127691D01*
X160325000Y-136106250D01*
X160325000Y-135668750D01*
X160326053Y-135647309D01*
X160329203Y-135626074D01*
X160334419Y-135605250D01*
X160341651Y-135585038D01*
X160350830Y-135565632D01*
X160361866Y-135547219D01*
X160374654Y-135529976D01*
X160389070Y-135514070D01*
X160404976Y-135499654D01*
X160422219Y-135486866D01*
X160440632Y-135475830D01*
X160460038Y-135466651D01*
X160480250Y-135459419D01*
X160501074Y-135454203D01*
X160522309Y-135451053D01*
X160543750Y-135450000D01*
X161056250Y-135450000D01*
X161077691Y-135451053D01*
X161077691Y-135451053D01*
G37*
D12*
X160800000Y-135887500D03*
D11*
G36*
X188517691Y-105606053D02*
G01*
X188538926Y-105609203D01*
X188559750Y-105614419D01*
X188579962Y-105621651D01*
X188599368Y-105630830D01*
X188617781Y-105641866D01*
X188635024Y-105654654D01*
X188650930Y-105669070D01*
X188665346Y-105684976D01*
X188678134Y-105702219D01*
X188689170Y-105720632D01*
X188698349Y-105740038D01*
X188705581Y-105760250D01*
X188710797Y-105781074D01*
X188713947Y-105802309D01*
X188715000Y-105823750D01*
X188715000Y-106261250D01*
X188713947Y-106282691D01*
X188710797Y-106303926D01*
X188705581Y-106324750D01*
X188698349Y-106344962D01*
X188689170Y-106364368D01*
X188678134Y-106382781D01*
X188665346Y-106400024D01*
X188650930Y-106415930D01*
X188635024Y-106430346D01*
X188617781Y-106443134D01*
X188599368Y-106454170D01*
X188579962Y-106463349D01*
X188559750Y-106470581D01*
X188538926Y-106475797D01*
X188517691Y-106478947D01*
X188496250Y-106480000D01*
X187983750Y-106480000D01*
X187962309Y-106478947D01*
X187941074Y-106475797D01*
X187920250Y-106470581D01*
X187900038Y-106463349D01*
X187880632Y-106454170D01*
X187862219Y-106443134D01*
X187844976Y-106430346D01*
X187829070Y-106415930D01*
X187814654Y-106400024D01*
X187801866Y-106382781D01*
X187790830Y-106364368D01*
X187781651Y-106344962D01*
X187774419Y-106324750D01*
X187769203Y-106303926D01*
X187766053Y-106282691D01*
X187765000Y-106261250D01*
X187765000Y-105823750D01*
X187766053Y-105802309D01*
X187769203Y-105781074D01*
X187774419Y-105760250D01*
X187781651Y-105740038D01*
X187790830Y-105720632D01*
X187801866Y-105702219D01*
X187814654Y-105684976D01*
X187829070Y-105669070D01*
X187844976Y-105654654D01*
X187862219Y-105641866D01*
X187880632Y-105630830D01*
X187900038Y-105621651D01*
X187920250Y-105614419D01*
X187941074Y-105609203D01*
X187962309Y-105606053D01*
X187983750Y-105605000D01*
X188496250Y-105605000D01*
X188517691Y-105606053D01*
X188517691Y-105606053D01*
G37*
D12*
X188240000Y-106042500D03*
D11*
G36*
X188517691Y-107181053D02*
G01*
X188538926Y-107184203D01*
X188559750Y-107189419D01*
X188579962Y-107196651D01*
X188599368Y-107205830D01*
X188617781Y-107216866D01*
X188635024Y-107229654D01*
X188650930Y-107244070D01*
X188665346Y-107259976D01*
X188678134Y-107277219D01*
X188689170Y-107295632D01*
X188698349Y-107315038D01*
X188705581Y-107335250D01*
X188710797Y-107356074D01*
X188713947Y-107377309D01*
X188715000Y-107398750D01*
X188715000Y-107836250D01*
X188713947Y-107857691D01*
X188710797Y-107878926D01*
X188705581Y-107899750D01*
X188698349Y-107919962D01*
X188689170Y-107939368D01*
X188678134Y-107957781D01*
X188665346Y-107975024D01*
X188650930Y-107990930D01*
X188635024Y-108005346D01*
X188617781Y-108018134D01*
X188599368Y-108029170D01*
X188579962Y-108038349D01*
X188559750Y-108045581D01*
X188538926Y-108050797D01*
X188517691Y-108053947D01*
X188496250Y-108055000D01*
X187983750Y-108055000D01*
X187962309Y-108053947D01*
X187941074Y-108050797D01*
X187920250Y-108045581D01*
X187900038Y-108038349D01*
X187880632Y-108029170D01*
X187862219Y-108018134D01*
X187844976Y-108005346D01*
X187829070Y-107990930D01*
X187814654Y-107975024D01*
X187801866Y-107957781D01*
X187790830Y-107939368D01*
X187781651Y-107919962D01*
X187774419Y-107899750D01*
X187769203Y-107878926D01*
X187766053Y-107857691D01*
X187765000Y-107836250D01*
X187765000Y-107398750D01*
X187766053Y-107377309D01*
X187769203Y-107356074D01*
X187774419Y-107335250D01*
X187781651Y-107315038D01*
X187790830Y-107295632D01*
X187801866Y-107277219D01*
X187814654Y-107259976D01*
X187829070Y-107244070D01*
X187844976Y-107229654D01*
X187862219Y-107216866D01*
X187880632Y-107205830D01*
X187900038Y-107196651D01*
X187920250Y-107189419D01*
X187941074Y-107184203D01*
X187962309Y-107181053D01*
X187983750Y-107180000D01*
X188496250Y-107180000D01*
X188517691Y-107181053D01*
X188517691Y-107181053D01*
G37*
D12*
X188240000Y-107617500D03*
D11*
G36*
X188527691Y-110271053D02*
G01*
X188548926Y-110274203D01*
X188569750Y-110279419D01*
X188589962Y-110286651D01*
X188609368Y-110295830D01*
X188627781Y-110306866D01*
X188645024Y-110319654D01*
X188660930Y-110334070D01*
X188675346Y-110349976D01*
X188688134Y-110367219D01*
X188699170Y-110385632D01*
X188708349Y-110405038D01*
X188715581Y-110425250D01*
X188720797Y-110446074D01*
X188723947Y-110467309D01*
X188725000Y-110488750D01*
X188725000Y-110926250D01*
X188723947Y-110947691D01*
X188720797Y-110968926D01*
X188715581Y-110989750D01*
X188708349Y-111009962D01*
X188699170Y-111029368D01*
X188688134Y-111047781D01*
X188675346Y-111065024D01*
X188660930Y-111080930D01*
X188645024Y-111095346D01*
X188627781Y-111108134D01*
X188609368Y-111119170D01*
X188589962Y-111128349D01*
X188569750Y-111135581D01*
X188548926Y-111140797D01*
X188527691Y-111143947D01*
X188506250Y-111145000D01*
X187993750Y-111145000D01*
X187972309Y-111143947D01*
X187951074Y-111140797D01*
X187930250Y-111135581D01*
X187910038Y-111128349D01*
X187890632Y-111119170D01*
X187872219Y-111108134D01*
X187854976Y-111095346D01*
X187839070Y-111080930D01*
X187824654Y-111065024D01*
X187811866Y-111047781D01*
X187800830Y-111029368D01*
X187791651Y-111009962D01*
X187784419Y-110989750D01*
X187779203Y-110968926D01*
X187776053Y-110947691D01*
X187775000Y-110926250D01*
X187775000Y-110488750D01*
X187776053Y-110467309D01*
X187779203Y-110446074D01*
X187784419Y-110425250D01*
X187791651Y-110405038D01*
X187800830Y-110385632D01*
X187811866Y-110367219D01*
X187824654Y-110349976D01*
X187839070Y-110334070D01*
X187854976Y-110319654D01*
X187872219Y-110306866D01*
X187890632Y-110295830D01*
X187910038Y-110286651D01*
X187930250Y-110279419D01*
X187951074Y-110274203D01*
X187972309Y-110271053D01*
X187993750Y-110270000D01*
X188506250Y-110270000D01*
X188527691Y-110271053D01*
X188527691Y-110271053D01*
G37*
D12*
X188250000Y-110707500D03*
D11*
G36*
X188527691Y-108696053D02*
G01*
X188548926Y-108699203D01*
X188569750Y-108704419D01*
X188589962Y-108711651D01*
X188609368Y-108720830D01*
X188627781Y-108731866D01*
X188645024Y-108744654D01*
X188660930Y-108759070D01*
X188675346Y-108774976D01*
X188688134Y-108792219D01*
X188699170Y-108810632D01*
X188708349Y-108830038D01*
X188715581Y-108850250D01*
X188720797Y-108871074D01*
X188723947Y-108892309D01*
X188725000Y-108913750D01*
X188725000Y-109351250D01*
X188723947Y-109372691D01*
X188720797Y-109393926D01*
X188715581Y-109414750D01*
X188708349Y-109434962D01*
X188699170Y-109454368D01*
X188688134Y-109472781D01*
X188675346Y-109490024D01*
X188660930Y-109505930D01*
X188645024Y-109520346D01*
X188627781Y-109533134D01*
X188609368Y-109544170D01*
X188589962Y-109553349D01*
X188569750Y-109560581D01*
X188548926Y-109565797D01*
X188527691Y-109568947D01*
X188506250Y-109570000D01*
X187993750Y-109570000D01*
X187972309Y-109568947D01*
X187951074Y-109565797D01*
X187930250Y-109560581D01*
X187910038Y-109553349D01*
X187890632Y-109544170D01*
X187872219Y-109533134D01*
X187854976Y-109520346D01*
X187839070Y-109505930D01*
X187824654Y-109490024D01*
X187811866Y-109472781D01*
X187800830Y-109454368D01*
X187791651Y-109434962D01*
X187784419Y-109414750D01*
X187779203Y-109393926D01*
X187776053Y-109372691D01*
X187775000Y-109351250D01*
X187775000Y-108913750D01*
X187776053Y-108892309D01*
X187779203Y-108871074D01*
X187784419Y-108850250D01*
X187791651Y-108830038D01*
X187800830Y-108810632D01*
X187811866Y-108792219D01*
X187824654Y-108774976D01*
X187839070Y-108759070D01*
X187854976Y-108744654D01*
X187872219Y-108731866D01*
X187890632Y-108720830D01*
X187910038Y-108711651D01*
X187930250Y-108704419D01*
X187951074Y-108699203D01*
X187972309Y-108696053D01*
X187993750Y-108695000D01*
X188506250Y-108695000D01*
X188527691Y-108696053D01*
X188527691Y-108696053D01*
G37*
D12*
X188250000Y-109132500D03*
D11*
G36*
X188157691Y-122376053D02*
G01*
X188178926Y-122379203D01*
X188199750Y-122384419D01*
X188219962Y-122391651D01*
X188239368Y-122400830D01*
X188257781Y-122411866D01*
X188275024Y-122424654D01*
X188290930Y-122439070D01*
X188305346Y-122454976D01*
X188318134Y-122472219D01*
X188329170Y-122490632D01*
X188338349Y-122510038D01*
X188345581Y-122530250D01*
X188350797Y-122551074D01*
X188353947Y-122572309D01*
X188355000Y-122593750D01*
X188355000Y-123031250D01*
X188353947Y-123052691D01*
X188350797Y-123073926D01*
X188345581Y-123094750D01*
X188338349Y-123114962D01*
X188329170Y-123134368D01*
X188318134Y-123152781D01*
X188305346Y-123170024D01*
X188290930Y-123185930D01*
X188275024Y-123200346D01*
X188257781Y-123213134D01*
X188239368Y-123224170D01*
X188219962Y-123233349D01*
X188199750Y-123240581D01*
X188178926Y-123245797D01*
X188157691Y-123248947D01*
X188136250Y-123250000D01*
X187623750Y-123250000D01*
X187602309Y-123248947D01*
X187581074Y-123245797D01*
X187560250Y-123240581D01*
X187540038Y-123233349D01*
X187520632Y-123224170D01*
X187502219Y-123213134D01*
X187484976Y-123200346D01*
X187469070Y-123185930D01*
X187454654Y-123170024D01*
X187441866Y-123152781D01*
X187430830Y-123134368D01*
X187421651Y-123114962D01*
X187414419Y-123094750D01*
X187409203Y-123073926D01*
X187406053Y-123052691D01*
X187405000Y-123031250D01*
X187405000Y-122593750D01*
X187406053Y-122572309D01*
X187409203Y-122551074D01*
X187414419Y-122530250D01*
X187421651Y-122510038D01*
X187430830Y-122490632D01*
X187441866Y-122472219D01*
X187454654Y-122454976D01*
X187469070Y-122439070D01*
X187484976Y-122424654D01*
X187502219Y-122411866D01*
X187520632Y-122400830D01*
X187540038Y-122391651D01*
X187560250Y-122384419D01*
X187581074Y-122379203D01*
X187602309Y-122376053D01*
X187623750Y-122375000D01*
X188136250Y-122375000D01*
X188157691Y-122376053D01*
X188157691Y-122376053D01*
G37*
D12*
X187880000Y-122812500D03*
D11*
G36*
X188157691Y-123951053D02*
G01*
X188178926Y-123954203D01*
X188199750Y-123959419D01*
X188219962Y-123966651D01*
X188239368Y-123975830D01*
X188257781Y-123986866D01*
X188275024Y-123999654D01*
X188290930Y-124014070D01*
X188305346Y-124029976D01*
X188318134Y-124047219D01*
X188329170Y-124065632D01*
X188338349Y-124085038D01*
X188345581Y-124105250D01*
X188350797Y-124126074D01*
X188353947Y-124147309D01*
X188355000Y-124168750D01*
X188355000Y-124606250D01*
X188353947Y-124627691D01*
X188350797Y-124648926D01*
X188345581Y-124669750D01*
X188338349Y-124689962D01*
X188329170Y-124709368D01*
X188318134Y-124727781D01*
X188305346Y-124745024D01*
X188290930Y-124760930D01*
X188275024Y-124775346D01*
X188257781Y-124788134D01*
X188239368Y-124799170D01*
X188219962Y-124808349D01*
X188199750Y-124815581D01*
X188178926Y-124820797D01*
X188157691Y-124823947D01*
X188136250Y-124825000D01*
X187623750Y-124825000D01*
X187602309Y-124823947D01*
X187581074Y-124820797D01*
X187560250Y-124815581D01*
X187540038Y-124808349D01*
X187520632Y-124799170D01*
X187502219Y-124788134D01*
X187484976Y-124775346D01*
X187469070Y-124760930D01*
X187454654Y-124745024D01*
X187441866Y-124727781D01*
X187430830Y-124709368D01*
X187421651Y-124689962D01*
X187414419Y-124669750D01*
X187409203Y-124648926D01*
X187406053Y-124627691D01*
X187405000Y-124606250D01*
X187405000Y-124168750D01*
X187406053Y-124147309D01*
X187409203Y-124126074D01*
X187414419Y-124105250D01*
X187421651Y-124085038D01*
X187430830Y-124065632D01*
X187441866Y-124047219D01*
X187454654Y-124029976D01*
X187469070Y-124014070D01*
X187484976Y-123999654D01*
X187502219Y-123986866D01*
X187520632Y-123975830D01*
X187540038Y-123966651D01*
X187560250Y-123959419D01*
X187581074Y-123954203D01*
X187602309Y-123951053D01*
X187623750Y-123950000D01*
X188136250Y-123950000D01*
X188157691Y-123951053D01*
X188157691Y-123951053D01*
G37*
D12*
X187880000Y-124387500D03*
D11*
G36*
X189902691Y-151636053D02*
G01*
X189923926Y-151639203D01*
X189944750Y-151644419D01*
X189964962Y-151651651D01*
X189984368Y-151660830D01*
X190002781Y-151671866D01*
X190020024Y-151684654D01*
X190035930Y-151699070D01*
X190050346Y-151714976D01*
X190063134Y-151732219D01*
X190074170Y-151750632D01*
X190083349Y-151770038D01*
X190090581Y-151790250D01*
X190095797Y-151811074D01*
X190098947Y-151832309D01*
X190100000Y-151853750D01*
X190100000Y-152366250D01*
X190098947Y-152387691D01*
X190095797Y-152408926D01*
X190090581Y-152429750D01*
X190083349Y-152449962D01*
X190074170Y-152469368D01*
X190063134Y-152487781D01*
X190050346Y-152505024D01*
X190035930Y-152520930D01*
X190020024Y-152535346D01*
X190002781Y-152548134D01*
X189984368Y-152559170D01*
X189964962Y-152568349D01*
X189944750Y-152575581D01*
X189923926Y-152580797D01*
X189902691Y-152583947D01*
X189881250Y-152585000D01*
X189443750Y-152585000D01*
X189422309Y-152583947D01*
X189401074Y-152580797D01*
X189380250Y-152575581D01*
X189360038Y-152568349D01*
X189340632Y-152559170D01*
X189322219Y-152548134D01*
X189304976Y-152535346D01*
X189289070Y-152520930D01*
X189274654Y-152505024D01*
X189261866Y-152487781D01*
X189250830Y-152469368D01*
X189241651Y-152449962D01*
X189234419Y-152429750D01*
X189229203Y-152408926D01*
X189226053Y-152387691D01*
X189225000Y-152366250D01*
X189225000Y-151853750D01*
X189226053Y-151832309D01*
X189229203Y-151811074D01*
X189234419Y-151790250D01*
X189241651Y-151770038D01*
X189250830Y-151750632D01*
X189261866Y-151732219D01*
X189274654Y-151714976D01*
X189289070Y-151699070D01*
X189304976Y-151684654D01*
X189322219Y-151671866D01*
X189340632Y-151660830D01*
X189360038Y-151651651D01*
X189380250Y-151644419D01*
X189401074Y-151639203D01*
X189422309Y-151636053D01*
X189443750Y-151635000D01*
X189881250Y-151635000D01*
X189902691Y-151636053D01*
X189902691Y-151636053D01*
G37*
D12*
X189662500Y-152110000D03*
D11*
G36*
X191477691Y-151636053D02*
G01*
X191498926Y-151639203D01*
X191519750Y-151644419D01*
X191539962Y-151651651D01*
X191559368Y-151660830D01*
X191577781Y-151671866D01*
X191595024Y-151684654D01*
X191610930Y-151699070D01*
X191625346Y-151714976D01*
X191638134Y-151732219D01*
X191649170Y-151750632D01*
X191658349Y-151770038D01*
X191665581Y-151790250D01*
X191670797Y-151811074D01*
X191673947Y-151832309D01*
X191675000Y-151853750D01*
X191675000Y-152366250D01*
X191673947Y-152387691D01*
X191670797Y-152408926D01*
X191665581Y-152429750D01*
X191658349Y-152449962D01*
X191649170Y-152469368D01*
X191638134Y-152487781D01*
X191625346Y-152505024D01*
X191610930Y-152520930D01*
X191595024Y-152535346D01*
X191577781Y-152548134D01*
X191559368Y-152559170D01*
X191539962Y-152568349D01*
X191519750Y-152575581D01*
X191498926Y-152580797D01*
X191477691Y-152583947D01*
X191456250Y-152585000D01*
X191018750Y-152585000D01*
X190997309Y-152583947D01*
X190976074Y-152580797D01*
X190955250Y-152575581D01*
X190935038Y-152568349D01*
X190915632Y-152559170D01*
X190897219Y-152548134D01*
X190879976Y-152535346D01*
X190864070Y-152520930D01*
X190849654Y-152505024D01*
X190836866Y-152487781D01*
X190825830Y-152469368D01*
X190816651Y-152449962D01*
X190809419Y-152429750D01*
X190804203Y-152408926D01*
X190801053Y-152387691D01*
X190800000Y-152366250D01*
X190800000Y-151853750D01*
X190801053Y-151832309D01*
X190804203Y-151811074D01*
X190809419Y-151790250D01*
X190816651Y-151770038D01*
X190825830Y-151750632D01*
X190836866Y-151732219D01*
X190849654Y-151714976D01*
X190864070Y-151699070D01*
X190879976Y-151684654D01*
X190897219Y-151671866D01*
X190915632Y-151660830D01*
X190935038Y-151651651D01*
X190955250Y-151644419D01*
X190976074Y-151639203D01*
X190997309Y-151636053D01*
X191018750Y-151635000D01*
X191456250Y-151635000D01*
X191477691Y-151636053D01*
X191477691Y-151636053D01*
G37*
D12*
X191237500Y-152110000D03*
D11*
G36*
X191337691Y-135431053D02*
G01*
X191358926Y-135434203D01*
X191379750Y-135439419D01*
X191399962Y-135446651D01*
X191419368Y-135455830D01*
X191437781Y-135466866D01*
X191455024Y-135479654D01*
X191470930Y-135494070D01*
X191485346Y-135509976D01*
X191498134Y-135527219D01*
X191509170Y-135545632D01*
X191518349Y-135565038D01*
X191525581Y-135585250D01*
X191530797Y-135606074D01*
X191533947Y-135627309D01*
X191535000Y-135648750D01*
X191535000Y-136086250D01*
X191533947Y-136107691D01*
X191530797Y-136128926D01*
X191525581Y-136149750D01*
X191518349Y-136169962D01*
X191509170Y-136189368D01*
X191498134Y-136207781D01*
X191485346Y-136225024D01*
X191470930Y-136240930D01*
X191455024Y-136255346D01*
X191437781Y-136268134D01*
X191419368Y-136279170D01*
X191399962Y-136288349D01*
X191379750Y-136295581D01*
X191358926Y-136300797D01*
X191337691Y-136303947D01*
X191316250Y-136305000D01*
X190803750Y-136305000D01*
X190782309Y-136303947D01*
X190761074Y-136300797D01*
X190740250Y-136295581D01*
X190720038Y-136288349D01*
X190700632Y-136279170D01*
X190682219Y-136268134D01*
X190664976Y-136255346D01*
X190649070Y-136240930D01*
X190634654Y-136225024D01*
X190621866Y-136207781D01*
X190610830Y-136189368D01*
X190601651Y-136169962D01*
X190594419Y-136149750D01*
X190589203Y-136128926D01*
X190586053Y-136107691D01*
X190585000Y-136086250D01*
X190585000Y-135648750D01*
X190586053Y-135627309D01*
X190589203Y-135606074D01*
X190594419Y-135585250D01*
X190601651Y-135565038D01*
X190610830Y-135545632D01*
X190621866Y-135527219D01*
X190634654Y-135509976D01*
X190649070Y-135494070D01*
X190664976Y-135479654D01*
X190682219Y-135466866D01*
X190700632Y-135455830D01*
X190720038Y-135446651D01*
X190740250Y-135439419D01*
X190761074Y-135434203D01*
X190782309Y-135431053D01*
X190803750Y-135430000D01*
X191316250Y-135430000D01*
X191337691Y-135431053D01*
X191337691Y-135431053D01*
G37*
D12*
X191060000Y-135867500D03*
D11*
G36*
X191337691Y-133856053D02*
G01*
X191358926Y-133859203D01*
X191379750Y-133864419D01*
X191399962Y-133871651D01*
X191419368Y-133880830D01*
X191437781Y-133891866D01*
X191455024Y-133904654D01*
X191470930Y-133919070D01*
X191485346Y-133934976D01*
X191498134Y-133952219D01*
X191509170Y-133970632D01*
X191518349Y-133990038D01*
X191525581Y-134010250D01*
X191530797Y-134031074D01*
X191533947Y-134052309D01*
X191535000Y-134073750D01*
X191535000Y-134511250D01*
X191533947Y-134532691D01*
X191530797Y-134553926D01*
X191525581Y-134574750D01*
X191518349Y-134594962D01*
X191509170Y-134614368D01*
X191498134Y-134632781D01*
X191485346Y-134650024D01*
X191470930Y-134665930D01*
X191455024Y-134680346D01*
X191437781Y-134693134D01*
X191419368Y-134704170D01*
X191399962Y-134713349D01*
X191379750Y-134720581D01*
X191358926Y-134725797D01*
X191337691Y-134728947D01*
X191316250Y-134730000D01*
X190803750Y-134730000D01*
X190782309Y-134728947D01*
X190761074Y-134725797D01*
X190740250Y-134720581D01*
X190720038Y-134713349D01*
X190700632Y-134704170D01*
X190682219Y-134693134D01*
X190664976Y-134680346D01*
X190649070Y-134665930D01*
X190634654Y-134650024D01*
X190621866Y-134632781D01*
X190610830Y-134614368D01*
X190601651Y-134594962D01*
X190594419Y-134574750D01*
X190589203Y-134553926D01*
X190586053Y-134532691D01*
X190585000Y-134511250D01*
X190585000Y-134073750D01*
X190586053Y-134052309D01*
X190589203Y-134031074D01*
X190594419Y-134010250D01*
X190601651Y-133990038D01*
X190610830Y-133970632D01*
X190621866Y-133952219D01*
X190634654Y-133934976D01*
X190649070Y-133919070D01*
X190664976Y-133904654D01*
X190682219Y-133891866D01*
X190700632Y-133880830D01*
X190720038Y-133871651D01*
X190740250Y-133864419D01*
X190761074Y-133859203D01*
X190782309Y-133856053D01*
X190803750Y-133855000D01*
X191316250Y-133855000D01*
X191337691Y-133856053D01*
X191337691Y-133856053D01*
G37*
D12*
X191060000Y-134292500D03*
D11*
G36*
X193327691Y-133846053D02*
G01*
X193348926Y-133849203D01*
X193369750Y-133854419D01*
X193389962Y-133861651D01*
X193409368Y-133870830D01*
X193427781Y-133881866D01*
X193445024Y-133894654D01*
X193460930Y-133909070D01*
X193475346Y-133924976D01*
X193488134Y-133942219D01*
X193499170Y-133960632D01*
X193508349Y-133980038D01*
X193515581Y-134000250D01*
X193520797Y-134021074D01*
X193523947Y-134042309D01*
X193525000Y-134063750D01*
X193525000Y-134501250D01*
X193523947Y-134522691D01*
X193520797Y-134543926D01*
X193515581Y-134564750D01*
X193508349Y-134584962D01*
X193499170Y-134604368D01*
X193488134Y-134622781D01*
X193475346Y-134640024D01*
X193460930Y-134655930D01*
X193445024Y-134670346D01*
X193427781Y-134683134D01*
X193409368Y-134694170D01*
X193389962Y-134703349D01*
X193369750Y-134710581D01*
X193348926Y-134715797D01*
X193327691Y-134718947D01*
X193306250Y-134720000D01*
X192793750Y-134720000D01*
X192772309Y-134718947D01*
X192751074Y-134715797D01*
X192730250Y-134710581D01*
X192710038Y-134703349D01*
X192690632Y-134694170D01*
X192672219Y-134683134D01*
X192654976Y-134670346D01*
X192639070Y-134655930D01*
X192624654Y-134640024D01*
X192611866Y-134622781D01*
X192600830Y-134604368D01*
X192591651Y-134584962D01*
X192584419Y-134564750D01*
X192579203Y-134543926D01*
X192576053Y-134522691D01*
X192575000Y-134501250D01*
X192575000Y-134063750D01*
X192576053Y-134042309D01*
X192579203Y-134021074D01*
X192584419Y-134000250D01*
X192591651Y-133980038D01*
X192600830Y-133960632D01*
X192611866Y-133942219D01*
X192624654Y-133924976D01*
X192639070Y-133909070D01*
X192654976Y-133894654D01*
X192672219Y-133881866D01*
X192690632Y-133870830D01*
X192710038Y-133861651D01*
X192730250Y-133854419D01*
X192751074Y-133849203D01*
X192772309Y-133846053D01*
X192793750Y-133845000D01*
X193306250Y-133845000D01*
X193327691Y-133846053D01*
X193327691Y-133846053D01*
G37*
D12*
X193050000Y-134282500D03*
D11*
G36*
X193327691Y-135421053D02*
G01*
X193348926Y-135424203D01*
X193369750Y-135429419D01*
X193389962Y-135436651D01*
X193409368Y-135445830D01*
X193427781Y-135456866D01*
X193445024Y-135469654D01*
X193460930Y-135484070D01*
X193475346Y-135499976D01*
X193488134Y-135517219D01*
X193499170Y-135535632D01*
X193508349Y-135555038D01*
X193515581Y-135575250D01*
X193520797Y-135596074D01*
X193523947Y-135617309D01*
X193525000Y-135638750D01*
X193525000Y-136076250D01*
X193523947Y-136097691D01*
X193520797Y-136118926D01*
X193515581Y-136139750D01*
X193508349Y-136159962D01*
X193499170Y-136179368D01*
X193488134Y-136197781D01*
X193475346Y-136215024D01*
X193460930Y-136230930D01*
X193445024Y-136245346D01*
X193427781Y-136258134D01*
X193409368Y-136269170D01*
X193389962Y-136278349D01*
X193369750Y-136285581D01*
X193348926Y-136290797D01*
X193327691Y-136293947D01*
X193306250Y-136295000D01*
X192793750Y-136295000D01*
X192772309Y-136293947D01*
X192751074Y-136290797D01*
X192730250Y-136285581D01*
X192710038Y-136278349D01*
X192690632Y-136269170D01*
X192672219Y-136258134D01*
X192654976Y-136245346D01*
X192639070Y-136230930D01*
X192624654Y-136215024D01*
X192611866Y-136197781D01*
X192600830Y-136179368D01*
X192591651Y-136159962D01*
X192584419Y-136139750D01*
X192579203Y-136118926D01*
X192576053Y-136097691D01*
X192575000Y-136076250D01*
X192575000Y-135638750D01*
X192576053Y-135617309D01*
X192579203Y-135596074D01*
X192584419Y-135575250D01*
X192591651Y-135555038D01*
X192600830Y-135535632D01*
X192611866Y-135517219D01*
X192624654Y-135499976D01*
X192639070Y-135484070D01*
X192654976Y-135469654D01*
X192672219Y-135456866D01*
X192690632Y-135445830D01*
X192710038Y-135436651D01*
X192730250Y-135429419D01*
X192751074Y-135424203D01*
X192772309Y-135421053D01*
X192793750Y-135420000D01*
X193306250Y-135420000D01*
X193327691Y-135421053D01*
X193327691Y-135421053D01*
G37*
D12*
X193050000Y-135857500D03*
D11*
G36*
X193817691Y-91336053D02*
G01*
X193838926Y-91339203D01*
X193859750Y-91344419D01*
X193879962Y-91351651D01*
X193899368Y-91360830D01*
X193917781Y-91371866D01*
X193935024Y-91384654D01*
X193950930Y-91399070D01*
X193965346Y-91414976D01*
X193978134Y-91432219D01*
X193989170Y-91450632D01*
X193998349Y-91470038D01*
X194005581Y-91490250D01*
X194010797Y-91511074D01*
X194013947Y-91532309D01*
X194015000Y-91553750D01*
X194015000Y-91991250D01*
X194013947Y-92012691D01*
X194010797Y-92033926D01*
X194005581Y-92054750D01*
X193998349Y-92074962D01*
X193989170Y-92094368D01*
X193978134Y-92112781D01*
X193965346Y-92130024D01*
X193950930Y-92145930D01*
X193935024Y-92160346D01*
X193917781Y-92173134D01*
X193899368Y-92184170D01*
X193879962Y-92193349D01*
X193859750Y-92200581D01*
X193838926Y-92205797D01*
X193817691Y-92208947D01*
X193796250Y-92210000D01*
X193283750Y-92210000D01*
X193262309Y-92208947D01*
X193241074Y-92205797D01*
X193220250Y-92200581D01*
X193200038Y-92193349D01*
X193180632Y-92184170D01*
X193162219Y-92173134D01*
X193144976Y-92160346D01*
X193129070Y-92145930D01*
X193114654Y-92130024D01*
X193101866Y-92112781D01*
X193090830Y-92094368D01*
X193081651Y-92074962D01*
X193074419Y-92054750D01*
X193069203Y-92033926D01*
X193066053Y-92012691D01*
X193065000Y-91991250D01*
X193065000Y-91553750D01*
X193066053Y-91532309D01*
X193069203Y-91511074D01*
X193074419Y-91490250D01*
X193081651Y-91470038D01*
X193090830Y-91450632D01*
X193101866Y-91432219D01*
X193114654Y-91414976D01*
X193129070Y-91399070D01*
X193144976Y-91384654D01*
X193162219Y-91371866D01*
X193180632Y-91360830D01*
X193200038Y-91351651D01*
X193220250Y-91344419D01*
X193241074Y-91339203D01*
X193262309Y-91336053D01*
X193283750Y-91335000D01*
X193796250Y-91335000D01*
X193817691Y-91336053D01*
X193817691Y-91336053D01*
G37*
D12*
X193540000Y-91772500D03*
D11*
G36*
X193817691Y-92911053D02*
G01*
X193838926Y-92914203D01*
X193859750Y-92919419D01*
X193879962Y-92926651D01*
X193899368Y-92935830D01*
X193917781Y-92946866D01*
X193935024Y-92959654D01*
X193950930Y-92974070D01*
X193965346Y-92989976D01*
X193978134Y-93007219D01*
X193989170Y-93025632D01*
X193998349Y-93045038D01*
X194005581Y-93065250D01*
X194010797Y-93086074D01*
X194013947Y-93107309D01*
X194015000Y-93128750D01*
X194015000Y-93566250D01*
X194013947Y-93587691D01*
X194010797Y-93608926D01*
X194005581Y-93629750D01*
X193998349Y-93649962D01*
X193989170Y-93669368D01*
X193978134Y-93687781D01*
X193965346Y-93705024D01*
X193950930Y-93720930D01*
X193935024Y-93735346D01*
X193917781Y-93748134D01*
X193899368Y-93759170D01*
X193879962Y-93768349D01*
X193859750Y-93775581D01*
X193838926Y-93780797D01*
X193817691Y-93783947D01*
X193796250Y-93785000D01*
X193283750Y-93785000D01*
X193262309Y-93783947D01*
X193241074Y-93780797D01*
X193220250Y-93775581D01*
X193200038Y-93768349D01*
X193180632Y-93759170D01*
X193162219Y-93748134D01*
X193144976Y-93735346D01*
X193129070Y-93720930D01*
X193114654Y-93705024D01*
X193101866Y-93687781D01*
X193090830Y-93669368D01*
X193081651Y-93649962D01*
X193074419Y-93629750D01*
X193069203Y-93608926D01*
X193066053Y-93587691D01*
X193065000Y-93566250D01*
X193065000Y-93128750D01*
X193066053Y-93107309D01*
X193069203Y-93086074D01*
X193074419Y-93065250D01*
X193081651Y-93045038D01*
X193090830Y-93025632D01*
X193101866Y-93007219D01*
X193114654Y-92989976D01*
X193129070Y-92974070D01*
X193144976Y-92959654D01*
X193162219Y-92946866D01*
X193180632Y-92935830D01*
X193200038Y-92926651D01*
X193220250Y-92919419D01*
X193241074Y-92914203D01*
X193262309Y-92911053D01*
X193283750Y-92910000D01*
X193796250Y-92910000D01*
X193817691Y-92911053D01*
X193817691Y-92911053D01*
G37*
D12*
X193540000Y-93347500D03*
D11*
G36*
X210257691Y-102496053D02*
G01*
X210278926Y-102499203D01*
X210299750Y-102504419D01*
X210319962Y-102511651D01*
X210339368Y-102520830D01*
X210357781Y-102531866D01*
X210375024Y-102544654D01*
X210390930Y-102559070D01*
X210405346Y-102574976D01*
X210418134Y-102592219D01*
X210429170Y-102610632D01*
X210438349Y-102630038D01*
X210445581Y-102650250D01*
X210450797Y-102671074D01*
X210453947Y-102692309D01*
X210455000Y-102713750D01*
X210455000Y-103226250D01*
X210453947Y-103247691D01*
X210450797Y-103268926D01*
X210445581Y-103289750D01*
X210438349Y-103309962D01*
X210429170Y-103329368D01*
X210418134Y-103347781D01*
X210405346Y-103365024D01*
X210390930Y-103380930D01*
X210375024Y-103395346D01*
X210357781Y-103408134D01*
X210339368Y-103419170D01*
X210319962Y-103428349D01*
X210299750Y-103435581D01*
X210278926Y-103440797D01*
X210257691Y-103443947D01*
X210236250Y-103445000D01*
X209798750Y-103445000D01*
X209777309Y-103443947D01*
X209756074Y-103440797D01*
X209735250Y-103435581D01*
X209715038Y-103428349D01*
X209695632Y-103419170D01*
X209677219Y-103408134D01*
X209659976Y-103395346D01*
X209644070Y-103380930D01*
X209629654Y-103365024D01*
X209616866Y-103347781D01*
X209605830Y-103329368D01*
X209596651Y-103309962D01*
X209589419Y-103289750D01*
X209584203Y-103268926D01*
X209581053Y-103247691D01*
X209580000Y-103226250D01*
X209580000Y-102713750D01*
X209581053Y-102692309D01*
X209584203Y-102671074D01*
X209589419Y-102650250D01*
X209596651Y-102630038D01*
X209605830Y-102610632D01*
X209616866Y-102592219D01*
X209629654Y-102574976D01*
X209644070Y-102559070D01*
X209659976Y-102544654D01*
X209677219Y-102531866D01*
X209695632Y-102520830D01*
X209715038Y-102511651D01*
X209735250Y-102504419D01*
X209756074Y-102499203D01*
X209777309Y-102496053D01*
X209798750Y-102495000D01*
X210236250Y-102495000D01*
X210257691Y-102496053D01*
X210257691Y-102496053D01*
G37*
D12*
X210017500Y-102970000D03*
D11*
G36*
X208682691Y-102496053D02*
G01*
X208703926Y-102499203D01*
X208724750Y-102504419D01*
X208744962Y-102511651D01*
X208764368Y-102520830D01*
X208782781Y-102531866D01*
X208800024Y-102544654D01*
X208815930Y-102559070D01*
X208830346Y-102574976D01*
X208843134Y-102592219D01*
X208854170Y-102610632D01*
X208863349Y-102630038D01*
X208870581Y-102650250D01*
X208875797Y-102671074D01*
X208878947Y-102692309D01*
X208880000Y-102713750D01*
X208880000Y-103226250D01*
X208878947Y-103247691D01*
X208875797Y-103268926D01*
X208870581Y-103289750D01*
X208863349Y-103309962D01*
X208854170Y-103329368D01*
X208843134Y-103347781D01*
X208830346Y-103365024D01*
X208815930Y-103380930D01*
X208800024Y-103395346D01*
X208782781Y-103408134D01*
X208764368Y-103419170D01*
X208744962Y-103428349D01*
X208724750Y-103435581D01*
X208703926Y-103440797D01*
X208682691Y-103443947D01*
X208661250Y-103445000D01*
X208223750Y-103445000D01*
X208202309Y-103443947D01*
X208181074Y-103440797D01*
X208160250Y-103435581D01*
X208140038Y-103428349D01*
X208120632Y-103419170D01*
X208102219Y-103408134D01*
X208084976Y-103395346D01*
X208069070Y-103380930D01*
X208054654Y-103365024D01*
X208041866Y-103347781D01*
X208030830Y-103329368D01*
X208021651Y-103309962D01*
X208014419Y-103289750D01*
X208009203Y-103268926D01*
X208006053Y-103247691D01*
X208005000Y-103226250D01*
X208005000Y-102713750D01*
X208006053Y-102692309D01*
X208009203Y-102671074D01*
X208014419Y-102650250D01*
X208021651Y-102630038D01*
X208030830Y-102610632D01*
X208041866Y-102592219D01*
X208054654Y-102574976D01*
X208069070Y-102559070D01*
X208084976Y-102544654D01*
X208102219Y-102531866D01*
X208120632Y-102520830D01*
X208140038Y-102511651D01*
X208160250Y-102504419D01*
X208181074Y-102499203D01*
X208202309Y-102496053D01*
X208223750Y-102495000D01*
X208661250Y-102495000D01*
X208682691Y-102496053D01*
X208682691Y-102496053D01*
G37*
D12*
X208442500Y-102970000D03*
D11*
G36*
X218027691Y-100001053D02*
G01*
X218048926Y-100004203D01*
X218069750Y-100009419D01*
X218089962Y-100016651D01*
X218109368Y-100025830D01*
X218127781Y-100036866D01*
X218145024Y-100049654D01*
X218160930Y-100064070D01*
X218175346Y-100079976D01*
X218188134Y-100097219D01*
X218199170Y-100115632D01*
X218208349Y-100135038D01*
X218215581Y-100155250D01*
X218220797Y-100176074D01*
X218223947Y-100197309D01*
X218225000Y-100218750D01*
X218225000Y-100656250D01*
X218223947Y-100677691D01*
X218220797Y-100698926D01*
X218215581Y-100719750D01*
X218208349Y-100739962D01*
X218199170Y-100759368D01*
X218188134Y-100777781D01*
X218175346Y-100795024D01*
X218160930Y-100810930D01*
X218145024Y-100825346D01*
X218127781Y-100838134D01*
X218109368Y-100849170D01*
X218089962Y-100858349D01*
X218069750Y-100865581D01*
X218048926Y-100870797D01*
X218027691Y-100873947D01*
X218006250Y-100875000D01*
X217493750Y-100875000D01*
X217472309Y-100873947D01*
X217451074Y-100870797D01*
X217430250Y-100865581D01*
X217410038Y-100858349D01*
X217390632Y-100849170D01*
X217372219Y-100838134D01*
X217354976Y-100825346D01*
X217339070Y-100810930D01*
X217324654Y-100795024D01*
X217311866Y-100777781D01*
X217300830Y-100759368D01*
X217291651Y-100739962D01*
X217284419Y-100719750D01*
X217279203Y-100698926D01*
X217276053Y-100677691D01*
X217275000Y-100656250D01*
X217275000Y-100218750D01*
X217276053Y-100197309D01*
X217279203Y-100176074D01*
X217284419Y-100155250D01*
X217291651Y-100135038D01*
X217300830Y-100115632D01*
X217311866Y-100097219D01*
X217324654Y-100079976D01*
X217339070Y-100064070D01*
X217354976Y-100049654D01*
X217372219Y-100036866D01*
X217390632Y-100025830D01*
X217410038Y-100016651D01*
X217430250Y-100009419D01*
X217451074Y-100004203D01*
X217472309Y-100001053D01*
X217493750Y-100000000D01*
X218006250Y-100000000D01*
X218027691Y-100001053D01*
X218027691Y-100001053D01*
G37*
D12*
X217750000Y-100437500D03*
D11*
G36*
X218027691Y-98426053D02*
G01*
X218048926Y-98429203D01*
X218069750Y-98434419D01*
X218089962Y-98441651D01*
X218109368Y-98450830D01*
X218127781Y-98461866D01*
X218145024Y-98474654D01*
X218160930Y-98489070D01*
X218175346Y-98504976D01*
X218188134Y-98522219D01*
X218199170Y-98540632D01*
X218208349Y-98560038D01*
X218215581Y-98580250D01*
X218220797Y-98601074D01*
X218223947Y-98622309D01*
X218225000Y-98643750D01*
X218225000Y-99081250D01*
X218223947Y-99102691D01*
X218220797Y-99123926D01*
X218215581Y-99144750D01*
X218208349Y-99164962D01*
X218199170Y-99184368D01*
X218188134Y-99202781D01*
X218175346Y-99220024D01*
X218160930Y-99235930D01*
X218145024Y-99250346D01*
X218127781Y-99263134D01*
X218109368Y-99274170D01*
X218089962Y-99283349D01*
X218069750Y-99290581D01*
X218048926Y-99295797D01*
X218027691Y-99298947D01*
X218006250Y-99300000D01*
X217493750Y-99300000D01*
X217472309Y-99298947D01*
X217451074Y-99295797D01*
X217430250Y-99290581D01*
X217410038Y-99283349D01*
X217390632Y-99274170D01*
X217372219Y-99263134D01*
X217354976Y-99250346D01*
X217339070Y-99235930D01*
X217324654Y-99220024D01*
X217311866Y-99202781D01*
X217300830Y-99184368D01*
X217291651Y-99164962D01*
X217284419Y-99144750D01*
X217279203Y-99123926D01*
X217276053Y-99102691D01*
X217275000Y-99081250D01*
X217275000Y-98643750D01*
X217276053Y-98622309D01*
X217279203Y-98601074D01*
X217284419Y-98580250D01*
X217291651Y-98560038D01*
X217300830Y-98540632D01*
X217311866Y-98522219D01*
X217324654Y-98504976D01*
X217339070Y-98489070D01*
X217354976Y-98474654D01*
X217372219Y-98461866D01*
X217390632Y-98450830D01*
X217410038Y-98441651D01*
X217430250Y-98434419D01*
X217451074Y-98429203D01*
X217472309Y-98426053D01*
X217493750Y-98425000D01*
X218006250Y-98425000D01*
X218027691Y-98426053D01*
X218027691Y-98426053D01*
G37*
D12*
X217750000Y-98862500D03*
D11*
G36*
X196357691Y-53766053D02*
G01*
X196378926Y-53769203D01*
X196399750Y-53774419D01*
X196419962Y-53781651D01*
X196439368Y-53790830D01*
X196457781Y-53801866D01*
X196475024Y-53814654D01*
X196490930Y-53829070D01*
X196505346Y-53844976D01*
X196518134Y-53862219D01*
X196529170Y-53880632D01*
X196538349Y-53900038D01*
X196545581Y-53920250D01*
X196550797Y-53941074D01*
X196553947Y-53962309D01*
X196555000Y-53983750D01*
X196555000Y-54496250D01*
X196553947Y-54517691D01*
X196550797Y-54538926D01*
X196545581Y-54559750D01*
X196538349Y-54579962D01*
X196529170Y-54599368D01*
X196518134Y-54617781D01*
X196505346Y-54635024D01*
X196490930Y-54650930D01*
X196475024Y-54665346D01*
X196457781Y-54678134D01*
X196439368Y-54689170D01*
X196419962Y-54698349D01*
X196399750Y-54705581D01*
X196378926Y-54710797D01*
X196357691Y-54713947D01*
X196336250Y-54715000D01*
X195898750Y-54715000D01*
X195877309Y-54713947D01*
X195856074Y-54710797D01*
X195835250Y-54705581D01*
X195815038Y-54698349D01*
X195795632Y-54689170D01*
X195777219Y-54678134D01*
X195759976Y-54665346D01*
X195744070Y-54650930D01*
X195729654Y-54635024D01*
X195716866Y-54617781D01*
X195705830Y-54599368D01*
X195696651Y-54579962D01*
X195689419Y-54559750D01*
X195684203Y-54538926D01*
X195681053Y-54517691D01*
X195680000Y-54496250D01*
X195680000Y-53983750D01*
X195681053Y-53962309D01*
X195684203Y-53941074D01*
X195689419Y-53920250D01*
X195696651Y-53900038D01*
X195705830Y-53880632D01*
X195716866Y-53862219D01*
X195729654Y-53844976D01*
X195744070Y-53829070D01*
X195759976Y-53814654D01*
X195777219Y-53801866D01*
X195795632Y-53790830D01*
X195815038Y-53781651D01*
X195835250Y-53774419D01*
X195856074Y-53769203D01*
X195877309Y-53766053D01*
X195898750Y-53765000D01*
X196336250Y-53765000D01*
X196357691Y-53766053D01*
X196357691Y-53766053D01*
G37*
D12*
X196117500Y-54240000D03*
D11*
G36*
X194782691Y-53766053D02*
G01*
X194803926Y-53769203D01*
X194824750Y-53774419D01*
X194844962Y-53781651D01*
X194864368Y-53790830D01*
X194882781Y-53801866D01*
X194900024Y-53814654D01*
X194915930Y-53829070D01*
X194930346Y-53844976D01*
X194943134Y-53862219D01*
X194954170Y-53880632D01*
X194963349Y-53900038D01*
X194970581Y-53920250D01*
X194975797Y-53941074D01*
X194978947Y-53962309D01*
X194980000Y-53983750D01*
X194980000Y-54496250D01*
X194978947Y-54517691D01*
X194975797Y-54538926D01*
X194970581Y-54559750D01*
X194963349Y-54579962D01*
X194954170Y-54599368D01*
X194943134Y-54617781D01*
X194930346Y-54635024D01*
X194915930Y-54650930D01*
X194900024Y-54665346D01*
X194882781Y-54678134D01*
X194864368Y-54689170D01*
X194844962Y-54698349D01*
X194824750Y-54705581D01*
X194803926Y-54710797D01*
X194782691Y-54713947D01*
X194761250Y-54715000D01*
X194323750Y-54715000D01*
X194302309Y-54713947D01*
X194281074Y-54710797D01*
X194260250Y-54705581D01*
X194240038Y-54698349D01*
X194220632Y-54689170D01*
X194202219Y-54678134D01*
X194184976Y-54665346D01*
X194169070Y-54650930D01*
X194154654Y-54635024D01*
X194141866Y-54617781D01*
X194130830Y-54599368D01*
X194121651Y-54579962D01*
X194114419Y-54559750D01*
X194109203Y-54538926D01*
X194106053Y-54517691D01*
X194105000Y-54496250D01*
X194105000Y-53983750D01*
X194106053Y-53962309D01*
X194109203Y-53941074D01*
X194114419Y-53920250D01*
X194121651Y-53900038D01*
X194130830Y-53880632D01*
X194141866Y-53862219D01*
X194154654Y-53844976D01*
X194169070Y-53829070D01*
X194184976Y-53814654D01*
X194202219Y-53801866D01*
X194220632Y-53790830D01*
X194240038Y-53781651D01*
X194260250Y-53774419D01*
X194281074Y-53769203D01*
X194302309Y-53766053D01*
X194323750Y-53765000D01*
X194761250Y-53765000D01*
X194782691Y-53766053D01*
X194782691Y-53766053D01*
G37*
D12*
X194542500Y-54240000D03*
D11*
G36*
X176187691Y-39796053D02*
G01*
X176208926Y-39799203D01*
X176229750Y-39804419D01*
X176249962Y-39811651D01*
X176269368Y-39820830D01*
X176287781Y-39831866D01*
X176305024Y-39844654D01*
X176320930Y-39859070D01*
X176335346Y-39874976D01*
X176348134Y-39892219D01*
X176359170Y-39910632D01*
X176368349Y-39930038D01*
X176375581Y-39950250D01*
X176380797Y-39971074D01*
X176383947Y-39992309D01*
X176385000Y-40013750D01*
X176385000Y-40451250D01*
X176383947Y-40472691D01*
X176380797Y-40493926D01*
X176375581Y-40514750D01*
X176368349Y-40534962D01*
X176359170Y-40554368D01*
X176348134Y-40572781D01*
X176335346Y-40590024D01*
X176320930Y-40605930D01*
X176305024Y-40620346D01*
X176287781Y-40633134D01*
X176269368Y-40644170D01*
X176249962Y-40653349D01*
X176229750Y-40660581D01*
X176208926Y-40665797D01*
X176187691Y-40668947D01*
X176166250Y-40670000D01*
X175653750Y-40670000D01*
X175632309Y-40668947D01*
X175611074Y-40665797D01*
X175590250Y-40660581D01*
X175570038Y-40653349D01*
X175550632Y-40644170D01*
X175532219Y-40633134D01*
X175514976Y-40620346D01*
X175499070Y-40605930D01*
X175484654Y-40590024D01*
X175471866Y-40572781D01*
X175460830Y-40554368D01*
X175451651Y-40534962D01*
X175444419Y-40514750D01*
X175439203Y-40493926D01*
X175436053Y-40472691D01*
X175435000Y-40451250D01*
X175435000Y-40013750D01*
X175436053Y-39992309D01*
X175439203Y-39971074D01*
X175444419Y-39950250D01*
X175451651Y-39930038D01*
X175460830Y-39910632D01*
X175471866Y-39892219D01*
X175484654Y-39874976D01*
X175499070Y-39859070D01*
X175514976Y-39844654D01*
X175532219Y-39831866D01*
X175550632Y-39820830D01*
X175570038Y-39811651D01*
X175590250Y-39804419D01*
X175611074Y-39799203D01*
X175632309Y-39796053D01*
X175653750Y-39795000D01*
X176166250Y-39795000D01*
X176187691Y-39796053D01*
X176187691Y-39796053D01*
G37*
D12*
X175910000Y-40232500D03*
D11*
G36*
X176187691Y-41371053D02*
G01*
X176208926Y-41374203D01*
X176229750Y-41379419D01*
X176249962Y-41386651D01*
X176269368Y-41395830D01*
X176287781Y-41406866D01*
X176305024Y-41419654D01*
X176320930Y-41434070D01*
X176335346Y-41449976D01*
X176348134Y-41467219D01*
X176359170Y-41485632D01*
X176368349Y-41505038D01*
X176375581Y-41525250D01*
X176380797Y-41546074D01*
X176383947Y-41567309D01*
X176385000Y-41588750D01*
X176385000Y-42026250D01*
X176383947Y-42047691D01*
X176380797Y-42068926D01*
X176375581Y-42089750D01*
X176368349Y-42109962D01*
X176359170Y-42129368D01*
X176348134Y-42147781D01*
X176335346Y-42165024D01*
X176320930Y-42180930D01*
X176305024Y-42195346D01*
X176287781Y-42208134D01*
X176269368Y-42219170D01*
X176249962Y-42228349D01*
X176229750Y-42235581D01*
X176208926Y-42240797D01*
X176187691Y-42243947D01*
X176166250Y-42245000D01*
X175653750Y-42245000D01*
X175632309Y-42243947D01*
X175611074Y-42240797D01*
X175590250Y-42235581D01*
X175570038Y-42228349D01*
X175550632Y-42219170D01*
X175532219Y-42208134D01*
X175514976Y-42195346D01*
X175499070Y-42180930D01*
X175484654Y-42165024D01*
X175471866Y-42147781D01*
X175460830Y-42129368D01*
X175451651Y-42109962D01*
X175444419Y-42089750D01*
X175439203Y-42068926D01*
X175436053Y-42047691D01*
X175435000Y-42026250D01*
X175435000Y-41588750D01*
X175436053Y-41567309D01*
X175439203Y-41546074D01*
X175444419Y-41525250D01*
X175451651Y-41505038D01*
X175460830Y-41485632D01*
X175471866Y-41467219D01*
X175484654Y-41449976D01*
X175499070Y-41434070D01*
X175514976Y-41419654D01*
X175532219Y-41406866D01*
X175550632Y-41395830D01*
X175570038Y-41386651D01*
X175590250Y-41379419D01*
X175611074Y-41374203D01*
X175632309Y-41371053D01*
X175653750Y-41370000D01*
X176166250Y-41370000D01*
X176187691Y-41371053D01*
X176187691Y-41371053D01*
G37*
D12*
X175910000Y-41807500D03*
D11*
G36*
X178227691Y-39816053D02*
G01*
X178248926Y-39819203D01*
X178269750Y-39824419D01*
X178289962Y-39831651D01*
X178309368Y-39840830D01*
X178327781Y-39851866D01*
X178345024Y-39864654D01*
X178360930Y-39879070D01*
X178375346Y-39894976D01*
X178388134Y-39912219D01*
X178399170Y-39930632D01*
X178408349Y-39950038D01*
X178415581Y-39970250D01*
X178420797Y-39991074D01*
X178423947Y-40012309D01*
X178425000Y-40033750D01*
X178425000Y-40471250D01*
X178423947Y-40492691D01*
X178420797Y-40513926D01*
X178415581Y-40534750D01*
X178408349Y-40554962D01*
X178399170Y-40574368D01*
X178388134Y-40592781D01*
X178375346Y-40610024D01*
X178360930Y-40625930D01*
X178345024Y-40640346D01*
X178327781Y-40653134D01*
X178309368Y-40664170D01*
X178289962Y-40673349D01*
X178269750Y-40680581D01*
X178248926Y-40685797D01*
X178227691Y-40688947D01*
X178206250Y-40690000D01*
X177693750Y-40690000D01*
X177672309Y-40688947D01*
X177651074Y-40685797D01*
X177630250Y-40680581D01*
X177610038Y-40673349D01*
X177590632Y-40664170D01*
X177572219Y-40653134D01*
X177554976Y-40640346D01*
X177539070Y-40625930D01*
X177524654Y-40610024D01*
X177511866Y-40592781D01*
X177500830Y-40574368D01*
X177491651Y-40554962D01*
X177484419Y-40534750D01*
X177479203Y-40513926D01*
X177476053Y-40492691D01*
X177475000Y-40471250D01*
X177475000Y-40033750D01*
X177476053Y-40012309D01*
X177479203Y-39991074D01*
X177484419Y-39970250D01*
X177491651Y-39950038D01*
X177500830Y-39930632D01*
X177511866Y-39912219D01*
X177524654Y-39894976D01*
X177539070Y-39879070D01*
X177554976Y-39864654D01*
X177572219Y-39851866D01*
X177590632Y-39840830D01*
X177610038Y-39831651D01*
X177630250Y-39824419D01*
X177651074Y-39819203D01*
X177672309Y-39816053D01*
X177693750Y-39815000D01*
X178206250Y-39815000D01*
X178227691Y-39816053D01*
X178227691Y-39816053D01*
G37*
D12*
X177950000Y-40252500D03*
D11*
G36*
X178227691Y-41391053D02*
G01*
X178248926Y-41394203D01*
X178269750Y-41399419D01*
X178289962Y-41406651D01*
X178309368Y-41415830D01*
X178327781Y-41426866D01*
X178345024Y-41439654D01*
X178360930Y-41454070D01*
X178375346Y-41469976D01*
X178388134Y-41487219D01*
X178399170Y-41505632D01*
X178408349Y-41525038D01*
X178415581Y-41545250D01*
X178420797Y-41566074D01*
X178423947Y-41587309D01*
X178425000Y-41608750D01*
X178425000Y-42046250D01*
X178423947Y-42067691D01*
X178420797Y-42088926D01*
X178415581Y-42109750D01*
X178408349Y-42129962D01*
X178399170Y-42149368D01*
X178388134Y-42167781D01*
X178375346Y-42185024D01*
X178360930Y-42200930D01*
X178345024Y-42215346D01*
X178327781Y-42228134D01*
X178309368Y-42239170D01*
X178289962Y-42248349D01*
X178269750Y-42255581D01*
X178248926Y-42260797D01*
X178227691Y-42263947D01*
X178206250Y-42265000D01*
X177693750Y-42265000D01*
X177672309Y-42263947D01*
X177651074Y-42260797D01*
X177630250Y-42255581D01*
X177610038Y-42248349D01*
X177590632Y-42239170D01*
X177572219Y-42228134D01*
X177554976Y-42215346D01*
X177539070Y-42200930D01*
X177524654Y-42185024D01*
X177511866Y-42167781D01*
X177500830Y-42149368D01*
X177491651Y-42129962D01*
X177484419Y-42109750D01*
X177479203Y-42088926D01*
X177476053Y-42067691D01*
X177475000Y-42046250D01*
X177475000Y-41608750D01*
X177476053Y-41587309D01*
X177479203Y-41566074D01*
X177484419Y-41545250D01*
X177491651Y-41525038D01*
X177500830Y-41505632D01*
X177511866Y-41487219D01*
X177524654Y-41469976D01*
X177539070Y-41454070D01*
X177554976Y-41439654D01*
X177572219Y-41426866D01*
X177590632Y-41415830D01*
X177610038Y-41406651D01*
X177630250Y-41399419D01*
X177651074Y-41394203D01*
X177672309Y-41391053D01*
X177693750Y-41390000D01*
X178206250Y-41390000D01*
X178227691Y-41391053D01*
X178227691Y-41391053D01*
G37*
D12*
X177950000Y-41827500D03*
D11*
G36*
X182627691Y-29486053D02*
G01*
X182648926Y-29489203D01*
X182669750Y-29494419D01*
X182689962Y-29501651D01*
X182709368Y-29510830D01*
X182727781Y-29521866D01*
X182745024Y-29534654D01*
X182760930Y-29549070D01*
X182775346Y-29564976D01*
X182788134Y-29582219D01*
X182799170Y-29600632D01*
X182808349Y-29620038D01*
X182815581Y-29640250D01*
X182820797Y-29661074D01*
X182823947Y-29682309D01*
X182825000Y-29703750D01*
X182825000Y-30216250D01*
X182823947Y-30237691D01*
X182820797Y-30258926D01*
X182815581Y-30279750D01*
X182808349Y-30299962D01*
X182799170Y-30319368D01*
X182788134Y-30337781D01*
X182775346Y-30355024D01*
X182760930Y-30370930D01*
X182745024Y-30385346D01*
X182727781Y-30398134D01*
X182709368Y-30409170D01*
X182689962Y-30418349D01*
X182669750Y-30425581D01*
X182648926Y-30430797D01*
X182627691Y-30433947D01*
X182606250Y-30435000D01*
X182168750Y-30435000D01*
X182147309Y-30433947D01*
X182126074Y-30430797D01*
X182105250Y-30425581D01*
X182085038Y-30418349D01*
X182065632Y-30409170D01*
X182047219Y-30398134D01*
X182029976Y-30385346D01*
X182014070Y-30370930D01*
X181999654Y-30355024D01*
X181986866Y-30337781D01*
X181975830Y-30319368D01*
X181966651Y-30299962D01*
X181959419Y-30279750D01*
X181954203Y-30258926D01*
X181951053Y-30237691D01*
X181950000Y-30216250D01*
X181950000Y-29703750D01*
X181951053Y-29682309D01*
X181954203Y-29661074D01*
X181959419Y-29640250D01*
X181966651Y-29620038D01*
X181975830Y-29600632D01*
X181986866Y-29582219D01*
X181999654Y-29564976D01*
X182014070Y-29549070D01*
X182029976Y-29534654D01*
X182047219Y-29521866D01*
X182065632Y-29510830D01*
X182085038Y-29501651D01*
X182105250Y-29494419D01*
X182126074Y-29489203D01*
X182147309Y-29486053D01*
X182168750Y-29485000D01*
X182606250Y-29485000D01*
X182627691Y-29486053D01*
X182627691Y-29486053D01*
G37*
D12*
X182387500Y-29960000D03*
D11*
G36*
X181052691Y-29486053D02*
G01*
X181073926Y-29489203D01*
X181094750Y-29494419D01*
X181114962Y-29501651D01*
X181134368Y-29510830D01*
X181152781Y-29521866D01*
X181170024Y-29534654D01*
X181185930Y-29549070D01*
X181200346Y-29564976D01*
X181213134Y-29582219D01*
X181224170Y-29600632D01*
X181233349Y-29620038D01*
X181240581Y-29640250D01*
X181245797Y-29661074D01*
X181248947Y-29682309D01*
X181250000Y-29703750D01*
X181250000Y-30216250D01*
X181248947Y-30237691D01*
X181245797Y-30258926D01*
X181240581Y-30279750D01*
X181233349Y-30299962D01*
X181224170Y-30319368D01*
X181213134Y-30337781D01*
X181200346Y-30355024D01*
X181185930Y-30370930D01*
X181170024Y-30385346D01*
X181152781Y-30398134D01*
X181134368Y-30409170D01*
X181114962Y-30418349D01*
X181094750Y-30425581D01*
X181073926Y-30430797D01*
X181052691Y-30433947D01*
X181031250Y-30435000D01*
X180593750Y-30435000D01*
X180572309Y-30433947D01*
X180551074Y-30430797D01*
X180530250Y-30425581D01*
X180510038Y-30418349D01*
X180490632Y-30409170D01*
X180472219Y-30398134D01*
X180454976Y-30385346D01*
X180439070Y-30370930D01*
X180424654Y-30355024D01*
X180411866Y-30337781D01*
X180400830Y-30319368D01*
X180391651Y-30299962D01*
X180384419Y-30279750D01*
X180379203Y-30258926D01*
X180376053Y-30237691D01*
X180375000Y-30216250D01*
X180375000Y-29703750D01*
X180376053Y-29682309D01*
X180379203Y-29661074D01*
X180384419Y-29640250D01*
X180391651Y-29620038D01*
X180400830Y-29600632D01*
X180411866Y-29582219D01*
X180424654Y-29564976D01*
X180439070Y-29549070D01*
X180454976Y-29534654D01*
X180472219Y-29521866D01*
X180490632Y-29510830D01*
X180510038Y-29501651D01*
X180530250Y-29494419D01*
X180551074Y-29489203D01*
X180572309Y-29486053D01*
X180593750Y-29485000D01*
X181031250Y-29485000D01*
X181052691Y-29486053D01*
X181052691Y-29486053D01*
G37*
D12*
X180812500Y-29960000D03*
D11*
G36*
X169937691Y-23366053D02*
G01*
X169958926Y-23369203D01*
X169979750Y-23374419D01*
X169999962Y-23381651D01*
X170019368Y-23390830D01*
X170037781Y-23401866D01*
X170055024Y-23414654D01*
X170070930Y-23429070D01*
X170085346Y-23444976D01*
X170098134Y-23462219D01*
X170109170Y-23480632D01*
X170118349Y-23500038D01*
X170125581Y-23520250D01*
X170130797Y-23541074D01*
X170133947Y-23562309D01*
X170135000Y-23583750D01*
X170135000Y-24096250D01*
X170133947Y-24117691D01*
X170130797Y-24138926D01*
X170125581Y-24159750D01*
X170118349Y-24179962D01*
X170109170Y-24199368D01*
X170098134Y-24217781D01*
X170085346Y-24235024D01*
X170070930Y-24250930D01*
X170055024Y-24265346D01*
X170037781Y-24278134D01*
X170019368Y-24289170D01*
X169999962Y-24298349D01*
X169979750Y-24305581D01*
X169958926Y-24310797D01*
X169937691Y-24313947D01*
X169916250Y-24315000D01*
X169478750Y-24315000D01*
X169457309Y-24313947D01*
X169436074Y-24310797D01*
X169415250Y-24305581D01*
X169395038Y-24298349D01*
X169375632Y-24289170D01*
X169357219Y-24278134D01*
X169339976Y-24265346D01*
X169324070Y-24250930D01*
X169309654Y-24235024D01*
X169296866Y-24217781D01*
X169285830Y-24199368D01*
X169276651Y-24179962D01*
X169269419Y-24159750D01*
X169264203Y-24138926D01*
X169261053Y-24117691D01*
X169260000Y-24096250D01*
X169260000Y-23583750D01*
X169261053Y-23562309D01*
X169264203Y-23541074D01*
X169269419Y-23520250D01*
X169276651Y-23500038D01*
X169285830Y-23480632D01*
X169296866Y-23462219D01*
X169309654Y-23444976D01*
X169324070Y-23429070D01*
X169339976Y-23414654D01*
X169357219Y-23401866D01*
X169375632Y-23390830D01*
X169395038Y-23381651D01*
X169415250Y-23374419D01*
X169436074Y-23369203D01*
X169457309Y-23366053D01*
X169478750Y-23365000D01*
X169916250Y-23365000D01*
X169937691Y-23366053D01*
X169937691Y-23366053D01*
G37*
D12*
X169697500Y-23840000D03*
D11*
G36*
X168362691Y-23366053D02*
G01*
X168383926Y-23369203D01*
X168404750Y-23374419D01*
X168424962Y-23381651D01*
X168444368Y-23390830D01*
X168462781Y-23401866D01*
X168480024Y-23414654D01*
X168495930Y-23429070D01*
X168510346Y-23444976D01*
X168523134Y-23462219D01*
X168534170Y-23480632D01*
X168543349Y-23500038D01*
X168550581Y-23520250D01*
X168555797Y-23541074D01*
X168558947Y-23562309D01*
X168560000Y-23583750D01*
X168560000Y-24096250D01*
X168558947Y-24117691D01*
X168555797Y-24138926D01*
X168550581Y-24159750D01*
X168543349Y-24179962D01*
X168534170Y-24199368D01*
X168523134Y-24217781D01*
X168510346Y-24235024D01*
X168495930Y-24250930D01*
X168480024Y-24265346D01*
X168462781Y-24278134D01*
X168444368Y-24289170D01*
X168424962Y-24298349D01*
X168404750Y-24305581D01*
X168383926Y-24310797D01*
X168362691Y-24313947D01*
X168341250Y-24315000D01*
X167903750Y-24315000D01*
X167882309Y-24313947D01*
X167861074Y-24310797D01*
X167840250Y-24305581D01*
X167820038Y-24298349D01*
X167800632Y-24289170D01*
X167782219Y-24278134D01*
X167764976Y-24265346D01*
X167749070Y-24250930D01*
X167734654Y-24235024D01*
X167721866Y-24217781D01*
X167710830Y-24199368D01*
X167701651Y-24179962D01*
X167694419Y-24159750D01*
X167689203Y-24138926D01*
X167686053Y-24117691D01*
X167685000Y-24096250D01*
X167685000Y-23583750D01*
X167686053Y-23562309D01*
X167689203Y-23541074D01*
X167694419Y-23520250D01*
X167701651Y-23500038D01*
X167710830Y-23480632D01*
X167721866Y-23462219D01*
X167734654Y-23444976D01*
X167749070Y-23429070D01*
X167764976Y-23414654D01*
X167782219Y-23401866D01*
X167800632Y-23390830D01*
X167820038Y-23381651D01*
X167840250Y-23374419D01*
X167861074Y-23369203D01*
X167882309Y-23366053D01*
X167903750Y-23365000D01*
X168341250Y-23365000D01*
X168362691Y-23366053D01*
X168362691Y-23366053D01*
G37*
D12*
X168122500Y-23840000D03*
D10*
X149565000Y-96220000D03*
X141615000Y-96220000D03*
X149565000Y-91720000D03*
X141615000Y-91720000D03*
X141535000Y-109520000D03*
X149485000Y-109520000D03*
X141535000Y-114020000D03*
X149485000Y-114020000D03*
X157505000Y-105120000D03*
X149555000Y-105120000D03*
X157505000Y-100620000D03*
X149555000Y-100620000D03*
X218445000Y-111360000D03*
X210495000Y-111360000D03*
X218445000Y-106860000D03*
X210495000Y-106860000D03*
X208105000Y-99540000D03*
X200155000Y-99540000D03*
X208105000Y-95040000D03*
X200155000Y-95040000D03*
D11*
G36*
X169497691Y-163321053D02*
G01*
X169518926Y-163324203D01*
X169539750Y-163329419D01*
X169559962Y-163336651D01*
X169579368Y-163345830D01*
X169597781Y-163356866D01*
X169615024Y-163369654D01*
X169630930Y-163384070D01*
X169645346Y-163399976D01*
X169658134Y-163417219D01*
X169669170Y-163435632D01*
X169678349Y-163455038D01*
X169685581Y-163475250D01*
X169690797Y-163496074D01*
X169693947Y-163517309D01*
X169695000Y-163538750D01*
X169695000Y-163976250D01*
X169693947Y-163997691D01*
X169690797Y-164018926D01*
X169685581Y-164039750D01*
X169678349Y-164059962D01*
X169669170Y-164079368D01*
X169658134Y-164097781D01*
X169645346Y-164115024D01*
X169630930Y-164130930D01*
X169615024Y-164145346D01*
X169597781Y-164158134D01*
X169579368Y-164169170D01*
X169559962Y-164178349D01*
X169539750Y-164185581D01*
X169518926Y-164190797D01*
X169497691Y-164193947D01*
X169476250Y-164195000D01*
X168963750Y-164195000D01*
X168942309Y-164193947D01*
X168921074Y-164190797D01*
X168900250Y-164185581D01*
X168880038Y-164178349D01*
X168860632Y-164169170D01*
X168842219Y-164158134D01*
X168824976Y-164145346D01*
X168809070Y-164130930D01*
X168794654Y-164115024D01*
X168781866Y-164097781D01*
X168770830Y-164079368D01*
X168761651Y-164059962D01*
X168754419Y-164039750D01*
X168749203Y-164018926D01*
X168746053Y-163997691D01*
X168745000Y-163976250D01*
X168745000Y-163538750D01*
X168746053Y-163517309D01*
X168749203Y-163496074D01*
X168754419Y-163475250D01*
X168761651Y-163455038D01*
X168770830Y-163435632D01*
X168781866Y-163417219D01*
X168794654Y-163399976D01*
X168809070Y-163384070D01*
X168824976Y-163369654D01*
X168842219Y-163356866D01*
X168860632Y-163345830D01*
X168880038Y-163336651D01*
X168900250Y-163329419D01*
X168921074Y-163324203D01*
X168942309Y-163321053D01*
X168963750Y-163320000D01*
X169476250Y-163320000D01*
X169497691Y-163321053D01*
X169497691Y-163321053D01*
G37*
D12*
X169220000Y-163757500D03*
D11*
G36*
X169497691Y-161746053D02*
G01*
X169518926Y-161749203D01*
X169539750Y-161754419D01*
X169559962Y-161761651D01*
X169579368Y-161770830D01*
X169597781Y-161781866D01*
X169615024Y-161794654D01*
X169630930Y-161809070D01*
X169645346Y-161824976D01*
X169658134Y-161842219D01*
X169669170Y-161860632D01*
X169678349Y-161880038D01*
X169685581Y-161900250D01*
X169690797Y-161921074D01*
X169693947Y-161942309D01*
X169695000Y-161963750D01*
X169695000Y-162401250D01*
X169693947Y-162422691D01*
X169690797Y-162443926D01*
X169685581Y-162464750D01*
X169678349Y-162484962D01*
X169669170Y-162504368D01*
X169658134Y-162522781D01*
X169645346Y-162540024D01*
X169630930Y-162555930D01*
X169615024Y-162570346D01*
X169597781Y-162583134D01*
X169579368Y-162594170D01*
X169559962Y-162603349D01*
X169539750Y-162610581D01*
X169518926Y-162615797D01*
X169497691Y-162618947D01*
X169476250Y-162620000D01*
X168963750Y-162620000D01*
X168942309Y-162618947D01*
X168921074Y-162615797D01*
X168900250Y-162610581D01*
X168880038Y-162603349D01*
X168860632Y-162594170D01*
X168842219Y-162583134D01*
X168824976Y-162570346D01*
X168809070Y-162555930D01*
X168794654Y-162540024D01*
X168781866Y-162522781D01*
X168770830Y-162504368D01*
X168761651Y-162484962D01*
X168754419Y-162464750D01*
X168749203Y-162443926D01*
X168746053Y-162422691D01*
X168745000Y-162401250D01*
X168745000Y-161963750D01*
X168746053Y-161942309D01*
X168749203Y-161921074D01*
X168754419Y-161900250D01*
X168761651Y-161880038D01*
X168770830Y-161860632D01*
X168781866Y-161842219D01*
X168794654Y-161824976D01*
X168809070Y-161809070D01*
X168824976Y-161794654D01*
X168842219Y-161781866D01*
X168860632Y-161770830D01*
X168880038Y-161761651D01*
X168900250Y-161754419D01*
X168921074Y-161749203D01*
X168942309Y-161746053D01*
X168963750Y-161745000D01*
X169476250Y-161745000D01*
X169497691Y-161746053D01*
X169497691Y-161746053D01*
G37*
D12*
X169220000Y-162182500D03*
D11*
G36*
X176192691Y-146846053D02*
G01*
X176213926Y-146849203D01*
X176234750Y-146854419D01*
X176254962Y-146861651D01*
X176274368Y-146870830D01*
X176292781Y-146881866D01*
X176310024Y-146894654D01*
X176325930Y-146909070D01*
X176340346Y-146924976D01*
X176353134Y-146942219D01*
X176364170Y-146960632D01*
X176373349Y-146980038D01*
X176380581Y-147000250D01*
X176385797Y-147021074D01*
X176388947Y-147042309D01*
X176390000Y-147063750D01*
X176390000Y-147576250D01*
X176388947Y-147597691D01*
X176385797Y-147618926D01*
X176380581Y-147639750D01*
X176373349Y-147659962D01*
X176364170Y-147679368D01*
X176353134Y-147697781D01*
X176340346Y-147715024D01*
X176325930Y-147730930D01*
X176310024Y-147745346D01*
X176292781Y-147758134D01*
X176274368Y-147769170D01*
X176254962Y-147778349D01*
X176234750Y-147785581D01*
X176213926Y-147790797D01*
X176192691Y-147793947D01*
X176171250Y-147795000D01*
X175733750Y-147795000D01*
X175712309Y-147793947D01*
X175691074Y-147790797D01*
X175670250Y-147785581D01*
X175650038Y-147778349D01*
X175630632Y-147769170D01*
X175612219Y-147758134D01*
X175594976Y-147745346D01*
X175579070Y-147730930D01*
X175564654Y-147715024D01*
X175551866Y-147697781D01*
X175540830Y-147679368D01*
X175531651Y-147659962D01*
X175524419Y-147639750D01*
X175519203Y-147618926D01*
X175516053Y-147597691D01*
X175515000Y-147576250D01*
X175515000Y-147063750D01*
X175516053Y-147042309D01*
X175519203Y-147021074D01*
X175524419Y-147000250D01*
X175531651Y-146980038D01*
X175540830Y-146960632D01*
X175551866Y-146942219D01*
X175564654Y-146924976D01*
X175579070Y-146909070D01*
X175594976Y-146894654D01*
X175612219Y-146881866D01*
X175630632Y-146870830D01*
X175650038Y-146861651D01*
X175670250Y-146854419D01*
X175691074Y-146849203D01*
X175712309Y-146846053D01*
X175733750Y-146845000D01*
X176171250Y-146845000D01*
X176192691Y-146846053D01*
X176192691Y-146846053D01*
G37*
D12*
X175952500Y-147320000D03*
D11*
G36*
X177767691Y-146846053D02*
G01*
X177788926Y-146849203D01*
X177809750Y-146854419D01*
X177829962Y-146861651D01*
X177849368Y-146870830D01*
X177867781Y-146881866D01*
X177885024Y-146894654D01*
X177900930Y-146909070D01*
X177915346Y-146924976D01*
X177928134Y-146942219D01*
X177939170Y-146960632D01*
X177948349Y-146980038D01*
X177955581Y-147000250D01*
X177960797Y-147021074D01*
X177963947Y-147042309D01*
X177965000Y-147063750D01*
X177965000Y-147576250D01*
X177963947Y-147597691D01*
X177960797Y-147618926D01*
X177955581Y-147639750D01*
X177948349Y-147659962D01*
X177939170Y-147679368D01*
X177928134Y-147697781D01*
X177915346Y-147715024D01*
X177900930Y-147730930D01*
X177885024Y-147745346D01*
X177867781Y-147758134D01*
X177849368Y-147769170D01*
X177829962Y-147778349D01*
X177809750Y-147785581D01*
X177788926Y-147790797D01*
X177767691Y-147793947D01*
X177746250Y-147795000D01*
X177308750Y-147795000D01*
X177287309Y-147793947D01*
X177266074Y-147790797D01*
X177245250Y-147785581D01*
X177225038Y-147778349D01*
X177205632Y-147769170D01*
X177187219Y-147758134D01*
X177169976Y-147745346D01*
X177154070Y-147730930D01*
X177139654Y-147715024D01*
X177126866Y-147697781D01*
X177115830Y-147679368D01*
X177106651Y-147659962D01*
X177099419Y-147639750D01*
X177094203Y-147618926D01*
X177091053Y-147597691D01*
X177090000Y-147576250D01*
X177090000Y-147063750D01*
X177091053Y-147042309D01*
X177094203Y-147021074D01*
X177099419Y-147000250D01*
X177106651Y-146980038D01*
X177115830Y-146960632D01*
X177126866Y-146942219D01*
X177139654Y-146924976D01*
X177154070Y-146909070D01*
X177169976Y-146894654D01*
X177187219Y-146881866D01*
X177205632Y-146870830D01*
X177225038Y-146861651D01*
X177245250Y-146854419D01*
X177266074Y-146849203D01*
X177287309Y-146846053D01*
X177308750Y-146845000D01*
X177746250Y-146845000D01*
X177767691Y-146846053D01*
X177767691Y-146846053D01*
G37*
D12*
X177527500Y-147320000D03*
D11*
G36*
X184687691Y-161746053D02*
G01*
X184708926Y-161749203D01*
X184729750Y-161754419D01*
X184749962Y-161761651D01*
X184769368Y-161770830D01*
X184787781Y-161781866D01*
X184805024Y-161794654D01*
X184820930Y-161809070D01*
X184835346Y-161824976D01*
X184848134Y-161842219D01*
X184859170Y-161860632D01*
X184868349Y-161880038D01*
X184875581Y-161900250D01*
X184880797Y-161921074D01*
X184883947Y-161942309D01*
X184885000Y-161963750D01*
X184885000Y-162401250D01*
X184883947Y-162422691D01*
X184880797Y-162443926D01*
X184875581Y-162464750D01*
X184868349Y-162484962D01*
X184859170Y-162504368D01*
X184848134Y-162522781D01*
X184835346Y-162540024D01*
X184820930Y-162555930D01*
X184805024Y-162570346D01*
X184787781Y-162583134D01*
X184769368Y-162594170D01*
X184749962Y-162603349D01*
X184729750Y-162610581D01*
X184708926Y-162615797D01*
X184687691Y-162618947D01*
X184666250Y-162620000D01*
X184153750Y-162620000D01*
X184132309Y-162618947D01*
X184111074Y-162615797D01*
X184090250Y-162610581D01*
X184070038Y-162603349D01*
X184050632Y-162594170D01*
X184032219Y-162583134D01*
X184014976Y-162570346D01*
X183999070Y-162555930D01*
X183984654Y-162540024D01*
X183971866Y-162522781D01*
X183960830Y-162504368D01*
X183951651Y-162484962D01*
X183944419Y-162464750D01*
X183939203Y-162443926D01*
X183936053Y-162422691D01*
X183935000Y-162401250D01*
X183935000Y-161963750D01*
X183936053Y-161942309D01*
X183939203Y-161921074D01*
X183944419Y-161900250D01*
X183951651Y-161880038D01*
X183960830Y-161860632D01*
X183971866Y-161842219D01*
X183984654Y-161824976D01*
X183999070Y-161809070D01*
X184014976Y-161794654D01*
X184032219Y-161781866D01*
X184050632Y-161770830D01*
X184070038Y-161761651D01*
X184090250Y-161754419D01*
X184111074Y-161749203D01*
X184132309Y-161746053D01*
X184153750Y-161745000D01*
X184666250Y-161745000D01*
X184687691Y-161746053D01*
X184687691Y-161746053D01*
G37*
D12*
X184410000Y-162182500D03*
D11*
G36*
X184687691Y-163321053D02*
G01*
X184708926Y-163324203D01*
X184729750Y-163329419D01*
X184749962Y-163336651D01*
X184769368Y-163345830D01*
X184787781Y-163356866D01*
X184805024Y-163369654D01*
X184820930Y-163384070D01*
X184835346Y-163399976D01*
X184848134Y-163417219D01*
X184859170Y-163435632D01*
X184868349Y-163455038D01*
X184875581Y-163475250D01*
X184880797Y-163496074D01*
X184883947Y-163517309D01*
X184885000Y-163538750D01*
X184885000Y-163976250D01*
X184883947Y-163997691D01*
X184880797Y-164018926D01*
X184875581Y-164039750D01*
X184868349Y-164059962D01*
X184859170Y-164079368D01*
X184848134Y-164097781D01*
X184835346Y-164115024D01*
X184820930Y-164130930D01*
X184805024Y-164145346D01*
X184787781Y-164158134D01*
X184769368Y-164169170D01*
X184749962Y-164178349D01*
X184729750Y-164185581D01*
X184708926Y-164190797D01*
X184687691Y-164193947D01*
X184666250Y-164195000D01*
X184153750Y-164195000D01*
X184132309Y-164193947D01*
X184111074Y-164190797D01*
X184090250Y-164185581D01*
X184070038Y-164178349D01*
X184050632Y-164169170D01*
X184032219Y-164158134D01*
X184014976Y-164145346D01*
X183999070Y-164130930D01*
X183984654Y-164115024D01*
X183971866Y-164097781D01*
X183960830Y-164079368D01*
X183951651Y-164059962D01*
X183944419Y-164039750D01*
X183939203Y-164018926D01*
X183936053Y-163997691D01*
X183935000Y-163976250D01*
X183935000Y-163538750D01*
X183936053Y-163517309D01*
X183939203Y-163496074D01*
X183944419Y-163475250D01*
X183951651Y-163455038D01*
X183960830Y-163435632D01*
X183971866Y-163417219D01*
X183984654Y-163399976D01*
X183999070Y-163384070D01*
X184014976Y-163369654D01*
X184032219Y-163356866D01*
X184050632Y-163345830D01*
X184070038Y-163336651D01*
X184090250Y-163329419D01*
X184111074Y-163324203D01*
X184132309Y-163321053D01*
X184153750Y-163320000D01*
X184666250Y-163320000D01*
X184687691Y-163321053D01*
X184687691Y-163321053D01*
G37*
D12*
X184410000Y-163757500D03*
D11*
G36*
X177767691Y-148686053D02*
G01*
X177788926Y-148689203D01*
X177809750Y-148694419D01*
X177829962Y-148701651D01*
X177849368Y-148710830D01*
X177867781Y-148721866D01*
X177885024Y-148734654D01*
X177900930Y-148749070D01*
X177915346Y-148764976D01*
X177928134Y-148782219D01*
X177939170Y-148800632D01*
X177948349Y-148820038D01*
X177955581Y-148840250D01*
X177960797Y-148861074D01*
X177963947Y-148882309D01*
X177965000Y-148903750D01*
X177965000Y-149416250D01*
X177963947Y-149437691D01*
X177960797Y-149458926D01*
X177955581Y-149479750D01*
X177948349Y-149499962D01*
X177939170Y-149519368D01*
X177928134Y-149537781D01*
X177915346Y-149555024D01*
X177900930Y-149570930D01*
X177885024Y-149585346D01*
X177867781Y-149598134D01*
X177849368Y-149609170D01*
X177829962Y-149618349D01*
X177809750Y-149625581D01*
X177788926Y-149630797D01*
X177767691Y-149633947D01*
X177746250Y-149635000D01*
X177308750Y-149635000D01*
X177287309Y-149633947D01*
X177266074Y-149630797D01*
X177245250Y-149625581D01*
X177225038Y-149618349D01*
X177205632Y-149609170D01*
X177187219Y-149598134D01*
X177169976Y-149585346D01*
X177154070Y-149570930D01*
X177139654Y-149555024D01*
X177126866Y-149537781D01*
X177115830Y-149519368D01*
X177106651Y-149499962D01*
X177099419Y-149479750D01*
X177094203Y-149458926D01*
X177091053Y-149437691D01*
X177090000Y-149416250D01*
X177090000Y-148903750D01*
X177091053Y-148882309D01*
X177094203Y-148861074D01*
X177099419Y-148840250D01*
X177106651Y-148820038D01*
X177115830Y-148800632D01*
X177126866Y-148782219D01*
X177139654Y-148764976D01*
X177154070Y-148749070D01*
X177169976Y-148734654D01*
X177187219Y-148721866D01*
X177205632Y-148710830D01*
X177225038Y-148701651D01*
X177245250Y-148694419D01*
X177266074Y-148689203D01*
X177287309Y-148686053D01*
X177308750Y-148685000D01*
X177746250Y-148685000D01*
X177767691Y-148686053D01*
X177767691Y-148686053D01*
G37*
D12*
X177527500Y-149160000D03*
D11*
G36*
X176192691Y-148686053D02*
G01*
X176213926Y-148689203D01*
X176234750Y-148694419D01*
X176254962Y-148701651D01*
X176274368Y-148710830D01*
X176292781Y-148721866D01*
X176310024Y-148734654D01*
X176325930Y-148749070D01*
X176340346Y-148764976D01*
X176353134Y-148782219D01*
X176364170Y-148800632D01*
X176373349Y-148820038D01*
X176380581Y-148840250D01*
X176385797Y-148861074D01*
X176388947Y-148882309D01*
X176390000Y-148903750D01*
X176390000Y-149416250D01*
X176388947Y-149437691D01*
X176385797Y-149458926D01*
X176380581Y-149479750D01*
X176373349Y-149499962D01*
X176364170Y-149519368D01*
X176353134Y-149537781D01*
X176340346Y-149555024D01*
X176325930Y-149570930D01*
X176310024Y-149585346D01*
X176292781Y-149598134D01*
X176274368Y-149609170D01*
X176254962Y-149618349D01*
X176234750Y-149625581D01*
X176213926Y-149630797D01*
X176192691Y-149633947D01*
X176171250Y-149635000D01*
X175733750Y-149635000D01*
X175712309Y-149633947D01*
X175691074Y-149630797D01*
X175670250Y-149625581D01*
X175650038Y-149618349D01*
X175630632Y-149609170D01*
X175612219Y-149598134D01*
X175594976Y-149585346D01*
X175579070Y-149570930D01*
X175564654Y-149555024D01*
X175551866Y-149537781D01*
X175540830Y-149519368D01*
X175531651Y-149499962D01*
X175524419Y-149479750D01*
X175519203Y-149458926D01*
X175516053Y-149437691D01*
X175515000Y-149416250D01*
X175515000Y-148903750D01*
X175516053Y-148882309D01*
X175519203Y-148861074D01*
X175524419Y-148840250D01*
X175531651Y-148820038D01*
X175540830Y-148800632D01*
X175551866Y-148782219D01*
X175564654Y-148764976D01*
X175579070Y-148749070D01*
X175594976Y-148734654D01*
X175612219Y-148721866D01*
X175630632Y-148710830D01*
X175650038Y-148701651D01*
X175670250Y-148694419D01*
X175691074Y-148689203D01*
X175712309Y-148686053D01*
X175733750Y-148685000D01*
X176171250Y-148685000D01*
X176192691Y-148686053D01*
X176192691Y-148686053D01*
G37*
D12*
X175952500Y-149160000D03*
D11*
G36*
X176542691Y-156216053D02*
G01*
X176563926Y-156219203D01*
X176584750Y-156224419D01*
X176604962Y-156231651D01*
X176624368Y-156240830D01*
X176642781Y-156251866D01*
X176660024Y-156264654D01*
X176675930Y-156279070D01*
X176690346Y-156294976D01*
X176703134Y-156312219D01*
X176714170Y-156330632D01*
X176723349Y-156350038D01*
X176730581Y-156370250D01*
X176735797Y-156391074D01*
X176738947Y-156412309D01*
X176740000Y-156433750D01*
X176740000Y-156946250D01*
X176738947Y-156967691D01*
X176735797Y-156988926D01*
X176730581Y-157009750D01*
X176723349Y-157029962D01*
X176714170Y-157049368D01*
X176703134Y-157067781D01*
X176690346Y-157085024D01*
X176675930Y-157100930D01*
X176660024Y-157115346D01*
X176642781Y-157128134D01*
X176624368Y-157139170D01*
X176604962Y-157148349D01*
X176584750Y-157155581D01*
X176563926Y-157160797D01*
X176542691Y-157163947D01*
X176521250Y-157165000D01*
X176083750Y-157165000D01*
X176062309Y-157163947D01*
X176041074Y-157160797D01*
X176020250Y-157155581D01*
X176000038Y-157148349D01*
X175980632Y-157139170D01*
X175962219Y-157128134D01*
X175944976Y-157115346D01*
X175929070Y-157100930D01*
X175914654Y-157085024D01*
X175901866Y-157067781D01*
X175890830Y-157049368D01*
X175881651Y-157029962D01*
X175874419Y-157009750D01*
X175869203Y-156988926D01*
X175866053Y-156967691D01*
X175865000Y-156946250D01*
X175865000Y-156433750D01*
X175866053Y-156412309D01*
X175869203Y-156391074D01*
X175874419Y-156370250D01*
X175881651Y-156350038D01*
X175890830Y-156330632D01*
X175901866Y-156312219D01*
X175914654Y-156294976D01*
X175929070Y-156279070D01*
X175944976Y-156264654D01*
X175962219Y-156251866D01*
X175980632Y-156240830D01*
X176000038Y-156231651D01*
X176020250Y-156224419D01*
X176041074Y-156219203D01*
X176062309Y-156216053D01*
X176083750Y-156215000D01*
X176521250Y-156215000D01*
X176542691Y-156216053D01*
X176542691Y-156216053D01*
G37*
D12*
X176302500Y-156690000D03*
D11*
G36*
X178117691Y-156216053D02*
G01*
X178138926Y-156219203D01*
X178159750Y-156224419D01*
X178179962Y-156231651D01*
X178199368Y-156240830D01*
X178217781Y-156251866D01*
X178235024Y-156264654D01*
X178250930Y-156279070D01*
X178265346Y-156294976D01*
X178278134Y-156312219D01*
X178289170Y-156330632D01*
X178298349Y-156350038D01*
X178305581Y-156370250D01*
X178310797Y-156391074D01*
X178313947Y-156412309D01*
X178315000Y-156433750D01*
X178315000Y-156946250D01*
X178313947Y-156967691D01*
X178310797Y-156988926D01*
X178305581Y-157009750D01*
X178298349Y-157029962D01*
X178289170Y-157049368D01*
X178278134Y-157067781D01*
X178265346Y-157085024D01*
X178250930Y-157100930D01*
X178235024Y-157115346D01*
X178217781Y-157128134D01*
X178199368Y-157139170D01*
X178179962Y-157148349D01*
X178159750Y-157155581D01*
X178138926Y-157160797D01*
X178117691Y-157163947D01*
X178096250Y-157165000D01*
X177658750Y-157165000D01*
X177637309Y-157163947D01*
X177616074Y-157160797D01*
X177595250Y-157155581D01*
X177575038Y-157148349D01*
X177555632Y-157139170D01*
X177537219Y-157128134D01*
X177519976Y-157115346D01*
X177504070Y-157100930D01*
X177489654Y-157085024D01*
X177476866Y-157067781D01*
X177465830Y-157049368D01*
X177456651Y-157029962D01*
X177449419Y-157009750D01*
X177444203Y-156988926D01*
X177441053Y-156967691D01*
X177440000Y-156946250D01*
X177440000Y-156433750D01*
X177441053Y-156412309D01*
X177444203Y-156391074D01*
X177449419Y-156370250D01*
X177456651Y-156350038D01*
X177465830Y-156330632D01*
X177476866Y-156312219D01*
X177489654Y-156294976D01*
X177504070Y-156279070D01*
X177519976Y-156264654D01*
X177537219Y-156251866D01*
X177555632Y-156240830D01*
X177575038Y-156231651D01*
X177595250Y-156224419D01*
X177616074Y-156219203D01*
X177637309Y-156216053D01*
X177658750Y-156215000D01*
X178096250Y-156215000D01*
X178117691Y-156216053D01*
X178117691Y-156216053D01*
G37*
D12*
X177877500Y-156690000D03*
M02*
