G04 #@! TF.GenerationSoftware,KiCad,Pcbnew,(5.1.0)-1*
G04 #@! TF.CreationDate,2019-06-02T04:00:08-06:00*
G04 #@! TF.ProjectId,hcrn,6863726e-2e6b-4696-9361-645f70636258,0.1*
G04 #@! TF.SameCoordinates,Original*
G04 #@! TF.FileFunction,Other,Fab,Top*
%FSLAX46Y46*%
G04 Gerber Fmt 4.6, Leading zero omitted, Abs format (unit mm)*
G04 Created by KiCad (PCBNEW (5.1.0)-1) date 2019-06-02 04:00:08*
%MOMM*%
%LPD*%
G04 APERTURE LIST*
%ADD10C,0.150000*%
%ADD11C,0.120000*%
%ADD12C,0.100000*%
%ADD13C,0.060000*%
G04 APERTURE END LIST*
D10*
X170373333Y-164766666D02*
X170849523Y-164766666D01*
X170278095Y-165052380D02*
X170611428Y-164052380D01*
X170944761Y-165052380D01*
X171278095Y-165052380D02*
X171278095Y-164052380D01*
X171611428Y-164766666D01*
X171944761Y-164052380D01*
X171944761Y-165052380D01*
X172754285Y-164528571D02*
X172897142Y-164576190D01*
X172944761Y-164623809D01*
X172992380Y-164719047D01*
X172992380Y-164861904D01*
X172944761Y-164957142D01*
X172897142Y-165004761D01*
X172801904Y-165052380D01*
X172420952Y-165052380D01*
X172420952Y-164052380D01*
X172754285Y-164052380D01*
X172849523Y-164100000D01*
X172897142Y-164147619D01*
X172944761Y-164242857D01*
X172944761Y-164338095D01*
X172897142Y-164433333D01*
X172849523Y-164480952D01*
X172754285Y-164528571D01*
X172420952Y-164528571D01*
X173420952Y-164528571D02*
X173754285Y-164528571D01*
X173897142Y-165052380D02*
X173420952Y-165052380D01*
X173420952Y-164052380D01*
X173897142Y-164052380D01*
X174897142Y-165052380D02*
X174563809Y-164576190D01*
X174325714Y-165052380D02*
X174325714Y-164052380D01*
X174706666Y-164052380D01*
X174801904Y-164100000D01*
X174849523Y-164147619D01*
X174897142Y-164242857D01*
X174897142Y-164385714D01*
X174849523Y-164480952D01*
X174801904Y-164528571D01*
X174706666Y-164576190D01*
X174325714Y-164576190D01*
X185788095Y-164866666D02*
X186264285Y-164866666D01*
X185692857Y-165152380D02*
X186026190Y-164152380D01*
X186359523Y-165152380D01*
X186692857Y-165152380D02*
X186692857Y-164152380D01*
X187026190Y-164866666D01*
X187359523Y-164152380D01*
X187359523Y-165152380D01*
X188169047Y-164628571D02*
X188311904Y-164676190D01*
X188359523Y-164723809D01*
X188407142Y-164819047D01*
X188407142Y-164961904D01*
X188359523Y-165057142D01*
X188311904Y-165104761D01*
X188216666Y-165152380D01*
X187835714Y-165152380D01*
X187835714Y-164152380D01*
X188169047Y-164152380D01*
X188264285Y-164200000D01*
X188311904Y-164247619D01*
X188359523Y-164342857D01*
X188359523Y-164438095D01*
X188311904Y-164533333D01*
X188264285Y-164580952D01*
X188169047Y-164628571D01*
X187835714Y-164628571D01*
X188835714Y-164628571D02*
X189169047Y-164628571D01*
X189311904Y-165152380D02*
X188835714Y-165152380D01*
X188835714Y-164152380D01*
X189311904Y-164152380D01*
X190311904Y-165152380D02*
X189978571Y-164676190D01*
X189740476Y-165152380D02*
X189740476Y-164152380D01*
X190121428Y-164152380D01*
X190216666Y-164200000D01*
X190264285Y-164247619D01*
X190311904Y-164342857D01*
X190311904Y-164485714D01*
X190264285Y-164580952D01*
X190216666Y-164628571D01*
X190121428Y-164676190D01*
X189740476Y-164676190D01*
X179017142Y-158862380D02*
X179017142Y-157862380D01*
X179398095Y-157862380D01*
X179493333Y-157910000D01*
X179540952Y-157957619D01*
X179588571Y-158052857D01*
X179588571Y-158195714D01*
X179540952Y-158290952D01*
X179493333Y-158338571D01*
X179398095Y-158386190D01*
X179017142Y-158386190D01*
X180017142Y-157862380D02*
X180017142Y-158671904D01*
X180064761Y-158767142D01*
X180112380Y-158814761D01*
X180207619Y-158862380D01*
X180398095Y-158862380D01*
X180493333Y-158814761D01*
X180540952Y-158767142D01*
X180588571Y-158671904D01*
X180588571Y-157862380D01*
X181636190Y-158862380D02*
X181302857Y-158386190D01*
X181064761Y-158862380D02*
X181064761Y-157862380D01*
X181445714Y-157862380D01*
X181540952Y-157910000D01*
X181588571Y-157957619D01*
X181636190Y-158052857D01*
X181636190Y-158195714D01*
X181588571Y-158290952D01*
X181540952Y-158338571D01*
X181445714Y-158386190D01*
X181064761Y-158386190D01*
X182064761Y-158862380D02*
X182064761Y-157862380D01*
X182445714Y-157862380D01*
X182540952Y-157910000D01*
X182588571Y-157957619D01*
X182636190Y-158052857D01*
X182636190Y-158195714D01*
X182588571Y-158290952D01*
X182540952Y-158338571D01*
X182445714Y-158386190D01*
X182064761Y-158386190D01*
X183540952Y-158862380D02*
X183064761Y-158862380D01*
X183064761Y-157862380D01*
X183874285Y-158338571D02*
X184207619Y-158338571D01*
X184350476Y-158862380D02*
X183874285Y-158862380D01*
X183874285Y-157862380D01*
X184350476Y-157862380D01*
X165273333Y-153966666D02*
X165749523Y-153966666D01*
X165178095Y-154252380D02*
X165511428Y-153252380D01*
X165844761Y-154252380D01*
X166178095Y-154252380D02*
X166178095Y-153252380D01*
X166511428Y-153966666D01*
X166844761Y-153252380D01*
X166844761Y-154252380D01*
X167654285Y-153728571D02*
X167797142Y-153776190D01*
X167844761Y-153823809D01*
X167892380Y-153919047D01*
X167892380Y-154061904D01*
X167844761Y-154157142D01*
X167797142Y-154204761D01*
X167701904Y-154252380D01*
X167320952Y-154252380D01*
X167320952Y-153252380D01*
X167654285Y-153252380D01*
X167749523Y-153300000D01*
X167797142Y-153347619D01*
X167844761Y-153442857D01*
X167844761Y-153538095D01*
X167797142Y-153633333D01*
X167749523Y-153680952D01*
X167654285Y-153728571D01*
X167320952Y-153728571D01*
X168320952Y-153728571D02*
X168654285Y-153728571D01*
X168797142Y-154252380D02*
X168320952Y-154252380D01*
X168320952Y-153252380D01*
X168797142Y-153252380D01*
X169797142Y-154252380D02*
X169463809Y-153776190D01*
X169225714Y-154252380D02*
X169225714Y-153252380D01*
X169606666Y-153252380D01*
X169701904Y-153300000D01*
X169749523Y-153347619D01*
X169797142Y-153442857D01*
X169797142Y-153585714D01*
X169749523Y-153680952D01*
X169701904Y-153728571D01*
X169606666Y-153776190D01*
X169225714Y-153776190D01*
X192323333Y-153926666D02*
X192799523Y-153926666D01*
X192228095Y-154212380D02*
X192561428Y-153212380D01*
X192894761Y-154212380D01*
X193228095Y-154212380D02*
X193228095Y-153212380D01*
X193561428Y-153926666D01*
X193894761Y-153212380D01*
X193894761Y-154212380D01*
X194704285Y-153688571D02*
X194847142Y-153736190D01*
X194894761Y-153783809D01*
X194942380Y-153879047D01*
X194942380Y-154021904D01*
X194894761Y-154117142D01*
X194847142Y-154164761D01*
X194751904Y-154212380D01*
X194370952Y-154212380D01*
X194370952Y-153212380D01*
X194704285Y-153212380D01*
X194799523Y-153260000D01*
X194847142Y-153307619D01*
X194894761Y-153402857D01*
X194894761Y-153498095D01*
X194847142Y-153593333D01*
X194799523Y-153640952D01*
X194704285Y-153688571D01*
X194370952Y-153688571D01*
X195370952Y-153688571D02*
X195704285Y-153688571D01*
X195847142Y-154212380D02*
X195370952Y-154212380D01*
X195370952Y-153212380D01*
X195847142Y-153212380D01*
X196847142Y-154212380D02*
X196513809Y-153736190D01*
X196275714Y-154212380D02*
X196275714Y-153212380D01*
X196656666Y-153212380D01*
X196751904Y-153260000D01*
X196799523Y-153307619D01*
X196847142Y-153402857D01*
X196847142Y-153545714D01*
X196799523Y-153640952D01*
X196751904Y-153688571D01*
X196656666Y-153736190D01*
X196275714Y-153736190D01*
X178803333Y-152146666D02*
X179279523Y-152146666D01*
X178708095Y-152432380D02*
X179041428Y-151432380D01*
X179374761Y-152432380D01*
X179708095Y-152432380D02*
X179708095Y-151432380D01*
X180041428Y-152146666D01*
X180374761Y-151432380D01*
X180374761Y-152432380D01*
X181184285Y-151908571D02*
X181327142Y-151956190D01*
X181374761Y-152003809D01*
X181422380Y-152099047D01*
X181422380Y-152241904D01*
X181374761Y-152337142D01*
X181327142Y-152384761D01*
X181231904Y-152432380D01*
X180850952Y-152432380D01*
X180850952Y-151432380D01*
X181184285Y-151432380D01*
X181279523Y-151480000D01*
X181327142Y-151527619D01*
X181374761Y-151622857D01*
X181374761Y-151718095D01*
X181327142Y-151813333D01*
X181279523Y-151860952D01*
X181184285Y-151908571D01*
X180850952Y-151908571D01*
X181850952Y-151908571D02*
X182184285Y-151908571D01*
X182327142Y-152432380D02*
X181850952Y-152432380D01*
X181850952Y-151432380D01*
X182327142Y-151432380D01*
X183327142Y-152432380D02*
X182993809Y-151956190D01*
X182755714Y-152432380D02*
X182755714Y-151432380D01*
X183136666Y-151432380D01*
X183231904Y-151480000D01*
X183279523Y-151527619D01*
X183327142Y-151622857D01*
X183327142Y-151765714D01*
X183279523Y-151860952D01*
X183231904Y-151908571D01*
X183136666Y-151956190D01*
X182755714Y-151956190D01*
X185222857Y-136726666D02*
X185699047Y-136726666D01*
X185127619Y-137012380D02*
X185460952Y-136012380D01*
X185794285Y-137012380D01*
X186127619Y-137012380D02*
X186127619Y-136012380D01*
X186460952Y-136726666D01*
X186794285Y-136012380D01*
X186794285Y-137012380D01*
X187603809Y-136488571D02*
X187746666Y-136536190D01*
X187794285Y-136583809D01*
X187841904Y-136679047D01*
X187841904Y-136821904D01*
X187794285Y-136917142D01*
X187746666Y-136964761D01*
X187651428Y-137012380D01*
X187270476Y-137012380D01*
X187270476Y-136012380D01*
X187603809Y-136012380D01*
X187699047Y-136060000D01*
X187746666Y-136107619D01*
X187794285Y-136202857D01*
X187794285Y-136298095D01*
X187746666Y-136393333D01*
X187699047Y-136440952D01*
X187603809Y-136488571D01*
X187270476Y-136488571D01*
X188270476Y-136488571D02*
X188603809Y-136488571D01*
X188746666Y-137012380D02*
X188270476Y-137012380D01*
X188270476Y-136012380D01*
X188746666Y-136012380D01*
X189746666Y-137012380D02*
X189413333Y-136536190D01*
X189175238Y-137012380D02*
X189175238Y-136012380D01*
X189556190Y-136012380D01*
X189651428Y-136060000D01*
X189699047Y-136107619D01*
X189746666Y-136202857D01*
X189746666Y-136345714D01*
X189699047Y-136440952D01*
X189651428Y-136488571D01*
X189556190Y-136536190D01*
X189175238Y-136536190D01*
X154902857Y-136616666D02*
X155379047Y-136616666D01*
X154807619Y-136902380D02*
X155140952Y-135902380D01*
X155474285Y-136902380D01*
X155807619Y-136902380D02*
X155807619Y-135902380D01*
X156140952Y-136616666D01*
X156474285Y-135902380D01*
X156474285Y-136902380D01*
X157283809Y-136378571D02*
X157426666Y-136426190D01*
X157474285Y-136473809D01*
X157521904Y-136569047D01*
X157521904Y-136711904D01*
X157474285Y-136807142D01*
X157426666Y-136854761D01*
X157331428Y-136902380D01*
X156950476Y-136902380D01*
X156950476Y-135902380D01*
X157283809Y-135902380D01*
X157379047Y-135950000D01*
X157426666Y-135997619D01*
X157474285Y-136092857D01*
X157474285Y-136188095D01*
X157426666Y-136283333D01*
X157379047Y-136330952D01*
X157283809Y-136378571D01*
X156950476Y-136378571D01*
X157950476Y-136378571D02*
X158283809Y-136378571D01*
X158426666Y-136902380D02*
X157950476Y-136902380D01*
X157950476Y-135902380D01*
X158426666Y-135902380D01*
X159426666Y-136902380D02*
X159093333Y-136426190D01*
X158855238Y-136902380D02*
X158855238Y-135902380D01*
X159236190Y-135902380D01*
X159331428Y-135950000D01*
X159379047Y-135997619D01*
X159426666Y-136092857D01*
X159426666Y-136235714D01*
X159379047Y-136330952D01*
X159331428Y-136378571D01*
X159236190Y-136426190D01*
X158855238Y-136426190D01*
X143448095Y-105106666D02*
X143924285Y-105106666D01*
X143352857Y-105392380D02*
X143686190Y-104392380D01*
X144019523Y-105392380D01*
X144352857Y-105392380D02*
X144352857Y-104392380D01*
X144686190Y-105106666D01*
X145019523Y-104392380D01*
X145019523Y-105392380D01*
X145829047Y-104868571D02*
X145971904Y-104916190D01*
X146019523Y-104963809D01*
X146067142Y-105059047D01*
X146067142Y-105201904D01*
X146019523Y-105297142D01*
X145971904Y-105344761D01*
X145876666Y-105392380D01*
X145495714Y-105392380D01*
X145495714Y-104392380D01*
X145829047Y-104392380D01*
X145924285Y-104440000D01*
X145971904Y-104487619D01*
X146019523Y-104582857D01*
X146019523Y-104678095D01*
X145971904Y-104773333D01*
X145924285Y-104820952D01*
X145829047Y-104868571D01*
X145495714Y-104868571D01*
X146495714Y-104868571D02*
X146829047Y-104868571D01*
X146971904Y-105392380D02*
X146495714Y-105392380D01*
X146495714Y-104392380D01*
X146971904Y-104392380D01*
X147971904Y-105392380D02*
X147638571Y-104916190D01*
X147400476Y-105392380D02*
X147400476Y-104392380D01*
X147781428Y-104392380D01*
X147876666Y-104440000D01*
X147924285Y-104487619D01*
X147971904Y-104582857D01*
X147971904Y-104725714D01*
X147924285Y-104820952D01*
X147876666Y-104868571D01*
X147781428Y-104916190D01*
X147400476Y-104916190D01*
X189153333Y-125176666D02*
X189629523Y-125176666D01*
X189058095Y-125462380D02*
X189391428Y-124462380D01*
X189724761Y-125462380D01*
X190058095Y-125462380D02*
X190058095Y-124462380D01*
X190391428Y-125176666D01*
X190724761Y-124462380D01*
X190724761Y-125462380D01*
X191534285Y-124938571D02*
X191677142Y-124986190D01*
X191724761Y-125033809D01*
X191772380Y-125129047D01*
X191772380Y-125271904D01*
X191724761Y-125367142D01*
X191677142Y-125414761D01*
X191581904Y-125462380D01*
X191200952Y-125462380D01*
X191200952Y-124462380D01*
X191534285Y-124462380D01*
X191629523Y-124510000D01*
X191677142Y-124557619D01*
X191724761Y-124652857D01*
X191724761Y-124748095D01*
X191677142Y-124843333D01*
X191629523Y-124890952D01*
X191534285Y-124938571D01*
X191200952Y-124938571D01*
X192200952Y-124938571D02*
X192534285Y-124938571D01*
X192677142Y-125462380D02*
X192200952Y-125462380D01*
X192200952Y-124462380D01*
X192677142Y-124462380D01*
X193677142Y-125462380D02*
X193343809Y-124986190D01*
X193105714Y-125462380D02*
X193105714Y-124462380D01*
X193486666Y-124462380D01*
X193581904Y-124510000D01*
X193629523Y-124557619D01*
X193677142Y-124652857D01*
X193677142Y-124795714D01*
X193629523Y-124890952D01*
X193581904Y-124938571D01*
X193486666Y-124986190D01*
X193105714Y-124986190D01*
X166873333Y-125266666D02*
X167349523Y-125266666D01*
X166778095Y-125552380D02*
X167111428Y-124552380D01*
X167444761Y-125552380D01*
X167778095Y-125552380D02*
X167778095Y-124552380D01*
X168111428Y-125266666D01*
X168444761Y-124552380D01*
X168444761Y-125552380D01*
X169254285Y-125028571D02*
X169397142Y-125076190D01*
X169444761Y-125123809D01*
X169492380Y-125219047D01*
X169492380Y-125361904D01*
X169444761Y-125457142D01*
X169397142Y-125504761D01*
X169301904Y-125552380D01*
X168920952Y-125552380D01*
X168920952Y-124552380D01*
X169254285Y-124552380D01*
X169349523Y-124600000D01*
X169397142Y-124647619D01*
X169444761Y-124742857D01*
X169444761Y-124838095D01*
X169397142Y-124933333D01*
X169349523Y-124980952D01*
X169254285Y-125028571D01*
X168920952Y-125028571D01*
X169920952Y-125028571D02*
X170254285Y-125028571D01*
X170397142Y-125552380D02*
X169920952Y-125552380D01*
X169920952Y-124552380D01*
X170397142Y-124552380D01*
X171397142Y-125552380D02*
X171063809Y-125076190D01*
X170825714Y-125552380D02*
X170825714Y-124552380D01*
X171206666Y-124552380D01*
X171301904Y-124600000D01*
X171349523Y-124647619D01*
X171397142Y-124742857D01*
X171397142Y-124885714D01*
X171349523Y-124980952D01*
X171301904Y-125028571D01*
X171206666Y-125076190D01*
X170825714Y-125076190D01*
X166759524Y-108124666D02*
X167235714Y-108124666D01*
X166664286Y-108410380D02*
X166997619Y-107410380D01*
X167330952Y-108410380D01*
X167664286Y-108410380D02*
X167664286Y-107410380D01*
X167997619Y-108124666D01*
X168330952Y-107410380D01*
X168330952Y-108410380D01*
X169140476Y-107886571D02*
X169283333Y-107934190D01*
X169330952Y-107981809D01*
X169378571Y-108077047D01*
X169378571Y-108219904D01*
X169330952Y-108315142D01*
X169283333Y-108362761D01*
X169188095Y-108410380D01*
X168807143Y-108410380D01*
X168807143Y-107410380D01*
X169140476Y-107410380D01*
X169235714Y-107458000D01*
X169283333Y-107505619D01*
X169330952Y-107600857D01*
X169330952Y-107696095D01*
X169283333Y-107791333D01*
X169235714Y-107838952D01*
X169140476Y-107886571D01*
X168807143Y-107886571D01*
X169807143Y-107886571D02*
X170140476Y-107886571D01*
X170283333Y-108410380D02*
X169807143Y-108410380D01*
X169807143Y-107410380D01*
X170283333Y-107410380D01*
X171283333Y-108410380D02*
X170950000Y-107934190D01*
X170711905Y-108410380D02*
X170711905Y-107410380D01*
X171092857Y-107410380D01*
X171188095Y-107458000D01*
X171235714Y-107505619D01*
X171283333Y-107600857D01*
X171283333Y-107743714D01*
X171235714Y-107838952D01*
X171188095Y-107886571D01*
X171092857Y-107934190D01*
X170711905Y-107934190D01*
X189573333Y-108120666D02*
X190049523Y-108120666D01*
X189478095Y-108406380D02*
X189811428Y-107406380D01*
X190144761Y-108406380D01*
X190478095Y-108406380D02*
X190478095Y-107406380D01*
X190811428Y-108120666D01*
X191144761Y-107406380D01*
X191144761Y-108406380D01*
X191954285Y-107882571D02*
X192097142Y-107930190D01*
X192144761Y-107977809D01*
X192192380Y-108073047D01*
X192192380Y-108215904D01*
X192144761Y-108311142D01*
X192097142Y-108358761D01*
X192001904Y-108406380D01*
X191620952Y-108406380D01*
X191620952Y-107406380D01*
X191954285Y-107406380D01*
X192049523Y-107454000D01*
X192097142Y-107501619D01*
X192144761Y-107596857D01*
X192144761Y-107692095D01*
X192097142Y-107787333D01*
X192049523Y-107834952D01*
X191954285Y-107882571D01*
X191620952Y-107882571D01*
X192620952Y-107882571D02*
X192954285Y-107882571D01*
X193097142Y-108406380D02*
X192620952Y-108406380D01*
X192620952Y-107406380D01*
X193097142Y-107406380D01*
X194097142Y-108406380D02*
X193763809Y-107930190D01*
X193525714Y-108406380D02*
X193525714Y-107406380D01*
X193906666Y-107406380D01*
X194001904Y-107454000D01*
X194049523Y-107501619D01*
X194097142Y-107596857D01*
X194097142Y-107739714D01*
X194049523Y-107834952D01*
X194001904Y-107882571D01*
X193906666Y-107930190D01*
X193525714Y-107930190D01*
X217546190Y-101392380D02*
X217784285Y-102392380D01*
X217974761Y-101678095D01*
X218165238Y-102392380D01*
X218403333Y-101392380D01*
X218784285Y-102392380D02*
X218784285Y-101392380D01*
X218784285Y-101868571D02*
X219355714Y-101868571D01*
X219355714Y-102392380D02*
X219355714Y-101392380D01*
X219831904Y-102392380D02*
X219831904Y-101392380D01*
X220165238Y-101392380D02*
X220736666Y-101392380D01*
X220450952Y-102392380D02*
X220450952Y-101392380D01*
X221070000Y-101868571D02*
X221403333Y-101868571D01*
X221546190Y-102392380D02*
X221070000Y-102392380D01*
X221070000Y-101392380D01*
X221546190Y-101392380D01*
X211148095Y-103216666D02*
X211624285Y-103216666D01*
X211052857Y-103502380D02*
X211386190Y-102502380D01*
X211719523Y-103502380D01*
X212052857Y-103502380D02*
X212052857Y-102502380D01*
X212386190Y-103216666D01*
X212719523Y-102502380D01*
X212719523Y-103502380D01*
X213529047Y-102978571D02*
X213671904Y-103026190D01*
X213719523Y-103073809D01*
X213767142Y-103169047D01*
X213767142Y-103311904D01*
X213719523Y-103407142D01*
X213671904Y-103454761D01*
X213576666Y-103502380D01*
X213195714Y-103502380D01*
X213195714Y-102502380D01*
X213529047Y-102502380D01*
X213624285Y-102550000D01*
X213671904Y-102597619D01*
X213719523Y-102692857D01*
X213719523Y-102788095D01*
X213671904Y-102883333D01*
X213624285Y-102930952D01*
X213529047Y-102978571D01*
X213195714Y-102978571D01*
X214195714Y-102978571D02*
X214529047Y-102978571D01*
X214671904Y-103502380D02*
X214195714Y-103502380D01*
X214195714Y-102502380D01*
X214671904Y-102502380D01*
X215671904Y-103502380D02*
X215338571Y-103026190D01*
X215100476Y-103502380D02*
X215100476Y-102502380D01*
X215481428Y-102502380D01*
X215576666Y-102550000D01*
X215624285Y-102597619D01*
X215671904Y-102692857D01*
X215671904Y-102835714D01*
X215624285Y-102930952D01*
X215576666Y-102978571D01*
X215481428Y-103026190D01*
X215100476Y-103026190D01*
X187718095Y-94686666D02*
X188194285Y-94686666D01*
X187622857Y-94972380D02*
X187956190Y-93972380D01*
X188289523Y-94972380D01*
X188622857Y-94972380D02*
X188622857Y-93972380D01*
X188956190Y-94686666D01*
X189289523Y-93972380D01*
X189289523Y-94972380D01*
X190099047Y-94448571D02*
X190241904Y-94496190D01*
X190289523Y-94543809D01*
X190337142Y-94639047D01*
X190337142Y-94781904D01*
X190289523Y-94877142D01*
X190241904Y-94924761D01*
X190146666Y-94972380D01*
X189765714Y-94972380D01*
X189765714Y-93972380D01*
X190099047Y-93972380D01*
X190194285Y-94020000D01*
X190241904Y-94067619D01*
X190289523Y-94162857D01*
X190289523Y-94258095D01*
X190241904Y-94353333D01*
X190194285Y-94400952D01*
X190099047Y-94448571D01*
X189765714Y-94448571D01*
X190765714Y-94448571D02*
X191099047Y-94448571D01*
X191241904Y-94972380D02*
X190765714Y-94972380D01*
X190765714Y-93972380D01*
X191241904Y-93972380D01*
X192241904Y-94972380D02*
X191908571Y-94496190D01*
X191670476Y-94972380D02*
X191670476Y-93972380D01*
X192051428Y-93972380D01*
X192146666Y-94020000D01*
X192194285Y-94067619D01*
X192241904Y-94162857D01*
X192241904Y-94305714D01*
X192194285Y-94400952D01*
X192146666Y-94448571D01*
X192051428Y-94496190D01*
X191670476Y-94496190D01*
X161128095Y-94506666D02*
X161604285Y-94506666D01*
X161032857Y-94792380D02*
X161366190Y-93792380D01*
X161699523Y-94792380D01*
X162032857Y-94792380D02*
X162032857Y-93792380D01*
X162366190Y-94506666D01*
X162699523Y-93792380D01*
X162699523Y-94792380D01*
X163509047Y-94268571D02*
X163651904Y-94316190D01*
X163699523Y-94363809D01*
X163747142Y-94459047D01*
X163747142Y-94601904D01*
X163699523Y-94697142D01*
X163651904Y-94744761D01*
X163556666Y-94792380D01*
X163175714Y-94792380D01*
X163175714Y-93792380D01*
X163509047Y-93792380D01*
X163604285Y-93840000D01*
X163651904Y-93887619D01*
X163699523Y-93982857D01*
X163699523Y-94078095D01*
X163651904Y-94173333D01*
X163604285Y-94220952D01*
X163509047Y-94268571D01*
X163175714Y-94268571D01*
X164175714Y-94268571D02*
X164509047Y-94268571D01*
X164651904Y-94792380D02*
X164175714Y-94792380D01*
X164175714Y-93792380D01*
X164651904Y-93792380D01*
X165651904Y-94792380D02*
X165318571Y-94316190D01*
X165080476Y-94792380D02*
X165080476Y-93792380D01*
X165461428Y-93792380D01*
X165556666Y-93840000D01*
X165604285Y-93887619D01*
X165651904Y-93982857D01*
X165651904Y-94125714D01*
X165604285Y-94220952D01*
X165556666Y-94268571D01*
X165461428Y-94316190D01*
X165080476Y-94316190D01*
X152712380Y-85099044D02*
X152379047Y-84622854D01*
X152140952Y-85099044D02*
X152140952Y-84099044D01*
X152521904Y-84099044D01*
X152617142Y-84146664D01*
X152664761Y-84194283D01*
X152712380Y-84289521D01*
X152712380Y-84432378D01*
X152664761Y-84527616D01*
X152617142Y-84575235D01*
X152521904Y-84622854D01*
X152140952Y-84622854D01*
X153140952Y-84575235D02*
X153474285Y-84575235D01*
X153617142Y-85099044D02*
X153140952Y-85099044D01*
X153140952Y-84099044D01*
X153617142Y-84099044D01*
X154045714Y-85099044D02*
X154045714Y-84099044D01*
X154283809Y-84099044D01*
X154426666Y-84146664D01*
X154521904Y-84241902D01*
X154569523Y-84337140D01*
X154617142Y-84527616D01*
X154617142Y-84670473D01*
X154569523Y-84860949D01*
X154521904Y-84956187D01*
X154426666Y-85051425D01*
X154283809Y-85099044D01*
X154045714Y-85099044D01*
X152712380Y-82492378D02*
X152379047Y-82016188D01*
X152140952Y-82492378D02*
X152140952Y-81492378D01*
X152521904Y-81492378D01*
X152617142Y-81539998D01*
X152664761Y-81587617D01*
X152712380Y-81682855D01*
X152712380Y-81825712D01*
X152664761Y-81920950D01*
X152617142Y-81968569D01*
X152521904Y-82016188D01*
X152140952Y-82016188D01*
X153140952Y-81968569D02*
X153474285Y-81968569D01*
X153617142Y-82492378D02*
X153140952Y-82492378D01*
X153140952Y-81492378D01*
X153617142Y-81492378D01*
X154045714Y-82492378D02*
X154045714Y-81492378D01*
X154283809Y-81492378D01*
X154426666Y-81539998D01*
X154521904Y-81635236D01*
X154569523Y-81730474D01*
X154617142Y-81920950D01*
X154617142Y-82063807D01*
X154569523Y-82254283D01*
X154521904Y-82349521D01*
X154426666Y-82444759D01*
X154283809Y-82492378D01*
X154045714Y-82492378D01*
X152712380Y-79885712D02*
X152379047Y-79409522D01*
X152140952Y-79885712D02*
X152140952Y-78885712D01*
X152521904Y-78885712D01*
X152617142Y-78933332D01*
X152664761Y-78980951D01*
X152712380Y-79076189D01*
X152712380Y-79219046D01*
X152664761Y-79314284D01*
X152617142Y-79361903D01*
X152521904Y-79409522D01*
X152140952Y-79409522D01*
X153140952Y-79361903D02*
X153474285Y-79361903D01*
X153617142Y-79885712D02*
X153140952Y-79885712D01*
X153140952Y-78885712D01*
X153617142Y-78885712D01*
X154045714Y-79885712D02*
X154045714Y-78885712D01*
X154283809Y-78885712D01*
X154426666Y-78933332D01*
X154521904Y-79028570D01*
X154569523Y-79123808D01*
X154617142Y-79314284D01*
X154617142Y-79457141D01*
X154569523Y-79647617D01*
X154521904Y-79742855D01*
X154426666Y-79838093D01*
X154283809Y-79885712D01*
X154045714Y-79885712D01*
X152712380Y-77279046D02*
X152379047Y-76802856D01*
X152140952Y-77279046D02*
X152140952Y-76279046D01*
X152521904Y-76279046D01*
X152617142Y-76326666D01*
X152664761Y-76374285D01*
X152712380Y-76469523D01*
X152712380Y-76612380D01*
X152664761Y-76707618D01*
X152617142Y-76755237D01*
X152521904Y-76802856D01*
X152140952Y-76802856D01*
X153140952Y-76755237D02*
X153474285Y-76755237D01*
X153617142Y-77279046D02*
X153140952Y-77279046D01*
X153140952Y-76279046D01*
X153617142Y-76279046D01*
X154045714Y-77279046D02*
X154045714Y-76279046D01*
X154283809Y-76279046D01*
X154426666Y-76326666D01*
X154521904Y-76421904D01*
X154569523Y-76517142D01*
X154617142Y-76707618D01*
X154617142Y-76850475D01*
X154569523Y-77040951D01*
X154521904Y-77136189D01*
X154426666Y-77231427D01*
X154283809Y-77279046D01*
X154045714Y-77279046D01*
X152712380Y-74672380D02*
X152379047Y-74196190D01*
X152140952Y-74672380D02*
X152140952Y-73672380D01*
X152521904Y-73672380D01*
X152617142Y-73720000D01*
X152664761Y-73767619D01*
X152712380Y-73862857D01*
X152712380Y-74005714D01*
X152664761Y-74100952D01*
X152617142Y-74148571D01*
X152521904Y-74196190D01*
X152140952Y-74196190D01*
X153140952Y-74148571D02*
X153474285Y-74148571D01*
X153617142Y-74672380D02*
X153140952Y-74672380D01*
X153140952Y-73672380D01*
X153617142Y-73672380D01*
X154045714Y-74672380D02*
X154045714Y-73672380D01*
X154283809Y-73672380D01*
X154426666Y-73720000D01*
X154521904Y-73815238D01*
X154569523Y-73910476D01*
X154617142Y-74100952D01*
X154617142Y-74243809D01*
X154569523Y-74434285D01*
X154521904Y-74529523D01*
X154426666Y-74624761D01*
X154283809Y-74672380D01*
X154045714Y-74672380D01*
X194707142Y-53202380D02*
X194373809Y-52726190D01*
X194135714Y-53202380D02*
X194135714Y-52202380D01*
X194516666Y-52202380D01*
X194611904Y-52250000D01*
X194659523Y-52297619D01*
X194707142Y-52392857D01*
X194707142Y-52535714D01*
X194659523Y-52630952D01*
X194611904Y-52678571D01*
X194516666Y-52726190D01*
X194135714Y-52726190D01*
X195135714Y-52678571D02*
X195469047Y-52678571D01*
X195611904Y-53202380D02*
X195135714Y-53202380D01*
X195135714Y-52202380D01*
X195611904Y-52202380D01*
X196040476Y-53202380D02*
X196040476Y-52202380D01*
X196278571Y-52202380D01*
X196421428Y-52250000D01*
X196516666Y-52345238D01*
X196564285Y-52440476D01*
X196611904Y-52630952D01*
X196611904Y-52773809D01*
X196564285Y-52964285D01*
X196516666Y-53059523D01*
X196421428Y-53154761D01*
X196278571Y-53202380D01*
X196040476Y-53202380D01*
X157282380Y-53432380D02*
X156949047Y-52956190D01*
X156710952Y-53432380D02*
X156710952Y-52432380D01*
X157091904Y-52432380D01*
X157187142Y-52480000D01*
X157234761Y-52527619D01*
X157282380Y-52622857D01*
X157282380Y-52765714D01*
X157234761Y-52860952D01*
X157187142Y-52908571D01*
X157091904Y-52956190D01*
X156710952Y-52956190D01*
X157710952Y-52908571D02*
X158044285Y-52908571D01*
X158187142Y-53432380D02*
X157710952Y-53432380D01*
X157710952Y-52432380D01*
X158187142Y-52432380D01*
X158615714Y-53432380D02*
X158615714Y-52432380D01*
X158853809Y-52432380D01*
X158996666Y-52480000D01*
X159091904Y-52575238D01*
X159139523Y-52670476D01*
X159187142Y-52860952D01*
X159187142Y-53003809D01*
X159139523Y-53194285D01*
X159091904Y-53289523D01*
X158996666Y-53384761D01*
X158853809Y-53432380D01*
X158615714Y-53432380D01*
X178850951Y-148106380D02*
X178850951Y-147106380D01*
X179231904Y-147106380D01*
X179327142Y-147154000D01*
X179374761Y-147201619D01*
X179422380Y-147296857D01*
X179422380Y-147439714D01*
X179374761Y-147534952D01*
X179327142Y-147582571D01*
X179231904Y-147630190D01*
X178850951Y-147630190D01*
X179850951Y-147106380D02*
X179850951Y-147915904D01*
X179898570Y-148011142D01*
X179946189Y-148058761D01*
X180041428Y-148106380D01*
X180231904Y-148106380D01*
X180327142Y-148058761D01*
X180374761Y-148011142D01*
X180422380Y-147915904D01*
X180422380Y-147106380D01*
X181469999Y-148106380D02*
X181136666Y-147630190D01*
X180898570Y-148106380D02*
X180898570Y-147106380D01*
X181279523Y-147106380D01*
X181374761Y-147154000D01*
X181422380Y-147201619D01*
X181469999Y-147296857D01*
X181469999Y-147439714D01*
X181422380Y-147534952D01*
X181374761Y-147582571D01*
X181279523Y-147630190D01*
X180898570Y-147630190D01*
X181898570Y-148106380D02*
X181898570Y-147106380D01*
X182279523Y-147106380D01*
X182374761Y-147154000D01*
X182422380Y-147201619D01*
X182469999Y-147296857D01*
X182469999Y-147439714D01*
X182422380Y-147534952D01*
X182374761Y-147582571D01*
X182279523Y-147630190D01*
X181898570Y-147630190D01*
X183374761Y-148106380D02*
X182898570Y-148106380D01*
X182898570Y-147106380D01*
X183708094Y-147582571D02*
X184041428Y-147582571D01*
X184184285Y-148106380D02*
X183708094Y-148106380D01*
X183708094Y-147106380D01*
X184184285Y-147106380D01*
X194240951Y-136992380D02*
X194240951Y-135992380D01*
X194621904Y-135992380D01*
X194717142Y-136040000D01*
X194764761Y-136087619D01*
X194812380Y-136182857D01*
X194812380Y-136325714D01*
X194764761Y-136420952D01*
X194717142Y-136468571D01*
X194621904Y-136516190D01*
X194240951Y-136516190D01*
X195240951Y-135992380D02*
X195240951Y-136801904D01*
X195288570Y-136897142D01*
X195336189Y-136944761D01*
X195431428Y-136992380D01*
X195621904Y-136992380D01*
X195717142Y-136944761D01*
X195764761Y-136897142D01*
X195812380Y-136801904D01*
X195812380Y-135992380D01*
X196859999Y-136992380D02*
X196526666Y-136516190D01*
X196288570Y-136992380D02*
X196288570Y-135992380D01*
X196669523Y-135992380D01*
X196764761Y-136040000D01*
X196812380Y-136087619D01*
X196859999Y-136182857D01*
X196859999Y-136325714D01*
X196812380Y-136420952D01*
X196764761Y-136468571D01*
X196669523Y-136516190D01*
X196288570Y-136516190D01*
X197288570Y-136992380D02*
X197288570Y-135992380D01*
X197669523Y-135992380D01*
X197764761Y-136040000D01*
X197812380Y-136087619D01*
X197859999Y-136182857D01*
X197859999Y-136325714D01*
X197812380Y-136420952D01*
X197764761Y-136468571D01*
X197669523Y-136516190D01*
X197288570Y-136516190D01*
X198764761Y-136992380D02*
X198288570Y-136992380D01*
X198288570Y-135992380D01*
X199098094Y-136468571D02*
X199431428Y-136468571D01*
X199574285Y-136992380D02*
X199098094Y-136992380D01*
X199098094Y-135992380D01*
X199574285Y-135992380D01*
X164067142Y-136972380D02*
X164067142Y-135972380D01*
X164448095Y-135972380D01*
X164543333Y-136020000D01*
X164590952Y-136067619D01*
X164638571Y-136162857D01*
X164638571Y-136305714D01*
X164590952Y-136400952D01*
X164543333Y-136448571D01*
X164448095Y-136496190D01*
X164067142Y-136496190D01*
X165067142Y-135972380D02*
X165067142Y-136781904D01*
X165114761Y-136877142D01*
X165162380Y-136924761D01*
X165257619Y-136972380D01*
X165448095Y-136972380D01*
X165543333Y-136924761D01*
X165590952Y-136877142D01*
X165638571Y-136781904D01*
X165638571Y-135972380D01*
X166686190Y-136972380D02*
X166352857Y-136496190D01*
X166114761Y-136972380D02*
X166114761Y-135972380D01*
X166495714Y-135972380D01*
X166590952Y-136020000D01*
X166638571Y-136067619D01*
X166686190Y-136162857D01*
X166686190Y-136305714D01*
X166638571Y-136400952D01*
X166590952Y-136448571D01*
X166495714Y-136496190D01*
X166114761Y-136496190D01*
X167114761Y-136972380D02*
X167114761Y-135972380D01*
X167495714Y-135972380D01*
X167590952Y-136020000D01*
X167638571Y-136067619D01*
X167686190Y-136162857D01*
X167686190Y-136305714D01*
X167638571Y-136400952D01*
X167590952Y-136448571D01*
X167495714Y-136496190D01*
X167114761Y-136496190D01*
X168590952Y-136972380D02*
X168114761Y-136972380D01*
X168114761Y-135972380D01*
X168924285Y-136448571D02*
X169257619Y-136448571D01*
X169400476Y-136972380D02*
X168924285Y-136972380D01*
X168924285Y-135972380D01*
X169400476Y-135972380D01*
X166807142Y-112502380D02*
X166807142Y-111502380D01*
X167188095Y-111502380D01*
X167283333Y-111550000D01*
X167330952Y-111597619D01*
X167378571Y-111692857D01*
X167378571Y-111835714D01*
X167330952Y-111930952D01*
X167283333Y-111978571D01*
X167188095Y-112026190D01*
X166807142Y-112026190D01*
X167807142Y-111502380D02*
X167807142Y-112311904D01*
X167854761Y-112407142D01*
X167902380Y-112454761D01*
X167997619Y-112502380D01*
X168188095Y-112502380D01*
X168283333Y-112454761D01*
X168330952Y-112407142D01*
X168378571Y-112311904D01*
X168378571Y-111502380D01*
X169426190Y-112502380D02*
X169092857Y-112026190D01*
X168854761Y-112502380D02*
X168854761Y-111502380D01*
X169235714Y-111502380D01*
X169330952Y-111550000D01*
X169378571Y-111597619D01*
X169426190Y-111692857D01*
X169426190Y-111835714D01*
X169378571Y-111930952D01*
X169330952Y-111978571D01*
X169235714Y-112026190D01*
X168854761Y-112026190D01*
X169854761Y-112502380D02*
X169854761Y-111502380D01*
X170235714Y-111502380D01*
X170330952Y-111550000D01*
X170378571Y-111597619D01*
X170426190Y-111692857D01*
X170426190Y-111835714D01*
X170378571Y-111930952D01*
X170330952Y-111978571D01*
X170235714Y-112026190D01*
X169854761Y-112026190D01*
X171330952Y-112502380D02*
X170854761Y-112502380D01*
X170854761Y-111502380D01*
X171664285Y-111978571D02*
X171997619Y-111978571D01*
X172140476Y-112502380D02*
X171664285Y-112502380D01*
X171664285Y-111502380D01*
X172140476Y-111502380D01*
X189620951Y-112612380D02*
X189620951Y-111612380D01*
X190001904Y-111612380D01*
X190097142Y-111660000D01*
X190144761Y-111707619D01*
X190192380Y-111802857D01*
X190192380Y-111945714D01*
X190144761Y-112040952D01*
X190097142Y-112088571D01*
X190001904Y-112136190D01*
X189620951Y-112136190D01*
X190620951Y-111612380D02*
X190620951Y-112421904D01*
X190668570Y-112517142D01*
X190716189Y-112564761D01*
X190811428Y-112612380D01*
X191001904Y-112612380D01*
X191097142Y-112564761D01*
X191144761Y-112517142D01*
X191192380Y-112421904D01*
X191192380Y-111612380D01*
X192239999Y-112612380D02*
X191906666Y-112136190D01*
X191668570Y-112612380D02*
X191668570Y-111612380D01*
X192049523Y-111612380D01*
X192144761Y-111660000D01*
X192192380Y-111707619D01*
X192239999Y-111802857D01*
X192239999Y-111945714D01*
X192192380Y-112040952D01*
X192144761Y-112088571D01*
X192049523Y-112136190D01*
X191668570Y-112136190D01*
X192668570Y-112612380D02*
X192668570Y-111612380D01*
X193049523Y-111612380D01*
X193144761Y-111660000D01*
X193192380Y-111707619D01*
X193239999Y-111802857D01*
X193239999Y-111945714D01*
X193192380Y-112040952D01*
X193144761Y-112088571D01*
X193049523Y-112136190D01*
X192668570Y-112136190D01*
X194144761Y-112612380D02*
X193668570Y-112612380D01*
X193668570Y-111612380D01*
X194478094Y-112088571D02*
X194811428Y-112088571D01*
X194954285Y-112612380D02*
X194478094Y-112612380D01*
X194478094Y-111612380D01*
X194954285Y-111612380D01*
X179037142Y-42942380D02*
X179037142Y-41942380D01*
X179418095Y-41942380D01*
X179513333Y-41990000D01*
X179560952Y-42037619D01*
X179608571Y-42132857D01*
X179608571Y-42275714D01*
X179560952Y-42370952D01*
X179513333Y-42418571D01*
X179418095Y-42466190D01*
X179037142Y-42466190D01*
X180037142Y-41942380D02*
X180037142Y-42751904D01*
X180084761Y-42847142D01*
X180132380Y-42894761D01*
X180227619Y-42942380D01*
X180418095Y-42942380D01*
X180513333Y-42894761D01*
X180560952Y-42847142D01*
X180608571Y-42751904D01*
X180608571Y-41942380D01*
X181656190Y-42942380D02*
X181322857Y-42466190D01*
X181084761Y-42942380D02*
X181084761Y-41942380D01*
X181465714Y-41942380D01*
X181560952Y-41990000D01*
X181608571Y-42037619D01*
X181656190Y-42132857D01*
X181656190Y-42275714D01*
X181608571Y-42370952D01*
X181560952Y-42418571D01*
X181465714Y-42466190D01*
X181084761Y-42466190D01*
X182084761Y-42942380D02*
X182084761Y-41942380D01*
X182465714Y-41942380D01*
X182560952Y-41990000D01*
X182608571Y-42037619D01*
X182656190Y-42132857D01*
X182656190Y-42275714D01*
X182608571Y-42370952D01*
X182560952Y-42418571D01*
X182465714Y-42466190D01*
X182084761Y-42466190D01*
X183560952Y-42942380D02*
X183084761Y-42942380D01*
X183084761Y-41942380D01*
X183894285Y-42418571D02*
X184227619Y-42418571D01*
X184370476Y-42942380D02*
X183894285Y-42942380D01*
X183894285Y-41942380D01*
X184370476Y-41942380D01*
X170198095Y-42686666D02*
X170674285Y-42686666D01*
X170102857Y-42972380D02*
X170436190Y-41972380D01*
X170769523Y-42972380D01*
X171102857Y-42972380D02*
X171102857Y-41972380D01*
X171436190Y-42686666D01*
X171769523Y-41972380D01*
X171769523Y-42972380D01*
X172579047Y-42448571D02*
X172721904Y-42496190D01*
X172769523Y-42543809D01*
X172817142Y-42639047D01*
X172817142Y-42781904D01*
X172769523Y-42877142D01*
X172721904Y-42924761D01*
X172626666Y-42972380D01*
X172245714Y-42972380D01*
X172245714Y-41972380D01*
X172579047Y-41972380D01*
X172674285Y-42020000D01*
X172721904Y-42067619D01*
X172769523Y-42162857D01*
X172769523Y-42258095D01*
X172721904Y-42353333D01*
X172674285Y-42400952D01*
X172579047Y-42448571D01*
X172245714Y-42448571D01*
X173245714Y-42448571D02*
X173579047Y-42448571D01*
X173721904Y-42972380D02*
X173245714Y-42972380D01*
X173245714Y-41972380D01*
X173721904Y-41972380D01*
X174721904Y-42972380D02*
X174388571Y-42496190D01*
X174150476Y-42972380D02*
X174150476Y-41972380D01*
X174531428Y-41972380D01*
X174626666Y-42020000D01*
X174674285Y-42067619D01*
X174721904Y-42162857D01*
X174721904Y-42305714D01*
X174674285Y-42400952D01*
X174626666Y-42448571D01*
X174531428Y-42496190D01*
X174150476Y-42496190D01*
X184127142Y-31812380D02*
X183793809Y-31336190D01*
X183555714Y-31812380D02*
X183555714Y-30812380D01*
X183936666Y-30812380D01*
X184031904Y-30860000D01*
X184079523Y-30907619D01*
X184127142Y-31002857D01*
X184127142Y-31145714D01*
X184079523Y-31240952D01*
X184031904Y-31288571D01*
X183936666Y-31336190D01*
X183555714Y-31336190D01*
X184555714Y-31288571D02*
X184889047Y-31288571D01*
X185031904Y-31812380D02*
X184555714Y-31812380D01*
X184555714Y-30812380D01*
X185031904Y-30812380D01*
X185460476Y-31812380D02*
X185460476Y-30812380D01*
X185698571Y-30812380D01*
X185841428Y-30860000D01*
X185936666Y-30955238D01*
X185984285Y-31050476D01*
X186031904Y-31240952D01*
X186031904Y-31383809D01*
X185984285Y-31574285D01*
X185936666Y-31669523D01*
X185841428Y-31764761D01*
X185698571Y-31812380D01*
X185460476Y-31812380D01*
X171317142Y-25712380D02*
X170983809Y-25236190D01*
X170745714Y-25712380D02*
X170745714Y-24712380D01*
X171126666Y-24712380D01*
X171221904Y-24760000D01*
X171269523Y-24807619D01*
X171317142Y-24902857D01*
X171317142Y-25045714D01*
X171269523Y-25140952D01*
X171221904Y-25188571D01*
X171126666Y-25236190D01*
X170745714Y-25236190D01*
X171745714Y-25188571D02*
X172079047Y-25188571D01*
X172221904Y-25712380D02*
X171745714Y-25712380D01*
X171745714Y-24712380D01*
X172221904Y-24712380D01*
X172650476Y-25712380D02*
X172650476Y-24712380D01*
X172888571Y-24712380D01*
X173031428Y-24760000D01*
X173126666Y-24855238D01*
X173174285Y-24950476D01*
X173221904Y-25140952D01*
X173221904Y-25283809D01*
X173174285Y-25474285D01*
X173126666Y-25569523D01*
X173031428Y-25664761D01*
X172888571Y-25712380D01*
X172650476Y-25712380D01*
D11*
X193260000Y-89660000D02*
X193260000Y-51460000D01*
X159960000Y-51460000D02*
X159960000Y-89660000D01*
X193260000Y-51460000D02*
X159960000Y-51460000D01*
X193260000Y-89660000D02*
X159960000Y-89660000D01*
D12*
X139160000Y-102870000D02*
G75*
G03X139160000Y-102870000I-1650000J0D01*
G01*
X134510000Y-99570000D02*
X140510000Y-99570000D01*
X140510000Y-99570000D02*
X140510000Y-106170000D01*
X140510000Y-106170000D02*
X134510000Y-106170000D01*
X134510000Y-106170000D02*
X134510000Y-99570000D01*
X160100000Y-91760000D02*
X159300000Y-91760000D01*
X160100000Y-93360000D02*
X160100000Y-91760000D01*
X159600000Y-93360000D02*
X160100000Y-93360000D01*
X159300000Y-93060000D02*
X159600000Y-93360000D01*
X159300000Y-91760000D02*
X159300000Y-93060000D01*
X155730000Y-75710000D02*
X157030000Y-75710000D01*
X157030000Y-75710000D02*
X157330000Y-75410000D01*
X157330000Y-75410000D02*
X157330000Y-74910000D01*
X157330000Y-74910000D02*
X155730000Y-74910000D01*
X155730000Y-74910000D02*
X155730000Y-75710000D01*
X155730000Y-77216250D02*
X155730000Y-78016250D01*
X157330000Y-77216250D02*
X155730000Y-77216250D01*
X157330000Y-77716250D02*
X157330000Y-77216250D01*
X157030000Y-78016250D02*
X157330000Y-77716250D01*
X155730000Y-78016250D02*
X157030000Y-78016250D01*
X155730000Y-79522500D02*
X155730000Y-80322500D01*
X157330000Y-79522500D02*
X155730000Y-79522500D01*
X157330000Y-80022500D02*
X157330000Y-79522500D01*
X157030000Y-80322500D02*
X157330000Y-80022500D01*
X155730000Y-80322500D02*
X157030000Y-80322500D01*
X155730000Y-81828750D02*
X155730000Y-82628750D01*
X157330000Y-81828750D02*
X155730000Y-81828750D01*
X157330000Y-82328750D02*
X157330000Y-81828750D01*
X157030000Y-82628750D02*
X157330000Y-82328750D01*
X155730000Y-82628750D02*
X157030000Y-82628750D01*
X155730000Y-84935000D02*
X157030000Y-84935000D01*
X157030000Y-84935000D02*
X157330000Y-84635000D01*
X157330000Y-84635000D02*
X157330000Y-84135000D01*
X157330000Y-84135000D02*
X155730000Y-84135000D01*
X155730000Y-84135000D02*
X155730000Y-84935000D01*
X146080000Y-101830000D02*
X145280000Y-101830000D01*
X146080000Y-103430000D02*
X146080000Y-101830000D01*
X145580000Y-103430000D02*
X146080000Y-103430000D01*
X145280000Y-103130000D02*
X145580000Y-103430000D01*
X145280000Y-101830000D02*
X145280000Y-103130000D01*
X157090000Y-53970000D02*
X157090000Y-54770000D01*
X158690000Y-53970000D02*
X157090000Y-53970000D01*
X158690000Y-54470000D02*
X158690000Y-53970000D01*
X158390000Y-54770000D02*
X158690000Y-54470000D01*
X157090000Y-54770000D02*
X158390000Y-54770000D01*
X165150000Y-107610000D02*
X165950000Y-107610000D01*
X165150000Y-106010000D02*
X165150000Y-107610000D01*
X165650000Y-106010000D02*
X165150000Y-106010000D01*
X165950000Y-106310000D02*
X165650000Y-106010000D01*
X165950000Y-107610000D02*
X165950000Y-106310000D01*
X165150000Y-109120000D02*
X165150000Y-110420000D01*
X165150000Y-110420000D02*
X165450000Y-110720000D01*
X165450000Y-110720000D02*
X165950000Y-110720000D01*
X165950000Y-110720000D02*
X165950000Y-109120000D01*
X165950000Y-109120000D02*
X165150000Y-109120000D01*
X166240000Y-122810000D02*
X165440000Y-122810000D01*
X166240000Y-124410000D02*
X166240000Y-122810000D01*
X165740000Y-124410000D02*
X166240000Y-124410000D01*
X165440000Y-124110000D02*
X165740000Y-124410000D01*
X165440000Y-122810000D02*
X165440000Y-124110000D01*
X162540000Y-152570000D02*
X163840000Y-152570000D01*
X163840000Y-152570000D02*
X164140000Y-152270000D01*
X164140000Y-152270000D02*
X164140000Y-151770000D01*
X164140000Y-151770000D02*
X162540000Y-151770000D01*
X162540000Y-151770000D02*
X162540000Y-152570000D01*
X162310000Y-135900000D02*
X163110000Y-135900000D01*
X162310000Y-134300000D02*
X162310000Y-135900000D01*
X162810000Y-134300000D02*
X162310000Y-134300000D01*
X163110000Y-134600000D02*
X162810000Y-134300000D01*
X163110000Y-135900000D02*
X163110000Y-134600000D01*
X161200000Y-135900000D02*
X161200000Y-134600000D01*
X161200000Y-134600000D02*
X160900000Y-134300000D01*
X160900000Y-134300000D02*
X160400000Y-134300000D01*
X160400000Y-134300000D02*
X160400000Y-135900000D01*
X160400000Y-135900000D02*
X161200000Y-135900000D01*
X188640000Y-107630000D02*
X188640000Y-106330000D01*
X188640000Y-106330000D02*
X188340000Y-106030000D01*
X188340000Y-106030000D02*
X187840000Y-106030000D01*
X187840000Y-106030000D02*
X187840000Y-107630000D01*
X187840000Y-107630000D02*
X188640000Y-107630000D01*
X187850000Y-109120000D02*
X187850000Y-110420000D01*
X187850000Y-110420000D02*
X188150000Y-110720000D01*
X188150000Y-110720000D02*
X188650000Y-110720000D01*
X188650000Y-110720000D02*
X188650000Y-109120000D01*
X188650000Y-109120000D02*
X187850000Y-109120000D01*
X188280000Y-122800000D02*
X187480000Y-122800000D01*
X188280000Y-124400000D02*
X188280000Y-122800000D01*
X187780000Y-124400000D02*
X188280000Y-124400000D01*
X187480000Y-124100000D02*
X187780000Y-124400000D01*
X187480000Y-122800000D02*
X187480000Y-124100000D01*
X191250000Y-151710000D02*
X189950000Y-151710000D01*
X189950000Y-151710000D02*
X189650000Y-152010000D01*
X189650000Y-152010000D02*
X189650000Y-152510000D01*
X189650000Y-152510000D02*
X191250000Y-152510000D01*
X191250000Y-152510000D02*
X191250000Y-151710000D01*
X190660000Y-135880000D02*
X191460000Y-135880000D01*
X190660000Y-134280000D02*
X190660000Y-135880000D01*
X191160000Y-134280000D02*
X190660000Y-134280000D01*
X191460000Y-134580000D02*
X191160000Y-134280000D01*
X191460000Y-135880000D02*
X191460000Y-134580000D01*
X193450000Y-135870000D02*
X193450000Y-134570000D01*
X193450000Y-134570000D02*
X193150000Y-134270000D01*
X193150000Y-134270000D02*
X192650000Y-134270000D01*
X192650000Y-134270000D02*
X192650000Y-135870000D01*
X192650000Y-135870000D02*
X193450000Y-135870000D01*
X193940000Y-91760000D02*
X193140000Y-91760000D01*
X193940000Y-93360000D02*
X193940000Y-91760000D01*
X193440000Y-93360000D02*
X193940000Y-93360000D01*
X193140000Y-93060000D02*
X193440000Y-93360000D01*
X193140000Y-91760000D02*
X193140000Y-93060000D01*
X208430000Y-103370000D02*
X209730000Y-103370000D01*
X209730000Y-103370000D02*
X210030000Y-103070000D01*
X210030000Y-103070000D02*
X210030000Y-102570000D01*
X210030000Y-102570000D02*
X208430000Y-102570000D01*
X208430000Y-102570000D02*
X208430000Y-103370000D01*
X217350000Y-98850000D02*
X217350000Y-100150000D01*
X217350000Y-100150000D02*
X217650000Y-100450000D01*
X217650000Y-100450000D02*
X218150000Y-100450000D01*
X218150000Y-100450000D02*
X218150000Y-98850000D01*
X218150000Y-98850000D02*
X217350000Y-98850000D01*
X196130000Y-54640000D02*
X196130000Y-53840000D01*
X194530000Y-54640000D02*
X196130000Y-54640000D01*
X194530000Y-54140000D02*
X194530000Y-54640000D01*
X194830000Y-53840000D02*
X194530000Y-54140000D01*
X196130000Y-53840000D02*
X194830000Y-53840000D01*
X176310000Y-41820000D02*
X176310000Y-40520000D01*
X176310000Y-40520000D02*
X176010000Y-40220000D01*
X176010000Y-40220000D02*
X175510000Y-40220000D01*
X175510000Y-40220000D02*
X175510000Y-41820000D01*
X175510000Y-41820000D02*
X176310000Y-41820000D01*
X178350000Y-41840000D02*
X178350000Y-40540000D01*
X178350000Y-40540000D02*
X178050000Y-40240000D01*
X178050000Y-40240000D02*
X177550000Y-40240000D01*
X177550000Y-40240000D02*
X177550000Y-41840000D01*
X177550000Y-41840000D02*
X178350000Y-41840000D01*
X182400000Y-30360000D02*
X182400000Y-29560000D01*
X180800000Y-30360000D02*
X182400000Y-30360000D01*
X180800000Y-29860000D02*
X180800000Y-30360000D01*
X181100000Y-29560000D02*
X180800000Y-29860000D01*
X182400000Y-29560000D02*
X181100000Y-29560000D01*
X169710000Y-24240000D02*
X169710000Y-23440000D01*
X168110000Y-24240000D02*
X169710000Y-24240000D01*
X168110000Y-23740000D02*
X168110000Y-24240000D01*
X168410000Y-23440000D02*
X168110000Y-23740000D01*
X169710000Y-23440000D02*
X168410000Y-23440000D01*
X174264984Y-189719666D02*
G75*
G03X174265000Y-186780306I2500016J1469666D01*
G01*
X179265000Y-188250000D02*
G75*
G03X179265000Y-188250000I-2500000J0D01*
G01*
X174265000Y-186780306D02*
X174265000Y-189719694D01*
X142590000Y-97270000D02*
X142590000Y-90670000D01*
X148590000Y-97270000D02*
X142590000Y-97270000D01*
X148590000Y-90670000D02*
X148590000Y-97270000D01*
X142590000Y-90670000D02*
X148590000Y-90670000D01*
X147240000Y-93970000D02*
G75*
G03X147240000Y-93970000I-1650000J0D01*
G01*
X147160000Y-111770000D02*
G75*
G03X147160000Y-111770000I-1650000J0D01*
G01*
X142510000Y-108470000D02*
X148510000Y-108470000D01*
X148510000Y-108470000D02*
X148510000Y-115070000D01*
X148510000Y-115070000D02*
X142510000Y-115070000D01*
X142510000Y-115070000D02*
X142510000Y-108470000D01*
X150530000Y-106170000D02*
X150530000Y-99570000D01*
X156530000Y-106170000D02*
X150530000Y-106170000D01*
X156530000Y-99570000D02*
X156530000Y-106170000D01*
X150530000Y-99570000D02*
X156530000Y-99570000D01*
X155180000Y-102870000D02*
G75*
G03X155180000Y-102870000I-1650000J0D01*
G01*
X216120000Y-109110000D02*
G75*
G03X216120000Y-109110000I-1650000J0D01*
G01*
X217470000Y-112410000D02*
X211470000Y-112410000D01*
X211470000Y-112410000D02*
X211470000Y-105810000D01*
X211470000Y-105810000D02*
X217470000Y-105810000D01*
X217470000Y-105810000D02*
X217470000Y-112410000D01*
X201130000Y-100590000D02*
X201130000Y-93990000D01*
X207130000Y-100590000D02*
X201130000Y-100590000D01*
X207130000Y-93990000D02*
X207130000Y-100590000D01*
X201130000Y-93990000D02*
X207130000Y-93990000D01*
X205780000Y-97290000D02*
G75*
G03X205780000Y-97290000I-1650000J0D01*
G01*
X168820000Y-162170000D02*
X168820000Y-163470000D01*
X168820000Y-163470000D02*
X169120000Y-163770000D01*
X169120000Y-163770000D02*
X169620000Y-163770000D01*
X169620000Y-163770000D02*
X169620000Y-162170000D01*
X169620000Y-162170000D02*
X168820000Y-162170000D01*
X177540000Y-146920000D02*
X176240000Y-146920000D01*
X176240000Y-146920000D02*
X175940000Y-147220000D01*
X175940000Y-147220000D02*
X175940000Y-147720000D01*
X175940000Y-147720000D02*
X177540000Y-147720000D01*
X177540000Y-147720000D02*
X177540000Y-146920000D01*
X184810000Y-162170000D02*
X184010000Y-162170000D01*
X184810000Y-163770000D02*
X184810000Y-162170000D01*
X184310000Y-163770000D02*
X184810000Y-163770000D01*
X184010000Y-163470000D02*
X184310000Y-163770000D01*
X184010000Y-162170000D02*
X184010000Y-163470000D01*
X177540000Y-149560000D02*
X177540000Y-148760000D01*
X175940000Y-149560000D02*
X177540000Y-149560000D01*
X175940000Y-149060000D02*
X175940000Y-149560000D01*
X176240000Y-148760000D02*
X175940000Y-149060000D01*
X177540000Y-148760000D02*
X176240000Y-148760000D01*
X177890000Y-156290000D02*
X176590000Y-156290000D01*
X176590000Y-156290000D02*
X176290000Y-156590000D01*
X176290000Y-156590000D02*
X176290000Y-157090000D01*
X176290000Y-157090000D02*
X177890000Y-157090000D01*
X177890000Y-157090000D02*
X177890000Y-156290000D01*
D10*
X172895714Y-71512380D02*
X172419523Y-71512380D01*
X172419523Y-70512380D01*
X173800476Y-71417142D02*
X173752857Y-71464761D01*
X173610000Y-71512380D01*
X173514761Y-71512380D01*
X173371904Y-71464761D01*
X173276666Y-71369523D01*
X173229047Y-71274285D01*
X173181428Y-71083809D01*
X173181428Y-70940952D01*
X173229047Y-70750476D01*
X173276666Y-70655238D01*
X173371904Y-70560000D01*
X173514761Y-70512380D01*
X173610000Y-70512380D01*
X173752857Y-70560000D01*
X173800476Y-70607619D01*
X174229047Y-71512380D02*
X174229047Y-70512380D01*
X174467142Y-70512380D01*
X174610000Y-70560000D01*
X174705238Y-70655238D01*
X174752857Y-70750476D01*
X174800476Y-70940952D01*
X174800476Y-71083809D01*
X174752857Y-71274285D01*
X174705238Y-71369523D01*
X174610000Y-71464761D01*
X174467142Y-71512380D01*
X174229047Y-71512380D01*
X174990952Y-71607619D02*
X175752857Y-71607619D01*
X176419523Y-71512380D02*
X176419523Y-70512380D01*
X176419523Y-71464761D02*
X176324285Y-71512380D01*
X176133809Y-71512380D01*
X176038571Y-71464761D01*
X175990952Y-71417142D01*
X175943333Y-71321904D01*
X175943333Y-71036190D01*
X175990952Y-70940952D01*
X176038571Y-70893333D01*
X176133809Y-70845714D01*
X176324285Y-70845714D01*
X176419523Y-70893333D01*
X176895714Y-71512380D02*
X176895714Y-70845714D01*
X176895714Y-70512380D02*
X176848095Y-70560000D01*
X176895714Y-70607619D01*
X176943333Y-70560000D01*
X176895714Y-70512380D01*
X176895714Y-70607619D01*
X177324285Y-71464761D02*
X177419523Y-71512380D01*
X177610000Y-71512380D01*
X177705238Y-71464761D01*
X177752857Y-71369523D01*
X177752857Y-71321904D01*
X177705238Y-71226666D01*
X177610000Y-71179047D01*
X177467142Y-71179047D01*
X177371904Y-71131428D01*
X177324285Y-71036190D01*
X177324285Y-70988571D01*
X177371904Y-70893333D01*
X177467142Y-70845714D01*
X177610000Y-70845714D01*
X177705238Y-70893333D01*
X178181428Y-70845714D02*
X178181428Y-71845714D01*
X178181428Y-70893333D02*
X178276666Y-70845714D01*
X178467142Y-70845714D01*
X178562380Y-70893333D01*
X178610000Y-70940952D01*
X178657619Y-71036190D01*
X178657619Y-71321904D01*
X178610000Y-71417142D01*
X178562380Y-71464761D01*
X178467142Y-71512380D01*
X178276666Y-71512380D01*
X178181428Y-71464761D01*
X179229047Y-71512380D02*
X179133809Y-71464761D01*
X179086190Y-71369523D01*
X179086190Y-70512380D01*
X180038571Y-71512380D02*
X180038571Y-70988571D01*
X179990952Y-70893333D01*
X179895714Y-70845714D01*
X179705238Y-70845714D01*
X179610000Y-70893333D01*
X180038571Y-71464761D02*
X179943333Y-71512380D01*
X179705238Y-71512380D01*
X179610000Y-71464761D01*
X179562380Y-71369523D01*
X179562380Y-71274285D01*
X179610000Y-71179047D01*
X179705238Y-71131428D01*
X179943333Y-71131428D01*
X180038571Y-71083809D01*
X180419523Y-70845714D02*
X180657619Y-71512380D01*
X180895714Y-70845714D02*
X180657619Y-71512380D01*
X180562380Y-71750476D01*
X180514761Y-71798095D01*
X180419523Y-71845714D01*
X136176666Y-98774761D02*
X136319523Y-98822380D01*
X136557619Y-98822380D01*
X136652857Y-98774761D01*
X136700476Y-98727142D01*
X136748095Y-98631904D01*
X136748095Y-98536666D01*
X136700476Y-98441428D01*
X136652857Y-98393809D01*
X136557619Y-98346190D01*
X136367142Y-98298571D01*
X136271904Y-98250952D01*
X136224285Y-98203333D01*
X136176666Y-98108095D01*
X136176666Y-98012857D01*
X136224285Y-97917619D01*
X136271904Y-97870000D01*
X136367142Y-97822380D01*
X136605238Y-97822380D01*
X136748095Y-97870000D01*
X137081428Y-97822380D02*
X137319523Y-98822380D01*
X137510000Y-98108095D01*
X137700476Y-98822380D01*
X137938571Y-97822380D01*
X138748095Y-98155714D02*
X138748095Y-98822380D01*
X138510000Y-97774761D02*
X138271904Y-98489047D01*
X138890952Y-98489047D01*
X134462380Y-107774761D02*
X134605238Y-107822380D01*
X134843333Y-107822380D01*
X134938571Y-107774761D01*
X134986190Y-107727142D01*
X135033809Y-107631904D01*
X135033809Y-107536666D01*
X134986190Y-107441428D01*
X134938571Y-107393809D01*
X134843333Y-107346190D01*
X134652857Y-107298571D01*
X134557619Y-107250952D01*
X134510000Y-107203333D01*
X134462380Y-107108095D01*
X134462380Y-107012857D01*
X134510000Y-106917619D01*
X134557619Y-106870000D01*
X134652857Y-106822380D01*
X134890952Y-106822380D01*
X135033809Y-106870000D01*
X135367142Y-106822380D02*
X135605238Y-107822380D01*
X135795714Y-107108095D01*
X135986190Y-107822380D01*
X136224285Y-106822380D01*
X136367142Y-107917619D02*
X137129047Y-107917619D01*
X137367142Y-107822380D02*
X137367142Y-106822380D01*
X137748095Y-106822380D01*
X137843333Y-106870000D01*
X137890952Y-106917619D01*
X137938571Y-107012857D01*
X137938571Y-107155714D01*
X137890952Y-107250952D01*
X137843333Y-107298571D01*
X137748095Y-107346190D01*
X137367142Y-107346190D01*
X138795714Y-107155714D02*
X138795714Y-107822380D01*
X138367142Y-107155714D02*
X138367142Y-107679523D01*
X138414761Y-107774761D01*
X138510000Y-107822380D01*
X138652857Y-107822380D01*
X138748095Y-107774761D01*
X138795714Y-107727142D01*
X139224285Y-107774761D02*
X139319523Y-107822380D01*
X139510000Y-107822380D01*
X139605238Y-107774761D01*
X139652857Y-107679523D01*
X139652857Y-107631904D01*
X139605238Y-107536666D01*
X139510000Y-107489047D01*
X139367142Y-107489047D01*
X139271904Y-107441428D01*
X139224285Y-107346190D01*
X139224285Y-107298571D01*
X139271904Y-107203333D01*
X139367142Y-107155714D01*
X139510000Y-107155714D01*
X139605238Y-107203333D01*
X140081428Y-107822380D02*
X140081428Y-106822380D01*
X140510000Y-107822380D02*
X140510000Y-107298571D01*
X140462380Y-107203333D01*
X140367142Y-107155714D01*
X140224285Y-107155714D01*
X140129047Y-107203333D01*
X140081428Y-107250952D01*
X161175713Y-93357380D02*
X161175713Y-92357380D01*
X161413809Y-92357380D01*
X161556666Y-92405000D01*
X161651904Y-92500238D01*
X161699523Y-92595476D01*
X161747142Y-92785952D01*
X161747142Y-92928809D01*
X161699523Y-93119285D01*
X161651904Y-93214523D01*
X161556666Y-93309761D01*
X161413809Y-93357380D01*
X161175713Y-93357380D01*
X162604285Y-92690714D02*
X162604285Y-93357380D01*
X162366189Y-92309761D02*
X162128094Y-93024047D01*
X162747142Y-93024047D01*
X161651904Y-91922380D02*
X161175714Y-91922380D01*
X161175714Y-90922380D01*
X161985238Y-91398571D02*
X162318571Y-91398571D01*
X162461428Y-91922380D02*
X161985238Y-91922380D01*
X161985238Y-90922380D01*
X162461428Y-90922380D01*
X162890000Y-91922380D02*
X162890000Y-90922380D01*
X163128095Y-90922380D01*
X163270952Y-90970000D01*
X163366190Y-91065238D01*
X163413809Y-91160476D01*
X163461428Y-91350952D01*
X163461428Y-91493809D01*
X163413809Y-91684285D01*
X163366190Y-91779523D01*
X163270952Y-91874761D01*
X163128095Y-91922380D01*
X162890000Y-91922380D01*
D13*
X159880952Y-92855238D02*
X159480952Y-92855238D01*
X159480952Y-92760000D01*
X159500000Y-92702857D01*
X159538095Y-92664761D01*
X159576190Y-92645714D01*
X159652380Y-92626666D01*
X159709523Y-92626666D01*
X159785714Y-92645714D01*
X159823809Y-92664761D01*
X159861904Y-92702857D01*
X159880952Y-92760000D01*
X159880952Y-92855238D01*
X159614285Y-92283809D02*
X159880952Y-92283809D01*
X159461904Y-92379047D02*
X159747619Y-92474285D01*
X159747619Y-92226666D01*
D10*
X158221904Y-75792380D02*
X158221904Y-74792380D01*
X158460000Y-74792380D01*
X158602857Y-74840000D01*
X158698095Y-74935238D01*
X158745714Y-75030476D01*
X158793333Y-75220952D01*
X158793333Y-75363809D01*
X158745714Y-75554285D01*
X158698095Y-75649523D01*
X158602857Y-75744761D01*
X158460000Y-75792380D01*
X158221904Y-75792380D01*
X159698095Y-74792380D02*
X159221904Y-74792380D01*
X159174285Y-75268571D01*
X159221904Y-75220952D01*
X159317142Y-75173333D01*
X159555238Y-75173333D01*
X159650476Y-75220952D01*
X159698095Y-75268571D01*
X159745714Y-75363809D01*
X159745714Y-75601904D01*
X159698095Y-75697142D01*
X159650476Y-75744761D01*
X159555238Y-75792380D01*
X159317142Y-75792380D01*
X159221904Y-75744761D01*
X159174285Y-75697142D01*
X152617142Y-75975713D02*
X152140952Y-75975713D01*
X152140952Y-74975713D01*
X152950476Y-75451904D02*
X153283809Y-75451904D01*
X153426666Y-75975713D02*
X152950476Y-75975713D01*
X152950476Y-74975713D01*
X153426666Y-74975713D01*
X153855238Y-75975713D02*
X153855238Y-74975713D01*
X154093333Y-74975713D01*
X154236190Y-75023333D01*
X154331428Y-75118571D01*
X154379047Y-75213809D01*
X154426666Y-75404285D01*
X154426666Y-75547142D01*
X154379047Y-75737618D01*
X154331428Y-75832856D01*
X154236190Y-75928094D01*
X154093333Y-75975713D01*
X153855238Y-75975713D01*
D13*
X156234761Y-75490952D02*
X156234761Y-75090952D01*
X156330000Y-75090952D01*
X156387142Y-75110000D01*
X156425238Y-75148095D01*
X156444285Y-75186190D01*
X156463333Y-75262380D01*
X156463333Y-75319523D01*
X156444285Y-75395714D01*
X156425238Y-75433809D01*
X156387142Y-75471904D01*
X156330000Y-75490952D01*
X156234761Y-75490952D01*
X156825238Y-75090952D02*
X156634761Y-75090952D01*
X156615714Y-75281428D01*
X156634761Y-75262380D01*
X156672857Y-75243333D01*
X156768095Y-75243333D01*
X156806190Y-75262380D01*
X156825238Y-75281428D01*
X156844285Y-75319523D01*
X156844285Y-75414761D01*
X156825238Y-75452857D01*
X156806190Y-75471904D01*
X156768095Y-75490952D01*
X156672857Y-75490952D01*
X156634761Y-75471904D01*
X156615714Y-75452857D01*
D10*
X158191904Y-78132380D02*
X158191904Y-77132380D01*
X158430000Y-77132380D01*
X158572857Y-77180000D01*
X158668095Y-77275238D01*
X158715714Y-77370476D01*
X158763333Y-77560952D01*
X158763333Y-77703809D01*
X158715714Y-77894285D01*
X158668095Y-77989523D01*
X158572857Y-78084761D01*
X158430000Y-78132380D01*
X158191904Y-78132380D01*
X159620476Y-77132380D02*
X159430000Y-77132380D01*
X159334761Y-77180000D01*
X159287142Y-77227619D01*
X159191904Y-77370476D01*
X159144285Y-77560952D01*
X159144285Y-77941904D01*
X159191904Y-78037142D01*
X159239523Y-78084761D01*
X159334761Y-78132380D01*
X159525238Y-78132380D01*
X159620476Y-78084761D01*
X159668095Y-78037142D01*
X159715714Y-77941904D01*
X159715714Y-77703809D01*
X159668095Y-77608571D01*
X159620476Y-77560952D01*
X159525238Y-77513333D01*
X159334761Y-77513333D01*
X159239523Y-77560952D01*
X159191904Y-77608571D01*
X159144285Y-77703809D01*
X152617142Y-78582379D02*
X152140952Y-78582379D01*
X152140952Y-77582379D01*
X152950476Y-78058570D02*
X153283809Y-78058570D01*
X153426666Y-78582379D02*
X152950476Y-78582379D01*
X152950476Y-77582379D01*
X153426666Y-77582379D01*
X153855238Y-78582379D02*
X153855238Y-77582379D01*
X154093333Y-77582379D01*
X154236190Y-77629999D01*
X154331428Y-77725237D01*
X154379047Y-77820475D01*
X154426666Y-78010951D01*
X154426666Y-78153808D01*
X154379047Y-78344284D01*
X154331428Y-78439522D01*
X154236190Y-78534760D01*
X154093333Y-78582379D01*
X153855238Y-78582379D01*
D13*
X156234761Y-77797202D02*
X156234761Y-77397202D01*
X156330000Y-77397202D01*
X156387142Y-77416250D01*
X156425238Y-77454345D01*
X156444285Y-77492440D01*
X156463333Y-77568630D01*
X156463333Y-77625773D01*
X156444285Y-77701964D01*
X156425238Y-77740059D01*
X156387142Y-77778154D01*
X156330000Y-77797202D01*
X156234761Y-77797202D01*
X156806190Y-77397202D02*
X156730000Y-77397202D01*
X156691904Y-77416250D01*
X156672857Y-77435297D01*
X156634761Y-77492440D01*
X156615714Y-77568630D01*
X156615714Y-77721011D01*
X156634761Y-77759107D01*
X156653809Y-77778154D01*
X156691904Y-77797202D01*
X156768095Y-77797202D01*
X156806190Y-77778154D01*
X156825238Y-77759107D01*
X156844285Y-77721011D01*
X156844285Y-77625773D01*
X156825238Y-77587678D01*
X156806190Y-77568630D01*
X156768095Y-77549583D01*
X156691904Y-77549583D01*
X156653809Y-77568630D01*
X156634761Y-77587678D01*
X156615714Y-77625773D01*
D10*
X158221904Y-80442380D02*
X158221904Y-79442380D01*
X158460000Y-79442380D01*
X158602857Y-79490000D01*
X158698095Y-79585238D01*
X158745714Y-79680476D01*
X158793333Y-79870952D01*
X158793333Y-80013809D01*
X158745714Y-80204285D01*
X158698095Y-80299523D01*
X158602857Y-80394761D01*
X158460000Y-80442380D01*
X158221904Y-80442380D01*
X159126666Y-79442380D02*
X159793333Y-79442380D01*
X159364761Y-80442380D01*
X152617142Y-81189045D02*
X152140952Y-81189045D01*
X152140952Y-80189045D01*
X152950476Y-80665236D02*
X153283809Y-80665236D01*
X153426666Y-81189045D02*
X152950476Y-81189045D01*
X152950476Y-80189045D01*
X153426666Y-80189045D01*
X153855238Y-81189045D02*
X153855238Y-80189045D01*
X154093333Y-80189045D01*
X154236190Y-80236665D01*
X154331428Y-80331903D01*
X154379047Y-80427141D01*
X154426666Y-80617617D01*
X154426666Y-80760474D01*
X154379047Y-80950950D01*
X154331428Y-81046188D01*
X154236190Y-81141426D01*
X154093333Y-81189045D01*
X153855238Y-81189045D01*
D13*
X156234761Y-80103452D02*
X156234761Y-79703452D01*
X156330000Y-79703452D01*
X156387142Y-79722500D01*
X156425238Y-79760595D01*
X156444285Y-79798690D01*
X156463333Y-79874880D01*
X156463333Y-79932023D01*
X156444285Y-80008214D01*
X156425238Y-80046309D01*
X156387142Y-80084404D01*
X156330000Y-80103452D01*
X156234761Y-80103452D01*
X156596666Y-79703452D02*
X156863333Y-79703452D01*
X156691904Y-80103452D01*
D10*
X158241904Y-82702380D02*
X158241904Y-81702380D01*
X158480000Y-81702380D01*
X158622857Y-81750000D01*
X158718095Y-81845238D01*
X158765714Y-81940476D01*
X158813333Y-82130952D01*
X158813333Y-82273809D01*
X158765714Y-82464285D01*
X158718095Y-82559523D01*
X158622857Y-82654761D01*
X158480000Y-82702380D01*
X158241904Y-82702380D01*
X159384761Y-82130952D02*
X159289523Y-82083333D01*
X159241904Y-82035714D01*
X159194285Y-81940476D01*
X159194285Y-81892857D01*
X159241904Y-81797619D01*
X159289523Y-81750000D01*
X159384761Y-81702380D01*
X159575238Y-81702380D01*
X159670476Y-81750000D01*
X159718095Y-81797619D01*
X159765714Y-81892857D01*
X159765714Y-81940476D01*
X159718095Y-82035714D01*
X159670476Y-82083333D01*
X159575238Y-82130952D01*
X159384761Y-82130952D01*
X159289523Y-82178571D01*
X159241904Y-82226190D01*
X159194285Y-82321428D01*
X159194285Y-82511904D01*
X159241904Y-82607142D01*
X159289523Y-82654761D01*
X159384761Y-82702380D01*
X159575238Y-82702380D01*
X159670476Y-82654761D01*
X159718095Y-82607142D01*
X159765714Y-82511904D01*
X159765714Y-82321428D01*
X159718095Y-82226190D01*
X159670476Y-82178571D01*
X159575238Y-82130952D01*
X152617142Y-83795711D02*
X152140952Y-83795711D01*
X152140952Y-82795711D01*
X152950476Y-83271902D02*
X153283809Y-83271902D01*
X153426666Y-83795711D02*
X152950476Y-83795711D01*
X152950476Y-82795711D01*
X153426666Y-82795711D01*
X153855238Y-83795711D02*
X153855238Y-82795711D01*
X154093333Y-82795711D01*
X154236190Y-82843331D01*
X154331428Y-82938569D01*
X154379047Y-83033807D01*
X154426666Y-83224283D01*
X154426666Y-83367140D01*
X154379047Y-83557616D01*
X154331428Y-83652854D01*
X154236190Y-83748092D01*
X154093333Y-83795711D01*
X153855238Y-83795711D01*
D13*
X156234761Y-82409702D02*
X156234761Y-82009702D01*
X156330000Y-82009702D01*
X156387142Y-82028750D01*
X156425238Y-82066845D01*
X156444285Y-82104940D01*
X156463333Y-82181130D01*
X156463333Y-82238273D01*
X156444285Y-82314464D01*
X156425238Y-82352559D01*
X156387142Y-82390654D01*
X156330000Y-82409702D01*
X156234761Y-82409702D01*
X156691904Y-82181130D02*
X156653809Y-82162083D01*
X156634761Y-82143035D01*
X156615714Y-82104940D01*
X156615714Y-82085892D01*
X156634761Y-82047797D01*
X156653809Y-82028750D01*
X156691904Y-82009702D01*
X156768095Y-82009702D01*
X156806190Y-82028750D01*
X156825238Y-82047797D01*
X156844285Y-82085892D01*
X156844285Y-82104940D01*
X156825238Y-82143035D01*
X156806190Y-82162083D01*
X156768095Y-82181130D01*
X156691904Y-82181130D01*
X156653809Y-82200178D01*
X156634761Y-82219226D01*
X156615714Y-82257321D01*
X156615714Y-82333511D01*
X156634761Y-82371607D01*
X156653809Y-82390654D01*
X156691904Y-82409702D01*
X156768095Y-82409702D01*
X156806190Y-82390654D01*
X156825238Y-82371607D01*
X156844285Y-82333511D01*
X156844285Y-82257321D01*
X156825238Y-82219226D01*
X156806190Y-82200178D01*
X156768095Y-82181130D01*
D10*
X158221904Y-84972380D02*
X158221904Y-83972380D01*
X158460000Y-83972380D01*
X158602857Y-84020000D01*
X158698095Y-84115238D01*
X158745714Y-84210476D01*
X158793333Y-84400952D01*
X158793333Y-84543809D01*
X158745714Y-84734285D01*
X158698095Y-84829523D01*
X158602857Y-84924761D01*
X158460000Y-84972380D01*
X158221904Y-84972380D01*
X159269523Y-84972380D02*
X159460000Y-84972380D01*
X159555238Y-84924761D01*
X159602857Y-84877142D01*
X159698095Y-84734285D01*
X159745714Y-84543809D01*
X159745714Y-84162857D01*
X159698095Y-84067619D01*
X159650476Y-84020000D01*
X159555238Y-83972380D01*
X159364761Y-83972380D01*
X159269523Y-84020000D01*
X159221904Y-84067619D01*
X159174285Y-84162857D01*
X159174285Y-84400952D01*
X159221904Y-84496190D01*
X159269523Y-84543809D01*
X159364761Y-84591428D01*
X159555238Y-84591428D01*
X159650476Y-84543809D01*
X159698095Y-84496190D01*
X159745714Y-84400952D01*
X152617142Y-86402377D02*
X152140952Y-86402377D01*
X152140952Y-85402377D01*
X152950476Y-85878568D02*
X153283809Y-85878568D01*
X153426666Y-86402377D02*
X152950476Y-86402377D01*
X152950476Y-85402377D01*
X153426666Y-85402377D01*
X153855238Y-86402377D02*
X153855238Y-85402377D01*
X154093333Y-85402377D01*
X154236190Y-85449997D01*
X154331428Y-85545235D01*
X154379047Y-85640473D01*
X154426666Y-85830949D01*
X154426666Y-85973806D01*
X154379047Y-86164282D01*
X154331428Y-86259520D01*
X154236190Y-86354758D01*
X154093333Y-86402377D01*
X153855238Y-86402377D01*
D13*
X156234761Y-84715952D02*
X156234761Y-84315952D01*
X156330000Y-84315952D01*
X156387142Y-84335000D01*
X156425238Y-84373095D01*
X156444285Y-84411190D01*
X156463333Y-84487380D01*
X156463333Y-84544523D01*
X156444285Y-84620714D01*
X156425238Y-84658809D01*
X156387142Y-84696904D01*
X156330000Y-84715952D01*
X156234761Y-84715952D01*
X156653809Y-84715952D02*
X156730000Y-84715952D01*
X156768095Y-84696904D01*
X156787142Y-84677857D01*
X156825238Y-84620714D01*
X156844285Y-84544523D01*
X156844285Y-84392142D01*
X156825238Y-84354047D01*
X156806190Y-84335000D01*
X156768095Y-84315952D01*
X156691904Y-84315952D01*
X156653809Y-84335000D01*
X156634761Y-84354047D01*
X156615714Y-84392142D01*
X156615714Y-84487380D01*
X156634761Y-84525476D01*
X156653809Y-84544523D01*
X156691904Y-84563571D01*
X156768095Y-84563571D01*
X156806190Y-84544523D01*
X156825238Y-84525476D01*
X156844285Y-84487380D01*
D10*
X146855714Y-103742380D02*
X146855714Y-102742380D01*
X147093809Y-102742380D01*
X147236666Y-102790000D01*
X147331904Y-102885238D01*
X147379523Y-102980476D01*
X147427142Y-103170952D01*
X147427142Y-103313809D01*
X147379523Y-103504285D01*
X147331904Y-103599523D01*
X147236666Y-103694761D01*
X147093809Y-103742380D01*
X146855714Y-103742380D01*
X148379523Y-103742380D02*
X147808095Y-103742380D01*
X148093809Y-103742380D02*
X148093809Y-102742380D01*
X147998571Y-102885238D01*
X147903333Y-102980476D01*
X147808095Y-103028095D01*
X148998571Y-102742380D02*
X149093809Y-102742380D01*
X149189047Y-102790000D01*
X149236666Y-102837619D01*
X149284285Y-102932857D01*
X149331904Y-103123333D01*
X149331904Y-103361428D01*
X149284285Y-103551904D01*
X149236666Y-103647142D01*
X149189047Y-103694761D01*
X149093809Y-103742380D01*
X148998571Y-103742380D01*
X148903333Y-103694761D01*
X148855714Y-103647142D01*
X148808095Y-103551904D01*
X148760476Y-103361428D01*
X148760476Y-103123333D01*
X148808095Y-102932857D01*
X148855714Y-102837619D01*
X148903333Y-102790000D01*
X148998571Y-102742380D01*
X147331904Y-102322380D02*
X146855714Y-102322380D01*
X146855714Y-101322380D01*
X147665238Y-101798571D02*
X147998571Y-101798571D01*
X148141428Y-102322380D02*
X147665238Y-102322380D01*
X147665238Y-101322380D01*
X148141428Y-101322380D01*
X148570000Y-102322380D02*
X148570000Y-101322380D01*
X148808095Y-101322380D01*
X148950952Y-101370000D01*
X149046190Y-101465238D01*
X149093809Y-101560476D01*
X149141428Y-101750952D01*
X149141428Y-101893809D01*
X149093809Y-102084285D01*
X149046190Y-102179523D01*
X148950952Y-102274761D01*
X148808095Y-102322380D01*
X148570000Y-102322380D01*
D13*
X145860952Y-103115714D02*
X145460952Y-103115714D01*
X145460952Y-103020476D01*
X145480000Y-102963333D01*
X145518095Y-102925238D01*
X145556190Y-102906190D01*
X145632380Y-102887142D01*
X145689523Y-102887142D01*
X145765714Y-102906190D01*
X145803809Y-102925238D01*
X145841904Y-102963333D01*
X145860952Y-103020476D01*
X145860952Y-103115714D01*
X145860952Y-102506190D02*
X145860952Y-102734761D01*
X145860952Y-102620476D02*
X145460952Y-102620476D01*
X145518095Y-102658571D01*
X145556190Y-102696666D01*
X145575238Y-102734761D01*
X145460952Y-102258571D02*
X145460952Y-102220476D01*
X145480000Y-102182380D01*
X145499047Y-102163333D01*
X145537142Y-102144285D01*
X145613333Y-102125238D01*
X145708571Y-102125238D01*
X145784761Y-102144285D01*
X145822857Y-102163333D01*
X145841904Y-102182380D01*
X145860952Y-102220476D01*
X145860952Y-102258571D01*
X145841904Y-102296666D01*
X145822857Y-102315714D01*
X145784761Y-102334761D01*
X145708571Y-102353809D01*
X145613333Y-102353809D01*
X145537142Y-102334761D01*
X145499047Y-102315714D01*
X145480000Y-102296666D01*
X145460952Y-102258571D01*
D10*
X156665714Y-52062380D02*
X156665714Y-51062380D01*
X156903809Y-51062380D01*
X157046666Y-51110000D01*
X157141904Y-51205238D01*
X157189523Y-51300476D01*
X157237142Y-51490952D01*
X157237142Y-51633809D01*
X157189523Y-51824285D01*
X157141904Y-51919523D01*
X157046666Y-52014761D01*
X156903809Y-52062380D01*
X156665714Y-52062380D01*
X158189523Y-52062380D02*
X157618095Y-52062380D01*
X157903809Y-52062380D02*
X157903809Y-51062380D01*
X157808571Y-51205238D01*
X157713333Y-51300476D01*
X157618095Y-51348095D01*
X159141904Y-52062380D02*
X158570476Y-52062380D01*
X158856190Y-52062380D02*
X158856190Y-51062380D01*
X158760952Y-51205238D01*
X158665714Y-51300476D01*
X158570476Y-51348095D01*
X157187142Y-50622380D02*
X156710952Y-50622380D01*
X156710952Y-49622380D01*
X157520476Y-50098571D02*
X157853809Y-50098571D01*
X157996666Y-50622380D02*
X157520476Y-50622380D01*
X157520476Y-49622380D01*
X157996666Y-49622380D01*
X158425238Y-50622380D02*
X158425238Y-49622380D01*
X158663333Y-49622380D01*
X158806190Y-49670000D01*
X158901428Y-49765238D01*
X158949047Y-49860476D01*
X158996666Y-50050952D01*
X158996666Y-50193809D01*
X158949047Y-50384285D01*
X158901428Y-50479523D01*
X158806190Y-50574761D01*
X158663333Y-50622380D01*
X158425238Y-50622380D01*
D13*
X157404285Y-54550952D02*
X157404285Y-54150952D01*
X157499523Y-54150952D01*
X157556666Y-54170000D01*
X157594761Y-54208095D01*
X157613809Y-54246190D01*
X157632857Y-54322380D01*
X157632857Y-54379523D01*
X157613809Y-54455714D01*
X157594761Y-54493809D01*
X157556666Y-54531904D01*
X157499523Y-54550952D01*
X157404285Y-54550952D01*
X158013809Y-54550952D02*
X157785238Y-54550952D01*
X157899523Y-54550952D02*
X157899523Y-54150952D01*
X157861428Y-54208095D01*
X157823333Y-54246190D01*
X157785238Y-54265238D01*
X158394761Y-54550952D02*
X158166190Y-54550952D01*
X158280476Y-54550952D02*
X158280476Y-54150952D01*
X158242380Y-54208095D01*
X158204285Y-54246190D01*
X158166190Y-54265238D01*
D10*
X166807143Y-107046380D02*
X166807143Y-106046380D01*
X167045238Y-106046380D01*
X167188095Y-106094000D01*
X167283333Y-106189238D01*
X167330952Y-106284476D01*
X167378571Y-106474952D01*
X167378571Y-106617809D01*
X167330952Y-106808285D01*
X167283333Y-106903523D01*
X167188095Y-106998761D01*
X167045238Y-107046380D01*
X166807143Y-107046380D01*
X168330952Y-107046380D02*
X167759524Y-107046380D01*
X168045238Y-107046380D02*
X168045238Y-106046380D01*
X167950000Y-106189238D01*
X167854762Y-106284476D01*
X167759524Y-106332095D01*
X168711905Y-106141619D02*
X168759524Y-106094000D01*
X168854762Y-106046380D01*
X169092857Y-106046380D01*
X169188095Y-106094000D01*
X169235714Y-106141619D01*
X169283333Y-106236857D01*
X169283333Y-106332095D01*
X169235714Y-106474952D01*
X168664286Y-107046380D01*
X169283333Y-107046380D01*
X167283333Y-105682380D02*
X166807143Y-105682380D01*
X166807143Y-104682380D01*
X167616667Y-105158571D02*
X167950000Y-105158571D01*
X168092857Y-105682380D02*
X167616667Y-105682380D01*
X167616667Y-104682380D01*
X168092857Y-104682380D01*
X168521429Y-105682380D02*
X168521429Y-104682380D01*
X168759524Y-104682380D01*
X168902381Y-104730000D01*
X168997619Y-104825238D01*
X169045238Y-104920476D01*
X169092857Y-105110952D01*
X169092857Y-105253809D01*
X169045238Y-105444285D01*
X168997619Y-105539523D01*
X168902381Y-105634761D01*
X168759524Y-105682380D01*
X168521429Y-105682380D01*
D13*
X165730952Y-107295714D02*
X165330952Y-107295714D01*
X165330952Y-107200476D01*
X165350000Y-107143333D01*
X165388095Y-107105238D01*
X165426190Y-107086190D01*
X165502380Y-107067142D01*
X165559523Y-107067142D01*
X165635714Y-107086190D01*
X165673809Y-107105238D01*
X165711904Y-107143333D01*
X165730952Y-107200476D01*
X165730952Y-107295714D01*
X165730952Y-106686190D02*
X165730952Y-106914761D01*
X165730952Y-106800476D02*
X165330952Y-106800476D01*
X165388095Y-106838571D01*
X165426190Y-106876666D01*
X165445238Y-106914761D01*
X165369047Y-106533809D02*
X165350000Y-106514761D01*
X165330952Y-106476666D01*
X165330952Y-106381428D01*
X165350000Y-106343333D01*
X165369047Y-106324285D01*
X165407142Y-106305238D01*
X165445238Y-106305238D01*
X165502380Y-106324285D01*
X165730952Y-106552857D01*
X165730952Y-106305238D01*
D10*
X166807143Y-111138380D02*
X166807143Y-110138380D01*
X167045238Y-110138380D01*
X167188095Y-110186000D01*
X167283333Y-110281238D01*
X167330952Y-110376476D01*
X167378571Y-110566952D01*
X167378571Y-110709809D01*
X167330952Y-110900285D01*
X167283333Y-110995523D01*
X167188095Y-111090761D01*
X167045238Y-111138380D01*
X166807143Y-111138380D01*
X168330952Y-111138380D02*
X167759524Y-111138380D01*
X168045238Y-111138380D02*
X168045238Y-110138380D01*
X167950000Y-110281238D01*
X167854762Y-110376476D01*
X167759524Y-110424095D01*
X168664286Y-110138380D02*
X169283333Y-110138380D01*
X168950000Y-110519333D01*
X169092857Y-110519333D01*
X169188095Y-110566952D01*
X169235714Y-110614571D01*
X169283333Y-110709809D01*
X169283333Y-110947904D01*
X169235714Y-111043142D01*
X169188095Y-111090761D01*
X169092857Y-111138380D01*
X168807143Y-111138380D01*
X168711905Y-111090761D01*
X168664286Y-111043142D01*
X167283333Y-109774380D02*
X166807143Y-109774380D01*
X166807143Y-108774380D01*
X167616667Y-109250571D02*
X167950000Y-109250571D01*
X168092857Y-109774380D02*
X167616667Y-109774380D01*
X167616667Y-108774380D01*
X168092857Y-108774380D01*
X168521429Y-109774380D02*
X168521429Y-108774380D01*
X168759524Y-108774380D01*
X168902381Y-108822000D01*
X168997619Y-108917238D01*
X169045238Y-109012476D01*
X169092857Y-109202952D01*
X169092857Y-109345809D01*
X169045238Y-109536285D01*
X168997619Y-109631523D01*
X168902381Y-109726761D01*
X168759524Y-109774380D01*
X168521429Y-109774380D01*
D13*
X165730952Y-110405714D02*
X165330952Y-110405714D01*
X165330952Y-110310476D01*
X165350000Y-110253333D01*
X165388095Y-110215238D01*
X165426190Y-110196190D01*
X165502380Y-110177142D01*
X165559523Y-110177142D01*
X165635714Y-110196190D01*
X165673809Y-110215238D01*
X165711904Y-110253333D01*
X165730952Y-110310476D01*
X165730952Y-110405714D01*
X165730952Y-109796190D02*
X165730952Y-110024761D01*
X165730952Y-109910476D02*
X165330952Y-109910476D01*
X165388095Y-109948571D01*
X165426190Y-109986666D01*
X165445238Y-110024761D01*
X165330952Y-109662857D02*
X165330952Y-109415238D01*
X165483333Y-109548571D01*
X165483333Y-109491428D01*
X165502380Y-109453333D01*
X165521428Y-109434285D01*
X165559523Y-109415238D01*
X165654761Y-109415238D01*
X165692857Y-109434285D01*
X165711904Y-109453333D01*
X165730952Y-109491428D01*
X165730952Y-109605714D01*
X165711904Y-109643809D01*
X165692857Y-109662857D01*
D10*
X166920952Y-124162380D02*
X166920952Y-123162380D01*
X167159047Y-123162380D01*
X167301904Y-123210000D01*
X167397142Y-123305238D01*
X167444761Y-123400476D01*
X167492380Y-123590952D01*
X167492380Y-123733809D01*
X167444761Y-123924285D01*
X167397142Y-124019523D01*
X167301904Y-124114761D01*
X167159047Y-124162380D01*
X166920952Y-124162380D01*
X168444761Y-124162380D02*
X167873333Y-124162380D01*
X168159047Y-124162380D02*
X168159047Y-123162380D01*
X168063809Y-123305238D01*
X167968571Y-123400476D01*
X167873333Y-123448095D01*
X169301904Y-123495714D02*
X169301904Y-124162380D01*
X169063809Y-123114761D02*
X168825714Y-123829047D01*
X169444761Y-123829047D01*
X167397142Y-122772380D02*
X166920952Y-122772380D01*
X166920952Y-121772380D01*
X167730476Y-122248571D02*
X168063809Y-122248571D01*
X168206666Y-122772380D02*
X167730476Y-122772380D01*
X167730476Y-121772380D01*
X168206666Y-121772380D01*
X168635238Y-122772380D02*
X168635238Y-121772380D01*
X168873333Y-121772380D01*
X169016190Y-121820000D01*
X169111428Y-121915238D01*
X169159047Y-122010476D01*
X169206666Y-122200952D01*
X169206666Y-122343809D01*
X169159047Y-122534285D01*
X169111428Y-122629523D01*
X169016190Y-122724761D01*
X168873333Y-122772380D01*
X168635238Y-122772380D01*
D13*
X166020952Y-124095714D02*
X165620952Y-124095714D01*
X165620952Y-124000476D01*
X165640000Y-123943333D01*
X165678095Y-123905238D01*
X165716190Y-123886190D01*
X165792380Y-123867142D01*
X165849523Y-123867142D01*
X165925714Y-123886190D01*
X165963809Y-123905238D01*
X166001904Y-123943333D01*
X166020952Y-124000476D01*
X166020952Y-124095714D01*
X166020952Y-123486190D02*
X166020952Y-123714761D01*
X166020952Y-123600476D02*
X165620952Y-123600476D01*
X165678095Y-123638571D01*
X165716190Y-123676666D01*
X165735238Y-123714761D01*
X165754285Y-123143333D02*
X166020952Y-123143333D01*
X165601904Y-123238571D02*
X165887619Y-123333809D01*
X165887619Y-123086190D01*
D10*
X165320952Y-152647380D02*
X165320952Y-151647380D01*
X165559047Y-151647380D01*
X165701904Y-151695000D01*
X165797142Y-151790238D01*
X165844761Y-151885476D01*
X165892380Y-152075952D01*
X165892380Y-152218809D01*
X165844761Y-152409285D01*
X165797142Y-152504523D01*
X165701904Y-152599761D01*
X165559047Y-152647380D01*
X165320952Y-152647380D01*
X166844761Y-152647380D02*
X166273333Y-152647380D01*
X166559047Y-152647380D02*
X166559047Y-151647380D01*
X166463809Y-151790238D01*
X166368571Y-151885476D01*
X166273333Y-151933095D01*
X167749523Y-151647380D02*
X167273333Y-151647380D01*
X167225714Y-152123571D01*
X167273333Y-152075952D01*
X167368571Y-152028333D01*
X167606666Y-152028333D01*
X167701904Y-152075952D01*
X167749523Y-152123571D01*
X167797142Y-152218809D01*
X167797142Y-152456904D01*
X167749523Y-152552142D01*
X167701904Y-152599761D01*
X167606666Y-152647380D01*
X167368571Y-152647380D01*
X167273333Y-152599761D01*
X167225714Y-152552142D01*
X165797142Y-151042380D02*
X165320952Y-151042380D01*
X165320952Y-150042380D01*
X166130476Y-150518571D02*
X166463809Y-150518571D01*
X166606666Y-151042380D02*
X166130476Y-151042380D01*
X166130476Y-150042380D01*
X166606666Y-150042380D01*
X167035238Y-151042380D02*
X167035238Y-150042380D01*
X167273333Y-150042380D01*
X167416190Y-150090000D01*
X167511428Y-150185238D01*
X167559047Y-150280476D01*
X167606666Y-150470952D01*
X167606666Y-150613809D01*
X167559047Y-150804285D01*
X167511428Y-150899523D01*
X167416190Y-150994761D01*
X167273333Y-151042380D01*
X167035238Y-151042380D01*
D13*
X162854285Y-152350952D02*
X162854285Y-151950952D01*
X162949523Y-151950952D01*
X163006666Y-151970000D01*
X163044761Y-152008095D01*
X163063809Y-152046190D01*
X163082857Y-152122380D01*
X163082857Y-152179523D01*
X163063809Y-152255714D01*
X163044761Y-152293809D01*
X163006666Y-152331904D01*
X162949523Y-152350952D01*
X162854285Y-152350952D01*
X163463809Y-152350952D02*
X163235238Y-152350952D01*
X163349523Y-152350952D02*
X163349523Y-151950952D01*
X163311428Y-152008095D01*
X163273333Y-152046190D01*
X163235238Y-152065238D01*
X163825714Y-151950952D02*
X163635238Y-151950952D01*
X163616190Y-152141428D01*
X163635238Y-152122380D01*
X163673333Y-152103333D01*
X163768571Y-152103333D01*
X163806666Y-152122380D01*
X163825714Y-152141428D01*
X163844761Y-152179523D01*
X163844761Y-152274761D01*
X163825714Y-152312857D01*
X163806666Y-152331904D01*
X163768571Y-152350952D01*
X163673333Y-152350952D01*
X163635238Y-152331904D01*
X163616190Y-152312857D01*
D10*
X164067143Y-135607380D02*
X164067143Y-134607380D01*
X164305238Y-134607380D01*
X164448095Y-134655000D01*
X164543333Y-134750238D01*
X164590952Y-134845476D01*
X164638571Y-135035952D01*
X164638571Y-135178809D01*
X164590952Y-135369285D01*
X164543333Y-135464523D01*
X164448095Y-135559761D01*
X164305238Y-135607380D01*
X164067143Y-135607380D01*
X165590952Y-135607380D02*
X165019524Y-135607380D01*
X165305238Y-135607380D02*
X165305238Y-134607380D01*
X165210000Y-134750238D01*
X165114762Y-134845476D01*
X165019524Y-134893095D01*
X166448095Y-134607380D02*
X166257619Y-134607380D01*
X166162381Y-134655000D01*
X166114762Y-134702619D01*
X166019524Y-134845476D01*
X165971905Y-135035952D01*
X165971905Y-135416904D01*
X166019524Y-135512142D01*
X166067143Y-135559761D01*
X166162381Y-135607380D01*
X166352857Y-135607380D01*
X166448095Y-135559761D01*
X166495714Y-135512142D01*
X166543333Y-135416904D01*
X166543333Y-135178809D01*
X166495714Y-135083571D01*
X166448095Y-135035952D01*
X166352857Y-134988333D01*
X166162381Y-134988333D01*
X166067143Y-135035952D01*
X166019524Y-135083571D01*
X165971905Y-135178809D01*
X164543333Y-134242380D02*
X164067143Y-134242380D01*
X164067143Y-133242380D01*
X164876667Y-133718571D02*
X165210000Y-133718571D01*
X165352857Y-134242380D02*
X164876667Y-134242380D01*
X164876667Y-133242380D01*
X165352857Y-133242380D01*
X165781429Y-134242380D02*
X165781429Y-133242380D01*
X166019524Y-133242380D01*
X166162381Y-133290000D01*
X166257619Y-133385238D01*
X166305238Y-133480476D01*
X166352857Y-133670952D01*
X166352857Y-133813809D01*
X166305238Y-134004285D01*
X166257619Y-134099523D01*
X166162381Y-134194761D01*
X166019524Y-134242380D01*
X165781429Y-134242380D01*
D13*
X162890952Y-135585714D02*
X162490952Y-135585714D01*
X162490952Y-135490476D01*
X162510000Y-135433333D01*
X162548095Y-135395238D01*
X162586190Y-135376190D01*
X162662380Y-135357142D01*
X162719523Y-135357142D01*
X162795714Y-135376190D01*
X162833809Y-135395238D01*
X162871904Y-135433333D01*
X162890952Y-135490476D01*
X162890952Y-135585714D01*
X162890952Y-134976190D02*
X162890952Y-135204761D01*
X162890952Y-135090476D02*
X162490952Y-135090476D01*
X162548095Y-135128571D01*
X162586190Y-135166666D01*
X162605238Y-135204761D01*
X162490952Y-134633333D02*
X162490952Y-134709523D01*
X162510000Y-134747619D01*
X162529047Y-134766666D01*
X162586190Y-134804761D01*
X162662380Y-134823809D01*
X162814761Y-134823809D01*
X162852857Y-134804761D01*
X162871904Y-134785714D01*
X162890952Y-134747619D01*
X162890952Y-134671428D01*
X162871904Y-134633333D01*
X162852857Y-134614285D01*
X162814761Y-134595238D01*
X162719523Y-134595238D01*
X162681428Y-134614285D01*
X162662380Y-134633333D01*
X162643333Y-134671428D01*
X162643333Y-134747619D01*
X162662380Y-134785714D01*
X162681428Y-134804761D01*
X162719523Y-134823809D01*
D10*
X156950476Y-135532380D02*
X156950476Y-134532380D01*
X157188571Y-134532380D01*
X157331428Y-134580000D01*
X157426666Y-134675238D01*
X157474285Y-134770476D01*
X157521904Y-134960952D01*
X157521904Y-135103809D01*
X157474285Y-135294285D01*
X157426666Y-135389523D01*
X157331428Y-135484761D01*
X157188571Y-135532380D01*
X156950476Y-135532380D01*
X158474285Y-135532380D02*
X157902857Y-135532380D01*
X158188571Y-135532380D02*
X158188571Y-134532380D01*
X158093333Y-134675238D01*
X157998095Y-134770476D01*
X157902857Y-134818095D01*
X158807619Y-134532380D02*
X159474285Y-134532380D01*
X159045714Y-135532380D01*
X157617142Y-134162380D02*
X157140952Y-134162380D01*
X157140952Y-133162380D01*
X157950476Y-133638571D02*
X158283809Y-133638571D01*
X158426666Y-134162380D02*
X157950476Y-134162380D01*
X157950476Y-133162380D01*
X158426666Y-133162380D01*
X158855238Y-134162380D02*
X158855238Y-133162380D01*
X159093333Y-133162380D01*
X159236190Y-133210000D01*
X159331428Y-133305238D01*
X159379047Y-133400476D01*
X159426666Y-133590952D01*
X159426666Y-133733809D01*
X159379047Y-133924285D01*
X159331428Y-134019523D01*
X159236190Y-134114761D01*
X159093333Y-134162380D01*
X158855238Y-134162380D01*
D13*
X160980952Y-135585714D02*
X160580952Y-135585714D01*
X160580952Y-135490476D01*
X160600000Y-135433333D01*
X160638095Y-135395238D01*
X160676190Y-135376190D01*
X160752380Y-135357142D01*
X160809523Y-135357142D01*
X160885714Y-135376190D01*
X160923809Y-135395238D01*
X160961904Y-135433333D01*
X160980952Y-135490476D01*
X160980952Y-135585714D01*
X160980952Y-134976190D02*
X160980952Y-135204761D01*
X160980952Y-135090476D02*
X160580952Y-135090476D01*
X160638095Y-135128571D01*
X160676190Y-135166666D01*
X160695238Y-135204761D01*
X160580952Y-134842857D02*
X160580952Y-134576190D01*
X160980952Y-134747619D01*
D10*
X189620952Y-107004380D02*
X189620952Y-106004380D01*
X189859047Y-106004380D01*
X190001904Y-106052000D01*
X190097142Y-106147238D01*
X190144761Y-106242476D01*
X190192380Y-106432952D01*
X190192380Y-106575809D01*
X190144761Y-106766285D01*
X190097142Y-106861523D01*
X190001904Y-106956761D01*
X189859047Y-107004380D01*
X189620952Y-107004380D01*
X190573333Y-106099619D02*
X190620952Y-106052000D01*
X190716190Y-106004380D01*
X190954285Y-106004380D01*
X191049523Y-106052000D01*
X191097142Y-106099619D01*
X191144761Y-106194857D01*
X191144761Y-106290095D01*
X191097142Y-106432952D01*
X190525714Y-107004380D01*
X191144761Y-107004380D01*
X191763809Y-106004380D02*
X191859047Y-106004380D01*
X191954285Y-106052000D01*
X192001904Y-106099619D01*
X192049523Y-106194857D01*
X192097142Y-106385333D01*
X192097142Y-106623428D01*
X192049523Y-106813904D01*
X192001904Y-106909142D01*
X191954285Y-106956761D01*
X191859047Y-107004380D01*
X191763809Y-107004380D01*
X191668571Y-106956761D01*
X191620952Y-106909142D01*
X191573333Y-106813904D01*
X191525714Y-106623428D01*
X191525714Y-106385333D01*
X191573333Y-106194857D01*
X191620952Y-106099619D01*
X191668571Y-106052000D01*
X191763809Y-106004380D01*
X190097142Y-105602380D02*
X189620952Y-105602380D01*
X189620952Y-104602380D01*
X190430476Y-105078571D02*
X190763809Y-105078571D01*
X190906666Y-105602380D02*
X190430476Y-105602380D01*
X190430476Y-104602380D01*
X190906666Y-104602380D01*
X191335238Y-105602380D02*
X191335238Y-104602380D01*
X191573333Y-104602380D01*
X191716190Y-104650000D01*
X191811428Y-104745238D01*
X191859047Y-104840476D01*
X191906666Y-105030952D01*
X191906666Y-105173809D01*
X191859047Y-105364285D01*
X191811428Y-105459523D01*
X191716190Y-105554761D01*
X191573333Y-105602380D01*
X191335238Y-105602380D01*
D13*
X188420952Y-107315714D02*
X188020952Y-107315714D01*
X188020952Y-107220476D01*
X188040000Y-107163333D01*
X188078095Y-107125238D01*
X188116190Y-107106190D01*
X188192380Y-107087142D01*
X188249523Y-107087142D01*
X188325714Y-107106190D01*
X188363809Y-107125238D01*
X188401904Y-107163333D01*
X188420952Y-107220476D01*
X188420952Y-107315714D01*
X188059047Y-106934761D02*
X188040000Y-106915714D01*
X188020952Y-106877619D01*
X188020952Y-106782380D01*
X188040000Y-106744285D01*
X188059047Y-106725238D01*
X188097142Y-106706190D01*
X188135238Y-106706190D01*
X188192380Y-106725238D01*
X188420952Y-106953809D01*
X188420952Y-106706190D01*
X188020952Y-106458571D02*
X188020952Y-106420476D01*
X188040000Y-106382380D01*
X188059047Y-106363333D01*
X188097142Y-106344285D01*
X188173333Y-106325238D01*
X188268571Y-106325238D01*
X188344761Y-106344285D01*
X188382857Y-106363333D01*
X188401904Y-106382380D01*
X188420952Y-106420476D01*
X188420952Y-106458571D01*
X188401904Y-106496666D01*
X188382857Y-106515714D01*
X188344761Y-106534761D01*
X188268571Y-106553809D01*
X188173333Y-106553809D01*
X188097142Y-106534761D01*
X188059047Y-106515714D01*
X188040000Y-106496666D01*
X188020952Y-106458571D01*
D10*
X189620952Y-111210380D02*
X189620952Y-110210380D01*
X189859047Y-110210380D01*
X190001904Y-110258000D01*
X190097142Y-110353238D01*
X190144761Y-110448476D01*
X190192380Y-110638952D01*
X190192380Y-110781809D01*
X190144761Y-110972285D01*
X190097142Y-111067523D01*
X190001904Y-111162761D01*
X189859047Y-111210380D01*
X189620952Y-111210380D01*
X190573333Y-110305619D02*
X190620952Y-110258000D01*
X190716190Y-110210380D01*
X190954285Y-110210380D01*
X191049523Y-110258000D01*
X191097142Y-110305619D01*
X191144761Y-110400857D01*
X191144761Y-110496095D01*
X191097142Y-110638952D01*
X190525714Y-111210380D01*
X191144761Y-111210380D01*
X192097142Y-111210380D02*
X191525714Y-111210380D01*
X191811428Y-111210380D02*
X191811428Y-110210380D01*
X191716190Y-110353238D01*
X191620952Y-110448476D01*
X191525714Y-110496095D01*
X190097142Y-109808380D02*
X189620952Y-109808380D01*
X189620952Y-108808380D01*
X190430476Y-109284571D02*
X190763809Y-109284571D01*
X190906666Y-109808380D02*
X190430476Y-109808380D01*
X190430476Y-108808380D01*
X190906666Y-108808380D01*
X191335238Y-109808380D02*
X191335238Y-108808380D01*
X191573333Y-108808380D01*
X191716190Y-108856000D01*
X191811428Y-108951238D01*
X191859047Y-109046476D01*
X191906666Y-109236952D01*
X191906666Y-109379809D01*
X191859047Y-109570285D01*
X191811428Y-109665523D01*
X191716190Y-109760761D01*
X191573333Y-109808380D01*
X191335238Y-109808380D01*
D13*
X188430952Y-110405714D02*
X188030952Y-110405714D01*
X188030952Y-110310476D01*
X188050000Y-110253333D01*
X188088095Y-110215238D01*
X188126190Y-110196190D01*
X188202380Y-110177142D01*
X188259523Y-110177142D01*
X188335714Y-110196190D01*
X188373809Y-110215238D01*
X188411904Y-110253333D01*
X188430952Y-110310476D01*
X188430952Y-110405714D01*
X188069047Y-110024761D02*
X188050000Y-110005714D01*
X188030952Y-109967619D01*
X188030952Y-109872380D01*
X188050000Y-109834285D01*
X188069047Y-109815238D01*
X188107142Y-109796190D01*
X188145238Y-109796190D01*
X188202380Y-109815238D01*
X188430952Y-110043809D01*
X188430952Y-109796190D01*
X188430952Y-109415238D02*
X188430952Y-109643809D01*
X188430952Y-109529523D02*
X188030952Y-109529523D01*
X188088095Y-109567619D01*
X188126190Y-109605714D01*
X188145238Y-109643809D01*
D10*
X189200952Y-124002380D02*
X189200952Y-123002380D01*
X189439047Y-123002380D01*
X189581904Y-123050000D01*
X189677142Y-123145238D01*
X189724761Y-123240476D01*
X189772380Y-123430952D01*
X189772380Y-123573809D01*
X189724761Y-123764285D01*
X189677142Y-123859523D01*
X189581904Y-123954761D01*
X189439047Y-124002380D01*
X189200952Y-124002380D01*
X190153333Y-123097619D02*
X190200952Y-123050000D01*
X190296190Y-123002380D01*
X190534285Y-123002380D01*
X190629523Y-123050000D01*
X190677142Y-123097619D01*
X190724761Y-123192857D01*
X190724761Y-123288095D01*
X190677142Y-123430952D01*
X190105714Y-124002380D01*
X190724761Y-124002380D01*
X191105714Y-123097619D02*
X191153333Y-123050000D01*
X191248571Y-123002380D01*
X191486666Y-123002380D01*
X191581904Y-123050000D01*
X191629523Y-123097619D01*
X191677142Y-123192857D01*
X191677142Y-123288095D01*
X191629523Y-123430952D01*
X191058095Y-124002380D01*
X191677142Y-124002380D01*
X189677142Y-122542380D02*
X189200952Y-122542380D01*
X189200952Y-121542380D01*
X190010476Y-122018571D02*
X190343809Y-122018571D01*
X190486666Y-122542380D02*
X190010476Y-122542380D01*
X190010476Y-121542380D01*
X190486666Y-121542380D01*
X190915238Y-122542380D02*
X190915238Y-121542380D01*
X191153333Y-121542380D01*
X191296190Y-121590000D01*
X191391428Y-121685238D01*
X191439047Y-121780476D01*
X191486666Y-121970952D01*
X191486666Y-122113809D01*
X191439047Y-122304285D01*
X191391428Y-122399523D01*
X191296190Y-122494761D01*
X191153333Y-122542380D01*
X190915238Y-122542380D01*
D13*
X188060952Y-124085714D02*
X187660952Y-124085714D01*
X187660952Y-123990476D01*
X187680000Y-123933333D01*
X187718095Y-123895238D01*
X187756190Y-123876190D01*
X187832380Y-123857142D01*
X187889523Y-123857142D01*
X187965714Y-123876190D01*
X188003809Y-123895238D01*
X188041904Y-123933333D01*
X188060952Y-123990476D01*
X188060952Y-124085714D01*
X187699047Y-123704761D02*
X187680000Y-123685714D01*
X187660952Y-123647619D01*
X187660952Y-123552380D01*
X187680000Y-123514285D01*
X187699047Y-123495238D01*
X187737142Y-123476190D01*
X187775238Y-123476190D01*
X187832380Y-123495238D01*
X188060952Y-123723809D01*
X188060952Y-123476190D01*
X187699047Y-123323809D02*
X187680000Y-123304761D01*
X187660952Y-123266666D01*
X187660952Y-123171428D01*
X187680000Y-123133333D01*
X187699047Y-123114285D01*
X187737142Y-123095238D01*
X187775238Y-123095238D01*
X187832380Y-123114285D01*
X188060952Y-123342857D01*
X188060952Y-123095238D01*
D10*
X192370952Y-152627380D02*
X192370952Y-151627380D01*
X192609047Y-151627380D01*
X192751904Y-151675000D01*
X192847142Y-151770238D01*
X192894761Y-151865476D01*
X192942380Y-152055952D01*
X192942380Y-152198809D01*
X192894761Y-152389285D01*
X192847142Y-152484523D01*
X192751904Y-152579761D01*
X192609047Y-152627380D01*
X192370952Y-152627380D01*
X193323333Y-151722619D02*
X193370952Y-151675000D01*
X193466190Y-151627380D01*
X193704285Y-151627380D01*
X193799523Y-151675000D01*
X193847142Y-151722619D01*
X193894761Y-151817857D01*
X193894761Y-151913095D01*
X193847142Y-152055952D01*
X193275714Y-152627380D01*
X193894761Y-152627380D01*
X194228095Y-151627380D02*
X194847142Y-151627380D01*
X194513809Y-152008333D01*
X194656666Y-152008333D01*
X194751904Y-152055952D01*
X194799523Y-152103571D01*
X194847142Y-152198809D01*
X194847142Y-152436904D01*
X194799523Y-152532142D01*
X194751904Y-152579761D01*
X194656666Y-152627380D01*
X194370952Y-152627380D01*
X194275714Y-152579761D01*
X194228095Y-152532142D01*
X192847142Y-151042380D02*
X192370952Y-151042380D01*
X192370952Y-150042380D01*
X193180476Y-150518571D02*
X193513809Y-150518571D01*
X193656666Y-151042380D02*
X193180476Y-151042380D01*
X193180476Y-150042380D01*
X193656666Y-150042380D01*
X194085238Y-151042380D02*
X194085238Y-150042380D01*
X194323333Y-150042380D01*
X194466190Y-150090000D01*
X194561428Y-150185238D01*
X194609047Y-150280476D01*
X194656666Y-150470952D01*
X194656666Y-150613809D01*
X194609047Y-150804285D01*
X194561428Y-150899523D01*
X194466190Y-150994761D01*
X194323333Y-151042380D01*
X194085238Y-151042380D01*
D13*
X189964285Y-152290952D02*
X189964285Y-151890952D01*
X190059523Y-151890952D01*
X190116666Y-151910000D01*
X190154761Y-151948095D01*
X190173809Y-151986190D01*
X190192857Y-152062380D01*
X190192857Y-152119523D01*
X190173809Y-152195714D01*
X190154761Y-152233809D01*
X190116666Y-152271904D01*
X190059523Y-152290952D01*
X189964285Y-152290952D01*
X190345238Y-151929047D02*
X190364285Y-151910000D01*
X190402380Y-151890952D01*
X190497619Y-151890952D01*
X190535714Y-151910000D01*
X190554761Y-151929047D01*
X190573809Y-151967142D01*
X190573809Y-152005238D01*
X190554761Y-152062380D01*
X190326190Y-152290952D01*
X190573809Y-152290952D01*
X190707142Y-151890952D02*
X190954761Y-151890952D01*
X190821428Y-152043333D01*
X190878571Y-152043333D01*
X190916666Y-152062380D01*
X190935714Y-152081428D01*
X190954761Y-152119523D01*
X190954761Y-152214761D01*
X190935714Y-152252857D01*
X190916666Y-152271904D01*
X190878571Y-152290952D01*
X190764285Y-152290952D01*
X190726190Y-152271904D01*
X190707142Y-152252857D01*
D10*
X187270476Y-135552380D02*
X187270476Y-134552380D01*
X187508571Y-134552380D01*
X187651428Y-134600000D01*
X187746666Y-134695238D01*
X187794285Y-134790476D01*
X187841904Y-134980952D01*
X187841904Y-135123809D01*
X187794285Y-135314285D01*
X187746666Y-135409523D01*
X187651428Y-135504761D01*
X187508571Y-135552380D01*
X187270476Y-135552380D01*
X188222857Y-134647619D02*
X188270476Y-134600000D01*
X188365714Y-134552380D01*
X188603809Y-134552380D01*
X188699047Y-134600000D01*
X188746666Y-134647619D01*
X188794285Y-134742857D01*
X188794285Y-134838095D01*
X188746666Y-134980952D01*
X188175238Y-135552380D01*
X188794285Y-135552380D01*
X189651428Y-134885714D02*
X189651428Y-135552380D01*
X189413333Y-134504761D02*
X189175238Y-135219047D01*
X189794285Y-135219047D01*
X187937142Y-134092380D02*
X187460952Y-134092380D01*
X187460952Y-133092380D01*
X188270476Y-133568571D02*
X188603809Y-133568571D01*
X188746666Y-134092380D02*
X188270476Y-134092380D01*
X188270476Y-133092380D01*
X188746666Y-133092380D01*
X189175238Y-134092380D02*
X189175238Y-133092380D01*
X189413333Y-133092380D01*
X189556190Y-133140000D01*
X189651428Y-133235238D01*
X189699047Y-133330476D01*
X189746666Y-133520952D01*
X189746666Y-133663809D01*
X189699047Y-133854285D01*
X189651428Y-133949523D01*
X189556190Y-134044761D01*
X189413333Y-134092380D01*
X189175238Y-134092380D01*
D13*
X191240952Y-135565714D02*
X190840952Y-135565714D01*
X190840952Y-135470476D01*
X190860000Y-135413333D01*
X190898095Y-135375238D01*
X190936190Y-135356190D01*
X191012380Y-135337142D01*
X191069523Y-135337142D01*
X191145714Y-135356190D01*
X191183809Y-135375238D01*
X191221904Y-135413333D01*
X191240952Y-135470476D01*
X191240952Y-135565714D01*
X190879047Y-135184761D02*
X190860000Y-135165714D01*
X190840952Y-135127619D01*
X190840952Y-135032380D01*
X190860000Y-134994285D01*
X190879047Y-134975238D01*
X190917142Y-134956190D01*
X190955238Y-134956190D01*
X191012380Y-134975238D01*
X191240952Y-135203809D01*
X191240952Y-134956190D01*
X190974285Y-134613333D02*
X191240952Y-134613333D01*
X190821904Y-134708571D02*
X191107619Y-134803809D01*
X191107619Y-134556190D01*
D10*
X194240952Y-135612380D02*
X194240952Y-134612380D01*
X194479047Y-134612380D01*
X194621904Y-134660000D01*
X194717142Y-134755238D01*
X194764761Y-134850476D01*
X194812380Y-135040952D01*
X194812380Y-135183809D01*
X194764761Y-135374285D01*
X194717142Y-135469523D01*
X194621904Y-135564761D01*
X194479047Y-135612380D01*
X194240952Y-135612380D01*
X195193333Y-134707619D02*
X195240952Y-134660000D01*
X195336190Y-134612380D01*
X195574285Y-134612380D01*
X195669523Y-134660000D01*
X195717142Y-134707619D01*
X195764761Y-134802857D01*
X195764761Y-134898095D01*
X195717142Y-135040952D01*
X195145714Y-135612380D01*
X195764761Y-135612380D01*
X196669523Y-134612380D02*
X196193333Y-134612380D01*
X196145714Y-135088571D01*
X196193333Y-135040952D01*
X196288571Y-134993333D01*
X196526666Y-134993333D01*
X196621904Y-135040952D01*
X196669523Y-135088571D01*
X196717142Y-135183809D01*
X196717142Y-135421904D01*
X196669523Y-135517142D01*
X196621904Y-135564761D01*
X196526666Y-135612380D01*
X196288571Y-135612380D01*
X196193333Y-135564761D01*
X196145714Y-135517142D01*
X194717142Y-134232380D02*
X194240952Y-134232380D01*
X194240952Y-133232380D01*
X195050476Y-133708571D02*
X195383809Y-133708571D01*
X195526666Y-134232380D02*
X195050476Y-134232380D01*
X195050476Y-133232380D01*
X195526666Y-133232380D01*
X195955238Y-134232380D02*
X195955238Y-133232380D01*
X196193333Y-133232380D01*
X196336190Y-133280000D01*
X196431428Y-133375238D01*
X196479047Y-133470476D01*
X196526666Y-133660952D01*
X196526666Y-133803809D01*
X196479047Y-133994285D01*
X196431428Y-134089523D01*
X196336190Y-134184761D01*
X196193333Y-134232380D01*
X195955238Y-134232380D01*
D13*
X193230952Y-135555714D02*
X192830952Y-135555714D01*
X192830952Y-135460476D01*
X192850000Y-135403333D01*
X192888095Y-135365238D01*
X192926190Y-135346190D01*
X193002380Y-135327142D01*
X193059523Y-135327142D01*
X193135714Y-135346190D01*
X193173809Y-135365238D01*
X193211904Y-135403333D01*
X193230952Y-135460476D01*
X193230952Y-135555714D01*
X192869047Y-135174761D02*
X192850000Y-135155714D01*
X192830952Y-135117619D01*
X192830952Y-135022380D01*
X192850000Y-134984285D01*
X192869047Y-134965238D01*
X192907142Y-134946190D01*
X192945238Y-134946190D01*
X193002380Y-134965238D01*
X193230952Y-135193809D01*
X193230952Y-134946190D01*
X192830952Y-134584285D02*
X192830952Y-134774761D01*
X193021428Y-134793809D01*
X193002380Y-134774761D01*
X192983333Y-134736666D01*
X192983333Y-134641428D01*
X193002380Y-134603333D01*
X193021428Y-134584285D01*
X193059523Y-134565238D01*
X193154761Y-134565238D01*
X193192857Y-134584285D01*
X193211904Y-134603333D01*
X193230952Y-134641428D01*
X193230952Y-134736666D01*
X193211904Y-134774761D01*
X193192857Y-134793809D01*
D10*
X189765714Y-93507380D02*
X189765714Y-92507380D01*
X190003809Y-92507380D01*
X190146666Y-92555000D01*
X190241904Y-92650238D01*
X190289523Y-92745476D01*
X190337142Y-92935952D01*
X190337142Y-93078809D01*
X190289523Y-93269285D01*
X190241904Y-93364523D01*
X190146666Y-93459761D01*
X190003809Y-93507380D01*
X189765714Y-93507380D01*
X190718095Y-92602619D02*
X190765714Y-92555000D01*
X190860952Y-92507380D01*
X191099047Y-92507380D01*
X191194285Y-92555000D01*
X191241904Y-92602619D01*
X191289523Y-92697857D01*
X191289523Y-92793095D01*
X191241904Y-92935952D01*
X190670476Y-93507380D01*
X191289523Y-93507380D01*
X191860952Y-92935952D02*
X191765714Y-92888333D01*
X191718095Y-92840714D01*
X191670476Y-92745476D01*
X191670476Y-92697857D01*
X191718095Y-92602619D01*
X191765714Y-92555000D01*
X191860952Y-92507380D01*
X192051428Y-92507380D01*
X192146666Y-92555000D01*
X192194285Y-92602619D01*
X192241904Y-92697857D01*
X192241904Y-92745476D01*
X192194285Y-92840714D01*
X192146666Y-92888333D01*
X192051428Y-92935952D01*
X191860952Y-92935952D01*
X191765714Y-92983571D01*
X191718095Y-93031190D01*
X191670476Y-93126428D01*
X191670476Y-93316904D01*
X191718095Y-93412142D01*
X191765714Y-93459761D01*
X191860952Y-93507380D01*
X192051428Y-93507380D01*
X192146666Y-93459761D01*
X192194285Y-93412142D01*
X192241904Y-93316904D01*
X192241904Y-93126428D01*
X192194285Y-93031190D01*
X192146666Y-92983571D01*
X192051428Y-92935952D01*
X190432380Y-92042380D02*
X189956190Y-92042380D01*
X189956190Y-91042380D01*
X190765714Y-91518571D02*
X191099047Y-91518571D01*
X191241904Y-92042380D02*
X190765714Y-92042380D01*
X190765714Y-91042380D01*
X191241904Y-91042380D01*
X191670476Y-92042380D02*
X191670476Y-91042380D01*
X191908571Y-91042380D01*
X192051428Y-91090000D01*
X192146666Y-91185238D01*
X192194285Y-91280476D01*
X192241904Y-91470952D01*
X192241904Y-91613809D01*
X192194285Y-91804285D01*
X192146666Y-91899523D01*
X192051428Y-91994761D01*
X191908571Y-92042380D01*
X191670476Y-92042380D01*
D13*
X193720952Y-93045714D02*
X193320952Y-93045714D01*
X193320952Y-92950476D01*
X193340000Y-92893333D01*
X193378095Y-92855238D01*
X193416190Y-92836190D01*
X193492380Y-92817142D01*
X193549523Y-92817142D01*
X193625714Y-92836190D01*
X193663809Y-92855238D01*
X193701904Y-92893333D01*
X193720952Y-92950476D01*
X193720952Y-93045714D01*
X193359047Y-92664761D02*
X193340000Y-92645714D01*
X193320952Y-92607619D01*
X193320952Y-92512380D01*
X193340000Y-92474285D01*
X193359047Y-92455238D01*
X193397142Y-92436190D01*
X193435238Y-92436190D01*
X193492380Y-92455238D01*
X193720952Y-92683809D01*
X193720952Y-92436190D01*
X193492380Y-92207619D02*
X193473333Y-92245714D01*
X193454285Y-92264761D01*
X193416190Y-92283809D01*
X193397142Y-92283809D01*
X193359047Y-92264761D01*
X193340000Y-92245714D01*
X193320952Y-92207619D01*
X193320952Y-92131428D01*
X193340000Y-92093333D01*
X193359047Y-92074285D01*
X193397142Y-92055238D01*
X193416190Y-92055238D01*
X193454285Y-92074285D01*
X193473333Y-92093333D01*
X193492380Y-92131428D01*
X193492380Y-92207619D01*
X193511428Y-92245714D01*
X193530476Y-92264761D01*
X193568571Y-92283809D01*
X193644761Y-92283809D01*
X193682857Y-92264761D01*
X193701904Y-92245714D01*
X193720952Y-92207619D01*
X193720952Y-92131428D01*
X193701904Y-92093333D01*
X193682857Y-92074285D01*
X193644761Y-92055238D01*
X193568571Y-92055238D01*
X193530476Y-92074285D01*
X193511428Y-92093333D01*
X193492380Y-92131428D01*
D10*
X211195714Y-102132380D02*
X211195714Y-101132380D01*
X211433809Y-101132380D01*
X211576666Y-101180000D01*
X211671904Y-101275238D01*
X211719523Y-101370476D01*
X211767142Y-101560952D01*
X211767142Y-101703809D01*
X211719523Y-101894285D01*
X211671904Y-101989523D01*
X211576666Y-102084761D01*
X211433809Y-102132380D01*
X211195714Y-102132380D01*
X212148095Y-101227619D02*
X212195714Y-101180000D01*
X212290952Y-101132380D01*
X212529047Y-101132380D01*
X212624285Y-101180000D01*
X212671904Y-101227619D01*
X212719523Y-101322857D01*
X212719523Y-101418095D01*
X212671904Y-101560952D01*
X212100476Y-102132380D01*
X212719523Y-102132380D01*
X213195714Y-102132380D02*
X213386190Y-102132380D01*
X213481428Y-102084761D01*
X213529047Y-102037142D01*
X213624285Y-101894285D01*
X213671904Y-101703809D01*
X213671904Y-101322857D01*
X213624285Y-101227619D01*
X213576666Y-101180000D01*
X213481428Y-101132380D01*
X213290952Y-101132380D01*
X213195714Y-101180000D01*
X213148095Y-101227619D01*
X213100476Y-101322857D01*
X213100476Y-101560952D01*
X213148095Y-101656190D01*
X213195714Y-101703809D01*
X213290952Y-101751428D01*
X213481428Y-101751428D01*
X213576666Y-101703809D01*
X213624285Y-101656190D01*
X213671904Y-101560952D01*
X211671904Y-100762380D02*
X211195714Y-100762380D01*
X211195714Y-99762380D01*
X212005238Y-100238571D02*
X212338571Y-100238571D01*
X212481428Y-100762380D02*
X212005238Y-100762380D01*
X212005238Y-99762380D01*
X212481428Y-99762380D01*
X212910000Y-100762380D02*
X212910000Y-99762380D01*
X213148095Y-99762380D01*
X213290952Y-99810000D01*
X213386190Y-99905238D01*
X213433809Y-100000476D01*
X213481428Y-100190952D01*
X213481428Y-100333809D01*
X213433809Y-100524285D01*
X213386190Y-100619523D01*
X213290952Y-100714761D01*
X213148095Y-100762380D01*
X212910000Y-100762380D01*
D13*
X208744285Y-103150952D02*
X208744285Y-102750952D01*
X208839523Y-102750952D01*
X208896666Y-102770000D01*
X208934761Y-102808095D01*
X208953809Y-102846190D01*
X208972857Y-102922380D01*
X208972857Y-102979523D01*
X208953809Y-103055714D01*
X208934761Y-103093809D01*
X208896666Y-103131904D01*
X208839523Y-103150952D01*
X208744285Y-103150952D01*
X209125238Y-102789047D02*
X209144285Y-102770000D01*
X209182380Y-102750952D01*
X209277619Y-102750952D01*
X209315714Y-102770000D01*
X209334761Y-102789047D01*
X209353809Y-102827142D01*
X209353809Y-102865238D01*
X209334761Y-102922380D01*
X209106190Y-103150952D01*
X209353809Y-103150952D01*
X209544285Y-103150952D02*
X209620476Y-103150952D01*
X209658571Y-103131904D01*
X209677619Y-103112857D01*
X209715714Y-103055714D01*
X209734761Y-102979523D01*
X209734761Y-102827142D01*
X209715714Y-102789047D01*
X209696666Y-102770000D01*
X209658571Y-102750952D01*
X209582380Y-102750952D01*
X209544285Y-102770000D01*
X209525238Y-102789047D01*
X209506190Y-102827142D01*
X209506190Y-102922380D01*
X209525238Y-102960476D01*
X209544285Y-102979523D01*
X209582380Y-102998571D01*
X209658571Y-102998571D01*
X209696666Y-102979523D01*
X209715714Y-102960476D01*
X209734761Y-102922380D01*
D10*
X218755714Y-100462380D02*
X218755714Y-99462380D01*
X218993809Y-99462380D01*
X219136666Y-99510000D01*
X219231904Y-99605238D01*
X219279523Y-99700476D01*
X219327142Y-99890952D01*
X219327142Y-100033809D01*
X219279523Y-100224285D01*
X219231904Y-100319523D01*
X219136666Y-100414761D01*
X218993809Y-100462380D01*
X218755714Y-100462380D01*
X219660476Y-99462380D02*
X220279523Y-99462380D01*
X219946190Y-99843333D01*
X220089047Y-99843333D01*
X220184285Y-99890952D01*
X220231904Y-99938571D01*
X220279523Y-100033809D01*
X220279523Y-100271904D01*
X220231904Y-100367142D01*
X220184285Y-100414761D01*
X220089047Y-100462380D01*
X219803333Y-100462380D01*
X219708095Y-100414761D01*
X219660476Y-100367142D01*
X220898571Y-99462380D02*
X220993809Y-99462380D01*
X221089047Y-99510000D01*
X221136666Y-99557619D01*
X221184285Y-99652857D01*
X221231904Y-99843333D01*
X221231904Y-100081428D01*
X221184285Y-100271904D01*
X221136666Y-100367142D01*
X221089047Y-100414761D01*
X220993809Y-100462380D01*
X220898571Y-100462380D01*
X220803333Y-100414761D01*
X220755714Y-100367142D01*
X220708095Y-100271904D01*
X220660476Y-100081428D01*
X220660476Y-99843333D01*
X220708095Y-99652857D01*
X220755714Y-99557619D01*
X220803333Y-99510000D01*
X220898571Y-99462380D01*
X219247142Y-99092380D02*
X218770952Y-99092380D01*
X218770952Y-98092380D01*
X219580476Y-98568571D02*
X219913809Y-98568571D01*
X220056666Y-99092380D02*
X219580476Y-99092380D01*
X219580476Y-98092380D01*
X220056666Y-98092380D01*
X220485238Y-99092380D02*
X220485238Y-98092380D01*
X220723333Y-98092380D01*
X220866190Y-98140000D01*
X220961428Y-98235238D01*
X221009047Y-98330476D01*
X221056666Y-98520952D01*
X221056666Y-98663809D01*
X221009047Y-98854285D01*
X220961428Y-98949523D01*
X220866190Y-99044761D01*
X220723333Y-99092380D01*
X220485238Y-99092380D01*
D13*
X217930952Y-100135714D02*
X217530952Y-100135714D01*
X217530952Y-100040476D01*
X217550000Y-99983333D01*
X217588095Y-99945238D01*
X217626190Y-99926190D01*
X217702380Y-99907142D01*
X217759523Y-99907142D01*
X217835714Y-99926190D01*
X217873809Y-99945238D01*
X217911904Y-99983333D01*
X217930952Y-100040476D01*
X217930952Y-100135714D01*
X217530952Y-99773809D02*
X217530952Y-99526190D01*
X217683333Y-99659523D01*
X217683333Y-99602380D01*
X217702380Y-99564285D01*
X217721428Y-99545238D01*
X217759523Y-99526190D01*
X217854761Y-99526190D01*
X217892857Y-99545238D01*
X217911904Y-99564285D01*
X217930952Y-99602380D01*
X217930952Y-99716666D01*
X217911904Y-99754761D01*
X217892857Y-99773809D01*
X217530952Y-99278571D02*
X217530952Y-99240476D01*
X217550000Y-99202380D01*
X217569047Y-99183333D01*
X217607142Y-99164285D01*
X217683333Y-99145238D01*
X217778571Y-99145238D01*
X217854761Y-99164285D01*
X217892857Y-99183333D01*
X217911904Y-99202380D01*
X217930952Y-99240476D01*
X217930952Y-99278571D01*
X217911904Y-99316666D01*
X217892857Y-99335714D01*
X217854761Y-99354761D01*
X217778571Y-99373809D01*
X217683333Y-99373809D01*
X217607142Y-99354761D01*
X217569047Y-99335714D01*
X217550000Y-99316666D01*
X217530952Y-99278571D01*
D10*
X194115714Y-51792380D02*
X194115714Y-50792380D01*
X194353809Y-50792380D01*
X194496666Y-50840000D01*
X194591904Y-50935238D01*
X194639523Y-51030476D01*
X194687142Y-51220952D01*
X194687142Y-51363809D01*
X194639523Y-51554285D01*
X194591904Y-51649523D01*
X194496666Y-51744761D01*
X194353809Y-51792380D01*
X194115714Y-51792380D01*
X195020476Y-50792380D02*
X195639523Y-50792380D01*
X195306190Y-51173333D01*
X195449047Y-51173333D01*
X195544285Y-51220952D01*
X195591904Y-51268571D01*
X195639523Y-51363809D01*
X195639523Y-51601904D01*
X195591904Y-51697142D01*
X195544285Y-51744761D01*
X195449047Y-51792380D01*
X195163333Y-51792380D01*
X195068095Y-51744761D01*
X195020476Y-51697142D01*
X196591904Y-51792380D02*
X196020476Y-51792380D01*
X196306190Y-51792380D02*
X196306190Y-50792380D01*
X196210952Y-50935238D01*
X196115714Y-51030476D01*
X196020476Y-51078095D01*
X194607142Y-50392380D02*
X194130952Y-50392380D01*
X194130952Y-49392380D01*
X194940476Y-49868571D02*
X195273809Y-49868571D01*
X195416666Y-50392380D02*
X194940476Y-50392380D01*
X194940476Y-49392380D01*
X195416666Y-49392380D01*
X195845238Y-50392380D02*
X195845238Y-49392380D01*
X196083333Y-49392380D01*
X196226190Y-49440000D01*
X196321428Y-49535238D01*
X196369047Y-49630476D01*
X196416666Y-49820952D01*
X196416666Y-49963809D01*
X196369047Y-50154285D01*
X196321428Y-50249523D01*
X196226190Y-50344761D01*
X196083333Y-50392380D01*
X195845238Y-50392380D01*
D13*
X194844285Y-54420952D02*
X194844285Y-54020952D01*
X194939523Y-54020952D01*
X194996666Y-54040000D01*
X195034761Y-54078095D01*
X195053809Y-54116190D01*
X195072857Y-54192380D01*
X195072857Y-54249523D01*
X195053809Y-54325714D01*
X195034761Y-54363809D01*
X194996666Y-54401904D01*
X194939523Y-54420952D01*
X194844285Y-54420952D01*
X195206190Y-54020952D02*
X195453809Y-54020952D01*
X195320476Y-54173333D01*
X195377619Y-54173333D01*
X195415714Y-54192380D01*
X195434761Y-54211428D01*
X195453809Y-54249523D01*
X195453809Y-54344761D01*
X195434761Y-54382857D01*
X195415714Y-54401904D01*
X195377619Y-54420952D01*
X195263333Y-54420952D01*
X195225238Y-54401904D01*
X195206190Y-54382857D01*
X195834761Y-54420952D02*
X195606190Y-54420952D01*
X195720476Y-54420952D02*
X195720476Y-54020952D01*
X195682380Y-54078095D01*
X195644285Y-54116190D01*
X195606190Y-54135238D01*
D10*
X172245714Y-41607380D02*
X172245714Y-40607380D01*
X172483809Y-40607380D01*
X172626666Y-40655000D01*
X172721904Y-40750238D01*
X172769523Y-40845476D01*
X172817142Y-41035952D01*
X172817142Y-41178809D01*
X172769523Y-41369285D01*
X172721904Y-41464523D01*
X172626666Y-41559761D01*
X172483809Y-41607380D01*
X172245714Y-41607380D01*
X173150476Y-40607380D02*
X173769523Y-40607380D01*
X173436190Y-40988333D01*
X173579047Y-40988333D01*
X173674285Y-41035952D01*
X173721904Y-41083571D01*
X173769523Y-41178809D01*
X173769523Y-41416904D01*
X173721904Y-41512142D01*
X173674285Y-41559761D01*
X173579047Y-41607380D01*
X173293333Y-41607380D01*
X173198095Y-41559761D01*
X173150476Y-41512142D01*
X174150476Y-40702619D02*
X174198095Y-40655000D01*
X174293333Y-40607380D01*
X174531428Y-40607380D01*
X174626666Y-40655000D01*
X174674285Y-40702619D01*
X174721904Y-40797857D01*
X174721904Y-40893095D01*
X174674285Y-41035952D01*
X174102857Y-41607380D01*
X174721904Y-41607380D01*
X172912380Y-40242380D02*
X172436190Y-40242380D01*
X172436190Y-39242380D01*
X173245714Y-39718571D02*
X173579047Y-39718571D01*
X173721904Y-40242380D02*
X173245714Y-40242380D01*
X173245714Y-39242380D01*
X173721904Y-39242380D01*
X174150476Y-40242380D02*
X174150476Y-39242380D01*
X174388571Y-39242380D01*
X174531428Y-39290000D01*
X174626666Y-39385238D01*
X174674285Y-39480476D01*
X174721904Y-39670952D01*
X174721904Y-39813809D01*
X174674285Y-40004285D01*
X174626666Y-40099523D01*
X174531428Y-40194761D01*
X174388571Y-40242380D01*
X174150476Y-40242380D01*
D13*
X176090952Y-41505714D02*
X175690952Y-41505714D01*
X175690952Y-41410476D01*
X175710000Y-41353333D01*
X175748095Y-41315238D01*
X175786190Y-41296190D01*
X175862380Y-41277142D01*
X175919523Y-41277142D01*
X175995714Y-41296190D01*
X176033809Y-41315238D01*
X176071904Y-41353333D01*
X176090952Y-41410476D01*
X176090952Y-41505714D01*
X175690952Y-41143809D02*
X175690952Y-40896190D01*
X175843333Y-41029523D01*
X175843333Y-40972380D01*
X175862380Y-40934285D01*
X175881428Y-40915238D01*
X175919523Y-40896190D01*
X176014761Y-40896190D01*
X176052857Y-40915238D01*
X176071904Y-40934285D01*
X176090952Y-40972380D01*
X176090952Y-41086666D01*
X176071904Y-41124761D01*
X176052857Y-41143809D01*
X175729047Y-40743809D02*
X175710000Y-40724761D01*
X175690952Y-40686666D01*
X175690952Y-40591428D01*
X175710000Y-40553333D01*
X175729047Y-40534285D01*
X175767142Y-40515238D01*
X175805238Y-40515238D01*
X175862380Y-40534285D01*
X176090952Y-40762857D01*
X176090952Y-40515238D01*
D10*
X179037143Y-41512380D02*
X179037143Y-40512380D01*
X179275238Y-40512380D01*
X179418095Y-40560000D01*
X179513333Y-40655238D01*
X179560952Y-40750476D01*
X179608571Y-40940952D01*
X179608571Y-41083809D01*
X179560952Y-41274285D01*
X179513333Y-41369523D01*
X179418095Y-41464761D01*
X179275238Y-41512380D01*
X179037143Y-41512380D01*
X179941905Y-40512380D02*
X180560952Y-40512380D01*
X180227619Y-40893333D01*
X180370476Y-40893333D01*
X180465714Y-40940952D01*
X180513333Y-40988571D01*
X180560952Y-41083809D01*
X180560952Y-41321904D01*
X180513333Y-41417142D01*
X180465714Y-41464761D01*
X180370476Y-41512380D01*
X180084762Y-41512380D01*
X179989524Y-41464761D01*
X179941905Y-41417142D01*
X180894286Y-40512380D02*
X181513333Y-40512380D01*
X181180000Y-40893333D01*
X181322857Y-40893333D01*
X181418095Y-40940952D01*
X181465714Y-40988571D01*
X181513333Y-41083809D01*
X181513333Y-41321904D01*
X181465714Y-41417142D01*
X181418095Y-41464761D01*
X181322857Y-41512380D01*
X181037143Y-41512380D01*
X180941905Y-41464761D01*
X180894286Y-41417142D01*
X179513333Y-40082380D02*
X179037143Y-40082380D01*
X179037143Y-39082380D01*
X179846667Y-39558571D02*
X180180000Y-39558571D01*
X180322857Y-40082380D02*
X179846667Y-40082380D01*
X179846667Y-39082380D01*
X180322857Y-39082380D01*
X180751429Y-40082380D02*
X180751429Y-39082380D01*
X180989524Y-39082380D01*
X181132381Y-39130000D01*
X181227619Y-39225238D01*
X181275238Y-39320476D01*
X181322857Y-39510952D01*
X181322857Y-39653809D01*
X181275238Y-39844285D01*
X181227619Y-39939523D01*
X181132381Y-40034761D01*
X180989524Y-40082380D01*
X180751429Y-40082380D01*
D13*
X178130952Y-41525714D02*
X177730952Y-41525714D01*
X177730952Y-41430476D01*
X177750000Y-41373333D01*
X177788095Y-41335238D01*
X177826190Y-41316190D01*
X177902380Y-41297142D01*
X177959523Y-41297142D01*
X178035714Y-41316190D01*
X178073809Y-41335238D01*
X178111904Y-41373333D01*
X178130952Y-41430476D01*
X178130952Y-41525714D01*
X177730952Y-41163809D02*
X177730952Y-40916190D01*
X177883333Y-41049523D01*
X177883333Y-40992380D01*
X177902380Y-40954285D01*
X177921428Y-40935238D01*
X177959523Y-40916190D01*
X178054761Y-40916190D01*
X178092857Y-40935238D01*
X178111904Y-40954285D01*
X178130952Y-40992380D01*
X178130952Y-41106666D01*
X178111904Y-41144761D01*
X178092857Y-41163809D01*
X177730952Y-40782857D02*
X177730952Y-40535238D01*
X177883333Y-40668571D01*
X177883333Y-40611428D01*
X177902380Y-40573333D01*
X177921428Y-40554285D01*
X177959523Y-40535238D01*
X178054761Y-40535238D01*
X178092857Y-40554285D01*
X178111904Y-40573333D01*
X178130952Y-40611428D01*
X178130952Y-40725714D01*
X178111904Y-40763809D01*
X178092857Y-40782857D01*
D10*
X183535714Y-30452380D02*
X183535714Y-29452380D01*
X183773809Y-29452380D01*
X183916666Y-29500000D01*
X184011904Y-29595238D01*
X184059523Y-29690476D01*
X184107142Y-29880952D01*
X184107142Y-30023809D01*
X184059523Y-30214285D01*
X184011904Y-30309523D01*
X183916666Y-30404761D01*
X183773809Y-30452380D01*
X183535714Y-30452380D01*
X184440476Y-29452380D02*
X185059523Y-29452380D01*
X184726190Y-29833333D01*
X184869047Y-29833333D01*
X184964285Y-29880952D01*
X185011904Y-29928571D01*
X185059523Y-30023809D01*
X185059523Y-30261904D01*
X185011904Y-30357142D01*
X184964285Y-30404761D01*
X184869047Y-30452380D01*
X184583333Y-30452380D01*
X184488095Y-30404761D01*
X184440476Y-30357142D01*
X185916666Y-29785714D02*
X185916666Y-30452380D01*
X185678571Y-29404761D02*
X185440476Y-30119047D01*
X186059523Y-30119047D01*
X184011904Y-29082380D02*
X183535714Y-29082380D01*
X183535714Y-28082380D01*
X184345238Y-28558571D02*
X184678571Y-28558571D01*
X184821428Y-29082380D02*
X184345238Y-29082380D01*
X184345238Y-28082380D01*
X184821428Y-28082380D01*
X185250000Y-29082380D02*
X185250000Y-28082380D01*
X185488095Y-28082380D01*
X185630952Y-28130000D01*
X185726190Y-28225238D01*
X185773809Y-28320476D01*
X185821428Y-28510952D01*
X185821428Y-28653809D01*
X185773809Y-28844285D01*
X185726190Y-28939523D01*
X185630952Y-29034761D01*
X185488095Y-29082380D01*
X185250000Y-29082380D01*
D13*
X181114285Y-30140952D02*
X181114285Y-29740952D01*
X181209523Y-29740952D01*
X181266666Y-29760000D01*
X181304761Y-29798095D01*
X181323809Y-29836190D01*
X181342857Y-29912380D01*
X181342857Y-29969523D01*
X181323809Y-30045714D01*
X181304761Y-30083809D01*
X181266666Y-30121904D01*
X181209523Y-30140952D01*
X181114285Y-30140952D01*
X181476190Y-29740952D02*
X181723809Y-29740952D01*
X181590476Y-29893333D01*
X181647619Y-29893333D01*
X181685714Y-29912380D01*
X181704761Y-29931428D01*
X181723809Y-29969523D01*
X181723809Y-30064761D01*
X181704761Y-30102857D01*
X181685714Y-30121904D01*
X181647619Y-30140952D01*
X181533333Y-30140952D01*
X181495238Y-30121904D01*
X181476190Y-30102857D01*
X182066666Y-29874285D02*
X182066666Y-30140952D01*
X181971428Y-29721904D02*
X181876190Y-30007619D01*
X182123809Y-30007619D01*
D10*
X170715714Y-24312380D02*
X170715714Y-23312380D01*
X170953809Y-23312380D01*
X171096666Y-23360000D01*
X171191904Y-23455238D01*
X171239523Y-23550476D01*
X171287142Y-23740952D01*
X171287142Y-23883809D01*
X171239523Y-24074285D01*
X171191904Y-24169523D01*
X171096666Y-24264761D01*
X170953809Y-24312380D01*
X170715714Y-24312380D01*
X171620476Y-23312380D02*
X172239523Y-23312380D01*
X171906190Y-23693333D01*
X172049047Y-23693333D01*
X172144285Y-23740952D01*
X172191904Y-23788571D01*
X172239523Y-23883809D01*
X172239523Y-24121904D01*
X172191904Y-24217142D01*
X172144285Y-24264761D01*
X172049047Y-24312380D01*
X171763333Y-24312380D01*
X171668095Y-24264761D01*
X171620476Y-24217142D01*
X173144285Y-23312380D02*
X172668095Y-23312380D01*
X172620476Y-23788571D01*
X172668095Y-23740952D01*
X172763333Y-23693333D01*
X173001428Y-23693333D01*
X173096666Y-23740952D01*
X173144285Y-23788571D01*
X173191904Y-23883809D01*
X173191904Y-24121904D01*
X173144285Y-24217142D01*
X173096666Y-24264761D01*
X173001428Y-24312380D01*
X172763333Y-24312380D01*
X172668095Y-24264761D01*
X172620476Y-24217142D01*
X171211904Y-22902380D02*
X170735714Y-22902380D01*
X170735714Y-21902380D01*
X171545238Y-22378571D02*
X171878571Y-22378571D01*
X172021428Y-22902380D02*
X171545238Y-22902380D01*
X171545238Y-21902380D01*
X172021428Y-21902380D01*
X172450000Y-22902380D02*
X172450000Y-21902380D01*
X172688095Y-21902380D01*
X172830952Y-21950000D01*
X172926190Y-22045238D01*
X172973809Y-22140476D01*
X173021428Y-22330952D01*
X173021428Y-22473809D01*
X172973809Y-22664285D01*
X172926190Y-22759523D01*
X172830952Y-22854761D01*
X172688095Y-22902380D01*
X172450000Y-22902380D01*
D13*
X168424285Y-24020952D02*
X168424285Y-23620952D01*
X168519523Y-23620952D01*
X168576666Y-23640000D01*
X168614761Y-23678095D01*
X168633809Y-23716190D01*
X168652857Y-23792380D01*
X168652857Y-23849523D01*
X168633809Y-23925714D01*
X168614761Y-23963809D01*
X168576666Y-24001904D01*
X168519523Y-24020952D01*
X168424285Y-24020952D01*
X168786190Y-23620952D02*
X169033809Y-23620952D01*
X168900476Y-23773333D01*
X168957619Y-23773333D01*
X168995714Y-23792380D01*
X169014761Y-23811428D01*
X169033809Y-23849523D01*
X169033809Y-23944761D01*
X169014761Y-23982857D01*
X168995714Y-24001904D01*
X168957619Y-24020952D01*
X168843333Y-24020952D01*
X168805238Y-24001904D01*
X168786190Y-23982857D01*
X169395714Y-23620952D02*
X169205238Y-23620952D01*
X169186190Y-23811428D01*
X169205238Y-23792380D01*
X169243333Y-23773333D01*
X169338571Y-23773333D01*
X169376666Y-23792380D01*
X169395714Y-23811428D01*
X169414761Y-23849523D01*
X169414761Y-23944761D01*
X169395714Y-23982857D01*
X169376666Y-24001904D01*
X169338571Y-24020952D01*
X169243333Y-24020952D01*
X169205238Y-24001904D01*
X169186190Y-23982857D01*
D10*
X173812619Y-192662380D02*
X173336428Y-192662380D01*
X173336428Y-191662380D01*
X174145952Y-192138571D02*
X174479285Y-192138571D01*
X174622142Y-192662380D02*
X174145952Y-192662380D01*
X174145952Y-191662380D01*
X174622142Y-191662380D01*
X175050714Y-192662380D02*
X175050714Y-191662380D01*
X175288809Y-191662380D01*
X175431666Y-191710000D01*
X175526904Y-191805238D01*
X175574523Y-191900476D01*
X175622142Y-192090952D01*
X175622142Y-192233809D01*
X175574523Y-192424285D01*
X175526904Y-192519523D01*
X175431666Y-192614761D01*
X175288809Y-192662380D01*
X175050714Y-192662380D01*
X175812619Y-192757619D02*
X176574523Y-192757619D01*
X176765000Y-192376666D02*
X177241190Y-192376666D01*
X176669761Y-192662380D02*
X177003095Y-191662380D01*
X177336428Y-192662380D01*
X178241190Y-192662380D02*
X177907857Y-192186190D01*
X177669761Y-192662380D02*
X177669761Y-191662380D01*
X178050714Y-191662380D01*
X178145952Y-191710000D01*
X178193571Y-191757619D01*
X178241190Y-191852857D01*
X178241190Y-191995714D01*
X178193571Y-192090952D01*
X178145952Y-192138571D01*
X178050714Y-192186190D01*
X177669761Y-192186190D01*
X179193571Y-191710000D02*
X179098333Y-191662380D01*
X178955476Y-191662380D01*
X178812619Y-191710000D01*
X178717380Y-191805238D01*
X178669761Y-191900476D01*
X178622142Y-192090952D01*
X178622142Y-192233809D01*
X178669761Y-192424285D01*
X178717380Y-192519523D01*
X178812619Y-192614761D01*
X178955476Y-192662380D01*
X179050714Y-192662380D01*
X179193571Y-192614761D01*
X179241190Y-192567142D01*
X179241190Y-192233809D01*
X179050714Y-192233809D01*
X180003095Y-192138571D02*
X180145952Y-192186190D01*
X180193571Y-192233809D01*
X180241190Y-192329047D01*
X180241190Y-192471904D01*
X180193571Y-192567142D01*
X180145952Y-192614761D01*
X180050714Y-192662380D01*
X179669761Y-192662380D01*
X179669761Y-191662380D01*
X180003095Y-191662380D01*
X180098333Y-191710000D01*
X180145952Y-191757619D01*
X180193571Y-191852857D01*
X180193571Y-191948095D01*
X180145952Y-192043333D01*
X180098333Y-192090952D01*
X180003095Y-192138571D01*
X179669761Y-192138571D01*
X175550714Y-184742380D02*
X175550714Y-183742380D01*
X175788809Y-183742380D01*
X175931666Y-183790000D01*
X176026904Y-183885238D01*
X176074523Y-183980476D01*
X176122142Y-184170952D01*
X176122142Y-184313809D01*
X176074523Y-184504285D01*
X176026904Y-184599523D01*
X175931666Y-184694761D01*
X175788809Y-184742380D01*
X175550714Y-184742380D01*
X176455476Y-183742380D02*
X177074523Y-183742380D01*
X176741190Y-184123333D01*
X176884047Y-184123333D01*
X176979285Y-184170952D01*
X177026904Y-184218571D01*
X177074523Y-184313809D01*
X177074523Y-184551904D01*
X177026904Y-184647142D01*
X176979285Y-184694761D01*
X176884047Y-184742380D01*
X176598333Y-184742380D01*
X176503095Y-184694761D01*
X176455476Y-184647142D01*
X177645952Y-184170952D02*
X177550714Y-184123333D01*
X177503095Y-184075714D01*
X177455476Y-183980476D01*
X177455476Y-183932857D01*
X177503095Y-183837619D01*
X177550714Y-183790000D01*
X177645952Y-183742380D01*
X177836428Y-183742380D01*
X177931666Y-183790000D01*
X177979285Y-183837619D01*
X178026904Y-183932857D01*
X178026904Y-183980476D01*
X177979285Y-184075714D01*
X177931666Y-184123333D01*
X177836428Y-184170952D01*
X177645952Y-184170952D01*
X177550714Y-184218571D01*
X177503095Y-184266190D01*
X177455476Y-184361428D01*
X177455476Y-184551904D01*
X177503095Y-184647142D01*
X177550714Y-184694761D01*
X177645952Y-184742380D01*
X177836428Y-184742380D01*
X177931666Y-184694761D01*
X177979285Y-184647142D01*
X178026904Y-184551904D01*
X178026904Y-184361428D01*
X177979285Y-184266190D01*
X177931666Y-184218571D01*
X177836428Y-184170952D01*
X144256666Y-89874761D02*
X144399523Y-89922380D01*
X144637619Y-89922380D01*
X144732857Y-89874761D01*
X144780476Y-89827142D01*
X144828095Y-89731904D01*
X144828095Y-89636666D01*
X144780476Y-89541428D01*
X144732857Y-89493809D01*
X144637619Y-89446190D01*
X144447142Y-89398571D01*
X144351904Y-89350952D01*
X144304285Y-89303333D01*
X144256666Y-89208095D01*
X144256666Y-89112857D01*
X144304285Y-89017619D01*
X144351904Y-88970000D01*
X144447142Y-88922380D01*
X144685238Y-88922380D01*
X144828095Y-88970000D01*
X145161428Y-88922380D02*
X145399523Y-89922380D01*
X145590000Y-89208095D01*
X145780476Y-89922380D01*
X146018571Y-88922380D01*
X146351904Y-89017619D02*
X146399523Y-88970000D01*
X146494761Y-88922380D01*
X146732857Y-88922380D01*
X146828095Y-88970000D01*
X146875714Y-89017619D01*
X146923333Y-89112857D01*
X146923333Y-89208095D01*
X146875714Y-89350952D01*
X146304285Y-89922380D01*
X146923333Y-89922380D01*
X142542380Y-98874761D02*
X142685238Y-98922380D01*
X142923333Y-98922380D01*
X143018571Y-98874761D01*
X143066190Y-98827142D01*
X143113809Y-98731904D01*
X143113809Y-98636666D01*
X143066190Y-98541428D01*
X143018571Y-98493809D01*
X142923333Y-98446190D01*
X142732857Y-98398571D01*
X142637619Y-98350952D01*
X142590000Y-98303333D01*
X142542380Y-98208095D01*
X142542380Y-98112857D01*
X142590000Y-98017619D01*
X142637619Y-97970000D01*
X142732857Y-97922380D01*
X142970952Y-97922380D01*
X143113809Y-97970000D01*
X143447142Y-97922380D02*
X143685238Y-98922380D01*
X143875714Y-98208095D01*
X144066190Y-98922380D01*
X144304285Y-97922380D01*
X144447142Y-99017619D02*
X145209047Y-99017619D01*
X145447142Y-98922380D02*
X145447142Y-97922380D01*
X145828095Y-97922380D01*
X145923333Y-97970000D01*
X145970952Y-98017619D01*
X146018571Y-98112857D01*
X146018571Y-98255714D01*
X145970952Y-98350952D01*
X145923333Y-98398571D01*
X145828095Y-98446190D01*
X145447142Y-98446190D01*
X146875714Y-98255714D02*
X146875714Y-98922380D01*
X146447142Y-98255714D02*
X146447142Y-98779523D01*
X146494761Y-98874761D01*
X146590000Y-98922380D01*
X146732857Y-98922380D01*
X146828095Y-98874761D01*
X146875714Y-98827142D01*
X147304285Y-98874761D02*
X147399523Y-98922380D01*
X147590000Y-98922380D01*
X147685238Y-98874761D01*
X147732857Y-98779523D01*
X147732857Y-98731904D01*
X147685238Y-98636666D01*
X147590000Y-98589047D01*
X147447142Y-98589047D01*
X147351904Y-98541428D01*
X147304285Y-98446190D01*
X147304285Y-98398571D01*
X147351904Y-98303333D01*
X147447142Y-98255714D01*
X147590000Y-98255714D01*
X147685238Y-98303333D01*
X148161428Y-98922380D02*
X148161428Y-97922380D01*
X148590000Y-98922380D02*
X148590000Y-98398571D01*
X148542380Y-98303333D01*
X148447142Y-98255714D01*
X148304285Y-98255714D01*
X148209047Y-98303333D01*
X148161428Y-98350952D01*
X144176666Y-107674761D02*
X144319523Y-107722380D01*
X144557619Y-107722380D01*
X144652857Y-107674761D01*
X144700476Y-107627142D01*
X144748095Y-107531904D01*
X144748095Y-107436666D01*
X144700476Y-107341428D01*
X144652857Y-107293809D01*
X144557619Y-107246190D01*
X144367142Y-107198571D01*
X144271904Y-107150952D01*
X144224285Y-107103333D01*
X144176666Y-107008095D01*
X144176666Y-106912857D01*
X144224285Y-106817619D01*
X144271904Y-106770000D01*
X144367142Y-106722380D01*
X144605238Y-106722380D01*
X144748095Y-106770000D01*
X145081428Y-106722380D02*
X145319523Y-107722380D01*
X145510000Y-107008095D01*
X145700476Y-107722380D01*
X145938571Y-106722380D01*
X146224285Y-106722380D02*
X146843333Y-106722380D01*
X146510000Y-107103333D01*
X146652857Y-107103333D01*
X146748095Y-107150952D01*
X146795714Y-107198571D01*
X146843333Y-107293809D01*
X146843333Y-107531904D01*
X146795714Y-107627142D01*
X146748095Y-107674761D01*
X146652857Y-107722380D01*
X146367142Y-107722380D01*
X146271904Y-107674761D01*
X146224285Y-107627142D01*
X142462380Y-116674761D02*
X142605238Y-116722380D01*
X142843333Y-116722380D01*
X142938571Y-116674761D01*
X142986190Y-116627142D01*
X143033809Y-116531904D01*
X143033809Y-116436666D01*
X142986190Y-116341428D01*
X142938571Y-116293809D01*
X142843333Y-116246190D01*
X142652857Y-116198571D01*
X142557619Y-116150952D01*
X142510000Y-116103333D01*
X142462380Y-116008095D01*
X142462380Y-115912857D01*
X142510000Y-115817619D01*
X142557619Y-115770000D01*
X142652857Y-115722380D01*
X142890952Y-115722380D01*
X143033809Y-115770000D01*
X143367142Y-115722380D02*
X143605238Y-116722380D01*
X143795714Y-116008095D01*
X143986190Y-116722380D01*
X144224285Y-115722380D01*
X144367142Y-116817619D02*
X145129047Y-116817619D01*
X145367142Y-116722380D02*
X145367142Y-115722380D01*
X145748095Y-115722380D01*
X145843333Y-115770000D01*
X145890952Y-115817619D01*
X145938571Y-115912857D01*
X145938571Y-116055714D01*
X145890952Y-116150952D01*
X145843333Y-116198571D01*
X145748095Y-116246190D01*
X145367142Y-116246190D01*
X146795714Y-116055714D02*
X146795714Y-116722380D01*
X146367142Y-116055714D02*
X146367142Y-116579523D01*
X146414761Y-116674761D01*
X146510000Y-116722380D01*
X146652857Y-116722380D01*
X146748095Y-116674761D01*
X146795714Y-116627142D01*
X147224285Y-116674761D02*
X147319523Y-116722380D01*
X147510000Y-116722380D01*
X147605238Y-116674761D01*
X147652857Y-116579523D01*
X147652857Y-116531904D01*
X147605238Y-116436666D01*
X147510000Y-116389047D01*
X147367142Y-116389047D01*
X147271904Y-116341428D01*
X147224285Y-116246190D01*
X147224285Y-116198571D01*
X147271904Y-116103333D01*
X147367142Y-116055714D01*
X147510000Y-116055714D01*
X147605238Y-116103333D01*
X148081428Y-116722380D02*
X148081428Y-115722380D01*
X148510000Y-116722380D02*
X148510000Y-116198571D01*
X148462380Y-116103333D01*
X148367142Y-116055714D01*
X148224285Y-116055714D01*
X148129047Y-116103333D01*
X148081428Y-116150952D01*
X152196666Y-98774761D02*
X152339523Y-98822380D01*
X152577619Y-98822380D01*
X152672857Y-98774761D01*
X152720476Y-98727142D01*
X152768095Y-98631904D01*
X152768095Y-98536666D01*
X152720476Y-98441428D01*
X152672857Y-98393809D01*
X152577619Y-98346190D01*
X152387142Y-98298571D01*
X152291904Y-98250952D01*
X152244285Y-98203333D01*
X152196666Y-98108095D01*
X152196666Y-98012857D01*
X152244285Y-97917619D01*
X152291904Y-97870000D01*
X152387142Y-97822380D01*
X152625238Y-97822380D01*
X152768095Y-97870000D01*
X153101428Y-97822380D02*
X153339523Y-98822380D01*
X153530000Y-98108095D01*
X153720476Y-98822380D01*
X153958571Y-97822380D01*
X154815714Y-97822380D02*
X154339523Y-97822380D01*
X154291904Y-98298571D01*
X154339523Y-98250952D01*
X154434761Y-98203333D01*
X154672857Y-98203333D01*
X154768095Y-98250952D01*
X154815714Y-98298571D01*
X154863333Y-98393809D01*
X154863333Y-98631904D01*
X154815714Y-98727142D01*
X154768095Y-98774761D01*
X154672857Y-98822380D01*
X154434761Y-98822380D01*
X154339523Y-98774761D01*
X154291904Y-98727142D01*
X150482380Y-107774761D02*
X150625238Y-107822380D01*
X150863333Y-107822380D01*
X150958571Y-107774761D01*
X151006190Y-107727142D01*
X151053809Y-107631904D01*
X151053809Y-107536666D01*
X151006190Y-107441428D01*
X150958571Y-107393809D01*
X150863333Y-107346190D01*
X150672857Y-107298571D01*
X150577619Y-107250952D01*
X150530000Y-107203333D01*
X150482380Y-107108095D01*
X150482380Y-107012857D01*
X150530000Y-106917619D01*
X150577619Y-106870000D01*
X150672857Y-106822380D01*
X150910952Y-106822380D01*
X151053809Y-106870000D01*
X151387142Y-106822380D02*
X151625238Y-107822380D01*
X151815714Y-107108095D01*
X152006190Y-107822380D01*
X152244285Y-106822380D01*
X152387142Y-107917619D02*
X153149047Y-107917619D01*
X153387142Y-107822380D02*
X153387142Y-106822380D01*
X153768095Y-106822380D01*
X153863333Y-106870000D01*
X153910952Y-106917619D01*
X153958571Y-107012857D01*
X153958571Y-107155714D01*
X153910952Y-107250952D01*
X153863333Y-107298571D01*
X153768095Y-107346190D01*
X153387142Y-107346190D01*
X154815714Y-107155714D02*
X154815714Y-107822380D01*
X154387142Y-107155714D02*
X154387142Y-107679523D01*
X154434761Y-107774761D01*
X154530000Y-107822380D01*
X154672857Y-107822380D01*
X154768095Y-107774761D01*
X154815714Y-107727142D01*
X155244285Y-107774761D02*
X155339523Y-107822380D01*
X155530000Y-107822380D01*
X155625238Y-107774761D01*
X155672857Y-107679523D01*
X155672857Y-107631904D01*
X155625238Y-107536666D01*
X155530000Y-107489047D01*
X155387142Y-107489047D01*
X155291904Y-107441428D01*
X155244285Y-107346190D01*
X155244285Y-107298571D01*
X155291904Y-107203333D01*
X155387142Y-107155714D01*
X155530000Y-107155714D01*
X155625238Y-107203333D01*
X156101428Y-107822380D02*
X156101428Y-106822380D01*
X156530000Y-107822380D02*
X156530000Y-107298571D01*
X156482380Y-107203333D01*
X156387142Y-107155714D01*
X156244285Y-107155714D01*
X156149047Y-107203333D01*
X156101428Y-107250952D01*
X213136666Y-114014761D02*
X213279523Y-114062380D01*
X213517619Y-114062380D01*
X213612857Y-114014761D01*
X213660476Y-113967142D01*
X213708095Y-113871904D01*
X213708095Y-113776666D01*
X213660476Y-113681428D01*
X213612857Y-113633809D01*
X213517619Y-113586190D01*
X213327142Y-113538571D01*
X213231904Y-113490952D01*
X213184285Y-113443333D01*
X213136666Y-113348095D01*
X213136666Y-113252857D01*
X213184285Y-113157619D01*
X213231904Y-113110000D01*
X213327142Y-113062380D01*
X213565238Y-113062380D01*
X213708095Y-113110000D01*
X214041428Y-113062380D02*
X214279523Y-114062380D01*
X214470000Y-113348095D01*
X214660476Y-114062380D01*
X214898571Y-113062380D01*
X215708095Y-113062380D02*
X215517619Y-113062380D01*
X215422380Y-113110000D01*
X215374761Y-113157619D01*
X215279523Y-113300476D01*
X215231904Y-113490952D01*
X215231904Y-113871904D01*
X215279523Y-113967142D01*
X215327142Y-114014761D01*
X215422380Y-114062380D01*
X215612857Y-114062380D01*
X215708095Y-114014761D01*
X215755714Y-113967142D01*
X215803333Y-113871904D01*
X215803333Y-113633809D01*
X215755714Y-113538571D01*
X215708095Y-113490952D01*
X215612857Y-113443333D01*
X215422380Y-113443333D01*
X215327142Y-113490952D01*
X215279523Y-113538571D01*
X215231904Y-113633809D01*
X211422380Y-105014761D02*
X211565238Y-105062380D01*
X211803333Y-105062380D01*
X211898571Y-105014761D01*
X211946190Y-104967142D01*
X211993809Y-104871904D01*
X211993809Y-104776666D01*
X211946190Y-104681428D01*
X211898571Y-104633809D01*
X211803333Y-104586190D01*
X211612857Y-104538571D01*
X211517619Y-104490952D01*
X211470000Y-104443333D01*
X211422380Y-104348095D01*
X211422380Y-104252857D01*
X211470000Y-104157619D01*
X211517619Y-104110000D01*
X211612857Y-104062380D01*
X211850952Y-104062380D01*
X211993809Y-104110000D01*
X212327142Y-104062380D02*
X212565238Y-105062380D01*
X212755714Y-104348095D01*
X212946190Y-105062380D01*
X213184285Y-104062380D01*
X213327142Y-105157619D02*
X214089047Y-105157619D01*
X214327142Y-105062380D02*
X214327142Y-104062380D01*
X214708095Y-104062380D01*
X214803333Y-104110000D01*
X214850952Y-104157619D01*
X214898571Y-104252857D01*
X214898571Y-104395714D01*
X214850952Y-104490952D01*
X214803333Y-104538571D01*
X214708095Y-104586190D01*
X214327142Y-104586190D01*
X215755714Y-104395714D02*
X215755714Y-105062380D01*
X215327142Y-104395714D02*
X215327142Y-104919523D01*
X215374761Y-105014761D01*
X215470000Y-105062380D01*
X215612857Y-105062380D01*
X215708095Y-105014761D01*
X215755714Y-104967142D01*
X216184285Y-105014761D02*
X216279523Y-105062380D01*
X216470000Y-105062380D01*
X216565238Y-105014761D01*
X216612857Y-104919523D01*
X216612857Y-104871904D01*
X216565238Y-104776666D01*
X216470000Y-104729047D01*
X216327142Y-104729047D01*
X216231904Y-104681428D01*
X216184285Y-104586190D01*
X216184285Y-104538571D01*
X216231904Y-104443333D01*
X216327142Y-104395714D01*
X216470000Y-104395714D01*
X216565238Y-104443333D01*
X217041428Y-105062380D02*
X217041428Y-104062380D01*
X217470000Y-105062380D02*
X217470000Y-104538571D01*
X217422380Y-104443333D01*
X217327142Y-104395714D01*
X217184285Y-104395714D01*
X217089047Y-104443333D01*
X217041428Y-104490952D01*
X202796666Y-93194761D02*
X202939523Y-93242380D01*
X203177619Y-93242380D01*
X203272857Y-93194761D01*
X203320476Y-93147142D01*
X203368095Y-93051904D01*
X203368095Y-92956666D01*
X203320476Y-92861428D01*
X203272857Y-92813809D01*
X203177619Y-92766190D01*
X202987142Y-92718571D01*
X202891904Y-92670952D01*
X202844285Y-92623333D01*
X202796666Y-92528095D01*
X202796666Y-92432857D01*
X202844285Y-92337619D01*
X202891904Y-92290000D01*
X202987142Y-92242380D01*
X203225238Y-92242380D01*
X203368095Y-92290000D01*
X203701428Y-92242380D02*
X203939523Y-93242380D01*
X204130000Y-92528095D01*
X204320476Y-93242380D01*
X204558571Y-92242380D01*
X204844285Y-92242380D02*
X205510952Y-92242380D01*
X205082380Y-93242380D01*
X201082380Y-102194761D02*
X201225238Y-102242380D01*
X201463333Y-102242380D01*
X201558571Y-102194761D01*
X201606190Y-102147142D01*
X201653809Y-102051904D01*
X201653809Y-101956666D01*
X201606190Y-101861428D01*
X201558571Y-101813809D01*
X201463333Y-101766190D01*
X201272857Y-101718571D01*
X201177619Y-101670952D01*
X201130000Y-101623333D01*
X201082380Y-101528095D01*
X201082380Y-101432857D01*
X201130000Y-101337619D01*
X201177619Y-101290000D01*
X201272857Y-101242380D01*
X201510952Y-101242380D01*
X201653809Y-101290000D01*
X201987142Y-101242380D02*
X202225238Y-102242380D01*
X202415714Y-101528095D01*
X202606190Y-102242380D01*
X202844285Y-101242380D01*
X202987142Y-102337619D02*
X203749047Y-102337619D01*
X203987142Y-102242380D02*
X203987142Y-101242380D01*
X204368095Y-101242380D01*
X204463333Y-101290000D01*
X204510952Y-101337619D01*
X204558571Y-101432857D01*
X204558571Y-101575714D01*
X204510952Y-101670952D01*
X204463333Y-101718571D01*
X204368095Y-101766190D01*
X203987142Y-101766190D01*
X205415714Y-101575714D02*
X205415714Y-102242380D01*
X204987142Y-101575714D02*
X204987142Y-102099523D01*
X205034761Y-102194761D01*
X205130000Y-102242380D01*
X205272857Y-102242380D01*
X205368095Y-102194761D01*
X205415714Y-102147142D01*
X205844285Y-102194761D02*
X205939523Y-102242380D01*
X206130000Y-102242380D01*
X206225238Y-102194761D01*
X206272857Y-102099523D01*
X206272857Y-102051904D01*
X206225238Y-101956666D01*
X206130000Y-101909047D01*
X205987142Y-101909047D01*
X205891904Y-101861428D01*
X205844285Y-101766190D01*
X205844285Y-101718571D01*
X205891904Y-101623333D01*
X205987142Y-101575714D01*
X206130000Y-101575714D01*
X206225238Y-101623333D01*
X206701428Y-102242380D02*
X206701428Y-101242380D01*
X207130000Y-102242380D02*
X207130000Y-101718571D01*
X207082380Y-101623333D01*
X206987142Y-101575714D01*
X206844285Y-101575714D01*
X206749047Y-101623333D01*
X206701428Y-101670952D01*
X170420952Y-163497380D02*
X170420952Y-162497380D01*
X170659047Y-162497380D01*
X170801904Y-162545000D01*
X170897142Y-162640238D01*
X170944761Y-162735476D01*
X170992380Y-162925952D01*
X170992380Y-163068809D01*
X170944761Y-163259285D01*
X170897142Y-163354523D01*
X170801904Y-163449761D01*
X170659047Y-163497380D01*
X170420952Y-163497380D01*
X171944761Y-163497380D02*
X171373333Y-163497380D01*
X171659047Y-163497380D02*
X171659047Y-162497380D01*
X171563809Y-162640238D01*
X171468571Y-162735476D01*
X171373333Y-162783095D01*
X172516190Y-162925952D02*
X172420952Y-162878333D01*
X172373333Y-162830714D01*
X172325714Y-162735476D01*
X172325714Y-162687857D01*
X172373333Y-162592619D01*
X172420952Y-162545000D01*
X172516190Y-162497380D01*
X172706666Y-162497380D01*
X172801904Y-162545000D01*
X172849523Y-162592619D01*
X172897142Y-162687857D01*
X172897142Y-162735476D01*
X172849523Y-162830714D01*
X172801904Y-162878333D01*
X172706666Y-162925952D01*
X172516190Y-162925952D01*
X172420952Y-162973571D01*
X172373333Y-163021190D01*
X172325714Y-163116428D01*
X172325714Y-163306904D01*
X172373333Y-163402142D01*
X172420952Y-163449761D01*
X172516190Y-163497380D01*
X172706666Y-163497380D01*
X172801904Y-163449761D01*
X172849523Y-163402142D01*
X172897142Y-163306904D01*
X172897142Y-163116428D01*
X172849523Y-163021190D01*
X172801904Y-162973571D01*
X172706666Y-162925952D01*
X170897142Y-161942380D02*
X170420952Y-161942380D01*
X170420952Y-160942380D01*
X171230476Y-161418571D02*
X171563809Y-161418571D01*
X171706666Y-161942380D02*
X171230476Y-161942380D01*
X171230476Y-160942380D01*
X171706666Y-160942380D01*
X172135238Y-161942380D02*
X172135238Y-160942380D01*
X172373333Y-160942380D01*
X172516190Y-160990000D01*
X172611428Y-161085238D01*
X172659047Y-161180476D01*
X172706666Y-161370952D01*
X172706666Y-161513809D01*
X172659047Y-161704285D01*
X172611428Y-161799523D01*
X172516190Y-161894761D01*
X172373333Y-161942380D01*
X172135238Y-161942380D01*
D13*
X169400952Y-163455714D02*
X169000952Y-163455714D01*
X169000952Y-163360476D01*
X169020000Y-163303333D01*
X169058095Y-163265238D01*
X169096190Y-163246190D01*
X169172380Y-163227142D01*
X169229523Y-163227142D01*
X169305714Y-163246190D01*
X169343809Y-163265238D01*
X169381904Y-163303333D01*
X169400952Y-163360476D01*
X169400952Y-163455714D01*
X169400952Y-162846190D02*
X169400952Y-163074761D01*
X169400952Y-162960476D02*
X169000952Y-162960476D01*
X169058095Y-162998571D01*
X169096190Y-163036666D01*
X169115238Y-163074761D01*
X169172380Y-162617619D02*
X169153333Y-162655714D01*
X169134285Y-162674761D01*
X169096190Y-162693809D01*
X169077142Y-162693809D01*
X169039047Y-162674761D01*
X169020000Y-162655714D01*
X169000952Y-162617619D01*
X169000952Y-162541428D01*
X169020000Y-162503333D01*
X169039047Y-162484285D01*
X169077142Y-162465238D01*
X169096190Y-162465238D01*
X169134285Y-162484285D01*
X169153333Y-162503333D01*
X169172380Y-162541428D01*
X169172380Y-162617619D01*
X169191428Y-162655714D01*
X169210476Y-162674761D01*
X169248571Y-162693809D01*
X169324761Y-162693809D01*
X169362857Y-162674761D01*
X169381904Y-162655714D01*
X169400952Y-162617619D01*
X169400952Y-162541428D01*
X169381904Y-162503333D01*
X169362857Y-162484285D01*
X169324761Y-162465238D01*
X169248571Y-162465238D01*
X169210476Y-162484285D01*
X169191428Y-162503333D01*
X169172380Y-162541428D01*
D10*
X178850952Y-146664380D02*
X178850952Y-145664380D01*
X179089047Y-145664380D01*
X179231904Y-145712000D01*
X179327142Y-145807238D01*
X179374761Y-145902476D01*
X179422380Y-146092952D01*
X179422380Y-146235809D01*
X179374761Y-146426285D01*
X179327142Y-146521523D01*
X179231904Y-146616761D01*
X179089047Y-146664380D01*
X178850952Y-146664380D01*
X180374761Y-146664380D02*
X179803333Y-146664380D01*
X180089047Y-146664380D02*
X180089047Y-145664380D01*
X179993809Y-145807238D01*
X179898571Y-145902476D01*
X179803333Y-145950095D01*
X180850952Y-146664380D02*
X181041428Y-146664380D01*
X181136666Y-146616761D01*
X181184285Y-146569142D01*
X181279523Y-146426285D01*
X181327142Y-146235809D01*
X181327142Y-145854857D01*
X181279523Y-145759619D01*
X181231904Y-145712000D01*
X181136666Y-145664380D01*
X180946190Y-145664380D01*
X180850952Y-145712000D01*
X180803333Y-145759619D01*
X180755714Y-145854857D01*
X180755714Y-146092952D01*
X180803333Y-146188190D01*
X180850952Y-146235809D01*
X180946190Y-146283428D01*
X181136666Y-146283428D01*
X181231904Y-146235809D01*
X181279523Y-146188190D01*
X181327142Y-146092952D01*
X179327142Y-145222380D02*
X178850952Y-145222380D01*
X178850952Y-144222380D01*
X179660476Y-144698571D02*
X179993809Y-144698571D01*
X180136666Y-145222380D02*
X179660476Y-145222380D01*
X179660476Y-144222380D01*
X180136666Y-144222380D01*
X180565238Y-145222380D02*
X180565238Y-144222380D01*
X180803333Y-144222380D01*
X180946190Y-144270000D01*
X181041428Y-144365238D01*
X181089047Y-144460476D01*
X181136666Y-144650952D01*
X181136666Y-144793809D01*
X181089047Y-144984285D01*
X181041428Y-145079523D01*
X180946190Y-145174761D01*
X180803333Y-145222380D01*
X180565238Y-145222380D01*
D13*
X176254285Y-147500952D02*
X176254285Y-147100952D01*
X176349523Y-147100952D01*
X176406666Y-147120000D01*
X176444761Y-147158095D01*
X176463809Y-147196190D01*
X176482857Y-147272380D01*
X176482857Y-147329523D01*
X176463809Y-147405714D01*
X176444761Y-147443809D01*
X176406666Y-147481904D01*
X176349523Y-147500952D01*
X176254285Y-147500952D01*
X176863809Y-147500952D02*
X176635238Y-147500952D01*
X176749523Y-147500952D02*
X176749523Y-147100952D01*
X176711428Y-147158095D01*
X176673333Y-147196190D01*
X176635238Y-147215238D01*
X177054285Y-147500952D02*
X177130476Y-147500952D01*
X177168571Y-147481904D01*
X177187619Y-147462857D01*
X177225714Y-147405714D01*
X177244761Y-147329523D01*
X177244761Y-147177142D01*
X177225714Y-147139047D01*
X177206666Y-147120000D01*
X177168571Y-147100952D01*
X177092380Y-147100952D01*
X177054285Y-147120000D01*
X177035238Y-147139047D01*
X177016190Y-147177142D01*
X177016190Y-147272380D01*
X177035238Y-147310476D01*
X177054285Y-147329523D01*
X177092380Y-147348571D01*
X177168571Y-147348571D01*
X177206666Y-147329523D01*
X177225714Y-147310476D01*
X177244761Y-147272380D01*
D10*
X185835714Y-163482380D02*
X185835714Y-162482380D01*
X186073809Y-162482380D01*
X186216666Y-162530000D01*
X186311904Y-162625238D01*
X186359523Y-162720476D01*
X186407142Y-162910952D01*
X186407142Y-163053809D01*
X186359523Y-163244285D01*
X186311904Y-163339523D01*
X186216666Y-163434761D01*
X186073809Y-163482380D01*
X185835714Y-163482380D01*
X186788095Y-162577619D02*
X186835714Y-162530000D01*
X186930952Y-162482380D01*
X187169047Y-162482380D01*
X187264285Y-162530000D01*
X187311904Y-162577619D01*
X187359523Y-162672857D01*
X187359523Y-162768095D01*
X187311904Y-162910952D01*
X186740476Y-163482380D01*
X187359523Y-163482380D01*
X188216666Y-162482380D02*
X188026190Y-162482380D01*
X187930952Y-162530000D01*
X187883333Y-162577619D01*
X187788095Y-162720476D01*
X187740476Y-162910952D01*
X187740476Y-163291904D01*
X187788095Y-163387142D01*
X187835714Y-163434761D01*
X187930952Y-163482380D01*
X188121428Y-163482380D01*
X188216666Y-163434761D01*
X188264285Y-163387142D01*
X188311904Y-163291904D01*
X188311904Y-163053809D01*
X188264285Y-162958571D01*
X188216666Y-162910952D01*
X188121428Y-162863333D01*
X187930952Y-162863333D01*
X187835714Y-162910952D01*
X187788095Y-162958571D01*
X187740476Y-163053809D01*
X186311904Y-161812380D02*
X185835714Y-161812380D01*
X185835714Y-160812380D01*
X186645238Y-161288571D02*
X186978571Y-161288571D01*
X187121428Y-161812380D02*
X186645238Y-161812380D01*
X186645238Y-160812380D01*
X187121428Y-160812380D01*
X187550000Y-161812380D02*
X187550000Y-160812380D01*
X187788095Y-160812380D01*
X187930952Y-160860000D01*
X188026190Y-160955238D01*
X188073809Y-161050476D01*
X188121428Y-161240952D01*
X188121428Y-161383809D01*
X188073809Y-161574285D01*
X188026190Y-161669523D01*
X187930952Y-161764761D01*
X187788095Y-161812380D01*
X187550000Y-161812380D01*
D13*
X184590952Y-163455714D02*
X184190952Y-163455714D01*
X184190952Y-163360476D01*
X184210000Y-163303333D01*
X184248095Y-163265238D01*
X184286190Y-163246190D01*
X184362380Y-163227142D01*
X184419523Y-163227142D01*
X184495714Y-163246190D01*
X184533809Y-163265238D01*
X184571904Y-163303333D01*
X184590952Y-163360476D01*
X184590952Y-163455714D01*
X184229047Y-163074761D02*
X184210000Y-163055714D01*
X184190952Y-163017619D01*
X184190952Y-162922380D01*
X184210000Y-162884285D01*
X184229047Y-162865238D01*
X184267142Y-162846190D01*
X184305238Y-162846190D01*
X184362380Y-162865238D01*
X184590952Y-163093809D01*
X184590952Y-162846190D01*
X184190952Y-162503333D02*
X184190952Y-162579523D01*
X184210000Y-162617619D01*
X184229047Y-162636666D01*
X184286190Y-162674761D01*
X184362380Y-162693809D01*
X184514761Y-162693809D01*
X184552857Y-162674761D01*
X184571904Y-162655714D01*
X184590952Y-162617619D01*
X184590952Y-162541428D01*
X184571904Y-162503333D01*
X184552857Y-162484285D01*
X184514761Y-162465238D01*
X184419523Y-162465238D01*
X184381428Y-162484285D01*
X184362380Y-162503333D01*
X184343333Y-162541428D01*
X184343333Y-162617619D01*
X184362380Y-162655714D01*
X184381428Y-162674761D01*
X184419523Y-162693809D01*
D10*
X178850952Y-150990380D02*
X178850952Y-149990380D01*
X179089047Y-149990380D01*
X179231904Y-150038000D01*
X179327142Y-150133238D01*
X179374761Y-150228476D01*
X179422380Y-150418952D01*
X179422380Y-150561809D01*
X179374761Y-150752285D01*
X179327142Y-150847523D01*
X179231904Y-150942761D01*
X179089047Y-150990380D01*
X178850952Y-150990380D01*
X179803333Y-150085619D02*
X179850952Y-150038000D01*
X179946190Y-149990380D01*
X180184285Y-149990380D01*
X180279523Y-150038000D01*
X180327142Y-150085619D01*
X180374761Y-150180857D01*
X180374761Y-150276095D01*
X180327142Y-150418952D01*
X179755714Y-150990380D01*
X180374761Y-150990380D01*
X180708095Y-149990380D02*
X181374761Y-149990380D01*
X180946190Y-150990380D01*
X179327142Y-149548380D02*
X178850952Y-149548380D01*
X178850952Y-148548380D01*
X179660476Y-149024571D02*
X179993809Y-149024571D01*
X180136666Y-149548380D02*
X179660476Y-149548380D01*
X179660476Y-148548380D01*
X180136666Y-148548380D01*
X180565238Y-149548380D02*
X180565238Y-148548380D01*
X180803333Y-148548380D01*
X180946190Y-148596000D01*
X181041428Y-148691238D01*
X181089047Y-148786476D01*
X181136666Y-148976952D01*
X181136666Y-149119809D01*
X181089047Y-149310285D01*
X181041428Y-149405523D01*
X180946190Y-149500761D01*
X180803333Y-149548380D01*
X180565238Y-149548380D01*
D13*
X176254285Y-149340952D02*
X176254285Y-148940952D01*
X176349523Y-148940952D01*
X176406666Y-148960000D01*
X176444761Y-148998095D01*
X176463809Y-149036190D01*
X176482857Y-149112380D01*
X176482857Y-149169523D01*
X176463809Y-149245714D01*
X176444761Y-149283809D01*
X176406666Y-149321904D01*
X176349523Y-149340952D01*
X176254285Y-149340952D01*
X176635238Y-148979047D02*
X176654285Y-148960000D01*
X176692380Y-148940952D01*
X176787619Y-148940952D01*
X176825714Y-148960000D01*
X176844761Y-148979047D01*
X176863809Y-149017142D01*
X176863809Y-149055238D01*
X176844761Y-149112380D01*
X176616190Y-149340952D01*
X176863809Y-149340952D01*
X176997142Y-148940952D02*
X177263809Y-148940952D01*
X177092380Y-149340952D01*
D10*
X179017143Y-157192380D02*
X179017143Y-156192380D01*
X179255238Y-156192380D01*
X179398095Y-156240000D01*
X179493333Y-156335238D01*
X179540952Y-156430476D01*
X179588571Y-156620952D01*
X179588571Y-156763809D01*
X179540952Y-156954285D01*
X179493333Y-157049523D01*
X179398095Y-157144761D01*
X179255238Y-157192380D01*
X179017143Y-157192380D01*
X179921905Y-156192380D02*
X180540952Y-156192380D01*
X180207619Y-156573333D01*
X180350476Y-156573333D01*
X180445714Y-156620952D01*
X180493333Y-156668571D01*
X180540952Y-156763809D01*
X180540952Y-157001904D01*
X180493333Y-157097142D01*
X180445714Y-157144761D01*
X180350476Y-157192380D01*
X180064762Y-157192380D01*
X179969524Y-157144761D01*
X179921905Y-157097142D01*
X181398095Y-156192380D02*
X181207619Y-156192380D01*
X181112381Y-156240000D01*
X181064762Y-156287619D01*
X180969524Y-156430476D01*
X180921905Y-156620952D01*
X180921905Y-157001904D01*
X180969524Y-157097142D01*
X181017143Y-157144761D01*
X181112381Y-157192380D01*
X181302857Y-157192380D01*
X181398095Y-157144761D01*
X181445714Y-157097142D01*
X181493333Y-157001904D01*
X181493333Y-156763809D01*
X181445714Y-156668571D01*
X181398095Y-156620952D01*
X181302857Y-156573333D01*
X181112381Y-156573333D01*
X181017143Y-156620952D01*
X180969524Y-156668571D01*
X180921905Y-156763809D01*
X179493333Y-155522380D02*
X179017143Y-155522380D01*
X179017143Y-154522380D01*
X179826667Y-154998571D02*
X180160000Y-154998571D01*
X180302857Y-155522380D02*
X179826667Y-155522380D01*
X179826667Y-154522380D01*
X180302857Y-154522380D01*
X180731429Y-155522380D02*
X180731429Y-154522380D01*
X180969524Y-154522380D01*
X181112381Y-154570000D01*
X181207619Y-154665238D01*
X181255238Y-154760476D01*
X181302857Y-154950952D01*
X181302857Y-155093809D01*
X181255238Y-155284285D01*
X181207619Y-155379523D01*
X181112381Y-155474761D01*
X180969524Y-155522380D01*
X180731429Y-155522380D01*
D13*
X176604285Y-156870952D02*
X176604285Y-156470952D01*
X176699523Y-156470952D01*
X176756666Y-156490000D01*
X176794761Y-156528095D01*
X176813809Y-156566190D01*
X176832857Y-156642380D01*
X176832857Y-156699523D01*
X176813809Y-156775714D01*
X176794761Y-156813809D01*
X176756666Y-156851904D01*
X176699523Y-156870952D01*
X176604285Y-156870952D01*
X176966190Y-156470952D02*
X177213809Y-156470952D01*
X177080476Y-156623333D01*
X177137619Y-156623333D01*
X177175714Y-156642380D01*
X177194761Y-156661428D01*
X177213809Y-156699523D01*
X177213809Y-156794761D01*
X177194761Y-156832857D01*
X177175714Y-156851904D01*
X177137619Y-156870952D01*
X177023333Y-156870952D01*
X176985238Y-156851904D01*
X176966190Y-156832857D01*
X177556666Y-156470952D02*
X177480476Y-156470952D01*
X177442380Y-156490000D01*
X177423333Y-156509047D01*
X177385238Y-156566190D01*
X177366190Y-156642380D01*
X177366190Y-156794761D01*
X177385238Y-156832857D01*
X177404285Y-156851904D01*
X177442380Y-156870952D01*
X177518571Y-156870952D01*
X177556666Y-156851904D01*
X177575714Y-156832857D01*
X177594761Y-156794761D01*
X177594761Y-156699523D01*
X177575714Y-156661428D01*
X177556666Y-156642380D01*
X177518571Y-156623333D01*
X177442380Y-156623333D01*
X177404285Y-156642380D01*
X177385238Y-156661428D01*
X177366190Y-156699523D01*
D10*
X170042857Y-140172380D02*
X170042857Y-139172380D01*
X170376190Y-139886666D01*
X170709523Y-139172380D01*
X170709523Y-140172380D01*
X171185714Y-140172380D02*
X171185714Y-139505714D01*
X171185714Y-139172380D02*
X171138095Y-139220000D01*
X171185714Y-139267619D01*
X171233333Y-139220000D01*
X171185714Y-139172380D01*
X171185714Y-139267619D01*
X171661904Y-139505714D02*
X171661904Y-140172380D01*
X171661904Y-139600952D02*
X171709523Y-139553333D01*
X171804761Y-139505714D01*
X171947619Y-139505714D01*
X172042857Y-139553333D01*
X172090476Y-139648571D01*
X172090476Y-140172380D01*
X172566666Y-140172380D02*
X172566666Y-139505714D01*
X172566666Y-139172380D02*
X172519047Y-139220000D01*
X172566666Y-139267619D01*
X172614285Y-139220000D01*
X172566666Y-139172380D01*
X172566666Y-139267619D01*
X173042857Y-140172380D02*
X173042857Y-139172380D01*
X173042857Y-139553333D02*
X173138095Y-139505714D01*
X173328571Y-139505714D01*
X173423809Y-139553333D01*
X173471428Y-139600952D01*
X173519047Y-139696190D01*
X173519047Y-139981904D01*
X173471428Y-140077142D01*
X173423809Y-140124761D01*
X173328571Y-140172380D01*
X173138095Y-140172380D01*
X173042857Y-140124761D01*
X174376190Y-140172380D02*
X174376190Y-139648571D01*
X174328571Y-139553333D01*
X174233333Y-139505714D01*
X174042857Y-139505714D01*
X173947619Y-139553333D01*
X174376190Y-140124761D02*
X174280952Y-140172380D01*
X174042857Y-140172380D01*
X173947619Y-140124761D01*
X173900000Y-140029523D01*
X173900000Y-139934285D01*
X173947619Y-139839047D01*
X174042857Y-139791428D01*
X174280952Y-139791428D01*
X174376190Y-139743809D01*
X175280952Y-140172380D02*
X175280952Y-139172380D01*
X175280952Y-140124761D02*
X175185714Y-140172380D01*
X174995238Y-140172380D01*
X174900000Y-140124761D01*
X174852380Y-140077142D01*
X174804761Y-139981904D01*
X174804761Y-139696190D01*
X174852380Y-139600952D01*
X174900000Y-139553333D01*
X174995238Y-139505714D01*
X175185714Y-139505714D01*
X175280952Y-139553333D01*
X176185714Y-139505714D02*
X176185714Y-140315238D01*
X176138095Y-140410476D01*
X176090476Y-140458095D01*
X175995238Y-140505714D01*
X175852380Y-140505714D01*
X175757142Y-140458095D01*
X176185714Y-140124761D02*
X176090476Y-140172380D01*
X175900000Y-140172380D01*
X175804761Y-140124761D01*
X175757142Y-140077142D01*
X175709523Y-139981904D01*
X175709523Y-139696190D01*
X175757142Y-139600952D01*
X175804761Y-139553333D01*
X175900000Y-139505714D01*
X176090476Y-139505714D01*
X176185714Y-139553333D01*
X177042857Y-140124761D02*
X176947619Y-140172380D01*
X176757142Y-140172380D01*
X176661904Y-140124761D01*
X176614285Y-140029523D01*
X176614285Y-139648571D01*
X176661904Y-139553333D01*
X176757142Y-139505714D01*
X176947619Y-139505714D01*
X177042857Y-139553333D01*
X177090476Y-139648571D01*
X177090476Y-139743809D01*
X176614285Y-139839047D01*
X178804761Y-140172380D02*
X178233333Y-140172380D01*
X178519047Y-140172380D02*
X178519047Y-139172380D01*
X178423809Y-139315238D01*
X178328571Y-139410476D01*
X178233333Y-139458095D01*
X157394761Y-39264761D02*
X157537619Y-39312380D01*
X157775714Y-39312380D01*
X157870952Y-39264761D01*
X157918571Y-39217142D01*
X157966190Y-39121904D01*
X157966190Y-39026666D01*
X157918571Y-38931428D01*
X157870952Y-38883809D01*
X157775714Y-38836190D01*
X157585238Y-38788571D01*
X157490000Y-38740952D01*
X157442380Y-38693333D01*
X157394761Y-38598095D01*
X157394761Y-38502857D01*
X157442380Y-38407619D01*
X157490000Y-38360000D01*
X157585238Y-38312380D01*
X157823333Y-38312380D01*
X157966190Y-38360000D01*
X158394761Y-39312380D02*
X158394761Y-38312380D01*
X158394761Y-38788571D02*
X158966190Y-38788571D01*
X158966190Y-39312380D02*
X158966190Y-38312380D01*
X159442380Y-39312380D02*
X159442380Y-38312380D01*
X159775714Y-38312380D02*
X160347142Y-38312380D01*
X160061428Y-39312380D02*
X160061428Y-38312380D01*
X160537619Y-38312380D02*
X161109047Y-38312380D01*
X160823333Y-39312380D02*
X160823333Y-38312380D01*
X161632857Y-38836190D02*
X161632857Y-39312380D01*
X161299523Y-38312380D02*
X161632857Y-38836190D01*
X161966190Y-38312380D01*
X162061428Y-39407619D02*
X162823333Y-39407619D01*
X163013809Y-39026666D02*
X163490000Y-39026666D01*
X162918571Y-39312380D02*
X163251904Y-38312380D01*
X163585238Y-39312380D01*
X163918571Y-39312380D02*
X163918571Y-38312380D01*
X164156666Y-38312380D01*
X164299523Y-38360000D01*
X164394761Y-38455238D01*
X164442380Y-38550476D01*
X164490000Y-38740952D01*
X164490000Y-38883809D01*
X164442380Y-39074285D01*
X164394761Y-39169523D01*
X164299523Y-39264761D01*
X164156666Y-39312380D01*
X163918571Y-39312380D01*
X164918571Y-39312380D02*
X164918571Y-38312380D01*
X165156666Y-38312380D01*
X165299523Y-38360000D01*
X165394761Y-38455238D01*
X165442380Y-38550476D01*
X165490000Y-38740952D01*
X165490000Y-38883809D01*
X165442380Y-39074285D01*
X165394761Y-39169523D01*
X165299523Y-39264761D01*
X165156666Y-39312380D01*
X164918571Y-39312380D01*
X166109047Y-38312380D02*
X166299523Y-38312380D01*
X166394761Y-38360000D01*
X166490000Y-38455238D01*
X166537619Y-38645714D01*
X166537619Y-38979047D01*
X166490000Y-39169523D01*
X166394761Y-39264761D01*
X166299523Y-39312380D01*
X166109047Y-39312380D01*
X166013809Y-39264761D01*
X165918571Y-39169523D01*
X165870952Y-38979047D01*
X165870952Y-38645714D01*
X165918571Y-38455238D01*
X166013809Y-38360000D01*
X166109047Y-38312380D01*
X166966190Y-39312380D02*
X166966190Y-38312380D01*
X167537619Y-39312380D01*
X167537619Y-38312380D01*
X161828095Y-40072380D02*
X161828095Y-40881904D01*
X161875714Y-40977142D01*
X161923333Y-41024761D01*
X162018571Y-41072380D01*
X162209047Y-41072380D01*
X162304285Y-41024761D01*
X162351904Y-40977142D01*
X162399523Y-40881904D01*
X162399523Y-40072380D01*
X163351904Y-40072380D02*
X162875714Y-40072380D01*
X162828095Y-40548571D01*
X162875714Y-40500952D01*
X162970952Y-40453333D01*
X163209047Y-40453333D01*
X163304285Y-40500952D01*
X163351904Y-40548571D01*
X163399523Y-40643809D01*
X163399523Y-40881904D01*
X163351904Y-40977142D01*
X163304285Y-41024761D01*
X163209047Y-41072380D01*
X162970952Y-41072380D01*
X162875714Y-41024761D01*
X162828095Y-40977142D01*
X185864761Y-39314761D02*
X186007619Y-39362380D01*
X186245714Y-39362380D01*
X186340952Y-39314761D01*
X186388571Y-39267142D01*
X186436190Y-39171904D01*
X186436190Y-39076666D01*
X186388571Y-38981428D01*
X186340952Y-38933809D01*
X186245714Y-38886190D01*
X186055238Y-38838571D01*
X185960000Y-38790952D01*
X185912380Y-38743333D01*
X185864761Y-38648095D01*
X185864761Y-38552857D01*
X185912380Y-38457619D01*
X185960000Y-38410000D01*
X186055238Y-38362380D01*
X186293333Y-38362380D01*
X186436190Y-38410000D01*
X186864761Y-39362380D02*
X186864761Y-38362380D01*
X186864761Y-38838571D02*
X187436190Y-38838571D01*
X187436190Y-39362380D02*
X187436190Y-38362380D01*
X187912380Y-39362380D02*
X187912380Y-38362380D01*
X188245714Y-38362380D02*
X188817142Y-38362380D01*
X188531428Y-39362380D02*
X188531428Y-38362380D01*
X189007619Y-38362380D02*
X189579047Y-38362380D01*
X189293333Y-39362380D02*
X189293333Y-38362380D01*
X190102857Y-38886190D02*
X190102857Y-39362380D01*
X189769523Y-38362380D02*
X190102857Y-38886190D01*
X190436190Y-38362380D01*
X190531428Y-39457619D02*
X191293333Y-39457619D01*
X191483809Y-39076666D02*
X191960000Y-39076666D01*
X191388571Y-39362380D02*
X191721904Y-38362380D01*
X192055238Y-39362380D01*
X192388571Y-39362380D02*
X192388571Y-38362380D01*
X192626666Y-38362380D01*
X192769523Y-38410000D01*
X192864761Y-38505238D01*
X192912380Y-38600476D01*
X192960000Y-38790952D01*
X192960000Y-38933809D01*
X192912380Y-39124285D01*
X192864761Y-39219523D01*
X192769523Y-39314761D01*
X192626666Y-39362380D01*
X192388571Y-39362380D01*
X193388571Y-39362380D02*
X193388571Y-38362380D01*
X193626666Y-38362380D01*
X193769523Y-38410000D01*
X193864761Y-38505238D01*
X193912380Y-38600476D01*
X193960000Y-38790952D01*
X193960000Y-38933809D01*
X193912380Y-39124285D01*
X193864761Y-39219523D01*
X193769523Y-39314761D01*
X193626666Y-39362380D01*
X193388571Y-39362380D01*
X194579047Y-38362380D02*
X194769523Y-38362380D01*
X194864761Y-38410000D01*
X194960000Y-38505238D01*
X195007619Y-38695714D01*
X195007619Y-39029047D01*
X194960000Y-39219523D01*
X194864761Y-39314761D01*
X194769523Y-39362380D01*
X194579047Y-39362380D01*
X194483809Y-39314761D01*
X194388571Y-39219523D01*
X194340952Y-39029047D01*
X194340952Y-38695714D01*
X194388571Y-38505238D01*
X194483809Y-38410000D01*
X194579047Y-38362380D01*
X195436190Y-39362380D02*
X195436190Y-38362380D01*
X196007619Y-39362380D01*
X196007619Y-38362380D01*
X190248095Y-40012380D02*
X190248095Y-40821904D01*
X190295714Y-40917142D01*
X190343333Y-40964761D01*
X190438571Y-41012380D01*
X190629047Y-41012380D01*
X190724285Y-40964761D01*
X190771904Y-40917142D01*
X190819523Y-40821904D01*
X190819523Y-40012380D01*
X191724285Y-40012380D02*
X191533809Y-40012380D01*
X191438571Y-40060000D01*
X191390952Y-40107619D01*
X191295714Y-40250476D01*
X191248095Y-40440952D01*
X191248095Y-40821904D01*
X191295714Y-40917142D01*
X191343333Y-40964761D01*
X191438571Y-41012380D01*
X191629047Y-41012380D01*
X191724285Y-40964761D01*
X191771904Y-40917142D01*
X191819523Y-40821904D01*
X191819523Y-40583809D01*
X191771904Y-40488571D01*
X191724285Y-40440952D01*
X191629047Y-40393333D01*
X191438571Y-40393333D01*
X191343333Y-40440952D01*
X191295714Y-40488571D01*
X191248095Y-40583809D01*
M02*
