M48
; DRILL file {KiCad (5.1.0)-1} date 6/2/2019 4:00:10 AM
; FORMAT={3:3/ absolute / metric / suppress leading zeros}
; #@! TF.CreationDate,2019-06-02T04:00:10-06:00
; #@! TF.GenerationSoftware,Kicad,Pcbnew,(5.1.0)-1
FMAT,2
METRIC,TZ
T1C0.200
T2C0.400
T3C0.600
T4C0.650
T5C0.850
T6C0.900
T7C1.016
T8C1.020
T9C0.720
T10C0.900
T11C0.986
T12C0.988
T13C1.000
T14C1.500
T15C3.500
T16C5.000
%
G90
G05
T1
X169278Y-71870
X170009Y-71139
X170009Y-72601
X170739Y-70409
X170739Y-71870
X170739Y-73331
X171470Y-69678
X171470Y-71139
X171470Y-72601
X171470Y-74062
X172201Y-70409
X172201Y-71870
X172201Y-73331
X172931Y-71139
X172931Y-72601
X173662Y-71870
T2
X135560Y-105140
X135640Y-95950
X137930Y-96010
X139410Y-105130
X141490Y-98330
X143350Y-95870
X143470Y-107520
X146357Y-93173
X147620Y-114030
X147660Y-109590
X148510Y-88750
X148520Y-87580
X149290Y-107520
X149550Y-93180
X149550Y-94780
X150390Y-102180
X151220Y-96890
X151220Y-100510
X152188Y-79188
X152190Y-103230
X153300Y-116410
X153300Y-138280
X154680Y-59990
X155290Y-66180
X155720Y-105130
X155743Y-69697
X155743Y-87198
X157500Y-99050
X158660Y-72660
X158970Y-156590
X159520Y-96950
X159700Y-94390
X159850Y-112120
X160010Y-73310
X160220Y-77990
X160970Y-73320
X160980Y-122770
X161010Y-77230
X161010Y-87850
X161370Y-48920
X161400Y-51860
X161600Y-163430
X161710Y-76580
X161710Y-126680
X161930Y-73310
X162410Y-75930
X162410Y-127330
X162890Y-73310
X163110Y-75280
X163820Y-74630
X164030Y-68390
X164040Y-65050
X164320Y-32520
X164320Y-36050
X164510Y-73970
X164570Y-112870
X164570Y-122800
X164588Y-124398
X165210Y-73320
X165210Y-90310
X165210Y-100490
X165440Y-46020
X165440Y-49400
X165633Y-58839
X165670Y-43540
X165684Y-56578
X165760Y-152130
X165870Y-69050
X166520Y-67740
X166750Y-100820
X167020Y-147540
X167220Y-67090
X167220Y-79480
X167230Y-106000
X167300Y-143960
X167620Y-163430
X167900Y-66420
X168350Y-43320
X168410Y-33910
X168420Y-38180
X168460Y-55190
X168580Y-107580
X169250Y-106000
X169990Y-63910
X170800Y-42630
X170800Y-44190
X170930Y-162200
X171020Y-103250
X171310Y-66300
X171470Y-78260
X172110Y-101340
X172440Y-96920
X173340Y-51170
X173500Y-75010
X173580Y-93620
X173670Y-117250
X174060Y-85200
X174090Y-106110
X174190Y-104530
X174710Y-85940
X174720Y-147320
X174800Y-156680
X175070Y-74400
X175110Y-75410
X175360Y-86700
X175400Y-69530
X175460Y-72320
X175490Y-76320
X175990Y-150500
X176010Y-85990
X176450Y-76330
X176660Y-51170
X176660Y-85190
X177010Y-108620
X177410Y-76320
X178240Y-107070
X178360Y-85240
X178380Y-76310
X178650Y-146550
X178820Y-149330
X178866Y-40907
X179170Y-156690
X179370Y-66300
X179710Y-110960
X179755Y-37224
X179766Y-40235
X179980Y-73290
X180009Y-42227
X180020Y-88910
X180090Y-51160
X180740Y-72570
X180750Y-70420
X181140Y-95770
X181230Y-129150
X181254Y-43320
X181320Y-37150
X181340Y-33940
X181380Y-121990
X181490Y-71600
X181720Y-113470
X181760Y-114840
X182250Y-122720
X182250Y-129160
X182310Y-106700
X182380Y-96520
X182460Y-114190
X182460Y-115520
X182524Y-45275
X182550Y-53380
X182600Y-162200
X182752Y-42913
X182780Y-64220
X183160Y-36020
X183310Y-112120
X183340Y-66200
X183340Y-100510
X183630Y-95370
X184220Y-66770
X184285Y-54330
X184285Y-60580
X184310Y-99370
X184620Y-34320
X184660Y-75190
X184680Y-37630
X184880Y-70430
X184880Y-149320
X185140Y-66480
X185210Y-94230
X185210Y-98050
X185335Y-54330
X185335Y-60580
X185370Y-38300
X186100Y-112810
X186240Y-91320
X186310Y-77170
X186370Y-106000
X186390Y-107580
X186410Y-110710
X186500Y-124400
X186610Y-97610
X186900Y-44570
X186980Y-83960
X187180Y-149470
X187390Y-132000
X187640Y-73230
X187640Y-103320
X187660Y-60580
X187680Y-59580
X187690Y-58600
X187720Y-57610
X187770Y-54640
X187810Y-120440
X187950Y-121440
X188050Y-152130
X188210Y-117540
X188400Y-73950
X188400Y-102660
X189060Y-101930
X189150Y-123090
X189330Y-135860
X189712Y-69609
X189770Y-101280
X189780Y-73950
X189830Y-110720
X190240Y-68670
X190340Y-52910
X190430Y-79480
X190430Y-90620
X190450Y-73240
X190460Y-97810
X190470Y-66410
X190830Y-103240
X190950Y-113260
X191060Y-133090
X191130Y-73950
X191580Y-68420
X191580Y-101150
X191650Y-114020
X191670Y-67180
X191810Y-73250
X192270Y-102260
X192280Y-114800
X192370Y-155610
X192380Y-51820
X192390Y-52910
X192460Y-54950
X192460Y-65400
X192460Y-73950
X192470Y-55980
X192530Y-45250
X192550Y-97800
X192680Y-99990
X192940Y-115510
X193040Y-133060
X193040Y-154280
X193140Y-60420
X193140Y-73200
X193530Y-94620
X193640Y-49810
X193790Y-73950
X193810Y-55990
X193885Y-90645
X194030Y-110970
X194120Y-68420
X194350Y-135850
X194570Y-58180
X194650Y-55450
X195020Y-124610
X195920Y-92500
X195970Y-57300
X196050Y-98920
X196164Y-73165
X196570Y-100740
X196799Y-75603
X196860Y-53220
X198340Y-51080
X199830Y-123850
X200150Y-92490
X200278Y-74816
X202140Y-125520
X203500Y-99540
X204330Y-101180
X205640Y-113150
X208100Y-112790
X209820Y-99530
X210020Y-104450
X212880Y-91220
X218470Y-108400
T4
X197390Y-56620
X197390Y-59160
X197590Y-55350
X197590Y-57890
X197590Y-60430
X198660Y-56620
X198660Y-59160
X198860Y-55350
X198860Y-57890
X198860Y-60430
T5
X157929Y-51916
X158900Y-47012
T6
X174860Y-188250
X176130Y-188250
X177400Y-188250
X178670Y-188250
T7
X160050Y-39350
X160050Y-41890
X162590Y-39350
X162590Y-41890
X165130Y-39350
X165130Y-41890
X168050Y-119400
X168050Y-137180
X170590Y-119400
X170590Y-137180
X173130Y-119400
X173130Y-137180
X175670Y-119400
X175670Y-137180
X178210Y-119400
X178210Y-137180
X180750Y-119400
X180750Y-137180
X183290Y-119400
X183290Y-137180
X185830Y-119400
X185830Y-137180
X188470Y-39290
X188470Y-41830
X191010Y-39290
X191010Y-41830
X193550Y-39290
X193550Y-41830
T8
X164090Y-142070
X176790Y-142070
T9
X160310Y-89360
X192910Y-89360
T10
X151132Y-81972
X152488Y-75308
T11
X196340Y-46274
X196340Y-48306
T12
X188720Y-47290
T13
X176390Y-29470
X172547Y-27349
X176390Y-31585
X172557Y-31769
X212380Y-97260
X212380Y-105240
X178224Y-30526
X176370Y-25130
X174556Y-30526
X174556Y-28409
X176390Y-27350
X180203Y-27331
X176390Y-33970
X178224Y-28409
X180213Y-31751
T14
X158240Y-36510
X186390Y-36480
T15
X164090Y-165794
X187585Y-165794
T3
G00X155430Y-52441
M15
G01X154743Y-52305
M16
G05
G00X156103Y-45438
M15
G01X156789Y-45574
M16
G05
T16
G00X179110Y-61060
M15
G01X174110Y-61060
M16
G05
T0
M30
