G04 #@! TF.GenerationSoftware,KiCad,Pcbnew,(5.1.0)-1*
G04 #@! TF.CreationDate,2019-06-02T04:00:08-06:00*
G04 #@! TF.ProjectId,hcrn,6863726e-2e6b-4696-9361-645f70636258,0.1*
G04 #@! TF.SameCoordinates,Original*
G04 #@! TF.FileFunction,Other,Fab,Bot*
%FSLAX46Y46*%
G04 Gerber Fmt 4.6, Leading zero omitted, Abs format (unit mm)*
G04 Created by KiCad (PCBNEW (5.1.0)-1) date 2019-06-02 04:00:08*
%MOMM*%
%LPD*%
G04 APERTURE LIST*
%ADD10C,0.304800*%
%ADD11C,0.150000*%
%ADD12C,0.100000*%
%ADD13C,0.120000*%
%ADD14C,0.060000*%
%ADD15C,0.080000*%
%ADD16C,0.075000*%
G04 APERTURE END LIST*
D10*
X191418571Y-179201647D02*
X189967142Y-179201647D01*
X190692857Y-181741647D02*
X190692857Y-179201647D01*
X189120476Y-181741647D02*
X189120476Y-179201647D01*
X189120476Y-180411171D02*
X187669047Y-180411171D01*
X187669047Y-181741647D02*
X187669047Y-179201647D01*
X186459523Y-181741647D02*
X186459523Y-179201647D01*
X185370952Y-181620695D02*
X185008095Y-181741647D01*
X184403333Y-181741647D01*
X184161428Y-181620695D01*
X184040476Y-181499742D01*
X183919523Y-181257838D01*
X183919523Y-181015933D01*
X184040476Y-180774028D01*
X184161428Y-180653076D01*
X184403333Y-180532123D01*
X184887142Y-180411171D01*
X185129047Y-180290219D01*
X185250000Y-180169266D01*
X185370952Y-179927361D01*
X185370952Y-179685457D01*
X185250000Y-179443552D01*
X185129047Y-179322600D01*
X184887142Y-179201647D01*
X184282380Y-179201647D01*
X183919523Y-179322600D01*
X181016666Y-181015933D02*
X179807142Y-181015933D01*
X181258571Y-181741647D02*
X180411904Y-179201647D01*
X179565238Y-181741647D01*
X177267142Y-181741647D02*
X178113809Y-180532123D01*
X178718571Y-181741647D02*
X178718571Y-179201647D01*
X177750952Y-179201647D01*
X177509047Y-179322600D01*
X177388095Y-179443552D01*
X177267142Y-179685457D01*
X177267142Y-180048314D01*
X177388095Y-180290219D01*
X177509047Y-180411171D01*
X177750952Y-180532123D01*
X178718571Y-180532123D01*
X176178571Y-180411171D02*
X175331904Y-180411171D01*
X174969047Y-181741647D02*
X176178571Y-181741647D01*
X176178571Y-179201647D01*
X174969047Y-179201647D01*
X174001428Y-181015933D02*
X172791904Y-181015933D01*
X174243333Y-181741647D02*
X173396666Y-179201647D01*
X172550000Y-181741647D01*
X168921428Y-180411171D02*
X169768095Y-180411171D01*
X169768095Y-181741647D02*
X169768095Y-179201647D01*
X168558571Y-179201647D01*
X167107142Y-179201647D02*
X166623333Y-179201647D01*
X166381428Y-179322600D01*
X166139523Y-179564504D01*
X166018571Y-180048314D01*
X166018571Y-180894980D01*
X166139523Y-181378790D01*
X166381428Y-181620695D01*
X166623333Y-181741647D01*
X167107142Y-181741647D01*
X167349047Y-181620695D01*
X167590952Y-181378790D01*
X167711904Y-180894980D01*
X167711904Y-180048314D01*
X167590952Y-179564504D01*
X167349047Y-179322600D01*
X167107142Y-179201647D01*
X163478571Y-181741647D02*
X164325238Y-180532123D01*
X164930000Y-181741647D02*
X164930000Y-179201647D01*
X163962380Y-179201647D01*
X163720476Y-179322600D01*
X163599523Y-179443552D01*
X163478571Y-179685457D01*
X163478571Y-180048314D01*
X163599523Y-180290219D01*
X163720476Y-180411171D01*
X163962380Y-180532123D01*
X164930000Y-180532123D01*
X188818095Y-184525971D02*
X189664761Y-184525971D01*
X189664761Y-185856447D02*
X189664761Y-183316447D01*
X188455238Y-183316447D01*
X187608571Y-185130733D02*
X186399047Y-185130733D01*
X187850476Y-185856447D02*
X187003809Y-183316447D01*
X186157142Y-185856447D01*
X184463809Y-184525971D02*
X184100952Y-184646923D01*
X183980000Y-184767876D01*
X183859047Y-185009780D01*
X183859047Y-185372638D01*
X183980000Y-185614542D01*
X184100952Y-185735495D01*
X184342857Y-185856447D01*
X185310476Y-185856447D01*
X185310476Y-183316447D01*
X184463809Y-183316447D01*
X184221904Y-183437400D01*
X184100952Y-183558352D01*
X183980000Y-183800257D01*
X183980000Y-184042161D01*
X184100952Y-184284066D01*
X184221904Y-184405019D01*
X184463809Y-184525971D01*
X185310476Y-184525971D01*
X180835238Y-185856447D02*
X180835238Y-183316447D01*
X179988571Y-185130733D01*
X179141904Y-183316447D01*
X179141904Y-185856447D01*
X178053333Y-185130733D02*
X176843809Y-185130733D01*
X178295238Y-185856447D02*
X177448571Y-183316447D01*
X176601904Y-185856447D01*
X174303809Y-185856447D02*
X175150476Y-184646923D01*
X175755238Y-185856447D02*
X175755238Y-183316447D01*
X174787619Y-183316447D01*
X174545714Y-183437400D01*
X174424761Y-183558352D01*
X174303809Y-183800257D01*
X174303809Y-184163114D01*
X174424761Y-184405019D01*
X174545714Y-184525971D01*
X174787619Y-184646923D01*
X175755238Y-184646923D01*
X173215238Y-185856447D02*
X173215238Y-183316447D01*
X171763809Y-185856447D02*
X172852380Y-184405019D01*
X171763809Y-183316447D02*
X173215238Y-184767876D01*
X170675238Y-185856447D02*
X170675238Y-183316447D01*
X169465714Y-185856447D02*
X169465714Y-183316447D01*
X168014285Y-185856447D01*
X168014285Y-183316447D01*
X165474285Y-183437400D02*
X165716190Y-183316447D01*
X166079047Y-183316447D01*
X166441904Y-183437400D01*
X166683809Y-183679304D01*
X166804761Y-183921209D01*
X166925714Y-184405019D01*
X166925714Y-184767876D01*
X166804761Y-185251685D01*
X166683809Y-185493590D01*
X166441904Y-185735495D01*
X166079047Y-185856447D01*
X165837142Y-185856447D01*
X165474285Y-185735495D01*
X165353333Y-185614542D01*
X165353333Y-184767876D01*
X165837142Y-184767876D01*
X164385714Y-185735495D02*
X164022857Y-185856447D01*
X163418095Y-185856447D01*
X163176190Y-185735495D01*
X163055238Y-185614542D01*
X162934285Y-185372638D01*
X162934285Y-185130733D01*
X163055238Y-184888828D01*
X163176190Y-184767876D01*
X163418095Y-184646923D01*
X163901904Y-184525971D01*
X164143809Y-184405019D01*
X164264761Y-184284066D01*
X164385714Y-184042161D01*
X164385714Y-183800257D01*
X164264761Y-183558352D01*
X164143809Y-183437400D01*
X163901904Y-183316447D01*
X163297142Y-183316447D01*
X162934285Y-183437400D01*
D11*
X160710000Y-190530000D02*
X160710000Y-175080000D01*
X193140000Y-190530000D02*
X160710000Y-190530000D01*
X193100000Y-175020000D02*
X193140000Y-190530000D01*
X160710000Y-175070000D02*
X193100000Y-175020000D01*
D12*
X184150000Y-106670000D02*
X183350000Y-106670000D01*
X184150000Y-105070000D02*
X184150000Y-106670000D01*
X183650000Y-105070000D02*
X184150000Y-105070000D01*
X183350000Y-105370000D02*
X183650000Y-105070000D01*
X183350000Y-106670000D02*
X183350000Y-105370000D01*
X158140000Y-139470000D02*
X158140000Y-192470000D01*
X170440000Y-139470000D02*
X158140000Y-139470000D01*
X195640000Y-139470000D02*
X195640000Y-192470000D01*
X182740000Y-192470000D02*
X158140000Y-192470000D01*
X182740000Y-139470000D02*
X170440000Y-139470000D01*
X182740000Y-192470000D02*
X195640000Y-192470000D01*
X182740000Y-139470000D02*
X195640000Y-139470000D01*
X176170000Y-39070000D02*
X173170000Y-39070000D01*
X173170000Y-39070000D02*
X173170000Y-43070000D01*
X173170000Y-43070000D02*
X177170000Y-43070000D01*
X177170000Y-43070000D02*
X177170000Y-40070000D01*
X177170000Y-40070000D02*
X176170000Y-39070000D01*
X199210000Y-100470000D02*
X197610000Y-100470000D01*
X199210000Y-101270000D02*
X199210000Y-100470000D01*
X197610000Y-101270000D02*
X199210000Y-101270000D01*
X197610000Y-100470000D02*
X197610000Y-101270000D01*
X163510000Y-59020000D02*
X163510000Y-60620000D01*
X164310000Y-59020000D02*
X163510000Y-59020000D01*
X164310000Y-60620000D02*
X164310000Y-59020000D01*
X163510000Y-60620000D02*
X164310000Y-60620000D01*
X182930001Y-39080000D02*
X182930001Y-38280000D01*
X182930001Y-38280000D02*
X181330001Y-38280000D01*
X181330001Y-38280000D02*
X181330001Y-39080000D01*
X181330001Y-39080000D02*
X182930001Y-39080000D01*
X173310000Y-102860000D02*
X172510000Y-102860000D01*
X172510000Y-102860000D02*
X172510000Y-104460000D01*
X172510000Y-104460000D02*
X173310000Y-104460000D01*
X173310000Y-104460000D02*
X173310000Y-102860000D01*
X181330001Y-40635000D02*
X182930001Y-40635000D01*
X181330001Y-39835000D02*
X181330001Y-40635000D01*
X182930001Y-39835000D02*
X181330001Y-39835000D01*
X182930001Y-40635000D02*
X182930001Y-39835000D01*
X184910000Y-72500000D02*
X184910000Y-74100000D01*
X185710000Y-72500000D02*
X184910000Y-72500000D01*
X185710000Y-74100000D02*
X185710000Y-72500000D01*
X184910000Y-74100000D02*
X185710000Y-74100000D01*
X182930001Y-42190000D02*
X182930001Y-41390000D01*
X182930001Y-41390000D02*
X181330001Y-41390000D01*
X181330001Y-41390000D02*
X181330001Y-42190000D01*
X181330001Y-42190000D02*
X182930001Y-42190000D01*
X172510000Y-107690000D02*
X173310000Y-107690000D01*
X173310000Y-107690000D02*
X173310000Y-106090000D01*
X173310000Y-106090000D02*
X172510000Y-106090000D01*
X172510000Y-106090000D02*
X172510000Y-107690000D01*
X152340000Y-84770000D02*
X152340000Y-86370000D01*
X153140000Y-84770000D02*
X152340000Y-84770000D01*
X153140000Y-86370000D02*
X153140000Y-84770000D01*
X152340000Y-86370000D02*
X153140000Y-86370000D01*
X179190000Y-53400000D02*
X177590000Y-53400000D01*
X179190000Y-54200000D02*
X179190000Y-53400000D01*
X177590000Y-54200000D02*
X179190000Y-54200000D01*
X177590000Y-53400000D02*
X177590000Y-54200000D01*
X175560000Y-92980000D02*
X175560000Y-93780000D01*
X175560000Y-93780000D02*
X177160000Y-93780000D01*
X177160000Y-93780000D02*
X177160000Y-92980000D01*
X177160000Y-92980000D02*
X175560000Y-92980000D01*
X162580000Y-54490000D02*
X163380000Y-54490000D01*
X163380000Y-54490000D02*
X163380000Y-52890000D01*
X163380000Y-52890000D02*
X162580000Y-52890000D01*
X162580000Y-52890000D02*
X162580000Y-54490000D01*
X162570000Y-47670000D02*
X163370000Y-47670000D01*
X163370000Y-47670000D02*
X163370000Y-46070000D01*
X163370000Y-46070000D02*
X162570000Y-46070000D01*
X162570000Y-46070000D02*
X162570000Y-47670000D01*
X202630000Y-120570000D02*
X201830000Y-120570000D01*
X201830000Y-120570000D02*
X201830000Y-122170000D01*
X201830000Y-122170000D02*
X202630000Y-122170000D01*
X202630000Y-122170000D02*
X202630000Y-120570000D01*
X201830000Y-117540000D02*
X201830000Y-119140000D01*
X202630000Y-117540000D02*
X201830000Y-117540000D01*
X202630000Y-119140000D02*
X202630000Y-117540000D01*
X201830000Y-119140000D02*
X202630000Y-119140000D01*
X176670000Y-66110000D02*
X176670000Y-66910000D01*
X176670000Y-66910000D02*
X178270000Y-66910000D01*
X178270000Y-66910000D02*
X178270000Y-66110000D01*
X178270000Y-66110000D02*
X176670000Y-66110000D01*
X176670000Y-65400000D02*
X178270000Y-65400000D01*
X176670000Y-64600000D02*
X176670000Y-65400000D01*
X178270000Y-64600000D02*
X176670000Y-64600000D01*
X178270000Y-65400000D02*
X178270000Y-64600000D01*
X176660000Y-69130000D02*
X176660000Y-69930000D01*
X176660000Y-69930000D02*
X178260000Y-69930000D01*
X178260000Y-69930000D02*
X178260000Y-69130000D01*
X178260000Y-69130000D02*
X176660000Y-69130000D01*
X176670000Y-68420000D02*
X178270000Y-68420000D01*
X176670000Y-67620000D02*
X176670000Y-68420000D01*
X178270000Y-67620000D02*
X176670000Y-67620000D01*
X178270000Y-68420000D02*
X178270000Y-67620000D01*
X175190000Y-65400000D02*
X175190000Y-64600000D01*
X175190000Y-64600000D02*
X173590000Y-64600000D01*
X173590000Y-64600000D02*
X173590000Y-65400000D01*
X173590000Y-65400000D02*
X175190000Y-65400000D01*
X175190000Y-66900000D02*
X175190000Y-66100000D01*
X175190000Y-66100000D02*
X173590000Y-66100000D01*
X173590000Y-66100000D02*
X173590000Y-66900000D01*
X173590000Y-66900000D02*
X175190000Y-66900000D01*
X175190000Y-67620000D02*
X173590000Y-67620000D01*
X175190000Y-68420000D02*
X175190000Y-67620000D01*
X173590000Y-68420000D02*
X175190000Y-68420000D01*
X173590000Y-67620000D02*
X173590000Y-68420000D01*
X178260000Y-72150000D02*
X176660000Y-72150000D01*
X178260000Y-72950000D02*
X178260000Y-72150000D01*
X176660000Y-72950000D02*
X178260000Y-72950000D01*
X176660000Y-72150000D02*
X176660000Y-72950000D01*
X162540000Y-59000000D02*
X162540000Y-60300000D01*
X162540000Y-60300000D02*
X162240000Y-60600000D01*
X162240000Y-60600000D02*
X161740000Y-60600000D01*
X161740000Y-60600000D02*
X161740000Y-59000000D01*
X161740000Y-59000000D02*
X162540000Y-59000000D01*
X193190000Y-121170000D02*
X193190000Y-119870000D01*
X193190000Y-119870000D02*
X193490000Y-119570000D01*
X193490000Y-119570000D02*
X193990000Y-119570000D01*
X193990000Y-119570000D02*
X193990000Y-121170000D01*
X193990000Y-121170000D02*
X193190000Y-121170000D01*
X154385393Y-44843449D02*
X159290169Y-45814621D01*
X153759308Y-51600530D02*
X154924715Y-45714799D01*
X152926964Y-52200282D02*
X154383722Y-44843118D01*
X157833411Y-53171785D02*
X159290169Y-45814621D01*
X152928636Y-52200613D02*
X157833411Y-53171785D01*
X158407381Y-50787868D02*
X158564725Y-51022906D01*
X158642419Y-50630524D02*
X158407381Y-50787868D01*
X158770726Y-51063695D02*
X158848420Y-50671313D01*
X158770726Y-51063695D02*
X158564725Y-51022906D01*
X158848420Y-50671313D02*
X158642419Y-50630524D01*
X163030000Y-145320000D02*
X162230000Y-145320000D01*
X162230000Y-145320000D02*
X162230000Y-146920000D01*
X162230000Y-146920000D02*
X155930000Y-146920000D01*
X155930000Y-146920000D02*
X155930000Y-145320000D01*
X155930000Y-145320000D02*
X155130000Y-145320000D01*
X163030000Y-152920000D02*
X155130000Y-152920000D01*
X163030000Y-145320000D02*
X163030000Y-152920000D01*
X155130000Y-145320000D02*
X155130000Y-152920000D01*
X160580000Y-146920000D02*
X160080000Y-147627107D01*
X160080000Y-147627107D02*
X159580000Y-146920000D01*
X175860000Y-107760000D02*
X174660000Y-107760000D01*
X174660000Y-107760000D02*
X174660000Y-109760000D01*
X174660000Y-109760000D02*
X175860000Y-109760000D01*
X175860000Y-109760000D02*
X175860000Y-107760000D01*
D13*
X158000000Y-58400000D02*
X158000000Y-61300000D01*
X158000000Y-61300000D02*
X159400000Y-61300000D01*
X159400000Y-61300000D02*
X159400000Y-58950000D01*
X159400000Y-58950000D02*
X158850000Y-58400000D01*
X158850000Y-58400000D02*
X158000000Y-58400000D01*
D12*
X162540000Y-55990000D02*
X161740000Y-55990000D01*
X161740000Y-55990000D02*
X161740000Y-57590000D01*
X161740000Y-57590000D02*
X162540000Y-57590000D01*
X162540000Y-57590000D02*
X162540000Y-55990000D01*
X162690000Y-32920000D02*
X162690000Y-32120000D01*
X162690000Y-32120000D02*
X161090000Y-32120000D01*
X161090000Y-32120000D02*
X161090000Y-32920000D01*
X161090000Y-32920000D02*
X162690000Y-32920000D01*
X161090000Y-34420000D02*
X162690000Y-34420000D01*
X161090000Y-33620000D02*
X161090000Y-34420000D01*
X162690000Y-33620000D02*
X161090000Y-33620000D01*
X162690000Y-34420000D02*
X162690000Y-33620000D01*
X148820000Y-84770000D02*
X148820000Y-86370000D01*
X149620000Y-84770000D02*
X148820000Y-84770000D01*
X149620000Y-86370000D02*
X149620000Y-84770000D01*
X148820000Y-86370000D02*
X149620000Y-86370000D01*
X151380000Y-84770000D02*
X150580000Y-84770000D01*
X150580000Y-84770000D02*
X150580000Y-86370000D01*
X150580000Y-86370000D02*
X151380000Y-86370000D01*
X151380000Y-86370000D02*
X151380000Y-84770000D01*
X182550000Y-52380000D02*
X182550000Y-51580000D01*
X182550000Y-51580000D02*
X180950000Y-51580000D01*
X180950000Y-51580000D02*
X180950000Y-52380000D01*
X180950000Y-52380000D02*
X182550000Y-52380000D01*
X177570000Y-52380000D02*
X179170000Y-52380000D01*
X177570000Y-51580000D02*
X177570000Y-52380000D01*
X179170000Y-51580000D02*
X177570000Y-51580000D01*
X179170000Y-52380000D02*
X179170000Y-51580000D01*
X175790000Y-52380000D02*
X175790000Y-51580000D01*
X175790000Y-51580000D02*
X174190000Y-51580000D01*
X174190000Y-51580000D02*
X174190000Y-52380000D01*
X174190000Y-52380000D02*
X175790000Y-52380000D01*
X170810000Y-52380000D02*
X172410000Y-52380000D01*
X170810000Y-51580000D02*
X170810000Y-52380000D01*
X172410000Y-51580000D02*
X170810000Y-51580000D01*
X172410000Y-52380000D02*
X172410000Y-51580000D01*
X166200000Y-52480000D02*
X164600000Y-52480000D01*
X166200000Y-53280000D02*
X166200000Y-52480000D01*
X164600000Y-53280000D02*
X166200000Y-53280000D01*
X164600000Y-52480000D02*
X164600000Y-53280000D01*
X164610000Y-47220000D02*
X164610000Y-48020000D01*
X164610000Y-48020000D02*
X166210000Y-48020000D01*
X166210000Y-48020000D02*
X166210000Y-47220000D01*
X166210000Y-47220000D02*
X164610000Y-47220000D01*
X179050000Y-92980000D02*
X179050000Y-93780000D01*
X179050000Y-93780000D02*
X180650000Y-93780000D01*
X180650000Y-93780000D02*
X180650000Y-92980000D01*
X180650000Y-92980000D02*
X179050000Y-92980000D01*
X193210000Y-124620000D02*
X194010000Y-124620000D01*
X194010000Y-124620000D02*
X194010000Y-123020000D01*
X194010000Y-123020000D02*
X193210000Y-123020000D01*
X193210000Y-123020000D02*
X193210000Y-124620000D01*
X195670000Y-122910000D02*
X195670000Y-121310000D01*
X194870000Y-122910000D02*
X195670000Y-122910000D01*
X194870000Y-121310000D02*
X194870000Y-122910000D01*
X195670000Y-121310000D02*
X194870000Y-121310000D01*
X144770000Y-91200000D02*
X144770000Y-92000000D01*
X144770000Y-92000000D02*
X146370000Y-92000000D01*
X146370000Y-92000000D02*
X146370000Y-91200000D01*
X146370000Y-91200000D02*
X144770000Y-91200000D01*
X146340000Y-109190000D02*
X144740000Y-109190000D01*
X146340000Y-109990000D02*
X146340000Y-109190000D01*
X144740000Y-109990000D02*
X146340000Y-109990000D01*
X144740000Y-109190000D02*
X144740000Y-109990000D01*
X136720000Y-100200000D02*
X136720000Y-101000000D01*
X136720000Y-101000000D02*
X138320000Y-101000000D01*
X138320000Y-101000000D02*
X138320000Y-100200000D01*
X138320000Y-100200000D02*
X136720000Y-100200000D01*
X154140000Y-100110000D02*
X152540000Y-100110000D01*
X154140000Y-100910000D02*
X154140000Y-100110000D01*
X152540000Y-100910000D02*
X154140000Y-100910000D01*
X152540000Y-100110000D02*
X152540000Y-100910000D01*
X215330000Y-113190000D02*
X215330000Y-112390000D01*
X215330000Y-112390000D02*
X213730000Y-112390000D01*
X213730000Y-112390000D02*
X213730000Y-113190000D01*
X213730000Y-113190000D02*
X215330000Y-113190000D01*
X203330000Y-92220000D02*
X204930000Y-92220000D01*
X203330000Y-91420000D02*
X203330000Y-92220000D01*
X204930000Y-91420000D02*
X203330000Y-91420000D01*
X204930000Y-92220000D02*
X204930000Y-91420000D01*
X172680000Y-76630000D02*
X171080000Y-76630000D01*
X172680000Y-77430000D02*
X172680000Y-76630000D01*
X171080000Y-77430000D02*
X172680000Y-77430000D01*
X171080000Y-76630000D02*
X171080000Y-77430000D01*
X176660000Y-71440000D02*
X178260000Y-71440000D01*
X176660000Y-70640000D02*
X176660000Y-71440000D01*
X178260000Y-70640000D02*
X176660000Y-70640000D01*
X178260000Y-71440000D02*
X178260000Y-70640000D01*
X152676709Y-83408523D02*
X154471020Y-74589201D01*
X154471020Y-74589201D02*
X150943291Y-73871477D01*
X150943291Y-73871477D02*
X149168917Y-82592806D01*
X149168917Y-82592806D02*
X149148980Y-82690799D01*
X149148980Y-82690799D02*
X149148980Y-82690799D01*
X152676709Y-83408523D02*
X149148980Y-82690799D01*
X149148980Y-82690799D02*
X149148980Y-82690799D01*
X149747084Y-79751025D02*
X149747084Y-79751025D01*
X150105946Y-77987160D02*
X149811969Y-77927350D01*
X149811969Y-77927350D02*
X149692348Y-78515305D01*
X149692348Y-78515305D02*
X149986325Y-78575115D01*
X149986325Y-78575115D02*
X149986325Y-78575115D01*
X149607526Y-80436972D02*
X149313549Y-80377162D01*
X149313549Y-80377162D02*
X149193928Y-80965117D01*
X149193928Y-80965117D02*
X149487905Y-81024927D01*
X149487905Y-81024927D02*
X149487905Y-81024927D01*
X150484745Y-76125303D02*
X150190768Y-76065493D01*
X150190768Y-76065493D02*
X150310388Y-75477538D01*
X150310388Y-75477538D02*
X150604366Y-75537349D01*
X150604366Y-75537349D02*
X150604366Y-75537349D01*
X149946452Y-78771100D02*
X147986602Y-78372364D01*
X147986602Y-78372364D02*
X147687550Y-79842251D01*
X147687550Y-79842251D02*
X149647400Y-80240987D01*
X149647400Y-80240987D02*
X149647400Y-80240987D01*
X175320000Y-103720000D02*
X174670000Y-104370000D01*
X174670000Y-105520000D02*
X174670000Y-104370000D01*
X175320000Y-103720000D02*
X177770000Y-103720000D01*
X177770000Y-105520000D02*
X177770000Y-103720000D01*
X174670000Y-105520000D02*
X177770000Y-105520000D01*
X197290000Y-122170000D02*
X200390000Y-122170000D01*
X200390000Y-122170000D02*
X200390000Y-120370000D01*
X197940000Y-120370000D02*
X200390000Y-120370000D01*
X197290000Y-122170000D02*
X197290000Y-121020000D01*
X197940000Y-120370000D02*
X197290000Y-121020000D01*
X172177107Y-74698427D02*
X175005534Y-71870000D01*
X175005534Y-71870000D02*
X171470000Y-68334466D01*
X171470000Y-68334466D02*
X167934466Y-71870000D01*
X167934466Y-71870000D02*
X170762893Y-74698427D01*
X170762893Y-74698427D02*
X172177107Y-74698427D01*
X164970000Y-51430000D02*
X164120000Y-51430000D01*
X163620000Y-50930000D02*
X163620000Y-49230000D01*
X164970000Y-51430000D02*
X164970000Y-49230000D01*
X164970000Y-49230000D02*
X163620000Y-49230000D01*
X164120000Y-51430000D02*
X163620000Y-50930000D01*
X180220000Y-106950000D02*
X179420000Y-106950000D01*
X179420000Y-106950000D02*
X179420000Y-108550000D01*
X179420000Y-108550000D02*
X180220000Y-108550000D01*
X180220000Y-108550000D02*
X180220000Y-106950000D01*
X180220000Y-105370000D02*
X180220000Y-103770000D01*
X179420000Y-105370000D02*
X180220000Y-105370000D01*
X179420000Y-103770000D02*
X179420000Y-105370000D01*
X180220000Y-103770000D02*
X179420000Y-103770000D01*
X199930000Y-55567500D02*
X199077500Y-54715000D01*
X199930000Y-61065000D02*
X199930000Y-55567500D01*
X196520000Y-61065000D02*
X199930000Y-61065000D01*
X196520000Y-54715000D02*
X196520000Y-61065000D01*
X199077500Y-54715000D02*
X196520000Y-54715000D01*
D11*
X192379523Y-106312380D02*
X192379523Y-105312380D01*
X192141428Y-105312380D01*
X191998571Y-105360000D01*
X191903333Y-105455238D01*
X191855714Y-105550476D01*
X191808095Y-105740952D01*
X191808095Y-105883809D01*
X191855714Y-106074285D01*
X191903333Y-106169523D01*
X191998571Y-106264761D01*
X192141428Y-106312380D01*
X192379523Y-106312380D01*
X191617619Y-106407619D02*
X190855714Y-106407619D01*
X190665238Y-106264761D02*
X190522380Y-106312380D01*
X190284285Y-106312380D01*
X190189047Y-106264761D01*
X190141428Y-106217142D01*
X190093809Y-106121904D01*
X190093809Y-106026666D01*
X190141428Y-105931428D01*
X190189047Y-105883809D01*
X190284285Y-105836190D01*
X190474761Y-105788571D01*
X190570000Y-105740952D01*
X190617619Y-105693333D01*
X190665238Y-105598095D01*
X190665238Y-105502857D01*
X190617619Y-105407619D01*
X190570000Y-105360000D01*
X190474761Y-105312380D01*
X190236666Y-105312380D01*
X190093809Y-105360000D01*
X189236666Y-106264761D02*
X189331904Y-106312380D01*
X189522380Y-106312380D01*
X189617619Y-106264761D01*
X189665238Y-106217142D01*
X189712857Y-106121904D01*
X189712857Y-105836190D01*
X189665238Y-105740952D01*
X189617619Y-105693333D01*
X189522380Y-105645714D01*
X189331904Y-105645714D01*
X189236666Y-105693333D01*
X188808095Y-106312380D02*
X188808095Y-105312380D01*
X188379523Y-106312380D02*
X188379523Y-105788571D01*
X188427142Y-105693333D01*
X188522380Y-105645714D01*
X188665238Y-105645714D01*
X188760476Y-105693333D01*
X188808095Y-105740952D01*
X187760476Y-106312380D02*
X187855714Y-106264761D01*
X187903333Y-106217142D01*
X187950952Y-106121904D01*
X187950952Y-105836190D01*
X187903333Y-105740952D01*
X187855714Y-105693333D01*
X187760476Y-105645714D01*
X187617619Y-105645714D01*
X187522380Y-105693333D01*
X187474761Y-105740952D01*
X187427142Y-105836190D01*
X187427142Y-106121904D01*
X187474761Y-106217142D01*
X187522380Y-106264761D01*
X187617619Y-106312380D01*
X187760476Y-106312380D01*
X187141428Y-105645714D02*
X186760476Y-105645714D01*
X186998571Y-105312380D02*
X186998571Y-106169523D01*
X186950952Y-106264761D01*
X186855714Y-106312380D01*
X186760476Y-106312380D01*
X186570000Y-105645714D02*
X186189047Y-105645714D01*
X186427142Y-105312380D02*
X186427142Y-106169523D01*
X186379523Y-106264761D01*
X186284285Y-106312380D01*
X186189047Y-106312380D01*
X185855714Y-106312380D02*
X185855714Y-105312380D01*
X185760476Y-105931428D02*
X185474761Y-106312380D01*
X185474761Y-105645714D02*
X185855714Y-106026666D01*
X185141428Y-105645714D02*
X184903333Y-106312380D01*
X184665238Y-105645714D02*
X184903333Y-106312380D01*
X184998571Y-106550476D01*
X185046190Y-106598095D01*
X185141428Y-106645714D01*
D14*
X183930952Y-105384285D02*
X183530952Y-105384285D01*
X183530952Y-105479523D01*
X183550000Y-105536666D01*
X183588095Y-105574761D01*
X183626190Y-105593809D01*
X183702380Y-105612857D01*
X183759523Y-105612857D01*
X183835714Y-105593809D01*
X183873809Y-105574761D01*
X183911904Y-105536666D01*
X183930952Y-105479523D01*
X183930952Y-105384285D01*
X183530952Y-105746190D02*
X183530952Y-105993809D01*
X183683333Y-105860476D01*
X183683333Y-105917619D01*
X183702380Y-105955714D01*
X183721428Y-105974761D01*
X183759523Y-105993809D01*
X183854761Y-105993809D01*
X183892857Y-105974761D01*
X183911904Y-105955714D01*
X183930952Y-105917619D01*
X183930952Y-105803333D01*
X183911904Y-105765238D01*
X183892857Y-105746190D01*
X183530952Y-106127142D02*
X183530952Y-106393809D01*
X183930952Y-106222380D01*
D11*
X177631428Y-141418571D02*
X177488571Y-141466190D01*
X177440952Y-141513809D01*
X177393333Y-141609047D01*
X177393333Y-141751904D01*
X177440952Y-141847142D01*
X177488571Y-141894761D01*
X177583809Y-141942380D01*
X177964761Y-141942380D01*
X177964761Y-140942380D01*
X177631428Y-140942380D01*
X177536190Y-140990000D01*
X177488571Y-141037619D01*
X177440952Y-141132857D01*
X177440952Y-141228095D01*
X177488571Y-141323333D01*
X177536190Y-141370952D01*
X177631428Y-141418571D01*
X177964761Y-141418571D01*
X176536190Y-141942380D02*
X176536190Y-141418571D01*
X176583809Y-141323333D01*
X176679047Y-141275714D01*
X176869523Y-141275714D01*
X176964761Y-141323333D01*
X176536190Y-141894761D02*
X176631428Y-141942380D01*
X176869523Y-141942380D01*
X176964761Y-141894761D01*
X177012380Y-141799523D01*
X177012380Y-141704285D01*
X176964761Y-141609047D01*
X176869523Y-141561428D01*
X176631428Y-141561428D01*
X176536190Y-141513809D01*
X176202857Y-141275714D02*
X175821904Y-141275714D01*
X176060000Y-140942380D02*
X176060000Y-141799523D01*
X176012380Y-141894761D01*
X175917142Y-141942380D01*
X175821904Y-141942380D01*
X175631428Y-141275714D02*
X175250476Y-141275714D01*
X175488571Y-140942380D02*
X175488571Y-141799523D01*
X175440952Y-141894761D01*
X175345714Y-141942380D01*
X175250476Y-141942380D01*
X174536190Y-141894761D02*
X174631428Y-141942380D01*
X174821904Y-141942380D01*
X174917142Y-141894761D01*
X174964761Y-141799523D01*
X174964761Y-141418571D01*
X174917142Y-141323333D01*
X174821904Y-141275714D01*
X174631428Y-141275714D01*
X174536190Y-141323333D01*
X174488571Y-141418571D01*
X174488571Y-141513809D01*
X174964761Y-141609047D01*
X174060000Y-141942380D02*
X174060000Y-141275714D01*
X174060000Y-141466190D02*
X174012380Y-141370952D01*
X173964761Y-141323333D01*
X173869523Y-141275714D01*
X173774285Y-141275714D01*
X173536190Y-141275714D02*
X173298095Y-141942380D01*
X173060000Y-141275714D02*
X173298095Y-141942380D01*
X173393333Y-142180476D01*
X173440952Y-142228095D01*
X173536190Y-142275714D01*
X163115714Y-141108571D02*
X162972857Y-141156190D01*
X162925238Y-141203809D01*
X162877619Y-141299047D01*
X162877619Y-141441904D01*
X162925238Y-141537142D01*
X162972857Y-141584761D01*
X163068095Y-141632380D01*
X163449047Y-141632380D01*
X163449047Y-140632380D01*
X163115714Y-140632380D01*
X163020476Y-140680000D01*
X162972857Y-140727619D01*
X162925238Y-140822857D01*
X162925238Y-140918095D01*
X162972857Y-141013333D01*
X163020476Y-141060952D01*
X163115714Y-141108571D01*
X163449047Y-141108571D01*
X162591904Y-140632380D02*
X162020476Y-140632380D01*
X162306190Y-141632380D02*
X162306190Y-140632380D01*
X161163333Y-141632380D02*
X161734761Y-141632380D01*
X161449047Y-141632380D02*
X161449047Y-140632380D01*
X161544285Y-140775238D01*
X161639523Y-140870476D01*
X161734761Y-140918095D01*
X178312857Y-44822380D02*
X178312857Y-43822380D01*
X177741428Y-44822380D01*
X177741428Y-43822380D01*
X177312857Y-44536666D02*
X176836666Y-44536666D01*
X177408095Y-44822380D02*
X177074761Y-43822380D01*
X176741428Y-44822380D01*
X176408095Y-43822380D02*
X176408095Y-44631904D01*
X176360476Y-44727142D01*
X176312857Y-44774761D01*
X176217619Y-44822380D01*
X176027142Y-44822380D01*
X175931904Y-44774761D01*
X175884285Y-44727142D01*
X175836666Y-44631904D01*
X175836666Y-43822380D01*
X175217619Y-44250952D02*
X175312857Y-44203333D01*
X175360476Y-44155714D01*
X175408095Y-44060476D01*
X175408095Y-44012857D01*
X175360476Y-43917619D01*
X175312857Y-43870000D01*
X175217619Y-43822380D01*
X175027142Y-43822380D01*
X174931904Y-43870000D01*
X174884285Y-43917619D01*
X174836666Y-44012857D01*
X174836666Y-44060476D01*
X174884285Y-44155714D01*
X174931904Y-44203333D01*
X175027142Y-44250952D01*
X175217619Y-44250952D01*
X175312857Y-44298571D01*
X175360476Y-44346190D01*
X175408095Y-44441428D01*
X175408095Y-44631904D01*
X175360476Y-44727142D01*
X175312857Y-44774761D01*
X175217619Y-44822380D01*
X175027142Y-44822380D01*
X174931904Y-44774761D01*
X174884285Y-44727142D01*
X174836666Y-44631904D01*
X174836666Y-44441428D01*
X174884285Y-44346190D01*
X174931904Y-44298571D01*
X175027142Y-44250952D01*
X174265238Y-44250952D02*
X174360476Y-44203333D01*
X174408095Y-44155714D01*
X174455714Y-44060476D01*
X174455714Y-44012857D01*
X174408095Y-43917619D01*
X174360476Y-43870000D01*
X174265238Y-43822380D01*
X174074761Y-43822380D01*
X173979523Y-43870000D01*
X173931904Y-43917619D01*
X173884285Y-44012857D01*
X173884285Y-44060476D01*
X173931904Y-44155714D01*
X173979523Y-44203333D01*
X174074761Y-44250952D01*
X174265238Y-44250952D01*
X174360476Y-44298571D01*
X174408095Y-44346190D01*
X174455714Y-44441428D01*
X174455714Y-44631904D01*
X174408095Y-44727142D01*
X174360476Y-44774761D01*
X174265238Y-44822380D01*
X174074761Y-44822380D01*
X173979523Y-44774761D01*
X173931904Y-44727142D01*
X173884285Y-44631904D01*
X173884285Y-44441428D01*
X173931904Y-44346190D01*
X173979523Y-44298571D01*
X174074761Y-44250952D01*
X172931904Y-44822380D02*
X173503333Y-44822380D01*
X173217619Y-44822380D02*
X173217619Y-43822380D01*
X173312857Y-43965238D01*
X173408095Y-44060476D01*
X173503333Y-44108095D01*
X172312857Y-43822380D02*
X172217619Y-43822380D01*
X172122380Y-43870000D01*
X172074761Y-43917619D01*
X172027142Y-44012857D01*
X171979523Y-44203333D01*
X171979523Y-44441428D01*
X172027142Y-44631904D01*
X172074761Y-44727142D01*
X172122380Y-44774761D01*
X172217619Y-44822380D01*
X172312857Y-44822380D01*
X172408095Y-44774761D01*
X172455714Y-44727142D01*
X172503333Y-44631904D01*
X172550952Y-44441428D01*
X172550952Y-44203333D01*
X172503333Y-44012857D01*
X172455714Y-43917619D01*
X172408095Y-43870000D01*
X172312857Y-43822380D01*
X175931904Y-40522380D02*
X175931904Y-41331904D01*
X175884285Y-41427142D01*
X175836666Y-41474761D01*
X175741428Y-41522380D01*
X175550952Y-41522380D01*
X175455714Y-41474761D01*
X175408095Y-41427142D01*
X175360476Y-41331904D01*
X175360476Y-40522380D01*
X174360476Y-41522380D02*
X174931904Y-41522380D01*
X174646190Y-41522380D02*
X174646190Y-40522380D01*
X174741428Y-40665238D01*
X174836666Y-40760476D01*
X174931904Y-40808095D01*
X200052857Y-98892380D02*
X199957619Y-98892380D01*
X199862380Y-98940000D01*
X199814761Y-98987619D01*
X199767142Y-99082857D01*
X199719523Y-99273333D01*
X199719523Y-99511428D01*
X199767142Y-99701904D01*
X199814761Y-99797142D01*
X199862380Y-99844761D01*
X199957619Y-99892380D01*
X200052857Y-99892380D01*
X200148095Y-99844761D01*
X200195714Y-99797142D01*
X200243333Y-99701904D01*
X200290952Y-99511428D01*
X200290952Y-99273333D01*
X200243333Y-99082857D01*
X200195714Y-98987619D01*
X200148095Y-98940000D01*
X200052857Y-98892380D01*
X199290952Y-99797142D02*
X199243333Y-99844761D01*
X199290952Y-99892380D01*
X199338571Y-99844761D01*
X199290952Y-99797142D01*
X199290952Y-99892380D01*
X198290952Y-99892380D02*
X198862380Y-99892380D01*
X198576666Y-99892380D02*
X198576666Y-98892380D01*
X198671904Y-99035238D01*
X198767142Y-99130476D01*
X198862380Y-99178095D01*
X197433809Y-99225714D02*
X197433809Y-99892380D01*
X197862380Y-99225714D02*
X197862380Y-99749523D01*
X197814761Y-99844761D01*
X197719523Y-99892380D01*
X197576666Y-99892380D01*
X197481428Y-99844761D01*
X197433809Y-99797142D01*
X196624285Y-99368571D02*
X196957619Y-99368571D01*
X196957619Y-99892380D02*
X196957619Y-98892380D01*
X196481428Y-98892380D01*
D14*
X198476666Y-101012857D02*
X198495714Y-101031904D01*
X198552857Y-101050952D01*
X198590952Y-101050952D01*
X198648095Y-101031904D01*
X198686190Y-100993809D01*
X198705238Y-100955714D01*
X198724285Y-100879523D01*
X198724285Y-100822380D01*
X198705238Y-100746190D01*
X198686190Y-100708095D01*
X198648095Y-100670000D01*
X198590952Y-100650952D01*
X198552857Y-100650952D01*
X198495714Y-100670000D01*
X198476666Y-100689047D01*
X198095714Y-101050952D02*
X198324285Y-101050952D01*
X198210000Y-101050952D02*
X198210000Y-100650952D01*
X198248095Y-100708095D01*
X198286190Y-100746190D01*
X198324285Y-100765238D01*
D11*
X168512857Y-59252380D02*
X168417619Y-59252380D01*
X168322380Y-59300000D01*
X168274761Y-59347619D01*
X168227142Y-59442857D01*
X168179523Y-59633333D01*
X168179523Y-59871428D01*
X168227142Y-60061904D01*
X168274761Y-60157142D01*
X168322380Y-60204761D01*
X168417619Y-60252380D01*
X168512857Y-60252380D01*
X168608095Y-60204761D01*
X168655714Y-60157142D01*
X168703333Y-60061904D01*
X168750952Y-59871428D01*
X168750952Y-59633333D01*
X168703333Y-59442857D01*
X168655714Y-59347619D01*
X168608095Y-59300000D01*
X168512857Y-59252380D01*
X167750952Y-60157142D02*
X167703333Y-60204761D01*
X167750952Y-60252380D01*
X167798571Y-60204761D01*
X167750952Y-60157142D01*
X167750952Y-60252380D01*
X166750952Y-60252380D02*
X167322380Y-60252380D01*
X167036666Y-60252380D02*
X167036666Y-59252380D01*
X167131904Y-59395238D01*
X167227142Y-59490476D01*
X167322380Y-59538095D01*
X165893809Y-59585714D02*
X165893809Y-60252380D01*
X166322380Y-59585714D02*
X166322380Y-60109523D01*
X166274761Y-60204761D01*
X166179523Y-60252380D01*
X166036666Y-60252380D01*
X165941428Y-60204761D01*
X165893809Y-60157142D01*
X165084285Y-59728571D02*
X165417619Y-59728571D01*
X165417619Y-60252380D02*
X165417619Y-59252380D01*
X164941428Y-59252380D01*
D14*
X164052857Y-59753333D02*
X164071904Y-59734285D01*
X164090952Y-59677142D01*
X164090952Y-59639047D01*
X164071904Y-59581904D01*
X164033809Y-59543809D01*
X163995714Y-59524761D01*
X163919523Y-59505714D01*
X163862380Y-59505714D01*
X163786190Y-59524761D01*
X163748095Y-59543809D01*
X163710000Y-59581904D01*
X163690952Y-59639047D01*
X163690952Y-59677142D01*
X163710000Y-59734285D01*
X163729047Y-59753333D01*
X163729047Y-59905714D02*
X163710000Y-59924761D01*
X163690952Y-59962857D01*
X163690952Y-60058095D01*
X163710000Y-60096190D01*
X163729047Y-60115238D01*
X163767142Y-60134285D01*
X163805238Y-60134285D01*
X163862380Y-60115238D01*
X164090952Y-59886666D01*
X164090952Y-60134285D01*
D11*
X187324761Y-38505714D02*
X187324761Y-39172380D01*
X187562857Y-38124761D02*
X187800952Y-38839047D01*
X187181904Y-38839047D01*
X186800952Y-39077142D02*
X186753333Y-39124761D01*
X186800952Y-39172380D01*
X186848571Y-39124761D01*
X186800952Y-39077142D01*
X186800952Y-39172380D01*
X186420000Y-38172380D02*
X185753333Y-38172380D01*
X186181904Y-39172380D01*
X184943809Y-38505714D02*
X184943809Y-39172380D01*
X185372380Y-38505714D02*
X185372380Y-39029523D01*
X185324761Y-39124761D01*
X185229523Y-39172380D01*
X185086666Y-39172380D01*
X184991428Y-39124761D01*
X184943809Y-39077142D01*
X184134285Y-38648571D02*
X184467619Y-38648571D01*
X184467619Y-39172380D02*
X184467619Y-38172380D01*
X183991428Y-38172380D01*
D14*
X182196667Y-38822857D02*
X182215715Y-38841904D01*
X182272858Y-38860952D01*
X182310953Y-38860952D01*
X182368096Y-38841904D01*
X182406191Y-38803809D01*
X182425239Y-38765714D01*
X182444286Y-38689523D01*
X182444286Y-38632380D01*
X182425239Y-38556190D01*
X182406191Y-38518095D01*
X182368096Y-38480000D01*
X182310953Y-38460952D01*
X182272858Y-38460952D01*
X182215715Y-38480000D01*
X182196667Y-38499047D01*
X182063334Y-38460952D02*
X181815715Y-38460952D01*
X181949048Y-38613333D01*
X181891905Y-38613333D01*
X181853810Y-38632380D01*
X181834762Y-38651428D01*
X181815715Y-38689523D01*
X181815715Y-38784761D01*
X181834762Y-38822857D01*
X181853810Y-38841904D01*
X181891905Y-38860952D01*
X182006191Y-38860952D01*
X182044286Y-38841904D01*
X182063334Y-38822857D01*
D11*
X171164761Y-103285714D02*
X171164761Y-103952380D01*
X171402857Y-102904761D02*
X171640952Y-103619047D01*
X171021904Y-103619047D01*
X170640952Y-103857142D02*
X170593333Y-103904761D01*
X170640952Y-103952380D01*
X170688571Y-103904761D01*
X170640952Y-103857142D01*
X170640952Y-103952380D01*
X170260000Y-102952380D02*
X169593333Y-102952380D01*
X170021904Y-103952380D01*
X168783809Y-103285714D02*
X168783809Y-103952380D01*
X169212380Y-103285714D02*
X169212380Y-103809523D01*
X169164761Y-103904761D01*
X169069523Y-103952380D01*
X168926666Y-103952380D01*
X168831428Y-103904761D01*
X168783809Y-103857142D01*
X167974285Y-103428571D02*
X168307619Y-103428571D01*
X168307619Y-103952380D02*
X168307619Y-102952380D01*
X167831428Y-102952380D01*
D14*
X173052857Y-103593333D02*
X173071904Y-103574285D01*
X173090952Y-103517142D01*
X173090952Y-103479047D01*
X173071904Y-103421904D01*
X173033809Y-103383809D01*
X172995714Y-103364761D01*
X172919523Y-103345714D01*
X172862380Y-103345714D01*
X172786190Y-103364761D01*
X172748095Y-103383809D01*
X172710000Y-103421904D01*
X172690952Y-103479047D01*
X172690952Y-103517142D01*
X172710000Y-103574285D01*
X172729047Y-103593333D01*
X172824285Y-103936190D02*
X173090952Y-103936190D01*
X172671904Y-103840952D02*
X172957619Y-103745714D01*
X172957619Y-103993333D01*
D11*
X187364761Y-40065714D02*
X187364761Y-40732380D01*
X187602857Y-39684761D02*
X187840952Y-40399047D01*
X187221904Y-40399047D01*
X186840952Y-40637142D02*
X186793333Y-40684761D01*
X186840952Y-40732380D01*
X186888571Y-40684761D01*
X186840952Y-40637142D01*
X186840952Y-40732380D01*
X186460000Y-39732380D02*
X185793333Y-39732380D01*
X186221904Y-40732380D01*
X184983809Y-40065714D02*
X184983809Y-40732380D01*
X185412380Y-40065714D02*
X185412380Y-40589523D01*
X185364761Y-40684761D01*
X185269523Y-40732380D01*
X185126666Y-40732380D01*
X185031428Y-40684761D01*
X184983809Y-40637142D01*
X184174285Y-40208571D02*
X184507619Y-40208571D01*
X184507619Y-40732380D02*
X184507619Y-39732380D01*
X184031428Y-39732380D01*
D14*
X182196667Y-40377857D02*
X182215715Y-40396904D01*
X182272858Y-40415952D01*
X182310953Y-40415952D01*
X182368096Y-40396904D01*
X182406191Y-40358809D01*
X182425239Y-40320714D01*
X182444286Y-40244523D01*
X182444286Y-40187380D01*
X182425239Y-40111190D01*
X182406191Y-40073095D01*
X182368096Y-40035000D01*
X182310953Y-40015952D01*
X182272858Y-40015952D01*
X182215715Y-40035000D01*
X182196667Y-40054047D01*
X181834762Y-40015952D02*
X182025239Y-40015952D01*
X182044286Y-40206428D01*
X182025239Y-40187380D01*
X181987143Y-40168333D01*
X181891905Y-40168333D01*
X181853810Y-40187380D01*
X181834762Y-40206428D01*
X181815715Y-40244523D01*
X181815715Y-40339761D01*
X181834762Y-40377857D01*
X181853810Y-40396904D01*
X181891905Y-40415952D01*
X181987143Y-40415952D01*
X182025239Y-40396904D01*
X182044286Y-40377857D01*
D11*
X189664761Y-74035714D02*
X189664761Y-74702380D01*
X189902857Y-73654761D02*
X190140952Y-74369047D01*
X189521904Y-74369047D01*
X189140952Y-74607142D02*
X189093333Y-74654761D01*
X189140952Y-74702380D01*
X189188571Y-74654761D01*
X189140952Y-74607142D01*
X189140952Y-74702380D01*
X188760000Y-73702380D02*
X188093333Y-73702380D01*
X188521904Y-74702380D01*
X187283809Y-74035714D02*
X187283809Y-74702380D01*
X187712380Y-74035714D02*
X187712380Y-74559523D01*
X187664761Y-74654761D01*
X187569523Y-74702380D01*
X187426666Y-74702380D01*
X187331428Y-74654761D01*
X187283809Y-74607142D01*
X186474285Y-74178571D02*
X186807619Y-74178571D01*
X186807619Y-74702380D02*
X186807619Y-73702380D01*
X186331428Y-73702380D01*
D14*
X185452857Y-73233333D02*
X185471904Y-73214285D01*
X185490952Y-73157142D01*
X185490952Y-73119047D01*
X185471904Y-73061904D01*
X185433809Y-73023809D01*
X185395714Y-73004761D01*
X185319523Y-72985714D01*
X185262380Y-72985714D01*
X185186190Y-73004761D01*
X185148095Y-73023809D01*
X185110000Y-73061904D01*
X185090952Y-73119047D01*
X185090952Y-73157142D01*
X185110000Y-73214285D01*
X185129047Y-73233333D01*
X185090952Y-73576190D02*
X185090952Y-73500000D01*
X185110000Y-73461904D01*
X185129047Y-73442857D01*
X185186190Y-73404761D01*
X185262380Y-73385714D01*
X185414761Y-73385714D01*
X185452857Y-73404761D01*
X185471904Y-73423809D01*
X185490952Y-73461904D01*
X185490952Y-73538095D01*
X185471904Y-73576190D01*
X185452857Y-73595238D01*
X185414761Y-73614285D01*
X185319523Y-73614285D01*
X185281428Y-73595238D01*
X185262380Y-73576190D01*
X185243333Y-73538095D01*
X185243333Y-73461904D01*
X185262380Y-73423809D01*
X185281428Y-73404761D01*
X185319523Y-73385714D01*
D11*
X187324761Y-41595714D02*
X187324761Y-42262380D01*
X187562857Y-41214761D02*
X187800952Y-41929047D01*
X187181904Y-41929047D01*
X186800952Y-42167142D02*
X186753333Y-42214761D01*
X186800952Y-42262380D01*
X186848571Y-42214761D01*
X186800952Y-42167142D01*
X186800952Y-42262380D01*
X186420000Y-41262380D02*
X185753333Y-41262380D01*
X186181904Y-42262380D01*
X184943809Y-41595714D02*
X184943809Y-42262380D01*
X185372380Y-41595714D02*
X185372380Y-42119523D01*
X185324761Y-42214761D01*
X185229523Y-42262380D01*
X185086666Y-42262380D01*
X184991428Y-42214761D01*
X184943809Y-42167142D01*
X184134285Y-41738571D02*
X184467619Y-41738571D01*
X184467619Y-42262380D02*
X184467619Y-41262380D01*
X183991428Y-41262380D01*
D14*
X182196667Y-41932857D02*
X182215715Y-41951904D01*
X182272858Y-41970952D01*
X182310953Y-41970952D01*
X182368096Y-41951904D01*
X182406191Y-41913809D01*
X182425239Y-41875714D01*
X182444286Y-41799523D01*
X182444286Y-41742380D01*
X182425239Y-41666190D01*
X182406191Y-41628095D01*
X182368096Y-41590000D01*
X182310953Y-41570952D01*
X182272858Y-41570952D01*
X182215715Y-41590000D01*
X182196667Y-41609047D01*
X182063334Y-41570952D02*
X181796667Y-41570952D01*
X181968096Y-41970952D01*
D11*
X171452857Y-105807619D02*
X171405238Y-105760000D01*
X171310000Y-105712380D01*
X171071904Y-105712380D01*
X170976666Y-105760000D01*
X170929047Y-105807619D01*
X170881428Y-105902857D01*
X170881428Y-105998095D01*
X170929047Y-106140952D01*
X171500476Y-106712380D01*
X170881428Y-106712380D01*
X170500476Y-105807619D02*
X170452857Y-105760000D01*
X170357619Y-105712380D01*
X170119523Y-105712380D01*
X170024285Y-105760000D01*
X169976666Y-105807619D01*
X169929047Y-105902857D01*
X169929047Y-105998095D01*
X169976666Y-106140952D01*
X170548095Y-106712380D01*
X169929047Y-106712380D01*
X169071904Y-106045714D02*
X169071904Y-106712380D01*
X169500476Y-106045714D02*
X169500476Y-106569523D01*
X169452857Y-106664761D01*
X169357619Y-106712380D01*
X169214761Y-106712380D01*
X169119523Y-106664761D01*
X169071904Y-106617142D01*
X168262380Y-106188571D02*
X168595714Y-106188571D01*
X168595714Y-106712380D02*
X168595714Y-105712380D01*
X168119523Y-105712380D01*
D14*
X173052857Y-106823333D02*
X173071904Y-106804285D01*
X173090952Y-106747142D01*
X173090952Y-106709047D01*
X173071904Y-106651904D01*
X173033809Y-106613809D01*
X172995714Y-106594761D01*
X172919523Y-106575714D01*
X172862380Y-106575714D01*
X172786190Y-106594761D01*
X172748095Y-106613809D01*
X172710000Y-106651904D01*
X172690952Y-106709047D01*
X172690952Y-106747142D01*
X172710000Y-106804285D01*
X172729047Y-106823333D01*
X172862380Y-107051904D02*
X172843333Y-107013809D01*
X172824285Y-106994761D01*
X172786190Y-106975714D01*
X172767142Y-106975714D01*
X172729047Y-106994761D01*
X172710000Y-107013809D01*
X172690952Y-107051904D01*
X172690952Y-107128095D01*
X172710000Y-107166190D01*
X172729047Y-107185238D01*
X172767142Y-107204285D01*
X172786190Y-107204285D01*
X172824285Y-107185238D01*
X172843333Y-107166190D01*
X172862380Y-107128095D01*
X172862380Y-107051904D01*
X172881428Y-107013809D01*
X172900476Y-106994761D01*
X172938571Y-106975714D01*
X173014761Y-106975714D01*
X173052857Y-106994761D01*
X173071904Y-107013809D01*
X173090952Y-107051904D01*
X173090952Y-107128095D01*
X173071904Y-107166190D01*
X173052857Y-107185238D01*
X173014761Y-107204285D01*
X172938571Y-107204285D01*
X172900476Y-107185238D01*
X172881428Y-107166190D01*
X172862380Y-107128095D01*
D11*
X155725238Y-86002380D02*
X156296666Y-86002380D01*
X156010952Y-86002380D02*
X156010952Y-85002380D01*
X156106190Y-85145238D01*
X156201428Y-85240476D01*
X156296666Y-85288095D01*
X155296666Y-85335714D02*
X155296666Y-86002380D01*
X155296666Y-85430952D02*
X155249047Y-85383333D01*
X155153809Y-85335714D01*
X155010952Y-85335714D01*
X154915714Y-85383333D01*
X154868095Y-85478571D01*
X154868095Y-86002380D01*
X154058571Y-85478571D02*
X154391904Y-85478571D01*
X154391904Y-86002380D02*
X154391904Y-85002380D01*
X153915714Y-85002380D01*
D14*
X152882857Y-85503333D02*
X152901904Y-85484285D01*
X152920952Y-85427142D01*
X152920952Y-85389047D01*
X152901904Y-85331904D01*
X152863809Y-85293809D01*
X152825714Y-85274761D01*
X152749523Y-85255714D01*
X152692380Y-85255714D01*
X152616190Y-85274761D01*
X152578095Y-85293809D01*
X152540000Y-85331904D01*
X152520952Y-85389047D01*
X152520952Y-85427142D01*
X152540000Y-85484285D01*
X152559047Y-85503333D01*
X152920952Y-85693809D02*
X152920952Y-85770000D01*
X152901904Y-85808095D01*
X152882857Y-85827142D01*
X152825714Y-85865238D01*
X152749523Y-85884285D01*
X152597142Y-85884285D01*
X152559047Y-85865238D01*
X152540000Y-85846190D01*
X152520952Y-85808095D01*
X152520952Y-85731904D01*
X152540000Y-85693809D01*
X152559047Y-85674761D01*
X152597142Y-85655714D01*
X152692380Y-85655714D01*
X152730476Y-85674761D01*
X152749523Y-85693809D01*
X152768571Y-85731904D01*
X152768571Y-85808095D01*
X152749523Y-85846190D01*
X152730476Y-85865238D01*
X152692380Y-85884285D01*
D11*
X179962857Y-54772380D02*
X179867619Y-54772380D01*
X179772380Y-54820000D01*
X179724761Y-54867619D01*
X179677142Y-54962857D01*
X179629523Y-55153333D01*
X179629523Y-55391428D01*
X179677142Y-55581904D01*
X179724761Y-55677142D01*
X179772380Y-55724761D01*
X179867619Y-55772380D01*
X179962857Y-55772380D01*
X180058095Y-55724761D01*
X180105714Y-55677142D01*
X180153333Y-55581904D01*
X180200952Y-55391428D01*
X180200952Y-55153333D01*
X180153333Y-54962857D01*
X180105714Y-54867619D01*
X180058095Y-54820000D01*
X179962857Y-54772380D01*
X179200952Y-55677142D02*
X179153333Y-55724761D01*
X179200952Y-55772380D01*
X179248571Y-55724761D01*
X179200952Y-55677142D01*
X179200952Y-55772380D01*
X178200952Y-55772380D02*
X178772380Y-55772380D01*
X178486666Y-55772380D02*
X178486666Y-54772380D01*
X178581904Y-54915238D01*
X178677142Y-55010476D01*
X178772380Y-55058095D01*
X177343809Y-55105714D02*
X177343809Y-55772380D01*
X177772380Y-55105714D02*
X177772380Y-55629523D01*
X177724761Y-55724761D01*
X177629523Y-55772380D01*
X177486666Y-55772380D01*
X177391428Y-55724761D01*
X177343809Y-55677142D01*
X176534285Y-55248571D02*
X176867619Y-55248571D01*
X176867619Y-55772380D02*
X176867619Y-54772380D01*
X176391428Y-54772380D01*
D14*
X178647142Y-53942857D02*
X178666190Y-53961904D01*
X178723333Y-53980952D01*
X178761428Y-53980952D01*
X178818571Y-53961904D01*
X178856666Y-53923809D01*
X178875714Y-53885714D01*
X178894761Y-53809523D01*
X178894761Y-53752380D01*
X178875714Y-53676190D01*
X178856666Y-53638095D01*
X178818571Y-53600000D01*
X178761428Y-53580952D01*
X178723333Y-53580952D01*
X178666190Y-53600000D01*
X178647142Y-53619047D01*
X178266190Y-53980952D02*
X178494761Y-53980952D01*
X178380476Y-53980952D02*
X178380476Y-53580952D01*
X178418571Y-53638095D01*
X178456666Y-53676190D01*
X178494761Y-53695238D01*
X178018571Y-53580952D02*
X177980476Y-53580952D01*
X177942380Y-53600000D01*
X177923333Y-53619047D01*
X177904285Y-53657142D01*
X177885238Y-53733333D01*
X177885238Y-53828571D01*
X177904285Y-53904761D01*
X177923333Y-53942857D01*
X177942380Y-53961904D01*
X177980476Y-53980952D01*
X178018571Y-53980952D01*
X178056666Y-53961904D01*
X178075714Y-53942857D01*
X178094761Y-53904761D01*
X178113809Y-53828571D01*
X178113809Y-53733333D01*
X178094761Y-53657142D01*
X178075714Y-53619047D01*
X178056666Y-53600000D01*
X178018571Y-53580952D01*
D11*
X178002857Y-91402380D02*
X177907619Y-91402380D01*
X177812380Y-91450000D01*
X177764761Y-91497619D01*
X177717142Y-91592857D01*
X177669523Y-91783333D01*
X177669523Y-92021428D01*
X177717142Y-92211904D01*
X177764761Y-92307142D01*
X177812380Y-92354761D01*
X177907619Y-92402380D01*
X178002857Y-92402380D01*
X178098095Y-92354761D01*
X178145714Y-92307142D01*
X178193333Y-92211904D01*
X178240952Y-92021428D01*
X178240952Y-91783333D01*
X178193333Y-91592857D01*
X178145714Y-91497619D01*
X178098095Y-91450000D01*
X178002857Y-91402380D01*
X177240952Y-92307142D02*
X177193333Y-92354761D01*
X177240952Y-92402380D01*
X177288571Y-92354761D01*
X177240952Y-92307142D01*
X177240952Y-92402380D01*
X176240952Y-92402380D02*
X176812380Y-92402380D01*
X176526666Y-92402380D02*
X176526666Y-91402380D01*
X176621904Y-91545238D01*
X176717142Y-91640476D01*
X176812380Y-91688095D01*
X175383809Y-91735714D02*
X175383809Y-92402380D01*
X175812380Y-91735714D02*
X175812380Y-92259523D01*
X175764761Y-92354761D01*
X175669523Y-92402380D01*
X175526666Y-92402380D01*
X175431428Y-92354761D01*
X175383809Y-92307142D01*
X174574285Y-91878571D02*
X174907619Y-91878571D01*
X174907619Y-92402380D02*
X174907619Y-91402380D01*
X174431428Y-91402380D01*
D14*
X176617142Y-93522857D02*
X176636190Y-93541904D01*
X176693333Y-93560952D01*
X176731428Y-93560952D01*
X176788571Y-93541904D01*
X176826666Y-93503809D01*
X176845714Y-93465714D01*
X176864761Y-93389523D01*
X176864761Y-93332380D01*
X176845714Y-93256190D01*
X176826666Y-93218095D01*
X176788571Y-93180000D01*
X176731428Y-93160952D01*
X176693333Y-93160952D01*
X176636190Y-93180000D01*
X176617142Y-93199047D01*
X176236190Y-93560952D02*
X176464761Y-93560952D01*
X176350476Y-93560952D02*
X176350476Y-93160952D01*
X176388571Y-93218095D01*
X176426666Y-93256190D01*
X176464761Y-93275238D01*
X175855238Y-93560952D02*
X176083809Y-93560952D01*
X175969523Y-93560952D02*
X175969523Y-93160952D01*
X176007619Y-93218095D01*
X176045714Y-93256190D01*
X176083809Y-93275238D01*
D11*
X164256666Y-56015714D02*
X164256666Y-56682380D01*
X164494761Y-55634761D02*
X164732857Y-56349047D01*
X164113809Y-56349047D01*
X163828095Y-55682380D02*
X163161428Y-55682380D01*
X163590000Y-56682380D01*
X162780476Y-56015714D02*
X162780476Y-57015714D01*
X162780476Y-56063333D02*
X162685238Y-56015714D01*
X162494761Y-56015714D01*
X162399523Y-56063333D01*
X162351904Y-56110952D01*
X162304285Y-56206190D01*
X162304285Y-56491904D01*
X162351904Y-56587142D01*
X162399523Y-56634761D01*
X162494761Y-56682380D01*
X162685238Y-56682380D01*
X162780476Y-56634761D01*
X161542380Y-56158571D02*
X161875714Y-56158571D01*
X161875714Y-56682380D02*
X161875714Y-55682380D01*
X161399523Y-55682380D01*
D14*
X163122857Y-53432857D02*
X163141904Y-53413809D01*
X163160952Y-53356666D01*
X163160952Y-53318571D01*
X163141904Y-53261428D01*
X163103809Y-53223333D01*
X163065714Y-53204285D01*
X162989523Y-53185238D01*
X162932380Y-53185238D01*
X162856190Y-53204285D01*
X162818095Y-53223333D01*
X162780000Y-53261428D01*
X162760952Y-53318571D01*
X162760952Y-53356666D01*
X162780000Y-53413809D01*
X162799047Y-53432857D01*
X163160952Y-53813809D02*
X163160952Y-53585238D01*
X163160952Y-53699523D02*
X162760952Y-53699523D01*
X162818095Y-53661428D01*
X162856190Y-53623333D01*
X162875238Y-53585238D01*
X162799047Y-53966190D02*
X162780000Y-53985238D01*
X162760952Y-54023333D01*
X162760952Y-54118571D01*
X162780000Y-54156666D01*
X162799047Y-54175714D01*
X162837142Y-54194761D01*
X162875238Y-54194761D01*
X162932380Y-54175714D01*
X163160952Y-53947142D01*
X163160952Y-54194761D01*
D11*
X161466666Y-45785714D02*
X161466666Y-46452380D01*
X161704761Y-45404761D02*
X161942857Y-46119047D01*
X161323809Y-46119047D01*
X161038095Y-45452380D02*
X160371428Y-45452380D01*
X160800000Y-46452380D01*
X159990476Y-45785714D02*
X159990476Y-46785714D01*
X159990476Y-45833333D02*
X159895238Y-45785714D01*
X159704761Y-45785714D01*
X159609523Y-45833333D01*
X159561904Y-45880952D01*
X159514285Y-45976190D01*
X159514285Y-46261904D01*
X159561904Y-46357142D01*
X159609523Y-46404761D01*
X159704761Y-46452380D01*
X159895238Y-46452380D01*
X159990476Y-46404761D01*
X158752380Y-45928571D02*
X159085714Y-45928571D01*
X159085714Y-46452380D02*
X159085714Y-45452380D01*
X158609523Y-45452380D01*
D14*
X163112857Y-46612857D02*
X163131904Y-46593809D01*
X163150952Y-46536666D01*
X163150952Y-46498571D01*
X163131904Y-46441428D01*
X163093809Y-46403333D01*
X163055714Y-46384285D01*
X162979523Y-46365238D01*
X162922380Y-46365238D01*
X162846190Y-46384285D01*
X162808095Y-46403333D01*
X162770000Y-46441428D01*
X162750952Y-46498571D01*
X162750952Y-46536666D01*
X162770000Y-46593809D01*
X162789047Y-46612857D01*
X163150952Y-46993809D02*
X163150952Y-46765238D01*
X163150952Y-46879523D02*
X162750952Y-46879523D01*
X162808095Y-46841428D01*
X162846190Y-46803333D01*
X162865238Y-46765238D01*
X162750952Y-47127142D02*
X162750952Y-47374761D01*
X162903333Y-47241428D01*
X162903333Y-47298571D01*
X162922380Y-47336666D01*
X162941428Y-47355714D01*
X162979523Y-47374761D01*
X163074761Y-47374761D01*
X163112857Y-47355714D01*
X163131904Y-47336666D01*
X163150952Y-47298571D01*
X163150952Y-47184285D01*
X163131904Y-47146190D01*
X163112857Y-47127142D01*
D11*
X206824761Y-121405714D02*
X206824761Y-122072380D01*
X207062857Y-121024761D02*
X207300952Y-121739047D01*
X206681904Y-121739047D01*
X206300952Y-121977142D02*
X206253333Y-122024761D01*
X206300952Y-122072380D01*
X206348571Y-122024761D01*
X206300952Y-121977142D01*
X206300952Y-122072380D01*
X205920000Y-121072380D02*
X205253333Y-121072380D01*
X205681904Y-122072380D01*
X204443809Y-121405714D02*
X204443809Y-122072380D01*
X204872380Y-121405714D02*
X204872380Y-121929523D01*
X204824761Y-122024761D01*
X204729523Y-122072380D01*
X204586666Y-122072380D01*
X204491428Y-122024761D01*
X204443809Y-121977142D01*
X203634285Y-121548571D02*
X203967619Y-121548571D01*
X203967619Y-122072380D02*
X203967619Y-121072380D01*
X203491428Y-121072380D01*
D14*
X202372857Y-121112857D02*
X202391904Y-121093809D01*
X202410952Y-121036666D01*
X202410952Y-120998571D01*
X202391904Y-120941428D01*
X202353809Y-120903333D01*
X202315714Y-120884285D01*
X202239523Y-120865238D01*
X202182380Y-120865238D01*
X202106190Y-120884285D01*
X202068095Y-120903333D01*
X202030000Y-120941428D01*
X202010952Y-120998571D01*
X202010952Y-121036666D01*
X202030000Y-121093809D01*
X202049047Y-121112857D01*
X202410952Y-121493809D02*
X202410952Y-121265238D01*
X202410952Y-121379523D02*
X202010952Y-121379523D01*
X202068095Y-121341428D01*
X202106190Y-121303333D01*
X202125238Y-121265238D01*
X202144285Y-121836666D02*
X202410952Y-121836666D01*
X201991904Y-121741428D02*
X202277619Y-121646190D01*
X202277619Y-121893809D01*
D11*
X206804761Y-118245714D02*
X206804761Y-118912380D01*
X207042857Y-117864761D02*
X207280952Y-118579047D01*
X206661904Y-118579047D01*
X206280952Y-118817142D02*
X206233333Y-118864761D01*
X206280952Y-118912380D01*
X206328571Y-118864761D01*
X206280952Y-118817142D01*
X206280952Y-118912380D01*
X205900000Y-117912380D02*
X205233333Y-117912380D01*
X205661904Y-118912380D01*
X204423809Y-118245714D02*
X204423809Y-118912380D01*
X204852380Y-118245714D02*
X204852380Y-118769523D01*
X204804761Y-118864761D01*
X204709523Y-118912380D01*
X204566666Y-118912380D01*
X204471428Y-118864761D01*
X204423809Y-118817142D01*
X203614285Y-118388571D02*
X203947619Y-118388571D01*
X203947619Y-118912380D02*
X203947619Y-117912380D01*
X203471428Y-117912380D01*
D14*
X202372857Y-118082857D02*
X202391904Y-118063809D01*
X202410952Y-118006666D01*
X202410952Y-117968571D01*
X202391904Y-117911428D01*
X202353809Y-117873333D01*
X202315714Y-117854285D01*
X202239523Y-117835238D01*
X202182380Y-117835238D01*
X202106190Y-117854285D01*
X202068095Y-117873333D01*
X202030000Y-117911428D01*
X202010952Y-117968571D01*
X202010952Y-118006666D01*
X202030000Y-118063809D01*
X202049047Y-118082857D01*
X202410952Y-118463809D02*
X202410952Y-118235238D01*
X202410952Y-118349523D02*
X202010952Y-118349523D01*
X202068095Y-118311428D01*
X202106190Y-118273333D01*
X202125238Y-118235238D01*
X202010952Y-118825714D02*
X202010952Y-118635238D01*
X202201428Y-118616190D01*
X202182380Y-118635238D01*
X202163333Y-118673333D01*
X202163333Y-118768571D01*
X202182380Y-118806666D01*
X202201428Y-118825714D01*
X202239523Y-118844761D01*
X202334761Y-118844761D01*
X202372857Y-118825714D01*
X202391904Y-118806666D01*
X202410952Y-118768571D01*
X202410952Y-118673333D01*
X202391904Y-118635238D01*
X202372857Y-118616190D01*
D11*
X188312857Y-66012380D02*
X188217619Y-66012380D01*
X188122380Y-66060000D01*
X188074761Y-66107619D01*
X188027142Y-66202857D01*
X187979523Y-66393333D01*
X187979523Y-66631428D01*
X188027142Y-66821904D01*
X188074761Y-66917142D01*
X188122380Y-66964761D01*
X188217619Y-67012380D01*
X188312857Y-67012380D01*
X188408095Y-66964761D01*
X188455714Y-66917142D01*
X188503333Y-66821904D01*
X188550952Y-66631428D01*
X188550952Y-66393333D01*
X188503333Y-66202857D01*
X188455714Y-66107619D01*
X188408095Y-66060000D01*
X188312857Y-66012380D01*
X187550952Y-66917142D02*
X187503333Y-66964761D01*
X187550952Y-67012380D01*
X187598571Y-66964761D01*
X187550952Y-66917142D01*
X187550952Y-67012380D01*
X186550952Y-67012380D02*
X187122380Y-67012380D01*
X186836666Y-67012380D02*
X186836666Y-66012380D01*
X186931904Y-66155238D01*
X187027142Y-66250476D01*
X187122380Y-66298095D01*
X185693809Y-66345714D02*
X185693809Y-67012380D01*
X186122380Y-66345714D02*
X186122380Y-66869523D01*
X186074761Y-66964761D01*
X185979523Y-67012380D01*
X185836666Y-67012380D01*
X185741428Y-66964761D01*
X185693809Y-66917142D01*
X184884285Y-66488571D02*
X185217619Y-66488571D01*
X185217619Y-67012380D02*
X185217619Y-66012380D01*
X184741428Y-66012380D01*
D14*
X177727142Y-66652857D02*
X177746190Y-66671904D01*
X177803333Y-66690952D01*
X177841428Y-66690952D01*
X177898571Y-66671904D01*
X177936666Y-66633809D01*
X177955714Y-66595714D01*
X177974761Y-66519523D01*
X177974761Y-66462380D01*
X177955714Y-66386190D01*
X177936666Y-66348095D01*
X177898571Y-66310000D01*
X177841428Y-66290952D01*
X177803333Y-66290952D01*
X177746190Y-66310000D01*
X177727142Y-66329047D01*
X177346190Y-66690952D02*
X177574761Y-66690952D01*
X177460476Y-66690952D02*
X177460476Y-66290952D01*
X177498571Y-66348095D01*
X177536666Y-66386190D01*
X177574761Y-66405238D01*
X177003333Y-66290952D02*
X177079523Y-66290952D01*
X177117619Y-66310000D01*
X177136666Y-66329047D01*
X177174761Y-66386190D01*
X177193809Y-66462380D01*
X177193809Y-66614761D01*
X177174761Y-66652857D01*
X177155714Y-66671904D01*
X177117619Y-66690952D01*
X177041428Y-66690952D01*
X177003333Y-66671904D01*
X176984285Y-66652857D01*
X176965238Y-66614761D01*
X176965238Y-66519523D01*
X176984285Y-66481428D01*
X177003333Y-66462380D01*
X177041428Y-66443333D01*
X177117619Y-66443333D01*
X177155714Y-66462380D01*
X177174761Y-66481428D01*
X177193809Y-66519523D01*
D11*
X189299047Y-64522380D02*
X189203809Y-64522380D01*
X189108571Y-64570000D01*
X189060952Y-64617619D01*
X189013333Y-64712857D01*
X188965714Y-64903333D01*
X188965714Y-65141428D01*
X189013333Y-65331904D01*
X189060952Y-65427142D01*
X189108571Y-65474761D01*
X189203809Y-65522380D01*
X189299047Y-65522380D01*
X189394285Y-65474761D01*
X189441904Y-65427142D01*
X189489523Y-65331904D01*
X189537142Y-65141428D01*
X189537142Y-64903333D01*
X189489523Y-64712857D01*
X189441904Y-64617619D01*
X189394285Y-64570000D01*
X189299047Y-64522380D01*
X188537142Y-65427142D02*
X188489523Y-65474761D01*
X188537142Y-65522380D01*
X188584761Y-65474761D01*
X188537142Y-65427142D01*
X188537142Y-65522380D01*
X187632380Y-64855714D02*
X187632380Y-65522380D01*
X187870476Y-64474761D02*
X188108571Y-65189047D01*
X187489523Y-65189047D01*
X187203809Y-64522380D02*
X186537142Y-64522380D01*
X186965714Y-65522380D01*
X185727619Y-64855714D02*
X185727619Y-65522380D01*
X186156190Y-64855714D02*
X186156190Y-65379523D01*
X186108571Y-65474761D01*
X186013333Y-65522380D01*
X185870476Y-65522380D01*
X185775238Y-65474761D01*
X185727619Y-65427142D01*
X184918095Y-64998571D02*
X185251428Y-64998571D01*
X185251428Y-65522380D02*
X185251428Y-64522380D01*
X184775238Y-64522380D01*
D14*
X177727142Y-65142857D02*
X177746190Y-65161904D01*
X177803333Y-65180952D01*
X177841428Y-65180952D01*
X177898571Y-65161904D01*
X177936666Y-65123809D01*
X177955714Y-65085714D01*
X177974761Y-65009523D01*
X177974761Y-64952380D01*
X177955714Y-64876190D01*
X177936666Y-64838095D01*
X177898571Y-64800000D01*
X177841428Y-64780952D01*
X177803333Y-64780952D01*
X177746190Y-64800000D01*
X177727142Y-64819047D01*
X177346190Y-65180952D02*
X177574761Y-65180952D01*
X177460476Y-65180952D02*
X177460476Y-64780952D01*
X177498571Y-64838095D01*
X177536666Y-64876190D01*
X177574761Y-64895238D01*
X177212857Y-64780952D02*
X176946190Y-64780952D01*
X177117619Y-65180952D01*
D11*
X188152857Y-68932380D02*
X188057619Y-68932380D01*
X187962380Y-68980000D01*
X187914761Y-69027619D01*
X187867142Y-69122857D01*
X187819523Y-69313333D01*
X187819523Y-69551428D01*
X187867142Y-69741904D01*
X187914761Y-69837142D01*
X187962380Y-69884761D01*
X188057619Y-69932380D01*
X188152857Y-69932380D01*
X188248095Y-69884761D01*
X188295714Y-69837142D01*
X188343333Y-69741904D01*
X188390952Y-69551428D01*
X188390952Y-69313333D01*
X188343333Y-69122857D01*
X188295714Y-69027619D01*
X188248095Y-68980000D01*
X188152857Y-68932380D01*
X187390952Y-69837142D02*
X187343333Y-69884761D01*
X187390952Y-69932380D01*
X187438571Y-69884761D01*
X187390952Y-69837142D01*
X187390952Y-69932380D01*
X186390952Y-69932380D02*
X186962380Y-69932380D01*
X186676666Y-69932380D02*
X186676666Y-68932380D01*
X186771904Y-69075238D01*
X186867142Y-69170476D01*
X186962380Y-69218095D01*
X185533809Y-69265714D02*
X185533809Y-69932380D01*
X185962380Y-69265714D02*
X185962380Y-69789523D01*
X185914761Y-69884761D01*
X185819523Y-69932380D01*
X185676666Y-69932380D01*
X185581428Y-69884761D01*
X185533809Y-69837142D01*
X184724285Y-69408571D02*
X185057619Y-69408571D01*
X185057619Y-69932380D02*
X185057619Y-68932380D01*
X184581428Y-68932380D01*
D14*
X177717142Y-69672857D02*
X177736190Y-69691904D01*
X177793333Y-69710952D01*
X177831428Y-69710952D01*
X177888571Y-69691904D01*
X177926666Y-69653809D01*
X177945714Y-69615714D01*
X177964761Y-69539523D01*
X177964761Y-69482380D01*
X177945714Y-69406190D01*
X177926666Y-69368095D01*
X177888571Y-69330000D01*
X177831428Y-69310952D01*
X177793333Y-69310952D01*
X177736190Y-69330000D01*
X177717142Y-69349047D01*
X177336190Y-69710952D02*
X177564761Y-69710952D01*
X177450476Y-69710952D02*
X177450476Y-69310952D01*
X177488571Y-69368095D01*
X177526666Y-69406190D01*
X177564761Y-69425238D01*
X177107619Y-69482380D02*
X177145714Y-69463333D01*
X177164761Y-69444285D01*
X177183809Y-69406190D01*
X177183809Y-69387142D01*
X177164761Y-69349047D01*
X177145714Y-69330000D01*
X177107619Y-69310952D01*
X177031428Y-69310952D01*
X176993333Y-69330000D01*
X176974285Y-69349047D01*
X176955238Y-69387142D01*
X176955238Y-69406190D01*
X176974285Y-69444285D01*
X176993333Y-69463333D01*
X177031428Y-69482380D01*
X177107619Y-69482380D01*
X177145714Y-69501428D01*
X177164761Y-69520476D01*
X177183809Y-69558571D01*
X177183809Y-69634761D01*
X177164761Y-69672857D01*
X177145714Y-69691904D01*
X177107619Y-69710952D01*
X177031428Y-69710952D01*
X176993333Y-69691904D01*
X176974285Y-69672857D01*
X176955238Y-69634761D01*
X176955238Y-69558571D01*
X176974285Y-69520476D01*
X176993333Y-69501428D01*
X177031428Y-69482380D01*
D11*
X189169047Y-67472380D02*
X189073809Y-67472380D01*
X188978571Y-67520000D01*
X188930952Y-67567619D01*
X188883333Y-67662857D01*
X188835714Y-67853333D01*
X188835714Y-68091428D01*
X188883333Y-68281904D01*
X188930952Y-68377142D01*
X188978571Y-68424761D01*
X189073809Y-68472380D01*
X189169047Y-68472380D01*
X189264285Y-68424761D01*
X189311904Y-68377142D01*
X189359523Y-68281904D01*
X189407142Y-68091428D01*
X189407142Y-67853333D01*
X189359523Y-67662857D01*
X189311904Y-67567619D01*
X189264285Y-67520000D01*
X189169047Y-67472380D01*
X188407142Y-68377142D02*
X188359523Y-68424761D01*
X188407142Y-68472380D01*
X188454761Y-68424761D01*
X188407142Y-68377142D01*
X188407142Y-68472380D01*
X187502380Y-67805714D02*
X187502380Y-68472380D01*
X187740476Y-67424761D02*
X187978571Y-68139047D01*
X187359523Y-68139047D01*
X187073809Y-67472380D02*
X186407142Y-67472380D01*
X186835714Y-68472380D01*
X185597619Y-67805714D02*
X185597619Y-68472380D01*
X186026190Y-67805714D02*
X186026190Y-68329523D01*
X185978571Y-68424761D01*
X185883333Y-68472380D01*
X185740476Y-68472380D01*
X185645238Y-68424761D01*
X185597619Y-68377142D01*
X184788095Y-67948571D02*
X185121428Y-67948571D01*
X185121428Y-68472380D02*
X185121428Y-67472380D01*
X184645238Y-67472380D01*
D14*
X177727142Y-68162857D02*
X177746190Y-68181904D01*
X177803333Y-68200952D01*
X177841428Y-68200952D01*
X177898571Y-68181904D01*
X177936666Y-68143809D01*
X177955714Y-68105714D01*
X177974761Y-68029523D01*
X177974761Y-67972380D01*
X177955714Y-67896190D01*
X177936666Y-67858095D01*
X177898571Y-67820000D01*
X177841428Y-67800952D01*
X177803333Y-67800952D01*
X177746190Y-67820000D01*
X177727142Y-67839047D01*
X177346190Y-68200952D02*
X177574761Y-68200952D01*
X177460476Y-68200952D02*
X177460476Y-67800952D01*
X177498571Y-67858095D01*
X177536666Y-67896190D01*
X177574761Y-67915238D01*
X177155714Y-68200952D02*
X177079523Y-68200952D01*
X177041428Y-68181904D01*
X177022380Y-68162857D01*
X176984285Y-68105714D01*
X176965238Y-68029523D01*
X176965238Y-67877142D01*
X176984285Y-67839047D01*
X177003333Y-67820000D01*
X177041428Y-67800952D01*
X177117619Y-67800952D01*
X177155714Y-67820000D01*
X177174761Y-67839047D01*
X177193809Y-67877142D01*
X177193809Y-67972380D01*
X177174761Y-68010476D01*
X177155714Y-68029523D01*
X177117619Y-68048571D01*
X177041428Y-68048571D01*
X177003333Y-68029523D01*
X176984285Y-68010476D01*
X176965238Y-67972380D01*
D11*
X182722857Y-64657619D02*
X182675238Y-64610000D01*
X182580000Y-64562380D01*
X182341904Y-64562380D01*
X182246666Y-64610000D01*
X182199047Y-64657619D01*
X182151428Y-64752857D01*
X182151428Y-64848095D01*
X182199047Y-64990952D01*
X182770476Y-65562380D01*
X182151428Y-65562380D01*
X181770476Y-64657619D02*
X181722857Y-64610000D01*
X181627619Y-64562380D01*
X181389523Y-64562380D01*
X181294285Y-64610000D01*
X181246666Y-64657619D01*
X181199047Y-64752857D01*
X181199047Y-64848095D01*
X181246666Y-64990952D01*
X181818095Y-65562380D01*
X181199047Y-65562380D01*
X180341904Y-64895714D02*
X180341904Y-65562380D01*
X180770476Y-64895714D02*
X180770476Y-65419523D01*
X180722857Y-65514761D01*
X180627619Y-65562380D01*
X180484761Y-65562380D01*
X180389523Y-65514761D01*
X180341904Y-65467142D01*
X179532380Y-65038571D02*
X179865714Y-65038571D01*
X179865714Y-65562380D02*
X179865714Y-64562380D01*
X179389523Y-64562380D01*
D14*
X174647142Y-65142857D02*
X174666190Y-65161904D01*
X174723333Y-65180952D01*
X174761428Y-65180952D01*
X174818571Y-65161904D01*
X174856666Y-65123809D01*
X174875714Y-65085714D01*
X174894761Y-65009523D01*
X174894761Y-64952380D01*
X174875714Y-64876190D01*
X174856666Y-64838095D01*
X174818571Y-64800000D01*
X174761428Y-64780952D01*
X174723333Y-64780952D01*
X174666190Y-64800000D01*
X174647142Y-64819047D01*
X174494761Y-64819047D02*
X174475714Y-64800000D01*
X174437619Y-64780952D01*
X174342380Y-64780952D01*
X174304285Y-64800000D01*
X174285238Y-64819047D01*
X174266190Y-64857142D01*
X174266190Y-64895238D01*
X174285238Y-64952380D01*
X174513809Y-65180952D01*
X174266190Y-65180952D01*
X174018571Y-64780952D02*
X173980476Y-64780952D01*
X173942380Y-64800000D01*
X173923333Y-64819047D01*
X173904285Y-64857142D01*
X173885238Y-64933333D01*
X173885238Y-65028571D01*
X173904285Y-65104761D01*
X173923333Y-65142857D01*
X173942380Y-65161904D01*
X173980476Y-65180952D01*
X174018571Y-65180952D01*
X174056666Y-65161904D01*
X174075714Y-65142857D01*
X174094761Y-65104761D01*
X174113809Y-65028571D01*
X174113809Y-64933333D01*
X174094761Y-64857142D01*
X174075714Y-64819047D01*
X174056666Y-64800000D01*
X174018571Y-64780952D01*
D11*
X182782857Y-65982380D02*
X182687619Y-65982380D01*
X182592380Y-66030000D01*
X182544761Y-66077619D01*
X182497142Y-66172857D01*
X182449523Y-66363333D01*
X182449523Y-66601428D01*
X182497142Y-66791904D01*
X182544761Y-66887142D01*
X182592380Y-66934761D01*
X182687619Y-66982380D01*
X182782857Y-66982380D01*
X182878095Y-66934761D01*
X182925714Y-66887142D01*
X182973333Y-66791904D01*
X183020952Y-66601428D01*
X183020952Y-66363333D01*
X182973333Y-66172857D01*
X182925714Y-66077619D01*
X182878095Y-66030000D01*
X182782857Y-65982380D01*
X182020952Y-66887142D02*
X181973333Y-66934761D01*
X182020952Y-66982380D01*
X182068571Y-66934761D01*
X182020952Y-66887142D01*
X182020952Y-66982380D01*
X181020952Y-66982380D02*
X181592380Y-66982380D01*
X181306666Y-66982380D02*
X181306666Y-65982380D01*
X181401904Y-66125238D01*
X181497142Y-66220476D01*
X181592380Y-66268095D01*
X180163809Y-66315714D02*
X180163809Y-66982380D01*
X180592380Y-66315714D02*
X180592380Y-66839523D01*
X180544761Y-66934761D01*
X180449523Y-66982380D01*
X180306666Y-66982380D01*
X180211428Y-66934761D01*
X180163809Y-66887142D01*
X179354285Y-66458571D02*
X179687619Y-66458571D01*
X179687619Y-66982380D02*
X179687619Y-65982380D01*
X179211428Y-65982380D01*
D14*
X174647142Y-66642857D02*
X174666190Y-66661904D01*
X174723333Y-66680952D01*
X174761428Y-66680952D01*
X174818571Y-66661904D01*
X174856666Y-66623809D01*
X174875714Y-66585714D01*
X174894761Y-66509523D01*
X174894761Y-66452380D01*
X174875714Y-66376190D01*
X174856666Y-66338095D01*
X174818571Y-66300000D01*
X174761428Y-66280952D01*
X174723333Y-66280952D01*
X174666190Y-66300000D01*
X174647142Y-66319047D01*
X174494761Y-66319047D02*
X174475714Y-66300000D01*
X174437619Y-66280952D01*
X174342380Y-66280952D01*
X174304285Y-66300000D01*
X174285238Y-66319047D01*
X174266190Y-66357142D01*
X174266190Y-66395238D01*
X174285238Y-66452380D01*
X174513809Y-66680952D01*
X174266190Y-66680952D01*
X173885238Y-66680952D02*
X174113809Y-66680952D01*
X173999523Y-66680952D02*
X173999523Y-66280952D01*
X174037619Y-66338095D01*
X174075714Y-66376190D01*
X174113809Y-66395238D01*
D11*
X183849047Y-67492380D02*
X183753809Y-67492380D01*
X183658571Y-67540000D01*
X183610952Y-67587619D01*
X183563333Y-67682857D01*
X183515714Y-67873333D01*
X183515714Y-68111428D01*
X183563333Y-68301904D01*
X183610952Y-68397142D01*
X183658571Y-68444761D01*
X183753809Y-68492380D01*
X183849047Y-68492380D01*
X183944285Y-68444761D01*
X183991904Y-68397142D01*
X184039523Y-68301904D01*
X184087142Y-68111428D01*
X184087142Y-67873333D01*
X184039523Y-67682857D01*
X183991904Y-67587619D01*
X183944285Y-67540000D01*
X183849047Y-67492380D01*
X183087142Y-68397142D02*
X183039523Y-68444761D01*
X183087142Y-68492380D01*
X183134761Y-68444761D01*
X183087142Y-68397142D01*
X183087142Y-68492380D01*
X182182380Y-67825714D02*
X182182380Y-68492380D01*
X182420476Y-67444761D02*
X182658571Y-68159047D01*
X182039523Y-68159047D01*
X181753809Y-67492380D02*
X181087142Y-67492380D01*
X181515714Y-68492380D01*
X180277619Y-67825714D02*
X180277619Y-68492380D01*
X180706190Y-67825714D02*
X180706190Y-68349523D01*
X180658571Y-68444761D01*
X180563333Y-68492380D01*
X180420476Y-68492380D01*
X180325238Y-68444761D01*
X180277619Y-68397142D01*
X179468095Y-67968571D02*
X179801428Y-67968571D01*
X179801428Y-68492380D02*
X179801428Y-67492380D01*
X179325238Y-67492380D01*
D14*
X174647142Y-68162857D02*
X174666190Y-68181904D01*
X174723333Y-68200952D01*
X174761428Y-68200952D01*
X174818571Y-68181904D01*
X174856666Y-68143809D01*
X174875714Y-68105714D01*
X174894761Y-68029523D01*
X174894761Y-67972380D01*
X174875714Y-67896190D01*
X174856666Y-67858095D01*
X174818571Y-67820000D01*
X174761428Y-67800952D01*
X174723333Y-67800952D01*
X174666190Y-67820000D01*
X174647142Y-67839047D01*
X174494761Y-67839047D02*
X174475714Y-67820000D01*
X174437619Y-67800952D01*
X174342380Y-67800952D01*
X174304285Y-67820000D01*
X174285238Y-67839047D01*
X174266190Y-67877142D01*
X174266190Y-67915238D01*
X174285238Y-67972380D01*
X174513809Y-68200952D01*
X174266190Y-68200952D01*
X174113809Y-67839047D02*
X174094761Y-67820000D01*
X174056666Y-67800952D01*
X173961428Y-67800952D01*
X173923333Y-67820000D01*
X173904285Y-67839047D01*
X173885238Y-67877142D01*
X173885238Y-67915238D01*
X173904285Y-67972380D01*
X174132857Y-68200952D01*
X173885238Y-68200952D01*
D11*
X183869047Y-72032380D02*
X183773809Y-72032380D01*
X183678571Y-72080000D01*
X183630952Y-72127619D01*
X183583333Y-72222857D01*
X183535714Y-72413333D01*
X183535714Y-72651428D01*
X183583333Y-72841904D01*
X183630952Y-72937142D01*
X183678571Y-72984761D01*
X183773809Y-73032380D01*
X183869047Y-73032380D01*
X183964285Y-72984761D01*
X184011904Y-72937142D01*
X184059523Y-72841904D01*
X184107142Y-72651428D01*
X184107142Y-72413333D01*
X184059523Y-72222857D01*
X184011904Y-72127619D01*
X183964285Y-72080000D01*
X183869047Y-72032380D01*
X183107142Y-72937142D02*
X183059523Y-72984761D01*
X183107142Y-73032380D01*
X183154761Y-72984761D01*
X183107142Y-72937142D01*
X183107142Y-73032380D01*
X182202380Y-72365714D02*
X182202380Y-73032380D01*
X182440476Y-71984761D02*
X182678571Y-72699047D01*
X182059523Y-72699047D01*
X181773809Y-72032380D02*
X181107142Y-72032380D01*
X181535714Y-73032380D01*
X180297619Y-72365714D02*
X180297619Y-73032380D01*
X180726190Y-72365714D02*
X180726190Y-72889523D01*
X180678571Y-72984761D01*
X180583333Y-73032380D01*
X180440476Y-73032380D01*
X180345238Y-72984761D01*
X180297619Y-72937142D01*
X179488095Y-72508571D02*
X179821428Y-72508571D01*
X179821428Y-73032380D02*
X179821428Y-72032380D01*
X179345238Y-72032380D01*
D14*
X177717142Y-72692857D02*
X177736190Y-72711904D01*
X177793333Y-72730952D01*
X177831428Y-72730952D01*
X177888571Y-72711904D01*
X177926666Y-72673809D01*
X177945714Y-72635714D01*
X177964761Y-72559523D01*
X177964761Y-72502380D01*
X177945714Y-72426190D01*
X177926666Y-72388095D01*
X177888571Y-72350000D01*
X177831428Y-72330952D01*
X177793333Y-72330952D01*
X177736190Y-72350000D01*
X177717142Y-72369047D01*
X177564761Y-72369047D02*
X177545714Y-72350000D01*
X177507619Y-72330952D01*
X177412380Y-72330952D01*
X177374285Y-72350000D01*
X177355238Y-72369047D01*
X177336190Y-72407142D01*
X177336190Y-72445238D01*
X177355238Y-72502380D01*
X177583809Y-72730952D01*
X177336190Y-72730952D01*
X177202857Y-72330952D02*
X176955238Y-72330952D01*
X177088571Y-72483333D01*
X177031428Y-72483333D01*
X176993333Y-72502380D01*
X176974285Y-72521428D01*
X176955238Y-72559523D01*
X176955238Y-72654761D01*
X176974285Y-72692857D01*
X176993333Y-72711904D01*
X177031428Y-72730952D01*
X177145714Y-72730952D01*
X177183809Y-72711904D01*
X177202857Y-72692857D01*
D11*
X162652380Y-61600476D02*
X161652380Y-61600476D01*
X161652380Y-61838571D01*
X161700000Y-61981428D01*
X161795238Y-62076666D01*
X161890476Y-62124285D01*
X162080952Y-62171904D01*
X162223809Y-62171904D01*
X162414285Y-62124285D01*
X162509523Y-62076666D01*
X162604761Y-61981428D01*
X162652380Y-61838571D01*
X162652380Y-61600476D01*
X162747619Y-62362380D02*
X162747619Y-63124285D01*
X162604761Y-63314761D02*
X162652380Y-63457619D01*
X162652380Y-63695714D01*
X162604761Y-63790952D01*
X162557142Y-63838571D01*
X162461904Y-63886190D01*
X162366666Y-63886190D01*
X162271428Y-63838571D01*
X162223809Y-63790952D01*
X162176190Y-63695714D01*
X162128571Y-63505238D01*
X162080952Y-63410000D01*
X162033333Y-63362380D01*
X161938095Y-63314761D01*
X161842857Y-63314761D01*
X161747619Y-63362380D01*
X161700000Y-63410000D01*
X161652380Y-63505238D01*
X161652380Y-63743333D01*
X161700000Y-63886190D01*
X162604761Y-64743333D02*
X162652380Y-64648095D01*
X162652380Y-64457619D01*
X162604761Y-64362380D01*
X162557142Y-64314761D01*
X162461904Y-64267142D01*
X162176190Y-64267142D01*
X162080952Y-64314761D01*
X162033333Y-64362380D01*
X161985714Y-64457619D01*
X161985714Y-64648095D01*
X162033333Y-64743333D01*
X162652380Y-65171904D02*
X161652380Y-65171904D01*
X162652380Y-65600476D02*
X162128571Y-65600476D01*
X162033333Y-65552857D01*
X161985714Y-65457619D01*
X161985714Y-65314761D01*
X162033333Y-65219523D01*
X162080952Y-65171904D01*
X162652380Y-66219523D02*
X162604761Y-66124285D01*
X162557142Y-66076666D01*
X162461904Y-66029047D01*
X162176190Y-66029047D01*
X162080952Y-66076666D01*
X162033333Y-66124285D01*
X161985714Y-66219523D01*
X161985714Y-66362380D01*
X162033333Y-66457619D01*
X162080952Y-66505238D01*
X162176190Y-66552857D01*
X162461904Y-66552857D01*
X162557142Y-66505238D01*
X162604761Y-66457619D01*
X162652380Y-66362380D01*
X162652380Y-66219523D01*
X161985714Y-66838571D02*
X161985714Y-67219523D01*
X161652380Y-66981428D02*
X162509523Y-66981428D01*
X162604761Y-67029047D01*
X162652380Y-67124285D01*
X162652380Y-67219523D01*
X161985714Y-67410000D02*
X161985714Y-67790952D01*
X161652380Y-67552857D02*
X162509523Y-67552857D01*
X162604761Y-67600476D01*
X162652380Y-67695714D01*
X162652380Y-67790952D01*
X162652380Y-68124285D02*
X161652380Y-68124285D01*
X162271428Y-68219523D02*
X162652380Y-68505238D01*
X161985714Y-68505238D02*
X162366666Y-68124285D01*
X161985714Y-68838571D02*
X162652380Y-69076666D01*
X161985714Y-69314761D02*
X162652380Y-69076666D01*
X162890476Y-68981428D01*
X162938095Y-68933809D01*
X162985714Y-68838571D01*
D14*
X162320952Y-59504761D02*
X161920952Y-59504761D01*
X161920952Y-59600000D01*
X161940000Y-59657142D01*
X161978095Y-59695238D01*
X162016190Y-59714285D01*
X162092380Y-59733333D01*
X162149523Y-59733333D01*
X162225714Y-59714285D01*
X162263809Y-59695238D01*
X162301904Y-59657142D01*
X162320952Y-59600000D01*
X162320952Y-59504761D01*
X162320952Y-60114285D02*
X162320952Y-59885714D01*
X162320952Y-60000000D02*
X161920952Y-60000000D01*
X161978095Y-59961904D01*
X162016190Y-59923809D01*
X162035238Y-59885714D01*
D11*
X191872857Y-120922380D02*
X192206190Y-120446190D01*
X192444285Y-120922380D02*
X192444285Y-119922380D01*
X192063333Y-119922380D01*
X191968095Y-119970000D01*
X191920476Y-120017619D01*
X191872857Y-120112857D01*
X191872857Y-120255714D01*
X191920476Y-120350952D01*
X191968095Y-120398571D01*
X192063333Y-120446190D01*
X192444285Y-120446190D01*
X191444285Y-120398571D02*
X191110952Y-120398571D01*
X190968095Y-120922380D02*
X191444285Y-120922380D01*
X191444285Y-119922380D01*
X190968095Y-119922380D01*
X190539523Y-120922380D02*
X190539523Y-119922380D01*
X190301428Y-119922380D01*
X190158571Y-119970000D01*
X190063333Y-120065238D01*
X190015714Y-120160476D01*
X189968095Y-120350952D01*
X189968095Y-120493809D01*
X190015714Y-120684285D01*
X190063333Y-120779523D01*
X190158571Y-120874761D01*
X190301428Y-120922380D01*
X190539523Y-120922380D01*
D14*
X193770952Y-120074761D02*
X193370952Y-120074761D01*
X193370952Y-120170000D01*
X193390000Y-120227142D01*
X193428095Y-120265238D01*
X193466190Y-120284285D01*
X193542380Y-120303333D01*
X193599523Y-120303333D01*
X193675714Y-120284285D01*
X193713809Y-120265238D01*
X193751904Y-120227142D01*
X193770952Y-120170000D01*
X193770952Y-120074761D01*
X193370952Y-120436666D02*
X193370952Y-120684285D01*
X193523333Y-120550952D01*
X193523333Y-120608095D01*
X193542380Y-120646190D01*
X193561428Y-120665238D01*
X193599523Y-120684285D01*
X193694761Y-120684285D01*
X193732857Y-120665238D01*
X193751904Y-120646190D01*
X193770952Y-120608095D01*
X193770952Y-120493809D01*
X193751904Y-120455714D01*
X193732857Y-120436666D01*
D11*
X168454761Y-42244761D02*
X168311904Y-42292380D01*
X168073809Y-42292380D01*
X167978571Y-42244761D01*
X167930952Y-42197142D01*
X167883333Y-42101904D01*
X167883333Y-42006666D01*
X167930952Y-41911428D01*
X167978571Y-41863809D01*
X168073809Y-41816190D01*
X168264285Y-41768571D01*
X168359523Y-41720952D01*
X168407142Y-41673333D01*
X168454761Y-41578095D01*
X168454761Y-41482857D01*
X168407142Y-41387619D01*
X168359523Y-41340000D01*
X168264285Y-41292380D01*
X168026190Y-41292380D01*
X167883333Y-41340000D01*
X167454761Y-42292380D02*
X167454761Y-41292380D01*
X167073809Y-41292380D01*
X166978571Y-41340000D01*
X166930952Y-41387619D01*
X166883333Y-41482857D01*
X166883333Y-41625714D01*
X166930952Y-41720952D01*
X166978571Y-41768571D01*
X167073809Y-41816190D01*
X167454761Y-41816190D01*
X166454761Y-42292380D02*
X166454761Y-41292380D01*
X165883333Y-42292380D02*
X166311904Y-41720952D01*
X165883333Y-41292380D02*
X166454761Y-41863809D01*
X164883333Y-42292380D02*
X165216666Y-41816190D01*
X165454761Y-42292380D02*
X165454761Y-41292380D01*
X165073809Y-41292380D01*
X164978571Y-41340000D01*
X164930952Y-41387619D01*
X164883333Y-41482857D01*
X164883333Y-41625714D01*
X164930952Y-41720952D01*
X164978571Y-41768571D01*
X165073809Y-41816190D01*
X165454761Y-41816190D01*
X164454761Y-41911428D02*
X163692857Y-41911428D01*
X164073809Y-42292380D02*
X164073809Y-41530476D01*
X168073333Y-39852380D02*
X168073333Y-40566666D01*
X168120952Y-40709523D01*
X168216190Y-40804761D01*
X168359047Y-40852380D01*
X168454285Y-40852380D01*
X167168571Y-40185714D02*
X167168571Y-40852380D01*
X167406666Y-39804761D02*
X167644761Y-40519047D01*
X167025714Y-40519047D01*
X168414761Y-37664761D02*
X168271904Y-37712380D01*
X168033809Y-37712380D01*
X167938571Y-37664761D01*
X167890952Y-37617142D01*
X167843333Y-37521904D01*
X167843333Y-37426666D01*
X167890952Y-37331428D01*
X167938571Y-37283809D01*
X168033809Y-37236190D01*
X168224285Y-37188571D01*
X168319523Y-37140952D01*
X168367142Y-37093333D01*
X168414761Y-36998095D01*
X168414761Y-36902857D01*
X168367142Y-36807619D01*
X168319523Y-36760000D01*
X168224285Y-36712380D01*
X167986190Y-36712380D01*
X167843333Y-36760000D01*
X167414761Y-37712380D02*
X167414761Y-36712380D01*
X167033809Y-36712380D01*
X166938571Y-36760000D01*
X166890952Y-36807619D01*
X166843333Y-36902857D01*
X166843333Y-37045714D01*
X166890952Y-37140952D01*
X166938571Y-37188571D01*
X167033809Y-37236190D01*
X167414761Y-37236190D01*
X166414761Y-37712380D02*
X166414761Y-36712380D01*
X165843333Y-37712380D02*
X166271904Y-37140952D01*
X165843333Y-36712380D02*
X166414761Y-37283809D01*
X164843333Y-37712380D02*
X165176666Y-37236190D01*
X165414761Y-37712380D02*
X165414761Y-36712380D01*
X165033809Y-36712380D01*
X164938571Y-36760000D01*
X164890952Y-36807619D01*
X164843333Y-36902857D01*
X164843333Y-37045714D01*
X164890952Y-37140952D01*
X164938571Y-37188571D01*
X165033809Y-37236190D01*
X165414761Y-37236190D01*
X164414761Y-37331428D02*
X163652857Y-37331428D01*
X168173333Y-38212380D02*
X168173333Y-38926666D01*
X168220952Y-39069523D01*
X168316190Y-39164761D01*
X168459047Y-39212380D01*
X168554285Y-39212380D01*
X167220952Y-38212380D02*
X167697142Y-38212380D01*
X167744761Y-38688571D01*
X167697142Y-38640952D01*
X167601904Y-38593333D01*
X167363809Y-38593333D01*
X167268571Y-38640952D01*
X167220952Y-38688571D01*
X167173333Y-38783809D01*
X167173333Y-39021904D01*
X167220952Y-39117142D01*
X167268571Y-39164761D01*
X167363809Y-39212380D01*
X167601904Y-39212380D01*
X167697142Y-39164761D01*
X167744761Y-39117142D01*
X172566190Y-112162380D02*
X171947142Y-112162380D01*
X172280476Y-112543333D01*
X172137619Y-112543333D01*
X172042380Y-112590952D01*
X171994761Y-112638571D01*
X171947142Y-112733809D01*
X171947142Y-112971904D01*
X171994761Y-113067142D01*
X172042380Y-113114761D01*
X172137619Y-113162380D01*
X172423333Y-113162380D01*
X172518571Y-113114761D01*
X172566190Y-113067142D01*
X171518571Y-113067142D02*
X171470952Y-113114761D01*
X171518571Y-113162380D01*
X171566190Y-113114761D01*
X171518571Y-113067142D01*
X171518571Y-113162380D01*
X171137619Y-112162380D02*
X170518571Y-112162380D01*
X170851904Y-112543333D01*
X170709047Y-112543333D01*
X170613809Y-112590952D01*
X170566190Y-112638571D01*
X170518571Y-112733809D01*
X170518571Y-112971904D01*
X170566190Y-113067142D01*
X170613809Y-113114761D01*
X170709047Y-113162380D01*
X170994761Y-113162380D01*
X171090000Y-113114761D01*
X171137619Y-113067142D01*
X170232857Y-112162380D02*
X169899523Y-113162380D01*
X169566190Y-112162380D01*
X170833333Y-109832380D02*
X170833333Y-110546666D01*
X170880952Y-110689523D01*
X170976190Y-110784761D01*
X171119047Y-110832380D01*
X171214285Y-110832380D01*
X169928571Y-109832380D02*
X170119047Y-109832380D01*
X170214285Y-109880000D01*
X170261904Y-109927619D01*
X170357142Y-110070476D01*
X170404761Y-110260952D01*
X170404761Y-110641904D01*
X170357142Y-110737142D01*
X170309523Y-110784761D01*
X170214285Y-110832380D01*
X170023809Y-110832380D01*
X169928571Y-110784761D01*
X169880952Y-110737142D01*
X169833333Y-110641904D01*
X169833333Y-110403809D01*
X169880952Y-110308571D01*
X169928571Y-110260952D01*
X170023809Y-110213333D01*
X170214285Y-110213333D01*
X170309523Y-110260952D01*
X170357142Y-110308571D01*
X170404761Y-110403809D01*
X168211904Y-112310000D02*
X168307142Y-112262380D01*
X168450000Y-112262380D01*
X168592857Y-112310000D01*
X168688095Y-112405238D01*
X168735714Y-112500476D01*
X168783333Y-112690952D01*
X168783333Y-112833809D01*
X168735714Y-113024285D01*
X168688095Y-113119523D01*
X168592857Y-113214761D01*
X168450000Y-113262380D01*
X168354761Y-113262380D01*
X168211904Y-113214761D01*
X168164285Y-113167142D01*
X168164285Y-112833809D01*
X168354761Y-112833809D01*
X167735714Y-113262380D02*
X167735714Y-112262380D01*
X167164285Y-113262380D01*
X167164285Y-112262380D01*
X166688095Y-113262380D02*
X166688095Y-112262380D01*
X166450000Y-112262380D01*
X166307142Y-112310000D01*
X166211904Y-112405238D01*
X166164285Y-112500476D01*
X166116666Y-112690952D01*
X166116666Y-112833809D01*
X166164285Y-113024285D01*
X166211904Y-113119523D01*
X166307142Y-113214761D01*
X166450000Y-113262380D01*
X166688095Y-113262380D01*
X168223333Y-109932380D02*
X168223333Y-110646666D01*
X168270952Y-110789523D01*
X168366190Y-110884761D01*
X168509047Y-110932380D01*
X168604285Y-110932380D01*
X167842380Y-109932380D02*
X167175714Y-109932380D01*
X167604285Y-110932380D01*
X199983333Y-76742380D02*
X199983333Y-77551904D01*
X199935714Y-77647142D01*
X199888095Y-77694761D01*
X199792857Y-77742380D01*
X199602380Y-77742380D01*
X199507142Y-77694761D01*
X199459523Y-77647142D01*
X199411904Y-77551904D01*
X199411904Y-76742380D01*
X198983333Y-77456666D02*
X198507142Y-77456666D01*
X199078571Y-77742380D02*
X198745238Y-76742380D01*
X198411904Y-77742380D01*
X197507142Y-77742380D02*
X197840476Y-77266190D01*
X198078571Y-77742380D02*
X198078571Y-76742380D01*
X197697619Y-76742380D01*
X197602380Y-76790000D01*
X197554761Y-76837619D01*
X197507142Y-76932857D01*
X197507142Y-77075714D01*
X197554761Y-77170952D01*
X197602380Y-77218571D01*
X197697619Y-77266190D01*
X198078571Y-77266190D01*
X197221428Y-76742380D02*
X196650000Y-76742380D01*
X196935714Y-77742380D02*
X196935714Y-76742380D01*
X196554761Y-77837619D02*
X195792857Y-77837619D01*
X195697619Y-76742380D02*
X195126190Y-76742380D01*
X195411904Y-77742380D02*
X195411904Y-76742380D01*
X194888095Y-76742380D02*
X194221428Y-77742380D01*
X194221428Y-76742380D02*
X194888095Y-77742380D01*
X198963333Y-74392380D02*
X198963333Y-75106666D01*
X199010952Y-75249523D01*
X199106190Y-75344761D01*
X199249047Y-75392380D01*
X199344285Y-75392380D01*
X198344285Y-74820952D02*
X198439523Y-74773333D01*
X198487142Y-74725714D01*
X198534761Y-74630476D01*
X198534761Y-74582857D01*
X198487142Y-74487619D01*
X198439523Y-74440000D01*
X198344285Y-74392380D01*
X198153809Y-74392380D01*
X198058571Y-74440000D01*
X198010952Y-74487619D01*
X197963333Y-74582857D01*
X197963333Y-74630476D01*
X198010952Y-74725714D01*
X198058571Y-74773333D01*
X198153809Y-74820952D01*
X198344285Y-74820952D01*
X198439523Y-74868571D01*
X198487142Y-74916190D01*
X198534761Y-75011428D01*
X198534761Y-75201904D01*
X198487142Y-75297142D01*
X198439523Y-75344761D01*
X198344285Y-75392380D01*
X198153809Y-75392380D01*
X198058571Y-75344761D01*
X198010952Y-75297142D01*
X197963333Y-75201904D01*
X197963333Y-75011428D01*
X198010952Y-74916190D01*
X198058571Y-74868571D01*
X198153809Y-74820952D01*
X207062380Y-76782380D02*
X207062380Y-77591904D01*
X207014761Y-77687142D01*
X206967142Y-77734761D01*
X206871904Y-77782380D01*
X206681428Y-77782380D01*
X206586190Y-77734761D01*
X206538571Y-77687142D01*
X206490952Y-77591904D01*
X206490952Y-76782380D01*
X206062380Y-77496666D02*
X205586190Y-77496666D01*
X206157619Y-77782380D02*
X205824285Y-76782380D01*
X205490952Y-77782380D01*
X204586190Y-77782380D02*
X204919523Y-77306190D01*
X205157619Y-77782380D02*
X205157619Y-76782380D01*
X204776666Y-76782380D01*
X204681428Y-76830000D01*
X204633809Y-76877619D01*
X204586190Y-76972857D01*
X204586190Y-77115714D01*
X204633809Y-77210952D01*
X204681428Y-77258571D01*
X204776666Y-77306190D01*
X205157619Y-77306190D01*
X204300476Y-76782380D02*
X203729047Y-76782380D01*
X204014761Y-77782380D02*
X204014761Y-76782380D01*
X203633809Y-77877619D02*
X202871904Y-77877619D01*
X202062380Y-77782380D02*
X202395714Y-77306190D01*
X202633809Y-77782380D02*
X202633809Y-76782380D01*
X202252857Y-76782380D01*
X202157619Y-76830000D01*
X202110000Y-76877619D01*
X202062380Y-76972857D01*
X202062380Y-77115714D01*
X202110000Y-77210952D01*
X202157619Y-77258571D01*
X202252857Y-77306190D01*
X202633809Y-77306190D01*
X201729047Y-76782380D02*
X201062380Y-77782380D01*
X201062380Y-76782380D02*
X201729047Y-77782380D01*
X202323333Y-74422380D02*
X202323333Y-75136666D01*
X202370952Y-75279523D01*
X202466190Y-75374761D01*
X202609047Y-75422380D01*
X202704285Y-75422380D01*
X201799523Y-75422380D02*
X201609047Y-75422380D01*
X201513809Y-75374761D01*
X201466190Y-75327142D01*
X201370952Y-75184285D01*
X201323333Y-74993809D01*
X201323333Y-74612857D01*
X201370952Y-74517619D01*
X201418571Y-74470000D01*
X201513809Y-74422380D01*
X201704285Y-74422380D01*
X201799523Y-74470000D01*
X201847142Y-74517619D01*
X201894761Y-74612857D01*
X201894761Y-74850952D01*
X201847142Y-74946190D01*
X201799523Y-74993809D01*
X201704285Y-75041428D01*
X201513809Y-75041428D01*
X201418571Y-74993809D01*
X201370952Y-74946190D01*
X201323333Y-74850952D01*
X172181904Y-87021427D02*
X172039047Y-87069046D01*
X171800952Y-87069046D01*
X171705714Y-87021427D01*
X171658095Y-86973808D01*
X171610476Y-86878570D01*
X171610476Y-86783332D01*
X171658095Y-86688094D01*
X171705714Y-86640475D01*
X171800952Y-86592856D01*
X171991428Y-86545237D01*
X172086666Y-86497618D01*
X172134285Y-86449999D01*
X172181904Y-86354761D01*
X172181904Y-86259523D01*
X172134285Y-86164285D01*
X172086666Y-86116666D01*
X171991428Y-86069046D01*
X171753333Y-86069046D01*
X171610476Y-86116666D01*
X170610476Y-86973808D02*
X170658095Y-87021427D01*
X170800952Y-87069046D01*
X170896190Y-87069046D01*
X171039047Y-87021427D01*
X171134285Y-86926189D01*
X171181904Y-86830951D01*
X171229523Y-86640475D01*
X171229523Y-86497618D01*
X171181904Y-86307142D01*
X171134285Y-86211904D01*
X171039047Y-86116666D01*
X170896190Y-86069046D01*
X170800952Y-86069046D01*
X170658095Y-86116666D01*
X170610476Y-86164285D01*
X170181904Y-87069046D02*
X170181904Y-86069046D01*
X169610476Y-87069046D02*
X170039047Y-86497618D01*
X169610476Y-86069046D02*
X170181904Y-86640475D01*
X168658095Y-87069046D02*
X169229523Y-87069046D01*
X168943809Y-87069046D02*
X168943809Y-86069046D01*
X169039047Y-86211904D01*
X169134285Y-86307142D01*
X169229523Y-86354761D01*
X171229523Y-89469046D02*
X171229523Y-90183332D01*
X171277142Y-90326189D01*
X171372380Y-90421427D01*
X171515238Y-90469046D01*
X171610476Y-90469046D01*
X170229523Y-90469046D02*
X170800952Y-90469046D01*
X170515238Y-90469046D02*
X170515238Y-89469046D01*
X170610476Y-89611904D01*
X170705714Y-89707142D01*
X170800952Y-89754761D01*
X169610476Y-89469046D02*
X169515238Y-89469046D01*
X169420000Y-89516666D01*
X169372380Y-89564285D01*
X169324761Y-89659523D01*
X169277142Y-89849999D01*
X169277142Y-90088094D01*
X169324761Y-90278570D01*
X169372380Y-90373808D01*
X169420000Y-90421427D01*
X169515238Y-90469046D01*
X169610476Y-90469046D01*
X169705714Y-90421427D01*
X169753333Y-90373808D01*
X169800952Y-90278570D01*
X169848571Y-90088094D01*
X169848571Y-89849999D01*
X169800952Y-89659523D01*
X169753333Y-89564285D01*
X169705714Y-89516666D01*
X169610476Y-89469046D01*
X172467619Y-89755712D02*
X172467619Y-88755712D01*
X172134285Y-89469998D01*
X171800952Y-88755712D01*
X171800952Y-89755712D01*
X171134285Y-88755712D02*
X170943809Y-88755712D01*
X170848571Y-88803332D01*
X170753333Y-88898570D01*
X170705714Y-89089046D01*
X170705714Y-89422379D01*
X170753333Y-89612855D01*
X170848571Y-89708093D01*
X170943809Y-89755712D01*
X171134285Y-89755712D01*
X171229523Y-89708093D01*
X171324761Y-89612855D01*
X171372380Y-89422379D01*
X171372380Y-89089046D01*
X171324761Y-88898570D01*
X171229523Y-88803332D01*
X171134285Y-88755712D01*
X170324761Y-89708093D02*
X170181904Y-89755712D01*
X169943809Y-89755712D01*
X169848571Y-89708093D01*
X169800952Y-89660474D01*
X169753333Y-89565236D01*
X169753333Y-89469998D01*
X169800952Y-89374760D01*
X169848571Y-89327141D01*
X169943809Y-89279522D01*
X170134285Y-89231903D01*
X170229523Y-89184284D01*
X170277142Y-89136665D01*
X170324761Y-89041427D01*
X170324761Y-88946189D01*
X170277142Y-88850951D01*
X170229523Y-88803332D01*
X170134285Y-88755712D01*
X169896190Y-88755712D01*
X169753333Y-88803332D01*
X169324761Y-89755712D02*
X169324761Y-88755712D01*
X168324761Y-89755712D02*
X168896190Y-89755712D01*
X168610476Y-89755712D02*
X168610476Y-88755712D01*
X168705714Y-88898570D01*
X168800952Y-88993808D01*
X168896190Y-89041427D01*
X171229523Y-92155712D02*
X171229523Y-92869998D01*
X171277142Y-93012855D01*
X171372380Y-93108093D01*
X171515238Y-93155712D01*
X171610476Y-93155712D01*
X170229523Y-93155712D02*
X170800952Y-93155712D01*
X170515238Y-93155712D02*
X170515238Y-92155712D01*
X170610476Y-92298570D01*
X170705714Y-92393808D01*
X170800952Y-92441427D01*
X169277142Y-93155712D02*
X169848571Y-93155712D01*
X169562857Y-93155712D02*
X169562857Y-92155712D01*
X169658095Y-92298570D01*
X169753333Y-92393808D01*
X169848571Y-92441427D01*
X172467619Y-92442380D02*
X172943809Y-92442380D01*
X172943809Y-91442380D01*
X171562857Y-92347142D02*
X171610476Y-92394761D01*
X171753333Y-92442380D01*
X171848571Y-92442380D01*
X171991428Y-92394761D01*
X172086666Y-92299523D01*
X172134285Y-92204285D01*
X172181904Y-92013809D01*
X172181904Y-91870952D01*
X172134285Y-91680476D01*
X172086666Y-91585238D01*
X171991428Y-91490000D01*
X171848571Y-91442380D01*
X171753333Y-91442380D01*
X171610476Y-91490000D01*
X171562857Y-91537619D01*
X171134285Y-92442380D02*
X171134285Y-91442380D01*
X170896190Y-91442380D01*
X170753333Y-91490000D01*
X170658095Y-91585238D01*
X170610476Y-91680476D01*
X170562857Y-91870952D01*
X170562857Y-92013809D01*
X170610476Y-92204285D01*
X170658095Y-92299523D01*
X170753333Y-92394761D01*
X170896190Y-92442380D01*
X171134285Y-92442380D01*
X170372380Y-92537619D02*
X169610476Y-92537619D01*
X168800952Y-92347142D02*
X168848571Y-92394761D01*
X168991428Y-92442380D01*
X169086666Y-92442380D01*
X169229523Y-92394761D01*
X169324761Y-92299523D01*
X169372380Y-92204285D01*
X169420000Y-92013809D01*
X169420000Y-91870952D01*
X169372380Y-91680476D01*
X169324761Y-91585238D01*
X169229523Y-91490000D01*
X169086666Y-91442380D01*
X168991428Y-91442380D01*
X168848571Y-91490000D01*
X168800952Y-91537619D01*
X168420000Y-92394761D02*
X168277142Y-92442380D01*
X168039047Y-92442380D01*
X167943809Y-92394761D01*
X167896190Y-92347142D01*
X167848571Y-92251904D01*
X167848571Y-92156666D01*
X167896190Y-92061428D01*
X167943809Y-92013809D01*
X168039047Y-91966190D01*
X168229523Y-91918571D01*
X168324761Y-91870952D01*
X168372380Y-91823333D01*
X168420000Y-91728095D01*
X168420000Y-91632857D01*
X168372380Y-91537619D01*
X168324761Y-91490000D01*
X168229523Y-91442380D01*
X167991428Y-91442380D01*
X167848571Y-91490000D01*
X171229523Y-94842380D02*
X171229523Y-95556666D01*
X171277142Y-95699523D01*
X171372380Y-95794761D01*
X171515238Y-95842380D01*
X171610476Y-95842380D01*
X170229523Y-95842380D02*
X170800952Y-95842380D01*
X170515238Y-95842380D02*
X170515238Y-94842380D01*
X170610476Y-94985238D01*
X170705714Y-95080476D01*
X170800952Y-95128095D01*
X169848571Y-94937619D02*
X169800952Y-94890000D01*
X169705714Y-94842380D01*
X169467619Y-94842380D01*
X169372380Y-94890000D01*
X169324761Y-94937619D01*
X169277142Y-95032857D01*
X169277142Y-95128095D01*
X169324761Y-95270952D01*
X169896190Y-95842380D01*
X169277142Y-95842380D01*
X153124866Y-43499201D02*
X153918973Y-43656438D01*
X154003148Y-43721649D01*
X154040610Y-43777610D01*
X154068824Y-43880284D01*
X154031827Y-44067132D01*
X153966616Y-44151307D01*
X153910655Y-44188770D01*
X153807981Y-44216984D01*
X153013875Y-44059747D01*
X153864875Y-44665141D02*
X153883839Y-44814527D01*
X153837593Y-45048088D01*
X153772382Y-45132263D01*
X153716421Y-45169725D01*
X153613747Y-45197939D01*
X153520323Y-45179441D01*
X153436148Y-45114230D01*
X153398685Y-45058269D01*
X153370471Y-44955595D01*
X153360756Y-44759497D01*
X153332542Y-44656824D01*
X153295080Y-44600862D01*
X153210905Y-44535651D01*
X153117480Y-44517153D01*
X153014807Y-44545367D01*
X152958845Y-44582830D01*
X152893635Y-44667005D01*
X152847388Y-44900565D01*
X152866353Y-45049951D01*
X153138774Y-45880589D02*
X153157738Y-46029974D01*
X153195201Y-46085936D01*
X153279376Y-46151146D01*
X153419513Y-46178894D01*
X153522186Y-46150681D01*
X153578148Y-46113218D01*
X153643358Y-46029043D01*
X153717352Y-45655345D01*
X152736397Y-45461111D01*
X152671652Y-45788096D01*
X152699866Y-45890770D01*
X152737329Y-45946731D01*
X152821504Y-46011942D01*
X152914928Y-46030440D01*
X153017602Y-46002227D01*
X153073563Y-45964764D01*
X153138774Y-45880589D01*
X153203519Y-45553604D01*
X153662789Y-46421238D02*
X153514801Y-47168633D01*
X152796552Y-47608938D02*
X152815516Y-47758324D01*
X152852979Y-47814285D01*
X152937154Y-47879496D01*
X153077290Y-47907244D01*
X153179964Y-47879030D01*
X153235925Y-47841567D01*
X153301136Y-47757392D01*
X153375130Y-47383695D01*
X152394175Y-47189461D01*
X152329430Y-47516446D01*
X152357644Y-47619119D01*
X152395107Y-47675081D01*
X152479282Y-47740291D01*
X152572706Y-47758790D01*
X152675380Y-47730576D01*
X152731341Y-47693113D01*
X152796552Y-47608938D01*
X152861296Y-47281953D01*
X153320566Y-48149588D02*
X153172578Y-48896982D01*
X153032908Y-49112045D02*
X152051952Y-48917810D01*
X152687890Y-49383534D01*
X151922463Y-49571780D01*
X152903418Y-49766015D01*
X152810925Y-50233136D02*
X152156955Y-50103647D01*
X151829970Y-50038902D02*
X151885932Y-50001439D01*
X151923395Y-50057400D01*
X151867433Y-50094863D01*
X151829970Y-50038902D01*
X151923395Y-50057400D01*
X152588477Y-51111418D02*
X152653688Y-51027243D01*
X152690685Y-50840394D01*
X152662472Y-50737721D01*
X152625009Y-50681759D01*
X152540834Y-50616549D01*
X152260561Y-50561053D01*
X152157887Y-50589267D01*
X152101926Y-50626730D01*
X152036715Y-50710905D01*
X151999718Y-50897753D01*
X152027932Y-51000427D01*
X152551946Y-51541076D02*
X151897976Y-51411587D01*
X152084825Y-51448584D02*
X151982151Y-51476797D01*
X151926190Y-51514260D01*
X151860979Y-51598435D01*
X151842481Y-51691860D01*
X152403958Y-52288471D02*
X152375745Y-52185797D01*
X152338282Y-52129836D01*
X152254107Y-52064625D01*
X151973834Y-52009130D01*
X151871160Y-52037343D01*
X151815199Y-52074806D01*
X151749988Y-52158981D01*
X151722240Y-52299118D01*
X151750454Y-52401791D01*
X151787917Y-52457753D01*
X151872092Y-52522963D01*
X152152365Y-52578459D01*
X152255038Y-52550245D01*
X152311000Y-52512782D01*
X152376210Y-52428607D01*
X152403958Y-52288471D01*
X155729449Y-48107144D02*
X156430131Y-48245882D01*
X156579517Y-48226918D01*
X156691440Y-48151992D01*
X156765900Y-48021105D01*
X156784398Y-47927681D01*
X156516170Y-49282333D02*
X156627161Y-48721787D01*
X156571665Y-49002060D02*
X155590710Y-48807826D01*
X155749345Y-48742149D01*
X155861268Y-48667223D01*
X155926479Y-48583048D01*
X155470470Y-49415084D02*
X155340980Y-50069054D01*
X156405179Y-49842879D01*
X158908571Y-158008571D02*
X158956190Y-158151428D01*
X159003809Y-158199047D01*
X159099047Y-158246666D01*
X159241904Y-158246666D01*
X159337142Y-158199047D01*
X159384761Y-158151428D01*
X159432380Y-158056190D01*
X159432380Y-157675238D01*
X158432380Y-157675238D01*
X158432380Y-158008571D01*
X158480000Y-158103809D01*
X158527619Y-158151428D01*
X158622857Y-158199047D01*
X158718095Y-158199047D01*
X158813333Y-158151428D01*
X158860952Y-158103809D01*
X158908571Y-158008571D01*
X158908571Y-157675238D01*
X159432380Y-159103809D02*
X158908571Y-159103809D01*
X158813333Y-159056190D01*
X158765714Y-158960952D01*
X158765714Y-158770476D01*
X158813333Y-158675238D01*
X159384761Y-159103809D02*
X159432380Y-159008571D01*
X159432380Y-158770476D01*
X159384761Y-158675238D01*
X159289523Y-158627619D01*
X159194285Y-158627619D01*
X159099047Y-158675238D01*
X159051428Y-158770476D01*
X159051428Y-159008571D01*
X159003809Y-159103809D01*
X158765714Y-159437142D02*
X158765714Y-159818095D01*
X158432380Y-159580000D02*
X159289523Y-159580000D01*
X159384761Y-159627619D01*
X159432380Y-159722857D01*
X159432380Y-159818095D01*
X158765714Y-160008571D02*
X158765714Y-160389523D01*
X158432380Y-160151428D02*
X159289523Y-160151428D01*
X159384761Y-160199047D01*
X159432380Y-160294285D01*
X159432380Y-160389523D01*
X159384761Y-161103809D02*
X159432380Y-161008571D01*
X159432380Y-160818095D01*
X159384761Y-160722857D01*
X159289523Y-160675238D01*
X158908571Y-160675238D01*
X158813333Y-160722857D01*
X158765714Y-160818095D01*
X158765714Y-161008571D01*
X158813333Y-161103809D01*
X158908571Y-161151428D01*
X159003809Y-161151428D01*
X159099047Y-160675238D01*
X159432380Y-161580000D02*
X158765714Y-161580000D01*
X158956190Y-161580000D02*
X158860952Y-161627619D01*
X158813333Y-161675238D01*
X158765714Y-161770476D01*
X158765714Y-161865714D01*
X158765714Y-162103809D02*
X159432380Y-162341904D01*
X158765714Y-162580000D02*
X159432380Y-162341904D01*
X159670476Y-162246666D01*
X159718095Y-162199047D01*
X159765714Y-162103809D01*
X159889523Y-149472380D02*
X159889523Y-150186666D01*
X159937142Y-150329523D01*
X160032380Y-150424761D01*
X160175238Y-150472380D01*
X160270476Y-150472380D01*
X158889523Y-150472380D02*
X159460952Y-150472380D01*
X159175238Y-150472380D02*
X159175238Y-149472380D01*
X159270476Y-149615238D01*
X159365714Y-149710476D01*
X159460952Y-149758095D01*
X158318095Y-149900952D02*
X158413333Y-149853333D01*
X158460952Y-149805714D01*
X158508571Y-149710476D01*
X158508571Y-149662857D01*
X158460952Y-149567619D01*
X158413333Y-149520000D01*
X158318095Y-149472380D01*
X158127619Y-149472380D01*
X158032380Y-149520000D01*
X157984761Y-149567619D01*
X157937142Y-149662857D01*
X157937142Y-149710476D01*
X157984761Y-149805714D01*
X158032380Y-149853333D01*
X158127619Y-149900952D01*
X158318095Y-149900952D01*
X158413333Y-149948571D01*
X158460952Y-149996190D01*
X158508571Y-150091428D01*
X158508571Y-150281904D01*
X158460952Y-150377142D01*
X158413333Y-150424761D01*
X158318095Y-150472380D01*
X158127619Y-150472380D01*
X158032380Y-150424761D01*
X157984761Y-150377142D01*
X157937142Y-150281904D01*
X157937142Y-150091428D01*
X157984761Y-149996190D01*
X158032380Y-149948571D01*
X158127619Y-149900952D01*
X178260000Y-111415714D02*
X178260000Y-112082380D01*
X178498095Y-111034761D02*
X178736190Y-111749047D01*
X178117142Y-111749047D01*
X177736190Y-111987142D02*
X177688571Y-112034761D01*
X177736190Y-112082380D01*
X177783809Y-112034761D01*
X177736190Y-111987142D01*
X177736190Y-112082380D01*
X177355238Y-111082380D02*
X176688571Y-111082380D01*
X177117142Y-112082380D01*
X175879047Y-111415714D02*
X175879047Y-112082380D01*
X176307619Y-111415714D02*
X176307619Y-111939523D01*
X176260000Y-112034761D01*
X176164761Y-112082380D01*
X176021904Y-112082380D01*
X175926666Y-112034761D01*
X175879047Y-111987142D01*
X175402857Y-112082380D02*
X175402857Y-111082380D01*
X175402857Y-111558571D02*
X174831428Y-111558571D01*
X174831428Y-112082380D02*
X174831428Y-111082380D01*
D15*
X175486190Y-108676666D02*
X175486190Y-108438571D01*
X174986190Y-108438571D01*
X175486190Y-109105238D02*
X175486190Y-108819523D01*
X175486190Y-108962380D02*
X174986190Y-108962380D01*
X175057619Y-108914761D01*
X175105238Y-108867142D01*
X175129047Y-108819523D01*
D11*
X160269523Y-62388571D02*
X160602857Y-62388571D01*
X160602857Y-62912380D02*
X160602857Y-61912380D01*
X160126666Y-61912380D01*
X159745714Y-62912380D02*
X159745714Y-61912380D01*
X159507619Y-61912380D01*
X159364761Y-61960000D01*
X159269523Y-62055238D01*
X159221904Y-62150476D01*
X159174285Y-62340952D01*
X159174285Y-62483809D01*
X159221904Y-62674285D01*
X159269523Y-62769523D01*
X159364761Y-62864761D01*
X159507619Y-62912380D01*
X159745714Y-62912380D01*
X158745714Y-62912380D02*
X158745714Y-61912380D01*
X158174285Y-62912380D01*
X158174285Y-61912380D01*
X157793333Y-61912380D02*
X157174285Y-61912380D01*
X157507619Y-62293333D01*
X157364761Y-62293333D01*
X157269523Y-62340952D01*
X157221904Y-62388571D01*
X157174285Y-62483809D01*
X157174285Y-62721904D01*
X157221904Y-62817142D01*
X157269523Y-62864761D01*
X157364761Y-62912380D01*
X157650476Y-62912380D01*
X157745714Y-62864761D01*
X157793333Y-62817142D01*
X156317142Y-61912380D02*
X156507619Y-61912380D01*
X156602857Y-61960000D01*
X156650476Y-62007619D01*
X156745714Y-62150476D01*
X156793333Y-62340952D01*
X156793333Y-62721904D01*
X156745714Y-62817142D01*
X156698095Y-62864761D01*
X156602857Y-62912380D01*
X156412380Y-62912380D01*
X156317142Y-62864761D01*
X156269523Y-62817142D01*
X156221904Y-62721904D01*
X156221904Y-62483809D01*
X156269523Y-62388571D01*
X156317142Y-62340952D01*
X156412380Y-62293333D01*
X156602857Y-62293333D01*
X156698095Y-62340952D01*
X156745714Y-62388571D01*
X156793333Y-62483809D01*
X155602857Y-61912380D02*
X155507619Y-61912380D01*
X155412380Y-61960000D01*
X155364761Y-62007619D01*
X155317142Y-62102857D01*
X155269523Y-62293333D01*
X155269523Y-62531428D01*
X155317142Y-62721904D01*
X155364761Y-62817142D01*
X155412380Y-62864761D01*
X155507619Y-62912380D01*
X155602857Y-62912380D01*
X155698095Y-62864761D01*
X155745714Y-62817142D01*
X155793333Y-62721904D01*
X155840952Y-62531428D01*
X155840952Y-62293333D01*
X155793333Y-62102857D01*
X155745714Y-62007619D01*
X155698095Y-61960000D01*
X155602857Y-61912380D01*
X154840952Y-62912380D02*
X154840952Y-61912380D01*
X154460000Y-61912380D01*
X154364761Y-61960000D01*
X154317142Y-62007619D01*
X154269523Y-62102857D01*
X154269523Y-62245714D01*
X154317142Y-62340952D01*
X154364761Y-62388571D01*
X154460000Y-62436190D01*
X154840952Y-62436190D01*
D16*
X158973809Y-59802380D02*
X158950000Y-59754761D01*
X158902380Y-59707142D01*
X158830952Y-59635714D01*
X158807142Y-59588095D01*
X158807142Y-59540476D01*
X158926190Y-59564285D02*
X158902380Y-59516666D01*
X158854761Y-59469047D01*
X158759523Y-59445238D01*
X158592857Y-59445238D01*
X158497619Y-59469047D01*
X158450000Y-59516666D01*
X158426190Y-59564285D01*
X158426190Y-59659523D01*
X158450000Y-59707142D01*
X158497619Y-59754761D01*
X158592857Y-59778571D01*
X158759523Y-59778571D01*
X158854761Y-59754761D01*
X158902380Y-59707142D01*
X158926190Y-59659523D01*
X158926190Y-59564285D01*
X158926190Y-60254761D02*
X158926190Y-59969047D01*
X158926190Y-60111904D02*
X158426190Y-60111904D01*
X158497619Y-60064285D01*
X158545238Y-60016666D01*
X158569047Y-59969047D01*
D11*
X165015238Y-56982380D02*
X165586666Y-56982380D01*
X165300952Y-56982380D02*
X165300952Y-55982380D01*
X165396190Y-56125238D01*
X165491428Y-56220476D01*
X165586666Y-56268095D01*
X164396190Y-55982380D02*
X164300952Y-55982380D01*
X164205714Y-56030000D01*
X164158095Y-56077619D01*
X164110476Y-56172857D01*
X164062857Y-56363333D01*
X164062857Y-56601428D01*
X164110476Y-56791904D01*
X164158095Y-56887142D01*
X164205714Y-56934761D01*
X164300952Y-56982380D01*
X164396190Y-56982380D01*
X164491428Y-56934761D01*
X164539047Y-56887142D01*
X164586666Y-56791904D01*
X164634285Y-56601428D01*
X164634285Y-56363333D01*
X164586666Y-56172857D01*
X164539047Y-56077619D01*
X164491428Y-56030000D01*
X164396190Y-55982380D01*
X163634285Y-56982380D02*
X163634285Y-55982380D01*
X163539047Y-56601428D02*
X163253333Y-56982380D01*
X163253333Y-56315714D02*
X163634285Y-56696666D01*
D14*
X162320952Y-56723333D02*
X162130476Y-56590000D01*
X162320952Y-56494761D02*
X161920952Y-56494761D01*
X161920952Y-56647142D01*
X161940000Y-56685238D01*
X161959047Y-56704285D01*
X161997142Y-56723333D01*
X162054285Y-56723333D01*
X162092380Y-56704285D01*
X162111428Y-56685238D01*
X162130476Y-56647142D01*
X162130476Y-56494761D01*
X162320952Y-57104285D02*
X162320952Y-56875714D01*
X162320952Y-56990000D02*
X161920952Y-56990000D01*
X161978095Y-56951904D01*
X162016190Y-56913809D01*
X162035238Y-56875714D01*
D11*
X165998571Y-32305714D02*
X165998571Y-32972380D01*
X166236666Y-31924761D02*
X166474761Y-32639047D01*
X165855714Y-32639047D01*
X165474761Y-32877142D02*
X165427142Y-32924761D01*
X165474761Y-32972380D01*
X165522380Y-32924761D01*
X165474761Y-32877142D01*
X165474761Y-32972380D01*
X165093809Y-31972380D02*
X164427142Y-31972380D01*
X164855714Y-32972380D01*
X164046190Y-32972380D02*
X164046190Y-31972380D01*
X163950952Y-32591428D02*
X163665238Y-32972380D01*
X163665238Y-32305714D02*
X164046190Y-32686666D01*
D14*
X161956666Y-32700952D02*
X162090000Y-32510476D01*
X162185238Y-32700952D02*
X162185238Y-32300952D01*
X162032857Y-32300952D01*
X161994761Y-32320000D01*
X161975714Y-32339047D01*
X161956666Y-32377142D01*
X161956666Y-32434285D01*
X161975714Y-32472380D01*
X161994761Y-32491428D01*
X162032857Y-32510476D01*
X162185238Y-32510476D01*
X161804285Y-32339047D02*
X161785238Y-32320000D01*
X161747142Y-32300952D01*
X161651904Y-32300952D01*
X161613809Y-32320000D01*
X161594761Y-32339047D01*
X161575714Y-32377142D01*
X161575714Y-32415238D01*
X161594761Y-32472380D01*
X161823333Y-32700952D01*
X161575714Y-32700952D01*
D11*
X166038571Y-33875714D02*
X166038571Y-34542380D01*
X166276666Y-33494761D02*
X166514761Y-34209047D01*
X165895714Y-34209047D01*
X165514761Y-34447142D02*
X165467142Y-34494761D01*
X165514761Y-34542380D01*
X165562380Y-34494761D01*
X165514761Y-34447142D01*
X165514761Y-34542380D01*
X165133809Y-33542380D02*
X164467142Y-33542380D01*
X164895714Y-34542380D01*
X164086190Y-34542380D02*
X164086190Y-33542380D01*
X163990952Y-34161428D02*
X163705238Y-34542380D01*
X163705238Y-33875714D02*
X164086190Y-34256666D01*
D14*
X161956666Y-34200952D02*
X162090000Y-34010476D01*
X162185238Y-34200952D02*
X162185238Y-33800952D01*
X162032857Y-33800952D01*
X161994761Y-33820000D01*
X161975714Y-33839047D01*
X161956666Y-33877142D01*
X161956666Y-33934285D01*
X161975714Y-33972380D01*
X161994761Y-33991428D01*
X162032857Y-34010476D01*
X162185238Y-34010476D01*
X161823333Y-33800952D02*
X161575714Y-33800952D01*
X161709047Y-33953333D01*
X161651904Y-33953333D01*
X161613809Y-33972380D01*
X161594761Y-33991428D01*
X161575714Y-34029523D01*
X161575714Y-34124761D01*
X161594761Y-34162857D01*
X161613809Y-34181904D01*
X161651904Y-34200952D01*
X161766190Y-34200952D01*
X161804285Y-34181904D01*
X161823333Y-34162857D01*
D11*
X149082380Y-87880952D02*
X149177619Y-87833333D01*
X149225238Y-87785714D01*
X149272857Y-87690476D01*
X149272857Y-87642857D01*
X149225238Y-87547619D01*
X149177619Y-87500000D01*
X149082380Y-87452380D01*
X148891904Y-87452380D01*
X148796666Y-87500000D01*
X148749047Y-87547619D01*
X148701428Y-87642857D01*
X148701428Y-87690476D01*
X148749047Y-87785714D01*
X148796666Y-87833333D01*
X148891904Y-87880952D01*
X149082380Y-87880952D01*
X149177619Y-87928571D01*
X149225238Y-87976190D01*
X149272857Y-88071428D01*
X149272857Y-88261904D01*
X149225238Y-88357142D01*
X149177619Y-88404761D01*
X149082380Y-88452380D01*
X148891904Y-88452380D01*
X148796666Y-88404761D01*
X148749047Y-88357142D01*
X148701428Y-88261904D01*
X148701428Y-88071428D01*
X148749047Y-87976190D01*
X148796666Y-87928571D01*
X148891904Y-87880952D01*
X148082380Y-87452380D02*
X147987142Y-87452380D01*
X147891904Y-87500000D01*
X147844285Y-87547619D01*
X147796666Y-87642857D01*
X147749047Y-87833333D01*
X147749047Y-88071428D01*
X147796666Y-88261904D01*
X147844285Y-88357142D01*
X147891904Y-88404761D01*
X147987142Y-88452380D01*
X148082380Y-88452380D01*
X148177619Y-88404761D01*
X148225238Y-88357142D01*
X148272857Y-88261904D01*
X148320476Y-88071428D01*
X148320476Y-87833333D01*
X148272857Y-87642857D01*
X148225238Y-87547619D01*
X148177619Y-87500000D01*
X148082380Y-87452380D01*
X146891904Y-87452380D02*
X147082380Y-87452380D01*
X147177619Y-87500000D01*
X147225238Y-87547619D01*
X147320476Y-87690476D01*
X147368095Y-87880952D01*
X147368095Y-88261904D01*
X147320476Y-88357142D01*
X147272857Y-88404761D01*
X147177619Y-88452380D01*
X146987142Y-88452380D01*
X146891904Y-88404761D01*
X146844285Y-88357142D01*
X146796666Y-88261904D01*
X146796666Y-88023809D01*
X146844285Y-87928571D01*
X146891904Y-87880952D01*
X146987142Y-87833333D01*
X147177619Y-87833333D01*
X147272857Y-87880952D01*
X147320476Y-87928571D01*
X147368095Y-88023809D01*
X146368095Y-88452380D02*
X146368095Y-87452380D01*
X146272857Y-88071428D02*
X145987142Y-88452380D01*
X145987142Y-87785714D02*
X146368095Y-88166666D01*
D14*
X149400952Y-85503333D02*
X149210476Y-85370000D01*
X149400952Y-85274761D02*
X149000952Y-85274761D01*
X149000952Y-85427142D01*
X149020000Y-85465238D01*
X149039047Y-85484285D01*
X149077142Y-85503333D01*
X149134285Y-85503333D01*
X149172380Y-85484285D01*
X149191428Y-85465238D01*
X149210476Y-85427142D01*
X149210476Y-85274761D01*
X149134285Y-85846190D02*
X149400952Y-85846190D01*
X148981904Y-85750952D02*
X149267619Y-85655714D01*
X149267619Y-85903333D01*
D11*
X151817142Y-87547619D02*
X151769523Y-87500000D01*
X151674285Y-87452380D01*
X151436190Y-87452380D01*
X151340952Y-87500000D01*
X151293333Y-87547619D01*
X151245714Y-87642857D01*
X151245714Y-87738095D01*
X151293333Y-87880952D01*
X151864761Y-88452380D01*
X151245714Y-88452380D01*
X150817142Y-88452380D02*
X150817142Y-87452380D01*
X150483809Y-88166666D01*
X150150476Y-87452380D01*
X150150476Y-88452380D01*
D14*
X151160952Y-85503333D02*
X150970476Y-85370000D01*
X151160952Y-85274761D02*
X150760952Y-85274761D01*
X150760952Y-85427142D01*
X150780000Y-85465238D01*
X150799047Y-85484285D01*
X150837142Y-85503333D01*
X150894285Y-85503333D01*
X150932380Y-85484285D01*
X150951428Y-85465238D01*
X150970476Y-85427142D01*
X150970476Y-85274761D01*
X150760952Y-85865238D02*
X150760952Y-85674761D01*
X150951428Y-85655714D01*
X150932380Y-85674761D01*
X150913333Y-85712857D01*
X150913333Y-85808095D01*
X150932380Y-85846190D01*
X150951428Y-85865238D01*
X150989523Y-85884285D01*
X151084761Y-85884285D01*
X151122857Y-85865238D01*
X151141904Y-85846190D01*
X151160952Y-85808095D01*
X151160952Y-85712857D01*
X151141904Y-85674761D01*
X151122857Y-85655714D01*
D11*
X183792380Y-49872380D02*
X183173333Y-49872380D01*
X183506666Y-50253333D01*
X183363809Y-50253333D01*
X183268571Y-50300952D01*
X183220952Y-50348571D01*
X183173333Y-50443809D01*
X183173333Y-50681904D01*
X183220952Y-50777142D01*
X183268571Y-50824761D01*
X183363809Y-50872380D01*
X183649523Y-50872380D01*
X183744761Y-50824761D01*
X183792380Y-50777142D01*
X182744761Y-50777142D02*
X182697142Y-50824761D01*
X182744761Y-50872380D01*
X182792380Y-50824761D01*
X182744761Y-50777142D01*
X182744761Y-50872380D01*
X182220952Y-50872380D02*
X182030476Y-50872380D01*
X181935238Y-50824761D01*
X181887619Y-50777142D01*
X181792380Y-50634285D01*
X181744761Y-50443809D01*
X181744761Y-50062857D01*
X181792380Y-49967619D01*
X181840000Y-49920000D01*
X181935238Y-49872380D01*
X182125714Y-49872380D01*
X182220952Y-49920000D01*
X182268571Y-49967619D01*
X182316190Y-50062857D01*
X182316190Y-50300952D01*
X182268571Y-50396190D01*
X182220952Y-50443809D01*
X182125714Y-50491428D01*
X181935238Y-50491428D01*
X181840000Y-50443809D01*
X181792380Y-50396190D01*
X181744761Y-50300952D01*
X181316190Y-50872380D02*
X181316190Y-49872380D01*
X181220952Y-50491428D02*
X180935238Y-50872380D01*
X180935238Y-50205714D02*
X181316190Y-50586666D01*
D14*
X181816666Y-52160952D02*
X181950000Y-51970476D01*
X182045238Y-52160952D02*
X182045238Y-51760952D01*
X181892857Y-51760952D01*
X181854761Y-51780000D01*
X181835714Y-51799047D01*
X181816666Y-51837142D01*
X181816666Y-51894285D01*
X181835714Y-51932380D01*
X181854761Y-51951428D01*
X181892857Y-51970476D01*
X182045238Y-51970476D01*
X181473809Y-51760952D02*
X181550000Y-51760952D01*
X181588095Y-51780000D01*
X181607142Y-51799047D01*
X181645238Y-51856190D01*
X181664285Y-51932380D01*
X181664285Y-52084761D01*
X181645238Y-52122857D01*
X181626190Y-52141904D01*
X181588095Y-52160952D01*
X181511904Y-52160952D01*
X181473809Y-52141904D01*
X181454761Y-52122857D01*
X181435714Y-52084761D01*
X181435714Y-51989523D01*
X181454761Y-51951428D01*
X181473809Y-51932380D01*
X181511904Y-51913333D01*
X181588095Y-51913333D01*
X181626190Y-51932380D01*
X181645238Y-51951428D01*
X181664285Y-51989523D01*
D11*
X179005238Y-50972380D02*
X179576666Y-50972380D01*
X179290952Y-50972380D02*
X179290952Y-49972380D01*
X179386190Y-50115238D01*
X179481428Y-50210476D01*
X179576666Y-50258095D01*
X178386190Y-49972380D02*
X178290952Y-49972380D01*
X178195714Y-50020000D01*
X178148095Y-50067619D01*
X178100476Y-50162857D01*
X178052857Y-50353333D01*
X178052857Y-50591428D01*
X178100476Y-50781904D01*
X178148095Y-50877142D01*
X178195714Y-50924761D01*
X178290952Y-50972380D01*
X178386190Y-50972380D01*
X178481428Y-50924761D01*
X178529047Y-50877142D01*
X178576666Y-50781904D01*
X178624285Y-50591428D01*
X178624285Y-50353333D01*
X178576666Y-50162857D01*
X178529047Y-50067619D01*
X178481428Y-50020000D01*
X178386190Y-49972380D01*
X177624285Y-50972380D02*
X177624285Y-49972380D01*
X177529047Y-50591428D02*
X177243333Y-50972380D01*
X177243333Y-50305714D02*
X177624285Y-50686666D01*
D14*
X178436666Y-52160952D02*
X178570000Y-51970476D01*
X178665238Y-52160952D02*
X178665238Y-51760952D01*
X178512857Y-51760952D01*
X178474761Y-51780000D01*
X178455714Y-51799047D01*
X178436666Y-51837142D01*
X178436666Y-51894285D01*
X178455714Y-51932380D01*
X178474761Y-51951428D01*
X178512857Y-51970476D01*
X178665238Y-51970476D01*
X178303333Y-51760952D02*
X178036666Y-51760952D01*
X178208095Y-52160952D01*
D11*
X175535238Y-50992380D02*
X176106666Y-50992380D01*
X175820952Y-50992380D02*
X175820952Y-49992380D01*
X175916190Y-50135238D01*
X176011428Y-50230476D01*
X176106666Y-50278095D01*
X174630476Y-49992380D02*
X175106666Y-49992380D01*
X175154285Y-50468571D01*
X175106666Y-50420952D01*
X175011428Y-50373333D01*
X174773333Y-50373333D01*
X174678095Y-50420952D01*
X174630476Y-50468571D01*
X174582857Y-50563809D01*
X174582857Y-50801904D01*
X174630476Y-50897142D01*
X174678095Y-50944761D01*
X174773333Y-50992380D01*
X175011428Y-50992380D01*
X175106666Y-50944761D01*
X175154285Y-50897142D01*
X174154285Y-50992380D02*
X174154285Y-49992380D01*
X174059047Y-50611428D02*
X173773333Y-50992380D01*
X173773333Y-50325714D02*
X174154285Y-50706666D01*
D14*
X175056666Y-52160952D02*
X175190000Y-51970476D01*
X175285238Y-52160952D02*
X175285238Y-51760952D01*
X175132857Y-51760952D01*
X175094761Y-51780000D01*
X175075714Y-51799047D01*
X175056666Y-51837142D01*
X175056666Y-51894285D01*
X175075714Y-51932380D01*
X175094761Y-51951428D01*
X175132857Y-51970476D01*
X175285238Y-51970476D01*
X174828095Y-51932380D02*
X174866190Y-51913333D01*
X174885238Y-51894285D01*
X174904285Y-51856190D01*
X174904285Y-51837142D01*
X174885238Y-51799047D01*
X174866190Y-51780000D01*
X174828095Y-51760952D01*
X174751904Y-51760952D01*
X174713809Y-51780000D01*
X174694761Y-51799047D01*
X174675714Y-51837142D01*
X174675714Y-51856190D01*
X174694761Y-51894285D01*
X174713809Y-51913333D01*
X174751904Y-51932380D01*
X174828095Y-51932380D01*
X174866190Y-51951428D01*
X174885238Y-51970476D01*
X174904285Y-52008571D01*
X174904285Y-52084761D01*
X174885238Y-52122857D01*
X174866190Y-52141904D01*
X174828095Y-52160952D01*
X174751904Y-52160952D01*
X174713809Y-52141904D01*
X174694761Y-52122857D01*
X174675714Y-52084761D01*
X174675714Y-52008571D01*
X174694761Y-51970476D01*
X174713809Y-51951428D01*
X174751904Y-51932380D01*
D11*
X172784761Y-50335714D02*
X172784761Y-51002380D01*
X173022857Y-49954761D02*
X173260952Y-50669047D01*
X172641904Y-50669047D01*
X172260952Y-50907142D02*
X172213333Y-50954761D01*
X172260952Y-51002380D01*
X172308571Y-50954761D01*
X172260952Y-50907142D01*
X172260952Y-51002380D01*
X171737142Y-51002380D02*
X171546666Y-51002380D01*
X171451428Y-50954761D01*
X171403809Y-50907142D01*
X171308571Y-50764285D01*
X171260952Y-50573809D01*
X171260952Y-50192857D01*
X171308571Y-50097619D01*
X171356190Y-50050000D01*
X171451428Y-50002380D01*
X171641904Y-50002380D01*
X171737142Y-50050000D01*
X171784761Y-50097619D01*
X171832380Y-50192857D01*
X171832380Y-50430952D01*
X171784761Y-50526190D01*
X171737142Y-50573809D01*
X171641904Y-50621428D01*
X171451428Y-50621428D01*
X171356190Y-50573809D01*
X171308571Y-50526190D01*
X171260952Y-50430952D01*
X170784761Y-51002380D02*
X170594285Y-51002380D01*
X170499047Y-50954761D01*
X170451428Y-50907142D01*
X170356190Y-50764285D01*
X170308571Y-50573809D01*
X170308571Y-50192857D01*
X170356190Y-50097619D01*
X170403809Y-50050000D01*
X170499047Y-50002380D01*
X170689523Y-50002380D01*
X170784761Y-50050000D01*
X170832380Y-50097619D01*
X170880000Y-50192857D01*
X170880000Y-50430952D01*
X170832380Y-50526190D01*
X170784761Y-50573809D01*
X170689523Y-50621428D01*
X170499047Y-50621428D01*
X170403809Y-50573809D01*
X170356190Y-50526190D01*
X170308571Y-50430952D01*
X169880000Y-51002380D02*
X169880000Y-50002380D01*
X169784761Y-50621428D02*
X169499047Y-51002380D01*
X169499047Y-50335714D02*
X169880000Y-50716666D01*
D14*
X171676666Y-52160952D02*
X171810000Y-51970476D01*
X171905238Y-52160952D02*
X171905238Y-51760952D01*
X171752857Y-51760952D01*
X171714761Y-51780000D01*
X171695714Y-51799047D01*
X171676666Y-51837142D01*
X171676666Y-51894285D01*
X171695714Y-51932380D01*
X171714761Y-51951428D01*
X171752857Y-51970476D01*
X171905238Y-51970476D01*
X171486190Y-52160952D02*
X171410000Y-52160952D01*
X171371904Y-52141904D01*
X171352857Y-52122857D01*
X171314761Y-52065714D01*
X171295714Y-51989523D01*
X171295714Y-51837142D01*
X171314761Y-51799047D01*
X171333809Y-51780000D01*
X171371904Y-51760952D01*
X171448095Y-51760952D01*
X171486190Y-51780000D01*
X171505238Y-51799047D01*
X171524285Y-51837142D01*
X171524285Y-51932380D01*
X171505238Y-51970476D01*
X171486190Y-51989523D01*
X171448095Y-52008571D01*
X171371904Y-52008571D01*
X171333809Y-51989523D01*
X171314761Y-51970476D01*
X171295714Y-51932380D01*
D11*
X170111904Y-52397619D02*
X170064285Y-52350000D01*
X169969047Y-52302380D01*
X169730952Y-52302380D01*
X169635714Y-52350000D01*
X169588095Y-52397619D01*
X169540476Y-52492857D01*
X169540476Y-52588095D01*
X169588095Y-52730952D01*
X170159523Y-53302380D01*
X169540476Y-53302380D01*
X169207142Y-52302380D02*
X168540476Y-52302380D01*
X168969047Y-53302380D01*
X167588095Y-53302380D02*
X167921428Y-52826190D01*
X168159523Y-53302380D02*
X168159523Y-52302380D01*
X167778571Y-52302380D01*
X167683333Y-52350000D01*
X167635714Y-52397619D01*
X167588095Y-52492857D01*
X167588095Y-52635714D01*
X167635714Y-52730952D01*
X167683333Y-52778571D01*
X167778571Y-52826190D01*
X168159523Y-52826190D01*
D14*
X165657142Y-53060952D02*
X165790476Y-52870476D01*
X165885714Y-53060952D02*
X165885714Y-52660952D01*
X165733333Y-52660952D01*
X165695238Y-52680000D01*
X165676190Y-52699047D01*
X165657142Y-52737142D01*
X165657142Y-52794285D01*
X165676190Y-52832380D01*
X165695238Y-52851428D01*
X165733333Y-52870476D01*
X165885714Y-52870476D01*
X165276190Y-53060952D02*
X165504761Y-53060952D01*
X165390476Y-53060952D02*
X165390476Y-52660952D01*
X165428571Y-52718095D01*
X165466666Y-52756190D01*
X165504761Y-52775238D01*
X165028571Y-52660952D02*
X164990476Y-52660952D01*
X164952380Y-52680000D01*
X164933333Y-52699047D01*
X164914285Y-52737142D01*
X164895238Y-52813333D01*
X164895238Y-52908571D01*
X164914285Y-52984761D01*
X164933333Y-53022857D01*
X164952380Y-53041904D01*
X164990476Y-53060952D01*
X165028571Y-53060952D01*
X165066666Y-53041904D01*
X165085714Y-53022857D01*
X165104761Y-52984761D01*
X165123809Y-52908571D01*
X165123809Y-52813333D01*
X165104761Y-52737142D01*
X165085714Y-52699047D01*
X165066666Y-52680000D01*
X165028571Y-52660952D01*
D11*
X169721904Y-47307619D02*
X169674285Y-47260000D01*
X169579047Y-47212380D01*
X169340952Y-47212380D01*
X169245714Y-47260000D01*
X169198095Y-47307619D01*
X169150476Y-47402857D01*
X169150476Y-47498095D01*
X169198095Y-47640952D01*
X169769523Y-48212380D01*
X169150476Y-48212380D01*
X168817142Y-47212380D02*
X168150476Y-47212380D01*
X168579047Y-48212380D01*
X167198095Y-48212380D02*
X167531428Y-47736190D01*
X167769523Y-48212380D02*
X167769523Y-47212380D01*
X167388571Y-47212380D01*
X167293333Y-47260000D01*
X167245714Y-47307619D01*
X167198095Y-47402857D01*
X167198095Y-47545714D01*
X167245714Y-47640952D01*
X167293333Y-47688571D01*
X167388571Y-47736190D01*
X167769523Y-47736190D01*
D14*
X165667142Y-47800952D02*
X165800476Y-47610476D01*
X165895714Y-47800952D02*
X165895714Y-47400952D01*
X165743333Y-47400952D01*
X165705238Y-47420000D01*
X165686190Y-47439047D01*
X165667142Y-47477142D01*
X165667142Y-47534285D01*
X165686190Y-47572380D01*
X165705238Y-47591428D01*
X165743333Y-47610476D01*
X165895714Y-47610476D01*
X165286190Y-47800952D02*
X165514761Y-47800952D01*
X165400476Y-47800952D02*
X165400476Y-47400952D01*
X165438571Y-47458095D01*
X165476666Y-47496190D01*
X165514761Y-47515238D01*
X164905238Y-47800952D02*
X165133809Y-47800952D01*
X165019523Y-47800952D02*
X165019523Y-47400952D01*
X165057619Y-47458095D01*
X165095714Y-47496190D01*
X165133809Y-47515238D01*
D11*
X181269523Y-91422380D02*
X180650476Y-91422380D01*
X180983809Y-91803333D01*
X180840952Y-91803333D01*
X180745714Y-91850952D01*
X180698095Y-91898571D01*
X180650476Y-91993809D01*
X180650476Y-92231904D01*
X180698095Y-92327142D01*
X180745714Y-92374761D01*
X180840952Y-92422380D01*
X181126666Y-92422380D01*
X181221904Y-92374761D01*
X181269523Y-92327142D01*
X180317142Y-91422380D02*
X179698095Y-91422380D01*
X180031428Y-91803333D01*
X179888571Y-91803333D01*
X179793333Y-91850952D01*
X179745714Y-91898571D01*
X179698095Y-91993809D01*
X179698095Y-92231904D01*
X179745714Y-92327142D01*
X179793333Y-92374761D01*
X179888571Y-92422380D01*
X180174285Y-92422380D01*
X180269523Y-92374761D01*
X180317142Y-92327142D01*
X178698095Y-92422380D02*
X179031428Y-91946190D01*
X179269523Y-92422380D02*
X179269523Y-91422380D01*
X178888571Y-91422380D01*
X178793333Y-91470000D01*
X178745714Y-91517619D01*
X178698095Y-91612857D01*
X178698095Y-91755714D01*
X178745714Y-91850952D01*
X178793333Y-91898571D01*
X178888571Y-91946190D01*
X179269523Y-91946190D01*
D14*
X180107142Y-93560952D02*
X180240476Y-93370476D01*
X180335714Y-93560952D02*
X180335714Y-93160952D01*
X180183333Y-93160952D01*
X180145238Y-93180000D01*
X180126190Y-93199047D01*
X180107142Y-93237142D01*
X180107142Y-93294285D01*
X180126190Y-93332380D01*
X180145238Y-93351428D01*
X180183333Y-93370476D01*
X180335714Y-93370476D01*
X179726190Y-93560952D02*
X179954761Y-93560952D01*
X179840476Y-93560952D02*
X179840476Y-93160952D01*
X179878571Y-93218095D01*
X179916666Y-93256190D01*
X179954761Y-93275238D01*
X179573809Y-93199047D02*
X179554761Y-93180000D01*
X179516666Y-93160952D01*
X179421428Y-93160952D01*
X179383333Y-93180000D01*
X179364285Y-93199047D01*
X179345238Y-93237142D01*
X179345238Y-93275238D01*
X179364285Y-93332380D01*
X179592857Y-93560952D01*
X179345238Y-93560952D01*
D11*
X192041904Y-123665714D02*
X192041904Y-124332380D01*
X192280000Y-123284761D02*
X192518095Y-123999047D01*
X191899047Y-123999047D01*
X191613333Y-123332380D02*
X190946666Y-123332380D01*
X191375238Y-124332380D01*
X190375238Y-123332380D02*
X190280000Y-123332380D01*
X190184761Y-123380000D01*
X190137142Y-123427619D01*
X190089523Y-123522857D01*
X190041904Y-123713333D01*
X190041904Y-123951428D01*
X190089523Y-124141904D01*
X190137142Y-124237142D01*
X190184761Y-124284761D01*
X190280000Y-124332380D01*
X190375238Y-124332380D01*
X190470476Y-124284761D01*
X190518095Y-124237142D01*
X190565714Y-124141904D01*
X190613333Y-123951428D01*
X190613333Y-123713333D01*
X190565714Y-123522857D01*
X190518095Y-123427619D01*
X190470476Y-123380000D01*
X190375238Y-123332380D01*
X189041904Y-124332380D02*
X189375238Y-123856190D01*
X189613333Y-124332380D02*
X189613333Y-123332380D01*
X189232380Y-123332380D01*
X189137142Y-123380000D01*
X189089523Y-123427619D01*
X189041904Y-123522857D01*
X189041904Y-123665714D01*
X189089523Y-123760952D01*
X189137142Y-123808571D01*
X189232380Y-123856190D01*
X189613333Y-123856190D01*
D14*
X193790952Y-123562857D02*
X193600476Y-123429523D01*
X193790952Y-123334285D02*
X193390952Y-123334285D01*
X193390952Y-123486666D01*
X193410000Y-123524761D01*
X193429047Y-123543809D01*
X193467142Y-123562857D01*
X193524285Y-123562857D01*
X193562380Y-123543809D01*
X193581428Y-123524761D01*
X193600476Y-123486666D01*
X193600476Y-123334285D01*
X193790952Y-123943809D02*
X193790952Y-123715238D01*
X193790952Y-123829523D02*
X193390952Y-123829523D01*
X193448095Y-123791428D01*
X193486190Y-123753333D01*
X193505238Y-123715238D01*
X193390952Y-124077142D02*
X193390952Y-124324761D01*
X193543333Y-124191428D01*
X193543333Y-124248571D01*
X193562380Y-124286666D01*
X193581428Y-124305714D01*
X193619523Y-124324761D01*
X193714761Y-124324761D01*
X193752857Y-124305714D01*
X193771904Y-124286666D01*
X193790952Y-124248571D01*
X193790952Y-124134285D01*
X193771904Y-124096190D01*
X193752857Y-124077142D01*
D11*
X198614761Y-118157619D02*
X198567142Y-118110000D01*
X198471904Y-118062380D01*
X198233809Y-118062380D01*
X198138571Y-118110000D01*
X198090952Y-118157619D01*
X198043333Y-118252857D01*
X198043333Y-118348095D01*
X198090952Y-118490952D01*
X198662380Y-119062380D01*
X198043333Y-119062380D01*
X197614761Y-118967142D02*
X197567142Y-119014761D01*
X197614761Y-119062380D01*
X197662380Y-119014761D01*
X197614761Y-118967142D01*
X197614761Y-119062380D01*
X196948095Y-118062380D02*
X196852857Y-118062380D01*
X196757619Y-118110000D01*
X196710000Y-118157619D01*
X196662380Y-118252857D01*
X196614761Y-118443333D01*
X196614761Y-118681428D01*
X196662380Y-118871904D01*
X196710000Y-118967142D01*
X196757619Y-119014761D01*
X196852857Y-119062380D01*
X196948095Y-119062380D01*
X197043333Y-119014761D01*
X197090952Y-118967142D01*
X197138571Y-118871904D01*
X197186190Y-118681428D01*
X197186190Y-118443333D01*
X197138571Y-118252857D01*
X197090952Y-118157619D01*
X197043333Y-118110000D01*
X196948095Y-118062380D01*
X196186190Y-119062380D02*
X196186190Y-118062380D01*
X196090952Y-118681428D02*
X195805238Y-119062380D01*
X195805238Y-118395714D02*
X196186190Y-118776666D01*
D14*
X195450952Y-121852857D02*
X195260476Y-121719523D01*
X195450952Y-121624285D02*
X195050952Y-121624285D01*
X195050952Y-121776666D01*
X195070000Y-121814761D01*
X195089047Y-121833809D01*
X195127142Y-121852857D01*
X195184285Y-121852857D01*
X195222380Y-121833809D01*
X195241428Y-121814761D01*
X195260476Y-121776666D01*
X195260476Y-121624285D01*
X195450952Y-122233809D02*
X195450952Y-122005238D01*
X195450952Y-122119523D02*
X195050952Y-122119523D01*
X195108095Y-122081428D01*
X195146190Y-122043333D01*
X195165238Y-122005238D01*
X195184285Y-122576666D02*
X195450952Y-122576666D01*
X195031904Y-122481428D02*
X195317619Y-122386190D01*
X195317619Y-122633809D01*
D11*
X146165238Y-90622380D02*
X146736666Y-90622380D01*
X146450952Y-90622380D02*
X146450952Y-89622380D01*
X146546190Y-89765238D01*
X146641428Y-89860476D01*
X146736666Y-89908095D01*
X145546190Y-89622380D02*
X145450952Y-89622380D01*
X145355714Y-89670000D01*
X145308095Y-89717619D01*
X145260476Y-89812857D01*
X145212857Y-90003333D01*
X145212857Y-90241428D01*
X145260476Y-90431904D01*
X145308095Y-90527142D01*
X145355714Y-90574761D01*
X145450952Y-90622380D01*
X145546190Y-90622380D01*
X145641428Y-90574761D01*
X145689047Y-90527142D01*
X145736666Y-90431904D01*
X145784285Y-90241428D01*
X145784285Y-90003333D01*
X145736666Y-89812857D01*
X145689047Y-89717619D01*
X145641428Y-89670000D01*
X145546190Y-89622380D01*
X144784285Y-90622380D02*
X144784285Y-89622380D01*
X144689047Y-90241428D02*
X144403333Y-90622380D01*
X144403333Y-89955714D02*
X144784285Y-90336666D01*
D14*
X145827142Y-91780952D02*
X145960476Y-91590476D01*
X146055714Y-91780952D02*
X146055714Y-91380952D01*
X145903333Y-91380952D01*
X145865238Y-91400000D01*
X145846190Y-91419047D01*
X145827142Y-91457142D01*
X145827142Y-91514285D01*
X145846190Y-91552380D01*
X145865238Y-91571428D01*
X145903333Y-91590476D01*
X146055714Y-91590476D01*
X145446190Y-91780952D02*
X145674761Y-91780952D01*
X145560476Y-91780952D02*
X145560476Y-91380952D01*
X145598571Y-91438095D01*
X145636666Y-91476190D01*
X145674761Y-91495238D01*
X145084285Y-91380952D02*
X145274761Y-91380952D01*
X145293809Y-91571428D01*
X145274761Y-91552380D01*
X145236666Y-91533333D01*
X145141428Y-91533333D01*
X145103333Y-91552380D01*
X145084285Y-91571428D01*
X145065238Y-91609523D01*
X145065238Y-91704761D01*
X145084285Y-91742857D01*
X145103333Y-91761904D01*
X145141428Y-91780952D01*
X145236666Y-91780952D01*
X145274761Y-91761904D01*
X145293809Y-91742857D01*
D11*
X146135238Y-108612380D02*
X146706666Y-108612380D01*
X146420952Y-108612380D02*
X146420952Y-107612380D01*
X146516190Y-107755238D01*
X146611428Y-107850476D01*
X146706666Y-107898095D01*
X145516190Y-107612380D02*
X145420952Y-107612380D01*
X145325714Y-107660000D01*
X145278095Y-107707619D01*
X145230476Y-107802857D01*
X145182857Y-107993333D01*
X145182857Y-108231428D01*
X145230476Y-108421904D01*
X145278095Y-108517142D01*
X145325714Y-108564761D01*
X145420952Y-108612380D01*
X145516190Y-108612380D01*
X145611428Y-108564761D01*
X145659047Y-108517142D01*
X145706666Y-108421904D01*
X145754285Y-108231428D01*
X145754285Y-107993333D01*
X145706666Y-107802857D01*
X145659047Y-107707619D01*
X145611428Y-107660000D01*
X145516190Y-107612380D01*
X144754285Y-108612380D02*
X144754285Y-107612380D01*
X144659047Y-108231428D02*
X144373333Y-108612380D01*
X144373333Y-107945714D02*
X144754285Y-108326666D01*
D14*
X145797142Y-109770952D02*
X145930476Y-109580476D01*
X146025714Y-109770952D02*
X146025714Y-109370952D01*
X145873333Y-109370952D01*
X145835238Y-109390000D01*
X145816190Y-109409047D01*
X145797142Y-109447142D01*
X145797142Y-109504285D01*
X145816190Y-109542380D01*
X145835238Y-109561428D01*
X145873333Y-109580476D01*
X146025714Y-109580476D01*
X145416190Y-109770952D02*
X145644761Y-109770952D01*
X145530476Y-109770952D02*
X145530476Y-109370952D01*
X145568571Y-109428095D01*
X145606666Y-109466190D01*
X145644761Y-109485238D01*
X145073333Y-109370952D02*
X145149523Y-109370952D01*
X145187619Y-109390000D01*
X145206666Y-109409047D01*
X145244761Y-109466190D01*
X145263809Y-109542380D01*
X145263809Y-109694761D01*
X145244761Y-109732857D01*
X145225714Y-109751904D01*
X145187619Y-109770952D01*
X145111428Y-109770952D01*
X145073333Y-109751904D01*
X145054285Y-109732857D01*
X145035238Y-109694761D01*
X145035238Y-109599523D01*
X145054285Y-109561428D01*
X145073333Y-109542380D01*
X145111428Y-109523333D01*
X145187619Y-109523333D01*
X145225714Y-109542380D01*
X145244761Y-109561428D01*
X145263809Y-109599523D01*
D11*
X138115238Y-99622380D02*
X138686666Y-99622380D01*
X138400952Y-99622380D02*
X138400952Y-98622380D01*
X138496190Y-98765238D01*
X138591428Y-98860476D01*
X138686666Y-98908095D01*
X137496190Y-98622380D02*
X137400952Y-98622380D01*
X137305714Y-98670000D01*
X137258095Y-98717619D01*
X137210476Y-98812857D01*
X137162857Y-99003333D01*
X137162857Y-99241428D01*
X137210476Y-99431904D01*
X137258095Y-99527142D01*
X137305714Y-99574761D01*
X137400952Y-99622380D01*
X137496190Y-99622380D01*
X137591428Y-99574761D01*
X137639047Y-99527142D01*
X137686666Y-99431904D01*
X137734285Y-99241428D01*
X137734285Y-99003333D01*
X137686666Y-98812857D01*
X137639047Y-98717619D01*
X137591428Y-98670000D01*
X137496190Y-98622380D01*
X136734285Y-99622380D02*
X136734285Y-98622380D01*
X136639047Y-99241428D02*
X136353333Y-99622380D01*
X136353333Y-98955714D02*
X136734285Y-99336666D01*
D14*
X137777142Y-100780952D02*
X137910476Y-100590476D01*
X138005714Y-100780952D02*
X138005714Y-100380952D01*
X137853333Y-100380952D01*
X137815238Y-100400000D01*
X137796190Y-100419047D01*
X137777142Y-100457142D01*
X137777142Y-100514285D01*
X137796190Y-100552380D01*
X137815238Y-100571428D01*
X137853333Y-100590476D01*
X138005714Y-100590476D01*
X137396190Y-100780952D02*
X137624761Y-100780952D01*
X137510476Y-100780952D02*
X137510476Y-100380952D01*
X137548571Y-100438095D01*
X137586666Y-100476190D01*
X137624761Y-100495238D01*
X137262857Y-100380952D02*
X136996190Y-100380952D01*
X137167619Y-100780952D01*
D11*
X153935238Y-99532380D02*
X154506666Y-99532380D01*
X154220952Y-99532380D02*
X154220952Y-98532380D01*
X154316190Y-98675238D01*
X154411428Y-98770476D01*
X154506666Y-98818095D01*
X153316190Y-98532380D02*
X153220952Y-98532380D01*
X153125714Y-98580000D01*
X153078095Y-98627619D01*
X153030476Y-98722857D01*
X152982857Y-98913333D01*
X152982857Y-99151428D01*
X153030476Y-99341904D01*
X153078095Y-99437142D01*
X153125714Y-99484761D01*
X153220952Y-99532380D01*
X153316190Y-99532380D01*
X153411428Y-99484761D01*
X153459047Y-99437142D01*
X153506666Y-99341904D01*
X153554285Y-99151428D01*
X153554285Y-98913333D01*
X153506666Y-98722857D01*
X153459047Y-98627619D01*
X153411428Y-98580000D01*
X153316190Y-98532380D01*
X152554285Y-99532380D02*
X152554285Y-98532380D01*
X152459047Y-99151428D02*
X152173333Y-99532380D01*
X152173333Y-98865714D02*
X152554285Y-99246666D01*
D14*
X153597142Y-100690952D02*
X153730476Y-100500476D01*
X153825714Y-100690952D02*
X153825714Y-100290952D01*
X153673333Y-100290952D01*
X153635238Y-100310000D01*
X153616190Y-100329047D01*
X153597142Y-100367142D01*
X153597142Y-100424285D01*
X153616190Y-100462380D01*
X153635238Y-100481428D01*
X153673333Y-100500476D01*
X153825714Y-100500476D01*
X153216190Y-100690952D02*
X153444761Y-100690952D01*
X153330476Y-100690952D02*
X153330476Y-100290952D01*
X153368571Y-100348095D01*
X153406666Y-100386190D01*
X153444761Y-100405238D01*
X152987619Y-100462380D02*
X153025714Y-100443333D01*
X153044761Y-100424285D01*
X153063809Y-100386190D01*
X153063809Y-100367142D01*
X153044761Y-100329047D01*
X153025714Y-100310000D01*
X152987619Y-100290952D01*
X152911428Y-100290952D01*
X152873333Y-100310000D01*
X152854285Y-100329047D01*
X152835238Y-100367142D01*
X152835238Y-100386190D01*
X152854285Y-100424285D01*
X152873333Y-100443333D01*
X152911428Y-100462380D01*
X152987619Y-100462380D01*
X153025714Y-100481428D01*
X153044761Y-100500476D01*
X153063809Y-100538571D01*
X153063809Y-100614761D01*
X153044761Y-100652857D01*
X153025714Y-100671904D01*
X152987619Y-100690952D01*
X152911428Y-100690952D01*
X152873333Y-100671904D01*
X152854285Y-100652857D01*
X152835238Y-100614761D01*
X152835238Y-100538571D01*
X152854285Y-100500476D01*
X152873333Y-100481428D01*
X152911428Y-100462380D01*
D11*
X215125238Y-114672380D02*
X215696666Y-114672380D01*
X215410952Y-114672380D02*
X215410952Y-113672380D01*
X215506190Y-113815238D01*
X215601428Y-113910476D01*
X215696666Y-113958095D01*
X214506190Y-113672380D02*
X214410952Y-113672380D01*
X214315714Y-113720000D01*
X214268095Y-113767619D01*
X214220476Y-113862857D01*
X214172857Y-114053333D01*
X214172857Y-114291428D01*
X214220476Y-114481904D01*
X214268095Y-114577142D01*
X214315714Y-114624761D01*
X214410952Y-114672380D01*
X214506190Y-114672380D01*
X214601428Y-114624761D01*
X214649047Y-114577142D01*
X214696666Y-114481904D01*
X214744285Y-114291428D01*
X214744285Y-114053333D01*
X214696666Y-113862857D01*
X214649047Y-113767619D01*
X214601428Y-113720000D01*
X214506190Y-113672380D01*
X213744285Y-114672380D02*
X213744285Y-113672380D01*
X213649047Y-114291428D02*
X213363333Y-114672380D01*
X213363333Y-114005714D02*
X213744285Y-114386666D01*
D14*
X214787142Y-112970952D02*
X214920476Y-112780476D01*
X215015714Y-112970952D02*
X215015714Y-112570952D01*
X214863333Y-112570952D01*
X214825238Y-112590000D01*
X214806190Y-112609047D01*
X214787142Y-112647142D01*
X214787142Y-112704285D01*
X214806190Y-112742380D01*
X214825238Y-112761428D01*
X214863333Y-112780476D01*
X215015714Y-112780476D01*
X214406190Y-112970952D02*
X214634761Y-112970952D01*
X214520476Y-112970952D02*
X214520476Y-112570952D01*
X214558571Y-112628095D01*
X214596666Y-112666190D01*
X214634761Y-112685238D01*
X214215714Y-112970952D02*
X214139523Y-112970952D01*
X214101428Y-112951904D01*
X214082380Y-112932857D01*
X214044285Y-112875714D01*
X214025238Y-112799523D01*
X214025238Y-112647142D01*
X214044285Y-112609047D01*
X214063333Y-112590000D01*
X214101428Y-112570952D01*
X214177619Y-112570952D01*
X214215714Y-112590000D01*
X214234761Y-112609047D01*
X214253809Y-112647142D01*
X214253809Y-112742380D01*
X214234761Y-112780476D01*
X214215714Y-112799523D01*
X214177619Y-112818571D01*
X214101428Y-112818571D01*
X214063333Y-112799523D01*
X214044285Y-112780476D01*
X214025238Y-112742380D01*
D11*
X204885238Y-90592380D02*
X205456666Y-90592380D01*
X205170952Y-90592380D02*
X205170952Y-89592380D01*
X205266190Y-89735238D01*
X205361428Y-89830476D01*
X205456666Y-89878095D01*
X204266190Y-89592380D02*
X204170952Y-89592380D01*
X204075714Y-89640000D01*
X204028095Y-89687619D01*
X203980476Y-89782857D01*
X203932857Y-89973333D01*
X203932857Y-90211428D01*
X203980476Y-90401904D01*
X204028095Y-90497142D01*
X204075714Y-90544761D01*
X204170952Y-90592380D01*
X204266190Y-90592380D01*
X204361428Y-90544761D01*
X204409047Y-90497142D01*
X204456666Y-90401904D01*
X204504285Y-90211428D01*
X204504285Y-89973333D01*
X204456666Y-89782857D01*
X204409047Y-89687619D01*
X204361428Y-89640000D01*
X204266190Y-89592380D01*
X203504285Y-90592380D02*
X203504285Y-89592380D01*
X203409047Y-90211428D02*
X203123333Y-90592380D01*
X203123333Y-89925714D02*
X203504285Y-90306666D01*
D14*
X204387142Y-92000952D02*
X204520476Y-91810476D01*
X204615714Y-92000952D02*
X204615714Y-91600952D01*
X204463333Y-91600952D01*
X204425238Y-91620000D01*
X204406190Y-91639047D01*
X204387142Y-91677142D01*
X204387142Y-91734285D01*
X204406190Y-91772380D01*
X204425238Y-91791428D01*
X204463333Y-91810476D01*
X204615714Y-91810476D01*
X204234761Y-91639047D02*
X204215714Y-91620000D01*
X204177619Y-91600952D01*
X204082380Y-91600952D01*
X204044285Y-91620000D01*
X204025238Y-91639047D01*
X204006190Y-91677142D01*
X204006190Y-91715238D01*
X204025238Y-91772380D01*
X204253809Y-92000952D01*
X204006190Y-92000952D01*
X203758571Y-91600952D02*
X203720476Y-91600952D01*
X203682380Y-91620000D01*
X203663333Y-91639047D01*
X203644285Y-91677142D01*
X203625238Y-91753333D01*
X203625238Y-91848571D01*
X203644285Y-91924761D01*
X203663333Y-91962857D01*
X203682380Y-91981904D01*
X203720476Y-92000952D01*
X203758571Y-92000952D01*
X203796666Y-91981904D01*
X203815714Y-91962857D01*
X203834761Y-91924761D01*
X203853809Y-91848571D01*
X203853809Y-91753333D01*
X203834761Y-91677142D01*
X203815714Y-91639047D01*
X203796666Y-91620000D01*
X203758571Y-91600952D01*
D11*
X172941428Y-79162380D02*
X173512857Y-79162380D01*
X173227142Y-79162380D02*
X173227142Y-78162380D01*
X173322380Y-78305238D01*
X173417619Y-78400476D01*
X173512857Y-78448095D01*
X172322380Y-78162380D02*
X172227142Y-78162380D01*
X172131904Y-78210000D01*
X172084285Y-78257619D01*
X172036666Y-78352857D01*
X171989047Y-78543333D01*
X171989047Y-78781428D01*
X172036666Y-78971904D01*
X172084285Y-79067142D01*
X172131904Y-79114761D01*
X172227142Y-79162380D01*
X172322380Y-79162380D01*
X172417619Y-79114761D01*
X172465238Y-79067142D01*
X172512857Y-78971904D01*
X172560476Y-78781428D01*
X172560476Y-78543333D01*
X172512857Y-78352857D01*
X172465238Y-78257619D01*
X172417619Y-78210000D01*
X172322380Y-78162380D01*
X171370000Y-78162380D02*
X171274761Y-78162380D01*
X171179523Y-78210000D01*
X171131904Y-78257619D01*
X171084285Y-78352857D01*
X171036666Y-78543333D01*
X171036666Y-78781428D01*
X171084285Y-78971904D01*
X171131904Y-79067142D01*
X171179523Y-79114761D01*
X171274761Y-79162380D01*
X171370000Y-79162380D01*
X171465238Y-79114761D01*
X171512857Y-79067142D01*
X171560476Y-78971904D01*
X171608095Y-78781428D01*
X171608095Y-78543333D01*
X171560476Y-78352857D01*
X171512857Y-78257619D01*
X171465238Y-78210000D01*
X171370000Y-78162380D01*
X170608095Y-79162380D02*
X170608095Y-78162380D01*
X170512857Y-78781428D02*
X170227142Y-79162380D01*
X170227142Y-78495714D02*
X170608095Y-78876666D01*
D14*
X172137142Y-77210952D02*
X172270476Y-77020476D01*
X172365714Y-77210952D02*
X172365714Y-76810952D01*
X172213333Y-76810952D01*
X172175238Y-76830000D01*
X172156190Y-76849047D01*
X172137142Y-76887142D01*
X172137142Y-76944285D01*
X172156190Y-76982380D01*
X172175238Y-77001428D01*
X172213333Y-77020476D01*
X172365714Y-77020476D01*
X171984761Y-76849047D02*
X171965714Y-76830000D01*
X171927619Y-76810952D01*
X171832380Y-76810952D01*
X171794285Y-76830000D01*
X171775238Y-76849047D01*
X171756190Y-76887142D01*
X171756190Y-76925238D01*
X171775238Y-76982380D01*
X172003809Y-77210952D01*
X171756190Y-77210952D01*
X171375238Y-77210952D02*
X171603809Y-77210952D01*
X171489523Y-77210952D02*
X171489523Y-76810952D01*
X171527619Y-76868095D01*
X171565714Y-76906190D01*
X171603809Y-76925238D01*
D11*
X181736666Y-70657619D02*
X181689047Y-70610000D01*
X181593809Y-70562380D01*
X181355714Y-70562380D01*
X181260476Y-70610000D01*
X181212857Y-70657619D01*
X181165238Y-70752857D01*
X181165238Y-70848095D01*
X181212857Y-70990952D01*
X181784285Y-71562380D01*
X181165238Y-71562380D01*
X180546190Y-70562380D02*
X180450952Y-70562380D01*
X180355714Y-70610000D01*
X180308095Y-70657619D01*
X180260476Y-70752857D01*
X180212857Y-70943333D01*
X180212857Y-71181428D01*
X180260476Y-71371904D01*
X180308095Y-71467142D01*
X180355714Y-71514761D01*
X180450952Y-71562380D01*
X180546190Y-71562380D01*
X180641428Y-71514761D01*
X180689047Y-71467142D01*
X180736666Y-71371904D01*
X180784285Y-71181428D01*
X180784285Y-70943333D01*
X180736666Y-70752857D01*
X180689047Y-70657619D01*
X180641428Y-70610000D01*
X180546190Y-70562380D01*
X179784285Y-71562380D02*
X179784285Y-70562380D01*
X179689047Y-71181428D02*
X179403333Y-71562380D01*
X179403333Y-70895714D02*
X179784285Y-71276666D01*
D14*
X177717142Y-71220952D02*
X177850476Y-71030476D01*
X177945714Y-71220952D02*
X177945714Y-70820952D01*
X177793333Y-70820952D01*
X177755238Y-70840000D01*
X177736190Y-70859047D01*
X177717142Y-70897142D01*
X177717142Y-70954285D01*
X177736190Y-70992380D01*
X177755238Y-71011428D01*
X177793333Y-71030476D01*
X177945714Y-71030476D01*
X177564761Y-70859047D02*
X177545714Y-70840000D01*
X177507619Y-70820952D01*
X177412380Y-70820952D01*
X177374285Y-70840000D01*
X177355238Y-70859047D01*
X177336190Y-70897142D01*
X177336190Y-70935238D01*
X177355238Y-70992380D01*
X177583809Y-71220952D01*
X177336190Y-71220952D01*
X177183809Y-70859047D02*
X177164761Y-70840000D01*
X177126666Y-70820952D01*
X177031428Y-70820952D01*
X176993333Y-70840000D01*
X176974285Y-70859047D01*
X176955238Y-70897142D01*
X176955238Y-70935238D01*
X176974285Y-70992380D01*
X177202857Y-71220952D01*
X176955238Y-71220952D01*
D11*
X155489070Y-77371839D02*
X154509145Y-77172471D01*
X154433195Y-77545776D01*
X154460871Y-77648595D01*
X154498040Y-77704752D01*
X154581873Y-77770403D01*
X154721862Y-77798884D01*
X154824682Y-77771208D01*
X154880839Y-77734039D01*
X154946489Y-77650206D01*
X155022439Y-77276902D01*
X155261221Y-78491753D02*
X155233545Y-78388933D01*
X155196376Y-78332776D01*
X155112543Y-78267126D01*
X154832565Y-78210163D01*
X154729745Y-78237839D01*
X154673588Y-78275008D01*
X154607938Y-78358841D01*
X154579456Y-78498830D01*
X154607132Y-78601650D01*
X154644301Y-78657807D01*
X154728134Y-78723457D01*
X155008112Y-78780420D01*
X155110932Y-78752744D01*
X155167089Y-78715575D01*
X155232740Y-78631742D01*
X155261221Y-78491753D01*
X154475026Y-79012124D02*
X155090334Y-79331688D01*
X154585728Y-79423404D01*
X155014384Y-79704993D01*
X154323126Y-79758733D01*
X154777847Y-80628761D02*
X154843497Y-80544928D01*
X154881472Y-80358276D01*
X154853797Y-80255456D01*
X154769964Y-80189806D01*
X154396660Y-80113856D01*
X154293840Y-80141532D01*
X154228189Y-80225364D01*
X154190214Y-80412016D01*
X154217890Y-80514836D01*
X154301722Y-80580487D01*
X154395049Y-80599474D01*
X154583312Y-80151831D01*
X154729573Y-81104885D02*
X154076290Y-80971973D01*
X154262942Y-81009948D02*
X154160122Y-81037624D01*
X154103965Y-81074793D01*
X154038315Y-81158626D01*
X154019327Y-81251952D01*
X152472460Y-77414130D02*
X152490642Y-77563613D01*
X152443173Y-77796928D01*
X152377522Y-77880761D01*
X152321366Y-77917930D01*
X152218546Y-77945606D01*
X152125220Y-77926618D01*
X152041387Y-77860968D01*
X152004218Y-77804811D01*
X151976542Y-77701991D01*
X151967854Y-77505845D01*
X151940178Y-77403025D01*
X151903009Y-77346868D01*
X151819176Y-77281218D01*
X151725850Y-77262230D01*
X151623030Y-77289906D01*
X151566874Y-77327075D01*
X151501223Y-77410908D01*
X151453755Y-77644223D01*
X151471937Y-77793706D01*
X151358817Y-78110854D02*
X152291274Y-78543537D01*
X151553353Y-78587784D01*
X152215324Y-78916842D01*
X151187931Y-78950790D01*
X151987475Y-80036756D02*
X152101399Y-79476799D01*
X152044437Y-79756778D02*
X151064512Y-79557410D01*
X151223489Y-79492565D01*
X151335803Y-79418226D01*
X151401453Y-79334393D01*
X182184761Y-99812380D02*
X182184761Y-98812380D01*
X181803809Y-98812380D01*
X181708571Y-98860000D01*
X181660952Y-98907619D01*
X181613333Y-99002857D01*
X181613333Y-99145714D01*
X181660952Y-99240952D01*
X181708571Y-99288571D01*
X181803809Y-99336190D01*
X182184761Y-99336190D01*
X181232380Y-99526666D02*
X180756190Y-99526666D01*
X181327619Y-99812380D02*
X180994285Y-98812380D01*
X180660952Y-99812380D01*
X180327619Y-99812380D02*
X180327619Y-98812380D01*
X179994285Y-99526666D01*
X179660952Y-98812380D01*
X179660952Y-99812380D01*
X179232380Y-98907619D02*
X179184761Y-98860000D01*
X179089523Y-98812380D01*
X178851428Y-98812380D01*
X178756190Y-98860000D01*
X178708571Y-98907619D01*
X178660952Y-99002857D01*
X178660952Y-99098095D01*
X178708571Y-99240952D01*
X179280000Y-99812380D01*
X178660952Y-99812380D01*
X178327619Y-98812380D02*
X177708571Y-98812380D01*
X178041904Y-99193333D01*
X177899047Y-99193333D01*
X177803809Y-99240952D01*
X177756190Y-99288571D01*
X177708571Y-99383809D01*
X177708571Y-99621904D01*
X177756190Y-99717142D01*
X177803809Y-99764761D01*
X177899047Y-99812380D01*
X178184761Y-99812380D01*
X178280000Y-99764761D01*
X178327619Y-99717142D01*
X177089523Y-98812380D02*
X176994285Y-98812380D01*
X176899047Y-98860000D01*
X176851428Y-98907619D01*
X176803809Y-99002857D01*
X176756190Y-99193333D01*
X176756190Y-99431428D01*
X176803809Y-99621904D01*
X176851428Y-99717142D01*
X176899047Y-99764761D01*
X176994285Y-99812380D01*
X177089523Y-99812380D01*
X177184761Y-99764761D01*
X177232380Y-99717142D01*
X177280000Y-99621904D01*
X177327619Y-99431428D01*
X177327619Y-99193333D01*
X177280000Y-99002857D01*
X177232380Y-98907619D01*
X177184761Y-98860000D01*
X177089523Y-98812380D01*
X175851428Y-98812380D02*
X176327619Y-98812380D01*
X176375238Y-99288571D01*
X176327619Y-99240952D01*
X176232380Y-99193333D01*
X175994285Y-99193333D01*
X175899047Y-99240952D01*
X175851428Y-99288571D01*
X175803809Y-99383809D01*
X175803809Y-99621904D01*
X175851428Y-99717142D01*
X175899047Y-99764761D01*
X175994285Y-99812380D01*
X176232380Y-99812380D01*
X176327619Y-99764761D01*
X176375238Y-99717142D01*
X175375238Y-99812380D02*
X175375238Y-98812380D01*
X175137142Y-98812380D01*
X174994285Y-98860000D01*
X174899047Y-98955238D01*
X174851428Y-99050476D01*
X174803809Y-99240952D01*
X174803809Y-99383809D01*
X174851428Y-99574285D01*
X174899047Y-99669523D01*
X174994285Y-99764761D01*
X175137142Y-99812380D01*
X175375238Y-99812380D01*
X174422857Y-99526666D02*
X173946666Y-99526666D01*
X174518095Y-99812380D02*
X174184761Y-98812380D01*
X173851428Y-99812380D01*
X173184761Y-99288571D02*
X173041904Y-99336190D01*
X172994285Y-99383809D01*
X172946666Y-99479047D01*
X172946666Y-99621904D01*
X172994285Y-99717142D01*
X173041904Y-99764761D01*
X173137142Y-99812380D01*
X173518095Y-99812380D01*
X173518095Y-98812380D01*
X173184761Y-98812380D01*
X173089523Y-98860000D01*
X173041904Y-98907619D01*
X172994285Y-99002857D01*
X172994285Y-99098095D01*
X173041904Y-99193333D01*
X173089523Y-99240952D01*
X173184761Y-99288571D01*
X173518095Y-99288571D01*
X172565714Y-99526666D02*
X172089523Y-99526666D01*
X172660952Y-99812380D02*
X172327619Y-98812380D01*
X171994285Y-99812380D01*
X171660952Y-99812380D02*
X171660952Y-98812380D01*
X171422857Y-98812380D01*
X171280000Y-98860000D01*
X171184761Y-98955238D01*
X171137142Y-99050476D01*
X171089523Y-99240952D01*
X171089523Y-99383809D01*
X171137142Y-99574285D01*
X171184761Y-99669523D01*
X171280000Y-99764761D01*
X171422857Y-99812380D01*
X171660952Y-99812380D01*
X170375238Y-98812380D02*
X170375238Y-99526666D01*
X170422857Y-99669523D01*
X170518095Y-99764761D01*
X170660952Y-99812380D01*
X170756190Y-99812380D01*
D16*
X176600952Y-104346190D02*
X176600952Y-104750952D01*
X176577142Y-104798571D01*
X176553333Y-104822380D01*
X176505714Y-104846190D01*
X176410476Y-104846190D01*
X176362857Y-104822380D01*
X176339047Y-104798571D01*
X176315238Y-104750952D01*
X176315238Y-104346190D01*
X176100952Y-104393809D02*
X176077142Y-104370000D01*
X176029523Y-104346190D01*
X175910476Y-104346190D01*
X175862857Y-104370000D01*
X175839047Y-104393809D01*
X175815238Y-104441428D01*
X175815238Y-104489047D01*
X175839047Y-104560476D01*
X176124761Y-104846190D01*
X175815238Y-104846190D01*
D11*
X208153333Y-125522380D02*
X208153333Y-124522380D01*
X207820000Y-125236666D01*
X207486666Y-124522380D01*
X207486666Y-125522380D01*
X206439047Y-125427142D02*
X206486666Y-125474761D01*
X206629523Y-125522380D01*
X206724761Y-125522380D01*
X206867619Y-125474761D01*
X206962857Y-125379523D01*
X207010476Y-125284285D01*
X207058095Y-125093809D01*
X207058095Y-124950952D01*
X207010476Y-124760476D01*
X206962857Y-124665238D01*
X206867619Y-124570000D01*
X206724761Y-124522380D01*
X206629523Y-124522380D01*
X206486666Y-124570000D01*
X206439047Y-124617619D01*
X206010476Y-125522380D02*
X206010476Y-124522380D01*
X205629523Y-124522380D01*
X205534285Y-124570000D01*
X205486666Y-124617619D01*
X205439047Y-124712857D01*
X205439047Y-124855714D01*
X205486666Y-124950952D01*
X205534285Y-124998571D01*
X205629523Y-125046190D01*
X206010476Y-125046190D01*
X205105714Y-124522380D02*
X204439047Y-124522380D01*
X204867619Y-125522380D01*
X204153333Y-124522380D02*
X203534285Y-124522380D01*
X203867619Y-124903333D01*
X203724761Y-124903333D01*
X203629523Y-124950952D01*
X203581904Y-124998571D01*
X203534285Y-125093809D01*
X203534285Y-125331904D01*
X203581904Y-125427142D01*
X203629523Y-125474761D01*
X203724761Y-125522380D01*
X204010476Y-125522380D01*
X204105714Y-125474761D01*
X204153333Y-125427142D01*
X202962857Y-124950952D02*
X203058095Y-124903333D01*
X203105714Y-124855714D01*
X203153333Y-124760476D01*
X203153333Y-124712857D01*
X203105714Y-124617619D01*
X203058095Y-124570000D01*
X202962857Y-124522380D01*
X202772380Y-124522380D01*
X202677142Y-124570000D01*
X202629523Y-124617619D01*
X202581904Y-124712857D01*
X202581904Y-124760476D01*
X202629523Y-124855714D01*
X202677142Y-124903333D01*
X202772380Y-124950952D01*
X202962857Y-124950952D01*
X203058095Y-124998571D01*
X203105714Y-125046190D01*
X203153333Y-125141428D01*
X203153333Y-125331904D01*
X203105714Y-125427142D01*
X203058095Y-125474761D01*
X202962857Y-125522380D01*
X202772380Y-125522380D01*
X202677142Y-125474761D01*
X202629523Y-125427142D01*
X202581904Y-125331904D01*
X202581904Y-125141428D01*
X202629523Y-125046190D01*
X202677142Y-124998571D01*
X202772380Y-124950952D01*
X202248571Y-124522380D02*
X201629523Y-124522380D01*
X201962857Y-124903333D01*
X201820000Y-124903333D01*
X201724761Y-124950952D01*
X201677142Y-124998571D01*
X201629523Y-125093809D01*
X201629523Y-125331904D01*
X201677142Y-125427142D01*
X201724761Y-125474761D01*
X201820000Y-125522380D01*
X202105714Y-125522380D01*
X202200952Y-125474761D01*
X202248571Y-125427142D01*
X201248571Y-124617619D02*
X201200952Y-124570000D01*
X201105714Y-124522380D01*
X200867619Y-124522380D01*
X200772380Y-124570000D01*
X200724761Y-124617619D01*
X200677142Y-124712857D01*
X200677142Y-124808095D01*
X200724761Y-124950952D01*
X201296190Y-125522380D01*
X200677142Y-125522380D01*
X200248571Y-125141428D02*
X199486666Y-125141428D01*
X199058095Y-124617619D02*
X199010476Y-124570000D01*
X198915238Y-124522380D01*
X198677142Y-124522380D01*
X198581904Y-124570000D01*
X198534285Y-124617619D01*
X198486666Y-124712857D01*
X198486666Y-124808095D01*
X198534285Y-124950952D01*
X199105714Y-125522380D01*
X198486666Y-125522380D01*
X198058095Y-125141428D02*
X197296190Y-125141428D01*
X196629523Y-124522380D02*
X196439047Y-124522380D01*
X196343809Y-124570000D01*
X196248571Y-124665238D01*
X196200952Y-124855714D01*
X196200952Y-125189047D01*
X196248571Y-125379523D01*
X196343809Y-125474761D01*
X196439047Y-125522380D01*
X196629523Y-125522380D01*
X196724761Y-125474761D01*
X196820000Y-125379523D01*
X196867619Y-125189047D01*
X196867619Y-124855714D01*
X196820000Y-124665238D01*
X196724761Y-124570000D01*
X196629523Y-124522380D01*
X195915238Y-124522380D02*
X195343809Y-124522380D01*
X195629523Y-125522380D02*
X195629523Y-124522380D01*
D16*
X199220952Y-120996190D02*
X199220952Y-121400952D01*
X199197142Y-121448571D01*
X199173333Y-121472380D01*
X199125714Y-121496190D01*
X199030476Y-121496190D01*
X198982857Y-121472380D01*
X198959047Y-121448571D01*
X198935238Y-121400952D01*
X198935238Y-120996190D01*
X198744761Y-120996190D02*
X198411428Y-120996190D01*
X198625714Y-121496190D01*
D11*
X172049153Y-66556597D02*
X171342047Y-65849490D01*
X171712436Y-66825971D02*
X171645092Y-66960658D01*
X171476734Y-67129017D01*
X171375718Y-67162688D01*
X171308375Y-67162688D01*
X171207360Y-67129017D01*
X171140016Y-67061673D01*
X171106344Y-66960658D01*
X171106344Y-66893314D01*
X171140016Y-66792299D01*
X171241031Y-66623940D01*
X171274703Y-66522925D01*
X171274703Y-66455582D01*
X171241031Y-66354566D01*
X171173688Y-66287223D01*
X171072673Y-66253551D01*
X171005329Y-66253551D01*
X170904314Y-66287223D01*
X170735955Y-66455582D01*
X170668612Y-66590269D01*
X170399238Y-66792299D02*
X169961505Y-67230032D01*
X170466581Y-67263704D01*
X170365566Y-67364719D01*
X170331894Y-67465734D01*
X170331894Y-67533078D01*
X170365566Y-67634093D01*
X170533925Y-67802452D01*
X170634940Y-67836123D01*
X170702283Y-67836123D01*
X170803299Y-67802452D01*
X171005329Y-67600421D01*
X171039001Y-67499406D01*
X171039001Y-67432062D01*
X169995177Y-68610574D02*
X170399238Y-68206513D01*
X170197207Y-68408543D02*
X169490100Y-67701436D01*
X169658459Y-67735108D01*
X169793146Y-67735108D01*
X169894161Y-67701436D01*
X169086039Y-68778932D02*
X169321742Y-68543230D01*
X169692131Y-68913619D02*
X168985024Y-68206513D01*
X168648306Y-68543230D01*
X168749322Y-69856429D02*
X169086039Y-69519711D01*
X168378932Y-68812604D01*
X167873856Y-69317681D02*
X167436123Y-69755413D01*
X167941200Y-69789085D01*
X167840184Y-69890100D01*
X167806513Y-69991116D01*
X167806513Y-70058459D01*
X167840184Y-70159474D01*
X168008543Y-70327833D01*
X168109558Y-70361505D01*
X168176902Y-70361505D01*
X168277917Y-70327833D01*
X168479948Y-70125803D01*
X168513619Y-70024787D01*
X168513619Y-69957444D01*
X167200421Y-69991116D02*
X166729017Y-70462520D01*
X167739169Y-70866581D01*
X166526986Y-70664551D02*
X166089253Y-71102283D01*
X166594330Y-71135955D01*
X166493314Y-71236970D01*
X166459643Y-71337986D01*
X166459643Y-71405329D01*
X166493314Y-71506344D01*
X166661673Y-71674703D01*
X166762688Y-71708375D01*
X166830032Y-71708375D01*
X166931047Y-71674703D01*
X167133078Y-71472673D01*
X167166749Y-71371657D01*
X167166749Y-71304314D01*
X165483162Y-71708375D02*
X165617849Y-71573688D01*
X165718864Y-71540016D01*
X165786208Y-71540016D01*
X165954566Y-71573688D01*
X166122925Y-71674703D01*
X166392299Y-71944077D01*
X166425971Y-72045092D01*
X166425971Y-72112436D01*
X166392299Y-72213451D01*
X166257612Y-72348138D01*
X166156597Y-72381810D01*
X166089253Y-72381810D01*
X165988238Y-72348138D01*
X165819879Y-72179779D01*
X165786208Y-72078764D01*
X165786208Y-72011421D01*
X165819879Y-71910405D01*
X165954566Y-71775718D01*
X166055582Y-71742047D01*
X166122925Y-71742047D01*
X166223940Y-71775718D01*
X171621522Y-70944026D02*
X172193942Y-71516446D01*
X172227614Y-71617461D01*
X172227614Y-71684805D01*
X172193942Y-71785820D01*
X172059255Y-71920507D01*
X171958240Y-71954179D01*
X171890896Y-71954179D01*
X171789881Y-71920507D01*
X171217461Y-71348087D01*
X171082774Y-72088866D02*
X171116446Y-71987851D01*
X171116446Y-71920507D01*
X171082774Y-71819492D01*
X171049103Y-71785820D01*
X170948087Y-71752148D01*
X170880744Y-71752148D01*
X170779729Y-71785820D01*
X170645042Y-71920507D01*
X170611370Y-72021522D01*
X170611370Y-72088866D01*
X170645042Y-72189881D01*
X170678713Y-72223553D01*
X170779729Y-72257225D01*
X170847072Y-72257225D01*
X170948087Y-72223553D01*
X171082774Y-72088866D01*
X171183790Y-72055194D01*
X171251133Y-72055194D01*
X171352148Y-72088866D01*
X171486835Y-72223553D01*
X171520507Y-72324568D01*
X171520507Y-72391912D01*
X171486835Y-72492927D01*
X171352148Y-72627614D01*
X171251133Y-72661286D01*
X171183790Y-72661286D01*
X171082774Y-72627614D01*
X170948087Y-72492927D01*
X170914416Y-72391912D01*
X170914416Y-72324568D01*
X170948087Y-72223553D01*
X206137619Y-114032380D02*
X206613809Y-114032380D01*
X206613809Y-113032380D01*
X205804285Y-114032380D02*
X205804285Y-113365714D01*
X205804285Y-113032380D02*
X205851904Y-113080000D01*
X205804285Y-113127619D01*
X205756666Y-113080000D01*
X205804285Y-113032380D01*
X205804285Y-113127619D01*
X205328095Y-114032380D02*
X205328095Y-113032380D01*
X204947142Y-113032380D01*
X204851904Y-113080000D01*
X204804285Y-113127619D01*
X204756666Y-113222857D01*
X204756666Y-113365714D01*
X204804285Y-113460952D01*
X204851904Y-113508571D01*
X204947142Y-113556190D01*
X205328095Y-113556190D01*
X204185238Y-114032380D02*
X204280476Y-113984761D01*
X204328095Y-113937142D01*
X204375714Y-113841904D01*
X204375714Y-113556190D01*
X204328095Y-113460952D01*
X204280476Y-113413333D01*
X204185238Y-113365714D01*
X204042380Y-113365714D01*
X203947142Y-113413333D01*
X203899523Y-113460952D01*
X203851904Y-113556190D01*
X203851904Y-113841904D01*
X203899523Y-113937142D01*
X203947142Y-113984761D01*
X204042380Y-114032380D01*
X204185238Y-114032380D01*
X202090000Y-113937142D02*
X202137619Y-113984761D01*
X202280476Y-114032380D01*
X202375714Y-114032380D01*
X202518571Y-113984761D01*
X202613809Y-113889523D01*
X202661428Y-113794285D01*
X202709047Y-113603809D01*
X202709047Y-113460952D01*
X202661428Y-113270476D01*
X202613809Y-113175238D01*
X202518571Y-113080000D01*
X202375714Y-113032380D01*
X202280476Y-113032380D01*
X202137619Y-113080000D01*
X202090000Y-113127619D01*
X201661428Y-114032380D02*
X201661428Y-113032380D01*
X201232857Y-114032380D02*
X201232857Y-113508571D01*
X201280476Y-113413333D01*
X201375714Y-113365714D01*
X201518571Y-113365714D01*
X201613809Y-113413333D01*
X201661428Y-113460952D01*
X200328095Y-114032380D02*
X200328095Y-113508571D01*
X200375714Y-113413333D01*
X200470952Y-113365714D01*
X200661428Y-113365714D01*
X200756666Y-113413333D01*
X200328095Y-113984761D02*
X200423333Y-114032380D01*
X200661428Y-114032380D01*
X200756666Y-113984761D01*
X200804285Y-113889523D01*
X200804285Y-113794285D01*
X200756666Y-113699047D01*
X200661428Y-113651428D01*
X200423333Y-113651428D01*
X200328095Y-113603809D01*
X199851904Y-114032380D02*
X199851904Y-113365714D01*
X199851904Y-113556190D02*
X199804285Y-113460952D01*
X199756666Y-113413333D01*
X199661428Y-113365714D01*
X199566190Y-113365714D01*
X198804285Y-113365714D02*
X198804285Y-114175238D01*
X198851904Y-114270476D01*
X198899523Y-114318095D01*
X198994761Y-114365714D01*
X199137619Y-114365714D01*
X199232857Y-114318095D01*
X198804285Y-113984761D02*
X198899523Y-114032380D01*
X199090000Y-114032380D01*
X199185238Y-113984761D01*
X199232857Y-113937142D01*
X199280476Y-113841904D01*
X199280476Y-113556190D01*
X199232857Y-113460952D01*
X199185238Y-113413333D01*
X199090000Y-113365714D01*
X198899523Y-113365714D01*
X198804285Y-113413333D01*
X197947142Y-113984761D02*
X198042380Y-114032380D01*
X198232857Y-114032380D01*
X198328095Y-113984761D01*
X198375714Y-113889523D01*
X198375714Y-113508571D01*
X198328095Y-113413333D01*
X198232857Y-113365714D01*
X198042380Y-113365714D01*
X197947142Y-113413333D01*
X197899523Y-113508571D01*
X197899523Y-113603809D01*
X198375714Y-113699047D01*
X197470952Y-114032380D02*
X197470952Y-113365714D01*
X197470952Y-113556190D02*
X197423333Y-113460952D01*
X197375714Y-113413333D01*
X197280476Y-113365714D01*
X197185238Y-113365714D01*
X196090000Y-113508571D02*
X195756666Y-113508571D01*
X195613809Y-114032380D02*
X196090000Y-114032380D01*
X196090000Y-113032380D01*
X195613809Y-113032380D01*
X195185238Y-113365714D02*
X195185238Y-114032380D01*
X195185238Y-113460952D02*
X195137619Y-113413333D01*
X195042380Y-113365714D01*
X194899523Y-113365714D01*
X194804285Y-113413333D01*
X194756666Y-113508571D01*
X194756666Y-114032380D01*
X193851904Y-114032380D02*
X193851904Y-113508571D01*
X193899523Y-113413333D01*
X193994761Y-113365714D01*
X194185238Y-113365714D01*
X194280476Y-113413333D01*
X193851904Y-113984761D02*
X193947142Y-114032380D01*
X194185238Y-114032380D01*
X194280476Y-113984761D01*
X194328095Y-113889523D01*
X194328095Y-113794285D01*
X194280476Y-113699047D01*
X194185238Y-113651428D01*
X193947142Y-113651428D01*
X193851904Y-113603809D01*
X193375714Y-114032380D02*
X193375714Y-113032380D01*
X193375714Y-113413333D02*
X193280476Y-113365714D01*
X193090000Y-113365714D01*
X192994761Y-113413333D01*
X192947142Y-113460952D01*
X192899523Y-113556190D01*
X192899523Y-113841904D01*
X192947142Y-113937142D01*
X192994761Y-113984761D01*
X193090000Y-114032380D01*
X193280476Y-114032380D01*
X193375714Y-113984761D01*
X192328095Y-114032380D02*
X192423333Y-113984761D01*
X192470952Y-113889523D01*
X192470952Y-113032380D01*
X191566190Y-113984761D02*
X191661428Y-114032380D01*
X191851904Y-114032380D01*
X191947142Y-113984761D01*
X191994761Y-113889523D01*
X191994761Y-113508571D01*
X191947142Y-113413333D01*
X191851904Y-113365714D01*
X191661428Y-113365714D01*
X191566190Y-113413333D01*
X191518571Y-113508571D01*
X191518571Y-113603809D01*
X191994761Y-113699047D01*
X175323809Y-49544761D02*
X175180952Y-49592380D01*
X174942857Y-49592380D01*
X174847619Y-49544761D01*
X174800000Y-49497142D01*
X174752380Y-49401904D01*
X174752380Y-49306666D01*
X174800000Y-49211428D01*
X174847619Y-49163809D01*
X174942857Y-49116190D01*
X175133333Y-49068571D01*
X175228571Y-49020952D01*
X175276190Y-48973333D01*
X175323809Y-48878095D01*
X175323809Y-48782857D01*
X175276190Y-48687619D01*
X175228571Y-48640000D01*
X175133333Y-48592380D01*
X174895238Y-48592380D01*
X174752380Y-48640000D01*
X174323809Y-49592380D02*
X174323809Y-48592380D01*
X173942857Y-48592380D01*
X173847619Y-48640000D01*
X173800000Y-48687619D01*
X173752380Y-48782857D01*
X173752380Y-48925714D01*
X173800000Y-49020952D01*
X173847619Y-49068571D01*
X173942857Y-49116190D01*
X174323809Y-49116190D01*
X173133333Y-48592380D02*
X173038095Y-48592380D01*
X172942857Y-48640000D01*
X172895238Y-48687619D01*
X172847619Y-48782857D01*
X172800000Y-48973333D01*
X172800000Y-49211428D01*
X172847619Y-49401904D01*
X172895238Y-49497142D01*
X172942857Y-49544761D01*
X173038095Y-49592380D01*
X173133333Y-49592380D01*
X173228571Y-49544761D01*
X173276190Y-49497142D01*
X173323809Y-49401904D01*
X173371428Y-49211428D01*
X173371428Y-48973333D01*
X173323809Y-48782857D01*
X173276190Y-48687619D01*
X173228571Y-48640000D01*
X173133333Y-48592380D01*
X171895238Y-48592380D02*
X172371428Y-48592380D01*
X172419047Y-49068571D01*
X172371428Y-49020952D01*
X172276190Y-48973333D01*
X172038095Y-48973333D01*
X171942857Y-49020952D01*
X171895238Y-49068571D01*
X171847619Y-49163809D01*
X171847619Y-49401904D01*
X171895238Y-49497142D01*
X171942857Y-49544761D01*
X172038095Y-49592380D01*
X172276190Y-49592380D01*
X172371428Y-49544761D01*
X172419047Y-49497142D01*
X171228571Y-48592380D02*
X171133333Y-48592380D01*
X171038095Y-48640000D01*
X170990476Y-48687619D01*
X170942857Y-48782857D01*
X170895238Y-48973333D01*
X170895238Y-49211428D01*
X170942857Y-49401904D01*
X170990476Y-49497142D01*
X171038095Y-49544761D01*
X171133333Y-49592380D01*
X171228571Y-49592380D01*
X171323809Y-49544761D01*
X171371428Y-49497142D01*
X171419047Y-49401904D01*
X171466666Y-49211428D01*
X171466666Y-48973333D01*
X171419047Y-48782857D01*
X171371428Y-48687619D01*
X171323809Y-48640000D01*
X171228571Y-48592380D01*
X170561904Y-48592380D02*
X169942857Y-48592380D01*
X170276190Y-48973333D01*
X170133333Y-48973333D01*
X170038095Y-49020952D01*
X169990476Y-49068571D01*
X169942857Y-49163809D01*
X169942857Y-49401904D01*
X169990476Y-49497142D01*
X170038095Y-49544761D01*
X170133333Y-49592380D01*
X170419047Y-49592380D01*
X170514285Y-49544761D01*
X170561904Y-49497142D01*
X169180952Y-49068571D02*
X169038095Y-49116190D01*
X168990476Y-49163809D01*
X168942857Y-49259047D01*
X168942857Y-49401904D01*
X168990476Y-49497142D01*
X169038095Y-49544761D01*
X169133333Y-49592380D01*
X169514285Y-49592380D01*
X169514285Y-48592380D01*
X169180952Y-48592380D01*
X169085714Y-48640000D01*
X169038095Y-48687619D01*
X168990476Y-48782857D01*
X168990476Y-48878095D01*
X169038095Y-48973333D01*
X169085714Y-49020952D01*
X169180952Y-49068571D01*
X169514285Y-49068571D01*
X168561904Y-49306666D02*
X168085714Y-49306666D01*
X168657142Y-49592380D02*
X168323809Y-48592380D01*
X167990476Y-49592380D01*
X167657142Y-49592380D02*
X167657142Y-48592380D01*
X167657142Y-49068571D02*
X167085714Y-49068571D01*
X167085714Y-49592380D02*
X167085714Y-48592380D01*
X166752380Y-48592380D02*
X166180952Y-48592380D01*
X166466666Y-49592380D02*
X166466666Y-48592380D01*
D16*
X164073809Y-50699047D02*
X164573809Y-50699047D01*
X164573809Y-50580000D01*
X164550000Y-50508571D01*
X164502380Y-50460952D01*
X164454761Y-50437142D01*
X164359523Y-50413333D01*
X164288095Y-50413333D01*
X164192857Y-50437142D01*
X164145238Y-50460952D01*
X164097619Y-50508571D01*
X164073809Y-50580000D01*
X164073809Y-50699047D01*
X164526190Y-50222857D02*
X164550000Y-50199047D01*
X164573809Y-50151428D01*
X164573809Y-50032380D01*
X164550000Y-49984761D01*
X164526190Y-49960952D01*
X164478571Y-49937142D01*
X164430952Y-49937142D01*
X164359523Y-49960952D01*
X164073809Y-50246666D01*
X164073809Y-49937142D01*
D11*
X183639047Y-108022380D02*
X184115238Y-108022380D01*
X184162857Y-108498571D01*
X184115238Y-108450952D01*
X184020000Y-108403333D01*
X183781904Y-108403333D01*
X183686666Y-108450952D01*
X183639047Y-108498571D01*
X183591428Y-108593809D01*
X183591428Y-108831904D01*
X183639047Y-108927142D01*
X183686666Y-108974761D01*
X183781904Y-109022380D01*
X184020000Y-109022380D01*
X184115238Y-108974761D01*
X184162857Y-108927142D01*
X183258095Y-108022380D02*
X182639047Y-108022380D01*
X182972380Y-108403333D01*
X182829523Y-108403333D01*
X182734285Y-108450952D01*
X182686666Y-108498571D01*
X182639047Y-108593809D01*
X182639047Y-108831904D01*
X182686666Y-108927142D01*
X182734285Y-108974761D01*
X182829523Y-109022380D01*
X183115238Y-109022380D01*
X183210476Y-108974761D01*
X183258095Y-108927142D01*
X181781904Y-108022380D02*
X181972380Y-108022380D01*
X182067619Y-108070000D01*
X182115238Y-108117619D01*
X182210476Y-108260476D01*
X182258095Y-108450952D01*
X182258095Y-108831904D01*
X182210476Y-108927142D01*
X182162857Y-108974761D01*
X182067619Y-109022380D01*
X181877142Y-109022380D01*
X181781904Y-108974761D01*
X181734285Y-108927142D01*
X181686666Y-108831904D01*
X181686666Y-108593809D01*
X181734285Y-108498571D01*
X181781904Y-108450952D01*
X181877142Y-108403333D01*
X182067619Y-108403333D01*
X182162857Y-108450952D01*
X182210476Y-108498571D01*
X182258095Y-108593809D01*
X181258095Y-109022380D02*
X181258095Y-108022380D01*
X181162857Y-108641428D02*
X180877142Y-109022380D01*
X180877142Y-108355714D02*
X181258095Y-108736666D01*
D14*
X180000952Y-107492857D02*
X179810476Y-107359523D01*
X180000952Y-107264285D02*
X179600952Y-107264285D01*
X179600952Y-107416666D01*
X179620000Y-107454761D01*
X179639047Y-107473809D01*
X179677142Y-107492857D01*
X179734285Y-107492857D01*
X179772380Y-107473809D01*
X179791428Y-107454761D01*
X179810476Y-107416666D01*
X179810476Y-107264285D01*
X179639047Y-107645238D02*
X179620000Y-107664285D01*
X179600952Y-107702380D01*
X179600952Y-107797619D01*
X179620000Y-107835714D01*
X179639047Y-107854761D01*
X179677142Y-107873809D01*
X179715238Y-107873809D01*
X179772380Y-107854761D01*
X180000952Y-107626190D01*
X180000952Y-107873809D01*
X179600952Y-108007142D02*
X179600952Y-108254761D01*
X179753333Y-108121428D01*
X179753333Y-108178571D01*
X179772380Y-108216666D01*
X179791428Y-108235714D01*
X179829523Y-108254761D01*
X179924761Y-108254761D01*
X179962857Y-108235714D01*
X179981904Y-108216666D01*
X180000952Y-108178571D01*
X180000952Y-108064285D01*
X179981904Y-108026190D01*
X179962857Y-108007142D01*
D11*
X183431428Y-104072380D02*
X184002857Y-104072380D01*
X183717142Y-104072380D02*
X183717142Y-103072380D01*
X183812380Y-103215238D01*
X183907619Y-103310476D01*
X184002857Y-103358095D01*
X182479047Y-104072380D02*
X183050476Y-104072380D01*
X182764761Y-104072380D02*
X182764761Y-103072380D01*
X182860000Y-103215238D01*
X182955238Y-103310476D01*
X183050476Y-103358095D01*
X181907619Y-103500952D02*
X182002857Y-103453333D01*
X182050476Y-103405714D01*
X182098095Y-103310476D01*
X182098095Y-103262857D01*
X182050476Y-103167619D01*
X182002857Y-103120000D01*
X181907619Y-103072380D01*
X181717142Y-103072380D01*
X181621904Y-103120000D01*
X181574285Y-103167619D01*
X181526666Y-103262857D01*
X181526666Y-103310476D01*
X181574285Y-103405714D01*
X181621904Y-103453333D01*
X181717142Y-103500952D01*
X181907619Y-103500952D01*
X182002857Y-103548571D01*
X182050476Y-103596190D01*
X182098095Y-103691428D01*
X182098095Y-103881904D01*
X182050476Y-103977142D01*
X182002857Y-104024761D01*
X181907619Y-104072380D01*
X181717142Y-104072380D01*
X181621904Y-104024761D01*
X181574285Y-103977142D01*
X181526666Y-103881904D01*
X181526666Y-103691428D01*
X181574285Y-103596190D01*
X181621904Y-103548571D01*
X181717142Y-103500952D01*
X181098095Y-104072380D02*
X181098095Y-103072380D01*
X181002857Y-103691428D02*
X180717142Y-104072380D01*
X180717142Y-103405714D02*
X181098095Y-103786666D01*
D14*
X180000952Y-104312857D02*
X179810476Y-104179523D01*
X180000952Y-104084285D02*
X179600952Y-104084285D01*
X179600952Y-104236666D01*
X179620000Y-104274761D01*
X179639047Y-104293809D01*
X179677142Y-104312857D01*
X179734285Y-104312857D01*
X179772380Y-104293809D01*
X179791428Y-104274761D01*
X179810476Y-104236666D01*
X179810476Y-104084285D01*
X179639047Y-104465238D02*
X179620000Y-104484285D01*
X179600952Y-104522380D01*
X179600952Y-104617619D01*
X179620000Y-104655714D01*
X179639047Y-104674761D01*
X179677142Y-104693809D01*
X179715238Y-104693809D01*
X179772380Y-104674761D01*
X180000952Y-104446190D01*
X180000952Y-104693809D01*
X179734285Y-105036666D02*
X180000952Y-105036666D01*
X179581904Y-104941428D02*
X179867619Y-104846190D01*
X179867619Y-105093809D01*
D11*
X199391666Y-61577380D02*
X199391666Y-62291666D01*
X199439285Y-62434523D01*
X199534523Y-62529761D01*
X199677380Y-62577380D01*
X199772619Y-62577380D01*
X199058333Y-61577380D02*
X198486904Y-61577380D01*
X198772619Y-62577380D02*
X198772619Y-61577380D01*
X198201190Y-62291666D02*
X197725000Y-62291666D01*
X198296428Y-62577380D02*
X197963095Y-61577380D01*
X197629761Y-62577380D01*
X196772619Y-61625000D02*
X196867857Y-61577380D01*
X197010714Y-61577380D01*
X197153571Y-61625000D01*
X197248809Y-61720238D01*
X197296428Y-61815476D01*
X197344047Y-62005952D01*
X197344047Y-62148809D01*
X197296428Y-62339285D01*
X197248809Y-62434523D01*
X197153571Y-62529761D01*
X197010714Y-62577380D01*
X196915476Y-62577380D01*
X196772619Y-62529761D01*
X196725000Y-62482142D01*
X196725000Y-62148809D01*
X196915476Y-62148809D01*
X197677380Y-57556666D02*
X198391666Y-57556666D01*
X198534523Y-57509047D01*
X198629761Y-57413809D01*
X198677380Y-57270952D01*
X198677380Y-57175714D01*
X198677380Y-58556666D02*
X198677380Y-57985238D01*
X198677380Y-58270952D02*
X197677380Y-58270952D01*
X197820238Y-58175714D01*
X197915476Y-58080476D01*
X197963095Y-57985238D01*
X172467619Y-84382380D02*
X172943809Y-84382380D01*
X172943809Y-83382380D01*
X171562857Y-84287142D02*
X171610476Y-84334761D01*
X171753333Y-84382380D01*
X171848571Y-84382380D01*
X171991428Y-84334761D01*
X172086666Y-84239523D01*
X172134285Y-84144285D01*
X172181904Y-83953809D01*
X172181904Y-83810952D01*
X172134285Y-83620476D01*
X172086666Y-83525238D01*
X171991428Y-83430000D01*
X171848571Y-83382380D01*
X171753333Y-83382380D01*
X171610476Y-83430000D01*
X171562857Y-83477619D01*
X171134285Y-84382380D02*
X171134285Y-83382380D01*
X170896190Y-83382380D01*
X170753333Y-83430000D01*
X170658095Y-83525238D01*
X170610476Y-83620476D01*
X170562857Y-83810952D01*
X170562857Y-83953809D01*
X170610476Y-84144285D01*
X170658095Y-84239523D01*
X170753333Y-84334761D01*
X170896190Y-84382380D01*
X171134285Y-84382380D01*
X170372380Y-84477619D02*
X169610476Y-84477619D01*
X168800952Y-84382380D02*
X169134285Y-83906190D01*
X169372380Y-84382380D02*
X169372380Y-83382380D01*
X168991428Y-83382380D01*
X168896190Y-83430000D01*
X168848571Y-83477619D01*
X168800952Y-83572857D01*
X168800952Y-83715714D01*
X168848571Y-83810952D01*
X168896190Y-83858571D01*
X168991428Y-83906190D01*
X169372380Y-83906190D01*
X168420000Y-84334761D02*
X168277142Y-84382380D01*
X168039047Y-84382380D01*
X167943809Y-84334761D01*
X167896190Y-84287142D01*
X167848571Y-84191904D01*
X167848571Y-84096666D01*
X167896190Y-84001428D01*
X167943809Y-83953809D01*
X168039047Y-83906190D01*
X168229523Y-83858571D01*
X168324761Y-83810952D01*
X168372380Y-83763333D01*
X168420000Y-83668095D01*
X168420000Y-83572857D01*
X168372380Y-83477619D01*
X168324761Y-83430000D01*
X168229523Y-83382380D01*
X167991428Y-83382380D01*
X167848571Y-83430000D01*
X170753333Y-86782380D02*
X170753333Y-87496666D01*
X170800952Y-87639523D01*
X170896190Y-87734761D01*
X171039047Y-87782380D01*
X171134285Y-87782380D01*
X170372380Y-86782380D02*
X169753333Y-86782380D01*
X170086666Y-87163333D01*
X169943809Y-87163333D01*
X169848571Y-87210952D01*
X169800952Y-87258571D01*
X169753333Y-87353809D01*
X169753333Y-87591904D01*
X169800952Y-87687142D01*
X169848571Y-87734761D01*
X169943809Y-87782380D01*
X170229523Y-87782380D01*
X170324761Y-87734761D01*
X170372380Y-87687142D01*
M02*
