%TF.GenerationSoftware,KiCad,Pcbnew,(6.0.5)*%
%TF.CreationDate,2022-07-11T11:07:48-06:00*%
%TF.ProjectId,MiniMageSpells,4d696e69-4d61-4676-9553-70656c6c732e,1.0*%
%TF.SameCoordinates,PX6e486c0PY7ba4d50*%
%TF.FileFunction,Profile,NP*%
%FSLAX46Y46*%
G04 Gerber Fmt 4.6, Leading zero omitted, Abs format (unit mm)*
G04 Created by KiCad (PCBNEW (6.0.5)) date 2022-07-11 11:07:48*
%MOMM*%
%LPD*%
G01*
G04 APERTURE LIST*
%TA.AperFunction,Profile*%
%ADD10C,0.100000*%
%TD*%
%ADD11C,0.250000*%
G04 APERTURE END LIST*
D10*
X1666666Y0D02*
G75*
G03*
X1666666Y0I-1666666J0D01*
G01*
X-2500000Y0D02*
X2500000Y0D01*
X0Y2500000D02*
X0Y-2500000D01*
D11*
X-754869Y42844949D02*
X-1423907Y41426431D01*
X-2872591Y44077260D02*
X-2619598Y43903469D01*
X-2362269Y43736907D01*
X-2101100Y43576781D01*
X-1836581Y43422299D01*
X-1569207Y43272668D01*
X-1299468Y43127094D01*
X-1027858Y42984786D01*
X-754869Y42844949D01*
X-3316061Y44495301D02*
X-3130144Y44302124D01*
X-2933005Y44122644D01*
X-2872591Y44077260D01*
X-3662530Y45410210D02*
X-3609841Y45136127D01*
X-3538131Y44868336D01*
X-3416533Y44620006D01*
X-3316061Y44495301D01*
X-3628144Y45680090D02*
X-3665084Y45426209D01*
X-3662530Y45410210D01*
X-3519279Y46153619D02*
X-3573428Y45901650D01*
X-3628144Y45680090D01*
X-3147208Y46897953D02*
X-3309950Y46689551D01*
X-3433830Y46461205D01*
X-3510390Y46207770D01*
X-3519279Y46153619D01*
X-2139475Y48010331D02*
X-2330680Y47803857D01*
X-2520370Y47595965D01*
X-2708973Y47387061D01*
X-2896914Y47177549D01*
X-3084619Y46967834D01*
X-3147208Y46897953D01*
X-1096580Y49090692D02*
X-1295834Y48891837D01*
X-1493029Y48690862D01*
X-1688476Y48488133D01*
X-1882488Y48284016D01*
X-2075376Y48078876D01*
X-2139475Y48010331D01*
X547097Y50676749D02*
X340564Y50479608D01*
X134125Y50282356D01*
X-72113Y50084889D01*
X-278045Y49887104D01*
X-483563Y49688896D01*
X-688563Y49490161D01*
X-892938Y49290795D01*
X-1096580Y49090692D01*
X2980820Y52775544D02*
X2745587Y52587027D01*
X2511456Y52397206D01*
X2278552Y52205943D01*
X2047000Y52013098D01*
X1816924Y51818531D01*
X1588451Y51622104D01*
X1361704Y51423677D01*
X1136810Y51223111D01*
X913892Y51020266D01*
X693077Y50815004D01*
X547097Y50676749D01*
X6687032Y55407813D02*
X6444889Y55258083D01*
X6204386Y55106038D01*
X5965472Y54951753D01*
X5728096Y54795301D01*
X5492206Y54636755D01*
X5257751Y54476189D01*
X5024679Y54313676D01*
X4792940Y54149290D01*
X4562481Y53983103D01*
X4333252Y53815189D01*
X4105200Y53645621D01*
X3878276Y53474473D01*
X3652427Y53301818D01*
X3427602Y53127730D01*
X3203750Y52952281D01*
X2980820Y52775544D01*
X6832781Y55507548D02*
X6687032Y55407813D01*
X6723184Y55942728D02*
X6785863Y55694972D01*
X6832781Y55507548D01*
X6548539Y56638745D02*
X6604327Y56376237D01*
X6675935Y56116194D01*
X6723184Y55942728D01*
X6552996Y57160720D02*
X6539350Y56897973D01*
X6548539Y56638745D01*
X6560619Y57202277D02*
X6552996Y57160720D01*
X7190124Y58420872D02*
X7022754Y58217841D01*
X6870344Y58007115D01*
X6739924Y57785046D01*
X6638525Y57547985D01*
X6573175Y57292284D01*
X6560619Y57202277D01*
X7592382Y58892053D02*
X7426466Y58697297D01*
X7252119Y58493058D01*
X7190124Y58420872D01*
X7433111Y59019328D02*
X7592382Y58892053D01*
X6698853Y60120036D02*
X6773626Y59870015D01*
X6880599Y59642837D01*
X7042291Y59403422D01*
X7239402Y59187928D01*
X7433111Y59019328D01*
X6532175Y61564607D02*
X6542375Y61291345D01*
X6561749Y61019288D01*
X6590784Y60748350D01*
X6629970Y60478446D01*
X6679795Y60209492D01*
X6698853Y60120036D01*
X6496088Y63296952D02*
X6494145Y63026417D01*
X6497279Y62755795D01*
X6503944Y62485109D01*
X6512590Y62214382D01*
X6521673Y61943637D01*
X6529644Y61672897D01*
X6532175Y61564607D01*
X6856703Y64712886D02*
X6721912Y64466809D01*
X6623955Y64208585D01*
X6557585Y63941084D01*
X6517555Y63667175D01*
X6498619Y63389726D01*
X6496088Y63296952D01*
X7587494Y65669999D02*
X7415907Y65470192D01*
X7250290Y65264683D01*
X7091339Y65053878D01*
X6939751Y64838181D01*
X6856703Y64712886D01*
X9751143Y68352178D02*
X9562410Y68089387D01*
X9370106Y67829486D01*
X9174455Y67572288D01*
X8975685Y67317604D01*
X8774020Y67065245D01*
X8569687Y66815021D01*
X8362911Y66566745D01*
X8153920Y66320226D01*
X7942938Y66075276D01*
X7730193Y65831706D01*
X7587494Y65669999D01*
X9948138Y68699702D02*
X9826825Y68466920D01*
X9751143Y68352178D01*
X11661276Y70625790D02*
X11448238Y70492673D01*
X11180509Y70300249D01*
X10931710Y70090586D01*
X10702146Y69863500D01*
X10492120Y69618806D01*
X10301935Y69356318D01*
X10131896Y69075851D01*
X9982305Y68777220D01*
X9948138Y68699702D01*
X12249376Y70855018D02*
X12002672Y70780955D01*
X11764784Y70681671D01*
X11661276Y70625790D01*
X13628340Y71172440D02*
X13370158Y71111329D01*
X13111204Y71053343D01*
X12852017Y70996333D01*
X12593137Y70938147D01*
X12335105Y70876634D01*
X12249376Y70855018D01*
X16476809Y71885812D02*
X16209543Y71819834D01*
X15942410Y71753319D01*
X15675378Y71686387D01*
X15408419Y71619162D01*
X15141502Y71551764D01*
X14874597Y71484314D01*
X14607676Y71416935D01*
X14340708Y71349747D01*
X14073664Y71282873D01*
X13806513Y71216432D01*
X13628340Y71172440D01*
X17566321Y71889494D02*
X17292766Y71929748D01*
X17019837Y71946080D01*
X16747771Y71933199D01*
X16476809Y71885812D01*
X19193159Y71251871D02*
X18949256Y71377171D01*
X18703475Y71497729D01*
X18454500Y71610296D01*
X18201009Y71711622D01*
X17941685Y71798457D01*
X17675209Y71867552D01*
X17566321Y71889494D01*
X20330364Y70644587D02*
X20080265Y70774782D01*
X19831902Y70908388D01*
X19584122Y71043157D01*
X19335772Y71176837D01*
X19193159Y71251871D01*
X21881647Y68796358D02*
X21760809Y69088682D01*
X21622405Y69366095D01*
X21464779Y69627298D01*
X21286275Y69870989D01*
X21085237Y70095864D01*
X20860010Y70300624D01*
X20608937Y70483966D01*
X20330364Y70644587D01*
X22147329Y68106650D02*
X22055599Y68343595D01*
X21963879Y68580530D01*
X21881647Y68796358D01*
X22719301Y66629285D02*
X22608654Y66904907D01*
X22500633Y67181596D01*
X22394287Y67458967D01*
X22288667Y67736634D01*
X22182824Y68014211D01*
X22147329Y68106650D01*
X23050482Y65969614D02*
X22926353Y66191119D01*
X22812184Y66418278D01*
X22719301Y66629285D01*
X24149231Y64138115D02*
X24008547Y64364982D01*
X23869151Y64592660D01*
X23730878Y64821041D01*
X23593558Y65050013D01*
X23457026Y65279467D01*
X23321113Y65509292D01*
X23185654Y65739378D01*
X23050482Y65969614D01*
X26563876Y60613869D02*
X26405707Y60829178D01*
X26248311Y61045020D01*
X26091730Y61261422D01*
X25936006Y61478413D01*
X25781180Y61696019D01*
X25627293Y61914268D01*
X25474387Y62133187D01*
X25322503Y62352803D01*
X25171684Y62573144D01*
X25021970Y62794237D01*
X24873403Y63016109D01*
X24726025Y63238788D01*
X24579877Y63462300D01*
X24435001Y63686674D01*
X24291438Y63911937D01*
X24149231Y64138115D01*
X28480706Y58005695D02*
X28302199Y58251080D01*
X28123284Y58496170D01*
X27944016Y58741005D01*
X27764451Y58985624D01*
X27584644Y59230069D01*
X27404652Y59474378D01*
X27224530Y59718591D01*
X27044335Y59962749D01*
X26864121Y60206892D01*
X26683945Y60451058D01*
X26563876Y60613869D01*
X28855209Y56793322D02*
X28829722Y57076254D01*
X28777839Y57351601D01*
X28693485Y57616632D01*
X28570581Y57868615D01*
X28480706Y58005695D01*
X29090639Y56388093D02*
X28910435Y56561971D01*
X28855209Y56793322D01*
X34848857Y52241275D02*
X34512571Y52533191D01*
X34173282Y52820965D01*
X33830960Y53104551D01*
X33485573Y53383898D01*
X33137091Y53658961D01*
X32785482Y53929690D01*
X32430716Y54196039D01*
X32072761Y54457957D01*
X31711587Y54715399D01*
X31347164Y54968315D01*
X30979459Y55216658D01*
X30608442Y55460380D01*
X30234083Y55699432D01*
X29856350Y55933767D01*
X29475212Y56163337D01*
X29090639Y56388093D01*
X37181661Y49998388D02*
X36967123Y50213023D01*
X36752545Y50427613D01*
X36537642Y50641861D01*
X36322131Y50855470D01*
X36105728Y51068143D01*
X35888147Y51279583D01*
X35669105Y51489493D01*
X35448318Y51697577D01*
X35225501Y51903536D01*
X35000370Y52107075D01*
X34848857Y52241275D01*
X39860309Y47062047D02*
X39618371Y47345678D01*
X39374964Y47627969D01*
X39129938Y47908786D01*
X38883144Y48187996D01*
X38634433Y48465464D01*
X38383656Y48741055D01*
X38130664Y49014635D01*
X37875307Y49286070D01*
X37617436Y49555226D01*
X37356902Y49821968D01*
X37181661Y49998388D01*
X40197906Y46602536D02*
X40053442Y46826192D01*
X39894974Y47021213D01*
X39860309Y47062047D01*
X40362194Y45582077D02*
X40389655Y45848622D01*
X40368716Y46108133D01*
X40303443Y46359731D01*
X40197906Y46602536D01*
X40272105Y45190801D02*
X40329064Y45435220D01*
X40362194Y45582077D01*
X39587759Y44156260D02*
X39795998Y44343161D01*
X39977387Y44548345D01*
X40125006Y44776228D01*
X40231935Y45031221D01*
X40272105Y45190801D01*
X38461083Y43537349D02*
X38718502Y43653033D01*
X38973373Y43773449D01*
X39221509Y43905948D01*
X39458723Y44057884D01*
X39587759Y44156260D01*
X37906530Y42282796D02*
X38461083Y43537349D01*
X38837417Y41405136D02*
X38736408Y41648682D01*
X38578912Y41886496D01*
X38375039Y42074705D01*
X38120930Y42213606D01*
X37906530Y42282796D01*
X39564483Y39265473D02*
X39473007Y39532734D01*
X39381294Y39799917D01*
X39289547Y40067090D01*
X39197970Y40334320D01*
X39106765Y40601673D01*
X39016136Y40869215D01*
X38926285Y41137014D01*
X38837417Y41405136D01*
X39606297Y39194870D02*
X39564483Y39265473D01*
X40322813Y39408445D02*
X40074797Y39336810D01*
X39828563Y39262295D01*
X39606297Y39194870D01*
X41039220Y39591767D02*
X40792518Y39530389D01*
X40546043Y39468105D01*
X40322813Y39408445D01*
X41143327Y39605289D02*
X41039220Y39591767D01*
X42245219Y38933560D02*
X42105126Y39158453D01*
X41894260Y39353229D01*
X41642100Y39486409D01*
X41400878Y39560453D01*
X41143327Y39605289D01*
X42368230Y38095777D02*
X42397825Y38345421D01*
X42363074Y38610406D01*
X42277592Y38861240D01*
X42245219Y38933560D01*
X41939295Y36682104D02*
X42035997Y36942060D01*
X42123133Y37204978D01*
X42202552Y37470314D01*
X42276101Y37737524D01*
X42345628Y38006063D01*
X42368230Y38095777D01*
X41983715Y36353851D02*
X41916585Y36604368D01*
X41939295Y36682104D01*
X42267203Y35792430D02*
X42172573Y36028839D01*
X42047128Y36254073D01*
X41983715Y36353851D01*
X42554395Y34049771D02*
X42557547Y34329798D01*
X42537534Y34606326D01*
X42498023Y34879787D01*
X42442679Y35150613D01*
X42375171Y35419237D01*
X42299164Y35686089D01*
X42267203Y35792430D01*
X41715600Y31843166D02*
X41912774Y32083723D01*
X42079684Y32335935D01*
X42218271Y32599013D01*
X42330479Y32872168D01*
X42418252Y33154611D01*
X42483534Y33445552D01*
X42528267Y33744202D01*
X42554395Y34049771D01*
X40055043Y30754494D02*
X40293994Y30842781D01*
X40523870Y30944959D01*
X40798533Y31092038D01*
X41059208Y31260408D01*
X41306003Y31449842D01*
X41493518Y31616399D01*
X41672273Y31796172D01*
X41715600Y31843166D01*
X39914784Y30702753D02*
X40055043Y30754494D01*
X39914332Y30245869D02*
X39915650Y30504196D01*
X39914784Y30702753D01*
X39420973Y27170411D02*
X39506366Y27452637D01*
X39583127Y27736180D01*
X39651439Y28021022D01*
X39711489Y28307143D01*
X39763462Y28594524D01*
X39807542Y28883145D01*
X39843914Y29172987D01*
X39872765Y29464030D01*
X39894278Y29756255D01*
X39908639Y30049642D01*
X39914332Y30245869D01*
X38354177Y25440047D02*
X38530951Y25627659D01*
X38696171Y25823246D01*
X38849409Y26026918D01*
X38990241Y26238785D01*
X39118239Y26458957D01*
X39232978Y26687546D01*
X39334031Y26924661D01*
X39420973Y27170411D01*
X35801276Y23886653D02*
X36077475Y23971388D01*
X36345375Y24070198D01*
X36605207Y24182573D01*
X36857205Y24308000D01*
X37101601Y24445970D01*
X37338630Y24595972D01*
X37568522Y24757494D01*
X37791512Y24930025D01*
X38007832Y25113055D01*
X38217715Y25306073D01*
X38354177Y25440047D01*
X35721306Y23454186D02*
X35768684Y23711017D01*
X35801276Y23886653D01*
X35024794Y22412109D02*
X35249909Y22591708D01*
X35436033Y22797098D01*
X35581123Y23029782D01*
X35683138Y23291262D01*
X35721306Y23454186D01*
X34442831Y22002444D02*
X34648339Y22148036D01*
X34864469Y22300827D01*
X35024794Y22412109D01*
X34629771Y21785210D02*
X34462139Y21979854D01*
X34442831Y22002444D01*
X35406338Y20077433D02*
X35337318Y20370610D01*
X35255298Y20656094D01*
X35155930Y20932481D01*
X35034865Y21198363D01*
X34887756Y21452335D01*
X34710255Y21692992D01*
X34629771Y21785210D01*
X35313084Y18704368D02*
X35375312Y18957542D01*
X35422801Y19210809D01*
X35450230Y19465862D01*
X35452280Y19724392D01*
X35423629Y19988092D01*
X35406338Y20077433D01*
X34504585Y16902239D02*
X34642529Y17111459D01*
X34798505Y17380025D01*
X34937303Y17656013D01*
X35060110Y17938993D01*
X35168112Y18228533D01*
X35262496Y18524203D01*
X35313084Y18704368D01*
X33757903Y16221854D02*
X33956277Y16378419D01*
X34154014Y16535183D01*
X34340365Y16705379D01*
X34504585Y16902239D01*
X32963809Y15847049D02*
X33205387Y15914430D01*
X33457293Y16022575D01*
X33691282Y16169581D01*
X33757903Y16221854D01*
X31437179Y15508892D02*
X31724424Y15567062D01*
X32010790Y15629768D01*
X32296652Y15695103D01*
X32582385Y15761157D01*
X32868363Y15826022D01*
X32963809Y15847049D01*
X30819754Y15424271D02*
X31071788Y15452248D01*
X31322327Y15488336D01*
X31437179Y15508892D01*
X34181629Y3525579D02*
X30819754Y15424271D01*
X33920146Y2136172D02*
X34067305Y2370635D01*
X34170445Y2623873D01*
X34228421Y2889810D01*
X34240087Y3162370D01*
X34204300Y3435474D01*
X34181629Y3525579D01*
X32654073Y1506409D02*
X32929929Y1530518D01*
X33194162Y1601026D01*
X33441254Y1715208D01*
X33665687Y1870340D01*
X33861943Y2063697D01*
X33920146Y2136172D01*
X4042900Y1506409D02*
X32654073Y1506409D01*
X2753745Y2167522D02*
X2939705Y1952357D01*
X3157992Y1775910D01*
X3402673Y1641222D01*
X3667812Y1551330D01*
X3947476Y1509273D01*
X4042900Y1506409D01*
X2538254Y3599993D02*
X2472078Y3323474D01*
X2456206Y3043257D01*
X2489636Y2765965D01*
X2571367Y2498220D01*
X2700397Y2246644D01*
X2753745Y2167522D01*
X6424710Y15154370D02*
X2538254Y3599993D01*
X5903380Y15186689D02*
X6164004Y15167575D01*
X6424710Y15154370D01*
X2510801Y16004167D02*
X2816041Y15874880D01*
X3124341Y15758232D01*
X3435559Y15653617D01*
X3749554Y15560433D01*
X4066185Y15478074D01*
X4385309Y15405937D01*
X4706786Y15343417D01*
X5030475Y15289910D01*
X5356233Y15244811D01*
X5683920Y15207516D01*
X5903380Y15186689D01*
X1600219Y16736250D02*
X1761192Y16527862D01*
X1946075Y16349326D01*
X2151941Y16197335D01*
X2375864Y16068581D01*
X2510801Y16004167D01*
X1046894Y17562319D02*
X1201968Y17329628D01*
X1358299Y17097760D01*
X1514290Y16865670D01*
X1600219Y16736250D01*
X970262Y17734208D02*
X1046894Y17562319D01*
X483169Y19572360D02*
X556119Y19284351D01*
X630862Y18996790D01*
X706973Y18709573D01*
X784027Y18422596D01*
X861599Y18135755D01*
X939264Y17848946D01*
X970262Y17734208D01*
X457309Y20221696D02*
X440055Y19953904D01*
X459063Y19691446D01*
X483169Y19572360D01*
X1549404Y22021909D02*
X1324312Y21850825D01*
X1124222Y21664801D01*
X949288Y21463601D01*
X799662Y21246989D01*
X675498Y21014729D01*
X576949Y20766584D01*
X504168Y20502319D01*
X457309Y20221696D01*
X2096227Y22395487D02*
X1881431Y22249034D01*
X1663577Y22100325D01*
X1549404Y22021909D01*
X1862886Y22685004D02*
X2021864Y22491859D01*
X2096227Y22395487D01*
X1082421Y24111230D02*
X1147240Y23857122D01*
X1234425Y23615354D01*
X1343152Y23385406D01*
X1472600Y23166759D01*
X1621944Y22958893D01*
X1790362Y22761289D01*
X1862886Y22685004D01*
X942831Y24920612D02*
X959650Y24662592D01*
X1011428Y24411246D01*
X1071683Y24161453D01*
X1082421Y24111230D01*
X1115904Y25850487D02*
X1032231Y25598719D01*
X979279Y25337374D01*
X950620Y25070193D01*
X942831Y24920612D01*
X1746851Y26684372D02*
X1547117Y26506016D01*
X1375009Y26306163D01*
X1231085Y26086944D01*
X1115904Y25850487D01*
X1997762Y26906882D02*
X1809924Y26736453D01*
X1746851Y26684372D01*
X1451197Y27144551D02*
X1696100Y27036140D01*
X1941775Y26931051D01*
X1997762Y26906882D01*
X207432Y28135899D02*
X370401Y27941708D01*
X544825Y27761776D01*
X769410Y27564963D01*
X1010843Y27389318D01*
X1225047Y27259365D01*
X1451197Y27144551D01*
X-86607Y28523579D02*
X69900Y28317858D01*
X207432Y28135899D01*
X-798622Y30086899D02*
X-733871Y29821564D01*
X-653405Y29563345D01*
X-556197Y29312711D01*
X-441218Y29070128D01*
X-307439Y28836065D01*
X-153832Y28610989D01*
X-86607Y28523579D01*
X-939634Y30790754D02*
X-888498Y30526453D01*
X-835392Y30262543D01*
X-798622Y30086899D01*
X-1086869Y31001680D02*
X-939634Y30790754D01*
X-1504738Y31248693D02*
X-1284198Y31114338D01*
X-1086869Y31001680D01*
X-2094624Y31818297D02*
X-1925975Y31624317D01*
X-1751412Y31436395D01*
X-1550061Y31275702D01*
X-1504738Y31248693D01*
X-3369805Y33581561D02*
X-3221313Y33353727D01*
X-3072315Y33125990D01*
X-2921506Y32899363D01*
X-2767581Y32674858D01*
X-2609235Y32453487D01*
X-2445164Y32236262D01*
X-2274062Y32024194D01*
X-2094624Y31818297D01*
X-3665867Y34391029D02*
X-3595844Y34127472D01*
X-3511691Y33867600D01*
X-3397606Y33626288D01*
X-3369805Y33581561D01*
X-3858125Y35385025D02*
X-3818169Y35134891D01*
X-3774520Y34885218D01*
X-3724610Y34636949D01*
X-3665867Y34391029D01*
X-3853108Y35802872D02*
X-3871192Y35540906D01*
X-3858125Y35385025D01*
X-3518547Y36995780D02*
X-3634213Y36746988D01*
X-3719436Y36489272D01*
X-3781979Y36225101D01*
X-3829605Y35956944D01*
X-3853108Y35802872D01*
X-3504056Y37195294D02*
X-3518547Y36995780D01*
X-3729193Y38269109D02*
X-3683727Y37999037D01*
X-3627848Y37730441D01*
X-3566358Y37462727D01*
X-3504056Y37195294D01*
X-3724757Y38982760D02*
X-3748223Y38715340D01*
X-3746795Y38446096D01*
X-3729193Y38269109D01*
X-3544428Y39785360D02*
X-3619940Y39540128D01*
X-3676583Y39288219D01*
X-3717986Y39033643D01*
X-3724757Y38982760D01*
X-1999410Y41289144D02*
X-2274470Y41185762D01*
X-2525913Y41057315D01*
X-2753844Y40904251D01*
X-2958366Y40727018D01*
X-3139583Y40526064D01*
X-3297596Y40301838D01*
X-3432511Y40054787D01*
X-3544428Y39785360D01*
X-1423907Y41426431D02*
X-1677136Y41370896D01*
X-1928711Y41310207D01*
X-1999410Y41289144D01*
M02*
