%TF.GenerationSoftware,KiCad,Pcbnew,(6.0.5)*%
%TF.CreationDate,2022-07-11T11:07:48-06:00*%
%TF.ProjectId,MiniMageSpells,4d696e69-4d61-4676-9553-70656c6c732e,1.0*%
%TF.SameCoordinates,PX6e486c0PY7ba4d50*%
%TF.FileFunction,Soldermask,Bot*%
%TF.FilePolarity,Negative*%
%FSLAX46Y46*%
G04 Gerber Fmt 4.6, Leading zero omitted, Abs format (unit mm)*
G04 Created by KiCad (PCBNEW (6.0.5)) date 2022-07-11 11:07:48*
%MOMM*%
%LPD*%
G01*
G04 APERTURE LIST*
G04 Aperture macros list*
%AMRoundRect*
0 Rectangle with rounded corners*
0 $1 Rounding radius*
0 $2 $3 $4 $5 $6 $7 $8 $9 X,Y pos of 4 corners*
0 Add a 4 corners polygon primitive as box body*
4,1,4,$2,$3,$4,$5,$6,$7,$8,$9,$2,$3,0*
0 Add four circle primitives for the rounded corners*
1,1,$1+$1,$2,$3*
1,1,$1+$1,$4,$5*
1,1,$1+$1,$6,$7*
1,1,$1+$1,$8,$9*
0 Add four rect primitives between the rounded corners*
20,1,$1+$1,$2,$3,$4,$5,0*
20,1,$1+$1,$4,$5,$6,$7,0*
20,1,$1+$1,$6,$7,$8,$9,0*
20,1,$1+$1,$8,$9,$2,$3,0*%
G04 Aperture macros list end*
%ADD10O,1.700000X1.700000*%
%ADD11C,1.700000*%
%ADD12RoundRect,0.250000X0.262500X0.450000X-0.262500X0.450000X-0.262500X-0.450000X0.262500X-0.450000X0*%
%ADD13RoundRect,0.250000X-0.262500X-0.450000X0.262500X-0.450000X0.262500X0.450000X-0.262500X0.450000X0*%
%ADD14RoundRect,0.243750X0.243750X0.456250X-0.243750X0.456250X-0.243750X-0.456250X0.243750X-0.456250X0*%
G04 APERTURE END LIST*
%TO.C,G\u002A\u002A\u002A*%
G36*
X2166016Y45210970D02*
G01*
X2258584Y45173597D01*
X2347900Y45125935D01*
X2432456Y45075262D01*
X2516184Y45018162D01*
X2603016Y44951218D01*
X2696883Y44871014D01*
X2801719Y44774133D01*
X2921455Y44657160D01*
X3060023Y44516679D01*
X3221356Y44349272D01*
X3289166Y44278183D01*
X3438969Y44120252D01*
X3563799Y43986840D01*
X3668294Y43872159D01*
X3757091Y43770422D01*
X3834825Y43675843D01*
X3906133Y43582633D01*
X3975651Y43485006D01*
X4048016Y43377175D01*
X4127865Y43253351D01*
X4194104Y43148649D01*
X4326392Y42942724D01*
X4443761Y42770056D01*
X4550331Y42626055D01*
X4650225Y42506129D01*
X4747564Y42405688D01*
X4846469Y42320139D01*
X4951061Y42244892D01*
X5065463Y42175355D01*
X5070220Y42172673D01*
X5268770Y42075481D01*
X5459224Y42010691D01*
X5638067Y41978686D01*
X5801783Y41979848D01*
X5946858Y42014559D01*
X6046879Y42066565D01*
X6106614Y42110257D01*
X6149146Y42152487D01*
X6177231Y42201393D01*
X6193624Y42265109D01*
X6201081Y42351770D01*
X6202357Y42469512D01*
X6201795Y42523981D01*
X6197734Y42649902D01*
X6189125Y42801963D01*
X6177070Y42964314D01*
X6162670Y43121104D01*
X6155894Y43184083D01*
X6137865Y43361150D01*
X6129285Y43502980D01*
X6131401Y43615905D01*
X6145455Y43706252D01*
X6172692Y43780354D01*
X6214358Y43844539D01*
X6271696Y43905138D01*
X6303146Y43933099D01*
X6403859Y44001849D01*
X6511657Y44039256D01*
X6630592Y44045042D01*
X6764716Y44018932D01*
X6918080Y43960649D01*
X7076102Y43880350D01*
X7414445Y43672755D01*
X7741117Y43433675D01*
X8052461Y43167387D01*
X8344820Y42878171D01*
X8614535Y42570303D01*
X8857948Y42248063D01*
X9071401Y41915729D01*
X9251236Y41577578D01*
X9393796Y41237889D01*
X9432675Y41124204D01*
X9479770Y40973497D01*
X9516893Y40841695D01*
X9545156Y40720376D01*
X9565674Y40601117D01*
X9579561Y40475495D01*
X9587930Y40335087D01*
X9591897Y40171470D01*
X9592575Y39976222D01*
X9592339Y39917026D01*
X9591629Y39751034D01*
X9591618Y39622476D01*
X9592645Y39526421D01*
X9595051Y39457936D01*
X9599177Y39412088D01*
X9605360Y39383945D01*
X9613943Y39368574D01*
X9625265Y39361043D01*
X9630803Y39359068D01*
X9694996Y39323374D01*
X9765321Y39260293D01*
X9830679Y39181144D01*
X9872705Y39112342D01*
X9908705Y39026941D01*
X9949342Y38905928D01*
X9993136Y38755621D01*
X10038603Y38582331D01*
X10084264Y38392374D01*
X10128635Y38192064D01*
X10170235Y37987716D01*
X10207584Y37785642D01*
X10239198Y37592159D01*
X10254439Y37485501D01*
X10267848Y37361936D01*
X10279209Y37212349D01*
X10287522Y37053075D01*
X10291787Y36900448D01*
X10292072Y36871156D01*
X10294187Y36521614D01*
X10229210Y36405101D01*
X10151637Y36299682D01*
X10052922Y36227068D01*
X9929126Y36185214D01*
X9779726Y36172073D01*
X9628552Y36164257D01*
X9487002Y36138992D01*
X9350090Y36093551D01*
X9212831Y36025208D01*
X9070241Y35931236D01*
X8917335Y35808909D01*
X8749129Y35655499D01*
X8640136Y35548749D01*
X8372932Y35267839D01*
X8142138Y34994838D01*
X7943909Y34724444D01*
X7774399Y34451353D01*
X7629762Y34170261D01*
X7611150Y34129682D01*
X7539672Y33977408D01*
X7475132Y33857587D01*
X7410441Y33762694D01*
X7338510Y33685202D01*
X7252250Y33617585D01*
X7144571Y33552318D01*
X7008386Y33481875D01*
X6994498Y33475029D01*
X6711012Y33347422D01*
X6448266Y33253979D01*
X6203171Y33193833D01*
X5972639Y33166112D01*
X5889146Y33163900D01*
X5755841Y33170896D01*
X5650529Y33194098D01*
X5560841Y33236820D01*
X5524426Y33261701D01*
X5477176Y33301550D01*
X5438035Y33347840D01*
X5404487Y33406723D01*
X5374014Y33484351D01*
X5344100Y33586877D01*
X5312228Y33720453D01*
X5285113Y33846684D01*
X5238094Y34057954D01*
X5191939Y34233597D01*
X5144195Y34380225D01*
X5092410Y34504448D01*
X5034131Y34612879D01*
X4966905Y34712129D01*
X4961318Y34719540D01*
X4835714Y34860197D01*
X4694797Y34968230D01*
X4532304Y35047101D01*
X4341975Y35100274D01*
X4242272Y35117211D01*
X4033953Y35126584D01*
X3834512Y35094531D01*
X3643960Y35021055D01*
X3462309Y34906162D01*
X3313953Y34774974D01*
X3235964Y34690488D01*
X3159854Y34598119D01*
X3097376Y34512520D01*
X3075115Y34477173D01*
X2999736Y34323685D01*
X2933711Y34143328D01*
X2881832Y33951356D01*
X2848891Y33763020D01*
X2847777Y33753535D01*
X2833811Y33653537D01*
X2816128Y33557985D01*
X2797823Y33482839D01*
X2791565Y33463549D01*
X2731533Y33349080D01*
X2645400Y33251685D01*
X2544191Y33183737D01*
X2540907Y33182224D01*
X2447034Y33155599D01*
X2327510Y33145287D01*
X2195787Y33151285D01*
X2065315Y33173590D01*
X2032302Y33182334D01*
X1959650Y33207269D01*
X1863480Y33245804D01*
X1757907Y33292079D01*
X1682760Y33327501D01*
X1573751Y33380291D01*
X1459032Y33435166D01*
X1355119Y33484254D01*
X1301443Y33509216D01*
X1188580Y33566642D01*
X1092161Y33629727D01*
X1008126Y33703789D01*
X932417Y33794149D01*
X860974Y33906123D01*
X789739Y34045033D01*
X714652Y34216196D01*
X661798Y34347418D01*
X515474Y34697838D01*
X358928Y35032044D01*
X194263Y35346827D01*
X23582Y35638979D01*
X-151012Y35905291D01*
X-327418Y36142554D01*
X-503532Y36347561D01*
X-677253Y36517101D01*
X-845004Y36646988D01*
X-969190Y36734440D01*
X-1061638Y36811762D01*
X-1129337Y36886013D01*
X-1179272Y36964255D01*
X-1198511Y37004231D01*
X-1236406Y37130582D01*
X-1254661Y37288407D01*
X-1254258Y37472166D01*
X-1236180Y37676323D01*
X-1201409Y37895338D01*
X-1150927Y38123674D01*
X-1085717Y38355792D01*
X-1006760Y38586155D01*
X-915039Y38809225D01*
X-856390Y38933060D01*
X-810909Y39023141D01*
X-768356Y39104426D01*
X-725622Y39181800D01*
X-679599Y39260150D01*
X-627179Y39344365D01*
X-565253Y39439330D01*
X-490712Y39549933D01*
X-400449Y39681061D01*
X-291355Y39837601D01*
X-180407Y39995843D01*
X21110Y40284340D01*
X199056Y40542829D01*
X355519Y40775018D01*
X492587Y40984616D01*
X612347Y41175329D01*
X716886Y41350867D01*
X808293Y41514937D01*
X888654Y41671247D01*
X960057Y41823505D01*
X1024590Y41975419D01*
X1084340Y42130697D01*
X1141395Y42293047D01*
X1181516Y42414961D01*
X1262578Y42686772D01*
X1328466Y42953740D01*
X1380762Y43225297D01*
X1421048Y43510872D01*
X1450905Y43819894D01*
X1470845Y44139547D01*
X1481845Y44346629D01*
X1493306Y44516478D01*
X1506314Y44654226D01*
X1521955Y44765004D01*
X1541316Y44853942D01*
X1565483Y44926174D01*
X1595543Y44986828D01*
X1632581Y45041038D01*
X1671434Y45087070D01*
X1774233Y45170901D01*
X1895769Y45220208D01*
X2028784Y45233921D01*
X2166016Y45210970D01*
G37*
G36*
X33713103Y41903587D02*
G01*
X33816862Y41871902D01*
X33825514Y41867686D01*
X33887559Y41826415D01*
X33966738Y41759751D01*
X34054671Y41676126D01*
X34142975Y41583969D01*
X34223269Y41491712D01*
X34287172Y41407786D01*
X34296422Y41394008D01*
X34321115Y41352972D01*
X34363325Y41279045D01*
X34420587Y41176694D01*
X34490438Y41050388D01*
X34570411Y40904595D01*
X34658041Y40743784D01*
X34750865Y40572424D01*
X34804750Y40472490D01*
X34897033Y40301309D01*
X34983402Y40141586D01*
X35061738Y39997205D01*
X35129921Y39872049D01*
X35185832Y39770002D01*
X35227354Y39694947D01*
X35252365Y39650767D01*
X35258809Y39640398D01*
X35283954Y39640233D01*
X35323871Y39662664D01*
X35325128Y39663628D01*
X35360830Y39687672D01*
X35428358Y39729787D01*
X35522728Y39787063D01*
X35638953Y39856594D01*
X35772050Y39935472D01*
X35917033Y40020789D01*
X36068919Y40109637D01*
X36222721Y40199107D01*
X36373455Y40286293D01*
X36516137Y40368287D01*
X36645781Y40442180D01*
X36757403Y40505065D01*
X36846018Y40554034D01*
X36906533Y40586125D01*
X37057145Y40648149D01*
X37196678Y40674149D01*
X37333750Y40665616D01*
X37349131Y40662616D01*
X37471485Y40616596D01*
X37575721Y40537089D01*
X37654094Y40431687D01*
X37695639Y40323011D01*
X37716413Y40250344D01*
X37748744Y40155431D01*
X37786906Y40054707D01*
X37802287Y40017027D01*
X37836770Y39930883D01*
X37881006Y39814574D01*
X37933444Y39672607D01*
X37992534Y39509491D01*
X38056725Y39329732D01*
X38124467Y39137837D01*
X38194209Y38938315D01*
X38264400Y38735672D01*
X38333491Y38534415D01*
X38399930Y38339053D01*
X38462166Y38154091D01*
X38518650Y37984038D01*
X38567831Y37833401D01*
X38608157Y37706687D01*
X38638080Y37608403D01*
X38656047Y37543058D01*
X38660223Y37523116D01*
X38674801Y37425903D01*
X39288607Y37635769D01*
X39464124Y37695559D01*
X39605044Y37742821D01*
X39716765Y37779009D01*
X39804683Y37805579D01*
X39874196Y37823988D01*
X39930702Y37835690D01*
X39979597Y37842141D01*
X40026279Y37844797D01*
X40065022Y37845169D01*
X40206018Y37834889D01*
X40318048Y37802603D01*
X40410275Y37744784D01*
X40464319Y37691410D01*
X40509663Y37627977D01*
X40542161Y37552129D01*
X40563022Y37457290D01*
X40573453Y37336887D01*
X40574662Y37184345D01*
X40572486Y37102513D01*
X40562680Y36818195D01*
X40349807Y36235626D01*
X40297276Y36091285D01*
X40233248Y35914404D01*
X40160380Y35712379D01*
X40081331Y35492604D01*
X39998758Y35262475D01*
X39915319Y35029386D01*
X39833672Y34800732D01*
X39782609Y34657394D01*
X39694914Y34411478D01*
X39619657Y34201935D01*
X39555331Y34025130D01*
X39500430Y33877428D01*
X39453447Y33755195D01*
X39412874Y33654795D01*
X39377204Y33572594D01*
X39344931Y33504957D01*
X39314547Y33448250D01*
X39284546Y33398837D01*
X39253420Y33353083D01*
X39226797Y33316806D01*
X39150553Y33224076D01*
X39067582Y33143097D01*
X38968213Y33065829D01*
X38842776Y32984232D01*
X38785699Y32950086D01*
X38657151Y32875101D01*
X38557787Y32819324D01*
X38480592Y32779949D01*
X38418549Y32754171D01*
X38364640Y32739182D01*
X38311852Y32732179D01*
X38253166Y32730354D01*
X38236305Y32730380D01*
X38127279Y32737484D01*
X38036978Y32761413D01*
X37950802Y32807985D01*
X37854987Y32882300D01*
X37790106Y32930275D01*
X37706129Y32982704D01*
X37633053Y33022181D01*
X37574900Y33049905D01*
X37526367Y33068780D01*
X37477068Y33080503D01*
X37416617Y33086774D01*
X37334628Y33089291D01*
X37220717Y33089754D01*
X37219958Y33089754D01*
X37071098Y33085739D01*
X36906241Y33074613D01*
X36737742Y33057752D01*
X36577957Y33036535D01*
X36439241Y33012339D01*
X36359003Y32993755D01*
X36296840Y32967659D01*
X36242291Y32920209D01*
X36200683Y32867451D01*
X36138139Y32793495D01*
X36061646Y32720413D01*
X36021213Y32688319D01*
X35955138Y32632085D01*
X35881754Y32556358D01*
X35816670Y32477278D01*
X35815219Y32475308D01*
X35745366Y32375051D01*
X35663295Y32248925D01*
X35573308Y32104336D01*
X35479707Y31948691D01*
X35386795Y31789397D01*
X35298874Y31633858D01*
X35220247Y31489482D01*
X35155215Y31363674D01*
X35108082Y31263840D01*
X35099087Y31242556D01*
X35046364Y31115438D01*
X35004380Y31020394D01*
X34969128Y30949779D01*
X34936600Y30895950D01*
X34902786Y30851261D01*
X34880888Y30826388D01*
X34788133Y30749431D01*
X34670928Y30696767D01*
X34523129Y30665830D01*
X34486680Y30661760D01*
X34386306Y30648533D01*
X34284347Y30629534D01*
X34202448Y30608812D01*
X34200692Y30608258D01*
X34163118Y30597910D01*
X34119055Y30589541D01*
X34063606Y30582907D01*
X33991876Y30577760D01*
X33898969Y30573853D01*
X33779990Y30570941D01*
X33630044Y30568775D01*
X33444233Y30567110D01*
X33374503Y30566630D01*
X33201502Y30566078D01*
X33038932Y30566650D01*
X32892457Y30568245D01*
X32767737Y30570758D01*
X32670432Y30574085D01*
X32606205Y30578124D01*
X32585058Y30581039D01*
X32434784Y30638127D01*
X32303532Y30731317D01*
X32196807Y30856557D01*
X32184397Y30875993D01*
X32164322Y30916296D01*
X32134015Y30986444D01*
X32097648Y31076433D01*
X32060765Y31172574D01*
X31979701Y31381020D01*
X31902685Y31559427D01*
X31824266Y31719046D01*
X31738994Y31871128D01*
X31663169Y31993394D01*
X31601462Y32090250D01*
X31542822Y32183892D01*
X31494012Y32263423D01*
X31462598Y32316527D01*
X31376579Y32435986D01*
X31254269Y32558812D01*
X31101111Y32681073D01*
X30922551Y32798838D01*
X30724034Y32908175D01*
X30511002Y33005152D01*
X30506459Y33007008D01*
X30360972Y33058554D01*
X30236871Y33082788D01*
X30123094Y33079642D01*
X30008577Y33049045D01*
X29905959Y33003220D01*
X29783151Y32929484D01*
X29658901Y32835022D01*
X29543938Y32729495D01*
X29448992Y32622566D01*
X29394993Y32543101D01*
X29359589Y32472630D01*
X29317966Y32378079D01*
X29277099Y32275630D01*
X29261698Y32233748D01*
X29187345Y32063837D01*
X29098947Y31933206D01*
X28995229Y31840733D01*
X28874914Y31785301D01*
X28736727Y31765788D01*
X28728525Y31765734D01*
X28632599Y31771989D01*
X28548033Y31793540D01*
X28468963Y31834562D01*
X28389524Y31899236D01*
X28303851Y31991737D01*
X28206080Y32116244D01*
X28172570Y32161755D01*
X28045881Y32336988D01*
X27942640Y32483733D01*
X27860472Y32607092D01*
X27797004Y32712167D01*
X27749862Y32804062D01*
X27716671Y32887880D01*
X27695057Y32968722D01*
X27682648Y33051691D01*
X27677068Y33141890D01*
X27675921Y33229245D01*
X27676370Y33263317D01*
X27677872Y33303323D01*
X27680661Y33351343D01*
X27684968Y33409457D01*
X27691029Y33479745D01*
X27699075Y33564289D01*
X27709341Y33665168D01*
X27722059Y33784463D01*
X27737462Y33924254D01*
X27755783Y34086621D01*
X27777257Y34273646D01*
X27802115Y34487408D01*
X27830591Y34729987D01*
X27862919Y35003465D01*
X27899331Y35309922D01*
X27940061Y35651437D01*
X27985341Y36030092D01*
X28035405Y36447966D01*
X28054939Y36610858D01*
X28081006Y36827153D01*
X28102917Y37005624D01*
X28121384Y37150537D01*
X28137118Y37266157D01*
X28150831Y37356749D01*
X28163232Y37426578D01*
X28175035Y37479909D01*
X28186950Y37521007D01*
X28199688Y37554137D01*
X28213960Y37583564D01*
X28218599Y37592219D01*
X28270876Y37670264D01*
X28336848Y37731261D01*
X28423828Y37779333D01*
X28539129Y37818607D01*
X28676473Y37850507D01*
X28804188Y37872632D01*
X28903377Y37879483D01*
X28985560Y37869625D01*
X29062255Y37841628D01*
X29144980Y37794059D01*
X29148429Y37791825D01*
X29184451Y37760348D01*
X29244496Y37697787D01*
X29326537Y37606473D01*
X29428544Y37488734D01*
X29548492Y37346900D01*
X29684350Y37183300D01*
X29783761Y37062066D01*
X29902640Y36917224D01*
X30013462Y36783759D01*
X30113351Y36665016D01*
X30199432Y36564344D01*
X30268831Y36485089D01*
X30318673Y36430599D01*
X30346083Y36404220D01*
X30350342Y36402420D01*
X30361887Y36422523D01*
X30392036Y36477762D01*
X30439561Y36565832D01*
X30503238Y36684427D01*
X30581839Y36831243D01*
X30674138Y37003973D01*
X30778910Y37200313D01*
X30894928Y37417956D01*
X31020966Y37654598D01*
X31155797Y37907932D01*
X31298197Y38175654D01*
X31446937Y38455458D01*
X31600793Y38745038D01*
X31758537Y39042089D01*
X31918945Y39344306D01*
X32080789Y39649383D01*
X32242843Y39955015D01*
X32403882Y40258896D01*
X32562679Y40558721D01*
X32718008Y40852184D01*
X32868642Y41136980D01*
X32897387Y41191350D01*
X32990980Y41366117D01*
X33069541Y41506915D01*
X33136130Y41618086D01*
X33193810Y41703972D01*
X33245641Y41768914D01*
X33294687Y41817254D01*
X33344007Y41853334D01*
X33377511Y41872189D01*
X33476040Y41903906D01*
X33593700Y41914314D01*
X33713103Y41903587D01*
G37*
%TD*%
D10*
%TO.C,X1*%
X16144562Y14380380D03*
X16144562Y16920380D03*
X18684562Y14380380D03*
D11*
X18684562Y16920380D03*
D10*
X21224562Y14380380D03*
D11*
X21224562Y16920380D03*
%TD*%
D12*
%TO.C,R2*%
X16847062Y22690380D03*
X15022062Y22690380D03*
%TD*%
D13*
%TO.C,R1*%
X21232062Y22670380D03*
X23057062Y22670380D03*
%TD*%
D14*
%TO.C,D4*%
X6132062Y43380380D03*
X4257062Y43380380D03*
%TD*%
%TO.C,D3*%
X4862062Y34340380D03*
X2987062Y34340380D03*
%TD*%
%TO.C,D2*%
X34512062Y30220380D03*
X32637062Y30220380D03*
%TD*%
%TO.C,D1*%
X34532062Y41530380D03*
X32657062Y41530380D03*
%TD*%
M02*
