%TF.GenerationSoftware,KiCad,Pcbnew,(6.0.5)*%
%TF.CreationDate,2022-07-11T11:07:48-06:00*%
%TF.ProjectId,MiniMageSpells,4d696e69-4d61-4676-9553-70656c6c732e,1.0*%
%TF.SameCoordinates,PX6e486c0PY7ba4d50*%
%TF.FileFunction,Soldermask,Top*%
%TF.FilePolarity,Negative*%
%FSLAX46Y46*%
G04 Gerber Fmt 4.6, Leading zero omitted, Abs format (unit mm)*
G04 Created by KiCad (PCBNEW (6.0.5)) date 2022-07-11 11:07:48*
%MOMM*%
%LPD*%
G01*
G04 APERTURE LIST*
%ADD10O,1.700000X1.700000*%
%ADD11C,1.700000*%
G04 APERTURE END LIST*
%TO.C,G\u002A\u002A\u002A*%
G36*
X18880277Y34284055D02*
G01*
X18943303Y34264379D01*
X19023220Y34231654D01*
X19126658Y34184705D01*
X19260244Y34122355D01*
X19308868Y34099689D01*
X19446356Y34035833D01*
X19549583Y33987649D01*
X19622535Y33952577D01*
X19669193Y33928052D01*
X19693542Y33911514D01*
X19699564Y33900398D01*
X19691243Y33892144D01*
X19672563Y33884187D01*
X19654802Y33877148D01*
X19536121Y33829127D01*
X19394491Y33774801D01*
X19239219Y33717462D01*
X19079610Y33660400D01*
X18924974Y33606906D01*
X18784616Y33560272D01*
X18667843Y33523786D01*
X18605645Y33506186D01*
X18460406Y33471238D01*
X18345311Y33451779D01*
X18251371Y33447052D01*
X18169600Y33456304D01*
X18129598Y33466187D01*
X18043844Y33511508D01*
X17984050Y33586587D01*
X17955056Y33684455D01*
X17953071Y33720436D01*
X17956804Y33786157D01*
X17973166Y33835232D01*
X18009906Y33885839D01*
X18035901Y33914766D01*
X18133291Y34003608D01*
X18254872Y34083586D01*
X18406781Y34158189D01*
X18586524Y34227878D01*
X18664519Y34255800D01*
X18726263Y34276555D01*
X18778386Y34288966D01*
X18827514Y34291859D01*
X18880277Y34284055D01*
G37*
G36*
X20739761Y6006904D02*
G01*
X20876475Y6039360D01*
X21416642Y6168698D01*
X21454519Y6249139D01*
X21467759Y6278143D01*
X21497281Y6343430D01*
X21542020Y6442626D01*
X21600908Y6573360D01*
X21672880Y6733261D01*
X21756868Y6919957D01*
X21851806Y7131075D01*
X21956627Y7364244D01*
X22070265Y7617092D01*
X22191654Y7887248D01*
X22319726Y8172339D01*
X22453416Y8469994D01*
X22591656Y8777841D01*
X22616500Y8833172D01*
X22755214Y9142051D01*
X22889442Y9440814D01*
X23018127Y9727120D01*
X23140217Y9998629D01*
X23254656Y10252998D01*
X23360389Y10487887D01*
X23456363Y10700954D01*
X23541522Y10889860D01*
X23614812Y11052262D01*
X23675179Y11185820D01*
X23721567Y11288193D01*
X23752923Y11357039D01*
X23768191Y11390018D01*
X23769191Y11392044D01*
X23809487Y11446195D01*
X23850768Y11482045D01*
X23883748Y11494945D01*
X23952673Y11515514D01*
X24052076Y11542473D01*
X24176489Y11574540D01*
X24320446Y11610436D01*
X24478478Y11648882D01*
X24645118Y11688597D01*
X24814899Y11728302D01*
X24982354Y11766716D01*
X25142014Y11802560D01*
X25288413Y11834553D01*
X25416083Y11861417D01*
X25519557Y11881870D01*
X25593367Y11894633D01*
X25629682Y11898488D01*
X25654666Y11897499D01*
X25678743Y11892452D01*
X25705625Y11880224D01*
X25739027Y11857693D01*
X25782660Y11821735D01*
X25840239Y11769229D01*
X25915476Y11697053D01*
X26012084Y11602083D01*
X26133778Y11481197D01*
X26176398Y11438749D01*
X26293057Y11321364D01*
X26401035Y11210496D01*
X26496305Y11110455D01*
X26574839Y11025550D01*
X26632608Y10960091D01*
X26665586Y10918386D01*
X26670642Y10909954D01*
X26692204Y10832031D01*
X26689035Y10783619D01*
X26678726Y10757368D01*
X26652175Y10694838D01*
X26610440Y10598422D01*
X26554578Y10470516D01*
X26485649Y10313515D01*
X26404709Y10129814D01*
X26312817Y9921808D01*
X26211032Y9691894D01*
X26100410Y9442464D01*
X25982011Y9175916D01*
X25856891Y8894644D01*
X25726110Y8601042D01*
X25600820Y8320128D01*
X25466181Y8018375D01*
X25336445Y7727498D01*
X25212647Y7449821D01*
X25095821Y7187672D01*
X24987004Y6943375D01*
X24887229Y6719257D01*
X24797531Y6517643D01*
X24718946Y6340860D01*
X24652507Y6191233D01*
X24599251Y6071089D01*
X24560210Y5982753D01*
X24536421Y5928551D01*
X24528892Y5910790D01*
X24549140Y5914655D01*
X24605343Y5927121D01*
X24692247Y5946948D01*
X24804598Y5972899D01*
X24937140Y6003734D01*
X25084620Y6038214D01*
X25241781Y6075101D01*
X25403371Y6113156D01*
X25564134Y6151140D01*
X25718815Y6187814D01*
X25862160Y6221939D01*
X25988915Y6252277D01*
X26093824Y6277588D01*
X26171634Y6296634D01*
X26217088Y6308176D01*
X26226826Y6311095D01*
X26235759Y6330576D01*
X26260639Y6385949D01*
X26300207Y6474389D01*
X26353207Y6593069D01*
X26418381Y6739164D01*
X26494473Y6909847D01*
X26580225Y7102291D01*
X26674379Y7313671D01*
X26775680Y7541161D01*
X26882868Y7781934D01*
X26994688Y8033165D01*
X27109883Y8292026D01*
X27227194Y8555693D01*
X27345365Y8821338D01*
X27463138Y9086136D01*
X27579257Y9347261D01*
X27692463Y9601885D01*
X27801501Y9847184D01*
X27905113Y10080331D01*
X28002041Y10298499D01*
X28091028Y10498864D01*
X28170818Y10678598D01*
X28240152Y10834875D01*
X28297774Y10964869D01*
X28342427Y11065754D01*
X28372854Y11134705D01*
X28387796Y11168894D01*
X28388163Y11169756D01*
X28416046Y11235436D01*
X28083433Y11153201D01*
X27918994Y11114591D01*
X27790378Y11089562D01*
X27693307Y11078008D01*
X27623507Y11079825D01*
X27576703Y11094905D01*
X27548619Y11123144D01*
X27541060Y11139796D01*
X27533933Y11177207D01*
X27541001Y11220987D01*
X27565154Y11282205D01*
X27593619Y11341048D01*
X27646087Y11431894D01*
X27699454Y11500594D01*
X27731522Y11528649D01*
X27772904Y11546634D01*
X27852873Y11571212D01*
X27972063Y11602543D01*
X28131106Y11640785D01*
X28330636Y11686097D01*
X28557710Y11735717D01*
X28731745Y11773046D01*
X28893027Y11807360D01*
X29036797Y11837668D01*
X29158293Y11862979D01*
X29252756Y11882300D01*
X29315426Y11894640D01*
X29341543Y11899008D01*
X29341656Y11899008D01*
X29378160Y11881017D01*
X29413581Y11840127D01*
X29433896Y11793778D01*
X29434973Y11782939D01*
X29426516Y11759565D01*
X29401769Y11699611D01*
X29361663Y11605206D01*
X29307132Y11478480D01*
X29239107Y11321561D01*
X29158523Y11136578D01*
X29066312Y10925662D01*
X28963406Y10690942D01*
X28850738Y10434546D01*
X28729241Y10158605D01*
X28599849Y9865247D01*
X28463492Y9556601D01*
X28321105Y9234798D01*
X28173620Y8901966D01*
X28119155Y8779176D01*
X26803337Y5813482D01*
X26952442Y5664377D01*
X27404592Y5825740D01*
X27538009Y5872958D01*
X27690935Y5926404D01*
X27859060Y5984629D01*
X28038078Y6046183D01*
X28223679Y6109617D01*
X28411556Y6173480D01*
X28597401Y6236324D01*
X28776906Y6296698D01*
X28945763Y6353153D01*
X29099663Y6404239D01*
X29234298Y6448506D01*
X29345362Y6484506D01*
X29428544Y6510787D01*
X29479538Y6525901D01*
X29494324Y6528934D01*
X29490598Y6507337D01*
X29471840Y6464085D01*
X29468311Y6457138D01*
X29444847Y6397491D01*
X29435052Y6344208D01*
X29435052Y6343952D01*
X29451879Y6275686D01*
X29495345Y6202035D01*
X29555226Y6138495D01*
X29584466Y6117534D01*
X29649609Y6077918D01*
X29579363Y6053202D01*
X29396775Y5989449D01*
X29197816Y5920854D01*
X28986238Y5848648D01*
X28765794Y5774059D01*
X28540236Y5698318D01*
X28313317Y5622653D01*
X28088790Y5548294D01*
X27870408Y5476472D01*
X27661922Y5408414D01*
X27467086Y5345351D01*
X27289651Y5288511D01*
X27133372Y5239126D01*
X27002000Y5198423D01*
X26899287Y5167632D01*
X26828988Y5147984D01*
X26794853Y5140707D01*
X26794163Y5140690D01*
X26763816Y5142035D01*
X26735253Y5148348D01*
X26704605Y5163043D01*
X26668005Y5189535D01*
X26621585Y5231237D01*
X26561476Y5291564D01*
X26483812Y5373930D01*
X26384725Y5481750D01*
X26290218Y5585560D01*
X26223144Y5657577D01*
X26164811Y5716905D01*
X26121881Y5756978D01*
X26101917Y5771153D01*
X26078093Y5767228D01*
X26015998Y5754248D01*
X25918597Y5732889D01*
X25788856Y5703831D01*
X25629739Y5667751D01*
X25444211Y5625326D01*
X25235237Y5577236D01*
X25005782Y5524157D01*
X24758810Y5466768D01*
X24497287Y5405748D01*
X24225873Y5342170D01*
X23951727Y5278007D01*
X23688391Y5216719D01*
X23438917Y5158996D01*
X23206357Y5105529D01*
X22993763Y5057008D01*
X22804187Y5014124D01*
X22640681Y4977567D01*
X22506296Y4948028D01*
X22404085Y4926197D01*
X22337099Y4912765D01*
X22308692Y4908413D01*
X22245677Y4917349D01*
X22198304Y4934893D01*
X22170260Y4958788D01*
X22120092Y5009132D01*
X22053226Y5080180D01*
X21975082Y5166189D01*
X21903983Y5246611D01*
X21817371Y5345686D01*
X21734934Y5439778D01*
X21662970Y5521714D01*
X21607776Y5584323D01*
X21580969Y5614511D01*
X21507684Y5696422D01*
X20710153Y5512291D01*
X20504739Y5464749D01*
X20268472Y5409869D01*
X20011727Y5350073D01*
X19744877Y5287782D01*
X19478300Y5225419D01*
X19222369Y5165405D01*
X18987460Y5110163D01*
X18975388Y5107319D01*
X18781562Y5061847D01*
X18599557Y5019531D01*
X18433696Y4981349D01*
X18288304Y4948280D01*
X18167706Y4921300D01*
X18076224Y4901388D01*
X18018184Y4889521D01*
X17998746Y4886478D01*
X17956185Y4898445D01*
X17902545Y4927872D01*
X17893549Y4934142D01*
X17862534Y4962617D01*
X17809061Y5018043D01*
X17737889Y5094984D01*
X17653779Y5188004D01*
X17561489Y5291664D01*
X17465780Y5400529D01*
X17371411Y5509160D01*
X17283143Y5612122D01*
X17205733Y5703976D01*
X17143943Y5779287D01*
X17102532Y5832617D01*
X17088051Y5854268D01*
X17068501Y5912721D01*
X17063330Y5956633D01*
X17065712Y5964851D01*
X17874804Y5964851D01*
X17885086Y5939895D01*
X17918094Y5890457D01*
X17968105Y5823454D01*
X18029395Y5745802D01*
X18096242Y5664418D01*
X18162924Y5586217D01*
X18223717Y5518117D01*
X18272899Y5467032D01*
X18304747Y5439880D01*
X18311346Y5437270D01*
X18335608Y5441913D01*
X18395468Y5454989D01*
X18485286Y5475217D01*
X18599419Y5501317D01*
X18732226Y5532007D01*
X18863015Y5562487D01*
X19008036Y5596929D01*
X19139542Y5629151D01*
X19251854Y5657681D01*
X19339289Y5681047D01*
X19396169Y5697777D01*
X19416503Y5705907D01*
X19431374Y5731466D01*
X19460874Y5791521D01*
X19503254Y5882064D01*
X19556767Y5999086D01*
X19619666Y6138576D01*
X19690202Y6296526D01*
X19766629Y6468926D01*
X19847198Y6651767D01*
X19930163Y6841039D01*
X20013774Y7032735D01*
X20096285Y7222843D01*
X20175948Y7407355D01*
X20251016Y7582262D01*
X20319740Y7743554D01*
X20380373Y7887222D01*
X20431168Y8009257D01*
X20470376Y8105649D01*
X20496250Y8172389D01*
X20507043Y8205468D01*
X20507174Y8208029D01*
X20488144Y8236569D01*
X20444888Y8287271D01*
X20383797Y8353009D01*
X20311260Y8426659D01*
X20309992Y8427911D01*
X20124464Y8611075D01*
X19536512Y8490040D01*
X19383823Y8458065D01*
X19244482Y8427846D01*
X19123957Y8400654D01*
X19027714Y8377756D01*
X18961221Y8360421D01*
X18929944Y8349918D01*
X18928584Y8348967D01*
X18917324Y8327156D01*
X18890897Y8270620D01*
X18851114Y8183451D01*
X18799783Y8069745D01*
X18738714Y7933594D01*
X18669717Y7779093D01*
X18594600Y7610334D01*
X18515174Y7431413D01*
X18433247Y7246422D01*
X18350630Y7059455D01*
X18269131Y6874606D01*
X18190560Y6695968D01*
X18116727Y6527636D01*
X18049440Y6373703D01*
X17990509Y6238262D01*
X17941744Y6125408D01*
X17904955Y6039234D01*
X17881949Y5983834D01*
X17874804Y5964851D01*
X17065712Y5964851D01*
X17071840Y5985993D01*
X17096321Y6050231D01*
X17135195Y6145658D01*
X17186885Y6268588D01*
X17249815Y6415333D01*
X17322409Y6582205D01*
X17403088Y6765518D01*
X17490278Y6961584D01*
X17550214Y7095273D01*
X17640300Y7295964D01*
X17724736Y7484833D01*
X17801991Y7658397D01*
X17870531Y7813176D01*
X17928822Y7945688D01*
X17975331Y8052452D01*
X18008525Y8129987D01*
X18026871Y8174810D01*
X18030065Y8184852D01*
X18007879Y8183377D01*
X17952671Y8174160D01*
X17872765Y8158721D01*
X17776569Y8138597D01*
X17679811Y8117860D01*
X17599036Y8100892D01*
X17542740Y8089455D01*
X17519464Y8085310D01*
X17522329Y8101099D01*
X17542616Y8140381D01*
X17550801Y8154159D01*
X17584335Y8239123D01*
X17591044Y8329506D01*
X17570401Y8405601D01*
X17537114Y8445214D01*
X17486388Y8485024D01*
X17481558Y8488035D01*
X17441146Y8517723D01*
X17438874Y8535358D01*
X17445837Y8538817D01*
X17472810Y8545124D01*
X17536689Y8558649D01*
X17632807Y8578446D01*
X17756496Y8603568D01*
X17903087Y8633069D01*
X18067914Y8666001D01*
X18246308Y8701418D01*
X18292020Y8710459D01*
X18473471Y8746410D01*
X18642872Y8780150D01*
X18795490Y8810722D01*
X18926595Y8837172D01*
X19031454Y8858543D01*
X19105335Y8873880D01*
X19143507Y8882227D01*
X19146820Y8883082D01*
X19156201Y8892573D01*
X19148923Y8913783D01*
X19121989Y8950448D01*
X19072402Y9006306D01*
X18997164Y9085093D01*
X18929681Y9153815D01*
X18833547Y9252161D01*
X18764124Y9326371D01*
X18717407Y9381496D01*
X18689396Y9422587D01*
X18676088Y9454696D01*
X18675241Y9461672D01*
X19414651Y9461672D01*
X19557714Y9328086D01*
X19665132Y9228075D01*
X19745962Y9153664D01*
X19804343Y9101277D01*
X19844411Y9067340D01*
X19870305Y9048279D01*
X19886162Y9040518D01*
X19891437Y9039758D01*
X19917133Y9043988D01*
X19978526Y9055898D01*
X20069874Y9074318D01*
X20185440Y9098079D01*
X20319484Y9126013D01*
X20449454Y9153390D01*
X20595010Y9184733D01*
X20726976Y9214170D01*
X20839643Y9240344D01*
X20927300Y9261900D01*
X20984236Y9277481D01*
X21004433Y9285212D01*
X21016861Y9308125D01*
X21044324Y9365420D01*
X21084813Y9452693D01*
X21136316Y9565537D01*
X21196824Y9699547D01*
X21264327Y9850317D01*
X21336815Y10013441D01*
X21341300Y10023573D01*
X21660021Y10743737D01*
X21350577Y11053697D01*
X21041134Y11363657D01*
X20606847Y11250853D01*
X20477905Y11217141D01*
X20363630Y11186846D01*
X20270099Y11161612D01*
X20203392Y11143085D01*
X20169587Y11132913D01*
X20166673Y11131654D01*
X20157041Y11111598D01*
X20131899Y11056859D01*
X20093050Y10971425D01*
X20042297Y10859281D01*
X19981441Y10724417D01*
X19912286Y10570818D01*
X19836635Y10402473D01*
X19787718Y10293466D01*
X19414651Y9461672D01*
X18675241Y9461672D01*
X18673338Y9477349D01*
X18681512Y9507067D01*
X18704699Y9570869D01*
X18740902Y9664032D01*
X18788122Y9781839D01*
X18844359Y9919568D01*
X18907614Y10072499D01*
X18975889Y10235912D01*
X19047185Y10405087D01*
X19119503Y10575305D01*
X19190843Y10741844D01*
X19259208Y10899986D01*
X19322597Y11045009D01*
X19379013Y11172193D01*
X19426456Y11276820D01*
X19462927Y11354168D01*
X19486427Y11399517D01*
X19489411Y11404357D01*
X19532592Y11454009D01*
X19572766Y11486748D01*
X19604965Y11499073D01*
X19673013Y11518926D01*
X19771318Y11545020D01*
X19894288Y11576068D01*
X20036330Y11610782D01*
X20191851Y11647875D01*
X20355261Y11686059D01*
X20520966Y11724047D01*
X20683374Y11760552D01*
X20836893Y11794286D01*
X20975931Y11823962D01*
X21094895Y11848292D01*
X21188193Y11865990D01*
X21250233Y11875767D01*
X21269307Y11877303D01*
X21291549Y11875508D01*
X21315488Y11868185D01*
X21344569Y11852425D01*
X21382234Y11825322D01*
X21431926Y11783969D01*
X21497089Y11725457D01*
X21581165Y11646879D01*
X21687598Y11545328D01*
X21819830Y11417896D01*
X21864529Y11374685D01*
X21988160Y11254619D01*
X22102404Y11142716D01*
X22203575Y11042659D01*
X22287986Y10958134D01*
X22351952Y10892824D01*
X22391787Y10850413D01*
X22403595Y10835877D01*
X22417877Y10788345D01*
X22422963Y10735797D01*
X22414468Y10701426D01*
X22390446Y10633773D01*
X22353094Y10537834D01*
X22304604Y10418610D01*
X22247174Y10281098D01*
X22182997Y10130299D01*
X22114269Y9971210D01*
X22043186Y9808830D01*
X21971941Y9648159D01*
X21902730Y9494194D01*
X21837748Y9351935D01*
X21779191Y9226380D01*
X21729252Y9122528D01*
X21690129Y9045379D01*
X21664014Y8999929D01*
X21656695Y8990799D01*
X21630903Y8972709D01*
X21594235Y8954989D01*
X21541409Y8936069D01*
X21467144Y8914380D01*
X21366157Y8888354D01*
X21233168Y8856421D01*
X21101818Y8825942D01*
X20808112Y8758425D01*
X20965264Y8596638D01*
X21080689Y8476459D01*
X21168322Y8381814D01*
X21231126Y8309090D01*
X21272060Y8254676D01*
X21294085Y8214960D01*
X21300194Y8188035D01*
X21291819Y8160527D01*
X21267718Y8097939D01*
X21229423Y8003888D01*
X21178466Y7881987D01*
X21116383Y7735851D01*
X21044705Y7569096D01*
X20964965Y7385336D01*
X20878697Y7188186D01*
X20810051Y7032390D01*
X20720324Y6828921D01*
X20636182Y6637289D01*
X20559116Y6460945D01*
X20490618Y6303342D01*
X20432178Y6167931D01*
X20385287Y6058165D01*
X20351437Y5977494D01*
X20332117Y5929371D01*
X20328108Y5916638D01*
X20350055Y5919598D01*
X20407684Y5931333D01*
X20495504Y5950615D01*
X20606356Y5975834D01*
X22163223Y5975834D01*
X22174573Y5953034D01*
X22208401Y5905548D01*
X22258941Y5840273D01*
X22320425Y5764103D01*
X22387087Y5683935D01*
X22453161Y5606664D01*
X22512881Y5539186D01*
X22560480Y5488396D01*
X22590191Y5461190D01*
X22595873Y5458454D01*
X22620510Y5463108D01*
X22680533Y5476184D01*
X22770099Y5496357D01*
X22883362Y5522301D01*
X23014477Y5552691D01*
X23116531Y5576551D01*
X23256695Y5609877D01*
X23382927Y5640733D01*
X23489431Y5667632D01*
X23570410Y5689088D01*
X23620067Y5703617D01*
X23633170Y5708953D01*
X23642960Y5729377D01*
X23668689Y5785768D01*
X23709127Y5875357D01*
X23763042Y5995378D01*
X23829204Y6143063D01*
X23906383Y6315644D01*
X23993349Y6510354D01*
X24088870Y6724425D01*
X24191717Y6955091D01*
X24300658Y7199583D01*
X24414464Y7455134D01*
X24531904Y7718976D01*
X24651747Y7988342D01*
X24772762Y8260465D01*
X24893721Y8532576D01*
X25013391Y8801909D01*
X25130542Y9065696D01*
X25243944Y9321170D01*
X25352367Y9565562D01*
X25454579Y9796106D01*
X25549351Y10010033D01*
X25635452Y10204577D01*
X25711651Y10376970D01*
X25776718Y10524444D01*
X25829422Y10644233D01*
X25868533Y10733567D01*
X25892821Y10789681D01*
X25900998Y10809522D01*
X25889161Y10831549D01*
X25852125Y10878373D01*
X25794496Y10944677D01*
X25720875Y11025143D01*
X25646890Y11103058D01*
X25385997Y11373383D01*
X24926623Y11263917D01*
X24792805Y11231538D01*
X24672961Y11201607D01*
X24573207Y11175726D01*
X24499661Y11155500D01*
X24458437Y11142533D01*
X24452003Y11139438D01*
X24441959Y11118852D01*
X24416023Y11062261D01*
X24375418Y10972419D01*
X24321362Y10852082D01*
X24255078Y10704002D01*
X24177786Y10530934D01*
X24090706Y10335634D01*
X23995061Y10120854D01*
X23892070Y9889349D01*
X23782954Y9643874D01*
X23668935Y9387183D01*
X23551233Y9122030D01*
X23431069Y8851169D01*
X23309663Y8577355D01*
X23188238Y8303342D01*
X23068013Y8031884D01*
X22950209Y7765736D01*
X22836048Y7507652D01*
X22726749Y7260386D01*
X22623535Y7026693D01*
X22527626Y6809327D01*
X22440242Y6611041D01*
X22362604Y6434591D01*
X22295935Y6282731D01*
X22241453Y6158215D01*
X22200380Y6063797D01*
X22173937Y6002232D01*
X22163345Y5976274D01*
X22163223Y5975834D01*
X20606356Y5975834D01*
X20608026Y5976214D01*
X20739761Y6006904D01*
G37*
G36*
X27484855Y34046033D02*
G01*
X27581514Y34044208D01*
X27654882Y34041463D01*
X27697367Y34038039D01*
X27704703Y34036102D01*
X27705398Y34012927D01*
X27701642Y33953730D01*
X27693978Y33864561D01*
X27682950Y33751472D01*
X27669100Y33620513D01*
X27660417Y33542537D01*
X27642921Y33386125D01*
X27630254Y33265529D01*
X27622184Y33174500D01*
X27618479Y33106790D01*
X27618905Y33056150D01*
X27623232Y33016331D01*
X27631226Y32981084D01*
X27638639Y32956540D01*
X27665834Y32895790D01*
X27718374Y32804656D01*
X27796523Y32682751D01*
X27900544Y32529688D01*
X28030700Y32345079D01*
X28187254Y32128535D01*
X28370471Y31879671D01*
X28371879Y31877774D01*
X28479281Y31731928D01*
X28564614Y31612849D01*
X28631806Y31513846D01*
X28684786Y31428232D01*
X28727482Y31349319D01*
X28763824Y31270417D01*
X28797740Y31184838D01*
X28827518Y31102074D01*
X28865938Y30993348D01*
X28898329Y30905822D01*
X28929133Y30829538D01*
X28962788Y30754541D01*
X29003736Y30670872D01*
X29056417Y30568574D01*
X29115759Y30455707D01*
X29167022Y30356881D01*
X29209421Y30271852D01*
X29239751Y30207318D01*
X29254804Y30169978D01*
X29255575Y30163572D01*
X29224347Y30153613D01*
X29162010Y30147610D01*
X29079625Y30145406D01*
X28988253Y30146850D01*
X28898953Y30151785D01*
X28822786Y30160058D01*
X28774440Y30170283D01*
X28697521Y30206140D01*
X28611656Y30263422D01*
X28562597Y30304005D01*
X28496081Y30359740D01*
X28407421Y30428074D01*
X28310163Y30498772D01*
X28248651Y30541212D01*
X28144308Y30618834D01*
X28019909Y30723501D01*
X27881691Y30849031D01*
X27735887Y30989243D01*
X27588734Y31137956D01*
X27446466Y31288990D01*
X27315318Y31436163D01*
X27201527Y31573294D01*
X27180676Y31599906D01*
X26935937Y31935451D01*
X26725528Y32265246D01*
X26551311Y32586170D01*
X26428221Y32861761D01*
X26388671Y32963385D01*
X26363148Y33038270D01*
X26349061Y33098650D01*
X26343817Y33156759D01*
X26344827Y33224831D01*
X26346007Y33249917D01*
X26358335Y33365913D01*
X26381096Y33462162D01*
X26394376Y33495902D01*
X26444141Y33574640D01*
X26521174Y33665852D01*
X26616101Y33760739D01*
X26719550Y33850500D01*
X26822147Y33926338D01*
X26904197Y33974525D01*
X27050742Y34046695D01*
X27372503Y34046695D01*
X27484855Y34046033D01*
G37*
G36*
X9921593Y36025217D02*
G01*
X10131789Y35972754D01*
X10345332Y35878798D01*
X10424755Y35833690D01*
X10548806Y35745303D01*
X10634905Y35649021D01*
X10687467Y35537097D01*
X10710909Y35401781D01*
X10713122Y35327750D01*
X10708152Y35260412D01*
X10692396Y35190040D01*
X10663621Y35112784D01*
X10619595Y35024794D01*
X10558085Y34922220D01*
X10476858Y34801213D01*
X10373682Y34657921D01*
X10246324Y34488496D01*
X10164959Y34382516D01*
X9941238Y34095050D01*
X9738462Y33839529D01*
X9553932Y33612740D01*
X9384948Y33411472D01*
X9228812Y33232510D01*
X9082824Y33072643D01*
X8944286Y32928657D01*
X8939143Y32923467D01*
X8829751Y32814880D01*
X8742366Y32732602D01*
X8670702Y32671402D01*
X8608475Y32626051D01*
X8549402Y32591318D01*
X8525967Y32579571D01*
X8335529Y32509606D01*
X8142440Y32480923D01*
X7961003Y32492089D01*
X7815974Y32512424D01*
X7674463Y32523801D01*
X7527304Y32526113D01*
X7365331Y32519256D01*
X7179380Y32503125D01*
X6986403Y32480897D01*
X6730149Y32445988D01*
X6508438Y32409007D01*
X6313449Y32368285D01*
X6137360Y32322152D01*
X5972348Y32268940D01*
X5941980Y32258029D01*
X5861987Y32229201D01*
X5798307Y32206938D01*
X5760477Y32194544D01*
X5754398Y32193067D01*
X5751344Y32212331D01*
X5752459Y32262906D01*
X5757495Y32333963D01*
X5757682Y32336061D01*
X5763595Y32412121D01*
X5770522Y32517344D01*
X5777651Y32638566D01*
X5784172Y32762621D01*
X5784949Y32778606D01*
X5799352Y33078157D01*
X6077004Y33136825D01*
X6197613Y33163656D01*
X6319471Y33193069D01*
X6428194Y33221461D01*
X6507954Y33244764D01*
X6596550Y33277259D01*
X6704780Y33323030D01*
X6823342Y33377478D01*
X6942932Y33436005D01*
X7054248Y33494010D01*
X7147987Y33546895D01*
X7214845Y33590060D01*
X7229574Y33601514D01*
X7266581Y33639991D01*
X7320186Y33705149D01*
X7383601Y33788338D01*
X7450042Y33880911D01*
X7459393Y33894410D01*
X7649621Y34162990D01*
X7844370Y34424113D01*
X8040924Y34674802D01*
X8236565Y34912079D01*
X8428576Y35132969D01*
X8614240Y35334492D01*
X8790838Y35513673D01*
X8955655Y35667533D01*
X9105972Y35793095D01*
X9239072Y35887383D01*
X9319876Y35932856D01*
X9514756Y36005347D01*
X9715622Y36036107D01*
X9921593Y36025217D01*
G37*
G36*
X18053975Y35789099D02*
G01*
X18072259Y35786727D01*
X18138735Y35768312D01*
X18236681Y35727711D01*
X18362506Y35666523D01*
X18467929Y35610842D01*
X18748765Y35464066D01*
X19059143Y35311925D01*
X19391853Y35157391D01*
X19739681Y35003434D01*
X20095417Y34853025D01*
X20451849Y34709134D01*
X20801766Y34574733D01*
X21137956Y34452791D01*
X21453208Y34346281D01*
X21740310Y34258172D01*
X21776841Y34247758D01*
X21928881Y34203648D01*
X22045972Y34166298D01*
X22134440Y34132904D01*
X22200610Y34100663D01*
X22250809Y34066771D01*
X22291362Y34028424D01*
X22303784Y34014222D01*
X22342400Y33954792D01*
X22357978Y33886828D01*
X22359410Y33846675D01*
X22341426Y33743107D01*
X22290534Y33661744D01*
X22211328Y33605072D01*
X22108399Y33575577D01*
X21986341Y33575743D01*
X21893355Y33594455D01*
X21803632Y33620490D01*
X21681805Y33657457D01*
X21535925Y33702775D01*
X21374045Y33753861D01*
X21204216Y33808133D01*
X21034490Y33863011D01*
X20872919Y33915912D01*
X20727554Y33964255D01*
X20606447Y34005458D01*
X20551742Y34024622D01*
X20026287Y34222059D01*
X19539088Y34426751D01*
X19091097Y34638250D01*
X18683263Y34856109D01*
X18334389Y35068229D01*
X18189638Y35165521D01*
X18077860Y35248467D01*
X17994034Y35321470D01*
X17933141Y35388931D01*
X17890158Y35455255D01*
X17887723Y35459904D01*
X17851611Y35558023D01*
X17853811Y35642012D01*
X17894748Y35716701D01*
X17911802Y35735206D01*
X17957001Y35775234D01*
X17997562Y35791005D01*
X18053975Y35789099D01*
G37*
G36*
X8166705Y30755915D02*
G01*
X8223423Y30740365D01*
X8307324Y30713471D01*
X8412253Y30677227D01*
X8532053Y30633625D01*
X8559183Y30623473D01*
X9311011Y30355021D01*
X10070230Y30112739D01*
X10841346Y29895581D01*
X11628863Y29702502D01*
X12437287Y29532459D01*
X13271122Y29384406D01*
X14134874Y29257299D01*
X14807200Y29174842D01*
X14966040Y29157431D01*
X15131918Y29140114D01*
X15292803Y29124088D01*
X15436664Y29110549D01*
X15551469Y29100692D01*
X15559243Y29100082D01*
X15715037Y29086442D01*
X15835863Y29070685D01*
X15929107Y29049606D01*
X16002155Y29019999D01*
X16062395Y28978658D01*
X16117212Y28922378D01*
X16173993Y28847951D01*
X16188898Y28826797D01*
X16298909Y28683834D01*
X16424363Y28544899D01*
X16552744Y28423229D01*
X16627971Y28362528D01*
X16687702Y28322573D01*
X16774135Y28270471D01*
X16875969Y28212801D01*
X16981898Y28156141D01*
X16988105Y28152934D01*
X17243397Y28021309D01*
X16989185Y28024451D01*
X16875992Y28026266D01*
X16765688Y28028755D01*
X16672300Y28031563D01*
X16618459Y28033839D01*
X15733677Y28091463D01*
X14883455Y28167930D01*
X14064078Y28263911D01*
X13271832Y28380078D01*
X12503002Y28517102D01*
X11753875Y28675653D01*
X11020736Y28856404D01*
X10299870Y29060025D01*
X9587564Y29287188D01*
X9479343Y29323980D01*
X9307804Y29384179D01*
X9127345Y29450036D01*
X8942217Y29519782D01*
X8756672Y29591649D01*
X8574961Y29663868D01*
X8401336Y29734672D01*
X8240047Y29802292D01*
X8095346Y29864960D01*
X7971485Y29920907D01*
X7872713Y29968365D01*
X7803284Y30005566D01*
X7767448Y30030741D01*
X7763413Y30037724D01*
X7772908Y30061306D01*
X7798851Y30114869D01*
X7837430Y30191183D01*
X7884833Y30283021D01*
X7937247Y30383152D01*
X7990859Y30484348D01*
X8041857Y30579379D01*
X8086430Y30661017D01*
X8120764Y30722032D01*
X8141047Y30755195D01*
X8143328Y30758127D01*
X8166705Y30755915D01*
G37*
G36*
X24048273Y47790727D02*
G01*
X24283899Y47714970D01*
X24382512Y47670312D01*
X24542168Y47580788D01*
X24682815Y47477248D01*
X24809338Y47354201D01*
X24926623Y47206152D01*
X25039553Y47027607D01*
X25153015Y46813073D01*
X25163125Y46792417D01*
X25272412Y46552660D01*
X25362923Y46318379D01*
X25435956Y46082942D01*
X25492806Y45839719D01*
X25534772Y45582080D01*
X25563148Y45303396D01*
X25579233Y44997035D01*
X25584323Y44656367D01*
X25584313Y44638855D01*
X25574394Y44196807D01*
X25544931Y43784798D01*
X25494667Y43394649D01*
X25422348Y43018182D01*
X25326720Y42647219D01*
X25233283Y42350948D01*
X25144472Y42098631D01*
X25061415Y41883414D01*
X24981603Y41700840D01*
X24902529Y41546455D01*
X24821684Y41415802D01*
X24736561Y41304426D01*
X24644651Y41207870D01*
X24543446Y41121680D01*
X24539691Y41118787D01*
X24405961Y41028766D01*
X24252714Y40946016D01*
X24097875Y40879541D01*
X24001195Y40848328D01*
X23866354Y40821880D01*
X23710065Y40806659D01*
X23548732Y40803162D01*
X23398762Y40811889D01*
X23302112Y40827085D01*
X23086333Y40894637D01*
X22875388Y40999105D01*
X22678865Y41135303D01*
X22591328Y41211498D01*
X22373541Y41442091D01*
X22190350Y41693415D01*
X22040459Y41967885D01*
X21922571Y42267913D01*
X21835387Y42595911D01*
X21828259Y42630586D01*
X21806762Y42770112D01*
X21790128Y42946100D01*
X21778350Y43152925D01*
X21771423Y43384961D01*
X21769338Y43636583D01*
X21772091Y43902164D01*
X21779673Y44176080D01*
X21792079Y44452705D01*
X21809302Y44726413D01*
X21831036Y44988396D01*
X21845578Y45131153D01*
X21863634Y45289734D01*
X21884270Y45457524D01*
X21906551Y45627903D01*
X21929545Y45794256D01*
X21952316Y45949963D01*
X21973931Y46088407D01*
X21993456Y46202972D01*
X22009957Y46287039D01*
X22019844Y46326276D01*
X22050862Y46405544D01*
X22101343Y46511264D01*
X22166510Y46635143D01*
X22241583Y46768884D01*
X22321785Y46904193D01*
X22402338Y47032773D01*
X22478463Y47146331D01*
X22541058Y47231137D01*
X22716550Y47421986D01*
X22911172Y47577263D01*
X23121411Y47696129D01*
X23343754Y47777746D01*
X23574688Y47821277D01*
X23810699Y47825883D01*
X24048273Y47790727D01*
G37*
G36*
X8340398Y56602709D02*
G01*
X8316713Y56698717D01*
X8300229Y56774930D01*
X8293201Y56821580D01*
X8293100Y56825032D01*
X8297155Y56861588D01*
X8311302Y56902848D01*
X8338658Y56953544D01*
X8382344Y57018407D01*
X8445478Y57102170D01*
X8531178Y57209566D01*
X8609971Y57305837D01*
X8816791Y57563533D01*
X9019173Y57829730D01*
X9220830Y58109813D01*
X9425474Y58409165D01*
X9636817Y58733173D01*
X9858572Y59087220D01*
X10012926Y59340773D01*
X10403469Y60000038D01*
X10788269Y60671751D01*
X11162056Y61346327D01*
X11519564Y62014181D01*
X11855526Y62665729D01*
X12009086Y62972897D01*
X12143116Y63247257D01*
X12274663Y63522907D01*
X12402012Y63795894D01*
X12523449Y64062267D01*
X12637259Y64318073D01*
X12741727Y64559359D01*
X12835139Y64782175D01*
X12915780Y64982566D01*
X12981934Y65156583D01*
X13031889Y65300271D01*
X13060547Y65396426D01*
X13103200Y65570725D01*
X13136716Y65731955D01*
X13160297Y65874534D01*
X13173147Y65992882D01*
X13174468Y66081420D01*
X13165424Y66130327D01*
X13119905Y66188403D01*
X13046804Y66220545D01*
X12954456Y66223292D01*
X12944927Y66221889D01*
X12917132Y66217482D01*
X12895715Y66218050D01*
X12878386Y66228818D01*
X12862853Y66255015D01*
X12846825Y66301867D01*
X12828010Y66374600D01*
X12804118Y66478443D01*
X12774764Y66610071D01*
X12740213Y66750797D01*
X12704337Y66871373D01*
X12669081Y66966700D01*
X12636390Y67031679D01*
X12608209Y67061210D01*
X12602202Y67062458D01*
X12579247Y67044053D01*
X12556959Y66998323D01*
X12552184Y66983017D01*
X12543121Y66925941D01*
X12536565Y66834350D01*
X12532453Y66716018D01*
X12530717Y66578720D01*
X12531293Y66430231D01*
X12534116Y66278325D01*
X12539121Y66130777D01*
X12546243Y65995362D01*
X12555416Y65879855D01*
X12561899Y65823175D01*
X12574832Y65719711D01*
X12585183Y65623923D01*
X12591681Y65548365D01*
X12593262Y65513241D01*
X12583252Y65458896D01*
X12553163Y65367745D01*
X12503151Y65240204D01*
X12433372Y65076692D01*
X12410972Y65026002D01*
X12353766Y64897263D01*
X12299857Y64775775D01*
X12252554Y64669003D01*
X12215164Y64584415D01*
X12190992Y64529477D01*
X12187866Y64522315D01*
X12147226Y64428960D01*
X12089640Y64482824D01*
X11998325Y64552152D01*
X11899428Y64591104D01*
X11778902Y64604865D01*
X11758450Y64605077D01*
X11595022Y64588613D01*
X11444588Y64541568D01*
X11349833Y64489731D01*
X11314637Y64462651D01*
X11251177Y64410464D01*
X11162906Y64336151D01*
X11053278Y64242697D01*
X10925746Y64133085D01*
X10783764Y64010298D01*
X10630785Y63877318D01*
X10470262Y63737131D01*
X10305649Y63592717D01*
X10140399Y63447062D01*
X10041090Y63359169D01*
X9833018Y63169308D01*
X9659031Y62998583D01*
X9516781Y62844506D01*
X9403919Y62704589D01*
X9349183Y62626174D01*
X9273557Y62489983D01*
X9235586Y62366094D01*
X9235040Y62247838D01*
X9271689Y62128546D01*
X9328542Y62026492D01*
X9383797Y61940973D01*
X9442596Y61848808D01*
X9478672Y61791551D01*
X9530249Y61720742D01*
X9588580Y61657592D01*
X9625006Y61627373D01*
X9722587Y61585240D01*
X9833386Y61577446D01*
X9951117Y61600717D01*
X10069492Y61651779D01*
X10182224Y61727359D01*
X10283024Y61824185D01*
X10365607Y61938983D01*
X10412801Y62037502D01*
X10440513Y62120960D01*
X10460694Y62202326D01*
X10471812Y62272048D01*
X10472334Y62320572D01*
X10461079Y62338354D01*
X10435256Y62331908D01*
X10376643Y62314113D01*
X10292557Y62287285D01*
X10190313Y62253743D01*
X10124671Y62231821D01*
X9807700Y62125287D01*
X9738851Y62199733D01*
X9697814Y62251546D01*
X9673222Y62296960D01*
X9670081Y62311563D01*
X9684775Y62366488D01*
X9729628Y62441021D01*
X9806087Y62537303D01*
X9873502Y62612653D01*
X9919304Y62659391D01*
X9990091Y62727998D01*
X10082283Y62815240D01*
X10192299Y62917885D01*
X10316556Y63032699D01*
X10451475Y63156451D01*
X10593475Y63285907D01*
X10738975Y63417834D01*
X10884393Y63549000D01*
X11026149Y63676172D01*
X11160662Y63796117D01*
X11284351Y63905601D01*
X11393635Y64001394D01*
X11484933Y64080260D01*
X11554665Y64138969D01*
X11599248Y64174286D01*
X11613196Y64183226D01*
X11694976Y64204564D01*
X11756286Y64196032D01*
X11799915Y64154825D01*
X11828648Y64078135D01*
X11845274Y63963157D01*
X11846460Y63948363D01*
X11856837Y63810665D01*
X11516573Y63132766D01*
X11283541Y62673651D01*
X11044911Y62213332D01*
X10804689Y61759272D01*
X10566880Y61318933D01*
X10335490Y60899777D01*
X10114523Y60509266D01*
X10027059Y60357772D01*
X9891733Y60124896D01*
X9701426Y60067811D01*
X9610122Y60042222D01*
X9527476Y60022243D01*
X9466477Y60010889D01*
X9449867Y60009403D01*
X9405874Y60019966D01*
X9333336Y60050261D01*
X9238894Y60096411D01*
X9129184Y60154540D01*
X9010845Y60220772D01*
X8890517Y60291230D01*
X8774836Y60362038D01*
X8670441Y60429320D01*
X8583972Y60489200D01*
X8522065Y60537802D01*
X8493316Y60567950D01*
X8478105Y60604144D01*
X8463508Y60666549D01*
X8449331Y60757247D01*
X8435380Y60878318D01*
X8421462Y61031842D01*
X8407383Y61219899D01*
X8392950Y61444569D01*
X8377970Y61707934D01*
X8366069Y61935852D01*
X8350168Y62270953D01*
X8338479Y62565335D01*
X8331000Y62820436D01*
X8327729Y63037694D01*
X8328665Y63218549D01*
X8333807Y63364440D01*
X8343151Y63476805D01*
X8356698Y63557083D01*
X8364193Y63583206D01*
X8389527Y63646557D01*
X8424640Y63715143D01*
X8471896Y63792019D01*
X8533660Y63880240D01*
X8612296Y63982858D01*
X8710169Y64102929D01*
X8829643Y64243506D01*
X8973084Y64407642D01*
X9142854Y64598393D01*
X9196373Y64658037D01*
X9632838Y65154971D01*
X10036880Y65639082D01*
X10413599Y66117224D01*
X10768094Y66596250D01*
X11105464Y67083014D01*
X11430808Y67584371D01*
X11696091Y68017704D01*
X11822905Y68226210D01*
X11936622Y68401304D01*
X12042904Y68547145D01*
X12147410Y68667892D01*
X12255804Y68767702D01*
X12373746Y68850736D01*
X12506896Y68921150D01*
X12660917Y68983104D01*
X12841470Y69040757D01*
X13054215Y69098266D01*
X13224585Y69140485D01*
X13358071Y69173712D01*
X13522480Y69216041D01*
X13708015Y69264868D01*
X13904879Y69317587D01*
X14103276Y69371592D01*
X14293408Y69424278D01*
X14326169Y69433468D01*
X14491806Y69480016D01*
X14647820Y69523833D01*
X14788622Y69563350D01*
X14908620Y69597000D01*
X15002223Y69623215D01*
X15063841Y69640426D01*
X15082596Y69645631D01*
X15132052Y69656573D01*
X15214315Y69671820D01*
X15320234Y69689799D01*
X15440657Y69708937D01*
X15523671Y69721445D01*
X15678067Y69745081D01*
X15813230Y69768235D01*
X15939034Y69793175D01*
X16065349Y69822173D01*
X16202046Y69857499D01*
X16358997Y69901422D01*
X16546074Y69956214D01*
X16551573Y69957847D01*
X16691616Y69998358D01*
X16802133Y70025582D01*
X16893932Y70039206D01*
X16977819Y70038915D01*
X17064602Y70024398D01*
X17165089Y69995340D01*
X17290086Y69951428D01*
X17334431Y69935145D01*
X17407513Y69907630D01*
X17479439Y69879095D01*
X17553868Y69847745D01*
X17634459Y69811782D01*
X17724869Y69769412D01*
X17828758Y69718838D01*
X17949783Y69658264D01*
X18091604Y69585895D01*
X18257880Y69499934D01*
X18452267Y69398586D01*
X18678426Y69280054D01*
X18813516Y69209077D01*
X19044126Y69086827D01*
X19237014Y68982368D01*
X19392756Y68895372D01*
X19511929Y68825510D01*
X19595110Y68772453D01*
X19642873Y68735871D01*
X19643918Y68734879D01*
X19706607Y68665103D01*
X19773104Y68571496D01*
X19845580Y68450328D01*
X19926203Y68297870D01*
X20017144Y68110393D01*
X20056168Y68026344D01*
X20171370Y67772193D01*
X20270500Y67545305D01*
X20357615Y67335660D01*
X20436771Y67133237D01*
X20512024Y66928017D01*
X20579275Y66734101D01*
X20729702Y66312911D01*
X20883426Y65928570D01*
X21043043Y65575563D01*
X21211149Y65248376D01*
X21390341Y64941494D01*
X21511929Y64753367D01*
X21560062Y64677838D01*
X21622570Y64574037D01*
X21694095Y64451183D01*
X21769275Y64318495D01*
X21842750Y64185191D01*
X21849416Y64172889D01*
X22016876Y63870453D01*
X22206290Y63541182D01*
X22413612Y63191695D01*
X22634796Y62828613D01*
X22865799Y62458554D01*
X23102573Y62088138D01*
X23341076Y61723985D01*
X23400664Y61634451D01*
X23690608Y61205984D01*
X23977572Y60794012D01*
X24267660Y60390234D01*
X24566977Y59986350D01*
X24881630Y59574060D01*
X25217723Y59145064D01*
X25399418Y58917087D01*
X25638221Y58618161D01*
X25851011Y58349910D01*
X26039079Y58110606D01*
X26203714Y57898525D01*
X26346205Y57711940D01*
X26467841Y57549127D01*
X26569913Y57408358D01*
X26653709Y57287909D01*
X26720518Y57186054D01*
X26771631Y57101067D01*
X26808053Y57031816D01*
X26847822Y56937038D01*
X26884265Y56831182D01*
X26902580Y56765010D01*
X26928390Y56598394D01*
X26933917Y56414551D01*
X26920692Y56223426D01*
X26890246Y56034959D01*
X26844109Y55859096D01*
X26783813Y55705778D01*
X26723491Y55601897D01*
X26681815Y55543367D01*
X27131580Y55282377D01*
X27776594Y54903165D01*
X28386170Y54534371D01*
X28964999Y54172826D01*
X29517772Y53815360D01*
X30049181Y53458801D01*
X30563918Y53099980D01*
X31066673Y52735725D01*
X31562139Y52362867D01*
X32055006Y51978235D01*
X32241895Y51828888D01*
X32569187Y51562562D01*
X32893489Y51292148D01*
X33217289Y51015300D01*
X33543078Y50729676D01*
X33873344Y50432930D01*
X34210578Y50122719D01*
X34557269Y49796698D01*
X34915905Y49452525D01*
X35288978Y49087853D01*
X35678976Y48700341D01*
X36088389Y48287643D01*
X36519706Y47847416D01*
X36975417Y47377315D01*
X37031968Y47318671D01*
X37273413Y47068117D01*
X37487147Y46846192D01*
X37674896Y46651053D01*
X37838389Y46480860D01*
X37979351Y46333769D01*
X38099510Y46207939D01*
X38200592Y46101526D01*
X38284324Y46012690D01*
X38352434Y45939587D01*
X38406647Y45880375D01*
X38448692Y45833212D01*
X38480295Y45796257D01*
X38503182Y45767666D01*
X38519081Y45745597D01*
X38529718Y45728208D01*
X38536821Y45713658D01*
X38537108Y45712987D01*
X38552305Y45669965D01*
X38556702Y45631243D01*
X38547113Y45594503D01*
X38520355Y45557421D01*
X38473245Y45517677D01*
X38402597Y45472950D01*
X38305228Y45420918D01*
X38177953Y45359260D01*
X38017590Y45285654D01*
X37845148Y45208524D01*
X37618083Y45108676D01*
X37399291Y45014798D01*
X37184364Y44925266D01*
X36968894Y44838457D01*
X36748472Y44752747D01*
X36518690Y44666511D01*
X36275139Y44578127D01*
X36013411Y44485969D01*
X35729097Y44388415D01*
X35417790Y44283840D01*
X35075079Y44170621D01*
X34696558Y44047134D01*
X34660061Y44035291D01*
X34439251Y43963281D01*
X34186224Y43880089D01*
X33908821Y43788332D01*
X33614884Y43690625D01*
X33312254Y43589585D01*
X33008774Y43487827D01*
X32712283Y43387968D01*
X32430625Y43292622D01*
X32266232Y43236700D01*
X32037434Y43158728D01*
X31819891Y43084645D01*
X31617014Y43015609D01*
X31432210Y42952776D01*
X31268889Y42897305D01*
X31130458Y42850352D01*
X31020327Y42813076D01*
X30941903Y42786632D01*
X30898596Y42772179D01*
X30891395Y42769873D01*
X30870614Y42768522D01*
X30859039Y42782063D01*
X30857277Y42814943D01*
X30865935Y42871603D01*
X30885622Y42956489D01*
X30916943Y43074043D01*
X30948188Y43185450D01*
X31025812Y43471156D01*
X31090156Y43737608D01*
X31142262Y43992903D01*
X31183172Y44245135D01*
X31213925Y44502401D01*
X31235564Y44772797D01*
X31249130Y45064419D01*
X31255663Y45385362D01*
X31256638Y45584116D01*
X31256824Y46126875D01*
X31410411Y46141653D01*
X31524534Y46153498D01*
X31664624Y46169440D01*
X31826011Y46188838D01*
X32004027Y46211050D01*
X32194001Y46235434D01*
X32391265Y46261347D01*
X32591149Y46288149D01*
X32788983Y46315196D01*
X32980098Y46341848D01*
X33159825Y46367462D01*
X33323494Y46391397D01*
X33466437Y46413010D01*
X33583983Y46431659D01*
X33671463Y46446704D01*
X33724208Y46457500D01*
X33736884Y46461479D01*
X33799063Y46484705D01*
X33876410Y46502388D01*
X33900707Y46505764D01*
X33922043Y46508222D01*
X33941770Y46509896D01*
X33962999Y46509939D01*
X33988844Y46507500D01*
X34022415Y46501731D01*
X34066827Y46491783D01*
X34125190Y46476806D01*
X34200616Y46455953D01*
X34296219Y46428373D01*
X34415110Y46393219D01*
X34560402Y46349640D01*
X34735206Y46296788D01*
X34942635Y46233814D01*
X35185801Y46159869D01*
X35334806Y46114548D01*
X35532567Y46054716D01*
X35725705Y45996868D01*
X35908768Y45942596D01*
X36076307Y45893492D01*
X36222870Y45851148D01*
X36343007Y45817153D01*
X36431267Y45793102D01*
X36465763Y45784320D01*
X36556699Y45761686D01*
X36631255Y45741908D01*
X36680473Y45727436D01*
X36695494Y45721426D01*
X36682340Y45706181D01*
X36640228Y45668473D01*
X36573544Y45611976D01*
X36486675Y45540362D01*
X36384010Y45457306D01*
X36300515Y45390692D01*
X36188986Y45301079D01*
X36090202Y45219519D01*
X36008534Y45149805D01*
X35948358Y45095728D01*
X35914046Y45061080D01*
X35907857Y45050211D01*
X35942536Y45033838D01*
X36013818Y45036133D01*
X36120427Y45056778D01*
X36261090Y45095457D01*
X36434532Y45151851D01*
X36639479Y45225644D01*
X36691818Y45245377D01*
X36868451Y45318870D01*
X37006093Y45391441D01*
X37107942Y45466018D01*
X37177200Y45545531D01*
X37217067Y45632908D01*
X37230743Y45731080D01*
X37230803Y45738650D01*
X37227692Y45779926D01*
X37217247Y45820158D01*
X37197796Y45860030D01*
X37167667Y45900223D01*
X37125190Y45941417D01*
X37068692Y45984296D01*
X36996502Y46029540D01*
X36906950Y46077830D01*
X36798363Y46129849D01*
X36669070Y46186278D01*
X36517401Y46247799D01*
X36341683Y46315092D01*
X36140245Y46388841D01*
X35911416Y46469725D01*
X35653525Y46558428D01*
X35364900Y46655629D01*
X35043869Y46762012D01*
X34688762Y46878257D01*
X34297907Y47005047D01*
X33869633Y47143062D01*
X33481178Y47267708D01*
X33272518Y47334713D01*
X33074079Y47398728D01*
X32889893Y47458433D01*
X32723996Y47512505D01*
X32580419Y47559624D01*
X32463198Y47598469D01*
X32376365Y47627718D01*
X32323954Y47646051D01*
X32312295Y47650548D01*
X32245551Y47688026D01*
X32186904Y47734915D01*
X32182395Y47739579D01*
X32159186Y47770085D01*
X32116375Y47831988D01*
X32056905Y47920814D01*
X31983720Y48032090D01*
X31899765Y48161341D01*
X31807984Y48304094D01*
X31720476Y48441440D01*
X31566865Y48681037D01*
X31423729Y48899233D01*
X31292654Y49093782D01*
X31175229Y49262438D01*
X31073042Y49402956D01*
X30987680Y49513090D01*
X30920733Y49590593D01*
X30881899Y49627281D01*
X30822107Y49659872D01*
X30770942Y49662286D01*
X30737816Y49635357D01*
X30731312Y49613955D01*
X30739804Y49583995D01*
X30767864Y49519520D01*
X30814278Y49422938D01*
X30877835Y49296658D01*
X30957322Y49143087D01*
X31051526Y48964633D01*
X31159234Y48763705D01*
X31163398Y48755990D01*
X31256479Y48583800D01*
X31344242Y48421878D01*
X31424455Y48274308D01*
X31494887Y48145178D01*
X31553307Y48038573D01*
X31597482Y47958578D01*
X31625183Y47909278D01*
X31633090Y47895944D01*
X31652505Y47861541D01*
X31644716Y47849843D01*
X31624690Y47849013D01*
X31598221Y47854165D01*
X31533932Y47868847D01*
X31435095Y47892261D01*
X31304979Y47923607D01*
X31146855Y47962086D01*
X30963995Y48006898D01*
X30759668Y48057246D01*
X30537146Y48112329D01*
X30299699Y48171349D01*
X30050597Y48233506D01*
X30031077Y48238387D01*
X29739924Y48311265D01*
X29487080Y48374752D01*
X29269727Y48429633D01*
X29085045Y48476694D01*
X28930215Y48516719D01*
X28802419Y48550492D01*
X28698836Y48578800D01*
X28616648Y48602426D01*
X28553036Y48622156D01*
X28505181Y48638775D01*
X28470263Y48653068D01*
X28445464Y48665819D01*
X28427964Y48677813D01*
X28416901Y48687820D01*
X28387867Y48727795D01*
X28346513Y48799022D01*
X28296975Y48893709D01*
X28243388Y49004066D01*
X28207926Y49081447D01*
X28022842Y49480499D01*
X27814330Y49903517D01*
X27586636Y50342385D01*
X27344005Y50788985D01*
X27090683Y51235200D01*
X27003080Y51385031D01*
X26837275Y51664479D01*
X26690207Y51907964D01*
X26560835Y52116990D01*
X26448118Y52293063D01*
X26351016Y52437689D01*
X26268487Y52552374D01*
X26199492Y52638622D01*
X26142989Y52697940D01*
X26097938Y52731834D01*
X26065286Y52741857D01*
X26022237Y52723169D01*
X25994507Y52674795D01*
X25987631Y52608274D01*
X25990548Y52586040D01*
X26002423Y52553839D01*
X26031493Y52487940D01*
X26075794Y52392435D01*
X26133365Y52271418D01*
X26202243Y52128980D01*
X26280468Y51969215D01*
X26366076Y51796215D01*
X26443957Y51640273D01*
X26524410Y51478993D01*
X26613381Y51299113D01*
X26709140Y51104242D01*
X26809956Y50897989D01*
X26914100Y50683961D01*
X27019841Y50465769D01*
X27125449Y50247021D01*
X27229195Y50031325D01*
X27329348Y49822291D01*
X27424177Y49623528D01*
X27511954Y49438643D01*
X27590947Y49271247D01*
X27659427Y49124947D01*
X27715663Y49003354D01*
X27757926Y48910074D01*
X27784485Y48848718D01*
X27792791Y48826749D01*
X27797862Y48814490D01*
X27803058Y48804054D01*
X27805045Y48795922D01*
X27800490Y48790576D01*
X27786058Y48788500D01*
X27758416Y48790175D01*
X27714231Y48796083D01*
X27650168Y48806708D01*
X27562895Y48822530D01*
X27449078Y48844033D01*
X27305382Y48871699D01*
X27128475Y48906009D01*
X26915023Y48947447D01*
X26786933Y48972271D01*
X26464671Y49034440D01*
X26180076Y49088766D01*
X25929296Y49135854D01*
X25708478Y49176303D01*
X25513771Y49210717D01*
X25341324Y49239698D01*
X25187282Y49263848D01*
X25047796Y49283770D01*
X24919013Y49300064D01*
X24797081Y49313334D01*
X24678147Y49324182D01*
X24558361Y49333210D01*
X24433870Y49341021D01*
X24424881Y49341537D01*
X24342167Y49346773D01*
X24225225Y49354888D01*
X24082053Y49365291D01*
X23920652Y49377390D01*
X23749018Y49390593D01*
X23575150Y49404309D01*
X23556324Y49405816D01*
X23236300Y49431161D01*
X22939561Y49453881D01*
X22661982Y49474113D01*
X22399439Y49491994D01*
X22147804Y49507660D01*
X21902953Y49521247D01*
X21660760Y49532893D01*
X21417099Y49542734D01*
X21167845Y49550907D01*
X20908873Y49557547D01*
X20636056Y49562792D01*
X20345270Y49566779D01*
X20032388Y49569643D01*
X19693286Y49571522D01*
X19323837Y49572552D01*
X18919915Y49572870D01*
X18517304Y49572653D01*
X16380536Y49570505D01*
X16394110Y49667983D01*
X16454997Y50115075D01*
X16508884Y50533119D01*
X16557203Y50934587D01*
X16601383Y51331953D01*
X16642854Y51737689D01*
X16683047Y52164270D01*
X16693078Y52275802D01*
X16705477Y52435029D01*
X16716320Y52613709D01*
X16725467Y52805181D01*
X16732781Y53002780D01*
X16738122Y53199845D01*
X16741352Y53389712D01*
X16742332Y53565720D01*
X16740924Y53721203D01*
X16736988Y53849501D01*
X16730387Y53943951D01*
X16728179Y53962425D01*
X16708448Y54079997D01*
X16685526Y54169678D01*
X16660976Y54226609D01*
X16636988Y54245944D01*
X16618262Y54236981D01*
X16602647Y54207194D01*
X16589353Y54152236D01*
X16577590Y54067762D01*
X16566567Y53949425D01*
X16556002Y53800775D01*
X16536661Y53521197D01*
X16513951Y53226358D01*
X16488523Y52922913D01*
X16461032Y52617517D01*
X16432131Y52316826D01*
X16402472Y52027495D01*
X16372708Y51756179D01*
X16343494Y51509534D01*
X16315482Y51294215D01*
X16298229Y51174218D01*
X16281556Y51067509D01*
X16260136Y50936259D01*
X16235051Y50786582D01*
X16207382Y50624592D01*
X16178211Y50456401D01*
X16148619Y50288123D01*
X16119687Y50125872D01*
X16092496Y49975759D01*
X16068128Y49843900D01*
X16047665Y49736407D01*
X16032187Y49659394D01*
X16023758Y49622466D01*
X16002640Y49567362D01*
X15973865Y49544986D01*
X15956685Y49543025D01*
X15929176Y49541623D01*
X15862481Y49537551D01*
X15759688Y49531015D01*
X15623881Y49522217D01*
X15458147Y49511361D01*
X15265572Y49498651D01*
X15049241Y49484290D01*
X14812241Y49468482D01*
X14557658Y49451431D01*
X14288577Y49433341D01*
X14016539Y49414985D01*
X13737318Y49396229D01*
X13470288Y49378519D01*
X13218458Y49362040D01*
X12984837Y49346981D01*
X12772436Y49333526D01*
X12584264Y49321864D01*
X12423330Y49312180D01*
X12292645Y49304660D01*
X12195218Y49299493D01*
X12134059Y49296863D01*
X12112186Y49296948D01*
X12118668Y49317766D01*
X12142498Y49370203D01*
X12180887Y49448603D01*
X12231047Y49547306D01*
X12290189Y49660657D01*
X12308424Y49695088D01*
X12443472Y49949955D01*
X12560046Y50171764D01*
X12660075Y50364587D01*
X12745493Y50532496D01*
X12818230Y50679564D01*
X12880217Y50809863D01*
X12933387Y50927465D01*
X12979671Y51036442D01*
X13021000Y51140867D01*
X13059305Y51244811D01*
X13096518Y51352348D01*
X13101529Y51367259D01*
X13137829Y51481708D01*
X13157947Y51563754D01*
X13162241Y51620001D01*
X13151065Y51657053D01*
X13124777Y51681516D01*
X13118666Y51684985D01*
X13088676Y51696034D01*
X13061054Y51688217D01*
X13024838Y51656008D01*
X12993947Y51622142D01*
X12962859Y51579313D01*
X12916264Y51504868D01*
X12857737Y51405022D01*
X12790852Y51285989D01*
X12719184Y51153981D01*
X12660065Y51041780D01*
X12550476Y50832228D01*
X12439108Y50621784D01*
X12327914Y50413959D01*
X12218848Y50212264D01*
X12113863Y50020210D01*
X12014913Y49841307D01*
X11923952Y49679066D01*
X11842933Y49536997D01*
X11773811Y49418612D01*
X11718539Y49327421D01*
X11679070Y49266935D01*
X11657979Y49241100D01*
X11621463Y49226184D01*
X11546635Y49206010D01*
X11437140Y49181203D01*
X11296625Y49152386D01*
X11128735Y49120183D01*
X10937117Y49085217D01*
X10725416Y49048113D01*
X10497278Y49009494D01*
X10256350Y48969983D01*
X10006277Y48930204D01*
X9750705Y48890782D01*
X9493281Y48852340D01*
X9237650Y48815501D01*
X8987458Y48780889D01*
X8896774Y48768743D01*
X8653968Y48736297D01*
X8444924Y48707717D01*
X8261352Y48681683D01*
X8094963Y48656876D01*
X7937470Y48631977D01*
X7780582Y48605667D01*
X7616011Y48576626D01*
X7435469Y48543534D01*
X7230666Y48505074D01*
X7180844Y48495631D01*
X6998704Y48461193D01*
X6853955Y48434208D01*
X6742402Y48414030D01*
X6659849Y48400015D01*
X6602100Y48391517D01*
X6564959Y48387892D01*
X6544230Y48388493D01*
X6535718Y48392677D01*
X6534723Y48396306D01*
X6547505Y48415770D01*
X6583984Y48464697D01*
X6641358Y48539489D01*
X6716825Y48636551D01*
X6807584Y48752284D01*
X6910833Y48883092D01*
X7023771Y49025378D01*
X7065822Y49078168D01*
X7184215Y49227223D01*
X7296111Y49369176D01*
X7398312Y49499894D01*
X7487621Y49615238D01*
X7560839Y49711073D01*
X7614770Y49783263D01*
X7646214Y49827670D01*
X7650408Y49834316D01*
X7686121Y49909176D01*
X7711275Y49988444D01*
X7715673Y50012176D01*
X7727452Y50099998D01*
X7656648Y50059835D01*
X7620933Y50036694D01*
X7577854Y50002893D01*
X7525078Y49956032D01*
X7460275Y49893713D01*
X7381112Y49813537D01*
X7285258Y49713105D01*
X7170381Y49590017D01*
X7034151Y49441875D01*
X6874235Y49266280D01*
X6722015Y49098154D01*
X6590553Y48953179D01*
X6463192Y48813685D01*
X6343780Y48683818D01*
X6236165Y48567723D01*
X6144196Y48469547D01*
X6071721Y48393436D01*
X6022588Y48343537D01*
X6013383Y48334681D01*
X5888601Y48217330D01*
X5125965Y47998788D01*
X4615873Y47850368D01*
X4143399Y47708020D01*
X3704470Y47570260D01*
X3295014Y47435604D01*
X2910960Y47302565D01*
X2548237Y47169659D01*
X2202771Y47035401D01*
X1870492Y46898306D01*
X1547328Y46756889D01*
X1229207Y46609665D01*
X963856Y46480895D01*
X778344Y46387008D01*
X589245Y46287565D01*
X400642Y46185014D01*
X216617Y46081799D01*
X41253Y45980366D01*
X-121368Y45883161D01*
X-267164Y45792630D01*
X-392051Y45711218D01*
X-491948Y45641372D01*
X-562772Y45585536D01*
X-600440Y45546157D01*
X-602659Y45542430D01*
X-619057Y45490578D01*
X-625578Y45429628D01*
X-620876Y45391450D01*
X-602948Y45353189D01*
X-566059Y45306603D01*
X-504471Y45243451D01*
X-478555Y45218344D01*
X-310372Y45080489D01*
X-135227Y44984128D01*
X48362Y44928739D01*
X241880Y44913803D01*
X361635Y44923800D01*
X440943Y44934485D01*
X504139Y44942360D01*
X539279Y44945949D01*
X541523Y44946027D01*
X545149Y44962523D01*
X531054Y45004204D01*
X519744Y45028082D01*
X474237Y45091259D01*
X398489Y45158852D01*
X288925Y45233659D01*
X163538Y45306660D01*
X111142Y45338588D01*
X78679Y45364186D01*
X73505Y45372397D01*
X91760Y45388871D01*
X142810Y45420488D01*
X221087Y45464414D01*
X321021Y45517814D01*
X437042Y45577854D01*
X563580Y45641701D01*
X695067Y45706519D01*
X825931Y45769474D01*
X950604Y45827733D01*
X1063515Y45878460D01*
X1093728Y45891557D01*
X1182066Y45929079D01*
X1303827Y45980222D01*
X1453217Y46042580D01*
X1624438Y46113748D01*
X1811694Y46191319D01*
X2009190Y46272887D01*
X2211130Y46356046D01*
X2350819Y46413419D01*
X2581043Y46507881D01*
X2776011Y46587424D01*
X2939761Y46652980D01*
X3076327Y46705482D01*
X3189747Y46745864D01*
X3284056Y46775057D01*
X3363291Y46793995D01*
X3431488Y46803610D01*
X3492682Y46804836D01*
X3550911Y46798605D01*
X3610210Y46785849D01*
X3674616Y46767502D01*
X3748164Y46744497D01*
X3763083Y46739809D01*
X3843464Y46716001D01*
X3958225Y46683957D01*
X4101252Y46645237D01*
X4266430Y46601401D01*
X4447647Y46554010D01*
X4638787Y46504622D01*
X4833736Y46454799D01*
X5026381Y46406099D01*
X5210607Y46360083D01*
X5380301Y46318311D01*
X5529348Y46282343D01*
X5651635Y46253738D01*
X5741046Y46234056D01*
X5761495Y46229940D01*
X5855062Y46213154D01*
X5973310Y46193892D01*
X6098879Y46174908D01*
X6182596Y46163156D01*
X6311134Y46144996D01*
X6403795Y46129060D01*
X6466832Y46113087D01*
X6506499Y46094818D01*
X6529051Y46071994D01*
X6540740Y46042354D01*
X6542824Y46032994D01*
X6554374Y45970094D01*
X6570113Y45875966D01*
X6589307Y45755662D01*
X6611224Y45614236D01*
X6635134Y45456739D01*
X6660303Y45288223D01*
X6686000Y45113743D01*
X6711492Y44938349D01*
X6736048Y44767094D01*
X6758935Y44605031D01*
X6779421Y44457213D01*
X6796775Y44328691D01*
X6810264Y44224518D01*
X6819156Y44149746D01*
X6822719Y44109429D01*
X6822345Y44103819D01*
X6798766Y44105904D01*
X6741334Y44120168D01*
X6656188Y44144809D01*
X6549472Y44178026D01*
X6427327Y44218020D01*
X6390468Y44230435D01*
X6257265Y44274703D01*
X6130423Y44315254D01*
X6018051Y44349618D01*
X5928258Y44375325D01*
X5869152Y44389903D01*
X5863484Y44390969D01*
X5753631Y44410140D01*
X5807599Y44270285D01*
X5892332Y44049319D01*
X5962567Y43862206D01*
X6019830Y43703578D01*
X6065647Y43568068D01*
X6101545Y43450307D01*
X6129051Y43344928D01*
X6149689Y43246562D01*
X6164987Y43149841D01*
X6176471Y43049398D01*
X6185591Y42940884D01*
X6191742Y42815762D01*
X6188411Y42729160D01*
X6175203Y42678217D01*
X6151721Y42660069D01*
X6146681Y42660040D01*
X6115913Y42666130D01*
X6055286Y42680739D01*
X5975803Y42701172D01*
X5941562Y42710274D01*
X5640903Y42790041D01*
X5376970Y42858098D01*
X5146049Y42915368D01*
X4944425Y42962780D01*
X4805579Y42993411D01*
X4631263Y43033876D01*
X4487786Y43076820D01*
X4368341Y43127368D01*
X4266119Y43190647D01*
X4174309Y43271783D01*
X4086105Y43375901D01*
X3994696Y43508128D01*
X3893274Y43673591D01*
X3886207Y43685560D01*
X3671531Y44008662D01*
X3421270Y44311581D01*
X3138281Y44591947D01*
X2825423Y44847387D01*
X2485552Y45075529D01*
X2121528Y45274001D01*
X1802969Y45414550D01*
X1545815Y45516549D01*
X1526555Y45452650D01*
X1520141Y45401080D01*
X1519707Y45311705D01*
X1525168Y45188651D01*
X1534749Y45056171D01*
X1542763Y44932689D01*
X1548090Y44794118D01*
X1550881Y44646389D01*
X1551287Y44495433D01*
X1549459Y44347181D01*
X1545547Y44207564D01*
X1539702Y44082512D01*
X1532075Y43977956D01*
X1522816Y43899828D01*
X1512077Y43854058D01*
X1503946Y43844443D01*
X1472146Y43851377D01*
X1408064Y43870464D01*
X1319144Y43899132D01*
X1212832Y43934810D01*
X1096572Y43974924D01*
X977810Y44016904D01*
X863990Y44058177D01*
X762557Y44096171D01*
X680957Y44128315D01*
X674259Y44131074D01*
X611141Y44158957D01*
X518369Y44202360D01*
X400269Y44259095D01*
X261168Y44326972D01*
X105392Y44403805D01*
X-62734Y44487403D01*
X-238884Y44575577D01*
X-418731Y44666141D01*
X-597949Y44756904D01*
X-772212Y44845678D01*
X-937194Y44930274D01*
X-1088569Y45008505D01*
X-1222012Y45078180D01*
X-1333195Y45137112D01*
X-1417793Y45183112D01*
X-1471480Y45213990D01*
X-1487638Y45224822D01*
X-1520784Y45260720D01*
X-1565088Y45319503D01*
X-1614002Y45391009D01*
X-1660980Y45465075D01*
X-1699474Y45531541D01*
X-1722939Y45580245D01*
X-1727083Y45596489D01*
X-1721882Y45626293D01*
X-1705197Y45664619D01*
X-1675241Y45713507D01*
X-1630228Y45774993D01*
X-1568370Y45851116D01*
X-1487880Y45943914D01*
X-1386972Y46055425D01*
X-1263858Y46187687D01*
X-1116753Y46342739D01*
X-943867Y46522618D01*
X-743416Y46729362D01*
X-647350Y46828007D01*
X-503532Y46975697D01*
X-363928Y47119390D01*
X-232378Y47255112D01*
X-112718Y47378888D01*
X-8786Y47486746D01*
X75579Y47574713D01*
X136540Y47638813D01*
X160862Y47664788D01*
X211600Y47717564D01*
X289351Y47795686D01*
X390274Y47895464D01*
X510529Y48013204D01*
X646276Y48145215D01*
X793676Y48287805D01*
X948886Y48437283D01*
X1108069Y48589956D01*
X1267383Y48742133D01*
X1422988Y48890122D01*
X1571045Y49030231D01*
X1707712Y49158768D01*
X1829151Y49272042D01*
X1916541Y49352659D01*
X2549847Y49922756D01*
X3178403Y50467758D01*
X3808575Y50992624D01*
X4446732Y51502313D01*
X5099241Y52001782D01*
X5772470Y52495991D01*
X6472785Y52989899D01*
X7206555Y53488463D01*
X7350319Y53584152D01*
X7650123Y53783027D01*
X7916312Y53959499D01*
X8150535Y54114653D01*
X8354439Y54249576D01*
X8529672Y54365351D01*
X8677883Y54463064D01*
X8800719Y54543799D01*
X8899829Y54608641D01*
X8976860Y54658676D01*
X9033460Y54694988D01*
X9071279Y54718661D01*
X9091962Y54730782D01*
X9092707Y54731172D01*
X9122479Y54750029D01*
X9129160Y54773151D01*
X9115226Y54815809D01*
X9108910Y54831079D01*
X9077861Y54886716D01*
X9028543Y54956151D01*
X8979809Y55014948D01*
X8894127Y55127336D01*
X8807449Y55275419D01*
X8719309Y55460332D01*
X8629237Y55683210D01*
X8536767Y55945188D01*
X8441429Y56247402D01*
X8416802Y56332183D01*
X12075525Y56332183D01*
X12095332Y56322665D01*
X12116375Y56322007D01*
X12161791Y56327423D01*
X12233744Y56341750D01*
X12318075Y56362104D01*
X12333694Y56366244D01*
X12407135Y56386863D01*
X12511148Y56417235D01*
X12635883Y56454426D01*
X12771488Y56495498D01*
X12900611Y56535191D01*
X13531534Y56721129D01*
X14142092Y56880862D01*
X14741657Y57016084D01*
X15339601Y57128490D01*
X15945296Y57219771D01*
X16568115Y57291624D01*
X17217428Y57345741D01*
X17476424Y57362204D01*
X17609920Y57368140D01*
X17776118Y57372540D01*
X17968628Y57375464D01*
X18181060Y57376974D01*
X18407024Y57377129D01*
X18640130Y57375991D01*
X18873988Y57373620D01*
X19102208Y57370076D01*
X19318400Y57365421D01*
X19516174Y57359714D01*
X19689139Y57353015D01*
X19830907Y57345387D01*
X19912621Y57339119D01*
X20012363Y57328183D01*
X20147843Y57310768D01*
X20313085Y57287810D01*
X20502111Y57260242D01*
X20708946Y57229002D01*
X20927612Y57195024D01*
X21152133Y57159244D01*
X21376532Y57122598D01*
X21594833Y57086020D01*
X21801059Y57050446D01*
X21989232Y57016812D01*
X22084014Y56999263D01*
X22272993Y56963215D01*
X22453327Y56927587D01*
X22631481Y56890951D01*
X22813925Y56851877D01*
X23007126Y56808935D01*
X23217551Y56760696D01*
X23451668Y56705729D01*
X23715946Y56642607D01*
X23916457Y56594228D01*
X24085437Y56553738D01*
X24244107Y56516493D01*
X24387055Y56483706D01*
X24508866Y56456589D01*
X24604125Y56436353D01*
X24667417Y56424210D01*
X24689685Y56421181D01*
X24748248Y56422412D01*
X24766471Y56433932D01*
X24744973Y56455205D01*
X24684377Y56485693D01*
X24585303Y56524859D01*
X24558594Y56534519D01*
X24437285Y56578859D01*
X24300823Y56630362D01*
X24172227Y56680293D01*
X24128301Y56697807D01*
X23571278Y56904681D01*
X22979818Y57090755D01*
X22356736Y57255409D01*
X21704852Y57398020D01*
X21026981Y57517967D01*
X20325942Y57614627D01*
X19669001Y57681934D01*
X19549035Y57689832D01*
X19393376Y57696327D01*
X19208675Y57701421D01*
X19001585Y57705115D01*
X18778758Y57707409D01*
X18546845Y57708305D01*
X18312498Y57707804D01*
X18082371Y57705906D01*
X17863114Y57702613D01*
X17661379Y57697926D01*
X17483819Y57691845D01*
X17337086Y57684371D01*
X17296357Y57681584D01*
X16776932Y57637604D01*
X16269542Y57583907D01*
X15777189Y57521100D01*
X15302875Y57449791D01*
X14849605Y57370587D01*
X14420380Y57284095D01*
X14018203Y57190923D01*
X13646077Y57091677D01*
X13307005Y56986965D01*
X13003990Y56877394D01*
X12740034Y56763571D01*
X12727764Y56757707D01*
X12610796Y56698693D01*
X12490796Y56633234D01*
X12374656Y56565606D01*
X12269272Y56500087D01*
X12181537Y56440951D01*
X12118344Y56392478D01*
X12087530Y56360532D01*
X12075525Y56332183D01*
X8416802Y56332183D01*
X8369022Y56496675D01*
X8340398Y56602709D01*
G37*
G36*
X4217790Y35148974D02*
G01*
X4354587Y35110217D01*
X4496217Y35037550D01*
X4634014Y34937225D01*
X4759315Y34815495D01*
X4858060Y34686985D01*
X4965622Y34490690D01*
X5050041Y34266697D01*
X5111613Y34013321D01*
X5150637Y33728876D01*
X5167411Y33411679D01*
X5162233Y33060042D01*
X5158700Y32987479D01*
X5139751Y32686711D01*
X5117132Y32424843D01*
X5090306Y32198525D01*
X5058732Y32004402D01*
X5021873Y31839124D01*
X4979188Y31699337D01*
X4934010Y31589732D01*
X4887566Y31528351D01*
X4808145Y31461878D01*
X4703956Y31395163D01*
X4583206Y31333057D01*
X4454104Y31280411D01*
X4361245Y31251264D01*
X4282594Y31235721D01*
X4176458Y31222438D01*
X4056087Y31212262D01*
X3934734Y31206042D01*
X3825650Y31204625D01*
X3742086Y31208860D01*
X3727800Y31210733D01*
X3547506Y31251768D01*
X3376687Y31315318D01*
X3221027Y31397435D01*
X3086209Y31494173D01*
X2977916Y31601583D01*
X2901833Y31715718D01*
X2868307Y31807735D01*
X2864932Y31851318D01*
X2865130Y31932734D01*
X2868642Y32047621D01*
X2875207Y32191618D01*
X2884564Y32360362D01*
X2896453Y32549493D01*
X2910615Y32754647D01*
X2926787Y32971463D01*
X2944710Y33195580D01*
X2964124Y33422635D01*
X2965925Y33442941D01*
X2994171Y33712669D01*
X3028446Y33944987D01*
X3070433Y34144631D01*
X3121812Y34316338D01*
X3184265Y34464843D01*
X3259474Y34594882D01*
X3349120Y34711190D01*
X3454070Y34817759D01*
X3571073Y34911292D01*
X3703226Y34994697D01*
X3841690Y35064142D01*
X3977629Y35115794D01*
X4102204Y35145820D01*
X4206578Y35150388D01*
X4217790Y35148974D01*
G37*
G36*
X30323998Y32998098D02*
G01*
X30534120Y32934732D01*
X30743084Y32829311D01*
X30950594Y32681989D01*
X31156354Y32492923D01*
X31193271Y32454374D01*
X31291787Y32344448D01*
X31382823Y32230884D01*
X31469194Y32108766D01*
X31553716Y31973182D01*
X31639201Y31819217D01*
X31728466Y31641956D01*
X31824325Y31436487D01*
X31929592Y31197893D01*
X31979082Y31082406D01*
X32052158Y30913425D01*
X32112463Y30780459D01*
X32161870Y30679766D01*
X32202255Y30607606D01*
X32235489Y30560235D01*
X32246785Y30547804D01*
X32331302Y30482200D01*
X32414136Y30457839D01*
X32497714Y30474892D01*
X32584466Y30533529D01*
X32626007Y30574406D01*
X32713538Y30668304D01*
X33524821Y30662754D01*
X34336104Y30657203D01*
X34352048Y30597569D01*
X34395279Y30500261D01*
X34462572Y30424561D01*
X34545568Y30375969D01*
X34635909Y30359987D01*
X34697068Y30370486D01*
X34746694Y30391337D01*
X34794646Y30422351D01*
X34843233Y30466946D01*
X34894768Y30528539D01*
X34951562Y30610548D01*
X35015927Y30716391D01*
X35090172Y30849485D01*
X35176611Y31013247D01*
X35277553Y31211096D01*
X35312346Y31280273D01*
X35439784Y31532683D01*
X35551587Y31750020D01*
X35649933Y31935654D01*
X35736999Y32092955D01*
X35814963Y32225293D01*
X35886004Y32336036D01*
X35952297Y32428555D01*
X36016022Y32506219D01*
X36079355Y32572399D01*
X36144474Y32630463D01*
X36213557Y32683782D01*
X36224360Y32691554D01*
X36437082Y32821387D01*
X36659239Y32912565D01*
X36896356Y32966833D01*
X37153956Y32985935D01*
X37156658Y32985955D01*
X37263478Y32985693D01*
X37340217Y32981950D01*
X37399135Y32972759D01*
X37452493Y32956154D01*
X37512551Y32930168D01*
X37516791Y32928195D01*
X37669781Y32835057D01*
X37798011Y32712769D01*
X37896992Y32567721D01*
X37962232Y32406303D01*
X37988047Y32257566D01*
X37989009Y32192754D01*
X37982324Y32121891D01*
X37966640Y32040813D01*
X37940605Y31945355D01*
X37902867Y31831353D01*
X37852075Y31694643D01*
X37786875Y31531061D01*
X37705917Y31336442D01*
X37634645Y31169009D01*
X37514758Y30893225D01*
X37407267Y30654422D01*
X37310692Y30449554D01*
X37223550Y30275570D01*
X37144361Y30129423D01*
X37071643Y30008063D01*
X37066804Y30000489D01*
X36987410Y29879211D01*
X36902212Y29753221D01*
X36815260Y29628105D01*
X36730605Y29509448D01*
X36652297Y29402833D01*
X36584388Y29313846D01*
X36530928Y29248072D01*
X36495967Y29211096D01*
X36491921Y29207907D01*
X36398099Y29155199D01*
X36275921Y29106730D01*
X36137328Y29065352D01*
X35994262Y29033915D01*
X35858663Y29015270D01*
X35742475Y29012270D01*
X35694940Y29017610D01*
X35647741Y29027688D01*
X35600311Y29041890D01*
X35548107Y29062677D01*
X35486588Y29092509D01*
X35411213Y29133848D01*
X35317440Y29189155D01*
X35200729Y29260891D01*
X35056537Y29351517D01*
X34926821Y29433877D01*
X34798689Y29514804D01*
X34679239Y29589047D01*
X34574059Y29653228D01*
X34488737Y29703968D01*
X34428860Y29737888D01*
X34402696Y29750772D01*
X34363248Y29764167D01*
X34321976Y29774350D01*
X34273252Y29781547D01*
X34211445Y29785982D01*
X34130928Y29787880D01*
X34026072Y29787466D01*
X33891247Y29784964D01*
X33720826Y29780599D01*
X33682429Y29779535D01*
X33516837Y29775127D01*
X33387319Y29772453D01*
X33287606Y29771771D01*
X33211430Y29773343D01*
X33152522Y29777427D01*
X33104613Y29784285D01*
X33061434Y29794175D01*
X33017526Y29807105D01*
X32882231Y29849467D01*
X32767481Y29789388D01*
X32615187Y29697799D01*
X32489804Y29593187D01*
X32375875Y29462356D01*
X32360381Y29441765D01*
X32287790Y29351768D01*
X32198754Y29253404D01*
X32101065Y29154139D01*
X32002514Y29061439D01*
X31910894Y28982770D01*
X31833996Y28925599D01*
X31801788Y28906523D01*
X31700801Y28869627D01*
X31583183Y28855555D01*
X31442705Y28864226D01*
X31273139Y28895557D01*
X31256824Y28899347D01*
X31077690Y28948564D01*
X30922396Y29008411D01*
X30784336Y29083786D01*
X30656903Y29179589D01*
X30533489Y29300715D01*
X30407488Y29452064D01*
X30285596Y29619342D01*
X30157278Y29810232D01*
X30027625Y30015195D01*
X29899912Y30228179D01*
X29777410Y30443130D01*
X29663393Y30653996D01*
X29561135Y30854725D01*
X29473907Y31039263D01*
X29404984Y31201559D01*
X29357776Y31335102D01*
X29333149Y31422280D01*
X29316578Y31498784D01*
X29306494Y31577433D01*
X29301329Y31671044D01*
X29299513Y31792438D01*
X29299439Y31811749D01*
X29299875Y31932928D01*
X29302962Y32022921D01*
X29310098Y32092892D01*
X29322678Y32154004D01*
X29342102Y32217422D01*
X29354683Y32253116D01*
X29427811Y32425638D01*
X29518797Y32580790D01*
X29636424Y32732642D01*
X29694191Y32796999D01*
X29786665Y32890895D01*
X29865135Y32954891D01*
X29939360Y32994164D01*
X30019097Y33013892D01*
X30113015Y33019255D01*
X30323998Y32998098D01*
G37*
G36*
X40050872Y37397620D02*
G01*
X40044508Y37375299D01*
X40023803Y37334519D01*
X39986981Y37272350D01*
X39932266Y37185864D01*
X39857880Y37072133D01*
X39762048Y36928227D01*
X39697723Y36832433D01*
X39476932Y36504034D01*
X39279503Y36209726D01*
X39104869Y35948633D01*
X38952461Y35719884D01*
X38821710Y35522605D01*
X38712047Y35355923D01*
X38622904Y35218964D01*
X38553713Y35110855D01*
X38503905Y35030724D01*
X38472911Y34977697D01*
X38460162Y34950901D01*
X38465091Y34949462D01*
X38485312Y34970425D01*
X38601537Y35107422D01*
X38737093Y35274616D01*
X38888045Y35466791D01*
X39050460Y35678734D01*
X39220405Y35905230D01*
X39393948Y36141064D01*
X39567155Y36381022D01*
X39736092Y36619888D01*
X39815290Y36733751D01*
X39909070Y36866769D01*
X39985040Y36968970D01*
X40042017Y37038867D01*
X40078817Y37074972D01*
X40090686Y37079803D01*
X40115008Y37058341D01*
X40115618Y37043018D01*
X40106808Y37015258D01*
X40085147Y36951806D01*
X40051930Y36856293D01*
X40008455Y36732347D01*
X39956017Y36583598D01*
X39895912Y36413677D01*
X39829437Y36226213D01*
X39757887Y36024835D01*
X39682560Y35813174D01*
X39604751Y35594860D01*
X39525755Y35373521D01*
X39446871Y35152789D01*
X39369393Y34936292D01*
X39294618Y34727660D01*
X39223842Y34530524D01*
X39158361Y34348513D01*
X39099471Y34185256D01*
X39048470Y34044385D01*
X39006651Y33929527D01*
X38975313Y33844314D01*
X38955751Y33792374D01*
X38949377Y33777124D01*
X38932157Y33787270D01*
X38895083Y33825870D01*
X38843248Y33887132D01*
X38781742Y33965263D01*
X38767705Y33983761D01*
X38679127Y34099481D01*
X38611948Y34182933D01*
X38563697Y34236854D01*
X38531904Y34263979D01*
X38514098Y34267046D01*
X38512885Y34266030D01*
X38517789Y34244409D01*
X38541471Y34200763D01*
X38558621Y34174253D01*
X38597430Y34111081D01*
X38644089Y34026228D01*
X38693225Y33930584D01*
X38739465Y33835039D01*
X38777436Y33750485D01*
X38801766Y33687811D01*
X38806232Y33672356D01*
X38811830Y33617543D01*
X38806647Y33582056D01*
X38786776Y33563310D01*
X38738706Y33527344D01*
X38669996Y33479137D01*
X38588201Y33423668D01*
X38500879Y33365916D01*
X38415587Y33310859D01*
X38339883Y33263476D01*
X38281322Y33228746D01*
X38247464Y33211648D01*
X38243008Y33210722D01*
X38224947Y33223494D01*
X38182967Y33256365D01*
X38125827Y33302466D01*
X38120544Y33306780D01*
X37938302Y33430878D01*
X37736383Y33520671D01*
X37513304Y33576446D01*
X37267582Y33598488D01*
X36997736Y33587080D01*
X36801021Y33560585D01*
X36707737Y33545943D01*
X36630877Y33535805D01*
X36579381Y33531224D01*
X36562317Y33532389D01*
X36569041Y33552591D01*
X36591321Y33606289D01*
X36626909Y33688535D01*
X36673556Y33794379D01*
X36729014Y33918871D01*
X36791035Y34057062D01*
X36857369Y34204003D01*
X36925770Y34354745D01*
X36993988Y34504337D01*
X37059775Y34647831D01*
X37120882Y34780277D01*
X37175062Y34896726D01*
X37220066Y34992229D01*
X37253645Y35061836D01*
X37273551Y35100597D01*
X37277484Y35106693D01*
X37298167Y35099784D01*
X37348479Y35073800D01*
X37422185Y35032224D01*
X37513051Y34978537D01*
X37581050Y34937142D01*
X37679875Y34877157D01*
X37765595Y34826758D01*
X37832012Y34789460D01*
X37872926Y34768776D01*
X37883008Y34765983D01*
X37881261Y34792043D01*
X37847654Y34836444D01*
X37786362Y34895242D01*
X37701557Y34964493D01*
X37597416Y35040251D01*
X37580383Y35051934D01*
X37481719Y35120330D01*
X37414759Y35172617D01*
X37375740Y35215857D01*
X37360896Y35257114D01*
X37366461Y35303450D01*
X37388671Y35361929D01*
X37400743Y35388916D01*
X37426315Y35451081D01*
X37441882Y35508632D01*
X37445919Y35566948D01*
X37436906Y35631408D01*
X37413320Y35707391D01*
X37373639Y35800276D01*
X37316341Y35915443D01*
X37239903Y36058270D01*
X37181095Y36165127D01*
X37135898Y36250069D01*
X37101434Y36321291D01*
X37081283Y36370926D01*
X37078460Y36390756D01*
X37100580Y36399852D01*
X37158992Y36421194D01*
X37249844Y36453468D01*
X37369290Y36495358D01*
X37513478Y36545548D01*
X37678562Y36602724D01*
X37860690Y36665569D01*
X38056016Y36732769D01*
X38260689Y36803007D01*
X38470860Y36874970D01*
X38682681Y36947341D01*
X38892302Y37018806D01*
X39095875Y37088048D01*
X39289550Y37153753D01*
X39469479Y37214605D01*
X39631813Y37269289D01*
X39772702Y37316489D01*
X39888297Y37354890D01*
X39974750Y37383178D01*
X40028212Y37400036D01*
X40044672Y37404409D01*
X40050872Y37397620D01*
G37*
G36*
X27856762Y30084764D02*
G01*
X27943371Y30049774D01*
X28038453Y29986742D01*
X28138404Y29901935D01*
X28291006Y29778192D01*
X28454759Y29679026D01*
X28497636Y29657445D01*
X28580499Y29615953D01*
X28648267Y29579914D01*
X28692330Y29554028D01*
X28704434Y29544508D01*
X28704761Y29536793D01*
X28693920Y29526908D01*
X28667562Y29513089D01*
X28621338Y29493570D01*
X28550900Y29466585D01*
X28451900Y29430369D01*
X28319987Y29383157D01*
X28216874Y29346564D01*
X27530477Y29119135D01*
X26808060Y28910136D01*
X26051998Y28720085D01*
X25264669Y28549503D01*
X24448450Y28398909D01*
X23605717Y28268823D01*
X22841353Y28171410D01*
X22507700Y28132966D01*
X22507700Y29113432D01*
X22841353Y29150614D01*
X23538264Y29235583D01*
X24227342Y29334008D01*
X24902985Y29444840D01*
X25559588Y29567036D01*
X26191549Y29699547D01*
X26793265Y29841327D01*
X27359133Y29991332D01*
X27389746Y29999982D01*
X27505914Y30032194D01*
X27610276Y30059780D01*
X27694965Y30080763D01*
X27752113Y30093170D01*
X27771064Y30095701D01*
X27856762Y30084764D01*
G37*
G36*
X14182498Y47805750D02*
G01*
X14417851Y47745650D01*
X14639672Y47648649D01*
X14842933Y47517339D01*
X15022606Y47354311D01*
X15144297Y47205170D01*
X15248925Y47040362D01*
X15353415Y46843858D01*
X15453449Y46626125D01*
X15544707Y46397628D01*
X15622871Y46168834D01*
X15683621Y45950210D01*
X15707708Y45839841D01*
X15746088Y45594741D01*
X15773735Y45317069D01*
X15790689Y45015229D01*
X15796990Y44697624D01*
X15792678Y44372660D01*
X15777794Y44048739D01*
X15752378Y43734267D01*
X15716470Y43437646D01*
X15695548Y43304243D01*
X15648470Y43068596D01*
X15584885Y42811890D01*
X15508232Y42544803D01*
X15421950Y42278015D01*
X15329478Y42022205D01*
X15234255Y41788054D01*
X15146920Y41600435D01*
X15023635Y41401441D01*
X14866963Y41223208D01*
X14682717Y41070424D01*
X14476711Y40947775D01*
X14254757Y40859949D01*
X14214039Y40848328D01*
X14079199Y40821880D01*
X13922909Y40806659D01*
X13761576Y40803162D01*
X13611606Y40811889D01*
X13514956Y40827085D01*
X13299177Y40894637D01*
X13088232Y40999105D01*
X12891709Y41135303D01*
X12804172Y41211498D01*
X12587516Y41440185D01*
X12406809Y41687164D01*
X12258965Y41957299D01*
X12140897Y42255453D01*
X12139951Y42258305D01*
X12101749Y42377735D01*
X12070535Y42486826D01*
X12045630Y42591733D01*
X12026356Y42698615D01*
X12012031Y42813627D01*
X12001979Y42942927D01*
X11995517Y43092671D01*
X11991969Y43269016D01*
X11990653Y43478119D01*
X11990638Y43611415D01*
X11991736Y43801607D01*
X11994384Y43996580D01*
X11998353Y44187498D01*
X12003416Y44365520D01*
X12009344Y44521810D01*
X12015910Y44647527D01*
X12018210Y44681223D01*
X12029731Y44820000D01*
X12045270Y44982144D01*
X12063925Y45160168D01*
X12084791Y45346586D01*
X12106962Y45533912D01*
X12129536Y45714658D01*
X12151608Y45881337D01*
X12172274Y46026464D01*
X12190630Y46142550D01*
X12202426Y46206494D01*
X12235446Y46319880D01*
X12291212Y46457832D01*
X12365338Y46612376D01*
X12453438Y46775538D01*
X12551124Y46939344D01*
X12654010Y47095819D01*
X12757707Y47236991D01*
X12794437Y47282583D01*
X12969715Y47462280D01*
X13168101Y47608209D01*
X13385592Y47718469D01*
X13618189Y47791158D01*
X13861889Y47824374D01*
X13938643Y47826359D01*
X14182498Y47805750D01*
G37*
G36*
X37391135Y39793257D02*
G01*
X37402107Y39769505D01*
X37424907Y39710207D01*
X37458100Y39619568D01*
X37500249Y39501791D01*
X37549918Y39361078D01*
X37605670Y39201634D01*
X37666069Y39027661D01*
X37729678Y38843362D01*
X37795062Y38652941D01*
X37860784Y38460602D01*
X37925407Y38270546D01*
X37987496Y38086978D01*
X38045614Y37914101D01*
X38098324Y37756118D01*
X38144191Y37617232D01*
X38181778Y37501646D01*
X38209648Y37413564D01*
X38226366Y37357189D01*
X38230564Y37336772D01*
X38209205Y37327998D01*
X38153372Y37307472D01*
X38068685Y37277142D01*
X37960763Y37238958D01*
X37835223Y37194869D01*
X37697686Y37146824D01*
X37553769Y37096772D01*
X37409092Y37046663D01*
X37269273Y36998446D01*
X37139931Y36954069D01*
X37026685Y36915483D01*
X36935154Y36884636D01*
X36870956Y36863477D01*
X36839710Y36853956D01*
X36837811Y36853617D01*
X36823292Y36867162D01*
X36800972Y36891071D01*
X36748880Y36969955D01*
X36707534Y37071969D01*
X36683815Y37178049D01*
X36680711Y37224343D01*
X36687163Y37285871D01*
X36706108Y37383745D01*
X36736660Y37514110D01*
X36777930Y37673113D01*
X36814840Y37806911D01*
X36854275Y37947944D01*
X36901983Y38120395D01*
X36955358Y38314735D01*
X37011792Y38521435D01*
X37068681Y38730964D01*
X37123418Y38933794D01*
X37146086Y39018223D01*
X37191980Y39188507D01*
X37235017Y39346344D01*
X37273848Y39486929D01*
X37307123Y39605453D01*
X37333496Y39697111D01*
X37351615Y39757095D01*
X37359881Y39780245D01*
X37382169Y39796764D01*
X37391135Y39793257D01*
G37*
G36*
X16013895Y8447265D02*
G01*
X16007893Y8490774D01*
X16008170Y8498930D01*
X16031602Y8506889D01*
X16088373Y8521377D01*
X16170314Y8540433D01*
X16269258Y8562092D01*
X16283786Y8565175D01*
X16394085Y8589241D01*
X16468803Y8607914D01*
X16514040Y8623417D01*
X16535892Y8637972D01*
X16540459Y8653805D01*
X16539561Y8658431D01*
X16536256Y8675761D01*
X16540949Y8689231D01*
X16559830Y8701174D01*
X16599092Y8713926D01*
X16664925Y8729820D01*
X16763521Y8751190D01*
X16814045Y8761905D01*
X16946266Y8788102D01*
X17043981Y8801081D01*
X17113561Y8798756D01*
X17161381Y8779044D01*
X17193811Y8739859D01*
X17217226Y8679118D01*
X17230999Y8625510D01*
X17248361Y8561937D01*
X17270591Y8525875D01*
X17310453Y8503209D01*
X17355503Y8487812D01*
X17424197Y8459611D01*
X17467497Y8421340D01*
X17495046Y8374525D01*
X17519595Y8313973D01*
X17522550Y8263291D01*
X17509550Y8208568D01*
X17467663Y8127224D01*
X17421132Y8088827D01*
X17391274Y8071246D01*
X17373688Y8053083D01*
X17367398Y8025283D01*
X17371426Y7978790D01*
X17384795Y7904549D01*
X17395415Y7850443D01*
X17389885Y7790403D01*
X17356571Y7740151D01*
X17328195Y7714621D01*
X17288815Y7693288D01*
X17230386Y7673311D01*
X17144867Y7651847D01*
X17047104Y7630773D01*
X16934102Y7607265D01*
X16856198Y7591444D01*
X16806925Y7582799D01*
X16779811Y7580820D01*
X16768389Y7584997D01*
X16766189Y7594819D01*
X16766749Y7608663D01*
X16763929Y7625662D01*
X16751405Y7635363D01*
X16723082Y7637350D01*
X16672867Y7631203D01*
X16594663Y7616507D01*
X16482377Y7592842D01*
X16457522Y7587479D01*
X16361711Y7566854D01*
X16282540Y7549983D01*
X16228299Y7538619D01*
X16207301Y7534518D01*
X16201580Y7554280D01*
X16188398Y7609713D01*
X16169058Y7695032D01*
X16144858Y7804453D01*
X16117099Y7932195D01*
X16100039Y8011660D01*
X16071420Y8147930D01*
X16046777Y8269910D01*
X16034616Y8333212D01*
X16226170Y8333212D01*
X16229223Y8303959D01*
X16242899Y8275526D01*
X16272143Y8266232D01*
X16323756Y8270434D01*
X16377038Y8275340D01*
X16400614Y8266391D01*
X16406500Y8237114D01*
X16406616Y8225798D01*
X16398326Y8183534D01*
X16366941Y8169993D01*
X16358951Y8169723D01*
X16310912Y8162965D01*
X16288851Y8153835D01*
X16277774Y8126103D01*
X16279154Y8078488D01*
X16289783Y8026123D01*
X16306455Y7984141D01*
X16325964Y7967674D01*
X16328211Y7968090D01*
X16402786Y7988405D01*
X16445978Y7991895D01*
X16465768Y7977400D01*
X16470169Y7947486D01*
X16461027Y7906339D01*
X16425606Y7885390D01*
X16406175Y7880793D01*
X16351256Y7864934D01*
X16330232Y7840506D01*
X16334653Y7797429D01*
X16335048Y7795905D01*
X16341238Y7777564D01*
X16353205Y7767274D01*
X16378537Y7765245D01*
X16424820Y7771691D01*
X16499642Y7786824D01*
X16572350Y7802545D01*
X16669621Y7823774D01*
X16755288Y7842611D01*
X16818521Y7856666D01*
X16844750Y7862641D01*
X16886221Y7859759D01*
X16904091Y7832221D01*
X16925026Y7802324D01*
X16942604Y7799152D01*
X16976357Y7807580D01*
X17036487Y7820569D01*
X17086597Y7830682D01*
X17205194Y7853952D01*
X17184415Y7959039D01*
X17170640Y8021009D01*
X17154405Y8052054D01*
X17125302Y8062863D01*
X17082111Y8064126D01*
X17027384Y8068067D01*
X17000372Y8085792D01*
X16987532Y8122383D01*
X16972801Y8185013D01*
X16955599Y8254284D01*
X16955470Y8254785D01*
X16941171Y8315039D01*
X16942561Y8347601D01*
X16965604Y8366019D01*
X17011602Y8382298D01*
X17052751Y8399266D01*
X17073983Y8422371D01*
X17077152Y8461127D01*
X17064113Y8525047D01*
X17049729Y8577846D01*
X17043365Y8598675D01*
X17032688Y8609420D01*
X17008331Y8610564D01*
X16960929Y8602589D01*
X16883263Y8586429D01*
X16812288Y8569464D01*
X16774651Y8553246D01*
X16761701Y8532870D01*
X16762025Y8517693D01*
X16760620Y8499215D01*
X16746213Y8484033D01*
X16712280Y8469704D01*
X16652291Y8453784D01*
X16559720Y8433831D01*
X16512334Y8424218D01*
X16412450Y8403504D01*
X16327499Y8384698D01*
X16266256Y8369826D01*
X16237497Y8360914D01*
X16237162Y8360719D01*
X16226170Y8333212D01*
X16034616Y8333212D01*
X16027229Y8371666D01*
X16013895Y8447265D01*
G37*
G36*
X16543542Y28791267D02*
G01*
X16438352Y28935479D01*
X16364635Y29084035D01*
X16326462Y29231803D01*
X16321958Y29299885D01*
X16334934Y29392402D01*
X16376808Y29469141D01*
X16452283Y29536161D01*
X16547511Y29590578D01*
X16635795Y29630230D01*
X16712751Y29653251D01*
X16799152Y29664775D01*
X16861576Y29668207D01*
X16904709Y29669923D01*
X16942489Y29670673D01*
X16979174Y29669414D01*
X17019024Y29665102D01*
X17066298Y29656694D01*
X17125253Y29643148D01*
X17200150Y29623421D01*
X17295247Y29596469D01*
X17414802Y29561250D01*
X17563074Y29516721D01*
X17744323Y29461838D01*
X17912050Y29410953D01*
X18203057Y29325472D01*
X18491831Y29245967D01*
X18770557Y29174387D01*
X19031418Y29112680D01*
X19266597Y29062795D01*
X19425382Y29033646D01*
X19582333Y29013284D01*
X19776172Y28998144D01*
X20001727Y28988321D01*
X20253831Y28983911D01*
X20527311Y28985011D01*
X20816998Y28991716D01*
X21089962Y29002752D01*
X21250706Y29009854D01*
X21373994Y29013208D01*
X21464618Y29012267D01*
X21527370Y29006482D01*
X21567043Y28995305D01*
X21588427Y28978186D01*
X21596315Y28954578D01*
X21596774Y28944746D01*
X21595038Y28926139D01*
X21585722Y28912052D01*
X21562667Y28900897D01*
X21519712Y28891086D01*
X21450697Y28881032D01*
X21349461Y28869147D01*
X21269201Y28860314D01*
X21045354Y28829659D01*
X20849695Y28790062D01*
X20685263Y28742498D01*
X20555094Y28687945D01*
X20462225Y28627381D01*
X20426096Y28589139D01*
X20396377Y28525442D01*
X20385031Y28454811D01*
X20404584Y28368327D01*
X20463007Y28297953D01*
X20559946Y28243783D01*
X20695046Y28205908D01*
X20867955Y28184422D01*
X21078317Y28179415D01*
X21325780Y28190982D01*
X21379635Y28195287D01*
X21575590Y28211937D01*
X21575590Y28148368D01*
X21562264Y28090029D01*
X21537624Y28064480D01*
X21506413Y28057843D01*
X21439242Y28050153D01*
X21342491Y28041916D01*
X21222540Y28033638D01*
X21085769Y28025822D01*
X20992127Y28021286D01*
X20585668Y28003554D01*
X20219688Y27988851D01*
X19892408Y27977149D01*
X19602050Y27968416D01*
X19346834Y27962621D01*
X19124981Y27959733D01*
X18934714Y27959723D01*
X18774252Y27962559D01*
X18641817Y27968210D01*
X18535630Y27976646D01*
X18518163Y27978574D01*
X18289853Y28014594D01*
X18037735Y28070949D01*
X17773085Y28144225D01*
X17507183Y28231008D01*
X17251305Y28327883D01*
X17016730Y28431436D01*
X17007240Y28436012D01*
X16832057Y28536401D01*
X16753952Y28596576D01*
X19012601Y28596576D01*
X19028153Y28514750D01*
X19077029Y28442913D01*
X19128801Y28404477D01*
X19205368Y28381829D01*
X19287599Y28387008D01*
X19356812Y28418320D01*
X19365759Y28425950D01*
X19405301Y28488993D01*
X19413257Y28564586D01*
X19393374Y28641893D01*
X19349397Y28710078D01*
X19285071Y28758306D01*
X19246288Y28771585D01*
X19174000Y28769636D01*
X19100306Y28740682D01*
X19044089Y28693083D01*
X19034100Y28677643D01*
X19012601Y28596576D01*
X16753952Y28596576D01*
X16676134Y28656530D01*
X16543542Y28791267D01*
G37*
G36*
X4578594Y21417351D02*
G01*
X4622047Y21398393D01*
X4680272Y21362357D01*
X4759209Y21306525D01*
X4864797Y21228177D01*
X4887220Y21211377D01*
X5243370Y20959661D01*
X5600823Y20738858D01*
X5974527Y20539768D01*
X5994522Y20529917D01*
X6230623Y20419093D01*
X6454536Y20325569D01*
X6679608Y20244574D01*
X6919183Y20171339D01*
X7186606Y20101093D01*
X7210712Y20095189D01*
X7324965Y20066543D01*
X7470733Y20028757D01*
X7638783Y19984297D01*
X7819881Y19935627D01*
X8004793Y19885210D01*
X8184287Y19835512D01*
X8197692Y19831765D01*
X8660776Y19703864D01*
X9090263Y19588935D01*
X9492449Y19485684D01*
X9873632Y19392816D01*
X10240107Y19309037D01*
X10598172Y19233053D01*
X10954124Y19163569D01*
X11314259Y19099293D01*
X11684876Y19038928D01*
X12072269Y18981182D01*
X12482737Y18924760D01*
X12826466Y18880396D01*
X13043455Y18853102D01*
X13224706Y18830483D01*
X13376518Y18811909D01*
X13505189Y18796750D01*
X13617015Y18784376D01*
X13718295Y18774158D01*
X13815327Y18765465D01*
X13914408Y18757667D01*
X14021837Y18750135D01*
X14143911Y18742238D01*
X14286927Y18733347D01*
X14312186Y18731789D01*
X14449310Y18722445D01*
X14573765Y18712282D01*
X14678745Y18701993D01*
X14757445Y18692269D01*
X14803059Y18683801D01*
X14810017Y18681223D01*
X14828481Y18666393D01*
X14821336Y18651224D01*
X14783130Y18629855D01*
X14746860Y18613317D01*
X14698061Y18593099D01*
X14614512Y18560116D01*
X14501221Y18516249D01*
X14363194Y18463379D01*
X14205440Y18403387D01*
X14032965Y18338154D01*
X13850776Y18269561D01*
X13663881Y18199489D01*
X13477287Y18129818D01*
X13296002Y18062430D01*
X13125031Y17999205D01*
X12969383Y17942025D01*
X12834065Y17892770D01*
X12724084Y17853321D01*
X12716659Y17850691D01*
X12592945Y17807478D01*
X12480076Y17769630D01*
X12372532Y17735792D01*
X12264789Y17704611D01*
X12151329Y17674732D01*
X12026628Y17644800D01*
X11885166Y17613462D01*
X11721423Y17579363D01*
X11529875Y17541149D01*
X11305003Y17497467D01*
X11174089Y17472336D01*
X10774672Y17396430D01*
X10414456Y17329178D01*
X10091243Y17270207D01*
X9802837Y17219145D01*
X9547043Y17175620D01*
X9321664Y17139261D01*
X9124504Y17109695D01*
X8953367Y17086550D01*
X8806055Y17069454D01*
X8780261Y17066828D01*
X8717797Y17062637D01*
X8618288Y17058484D01*
X8487058Y17054432D01*
X8329431Y17050546D01*
X8150730Y17046887D01*
X7956279Y17043522D01*
X7751402Y17040513D01*
X7541423Y17037924D01*
X7331664Y17035820D01*
X7127451Y17034264D01*
X6934106Y17033320D01*
X6756954Y17033051D01*
X6601318Y17033523D01*
X6472522Y17034797D01*
X6375889Y17036940D01*
X6354656Y17037732D01*
X5864812Y17064394D01*
X5411995Y17101437D01*
X4992050Y17149285D01*
X4600823Y17208358D01*
X4501028Y17226022D01*
X4325345Y17258915D01*
X4183214Y17288170D01*
X4066321Y17316665D01*
X3966352Y17347275D01*
X3874995Y17382877D01*
X3783935Y17426346D01*
X3684860Y17480560D01*
X3569766Y17548208D01*
X3459174Y17616197D01*
X3353950Y17684165D01*
X3262854Y17746219D01*
X3194646Y17796464D01*
X3169024Y17817873D01*
X3114361Y17874487D01*
X3042831Y17958039D01*
X2960863Y18060079D01*
X2874887Y18172154D01*
X2791331Y18285814D01*
X2716626Y18392609D01*
X2657200Y18484088D01*
X2639494Y18513893D01*
X2578311Y18637837D01*
X2519247Y18788813D01*
X2464124Y18958714D01*
X2414766Y19139434D01*
X2372997Y19322865D01*
X2340639Y19500901D01*
X2319517Y19665436D01*
X2311452Y19808362D01*
X2318269Y19921572D01*
X2320263Y19933254D01*
X2354191Y20056413D01*
X2409565Y20160812D01*
X2492661Y20255029D01*
X2609752Y20347641D01*
X2636808Y20366063D01*
X2671021Y20386900D01*
X2737660Y20425708D01*
X2832108Y20479895D01*
X2949747Y20546870D01*
X3085959Y20624042D01*
X3236126Y20708819D01*
X3395630Y20798610D01*
X3559853Y20890824D01*
X3724178Y20982870D01*
X3883985Y21072155D01*
X4034658Y21156090D01*
X4171578Y21232081D01*
X4290127Y21297539D01*
X4385688Y21349872D01*
X4453642Y21386489D01*
X4477484Y21398943D01*
X4512252Y21414907D01*
X4543975Y21421949D01*
X4578594Y21417351D01*
G37*
G36*
X16526150Y8347018D02*
G01*
X16543770Y8313042D01*
X16576768Y8165969D01*
X16600303Y8054994D01*
X16615147Y7975101D01*
X16622068Y7921273D01*
X16621838Y7888494D01*
X16615225Y7871748D01*
X16611933Y7868986D01*
X16563863Y7853507D01*
X16532050Y7876572D01*
X16523671Y7899947D01*
X16507424Y7972547D01*
X16488545Y8058811D01*
X16469154Y8148802D01*
X16451367Y8232587D01*
X16437300Y8300227D01*
X16429071Y8341789D01*
X16427800Y8349890D01*
X16445966Y8358052D01*
X16480357Y8360706D01*
X16526150Y8347018D01*
G37*
G36*
X21569446Y28591324D02*
G01*
X21675224Y28589802D01*
X21749732Y28586722D01*
X21798517Y28581641D01*
X21827124Y28574113D01*
X21841100Y28563694D01*
X21843956Y28558313D01*
X21849300Y28526607D01*
X21835265Y28501303D01*
X21797482Y28480974D01*
X21731581Y28464197D01*
X21633194Y28449545D01*
X21497950Y28435594D01*
X21456475Y28431928D01*
X21278992Y28416769D01*
X21138749Y28405253D01*
X21030794Y28397155D01*
X20950174Y28392250D01*
X20891939Y28390312D01*
X20851135Y28391116D01*
X20822812Y28394437D01*
X20802017Y28400049D01*
X20797066Y28401922D01*
X20760381Y28423838D01*
X20749402Y28441027D01*
X20742385Y28477582D01*
X20737324Y28492634D01*
X20747076Y28519471D01*
X20796636Y28542615D01*
X20883578Y28561716D01*
X21005475Y28576427D01*
X21159898Y28586399D01*
X21344420Y28591282D01*
X21426850Y28591732D01*
X21569446Y28591324D01*
G37*
G36*
X33623921Y41421896D02*
G01*
X33629574Y41413542D01*
X33630808Y41383203D01*
X33634217Y41314913D01*
X33639560Y41213021D01*
X33646593Y41081877D01*
X33655076Y40925828D01*
X33664767Y40749225D01*
X33675423Y40556416D01*
X33686803Y40351749D01*
X33698664Y40139574D01*
X33710765Y39924240D01*
X33722865Y39710096D01*
X33734720Y39501490D01*
X33746089Y39302771D01*
X33756731Y39118289D01*
X33766403Y38952393D01*
X33767737Y38929680D01*
X33779953Y38721993D01*
X33792212Y38513517D01*
X33804110Y38311151D01*
X33815240Y38121791D01*
X33825199Y37952334D01*
X33833579Y37809676D01*
X33839976Y37700716D01*
X33841202Y37679806D01*
X33846506Y37577509D01*
X33852577Y37440170D01*
X33859148Y37275102D01*
X33865951Y37089619D01*
X33872718Y36891034D01*
X33879179Y36686661D01*
X33885068Y36483813D01*
X33885094Y36482891D01*
X33890623Y36294001D01*
X33896453Y36115504D01*
X33902371Y35952501D01*
X33908166Y35810092D01*
X33913628Y35693377D01*
X33918544Y35607454D01*
X33922706Y35557424D01*
X33923663Y35550781D01*
X33938846Y35466044D01*
X33969297Y35550781D01*
X33977959Y35597579D01*
X33985101Y35683194D01*
X33990720Y35804099D01*
X33994815Y35956770D01*
X33997381Y36137682D01*
X33998417Y36343309D01*
X33997919Y36570126D01*
X33995884Y36814609D01*
X33992311Y37073231D01*
X33987195Y37342467D01*
X33980535Y37618793D01*
X33972327Y37898684D01*
X33971183Y37934017D01*
X33964110Y38151088D01*
X33956307Y38392199D01*
X33948184Y38644534D01*
X33940152Y38895279D01*
X33932623Y39131619D01*
X33926009Y39340738D01*
X33924946Y39374551D01*
X33918332Y39565119D01*
X33910337Y39763200D01*
X33901427Y39959180D01*
X33892070Y40143445D01*
X33882732Y40306381D01*
X33873879Y40438375D01*
X33872314Y40458864D01*
X33862253Y40594844D01*
X33853593Y40726291D01*
X33846901Y40843390D01*
X33842748Y40936322D01*
X33841636Y40988472D01*
X33846032Y41074382D01*
X33857488Y41138094D01*
X33874089Y41172886D01*
X33893875Y41172085D01*
X33905220Y41152326D01*
X33935576Y41097360D01*
X33983821Y41009256D01*
X34048830Y40890084D01*
X34129479Y40741917D01*
X34224646Y40566823D01*
X34333206Y40366873D01*
X34454037Y40144138D01*
X34586014Y39900689D01*
X34728013Y39638594D01*
X34878912Y39359926D01*
X35037587Y39066755D01*
X35202914Y38761150D01*
X35373769Y38445182D01*
X35388002Y38418855D01*
X36869630Y35678124D01*
X36790708Y35650384D01*
X36738098Y35633151D01*
X36678948Y35616628D01*
X36608984Y35600048D01*
X36523934Y35582647D01*
X36419524Y35563659D01*
X36291482Y35542317D01*
X36135533Y35517856D01*
X35947406Y35489511D01*
X35722826Y35456515D01*
X35648687Y35445737D01*
X35466163Y35418867D01*
X35294950Y35392923D01*
X35140025Y35368715D01*
X35006367Y35347051D01*
X34898954Y35328742D01*
X34822764Y35314598D01*
X34782776Y35305426D01*
X34780130Y35304499D01*
X34720461Y35280626D01*
X34810675Y35240053D01*
X34900889Y35199479D01*
X35878518Y35327665D01*
X36076913Y35353529D01*
X36262080Y35377377D01*
X36429862Y35398696D01*
X36576102Y35416971D01*
X36696643Y35431688D01*
X36787329Y35442332D01*
X36844003Y35448388D01*
X36862534Y35449464D01*
X36856178Y35428607D01*
X36833586Y35373558D01*
X36796661Y35288415D01*
X36747301Y35177276D01*
X36687408Y35044241D01*
X36618882Y34893408D01*
X36543623Y34728876D01*
X36463531Y34554743D01*
X36380508Y34375109D01*
X36296452Y34194071D01*
X36213265Y34015729D01*
X36132847Y33844181D01*
X36057098Y33683525D01*
X35987918Y33537862D01*
X35927209Y33411288D01*
X35876869Y33307904D01*
X35838801Y33231807D01*
X35814903Y33187096D01*
X35809906Y33179150D01*
X35750697Y33109699D01*
X35678519Y33041978D01*
X35649214Y33019119D01*
X35581445Y32962511D01*
X35509948Y32890806D01*
X35471764Y32846319D01*
X35433091Y32792577D01*
X35378172Y32709829D01*
X35311769Y32605863D01*
X35238641Y32488466D01*
X35163550Y32365426D01*
X35091255Y32244533D01*
X35026518Y32133573D01*
X34974098Y32040335D01*
X34942975Y31981223D01*
X34890717Y31888066D01*
X34840770Y31827714D01*
X34785799Y31791716D01*
X34774460Y31787039D01*
X34738688Y31778920D01*
X34667690Y31767328D01*
X34568378Y31753223D01*
X34447661Y31737567D01*
X34312452Y31721321D01*
X34255445Y31714827D01*
X34111215Y31697626D01*
X33973928Y31679351D01*
X33851745Y31661234D01*
X33752822Y31644508D01*
X33685320Y31630403D01*
X33671837Y31626691D01*
X33555323Y31590919D01*
X33703613Y31577177D01*
X33785632Y31573496D01*
X33899711Y31573755D01*
X34035772Y31577492D01*
X34183735Y31584248D01*
X34333522Y31593562D01*
X34475053Y31604974D01*
X34598249Y31618022D01*
X34598651Y31618072D01*
X34666926Y31624278D01*
X34714735Y31624300D01*
X34731053Y31618796D01*
X34723064Y31593959D01*
X34701483Y31539243D01*
X34669892Y31463504D01*
X34642583Y31400060D01*
X34611541Y31327258D01*
X34586811Y31273039D01*
X34561917Y31233372D01*
X34530383Y31204225D01*
X34485732Y31181566D01*
X34421488Y31161364D01*
X34331174Y31139586D01*
X34208314Y31112201D01*
X34164331Y31102333D01*
X34095019Y31087127D01*
X34032983Y31075135D01*
X33971988Y31065983D01*
X33905798Y31059298D01*
X33828180Y31054708D01*
X33732898Y31051840D01*
X33613716Y31050320D01*
X33464401Y31049776D01*
X33286484Y31049826D01*
X32644397Y31050539D01*
X32457134Y31494379D01*
X32402518Y31624568D01*
X32353113Y31743740D01*
X32311459Y31845653D01*
X32280097Y31924067D01*
X32261567Y31972739D01*
X32257974Y31983717D01*
X32253848Y32007318D01*
X32262722Y32019627D01*
X32293032Y32022544D01*
X32353214Y32017971D01*
X32392276Y32013977D01*
X32487187Y32002427D01*
X32600589Y31986240D01*
X32709354Y31968736D01*
X32718543Y31967136D01*
X32820745Y31949170D01*
X32944726Y31927332D01*
X33070543Y31905135D01*
X33128902Y31894826D01*
X33248939Y31876990D01*
X33378664Y31863125D01*
X33497680Y31855218D01*
X33547293Y31854117D01*
X33735390Y31854117D01*
X33735390Y31926440D01*
X33738236Y31962212D01*
X33746374Y32035271D01*
X33759207Y32140944D01*
X33776138Y32274562D01*
X33796567Y32431454D01*
X33819898Y32606948D01*
X33845533Y32796373D01*
X33863511Y32927399D01*
X33907973Y33256797D01*
X33944893Y33546152D01*
X33974419Y33797089D01*
X33996700Y34011230D01*
X34011885Y34190198D01*
X34020123Y34335616D01*
X34021563Y34449106D01*
X34016353Y34532293D01*
X34012798Y34555562D01*
X33999771Y34615521D01*
X33987617Y34655856D01*
X33983386Y34663725D01*
X33973494Y34657000D01*
X33960810Y34618801D01*
X33945121Y34547789D01*
X33926214Y34442627D01*
X33903876Y34301977D01*
X33877895Y34124501D01*
X33848058Y33908861D01*
X33814151Y33653719D01*
X33777374Y33368796D01*
X33739699Y33076150D01*
X33706435Y32823530D01*
X33677262Y32608858D01*
X33651861Y32430057D01*
X33629914Y32285047D01*
X33611102Y32171751D01*
X33595106Y32088092D01*
X33581608Y32031991D01*
X33570289Y32001371D01*
X33566854Y31996368D01*
X33543173Y31996088D01*
X33482719Y32002810D01*
X33390375Y32015785D01*
X33271023Y32034260D01*
X33129544Y32057487D01*
X32970819Y32084715D01*
X32833253Y32109134D01*
X32634385Y32144991D01*
X32472728Y32174748D01*
X32343827Y32199989D01*
X32243227Y32222301D01*
X32166475Y32243268D01*
X32109114Y32264475D01*
X32066689Y32287507D01*
X32034748Y32313949D01*
X32008833Y32345387D01*
X31984491Y32383405D01*
X31963826Y32418485D01*
X31928470Y32492606D01*
X31898898Y32587169D01*
X31874177Y32707112D01*
X31853376Y32857372D01*
X31835565Y33042885D01*
X31828519Y33135769D01*
X31805437Y33455194D01*
X31784379Y33734475D01*
X31765130Y33975775D01*
X31747473Y34181260D01*
X31731193Y34353093D01*
X31716073Y34493441D01*
X31701898Y34604466D01*
X31688451Y34688334D01*
X31675516Y34747209D01*
X31664447Y34779929D01*
X31637312Y34826887D01*
X31588288Y34898831D01*
X31522775Y34988340D01*
X31446176Y35087991D01*
X31381002Y35169464D01*
X31268392Y35308064D01*
X31180434Y35417274D01*
X31114675Y35500269D01*
X31068658Y35560221D01*
X31039931Y35600303D01*
X31026038Y35623688D01*
X31023797Y35631262D01*
X31030446Y35643819D01*
X31052267Y35651548D01*
X31092072Y35654084D01*
X31152673Y35651064D01*
X31236883Y35642122D01*
X31347514Y35626894D01*
X31487376Y35605015D01*
X31659283Y35576120D01*
X31866047Y35539846D01*
X32110479Y35495826D01*
X32214692Y35476833D01*
X32466701Y35431066D01*
X32680066Y35392971D01*
X32857728Y35362095D01*
X33002625Y35337980D01*
X33117696Y35320171D01*
X33205879Y35308212D01*
X33270113Y35301646D01*
X33313336Y35300017D01*
X33337461Y35302587D01*
X33381768Y35315988D01*
X33389355Y35327277D01*
X33364877Y35343468D01*
X33364664Y35343582D01*
X33336589Y35351947D01*
X33270831Y35367926D01*
X33171224Y35390683D01*
X33041604Y35419386D01*
X32885805Y35453201D01*
X32707663Y35491293D01*
X32511011Y35532829D01*
X32299686Y35576975D01*
X32125382Y35613045D01*
X31850547Y35669978D01*
X31614589Y35719536D01*
X31414778Y35762350D01*
X31248383Y35799050D01*
X31112678Y35830269D01*
X31004931Y35856637D01*
X30922414Y35878785D01*
X30862398Y35897346D01*
X30822153Y35912949D01*
X30815954Y35915911D01*
X30753772Y35948905D01*
X30708456Y35976547D01*
X30692482Y35989846D01*
X30700951Y36010294D01*
X30728216Y36066052D01*
X30773178Y36155023D01*
X30834743Y36275108D01*
X30911812Y36424209D01*
X31003290Y36600228D01*
X31108081Y36801065D01*
X31225087Y37024624D01*
X31353212Y37268805D01*
X31491359Y37531511D01*
X31638432Y37810643D01*
X31793334Y38104103D01*
X31954970Y38409792D01*
X32118423Y38718410D01*
X32329229Y39115854D01*
X32521070Y39476984D01*
X32694618Y39803032D01*
X32850541Y40095229D01*
X32989509Y40354806D01*
X33112192Y40582995D01*
X33219259Y40781026D01*
X33311379Y40950133D01*
X33389222Y41091545D01*
X33453458Y41206495D01*
X33504756Y41296213D01*
X33543786Y41361931D01*
X33571217Y41404881D01*
X33587719Y41426294D01*
X33592396Y41429337D01*
X33623921Y41421896D01*
G37*
G36*
X2031090Y44785916D02*
G01*
X2078005Y44758289D01*
X2144771Y44715466D01*
X2209976Y44671634D01*
X2288313Y44613893D01*
X2377544Y44539940D01*
X2481395Y44446350D01*
X2603593Y44329702D01*
X2747865Y44186573D01*
X2841614Y44091617D01*
X3046902Y43878731D01*
X3224221Y43686168D01*
X3378609Y43507683D01*
X3515101Y43337032D01*
X3638734Y43167969D01*
X3754544Y42994251D01*
X3845443Y42846892D01*
X4008066Y42590885D01*
X4168813Y42371590D01*
X4332256Y42183844D01*
X4502967Y42022484D01*
X4685519Y41882346D01*
X4720842Y41858410D01*
X4884421Y41761895D01*
X5065048Y41676314D01*
X5252355Y41605265D01*
X5435973Y41552345D01*
X5605534Y41521153D01*
X5712909Y41514167D01*
X5898520Y41530555D01*
X6078204Y41577206D01*
X6245156Y41650357D01*
X6392571Y41746242D01*
X6513643Y41861096D01*
X6601566Y41991154D01*
X6611194Y42011128D01*
X6633578Y42061259D01*
X6652113Y42108012D01*
X6666916Y42155478D01*
X6678104Y42207748D01*
X6685794Y42268914D01*
X6690105Y42343064D01*
X6691152Y42434292D01*
X6689054Y42546687D01*
X6683928Y42684340D01*
X6675890Y42851342D01*
X6665060Y43051784D01*
X6651552Y43289757D01*
X6649090Y43332645D01*
X6634070Y43594074D01*
X6790943Y43515289D01*
X7014009Y43389613D01*
X7250048Y43231185D01*
X7492533Y43044866D01*
X7734939Y42835519D01*
X7856145Y42721729D01*
X8142625Y42421545D01*
X8397422Y42105766D01*
X8618514Y41777786D01*
X8803878Y41441000D01*
X8951492Y41098802D01*
X9059336Y40754586D01*
X9080252Y40666795D01*
X9098001Y40581959D01*
X9110973Y40504176D01*
X9119867Y40424207D01*
X9125377Y40332812D01*
X9128202Y40220754D01*
X9129039Y40078794D01*
X9128991Y40020673D01*
X9120426Y39721805D01*
X9094921Y39429841D01*
X9051011Y39137504D01*
X8987231Y38837513D01*
X8902116Y38522591D01*
X8794200Y38185459D01*
X8713956Y37958682D01*
X8660201Y37803137D01*
X8626158Y37684421D01*
X8611822Y37601858D01*
X8617192Y37554774D01*
X8642266Y37542494D01*
X8687041Y37564342D01*
X8712660Y37584321D01*
X8783449Y37655062D01*
X8864554Y37754102D01*
X8948681Y37871201D01*
X9028535Y37996123D01*
X9096823Y38118629D01*
X9105176Y38135268D01*
X9148743Y38230118D01*
X9199168Y38350412D01*
X9250426Y38481230D01*
X9296492Y38607654D01*
X9299664Y38616816D01*
X9337803Y38722693D01*
X9371840Y38808190D01*
X9399173Y38867332D01*
X9417199Y38894148D01*
X9420818Y38894797D01*
X9451681Y38857437D01*
X9487515Y38783128D01*
X9526879Y38676801D01*
X9568331Y38543386D01*
X9610431Y38387815D01*
X9651736Y38215020D01*
X9690805Y38029930D01*
X9720891Y37868272D01*
X9760167Y37628737D01*
X9788324Y37421436D01*
X9806179Y37237950D01*
X9814548Y37069861D01*
X9814248Y36908748D01*
X9814189Y36906578D01*
X9807700Y36673550D01*
X9627633Y36660965D01*
X9451253Y36639706D01*
X9285610Y36599576D01*
X9124416Y36537497D01*
X8961389Y36450393D01*
X8790242Y36335187D01*
X8604691Y36188803D01*
X8526049Y36121716D01*
X8177662Y35794090D01*
X7867031Y35449386D01*
X7594708Y35088325D01*
X7361245Y34711629D01*
X7191665Y34375052D01*
X7144407Y34275704D01*
X7097378Y34185517D01*
X7056033Y34114449D01*
X7025934Y34072571D01*
X6978669Y34035118D01*
X6900860Y33987300D01*
X6801617Y33933679D01*
X6690050Y33878813D01*
X6575267Y33827262D01*
X6466380Y33783586D01*
X6407345Y33762952D01*
X6284796Y33726802D01*
X6157837Y33695441D01*
X6038871Y33671494D01*
X5940304Y33657585D01*
X5897714Y33655153D01*
X5822090Y33654785D01*
X5795509Y33829555D01*
X5737673Y34139068D01*
X5662873Y34412780D01*
X5569209Y34654493D01*
X5454783Y34868006D01*
X5317695Y35057120D01*
X5156045Y35225635D01*
X5054403Y35312168D01*
X4859301Y35448206D01*
X4665913Y35545481D01*
X4476395Y35603189D01*
X4292903Y35620526D01*
X4236224Y35617454D01*
X4039739Y35598371D01*
X3880020Y35580347D01*
X3751503Y35562589D01*
X3648626Y35544304D01*
X3565825Y35524701D01*
X3546854Y35519277D01*
X3387687Y35456198D01*
X3230776Y35361205D01*
X3073133Y35231879D01*
X2911769Y35065804D01*
X2762485Y34884977D01*
X2705776Y34813582D01*
X2658082Y34756812D01*
X2625535Y34721780D01*
X2615077Y34714001D01*
X2590187Y34733398D01*
X2548941Y34791262D01*
X2491635Y34887100D01*
X2418567Y35020420D01*
X2340895Y35169464D01*
X2276859Y35297611D01*
X2230366Y35399277D01*
X2197536Y35484534D01*
X2174491Y35563453D01*
X2157353Y35646109D01*
X2157353Y35646111D01*
X2137922Y35868349D01*
X2153356Y36105631D01*
X2201902Y36351695D01*
X2281802Y36600279D01*
X2391301Y36845120D01*
X2528645Y37079955D01*
X2580252Y37154847D01*
X2619265Y37206841D01*
X2681685Y37287045D01*
X2763943Y37391002D01*
X2862468Y37514252D01*
X2973690Y37652337D01*
X3094039Y37800799D01*
X3219944Y37955178D01*
X3272646Y38019520D01*
X3398738Y38173731D01*
X3519849Y38322752D01*
X3632567Y38462317D01*
X3733480Y38588164D01*
X3819174Y38696029D01*
X3886237Y38781648D01*
X3931257Y38840758D01*
X3943314Y38857428D01*
X4044145Y39016931D01*
X4142025Y39199360D01*
X4228491Y39387548D01*
X4295079Y39564325D01*
X4301158Y39583397D01*
X4328272Y39664619D01*
X4352413Y39726591D01*
X4370155Y39761010D01*
X4376174Y39765069D01*
X4392512Y39743098D01*
X4424633Y39690717D01*
X4468584Y39615006D01*
X4520414Y39523045D01*
X4576168Y39421915D01*
X4631894Y39318697D01*
X4683639Y39220470D01*
X4720285Y39148699D01*
X4821380Y38936183D01*
X4921595Y38705729D01*
X5017972Y38465545D01*
X5107555Y38223840D01*
X5187388Y37988823D01*
X5254515Y37768703D01*
X5305979Y37571689D01*
X5330847Y37453320D01*
X5346126Y37363697D01*
X5357617Y37279082D01*
X5365804Y37191215D01*
X5371171Y37091838D01*
X5374204Y36972691D01*
X5375388Y36825514D01*
X5375360Y36694735D01*
X5374137Y36538785D01*
X5371375Y36384843D01*
X5367353Y36241980D01*
X5362349Y36119265D01*
X5356641Y36025768D01*
X5353918Y35995652D01*
X5345749Y35910629D01*
X5340874Y35843029D01*
X5339934Y35802799D01*
X5341067Y35796134D01*
X5365038Y35797280D01*
X5409762Y35820669D01*
X5464980Y35859676D01*
X5520435Y35907675D01*
X5532852Y35920014D01*
X5562377Y35954939D01*
X5589536Y35999315D01*
X5617310Y36060089D01*
X5648683Y36144206D01*
X5686634Y36258614D01*
X5710187Y36333108D01*
X5759363Y36489651D01*
X5798613Y36611851D01*
X5830468Y36705860D01*
X5857462Y36777832D01*
X5882126Y36833918D01*
X5906994Y36880271D01*
X5934597Y36923044D01*
X5967468Y36968389D01*
X5976811Y36980854D01*
X6019638Y37033432D01*
X6086334Y37109854D01*
X6171092Y37203726D01*
X6268107Y37308652D01*
X6371572Y37418234D01*
X6414453Y37462966D01*
X6586741Y37644263D01*
X6732036Y37802822D01*
X6854955Y37944119D01*
X6960114Y38073631D01*
X7052130Y38196832D01*
X7133095Y38315335D01*
X7195597Y38408115D01*
X7241925Y38466192D01*
X7275624Y38488254D01*
X7300239Y38472990D01*
X7319316Y38419087D01*
X7336399Y38325235D01*
X7349020Y38235428D01*
X7381700Y37969969D01*
X7404150Y37733143D01*
X7417107Y37512657D01*
X7421310Y37296220D01*
X7417972Y37086645D01*
X7389930Y36690604D01*
X7330507Y36321234D01*
X7239021Y35975999D01*
X7114788Y35652368D01*
X6957125Y35347808D01*
X6942094Y35322607D01*
X6895932Y35243813D01*
X6860629Y35179246D01*
X6840371Y35136844D01*
X6837540Y35124388D01*
X6859381Y35130291D01*
X6903707Y35160331D01*
X6963338Y35208398D01*
X7031092Y35268383D01*
X7099789Y35334174D01*
X7162248Y35399661D01*
X7166097Y35403959D01*
X7288293Y35567455D01*
X7397938Y35768429D01*
X7493654Y36003489D01*
X7574064Y36269244D01*
X7637791Y36562304D01*
X7638744Y36567629D01*
X7655852Y36672919D01*
X7668363Y36775432D01*
X7676938Y36885061D01*
X7682240Y37011700D01*
X7684932Y37165243D01*
X7685547Y37266711D01*
X7683135Y37493694D01*
X7673682Y37709264D01*
X7656132Y37921265D01*
X7629430Y38137543D01*
X7592522Y38365942D01*
X7544353Y38614307D01*
X7483868Y38890484D01*
X7444646Y39058439D01*
X7400220Y39262765D01*
X7372450Y39434629D01*
X7360808Y39580299D01*
X7364764Y39706040D01*
X7381430Y39808235D01*
X7391670Y39862883D01*
X7393536Y39897126D01*
X7392036Y39901280D01*
X7373626Y39892571D01*
X7335378Y39860790D01*
X7299733Y39826781D01*
X7241021Y39756670D01*
X7198978Y39676737D01*
X7171706Y39579543D01*
X7157306Y39457647D01*
X7153878Y39303609D01*
X7154536Y39258037D01*
X7159660Y39003826D01*
X7081450Y38853213D01*
X6993325Y38697517D01*
X6883077Y38524578D01*
X6759093Y38346551D01*
X6629758Y38175594D01*
X6531607Y38056196D01*
X6457840Y37971439D01*
X6372849Y37875732D01*
X6281152Y37773957D01*
X6187272Y37670994D01*
X6095727Y37571724D01*
X6011038Y37481028D01*
X5937726Y37403787D01*
X5880311Y37344883D01*
X5843314Y37309196D01*
X5831846Y37300616D01*
X5820434Y37318363D01*
X5805511Y37366565D01*
X5793321Y37420298D01*
X5673145Y37923015D01*
X5514390Y38416603D01*
X5319137Y38896014D01*
X5089469Y39356198D01*
X4827468Y39792106D01*
X4795327Y39840498D01*
X4731574Y39932856D01*
X4658385Y40034584D01*
X4580124Y40140087D01*
X4501156Y40243773D01*
X4425846Y40340048D01*
X4358558Y40423318D01*
X4303658Y40487990D01*
X4265510Y40528470D01*
X4249732Y40539689D01*
X4232512Y40519944D01*
X4208836Y40464751D01*
X4180737Y40380173D01*
X4150244Y40272271D01*
X4121999Y40158371D01*
X4048630Y39912447D01*
X3942887Y39669297D01*
X3802048Y39423450D01*
X3641881Y39193828D01*
X3595609Y39135130D01*
X3526691Y39051367D01*
X3440673Y38949102D01*
X3343105Y38834896D01*
X3239532Y38715310D01*
X3175992Y38642773D01*
X3055158Y38505468D01*
X2921465Y38353560D01*
X2784537Y38197986D01*
X2654000Y38049680D01*
X2539479Y37919580D01*
X2515069Y37891851D01*
X2345936Y37695201D01*
X2204453Y37519465D01*
X2086379Y37357655D01*
X1987477Y37202787D01*
X1903506Y37047875D01*
X1830227Y36885935D01*
X1763404Y36709981D01*
X1720881Y36583108D01*
X1630553Y36302008D01*
X1567000Y36315280D01*
X1466479Y36350445D01*
X1358916Y36411016D01*
X1260532Y36486985D01*
X1216264Y36531645D01*
X1132541Y36644415D01*
X1047979Y36790360D01*
X966368Y36960541D01*
X891498Y37146016D01*
X827160Y37337847D01*
X777143Y37527092D01*
X760942Y37605660D01*
X743470Y37741255D01*
X734463Y37905876D01*
X733577Y38087108D01*
X740469Y38272535D01*
X754793Y38449741D01*
X776207Y38606310D01*
X790669Y38678213D01*
X876710Y38983852D01*
X992245Y39283310D01*
X1140375Y39583491D01*
X1324199Y39891296D01*
X1360314Y39946528D01*
X1442749Y40071528D01*
X1504027Y40165903D01*
X1546713Y40234133D01*
X1573370Y40280699D01*
X1586561Y40310081D01*
X1588851Y40326760D01*
X1582804Y40335216D01*
X1582735Y40335259D01*
X1544948Y40335120D01*
X1485554Y40306243D01*
X1409466Y40252934D01*
X1321597Y40179498D01*
X1226860Y40090240D01*
X1130167Y39989464D01*
X1036431Y39881476D01*
X972985Y39800951D01*
X805557Y39551088D01*
X663968Y39279504D01*
X545615Y38980547D01*
X454755Y38675469D01*
X427474Y38564912D01*
X407882Y38470214D01*
X394366Y38378806D01*
X385315Y38278117D01*
X379115Y38155578D01*
X375936Y38061123D01*
X377053Y37781281D01*
X399696Y37527644D01*
X446130Y37288679D01*
X518621Y37052855D01*
X619434Y36808638D01*
X623872Y36798999D01*
X748102Y36559125D01*
X880761Y36359716D01*
X1022893Y36199520D01*
X1175542Y36077283D01*
X1269574Y36023151D01*
X1390812Y35958173D01*
X1478727Y35897369D01*
X1540257Y35831716D01*
X1582341Y35752190D01*
X1611917Y35649767D01*
X1629696Y35554736D01*
X1654689Y35427007D01*
X1687405Y35312632D01*
X1732315Y35201035D01*
X1793892Y35081639D01*
X1876605Y34943869D01*
X1910330Y34890974D01*
X2026024Y34715355D01*
X2125255Y34573677D01*
X2211041Y34462254D01*
X2286399Y34377401D01*
X2354347Y34315434D01*
X2415755Y34273863D01*
X2427181Y34262162D01*
X2432772Y34238687D01*
X2432177Y34196998D01*
X2425045Y34130653D01*
X2411024Y34033213D01*
X2398111Y33950542D01*
X2376573Y33822278D01*
X2358362Y33731698D01*
X2342334Y33674352D01*
X2327344Y33645794D01*
X2318405Y33640631D01*
X2280750Y33643199D01*
X2219396Y33654082D01*
X2181141Y33662763D01*
X2123145Y33681766D01*
X2040069Y33715311D01*
X1938898Y33759941D01*
X1826617Y33812197D01*
X1710209Y33868622D01*
X1596660Y33925756D01*
X1492954Y33980142D01*
X1406075Y34028321D01*
X1343008Y34066834D01*
X1310737Y34092224D01*
X1309051Y34094573D01*
X1292961Y34127830D01*
X1264505Y34192837D01*
X1226921Y34281952D01*
X1183448Y34387535D01*
X1153195Y34462300D01*
X988075Y34851580D01*
X814004Y35221001D01*
X632746Y35567876D01*
X446066Y35889521D01*
X255729Y36183251D01*
X63498Y36446381D01*
X-128861Y36676226D01*
X-319584Y36870101D01*
X-506907Y37025322D01*
X-552060Y37057134D01*
X-647502Y37124908D01*
X-711939Y37182365D01*
X-750650Y37240378D01*
X-768917Y37309822D01*
X-772019Y37401570D01*
X-767032Y37499836D01*
X-725032Y37835041D01*
X-643777Y38174678D01*
X-525140Y38513003D01*
X-370994Y38844273D01*
X-269593Y39025010D01*
X-238385Y39074295D01*
X-186528Y39152757D01*
X-117742Y39254915D01*
X-35749Y39375287D01*
X55731Y39508394D01*
X152974Y39648754D01*
X190703Y39702908D01*
X356274Y39940522D01*
X499519Y40146904D01*
X622651Y40325358D01*
X727884Y40479190D01*
X817432Y40611704D01*
X893510Y40726207D01*
X958331Y40826003D01*
X1014110Y40914397D01*
X1063060Y40994694D01*
X1107396Y41070199D01*
X1111930Y41078081D01*
X1346816Y41528806D01*
X1543138Y41995733D01*
X1701067Y42479487D01*
X1820779Y42980690D01*
X1902448Y43499967D01*
X1946246Y44037942D01*
X1947945Y44077470D01*
X1954420Y44212534D01*
X1962716Y44348113D01*
X1972220Y44477289D01*
X1982319Y44593148D01*
X1992400Y44688771D01*
X2001850Y44757242D01*
X2010056Y44791645D01*
X2011447Y44793783D01*
X2031090Y44785916D01*
G37*
G36*
X31012232Y6886092D02*
G01*
X31015255Y6881121D01*
X30992972Y6869323D01*
X30937144Y6846359D01*
X30854326Y6814740D01*
X30751075Y6776972D01*
X30643937Y6739044D01*
X30528523Y6697981D01*
X30428345Y6660789D01*
X30349733Y6629947D01*
X30299018Y6607931D01*
X30282437Y6597542D01*
X30299519Y6579507D01*
X30342757Y6551920D01*
X30367083Y6538855D01*
X30418081Y6509215D01*
X30448280Y6484666D01*
X30451820Y6477759D01*
X30432867Y6466068D01*
X30380768Y6443759D01*
X30302659Y6413340D01*
X30205680Y6377316D01*
X30096969Y6338193D01*
X29983665Y6298476D01*
X29872905Y6260673D01*
X29771828Y6227288D01*
X29687572Y6200827D01*
X29627275Y6183798D01*
X29599640Y6178602D01*
X29562121Y6195093D01*
X29529488Y6229952D01*
X29505294Y6298728D01*
X29502519Y6371299D01*
X29509118Y6461417D01*
X29665012Y6513262D01*
X29820906Y6565108D01*
X29649850Y6658751D01*
X29573176Y6702111D01*
X29511287Y6739702D01*
X29473306Y6765863D01*
X29466225Y6772730D01*
X29475700Y6786356D01*
X29516550Y6792921D01*
X29525332Y6793067D01*
X29565189Y6794515D01*
X29640710Y6798568D01*
X29745299Y6804781D01*
X29872360Y6812715D01*
X30015299Y6821926D01*
X30167519Y6831973D01*
X30322424Y6842415D01*
X30473420Y6852809D01*
X30613912Y6862713D01*
X30737302Y6871687D01*
X30836996Y6879288D01*
X30906399Y6885074D01*
X30923855Y6886746D01*
X30980208Y6889796D01*
X31012232Y6886092D01*
G37*
G36*
X-1178572Y36731453D02*
G01*
X-1050740Y36686969D01*
X-924476Y36615762D01*
X-819599Y36542208D01*
X-718428Y36458673D01*
X-618671Y36362039D01*
X-518033Y36249187D01*
X-414221Y36116999D01*
X-304940Y35962357D01*
X-187898Y35782142D01*
X-60799Y35573236D01*
X78649Y35332520D01*
X232740Y35056877D01*
X264032Y34999989D01*
X413887Y34727418D01*
X545229Y34489814D01*
X659589Y34284815D01*
X758499Y34110061D01*
X843487Y33963191D01*
X916086Y33841842D01*
X977826Y33743655D01*
X1030236Y33666267D01*
X1074848Y33607318D01*
X1113193Y33564446D01*
X1146800Y33535290D01*
X1177201Y33517490D01*
X1205926Y33508683D01*
X1232150Y33506494D01*
X1274457Y33494834D01*
X1342453Y33462774D01*
X1427459Y33414698D01*
X1484614Y33378956D01*
X1696541Y33252517D01*
X1893861Y33158202D01*
X2084552Y33092285D01*
X2117792Y33083402D01*
X2266082Y33045469D01*
X2272427Y32950370D01*
X2273576Y32900537D01*
X2264909Y32867127D01*
X2240025Y32847852D01*
X2192524Y32840424D01*
X2116004Y32842555D01*
X2004064Y32851956D01*
X1998566Y32852469D01*
X1884049Y32861390D01*
X1750241Y32869146D01*
X1620223Y32874471D01*
X1577592Y32875573D01*
X1523641Y32876486D01*
X1474666Y32876313D01*
X1426593Y32874227D01*
X1375345Y32869405D01*
X1316849Y32861021D01*
X1247028Y32848251D01*
X1161807Y32830269D01*
X1057112Y32806252D01*
X928867Y32775375D01*
X772998Y32736812D01*
X585428Y32689739D01*
X362083Y32633331D01*
X287627Y32614499D01*
X162467Y32582926D01*
X70960Y32560585D01*
X5660Y32546408D01*
X-40877Y32539328D01*
X-76097Y32538278D01*
X-107446Y32542192D01*
X-142368Y32550002D01*
X-149863Y32551800D01*
X-253973Y32589885D01*
X-372921Y32654991D01*
X-496017Y32740325D01*
X-612573Y32839094D01*
X-633305Y32859023D01*
X-728997Y32958085D01*
X-842646Y33083853D01*
X-967752Y33228434D01*
X-1097816Y33383933D01*
X-1226341Y33542460D01*
X-1346827Y33696119D01*
X-1452774Y33837019D01*
X-1537686Y33957266D01*
X-1538264Y33958125D01*
X-1729606Y34271671D01*
X-1879459Y34582235D01*
X-1988430Y34891626D01*
X-2057129Y35201650D01*
X-2086162Y35514116D01*
X-2087296Y35590056D01*
X-2073548Y35813205D01*
X-2030185Y36011346D01*
X-1954026Y36192218D01*
X-1841892Y36363559D01*
X-1706204Y36517415D01*
X-1626733Y36595410D01*
X-1564327Y36648482D01*
X-1508614Y36683994D01*
X-1449224Y36709311D01*
X-1424325Y36717542D01*
X-1300680Y36741151D01*
X-1178572Y36731453D01*
G37*
G36*
X40279260Y35400155D02*
G01*
X40328692Y35363086D01*
X40379634Y35287012D01*
X40430476Y35175184D01*
X40479606Y35030849D01*
X40502311Y34950209D01*
X40558322Y34686443D01*
X40589257Y34408391D01*
X40596031Y34106722D01*
X40593691Y34015883D01*
X40579178Y33801856D01*
X40549928Y33619179D01*
X40502674Y33458416D01*
X40434145Y33310130D01*
X40341071Y33164884D01*
X40264673Y33066180D01*
X40198195Y32996859D01*
X40104539Y32914980D01*
X39993729Y32828263D01*
X39875789Y32744429D01*
X39760741Y32671197D01*
X39725536Y32650907D01*
X39607153Y32590842D01*
X39471492Y32532052D01*
X39325869Y32476733D01*
X39177599Y32427077D01*
X39033996Y32385279D01*
X38902378Y32353532D01*
X38790058Y32334031D01*
X38704352Y32328969D01*
X38668398Y32333871D01*
X38645948Y32356096D01*
X38622348Y32412629D01*
X38596249Y32506940D01*
X38588810Y32538411D01*
X38569186Y32626963D01*
X38553976Y32701961D01*
X38545350Y32752379D01*
X38544185Y32765043D01*
X38561294Y32788061D01*
X38607284Y32827151D01*
X38674459Y32877005D01*
X38755122Y32932313D01*
X38841576Y32987766D01*
X38926126Y33038055D01*
X38989101Y33071950D01*
X39117858Y33154696D01*
X39236888Y33263989D01*
X39317621Y33366222D01*
X39350263Y33425791D01*
X39391232Y33515136D01*
X39436017Y33623659D01*
X39480105Y33740759D01*
X39494564Y33781891D01*
X39540614Y33914781D01*
X39592938Y34064453D01*
X39649668Y34225683D01*
X39708938Y34393248D01*
X39768877Y34561925D01*
X39827619Y34726492D01*
X39883296Y34881724D01*
X39934038Y35022400D01*
X39977978Y35143295D01*
X40013249Y35239188D01*
X40037980Y35304854D01*
X40049452Y35333290D01*
X40092711Y35381166D01*
X40161036Y35407907D01*
X40240752Y35409535D01*
X40279260Y35400155D01*
G37*
G36*
X37252945Y40210625D02*
G01*
X37262061Y40201579D01*
X37263480Y40169469D01*
X37252975Y40099200D01*
X37231121Y39993096D01*
X37198496Y39853481D01*
X37155677Y39682677D01*
X37103242Y39483008D01*
X37041766Y39256798D01*
X36971828Y39006370D01*
X36919825Y38823759D01*
X36865625Y38634018D01*
X36811521Y38443159D01*
X36759518Y38258354D01*
X36711620Y38086775D01*
X36669830Y37935595D01*
X36636152Y37811986D01*
X36615790Y37735450D01*
X36586818Y37626074D01*
X36561076Y37531947D01*
X36540623Y37460361D01*
X36527517Y37418607D01*
X36524227Y37411039D01*
X36511622Y37425668D01*
X36482153Y37471969D01*
X36439136Y37544357D01*
X36385886Y37637250D01*
X36325721Y37745065D01*
X36324487Y37747304D01*
X36245786Y37890716D01*
X36161614Y38045104D01*
X36074247Y38206204D01*
X35985959Y38369756D01*
X35899024Y38531494D01*
X35815717Y38687158D01*
X35738311Y38832484D01*
X35669083Y38963208D01*
X35610305Y39075070D01*
X35564252Y39163804D01*
X35533199Y39225150D01*
X35519421Y39254843D01*
X35519006Y39256950D01*
X35550688Y39277312D01*
X35613277Y39314937D01*
X35702276Y39367269D01*
X35813186Y39431749D01*
X35941509Y39505819D01*
X36082746Y39586921D01*
X36232399Y39672497D01*
X36385969Y39759988D01*
X36538958Y39846837D01*
X36686869Y39930486D01*
X36825202Y40008376D01*
X36949458Y40077949D01*
X37055141Y40136648D01*
X37137751Y40181914D01*
X37192790Y40211189D01*
X37215760Y40221915D01*
X37215900Y40221924D01*
X37252945Y40210625D01*
G37*
G36*
X28904879Y37354599D02*
G01*
X28934983Y37331234D01*
X28976079Y37292232D01*
X29029726Y37235855D01*
X29097483Y37160366D01*
X29180911Y37064028D01*
X29281569Y36945102D01*
X29401018Y36801852D01*
X29540817Y36632539D01*
X29702526Y36435427D01*
X29887706Y36208777D01*
X30095936Y35953283D01*
X30268009Y35741848D01*
X30432196Y35539839D01*
X30586553Y35349667D01*
X30729132Y35173741D01*
X30857990Y35014470D01*
X30971179Y34874263D01*
X31066753Y34755530D01*
X31142769Y34660680D01*
X31197278Y34592122D01*
X31228337Y34552266D01*
X31235086Y34542708D01*
X31218228Y34520629D01*
X31169879Y34480238D01*
X31094960Y34424888D01*
X30998390Y34357933D01*
X30885089Y34282725D01*
X30759977Y34202619D01*
X30627973Y34120967D01*
X30531652Y34063237D01*
X30418695Y33995693D01*
X30319292Y33934709D01*
X30238855Y33883732D01*
X30182795Y33846210D01*
X30156524Y33825592D01*
X30155240Y33823390D01*
X30172638Y33803602D01*
X30196156Y33792944D01*
X30239817Y33796541D01*
X30317037Y33824492D01*
X30427991Y33876881D01*
X30572851Y33953796D01*
X30751792Y34055322D01*
X30903845Y34144912D01*
X31006866Y34205914D01*
X31096385Y34258039D01*
X31166477Y34297909D01*
X31211216Y34322145D01*
X31224879Y34327939D01*
X31228338Y34305137D01*
X31234020Y34246900D01*
X31241449Y34159883D01*
X31250148Y34050743D01*
X31259641Y33926137D01*
X31269452Y33792720D01*
X31279104Y33657150D01*
X31288121Y33526082D01*
X31296026Y33406172D01*
X31302343Y33304078D01*
X31306595Y33226456D01*
X31308306Y33179961D01*
X31307795Y33169541D01*
X31287391Y33175773D01*
X31241538Y33200316D01*
X31180006Y33237923D01*
X31177613Y33239460D01*
X30920128Y33386092D01*
X30667999Y33491318D01*
X30421660Y33554992D01*
X30187016Y33576929D01*
X30085006Y33575748D01*
X30006291Y33567805D01*
X29931925Y33549598D01*
X29842961Y33517625D01*
X29822465Y33509555D01*
X29577427Y33390808D01*
X29360591Y33240563D01*
X29172639Y33059537D01*
X29014256Y32848450D01*
X28886126Y32608020D01*
X28830172Y32467413D01*
X28800182Y32388776D01*
X28771843Y32324076D01*
X28750488Y32285308D01*
X28747646Y32281847D01*
X28734680Y32278484D01*
X28713624Y32291452D01*
X28681593Y32324151D01*
X28635702Y32379981D01*
X28573066Y32462343D01*
X28490798Y32574635D01*
X28443095Y32640713D01*
X28363361Y32752180D01*
X28293127Y32851638D01*
X28235806Y32934145D01*
X28194815Y32994758D01*
X28173568Y33028536D01*
X28171429Y33033832D01*
X28193085Y33041929D01*
X28247442Y33059292D01*
X28326495Y33083432D01*
X28422239Y33111865D01*
X28430439Y33114268D01*
X28598060Y33165150D01*
X28744648Y33213135D01*
X28868263Y33257121D01*
X28966969Y33296001D01*
X29038827Y33328670D01*
X29081899Y33354025D01*
X29094248Y33370959D01*
X29073934Y33378368D01*
X29019020Y33375146D01*
X28927569Y33360189D01*
X28823250Y33338234D01*
X28674506Y33305647D01*
X28533500Y33276470D01*
X28406103Y33251761D01*
X28298187Y33232581D01*
X28215625Y33219988D01*
X28164288Y33215041D01*
X28149984Y33216782D01*
X28150996Y33238656D01*
X28156602Y33299105D01*
X28166398Y33394635D01*
X28179980Y33521748D01*
X28196943Y33676948D01*
X28216883Y33856739D01*
X28239396Y34057625D01*
X28264078Y34276108D01*
X28290524Y34508693D01*
X28318331Y34751883D01*
X28347093Y35002182D01*
X28376407Y35256093D01*
X28405869Y35510120D01*
X28435074Y35760766D01*
X28463618Y36004536D01*
X28491097Y36237932D01*
X28517107Y36457458D01*
X28541243Y36659619D01*
X28563102Y36840917D01*
X28582278Y36997856D01*
X28598368Y37126939D01*
X28610967Y37224671D01*
X28619672Y37287555D01*
X28622903Y37307339D01*
X28630971Y37337835D01*
X28640574Y37347237D01*
X28653039Y37332150D01*
X28669693Y37289179D01*
X28691865Y37214931D01*
X28720882Y37106011D01*
X28756147Y36966738D01*
X28814485Y36718596D01*
X28873933Y36438431D01*
X28932565Y36136478D01*
X28988457Y35822976D01*
X29039683Y35508159D01*
X29074085Y35275910D01*
X29098796Y35107067D01*
X29124454Y34942561D01*
X29150029Y34788117D01*
X29174491Y34649455D01*
X29196810Y34532298D01*
X29215956Y34442368D01*
X29230899Y34385387D01*
X29237195Y34369755D01*
X29264415Y34353970D01*
X29266749Y34353867D01*
X29279012Y34374027D01*
X29284057Y34431835D01*
X29282406Y34523282D01*
X29274579Y34644362D01*
X29261097Y34791065D01*
X29242482Y34959384D01*
X29219254Y35145310D01*
X29191936Y35344836D01*
X29161047Y35553954D01*
X29127109Y35768656D01*
X29090643Y35984933D01*
X29052171Y36198777D01*
X29012212Y36406182D01*
X28978918Y36567629D01*
X28946808Y36726935D01*
X28918063Y36886106D01*
X28894027Y37036334D01*
X28876044Y37168815D01*
X28865457Y37274740D01*
X28863170Y37326442D01*
X28864910Y37348249D01*
X28871402Y37361369D01*
X28884205Y37364065D01*
X28904879Y37354599D01*
G37*
G36*
X4909591Y4579982D02*
G01*
X4968116Y4699241D01*
X5027543Y4815546D01*
X5084468Y4922433D01*
X5135488Y5013441D01*
X5177197Y5082107D01*
X5206192Y5121966D01*
X5214758Y5129035D01*
X5248214Y5138805D01*
X5314738Y5155673D01*
X5406021Y5177619D01*
X5513755Y5202623D01*
X5567326Y5214770D01*
X5677353Y5240159D01*
X5772310Y5263260D01*
X5844687Y5282153D01*
X5886977Y5294919D01*
X5894525Y5298434D01*
X5904293Y5318750D01*
X5929983Y5375109D01*
X5970436Y5464901D01*
X5986874Y5501577D01*
X6813417Y5501577D01*
X6814931Y5491994D01*
X6818110Y5491471D01*
X6846894Y5498145D01*
X6913044Y5513165D01*
X7012581Y5535637D01*
X7141523Y5564665D01*
X7295888Y5599355D01*
X7471695Y5638812D01*
X7664964Y5682140D01*
X7871713Y5728445D01*
X7975017Y5751565D01*
X9086826Y6000340D01*
X10094871Y8268005D01*
X11102916Y10535669D01*
X10715040Y10968163D01*
X10612385Y11081450D01*
X10517993Y11183383D01*
X10435761Y11269929D01*
X10369587Y11337058D01*
X10323371Y11380736D01*
X10301010Y11396933D01*
X10300460Y11396937D01*
X10272970Y11391392D01*
X10210267Y11377842D01*
X10118464Y11357638D01*
X10003669Y11332128D01*
X9871996Y11302663D01*
X9785247Y11283154D01*
X9296739Y11173091D01*
X9071563Y10661936D01*
X9033343Y10575330D01*
X8979301Y10453101D01*
X8910812Y10298351D01*
X8829249Y10114179D01*
X8735988Y9903685D01*
X8632402Y9669971D01*
X8519866Y9416135D01*
X8399755Y9145278D01*
X8273441Y8860500D01*
X8142301Y8564902D01*
X8007707Y8261583D01*
X7871035Y7953643D01*
X7809700Y7815467D01*
X7651579Y7459074D01*
X7509997Y7139491D01*
X7384164Y6854867D01*
X7273290Y6603350D01*
X7176584Y6383087D01*
X7093256Y6192226D01*
X7022516Y6028915D01*
X6963574Y5891303D01*
X6915639Y5777537D01*
X6877921Y5685765D01*
X6849630Y5614135D01*
X6829976Y5560795D01*
X6818168Y5523893D01*
X6813417Y5501577D01*
X5986874Y5501577D01*
X6024494Y5585511D01*
X6090999Y5734325D01*
X6168792Y5908732D01*
X6256716Y6106117D01*
X6353612Y6323868D01*
X6458323Y6559371D01*
X6569689Y6810012D01*
X6686554Y7073180D01*
X6807758Y7346260D01*
X6932143Y7626639D01*
X7058552Y7911704D01*
X7185826Y8198842D01*
X7312807Y8485440D01*
X7438337Y8768883D01*
X7561258Y9046560D01*
X7680411Y9315857D01*
X7794638Y9574161D01*
X7902782Y9818858D01*
X8003683Y10047335D01*
X8096185Y10256979D01*
X8179128Y10445177D01*
X8251354Y10609315D01*
X8311706Y10746781D01*
X8359026Y10854960D01*
X8392154Y10931241D01*
X8409933Y10973009D01*
X8412747Y10980423D01*
X8392133Y10977055D01*
X8336938Y10965574D01*
X8253854Y10947437D01*
X8149576Y10924101D01*
X8049402Y10901296D01*
X7927826Y10874094D01*
X7817320Y10850628D01*
X7725872Y10832495D01*
X7661471Y10821295D01*
X7635248Y10818402D01*
X7571819Y10830936D01*
X7538351Y10870108D01*
X7534736Y10936905D01*
X7560864Y11032313D01*
X7601388Y11126321D01*
X7653953Y11222359D01*
X7701712Y11282211D01*
X7725060Y11298475D01*
X7756374Y11307715D01*
X7824924Y11324556D01*
X7926440Y11348097D01*
X8056652Y11377431D01*
X8211290Y11411654D01*
X8386083Y11449863D01*
X8576763Y11491153D01*
X8779058Y11534620D01*
X8988699Y11579359D01*
X9201416Y11624466D01*
X9412938Y11669037D01*
X9618997Y11712167D01*
X9815321Y11752952D01*
X9997641Y11790488D01*
X10161687Y11823870D01*
X10303188Y11852195D01*
X10417876Y11874557D01*
X10501479Y11890052D01*
X10549728Y11897776D01*
X10558165Y11898488D01*
X10619593Y11891859D01*
X10666045Y11877100D01*
X10689445Y11856732D01*
X10737278Y11809020D01*
X10805688Y11738163D01*
X10890820Y11648358D01*
X10988817Y11543803D01*
X11095825Y11428696D01*
X11207988Y11307236D01*
X11321450Y11183620D01*
X11432354Y11062045D01*
X11536847Y10946711D01*
X11631071Y10841814D01*
X11711172Y10751553D01*
X11773293Y10680125D01*
X11813579Y10631729D01*
X11827327Y10612739D01*
X11846036Y10555589D01*
X11851234Y10507011D01*
X11842641Y10480015D01*
X11817809Y10416925D01*
X11777848Y10320297D01*
X11723869Y10192692D01*
X11656984Y10036666D01*
X11578304Y9854778D01*
X11488939Y9649585D01*
X11390002Y9423647D01*
X11282603Y9179522D01*
X11167853Y8919767D01*
X11046864Y8646940D01*
X10920747Y8363600D01*
X10900558Y8318338D01*
X10774085Y8034767D01*
X10652614Y7762191D01*
X10537242Y7503083D01*
X10429067Y7259920D01*
X10329187Y7035175D01*
X10238699Y6831324D01*
X10158701Y6650843D01*
X10090292Y6496206D01*
X10034568Y6369889D01*
X9992628Y6274366D01*
X9965569Y6212113D01*
X9954489Y6185605D01*
X9954280Y6184815D01*
X9975150Y6187675D01*
X10032798Y6197838D01*
X10122436Y6214402D01*
X10239274Y6236463D01*
X10378523Y6263120D01*
X10535396Y6293469D01*
X10669256Y6319583D01*
X11380588Y6458850D01*
X12532509Y9044108D01*
X12705632Y9432374D01*
X12862429Y9783417D01*
X13003619Y10098804D01*
X13129923Y10380100D01*
X13242060Y10628870D01*
X13340750Y10846682D01*
X13426714Y11035100D01*
X13500671Y11195691D01*
X13563341Y11330019D01*
X13615443Y11439652D01*
X13657699Y11526154D01*
X13690827Y11591092D01*
X13715549Y11636032D01*
X13732582Y11662538D01*
X13740231Y11670899D01*
X13782423Y11690380D01*
X13866064Y11716961D01*
X13990846Y11750561D01*
X14156463Y11791097D01*
X14362607Y11838488D01*
X14407537Y11848530D01*
X14603162Y11891715D01*
X14762029Y11925774D01*
X14888609Y11951340D01*
X14987372Y11969049D01*
X15062788Y11979536D01*
X15119328Y11983435D01*
X15161463Y11981381D01*
X15193663Y11974009D01*
X15217488Y11963542D01*
X15241005Y11943192D01*
X15289931Y11894789D01*
X15361154Y11821611D01*
X15451559Y11726934D01*
X15558035Y11614036D01*
X15677466Y11486195D01*
X15806742Y11346686D01*
X15909060Y11235526D01*
X16073222Y11056055D01*
X16210093Y10904988D01*
X16321607Y10780059D01*
X16409699Y10678998D01*
X16476305Y10599537D01*
X16523361Y10539409D01*
X16552802Y10496344D01*
X16566562Y10468075D01*
X16567677Y10463619D01*
X16569297Y10435484D01*
X16563259Y10398425D01*
X16547645Y10347382D01*
X16520534Y10277296D01*
X16480010Y10183110D01*
X16424152Y10059763D01*
X16370899Y9944763D01*
X16297393Y9788949D01*
X16238288Y9668495D01*
X16191553Y9579708D01*
X16155161Y9518894D01*
X16127083Y9482360D01*
X16109102Y9468060D01*
X16059107Y9454322D01*
X15979835Y9445178D01*
X15882092Y9440520D01*
X15776684Y9440242D01*
X15674415Y9444236D01*
X15586090Y9452396D01*
X15522514Y9464615D01*
X15500404Y9474084D01*
X15475690Y9496645D01*
X15461223Y9525955D01*
X15458143Y9566349D01*
X15467588Y9622166D01*
X15490701Y9697743D01*
X15528619Y9797416D01*
X15582484Y9925522D01*
X15653436Y10086398D01*
X15672585Y10129146D01*
X15891097Y10615934D01*
X15479823Y11077144D01*
X15374983Y11194371D01*
X15279370Y11300622D01*
X15196570Y11391965D01*
X15130169Y11464469D01*
X15083752Y11514200D01*
X15060907Y11537226D01*
X15059249Y11538354D01*
X15036633Y11533464D01*
X14979883Y11519925D01*
X14895952Y11499429D01*
X14791793Y11473672D01*
X14704763Y11451967D01*
X14359578Y11365579D01*
X13186726Y8724486D01*
X13045779Y8407087D01*
X12909378Y8099914D01*
X12778532Y7805238D01*
X12654250Y7525330D01*
X12537538Y7262463D01*
X12429408Y7018909D01*
X12330865Y6796938D01*
X12242920Y6598822D01*
X12166581Y6426835D01*
X12102856Y6283246D01*
X12052754Y6170328D01*
X12017283Y6090353D01*
X11997451Y6045592D01*
X11993590Y6036841D01*
X11989000Y6016325D01*
X11994956Y5991206D01*
X12015022Y5956384D01*
X12052760Y5906762D01*
X12111734Y5837241D01*
X12195506Y5742723D01*
X12211958Y5724372D01*
X12291776Y5636494D01*
X12362280Y5560866D01*
X12418481Y5502682D01*
X12455390Y5467135D01*
X12467439Y5458454D01*
X12489910Y5464207D01*
X12550040Y5480887D01*
X12644797Y5507626D01*
X12771146Y5543553D01*
X12926054Y5587802D01*
X13106486Y5639502D01*
X13309411Y5697786D01*
X13531793Y5761784D01*
X13770599Y5830628D01*
X14022795Y5903449D01*
X14168920Y5945694D01*
X14428910Y6020628D01*
X14678445Y6092045D01*
X14914353Y6159064D01*
X15133459Y6220809D01*
X15332593Y6276401D01*
X15508580Y6324962D01*
X15658248Y6365614D01*
X15778424Y6397478D01*
X15865936Y6419676D01*
X15917610Y6431331D01*
X15929296Y6432933D01*
X15986648Y6425781D01*
X16019212Y6398786D01*
X16028518Y6381365D01*
X16039370Y6326087D01*
X16038231Y6246966D01*
X16027287Y6158344D01*
X16008725Y6074563D01*
X15984729Y6009965D01*
X15968257Y5986008D01*
X15943022Y5975216D01*
X15880488Y5954093D01*
X15784181Y5923647D01*
X15657626Y5884885D01*
X15504346Y5838813D01*
X15327869Y5786440D01*
X15131717Y5728771D01*
X14919417Y5666815D01*
X14694494Y5601578D01*
X14460472Y5534067D01*
X14220876Y5465290D01*
X13979232Y5396253D01*
X13739064Y5327965D01*
X13503898Y5261431D01*
X13277257Y5197660D01*
X13062669Y5137657D01*
X12863656Y5082431D01*
X12683745Y5032989D01*
X12526460Y4990337D01*
X12395326Y4955483D01*
X12293869Y4929434D01*
X12225613Y4913196D01*
X12194402Y4907774D01*
X12135273Y4919493D01*
X12080427Y4944846D01*
X12043223Y4975793D01*
X11985146Y5032767D01*
X11910600Y5110715D01*
X11823989Y5204584D01*
X11729717Y5309322D01*
X11632189Y5419875D01*
X11535807Y5531192D01*
X11444977Y5638219D01*
X11364102Y5735903D01*
X11297586Y5819193D01*
X11249832Y5883035D01*
X11225246Y5922376D01*
X11223073Y5928502D01*
X11208704Y5971912D01*
X11183073Y5982785D01*
X11163329Y5979321D01*
X11131695Y5972345D01*
X11063825Y5958046D01*
X10965010Y5937515D01*
X10840540Y5911845D01*
X10695703Y5882128D01*
X10535789Y5849456D01*
X10430133Y5827938D01*
X10265302Y5794070D01*
X10113904Y5762308D01*
X9980904Y5733744D01*
X9871268Y5709473D01*
X9789961Y5690585D01*
X9741949Y5678175D01*
X9730904Y5674055D01*
X9718369Y5650766D01*
X9692014Y5595324D01*
X9654919Y5514431D01*
X9610167Y5414786D01*
X9573245Y5331348D01*
X9512912Y5194818D01*
X9466165Y5091770D01*
X9429771Y5016801D01*
X9400497Y4964506D01*
X9375110Y4929480D01*
X9350379Y4906320D01*
X9323070Y4889620D01*
X9303332Y4880097D01*
X9271949Y4870505D01*
X9202603Y4852653D01*
X9098722Y4827334D01*
X8963734Y4795342D01*
X8801067Y4757470D01*
X8614148Y4714510D01*
X8406406Y4667257D01*
X8181268Y4616502D01*
X7942161Y4563038D01*
X7715961Y4512843D01*
X6196198Y4176803D01*
X5928767Y3573050D01*
X5861457Y3421710D01*
X5798433Y3281181D01*
X5742050Y3156620D01*
X5694659Y3053182D01*
X5658614Y2976022D01*
X5636266Y2930296D01*
X5631485Y2921632D01*
X5588915Y2883625D01*
X5531672Y2873967D01*
X5455476Y2892519D01*
X5419132Y2921632D01*
X5367009Y2984932D01*
X5307327Y3065056D01*
X5245991Y3153095D01*
X5188908Y3240139D01*
X5141983Y3317278D01*
X5111124Y3375603D01*
X5102445Y3399367D01*
X5101603Y3439054D01*
X5113911Y3495088D01*
X5141391Y3574040D01*
X5186071Y3682484D01*
X5198535Y3711240D01*
X5238643Y3805257D01*
X5270683Y3884419D01*
X5291725Y3941174D01*
X5298839Y3967969D01*
X5298512Y3968950D01*
X5275118Y3968866D01*
X5221969Y3960375D01*
X5150422Y3945301D01*
X5148173Y3944780D01*
X5045073Y3925589D01*
X4969599Y3925560D01*
X4910480Y3947056D01*
X4856447Y3992439D01*
X4841250Y4009115D01*
X4786940Y4086522D01*
X4764494Y4164791D01*
X4772971Y4254068D01*
X4808868Y4358456D01*
X4828807Y4403808D01*
X5308818Y4403808D01*
X5415538Y4431960D01*
X5477090Y4449122D01*
X5519002Y4462549D01*
X5529393Y4467247D01*
X5543945Y4492100D01*
X5567771Y4542380D01*
X5595993Y4606537D01*
X5623733Y4673021D01*
X5631498Y4692889D01*
X6428801Y4692889D01*
X6441662Y4674790D01*
X6443587Y4674635D01*
X6466413Y4679298D01*
X6526730Y4692710D01*
X6620764Y4714005D01*
X6744742Y4742319D01*
X6894892Y4776786D01*
X7067440Y4816540D01*
X7258613Y4860716D01*
X7464638Y4908449D01*
X7602732Y4940507D01*
X7816138Y4990216D01*
X8016941Y5037235D01*
X8201391Y5080668D01*
X8365734Y5119622D01*
X8506218Y5153200D01*
X8619091Y5180508D01*
X8700601Y5200649D01*
X8746995Y5212728D01*
X8756531Y5215821D01*
X8772503Y5242530D01*
X8795463Y5292925D01*
X8820929Y5355356D01*
X8844419Y5418173D01*
X8861452Y5469726D01*
X8867545Y5498365D01*
X8866180Y5500823D01*
X8843063Y5496300D01*
X8782430Y5483296D01*
X8688093Y5462655D01*
X8563865Y5435225D01*
X8413557Y5401849D01*
X8240982Y5363375D01*
X8049954Y5320648D01*
X7844283Y5274513D01*
X7720164Y5246611D01*
X7507734Y5198888D01*
X7307713Y5154084D01*
X7123919Y5113044D01*
X6960167Y5076616D01*
X6820275Y5045644D01*
X6708058Y5020975D01*
X6627332Y5003454D01*
X6581915Y4993928D01*
X6573263Y4992399D01*
X6558081Y4974768D01*
X6532058Y4929510D01*
X6500721Y4868080D01*
X6469595Y4801932D01*
X6444203Y4742521D01*
X6430070Y4701300D01*
X6428801Y4692889D01*
X5631498Y4692889D01*
X5646111Y4730282D01*
X5658249Y4766770D01*
X5658851Y4773748D01*
X5635872Y4774141D01*
X5588485Y4767032D01*
X5533238Y4755762D01*
X5486681Y4743672D01*
X5465813Y4734773D01*
X5451476Y4710407D01*
X5425384Y4660014D01*
X5393623Y4595996D01*
X5362282Y4530753D01*
X5337448Y4476687D01*
X5327582Y4453161D01*
X5308818Y4403808D01*
X4828807Y4403808D01*
X4855374Y4464233D01*
X4909591Y4579982D01*
G37*
G36*
X-965828Y39661553D02*
G01*
X-770710Y39610137D01*
X-685261Y39578269D01*
X-609147Y39545497D01*
X-551591Y39516223D01*
X-521814Y39494853D01*
X-519656Y39490256D01*
X-528678Y39468841D01*
X-553668Y39416016D01*
X-591512Y39338198D01*
X-639097Y39241805D01*
X-680196Y39159398D01*
X-863086Y38770275D01*
X-1010748Y38403628D01*
X-1123126Y38059630D01*
X-1200166Y37738452D01*
X-1241812Y37440267D01*
X-1245130Y37395590D01*
X-1250515Y37312626D01*
X-1461547Y37242004D01*
X-1551306Y37212706D01*
X-1627094Y37189343D01*
X-1679321Y37174790D01*
X-1696977Y37171382D01*
X-1717254Y37189312D01*
X-1747122Y37236360D01*
X-1780177Y37302410D01*
X-1780720Y37303617D01*
X-1879561Y37550022D01*
X-1960713Y37806210D01*
X-2022719Y38064262D01*
X-2064121Y38316262D01*
X-2083464Y38554291D01*
X-2079291Y38770431D01*
X-2068192Y38866127D01*
X-2017934Y39071405D01*
X-1936509Y39249969D01*
X-1826995Y39400057D01*
X-1692471Y39519901D01*
X-1536013Y39607738D01*
X-1360702Y39661803D01*
X-1169614Y39680329D01*
X-965828Y39661553D01*
G37*
G36*
X31451376Y21684713D02*
G01*
X31469925Y21680321D01*
X31493881Y21670066D01*
X31526860Y21651548D01*
X31572481Y21622366D01*
X31634361Y21580119D01*
X31716117Y21522405D01*
X31821365Y21446825D01*
X31953725Y21350977D01*
X32110506Y21237047D01*
X32311392Y21090650D01*
X32481168Y20966103D01*
X32623250Y20860698D01*
X32741052Y20771726D01*
X32837990Y20696478D01*
X32917480Y20632248D01*
X32982936Y20576325D01*
X33037775Y20526003D01*
X33085411Y20478572D01*
X33129260Y20431324D01*
X33135797Y20424000D01*
X33283945Y20239661D01*
X33392558Y20061639D01*
X33462752Y19884313D01*
X33495647Y19702066D01*
X33492359Y19509276D01*
X33454006Y19300324D01*
X33396745Y19111749D01*
X33346562Y18971905D01*
X33289459Y18819935D01*
X33228152Y18662420D01*
X33165360Y18505941D01*
X33103799Y18357081D01*
X33046187Y18222420D01*
X32995240Y18108540D01*
X32953675Y18022022D01*
X32926766Y17973351D01*
X32876661Y17905890D01*
X32809273Y17829176D01*
X32746056Y17766334D01*
X32671767Y17704708D01*
X32586781Y17647212D01*
X32487203Y17592337D01*
X32369134Y17538574D01*
X32228678Y17484413D01*
X32061939Y17428345D01*
X31865019Y17368859D01*
X31634021Y17304446D01*
X31382559Y17238116D01*
X30968093Y17131015D01*
X30545778Y17135411D01*
X30399551Y17137141D01*
X30252367Y17139250D01*
X30115318Y17141552D01*
X29999499Y17143863D01*
X29922212Y17145808D01*
X29307253Y17174661D01*
X28662900Y17225151D01*
X27995820Y17296670D01*
X27390686Y17377183D01*
X26856824Y17456931D01*
X26333866Y17539726D01*
X25824802Y17624968D01*
X25332623Y17712056D01*
X24860320Y17800391D01*
X24410883Y17889371D01*
X23987304Y17978397D01*
X23592572Y18066867D01*
X23229678Y18154182D01*
X22901614Y18239740D01*
X22611370Y18322942D01*
X22486516Y18361817D01*
X22371898Y18401134D01*
X22253711Y18446084D01*
X22138680Y18493602D01*
X22033530Y18540620D01*
X21944986Y18584071D01*
X21879775Y18620889D01*
X21844621Y18648005D01*
X21840394Y18656471D01*
X21842509Y18668384D01*
X21851483Y18679019D01*
X21871261Y18689129D01*
X21905787Y18699463D01*
X21959007Y18710773D01*
X22034864Y18723810D01*
X22137304Y18739325D01*
X22270270Y18758067D01*
X22437709Y18780789D01*
X22624214Y18805671D01*
X23052021Y18865050D01*
X23448115Y18925674D01*
X23823144Y18989548D01*
X24187758Y19058676D01*
X24552605Y19135065D01*
X24928334Y19220719D01*
X25272120Y19304275D01*
X26124656Y19532632D01*
X26967834Y19790971D01*
X27806219Y20081006D01*
X28644375Y20404453D01*
X29486869Y20763023D01*
X30338263Y21158433D01*
X30750030Y21361114D01*
X30904185Y21437823D01*
X31047359Y21508065D01*
X31174900Y21569636D01*
X31282155Y21620330D01*
X31364471Y21657940D01*
X31417196Y21680262D01*
X31434617Y21685644D01*
X31451376Y21684713D01*
G37*
G36*
X22121143Y35701394D02*
G01*
X22156606Y35679980D01*
X22177867Y35660105D01*
X22222408Y35587259D01*
X22230476Y35497424D01*
X22201844Y35395550D01*
X22191004Y35372809D01*
X22158081Y35329398D01*
X22096001Y35266805D01*
X22010505Y35189872D01*
X21907335Y35103441D01*
X21792233Y35012353D01*
X21670941Y34921452D01*
X21574652Y34853047D01*
X21494064Y34810029D01*
X21413045Y34787868D01*
X21346634Y34790528D01*
X21342563Y34791874D01*
X21249357Y34826028D01*
X21144090Y34865626D01*
X21034252Y34907727D01*
X20927332Y34949389D01*
X20830819Y34987673D01*
X20752203Y35019637D01*
X20698974Y35042340D01*
X20678924Y35052462D01*
X20692760Y35065703D01*
X20740138Y35095638D01*
X20816770Y35139880D01*
X20918369Y35196042D01*
X21040646Y35261740D01*
X21179313Y35334587D01*
X21272085Y35382526D01*
X21444771Y35470859D01*
X21584588Y35541395D01*
X21696113Y35596156D01*
X21783926Y35637165D01*
X21852603Y35666442D01*
X21906723Y35686009D01*
X21950864Y35697888D01*
X21989605Y35704100D01*
X22003096Y35705338D01*
X22075215Y35708490D01*
X22121143Y35701394D01*
G37*
G36*
X21844038Y29606716D02*
G01*
X21900879Y29604570D01*
X21942297Y29600884D01*
X21972140Y29595596D01*
X21994254Y29588648D01*
X22012486Y29579979D01*
X22022877Y29574093D01*
X22058917Y29550632D01*
X22087289Y29523681D01*
X22108756Y29488320D01*
X22124080Y29439629D01*
X22134026Y29372684D01*
X22139356Y29282566D01*
X22140833Y29164354D01*
X22139220Y29013126D01*
X22135785Y28845944D01*
X22130625Y28643083D01*
X22124842Y28476708D01*
X22117729Y28340936D01*
X22108577Y28229887D01*
X22096680Y28137677D01*
X22081329Y28058423D01*
X22061819Y27986245D01*
X22037440Y27915258D01*
X22017783Y27864821D01*
X21951887Y27728574D01*
X21876739Y27620306D01*
X21796294Y27544552D01*
X21714510Y27505848D01*
X21702696Y27503568D01*
X21640349Y27496523D01*
X21539816Y27488516D01*
X21405265Y27479712D01*
X21240864Y27470274D01*
X21050780Y27460368D01*
X20839182Y27450159D01*
X20610237Y27439811D01*
X20368114Y27429488D01*
X20116979Y27419356D01*
X19861000Y27409579D01*
X19604347Y27400322D01*
X19351185Y27391750D01*
X19105684Y27384026D01*
X18872010Y27377317D01*
X18654333Y27371786D01*
X18456819Y27367599D01*
X18283636Y27364919D01*
X18170211Y27363990D01*
X18064152Y27364369D01*
X17991778Y27367360D01*
X17944427Y27374242D01*
X17913436Y27386292D01*
X17890143Y27404789D01*
X17889518Y27405410D01*
X17857869Y27450318D01*
X17847150Y27487126D01*
X17848808Y27496492D01*
X17856210Y27504325D01*
X17873001Y27510823D01*
X17902823Y27516184D01*
X17949320Y27520607D01*
X18016134Y27524290D01*
X18106910Y27527430D01*
X18225290Y27530227D01*
X18374918Y27532878D01*
X18559437Y27535581D01*
X18782490Y27538535D01*
X18795148Y27538699D01*
X19003572Y27541937D01*
X19230014Y27546435D01*
X19469230Y27552018D01*
X19715973Y27558508D01*
X19964999Y27565730D01*
X20211063Y27573507D01*
X20448920Y27581662D01*
X20673323Y27590020D01*
X20879029Y27598405D01*
X21060792Y27606639D01*
X21213367Y27614546D01*
X21331508Y27621951D01*
X21376932Y27625487D01*
X21519371Y27658025D01*
X21645776Y27727592D01*
X21752118Y27830584D01*
X21834364Y27963397D01*
X21875071Y28070916D01*
X21904884Y28158180D01*
X21939655Y28240249D01*
X21970437Y28296996D01*
X22028943Y28402609D01*
X22051368Y28498300D01*
X22038049Y28594989D01*
X21989321Y28703597D01*
X21983269Y28714227D01*
X21938610Y28825897D01*
X21912598Y28968100D01*
X21891416Y29127949D01*
X21867700Y29254351D01*
X21842146Y29344140D01*
X21820372Y29388137D01*
X21782390Y29412609D01*
X21709387Y29428743D01*
X21599898Y29436611D01*
X21452454Y29436286D01*
X21265590Y29427840D01*
X21159473Y29420779D01*
X20899394Y29403425D01*
X20641928Y29388951D01*
X20392533Y29377507D01*
X20156666Y29369244D01*
X19939786Y29364311D01*
X19747349Y29362861D01*
X19584813Y29365043D01*
X19457635Y29371009D01*
X19431978Y29373111D01*
X19237169Y29394467D01*
X19074040Y29419785D01*
X18945621Y29448448D01*
X18854941Y29479841D01*
X18823942Y29496879D01*
X18768668Y29534434D01*
X18906366Y29547846D01*
X18969234Y29551965D01*
X19065798Y29555769D01*
X19187385Y29559037D01*
X19325319Y29561548D01*
X19470930Y29563079D01*
X19510119Y29563295D01*
X19632532Y29564314D01*
X19790082Y29566386D01*
X19975551Y29569376D01*
X20181725Y29573147D01*
X20401387Y29577565D01*
X20627321Y29582494D01*
X20852311Y29587799D01*
X20963660Y29590587D01*
X21193832Y29596429D01*
X21385498Y29601089D01*
X21542504Y29604508D01*
X21668697Y29606625D01*
X21767927Y29607381D01*
X21844038Y29606716D01*
G37*
%TD*%
D10*
%TO.C,X1*%
X16144562Y14380380D03*
X16144562Y16920380D03*
X18684562Y14380380D03*
D11*
X18684562Y16920380D03*
D10*
X21224562Y14380380D03*
D11*
X21224562Y16920380D03*
%TD*%
M02*
