%TF.GenerationSoftware,KiCad,Pcbnew,(6.0.5)*%
%TF.CreationDate,2022-07-11T11:07:48-06:00*%
%TF.ProjectId,MiniMageSpells,4d696e69-4d61-4676-9553-70656c6c732e,1.0*%
%TF.SameCoordinates,PX6e486c0PY7ba4d50*%
%TF.FileFunction,Copper,L2,Bot*%
%TF.FilePolarity,Positive*%
%FSLAX46Y46*%
G04 Gerber Fmt 4.6, Leading zero omitted, Abs format (unit mm)*
G04 Created by KiCad (PCBNEW (6.0.5)) date 2022-07-11 11:07:48*
%MOMM*%
%LPD*%
G01*
G04 APERTURE LIST*
G04 Aperture macros list*
%AMRoundRect*
0 Rectangle with rounded corners*
0 $1 Rounding radius*
0 $2 $3 $4 $5 $6 $7 $8 $9 X,Y pos of 4 corners*
0 Add a 4 corners polygon primitive as box body*
4,1,4,$2,$3,$4,$5,$6,$7,$8,$9,$2,$3,0*
0 Add four circle primitives for the rounded corners*
1,1,$1+$1,$2,$3*
1,1,$1+$1,$4,$5*
1,1,$1+$1,$6,$7*
1,1,$1+$1,$8,$9*
0 Add four rect primitives between the rounded corners*
20,1,$1+$1,$2,$3,$4,$5,0*
20,1,$1+$1,$4,$5,$6,$7,0*
20,1,$1+$1,$6,$7,$8,$9,0*
20,1,$1+$1,$8,$9,$2,$3,0*%
G04 Aperture macros list end*
%ADD10C,0.150000*%
%TA.AperFunction,NonConductor*%
%ADD11C,0.150000*%
%TD*%
%TA.AperFunction,ComponentPad*%
%ADD12O,1.700000X1.700000*%
%TD*%
%TA.AperFunction,ComponentPad*%
%ADD13C,1.700000*%
%TD*%
%TA.AperFunction,SMDPad,CuDef*%
%ADD14RoundRect,0.250000X0.262500X0.450000X-0.262500X0.450000X-0.262500X-0.450000X0.262500X-0.450000X0*%
%TD*%
%TA.AperFunction,SMDPad,CuDef*%
%ADD15RoundRect,0.250000X-0.262500X-0.450000X0.262500X-0.450000X0.262500X0.450000X-0.262500X0.450000X0*%
%TD*%
%TA.AperFunction,SMDPad,CuDef*%
%ADD16RoundRect,0.243750X0.243750X0.456250X-0.243750X0.456250X-0.243750X-0.456250X0.243750X-0.456250X0*%
%TD*%
%TA.AperFunction,Conductor*%
%ADD17C,0.250000*%
%TD*%
G04 APERTURE END LIST*
D10*
D11*
X25428371Y4243238D02*
X25475990Y4195619D01*
X25618847Y4148000D01*
X25714085Y4148000D01*
X25856942Y4195619D01*
X25952181Y4290857D01*
X25999800Y4386095D01*
X26047419Y4576571D01*
X26047419Y4719428D01*
X25999800Y4909904D01*
X25952181Y5005142D01*
X25856942Y5100380D01*
X25714085Y5148000D01*
X25618847Y5148000D01*
X25475990Y5100380D01*
X25428371Y5052761D01*
X24856942Y4148000D02*
X24952181Y4195619D01*
X24999800Y4243238D01*
X25047419Y4338476D01*
X25047419Y4624190D01*
X24999800Y4719428D01*
X24952181Y4767047D01*
X24856942Y4814666D01*
X24714085Y4814666D01*
X24618847Y4767047D01*
X24571228Y4719428D01*
X24523609Y4624190D01*
X24523609Y4338476D01*
X24571228Y4243238D01*
X24618847Y4195619D01*
X24714085Y4148000D01*
X24856942Y4148000D01*
X24095038Y4814666D02*
X24095038Y3814666D01*
X24095038Y4767047D02*
X23999800Y4814666D01*
X23809323Y4814666D01*
X23714085Y4767047D01*
X23666466Y4719428D01*
X23618847Y4624190D01*
X23618847Y4338476D01*
X23666466Y4243238D01*
X23714085Y4195619D01*
X23809323Y4148000D01*
X23999800Y4148000D01*
X24095038Y4195619D01*
X23190276Y4814666D02*
X23190276Y3814666D01*
X23190276Y4767047D02*
X23095038Y4814666D01*
X22904562Y4814666D01*
X22809323Y4767047D01*
X22761704Y4719428D01*
X22714085Y4624190D01*
X22714085Y4338476D01*
X22761704Y4243238D01*
X22809323Y4195619D01*
X22904562Y4148000D01*
X23095038Y4148000D01*
X23190276Y4195619D01*
X21904562Y4195619D02*
X21999800Y4148000D01*
X22190276Y4148000D01*
X22285514Y4195619D01*
X22333133Y4290857D01*
X22333133Y4671809D01*
X22285514Y4767047D01*
X22190276Y4814666D01*
X21999800Y4814666D01*
X21904562Y4767047D01*
X21856942Y4671809D01*
X21856942Y4576571D01*
X22333133Y4481333D01*
X21428371Y4148000D02*
X21428371Y4814666D01*
X21428371Y4624190D02*
X21380752Y4719428D01*
X21333133Y4767047D01*
X21237895Y4814666D01*
X21142657Y4814666D01*
X20047419Y4148000D02*
X20047419Y5148000D01*
X20047419Y4767047D02*
X19952181Y4814666D01*
X19761704Y4814666D01*
X19666466Y4767047D01*
X19618847Y4719428D01*
X19571228Y4624190D01*
X19571228Y4338476D01*
X19618847Y4243238D01*
X19666466Y4195619D01*
X19761704Y4148000D01*
X19952181Y4148000D01*
X20047419Y4195619D01*
X19237895Y4814666D02*
X18999800Y4148000D01*
X18761704Y4814666D02*
X18999800Y4148000D01*
X19095038Y3909904D01*
X19142657Y3862285D01*
X19237895Y3814666D01*
X16999800Y4624190D02*
X17047419Y4671809D01*
X17142657Y4719428D01*
X17237895Y4719428D01*
X17333133Y4671809D01*
X17380752Y4624190D01*
X17428371Y4528952D01*
X17428371Y4433714D01*
X17380752Y4338476D01*
X17333133Y4290857D01*
X17237895Y4243238D01*
X17142657Y4243238D01*
X17047419Y4290857D01*
X16999800Y4338476D01*
X16999800Y4719428D02*
X16999800Y4338476D01*
X16952181Y4290857D01*
X16904562Y4290857D01*
X16809323Y4338476D01*
X16761704Y4433714D01*
X16761704Y4671809D01*
X16856942Y4814666D01*
X16999800Y4909904D01*
X17190276Y4957523D01*
X17380752Y4909904D01*
X17523609Y4814666D01*
X17618847Y4671809D01*
X17666466Y4481333D01*
X17618847Y4290857D01*
X17523609Y4148000D01*
X17380752Y4052761D01*
X17190276Y4005142D01*
X16999800Y4052761D01*
X16856942Y4148000D01*
X16333133Y4148000D02*
X16333133Y5148000D01*
X15904562Y4148000D02*
X15904562Y4671809D01*
X15952181Y4767047D01*
X16047419Y4814666D01*
X16190276Y4814666D01*
X16285514Y4767047D01*
X16333133Y4719428D01*
X14999800Y4148000D02*
X14999800Y4671809D01*
X15047419Y4767047D01*
X15142657Y4814666D01*
X15333133Y4814666D01*
X15428371Y4767047D01*
X14999800Y4195619D02*
X15095038Y4148000D01*
X15333133Y4148000D01*
X15428371Y4195619D01*
X15475990Y4290857D01*
X15475990Y4386095D01*
X15428371Y4481333D01*
X15333133Y4528952D01*
X15095038Y4528952D01*
X14999800Y4576571D01*
X14523609Y4148000D02*
X14523609Y4814666D01*
X14523609Y4719428D02*
X14475990Y4767047D01*
X14380752Y4814666D01*
X14237895Y4814666D01*
X14142657Y4767047D01*
X14095038Y4671809D01*
X14095038Y4148000D01*
X14095038Y4671809D02*
X14047419Y4767047D01*
X13952181Y4814666D01*
X13809323Y4814666D01*
X13714085Y4767047D01*
X13666466Y4671809D01*
X13666466Y4148000D01*
X13237895Y4195619D02*
X13142657Y4148000D01*
X12952181Y4148000D01*
X12856942Y4195619D01*
X12809323Y4290857D01*
X12809323Y4338476D01*
X12856942Y4433714D01*
X12952181Y4481333D01*
X13095038Y4481333D01*
X13190276Y4528952D01*
X13237895Y4624190D01*
X13237895Y4671809D01*
X13190276Y4767047D01*
X13095038Y4814666D01*
X12952181Y4814666D01*
X12856942Y4767047D01*
X12523609Y4814666D02*
X12142657Y4814666D01*
X12380752Y5148000D02*
X12380752Y4290857D01*
X12333133Y4195619D01*
X12237895Y4148000D01*
X12142657Y4148000D01*
X11428371Y4195619D02*
X11523609Y4148000D01*
X11714085Y4148000D01*
X11809323Y4195619D01*
X11856942Y4290857D01*
X11856942Y4671809D01*
X11809323Y4767047D01*
X11714085Y4814666D01*
X11523609Y4814666D01*
X11428371Y4767047D01*
X11380752Y4671809D01*
X11380752Y4576571D01*
X11856942Y4481333D01*
X10952181Y4148000D02*
X10952181Y4814666D01*
X10952181Y4624190D02*
X10904562Y4719428D01*
X10856942Y4767047D01*
X10761704Y4814666D01*
X10666466Y4814666D01*
D12*
%TO.P,X1,2,GND*%
%TO.N,GND*%
X16144562Y14380380D03*
%TO.P,X1,1,VCC*%
%TO.N,+3V3*%
X16144562Y16920380D03*
%TO.P,X1,4,SCL*%
%TO.N,unconnected-(X1-Pad4)*%
X18684562Y14380380D03*
D13*
%TO.P,X1,3,SDA*%
%TO.N,unconnected-(X1-Pad3)*%
X18684562Y16920380D03*
D12*
%TO.P,X1,6,GPIO2*%
%TO.N,unconnected-(X1-Pad6)*%
X21224562Y14380380D03*
D13*
%TO.P,X1,5,GPIO1*%
%TO.N,unconnected-(X1-Pad5)*%
X21224562Y16920380D03*
%TD*%
D14*
%TO.P,R2,1*%
%TO.N,+3V3*%
X16847062Y22690380D03*
%TO.P,R2,2*%
%TO.N,Net-(D3-Pad2)*%
X15022062Y22690380D03*
%TD*%
D15*
%TO.P,R1,1*%
%TO.N,+3V3*%
X21232062Y22670380D03*
%TO.P,R1,2*%
%TO.N,Net-(D1-Pad2)*%
X23057062Y22670380D03*
%TD*%
D16*
%TO.P,D4,1,K*%
%TO.N,GND*%
X6132062Y43380380D03*
%TO.P,D4,2,A*%
%TO.N,Net-(D3-Pad2)*%
X4257062Y43380380D03*
%TD*%
%TO.P,D3,1,K*%
%TO.N,GND*%
X4862062Y34340380D03*
%TO.P,D3,2,A*%
%TO.N,Net-(D3-Pad2)*%
X2987062Y34340380D03*
%TD*%
%TO.P,D2,1,K*%
%TO.N,GND*%
X34512062Y30220380D03*
%TO.P,D2,2,A*%
%TO.N,Net-(D1-Pad2)*%
X32637062Y30220380D03*
%TD*%
%TO.P,D1,1,K*%
%TO.N,GND*%
X34532062Y41530380D03*
%TO.P,D1,2,A*%
%TO.N,Net-(D1-Pad2)*%
X32657062Y41530380D03*
%TD*%
D17*
%TO.N,+3V3*%
X16124562Y16940380D02*
X16144562Y16920380D01*
X16124562Y18789496D02*
X16124562Y16940380D01*
%TO.N,Net-(D3-Pad2)*%
X-2025459Y38102319D02*
G75*
G02*
X-895439Y40830381I3858059J-19D01*
G01*
X-1177519Y35552459D02*
G75*
G02*
X-2025438Y37599520I2047019J2047041D01*
G01*
X-691750Y41034071D02*
G75*
G03*
X234562Y43270381I-2236350J2236329D01*
G01*
X234574Y44023095D02*
G75*
G02*
X628624Y44974444I1345426J5D01*
G01*
X4257062Y44044130D02*
X4257062Y43380380D01*
X3666711Y45298231D02*
X3787719Y45177223D01*
X2210178Y45860380D02*
X2309562Y45860380D01*
X628624Y44974444D02*
X1022686Y45368506D01*
X234562Y43270381D02*
X234562Y44023095D01*
X-895439Y40830381D02*
X-691749Y41034070D01*
X-2025438Y38102319D02*
X-2025438Y37599520D01*
X-1177518Y35552460D02*
X-329598Y34704540D01*
X534562Y32810380D02*
X398721Y32946221D01*
X3211857Y32310380D02*
X1741668Y32310380D01*
X3787710Y45177214D02*
G75*
G02*
X4257062Y44044130I-1133110J-1133114D01*
G01*
X3666726Y45298246D02*
G75*
G03*
X2309562Y45860380I-1357126J-1357146D01*
G01*
X1022695Y45368497D02*
G75*
G02*
X2210178Y45860380I1187505J-1187497D01*
G01*
X34535Y33825380D02*
G75*
G03*
X-329598Y34704540I-1243335J20D01*
G01*
X398727Y32946227D02*
G75*
G02*
X34562Y33825380I879173J879173D01*
G01*
X1741668Y32310362D02*
G75*
G02*
X534562Y32810380I32J1707138D01*
G01*
%TO.N,+3V3*%
X16485819Y19661623D02*
G75*
G03*
X16124562Y18789496I872081J-872123D01*
G01*
X16485790Y19661652D02*
G75*
G03*
X16847062Y20533765I-872090J872148D01*
G01*
X16881204Y22670377D02*
G75*
G02*
X16857062Y22680380I-4J34123D01*
G01*
X16847002Y22676238D02*
G75*
G02*
X16857062Y22680380I5898J-38D01*
G01*
%TO.N,Net-(D3-Pad2)*%
X4578312Y32310396D02*
G75*
G02*
X5984540Y31727900I-12J-1988696D01*
G01*
X3211857Y32310452D02*
G75*
G03*
X3370812Y32694130I43J224748D01*
G01*
X3370826Y32694144D02*
G75*
G03*
X4297266Y32310380I926474J926456D01*
G01*
X2987061Y33620585D02*
G75*
G03*
X3370812Y32694130I1310239J15D01*
G01*
X4297266Y32310380D02*
X3211857Y32310380D01*
%TO.N,Net-(D1-Pad2)*%
X30239578Y38845364D02*
G75*
G02*
X29479084Y38530380I-760478J760536D01*
G01*
X27874589Y31320407D02*
G75*
G02*
X26904562Y33662168I2341711J2341793D01*
G01*
X27509585Y37925357D02*
G75*
G02*
X28970161Y38530380I1460615J-1460557D01*
G01*
X27874581Y31320399D02*
G75*
G02*
X27874561Y29380381I-969981J-969999D01*
G01*
X27874539Y29380403D02*
G75*
G02*
X30216349Y30350380I2341761J-2341803D01*
G01*
X27874531Y31320349D02*
G75*
G03*
X30216349Y30350380I2341769J2341851D01*
G01*
X30423744Y39029569D02*
G75*
G03*
X30554562Y39345380I-315844J315831D01*
G01*
X27509544Y37925398D02*
G75*
G03*
X26904562Y36464781I1460656J-1460598D01*
G01*
X32572034Y30285352D02*
G75*
G03*
X32415138Y30350380I-156934J-156852D01*
G01*
X23057037Y23616630D02*
G75*
G02*
X23726161Y25231980I2284463J-30D01*
G01*
X30554578Y39345380D02*
G75*
G02*
X30685376Y39661195I446622J20D01*
G01*
X32518327Y41494136D02*
G75*
G02*
X32605812Y41530380I87473J-87436D01*
G01*
%TO.N,GND*%
X4862058Y33576278D02*
G75*
G03*
X5048312Y33126630I635942J22D01*
G01*
X5497959Y32940358D02*
G75*
G02*
X5048312Y33126630I41J635942D01*
G01*
X5497959Y32940380D02*
X5904562Y32940380D01*
X4862062Y33576278D02*
X4862062Y34340380D01*
%TO.N,+3V3*%
X16881204Y22670380D02*
X21232062Y22670380D01*
X16847062Y20533765D02*
X16847062Y22676238D01*
%TO.N,Net-(D1-Pad2)*%
X27874561Y29380381D02*
X23726161Y25231980D01*
X23057062Y23616630D02*
X23057062Y22670380D01*
X32572062Y30285380D02*
X32637062Y30220380D01*
X30216349Y30350380D02*
X32415138Y30350380D01*
X26904562Y33662168D02*
X26904562Y36464781D01*
X29479084Y38530380D02*
X28970161Y38530380D01*
X30239561Y38845381D02*
X30423747Y39029566D01*
X30685376Y39661195D02*
X32518322Y41494141D01*
X32605812Y41530380D02*
X32657062Y41530380D01*
%TO.N,Net-(D3-Pad2)*%
X2987062Y33620585D02*
X2987062Y34340380D01*
X4297266Y32310380D02*
X4578312Y32310380D01*
X5984541Y31727901D02*
X15022062Y22690380D01*
%TD*%
%TA.AperFunction,Conductor*%
%TO.N,GND*%
G36*
X17023394Y71436457D02*
G01*
X17107616Y71431418D01*
X17235031Y71423793D01*
X17245848Y71422676D01*
X17420535Y71396971D01*
X17475739Y71388848D01*
X17482267Y71387710D01*
X17557692Y71372511D01*
X17564426Y71370961D01*
X17792733Y71311763D01*
X17801116Y71309276D01*
X18022366Y71235190D01*
X18029125Y71232709D01*
X18252674Y71143352D01*
X18257815Y71141164D01*
X18484911Y71038489D01*
X18488486Y71036804D01*
X18720068Y70923211D01*
X18722106Y70922188D01*
X18958104Y70800949D01*
X18959079Y70800442D01*
X19096330Y70728230D01*
X19097261Y70727736D01*
X19341842Y70596083D01*
X19342275Y70595848D01*
X19413689Y70557006D01*
X19554587Y70480371D01*
X19555339Y70479926D01*
X19556115Y70479339D01*
X19589833Y70461200D01*
X19590096Y70461058D01*
X19621015Y70444241D01*
X19621926Y70443903D01*
X19622726Y70443506D01*
X19805433Y70345220D01*
X19808062Y70343696D01*
X19810325Y70342030D01*
X19814648Y70339780D01*
X19814652Y70339777D01*
X19841682Y70325706D01*
X19843105Y70324954D01*
X19871520Y70309668D01*
X19874148Y70308704D01*
X19876934Y70307354D01*
X20009313Y70238442D01*
X20081371Y70200931D01*
X20083453Y70199847D01*
X20088165Y70197264D01*
X20317696Y70064920D01*
X20325312Y70060529D01*
X20336676Y70053135D01*
X20532669Y69910014D01*
X20543100Y69901505D01*
X20718876Y69741702D01*
X20728046Y69732454D01*
X20886598Y69555101D01*
X20894310Y69545581D01*
X21037814Y69349671D01*
X21044046Y69340315D01*
X21173880Y69125166D01*
X21178748Y69116316D01*
X21295770Y68881763D01*
X21299459Y68873663D01*
X21408336Y68610276D01*
X21409618Y68607045D01*
X21474796Y68435977D01*
X21475130Y68434998D01*
X21475369Y68433901D01*
X21476484Y68431021D01*
X21489122Y68398375D01*
X21489279Y68397967D01*
X21501701Y68365363D01*
X21502245Y68364382D01*
X21502644Y68363445D01*
X21561127Y68212369D01*
X21567091Y68196962D01*
X21567093Y68196955D01*
X21610354Y68085210D01*
X21672797Y67923914D01*
X21672922Y67923591D01*
X21707942Y67832387D01*
X21708046Y67832114D01*
X21722701Y67793681D01*
X21813246Y67556224D01*
X21813254Y67556120D01*
X21813282Y67556130D01*
X21905038Y67314911D01*
X21905188Y67314467D01*
X21905307Y67313915D01*
X21919287Y67277454D01*
X21931992Y67244052D01*
X21932263Y67243564D01*
X21932449Y67243123D01*
X22011883Y67035943D01*
X22012269Y67034817D01*
X22012545Y67033570D01*
X22013800Y67030356D01*
X22013806Y67030338D01*
X22026222Y66998538D01*
X22026492Y66997842D01*
X22038906Y66965462D01*
X22039531Y66964339D01*
X22040000Y66963244D01*
X22115640Y66769500D01*
X22120892Y66756047D01*
X22121552Y66754172D01*
X22122001Y66752230D01*
X22123814Y66747714D01*
X22135659Y66718206D01*
X22136093Y66717111D01*
X22148252Y66685966D01*
X22149231Y66684234D01*
X22150032Y66682404D01*
X22232897Y66475988D01*
X22234915Y66469922D01*
X22235071Y66469977D01*
X22236683Y66465384D01*
X22237936Y66460675D01*
X22249707Y66433932D01*
X22251284Y66430185D01*
X22261009Y66405961D01*
X22263250Y66402083D01*
X22265212Y66398051D01*
X22265136Y66398014D01*
X22268028Y66392310D01*
X22333392Y66243821D01*
X22338018Y66231641D01*
X22338558Y66229961D01*
X22338561Y66229953D01*
X22340051Y66225322D01*
X22342240Y66220967D01*
X22342241Y66220964D01*
X22350566Y66204400D01*
X22353300Y66198596D01*
X22361489Y66179993D01*
X22363856Y66176192D01*
X22365417Y66173685D01*
X22371038Y66163668D01*
X22456248Y65994128D01*
X22461535Y65981996D01*
X22461695Y65981651D01*
X22463392Y65977091D01*
X22475766Y65955010D01*
X22478413Y65950027D01*
X22488406Y65930144D01*
X22490968Y65926463D01*
X22490973Y65926454D01*
X22491554Y65925619D01*
X22498051Y65915243D01*
X22588047Y65754646D01*
X22590412Y65750127D01*
X22591915Y65746325D01*
X22594379Y65742129D01*
X22594379Y65742128D01*
X22608751Y65717649D01*
X22610000Y65715473D01*
X22624736Y65689176D01*
X22627209Y65685942D01*
X22630005Y65681446D01*
X22727157Y65515969D01*
X22727264Y65515770D01*
X22727358Y65515534D01*
X22747276Y65481702D01*
X22765630Y65450440D01*
X22765788Y65450242D01*
X22765908Y65450054D01*
X22862931Y65285253D01*
X22863102Y65284936D01*
X22863257Y65284549D01*
X22883237Y65250764D01*
X22901439Y65219846D01*
X22901697Y65219523D01*
X22901890Y65219221D01*
X22999336Y65054442D01*
X22999566Y65054018D01*
X22999779Y65053488D01*
X23019564Y65020238D01*
X23037920Y64989198D01*
X23038279Y64988750D01*
X23038555Y64988321D01*
X23136507Y64823703D01*
X23136819Y64823132D01*
X23137095Y64822453D01*
X23157109Y64789081D01*
X23175239Y64758612D01*
X23175699Y64758043D01*
X23176045Y64757507D01*
X23274656Y64593080D01*
X23275036Y64592390D01*
X23275375Y64591566D01*
X23276662Y64589441D01*
X23295201Y64558820D01*
X23295474Y64558367D01*
X23313569Y64528195D01*
X23314130Y64527504D01*
X23314560Y64526845D01*
X23364020Y64445154D01*
X23413925Y64362728D01*
X23414388Y64361898D01*
X23414792Y64360928D01*
X23416299Y64358467D01*
X23416306Y64358454D01*
X23434707Y64328399D01*
X23435031Y64327867D01*
X23451589Y64300519D01*
X23451596Y64300508D01*
X23453076Y64298064D01*
X23453742Y64297252D01*
X23454251Y64296480D01*
X23485595Y64245286D01*
X23554506Y64132732D01*
X23555047Y64131772D01*
X23555517Y64130663D01*
X23575653Y64098191D01*
X23593939Y64068325D01*
X23594707Y64067397D01*
X23595314Y64066486D01*
X23601420Y64056640D01*
X23696546Y63903241D01*
X23697144Y63902196D01*
X23697663Y63900990D01*
X23717699Y63869123D01*
X23718113Y63868461D01*
X23733996Y63842849D01*
X23736321Y63839099D01*
X23737159Y63838099D01*
X23737833Y63837100D01*
X23810618Y63721337D01*
X23840213Y63674267D01*
X23840812Y63673234D01*
X23841330Y63672053D01*
X23861698Y63640093D01*
X23861894Y63639784D01*
X23880391Y63610365D01*
X23881225Y63609382D01*
X23881900Y63608395D01*
X23985236Y63446251D01*
X23985818Y63445261D01*
X23986325Y63444123D01*
X23988164Y63441275D01*
X24006763Y63412469D01*
X24007121Y63411911D01*
X24025807Y63382592D01*
X24026621Y63381644D01*
X24027285Y63380686D01*
X24131532Y63219235D01*
X24132105Y63218273D01*
X24132603Y63217172D01*
X24134400Y63214424D01*
X24134404Y63214417D01*
X24153364Y63185420D01*
X24153707Y63184893D01*
X24172495Y63155795D01*
X24173291Y63154879D01*
X24173934Y63153963D01*
X24279079Y62993159D01*
X24279633Y62992242D01*
X24280122Y62991176D01*
X24300993Y62959642D01*
X24301378Y62959056D01*
X24318673Y62932606D01*
X24320413Y62929945D01*
X24321188Y62929063D01*
X24321811Y62928186D01*
X24427824Y62768007D01*
X24428362Y62767127D01*
X24428839Y62766101D01*
X24430563Y62763527D01*
X24449897Y62734652D01*
X24450252Y62734119D01*
X24469515Y62705014D01*
X24470270Y62704165D01*
X24470884Y62703310D01*
X24577721Y62543757D01*
X24578242Y62542914D01*
X24578710Y62541924D01*
X24580388Y62539446D01*
X24580396Y62539433D01*
X24599898Y62510634D01*
X24600246Y62510118D01*
X24619762Y62480973D01*
X24620495Y62480157D01*
X24621088Y62479341D01*
X24728738Y62320367D01*
X24729238Y62319568D01*
X24729693Y62318615D01*
X24731336Y62316215D01*
X24731342Y62316205D01*
X24751124Y62287304D01*
X24751478Y62286785D01*
X24771108Y62257796D01*
X24771823Y62257009D01*
X24772387Y62256241D01*
X24880817Y62097829D01*
X24881299Y62097067D01*
X24881745Y62096144D01*
X24903600Y62064543D01*
X24903800Y62064251D01*
X24921934Y62037757D01*
X24921942Y62037746D01*
X24923511Y62035454D01*
X24924197Y62034705D01*
X24924748Y62033963D01*
X25033911Y61876119D01*
X25034393Y61875366D01*
X25034822Y61874489D01*
X25056878Y61842911D01*
X25076930Y61813917D01*
X25077592Y61813203D01*
X25078125Y61812491D01*
X25188006Y61655172D01*
X25188467Y61654458D01*
X25188884Y61653617D01*
X25211099Y61622110D01*
X25231320Y61593160D01*
X25231958Y61592477D01*
X25232466Y61591805D01*
X25343050Y61434971D01*
X25343484Y61434306D01*
X25343885Y61433503D01*
X25345340Y61431458D01*
X25366028Y61402380D01*
X25366337Y61401944D01*
X25385190Y61375206D01*
X25385200Y61375193D01*
X25386639Y61373152D01*
X25387256Y61372499D01*
X25387749Y61371852D01*
X25498967Y61215537D01*
X25499394Y61214888D01*
X25499784Y61214117D01*
X25501192Y61212154D01*
X25501198Y61212146D01*
X25522288Y61182758D01*
X25522586Y61182341D01*
X25541456Y61155820D01*
X25542845Y61153868D01*
X25543438Y61153245D01*
X25543900Y61152645D01*
X25605580Y61066698D01*
X25655760Y60996776D01*
X25656164Y60996167D01*
X25656540Y60995430D01*
X25679265Y60964023D01*
X25699894Y60935278D01*
X25700461Y60934687D01*
X25700902Y60934119D01*
X25813375Y60778676D01*
X25813752Y60778112D01*
X25814109Y60777420D01*
X25815395Y60775657D01*
X25815402Y60775646D01*
X25831936Y60752974D01*
X25836762Y60746356D01*
X25857747Y60717353D01*
X25858300Y60716782D01*
X25858713Y60716254D01*
X25971754Y60561238D01*
X25972103Y60560720D01*
X25972448Y60560054D01*
X25973695Y60558357D01*
X25973696Y60558355D01*
X25995175Y60529117D01*
X25995436Y60528760D01*
X26015118Y60501769D01*
X26015126Y60501758D01*
X26016359Y60500068D01*
X26016878Y60499536D01*
X26017287Y60499017D01*
X26130741Y60344577D01*
X26130934Y60344292D01*
X26131117Y60343941D01*
X26154494Y60312242D01*
X26175687Y60283393D01*
X26175962Y60283112D01*
X26176164Y60282857D01*
X26213048Y60232844D01*
X26251204Y60181105D01*
X26251235Y60181059D01*
X26251264Y60181004D01*
X26274209Y60149910D01*
X26296369Y60119862D01*
X26296411Y60119820D01*
X26296442Y60119780D01*
X26375762Y60012290D01*
X26431463Y59936807D01*
X26431480Y59936775D01*
X26454137Y59906081D01*
X26454144Y59906063D01*
X26454148Y59906066D01*
X26476642Y59875583D01*
X26476665Y59875559D01*
X26476678Y59875542D01*
X26635222Y59660757D01*
X26816373Y59415303D01*
X26995146Y59172920D01*
X27168513Y58937605D01*
X27174803Y58929067D01*
X27174860Y58928989D01*
X27354791Y58684375D01*
X27354864Y58684275D01*
X27533991Y58440251D01*
X27534081Y58440129D01*
X27637572Y58298787D01*
X27712838Y58195992D01*
X27794693Y58083862D01*
X27891229Y57951620D01*
X27891352Y57951451D01*
X28060432Y57719025D01*
X28063905Y57713999D01*
X28123300Y57623408D01*
X28131160Y57609588D01*
X28216160Y57435316D01*
X28222974Y57418303D01*
X28281546Y57234278D01*
X28285302Y57219395D01*
X28288821Y57200716D01*
X28324348Y57012174D01*
X28326019Y57000148D01*
X28348109Y56754930D01*
X28348216Y56753676D01*
X28351408Y56713786D01*
X28356288Y56693344D01*
X28377054Y56605478D01*
X28377341Y56604974D01*
X28377517Y56604413D01*
X28403233Y56496687D01*
X28404368Y56491932D01*
X28407410Y56472721D01*
X28409321Y56448824D01*
X28422874Y56413283D01*
X28423727Y56410832D01*
X28424310Y56408389D01*
X28425960Y56404216D01*
X28425962Y56404210D01*
X28436104Y56378564D01*
X28436606Y56377273D01*
X28461220Y56312726D01*
X28463140Y56310194D01*
X28464309Y56307238D01*
X28504328Y56255788D01*
X28506619Y56252842D01*
X28507542Y56251640D01*
X28528844Y56223548D01*
X28530659Y56221797D01*
X28532318Y56219802D01*
X28553736Y56192265D01*
X28561012Y56187012D01*
X28561014Y56187011D01*
X28576348Y56175942D01*
X28590091Y56164452D01*
X28691533Y56066571D01*
X28707822Y56047350D01*
X28713072Y56039725D01*
X28720715Y56033502D01*
X28749199Y56010309D01*
X28757121Y56003284D01*
X28763831Y55996810D01*
X28767477Y55994178D01*
X28778038Y55986553D01*
X28783823Y55982117D01*
X28799860Y55969059D01*
X28804057Y55966606D01*
X28804060Y55966604D01*
X28807274Y55964726D01*
X28817446Y55958103D01*
X28844740Y55938399D01*
X28844744Y55938397D01*
X28852023Y55933142D01*
X28860482Y55930142D01*
X28860488Y55930139D01*
X28864462Y55928730D01*
X28885920Y55918762D01*
X29215005Y55726436D01*
X29216440Y55725585D01*
X29590495Y55500282D01*
X29591788Y55499491D01*
X29914972Y55298997D01*
X29962518Y55269501D01*
X29963899Y55268631D01*
X30057455Y55208890D01*
X30331282Y55034034D01*
X30332557Y55033209D01*
X30697046Y54793775D01*
X30698172Y54793024D01*
X31038881Y54562914D01*
X31059200Y54549191D01*
X31060498Y54548302D01*
X31313291Y54372860D01*
X31418324Y54299965D01*
X31419618Y54299055D01*
X31774392Y54046175D01*
X31775642Y54045272D01*
X31793926Y54031894D01*
X32127280Y53787977D01*
X32128526Y53787054D01*
X32238050Y53704827D01*
X32477191Y53525286D01*
X32478298Y53524444D01*
X32823832Y53258392D01*
X32825021Y53257465D01*
X33141455Y53007698D01*
X33167604Y52987058D01*
X33168734Y52986154D01*
X33508258Y52711551D01*
X33509253Y52710738D01*
X33846193Y52431609D01*
X33847173Y52430787D01*
X34082667Y52231049D01*
X34180835Y52147786D01*
X34181931Y52146846D01*
X34513062Y51859405D01*
X34514008Y51858576D01*
X34660766Y51728589D01*
X34661724Y51727732D01*
X34881928Y51528647D01*
X34882953Y51527709D01*
X35100879Y51326271D01*
X35101772Y51325438D01*
X35318432Y51121243D01*
X35319192Y51120521D01*
X35534810Y50913892D01*
X35535321Y50913399D01*
X35750279Y50704508D01*
X35750489Y50704303D01*
X35778228Y50677041D01*
X35964642Y50493839D01*
X35965024Y50493463D01*
X36130750Y50329200D01*
X36179091Y50281286D01*
X36393299Y50067732D01*
X36607290Y49853728D01*
X36821375Y49639547D01*
X36939711Y49520415D01*
X36994213Y49465546D01*
X36994917Y49464832D01*
X37204871Y49249877D01*
X37251543Y49202093D01*
X37252388Y49201219D01*
X37506156Y48936343D01*
X37506945Y48935512D01*
X37758521Y48668097D01*
X37759166Y48667406D01*
X38008658Y48397609D01*
X38009216Y48397000D01*
X38210444Y48175863D01*
X38256646Y48125089D01*
X38257249Y48124422D01*
X38374528Y47993584D01*
X38503102Y47850143D01*
X38503684Y47849488D01*
X38747540Y47573601D01*
X38748073Y47572995D01*
X38771456Y47546197D01*
X38968737Y47320101D01*
X38990635Y47295004D01*
X38991010Y47294572D01*
X39076445Y47195488D01*
X39232165Y47014891D01*
X39232602Y47014382D01*
X39472999Y46732557D01*
X39473192Y46732330D01*
X39502900Y46697335D01*
X39504632Y46695250D01*
X39637001Y46532348D01*
X39645055Y46521254D01*
X39662861Y46493687D01*
X39711643Y46418165D01*
X39742559Y46370301D01*
X39752274Y46352163D01*
X39817302Y46202556D01*
X39823708Y46183970D01*
X39862666Y46033804D01*
X39866296Y46012297D01*
X39878115Y45865817D01*
X39877860Y45842770D01*
X39860251Y45671850D01*
X39857825Y45657035D01*
X39833517Y45549284D01*
X39833318Y45548415D01*
X39778150Y45311681D01*
X39777626Y45309520D01*
X39750492Y45201729D01*
X39744501Y45183762D01*
X39677934Y45025017D01*
X39667490Y45005242D01*
X39625530Y44940468D01*
X39576373Y44864583D01*
X39565023Y44849634D01*
X39439298Y44707416D01*
X39429061Y44697101D01*
X39411095Y44680976D01*
X39267021Y44551665D01*
X39259252Y44545235D01*
X39171049Y44477989D01*
X39162618Y44472090D01*
X38968430Y44347712D01*
X38959824Y44342668D01*
X38747568Y44229329D01*
X38742082Y44226571D01*
X38506703Y44115364D01*
X38504614Y44114401D01*
X38371791Y44054710D01*
X38318438Y44030733D01*
X38316665Y44030074D01*
X38314720Y44029787D01*
X38246781Y43998533D01*
X38246061Y43998206D01*
X38219340Y43986198D01*
X38217956Y43985321D01*
X38216721Y43984706D01*
X38190551Y43972667D01*
X38182393Y43968914D01*
X38175620Y43963026D01*
X38175617Y43963024D01*
X38163670Y43952637D01*
X38148424Y43941282D01*
X38127448Y43927997D01*
X38121516Y43921256D01*
X38121513Y43921254D01*
X38107343Y43905153D01*
X38095423Y43893305D01*
X38079242Y43879238D01*
X38079239Y43879235D01*
X38072469Y43873349D01*
X38067622Y43865798D01*
X38067621Y43865797D01*
X38059066Y43852469D01*
X38047618Y43837289D01*
X38031217Y43818654D01*
X38016397Y43786945D01*
X38014213Y43782597D01*
X38012010Y43779165D01*
X38010041Y43774711D01*
X38010038Y43774705D01*
X37999457Y43750766D01*
X37998372Y43748380D01*
X37969543Y43686699D01*
X37968860Y43682262D01*
X37967200Y43677794D01*
X37465527Y42542869D01*
X37454080Y42522379D01*
X37446320Y42511103D01*
X37443511Y42502577D01*
X37433134Y42471080D01*
X37428709Y42459577D01*
X37426679Y42454984D01*
X37425469Y42450677D01*
X37425464Y42450664D01*
X37420753Y42433899D01*
X37419124Y42428558D01*
X37400740Y42372760D01*
X37400438Y42363823D01*
X37400085Y42362278D01*
X37399802Y42360456D01*
X37399671Y42358880D01*
X37397251Y42350268D01*
X37397783Y42299760D01*
X37397870Y42291491D01*
X37397805Y42285925D01*
X37395820Y42227186D01*
X37398038Y42218522D01*
X37398133Y42216937D01*
X37398373Y42215111D01*
X37398690Y42213561D01*
X37398784Y42204619D01*
X37409189Y42170380D01*
X37415878Y42148367D01*
X37417382Y42142990D01*
X37429728Y42094779D01*
X37429729Y42094776D01*
X37431956Y42086081D01*
X37436516Y42078390D01*
X37437047Y42076909D01*
X37437798Y42075204D01*
X37438534Y42073813D01*
X37441134Y42065254D01*
X37461986Y42033393D01*
X37473330Y42016058D01*
X37476280Y42011324D01*
X37492729Y41983583D01*
X37506242Y41960792D01*
X37512778Y41954690D01*
X37513708Y41953410D01*
X37514899Y41951994D01*
X37515999Y41950862D01*
X37520897Y41943377D01*
X37527721Y41937550D01*
X37527723Y41937547D01*
X37565591Y41905209D01*
X37569755Y41901490D01*
X37606146Y41867513D01*
X37606149Y41867511D01*
X37612708Y41861387D01*
X37620694Y41857364D01*
X37621948Y41856395D01*
X37623487Y41855372D01*
X37624862Y41854593D01*
X37631662Y41848786D01*
X37639842Y41845110D01*
X37639844Y41845109D01*
X37685267Y41824698D01*
X37690307Y41822297D01*
X37708314Y41813226D01*
X37708322Y41813223D01*
X37712661Y41811037D01*
X37717286Y41809544D01*
X37718667Y41808978D01*
X37729659Y41804750D01*
X37764522Y41789084D01*
X37773415Y41787851D01*
X37773417Y41787850D01*
X37781963Y41786665D01*
X37803347Y41781771D01*
X37907806Y41748061D01*
X37929545Y41738710D01*
X38062534Y41666015D01*
X38087566Y41648037D01*
X38177683Y41564845D01*
X38197266Y41541836D01*
X38223949Y41501546D01*
X38278752Y41418795D01*
X38290088Y41397493D01*
X38358819Y41231772D01*
X38362034Y41223144D01*
X38429041Y41020981D01*
X38431272Y41014249D01*
X38431463Y41013593D01*
X38431595Y41012822D01*
X38443948Y40976004D01*
X38455095Y40942373D01*
X38455443Y40941674D01*
X38455670Y40941067D01*
X38521555Y40744701D01*
X38521703Y40744198D01*
X38521809Y40743588D01*
X38534308Y40706690D01*
X38545662Y40672850D01*
X38545937Y40672303D01*
X38546125Y40671806D01*
X38612516Y40475815D01*
X38612629Y40475434D01*
X38612708Y40474986D01*
X38613131Y40473745D01*
X38613137Y40473726D01*
X38625259Y40438194D01*
X38625347Y40437937D01*
X38636862Y40403944D01*
X38637068Y40403538D01*
X38637207Y40403172D01*
X38703970Y40207467D01*
X38704039Y40207238D01*
X38704090Y40206948D01*
X38716794Y40169877D01*
X38728493Y40135583D01*
X38728630Y40135314D01*
X38728709Y40135109D01*
X38789365Y39958108D01*
X38795693Y39939641D01*
X38795723Y39939540D01*
X38795748Y39939404D01*
X38808601Y39901975D01*
X38820346Y39867702D01*
X38820408Y39867580D01*
X38820445Y39867484D01*
X38897695Y39642527D01*
X38900360Y39634767D01*
X38900361Y39634751D01*
X38900364Y39634752D01*
X38991977Y39367860D01*
X38992014Y39367754D01*
X39059971Y39169207D01*
X39063209Y39158109D01*
X39064376Y39153299D01*
X39065234Y39144362D01*
X39068566Y39136024D01*
X39068567Y39136022D01*
X39086617Y39090860D01*
X39088826Y39084903D01*
X39090059Y39081302D01*
X39095207Y39066261D01*
X39097242Y39062274D01*
X39097244Y39062270D01*
X39098301Y39060199D01*
X39103079Y39049673D01*
X39106771Y39040437D01*
X39109249Y39036253D01*
X39109250Y39036251D01*
X39116490Y39024027D01*
X39120299Y39017109D01*
X39144664Y38969382D01*
X39150546Y38963150D01*
X39151891Y38961157D01*
X39169012Y38934618D01*
X39172968Y38928485D01*
X39175501Y38924387D01*
X39178791Y38918833D01*
X39187378Y38904333D01*
X39190187Y38900838D01*
X39192636Y38897302D01*
X39196865Y38891440D01*
X39218436Y38858001D01*
X39228520Y38849274D01*
X39230098Y38847908D01*
X39245852Y38831568D01*
X39255514Y38819545D01*
X39262873Y38814409D01*
X39262877Y38814405D01*
X39288147Y38796768D01*
X39298476Y38788730D01*
X39328574Y38762681D01*
X39342595Y38756269D01*
X39362311Y38745004D01*
X39374954Y38736179D01*
X39383457Y38733315D01*
X39383459Y38733314D01*
X39412675Y38723474D01*
X39424848Y38718655D01*
X39461038Y38702106D01*
X39469918Y38700814D01*
X39469920Y38700814D01*
X39476289Y38699888D01*
X39498370Y38694609D01*
X39504479Y38692551D01*
X39504488Y38692549D01*
X39512992Y38689685D01*
X39521961Y38689323D01*
X39521964Y38689322D01*
X39550447Y38688171D01*
X39552762Y38688078D01*
X39565809Y38686869D01*
X39596293Y38682435D01*
X39596296Y38682435D01*
X39605179Y38681143D01*
X39620445Y38683295D01*
X39643118Y38684426D01*
X39658531Y38683803D01*
X39697156Y38693423D01*
X39710003Y38695921D01*
X39716001Y38696767D01*
X39737821Y38703386D01*
X39743943Y38705076D01*
X39791159Y38716836D01*
X39791160Y38716836D01*
X39799871Y38719006D01*
X39807626Y38723535D01*
X39812194Y38725393D01*
X39823095Y38729254D01*
X39975411Y38775460D01*
X39975493Y38775485D01*
X40218239Y38848944D01*
X40219771Y38849397D01*
X40457835Y38918157D01*
X40460266Y38918833D01*
X40673194Y38975739D01*
X40674856Y38976171D01*
X40915918Y39037087D01*
X40916367Y39037200D01*
X41085305Y39079231D01*
X41106809Y39084581D01*
X41158838Y39086441D01*
X41274401Y39066323D01*
X41289762Y39062645D01*
X41349882Y39044190D01*
X41435672Y39017856D01*
X41457535Y39008822D01*
X41583482Y38942303D01*
X41610124Y38923450D01*
X41697284Y38842940D01*
X41718734Y38817007D01*
X41790724Y38701439D01*
X41798778Y38686304D01*
X41801478Y38680273D01*
X41805740Y38669437D01*
X41836094Y38580367D01*
X41861423Y38506041D01*
X41867088Y38481780D01*
X41883341Y38357843D01*
X41883535Y38326628D01*
X41868083Y38196272D01*
X41865140Y38180319D01*
X41853033Y38132268D01*
X41852830Y38131472D01*
X41837279Y38071407D01*
X41787792Y37880265D01*
X41785049Y37869672D01*
X41784561Y37867846D01*
X41716826Y37621756D01*
X41714159Y37612067D01*
X41713395Y37609407D01*
X41671782Y37470380D01*
X41638652Y37359693D01*
X41637545Y37356184D01*
X41556909Y37112881D01*
X41555401Y37108590D01*
X41472010Y36884415D01*
X41467985Y36874827D01*
X41464374Y36867131D01*
X41464371Y36867122D01*
X41462306Y36862722D01*
X41460942Y36858053D01*
X41457598Y36846607D01*
X41454748Y36838011D01*
X41449972Y36825172D01*
X41446959Y36811301D01*
X41444768Y36802689D01*
X41444362Y36801301D01*
X41436242Y36780557D01*
X41432835Y36773707D01*
X41428836Y36765668D01*
X41427255Y36756834D01*
X41427252Y36756826D01*
X41421930Y36727095D01*
X41420408Y36720613D01*
X41420454Y36720603D01*
X41419504Y36716213D01*
X41418248Y36711914D01*
X41415494Y36692647D01*
X41414735Y36687339D01*
X41414031Y36682968D01*
X41408437Y36651716D01*
X41403169Y36622289D01*
X41404096Y36613691D01*
X41404080Y36612800D01*
X41402856Y36604236D01*
X41404131Y36595349D01*
X41411613Y36543195D01*
X41412164Y36538804D01*
X41414636Y36515865D01*
X41414639Y36515848D01*
X41415160Y36511015D01*
X41416421Y36506312D01*
X41417314Y36501529D01*
X41417193Y36501506D01*
X41418534Y36494963D01*
X41420948Y36478139D01*
X41423542Y36460055D01*
X41432056Y36441343D01*
X41439070Y36421788D01*
X41476532Y36281986D01*
X41481396Y36263836D01*
X41484670Y36247220D01*
X41488521Y36217102D01*
X41492113Y36208875D01*
X41492114Y36208872D01*
X41516708Y36152545D01*
X41517088Y36151665D01*
X41522280Y36139522D01*
X41544759Y36086952D01*
X41566538Y36060486D01*
X41575584Y36048009D01*
X41603790Y36003629D01*
X41608102Y35996844D01*
X41611839Y35990568D01*
X41708629Y35816783D01*
X41715528Y35802299D01*
X41784647Y35629625D01*
X41788336Y35619072D01*
X41810702Y35544656D01*
X41810865Y35544113D01*
X41811377Y35542362D01*
X41883404Y35289482D01*
X41884424Y35285677D01*
X41946062Y35040410D01*
X41947311Y35034927D01*
X41996127Y34796044D01*
X41997383Y34788835D01*
X42031027Y34555982D01*
X42031993Y34547059D01*
X42048460Y34319533D01*
X42048781Y34309025D01*
X42047028Y34153243D01*
X42046192Y34078990D01*
X42045743Y34069685D01*
X42035026Y33944360D01*
X42023329Y33807565D01*
X42022397Y33799636D01*
X41990097Y33583984D01*
X41984031Y33543486D01*
X41982367Y33534582D01*
X41927688Y33290894D01*
X41925074Y33281107D01*
X41900495Y33202015D01*
X41853221Y33049894D01*
X41849447Y33039409D01*
X41806185Y32934092D01*
X41767104Y32838954D01*
X41759380Y32820152D01*
X41754314Y32809315D01*
X41683346Y32674597D01*
X41644549Y32600950D01*
X41638146Y32590140D01*
X41593419Y32522554D01*
X41506596Y32391359D01*
X41498975Y32381030D01*
X41339809Y32186842D01*
X41334049Y32179815D01*
X41329239Y32174283D01*
X41306515Y32149635D01*
X41303260Y32146235D01*
X41146789Y31988874D01*
X41141127Y31983523D01*
X40985305Y31845117D01*
X40978350Y31839371D01*
X40856551Y31745881D01*
X40776743Y31684622D01*
X40770028Y31679468D01*
X40761680Y31673583D01*
X40691203Y31628061D01*
X40544463Y31533282D01*
X40535581Y31528047D01*
X40304331Y31404215D01*
X40296045Y31400162D01*
X40276307Y31391389D01*
X40106122Y31315743D01*
X40098613Y31312690D01*
X39878892Y31231509D01*
X39760373Y31187788D01*
X39751926Y31185006D01*
X39732206Y31179277D01*
X39711588Y31173287D01*
X39711587Y31173286D01*
X39702970Y31170783D01*
X39695400Y31165961D01*
X39695399Y31165960D01*
X39660714Y31143863D01*
X39652942Y31139294D01*
X39608854Y31115457D01*
X39602472Y31109141D01*
X39595262Y31103797D01*
X39595204Y31103875D01*
X39594441Y31103266D01*
X39594505Y31103191D01*
X39587699Y31097347D01*
X39580123Y31092521D01*
X39547109Y31054809D01*
X39540946Y31048258D01*
X39505319Y31013004D01*
X39500966Y31005151D01*
X39495547Y30998000D01*
X39495469Y30998059D01*
X39494906Y30997258D01*
X39494988Y30997205D01*
X39490094Y30989682D01*
X39484180Y30982927D01*
X39480400Y30974783D01*
X39463086Y30937484D01*
X39459008Y30929462D01*
X39434700Y30885611D01*
X39432727Y30876856D01*
X39429531Y30868467D01*
X39429440Y30868502D01*
X39429123Y30867572D01*
X39429218Y30867543D01*
X39426633Y30858952D01*
X39422853Y30850809D01*
X39418624Y30822848D01*
X39415361Y30801275D01*
X39413698Y30792432D01*
X39402674Y30743517D01*
X39403238Y30734555D01*
X39406125Y30688659D01*
X39406373Y30681297D01*
X39407141Y30505230D01*
X39407142Y30504903D01*
X39407141Y30503777D01*
X39405967Y30273744D01*
X39405877Y30256039D01*
X39405826Y30253049D01*
X39400799Y30079734D01*
X39400536Y30070682D01*
X39400438Y30068175D01*
X39386767Y29788911D01*
X39386578Y29785822D01*
X39376615Y29650482D01*
X39366250Y29509676D01*
X39366227Y29509368D01*
X39365956Y29506235D01*
X39344887Y29293691D01*
X39338706Y29231341D01*
X39338340Y29228082D01*
X39304224Y28956213D01*
X39304061Y28954918D01*
X39303600Y28951596D01*
X39281147Y28804583D01*
X39262100Y28679868D01*
X39261533Y28676468D01*
X39212682Y28406349D01*
X39212006Y28402893D01*
X39164737Y28177667D01*
X39155640Y28134325D01*
X39154856Y28130835D01*
X39126002Y28010520D01*
X39090793Y27863710D01*
X39089889Y27860170D01*
X39020192Y27602717D01*
X39017979Y27594544D01*
X39016966Y27591005D01*
X38946477Y27358038D01*
X38938510Y27331706D01*
X38936697Y27326180D01*
X38865501Y27124937D01*
X38861302Y27113069D01*
X38858435Y27105706D01*
X38772939Y26905094D01*
X38769640Y26897978D01*
X38679160Y26717718D01*
X38672523Y26704495D01*
X38668843Y26697692D01*
X38560201Y26510815D01*
X38556203Y26504391D01*
X38436182Y26323834D01*
X38431935Y26317832D01*
X38300593Y26143263D01*
X38296162Y26137707D01*
X38247282Y26079842D01*
X38154499Y25970005D01*
X38153604Y25968946D01*
X38149060Y25963854D01*
X37992535Y25797733D01*
X37989151Y25794279D01*
X37932358Y25738521D01*
X37868878Y25676199D01*
X37865899Y25673368D01*
X37673274Y25496220D01*
X37669368Y25492774D01*
X37473650Y25327175D01*
X37469368Y25323710D01*
X37268901Y25168606D01*
X37264258Y25165181D01*
X37242707Y25150039D01*
X37058837Y25020852D01*
X37053780Y25017478D01*
X36843155Y24884185D01*
X36837718Y24880933D01*
X36621615Y24758936D01*
X36615817Y24755859D01*
X36393865Y24645387D01*
X36387738Y24642540D01*
X36286588Y24598793D01*
X36172516Y24549457D01*
X36159510Y24543832D01*
X36153101Y24541266D01*
X36095804Y24520133D01*
X35918095Y24454589D01*
X35911450Y24452346D01*
X35714030Y24391779D01*
X35690761Y24387153D01*
X35689522Y24386854D01*
X35680586Y24386003D01*
X35636582Y24368458D01*
X35626879Y24365042D01*
X35617227Y24362081D01*
X35613178Y24360175D01*
X35613172Y24360173D01*
X35602058Y24354942D01*
X35595065Y24351906D01*
X35545286Y24332058D01*
X35538216Y24326527D01*
X35532453Y24323215D01*
X35526931Y24319580D01*
X35518811Y24315758D01*
X35512090Y24309811D01*
X35512089Y24309810D01*
X35478649Y24280219D01*
X35472789Y24275342D01*
X35447844Y24255826D01*
X35430565Y24242308D01*
X35425333Y24235016D01*
X35420746Y24230236D01*
X35416453Y24225181D01*
X35409730Y24219232D01*
X35387259Y24183542D01*
X35381164Y24173861D01*
X35376910Y24167537D01*
X35345645Y24123966D01*
X35342670Y24115501D01*
X35339613Y24109631D01*
X35336907Y24103566D01*
X35332124Y24095970D01*
X35329667Y24087341D01*
X35329666Y24087339D01*
X35317439Y24044399D01*
X35315129Y24037132D01*
X35310156Y24022982D01*
X35310153Y24022970D01*
X35308539Y24018378D01*
X35306830Y24009168D01*
X35304131Y23997667D01*
X35292232Y23955881D01*
X35292296Y23946908D01*
X35292320Y23943477D01*
X35290208Y23919597D01*
X35276498Y23845715D01*
X35275922Y23842609D01*
X35275882Y23842433D01*
X35275808Y23842221D01*
X35275689Y23841576D01*
X35268769Y23804064D01*
X35268745Y23803934D01*
X35263619Y23776308D01*
X35262057Y23767893D01*
X35262048Y23767667D01*
X35262019Y23767474D01*
X35244558Y23672818D01*
X35223990Y23561327D01*
X35222760Y23555446D01*
X35198324Y23451139D01*
X35193028Y23434083D01*
X35128859Y23269606D01*
X35118393Y23248733D01*
X35034617Y23114381D01*
X35021067Y23096442D01*
X34907514Y22971134D01*
X34892728Y22957248D01*
X34738013Y22833814D01*
X34724196Y22822791D01*
X34717466Y22817780D01*
X34606363Y22740663D01*
X34604893Y22739716D01*
X34603279Y22738915D01*
X34599469Y22736221D01*
X34599448Y22736208D01*
X34573124Y22717598D01*
X34572302Y22717022D01*
X34544524Y22697741D01*
X34543202Y22696512D01*
X34541793Y22695448D01*
X34387047Y22586052D01*
X34386902Y22585958D01*
X34386709Y22585862D01*
X34354731Y22563207D01*
X34324987Y22542180D01*
X34324831Y22542033D01*
X34324689Y22541925D01*
X34247986Y22487584D01*
X34204895Y22457055D01*
X34200924Y22454242D01*
X34179078Y22441835D01*
X34170437Y22438011D01*
X34163575Y22432218D01*
X34134980Y22408079D01*
X34126544Y22401548D01*
X34122742Y22398855D01*
X34122735Y22398849D01*
X34119083Y22396262D01*
X34115828Y22393177D01*
X34106234Y22384084D01*
X34100837Y22379256D01*
X34074903Y22357363D01*
X34059136Y22344052D01*
X34054177Y22336568D01*
X34050280Y22332191D01*
X34046652Y22327611D01*
X34040137Y22321436D01*
X34035618Y22313683D01*
X34035617Y22313681D01*
X34012654Y22274280D01*
X34008828Y22268129D01*
X33983638Y22230112D01*
X33983636Y22230109D01*
X33978681Y22222630D01*
X33976023Y22214058D01*
X33973515Y22208772D01*
X33971314Y22203347D01*
X33966794Y22195591D01*
X33964453Y22186156D01*
X33953652Y22142623D01*
X33951706Y22135646D01*
X33938198Y22092087D01*
X33935538Y22083508D01*
X33935392Y22074529D01*
X33934468Y22068744D01*
X33933879Y22062929D01*
X33931718Y22054220D01*
X33932088Y22045256D01*
X33932088Y22045254D01*
X33933971Y21999668D01*
X33934061Y21992428D01*
X33933386Y21950757D01*
X33933177Y21937870D01*
X33935555Y21929220D01*
X33936291Y21923408D01*
X33937359Y21917653D01*
X33937730Y21908686D01*
X33940602Y21900185D01*
X33940602Y21900184D01*
X33955204Y21856960D01*
X33957324Y21850032D01*
X33969358Y21806256D01*
X33971786Y21797423D01*
X33976499Y21789783D01*
X33978836Y21784414D01*
X33981473Y21779197D01*
X33984347Y21770690D01*
X34015634Y21725951D01*
X34019601Y21719914D01*
X34027987Y21706320D01*
X34027991Y21706315D01*
X34030547Y21702171D01*
X34033710Y21698470D01*
X34033713Y21698466D01*
X34036009Y21695780D01*
X34043484Y21686124D01*
X34062674Y21658683D01*
X34062677Y21658680D01*
X34067821Y21651324D01*
X34074825Y21645706D01*
X34078252Y21642957D01*
X34095193Y21626537D01*
X34099317Y21621712D01*
X34099910Y21621191D01*
X34100391Y21620669D01*
X34219068Y21482866D01*
X34219876Y21481858D01*
X34220612Y21480693D01*
X34223044Y21477907D01*
X34245235Y21452480D01*
X34245779Y21451853D01*
X34268294Y21425710D01*
X34269338Y21424798D01*
X34270233Y21423837D01*
X34310015Y21378255D01*
X34316487Y21370195D01*
X34457700Y21178739D01*
X34465328Y21167101D01*
X34579299Y20970337D01*
X34584941Y20959398D01*
X34682338Y20745497D01*
X34686236Y20735912D01*
X34763725Y20520383D01*
X34769766Y20503580D01*
X34772297Y20495743D01*
X34844336Y20244998D01*
X34845882Y20239080D01*
X34908454Y19973291D01*
X34909511Y19968359D01*
X34919389Y19917321D01*
X34920948Y19906990D01*
X34937717Y19752653D01*
X34942770Y19706141D01*
X34943503Y19691534D01*
X34942058Y19509161D01*
X34941996Y19501391D01*
X34941278Y19488925D01*
X34931160Y19394840D01*
X34919870Y19289861D01*
X34918434Y19280114D01*
X34907665Y19222680D01*
X34884196Y19097510D01*
X34878777Y19068611D01*
X34877298Y19061777D01*
X34826406Y18854729D01*
X34821762Y18835835D01*
X34820713Y18831849D01*
X34775954Y18672444D01*
X34774678Y18668189D01*
X34688320Y18397661D01*
X34686341Y18391942D01*
X34589494Y18132307D01*
X34587025Y18126182D01*
X34477971Y17874891D01*
X34474952Y17868441D01*
X34352800Y17625553D01*
X34349192Y17618887D01*
X34324145Y17575759D01*
X34211854Y17382412D01*
X34208090Y17376334D01*
X34099694Y17211930D01*
X34091255Y17200574D01*
X33977457Y17064159D01*
X33965675Y17051835D01*
X33827442Y16925585D01*
X33820747Y16919886D01*
X33640917Y16777318D01*
X33640701Y16777148D01*
X33443609Y16621595D01*
X33443401Y16621431D01*
X33403447Y16590081D01*
X33392703Y16582523D01*
X33228618Y16479436D01*
X33211294Y16470345D01*
X33043755Y16398420D01*
X33027902Y16392835D01*
X32844065Y16341559D01*
X32837333Y16339879D01*
X32796991Y16330992D01*
X32795820Y16330777D01*
X32794516Y16330688D01*
X32791086Y16329910D01*
X32757893Y16322381D01*
X32757128Y16322210D01*
X32726717Y16315511D01*
X32726708Y16315509D01*
X32723305Y16314759D01*
X32722081Y16314300D01*
X32720891Y16313989D01*
X32508072Y16265717D01*
X32507326Y16265577D01*
X32506450Y16265513D01*
X32469021Y16256860D01*
X32468823Y16256815D01*
X32436675Y16249524D01*
X32436659Y16249520D01*
X32434297Y16248984D01*
X32433484Y16248673D01*
X32432710Y16248467D01*
X32183153Y16190776D01*
X32182848Y16190705D01*
X31900271Y16126121D01*
X31899149Y16125870D01*
X31870936Y16119692D01*
X31620483Y16064850D01*
X31618659Y16064466D01*
X31343294Y16008701D01*
X31340501Y16008169D01*
X31308131Y16002375D01*
X31243383Y15990787D01*
X31239149Y15990103D01*
X31118831Y15972772D01*
X31009481Y15957021D01*
X31005432Y15956505D01*
X30949975Y15950349D01*
X30803688Y15934111D01*
X30787870Y15933357D01*
X30779509Y15933484D01*
X30754680Y15933862D01*
X30689477Y15915869D01*
X30687503Y15915342D01*
X30622047Y15898433D01*
X30618382Y15896249D01*
X30614271Y15895115D01*
X30594435Y15882851D01*
X30556745Y15859549D01*
X30554981Y15858478D01*
X30496913Y15823884D01*
X30494009Y15820761D01*
X30490380Y15818517D01*
X30445153Y15768240D01*
X30443822Y15766785D01*
X30397731Y15717212D01*
X30395819Y15713396D01*
X30392967Y15710226D01*
X30389117Y15702217D01*
X30389116Y15702215D01*
X30363690Y15649319D01*
X30362775Y15647456D01*
X30336462Y15594947D01*
X30336459Y15594939D01*
X30332475Y15586989D01*
X30331711Y15582790D01*
X30329864Y15578948D01*
X30319437Y15515782D01*
X30318850Y15512223D01*
X30318507Y15510249D01*
X30306392Y15443686D01*
X30306837Y15439443D01*
X30306142Y15435234D01*
X30310077Y15402850D01*
X30314298Y15368104D01*
X30314531Y15366042D01*
X30319521Y15318441D01*
X30321577Y15298822D01*
X30324980Y15290518D01*
X30335652Y15264476D01*
X30340315Y15250956D01*
X33689793Y3396143D01*
X33690732Y3392628D01*
X33702164Y3347191D01*
X33704904Y3332819D01*
X33710688Y3288679D01*
X33725290Y3177256D01*
X33728746Y3150880D01*
X33729699Y3129120D01*
X33722724Y2966164D01*
X33719947Y2944713D01*
X33685275Y2785675D01*
X33678860Y2764987D01*
X33622629Y2626922D01*
X33617207Y2613610D01*
X33607237Y2594159D01*
X33547819Y2499489D01*
X33509061Y2437737D01*
X33500582Y2425823D01*
X33488580Y2410878D01*
X33478768Y2400018D01*
X33348040Y2271220D01*
X33331255Y2257328D01*
X33197093Y2164593D01*
X33178308Y2153867D01*
X33030539Y2085583D01*
X33010171Y2078222D01*
X32897576Y2048177D01*
X32852178Y2036063D01*
X32830663Y2032281D01*
X32637364Y2015387D01*
X32626394Y2014909D01*
X4052423Y2014909D01*
X4048643Y2014966D01*
X4043833Y2015110D01*
X4000592Y2016408D01*
X3985645Y2017751D01*
X3860409Y2036585D01*
X3799297Y2045775D01*
X3777578Y2051046D01*
X3619055Y2104791D01*
X3598755Y2113735D01*
X3452414Y2194291D01*
X3433973Y2206679D01*
X3303471Y2312167D01*
X3287349Y2327766D01*
X3248709Y2372475D01*
X3163280Y2471320D01*
X3154140Y2483270D01*
X3143199Y2499497D01*
X3135560Y2512429D01*
X3123208Y2536513D01*
X3049610Y2680013D01*
X3041218Y2700715D01*
X2992352Y2860795D01*
X2987769Y2882498D01*
X2967772Y3048365D01*
X2967068Y3070572D01*
X2972948Y3174380D01*
X9987729Y3174380D01*
X26821396Y3174380D01*
X26821396Y6026380D01*
X9987729Y6026380D01*
X9987729Y3174380D01*
X2972948Y3174380D01*
X2976557Y3238084D01*
X2979815Y3260284D01*
X3026174Y3453997D01*
X3029289Y3464841D01*
X6610730Y14112414D01*
X14812819Y14112414D01*
X14843127Y13977934D01*
X14846207Y13968105D01*
X14926332Y13770777D01*
X14930975Y13761586D01*
X15042256Y13579992D01*
X15048339Y13571681D01*
X15187775Y13410713D01*
X15195142Y13403497D01*
X15358996Y13267464D01*
X15367443Y13261549D01*
X15551318Y13154101D01*
X15560604Y13149651D01*
X15759563Y13073677D01*
X15769461Y13070801D01*
X15872812Y13049774D01*
X15886861Y13050970D01*
X15890562Y13061315D01*
X15890562Y14108265D01*
X15886087Y14123504D01*
X15884697Y14124709D01*
X15877014Y14126380D01*
X14827787Y14126380D01*
X14814256Y14122407D01*
X14812819Y14112414D01*
X6610730Y14112414D01*
X6904193Y14984874D01*
X6904881Y14986865D01*
X6925300Y15044371D01*
X6928304Y15052831D01*
X6929307Y15070488D01*
X6930172Y15085723D01*
X6932055Y15101412D01*
X6936403Y15125008D01*
X6936403Y15125011D01*
X6938029Y15133834D01*
X6935753Y15156013D01*
X6935298Y15176017D01*
X6936052Y15189290D01*
X6936561Y15198255D01*
X6929119Y15230360D01*
X6926524Y15245944D01*
X6924075Y15269805D01*
X6923159Y15278731D01*
X6914753Y15299371D01*
X6908702Y15318441D01*
X6905697Y15331404D01*
X6903670Y15340150D01*
X6887515Y15368878D01*
X6880652Y15383105D01*
X6871609Y15405312D01*
X6871607Y15405315D01*
X6868221Y15413630D01*
X6854361Y15431079D01*
X6843197Y15447690D01*
X6836677Y15459285D01*
X6836675Y15459287D01*
X6832276Y15467111D01*
X6808717Y15490141D01*
X6798130Y15501876D01*
X6777629Y15527688D01*
X6759419Y15540553D01*
X6744051Y15553356D01*
X6734539Y15562654D01*
X6728118Y15568931D01*
X6699026Y15584432D01*
X6685594Y15592710D01*
X6658665Y15611735D01*
X6637577Y15618972D01*
X6619234Y15626946D01*
X6607491Y15633203D01*
X6599569Y15637424D01*
X6590782Y15639252D01*
X6590781Y15639252D01*
X6567305Y15644135D01*
X6552072Y15648315D01*
X6520894Y15659015D01*
X6511924Y15659429D01*
X6511923Y15659429D01*
X6440678Y15662715D01*
X6440110Y15662742D01*
X6196835Y15675064D01*
X6193993Y15675241D01*
X5978551Y15691042D01*
X5947335Y15693331D01*
X5944659Y15693556D01*
X5853420Y15702215D01*
X5737920Y15713176D01*
X5735576Y15713420D01*
X5563009Y15733060D01*
X5421363Y15749181D01*
X5418367Y15749559D01*
X5263559Y15770991D01*
X5108451Y15792465D01*
X5105180Y15792962D01*
X4798560Y15843648D01*
X4795057Y15844278D01*
X4647438Y15872986D01*
X4491756Y15903262D01*
X4488089Y15904034D01*
X4188214Y15971820D01*
X4184315Y15972767D01*
X3888008Y16049840D01*
X3883899Y16050983D01*
X3774012Y16083594D01*
X3591123Y16137871D01*
X3586824Y16139231D01*
X3297628Y16236442D01*
X3293187Y16238028D01*
X3243472Y16256838D01*
X3007527Y16346110D01*
X3003021Y16347915D01*
X2722168Y16466874D01*
X2717052Y16469177D01*
X2616808Y16517031D01*
X2608282Y16521509D01*
X2500860Y16583276D01*
X2436829Y16620094D01*
X2424809Y16627950D01*
X2281830Y16733511D01*
X2269147Y16744236D01*
X2197241Y16813674D01*
X2147600Y16861610D01*
X2135413Y16875221D01*
X2135353Y16875299D01*
X2016535Y17029115D01*
X2011283Y17036442D01*
X1959493Y17114444D01*
X1958925Y17115370D01*
X1958421Y17116447D01*
X1956608Y17119145D01*
X1937340Y17147813D01*
X1936944Y17148404D01*
X1919488Y17174695D01*
X1917720Y17177358D01*
X1916932Y17178241D01*
X1916288Y17179135D01*
X1822195Y17319130D01*
X1802330Y17348686D01*
X1802196Y17348904D01*
X1802065Y17349182D01*
X1780320Y17381434D01*
X1779663Y17382412D01*
X1760473Y17410964D01*
X1760465Y17410974D01*
X1759965Y17411719D01*
X1759761Y17411946D01*
X1759596Y17412173D01*
X1624600Y17612395D01*
X1624223Y17612957D01*
X1499750Y17799730D01*
X1489517Y17818301D01*
X1454825Y17896119D01*
X1448268Y17914561D01*
X1440480Y17943387D01*
X1440455Y17943497D01*
X1440441Y17943619D01*
X1430045Y17982009D01*
X1430051Y17982011D01*
X1430025Y17982083D01*
X1420739Y18016457D01*
X1420737Y18016462D01*
X1420641Y18016819D01*
X1420592Y18016934D01*
X1420564Y18017023D01*
X1352466Y18268503D01*
X1352455Y18268543D01*
X1350020Y18277549D01*
X1275001Y18554950D01*
X1213124Y18785403D01*
X1198350Y18840427D01*
X1198244Y18840825D01*
X1122772Y19125629D01*
X1122620Y19126208D01*
X1048754Y19410392D01*
X1048559Y19411152D01*
X979869Y19682346D01*
X978517Y19688283D01*
X966039Y19749922D01*
X965485Y19752662D01*
X963310Y19768552D01*
X950363Y19947335D01*
X950295Y19964537D01*
X961929Y20145116D01*
X962692Y20156962D01*
X964152Y20169611D01*
X1000320Y20386211D01*
X1003122Y20398915D01*
X1023432Y20472659D01*
X1057981Y20598107D01*
X1062353Y20611152D01*
X1113835Y20740780D01*
X1134864Y20793731D01*
X1140847Y20806623D01*
X1231099Y20975447D01*
X1238546Y20987656D01*
X1347608Y21145543D01*
X1356193Y21156603D01*
X1485845Y21305722D01*
X1495138Y21315330D01*
X1611849Y21423837D01*
X1647517Y21456997D01*
X1657061Y21465026D01*
X1844959Y21607840D01*
X1849868Y21611389D01*
X1950535Y21680530D01*
X1950834Y21680734D01*
X2168103Y21829043D01*
X2168158Y21829081D01*
X2322646Y21934415D01*
X2332247Y21940350D01*
X2338117Y21943624D01*
X2346500Y21946843D01*
X2353638Y21952282D01*
X2353644Y21952285D01*
X2391766Y21981331D01*
X2397146Y21985211D01*
X2409151Y21993396D01*
X2409153Y21993398D01*
X2412854Y21995921D01*
X2416165Y21998948D01*
X2416170Y21998952D01*
X2418394Y22000985D01*
X2427051Y22008216D01*
X2432483Y22012355D01*
X2462360Y22035119D01*
X2467683Y22042340D01*
X2467685Y22042342D01*
X2468763Y22043805D01*
X2485163Y22062033D01*
X2493130Y22069318D01*
X2497787Y22076988D01*
X2497790Y22076992D01*
X2516173Y22107270D01*
X2522451Y22116637D01*
X2543460Y22145140D01*
X2543461Y22145142D01*
X2548786Y22152366D01*
X2552494Y22162500D01*
X2563121Y22184603D01*
X2564064Y22186156D01*
X2568721Y22193826D01*
X2572716Y22208772D01*
X2580186Y22236725D01*
X2583580Y22247469D01*
X2598831Y22289156D01*
X2599546Y22299928D01*
X2603541Y22324112D01*
X2604012Y22325874D01*
X2606329Y22334544D01*
X2605293Y22378928D01*
X2605535Y22390209D01*
X2607879Y22425541D01*
X2608473Y22434494D01*
X2606530Y22443253D01*
X2606530Y22443257D01*
X2606136Y22445033D01*
X2603182Y22469370D01*
X2603140Y22471186D01*
X2603139Y22471190D01*
X2602930Y22480163D01*
X2589476Y22522479D01*
X2586543Y22533373D01*
X2584646Y22541925D01*
X2576935Y22576696D01*
X2571734Y22586155D01*
X2562071Y22608677D01*
X2558797Y22618974D01*
X2534004Y22655818D01*
X2528142Y22665435D01*
X2525358Y22670498D01*
X2525354Y22670504D01*
X2523010Y22674767D01*
X2511781Y22689319D01*
X2506997Y22695952D01*
X2492432Y22717598D01*
X2477479Y22739819D01*
X2470579Y22745560D01*
X2464560Y22752224D01*
X2464826Y22752464D01*
X2455957Y22761666D01*
X2448513Y22771314D01*
X2445082Y22776369D01*
X2444920Y22776255D01*
X2442129Y22780237D01*
X2439648Y22784430D01*
X2433640Y22791729D01*
X2420821Y22807303D01*
X2418348Y22810405D01*
X2408791Y22822791D01*
X2402141Y22831410D01*
X2398922Y22834540D01*
X2395944Y22837879D01*
X2396031Y22837956D01*
X2391883Y22842460D01*
X2378819Y22858332D01*
X2272554Y22987435D01*
X2266252Y22995773D01*
X2261484Y23002659D01*
X2261483Y23002660D01*
X2258714Y23006659D01*
X2247040Y23018939D01*
X2241079Y23025676D01*
X2235146Y23032884D01*
X2235136Y23032895D01*
X2232290Y23036352D01*
X2221919Y23045819D01*
X2215554Y23052057D01*
X2196436Y23072166D01*
X2170757Y23099178D01*
X2166207Y23104231D01*
X2025996Y23268740D01*
X2019577Y23276935D01*
X1901947Y23440659D01*
X1895854Y23449984D01*
X1895516Y23450556D01*
X1795736Y23619091D01*
X1790251Y23629422D01*
X1707103Y23805273D01*
X1702482Y23816390D01*
X1635962Y24000852D01*
X1632401Y24012451D01*
X1578223Y24224841D01*
X1575912Y24235977D01*
X1575693Y24237338D01*
X1575294Y24242183D01*
X1567945Y24272650D01*
X1567218Y24275846D01*
X1562246Y24299100D01*
X1562245Y24299102D01*
X1561310Y24303477D01*
X1559762Y24307679D01*
X1558949Y24310489D01*
X1557494Y24315975D01*
X1508248Y24520133D01*
X1507326Y24524256D01*
X1466543Y24722224D01*
X1464219Y24739451D01*
X1452674Y24916562D01*
X1452577Y24931310D01*
X1457528Y25026389D01*
X1458077Y25033276D01*
X1460552Y25056343D01*
X1481728Y25253763D01*
X1483518Y25265344D01*
X1522975Y25460091D01*
X1526897Y25474810D01*
X1585183Y25650187D01*
X1591476Y25665626D01*
X1596626Y25676199D01*
X1670474Y25827803D01*
X1678420Y25841772D01*
X1777417Y25992560D01*
X1787269Y26005630D01*
X1905287Y26142674D01*
X1916834Y26154431D01*
X2076394Y26296914D01*
X2080088Y26300086D01*
X2106995Y26322304D01*
X2117918Y26330374D01*
X2122275Y26333243D01*
X2140677Y26349940D01*
X2145089Y26353758D01*
X2158392Y26364743D01*
X2158395Y26364746D01*
X2161849Y26367598D01*
X2164866Y26370913D01*
X2165890Y26372038D01*
X2174403Y26380540D01*
X2304250Y26498354D01*
X2319002Y26509862D01*
X2333049Y26519230D01*
X2333053Y26519233D01*
X2340518Y26524212D01*
X2346286Y26531087D01*
X2346289Y26531089D01*
X2364691Y26553020D01*
X2365513Y26553937D01*
X2366492Y26554826D01*
X2368733Y26557531D01*
X2368752Y26557553D01*
X2388185Y26581017D01*
X2388701Y26581636D01*
X2414936Y26612903D01*
X2434143Y26635794D01*
X2434811Y26637316D01*
X2435873Y26638598D01*
X2439251Y26646430D01*
X2439253Y26646433D01*
X2463903Y26703581D01*
X2464225Y26704323D01*
X2470105Y26717718D01*
X2492689Y26769167D01*
X2492904Y26770820D01*
X2493561Y26772344D01*
X2499919Y26823885D01*
X2502218Y26842525D01*
X2502319Y26843326D01*
X2504345Y26858929D01*
X2511446Y26913612D01*
X2511189Y26915253D01*
X2511393Y26916906D01*
X2499985Y26986818D01*
X2499861Y26987591D01*
X2490231Y27049082D01*
X2490231Y27049083D01*
X2488910Y27057516D01*
X2488203Y27059018D01*
X2487935Y27060662D01*
X2457363Y27124563D01*
X2457018Y27125290D01*
X2441405Y27158467D01*
X2426891Y27189310D01*
X2425789Y27190556D01*
X2425071Y27192056D01*
X2419399Y27198385D01*
X2377728Y27244881D01*
X2377192Y27245483D01*
X2345308Y27281521D01*
X2330374Y27298400D01*
X2328968Y27299285D01*
X2327857Y27300525D01*
X2267710Y27337864D01*
X2267030Y27338290D01*
X2238724Y27356115D01*
X2238710Y27356123D01*
X2235669Y27358038D01*
X2234439Y27358569D01*
X2233388Y27359171D01*
X2204106Y27377349D01*
X2195462Y27379752D01*
X2195456Y27379754D01*
X2175857Y27385201D01*
X2160049Y27390751D01*
X2142600Y27398215D01*
X2109789Y27412379D01*
X2109112Y27412563D01*
X2108528Y27412790D01*
X1899767Y27502089D01*
X1898319Y27502719D01*
X1672420Y27602717D01*
X1666383Y27605583D01*
X1476615Y27701926D01*
X1468299Y27706551D01*
X1297298Y27810295D01*
X1288528Y27816130D01*
X1091825Y27959232D01*
X1082907Y27966360D01*
X899374Y28127197D01*
X891979Y28134229D01*
X751334Y28279315D01*
X745297Y28286007D01*
X607342Y28450392D01*
X603341Y28455414D01*
X590903Y28471870D01*
X499227Y28593160D01*
X498901Y28593625D01*
X498583Y28594214D01*
X475003Y28625209D01*
X453543Y28653601D01*
X453072Y28654068D01*
X452708Y28654514D01*
X433419Y28679868D01*
X341720Y28800402D01*
X341155Y28801204D01*
X340622Y28802177D01*
X332244Y28813071D01*
X317482Y28832267D01*
X317083Y28832788D01*
X297804Y28858129D01*
X297798Y28858136D01*
X295983Y28860522D01*
X295197Y28861296D01*
X294549Y28862084D01*
X260224Y28906717D01*
X256030Y28912502D01*
X126820Y29101829D01*
X121500Y29110332D01*
X52337Y29231341D01*
X12324Y29301350D01*
X7861Y29309903D01*
X-5548Y29338194D01*
X-86830Y29509682D01*
X-90443Y29518080D01*
X-108208Y29563886D01*
X-128997Y29617486D01*
X-171522Y29727131D01*
X-174343Y29735207D01*
X-240736Y29948265D01*
X-242477Y29953853D01*
X-244589Y29961463D01*
X-257239Y30013303D01*
X-302138Y30197288D01*
X-303054Y30201334D01*
X-337176Y30364325D01*
X-337374Y30365287D01*
X-349992Y30427995D01*
X-358789Y30471711D01*
X-389513Y30624393D01*
X-389695Y30625315D01*
X-422876Y30796814D01*
X-438787Y30879049D01*
X-439248Y30881572D01*
X-449296Y30939947D01*
X-449296Y30939948D01*
X-450819Y30948794D01*
X-454765Y30956860D01*
X-454766Y30956864D01*
X-465847Y30979518D01*
X-471726Y30993653D01*
X-479981Y31017493D01*
X-479984Y31017498D01*
X-482920Y31025978D01*
X-503416Y31054819D01*
X-526382Y31087134D01*
X-526994Y31088004D01*
X-628308Y31233145D01*
X-628757Y31233893D01*
X-629041Y31234726D01*
X-676778Y31302580D01*
X-690806Y31322677D01*
X-691206Y31323105D01*
X-691370Y31323322D01*
X-707687Y31346516D01*
X-707688Y31346517D01*
X-712851Y31353856D01*
X-733530Y31370348D01*
X-747017Y31382817D01*
X-758947Y31395580D01*
X-758949Y31395582D01*
X-765081Y31402142D01*
X-795214Y31419987D01*
X-797939Y31421715D01*
X-800351Y31423638D01*
X-804575Y31426049D01*
X-804580Y31426053D01*
X-828160Y31439515D01*
X-829813Y31440475D01*
X-890411Y31476360D01*
X-893746Y31477212D01*
X-896875Y31478745D01*
X-1024253Y31551468D01*
X-1027334Y31553285D01*
X-1104640Y31600380D01*
X-1207135Y31662821D01*
X-1208826Y31663931D01*
X-1210398Y31665233D01*
X-1241871Y31683989D01*
X-1242921Y31684622D01*
X-1254395Y31691612D01*
X-1267437Y31700735D01*
X-1397292Y31804368D01*
X-1411008Y31817092D01*
X-1546307Y31962745D01*
X-1549077Y31965828D01*
X-1684981Y32122145D01*
X-1685116Y32122313D01*
X-1685247Y32122520D01*
X-1685765Y32123115D01*
X-1710774Y32151811D01*
X-1734835Y32179486D01*
X-1735035Y32179660D01*
X-1735153Y32179786D01*
X-1882814Y32349220D01*
X-1885863Y32352856D01*
X-2043045Y32547671D01*
X-2045526Y32550849D01*
X-2150088Y32689285D01*
X-2198508Y32753392D01*
X-2200438Y32756017D01*
X-2350328Y32965568D01*
X-2351766Y32967622D01*
X-2499634Y33183292D01*
X-2500611Y33184738D01*
X-2569385Y33288087D01*
X-2647593Y33405615D01*
X-2648114Y33406404D01*
X-2704677Y33492859D01*
X-2795630Y33631876D01*
X-2940086Y33853518D01*
X-2941535Y33855795D01*
X-2946540Y33863848D01*
X-2953436Y33876505D01*
X-3034533Y34048039D01*
X-3040494Y34063075D01*
X-3106859Y34268017D01*
X-3108756Y34274461D01*
X-3115207Y34298744D01*
X-3166594Y34492157D01*
X-3172365Y34513879D01*
X-3173142Y34516959D01*
X-3227357Y34743923D01*
X-3228334Y34748363D01*
X-3237920Y34796044D01*
X-3274417Y34977594D01*
X-3275000Y34980698D01*
X-3316463Y35217871D01*
X-3316768Y35219694D01*
X-3327613Y35287588D01*
X-3352249Y35441815D01*
X-3353385Y35451153D01*
X-3359192Y35520434D01*
X-3360419Y35535066D01*
X-3360560Y35554265D01*
X-3356086Y35619067D01*
X-3347617Y35741747D01*
X-3346476Y35752067D01*
X-3345167Y35760643D01*
X-3328091Y35872583D01*
X-3327591Y35875614D01*
X-3292572Y36072787D01*
X-3284458Y36118476D01*
X-3283011Y36125465D01*
X-3230970Y36345278D01*
X-3227988Y36355809D01*
X-3162975Y36552411D01*
X-3157602Y36565970D01*
X-3157146Y36566949D01*
X-3067872Y36758975D01*
X-3063494Y36767525D01*
X-3056503Y36779980D01*
X-3039437Y36810386D01*
X-3037417Y36819133D01*
X-3037415Y36819138D01*
X-3027758Y36860951D01*
X-3025622Y36868982D01*
X-3013233Y36910057D01*
X-3013232Y36910061D01*
X-3010640Y36918656D01*
X-3010191Y36971800D01*
X-3009864Y36979862D01*
X-3002461Y37081791D01*
X-3000079Y37114576D01*
X-2997643Y37131709D01*
X-2991509Y37160477D01*
X-2992176Y37169428D01*
X-2996799Y37231442D01*
X-2996842Y37232029D01*
X-2998541Y37256345D01*
X-3001826Y37303384D01*
X-3004939Y37311801D01*
X-3004941Y37311810D01*
X-3013389Y37334651D01*
X-3017927Y37349770D01*
X-3070928Y37577276D01*
X-3130793Y37837920D01*
X-3131339Y37840414D01*
X-3183410Y38090709D01*
X-3184303Y38095454D01*
X-3224186Y38332360D01*
X-3225315Y38340808D01*
X-3237843Y38466775D01*
X-3238460Y38478577D01*
X-3239541Y38682397D01*
X-3239574Y38688558D01*
X-3239094Y38700239D01*
X-3234177Y38756271D01*
X-3219445Y38924170D01*
X-3218827Y38929767D01*
X-3215138Y38957486D01*
X-3214605Y38961090D01*
X-3214594Y38961153D01*
X-3181025Y39167561D01*
X-3177733Y39187805D01*
X-3176298Y39195221D01*
X-3175780Y39197522D01*
X-3159398Y39270380D01*
X-3129225Y39404568D01*
X-3126715Y39414006D01*
X-3123745Y39423651D01*
X-3067313Y39606917D01*
X-3063260Y39618150D01*
X-3056364Y39634752D01*
X-2975840Y39828602D01*
X-2970079Y39840629D01*
X-2868659Y40026345D01*
X-2861074Y40038528D01*
X-2824872Y40089900D01*
X-2745865Y40202013D01*
X-2736445Y40213810D01*
X-2712527Y40240332D01*
X-2606885Y40357480D01*
X-2595833Y40368315D01*
X-2450278Y40494448D01*
X-2438015Y40503824D01*
X-2273825Y40614083D01*
X-2260901Y40621687D01*
X-2162048Y40672185D01*
X-2120462Y40693429D01*
X-2050699Y40706606D01*
X-1984886Y40679975D01*
X-1943920Y40621990D01*
X-1940805Y40551062D01*
X-1956875Y40513522D01*
X-2025894Y40405185D01*
X-2060895Y40350245D01*
X-2062162Y40347812D01*
X-2062165Y40347806D01*
X-2131920Y40213810D01*
X-2242001Y40002350D01*
X-2255415Y39969965D01*
X-2391047Y39642527D01*
X-2391052Y39642515D01*
X-2392096Y39639993D01*
X-2433067Y39510053D01*
X-2508637Y39270380D01*
X-2510039Y39265934D01*
X-2594932Y38883019D01*
X-2619543Y38696089D01*
X-2636603Y38566505D01*
X-2646128Y38494162D01*
X-2659488Y38188201D01*
X-2662033Y38129916D01*
X-2662593Y38123887D01*
X-2662557Y38123884D01*
X-2662870Y38119768D01*
X-2663451Y38115686D01*
X-2663591Y38102322D01*
X-2663096Y38098229D01*
X-2663095Y38098216D01*
X-2659851Y38071407D01*
X-2658938Y38056270D01*
X-2658938Y37653519D01*
X-2660195Y37635765D01*
X-2663451Y37612888D01*
X-2663591Y37599524D01*
X-2663094Y37595421D01*
X-2662893Y37591763D01*
X-2662701Y37589506D01*
X-2656849Y37470380D01*
X-2648206Y37294428D01*
X-2646184Y37253254D01*
X-2645731Y37250198D01*
X-2645730Y37250191D01*
X-2635444Y37180849D01*
X-2595316Y36910319D01*
X-2594564Y36907316D01*
X-2594563Y36907312D01*
X-2511831Y36577021D01*
X-2511828Y36577011D01*
X-2511079Y36574021D01*
X-2510042Y36571122D01*
X-2510039Y36571113D01*
X-2467380Y36451889D01*
X-2394284Y36247599D01*
X-2392968Y36244816D01*
X-2392964Y36244807D01*
X-2253616Y35950182D01*
X-2246056Y35934198D01*
X-2067822Y35636834D01*
X-2065979Y35634349D01*
X-1969995Y35504931D01*
X-1861300Y35358373D01*
X-1859222Y35356080D01*
X-1859216Y35356073D01*
X-1647954Y35122983D01*
X-1640668Y35114159D01*
X-1640588Y35114066D01*
X-1638109Y35110764D01*
X-1635227Y35107821D01*
X-1635221Y35107814D01*
X-1631648Y35104166D01*
X-1628758Y35101215D01*
X-1605716Y35083148D01*
X-1604258Y35082005D01*
X-1592907Y35071945D01*
X-812923Y34291960D01*
X-802054Y34279565D01*
X-785557Y34258064D01*
X-779626Y34253312D01*
X-779624Y34253310D01*
X-775995Y34250402D01*
X-757383Y34232006D01*
X-709602Y34173782D01*
X-695879Y34153243D01*
X-651229Y34069702D01*
X-641778Y34046884D01*
X-628902Y34004436D01*
X-614283Y33956240D01*
X-609464Y33932013D01*
X-602993Y33866297D01*
X-602750Y33844390D01*
X-602870Y33842819D01*
X-603451Y33838734D01*
X-603518Y33832364D01*
X-603556Y33832073D01*
X-603524Y33831782D01*
X-603591Y33825370D01*
X-602641Y33817523D01*
X-601998Y33810623D01*
X-587667Y33592021D01*
X-586871Y33579873D01*
X-586068Y33575837D01*
X-586068Y33575836D01*
X-541562Y33352107D01*
X-538871Y33338577D01*
X-459787Y33105610D01*
X-350972Y32884959D01*
X-348678Y32881526D01*
X-348677Y32881524D01*
X-219318Y32687928D01*
X-214287Y32680398D01*
X-211573Y32677304D01*
X-211569Y32677298D01*
X-109898Y32561366D01*
X-109089Y32560385D01*
X-105821Y32554859D01*
X-95508Y32544546D01*
X-89872Y32538530D01*
X-75861Y32522554D01*
X-69831Y32515127D01*
X-61872Y32504527D01*
X-52521Y32494979D01*
X-28019Y32475767D01*
X-16670Y32465708D01*
X48425Y32400613D01*
X60091Y32387170D01*
X73966Y32368690D01*
X83316Y32359141D01*
X86563Y32356595D01*
X91930Y32352386D01*
X98141Y32347185D01*
X138055Y32311515D01*
X280020Y32184645D01*
X494422Y32032516D01*
X724509Y31905348D01*
X727766Y31903999D01*
X727772Y31903996D01*
X814328Y31868142D01*
X967387Y31804741D01*
X970787Y31803761D01*
X970791Y31803760D01*
X1155823Y31750450D01*
X1220003Y31731959D01*
X1223490Y31731367D01*
X1223492Y31731366D01*
X1475686Y31688512D01*
X1475695Y31688511D01*
X1479179Y31687919D01*
X1657705Y31677890D01*
X1657609Y31676176D01*
X1661638Y31676677D01*
X1661638Y31676880D01*
X1672139Y31676880D01*
X1679203Y31676682D01*
X1686433Y31676276D01*
X1704853Y31675241D01*
X1715536Y31674182D01*
X1724205Y31672948D01*
X1724215Y31672947D01*
X1728292Y31672367D01*
X1734847Y31672298D01*
X1737530Y31672270D01*
X1737533Y31672270D01*
X1741656Y31672227D01*
X1745745Y31672722D01*
X1745749Y31672722D01*
X1772575Y31675968D01*
X1787710Y31676880D01*
X3157789Y31676880D01*
X3175567Y31675620D01*
X3198371Y31672370D01*
X3203625Y31672314D01*
X3207609Y31672271D01*
X3207611Y31672271D01*
X3211735Y31672227D01*
X3235754Y31675129D01*
X3238517Y31675432D01*
X3247105Y31676276D01*
X3259428Y31676880D01*
X4229502Y31676880D01*
X4237746Y31676610D01*
X4263247Y31674938D01*
X4272755Y31673951D01*
X4279801Y31672948D01*
X4279804Y31672948D01*
X4283885Y31672367D01*
X4290446Y31672298D01*
X4293122Y31672270D01*
X4293126Y31672270D01*
X4297249Y31672227D01*
X4301337Y31672722D01*
X4301344Y31672722D01*
X4328169Y31675968D01*
X4343303Y31676880D01*
X4528291Y31676880D01*
X4544738Y31675802D01*
X4564095Y31673253D01*
X4564098Y31673253D01*
X4571625Y31672262D01*
X4589447Y31674229D01*
X4611501Y31674720D01*
X4699316Y31668964D01*
X4746956Y31665841D01*
X4763296Y31663690D01*
X4920963Y31632327D01*
X4936884Y31628061D01*
X5089109Y31576386D01*
X5104327Y31570082D01*
X5227436Y31509369D01*
X5248500Y31498981D01*
X5262772Y31490741D01*
X5396443Y31401424D01*
X5409515Y31391393D01*
X5484283Y31325821D01*
X5506245Y31306560D01*
X5523127Y31288535D01*
X5523963Y31287446D01*
X5523968Y31287441D01*
X5528591Y31281416D01*
X5554740Y31260466D01*
X5556032Y31259431D01*
X5566345Y31250193D01*
X13964157Y22852380D01*
X13998183Y22790068D01*
X14001062Y22763285D01*
X14001062Y22189980D01*
X14001399Y22186734D01*
X14001399Y22186730D01*
X14009644Y22107270D01*
X14012036Y22084214D01*
X14014217Y22077678D01*
X14014217Y22077676D01*
X14043499Y21989908D01*
X14068012Y21916434D01*
X14161084Y21766032D01*
X14166266Y21760859D01*
X14189601Y21737565D01*
X14286259Y21641075D01*
X14292489Y21637235D01*
X14292490Y21637234D01*
X14429652Y21552686D01*
X14436824Y21548265D01*
X14502408Y21526512D01*
X14598173Y21494748D01*
X14598175Y21494748D01*
X14604701Y21492583D01*
X14611537Y21491883D01*
X14611540Y21491882D01*
X14654593Y21487471D01*
X14709162Y21481880D01*
X15334962Y21481880D01*
X15338208Y21482217D01*
X15338212Y21482217D01*
X15433870Y21492142D01*
X15433874Y21492143D01*
X15440728Y21492854D01*
X15447264Y21495035D01*
X15447266Y21495035D01*
X15598155Y21545376D01*
X15608508Y21548830D01*
X15758910Y21641902D01*
X15845346Y21728489D01*
X15907628Y21762568D01*
X15978448Y21757565D01*
X16023537Y21728644D01*
X16061119Y21691128D01*
X16111259Y21641075D01*
X16117490Y21637234D01*
X16117493Y21637232D01*
X16153679Y21614926D01*
X16201172Y21562154D01*
X16213562Y21507667D01*
X16213562Y20583791D01*
X16212483Y20567341D01*
X16208944Y20540466D01*
X16209778Y20532914D01*
X16210288Y20528292D01*
X16210442Y20502115D01*
X16205676Y20453735D01*
X16203249Y20429104D01*
X16198429Y20404878D01*
X16171496Y20316102D01*
X16162043Y20293282D01*
X16118307Y20211465D01*
X16104584Y20190929D01*
X16063912Y20141373D01*
X16048598Y20125714D01*
X16047434Y20124714D01*
X16044130Y20122234D01*
X16039569Y20117767D01*
X16039335Y20117588D01*
X16039151Y20117358D01*
X16034581Y20112883D01*
X16032044Y20109647D01*
X16032042Y20109645D01*
X16029365Y20106230D01*
X16024945Y20100901D01*
X15873682Y19928427D01*
X15871394Y19925002D01*
X15871388Y19924995D01*
X15759049Y19756872D01*
X15737716Y19724946D01*
X15735889Y19721242D01*
X15735887Y19721238D01*
X15716707Y19682346D01*
X15629473Y19505459D01*
X15628149Y19501559D01*
X15628147Y19501554D01*
X15601215Y19422217D01*
X15550806Y19273721D01*
X15550001Y19269674D01*
X15509322Y19065167D01*
X15503062Y19033697D01*
X15502793Y19029590D01*
X15502792Y19029584D01*
X15495849Y18923651D01*
X15494696Y18906045D01*
X15492808Y18877244D01*
X15492668Y18875780D01*
X15491062Y18869526D01*
X15491062Y18854729D01*
X15490792Y18846491D01*
X15489427Y18825658D01*
X15488439Y18816136D01*
X15486549Y18802858D01*
X15486409Y18789494D01*
X15486904Y18785404D01*
X15486904Y18785403D01*
X15490149Y18758590D01*
X15491062Y18743452D01*
X15491062Y18188277D01*
X15471060Y18120156D01*
X15426712Y18079683D01*
X15427132Y18079016D01*
X15423422Y18076679D01*
X15423238Y18076512D01*
X15418169Y18073873D01*
X15414027Y18070763D01*
X15244378Y17943387D01*
X15239527Y17939745D01*
X15085191Y17778242D01*
X15082282Y17773977D01*
X15082276Y17773969D01*
X15064400Y17747763D01*
X14959305Y17593700D01*
X14945209Y17563333D01*
X14874833Y17411719D01*
X14865250Y17391075D01*
X14805551Y17175810D01*
X14781813Y16953685D01*
X14782110Y16948532D01*
X14782110Y16948529D01*
X14794223Y16738455D01*
X14794672Y16730665D01*
X14795809Y16725619D01*
X14795810Y16725613D01*
X14815681Y16637441D01*
X14843784Y16512741D01*
X14895433Y16385544D01*
X14924176Y16314759D01*
X14927828Y16305764D01*
X14969337Y16238028D01*
X15041853Y16119692D01*
X15044549Y16115292D01*
X15190812Y15946442D01*
X15362688Y15803748D01*
X15436007Y15760904D01*
X15436517Y15760606D01*
X15485241Y15708968D01*
X15498312Y15639185D01*
X15471581Y15573413D01*
X15431124Y15540053D01*
X15423019Y15535834D01*
X15414300Y15530344D01*
X15243995Y15402475D01*
X15236288Y15395632D01*
X15089152Y15241663D01*
X15082666Y15233653D01*
X14962660Y15057731D01*
X14957562Y15048757D01*
X14867900Y14855597D01*
X14864337Y14845910D01*
X14808951Y14646197D01*
X14810474Y14637773D01*
X14822854Y14634380D01*
X16272562Y14634380D01*
X16340683Y14614378D01*
X16387176Y14560722D01*
X16398562Y14508380D01*
X16398562Y13061863D01*
X16402626Y13048021D01*
X16416040Y13045987D01*
X16422746Y13046846D01*
X16432824Y13048988D01*
X16636817Y13110189D01*
X16646404Y13113947D01*
X16837657Y13207641D01*
X16846507Y13212916D01*
X17019890Y13336588D01*
X17027762Y13343241D01*
X17178614Y13493568D01*
X17185292Y13501415D01*
X17312584Y13678561D01*
X17313841Y13677658D01*
X17360935Y13721018D01*
X17430873Y13733235D01*
X17496313Y13705702D01*
X17524141Y13673869D01*
X17584549Y13575292D01*
X17730812Y13406442D01*
X17902688Y13263748D01*
X18095562Y13151042D01*
X18304254Y13071350D01*
X18309322Y13070319D01*
X18309325Y13070318D01*
X18404424Y13050970D01*
X18523159Y13026813D01*
X18528334Y13026623D01*
X18528336Y13026623D01*
X18741235Y13018816D01*
X18741239Y13018816D01*
X18746399Y13018627D01*
X18751519Y13019283D01*
X18751521Y13019283D01*
X18962850Y13046355D01*
X18962851Y13046355D01*
X18967978Y13047012D01*
X18972928Y13048497D01*
X19176991Y13109719D01*
X19176996Y13109721D01*
X19181946Y13111206D01*
X19382556Y13209484D01*
X19564422Y13339207D01*
X19722658Y13496891D01*
X19853015Y13678303D01*
X19854338Y13677352D01*
X19901207Y13720523D01*
X19971142Y13732755D01*
X20036588Y13705236D01*
X20064437Y13673386D01*
X20124549Y13575292D01*
X20270812Y13406442D01*
X20442688Y13263748D01*
X20635562Y13151042D01*
X20844254Y13071350D01*
X20849322Y13070319D01*
X20849325Y13070318D01*
X20944424Y13050970D01*
X21063159Y13026813D01*
X21068334Y13026623D01*
X21068336Y13026623D01*
X21281235Y13018816D01*
X21281239Y13018816D01*
X21286399Y13018627D01*
X21291519Y13019283D01*
X21291521Y13019283D01*
X21502850Y13046355D01*
X21502851Y13046355D01*
X21507978Y13047012D01*
X21512928Y13048497D01*
X21716991Y13109719D01*
X21716996Y13109721D01*
X21721946Y13111206D01*
X21922556Y13209484D01*
X22104422Y13339207D01*
X22262658Y13496891D01*
X22393015Y13678303D01*
X22406557Y13705702D01*
X22489698Y13873927D01*
X22489699Y13873929D01*
X22491992Y13878569D01*
X22556932Y14092311D01*
X22586091Y14313790D01*
X22587718Y14380380D01*
X22569414Y14603019D01*
X22514993Y14819678D01*
X22425916Y15024540D01*
X22340865Y15156009D01*
X22307384Y15207763D01*
X22307382Y15207766D01*
X22304576Y15212103D01*
X22154232Y15377329D01*
X22150181Y15380528D01*
X22150177Y15380532D01*
X21982976Y15512580D01*
X21982972Y15512582D01*
X21978921Y15515782D01*
X21937615Y15538584D01*
X21887646Y15589016D01*
X21872874Y15658459D01*
X21897990Y15724864D01*
X21925342Y15751471D01*
X21990789Y15798154D01*
X22104422Y15879207D01*
X22115693Y15890438D01*
X22205016Y15979450D01*
X22262658Y16036891D01*
X22316562Y16111906D01*
X22389997Y16214103D01*
X22393015Y16218303D01*
X22408179Y16248984D01*
X22489698Y16413927D01*
X22489699Y16413929D01*
X22491992Y16418569D01*
X22542034Y16583276D01*
X22555427Y16627357D01*
X22555427Y16627359D01*
X22556932Y16632311D01*
X22586091Y16853790D01*
X22586293Y16862039D01*
X22587636Y16917015D01*
X22587636Y16917019D01*
X22587718Y16920380D01*
X22569414Y17143019D01*
X22514993Y17359678D01*
X22425916Y17564540D01*
X22356550Y17671764D01*
X22307384Y17747763D01*
X22307382Y17747766D01*
X22304576Y17752103D01*
X22154232Y17917329D01*
X22150181Y17920528D01*
X22150177Y17920532D01*
X21982976Y18052580D01*
X21982972Y18052582D01*
X21978921Y18055782D01*
X21783351Y18163742D01*
X21778482Y18165466D01*
X21778478Y18165468D01*
X21577649Y18236585D01*
X21577645Y18236586D01*
X21572774Y18238311D01*
X21567681Y18239218D01*
X21567678Y18239219D01*
X21357935Y18276580D01*
X21357929Y18276581D01*
X21352846Y18277486D01*
X21279014Y18278388D01*
X21134643Y18280152D01*
X21134641Y18280152D01*
X21129473Y18280215D01*
X20908653Y18246425D01*
X20696318Y18177023D01*
X20666005Y18161243D01*
X20503235Y18076510D01*
X20498169Y18073873D01*
X20494036Y18070770D01*
X20494033Y18070768D01*
X20323662Y17942850D01*
X20319527Y17939745D01*
X20165191Y17778242D01*
X20057763Y17620759D01*
X20002855Y17575759D01*
X19932330Y17567588D01*
X19868583Y17598842D01*
X19847886Y17623326D01*
X19767384Y17747763D01*
X19767382Y17747766D01*
X19764576Y17752103D01*
X19614232Y17917329D01*
X19610181Y17920528D01*
X19610177Y17920532D01*
X19442976Y18052580D01*
X19442972Y18052582D01*
X19438921Y18055782D01*
X19243351Y18163742D01*
X19238482Y18165466D01*
X19238478Y18165468D01*
X19037649Y18236585D01*
X19037645Y18236586D01*
X19032774Y18238311D01*
X19027681Y18239218D01*
X19027678Y18239219D01*
X18817935Y18276580D01*
X18817929Y18276581D01*
X18812846Y18277486D01*
X18739014Y18278388D01*
X18594643Y18280152D01*
X18594641Y18280152D01*
X18589473Y18280215D01*
X18368653Y18246425D01*
X18156318Y18177023D01*
X18126005Y18161243D01*
X17963235Y18076510D01*
X17958169Y18073873D01*
X17954036Y18070770D01*
X17954033Y18070768D01*
X17783662Y17942850D01*
X17779527Y17939745D01*
X17625191Y17778242D01*
X17517763Y17620759D01*
X17462855Y17575759D01*
X17392330Y17567588D01*
X17328583Y17598842D01*
X17307886Y17623326D01*
X17227384Y17747763D01*
X17227382Y17747766D01*
X17224576Y17752103D01*
X17074232Y17917329D01*
X17070181Y17920528D01*
X17070177Y17920532D01*
X16902976Y18052580D01*
X16902972Y18052582D01*
X16898921Y18055782D01*
X16823169Y18097599D01*
X16773198Y18148032D01*
X16758062Y18207908D01*
X16758062Y18739479D01*
X16759140Y18755925D01*
X16761689Y18775284D01*
X16761689Y18775288D01*
X16762680Y18782815D01*
X16761336Y18794990D01*
X16761181Y18821174D01*
X16761548Y18824893D01*
X16768372Y18894176D01*
X16773190Y18918400D01*
X16800124Y19007187D01*
X16809574Y19029999D01*
X16853309Y19111817D01*
X16867032Y19132354D01*
X16907615Y19181803D01*
X16922936Y19197468D01*
X16924190Y19198545D01*
X16927490Y19201022D01*
X16932060Y19205497D01*
X16932293Y19205676D01*
X16932477Y19205905D01*
X16937039Y19210373D01*
X16939579Y19213612D01*
X16942512Y19217352D01*
X16946932Y19222680D01*
X17095203Y19391740D01*
X17097922Y19394840D01*
X17233890Y19598315D01*
X17342135Y19817797D01*
X17401750Y19993400D01*
X17419480Y20045626D01*
X17419481Y20045631D01*
X17420805Y20049530D01*
X17432765Y20109645D01*
X17467751Y20285507D01*
X17467751Y20285509D01*
X17468555Y20289549D01*
X17469518Y20304226D01*
X17478814Y20446006D01*
X17478955Y20447478D01*
X17480562Y20453735D01*
X17480562Y20468533D01*
X17480832Y20476778D01*
X17482197Y20497592D01*
X17483185Y20507106D01*
X17484493Y20516291D01*
X17484494Y20516300D01*
X17485075Y20520383D01*
X17485215Y20533747D01*
X17483491Y20548001D01*
X17481474Y20564667D01*
X17480562Y20579801D01*
X17480562Y21507746D01*
X17500564Y21575867D01*
X17540259Y21614890D01*
X17545363Y21618048D01*
X17583910Y21641902D01*
X17638653Y21696740D01*
X17703696Y21761897D01*
X17708867Y21767077D01*
X17732908Y21806079D01*
X17797837Y21911412D01*
X17797838Y21911414D01*
X17801677Y21917642D01*
X17812591Y21950547D01*
X17853021Y22008907D01*
X17918585Y22036144D01*
X17932184Y22036880D01*
X20140365Y22036880D01*
X20208486Y22016878D01*
X20254979Y21963222D01*
X20259888Y21950757D01*
X20269013Y21923408D01*
X20278012Y21896434D01*
X20281863Y21890210D01*
X20281864Y21890209D01*
X20307176Y21849305D01*
X20371084Y21746032D01*
X20496259Y21621075D01*
X20502489Y21617235D01*
X20502490Y21617234D01*
X20639652Y21532686D01*
X20646824Y21528265D01*
X20714099Y21505951D01*
X20808173Y21474748D01*
X20808175Y21474748D01*
X20814701Y21472583D01*
X20821537Y21471883D01*
X20821540Y21471882D01*
X20864593Y21467471D01*
X20919162Y21461880D01*
X21544962Y21461880D01*
X21548208Y21462217D01*
X21548212Y21462217D01*
X21643870Y21472142D01*
X21643874Y21472143D01*
X21650728Y21472854D01*
X21657264Y21475035D01*
X21657266Y21475035D01*
X21797011Y21521658D01*
X21818508Y21528830D01*
X21968910Y21621902D01*
X22055346Y21708489D01*
X22117628Y21742568D01*
X22188448Y21737565D01*
X22233537Y21708644D01*
X22261496Y21680734D01*
X22321259Y21621075D01*
X22327489Y21617235D01*
X22327490Y21617234D01*
X22464652Y21532686D01*
X22471824Y21528265D01*
X22539099Y21505951D01*
X22633173Y21474748D01*
X22633175Y21474748D01*
X22639701Y21472583D01*
X22646537Y21471883D01*
X22646540Y21471882D01*
X22689593Y21467471D01*
X22744162Y21461880D01*
X23369962Y21461880D01*
X23373208Y21462217D01*
X23373212Y21462217D01*
X23468870Y21472142D01*
X23468874Y21472143D01*
X23475728Y21472854D01*
X23482264Y21475035D01*
X23482266Y21475035D01*
X23622011Y21521658D01*
X23643508Y21528830D01*
X23793910Y21621902D01*
X23918867Y21747077D01*
X23925332Y21757565D01*
X24007837Y21891412D01*
X24007838Y21891414D01*
X24011677Y21897642D01*
X24060157Y22043805D01*
X24065194Y22058991D01*
X24065194Y22058993D01*
X24067359Y22065519D01*
X24069275Y22084214D01*
X24075993Y22149790D01*
X24078062Y22169980D01*
X24078062Y23170780D01*
X24069974Y23248733D01*
X24067800Y23269688D01*
X24067799Y23269692D01*
X24067088Y23276546D01*
X24051296Y23323882D01*
X24013430Y23437378D01*
X24011112Y23444326D01*
X23918040Y23594728D01*
X23893635Y23619091D01*
X23798045Y23714514D01*
X23792865Y23719685D01*
X23768926Y23734441D01*
X23721431Y23787213D01*
X23710007Y23857284D01*
X23711462Y23866286D01*
X23745188Y24035822D01*
X23749453Y24051741D01*
X23813564Y24240599D01*
X23819872Y24255826D01*
X23908083Y24434695D01*
X23916324Y24448968D01*
X23963877Y24520133D01*
X24027125Y24614788D01*
X24037158Y24627863D01*
X24147504Y24753687D01*
X24165540Y24770578D01*
X24166621Y24771407D01*
X24166623Y24771409D01*
X24172647Y24776031D01*
X24194633Y24803473D01*
X24203869Y24813784D01*
X28284319Y28894235D01*
X28297764Y28905903D01*
X28298848Y28906717D01*
X28316241Y28919775D01*
X28320819Y28924257D01*
X28321049Y28924434D01*
X28321230Y28924660D01*
X28325790Y28929125D01*
X28328335Y28932371D01*
X28328922Y28933026D01*
X28332007Y28936745D01*
X28344031Y28950455D01*
X28354790Y28961313D01*
X28541169Y29127869D01*
X28552214Y29136677D01*
X28785626Y29302288D01*
X28797581Y29309800D01*
X28952794Y29395580D01*
X29048075Y29448238D01*
X29060805Y29454368D01*
X29325211Y29563886D01*
X29338548Y29568553D01*
X29613562Y29647779D01*
X29627338Y29650923D01*
X29740444Y29670139D01*
X29909496Y29698860D01*
X29923521Y29700440D01*
X30171576Y29714366D01*
X30196387Y29713307D01*
X30202994Y29712367D01*
X30209367Y29712300D01*
X30209657Y29712262D01*
X30209948Y29712294D01*
X30216358Y29712227D01*
X30220447Y29712722D01*
X30220449Y29712722D01*
X30247260Y29715967D01*
X30262399Y29716880D01*
X31527778Y29716880D01*
X31595899Y29696878D01*
X31642392Y29643222D01*
X31650939Y29617477D01*
X31651235Y29616108D01*
X31651946Y29609251D01*
X31707460Y29442854D01*
X31799765Y29293691D01*
X31923909Y29169763D01*
X32073233Y29077719D01*
X32080181Y29075414D01*
X32080182Y29075414D01*
X32233196Y29024661D01*
X32233198Y29024661D01*
X32239727Y29022495D01*
X32343331Y29011880D01*
X32634796Y29011880D01*
X32930792Y29011881D01*
X33035691Y29022764D01*
X33042222Y29024943D01*
X33042227Y29024944D01*
X33195140Y29075960D01*
X33202088Y29078278D01*
X33351251Y29170583D01*
X33475179Y29294727D01*
X33477176Y29297967D01*
X33533914Y29338194D01*
X33604837Y29341427D01*
X33666249Y29305802D01*
X33673628Y29297302D01*
X33680344Y29288828D01*
X33794041Y29175329D01*
X33805452Y29166317D01*
X33942216Y29082015D01*
X33955394Y29075871D01*
X34108302Y29025153D01*
X34121668Y29022287D01*
X34215163Y29012708D01*
X34221578Y29012380D01*
X34239947Y29012380D01*
X34255186Y29016855D01*
X34256391Y29018245D01*
X34258062Y29025928D01*
X34258062Y29030496D01*
X34766062Y29030496D01*
X34770537Y29015257D01*
X34771927Y29014052D01*
X34779610Y29012381D01*
X34802495Y29012381D01*
X34809014Y29012718D01*
X34903732Y29022546D01*
X34917126Y29025438D01*
X35069927Y29076416D01*
X35083105Y29082590D01*
X35219711Y29167124D01*
X35231112Y29176160D01*
X35344613Y29289859D01*
X35353625Y29301270D01*
X35437927Y29438034D01*
X35444071Y29451212D01*
X35494789Y29604120D01*
X35497655Y29617486D01*
X35507234Y29710981D01*
X35507562Y29717396D01*
X35507562Y29948265D01*
X35503087Y29963504D01*
X35501697Y29964709D01*
X35494014Y29966380D01*
X34784177Y29966380D01*
X34768938Y29961905D01*
X34767733Y29960515D01*
X34766062Y29952832D01*
X34766062Y29030496D01*
X34258062Y29030496D01*
X34258062Y30329065D01*
X34278064Y30397186D01*
X34331720Y30443679D01*
X34381684Y30455043D01*
X34664562Y30460380D01*
X34678492Y30468506D01*
X34682739Y30469697D01*
X34716770Y30474380D01*
X35489446Y30474380D01*
X35504685Y30478855D01*
X35505890Y30480245D01*
X35507561Y30487928D01*
X35507561Y30723313D01*
X35507224Y30729832D01*
X35497396Y30824550D01*
X35494504Y30837944D01*
X35443526Y30990745D01*
X35437352Y31003923D01*
X35352818Y31140529D01*
X35343782Y31151930D01*
X35304675Y31190969D01*
X35270596Y31253252D01*
X35275599Y31324072D01*
X35282754Y31339879D01*
X35648595Y32019298D01*
X35662604Y32040063D01*
X36137423Y32611784D01*
X36153099Y32627583D01*
X36432121Y32863008D01*
X36497084Y32891649D01*
X36506953Y32892543D01*
X36964509Y32915888D01*
X37422063Y32939232D01*
X37466066Y32933660D01*
X37586946Y32895885D01*
X37619856Y32880056D01*
X37803618Y32756017D01*
X37924241Y32674597D01*
X38004562Y32620380D01*
X38020126Y32618824D01*
X38020128Y32618823D01*
X38175698Y32603266D01*
X38304562Y32590380D01*
X38316303Y32593859D01*
X38316305Y32593859D01*
X38566774Y32668072D01*
X38566777Y32668073D01*
X38574562Y32670380D01*
X38854562Y32840380D01*
X39154562Y33060380D01*
X39444562Y33400380D01*
X40294621Y35724331D01*
X40680758Y36779980D01*
X40680758Y36779981D01*
X40684562Y36790380D01*
X40684562Y37210380D01*
X40679457Y37297175D01*
X40666723Y37513649D01*
X40664562Y37550380D01*
X40474562Y37830380D01*
X40458962Y37837580D01*
X40458961Y37837581D01*
X40278195Y37921011D01*
X40214562Y37950380D01*
X40197789Y37948703D01*
X40197787Y37948703D01*
X40053252Y37934249D01*
X39914562Y37920380D01*
X39908505Y37918500D01*
X39908499Y37918499D01*
X38870522Y37596368D01*
X38799534Y37595280D01*
X38739227Y37632744D01*
X38714304Y37674928D01*
X38657038Y37837872D01*
X38085943Y39462842D01*
X37785265Y40318380D01*
X37785264Y40318383D01*
X37784562Y40320380D01*
X37770769Y40352565D01*
X37671651Y40583839D01*
X37664562Y40600380D01*
X37444562Y40750380D01*
X37428549Y40751836D01*
X37428548Y40751836D01*
X37237776Y40769179D01*
X37237775Y40769179D01*
X37224562Y40770380D01*
X37212004Y40766092D01*
X36820837Y40632523D01*
X36820834Y40632522D01*
X36814562Y40630380D01*
X36808876Y40626976D01*
X36808874Y40626975D01*
X35423521Y39797586D01*
X35354800Y39779756D01*
X35287348Y39801911D01*
X35241054Y39860838D01*
X35238495Y39867557D01*
X35087855Y40262986D01*
X35082296Y40333764D01*
X35115885Y40396312D01*
X35139296Y40414985D01*
X35239714Y40477127D01*
X35251112Y40486160D01*
X35364613Y40599859D01*
X35373625Y40611270D01*
X35457927Y40748034D01*
X35464071Y40761212D01*
X35514789Y40914120D01*
X35517655Y40927486D01*
X35527234Y41020981D01*
X35527562Y41027396D01*
X35527562Y41258265D01*
X35523087Y41273504D01*
X35521697Y41274709D01*
X35514014Y41276380D01*
X34674146Y41276380D01*
X34606025Y41296382D01*
X34562625Y41343736D01*
X34483849Y41493540D01*
X34364562Y41720380D01*
X34345418Y41738710D01*
X34316924Y41765991D01*
X34295949Y41802495D01*
X34786062Y41802495D01*
X34790537Y41787256D01*
X34791927Y41786051D01*
X34799610Y41784380D01*
X35509446Y41784380D01*
X35524685Y41788855D01*
X35525890Y41790245D01*
X35527561Y41797928D01*
X35527561Y42033313D01*
X35527224Y42039832D01*
X35517396Y42134550D01*
X35514504Y42147944D01*
X35463526Y42300745D01*
X35457352Y42313923D01*
X35372818Y42450529D01*
X35363782Y42461930D01*
X35250083Y42575431D01*
X35238672Y42584443D01*
X35101908Y42668745D01*
X35088730Y42674889D01*
X34935822Y42725607D01*
X34922456Y42728473D01*
X34828961Y42738052D01*
X34822546Y42738380D01*
X34804177Y42738380D01*
X34788938Y42733905D01*
X34787733Y42732515D01*
X34786062Y42724832D01*
X34786062Y41802495D01*
X34295949Y41802495D01*
X34281553Y41827549D01*
X34278062Y41857002D01*
X34278062Y42720264D01*
X34273587Y42735503D01*
X34272197Y42736708D01*
X34264514Y42738379D01*
X34241629Y42738379D01*
X34235110Y42738042D01*
X34140392Y42728214D01*
X34126998Y42725322D01*
X33974197Y42674344D01*
X33961019Y42668170D01*
X33824413Y42583636D01*
X33813012Y42574600D01*
X33699511Y42460901D01*
X33693768Y42453629D01*
X33635851Y42412566D01*
X33564928Y42409334D01*
X33503516Y42444959D01*
X33497722Y42451634D01*
X33494359Y42457069D01*
X33370215Y42580997D01*
X33220891Y42673041D01*
X33213942Y42675346D01*
X33060928Y42726099D01*
X33060926Y42726099D01*
X33054397Y42728265D01*
X32950793Y42738880D01*
X32659328Y42738880D01*
X32363332Y42738879D01*
X32258433Y42727996D01*
X32251902Y42725817D01*
X32251897Y42725816D01*
X32108920Y42678115D01*
X32092036Y42672482D01*
X31942873Y42580177D01*
X31818945Y42456033D01*
X31815105Y42449803D01*
X31815104Y42449802D01*
X31803648Y42431216D01*
X31726901Y42306709D01*
X31724596Y42299761D01*
X31724596Y42299760D01*
X31674241Y42147944D01*
X31671677Y42140215D01*
X31661062Y42036611D01*
X31661062Y41584976D01*
X31641060Y41516855D01*
X31624157Y41495881D01*
X30275593Y40147317D01*
X30262162Y40135660D01*
X30243661Y40121768D01*
X30240714Y40118882D01*
X30240713Y40118881D01*
X30237060Y40115304D01*
X30237054Y40115297D01*
X30234113Y40112417D01*
X30217580Y40091328D01*
X30216460Y40089900D01*
X30213122Y40085822D01*
X30124632Y39982203D01*
X30035806Y39837238D01*
X29970751Y39680162D01*
X29931070Y39514843D01*
X29930683Y39509918D01*
X29930682Y39509914D01*
X29927710Y39472131D01*
X29902427Y39405788D01*
X29891193Y39392917D01*
X29826990Y39328714D01*
X29814605Y39317852D01*
X29793086Y39301341D01*
X29786775Y39293464D01*
X29785348Y39291684D01*
X29766953Y39273073D01*
X29734251Y39246236D01*
X29713717Y39232516D01*
X29659188Y39203372D01*
X29636372Y39193921D01*
X29593152Y39180812D01*
X29577201Y39175974D01*
X29552976Y39171156D01*
X29517401Y39167653D01*
X29500907Y39167923D01*
X29500902Y39167427D01*
X29493309Y39167506D01*
X29485776Y39168498D01*
X29450836Y39164641D01*
X29437011Y39163880D01*
X29024145Y39163880D01*
X29006394Y39165137D01*
X29004099Y39165464D01*
X28983513Y39168393D01*
X28976993Y39168461D01*
X28974279Y39168490D01*
X28974275Y39168490D01*
X28970149Y39168533D01*
X28966048Y39168037D01*
X28964159Y39167933D01*
X28959952Y39167561D01*
X28829984Y39160259D01*
X28667472Y39151129D01*
X28463935Y39116543D01*
X28372090Y39100936D01*
X28372088Y39100936D01*
X28368601Y39100343D01*
X28365203Y39099364D01*
X28080700Y39017395D01*
X28080696Y39017394D01*
X28077296Y39016414D01*
X28074030Y39015061D01*
X28074024Y39015059D01*
X27963757Y38969382D01*
X27797220Y38900396D01*
X27794127Y38898686D01*
X27794124Y38898685D01*
X27724820Y38860380D01*
X27531895Y38753749D01*
X27529019Y38751708D01*
X27529017Y38751707D01*
X27287545Y38580367D01*
X27287540Y38580363D01*
X27284658Y38578318D01*
X27271440Y38566505D01*
X27081650Y38396892D01*
X27073380Y38390110D01*
X27072611Y38389532D01*
X27067859Y38385964D01*
X27058311Y38376613D01*
X27055766Y38373367D01*
X27054253Y38371678D01*
X27052027Y38369020D01*
X27019267Y38332360D01*
X26856573Y38150298D01*
X26681149Y37903052D01*
X26534511Y37637720D01*
X26418502Y37357638D01*
X26334581Y37066329D01*
X26333991Y37062857D01*
X26333990Y37062852D01*
X26325764Y37014433D01*
X26283804Y36767455D01*
X26271371Y36546013D01*
X26270007Y36546090D01*
X26270166Y36544811D01*
X26271062Y36544811D01*
X26271062Y36544055D01*
X26270962Y36540501D01*
X26271061Y36540495D01*
X26270694Y36533967D01*
X26270694Y36533965D01*
X26268519Y36495232D01*
X26267461Y36484549D01*
X26266549Y36478139D01*
X26266506Y36474016D01*
X26266453Y36468939D01*
X26266409Y36464775D01*
X26266906Y36460668D01*
X26270149Y36433871D01*
X26271062Y36418733D01*
X26271062Y33716157D01*
X26269805Y33698407D01*
X26266549Y33675526D01*
X26266409Y33662162D01*
X26266905Y33658065D01*
X26266905Y33658063D01*
X26267227Y33655405D01*
X26268019Y33645766D01*
X26282334Y33317981D01*
X26297869Y33199988D01*
X26324673Y32996414D01*
X26327305Y32976420D01*
X26401874Y32640078D01*
X26402696Y32637470D01*
X26402699Y32637460D01*
X26504645Y32314143D01*
X26505474Y32311515D01*
X26637317Y31993232D01*
X26796398Y31687651D01*
X26797868Y31685343D01*
X26797873Y31685335D01*
X26874961Y31564336D01*
X26981507Y31397097D01*
X26983181Y31394916D01*
X26983182Y31394914D01*
X27189567Y31125956D01*
X27189573Y31125948D01*
X27191235Y31123783D01*
X27401361Y30894479D01*
X27409222Y30885010D01*
X27413977Y30878678D01*
X27418445Y30874116D01*
X27418623Y30873884D01*
X27418851Y30873701D01*
X27423328Y30869130D01*
X27428237Y30865281D01*
X27435599Y30859037D01*
X27437212Y30857559D01*
X27449486Y30844597D01*
X27467335Y30822848D01*
X27510577Y30770158D01*
X27524300Y30749620D01*
X27580826Y30643867D01*
X27590276Y30621054D01*
X27600243Y30588198D01*
X27625086Y30506301D01*
X27629904Y30482076D01*
X27630221Y30478855D01*
X27641657Y30362739D01*
X27641657Y30338047D01*
X27631722Y30237191D01*
X27629902Y30218710D01*
X27625084Y30194488D01*
X27590272Y30079734D01*
X27580823Y30056923D01*
X27524286Y29951157D01*
X27510574Y29930637D01*
X27452795Y29860236D01*
X27437481Y29844580D01*
X27436167Y29843452D01*
X27432872Y29840978D01*
X27428317Y29836518D01*
X27428083Y29836338D01*
X27427898Y29836107D01*
X27423323Y29831627D01*
X27404109Y29807123D01*
X27394051Y29795776D01*
X23316395Y25718119D01*
X23302952Y25706453D01*
X23284473Y25692579D01*
X23281530Y25689697D01*
X23281523Y25689691D01*
X23277871Y25686114D01*
X23274924Y25683228D01*
X23272387Y25679992D01*
X23272375Y25679979D01*
X23267893Y25674262D01*
X23262098Y25667390D01*
X23083187Y25469997D01*
X22912397Y25239720D01*
X22765001Y24993810D01*
X22763685Y24991028D01*
X22763683Y24991024D01*
X22733432Y24927066D01*
X22642417Y24734638D01*
X22641375Y24731726D01*
X22562172Y24510376D01*
X22545827Y24464698D01*
X22476161Y24186590D01*
X22434089Y23902993D01*
X22433938Y23899917D01*
X22433937Y23899908D01*
X22431578Y23851886D01*
X22408257Y23784829D01*
X22372035Y23750926D01*
X22320214Y23718858D01*
X22315041Y23713676D01*
X22233778Y23632271D01*
X22171496Y23598192D01*
X22100676Y23603195D01*
X22055587Y23632116D01*
X21973045Y23714514D01*
X21967865Y23719685D01*
X21945168Y23733676D01*
X21823530Y23808655D01*
X21823528Y23808656D01*
X21817300Y23812495D01*
X21656816Y23865725D01*
X21655951Y23866012D01*
X21655949Y23866012D01*
X21649423Y23868177D01*
X21642587Y23868877D01*
X21642584Y23868878D01*
X21599531Y23873289D01*
X21544962Y23878880D01*
X20919162Y23878880D01*
X20915916Y23878543D01*
X20915912Y23878543D01*
X20820254Y23868618D01*
X20820250Y23868617D01*
X20813396Y23867906D01*
X20806860Y23865725D01*
X20806858Y23865725D01*
X20705563Y23831930D01*
X20645616Y23811930D01*
X20495214Y23718858D01*
X20370257Y23593683D01*
X20366417Y23587453D01*
X20366416Y23587452D01*
X20286368Y23457590D01*
X20277447Y23443118D01*
X20274358Y23433804D01*
X20259899Y23390212D01*
X20219468Y23331853D01*
X20153904Y23304616D01*
X20140306Y23303880D01*
X17945432Y23303880D01*
X17877311Y23323882D01*
X17830818Y23377538D01*
X17825909Y23390003D01*
X17803432Y23457373D01*
X17803431Y23457375D01*
X17801112Y23464326D01*
X17708040Y23614728D01*
X17582865Y23739685D01*
X17571905Y23746441D01*
X17438530Y23828655D01*
X17438528Y23828656D01*
X17432300Y23832495D01*
X17325539Y23867906D01*
X17270951Y23886012D01*
X17270949Y23886012D01*
X17264423Y23888177D01*
X17257587Y23888877D01*
X17257584Y23888878D01*
X17214531Y23893289D01*
X17159962Y23898880D01*
X16534162Y23898880D01*
X16530916Y23898543D01*
X16530912Y23898543D01*
X16435254Y23888618D01*
X16435250Y23888617D01*
X16428396Y23887906D01*
X16421860Y23885725D01*
X16421858Y23885725D01*
X16292625Y23842609D01*
X16260616Y23831930D01*
X16110214Y23738858D01*
X16105041Y23733676D01*
X16023778Y23652271D01*
X15961496Y23618192D01*
X15890676Y23623195D01*
X15845587Y23652116D01*
X15763045Y23734514D01*
X15757865Y23739685D01*
X15746905Y23746441D01*
X15613530Y23828655D01*
X15613528Y23828656D01*
X15607300Y23832495D01*
X15500539Y23867906D01*
X15445951Y23886012D01*
X15445949Y23886012D01*
X15439423Y23888177D01*
X15432587Y23888877D01*
X15432584Y23888878D01*
X15389531Y23893289D01*
X15334962Y23898880D01*
X14761656Y23898880D01*
X14693535Y23918882D01*
X14672561Y23935785D01*
X6470677Y32137670D01*
X6459011Y32151114D01*
X6447620Y32166286D01*
X6447613Y32166294D01*
X6445140Y32169588D01*
X6440543Y32174283D01*
X6438682Y32176184D01*
X6438678Y32176188D01*
X6435790Y32179137D01*
X6432537Y32181688D01*
X6432473Y32181745D01*
X6426386Y32186842D01*
X6286882Y32311515D01*
X6215816Y32375025D01*
X5975617Y32545459D01*
X5717846Y32687928D01*
X5445745Y32800639D01*
X5343195Y32830184D01*
X5166133Y32881197D01*
X5166128Y32881198D01*
X5162734Y32882176D01*
X5159252Y32882768D01*
X5159246Y32882769D01*
X5154610Y32883557D01*
X5090803Y32914690D01*
X5053958Y32975377D01*
X5055771Y33046350D01*
X5095667Y33105077D01*
X5162718Y33133103D01*
X5253732Y33142546D01*
X5267126Y33145438D01*
X5337136Y33168795D01*
X5408085Y33171379D01*
X5469169Y33135195D01*
X5476603Y33126457D01*
X5504562Y33090380D01*
X6144562Y33100380D01*
X6152160Y33102445D01*
X6152162Y33102445D01*
X7049383Y33346255D01*
X7049384Y33346256D01*
X7064562Y33350380D01*
X7504562Y33770380D01*
X7524762Y33807565D01*
X7791575Y34298744D01*
X7938236Y34568735D01*
X7953172Y34590454D01*
X7979647Y34621429D01*
X8558802Y35299041D01*
X8931981Y35735660D01*
X8960983Y35760643D01*
X9478876Y36084326D01*
X9534741Y36103004D01*
X9954700Y36139522D01*
X9954703Y36139523D01*
X9964562Y36140380D01*
X9973675Y36144236D01*
X9973677Y36144236D01*
X10207880Y36243322D01*
X10207881Y36243322D01*
X10224562Y36250380D01*
X10289433Y36396339D01*
X10338498Y36506735D01*
X10338498Y36506737D01*
X10344562Y36520380D01*
X10314562Y37080380D01*
X10234562Y37900380D01*
X10054562Y38690380D01*
X10052030Y38696767D01*
X9831240Y39253540D01*
X9824562Y39270380D01*
X9686702Y39353096D01*
X9638581Y39405294D01*
X9625541Y39462842D01*
X9627865Y39634767D01*
X9634562Y40130380D01*
X9536409Y40942373D01*
X9525581Y41031951D01*
X9525581Y41031952D01*
X9524562Y41040380D01*
X9268495Y41664544D01*
X9207213Y41813919D01*
X9207212Y41813921D01*
X9204562Y41820380D01*
X8868996Y42299760D01*
X8717106Y42516746D01*
X8717105Y42516748D01*
X8714562Y42520380D01*
X8144562Y43130380D01*
X7474562Y43650380D01*
X7469795Y43652914D01*
X7469791Y43652917D01*
X7192494Y43800341D01*
X7141735Y43849980D01*
X7126315Y43898592D01*
X7117396Y43984550D01*
X7114504Y43997944D01*
X7063526Y44150745D01*
X7057352Y44163923D01*
X6972818Y44300529D01*
X6963782Y44311930D01*
X6850083Y44425431D01*
X6838672Y44434443D01*
X6701908Y44518745D01*
X6688730Y44524889D01*
X6535822Y44575607D01*
X6522456Y44578473D01*
X6428961Y44588052D01*
X6422546Y44588380D01*
X6404177Y44588380D01*
X6388938Y44583905D01*
X6387733Y44582515D01*
X6386062Y44574832D01*
X6386062Y44315474D01*
X6366060Y44247353D01*
X6312404Y44200860D01*
X6279753Y44195363D01*
X6280384Y44192095D01*
X6262597Y44188662D01*
X6244562Y44190380D01*
X6235507Y44174534D01*
X6235506Y44174533D01*
X6113461Y43960954D01*
X6062297Y43911732D01*
X5992644Y43897985D01*
X5926616Y43924078D01*
X5885177Y43981727D01*
X5878062Y44023467D01*
X5878062Y44570264D01*
X5873587Y44585503D01*
X5872197Y44586708D01*
X5864514Y44588379D01*
X5841629Y44588379D01*
X5835110Y44588042D01*
X5740392Y44578214D01*
X5726998Y44575322D01*
X5574197Y44524344D01*
X5561019Y44518170D01*
X5424413Y44433636D01*
X5413012Y44424600D01*
X5299511Y44310901D01*
X5293768Y44303629D01*
X5235851Y44262566D01*
X5164928Y44259334D01*
X5103516Y44294959D01*
X5097722Y44301634D01*
X5094359Y44307069D01*
X4970215Y44430997D01*
X4922111Y44460649D01*
X4889885Y44480513D01*
X4842392Y44533285D01*
X4834926Y44552890D01*
X4769385Y44780375D01*
X4769383Y44780379D01*
X4768404Y44783779D01*
X4672297Y45015794D01*
X4670586Y45018890D01*
X4552526Y45232500D01*
X4552524Y45232502D01*
X4550818Y45235590D01*
X4405494Y45440403D01*
X4403143Y45443034D01*
X4403138Y45443040D01*
X4294841Y45564223D01*
X4296182Y45565422D01*
X4292349Y45568437D01*
X4292261Y45568585D01*
X4282373Y45578473D01*
X4277517Y45583609D01*
X4264233Y45598474D01*
X4257423Y45606781D01*
X4250786Y45615620D01*
X4248311Y45618917D01*
X4238961Y45628466D01*
X4214448Y45647686D01*
X4203106Y45657740D01*
X4152844Y45708002D01*
X4141178Y45721446D01*
X4129786Y45736619D01*
X4129781Y45736625D01*
X4127301Y45739928D01*
X4117950Y45749477D01*
X4114710Y45752017D01*
X4114698Y45752028D01*
X4113663Y45752840D01*
X4107456Y45758037D01*
X4085247Y45777884D01*
X3903722Y45940103D01*
X3786599Y46023204D01*
X3672763Y46103974D01*
X3672755Y46103979D01*
X3669877Y46106021D01*
X3603964Y46142449D01*
X3422023Y46243002D01*
X3422014Y46243006D01*
X3418926Y46244713D01*
X3288611Y46298689D01*
X3157295Y46353080D01*
X3157291Y46353081D01*
X3154023Y46354435D01*
X3150619Y46355416D01*
X3150615Y46355417D01*
X2881900Y46432828D01*
X2881897Y46432829D01*
X2878501Y46433807D01*
X2595825Y46481831D01*
X2391942Y46493277D01*
X2392026Y46494777D01*
X2389592Y46494477D01*
X2389592Y46493880D01*
X2381667Y46493880D01*
X2380795Y46493990D01*
X2377666Y46494078D01*
X2364163Y46494836D01*
X2342682Y46496042D01*
X2332007Y46497099D01*
X2322913Y46498393D01*
X2316698Y46498458D01*
X2313683Y46498490D01*
X2313678Y46498490D01*
X2309549Y46498533D01*
X2283522Y46495383D01*
X2281847Y46495180D01*
X2279004Y46494836D01*
X2246112Y46495180D01*
X2227619Y46497812D01*
X2227614Y46497812D01*
X2223534Y46498393D01*
X2217319Y46498458D01*
X2214304Y46498490D01*
X2214299Y46498490D01*
X2210170Y46498533D01*
X2198778Y46497154D01*
X2198644Y46497138D01*
X2190571Y46496423D01*
X1950805Y46482955D01*
X1694702Y46439439D01*
X1691307Y46438461D01*
X1691303Y46438460D01*
X1592201Y46409908D01*
X1445081Y46367522D01*
X1205082Y46268108D01*
X977723Y46142449D01*
X765862Y45992125D01*
X635147Y45875309D01*
X633982Y45876612D01*
X631252Y45873120D01*
X631324Y45873048D01*
X622959Y45864683D01*
X617841Y45859843D01*
X600293Y45844161D01*
X592016Y45837376D01*
X580991Y45829098D01*
X571442Y45819747D01*
X560001Y45805155D01*
X552232Y45795247D01*
X542172Y45783896D01*
X218846Y45460571D01*
X205406Y45448908D01*
X190220Y45437506D01*
X190216Y45437502D01*
X186923Y45435030D01*
X183982Y45432150D01*
X183975Y45432144D01*
X180325Y45428569D01*
X177374Y45425679D01*
X174829Y45422433D01*
X174828Y45422432D01*
X165157Y45410097D01*
X159953Y45403883D01*
X51910Y45282979D01*
X30357Y45258861D01*
X28318Y45255987D01*
X-77671Y45106604D01*
X-98258Y45077589D01*
X-99966Y45074499D01*
X-99967Y45074497D01*
X-192323Y44907388D01*
X-205770Y44883057D01*
X-207114Y44879813D01*
X-207117Y44879806D01*
X-245535Y44787052D01*
X-290824Y44677710D01*
X-352353Y44464132D01*
X-352944Y44460653D01*
X-352945Y44460649D01*
X-379652Y44303457D01*
X-389583Y44245008D01*
X-393773Y44170380D01*
X-396995Y44113010D01*
X-397322Y44109419D01*
X-398938Y44103125D01*
X-398938Y44081951D01*
X-399136Y44074887D01*
X-399587Y44066855D01*
X-400646Y44056171D01*
X-403451Y44036457D01*
X-403591Y44023093D01*
X-403094Y44018986D01*
X-399851Y43992189D01*
X-398938Y43977051D01*
X-398938Y43440069D01*
X-418940Y43371948D01*
X-472596Y43325455D01*
X-542870Y43315351D01*
X-582382Y43327926D01*
X-793388Y43436012D01*
X-794351Y43436510D01*
X-1060008Y43575699D01*
X-1061373Y43576425D01*
X-1323445Y43717861D01*
X-1325136Y43718791D01*
X-1559556Y43849980D01*
X-1583176Y43863198D01*
X-1585171Y43864339D01*
X-1838838Y44012483D01*
X-1841090Y44013831D01*
X-2089891Y44166375D01*
X-2092436Y44167978D01*
X-2336017Y44325640D01*
X-2338868Y44327543D01*
X-2573580Y44488776D01*
X-2577916Y44491891D01*
X-2596945Y44506186D01*
X-2603663Y44511233D01*
X-2612791Y44518788D01*
X-2772338Y44664043D01*
X-2778289Y44669832D01*
X-2930293Y44827772D01*
X-2937625Y44836094D01*
X-2976019Y44883748D01*
X-2991064Y44907388D01*
X-3054332Y45036596D01*
X-3062882Y45059414D01*
X-3112762Y45245683D01*
X-3114784Y45254489D01*
X-3145735Y45415492D01*
X-3146688Y45457422D01*
X-3129404Y45576206D01*
X-3127042Y45588272D01*
X-3089282Y45741172D01*
X-3087562Y45746825D01*
X-3087730Y45746875D01*
X-3086344Y45751538D01*
X-3084602Y45756081D01*
X-3083581Y45760830D01*
X-3083577Y45760845D01*
X-3078308Y45785364D01*
X-3077446Y45789098D01*
X-3072081Y45810825D01*
X-3072081Y45810826D01*
X-3071005Y45815182D01*
X-3070558Y45819641D01*
X-3069795Y45824058D01*
X-3069660Y45824035D01*
X-3068741Y45829884D01*
X-3042559Y45951718D01*
X-3029247Y46013661D01*
X-3025776Y46026478D01*
X-3023911Y46032159D01*
X-3020011Y46055917D01*
X-3018863Y46061978D01*
X-3015401Y46078090D01*
X-3014458Y46082478D01*
X-3014147Y46086951D01*
X-3014136Y46087029D01*
X-3009994Y46105816D01*
X-2999543Y46140409D01*
X-2965810Y46252074D01*
X-2955946Y46275720D01*
X-2888144Y46400699D01*
X-2876700Y46418165D01*
X-2759603Y46568116D01*
X-2754154Y46574628D01*
X-2732240Y46599096D01*
X-2732194Y46599144D01*
X-2732142Y46599186D01*
X-2705593Y46628848D01*
X-2705588Y46628843D01*
X-2705568Y46628876D01*
X-2681476Y46655775D01*
X-2681437Y46655832D01*
X-2681402Y46655875D01*
X-2518325Y46838074D01*
X-2518232Y46838178D01*
X-2331065Y47046827D01*
X-2330796Y47047126D01*
X-2143981Y47254049D01*
X-2143534Y47254541D01*
X-1956676Y47459330D01*
X-1956047Y47460015D01*
X-1767428Y47663695D01*
X-1767011Y47664143D01*
X-1704733Y47730742D01*
X-1704497Y47730994D01*
X-1513101Y47934548D01*
X-1512633Y47935042D01*
X-1321564Y48136062D01*
X-1320947Y48136707D01*
X-1128800Y48336013D01*
X-1128027Y48336808D01*
X-935205Y48533326D01*
X-934274Y48534265D01*
X-901815Y48566659D01*
X-739061Y48729087D01*
X-738408Y48729733D01*
X-690521Y48776788D01*
X-537224Y48927422D01*
X-388696Y49072310D01*
X-334323Y49125350D01*
X-334042Y49125623D01*
X-130252Y49323184D01*
X-130018Y49323410D01*
X74251Y49520415D01*
X74439Y49520597D01*
X166742Y49609249D01*
X279876Y49717907D01*
X485251Y49914548D01*
X692394Y50112472D01*
X897481Y50308232D01*
X1040567Y50443747D01*
X1041423Y50444550D01*
X1257666Y50645561D01*
X1258651Y50646467D01*
X1476710Y50844891D01*
X1477647Y50845735D01*
X1697885Y51042149D01*
X1698772Y51042933D01*
X1921314Y51237680D01*
X1922148Y51238404D01*
X1927475Y51242984D01*
X2146533Y51431316D01*
X2147224Y51431904D01*
X2191087Y51468998D01*
X2373581Y51623326D01*
X2374152Y51623806D01*
X2602320Y51813832D01*
X2602921Y51814328D01*
X2832739Y52003057D01*
X2833352Y52003557D01*
X3064406Y52190884D01*
X3064826Y52191223D01*
X3297688Y52377839D01*
X3297953Y52378050D01*
X3359638Y52426953D01*
X3518274Y52552719D01*
X3518825Y52553153D01*
X3575204Y52597341D01*
X3739761Y52726317D01*
X3740340Y52726768D01*
X3962258Y52898604D01*
X3962876Y52899079D01*
X4185401Y53069195D01*
X4185940Y53069605D01*
X4409903Y53238519D01*
X4410235Y53238767D01*
X4634784Y53405730D01*
X4635508Y53406265D01*
X4798048Y53525328D01*
X4861092Y53571509D01*
X4861827Y53572042D01*
X5088398Y53735426D01*
X5089195Y53735997D01*
X5316739Y53897406D01*
X5317572Y53897992D01*
X5546455Y54057585D01*
X5547242Y54058129D01*
X5777390Y54215745D01*
X5778175Y54216277D01*
X6009377Y54371672D01*
X6010217Y54372232D01*
X6242851Y54525558D01*
X6243825Y54526194D01*
X6278038Y54548288D01*
X6477682Y54677214D01*
X6478686Y54677855D01*
X6527133Y54708483D01*
X6714027Y54826637D01*
X6715021Y54827258D01*
X6924934Y54957057D01*
X6936891Y54963585D01*
X6936904Y54963591D01*
X6941505Y54965789D01*
X6962093Y54979878D01*
X6966962Y54983046D01*
X6981712Y54992166D01*
X6981713Y54992167D01*
X6985522Y54994522D01*
X6990046Y54998302D01*
X6999690Y55005605D01*
X7099499Y55073902D01*
X7107644Y55079030D01*
X7142374Y55099085D01*
X7142379Y55099089D01*
X7150151Y55103577D01*
X7186030Y55141128D01*
X7191944Y55146923D01*
X7230232Y55182048D01*
X7234879Y55189731D01*
X7239927Y55195895D01*
X7244575Y55202400D01*
X7250776Y55208890D01*
X7254906Y55216859D01*
X7254909Y55216863D01*
X7274671Y55254993D01*
X7278724Y55262222D01*
X7300966Y55298997D01*
X7300968Y55299002D01*
X7305613Y55306682D01*
X7307917Y55315361D01*
X7311032Y55322695D01*
X7313665Y55330236D01*
X7317798Y55338211D01*
X7327792Y55389169D01*
X7329653Y55397240D01*
X7340682Y55438787D01*
X7340683Y55438796D01*
X7342984Y55447464D01*
X7342760Y55456432D01*
X7343694Y55464366D01*
X7344104Y55472341D01*
X7345831Y55481146D01*
X7341118Y55532891D01*
X7340639Y55541156D01*
X7339564Y55584107D01*
X7339340Y55593076D01*
X7323173Y55643633D01*
X7320959Y55651409D01*
X7288694Y55780297D01*
X7288597Y55780756D01*
X7288548Y55781282D01*
X7278961Y55819178D01*
X7270275Y55853875D01*
X7270074Y55854366D01*
X7269951Y55854792D01*
X7225590Y56030144D01*
X7224632Y56034462D01*
X7224220Y56038144D01*
X7222945Y56042826D01*
X7222942Y56042840D01*
X7215317Y56070830D01*
X7214735Y56073046D01*
X7208299Y56098490D01*
X7208297Y56098497D01*
X7207198Y56102840D01*
X7205792Y56106260D01*
X7204474Y56110637D01*
X7186686Y56175942D01*
X7176884Y56211932D01*
X7176771Y56212416D01*
X7176704Y56213002D01*
X7174663Y56220416D01*
X7166427Y56250321D01*
X7166334Y56250662D01*
X7166075Y56251615D01*
X7156965Y56285061D01*
X7156729Y56285608D01*
X7156574Y56286103D01*
X7150020Y56309906D01*
X7099582Y56493070D01*
X7097812Y56500329D01*
X7057433Y56690332D01*
X7054760Y56712060D01*
X7048513Y56888286D01*
X7048604Y56899284D01*
X7054156Y57006199D01*
X7058301Y57086002D01*
X7059339Y57096873D01*
X7062368Y57118581D01*
X7063222Y57123874D01*
X7067362Y57146445D01*
X7067550Y57151234D01*
X7068660Y57163692D01*
X7071901Y57186925D01*
X7074617Y57200716D01*
X7119070Y57374654D01*
X7125296Y57393000D01*
X7191608Y57548029D01*
X7198806Y57562283D01*
X7293520Y57723553D01*
X7300072Y57733585D01*
X7322299Y57764317D01*
X7423026Y57903585D01*
X7427881Y57909869D01*
X7578455Y58092524D01*
X7580081Y58094457D01*
X7597120Y58114297D01*
X7612297Y58131969D01*
X7612668Y58132370D01*
X7613150Y58132783D01*
X7638360Y58162315D01*
X7661670Y58189457D01*
X7662009Y58189990D01*
X7662356Y58190425D01*
X7787580Y58337120D01*
X7787693Y58337242D01*
X7787856Y58337382D01*
X7813296Y58367244D01*
X7836923Y58394922D01*
X7837038Y58395104D01*
X7837147Y58395241D01*
X7875492Y58440251D01*
X7933385Y58508207D01*
X7937494Y58512496D01*
X7941900Y58515549D01*
X7983704Y58567212D01*
X7985703Y58569620D01*
X8003140Y58590088D01*
X8005535Y58593879D01*
X8006365Y58595007D01*
X8009890Y58599574D01*
X8027878Y58621804D01*
X8027879Y58621806D01*
X8033523Y58628781D01*
X8041059Y58646816D01*
X8050787Y58665520D01*
X8056437Y58674464D01*
X8056438Y58674466D01*
X8061229Y58682051D01*
X8071053Y58716363D01*
X8075928Y58730261D01*
X8083464Y58748295D01*
X8089683Y58763176D01*
X8091855Y58782606D01*
X8095942Y58803287D01*
X8098851Y58813448D01*
X8101323Y58822081D01*
X8101122Y58857771D01*
X8101899Y58872462D01*
X8105865Y58907933D01*
X8104318Y58916779D01*
X8102498Y58927187D01*
X8100616Y58948185D01*
X8100556Y58958760D01*
X8100506Y58967736D01*
X8097940Y58976333D01*
X8097939Y58976337D01*
X8090297Y59001935D01*
X8086916Y59016267D01*
X8082315Y59042572D01*
X8080769Y59051411D01*
X8072792Y59067609D01*
X8072136Y59068940D01*
X8064437Y59088566D01*
X8061410Y59098704D01*
X8061409Y59098707D01*
X8058841Y59107308D01*
X8039433Y59137283D01*
X8032177Y59150071D01*
X8016412Y59182080D01*
X8003202Y59196486D01*
X7990306Y59213158D01*
X7979676Y59229575D01*
X7952645Y59252890D01*
X7947673Y59257713D01*
X7947619Y59257655D01*
X7944061Y59260979D01*
X7940771Y59264567D01*
X7919969Y59281190D01*
X7916362Y59284184D01*
X7869378Y59324709D01*
X7862312Y59327926D01*
X7854288Y59333676D01*
X7760944Y59408268D01*
X7756905Y59411638D01*
X7655623Y59499791D01*
X7600487Y59547780D01*
X7590240Y59557777D01*
X7587364Y59560922D01*
X7449008Y59712181D01*
X7437565Y59726701D01*
X7329378Y59886894D01*
X7319802Y59903735D01*
X7318697Y59906081D01*
X7253914Y60043662D01*
X7247194Y60061228D01*
X7193370Y60241200D01*
X7190855Y60251040D01*
X7178899Y60307162D01*
X7178242Y60310463D01*
X7177913Y60312242D01*
X7132218Y60558903D01*
X7131417Y60563749D01*
X7095713Y60809670D01*
X7095123Y60814347D01*
X7068559Y61062222D01*
X7068160Y61066698D01*
X7062007Y61153112D01*
X7050351Y61316787D01*
X7050121Y61321037D01*
X7040489Y61579085D01*
X7040435Y61580840D01*
X7038916Y61645822D01*
X7038930Y61646994D01*
X7039090Y61648265D01*
X7037978Y61686050D01*
X7037962Y61686620D01*
X7037232Y61717858D01*
X7037152Y61721282D01*
X7036942Y61722537D01*
X7036868Y61723739D01*
X7034255Y61812491D01*
X7031105Y61919469D01*
X7031111Y61920234D01*
X7031215Y61921095D01*
X7029930Y61959413D01*
X7029914Y61959926D01*
X7028949Y61992678D01*
X7028878Y61995099D01*
X7028729Y61995957D01*
X7028677Y61996728D01*
X7026404Y62064505D01*
X7023145Y62161656D01*
X7020815Y62231106D01*
X7020808Y62231308D01*
X7012260Y62498979D01*
X7012234Y62499899D01*
X7005728Y62764123D01*
X7005698Y62765766D01*
X7002680Y63026381D01*
X7002675Y63028745D01*
X7004529Y63286917D01*
X7004573Y63289447D01*
X7006576Y63362897D01*
X7006821Y63368042D01*
X7007461Y63377410D01*
X7023211Y63608174D01*
X7024243Y63617815D01*
X7056237Y63836736D01*
X7058621Y63848857D01*
X7086485Y63961161D01*
X7108362Y64049339D01*
X7112845Y64063682D01*
X7114607Y64068325D01*
X7181736Y64245286D01*
X7189036Y64261128D01*
X7289838Y64445154D01*
X7295322Y64454235D01*
X7358826Y64550043D01*
X7360762Y64552879D01*
X7501265Y64752803D01*
X7503726Y64756184D01*
X7650173Y64950407D01*
X7652657Y64953591D01*
X7732043Y65052099D01*
X7805626Y65143405D01*
X7808109Y65146391D01*
X7970506Y65335497D01*
X7971621Y65336777D01*
X8085614Y65465953D01*
X8086292Y65466668D01*
X8087114Y65467358D01*
X8112127Y65495995D01*
X8112550Y65496476D01*
X8133680Y65520421D01*
X8133689Y65520431D01*
X8135626Y65522627D01*
X8136215Y65523523D01*
X8136836Y65524284D01*
X8300330Y65711468D01*
X8301260Y65712460D01*
X8302370Y65713405D01*
X8326895Y65741879D01*
X8327359Y65742414D01*
X8347419Y65765380D01*
X8349938Y65768264D01*
X8350728Y65769481D01*
X8351590Y65770550D01*
X8398944Y65825528D01*
X8513870Y65958957D01*
X8514932Y65960107D01*
X8516176Y65961183D01*
X8526064Y65972846D01*
X8540257Y65989587D01*
X8540896Y65990334D01*
X8560244Y66012798D01*
X8563033Y66016036D01*
X8563916Y66017417D01*
X8564909Y66018666D01*
X8687836Y66163668D01*
X8725721Y66208355D01*
X8726919Y66209674D01*
X8728293Y66210884D01*
X8731324Y66214523D01*
X8751905Y66239234D01*
X8752612Y66240075D01*
X8757518Y66245863D01*
X8774395Y66265770D01*
X8775370Y66267322D01*
X8776479Y66268741D01*
X8935667Y66459877D01*
X8936990Y66461360D01*
X8938493Y66462710D01*
X8941568Y66466476D01*
X8941572Y66466480D01*
X8961582Y66490986D01*
X8962254Y66491801D01*
X8983788Y66517656D01*
X8984851Y66519381D01*
X8986084Y66520990D01*
X9143442Y66713686D01*
X9144909Y66715365D01*
X9146532Y66716854D01*
X9169217Y66745242D01*
X9169919Y66746112D01*
X9190977Y66771898D01*
X9192111Y66773780D01*
X9193471Y66775591D01*
X9348832Y66970008D01*
X9350436Y66971885D01*
X9352177Y66973518D01*
X9355175Y66977360D01*
X9355182Y66977367D01*
X9374349Y67001925D01*
X9375244Y67003059D01*
X9392923Y67025183D01*
X9395721Y67028684D01*
X9396930Y67030738D01*
X9398418Y67032766D01*
X9551587Y67229022D01*
X9553330Y67231112D01*
X9555183Y67232895D01*
X9558125Y67236763D01*
X9558129Y67236767D01*
X9576839Y67261363D01*
X9577712Y67262497D01*
X9597784Y67288215D01*
X9599059Y67290438D01*
X9600662Y67292679D01*
X9751499Y67490965D01*
X9753360Y67493257D01*
X9755314Y67495187D01*
X9758209Y67499099D01*
X9776347Y67523612D01*
X9777350Y67524950D01*
X9794218Y67547124D01*
X9794221Y67547129D01*
X9796924Y67550682D01*
X9798259Y67553079D01*
X9799991Y67555567D01*
X9948288Y67755992D01*
X9950266Y67758497D01*
X9952322Y67760586D01*
X9972768Y67789055D01*
X9973821Y67790500D01*
X9990232Y67812680D01*
X9992899Y67816284D01*
X9994290Y67818861D01*
X9996132Y67821587D01*
X10003693Y67832114D01*
X10142697Y68025664D01*
X10147559Y68031674D01*
X10147551Y68031680D01*
X10150536Y68035524D01*
X10153812Y68039129D01*
X10168692Y68061690D01*
X10171529Y68065810D01*
X10182847Y68081569D01*
X10185462Y68085210D01*
X10187537Y68089190D01*
X10188480Y68090722D01*
X10193758Y68099692D01*
X10216794Y68134616D01*
X10241825Y68172567D01*
X10245538Y68177892D01*
X10259456Y68196786D01*
X10262699Y68203010D01*
X10268206Y68212369D01*
X10268946Y68213685D01*
X10271409Y68217420D01*
X10273319Y68221469D01*
X10273325Y68221479D01*
X10281819Y68239483D01*
X10284035Y68243950D01*
X10288543Y68252599D01*
X10385781Y68439187D01*
X10391406Y68448898D01*
X10397468Y68458363D01*
X10405090Y68475655D01*
X10408646Y68483059D01*
X10413878Y68493100D01*
X10413878Y68493101D01*
X10415951Y68497078D01*
X10419944Y68508432D01*
X10423508Y68517443D01*
X10441316Y68557845D01*
X10443957Y68563458D01*
X10575084Y68825227D01*
X10579995Y68834117D01*
X10723265Y69070431D01*
X10728977Y69079036D01*
X10888574Y69299309D01*
X10894991Y69307439D01*
X11071152Y69512676D01*
X11078146Y69520184D01*
X11271328Y69711280D01*
X11278744Y69718053D01*
X11489492Y69895650D01*
X11497150Y69901614D01*
X11728339Y70067777D01*
X11735108Y70072317D01*
X11913661Y70183886D01*
X11920555Y70187895D01*
X11978512Y70219185D01*
X11989840Y70224590D01*
X12168122Y70298997D01*
X12180420Y70303396D01*
X12382027Y70363921D01*
X12387437Y70365414D01*
X12408850Y70370813D01*
X12455464Y70382566D01*
X12457051Y70382955D01*
X12707049Y70442552D01*
X12708636Y70442920D01*
X12870667Y70479339D01*
X12962296Y70499934D01*
X12962526Y70499985D01*
X13182163Y70548296D01*
X13182860Y70548422D01*
X13183661Y70548475D01*
X13185865Y70548969D01*
X13185873Y70548970D01*
X13221303Y70556903D01*
X13221765Y70557006D01*
X13230843Y70559003D01*
X13256102Y70564559D01*
X13256848Y70564839D01*
X13257531Y70565016D01*
X13443635Y70606690D01*
X13446220Y70607181D01*
X13448733Y70607377D01*
X13483638Y70615639D01*
X13485056Y70615965D01*
X13516902Y70623096D01*
X13519256Y70623989D01*
X13521841Y70624682D01*
X13596621Y70642382D01*
X13707792Y70668695D01*
X13709766Y70669092D01*
X13711772Y70669269D01*
X13716487Y70670433D01*
X13716492Y70670434D01*
X13747309Y70678043D01*
X13748451Y70678319D01*
X13757859Y70680546D01*
X13776638Y70684991D01*
X13776644Y70684993D01*
X13780996Y70686023D01*
X13782865Y70686758D01*
X13784826Y70687306D01*
X13823451Y70696843D01*
X13890140Y70713310D01*
X13890435Y70713371D01*
X13890797Y70713403D01*
X13891819Y70713657D01*
X13891823Y70713658D01*
X13929044Y70722915D01*
X13929252Y70722966D01*
X13962830Y70731257D01*
X13962841Y70731260D01*
X13963853Y70731510D01*
X13964182Y70731643D01*
X13964480Y70731728D01*
X14055598Y70754390D01*
X14158149Y70779894D01*
X14158416Y70779950D01*
X14158762Y70779982D01*
X14196532Y70789441D01*
X14196747Y70789432D01*
X14196732Y70789491D01*
X14230856Y70797977D01*
X14230863Y70797979D01*
X14231824Y70798218D01*
X14232141Y70798347D01*
X14232426Y70798429D01*
X14425953Y70846892D01*
X14426152Y70846934D01*
X14426396Y70846956D01*
X14427091Y70847131D01*
X14427101Y70847133D01*
X14464031Y70856427D01*
X14464171Y70856462D01*
X14498931Y70865167D01*
X14498936Y70865168D01*
X14499653Y70865348D01*
X14499888Y70865444D01*
X14500092Y70865503D01*
X14655284Y70904560D01*
X14693461Y70914168D01*
X14693568Y70914191D01*
X14693724Y70914205D01*
X14731717Y70923796D01*
X14767190Y70932723D01*
X14767335Y70932782D01*
X14767449Y70932815D01*
X14781073Y70936254D01*
X14802212Y70941590D01*
X14960681Y70981593D01*
X14960724Y70981602D01*
X14960778Y70981607D01*
X14960928Y70981645D01*
X14960938Y70981647D01*
X14997778Y70990957D01*
X14997778Y70990955D01*
X14997798Y70990962D01*
X15034456Y71000216D01*
X15034513Y71000239D01*
X15034550Y71000250D01*
X15263818Y71058189D01*
X15263841Y71058195D01*
X15532998Y71126159D01*
X15533078Y71126179D01*
X15799503Y71193269D01*
X15799506Y71193257D01*
X15799633Y71193302D01*
X15938704Y71228160D01*
X16065492Y71259939D01*
X16065682Y71259987D01*
X16331846Y71326260D01*
X16332092Y71326321D01*
X16577466Y71386895D01*
X16585958Y71388683D01*
X16796000Y71425416D01*
X16811747Y71427159D01*
X16894225Y71431064D01*
X17009921Y71436541D01*
X17023394Y71436457D01*
G37*
%TD.AperFunction*%
%TD*%
M02*
