%TF.GenerationSoftware,KiCad,Pcbnew,(6.0.5)*%
%TF.CreationDate,2022-07-11T11:07:48-06:00*%
%TF.ProjectId,MiniMageSpells,4d696e69-4d61-4676-9553-70656c6c732e,1.0*%
%TF.SameCoordinates,PX6e486c0PY7ba4d50*%
%TF.FileFunction,AssemblyDrawing,Bot*%
%FSLAX46Y46*%
G04 Gerber Fmt 4.6, Leading zero omitted, Abs format (unit mm)*
G04 Created by KiCad (PCBNEW (6.0.5)) date 2022-07-11 11:07:48*
%MOMM*%
%LPD*%
G01*
G04 APERTURE LIST*
%ADD10C,0.100000*%
%ADD11C,0.150000*%
%ADD12C,0.080000*%
G04 APERTURE END LIST*
D10*
X8857988Y12980000D02*
X28550000Y12980000D01*
X28550000Y12980000D02*
X28550000Y8780000D01*
X28550000Y8780000D02*
X8857988Y8780000D01*
X8857988Y8780000D02*
X8857988Y12980000D01*
D11*
X26034285Y10581429D02*
X26367619Y10581429D01*
X26367619Y10057620D02*
X26367619Y11057620D01*
X25891428Y11057620D01*
X25558095Y10343334D02*
X25081904Y10343334D01*
X25653333Y10057620D02*
X25320000Y11057620D01*
X24986666Y10057620D01*
X24320000Y10581429D02*
X24177142Y10533810D01*
X24129523Y10486191D01*
X24081904Y10390953D01*
X24081904Y10248096D01*
X24129523Y10152858D01*
X24177142Y10105239D01*
X24272380Y10057620D01*
X24653333Y10057620D01*
X24653333Y11057620D01*
X24320000Y11057620D01*
X24224761Y11010000D01*
X24177142Y10962381D01*
X24129523Y10867143D01*
X24129523Y10771905D01*
X24177142Y10676667D01*
X24224761Y10629048D01*
X24320000Y10581429D01*
X24653333Y10581429D01*
X22891428Y10057620D02*
X22891428Y11057620D01*
X22558095Y10343334D01*
X22224761Y11057620D01*
X22224761Y10057620D01*
X21796190Y10343334D02*
X21320000Y10343334D01*
X21891428Y10057620D02*
X21558095Y11057620D01*
X21224761Y10057620D01*
X20320000Y10057620D02*
X20653333Y10533810D01*
X20891428Y10057620D02*
X20891428Y11057620D01*
X20510476Y11057620D01*
X20415238Y11010000D01*
X20367619Y10962381D01*
X20320000Y10867143D01*
X20320000Y10724286D01*
X20367619Y10629048D01*
X20415238Y10581429D01*
X20510476Y10533810D01*
X20891428Y10533810D01*
X19891428Y10057620D02*
X19891428Y11057620D01*
X19320000Y10057620D02*
X19748571Y10629048D01*
X19320000Y11057620D02*
X19891428Y10486191D01*
X18891428Y10057620D02*
X18891428Y11057620D01*
X18415238Y10057620D02*
X18415238Y11057620D01*
X17843809Y10057620D01*
X17843809Y11057620D01*
X16843809Y11010000D02*
X16939047Y11057620D01*
X17081904Y11057620D01*
X17224761Y11010000D01*
X17320000Y10914762D01*
X17367619Y10819524D01*
X17415238Y10629048D01*
X17415238Y10486191D01*
X17367619Y10295715D01*
X17320000Y10200477D01*
X17224761Y10105239D01*
X17081904Y10057620D01*
X16986666Y10057620D01*
X16843809Y10105239D01*
X16796190Y10152858D01*
X16796190Y10486191D01*
X16986666Y10486191D01*
X16415238Y10105239D02*
X16272380Y10057620D01*
X16034285Y10057620D01*
X15939047Y10105239D01*
X15891428Y10152858D01*
X15843809Y10248096D01*
X15843809Y10343334D01*
X15891428Y10438572D01*
X15939047Y10486191D01*
X16034285Y10533810D01*
X16224761Y10581429D01*
X16320000Y10629048D01*
X16367619Y10676667D01*
X16415238Y10771905D01*
X16415238Y10867143D01*
X16367619Y10962381D01*
X16320000Y11010000D01*
X16224761Y11057620D01*
X15986666Y11057620D01*
X15843809Y11010000D01*
X14653333Y10057620D02*
X14653333Y11057620D01*
X14653333Y10581429D02*
X14081904Y10581429D01*
X14081904Y10057620D02*
X14081904Y11057620D01*
X13605714Y10581429D02*
X13272380Y10581429D01*
X13129523Y10057620D02*
X13605714Y10057620D01*
X13605714Y11057620D01*
X13129523Y11057620D01*
X12129523Y10057620D02*
X12462857Y10533810D01*
X12700952Y10057620D02*
X12700952Y11057620D01*
X12320000Y11057620D01*
X12224761Y11010000D01*
X12177142Y10962381D01*
X12129523Y10867143D01*
X12129523Y10724286D01*
X12177142Y10629048D01*
X12224761Y10581429D01*
X12320000Y10533810D01*
X12700952Y10533810D01*
X11700952Y10581429D02*
X11367619Y10581429D01*
X11224761Y10057620D02*
X11700952Y10057620D01*
X11700952Y11057620D01*
X11224761Y11057620D01*
%TO.C,R2*%
X15625038Y20588000D02*
X15958371Y21064190D01*
X16196466Y20588000D02*
X16196466Y21588000D01*
X15815514Y21588000D01*
X15720276Y21540380D01*
X15672657Y21492761D01*
X15625038Y21397523D01*
X15625038Y21254666D01*
X15672657Y21159428D01*
X15720276Y21111809D01*
X15815514Y21064190D01*
X16196466Y21064190D01*
D12*
X16017895Y22464190D02*
X16184562Y22702285D01*
X16303609Y22464190D02*
X16303609Y22964190D01*
X16113133Y22964190D01*
X16065514Y22940380D01*
X16041704Y22916571D01*
X16017895Y22868952D01*
X16017895Y22797523D01*
X16041704Y22749904D01*
X16065514Y22726095D01*
X16113133Y22702285D01*
X16303609Y22702285D01*
X15827419Y22916571D02*
X15803609Y22940380D01*
X15755990Y22964190D01*
X15636942Y22964190D01*
X15589323Y22940380D01*
X15565514Y22916571D01*
X15541704Y22868952D01*
X15541704Y22821333D01*
X15565514Y22749904D01*
X15851228Y22464190D01*
X15541704Y22464190D01*
D11*
%TO.C,R1*%
X21835038Y23868000D02*
X22168371Y24344190D01*
X22406466Y23868000D02*
X22406466Y24868000D01*
X22025514Y24868000D01*
X21930276Y24820380D01*
X21882657Y24772761D01*
X21835038Y24677523D01*
X21835038Y24534666D01*
X21882657Y24439428D01*
X21930276Y24391809D01*
X22025514Y24344190D01*
X22406466Y24344190D01*
D12*
X22227895Y22444190D02*
X22394562Y22682285D01*
X22513609Y22444190D02*
X22513609Y22944190D01*
X22323133Y22944190D01*
X22275514Y22920380D01*
X22251704Y22896571D01*
X22227895Y22848952D01*
X22227895Y22777523D01*
X22251704Y22729904D01*
X22275514Y22706095D01*
X22323133Y22682285D01*
X22513609Y22682285D01*
X21751704Y22444190D02*
X22037419Y22444190D01*
X21894562Y22444190D02*
X21894562Y22944190D01*
X21942181Y22872761D01*
X21989800Y22825142D01*
X22037419Y22801333D01*
D11*
%TO.C,D4*%
X5837419Y41278000D02*
X6313609Y41278000D01*
X6313609Y42278000D01*
X5504085Y41801809D02*
X5170752Y41801809D01*
X5027895Y41278000D02*
X5504085Y41278000D01*
X5504085Y42278000D01*
X5027895Y42278000D01*
X4599323Y41278000D02*
X4599323Y42278000D01*
X4361228Y42278000D01*
X4218371Y42230380D01*
X4123133Y42135142D01*
X4075514Y42039904D01*
X4027895Y41849428D01*
X4027895Y41706571D01*
X4075514Y41516095D01*
X4123133Y41420857D01*
X4218371Y41325619D01*
X4361228Y41278000D01*
X4599323Y41278000D01*
D12*
X5563609Y43154190D02*
X5563609Y43654190D01*
X5444562Y43654190D01*
X5373133Y43630380D01*
X5325514Y43582761D01*
X5301704Y43535142D01*
X5277895Y43439904D01*
X5277895Y43368476D01*
X5301704Y43273238D01*
X5325514Y43225619D01*
X5373133Y43178000D01*
X5444562Y43154190D01*
X5563609Y43154190D01*
X4849323Y43487523D02*
X4849323Y43154190D01*
X4968371Y43678000D02*
X5087419Y43320857D01*
X4777895Y43320857D01*
D11*
%TO.C,D3*%
X4567419Y32238000D02*
X5043609Y32238000D01*
X5043609Y33238000D01*
X4234085Y32761809D02*
X3900752Y32761809D01*
X3757895Y32238000D02*
X4234085Y32238000D01*
X4234085Y33238000D01*
X3757895Y33238000D01*
X3329323Y32238000D02*
X3329323Y33238000D01*
X3091228Y33238000D01*
X2948371Y33190380D01*
X2853133Y33095142D01*
X2805514Y32999904D01*
X2757895Y32809428D01*
X2757895Y32666571D01*
X2805514Y32476095D01*
X2853133Y32380857D01*
X2948371Y32285619D01*
X3091228Y32238000D01*
X3329323Y32238000D01*
D12*
X4293609Y34114190D02*
X4293609Y34614190D01*
X4174562Y34614190D01*
X4103133Y34590380D01*
X4055514Y34542761D01*
X4031704Y34495142D01*
X4007895Y34399904D01*
X4007895Y34328476D01*
X4031704Y34233238D01*
X4055514Y34185619D01*
X4103133Y34138000D01*
X4174562Y34114190D01*
X4293609Y34114190D01*
X3841228Y34614190D02*
X3531704Y34614190D01*
X3698371Y34423714D01*
X3626942Y34423714D01*
X3579323Y34399904D01*
X3555514Y34376095D01*
X3531704Y34328476D01*
X3531704Y34209428D01*
X3555514Y34161809D01*
X3579323Y34138000D01*
X3626942Y34114190D01*
X3769800Y34114190D01*
X3817419Y34138000D01*
X3841228Y34161809D01*
D11*
%TO.C,D2*%
X34217419Y28118000D02*
X34693609Y28118000D01*
X34693609Y29118000D01*
X33884085Y28641809D02*
X33550752Y28641809D01*
X33407895Y28118000D02*
X33884085Y28118000D01*
X33884085Y29118000D01*
X33407895Y29118000D01*
X32979323Y28118000D02*
X32979323Y29118000D01*
X32741228Y29118000D01*
X32598371Y29070380D01*
X32503133Y28975142D01*
X32455514Y28879904D01*
X32407895Y28689428D01*
X32407895Y28546571D01*
X32455514Y28356095D01*
X32503133Y28260857D01*
X32598371Y28165619D01*
X32741228Y28118000D01*
X32979323Y28118000D01*
D12*
X33943609Y29994190D02*
X33943609Y30494190D01*
X33824562Y30494190D01*
X33753133Y30470380D01*
X33705514Y30422761D01*
X33681704Y30375142D01*
X33657895Y30279904D01*
X33657895Y30208476D01*
X33681704Y30113238D01*
X33705514Y30065619D01*
X33753133Y30018000D01*
X33824562Y29994190D01*
X33943609Y29994190D01*
X33467419Y30446571D02*
X33443609Y30470380D01*
X33395990Y30494190D01*
X33276942Y30494190D01*
X33229323Y30470380D01*
X33205514Y30446571D01*
X33181704Y30398952D01*
X33181704Y30351333D01*
X33205514Y30279904D01*
X33491228Y29994190D01*
X33181704Y29994190D01*
D11*
%TO.C,D1*%
X34237419Y39428000D02*
X34713609Y39428000D01*
X34713609Y40428000D01*
X33904085Y39951809D02*
X33570752Y39951809D01*
X33427895Y39428000D02*
X33904085Y39428000D01*
X33904085Y40428000D01*
X33427895Y40428000D01*
X32999323Y39428000D02*
X32999323Y40428000D01*
X32761228Y40428000D01*
X32618371Y40380380D01*
X32523133Y40285142D01*
X32475514Y40189904D01*
X32427895Y39999428D01*
X32427895Y39856571D01*
X32475514Y39666095D01*
X32523133Y39570857D01*
X32618371Y39475619D01*
X32761228Y39428000D01*
X32999323Y39428000D01*
D12*
X33963609Y41304190D02*
X33963609Y41804190D01*
X33844562Y41804190D01*
X33773133Y41780380D01*
X33725514Y41732761D01*
X33701704Y41685142D01*
X33677895Y41589904D01*
X33677895Y41518476D01*
X33701704Y41423238D01*
X33725514Y41375619D01*
X33773133Y41328000D01*
X33844562Y41304190D01*
X33963609Y41304190D01*
X33201704Y41304190D02*
X33487419Y41304190D01*
X33344562Y41304190D02*
X33344562Y41804190D01*
X33392181Y41732761D01*
X33439800Y41685142D01*
X33487419Y41661333D01*
D10*
%TO.C,R2*%
X16934562Y22065380D02*
X16934562Y23315380D01*
X14934562Y22065380D02*
X16934562Y22065380D01*
X14934562Y23315380D02*
X14934562Y22065380D01*
X16934562Y23315380D02*
X14934562Y23315380D01*
%TO.C,R1*%
X21144562Y23295380D02*
X21144562Y22045380D01*
X23144562Y23295380D02*
X21144562Y23295380D01*
X23144562Y22045380D02*
X23144562Y23295380D01*
X21144562Y22045380D02*
X23144562Y22045380D01*
%TO.C,D4*%
X6194562Y42780380D02*
X4194562Y42780380D01*
X4194562Y43980380D02*
X5894562Y43980380D01*
X5894562Y43980380D02*
X6194562Y43680380D01*
X6194562Y43680380D02*
X6194562Y42780380D01*
X4194562Y42780380D02*
X4194562Y43980380D01*
%TO.C,D3*%
X4924562Y33740380D02*
X2924562Y33740380D01*
X2924562Y34940380D02*
X4624562Y34940380D01*
X4624562Y34940380D02*
X4924562Y34640380D01*
X4924562Y34640380D02*
X4924562Y33740380D01*
X2924562Y33740380D02*
X2924562Y34940380D01*
%TO.C,D2*%
X34574562Y29620380D02*
X32574562Y29620380D01*
X32574562Y30820380D02*
X34274562Y30820380D01*
X34274562Y30820380D02*
X34574562Y30520380D01*
X34574562Y30520380D02*
X34574562Y29620380D01*
X32574562Y29620380D02*
X32574562Y30820380D01*
%TO.C,D1*%
X34594562Y40930380D02*
X32594562Y40930380D01*
X32594562Y42130380D02*
X34294562Y42130380D01*
X34294562Y42130380D02*
X34594562Y41830380D01*
X34594562Y41830380D02*
X34594562Y40930380D01*
X32594562Y40930380D02*
X32594562Y42130380D01*
%TD*%
M02*
