G04 #@! TF.GenerationSoftware,KiCad,Pcbnew,(6.0.5)*
G04 #@! TF.CreationDate,2022-09-11T23:28:05-06:00*
G04 #@! TF.ProjectId,purplewizard,70757270-6c65-4776-997a-6172642e6b69,1.1*
G04 #@! TF.SameCoordinates,Original*
G04 #@! TF.FileFunction,Soldermask,Top*
G04 #@! TF.FilePolarity,Negative*
%FSLAX46Y46*%
G04 Gerber Fmt 4.6, Leading zero omitted, Abs format (unit mm)*
G04 Created by KiCad (PCBNEW (6.0.5)) date 2022-09-11 23:28:05*
%MOMM*%
%LPD*%
G01*
G04 APERTURE LIST*
G04 Aperture macros list*
%AMRoundRect*
0 Rectangle with rounded corners*
0 $1 Rounding radius*
0 $2 $3 $4 $5 $6 $7 $8 $9 X,Y pos of 4 corners*
0 Add a 4 corners polygon primitive as box body*
4,1,4,$2,$3,$4,$5,$6,$7,$8,$9,$2,$3,0*
0 Add four circle primitives for the rounded corners*
1,1,$1+$1,$2,$3*
1,1,$1+$1,$4,$5*
1,1,$1+$1,$6,$7*
1,1,$1+$1,$8,$9*
0 Add four rect primitives between the rounded corners*
20,1,$1+$1,$2,$3,$4,$5,0*
20,1,$1+$1,$4,$5,$6,$7,0*
20,1,$1+$1,$6,$7,$8,$9,0*
20,1,$1+$1,$8,$9,$2,$3,0*%
%AMRotRect*
0 Rectangle, with rotation*
0 The origin of the aperture is its center*
0 $1 length*
0 $2 width*
0 $3 Rotation angle, in degrees counterclockwise*
0 Add horizontal line*
21,1,$1,$2,0,0,$3*%
G04 Aperture macros list end*
%ADD10C,0.010000*%
%ADD11O,2.200000X1.100000*%
%ADD12O,2.700000X1.300000*%
%ADD13RoundRect,0.250000X-2.250000X-0.250000X2.250000X-0.250000X2.250000X0.250000X-2.250000X0.250000X0*%
%ADD14C,1.700000*%
%ADD15O,1.700000X1.700000*%
%ADD16C,1.524000*%
%ADD17C,2.000000*%
%ADD18RoundRect,1.250000X-1.250000X-12.250000X1.250000X-12.250000X1.250000X12.250000X-1.250000X12.250000X0*%
%ADD19C,0.900000*%
%ADD20RoundRect,0.218750X-0.218750X-0.256250X0.218750X-0.256250X0.218750X0.256250X-0.218750X0.256250X0*%
%ADD21RoundRect,0.218750X0.218750X0.256250X-0.218750X0.256250X-0.218750X-0.256250X0.218750X-0.256250X0*%
%ADD22R,1.550000X1.000000*%
%ADD23RotRect,2.000000X1.800000X45.000000*%
%ADD24RotRect,1.350000X1.000000X45.000000*%
%ADD25C,1.050000*%
%ADD26C,0.750000*%
%ADD27R,1.000000X1.550000*%
%ADD28C,0.985520*%
%ADD29C,0.988060*%
%ADD30R,1.000000X1.000000*%
%ADD31O,1.000000X1.000000*%
%ADD32R,1.700000X1.700000*%
G04 APERTURE END LIST*
G36*
X148606376Y-33120897D02*
G01*
X148748210Y-33132990D01*
X148878970Y-33148908D01*
X149011962Y-33170805D01*
X149160490Y-33200840D01*
X149314516Y-33235693D01*
X149436777Y-33261483D01*
X149575124Y-33286402D01*
X149704743Y-33306079D01*
X149737850Y-33310262D01*
X149828896Y-33321882D01*
X149904100Y-33333032D01*
X149953563Y-33342158D01*
X149967226Y-33346272D01*
X149994382Y-33352076D01*
X150054470Y-33359454D01*
X150138164Y-33367395D01*
X150221226Y-33373853D01*
X150332362Y-33383530D01*
X150463655Y-33397870D01*
X150605602Y-33415533D01*
X150748702Y-33435183D01*
X150883449Y-33455479D01*
X151000342Y-33475085D01*
X151089878Y-33492660D01*
X151124266Y-33501045D01*
X151182802Y-33511285D01*
X151265966Y-33518669D01*
X151356075Y-33521643D01*
X151358805Y-33521648D01*
X151450631Y-33525824D01*
X151565787Y-33536947D01*
X151686213Y-33553074D01*
X151750389Y-33563778D01*
X151861018Y-33581651D01*
X151972042Y-33595813D01*
X152067537Y-33604401D01*
X152112424Y-33606111D01*
X152203892Y-33611112D01*
X152311077Y-33623808D01*
X152397702Y-33638906D01*
X152510196Y-33659701D01*
X152657849Y-33682550D01*
X152833588Y-33706558D01*
X153030341Y-33730827D01*
X153241036Y-33754463D01*
X153458601Y-33776570D01*
X153558433Y-33785924D01*
X153827339Y-33811857D01*
X154080827Y-33839132D01*
X154313385Y-33867052D01*
X154519504Y-33894922D01*
X154693671Y-33922046D01*
X154815540Y-33944624D01*
X154927187Y-33964050D01*
X155045200Y-33978872D01*
X155149572Y-33986749D01*
X155180905Y-33987433D01*
X155288592Y-33992280D01*
X155407159Y-34004849D01*
X155490784Y-34018618D01*
X155582809Y-34036302D01*
X155697001Y-34056638D01*
X155813639Y-34076157D01*
X155855016Y-34082717D01*
X155949579Y-34100343D01*
X156072012Y-34127443D01*
X156209735Y-34161007D01*
X156350169Y-34198022D01*
X156426516Y-34219486D01*
X156661108Y-34284416D01*
X156859760Y-34333255D01*
X157025429Y-34366614D01*
X157161074Y-34385103D01*
X157250309Y-34389600D01*
X157319909Y-34394490D01*
X157375097Y-34406960D01*
X157393105Y-34416058D01*
X157414742Y-34443261D01*
X157452194Y-34500274D01*
X157500911Y-34579790D01*
X157556346Y-34674506D01*
X157580888Y-34717683D01*
X157739192Y-34995784D01*
X157885384Y-35246714D01*
X158018495Y-35468946D01*
X158137557Y-35660951D01*
X158241601Y-35821199D01*
X158329658Y-35948162D01*
X158400762Y-36040311D01*
X158453942Y-36096118D01*
X158454229Y-36096360D01*
X158492526Y-36136732D01*
X158546455Y-36204355D01*
X158609404Y-36290460D01*
X158674765Y-36386279D01*
X158687605Y-36405930D01*
X158766091Y-36520508D01*
X158849438Y-36631234D01*
X158928427Y-36726301D01*
X158981834Y-36782714D01*
X159068044Y-36865917D01*
X159132415Y-36929206D01*
X159183671Y-36981960D01*
X159230535Y-37033557D01*
X159281729Y-37093378D01*
X159345976Y-37170802D01*
X159370968Y-37201131D01*
X159452942Y-37295505D01*
X159544495Y-37392754D01*
X159632496Y-37479276D01*
X159683968Y-37525348D01*
X159746033Y-37580350D01*
X159830133Y-37658720D01*
X159928890Y-37753375D01*
X160034924Y-37857237D01*
X160140859Y-37963223D01*
X160151850Y-37974363D01*
X160405135Y-38218852D01*
X160662913Y-38441028D01*
X160818600Y-38563734D01*
X160953570Y-38669344D01*
X161104162Y-38791105D01*
X161256914Y-38917885D01*
X161398362Y-39038553D01*
X161483174Y-39113187D01*
X161586871Y-39205452D01*
X161686501Y-39293042D01*
X161775279Y-39370071D01*
X161846419Y-39430651D01*
X161893135Y-39468896D01*
X161894041Y-39469600D01*
X161984879Y-39548416D01*
X162042868Y-39621227D01*
X162074661Y-39697245D01*
X162081256Y-39728881D01*
X162085406Y-39765561D01*
X162080773Y-39796379D01*
X162062323Y-39829414D01*
X162025025Y-39872746D01*
X161963846Y-39934454D01*
X161936546Y-39961218D01*
X161890103Y-40007365D01*
X161846243Y-40053042D01*
X161802818Y-40101251D01*
X161757680Y-40154995D01*
X161708682Y-40217278D01*
X161653675Y-40291102D01*
X161590511Y-40379470D01*
X161517044Y-40485386D01*
X161431124Y-40611853D01*
X161330605Y-40761873D01*
X161213339Y-40938450D01*
X161077177Y-41144587D01*
X160925688Y-41374600D01*
X160728375Y-41673224D01*
X160544769Y-41948637D01*
X160375862Y-42199416D01*
X160222649Y-42424138D01*
X160086121Y-42621380D01*
X159967270Y-42789720D01*
X159867091Y-42927734D01*
X159786574Y-43034001D01*
X159726714Y-43107097D01*
X159691918Y-43142848D01*
X159652584Y-43170901D01*
X159609321Y-43186738D01*
X159548542Y-43193639D01*
X159476256Y-43194933D01*
X159371757Y-43199071D01*
X159276807Y-43213647D01*
X159181314Y-43241907D01*
X159075184Y-43287093D01*
X158948324Y-43352451D01*
X158895543Y-43381595D01*
X158777741Y-43442603D01*
X158639515Y-43506797D01*
X158500969Y-43565139D01*
X158416183Y-43597086D01*
X158313008Y-43633634D01*
X158232122Y-43663388D01*
X158164135Y-43690673D01*
X158099656Y-43719812D01*
X158029296Y-43755130D01*
X157943665Y-43800950D01*
X157833370Y-43861596D01*
X157791766Y-43884601D01*
X157619323Y-43976684D01*
X157474431Y-44046336D01*
X157350579Y-44096264D01*
X157241253Y-44129175D01*
X157167916Y-44143846D01*
X157048343Y-44162597D01*
X156956358Y-43979444D01*
X156919556Y-43902338D01*
X156871203Y-43795392D01*
X156815442Y-43668081D01*
X156756417Y-43529881D01*
X156698271Y-43390268D01*
X156691564Y-43373904D01*
X156622938Y-43212055D01*
X156541602Y-43029561D01*
X156454925Y-42842404D01*
X156370278Y-42666568D01*
X156311329Y-42549350D01*
X156194422Y-42322749D01*
X156095104Y-42130415D01*
X156011600Y-41968969D01*
X155942135Y-41835033D01*
X155884934Y-41725228D01*
X155838223Y-41636175D01*
X155800228Y-41564495D01*
X155769174Y-41506810D01*
X155743287Y-41459742D01*
X155720791Y-41419910D01*
X155699913Y-41383938D01*
X155693666Y-41373338D01*
X155643846Y-41282857D01*
X155595358Y-41184700D01*
X155562264Y-41108754D01*
X155524465Y-41026767D01*
X155472240Y-40931296D01*
X155416701Y-40842622D01*
X155415139Y-40840334D01*
X155338537Y-40713691D01*
X155290307Y-40600298D01*
X155273061Y-40506325D01*
X155273051Y-40504872D01*
X155289931Y-40469524D01*
X155342155Y-40441428D01*
X155431688Y-40419995D01*
X155560492Y-40404635D01*
X155622183Y-40400139D01*
X155734809Y-40390965D01*
X155872265Y-40376628D01*
X156017643Y-40359044D01*
X156154036Y-40340130D01*
X156161827Y-40338955D01*
X156297987Y-40316862D01*
X156406453Y-40294898D01*
X156501667Y-40269102D01*
X156598071Y-40235513D01*
X156710106Y-40190170D01*
X156720899Y-40185611D01*
X156877060Y-40124341D01*
X157004888Y-40084524D01*
X157094742Y-40067769D01*
X157163808Y-40062746D01*
X157203808Y-40066660D01*
X157227783Y-40084060D01*
X157248772Y-40119497D01*
X157250045Y-40121954D01*
X157277878Y-40212937D01*
X157282451Y-40334366D01*
X157263664Y-40487709D01*
X157221417Y-40674432D01*
X157209441Y-40718433D01*
X157172088Y-40850705D01*
X157142408Y-40950035D01*
X157117149Y-41024376D01*
X157093057Y-41081685D01*
X157066879Y-41129918D01*
X157035364Y-41177029D01*
X157005330Y-41217658D01*
X156944034Y-41302347D01*
X156907306Y-41368356D01*
X156894819Y-41426765D01*
X156906246Y-41488652D01*
X156941259Y-41565097D01*
X156992400Y-41655046D01*
X157053672Y-41760254D01*
X157119695Y-41874934D01*
X157179625Y-41980210D01*
X157200841Y-42017920D01*
X157253080Y-42105382D01*
X157308712Y-42189185D01*
X157357671Y-42254377D01*
X157368433Y-42266841D01*
X157442516Y-42348691D01*
X157585157Y-42295997D01*
X157653815Y-42274531D01*
X157755230Y-42247842D01*
X157880433Y-42217863D01*
X158020454Y-42186528D01*
X158166328Y-42155771D01*
X158309084Y-42127525D01*
X158439756Y-42103724D01*
X158549374Y-42086301D01*
X158571944Y-42083233D01*
X158652317Y-42066929D01*
X158709786Y-42037197D01*
X158752386Y-41985965D01*
X158788151Y-41905164D01*
X158807330Y-41846788D01*
X158836678Y-41762187D01*
X158877898Y-41657023D01*
X158924046Y-41548652D01*
X158945439Y-41501600D01*
X159081478Y-41184572D01*
X159208053Y-40840341D01*
X159320305Y-40483783D01*
X159413376Y-40129777D01*
X159454272Y-39943321D01*
X159474200Y-39842240D01*
X159490416Y-39754904D01*
X159501295Y-39690428D01*
X159505214Y-39657928D01*
X159505204Y-39657440D01*
X159486849Y-39634033D01*
X159439968Y-39601518D01*
X159380193Y-39569667D01*
X159330217Y-39542840D01*
X159278439Y-39507375D01*
X159219561Y-39458581D01*
X159148280Y-39391771D01*
X159059298Y-39302254D01*
X158955288Y-39193753D01*
X158861645Y-39096021D01*
X158779255Y-39012974D01*
X158701574Y-38939024D01*
X158622060Y-38868586D01*
X158534171Y-38796074D01*
X158431363Y-38715901D01*
X158307096Y-38622482D01*
X158154825Y-38510230D01*
X158154257Y-38509813D01*
X157850100Y-38287321D01*
X157577808Y-38089338D01*
X157335621Y-37914650D01*
X157121784Y-37762042D01*
X156934538Y-37630301D01*
X156772126Y-37518211D01*
X156632791Y-37424557D01*
X156514776Y-37348125D01*
X156416322Y-37287701D01*
X156335674Y-37242070D01*
X156278523Y-37213411D01*
X156185182Y-37164219D01*
X156090847Y-37104698D01*
X156015337Y-37047394D01*
X156012878Y-37045227D01*
X155937843Y-36986892D01*
X155844245Y-36925525D01*
X155753717Y-36875131D01*
X155656108Y-36824975D01*
X155591060Y-36784917D01*
X155552152Y-36748542D01*
X155532966Y-36709436D01*
X155527080Y-36661183D01*
X155526933Y-36648529D01*
X155531355Y-36595946D01*
X155550013Y-36554177D01*
X155590993Y-36508916D01*
X155621405Y-36481362D01*
X155708141Y-36383634D01*
X155782501Y-36259893D01*
X155836142Y-36126269D01*
X155858531Y-36023072D01*
X155871843Y-35910670D01*
X155758319Y-35795718D01*
X155694779Y-35734638D01*
X155647543Y-35699514D01*
X155605805Y-35683787D01*
X155568854Y-35680766D01*
X155482596Y-35693696D01*
X155389440Y-35734149D01*
X155285483Y-35804623D01*
X155166822Y-35907614D01*
X155078869Y-35994296D01*
X154970198Y-36101418D01*
X154879908Y-36179799D01*
X154800626Y-36234297D01*
X154724981Y-36269769D01*
X154645598Y-36291073D01*
X154622442Y-36295046D01*
X154532868Y-36308938D01*
X154448935Y-36167659D01*
X154396709Y-36089123D01*
X154336206Y-36012381D01*
X154274836Y-35945368D01*
X154220009Y-35896021D01*
X154179133Y-35872274D01*
X154172205Y-35871266D01*
X154160074Y-35890284D01*
X154152443Y-35938825D01*
X154151100Y-35975238D01*
X154141655Y-36105256D01*
X154115441Y-36257281D01*
X154075642Y-36415984D01*
X154032120Y-36548420D01*
X153969355Y-36689477D01*
X153882468Y-36837928D01*
X153768662Y-36997688D01*
X153625139Y-37172673D01*
X153449101Y-37366796D01*
X153442047Y-37374271D01*
X153339559Y-37485030D01*
X153235340Y-37601704D01*
X153137560Y-37714865D01*
X153054390Y-37815085D01*
X153001997Y-37882100D01*
X152876362Y-38046497D01*
X152769023Y-38177896D01*
X152676533Y-38279621D01*
X152595442Y-38354995D01*
X152522302Y-38407341D01*
X152453665Y-38439984D01*
X152410562Y-38452058D01*
X152376950Y-38456705D01*
X152347591Y-38451158D01*
X152314518Y-38430228D01*
X152269766Y-38388729D01*
X152205369Y-38321472D01*
X152198031Y-38313651D01*
X152121482Y-38236877D01*
X152040095Y-38163074D01*
X151967466Y-38104329D01*
X151944031Y-38087833D01*
X151869013Y-38042682D01*
X151793669Y-38004411D01*
X151727854Y-37977256D01*
X151681423Y-37965454D01*
X151666008Y-37968303D01*
X151664563Y-37995363D01*
X151676453Y-38051875D01*
X151698572Y-38128281D01*
X151727812Y-38215023D01*
X151761065Y-38302544D01*
X151795225Y-38381286D01*
X151809976Y-38411138D01*
X151887088Y-38576886D01*
X151957318Y-38766283D01*
X152023238Y-38986693D01*
X152057739Y-39120350D01*
X152081621Y-39222505D01*
X152099307Y-39313785D01*
X152112067Y-39405118D01*
X152121170Y-39507429D01*
X152127886Y-39631647D01*
X152132773Y-39765933D01*
X152139018Y-39925622D01*
X152146499Y-40046462D01*
X152155547Y-40131927D01*
X152166494Y-40185491D01*
X152174499Y-40204396D01*
X152191382Y-40252351D01*
X152201957Y-40322618D01*
X152203766Y-40364674D01*
X152210071Y-40421917D01*
X152227762Y-40512613D01*
X152254999Y-40630002D01*
X152289945Y-40767321D01*
X152330762Y-40917809D01*
X152375612Y-41074704D01*
X152422656Y-41231244D01*
X152470056Y-41380669D01*
X152515975Y-41516217D01*
X152519567Y-41526364D01*
X152548952Y-41616190D01*
X152571458Y-41698539D01*
X152583596Y-41760059D01*
X152584766Y-41775776D01*
X152594423Y-41832375D01*
X152619122Y-41904981D01*
X152638609Y-41947928D01*
X152674660Y-42034184D01*
X152704718Y-42131822D01*
X152714201Y-42174766D01*
X152729150Y-42232442D01*
X152757694Y-42320583D01*
X152796822Y-42430713D01*
X152843519Y-42554359D01*
X152894773Y-42683046D01*
X152895924Y-42685857D01*
X152979865Y-42895728D01*
X153056222Y-43098124D01*
X153127284Y-43300294D01*
X153195339Y-43509486D01*
X153262676Y-43732951D01*
X153331585Y-43977937D01*
X153404353Y-44251692D01*
X153464315Y-44486100D01*
X153513103Y-44679868D01*
X153552434Y-44837999D01*
X153583328Y-44965869D01*
X153606806Y-45068858D01*
X153623888Y-45152342D01*
X153635595Y-45221700D01*
X153642948Y-45282310D01*
X153646967Y-45339550D01*
X153648673Y-45398798D01*
X153649076Y-45459766D01*
X153647164Y-45571208D01*
X153639927Y-45674835D01*
X153625760Y-45778791D01*
X153603060Y-45891215D01*
X153570225Y-46020251D01*
X153525650Y-46174041D01*
X153478186Y-46327600D01*
X153443000Y-46446451D01*
X153410267Y-46569581D01*
X153383839Y-46681755D01*
X153368508Y-46761516D01*
X153344547Y-46878669D01*
X153312989Y-46980010D01*
X153277150Y-47056851D01*
X153240345Y-47100506D01*
X153238739Y-47101539D01*
X153203024Y-47115905D01*
X153147211Y-47131538D01*
X153139272Y-47133379D01*
X153075008Y-47139653D01*
X153022219Y-47120066D01*
X153005583Y-47108974D01*
X152926099Y-47063660D01*
X152838631Y-47031112D01*
X152758563Y-47016106D01*
X152714835Y-47018674D01*
X152659592Y-47036985D01*
X152592457Y-47065640D01*
X152576202Y-47073536D01*
X152493555Y-47114965D01*
X152591949Y-47199070D01*
X152666071Y-47269158D01*
X152753616Y-47362741D01*
X152849702Y-47473478D01*
X152949445Y-47595029D01*
X153047961Y-47721053D01*
X153140367Y-47845211D01*
X153221780Y-47961163D01*
X153287316Y-48062568D01*
X153332092Y-48143087D01*
X153347267Y-48179683D01*
X153372749Y-48248744D01*
X153404047Y-48304975D01*
X153448667Y-48357118D01*
X153514117Y-48413916D01*
X153607905Y-48484112D01*
X153609934Y-48485578D01*
X153706979Y-48561596D01*
X153798522Y-48647368D01*
X153894325Y-48752650D01*
X153974701Y-48850104D01*
X154217290Y-49128781D01*
X154485688Y-49389362D01*
X154718615Y-49585708D01*
X154812929Y-49665425D01*
X154909337Y-49754658D01*
X154994232Y-49840461D01*
X155037629Y-49889262D01*
X155159544Y-50035898D01*
X155100691Y-50155541D01*
X155062535Y-50238691D01*
X155027576Y-50324103D01*
X155010992Y-50370433D01*
X154948857Y-50553744D01*
X154894536Y-50695825D01*
X154853647Y-50785832D01*
X154821922Y-50861181D01*
X154798375Y-50939818D01*
X154795564Y-50953501D01*
X154776060Y-51025124D01*
X154745178Y-51105576D01*
X154732387Y-51132895D01*
X154708094Y-51194222D01*
X154680643Y-51283634D01*
X154653963Y-51387478D01*
X154637945Y-51460979D01*
X154602016Y-51631719D01*
X154570111Y-51765085D01*
X154542590Y-51859781D01*
X154519811Y-51914510D01*
X154509142Y-51927290D01*
X154483007Y-51958174D01*
X154450210Y-52016441D01*
X154416762Y-52089079D01*
X154388670Y-52163079D01*
X154372253Y-52223685D01*
X154355186Y-52293233D01*
X154333233Y-52354112D01*
X154330150Y-52360544D01*
X154314027Y-52405957D01*
X154295011Y-52479473D01*
X154276547Y-52567339D01*
X154271816Y-52593378D01*
X154253766Y-52672749D01*
X154222395Y-52784329D01*
X154179944Y-52920956D01*
X154128653Y-53075471D01*
X154070760Y-53240711D01*
X154060092Y-53270266D01*
X154011250Y-53407728D01*
X153952567Y-53577378D01*
X153886490Y-53771777D01*
X153815465Y-53983487D01*
X153741939Y-54205068D01*
X153668360Y-54429081D01*
X153597175Y-54648089D01*
X153530831Y-54854651D01*
X153471775Y-55041328D01*
X153422454Y-55200682D01*
X153394955Y-55292251D01*
X153357350Y-55419819D01*
X152944600Y-55376918D01*
X152531850Y-55334016D01*
X152483506Y-55154100D01*
X152444044Y-55008944D01*
X152412057Y-54897054D01*
X152384638Y-54810654D01*
X152358879Y-54741968D01*
X152331873Y-54683222D01*
X152300711Y-54626640D01*
X152263732Y-54566419D01*
X152216290Y-54492472D01*
X152175928Y-54431714D01*
X152148926Y-54393513D01*
X152142983Y-54386350D01*
X152124626Y-54394089D01*
X152093986Y-54435467D01*
X152055004Y-54505022D01*
X152049604Y-54515700D01*
X152011850Y-54599499D01*
X151981348Y-54688617D01*
X151955752Y-54792459D01*
X151932717Y-54920431D01*
X151911525Y-55069433D01*
X151896291Y-55185850D01*
X151801320Y-55199173D01*
X151759958Y-55201014D01*
X151699179Y-55196872D01*
X151614995Y-55186133D01*
X151503417Y-55168184D01*
X151360458Y-55142410D01*
X151182130Y-55108197D01*
X151081933Y-55088425D01*
X150923147Y-55056821D01*
X150776378Y-55027506D01*
X150647170Y-55001597D01*
X150541066Y-54980207D01*
X150463611Y-54964454D01*
X150420348Y-54955452D01*
X150414599Y-54954171D01*
X150379903Y-54939524D01*
X150318289Y-54907492D01*
X150238829Y-54862979D01*
X150160599Y-54816924D01*
X149977004Y-54717914D01*
X149786076Y-54640090D01*
X149706100Y-54613651D01*
X149590357Y-54575479D01*
X149438464Y-54522252D01*
X149253386Y-54455099D01*
X149038089Y-54375150D01*
X148795540Y-54283535D01*
X148528705Y-54181383D01*
X148240551Y-54069824D01*
X147934043Y-53949987D01*
X147612148Y-53823002D01*
X147277831Y-53689999D01*
X147219016Y-53666488D01*
X147023892Y-53588504D01*
X146836465Y-53513737D01*
X146661276Y-53443988D01*
X146502865Y-53381058D01*
X146365772Y-53326749D01*
X146254537Y-53282861D01*
X146173701Y-53251197D01*
X146128933Y-53233979D01*
X146033454Y-53194943D01*
X145971004Y-53159065D01*
X145933489Y-53119457D01*
X145912814Y-53069236D01*
X145907655Y-53045754D01*
X145903397Y-53004753D01*
X145911294Y-52967436D01*
X145936185Y-52922831D01*
X145982908Y-52859965D01*
X145998050Y-52840763D01*
X146080825Y-52731085D01*
X146164778Y-52610358D01*
X146247331Y-52483339D01*
X146325903Y-52354786D01*
X146397915Y-52229455D01*
X146460786Y-52112105D01*
X146511936Y-52007492D01*
X146548787Y-51920374D01*
X146568758Y-51855509D01*
X146569269Y-51817653D01*
X146557138Y-51809766D01*
X146533418Y-51823340D01*
X146487103Y-51859755D01*
X146426149Y-51912549D01*
X146390801Y-51944804D01*
X146315871Y-52022507D01*
X146226477Y-52128030D01*
X146129180Y-52252452D01*
X146030544Y-52386852D01*
X145937133Y-52522308D01*
X145855509Y-52649900D01*
X145796453Y-52752697D01*
X145748612Y-52837954D01*
X145708519Y-52892849D01*
X145666869Y-52925766D01*
X145614356Y-52945092D01*
X145573356Y-52953725D01*
X145506320Y-52960073D01*
X145449736Y-52946694D01*
X145399118Y-52920656D01*
X145334596Y-52887028D01*
X145249551Y-52847624D01*
X145168564Y-52813494D01*
X145037445Y-52748172D01*
X144941903Y-52671424D01*
X144884508Y-52585602D01*
X144871153Y-52541300D01*
X144866132Y-52501183D01*
X144871928Y-52467195D01*
X144893635Y-52429206D01*
X144936344Y-52377086D01*
X144975912Y-52332894D01*
X145059496Y-52232489D01*
X145154870Y-52104640D01*
X145255052Y-51959846D01*
X145353061Y-51808607D01*
X145441916Y-51661424D01*
X145514635Y-51528795D01*
X145527254Y-51503671D01*
X145558965Y-51431623D01*
X145593946Y-51339708D01*
X145629764Y-51236005D01*
X145663984Y-51128591D01*
X145694176Y-51025543D01*
X145717905Y-50934938D01*
X145732739Y-50864854D01*
X145736245Y-50823368D01*
X145734138Y-50816826D01*
X145715545Y-50822960D01*
X145682962Y-50848576D01*
X145647375Y-50876066D01*
X145585087Y-50919232D01*
X145505524Y-50971689D01*
X145435071Y-51016490D01*
X145326150Y-51088349D01*
X145243691Y-51153021D01*
X145175636Y-51220880D01*
X145123198Y-51284772D01*
X145065083Y-51356435D01*
X144987469Y-51446498D01*
X144900638Y-51543274D01*
X144817574Y-51632249D01*
X144730075Y-51728457D01*
X144641264Y-51834072D01*
X144561994Y-51935753D01*
X144506960Y-52014139D01*
X144437200Y-52116445D01*
X144377803Y-52187327D01*
X144320841Y-52233537D01*
X144258381Y-52261829D01*
X144199344Y-52276059D01*
X144131596Y-52281916D01*
X144077813Y-52265964D01*
X144045840Y-52246600D01*
X143987789Y-52211976D01*
X143911600Y-52172165D01*
X143863190Y-52149210D01*
X143812730Y-52123525D01*
X143732849Y-52079304D01*
X143630095Y-52020337D01*
X143511014Y-51950411D01*
X143382155Y-51873319D01*
X143292600Y-51818927D01*
X143163164Y-51740794D01*
X143041118Y-51668947D01*
X142932499Y-51606796D01*
X142843340Y-51557751D01*
X142779677Y-51525224D01*
X142752850Y-51513895D01*
X142702085Y-51493093D01*
X142625035Y-51455854D01*
X142531844Y-51407307D01*
X142432655Y-51352577D01*
X142424766Y-51348085D01*
X141975588Y-51112521D01*
X141491962Y-50898451D01*
X140976369Y-50706674D01*
X140431289Y-50537986D01*
X139859204Y-50393186D01*
X139262594Y-50273071D01*
X138895967Y-50213491D01*
X138612011Y-50174460D01*
X138315990Y-50139503D01*
X138017053Y-50109398D01*
X137724349Y-50084921D01*
X137447026Y-50066850D01*
X137194232Y-50055961D01*
X137005665Y-50052933D01*
X136906786Y-50051387D01*
X136824129Y-50047179D01*
X136766452Y-50040957D01*
X136742601Y-50033522D01*
X136732586Y-50002016D01*
X136721560Y-49945690D01*
X136717720Y-49920107D01*
X136704835Y-49826103D01*
X136860759Y-49761352D01*
X136976939Y-49716470D01*
X137105111Y-49673935D01*
X137251461Y-49632078D01*
X137422175Y-49589229D01*
X137623440Y-49543717D01*
X137821016Y-49502130D01*
X137965843Y-49471968D01*
X138111674Y-49440798D01*
X138247778Y-49410968D01*
X138363429Y-49384830D01*
X138445433Y-49365347D01*
X138558064Y-49340639D01*
X138679948Y-49319043D01*
X138789306Y-49304296D01*
X138815850Y-49301811D01*
X138926983Y-49290101D01*
X139051268Y-49272844D01*
X139154516Y-49255116D01*
X139280329Y-49236617D01*
X139413574Y-49230560D01*
X139551443Y-49234817D01*
X139747681Y-49237845D01*
X139920335Y-49222537D01*
X139954642Y-49216991D01*
X140058110Y-49201727D01*
X140196576Y-49185470D01*
X140362733Y-49168824D01*
X140549275Y-49152394D01*
X140748896Y-49136782D01*
X140954289Y-49122593D01*
X141158149Y-49110430D01*
X141353169Y-49100897D01*
X141366433Y-49100338D01*
X141509836Y-49093386D01*
X141656258Y-49084576D01*
X141793410Y-49074766D01*
X141909003Y-49064809D01*
X141969683Y-49058313D01*
X142135866Y-49045501D01*
X142328066Y-49042728D01*
X142531304Y-49049476D01*
X142730600Y-49065223D01*
X142910977Y-49089449D01*
X142922183Y-49091392D01*
X143084871Y-49111608D01*
X143277687Y-49119684D01*
X143409016Y-49118893D01*
X143539975Y-49118403D01*
X143696227Y-49121228D01*
X143860903Y-49126875D01*
X144017133Y-49134855D01*
X144065183Y-49138001D01*
X144296064Y-49154208D01*
X144488768Y-49167873D01*
X144647353Y-49179330D01*
X144775880Y-49188914D01*
X144878405Y-49196959D01*
X144958989Y-49203801D01*
X145021688Y-49209772D01*
X145070563Y-49215209D01*
X145109672Y-49220446D01*
X145143074Y-49225817D01*
X145153862Y-49227735D01*
X145235941Y-49238463D01*
X145337374Y-49245994D01*
X145429029Y-49248603D01*
X145537674Y-49253160D01*
X145658318Y-49264997D01*
X145747933Y-49278621D01*
X145825460Y-49291303D01*
X145933318Y-49306253D01*
X146059674Y-49321961D01*
X146192692Y-49336919D01*
X146255933Y-49343437D01*
X146399183Y-49359567D01*
X146552231Y-49379910D01*
X146699454Y-49402200D01*
X146825226Y-49424171D01*
X146859183Y-49430928D01*
X146959618Y-49451091D01*
X147090678Y-49476410D01*
X147241279Y-49504797D01*
X147400335Y-49534167D01*
X147556763Y-49562434D01*
X147578850Y-49566367D01*
X147735466Y-49594456D01*
X147865557Y-49618709D01*
X147978130Y-49641276D01*
X148082195Y-49664309D01*
X148186759Y-49689957D01*
X148300833Y-49720370D01*
X148433424Y-49757697D01*
X148593541Y-49804090D01*
X148676040Y-49828223D01*
X149013482Y-49919586D01*
X149322729Y-49987839D01*
X149601329Y-50032484D01*
X149754713Y-50047878D01*
X149846776Y-50054326D01*
X149920838Y-50058802D01*
X149968277Y-50060832D01*
X149981266Y-50060362D01*
X149967550Y-50044379D01*
X149930829Y-50005214D01*
X149877747Y-49949902D01*
X149848975Y-49920265D01*
X149753189Y-49832101D01*
X149633971Y-49741174D01*
X149487540Y-49645069D01*
X149310118Y-49541372D01*
X149097925Y-49427671D01*
X148997016Y-49376095D01*
X148735658Y-49249472D01*
X148506324Y-49149795D01*
X148308545Y-49076872D01*
X148141850Y-49030517D01*
X148129183Y-49027813D01*
X148041469Y-49006219D01*
X147932592Y-48974591D01*
X147820796Y-48938368D01*
X147775302Y-48922347D01*
X147544943Y-48845604D01*
X147331583Y-48788252D01*
X147142600Y-48752161D01*
X147070901Y-48743667D01*
X146922786Y-48730016D01*
X146903761Y-48639628D01*
X146894809Y-48581809D01*
X146894759Y-48543130D01*
X146897440Y-48536536D01*
X146915145Y-48524476D01*
X146944333Y-48514082D01*
X146987911Y-48505235D01*
X147048788Y-48497815D01*
X147129872Y-48491704D01*
X147234072Y-48486782D01*
X147364296Y-48482930D01*
X147523452Y-48480029D01*
X147714448Y-48477959D01*
X147940193Y-48476601D01*
X148203594Y-48475836D01*
X148383183Y-48475610D01*
X148741221Y-48475040D01*
X149059100Y-48473863D01*
X149338991Y-48471980D01*
X149583065Y-48469291D01*
X149793494Y-48465697D01*
X149972449Y-48461100D01*
X150122100Y-48455401D01*
X150244620Y-48448501D01*
X150342179Y-48440302D01*
X150416949Y-48430703D01*
X150471100Y-48419606D01*
X150506805Y-48406913D01*
X150526233Y-48392525D01*
X150531600Y-48377765D01*
X150512373Y-48352897D01*
X150459171Y-48319135D01*
X150378710Y-48279258D01*
X150277706Y-48236047D01*
X150162876Y-48192281D01*
X150040935Y-48150740D01*
X149918601Y-48114204D01*
X149854266Y-48097418D01*
X149740242Y-48070384D01*
X149632928Y-48047495D01*
X149527394Y-48028358D01*
X149418706Y-48012580D01*
X149301933Y-47999768D01*
X149172143Y-47989530D01*
X149024403Y-47981471D01*
X148853781Y-47975199D01*
X148655346Y-47970322D01*
X148424165Y-47966446D01*
X148171516Y-47963353D01*
X147777977Y-47960785D01*
X147422236Y-47962226D01*
X147099923Y-47967948D01*
X146806667Y-47978223D01*
X146538098Y-47993324D01*
X146289847Y-48013523D01*
X146057543Y-48039092D01*
X145836816Y-48070304D01*
X145623296Y-48107431D01*
X145515100Y-48128868D01*
X145371732Y-48157783D01*
X145210041Y-48189382D01*
X145050124Y-48219788D01*
X144915506Y-48244513D01*
X144772886Y-48271252D01*
X144663497Y-48295381D01*
X144578598Y-48319830D01*
X144509450Y-48347532D01*
X144447316Y-48381417D01*
X144387192Y-48421744D01*
X144298016Y-48485395D01*
X143654872Y-48487775D01*
X143011729Y-48490155D01*
X142907851Y-48303169D01*
X142858101Y-48218978D01*
X142809394Y-48145708D01*
X142768870Y-48093702D01*
X142751953Y-48077376D01*
X142719392Y-48045232D01*
X142703913Y-48002524D01*
X142699934Y-47933690D01*
X142699933Y-47932345D01*
X142696258Y-47885016D01*
X142684054Y-47825578D01*
X142661552Y-47748405D01*
X142626984Y-47647872D01*
X142578581Y-47518353D01*
X142532467Y-47399652D01*
X142468008Y-47234524D01*
X142417819Y-47103023D01*
X142380163Y-46999586D01*
X142353303Y-46918650D01*
X142335500Y-46854652D01*
X142325019Y-46802030D01*
X142320121Y-46755219D01*
X142319051Y-46716259D01*
X142327958Y-46632024D01*
X142353430Y-46517104D01*
X142393328Y-46378789D01*
X142445510Y-46224371D01*
X142507836Y-46061141D01*
X142520522Y-46030039D01*
X142564396Y-45916519D01*
X142606519Y-45795276D01*
X142641023Y-45683791D01*
X142656611Y-45624722D01*
X142684171Y-45523020D01*
X142726171Y-45388178D01*
X142780437Y-45225996D01*
X142844798Y-45042273D01*
X142917082Y-44842808D01*
X142995117Y-44633400D01*
X143076731Y-44419848D01*
X143159751Y-44207951D01*
X143242006Y-44003508D01*
X143321324Y-43812319D01*
X143395532Y-43640181D01*
X143422930Y-43578772D01*
X143487846Y-43428256D01*
X143541968Y-43289373D01*
X143582005Y-43171037D01*
X143602775Y-43091939D01*
X143624918Y-43002968D01*
X143658368Y-42891450D01*
X143697972Y-42773842D01*
X143726280Y-42697516D01*
X143761420Y-42604454D01*
X143806276Y-42481730D01*
X143857102Y-42339817D01*
X143910151Y-42189187D01*
X143961676Y-42040316D01*
X143968565Y-42020183D01*
X144017248Y-41881587D01*
X144078291Y-41713962D01*
X144147885Y-41527403D01*
X144222223Y-41332006D01*
X144297498Y-41137867D01*
X144369903Y-40955080D01*
X144375156Y-40942000D01*
X144516264Y-40589071D01*
X144654784Y-40238854D01*
X144789563Y-39894435D01*
X144919450Y-39558902D01*
X145043289Y-39235342D01*
X145159929Y-38926842D01*
X145268216Y-38636489D01*
X145366998Y-38367370D01*
X145455121Y-38122573D01*
X145531432Y-37905184D01*
X145594777Y-37718290D01*
X145644005Y-37564980D01*
X145672235Y-37469350D01*
X145709489Y-37336929D01*
X145747526Y-37204483D01*
X145783046Y-37083315D01*
X145812749Y-36984729D01*
X145826707Y-36940183D01*
X145853910Y-36860909D01*
X145892605Y-36755606D01*
X145940596Y-36629645D01*
X145995688Y-36488397D01*
X146055686Y-36337233D01*
X146118395Y-36181523D01*
X146181619Y-36026639D01*
X146243162Y-35877951D01*
X146300831Y-35740830D01*
X146352429Y-35620646D01*
X146395762Y-35522772D01*
X146428633Y-35452577D01*
X146448847Y-35415432D01*
X146451146Y-35412477D01*
X146470685Y-35380254D01*
X146503126Y-35314358D01*
X146546048Y-35220580D01*
X146597033Y-35104710D01*
X146653660Y-34972540D01*
X146713510Y-34829860D01*
X146774163Y-34682461D01*
X146833200Y-34536133D01*
X146888201Y-34396668D01*
X146936746Y-34269855D01*
X146976415Y-34161486D01*
X146989114Y-34125016D01*
X147029188Y-34009318D01*
X147061044Y-33926215D01*
X147089923Y-33868168D01*
X147121067Y-33827636D01*
X147159719Y-33797078D01*
X147211121Y-33768954D01*
X147249501Y-33750472D01*
X147318601Y-33713891D01*
X147411409Y-33659499D01*
X147517063Y-33593912D01*
X147624699Y-33523749D01*
X147652933Y-33504715D01*
X147770984Y-33428171D01*
X147901960Y-33349216D01*
X148030657Y-33276688D01*
X148141873Y-33219428D01*
X148151293Y-33214955D01*
X148385070Y-33105005D01*
X148606376Y-33120897D01*
G37*
D10*
X148606376Y-33120897D02*
X148748210Y-33132990D01*
X148878970Y-33148908D01*
X149011962Y-33170805D01*
X149160490Y-33200840D01*
X149314516Y-33235693D01*
X149436777Y-33261483D01*
X149575124Y-33286402D01*
X149704743Y-33306079D01*
X149737850Y-33310262D01*
X149828896Y-33321882D01*
X149904100Y-33333032D01*
X149953563Y-33342158D01*
X149967226Y-33346272D01*
X149994382Y-33352076D01*
X150054470Y-33359454D01*
X150138164Y-33367395D01*
X150221226Y-33373853D01*
X150332362Y-33383530D01*
X150463655Y-33397870D01*
X150605602Y-33415533D01*
X150748702Y-33435183D01*
X150883449Y-33455479D01*
X151000342Y-33475085D01*
X151089878Y-33492660D01*
X151124266Y-33501045D01*
X151182802Y-33511285D01*
X151265966Y-33518669D01*
X151356075Y-33521643D01*
X151358805Y-33521648D01*
X151450631Y-33525824D01*
X151565787Y-33536947D01*
X151686213Y-33553074D01*
X151750389Y-33563778D01*
X151861018Y-33581651D01*
X151972042Y-33595813D01*
X152067537Y-33604401D01*
X152112424Y-33606111D01*
X152203892Y-33611112D01*
X152311077Y-33623808D01*
X152397702Y-33638906D01*
X152510196Y-33659701D01*
X152657849Y-33682550D01*
X152833588Y-33706558D01*
X153030341Y-33730827D01*
X153241036Y-33754463D01*
X153458601Y-33776570D01*
X153558433Y-33785924D01*
X153827339Y-33811857D01*
X154080827Y-33839132D01*
X154313385Y-33867052D01*
X154519504Y-33894922D01*
X154693671Y-33922046D01*
X154815540Y-33944624D01*
X154927187Y-33964050D01*
X155045200Y-33978872D01*
X155149572Y-33986749D01*
X155180905Y-33987433D01*
X155288592Y-33992280D01*
X155407159Y-34004849D01*
X155490784Y-34018618D01*
X155582809Y-34036302D01*
X155697001Y-34056638D01*
X155813639Y-34076157D01*
X155855016Y-34082717D01*
X155949579Y-34100343D01*
X156072012Y-34127443D01*
X156209735Y-34161007D01*
X156350169Y-34198022D01*
X156426516Y-34219486D01*
X156661108Y-34284416D01*
X156859760Y-34333255D01*
X157025429Y-34366614D01*
X157161074Y-34385103D01*
X157250309Y-34389600D01*
X157319909Y-34394490D01*
X157375097Y-34406960D01*
X157393105Y-34416058D01*
X157414742Y-34443261D01*
X157452194Y-34500274D01*
X157500911Y-34579790D01*
X157556346Y-34674506D01*
X157580888Y-34717683D01*
X157739192Y-34995784D01*
X157885384Y-35246714D01*
X158018495Y-35468946D01*
X158137557Y-35660951D01*
X158241601Y-35821199D01*
X158329658Y-35948162D01*
X158400762Y-36040311D01*
X158453942Y-36096118D01*
X158454229Y-36096360D01*
X158492526Y-36136732D01*
X158546455Y-36204355D01*
X158609404Y-36290460D01*
X158674765Y-36386279D01*
X158687605Y-36405930D01*
X158766091Y-36520508D01*
X158849438Y-36631234D01*
X158928427Y-36726301D01*
X158981834Y-36782714D01*
X159068044Y-36865917D01*
X159132415Y-36929206D01*
X159183671Y-36981960D01*
X159230535Y-37033557D01*
X159281729Y-37093378D01*
X159345976Y-37170802D01*
X159370968Y-37201131D01*
X159452942Y-37295505D01*
X159544495Y-37392754D01*
X159632496Y-37479276D01*
X159683968Y-37525348D01*
X159746033Y-37580350D01*
X159830133Y-37658720D01*
X159928890Y-37753375D01*
X160034924Y-37857237D01*
X160140859Y-37963223D01*
X160151850Y-37974363D01*
X160405135Y-38218852D01*
X160662913Y-38441028D01*
X160818600Y-38563734D01*
X160953570Y-38669344D01*
X161104162Y-38791105D01*
X161256914Y-38917885D01*
X161398362Y-39038553D01*
X161483174Y-39113187D01*
X161586871Y-39205452D01*
X161686501Y-39293042D01*
X161775279Y-39370071D01*
X161846419Y-39430651D01*
X161893135Y-39468896D01*
X161894041Y-39469600D01*
X161984879Y-39548416D01*
X162042868Y-39621227D01*
X162074661Y-39697245D01*
X162081256Y-39728881D01*
X162085406Y-39765561D01*
X162080773Y-39796379D01*
X162062323Y-39829414D01*
X162025025Y-39872746D01*
X161963846Y-39934454D01*
X161936546Y-39961218D01*
X161890103Y-40007365D01*
X161846243Y-40053042D01*
X161802818Y-40101251D01*
X161757680Y-40154995D01*
X161708682Y-40217278D01*
X161653675Y-40291102D01*
X161590511Y-40379470D01*
X161517044Y-40485386D01*
X161431124Y-40611853D01*
X161330605Y-40761873D01*
X161213339Y-40938450D01*
X161077177Y-41144587D01*
X160925688Y-41374600D01*
X160728375Y-41673224D01*
X160544769Y-41948637D01*
X160375862Y-42199416D01*
X160222649Y-42424138D01*
X160086121Y-42621380D01*
X159967270Y-42789720D01*
X159867091Y-42927734D01*
X159786574Y-43034001D01*
X159726714Y-43107097D01*
X159691918Y-43142848D01*
X159652584Y-43170901D01*
X159609321Y-43186738D01*
X159548542Y-43193639D01*
X159476256Y-43194933D01*
X159371757Y-43199071D01*
X159276807Y-43213647D01*
X159181314Y-43241907D01*
X159075184Y-43287093D01*
X158948324Y-43352451D01*
X158895543Y-43381595D01*
X158777741Y-43442603D01*
X158639515Y-43506797D01*
X158500969Y-43565139D01*
X158416183Y-43597086D01*
X158313008Y-43633634D01*
X158232122Y-43663388D01*
X158164135Y-43690673D01*
X158099656Y-43719812D01*
X158029296Y-43755130D01*
X157943665Y-43800950D01*
X157833370Y-43861596D01*
X157791766Y-43884601D01*
X157619323Y-43976684D01*
X157474431Y-44046336D01*
X157350579Y-44096264D01*
X157241253Y-44129175D01*
X157167916Y-44143846D01*
X157048343Y-44162597D01*
X156956358Y-43979444D01*
X156919556Y-43902338D01*
X156871203Y-43795392D01*
X156815442Y-43668081D01*
X156756417Y-43529881D01*
X156698271Y-43390268D01*
X156691564Y-43373904D01*
X156622938Y-43212055D01*
X156541602Y-43029561D01*
X156454925Y-42842404D01*
X156370278Y-42666568D01*
X156311329Y-42549350D01*
X156194422Y-42322749D01*
X156095104Y-42130415D01*
X156011600Y-41968969D01*
X155942135Y-41835033D01*
X155884934Y-41725228D01*
X155838223Y-41636175D01*
X155800228Y-41564495D01*
X155769174Y-41506810D01*
X155743287Y-41459742D01*
X155720791Y-41419910D01*
X155699913Y-41383938D01*
X155693666Y-41373338D01*
X155643846Y-41282857D01*
X155595358Y-41184700D01*
X155562264Y-41108754D01*
X155524465Y-41026767D01*
X155472240Y-40931296D01*
X155416701Y-40842622D01*
X155415139Y-40840334D01*
X155338537Y-40713691D01*
X155290307Y-40600298D01*
X155273061Y-40506325D01*
X155273051Y-40504872D01*
X155289931Y-40469524D01*
X155342155Y-40441428D01*
X155431688Y-40419995D01*
X155560492Y-40404635D01*
X155622183Y-40400139D01*
X155734809Y-40390965D01*
X155872265Y-40376628D01*
X156017643Y-40359044D01*
X156154036Y-40340130D01*
X156161827Y-40338955D01*
X156297987Y-40316862D01*
X156406453Y-40294898D01*
X156501667Y-40269102D01*
X156598071Y-40235513D01*
X156710106Y-40190170D01*
X156720899Y-40185611D01*
X156877060Y-40124341D01*
X157004888Y-40084524D01*
X157094742Y-40067769D01*
X157163808Y-40062746D01*
X157203808Y-40066660D01*
X157227783Y-40084060D01*
X157248772Y-40119497D01*
X157250045Y-40121954D01*
X157277878Y-40212937D01*
X157282451Y-40334366D01*
X157263664Y-40487709D01*
X157221417Y-40674432D01*
X157209441Y-40718433D01*
X157172088Y-40850705D01*
X157142408Y-40950035D01*
X157117149Y-41024376D01*
X157093057Y-41081685D01*
X157066879Y-41129918D01*
X157035364Y-41177029D01*
X157005330Y-41217658D01*
X156944034Y-41302347D01*
X156907306Y-41368356D01*
X156894819Y-41426765D01*
X156906246Y-41488652D01*
X156941259Y-41565097D01*
X156992400Y-41655046D01*
X157053672Y-41760254D01*
X157119695Y-41874934D01*
X157179625Y-41980210D01*
X157200841Y-42017920D01*
X157253080Y-42105382D01*
X157308712Y-42189185D01*
X157357671Y-42254377D01*
X157368433Y-42266841D01*
X157442516Y-42348691D01*
X157585157Y-42295997D01*
X157653815Y-42274531D01*
X157755230Y-42247842D01*
X157880433Y-42217863D01*
X158020454Y-42186528D01*
X158166328Y-42155771D01*
X158309084Y-42127525D01*
X158439756Y-42103724D01*
X158549374Y-42086301D01*
X158571944Y-42083233D01*
X158652317Y-42066929D01*
X158709786Y-42037197D01*
X158752386Y-41985965D01*
X158788151Y-41905164D01*
X158807330Y-41846788D01*
X158836678Y-41762187D01*
X158877898Y-41657023D01*
X158924046Y-41548652D01*
X158945439Y-41501600D01*
X159081478Y-41184572D01*
X159208053Y-40840341D01*
X159320305Y-40483783D01*
X159413376Y-40129777D01*
X159454272Y-39943321D01*
X159474200Y-39842240D01*
X159490416Y-39754904D01*
X159501295Y-39690428D01*
X159505214Y-39657928D01*
X159505204Y-39657440D01*
X159486849Y-39634033D01*
X159439968Y-39601518D01*
X159380193Y-39569667D01*
X159330217Y-39542840D01*
X159278439Y-39507375D01*
X159219561Y-39458581D01*
X159148280Y-39391771D01*
X159059298Y-39302254D01*
X158955288Y-39193753D01*
X158861645Y-39096021D01*
X158779255Y-39012974D01*
X158701574Y-38939024D01*
X158622060Y-38868586D01*
X158534171Y-38796074D01*
X158431363Y-38715901D01*
X158307096Y-38622482D01*
X158154825Y-38510230D01*
X158154257Y-38509813D01*
X157850100Y-38287321D01*
X157577808Y-38089338D01*
X157335621Y-37914650D01*
X157121784Y-37762042D01*
X156934538Y-37630301D01*
X156772126Y-37518211D01*
X156632791Y-37424557D01*
X156514776Y-37348125D01*
X156416322Y-37287701D01*
X156335674Y-37242070D01*
X156278523Y-37213411D01*
X156185182Y-37164219D01*
X156090847Y-37104698D01*
X156015337Y-37047394D01*
X156012878Y-37045227D01*
X155937843Y-36986892D01*
X155844245Y-36925525D01*
X155753717Y-36875131D01*
X155656108Y-36824975D01*
X155591060Y-36784917D01*
X155552152Y-36748542D01*
X155532966Y-36709436D01*
X155527080Y-36661183D01*
X155526933Y-36648529D01*
X155531355Y-36595946D01*
X155550013Y-36554177D01*
X155590993Y-36508916D01*
X155621405Y-36481362D01*
X155708141Y-36383634D01*
X155782501Y-36259893D01*
X155836142Y-36126269D01*
X155858531Y-36023072D01*
X155871843Y-35910670D01*
X155758319Y-35795718D01*
X155694779Y-35734638D01*
X155647543Y-35699514D01*
X155605805Y-35683787D01*
X155568854Y-35680766D01*
X155482596Y-35693696D01*
X155389440Y-35734149D01*
X155285483Y-35804623D01*
X155166822Y-35907614D01*
X155078869Y-35994296D01*
X154970198Y-36101418D01*
X154879908Y-36179799D01*
X154800626Y-36234297D01*
X154724981Y-36269769D01*
X154645598Y-36291073D01*
X154622442Y-36295046D01*
X154532868Y-36308938D01*
X154448935Y-36167659D01*
X154396709Y-36089123D01*
X154336206Y-36012381D01*
X154274836Y-35945368D01*
X154220009Y-35896021D01*
X154179133Y-35872274D01*
X154172205Y-35871266D01*
X154160074Y-35890284D01*
X154152443Y-35938825D01*
X154151100Y-35975238D01*
X154141655Y-36105256D01*
X154115441Y-36257281D01*
X154075642Y-36415984D01*
X154032120Y-36548420D01*
X153969355Y-36689477D01*
X153882468Y-36837928D01*
X153768662Y-36997688D01*
X153625139Y-37172673D01*
X153449101Y-37366796D01*
X153442047Y-37374271D01*
X153339559Y-37485030D01*
X153235340Y-37601704D01*
X153137560Y-37714865D01*
X153054390Y-37815085D01*
X153001997Y-37882100D01*
X152876362Y-38046497D01*
X152769023Y-38177896D01*
X152676533Y-38279621D01*
X152595442Y-38354995D01*
X152522302Y-38407341D01*
X152453665Y-38439984D01*
X152410562Y-38452058D01*
X152376950Y-38456705D01*
X152347591Y-38451158D01*
X152314518Y-38430228D01*
X152269766Y-38388729D01*
X152205369Y-38321472D01*
X152198031Y-38313651D01*
X152121482Y-38236877D01*
X152040095Y-38163074D01*
X151967466Y-38104329D01*
X151944031Y-38087833D01*
X151869013Y-38042682D01*
X151793669Y-38004411D01*
X151727854Y-37977256D01*
X151681423Y-37965454D01*
X151666008Y-37968303D01*
X151664563Y-37995363D01*
X151676453Y-38051875D01*
X151698572Y-38128281D01*
X151727812Y-38215023D01*
X151761065Y-38302544D01*
X151795225Y-38381286D01*
X151809976Y-38411138D01*
X151887088Y-38576886D01*
X151957318Y-38766283D01*
X152023238Y-38986693D01*
X152057739Y-39120350D01*
X152081621Y-39222505D01*
X152099307Y-39313785D01*
X152112067Y-39405118D01*
X152121170Y-39507429D01*
X152127886Y-39631647D01*
X152132773Y-39765933D01*
X152139018Y-39925622D01*
X152146499Y-40046462D01*
X152155547Y-40131927D01*
X152166494Y-40185491D01*
X152174499Y-40204396D01*
X152191382Y-40252351D01*
X152201957Y-40322618D01*
X152203766Y-40364674D01*
X152210071Y-40421917D01*
X152227762Y-40512613D01*
X152254999Y-40630002D01*
X152289945Y-40767321D01*
X152330762Y-40917809D01*
X152375612Y-41074704D01*
X152422656Y-41231244D01*
X152470056Y-41380669D01*
X152515975Y-41516217D01*
X152519567Y-41526364D01*
X152548952Y-41616190D01*
X152571458Y-41698539D01*
X152583596Y-41760059D01*
X152584766Y-41775776D01*
X152594423Y-41832375D01*
X152619122Y-41904981D01*
X152638609Y-41947928D01*
X152674660Y-42034184D01*
X152704718Y-42131822D01*
X152714201Y-42174766D01*
X152729150Y-42232442D01*
X152757694Y-42320583D01*
X152796822Y-42430713D01*
X152843519Y-42554359D01*
X152894773Y-42683046D01*
X152895924Y-42685857D01*
X152979865Y-42895728D01*
X153056222Y-43098124D01*
X153127284Y-43300294D01*
X153195339Y-43509486D01*
X153262676Y-43732951D01*
X153331585Y-43977937D01*
X153404353Y-44251692D01*
X153464315Y-44486100D01*
X153513103Y-44679868D01*
X153552434Y-44837999D01*
X153583328Y-44965869D01*
X153606806Y-45068858D01*
X153623888Y-45152342D01*
X153635595Y-45221700D01*
X153642948Y-45282310D01*
X153646967Y-45339550D01*
X153648673Y-45398798D01*
X153649076Y-45459766D01*
X153647164Y-45571208D01*
X153639927Y-45674835D01*
X153625760Y-45778791D01*
X153603060Y-45891215D01*
X153570225Y-46020251D01*
X153525650Y-46174041D01*
X153478186Y-46327600D01*
X153443000Y-46446451D01*
X153410267Y-46569581D01*
X153383839Y-46681755D01*
X153368508Y-46761516D01*
X153344547Y-46878669D01*
X153312989Y-46980010D01*
X153277150Y-47056851D01*
X153240345Y-47100506D01*
X153238739Y-47101539D01*
X153203024Y-47115905D01*
X153147211Y-47131538D01*
X153139272Y-47133379D01*
X153075008Y-47139653D01*
X153022219Y-47120066D01*
X153005583Y-47108974D01*
X152926099Y-47063660D01*
X152838631Y-47031112D01*
X152758563Y-47016106D01*
X152714835Y-47018674D01*
X152659592Y-47036985D01*
X152592457Y-47065640D01*
X152576202Y-47073536D01*
X152493555Y-47114965D01*
X152591949Y-47199070D01*
X152666071Y-47269158D01*
X152753616Y-47362741D01*
X152849702Y-47473478D01*
X152949445Y-47595029D01*
X153047961Y-47721053D01*
X153140367Y-47845211D01*
X153221780Y-47961163D01*
X153287316Y-48062568D01*
X153332092Y-48143087D01*
X153347267Y-48179683D01*
X153372749Y-48248744D01*
X153404047Y-48304975D01*
X153448667Y-48357118D01*
X153514117Y-48413916D01*
X153607905Y-48484112D01*
X153609934Y-48485578D01*
X153706979Y-48561596D01*
X153798522Y-48647368D01*
X153894325Y-48752650D01*
X153974701Y-48850104D01*
X154217290Y-49128781D01*
X154485688Y-49389362D01*
X154718615Y-49585708D01*
X154812929Y-49665425D01*
X154909337Y-49754658D01*
X154994232Y-49840461D01*
X155037629Y-49889262D01*
X155159544Y-50035898D01*
X155100691Y-50155541D01*
X155062535Y-50238691D01*
X155027576Y-50324103D01*
X155010992Y-50370433D01*
X154948857Y-50553744D01*
X154894536Y-50695825D01*
X154853647Y-50785832D01*
X154821922Y-50861181D01*
X154798375Y-50939818D01*
X154795564Y-50953501D01*
X154776060Y-51025124D01*
X154745178Y-51105576D01*
X154732387Y-51132895D01*
X154708094Y-51194222D01*
X154680643Y-51283634D01*
X154653963Y-51387478D01*
X154637945Y-51460979D01*
X154602016Y-51631719D01*
X154570111Y-51765085D01*
X154542590Y-51859781D01*
X154519811Y-51914510D01*
X154509142Y-51927290D01*
X154483007Y-51958174D01*
X154450210Y-52016441D01*
X154416762Y-52089079D01*
X154388670Y-52163079D01*
X154372253Y-52223685D01*
X154355186Y-52293233D01*
X154333233Y-52354112D01*
X154330150Y-52360544D01*
X154314027Y-52405957D01*
X154295011Y-52479473D01*
X154276547Y-52567339D01*
X154271816Y-52593378D01*
X154253766Y-52672749D01*
X154222395Y-52784329D01*
X154179944Y-52920956D01*
X154128653Y-53075471D01*
X154070760Y-53240711D01*
X154060092Y-53270266D01*
X154011250Y-53407728D01*
X153952567Y-53577378D01*
X153886490Y-53771777D01*
X153815465Y-53983487D01*
X153741939Y-54205068D01*
X153668360Y-54429081D01*
X153597175Y-54648089D01*
X153530831Y-54854651D01*
X153471775Y-55041328D01*
X153422454Y-55200682D01*
X153394955Y-55292251D01*
X153357350Y-55419819D01*
X152944600Y-55376918D01*
X152531850Y-55334016D01*
X152483506Y-55154100D01*
X152444044Y-55008944D01*
X152412057Y-54897054D01*
X152384638Y-54810654D01*
X152358879Y-54741968D01*
X152331873Y-54683222D01*
X152300711Y-54626640D01*
X152263732Y-54566419D01*
X152216290Y-54492472D01*
X152175928Y-54431714D01*
X152148926Y-54393513D01*
X152142983Y-54386350D01*
X152124626Y-54394089D01*
X152093986Y-54435467D01*
X152055004Y-54505022D01*
X152049604Y-54515700D01*
X152011850Y-54599499D01*
X151981348Y-54688617D01*
X151955752Y-54792459D01*
X151932717Y-54920431D01*
X151911525Y-55069433D01*
X151896291Y-55185850D01*
X151801320Y-55199173D01*
X151759958Y-55201014D01*
X151699179Y-55196872D01*
X151614995Y-55186133D01*
X151503417Y-55168184D01*
X151360458Y-55142410D01*
X151182130Y-55108197D01*
X151081933Y-55088425D01*
X150923147Y-55056821D01*
X150776378Y-55027506D01*
X150647170Y-55001597D01*
X150541066Y-54980207D01*
X150463611Y-54964454D01*
X150420348Y-54955452D01*
X150414599Y-54954171D01*
X150379903Y-54939524D01*
X150318289Y-54907492D01*
X150238829Y-54862979D01*
X150160599Y-54816924D01*
X149977004Y-54717914D01*
X149786076Y-54640090D01*
X149706100Y-54613651D01*
X149590357Y-54575479D01*
X149438464Y-54522252D01*
X149253386Y-54455099D01*
X149038089Y-54375150D01*
X148795540Y-54283535D01*
X148528705Y-54181383D01*
X148240551Y-54069824D01*
X147934043Y-53949987D01*
X147612148Y-53823002D01*
X147277831Y-53689999D01*
X147219016Y-53666488D01*
X147023892Y-53588504D01*
X146836465Y-53513737D01*
X146661276Y-53443988D01*
X146502865Y-53381058D01*
X146365772Y-53326749D01*
X146254537Y-53282861D01*
X146173701Y-53251197D01*
X146128933Y-53233979D01*
X146033454Y-53194943D01*
X145971004Y-53159065D01*
X145933489Y-53119457D01*
X145912814Y-53069236D01*
X145907655Y-53045754D01*
X145903397Y-53004753D01*
X145911294Y-52967436D01*
X145936185Y-52922831D01*
X145982908Y-52859965D01*
X145998050Y-52840763D01*
X146080825Y-52731085D01*
X146164778Y-52610358D01*
X146247331Y-52483339D01*
X146325903Y-52354786D01*
X146397915Y-52229455D01*
X146460786Y-52112105D01*
X146511936Y-52007492D01*
X146548787Y-51920374D01*
X146568758Y-51855509D01*
X146569269Y-51817653D01*
X146557138Y-51809766D01*
X146533418Y-51823340D01*
X146487103Y-51859755D01*
X146426149Y-51912549D01*
X146390801Y-51944804D01*
X146315871Y-52022507D01*
X146226477Y-52128030D01*
X146129180Y-52252452D01*
X146030544Y-52386852D01*
X145937133Y-52522308D01*
X145855509Y-52649900D01*
X145796453Y-52752697D01*
X145748612Y-52837954D01*
X145708519Y-52892849D01*
X145666869Y-52925766D01*
X145614356Y-52945092D01*
X145573356Y-52953725D01*
X145506320Y-52960073D01*
X145449736Y-52946694D01*
X145399118Y-52920656D01*
X145334596Y-52887028D01*
X145249551Y-52847624D01*
X145168564Y-52813494D01*
X145037445Y-52748172D01*
X144941903Y-52671424D01*
X144884508Y-52585602D01*
X144871153Y-52541300D01*
X144866132Y-52501183D01*
X144871928Y-52467195D01*
X144893635Y-52429206D01*
X144936344Y-52377086D01*
X144975912Y-52332894D01*
X145059496Y-52232489D01*
X145154870Y-52104640D01*
X145255052Y-51959846D01*
X145353061Y-51808607D01*
X145441916Y-51661424D01*
X145514635Y-51528795D01*
X145527254Y-51503671D01*
X145558965Y-51431623D01*
X145593946Y-51339708D01*
X145629764Y-51236005D01*
X145663984Y-51128591D01*
X145694176Y-51025543D01*
X145717905Y-50934938D01*
X145732739Y-50864854D01*
X145736245Y-50823368D01*
X145734138Y-50816826D01*
X145715545Y-50822960D01*
X145682962Y-50848576D01*
X145647375Y-50876066D01*
X145585087Y-50919232D01*
X145505524Y-50971689D01*
X145435071Y-51016490D01*
X145326150Y-51088349D01*
X145243691Y-51153021D01*
X145175636Y-51220880D01*
X145123198Y-51284772D01*
X145065083Y-51356435D01*
X144987469Y-51446498D01*
X144900638Y-51543274D01*
X144817574Y-51632249D01*
X144730075Y-51728457D01*
X144641264Y-51834072D01*
X144561994Y-51935753D01*
X144506960Y-52014139D01*
X144437200Y-52116445D01*
X144377803Y-52187327D01*
X144320841Y-52233537D01*
X144258381Y-52261829D01*
X144199344Y-52276059D01*
X144131596Y-52281916D01*
X144077813Y-52265964D01*
X144045840Y-52246600D01*
X143987789Y-52211976D01*
X143911600Y-52172165D01*
X143863190Y-52149210D01*
X143812730Y-52123525D01*
X143732849Y-52079304D01*
X143630095Y-52020337D01*
X143511014Y-51950411D01*
X143382155Y-51873319D01*
X143292600Y-51818927D01*
X143163164Y-51740794D01*
X143041118Y-51668947D01*
X142932499Y-51606796D01*
X142843340Y-51557751D01*
X142779677Y-51525224D01*
X142752850Y-51513895D01*
X142702085Y-51493093D01*
X142625035Y-51455854D01*
X142531844Y-51407307D01*
X142432655Y-51352577D01*
X142424766Y-51348085D01*
X141975588Y-51112521D01*
X141491962Y-50898451D01*
X140976369Y-50706674D01*
X140431289Y-50537986D01*
X139859204Y-50393186D01*
X139262594Y-50273071D01*
X138895967Y-50213491D01*
X138612011Y-50174460D01*
X138315990Y-50139503D01*
X138017053Y-50109398D01*
X137724349Y-50084921D01*
X137447026Y-50066850D01*
X137194232Y-50055961D01*
X137005665Y-50052933D01*
X136906786Y-50051387D01*
X136824129Y-50047179D01*
X136766452Y-50040957D01*
X136742601Y-50033522D01*
X136732586Y-50002016D01*
X136721560Y-49945690D01*
X136717720Y-49920107D01*
X136704835Y-49826103D01*
X136860759Y-49761352D01*
X136976939Y-49716470D01*
X137105111Y-49673935D01*
X137251461Y-49632078D01*
X137422175Y-49589229D01*
X137623440Y-49543717D01*
X137821016Y-49502130D01*
X137965843Y-49471968D01*
X138111674Y-49440798D01*
X138247778Y-49410968D01*
X138363429Y-49384830D01*
X138445433Y-49365347D01*
X138558064Y-49340639D01*
X138679948Y-49319043D01*
X138789306Y-49304296D01*
X138815850Y-49301811D01*
X138926983Y-49290101D01*
X139051268Y-49272844D01*
X139154516Y-49255116D01*
X139280329Y-49236617D01*
X139413574Y-49230560D01*
X139551443Y-49234817D01*
X139747681Y-49237845D01*
X139920335Y-49222537D01*
X139954642Y-49216991D01*
X140058110Y-49201727D01*
X140196576Y-49185470D01*
X140362733Y-49168824D01*
X140549275Y-49152394D01*
X140748896Y-49136782D01*
X140954289Y-49122593D01*
X141158149Y-49110430D01*
X141353169Y-49100897D01*
X141366433Y-49100338D01*
X141509836Y-49093386D01*
X141656258Y-49084576D01*
X141793410Y-49074766D01*
X141909003Y-49064809D01*
X141969683Y-49058313D01*
X142135866Y-49045501D01*
X142328066Y-49042728D01*
X142531304Y-49049476D01*
X142730600Y-49065223D01*
X142910977Y-49089449D01*
X142922183Y-49091392D01*
X143084871Y-49111608D01*
X143277687Y-49119684D01*
X143409016Y-49118893D01*
X143539975Y-49118403D01*
X143696227Y-49121228D01*
X143860903Y-49126875D01*
X144017133Y-49134855D01*
X144065183Y-49138001D01*
X144296064Y-49154208D01*
X144488768Y-49167873D01*
X144647353Y-49179330D01*
X144775880Y-49188914D01*
X144878405Y-49196959D01*
X144958989Y-49203801D01*
X145021688Y-49209772D01*
X145070563Y-49215209D01*
X145109672Y-49220446D01*
X145143074Y-49225817D01*
X145153862Y-49227735D01*
X145235941Y-49238463D01*
X145337374Y-49245994D01*
X145429029Y-49248603D01*
X145537674Y-49253160D01*
X145658318Y-49264997D01*
X145747933Y-49278621D01*
X145825460Y-49291303D01*
X145933318Y-49306253D01*
X146059674Y-49321961D01*
X146192692Y-49336919D01*
X146255933Y-49343437D01*
X146399183Y-49359567D01*
X146552231Y-49379910D01*
X146699454Y-49402200D01*
X146825226Y-49424171D01*
X146859183Y-49430928D01*
X146959618Y-49451091D01*
X147090678Y-49476410D01*
X147241279Y-49504797D01*
X147400335Y-49534167D01*
X147556763Y-49562434D01*
X147578850Y-49566367D01*
X147735466Y-49594456D01*
X147865557Y-49618709D01*
X147978130Y-49641276D01*
X148082195Y-49664309D01*
X148186759Y-49689957D01*
X148300833Y-49720370D01*
X148433424Y-49757697D01*
X148593541Y-49804090D01*
X148676040Y-49828223D01*
X149013482Y-49919586D01*
X149322729Y-49987839D01*
X149601329Y-50032484D01*
X149754713Y-50047878D01*
X149846776Y-50054326D01*
X149920838Y-50058802D01*
X149968277Y-50060832D01*
X149981266Y-50060362D01*
X149967550Y-50044379D01*
X149930829Y-50005214D01*
X149877747Y-49949902D01*
X149848975Y-49920265D01*
X149753189Y-49832101D01*
X149633971Y-49741174D01*
X149487540Y-49645069D01*
X149310118Y-49541372D01*
X149097925Y-49427671D01*
X148997016Y-49376095D01*
X148735658Y-49249472D01*
X148506324Y-49149795D01*
X148308545Y-49076872D01*
X148141850Y-49030517D01*
X148129183Y-49027813D01*
X148041469Y-49006219D01*
X147932592Y-48974591D01*
X147820796Y-48938368D01*
X147775302Y-48922347D01*
X147544943Y-48845604D01*
X147331583Y-48788252D01*
X147142600Y-48752161D01*
X147070901Y-48743667D01*
X146922786Y-48730016D01*
X146903761Y-48639628D01*
X146894809Y-48581809D01*
X146894759Y-48543130D01*
X146897440Y-48536536D01*
X146915145Y-48524476D01*
X146944333Y-48514082D01*
X146987911Y-48505235D01*
X147048788Y-48497815D01*
X147129872Y-48491704D01*
X147234072Y-48486782D01*
X147364296Y-48482930D01*
X147523452Y-48480029D01*
X147714448Y-48477959D01*
X147940193Y-48476601D01*
X148203594Y-48475836D01*
X148383183Y-48475610D01*
X148741221Y-48475040D01*
X149059100Y-48473863D01*
X149338991Y-48471980D01*
X149583065Y-48469291D01*
X149793494Y-48465697D01*
X149972449Y-48461100D01*
X150122100Y-48455401D01*
X150244620Y-48448501D01*
X150342179Y-48440302D01*
X150416949Y-48430703D01*
X150471100Y-48419606D01*
X150506805Y-48406913D01*
X150526233Y-48392525D01*
X150531600Y-48377765D01*
X150512373Y-48352897D01*
X150459171Y-48319135D01*
X150378710Y-48279258D01*
X150277706Y-48236047D01*
X150162876Y-48192281D01*
X150040935Y-48150740D01*
X149918601Y-48114204D01*
X149854266Y-48097418D01*
X149740242Y-48070384D01*
X149632928Y-48047495D01*
X149527394Y-48028358D01*
X149418706Y-48012580D01*
X149301933Y-47999768D01*
X149172143Y-47989530D01*
X149024403Y-47981471D01*
X148853781Y-47975199D01*
X148655346Y-47970322D01*
X148424165Y-47966446D01*
X148171516Y-47963353D01*
X147777977Y-47960785D01*
X147422236Y-47962226D01*
X147099923Y-47967948D01*
X146806667Y-47978223D01*
X146538098Y-47993324D01*
X146289847Y-48013523D01*
X146057543Y-48039092D01*
X145836816Y-48070304D01*
X145623296Y-48107431D01*
X145515100Y-48128868D01*
X145371732Y-48157783D01*
X145210041Y-48189382D01*
X145050124Y-48219788D01*
X144915506Y-48244513D01*
X144772886Y-48271252D01*
X144663497Y-48295381D01*
X144578598Y-48319830D01*
X144509450Y-48347532D01*
X144447316Y-48381417D01*
X144387192Y-48421744D01*
X144298016Y-48485395D01*
X143654872Y-48487775D01*
X143011729Y-48490155D01*
X142907851Y-48303169D01*
X142858101Y-48218978D01*
X142809394Y-48145708D01*
X142768870Y-48093702D01*
X142751953Y-48077376D01*
X142719392Y-48045232D01*
X142703913Y-48002524D01*
X142699934Y-47933690D01*
X142699933Y-47932345D01*
X142696258Y-47885016D01*
X142684054Y-47825578D01*
X142661552Y-47748405D01*
X142626984Y-47647872D01*
X142578581Y-47518353D01*
X142532467Y-47399652D01*
X142468008Y-47234524D01*
X142417819Y-47103023D01*
X142380163Y-46999586D01*
X142353303Y-46918650D01*
X142335500Y-46854652D01*
X142325019Y-46802030D01*
X142320121Y-46755219D01*
X142319051Y-46716259D01*
X142327958Y-46632024D01*
X142353430Y-46517104D01*
X142393328Y-46378789D01*
X142445510Y-46224371D01*
X142507836Y-46061141D01*
X142520522Y-46030039D01*
X142564396Y-45916519D01*
X142606519Y-45795276D01*
X142641023Y-45683791D01*
X142656611Y-45624722D01*
X142684171Y-45523020D01*
X142726171Y-45388178D01*
X142780437Y-45225996D01*
X142844798Y-45042273D01*
X142917082Y-44842808D01*
X142995117Y-44633400D01*
X143076731Y-44419848D01*
X143159751Y-44207951D01*
X143242006Y-44003508D01*
X143321324Y-43812319D01*
X143395532Y-43640181D01*
X143422930Y-43578772D01*
X143487846Y-43428256D01*
X143541968Y-43289373D01*
X143582005Y-43171037D01*
X143602775Y-43091939D01*
X143624918Y-43002968D01*
X143658368Y-42891450D01*
X143697972Y-42773842D01*
X143726280Y-42697516D01*
X143761420Y-42604454D01*
X143806276Y-42481730D01*
X143857102Y-42339817D01*
X143910151Y-42189187D01*
X143961676Y-42040316D01*
X143968565Y-42020183D01*
X144017248Y-41881587D01*
X144078291Y-41713962D01*
X144147885Y-41527403D01*
X144222223Y-41332006D01*
X144297498Y-41137867D01*
X144369903Y-40955080D01*
X144375156Y-40942000D01*
X144516264Y-40589071D01*
X144654784Y-40238854D01*
X144789563Y-39894435D01*
X144919450Y-39558902D01*
X145043289Y-39235342D01*
X145159929Y-38926842D01*
X145268216Y-38636489D01*
X145366998Y-38367370D01*
X145455121Y-38122573D01*
X145531432Y-37905184D01*
X145594777Y-37718290D01*
X145644005Y-37564980D01*
X145672235Y-37469350D01*
X145709489Y-37336929D01*
X145747526Y-37204483D01*
X145783046Y-37083315D01*
X145812749Y-36984729D01*
X145826707Y-36940183D01*
X145853910Y-36860909D01*
X145892605Y-36755606D01*
X145940596Y-36629645D01*
X145995688Y-36488397D01*
X146055686Y-36337233D01*
X146118395Y-36181523D01*
X146181619Y-36026639D01*
X146243162Y-35877951D01*
X146300831Y-35740830D01*
X146352429Y-35620646D01*
X146395762Y-35522772D01*
X146428633Y-35452577D01*
X146448847Y-35415432D01*
X146451146Y-35412477D01*
X146470685Y-35380254D01*
X146503126Y-35314358D01*
X146546048Y-35220580D01*
X146597033Y-35104710D01*
X146653660Y-34972540D01*
X146713510Y-34829860D01*
X146774163Y-34682461D01*
X146833200Y-34536133D01*
X146888201Y-34396668D01*
X146936746Y-34269855D01*
X146976415Y-34161486D01*
X146989114Y-34125016D01*
X147029188Y-34009318D01*
X147061044Y-33926215D01*
X147089923Y-33868168D01*
X147121067Y-33827636D01*
X147159719Y-33797078D01*
X147211121Y-33768954D01*
X147249501Y-33750472D01*
X147318601Y-33713891D01*
X147411409Y-33659499D01*
X147517063Y-33593912D01*
X147624699Y-33523749D01*
X147652933Y-33504715D01*
X147770984Y-33428171D01*
X147901960Y-33349216D01*
X148030657Y-33276688D01*
X148141873Y-33219428D01*
X148151293Y-33214955D01*
X148385070Y-33105005D01*
X148606376Y-33120897D01*
G36*
X158649016Y-49744387D02*
G01*
X159051848Y-49780725D01*
X159427683Y-49845215D01*
X159775188Y-49937462D01*
X160093033Y-50057069D01*
X160379885Y-50203638D01*
X160543433Y-50309179D01*
X160717825Y-50445718D01*
X160852540Y-50582757D01*
X160950110Y-50724003D01*
X161013069Y-50873164D01*
X161043950Y-51033948D01*
X161044734Y-51042787D01*
X161048553Y-51124486D01*
X161045014Y-51181013D01*
X161036319Y-51202775D01*
X161010898Y-51210223D01*
X160961038Y-51214027D01*
X160881116Y-51214337D01*
X160765504Y-51211302D01*
X160743312Y-51210516D01*
X160677354Y-51212713D01*
X160612590Y-51227147D01*
X160534967Y-51257807D01*
X160473437Y-51287100D01*
X160399815Y-51325609D01*
X160343524Y-51359093D01*
X160313372Y-51382145D01*
X160310600Y-51387101D01*
X160330005Y-51417168D01*
X160382720Y-51452170D01*
X160460489Y-51489005D01*
X160555059Y-51524568D01*
X160658175Y-51555758D01*
X160761582Y-51579471D01*
X160857027Y-51592604D01*
X160857311Y-51592626D01*
X160957271Y-51603699D01*
X161021491Y-51622688D01*
X161056524Y-51655719D01*
X161068925Y-51708918D01*
X161065382Y-51787090D01*
X161052476Y-51874457D01*
X161030594Y-51979929D01*
X161002579Y-52093331D01*
X160971273Y-52204485D01*
X160939519Y-52303216D01*
X160910160Y-52379347D01*
X160888786Y-52419268D01*
X160839697Y-52464471D01*
X160775203Y-52500057D01*
X160766148Y-52503347D01*
X160712177Y-52518096D01*
X160673512Y-52513863D01*
X160629313Y-52486789D01*
X160613793Y-52475111D01*
X160526182Y-52418091D01*
X160413616Y-52359245D01*
X160285174Y-52301901D01*
X160149936Y-52249386D01*
X160016982Y-52205027D01*
X159895391Y-52172152D01*
X159794245Y-52154089D01*
X159733681Y-52152585D01*
X159713496Y-52156740D01*
X159708066Y-52166048D01*
X159721079Y-52183769D01*
X159756224Y-52213167D01*
X159817190Y-52257501D01*
X159907666Y-52320035D01*
X159974505Y-52365513D01*
X160096700Y-52445494D01*
X160218727Y-52520149D01*
X160330501Y-52583603D01*
X160421934Y-52629979D01*
X160448183Y-52641467D01*
X160617516Y-52710924D01*
X160623963Y-52810575D01*
X160622288Y-52886955D01*
X160601244Y-52945862D01*
X160579169Y-52979122D01*
X160546357Y-53027261D01*
X160500016Y-53100380D01*
X160447541Y-53186658D01*
X160416948Y-53238516D01*
X160338498Y-53367924D01*
X160266852Y-53471349D01*
X160192643Y-53559178D01*
X160106504Y-53641799D01*
X159999069Y-53729597D01*
X159920417Y-53789138D01*
X159768748Y-53899013D01*
X159606710Y-54011237D01*
X159438757Y-54123153D01*
X159269343Y-54232100D01*
X159102921Y-54335422D01*
X158943948Y-54430460D01*
X158796876Y-54514555D01*
X158666160Y-54585049D01*
X158556255Y-54639285D01*
X158471615Y-54674603D01*
X158416694Y-54688345D01*
X158413540Y-54688433D01*
X158338177Y-54706386D01*
X158282460Y-54741350D01*
X158226888Y-54776492D01*
X158172337Y-54793868D01*
X158165203Y-54794266D01*
X158115013Y-54801986D01*
X158045117Y-54821781D01*
X157998925Y-54838415D01*
X157877846Y-54884325D01*
X157733998Y-54935851D01*
X157574218Y-54990822D01*
X157405343Y-55047063D01*
X157234210Y-55102401D01*
X157067656Y-55154663D01*
X156912518Y-55201675D01*
X156775633Y-55241264D01*
X156663838Y-55271257D01*
X156583971Y-55289481D01*
X156574683Y-55291148D01*
X156465398Y-55312066D01*
X156333798Y-55340896D01*
X156198140Y-55373479D01*
X156099586Y-55399286D01*
X155999731Y-55426416D01*
X155915007Y-55448905D01*
X155853556Y-55464631D01*
X155823521Y-55471471D01*
X155822222Y-55471600D01*
X155823944Y-55452680D01*
X155837523Y-55400299D01*
X155861033Y-55321020D01*
X155892551Y-55221410D01*
X155919978Y-55138225D01*
X155972612Y-54980508D01*
X156030731Y-54805270D01*
X156092964Y-54616738D01*
X156157937Y-54419138D01*
X156224278Y-54216695D01*
X156290615Y-54013636D01*
X156355573Y-53814187D01*
X156417781Y-53622574D01*
X156475865Y-53443023D01*
X156528453Y-53279761D01*
X156574172Y-53137014D01*
X156611649Y-53019007D01*
X156639511Y-52929967D01*
X156656386Y-52874120D01*
X156660834Y-52857516D01*
X156687981Y-52748855D01*
X156729197Y-52616273D01*
X156780017Y-52473909D01*
X156791121Y-52445041D01*
X156821988Y-52355057D01*
X156853625Y-52245466D01*
X156879702Y-52138394D01*
X156881996Y-52127541D01*
X156926703Y-51962633D01*
X156985763Y-51824716D01*
X157056428Y-51719368D01*
X157106688Y-51671453D01*
X157161137Y-51620801D01*
X157204183Y-51565471D01*
X157209705Y-51555723D01*
X157231797Y-51482797D01*
X157240357Y-51386222D01*
X157235030Y-51282580D01*
X157217459Y-51194909D01*
X157206799Y-51146046D01*
X157206726Y-51094705D01*
X157218363Y-51027764D01*
X157238625Y-50947595D01*
X157260131Y-50860356D01*
X157276076Y-50781308D01*
X157283553Y-50725227D01*
X157283777Y-50718241D01*
X157291368Y-50662941D01*
X157310773Y-50589420D01*
X157326110Y-50544831D01*
X157350830Y-50462283D01*
X157366075Y-50377648D01*
X157368433Y-50341117D01*
X157376198Y-50258753D01*
X157395360Y-50173506D01*
X157400183Y-50158766D01*
X157420491Y-50077878D01*
X157431360Y-49989142D01*
X157431933Y-49968573D01*
X157431933Y-49868369D01*
X157659475Y-49823452D01*
X157946775Y-49776837D01*
X158236460Y-49748745D01*
X158513192Y-49740402D01*
X158649016Y-49744387D01*
G37*
X158649016Y-49744387D02*
X159051848Y-49780725D01*
X159427683Y-49845215D01*
X159775188Y-49937462D01*
X160093033Y-50057069D01*
X160379885Y-50203638D01*
X160543433Y-50309179D01*
X160717825Y-50445718D01*
X160852540Y-50582757D01*
X160950110Y-50724003D01*
X161013069Y-50873164D01*
X161043950Y-51033948D01*
X161044734Y-51042787D01*
X161048553Y-51124486D01*
X161045014Y-51181013D01*
X161036319Y-51202775D01*
X161010898Y-51210223D01*
X160961038Y-51214027D01*
X160881116Y-51214337D01*
X160765504Y-51211302D01*
X160743312Y-51210516D01*
X160677354Y-51212713D01*
X160612590Y-51227147D01*
X160534967Y-51257807D01*
X160473437Y-51287100D01*
X160399815Y-51325609D01*
X160343524Y-51359093D01*
X160313372Y-51382145D01*
X160310600Y-51387101D01*
X160330005Y-51417168D01*
X160382720Y-51452170D01*
X160460489Y-51489005D01*
X160555059Y-51524568D01*
X160658175Y-51555758D01*
X160761582Y-51579471D01*
X160857027Y-51592604D01*
X160857311Y-51592626D01*
X160957271Y-51603699D01*
X161021491Y-51622688D01*
X161056524Y-51655719D01*
X161068925Y-51708918D01*
X161065382Y-51787090D01*
X161052476Y-51874457D01*
X161030594Y-51979929D01*
X161002579Y-52093331D01*
X160971273Y-52204485D01*
X160939519Y-52303216D01*
X160910160Y-52379347D01*
X160888786Y-52419268D01*
X160839697Y-52464471D01*
X160775203Y-52500057D01*
X160766148Y-52503347D01*
X160712177Y-52518096D01*
X160673512Y-52513863D01*
X160629313Y-52486789D01*
X160613793Y-52475111D01*
X160526182Y-52418091D01*
X160413616Y-52359245D01*
X160285174Y-52301901D01*
X160149936Y-52249386D01*
X160016982Y-52205027D01*
X159895391Y-52172152D01*
X159794245Y-52154089D01*
X159733681Y-52152585D01*
X159713496Y-52156740D01*
X159708066Y-52166048D01*
X159721079Y-52183769D01*
X159756224Y-52213167D01*
X159817190Y-52257501D01*
X159907666Y-52320035D01*
X159974505Y-52365513D01*
X160096700Y-52445494D01*
X160218727Y-52520149D01*
X160330501Y-52583603D01*
X160421934Y-52629979D01*
X160448183Y-52641467D01*
X160617516Y-52710924D01*
X160623963Y-52810575D01*
X160622288Y-52886955D01*
X160601244Y-52945862D01*
X160579169Y-52979122D01*
X160546357Y-53027261D01*
X160500016Y-53100380D01*
X160447541Y-53186658D01*
X160416948Y-53238516D01*
X160338498Y-53367924D01*
X160266852Y-53471349D01*
X160192643Y-53559178D01*
X160106504Y-53641799D01*
X159999069Y-53729597D01*
X159920417Y-53789138D01*
X159768748Y-53899013D01*
X159606710Y-54011237D01*
X159438757Y-54123153D01*
X159269343Y-54232100D01*
X159102921Y-54335422D01*
X158943948Y-54430460D01*
X158796876Y-54514555D01*
X158666160Y-54585049D01*
X158556255Y-54639285D01*
X158471615Y-54674603D01*
X158416694Y-54688345D01*
X158413540Y-54688433D01*
X158338177Y-54706386D01*
X158282460Y-54741350D01*
X158226888Y-54776492D01*
X158172337Y-54793868D01*
X158165203Y-54794266D01*
X158115013Y-54801986D01*
X158045117Y-54821781D01*
X157998925Y-54838415D01*
X157877846Y-54884325D01*
X157733998Y-54935851D01*
X157574218Y-54990822D01*
X157405343Y-55047063D01*
X157234210Y-55102401D01*
X157067656Y-55154663D01*
X156912518Y-55201675D01*
X156775633Y-55241264D01*
X156663838Y-55271257D01*
X156583971Y-55289481D01*
X156574683Y-55291148D01*
X156465398Y-55312066D01*
X156333798Y-55340896D01*
X156198140Y-55373479D01*
X156099586Y-55399286D01*
X155999731Y-55426416D01*
X155915007Y-55448905D01*
X155853556Y-55464631D01*
X155823521Y-55471471D01*
X155822222Y-55471600D01*
X155823944Y-55452680D01*
X155837523Y-55400299D01*
X155861033Y-55321020D01*
X155892551Y-55221410D01*
X155919978Y-55138225D01*
X155972612Y-54980508D01*
X156030731Y-54805270D01*
X156092964Y-54616738D01*
X156157937Y-54419138D01*
X156224278Y-54216695D01*
X156290615Y-54013636D01*
X156355573Y-53814187D01*
X156417781Y-53622574D01*
X156475865Y-53443023D01*
X156528453Y-53279761D01*
X156574172Y-53137014D01*
X156611649Y-53019007D01*
X156639511Y-52929967D01*
X156656386Y-52874120D01*
X156660834Y-52857516D01*
X156687981Y-52748855D01*
X156729197Y-52616273D01*
X156780017Y-52473909D01*
X156791121Y-52445041D01*
X156821988Y-52355057D01*
X156853625Y-52245466D01*
X156879702Y-52138394D01*
X156881996Y-52127541D01*
X156926703Y-51962633D01*
X156985763Y-51824716D01*
X157056428Y-51719368D01*
X157106688Y-51671453D01*
X157161137Y-51620801D01*
X157204183Y-51565471D01*
X157209705Y-51555723D01*
X157231797Y-51482797D01*
X157240357Y-51386222D01*
X157235030Y-51282580D01*
X157217459Y-51194909D01*
X157206799Y-51146046D01*
X157206726Y-51094705D01*
X157218363Y-51027764D01*
X157238625Y-50947595D01*
X157260131Y-50860356D01*
X157276076Y-50781308D01*
X157283553Y-50725227D01*
X157283777Y-50718241D01*
X157291368Y-50662941D01*
X157310773Y-50589420D01*
X157326110Y-50544831D01*
X157350830Y-50462283D01*
X157366075Y-50377648D01*
X157368433Y-50341117D01*
X157376198Y-50258753D01*
X157395360Y-50173506D01*
X157400183Y-50158766D01*
X157420491Y-50077878D01*
X157431360Y-49989142D01*
X157431933Y-49968573D01*
X157431933Y-49868369D01*
X157659475Y-49823452D01*
X157946775Y-49776837D01*
X158236460Y-49748745D01*
X158513192Y-49740402D01*
X158649016Y-49744387D01*
G36*
X136878311Y-50469407D02*
G01*
X137001763Y-50476453D01*
X137006100Y-50476722D01*
X137258620Y-50498058D01*
X137477878Y-50529474D01*
X137672140Y-50572853D01*
X137849674Y-50630075D01*
X138018749Y-50703022D01*
X138034311Y-50710659D01*
X138116179Y-50749065D01*
X138189081Y-50776720D01*
X138266226Y-50797223D01*
X138360822Y-50814175D01*
X138468227Y-50828916D01*
X138614243Y-50848940D01*
X138726050Y-50869222D01*
X138811633Y-50893477D01*
X138878976Y-50925424D01*
X138936062Y-50968778D01*
X138990875Y-51027257D01*
X139046563Y-51098145D01*
X139117903Y-51184002D01*
X139208951Y-51281103D01*
X139305758Y-51375011D01*
X139363015Y-51425688D01*
X139626213Y-51654378D01*
X139865843Y-51877000D01*
X140089672Y-52101805D01*
X140305465Y-52337045D01*
X140520988Y-52590969D01*
X140744009Y-52871830D01*
X140830200Y-52984516D01*
X140903826Y-53078102D01*
X140991907Y-53184843D01*
X141079798Y-53287148D01*
X141114880Y-53326494D01*
X141204005Y-53434113D01*
X141301264Y-53567228D01*
X141397327Y-53712771D01*
X141436788Y-53777340D01*
X141502981Y-53885013D01*
X141570652Y-53989021D01*
X141633062Y-54079392D01*
X141683473Y-54146153D01*
X141696080Y-54161027D01*
X141789766Y-54266513D01*
X141789766Y-54456974D01*
X141783010Y-54605081D01*
X141761571Y-54726137D01*
X141748252Y-54770667D01*
X141726434Y-54857240D01*
X141706554Y-54977630D01*
X141689434Y-55123335D01*
X141675896Y-55285852D01*
X141666762Y-55456681D01*
X141662852Y-55627318D01*
X141662766Y-55655254D01*
X141660976Y-55764921D01*
X141655278Y-55836633D01*
X141645180Y-55874633D01*
X141636308Y-55883182D01*
X141519051Y-55900082D01*
X141399626Y-55877425D01*
X141380826Y-55870550D01*
X141327750Y-55855436D01*
X141241183Y-55837025D01*
X141129687Y-55816864D01*
X141001828Y-55796496D01*
X140866168Y-55777469D01*
X140862243Y-55776958D01*
X140659952Y-55748298D01*
X140487693Y-55717463D01*
X140334146Y-55681001D01*
X140187990Y-55635459D01*
X140037906Y-55577383D01*
X139872574Y-55503320D01*
X139715433Y-55427121D01*
X139587025Y-55360186D01*
X139445434Y-55280847D01*
X139296812Y-55193075D01*
X139147314Y-55100843D01*
X139003093Y-55008123D01*
X138870302Y-54918886D01*
X138755095Y-54837105D01*
X138663624Y-54766752D01*
X138602043Y-54711799D01*
X138594094Y-54703275D01*
X138548826Y-54658906D01*
X138478318Y-54597408D01*
X138391666Y-54526412D01*
X138297964Y-54453550D01*
X138283390Y-54442577D01*
X138135647Y-54324798D01*
X138023388Y-54218499D01*
X137942816Y-54119367D01*
X137890136Y-54023090D01*
X137873855Y-53977341D01*
X137861033Y-53927910D01*
X137861483Y-53891359D01*
X137879320Y-53853172D01*
X137918659Y-53798835D01*
X137927862Y-53786841D01*
X137978574Y-53712531D01*
X138033055Y-53619833D01*
X138076910Y-53534159D01*
X138111078Y-53454605D01*
X138145823Y-53363533D01*
X138178289Y-53269900D01*
X138205617Y-53182664D01*
X138224950Y-53110782D01*
X138233432Y-53063212D01*
X138231564Y-53049342D01*
X138206574Y-53051679D01*
X138154264Y-53073164D01*
X138082452Y-53109330D01*
X137998953Y-53155711D01*
X137911585Y-53207842D01*
X137828163Y-53261255D01*
X137756503Y-53311487D01*
X137715183Y-53344383D01*
X137612683Y-53427956D01*
X137528529Y-53483283D01*
X137454481Y-53515065D01*
X137395304Y-53526876D01*
X137370638Y-53526864D01*
X137344428Y-53519001D01*
X137312046Y-53499547D01*
X137268861Y-53464762D01*
X137210247Y-53410908D01*
X137131574Y-53334246D01*
X137028215Y-53231035D01*
X137024585Y-53227390D01*
X136877218Y-53075332D01*
X136751999Y-52936111D01*
X136637716Y-52796501D01*
X136523157Y-52643277D01*
X136490007Y-52596845D01*
X136354928Y-52403066D01*
X136223844Y-52209307D01*
X136100516Y-52021462D01*
X135988708Y-51845428D01*
X135892182Y-51687097D01*
X135814700Y-51552366D01*
X135772585Y-51472818D01*
X135730119Y-51385284D01*
X135703240Y-51317700D01*
X135687881Y-51253938D01*
X135679972Y-51177873D01*
X135676019Y-51090073D01*
X135668854Y-50885528D01*
X135940602Y-50724808D01*
X136051860Y-50660006D01*
X136138721Y-50612977D01*
X136212631Y-50578967D01*
X136285037Y-50553221D01*
X136367385Y-50530986D01*
X136455766Y-50510855D01*
X136555525Y-50489785D01*
X136635296Y-50475873D01*
X136707441Y-50468350D01*
X136784325Y-50466450D01*
X136878311Y-50469407D01*
G37*
X136878311Y-50469407D02*
X137001763Y-50476453D01*
X137006100Y-50476722D01*
X137258620Y-50498058D01*
X137477878Y-50529474D01*
X137672140Y-50572853D01*
X137849674Y-50630075D01*
X138018749Y-50703022D01*
X138034311Y-50710659D01*
X138116179Y-50749065D01*
X138189081Y-50776720D01*
X138266226Y-50797223D01*
X138360822Y-50814175D01*
X138468227Y-50828916D01*
X138614243Y-50848940D01*
X138726050Y-50869222D01*
X138811633Y-50893477D01*
X138878976Y-50925424D01*
X138936062Y-50968778D01*
X138990875Y-51027257D01*
X139046563Y-51098145D01*
X139117903Y-51184002D01*
X139208951Y-51281103D01*
X139305758Y-51375011D01*
X139363015Y-51425688D01*
X139626213Y-51654378D01*
X139865843Y-51877000D01*
X140089672Y-52101805D01*
X140305465Y-52337045D01*
X140520988Y-52590969D01*
X140744009Y-52871830D01*
X140830200Y-52984516D01*
X140903826Y-53078102D01*
X140991907Y-53184843D01*
X141079798Y-53287148D01*
X141114880Y-53326494D01*
X141204005Y-53434113D01*
X141301264Y-53567228D01*
X141397327Y-53712771D01*
X141436788Y-53777340D01*
X141502981Y-53885013D01*
X141570652Y-53989021D01*
X141633062Y-54079392D01*
X141683473Y-54146153D01*
X141696080Y-54161027D01*
X141789766Y-54266513D01*
X141789766Y-54456974D01*
X141783010Y-54605081D01*
X141761571Y-54726137D01*
X141748252Y-54770667D01*
X141726434Y-54857240D01*
X141706554Y-54977630D01*
X141689434Y-55123335D01*
X141675896Y-55285852D01*
X141666762Y-55456681D01*
X141662852Y-55627318D01*
X141662766Y-55655254D01*
X141660976Y-55764921D01*
X141655278Y-55836633D01*
X141645180Y-55874633D01*
X141636308Y-55883182D01*
X141519051Y-55900082D01*
X141399626Y-55877425D01*
X141380826Y-55870550D01*
X141327750Y-55855436D01*
X141241183Y-55837025D01*
X141129687Y-55816864D01*
X141001828Y-55796496D01*
X140866168Y-55777469D01*
X140862243Y-55776958D01*
X140659952Y-55748298D01*
X140487693Y-55717463D01*
X140334146Y-55681001D01*
X140187990Y-55635459D01*
X140037906Y-55577383D01*
X139872574Y-55503320D01*
X139715433Y-55427121D01*
X139587025Y-55360186D01*
X139445434Y-55280847D01*
X139296812Y-55193075D01*
X139147314Y-55100843D01*
X139003093Y-55008123D01*
X138870302Y-54918886D01*
X138755095Y-54837105D01*
X138663624Y-54766752D01*
X138602043Y-54711799D01*
X138594094Y-54703275D01*
X138548826Y-54658906D01*
X138478318Y-54597408D01*
X138391666Y-54526412D01*
X138297964Y-54453550D01*
X138283390Y-54442577D01*
X138135647Y-54324798D01*
X138023388Y-54218499D01*
X137942816Y-54119367D01*
X137890136Y-54023090D01*
X137873855Y-53977341D01*
X137861033Y-53927910D01*
X137861483Y-53891359D01*
X137879320Y-53853172D01*
X137918659Y-53798835D01*
X137927862Y-53786841D01*
X137978574Y-53712531D01*
X138033055Y-53619833D01*
X138076910Y-53534159D01*
X138111078Y-53454605D01*
X138145823Y-53363533D01*
X138178289Y-53269900D01*
X138205617Y-53182664D01*
X138224950Y-53110782D01*
X138233432Y-53063212D01*
X138231564Y-53049342D01*
X138206574Y-53051679D01*
X138154264Y-53073164D01*
X138082452Y-53109330D01*
X137998953Y-53155711D01*
X137911585Y-53207842D01*
X137828163Y-53261255D01*
X137756503Y-53311487D01*
X137715183Y-53344383D01*
X137612683Y-53427956D01*
X137528529Y-53483283D01*
X137454481Y-53515065D01*
X137395304Y-53526876D01*
X137370638Y-53526864D01*
X137344428Y-53519001D01*
X137312046Y-53499547D01*
X137268861Y-53464762D01*
X137210247Y-53410908D01*
X137131574Y-53334246D01*
X137028215Y-53231035D01*
X137024585Y-53227390D01*
X136877218Y-53075332D01*
X136751999Y-52936111D01*
X136637716Y-52796501D01*
X136523157Y-52643277D01*
X136490007Y-52596845D01*
X136354928Y-52403066D01*
X136223844Y-52209307D01*
X136100516Y-52021462D01*
X135988708Y-51845428D01*
X135892182Y-51687097D01*
X135814700Y-51552366D01*
X135772585Y-51472818D01*
X135730119Y-51385284D01*
X135703240Y-51317700D01*
X135687881Y-51253938D01*
X135679972Y-51177873D01*
X135676019Y-51090073D01*
X135668854Y-50885528D01*
X135940602Y-50724808D01*
X136051860Y-50660006D01*
X136138721Y-50612977D01*
X136212631Y-50578967D01*
X136285037Y-50553221D01*
X136367385Y-50530986D01*
X136455766Y-50510855D01*
X136555525Y-50489785D01*
X136635296Y-50475873D01*
X136707441Y-50468350D01*
X136784325Y-50466450D01*
X136878311Y-50469407D01*
G36*
X146224162Y-55941885D02*
G01*
X146369876Y-55957279D01*
X146435850Y-55969247D01*
X146623593Y-56024645D01*
X146786322Y-56107629D01*
X146926198Y-56220534D01*
X147045383Y-56365692D01*
X147146040Y-56545438D01*
X147230332Y-56762104D01*
X147259493Y-56858016D01*
X147321079Y-57130214D01*
X147352409Y-57410391D01*
X147353892Y-57706055D01*
X147325939Y-58024715D01*
X147324052Y-58039290D01*
X147292429Y-58239718D01*
X147253820Y-58402413D01*
X147205767Y-58531735D01*
X147145808Y-58632042D01*
X147071484Y-58707693D01*
X146980337Y-58763045D01*
X146897986Y-58794317D01*
X146737957Y-58830852D01*
X146567982Y-58847536D01*
X146405070Y-58843410D01*
X146304980Y-58827770D01*
X146122586Y-58771214D01*
X145952505Y-58689601D01*
X145805930Y-58588910D01*
X145735705Y-58523710D01*
X145673720Y-58441134D01*
X145608586Y-58323650D01*
X145542913Y-58178290D01*
X145479316Y-58012088D01*
X145420405Y-57832075D01*
X145368793Y-57645283D01*
X145327093Y-57458743D01*
X145314443Y-57389702D01*
X145294937Y-57240272D01*
X145284103Y-57078299D01*
X145281820Y-56914681D01*
X145287965Y-56760312D01*
X145302416Y-56626090D01*
X145324122Y-56525877D01*
X145392067Y-56365767D01*
X145489095Y-56221779D01*
X145608634Y-56101014D01*
X145744112Y-56010568D01*
X145837475Y-55971442D01*
X145944232Y-55949017D01*
X146077704Y-55939147D01*
X146224162Y-55941885D01*
G37*
X146224162Y-55941885D02*
X146369876Y-55957279D01*
X146435850Y-55969247D01*
X146623593Y-56024645D01*
X146786322Y-56107629D01*
X146926198Y-56220534D01*
X147045383Y-56365692D01*
X147146040Y-56545438D01*
X147230332Y-56762104D01*
X147259493Y-56858016D01*
X147321079Y-57130214D01*
X147352409Y-57410391D01*
X147353892Y-57706055D01*
X147325939Y-58024715D01*
X147324052Y-58039290D01*
X147292429Y-58239718D01*
X147253820Y-58402413D01*
X147205767Y-58531735D01*
X147145808Y-58632042D01*
X147071484Y-58707693D01*
X146980337Y-58763045D01*
X146897986Y-58794317D01*
X146737957Y-58830852D01*
X146567982Y-58847536D01*
X146405070Y-58843410D01*
X146304980Y-58827770D01*
X146122586Y-58771214D01*
X145952505Y-58689601D01*
X145805930Y-58588910D01*
X145735705Y-58523710D01*
X145673720Y-58441134D01*
X145608586Y-58323650D01*
X145542913Y-58178290D01*
X145479316Y-58012088D01*
X145420405Y-57832075D01*
X145368793Y-57645283D01*
X145327093Y-57458743D01*
X145314443Y-57389702D01*
X145294937Y-57240272D01*
X145284103Y-57078299D01*
X145281820Y-56914681D01*
X145287965Y-56760312D01*
X145302416Y-56626090D01*
X145324122Y-56525877D01*
X145392067Y-56365767D01*
X145489095Y-56221779D01*
X145608634Y-56101014D01*
X145744112Y-56010568D01*
X145837475Y-55971442D01*
X145944232Y-55949017D01*
X146077704Y-55939147D01*
X146224162Y-55941885D01*
G36*
X151126817Y-56287355D02*
G01*
X151204721Y-56291097D01*
X151263095Y-56299583D01*
X151313336Y-56314652D01*
X151366837Y-56338144D01*
X151381293Y-56345173D01*
X151482790Y-56409311D01*
X151591422Y-56501807D01*
X151697358Y-56612231D01*
X151790770Y-56730157D01*
X151861829Y-56845155D01*
X151871958Y-56865741D01*
X151901947Y-56932903D01*
X151921006Y-56988669D01*
X151931451Y-57046220D01*
X151935597Y-57118733D01*
X151935758Y-57219387D01*
X151935674Y-57228433D01*
X151930077Y-57346219D01*
X151916283Y-57491006D01*
X151895867Y-57653134D01*
X151870402Y-57822941D01*
X151841465Y-57990765D01*
X151810628Y-58146944D01*
X151779468Y-58281818D01*
X151749559Y-58385725D01*
X151744860Y-58399205D01*
X151692690Y-58528832D01*
X151637185Y-58630243D01*
X151569355Y-58717175D01*
X151480529Y-58803084D01*
X151332546Y-58913498D01*
X151180146Y-58990207D01*
X151028616Y-59031506D01*
X150883242Y-59035690D01*
X150805271Y-59020846D01*
X150653841Y-58957585D01*
X150510365Y-58857710D01*
X150379766Y-58726834D01*
X150266971Y-58570568D01*
X150176904Y-58394524D01*
X150125323Y-58246105D01*
X150090996Y-58097772D01*
X150063093Y-57927728D01*
X150042313Y-57746208D01*
X150029354Y-57563445D01*
X150024915Y-57389675D01*
X150029693Y-57235133D01*
X150044388Y-57110053D01*
X150046919Y-57097183D01*
X150104106Y-56919435D01*
X150197185Y-56748544D01*
X150319735Y-56592675D01*
X150465334Y-56459995D01*
X150627563Y-56358669D01*
X150627646Y-56358628D01*
X150693224Y-56327392D01*
X150746442Y-56306783D01*
X150799233Y-56294598D01*
X150863528Y-56288631D01*
X150951262Y-56286678D01*
X151017988Y-56286516D01*
X151126817Y-56287355D01*
G37*
X151126817Y-56287355D02*
X151204721Y-56291097D01*
X151263095Y-56299583D01*
X151313336Y-56314652D01*
X151366837Y-56338144D01*
X151381293Y-56345173D01*
X151482790Y-56409311D01*
X151591422Y-56501807D01*
X151697358Y-56612231D01*
X151790770Y-56730157D01*
X151861829Y-56845155D01*
X151871958Y-56865741D01*
X151901947Y-56932903D01*
X151921006Y-56988669D01*
X151931451Y-57046220D01*
X151935597Y-57118733D01*
X151935758Y-57219387D01*
X151935674Y-57228433D01*
X151930077Y-57346219D01*
X151916283Y-57491006D01*
X151895867Y-57653134D01*
X151870402Y-57822941D01*
X151841465Y-57990765D01*
X151810628Y-58146944D01*
X151779468Y-58281818D01*
X151749559Y-58385725D01*
X151744860Y-58399205D01*
X151692690Y-58528832D01*
X151637185Y-58630243D01*
X151569355Y-58717175D01*
X151480529Y-58803084D01*
X151332546Y-58913498D01*
X151180146Y-58990207D01*
X151028616Y-59031506D01*
X150883242Y-59035690D01*
X150805271Y-59020846D01*
X150653841Y-58957585D01*
X150510365Y-58857710D01*
X150379766Y-58726834D01*
X150266971Y-58570568D01*
X150176904Y-58394524D01*
X150125323Y-58246105D01*
X150090996Y-58097772D01*
X150063093Y-57927728D01*
X150042313Y-57746208D01*
X150029354Y-57563445D01*
X150024915Y-57389675D01*
X150029693Y-57235133D01*
X150044388Y-57110053D01*
X150046919Y-57097183D01*
X150104106Y-56919435D01*
X150197185Y-56748544D01*
X150319735Y-56592675D01*
X150465334Y-56459995D01*
X150627563Y-56358669D01*
X150627646Y-56358628D01*
X150693224Y-56327392D01*
X150746442Y-56306783D01*
X150799233Y-56294598D01*
X150863528Y-56288631D01*
X150951262Y-56286678D01*
X151017988Y-56286516D01*
X151126817Y-56287355D01*
G36*
X164129482Y-61741428D02*
G01*
X164152899Y-61749158D01*
X164164225Y-61763478D01*
X164170261Y-61782655D01*
X164180379Y-61833975D01*
X164176255Y-61876906D01*
X164153278Y-61920835D01*
X164106837Y-61975151D01*
X164045669Y-62036305D01*
X163983651Y-62101312D01*
X163904998Y-62190785D01*
X163817972Y-62294953D01*
X163730835Y-62404044D01*
X163691127Y-62455641D01*
X163541776Y-62641882D01*
X163399655Y-62798076D01*
X163295100Y-62897207D01*
X163199047Y-62981338D01*
X163092742Y-63075129D01*
X162993215Y-63163532D01*
X162952675Y-63199791D01*
X162790167Y-63345600D01*
X162010303Y-63345600D01*
X161917160Y-63280961D01*
X161845637Y-63231403D01*
X161773656Y-63181641D01*
X161748414Y-63164229D01*
X161687096Y-63132328D01*
X161603609Y-63101720D01*
X161529344Y-63082117D01*
X161456320Y-63065747D01*
X161401270Y-63051366D01*
X161375807Y-63042015D01*
X161375625Y-63041848D01*
X161364091Y-63013558D01*
X161355958Y-62965081D01*
X161352426Y-62912494D01*
X161354694Y-62871875D01*
X161361971Y-62858766D01*
X161385121Y-62845726D01*
X161432742Y-62810371D01*
X161497520Y-62758352D01*
X161560550Y-62705308D01*
X161658307Y-62625456D01*
X161769472Y-62540890D01*
X161876001Y-62465132D01*
X161919266Y-62436460D01*
X162034827Y-62365859D01*
X162170409Y-62288669D01*
X162317011Y-62209499D01*
X162465630Y-62132961D01*
X162607264Y-62063664D01*
X162732911Y-62006220D01*
X162833568Y-61965238D01*
X162852393Y-61958573D01*
X162995667Y-61915168D01*
X163166406Y-61871879D01*
X163351899Y-61831238D01*
X163539434Y-61795780D01*
X163716301Y-61768037D01*
X163869787Y-61750543D01*
X163911258Y-61747560D01*
X164016203Y-61741651D01*
X164086430Y-61739266D01*
X164129482Y-61741428D01*
G37*
X164129482Y-61741428D02*
X164152899Y-61749158D01*
X164164225Y-61763478D01*
X164170261Y-61782655D01*
X164180379Y-61833975D01*
X164176255Y-61876906D01*
X164153278Y-61920835D01*
X164106837Y-61975151D01*
X164045669Y-62036305D01*
X163983651Y-62101312D01*
X163904998Y-62190785D01*
X163817972Y-62294953D01*
X163730835Y-62404044D01*
X163691127Y-62455641D01*
X163541776Y-62641882D01*
X163399655Y-62798076D01*
X163295100Y-62897207D01*
X163199047Y-62981338D01*
X163092742Y-63075129D01*
X162993215Y-63163532D01*
X162952675Y-63199791D01*
X162790167Y-63345600D01*
X162010303Y-63345600D01*
X161917160Y-63280961D01*
X161845637Y-63231403D01*
X161773656Y-63181641D01*
X161748414Y-63164229D01*
X161687096Y-63132328D01*
X161603609Y-63101720D01*
X161529344Y-63082117D01*
X161456320Y-63065747D01*
X161401270Y-63051366D01*
X161375807Y-63042015D01*
X161375625Y-63041848D01*
X161364091Y-63013558D01*
X161355958Y-62965081D01*
X161352426Y-62912494D01*
X161354694Y-62871875D01*
X161361971Y-62858766D01*
X161385121Y-62845726D01*
X161432742Y-62810371D01*
X161497520Y-62758352D01*
X161560550Y-62705308D01*
X161658307Y-62625456D01*
X161769472Y-62540890D01*
X161876001Y-62465132D01*
X161919266Y-62436460D01*
X162034827Y-62365859D01*
X162170409Y-62288669D01*
X162317011Y-62209499D01*
X162465630Y-62132961D01*
X162607264Y-62063664D01*
X162732911Y-62006220D01*
X162833568Y-61965238D01*
X162852393Y-61958573D01*
X162995667Y-61915168D01*
X163166406Y-61871879D01*
X163351899Y-61831238D01*
X163539434Y-61795780D01*
X163716301Y-61768037D01*
X163869787Y-61750543D01*
X163911258Y-61747560D01*
X164016203Y-61741651D01*
X164086430Y-61739266D01*
X164129482Y-61741428D01*
G36*
X148937820Y-62389275D02*
G01*
X149053625Y-62395949D01*
X149149139Y-62407390D01*
X149231692Y-62424487D01*
X149308613Y-62448128D01*
X149387234Y-62479200D01*
X149390128Y-62480442D01*
X149499177Y-62547948D01*
X149581008Y-62641281D01*
X149630256Y-62752654D01*
X149642600Y-62846854D01*
X149632371Y-62969797D01*
X149601179Y-63057814D01*
X149555127Y-63108647D01*
X149520197Y-63146581D01*
X149484359Y-63205443D01*
X149473698Y-63228175D01*
X149427325Y-63304195D01*
X149360082Y-63353197D01*
X149356071Y-63355134D01*
X149261883Y-63386745D01*
X149140042Y-63408582D01*
X149004446Y-63418948D01*
X148868997Y-63416152D01*
X148860777Y-63415495D01*
X148761058Y-63413695D01*
X148636685Y-63421352D01*
X148504017Y-63437440D01*
X148499600Y-63438116D01*
X148272409Y-63470079D01*
X148042434Y-63495893D01*
X147801037Y-63516220D01*
X147539578Y-63531724D01*
X147249420Y-63543068D01*
X147069572Y-63547888D01*
X146454461Y-63562088D01*
X146415898Y-63501469D01*
X146382136Y-63451754D01*
X146334129Y-63384991D01*
X146293382Y-63330358D01*
X146209428Y-63219866D01*
X146236803Y-62995878D01*
X146249495Y-62896134D01*
X146260983Y-62828322D01*
X146275047Y-62782335D01*
X146295464Y-62748066D01*
X146326014Y-62715408D01*
X146350014Y-62693086D01*
X146411757Y-62644089D01*
X146477603Y-62612092D01*
X146565432Y-62588757D01*
X146580236Y-62585759D01*
X146660875Y-62567336D01*
X146709255Y-62548476D01*
X146735239Y-62524495D01*
X146743199Y-62508377D01*
X146767755Y-62473550D01*
X146815651Y-62454045D01*
X146852813Y-62447820D01*
X147262301Y-62408549D01*
X147704150Y-62391637D01*
X147790516Y-62390973D01*
X147940278Y-62390417D01*
X148116604Y-62389606D01*
X148303729Y-62388620D01*
X148485886Y-62387542D01*
X148616016Y-62386678D01*
X148794393Y-62386480D01*
X148937820Y-62389275D01*
G37*
X148937820Y-62389275D02*
X149053625Y-62395949D01*
X149149139Y-62407390D01*
X149231692Y-62424487D01*
X149308613Y-62448128D01*
X149387234Y-62479200D01*
X149390128Y-62480442D01*
X149499177Y-62547948D01*
X149581008Y-62641281D01*
X149630256Y-62752654D01*
X149642600Y-62846854D01*
X149632371Y-62969797D01*
X149601179Y-63057814D01*
X149555127Y-63108647D01*
X149520197Y-63146581D01*
X149484359Y-63205443D01*
X149473698Y-63228175D01*
X149427325Y-63304195D01*
X149360082Y-63353197D01*
X149356071Y-63355134D01*
X149261883Y-63386745D01*
X149140042Y-63408582D01*
X149004446Y-63418948D01*
X148868997Y-63416152D01*
X148860777Y-63415495D01*
X148761058Y-63413695D01*
X148636685Y-63421352D01*
X148504017Y-63437440D01*
X148499600Y-63438116D01*
X148272409Y-63470079D01*
X148042434Y-63495893D01*
X147801037Y-63516220D01*
X147539578Y-63531724D01*
X147249420Y-63543068D01*
X147069572Y-63547888D01*
X146454461Y-63562088D01*
X146415898Y-63501469D01*
X146382136Y-63451754D01*
X146334129Y-63384991D01*
X146293382Y-63330358D01*
X146209428Y-63219866D01*
X146236803Y-62995878D01*
X146249495Y-62896134D01*
X146260983Y-62828322D01*
X146275047Y-62782335D01*
X146295464Y-62748066D01*
X146326014Y-62715408D01*
X146350014Y-62693086D01*
X146411757Y-62644089D01*
X146477603Y-62612092D01*
X146565432Y-62588757D01*
X146580236Y-62585759D01*
X146660875Y-62567336D01*
X146709255Y-62548476D01*
X146735239Y-62524495D01*
X146743199Y-62508377D01*
X146767755Y-62473550D01*
X146815651Y-62454045D01*
X146852813Y-62447820D01*
X147262301Y-62408549D01*
X147704150Y-62391637D01*
X147790516Y-62390973D01*
X147940278Y-62390417D01*
X148116604Y-62389606D01*
X148303729Y-62388620D01*
X148485886Y-62387542D01*
X148616016Y-62386678D01*
X148794393Y-62386480D01*
X148937820Y-62389275D01*
G36*
X131217763Y-62500554D02*
G01*
X131312256Y-62507580D01*
X131442472Y-62519756D01*
X131449850Y-62520469D01*
X131832337Y-62578581D01*
X132207081Y-62678005D01*
X132572414Y-62818155D01*
X132926668Y-62998449D01*
X133080487Y-63091544D01*
X133186274Y-63158312D01*
X133300465Y-63229544D01*
X133406290Y-63294815D01*
X133460683Y-63327921D01*
X133601338Y-63417146D01*
X133707730Y-63495608D01*
X133784871Y-63568350D01*
X133837769Y-63640415D01*
X133871434Y-63716847D01*
X133880926Y-63750975D01*
X133885662Y-63775384D01*
X133882029Y-63793468D01*
X133863742Y-63808047D01*
X133824516Y-63821940D01*
X133758065Y-63837964D01*
X133658103Y-63858940D01*
X133625082Y-63865709D01*
X133587946Y-63881588D01*
X133526543Y-63916414D01*
X133450880Y-63964283D01*
X133402832Y-63996788D01*
X133227850Y-64118183D01*
X132942100Y-64121060D01*
X132830528Y-64121518D01*
X132729125Y-64120720D01*
X132648058Y-64118828D01*
X132597496Y-64116006D01*
X132592850Y-64115470D01*
X132502866Y-64102354D01*
X132436931Y-64087219D01*
X132383370Y-64064026D01*
X132330509Y-64026737D01*
X132266671Y-63969315D01*
X132216134Y-63920638D01*
X132147168Y-63851722D01*
X132058078Y-63759782D01*
X131956967Y-63653340D01*
X131851938Y-63540921D01*
X131760006Y-63440850D01*
X131656629Y-63327807D01*
X131548351Y-63210347D01*
X131443785Y-63097748D01*
X131351544Y-62999291D01*
X131288494Y-62932850D01*
X131197797Y-62836583D01*
X131133754Y-62763359D01*
X131092519Y-62706861D01*
X131070242Y-62660775D01*
X131063077Y-62618789D01*
X131067176Y-62574586D01*
X131067871Y-62570787D01*
X131075150Y-62540017D01*
X131087686Y-62518411D01*
X131111571Y-62505167D01*
X131152899Y-62499483D01*
X131217763Y-62500554D01*
G37*
X131217763Y-62500554D02*
X131312256Y-62507580D01*
X131442472Y-62519756D01*
X131449850Y-62520469D01*
X131832337Y-62578581D01*
X132207081Y-62678005D01*
X132572414Y-62818155D01*
X132926668Y-62998449D01*
X133080487Y-63091544D01*
X133186274Y-63158312D01*
X133300465Y-63229544D01*
X133406290Y-63294815D01*
X133460683Y-63327921D01*
X133601338Y-63417146D01*
X133707730Y-63495608D01*
X133784871Y-63568350D01*
X133837769Y-63640415D01*
X133871434Y-63716847D01*
X133880926Y-63750975D01*
X133885662Y-63775384D01*
X133882029Y-63793468D01*
X133863742Y-63808047D01*
X133824516Y-63821940D01*
X133758065Y-63837964D01*
X133658103Y-63858940D01*
X133625082Y-63865709D01*
X133587946Y-63881588D01*
X133526543Y-63916414D01*
X133450880Y-63964283D01*
X133402832Y-63996788D01*
X133227850Y-64118183D01*
X132942100Y-64121060D01*
X132830528Y-64121518D01*
X132729125Y-64120720D01*
X132648058Y-64118828D01*
X132597496Y-64116006D01*
X132592850Y-64115470D01*
X132502866Y-64102354D01*
X132436931Y-64087219D01*
X132383370Y-64064026D01*
X132330509Y-64026737D01*
X132266671Y-63969315D01*
X132216134Y-63920638D01*
X132147168Y-63851722D01*
X132058078Y-63759782D01*
X131956967Y-63653340D01*
X131851938Y-63540921D01*
X131760006Y-63440850D01*
X131656629Y-63327807D01*
X131548351Y-63210347D01*
X131443785Y-63097748D01*
X131351544Y-62999291D01*
X131288494Y-62932850D01*
X131197797Y-62836583D01*
X131133754Y-62763359D01*
X131092519Y-62706861D01*
X131070242Y-62660775D01*
X131063077Y-62618789D01*
X131067176Y-62574586D01*
X131067871Y-62570787D01*
X131075150Y-62540017D01*
X131087686Y-62518411D01*
X131111571Y-62505167D01*
X131152899Y-62499483D01*
X131217763Y-62500554D01*
G36*
X146411278Y-64037364D02*
G01*
X146554361Y-64068166D01*
X146692543Y-64115855D01*
X146748463Y-64141533D01*
X146861465Y-64207045D01*
X146940055Y-64275060D01*
X146988194Y-64344673D01*
X147012511Y-64404676D01*
X147013470Y-64456378D01*
X146987646Y-64508281D01*
X146931611Y-64568884D01*
X146878972Y-64615600D01*
X146743192Y-64720899D01*
X146622065Y-64791695D01*
X146510375Y-64830865D01*
X146478183Y-64836842D01*
X146436955Y-64841411D01*
X146404863Y-64837004D01*
X146372867Y-64818058D01*
X146331929Y-64779010D01*
X146273009Y-64714296D01*
X146265610Y-64706009D01*
X146179165Y-64606988D01*
X146117011Y-64529173D01*
X146073577Y-64463764D01*
X146043292Y-64401959D01*
X146020586Y-64334958D01*
X146012923Y-64306832D01*
X145990389Y-64212557D01*
X145982627Y-64149360D01*
X145991209Y-64108096D01*
X146017704Y-64079621D01*
X146055568Y-64058603D01*
X146151585Y-64031350D01*
X146273587Y-64024681D01*
X146411278Y-64037364D01*
G37*
X146411278Y-64037364D02*
X146554361Y-64068166D01*
X146692543Y-64115855D01*
X146748463Y-64141533D01*
X146861465Y-64207045D01*
X146940055Y-64275060D01*
X146988194Y-64344673D01*
X147012511Y-64404676D01*
X147013470Y-64456378D01*
X146987646Y-64508281D01*
X146931611Y-64568884D01*
X146878972Y-64615600D01*
X146743192Y-64720899D01*
X146622065Y-64791695D01*
X146510375Y-64830865D01*
X146478183Y-64836842D01*
X146436955Y-64841411D01*
X146404863Y-64837004D01*
X146372867Y-64818058D01*
X146331929Y-64779010D01*
X146273009Y-64714296D01*
X146265610Y-64706009D01*
X146179165Y-64606988D01*
X146117011Y-64529173D01*
X146073577Y-64463764D01*
X146043292Y-64401959D01*
X146020586Y-64334958D01*
X146012923Y-64306832D01*
X145990389Y-64212557D01*
X145982627Y-64149360D01*
X145991209Y-64108096D01*
X146017704Y-64079621D01*
X146055568Y-64058603D01*
X146151585Y-64031350D01*
X146273587Y-64024681D01*
X146411278Y-64037364D01*
G36*
X168175100Y-62758623D02*
G01*
X168214625Y-62778714D01*
X168266201Y-62817736D01*
X168336082Y-62880218D01*
X168396737Y-62937925D01*
X168604636Y-63167127D01*
X168786693Y-63426874D01*
X168940995Y-63712791D01*
X169065629Y-64020502D01*
X169158682Y-64345630D01*
X169218241Y-64683801D01*
X169234757Y-64854895D01*
X169240721Y-64948589D01*
X169241897Y-65008974D01*
X169237105Y-65044918D01*
X169225165Y-65065292D01*
X169204952Y-65078937D01*
X169159918Y-65098917D01*
X169120689Y-65103061D01*
X169081885Y-65087514D01*
X169038127Y-65048422D01*
X168984037Y-64981931D01*
X168914237Y-64884186D01*
X168895707Y-64857332D01*
X168797991Y-64721058D01*
X168711914Y-64616670D01*
X168630057Y-64538254D01*
X168545001Y-64479895D01*
X168449326Y-64435677D01*
X168335615Y-64399686D01*
X168314763Y-64394169D01*
X168248073Y-64380932D01*
X168150186Y-64366577D01*
X168032177Y-64352287D01*
X167905118Y-64339247D01*
X167780084Y-64328642D01*
X167668148Y-64321656D01*
X167620279Y-64319884D01*
X167596252Y-64301344D01*
X167566485Y-64255507D01*
X167537431Y-64195618D01*
X167515544Y-64134919D01*
X167507266Y-64087979D01*
X167520370Y-64045941D01*
X167554255Y-63987606D01*
X167589030Y-63941204D01*
X167665175Y-63843501D01*
X167746378Y-63728927D01*
X167824668Y-63609652D01*
X167892069Y-63497847D01*
X167940610Y-63405682D01*
X167942383Y-63401842D01*
X167980345Y-63290139D01*
X168007824Y-63142466D01*
X168015995Y-63073214D01*
X168029943Y-62949506D01*
X168043845Y-62862006D01*
X168060073Y-62804660D01*
X168080998Y-62771410D01*
X168108989Y-62756201D01*
X168141374Y-62752933D01*
X168175100Y-62758623D01*
G37*
X168175100Y-62758623D02*
X168214625Y-62778714D01*
X168266201Y-62817736D01*
X168336082Y-62880218D01*
X168396737Y-62937925D01*
X168604636Y-63167127D01*
X168786693Y-63426874D01*
X168940995Y-63712791D01*
X169065629Y-64020502D01*
X169158682Y-64345630D01*
X169218241Y-64683801D01*
X169234757Y-64854895D01*
X169240721Y-64948589D01*
X169241897Y-65008974D01*
X169237105Y-65044918D01*
X169225165Y-65065292D01*
X169204952Y-65078937D01*
X169159918Y-65098917D01*
X169120689Y-65103061D01*
X169081885Y-65087514D01*
X169038127Y-65048422D01*
X168984037Y-64981931D01*
X168914237Y-64884186D01*
X168895707Y-64857332D01*
X168797991Y-64721058D01*
X168711914Y-64616670D01*
X168630057Y-64538254D01*
X168545001Y-64479895D01*
X168449326Y-64435677D01*
X168335615Y-64399686D01*
X168314763Y-64394169D01*
X168248073Y-64380932D01*
X168150186Y-64366577D01*
X168032177Y-64352287D01*
X167905118Y-64339247D01*
X167780084Y-64328642D01*
X167668148Y-64321656D01*
X167620279Y-64319884D01*
X167596252Y-64301344D01*
X167566485Y-64255507D01*
X167537431Y-64195618D01*
X167515544Y-64134919D01*
X167507266Y-64087979D01*
X167520370Y-64045941D01*
X167554255Y-63987606D01*
X167589030Y-63941204D01*
X167665175Y-63843501D01*
X167746378Y-63728927D01*
X167824668Y-63609652D01*
X167892069Y-63497847D01*
X167940610Y-63405682D01*
X167942383Y-63401842D01*
X167980345Y-63290139D01*
X168007824Y-63142466D01*
X168015995Y-63073214D01*
X168029943Y-62949506D01*
X168043845Y-62862006D01*
X168060073Y-62804660D01*
X168080998Y-62771410D01*
X168108989Y-62756201D01*
X168141374Y-62752933D01*
X168175100Y-62758623D01*
G36*
X127132370Y-63517653D02*
G01*
X127156823Y-63531038D01*
X127172939Y-63562926D01*
X127184630Y-63621157D01*
X127195812Y-63713568D01*
X127196079Y-63716016D01*
X127214520Y-63824020D01*
X127248710Y-63962127D01*
X127296423Y-64122113D01*
X127346013Y-64269347D01*
X127375940Y-64329656D01*
X127424940Y-64404381D01*
X127482551Y-64477608D01*
X127484086Y-64479367D01*
X127574510Y-64587332D01*
X127638125Y-64675613D01*
X127679936Y-64752459D01*
X127704945Y-64826118D01*
X127710717Y-64853008D01*
X127719680Y-64916254D01*
X127713242Y-64957943D01*
X127686529Y-64997522D01*
X127669792Y-65016334D01*
X127614334Y-65063473D01*
X127554053Y-65080567D01*
X127534158Y-65081266D01*
X127460408Y-65091419D01*
X127391621Y-65115505D01*
X127343067Y-65132181D01*
X127264545Y-65150031D01*
X127168256Y-65166551D01*
X127096494Y-65176023D01*
X126895130Y-65211483D01*
X126725904Y-65269690D01*
X126583380Y-65353890D01*
X126462122Y-65467328D01*
X126356692Y-65613250D01*
X126352472Y-65620234D01*
X126274898Y-65731210D01*
X126195485Y-65811003D01*
X126118578Y-65855833D01*
X126071812Y-65864433D01*
X126028178Y-65849731D01*
X126012163Y-65827391D01*
X125998487Y-65742726D01*
X125997006Y-65626038D01*
X126006773Y-65485546D01*
X126026841Y-65329470D01*
X126056262Y-65166028D01*
X126094089Y-65003440D01*
X126116345Y-64923389D01*
X126164134Y-64774395D01*
X126217424Y-64636535D01*
X126280373Y-64501940D01*
X126357142Y-64362738D01*
X126451888Y-64211060D01*
X126568772Y-64039035D01*
X126627778Y-63955581D01*
X126747285Y-63797502D01*
X126855886Y-63673051D01*
X126952128Y-63583595D01*
X127034561Y-63530499D01*
X127095664Y-63514933D01*
X127132370Y-63517653D01*
G37*
X127132370Y-63517653D02*
X127156823Y-63531038D01*
X127172939Y-63562926D01*
X127184630Y-63621157D01*
X127195812Y-63713568D01*
X127196079Y-63716016D01*
X127214520Y-63824020D01*
X127248710Y-63962127D01*
X127296423Y-64122113D01*
X127346013Y-64269347D01*
X127375940Y-64329656D01*
X127424940Y-64404381D01*
X127482551Y-64477608D01*
X127484086Y-64479367D01*
X127574510Y-64587332D01*
X127638125Y-64675613D01*
X127679936Y-64752459D01*
X127704945Y-64826118D01*
X127710717Y-64853008D01*
X127719680Y-64916254D01*
X127713242Y-64957943D01*
X127686529Y-64997522D01*
X127669792Y-65016334D01*
X127614334Y-65063473D01*
X127554053Y-65080567D01*
X127534158Y-65081266D01*
X127460408Y-65091419D01*
X127391621Y-65115505D01*
X127343067Y-65132181D01*
X127264545Y-65150031D01*
X127168256Y-65166551D01*
X127096494Y-65176023D01*
X126895130Y-65211483D01*
X126725904Y-65269690D01*
X126583380Y-65353890D01*
X126462122Y-65467328D01*
X126356692Y-65613250D01*
X126352472Y-65620234D01*
X126274898Y-65731210D01*
X126195485Y-65811003D01*
X126118578Y-65855833D01*
X126071812Y-65864433D01*
X126028178Y-65849731D01*
X126012163Y-65827391D01*
X125998487Y-65742726D01*
X125997006Y-65626038D01*
X126006773Y-65485546D01*
X126026841Y-65329470D01*
X126056262Y-65166028D01*
X126094089Y-65003440D01*
X126116345Y-64923389D01*
X126164134Y-64774395D01*
X126217424Y-64636535D01*
X126280373Y-64501940D01*
X126357142Y-64362738D01*
X126451888Y-64211060D01*
X126568772Y-64039035D01*
X126627778Y-63955581D01*
X126747285Y-63797502D01*
X126855886Y-63673051D01*
X126952128Y-63583595D01*
X127034561Y-63530499D01*
X127095664Y-63514933D01*
X127132370Y-63517653D01*
G36*
X149105902Y-65102551D02*
G01*
X149233093Y-65108305D01*
X149332053Y-65128135D01*
X149415717Y-65166247D01*
X149497021Y-65226851D01*
X149502321Y-65231482D01*
X149556286Y-65281057D01*
X149585569Y-65319529D01*
X149597710Y-65363255D01*
X149600247Y-65428589D01*
X149600266Y-65443950D01*
X149593749Y-65544487D01*
X149569777Y-65620933D01*
X149521718Y-65683933D01*
X149442940Y-65744133D01*
X149394907Y-65773613D01*
X149288382Y-65832262D01*
X149193889Y-65872998D01*
X149102169Y-65896821D01*
X149003964Y-65904728D01*
X148890016Y-65897719D01*
X148751066Y-65876793D01*
X148638184Y-65855245D01*
X148536613Y-65834231D01*
X148468611Y-65817475D01*
X148426109Y-65801586D01*
X148401041Y-65783172D01*
X148385338Y-65758841D01*
X148379847Y-65746635D01*
X148357578Y-65684360D01*
X148355398Y-65636237D01*
X148377630Y-65593252D01*
X148428598Y-65546389D01*
X148500593Y-65494822D01*
X148586690Y-65431603D01*
X148685270Y-65352558D01*
X148778907Y-65271823D01*
X148805271Y-65247669D01*
X148960788Y-65102433D01*
X149105902Y-65102551D01*
G37*
X149105902Y-65102551D02*
X149233093Y-65108305D01*
X149332053Y-65128135D01*
X149415717Y-65166247D01*
X149497021Y-65226851D01*
X149502321Y-65231482D01*
X149556286Y-65281057D01*
X149585569Y-65319529D01*
X149597710Y-65363255D01*
X149600247Y-65428589D01*
X149600266Y-65443950D01*
X149593749Y-65544487D01*
X149569777Y-65620933D01*
X149521718Y-65683933D01*
X149442940Y-65744133D01*
X149394907Y-65773613D01*
X149288382Y-65832262D01*
X149193889Y-65872998D01*
X149102169Y-65896821D01*
X149003964Y-65904728D01*
X148890016Y-65897719D01*
X148751066Y-65876793D01*
X148638184Y-65855245D01*
X148536613Y-65834231D01*
X148468611Y-65817475D01*
X148426109Y-65801586D01*
X148401041Y-65783172D01*
X148385338Y-65758841D01*
X148379847Y-65746635D01*
X148357578Y-65684360D01*
X148355398Y-65636237D01*
X148377630Y-65593252D01*
X148428598Y-65546389D01*
X148500593Y-65494822D01*
X148586690Y-65431603D01*
X148685270Y-65352558D01*
X148778907Y-65271823D01*
X148805271Y-65247669D01*
X148960788Y-65102433D01*
X149105902Y-65102551D01*
G36*
X148590772Y-63920471D02*
G01*
X148777836Y-63927683D01*
X148860968Y-64016822D01*
X148909188Y-64072560D01*
X148934012Y-64118493D01*
X148943063Y-64173621D01*
X148944100Y-64223977D01*
X148941485Y-64279191D01*
X148931606Y-64333541D01*
X148911411Y-64396282D01*
X148877845Y-64476673D01*
X148827856Y-64583971D01*
X148819932Y-64600505D01*
X148759130Y-64721820D01*
X148703182Y-64817626D01*
X148643919Y-64897634D01*
X148573173Y-64971557D01*
X148482778Y-65049106D01*
X148369025Y-65136656D01*
X148280775Y-65215880D01*
X148193462Y-65317036D01*
X148154043Y-65372044D01*
X148059151Y-65496646D01*
X147943298Y-65613591D01*
X147798656Y-65730279D01*
X147705850Y-65795771D01*
X147585647Y-65871597D01*
X147459293Y-65941375D01*
X147338016Y-65999524D01*
X147233045Y-66040466D01*
X147187266Y-66053417D01*
X147068588Y-66069541D01*
X146923477Y-66072215D01*
X146765551Y-66061702D01*
X146631659Y-66042642D01*
X146470624Y-66007107D01*
X146329845Y-65963322D01*
X146217968Y-65914234D01*
X146171712Y-65885917D01*
X146136266Y-65857249D01*
X146117212Y-65826599D01*
X146109666Y-65780297D01*
X146108707Y-65709533D01*
X146109648Y-65578683D01*
X146396303Y-65390939D01*
X146524411Y-65304864D01*
X146670207Y-65203215D01*
X146828542Y-65089895D01*
X146994268Y-64968807D01*
X147162234Y-64843854D01*
X147327292Y-64718940D01*
X147484292Y-64597967D01*
X147628086Y-64484840D01*
X147753522Y-64383460D01*
X147855454Y-64297731D01*
X147928730Y-64231556D01*
X147938683Y-64221820D01*
X148045437Y-64122003D01*
X148140542Y-64048681D01*
X148235708Y-63993043D01*
X148255862Y-63983223D01*
X148331234Y-63949141D01*
X148390341Y-63928955D01*
X148449083Y-63919688D01*
X148523356Y-63918361D01*
X148590772Y-63920471D01*
G37*
X148590772Y-63920471D02*
X148777836Y-63927683D01*
X148860968Y-64016822D01*
X148909188Y-64072560D01*
X148934012Y-64118493D01*
X148943063Y-64173621D01*
X148944100Y-64223977D01*
X148941485Y-64279191D01*
X148931606Y-64333541D01*
X148911411Y-64396282D01*
X148877845Y-64476673D01*
X148827856Y-64583971D01*
X148819932Y-64600505D01*
X148759130Y-64721820D01*
X148703182Y-64817626D01*
X148643919Y-64897634D01*
X148573173Y-64971557D01*
X148482778Y-65049106D01*
X148369025Y-65136656D01*
X148280775Y-65215880D01*
X148193462Y-65317036D01*
X148154043Y-65372044D01*
X148059151Y-65496646D01*
X147943298Y-65613591D01*
X147798656Y-65730279D01*
X147705850Y-65795771D01*
X147585647Y-65871597D01*
X147459293Y-65941375D01*
X147338016Y-65999524D01*
X147233045Y-66040466D01*
X147187266Y-66053417D01*
X147068588Y-66069541D01*
X146923477Y-66072215D01*
X146765551Y-66061702D01*
X146631659Y-66042642D01*
X146470624Y-66007107D01*
X146329845Y-65963322D01*
X146217968Y-65914234D01*
X146171712Y-65885917D01*
X146136266Y-65857249D01*
X146117212Y-65826599D01*
X146109666Y-65780297D01*
X146108707Y-65709533D01*
X146109648Y-65578683D01*
X146396303Y-65390939D01*
X146524411Y-65304864D01*
X146670207Y-65203215D01*
X146828542Y-65089895D01*
X146994268Y-64968807D01*
X147162234Y-64843854D01*
X147327292Y-64718940D01*
X147484292Y-64597967D01*
X147628086Y-64484840D01*
X147753522Y-64383460D01*
X147855454Y-64297731D01*
X147928730Y-64231556D01*
X147938683Y-64221820D01*
X148045437Y-64122003D01*
X148140542Y-64048681D01*
X148235708Y-63993043D01*
X148255862Y-63983223D01*
X148331234Y-63949141D01*
X148390341Y-63928955D01*
X148449083Y-63919688D01*
X148523356Y-63918361D01*
X148590772Y-63920471D01*
G36*
X166411701Y-61499369D02*
G01*
X166541705Y-61521988D01*
X166664584Y-61553351D01*
X166716603Y-61570850D01*
X166884203Y-61650522D01*
X167033661Y-61755640D01*
X167160496Y-61880644D01*
X167260226Y-62019974D01*
X167328369Y-62168071D01*
X167360444Y-62319373D01*
X167362321Y-62371933D01*
X167351514Y-62479139D01*
X167323340Y-62613670D01*
X167280765Y-62765719D01*
X167226753Y-62925481D01*
X167164269Y-63083148D01*
X167113886Y-63193599D01*
X167054932Y-63309668D01*
X167002252Y-63399314D01*
X166946905Y-63475618D01*
X166879946Y-63551659D01*
X166842806Y-63590131D01*
X166725704Y-63698518D01*
X166619963Y-63774901D01*
X166573950Y-63799397D01*
X166521078Y-63818124D01*
X166435509Y-63842314D01*
X166326103Y-63870021D01*
X166201719Y-63899302D01*
X166071217Y-63928212D01*
X165943457Y-63954806D01*
X165827299Y-63977140D01*
X165731604Y-63993270D01*
X165665230Y-64001251D01*
X165651873Y-64001766D01*
X165595719Y-64009430D01*
X165549300Y-64022952D01*
X165493577Y-64044137D01*
X165535521Y-64103041D01*
X165568401Y-64165450D01*
X165591565Y-64237424D01*
X165592583Y-64242539D01*
X165598724Y-64286959D01*
X165592826Y-64320209D01*
X165568727Y-64353872D01*
X165520264Y-64399532D01*
X165499216Y-64418034D01*
X165434656Y-64479605D01*
X165358000Y-64560222D01*
X165282912Y-64645338D01*
X165261601Y-64670962D01*
X165132474Y-64828987D01*
X165188762Y-64944037D01*
X165236772Y-65033049D01*
X165282902Y-65088986D01*
X165338181Y-65117896D01*
X165413639Y-65125829D01*
X165509450Y-65119885D01*
X165590114Y-65112357D01*
X165700819Y-65102237D01*
X165829432Y-65090624D01*
X165963823Y-65078617D01*
X166025600Y-65073144D01*
X166165790Y-65059017D01*
X166312795Y-65041238D01*
X166452050Y-65021754D01*
X166568994Y-65002511D01*
X166603516Y-64995879D01*
X166696591Y-64978107D01*
X166773501Y-64965535D01*
X166825374Y-64959478D01*
X166843117Y-64960395D01*
X166840389Y-64983647D01*
X166821301Y-65030823D01*
X166805010Y-65063340D01*
X166780812Y-65115534D01*
X166765998Y-65169512D01*
X166758448Y-65237939D01*
X166756046Y-65333477D01*
X166755997Y-65356433D01*
X166757482Y-65457054D01*
X166763678Y-65529677D01*
X166777248Y-65588589D01*
X166800857Y-65648075D01*
X166816515Y-65680982D01*
X166891359Y-65802792D01*
X166993562Y-65926574D01*
X167110867Y-66039373D01*
X167231016Y-66128238D01*
X167251019Y-66140134D01*
X167334341Y-66192488D01*
X167417840Y-66252533D01*
X167470000Y-66295522D01*
X167614327Y-66399930D01*
X167772475Y-66464988D01*
X167942183Y-66490508D01*
X168121187Y-66476299D01*
X168307223Y-66422171D01*
X168412795Y-66374774D01*
X168477100Y-66337758D01*
X168554581Y-66286357D01*
X168637797Y-66226390D01*
X168719308Y-66163676D01*
X168791672Y-66104034D01*
X168847450Y-66053282D01*
X168879201Y-66017241D01*
X168883743Y-66006466D01*
X168891320Y-65997741D01*
X168902320Y-66012600D01*
X168909572Y-66044137D01*
X168917512Y-66109665D01*
X168925362Y-66200868D01*
X168932345Y-66309427D01*
X168935002Y-66361850D01*
X168943738Y-66522222D01*
X168954144Y-66647660D01*
X168967653Y-66745559D01*
X168985693Y-66823319D01*
X169009694Y-66888335D01*
X169041086Y-66948007D01*
X169051607Y-66965100D01*
X169099136Y-67064542D01*
X169124423Y-67183218D01*
X169126065Y-67197933D01*
X169136441Y-67282142D01*
X169148736Y-67359536D01*
X169157909Y-67403351D01*
X169164915Y-67460512D01*
X169147106Y-67494717D01*
X169145791Y-67495836D01*
X169121588Y-67526317D01*
X169085201Y-67584043D01*
X169041935Y-67659134D01*
X168997094Y-67741707D01*
X168955982Y-67821880D01*
X168923905Y-67889772D01*
X168906165Y-67935500D01*
X168904266Y-67945785D01*
X168886338Y-67976269D01*
X168840368Y-68014032D01*
X168778073Y-68051822D01*
X168711174Y-68082390D01*
X168659397Y-68097287D01*
X168623238Y-68098653D01*
X168586662Y-68085568D01*
X168540236Y-68052729D01*
X168474530Y-67994830D01*
X168470350Y-67990979D01*
X168387366Y-67922480D01*
X168292242Y-67855815D01*
X168206211Y-67805762D01*
X168128299Y-67769856D01*
X168063380Y-67749341D01*
X167993028Y-67740167D01*
X167899295Y-67738279D01*
X167824029Y-67739787D01*
X167762537Y-67745810D01*
X167704354Y-67759502D01*
X167639013Y-67784015D01*
X167556049Y-67822502D01*
X167459469Y-67870781D01*
X167435298Y-67861621D01*
X167391108Y-67826831D01*
X167333750Y-67773493D01*
X167270075Y-67708690D01*
X167206934Y-67639504D01*
X167151178Y-67573018D01*
X167109658Y-67516314D01*
X167098218Y-67497314D01*
X167070408Y-67436229D01*
X167036371Y-67346543D01*
X167000541Y-67240624D01*
X166969228Y-67137455D01*
X166938955Y-67029575D01*
X166919621Y-66953285D01*
X166910107Y-66899593D01*
X166909292Y-66859508D01*
X166916058Y-66824041D01*
X166926298Y-66792604D01*
X166950573Y-66681032D01*
X166956181Y-66549669D01*
X166943573Y-66416494D01*
X166913970Y-66301525D01*
X166860583Y-66186896D01*
X166783312Y-66058478D01*
X166688278Y-65923522D01*
X166581601Y-65789278D01*
X166469401Y-65662997D01*
X166357799Y-65551929D01*
X166252915Y-65463324D01*
X166160871Y-65404433D01*
X166153800Y-65401014D01*
X166095717Y-65375949D01*
X166042022Y-65359799D01*
X165980653Y-65350667D01*
X165899553Y-65346654D01*
X165803350Y-65345850D01*
X165696170Y-65346857D01*
X165618989Y-65351237D01*
X165559492Y-65361022D01*
X165505365Y-65378246D01*
X165444295Y-65404945D01*
X165443579Y-65405281D01*
X165370450Y-65442525D01*
X165307882Y-65479637D01*
X165274237Y-65504549D01*
X165228227Y-65533032D01*
X165161009Y-65558928D01*
X165129138Y-65567400D01*
X164995244Y-65609654D01*
X164874035Y-65677028D01*
X164819100Y-65717493D01*
X164751690Y-65757572D01*
X164669544Y-65789722D01*
X164638625Y-65797652D01*
X164562525Y-65818550D01*
X164470672Y-65851255D01*
X164375411Y-65890496D01*
X164289086Y-65931005D01*
X164224043Y-65967512D01*
X164201532Y-65984229D01*
X164158914Y-66008956D01*
X164095767Y-66031532D01*
X164074489Y-66036908D01*
X164015775Y-66056331D01*
X163934051Y-66091461D01*
X163842668Y-66136326D01*
X163794903Y-66161998D01*
X163711895Y-66206242D01*
X163639721Y-66241219D01*
X163588128Y-66262391D01*
X163570344Y-66266600D01*
X163533412Y-66275862D01*
X163473057Y-66300029D01*
X163409207Y-66330459D01*
X163284516Y-66394318D01*
X163194693Y-66296810D01*
X163135447Y-66226619D01*
X163069721Y-66139941D01*
X163017121Y-66063618D01*
X162964921Y-65988550D01*
X162924744Y-65945640D01*
X162890455Y-65928807D01*
X162880218Y-65927933D01*
X162846227Y-65936027D01*
X162823370Y-65967248D01*
X162806900Y-66017672D01*
X162792799Y-66151024D01*
X162818520Y-66297696D01*
X162861573Y-66410981D01*
X162888205Y-66473716D01*
X162903740Y-66519502D01*
X162905278Y-66536477D01*
X162884654Y-66547161D01*
X162831082Y-66572880D01*
X162750034Y-66611105D01*
X162646982Y-66659312D01*
X162527400Y-66714972D01*
X162396760Y-66775559D01*
X162260534Y-66838547D01*
X162124196Y-66901408D01*
X161993218Y-66961616D01*
X161873072Y-67016645D01*
X161769232Y-67063966D01*
X161687170Y-67101055D01*
X161632359Y-67125383D01*
X161610271Y-67134424D01*
X161610168Y-67134433D01*
X161604529Y-67115843D01*
X161601811Y-67070354D01*
X161601766Y-67063011D01*
X161583114Y-66945074D01*
X161528196Y-66812098D01*
X161456800Y-66694040D01*
X161398713Y-66608348D01*
X161336092Y-66514703D01*
X161298065Y-66457100D01*
X161252991Y-66393322D01*
X161189031Y-66309359D01*
X161115228Y-66216838D01*
X161051047Y-66139600D01*
X160975386Y-66049740D01*
X160900684Y-65959678D01*
X160836256Y-65880717D01*
X160796224Y-65830380D01*
X160712193Y-65722243D01*
X160795937Y-65630628D01*
X160875231Y-65530650D01*
X160941499Y-65422023D01*
X160986489Y-65319123D01*
X160997339Y-65279742D01*
X160997284Y-65223367D01*
X160967250Y-65196760D01*
X160907495Y-65200062D01*
X160871453Y-65211171D01*
X160815121Y-65224739D01*
X160771594Y-65223966D01*
X160769613Y-65223287D01*
X160748035Y-65197307D01*
X160719583Y-65137146D01*
X160687336Y-65049769D01*
X160672286Y-65003040D01*
X160641512Y-64909681D01*
X160610819Y-64826991D01*
X160584647Y-64766474D01*
X160572805Y-64745368D01*
X160537498Y-64695220D01*
X160506646Y-64766535D01*
X160482773Y-64826434D01*
X160453570Y-64906106D01*
X160433358Y-64964633D01*
X160403771Y-65042657D01*
X160371431Y-65112475D01*
X160350303Y-65148460D01*
X160309683Y-65205505D01*
X160188433Y-65149273D01*
X160055932Y-65106514D01*
X159911082Y-65091193D01*
X159764901Y-65102097D01*
X159628407Y-65138013D01*
X159512618Y-65197729D01*
X159474780Y-65227816D01*
X159430760Y-65256073D01*
X159363837Y-65286828D01*
X159317037Y-65303902D01*
X159154348Y-65365694D01*
X158965620Y-65453032D01*
X158756234Y-65563092D01*
X158531572Y-65693051D01*
X158305919Y-65834303D01*
X158132154Y-65947028D01*
X158003543Y-65861145D01*
X157883374Y-65765419D01*
X157787098Y-65657317D01*
X157721847Y-65545540D01*
X157704478Y-65496256D01*
X157693461Y-65424029D01*
X157689224Y-65316457D01*
X157691986Y-65180020D01*
X157693031Y-65157176D01*
X157698994Y-65048208D01*
X157705973Y-64970792D01*
X157716428Y-64914169D01*
X157732818Y-64867581D01*
X157757602Y-64820271D01*
X157777712Y-64786759D01*
X157818270Y-64716596D01*
X157850722Y-64653481D01*
X157865905Y-64617014D01*
X157885340Y-64567512D01*
X157916273Y-64501571D01*
X157932006Y-64470987D01*
X157961098Y-64411797D01*
X157979244Y-64366266D01*
X157982266Y-64352375D01*
X157995885Y-64325414D01*
X158031368Y-64279138D01*
X158074707Y-64230430D01*
X158157903Y-64132336D01*
X158215032Y-64036999D01*
X158250763Y-63932288D01*
X158269766Y-63806069D01*
X158275277Y-63709231D01*
X158282539Y-63490779D01*
X158412861Y-63394721D01*
X158617366Y-63264211D01*
X158836340Y-63160959D01*
X158995395Y-63107479D01*
X159058660Y-63091523D01*
X159121684Y-63079739D01*
X159192518Y-63071494D01*
X159279214Y-63066153D01*
X159389823Y-63063083D01*
X159532395Y-63061652D01*
X159580350Y-63061454D01*
X160003683Y-63060079D01*
X160139840Y-63130399D01*
X160224907Y-63176679D01*
X160309801Y-63226630D01*
X160367505Y-63263678D01*
X160506483Y-63346221D01*
X160673736Y-63424413D01*
X160855245Y-63492125D01*
X160966766Y-63525609D01*
X161047763Y-63548618D01*
X161159675Y-63581912D01*
X161293174Y-63622634D01*
X161438933Y-63667932D01*
X161587624Y-63714950D01*
X161633516Y-63729641D01*
X161821264Y-63788707D01*
X161975868Y-63833787D01*
X162103862Y-63865646D01*
X162211782Y-63885051D01*
X162306163Y-63892768D01*
X162393539Y-63889564D01*
X162480446Y-63876205D01*
X162573418Y-63853458D01*
X162607183Y-63843835D01*
X162718757Y-63807680D01*
X162840092Y-63762842D01*
X162947849Y-63718030D01*
X162963808Y-63710730D01*
X163056096Y-63664287D01*
X163122799Y-63619973D01*
X163178510Y-63566577D01*
X163224337Y-63510617D01*
X163272648Y-63450881D01*
X163312424Y-63407228D01*
X163335841Y-63388164D01*
X163337153Y-63387933D01*
X163358070Y-63374001D01*
X163403570Y-63335596D01*
X163467926Y-63277802D01*
X163545415Y-63205703D01*
X163589132Y-63164119D01*
X163729220Y-63022973D01*
X163847734Y-62886517D01*
X163959299Y-62737489D01*
X163997105Y-62682577D01*
X164111375Y-62521071D01*
X164214226Y-62390718D01*
X164304069Y-62293207D01*
X164379316Y-62230225D01*
X164438379Y-62203461D01*
X164448694Y-62202600D01*
X164502333Y-62196128D01*
X164556241Y-62173277D01*
X164619186Y-62128894D01*
X164699937Y-62057822D01*
X164708344Y-62049972D01*
X164801277Y-61974795D01*
X164914283Y-61906357D01*
X165052913Y-61842078D01*
X165222715Y-61779382D01*
X165425731Y-61716696D01*
X165551518Y-61679638D01*
X165682107Y-61639650D01*
X165802698Y-61601352D01*
X165898489Y-61569363D01*
X165904693Y-61567196D01*
X166001116Y-61535986D01*
X166095889Y-61509731D01*
X166172834Y-61492781D01*
X166192127Y-61489903D01*
X166290023Y-61487879D01*
X166411701Y-61499369D01*
G37*
X166411701Y-61499369D02*
X166541705Y-61521988D01*
X166664584Y-61553351D01*
X166716603Y-61570850D01*
X166884203Y-61650522D01*
X167033661Y-61755640D01*
X167160496Y-61880644D01*
X167260226Y-62019974D01*
X167328369Y-62168071D01*
X167360444Y-62319373D01*
X167362321Y-62371933D01*
X167351514Y-62479139D01*
X167323340Y-62613670D01*
X167280765Y-62765719D01*
X167226753Y-62925481D01*
X167164269Y-63083148D01*
X167113886Y-63193599D01*
X167054932Y-63309668D01*
X167002252Y-63399314D01*
X166946905Y-63475618D01*
X166879946Y-63551659D01*
X166842806Y-63590131D01*
X166725704Y-63698518D01*
X166619963Y-63774901D01*
X166573950Y-63799397D01*
X166521078Y-63818124D01*
X166435509Y-63842314D01*
X166326103Y-63870021D01*
X166201719Y-63899302D01*
X166071217Y-63928212D01*
X165943457Y-63954806D01*
X165827299Y-63977140D01*
X165731604Y-63993270D01*
X165665230Y-64001251D01*
X165651873Y-64001766D01*
X165595719Y-64009430D01*
X165549300Y-64022952D01*
X165493577Y-64044137D01*
X165535521Y-64103041D01*
X165568401Y-64165450D01*
X165591565Y-64237424D01*
X165592583Y-64242539D01*
X165598724Y-64286959D01*
X165592826Y-64320209D01*
X165568727Y-64353872D01*
X165520264Y-64399532D01*
X165499216Y-64418034D01*
X165434656Y-64479605D01*
X165358000Y-64560222D01*
X165282912Y-64645338D01*
X165261601Y-64670962D01*
X165132474Y-64828987D01*
X165188762Y-64944037D01*
X165236772Y-65033049D01*
X165282902Y-65088986D01*
X165338181Y-65117896D01*
X165413639Y-65125829D01*
X165509450Y-65119885D01*
X165590114Y-65112357D01*
X165700819Y-65102237D01*
X165829432Y-65090624D01*
X165963823Y-65078617D01*
X166025600Y-65073144D01*
X166165790Y-65059017D01*
X166312795Y-65041238D01*
X166452050Y-65021754D01*
X166568994Y-65002511D01*
X166603516Y-64995879D01*
X166696591Y-64978107D01*
X166773501Y-64965535D01*
X166825374Y-64959478D01*
X166843117Y-64960395D01*
X166840389Y-64983647D01*
X166821301Y-65030823D01*
X166805010Y-65063340D01*
X166780812Y-65115534D01*
X166765998Y-65169512D01*
X166758448Y-65237939D01*
X166756046Y-65333477D01*
X166755997Y-65356433D01*
X166757482Y-65457054D01*
X166763678Y-65529677D01*
X166777248Y-65588589D01*
X166800857Y-65648075D01*
X166816515Y-65680982D01*
X166891359Y-65802792D01*
X166993562Y-65926574D01*
X167110867Y-66039373D01*
X167231016Y-66128238D01*
X167251019Y-66140134D01*
X167334341Y-66192488D01*
X167417840Y-66252533D01*
X167470000Y-66295522D01*
X167614327Y-66399930D01*
X167772475Y-66464988D01*
X167942183Y-66490508D01*
X168121187Y-66476299D01*
X168307223Y-66422171D01*
X168412795Y-66374774D01*
X168477100Y-66337758D01*
X168554581Y-66286357D01*
X168637797Y-66226390D01*
X168719308Y-66163676D01*
X168791672Y-66104034D01*
X168847450Y-66053282D01*
X168879201Y-66017241D01*
X168883743Y-66006466D01*
X168891320Y-65997741D01*
X168902320Y-66012600D01*
X168909572Y-66044137D01*
X168917512Y-66109665D01*
X168925362Y-66200868D01*
X168932345Y-66309427D01*
X168935002Y-66361850D01*
X168943738Y-66522222D01*
X168954144Y-66647660D01*
X168967653Y-66745559D01*
X168985693Y-66823319D01*
X169009694Y-66888335D01*
X169041086Y-66948007D01*
X169051607Y-66965100D01*
X169099136Y-67064542D01*
X169124423Y-67183218D01*
X169126065Y-67197933D01*
X169136441Y-67282142D01*
X169148736Y-67359536D01*
X169157909Y-67403351D01*
X169164915Y-67460512D01*
X169147106Y-67494717D01*
X169145791Y-67495836D01*
X169121588Y-67526317D01*
X169085201Y-67584043D01*
X169041935Y-67659134D01*
X168997094Y-67741707D01*
X168955982Y-67821880D01*
X168923905Y-67889772D01*
X168906165Y-67935500D01*
X168904266Y-67945785D01*
X168886338Y-67976269D01*
X168840368Y-68014032D01*
X168778073Y-68051822D01*
X168711174Y-68082390D01*
X168659397Y-68097287D01*
X168623238Y-68098653D01*
X168586662Y-68085568D01*
X168540236Y-68052729D01*
X168474530Y-67994830D01*
X168470350Y-67990979D01*
X168387366Y-67922480D01*
X168292242Y-67855815D01*
X168206211Y-67805762D01*
X168128299Y-67769856D01*
X168063380Y-67749341D01*
X167993028Y-67740167D01*
X167899295Y-67738279D01*
X167824029Y-67739787D01*
X167762537Y-67745810D01*
X167704354Y-67759502D01*
X167639013Y-67784015D01*
X167556049Y-67822502D01*
X167459469Y-67870781D01*
X167435298Y-67861621D01*
X167391108Y-67826831D01*
X167333750Y-67773493D01*
X167270075Y-67708690D01*
X167206934Y-67639504D01*
X167151178Y-67573018D01*
X167109658Y-67516314D01*
X167098218Y-67497314D01*
X167070408Y-67436229D01*
X167036371Y-67346543D01*
X167000541Y-67240624D01*
X166969228Y-67137455D01*
X166938955Y-67029575D01*
X166919621Y-66953285D01*
X166910107Y-66899593D01*
X166909292Y-66859508D01*
X166916058Y-66824041D01*
X166926298Y-66792604D01*
X166950573Y-66681032D01*
X166956181Y-66549669D01*
X166943573Y-66416494D01*
X166913970Y-66301525D01*
X166860583Y-66186896D01*
X166783312Y-66058478D01*
X166688278Y-65923522D01*
X166581601Y-65789278D01*
X166469401Y-65662997D01*
X166357799Y-65551929D01*
X166252915Y-65463324D01*
X166160871Y-65404433D01*
X166153800Y-65401014D01*
X166095717Y-65375949D01*
X166042022Y-65359799D01*
X165980653Y-65350667D01*
X165899553Y-65346654D01*
X165803350Y-65345850D01*
X165696170Y-65346857D01*
X165618989Y-65351237D01*
X165559492Y-65361022D01*
X165505365Y-65378246D01*
X165444295Y-65404945D01*
X165443579Y-65405281D01*
X165370450Y-65442525D01*
X165307882Y-65479637D01*
X165274237Y-65504549D01*
X165228227Y-65533032D01*
X165161009Y-65558928D01*
X165129138Y-65567400D01*
X164995244Y-65609654D01*
X164874035Y-65677028D01*
X164819100Y-65717493D01*
X164751690Y-65757572D01*
X164669544Y-65789722D01*
X164638625Y-65797652D01*
X164562525Y-65818550D01*
X164470672Y-65851255D01*
X164375411Y-65890496D01*
X164289086Y-65931005D01*
X164224043Y-65967512D01*
X164201532Y-65984229D01*
X164158914Y-66008956D01*
X164095767Y-66031532D01*
X164074489Y-66036908D01*
X164015775Y-66056331D01*
X163934051Y-66091461D01*
X163842668Y-66136326D01*
X163794903Y-66161998D01*
X163711895Y-66206242D01*
X163639721Y-66241219D01*
X163588128Y-66262391D01*
X163570344Y-66266600D01*
X163533412Y-66275862D01*
X163473057Y-66300029D01*
X163409207Y-66330459D01*
X163284516Y-66394318D01*
X163194693Y-66296810D01*
X163135447Y-66226619D01*
X163069721Y-66139941D01*
X163017121Y-66063618D01*
X162964921Y-65988550D01*
X162924744Y-65945640D01*
X162890455Y-65928807D01*
X162880218Y-65927933D01*
X162846227Y-65936027D01*
X162823370Y-65967248D01*
X162806900Y-66017672D01*
X162792799Y-66151024D01*
X162818520Y-66297696D01*
X162861573Y-66410981D01*
X162888205Y-66473716D01*
X162903740Y-66519502D01*
X162905278Y-66536477D01*
X162884654Y-66547161D01*
X162831082Y-66572880D01*
X162750034Y-66611105D01*
X162646982Y-66659312D01*
X162527400Y-66714972D01*
X162396760Y-66775559D01*
X162260534Y-66838547D01*
X162124196Y-66901408D01*
X161993218Y-66961616D01*
X161873072Y-67016645D01*
X161769232Y-67063966D01*
X161687170Y-67101055D01*
X161632359Y-67125383D01*
X161610271Y-67134424D01*
X161610168Y-67134433D01*
X161604529Y-67115843D01*
X161601811Y-67070354D01*
X161601766Y-67063011D01*
X161583114Y-66945074D01*
X161528196Y-66812098D01*
X161456800Y-66694040D01*
X161398713Y-66608348D01*
X161336092Y-66514703D01*
X161298065Y-66457100D01*
X161252991Y-66393322D01*
X161189031Y-66309359D01*
X161115228Y-66216838D01*
X161051047Y-66139600D01*
X160975386Y-66049740D01*
X160900684Y-65959678D01*
X160836256Y-65880717D01*
X160796224Y-65830380D01*
X160712193Y-65722243D01*
X160795937Y-65630628D01*
X160875231Y-65530650D01*
X160941499Y-65422023D01*
X160986489Y-65319123D01*
X160997339Y-65279742D01*
X160997284Y-65223367D01*
X160967250Y-65196760D01*
X160907495Y-65200062D01*
X160871453Y-65211171D01*
X160815121Y-65224739D01*
X160771594Y-65223966D01*
X160769613Y-65223287D01*
X160748035Y-65197307D01*
X160719583Y-65137146D01*
X160687336Y-65049769D01*
X160672286Y-65003040D01*
X160641512Y-64909681D01*
X160610819Y-64826991D01*
X160584647Y-64766474D01*
X160572805Y-64745368D01*
X160537498Y-64695220D01*
X160506646Y-64766535D01*
X160482773Y-64826434D01*
X160453570Y-64906106D01*
X160433358Y-64964633D01*
X160403771Y-65042657D01*
X160371431Y-65112475D01*
X160350303Y-65148460D01*
X160309683Y-65205505D01*
X160188433Y-65149273D01*
X160055932Y-65106514D01*
X159911082Y-65091193D01*
X159764901Y-65102097D01*
X159628407Y-65138013D01*
X159512618Y-65197729D01*
X159474780Y-65227816D01*
X159430760Y-65256073D01*
X159363837Y-65286828D01*
X159317037Y-65303902D01*
X159154348Y-65365694D01*
X158965620Y-65453032D01*
X158756234Y-65563092D01*
X158531572Y-65693051D01*
X158305919Y-65834303D01*
X158132154Y-65947028D01*
X158003543Y-65861145D01*
X157883374Y-65765419D01*
X157787098Y-65657317D01*
X157721847Y-65545540D01*
X157704478Y-65496256D01*
X157693461Y-65424029D01*
X157689224Y-65316457D01*
X157691986Y-65180020D01*
X157693031Y-65157176D01*
X157698994Y-65048208D01*
X157705973Y-64970792D01*
X157716428Y-64914169D01*
X157732818Y-64867581D01*
X157757602Y-64820271D01*
X157777712Y-64786759D01*
X157818270Y-64716596D01*
X157850722Y-64653481D01*
X157865905Y-64617014D01*
X157885340Y-64567512D01*
X157916273Y-64501571D01*
X157932006Y-64470987D01*
X157961098Y-64411797D01*
X157979244Y-64366266D01*
X157982266Y-64352375D01*
X157995885Y-64325414D01*
X158031368Y-64279138D01*
X158074707Y-64230430D01*
X158157903Y-64132336D01*
X158215032Y-64036999D01*
X158250763Y-63932288D01*
X158269766Y-63806069D01*
X158275277Y-63709231D01*
X158282539Y-63490779D01*
X158412861Y-63394721D01*
X158617366Y-63264211D01*
X158836340Y-63160959D01*
X158995395Y-63107479D01*
X159058660Y-63091523D01*
X159121684Y-63079739D01*
X159192518Y-63071494D01*
X159279214Y-63066153D01*
X159389823Y-63063083D01*
X159532395Y-63061652D01*
X159580350Y-63061454D01*
X160003683Y-63060079D01*
X160139840Y-63130399D01*
X160224907Y-63176679D01*
X160309801Y-63226630D01*
X160367505Y-63263678D01*
X160506483Y-63346221D01*
X160673736Y-63424413D01*
X160855245Y-63492125D01*
X160966766Y-63525609D01*
X161047763Y-63548618D01*
X161159675Y-63581912D01*
X161293174Y-63622634D01*
X161438933Y-63667932D01*
X161587624Y-63714950D01*
X161633516Y-63729641D01*
X161821264Y-63788707D01*
X161975868Y-63833787D01*
X162103862Y-63865646D01*
X162211782Y-63885051D01*
X162306163Y-63892768D01*
X162393539Y-63889564D01*
X162480446Y-63876205D01*
X162573418Y-63853458D01*
X162607183Y-63843835D01*
X162718757Y-63807680D01*
X162840092Y-63762842D01*
X162947849Y-63718030D01*
X162963808Y-63710730D01*
X163056096Y-63664287D01*
X163122799Y-63619973D01*
X163178510Y-63566577D01*
X163224337Y-63510617D01*
X163272648Y-63450881D01*
X163312424Y-63407228D01*
X163335841Y-63388164D01*
X163337153Y-63387933D01*
X163358070Y-63374001D01*
X163403570Y-63335596D01*
X163467926Y-63277802D01*
X163545415Y-63205703D01*
X163589132Y-63164119D01*
X163729220Y-63022973D01*
X163847734Y-62886517D01*
X163959299Y-62737489D01*
X163997105Y-62682577D01*
X164111375Y-62521071D01*
X164214226Y-62390718D01*
X164304069Y-62293207D01*
X164379316Y-62230225D01*
X164438379Y-62203461D01*
X164448694Y-62202600D01*
X164502333Y-62196128D01*
X164556241Y-62173277D01*
X164619186Y-62128894D01*
X164699937Y-62057822D01*
X164708344Y-62049972D01*
X164801277Y-61974795D01*
X164914283Y-61906357D01*
X165052913Y-61842078D01*
X165222715Y-61779382D01*
X165425731Y-61716696D01*
X165551518Y-61679638D01*
X165682107Y-61639650D01*
X165802698Y-61601352D01*
X165898489Y-61569363D01*
X165904693Y-61567196D01*
X166001116Y-61535986D01*
X166095889Y-61509731D01*
X166172834Y-61492781D01*
X166192127Y-61489903D01*
X166290023Y-61487879D01*
X166411701Y-61499369D01*
G36*
X169030621Y-68631504D02*
G01*
X169038570Y-68646937D01*
X169043986Y-68676762D01*
X169029768Y-68670973D01*
X169019812Y-68657025D01*
X169013306Y-68629321D01*
X169015948Y-68624362D01*
X169030621Y-68631504D01*
G37*
X169030621Y-68631504D02*
X169038570Y-68646937D01*
X169043986Y-68676762D01*
X169029768Y-68670973D01*
X169019812Y-68657025D01*
X169013306Y-68629321D01*
X169015948Y-68624362D01*
X169030621Y-68631504D01*
G36*
X166558904Y-67607584D02*
G01*
X166604194Y-67708288D01*
X166662019Y-67801814D01*
X166741778Y-67902837D01*
X166765489Y-67930124D01*
X166824928Y-67999851D01*
X166870877Y-68058118D01*
X166897861Y-68097700D01*
X166902381Y-68110745D01*
X166877605Y-68122999D01*
X166826342Y-68136078D01*
X166803364Y-68140267D01*
X166725349Y-68158410D01*
X166640787Y-68185680D01*
X166618266Y-68194504D01*
X166535422Y-68224296D01*
X166444163Y-68250675D01*
X166418068Y-68256822D01*
X166331840Y-68282181D01*
X166242598Y-68318194D01*
X166216985Y-68330934D01*
X166147871Y-68360533D01*
X166055808Y-68390437D01*
X165959695Y-68414573D01*
X165951516Y-68416250D01*
X165873322Y-68435651D01*
X165766826Y-68467277D01*
X165643017Y-68507602D01*
X165512889Y-68553096D01*
X165432933Y-68582702D01*
X165306471Y-68629613D01*
X165181573Y-68674058D01*
X165068595Y-68712486D01*
X164977891Y-68741344D01*
X164935516Y-68753355D01*
X164856499Y-68776603D01*
X164752213Y-68811333D01*
X164636477Y-68852770D01*
X164527711Y-68894312D01*
X164429495Y-68932575D01*
X164344882Y-68964377D01*
X164281926Y-68986775D01*
X164248678Y-68996828D01*
X164246415Y-68997100D01*
X164222521Y-68983518D01*
X164175804Y-68946973D01*
X164114031Y-68893767D01*
X164072137Y-68855695D01*
X164006612Y-68795132D01*
X163953629Y-68746437D01*
X163920224Y-68716061D01*
X163912412Y-68709243D01*
X163920207Y-68696145D01*
X163962623Y-68675092D01*
X164033266Y-68648627D01*
X164125746Y-68619296D01*
X164170802Y-68606390D01*
X164263541Y-68579130D01*
X164351897Y-68550626D01*
X164419068Y-68526343D01*
X164427516Y-68522884D01*
X164491211Y-68492458D01*
X164577757Y-68446500D01*
X164674329Y-68392257D01*
X164768096Y-68336978D01*
X164846232Y-68287913D01*
X164861842Y-68277453D01*
X164919934Y-68244653D01*
X164967676Y-68225215D01*
X165031499Y-68200572D01*
X165116081Y-68161002D01*
X165206404Y-68114212D01*
X165287453Y-68067907D01*
X165335359Y-68036512D01*
X165405555Y-67994883D01*
X165479798Y-67965835D01*
X165545658Y-67952916D01*
X165590703Y-67959670D01*
X165594778Y-67962502D01*
X165629912Y-67974066D01*
X165656215Y-67958556D01*
X165658017Y-67927936D01*
X165670246Y-67902824D01*
X165722011Y-67871343D01*
X165763704Y-67853008D01*
X165844189Y-67813508D01*
X165934209Y-67759247D01*
X165998846Y-67713531D01*
X166064337Y-67667235D01*
X166122587Y-67633966D01*
X166161160Y-67620810D01*
X166161591Y-67620801D01*
X166216634Y-67609440D01*
X166291030Y-67580821D01*
X166369385Y-67541868D01*
X166436302Y-67499504D01*
X166443387Y-67494086D01*
X166498381Y-67450827D01*
X166558904Y-67607584D01*
G37*
X166558904Y-67607584D02*
X166604194Y-67708288D01*
X166662019Y-67801814D01*
X166741778Y-67902837D01*
X166765489Y-67930124D01*
X166824928Y-67999851D01*
X166870877Y-68058118D01*
X166897861Y-68097700D01*
X166902381Y-68110745D01*
X166877605Y-68122999D01*
X166826342Y-68136078D01*
X166803364Y-68140267D01*
X166725349Y-68158410D01*
X166640787Y-68185680D01*
X166618266Y-68194504D01*
X166535422Y-68224296D01*
X166444163Y-68250675D01*
X166418068Y-68256822D01*
X166331840Y-68282181D01*
X166242598Y-68318194D01*
X166216985Y-68330934D01*
X166147871Y-68360533D01*
X166055808Y-68390437D01*
X165959695Y-68414573D01*
X165951516Y-68416250D01*
X165873322Y-68435651D01*
X165766826Y-68467277D01*
X165643017Y-68507602D01*
X165512889Y-68553096D01*
X165432933Y-68582702D01*
X165306471Y-68629613D01*
X165181573Y-68674058D01*
X165068595Y-68712486D01*
X164977891Y-68741344D01*
X164935516Y-68753355D01*
X164856499Y-68776603D01*
X164752213Y-68811333D01*
X164636477Y-68852770D01*
X164527711Y-68894312D01*
X164429495Y-68932575D01*
X164344882Y-68964377D01*
X164281926Y-68986775D01*
X164248678Y-68996828D01*
X164246415Y-68997100D01*
X164222521Y-68983518D01*
X164175804Y-68946973D01*
X164114031Y-68893767D01*
X164072137Y-68855695D01*
X164006612Y-68795132D01*
X163953629Y-68746437D01*
X163920224Y-68716061D01*
X163912412Y-68709243D01*
X163920207Y-68696145D01*
X163962623Y-68675092D01*
X164033266Y-68648627D01*
X164125746Y-68619296D01*
X164170802Y-68606390D01*
X164263541Y-68579130D01*
X164351897Y-68550626D01*
X164419068Y-68526343D01*
X164427516Y-68522884D01*
X164491211Y-68492458D01*
X164577757Y-68446500D01*
X164674329Y-68392257D01*
X164768096Y-68336978D01*
X164846232Y-68287913D01*
X164861842Y-68277453D01*
X164919934Y-68244653D01*
X164967676Y-68225215D01*
X165031499Y-68200572D01*
X165116081Y-68161002D01*
X165206404Y-68114212D01*
X165287453Y-68067907D01*
X165335359Y-68036512D01*
X165405555Y-67994883D01*
X165479798Y-67965835D01*
X165545658Y-67952916D01*
X165590703Y-67959670D01*
X165594778Y-67962502D01*
X165629912Y-67974066D01*
X165656215Y-67958556D01*
X165658017Y-67927936D01*
X165670246Y-67902824D01*
X165722011Y-67871343D01*
X165763704Y-67853008D01*
X165844189Y-67813508D01*
X165934209Y-67759247D01*
X165998846Y-67713531D01*
X166064337Y-67667235D01*
X166122587Y-67633966D01*
X166161160Y-67620810D01*
X166161591Y-67620801D01*
X166216634Y-67609440D01*
X166291030Y-67580821D01*
X166369385Y-67541868D01*
X166436302Y-67499504D01*
X166443387Y-67494086D01*
X166498381Y-67450827D01*
X166558904Y-67607584D01*
G36*
X128910849Y-62255499D02*
G01*
X129034971Y-62274662D01*
X129175194Y-62310616D01*
X129324462Y-62362265D01*
X129326531Y-62363074D01*
X129432874Y-62400397D01*
X129561873Y-62439245D01*
X129694437Y-62474117D01*
X129775677Y-62492504D01*
X129926691Y-62526657D01*
X130049472Y-62562763D01*
X130157325Y-62606677D01*
X130263559Y-62664252D01*
X130381482Y-62741343D01*
X130447741Y-62788143D01*
X130549746Y-62858512D01*
X130660565Y-62930401D01*
X130764173Y-62993610D01*
X130820481Y-63025434D01*
X130880227Y-63058378D01*
X130928782Y-63088658D01*
X130971989Y-63122098D01*
X131015689Y-63164523D01*
X131065726Y-63221756D01*
X131127940Y-63299621D01*
X131208174Y-63403944D01*
X131233529Y-63437196D01*
X131429165Y-63687013D01*
X131608883Y-63901302D01*
X131775425Y-64082533D01*
X131931531Y-64233176D01*
X132079943Y-64355704D01*
X132223401Y-64452587D01*
X132364648Y-64526295D01*
X132497600Y-64576579D01*
X132579604Y-64599612D01*
X132657067Y-64614266D01*
X132743625Y-64622133D01*
X132852912Y-64624804D01*
X132910350Y-64624750D01*
X133019594Y-64622451D01*
X133117819Y-64615719D01*
X133213272Y-64602819D01*
X133314202Y-64582013D01*
X133428856Y-64551566D01*
X133565482Y-64509740D01*
X133732329Y-64454799D01*
X133757016Y-64446486D01*
X133885413Y-64404680D01*
X134029471Y-64360157D01*
X134168514Y-64319206D01*
X134250382Y-64296412D01*
X134380077Y-64260356D01*
X134483907Y-64227588D01*
X134573869Y-64192898D01*
X134661962Y-64151077D01*
X134760182Y-64096914D01*
X134880527Y-64025199D01*
X134894539Y-64016680D01*
X135014694Y-63944909D01*
X135113065Y-63891511D01*
X135199534Y-63854048D01*
X135283986Y-63830077D01*
X135376302Y-63817159D01*
X135486366Y-63812853D01*
X135624062Y-63814720D01*
X135702833Y-63817090D01*
X135847536Y-63822683D01*
X135959986Y-63829619D01*
X136050266Y-63839126D01*
X136128455Y-63852430D01*
X136204635Y-63870760D01*
X136250608Y-63883805D01*
X136505748Y-63978122D01*
X136732153Y-64102582D01*
X136932173Y-64258593D01*
X137017689Y-64343167D01*
X137155730Y-64507753D01*
X137269343Y-64683769D01*
X137359963Y-64875762D01*
X137429026Y-65088277D01*
X137477968Y-65325861D01*
X137508222Y-65593060D01*
X137521225Y-65894421D01*
X137521753Y-65939920D01*
X137524683Y-66301158D01*
X137463719Y-66393422D01*
X137370665Y-66511810D01*
X137260759Y-66604926D01*
X137148715Y-66670820D01*
X137054732Y-66711001D01*
X136929618Y-66753209D01*
X136784287Y-66794560D01*
X136629656Y-66832174D01*
X136476641Y-66863166D01*
X136341442Y-66884008D01*
X136247635Y-66894693D01*
X136180483Y-66898073D01*
X136124726Y-66892785D01*
X136065106Y-66877468D01*
X135992338Y-66852861D01*
X135775102Y-66757756D01*
X135562688Y-66629268D01*
X135360869Y-66473208D01*
X135175419Y-66295387D01*
X135012111Y-66101615D01*
X134876718Y-65897704D01*
X134775014Y-65689463D01*
X134741020Y-65593454D01*
X134719461Y-65532074D01*
X134700279Y-65491488D01*
X134690783Y-65481636D01*
X134668582Y-65500540D01*
X134638566Y-65549030D01*
X134605627Y-65616312D01*
X134574653Y-65691590D01*
X134550536Y-65764068D01*
X134538856Y-65817039D01*
X134526484Y-65896127D01*
X134510463Y-65940366D01*
X134483061Y-65957040D01*
X134436548Y-65953435D01*
X134402078Y-65945927D01*
X134282988Y-65930831D01*
X134149979Y-65934248D01*
X134015220Y-65953997D01*
X133890882Y-65987895D01*
X133789133Y-66033763D01*
X133747206Y-66063305D01*
X133711071Y-66082124D01*
X133647160Y-66104946D01*
X133569098Y-66126926D01*
X133566631Y-66127534D01*
X133498020Y-66148416D01*
X133397946Y-66184306D01*
X133273294Y-66232282D01*
X133130950Y-66289424D01*
X132977800Y-66352810D01*
X132820728Y-66419519D01*
X132666620Y-66486629D01*
X132522363Y-66551220D01*
X132394842Y-66610370D01*
X132290942Y-66661158D01*
X132222433Y-66697814D01*
X132138934Y-66743779D01*
X132059167Y-66783825D01*
X131997540Y-66810812D01*
X131986601Y-66814700D01*
X131847878Y-66880334D01*
X131724947Y-66977577D01*
X131623610Y-67098671D01*
X131549668Y-67235856D01*
X131508924Y-67381374D01*
X131502766Y-67461752D01*
X131501496Y-67507525D01*
X131492938Y-67540320D01*
X131469976Y-67568876D01*
X131425488Y-67601932D01*
X131352358Y-67648224D01*
X131349308Y-67650120D01*
X131108981Y-67786785D01*
X130876490Y-67891557D01*
X130639354Y-67969681D01*
X130517364Y-67999895D01*
X130403853Y-68027182D01*
X130295613Y-68056600D01*
X130204471Y-68084720D01*
X130142251Y-68108119D01*
X130139558Y-68109362D01*
X130062324Y-68155801D01*
X129971005Y-68226158D01*
X129874576Y-68311757D01*
X129782008Y-68403923D01*
X129702273Y-68493981D01*
X129644345Y-68573254D01*
X129626837Y-68605106D01*
X129595922Y-68681280D01*
X129589775Y-68723311D01*
X129608435Y-68731188D01*
X129651942Y-68704902D01*
X129720333Y-68644443D01*
X129804795Y-68559124D01*
X129893260Y-68468510D01*
X129969086Y-68399009D01*
X130040606Y-68346855D01*
X130116158Y-68308281D01*
X130204075Y-68279522D01*
X130312693Y-68256812D01*
X130450347Y-68236385D01*
X130546132Y-68224178D01*
X130771108Y-68186682D01*
X131004170Y-68130509D01*
X131231358Y-68059802D01*
X131438714Y-67978706D01*
X131547808Y-67926782D01*
X131588942Y-67909878D01*
X131608497Y-67910427D01*
X131608751Y-67911764D01*
X131621983Y-67932836D01*
X131658212Y-67979439D01*
X131712414Y-68045373D01*
X131779562Y-68124437D01*
X131804543Y-68153317D01*
X131909689Y-68268519D01*
X132025958Y-68386191D01*
X132144744Y-68498324D01*
X132257440Y-68596909D01*
X132355438Y-68673935D01*
X132388806Y-68697054D01*
X132422706Y-68721258D01*
X132422475Y-68734297D01*
X132394388Y-68746272D01*
X132359121Y-68755716D01*
X132290378Y-68771192D01*
X132196299Y-68790974D01*
X132085023Y-68813331D01*
X132009827Y-68827946D01*
X131882919Y-68853309D01*
X131759517Y-68879785D01*
X131650552Y-68904903D01*
X131566960Y-68926191D01*
X131538578Y-68934474D01*
X131443640Y-68959070D01*
X131334398Y-68979776D01*
X131259350Y-68989486D01*
X131176199Y-68999314D01*
X131103258Y-69011612D01*
X131058266Y-69023118D01*
X131005350Y-69043007D01*
X131079433Y-69080798D01*
X131147514Y-69107391D01*
X131229547Y-69128834D01*
X131257415Y-69133728D01*
X131352771Y-69150788D01*
X131414751Y-69171847D01*
X131452299Y-69202000D01*
X131474358Y-69246346D01*
X131478329Y-69259621D01*
X131485492Y-69289084D01*
X131485719Y-69314452D01*
X131474879Y-69341731D01*
X131448839Y-69376927D01*
X131403469Y-69426047D01*
X131334636Y-69495096D01*
X131277871Y-69551036D01*
X131162777Y-69661551D01*
X131065934Y-69746758D01*
X130977787Y-69813270D01*
X130888781Y-69867699D01*
X130789361Y-69916658D01*
X130687016Y-69959925D01*
X130600631Y-69991877D01*
X130495825Y-70026320D01*
X130382421Y-70060517D01*
X130270237Y-70091730D01*
X130169094Y-70117220D01*
X130088812Y-70134250D01*
X130040777Y-70140100D01*
X130005727Y-70119303D01*
X129977987Y-70060725D01*
X129909175Y-69910840D01*
X129805500Y-69774918D01*
X129673958Y-69660614D01*
X129543163Y-69585107D01*
X129488079Y-69562878D01*
X129431736Y-69548636D01*
X129362483Y-69540722D01*
X129268671Y-69537474D01*
X129206183Y-69537077D01*
X129098257Y-69538051D01*
X129020557Y-69542489D01*
X128961002Y-69552297D01*
X128907513Y-69569378D01*
X128854689Y-69592492D01*
X128736028Y-69648134D01*
X128700004Y-69587149D01*
X128655939Y-69527386D01*
X128587247Y-69451152D01*
X128503156Y-69367395D01*
X128412891Y-69285063D01*
X128325680Y-69213102D01*
X128278897Y-69178790D01*
X128218777Y-69135108D01*
X128175601Y-69099326D01*
X128158450Y-69078991D01*
X128158433Y-69078684D01*
X128172875Y-69056394D01*
X128210496Y-69015490D01*
X128256179Y-68971372D01*
X128325961Y-68901164D01*
X128395041Y-68818476D01*
X128467108Y-68717872D01*
X128545852Y-68593915D01*
X128634963Y-68441167D01*
X128719102Y-68289249D01*
X128802116Y-68137814D01*
X128869212Y-68018898D01*
X128924092Y-67927511D01*
X128970456Y-67858659D01*
X129012008Y-67807350D01*
X129052448Y-67768593D01*
X129095479Y-67737395D01*
X129144802Y-67708764D01*
X129152676Y-67704540D01*
X129296530Y-67612748D01*
X129426815Y-67500679D01*
X129537142Y-67375823D01*
X129621124Y-67245672D01*
X129672375Y-67117717D01*
X129679348Y-67086824D01*
X129688228Y-67026610D01*
X129689826Y-66985847D01*
X129687462Y-66977184D01*
X129668601Y-66985538D01*
X129629905Y-67017700D01*
X129586717Y-67059699D01*
X129478040Y-67144200D01*
X129345991Y-67196703D01*
X129187400Y-67218360D01*
X129147946Y-67219100D01*
X129064852Y-67214700D01*
X129002328Y-67197428D01*
X128939155Y-67161169D01*
X128933534Y-67157332D01*
X128860791Y-67092381D01*
X128811107Y-67018633D01*
X128809270Y-67014457D01*
X128779765Y-66945099D01*
X128744791Y-66862932D01*
X128729711Y-66827516D01*
X128684640Y-66721683D01*
X128651976Y-66795766D01*
X128628934Y-66856376D01*
X128602370Y-66938290D01*
X128582526Y-67007433D01*
X128555205Y-67099264D01*
X128514941Y-67221141D01*
X128465084Y-67364037D01*
X128408985Y-67518924D01*
X128349993Y-67676777D01*
X128291460Y-67828567D01*
X128236735Y-67965269D01*
X128189168Y-68077856D01*
X128167322Y-68126123D01*
X128061884Y-68326618D01*
X127949897Y-68494071D01*
X127833994Y-68624803D01*
X127772506Y-68677466D01*
X127663420Y-68760649D01*
X127545802Y-68669501D01*
X127473654Y-68616664D01*
X127402692Y-68569678D01*
X127354100Y-68541811D01*
X127309941Y-68512813D01*
X127244884Y-68461086D01*
X127167779Y-68394020D01*
X127089516Y-68320976D01*
X126995530Y-68233618D01*
X126891469Y-68142582D01*
X126791818Y-68060283D01*
X126729685Y-68012496D01*
X126638822Y-67942067D01*
X126545034Y-67863197D01*
X126464611Y-67789753D01*
X126443935Y-67769229D01*
X126381355Y-67707721D01*
X126323674Y-67655325D01*
X126282172Y-67622226D01*
X126278420Y-67619789D01*
X126246017Y-67594117D01*
X126241570Y-67563970D01*
X126254115Y-67525971D01*
X126263738Y-67483582D01*
X126274226Y-67407695D01*
X126284622Y-67307106D01*
X126293970Y-67190612D01*
X126298755Y-67115411D01*
X126313607Y-66923434D01*
X126336583Y-66761834D01*
X126371494Y-66619343D01*
X126422150Y-66484693D01*
X126492362Y-66346614D01*
X126585941Y-66193838D01*
X126635921Y-66118433D01*
X126704071Y-66024049D01*
X126766339Y-65956801D01*
X126835158Y-65905656D01*
X126922959Y-65859582D01*
X126932727Y-65855075D01*
X127034994Y-65810803D01*
X127130520Y-65776219D01*
X127226770Y-65750160D01*
X127331209Y-65731466D01*
X127451304Y-65718974D01*
X127594518Y-65711525D01*
X127768318Y-65707956D01*
X127883266Y-65707215D01*
X128082158Y-65707717D01*
X128249163Y-65711192D01*
X128394680Y-65718577D01*
X128529106Y-65730810D01*
X128662839Y-65748828D01*
X128806278Y-65773567D01*
X128962766Y-65804512D01*
X129026221Y-65815455D01*
X129115996Y-65828082D01*
X129224903Y-65841670D01*
X129345755Y-65855498D01*
X129471366Y-65868844D01*
X129594547Y-65880985D01*
X129708112Y-65891199D01*
X129804874Y-65898764D01*
X129877644Y-65902958D01*
X129919236Y-65903059D01*
X129926121Y-65901311D01*
X129937991Y-65882087D01*
X129966070Y-65836149D01*
X130004578Y-65772959D01*
X130009506Y-65764862D01*
X130051139Y-65693138D01*
X130072281Y-65644561D01*
X130076478Y-65607430D01*
X130067974Y-65572027D01*
X130025416Y-65479039D01*
X129964685Y-65383505D01*
X129893333Y-65294195D01*
X129818916Y-65219884D01*
X129748987Y-65169343D01*
X129707025Y-65152860D01*
X129663198Y-65139803D01*
X129644320Y-65114808D01*
X129640110Y-65063301D01*
X129640100Y-65057965D01*
X129651811Y-64982573D01*
X129680216Y-64910764D01*
X129682354Y-64907153D01*
X129716087Y-64842370D01*
X129720231Y-64803740D01*
X129694373Y-64786739D01*
X129671170Y-64784933D01*
X129614818Y-64776655D01*
X129549675Y-64756504D01*
X129544219Y-64754283D01*
X129487901Y-64736650D01*
X129405587Y-64717863D01*
X129313351Y-64701505D01*
X129296190Y-64698989D01*
X129109989Y-64672235D01*
X128959868Y-64648719D01*
X128839920Y-64626282D01*
X128744236Y-64602762D01*
X128666910Y-64575999D01*
X128602034Y-64543832D01*
X128543700Y-64504099D01*
X128486001Y-64454641D01*
X128423029Y-64393297D01*
X128401850Y-64371870D01*
X128252222Y-64195340D01*
X128119695Y-63990522D01*
X128012066Y-63770424D01*
X127964635Y-63642466D01*
X127916782Y-63451911D01*
X127895764Y-63262080D01*
X127901153Y-63080673D01*
X127932526Y-62915385D01*
X127989455Y-62773914D01*
X128014997Y-62731956D01*
X128051323Y-62687663D01*
X128110493Y-62625539D01*
X128183101Y-62555176D01*
X128233236Y-62509398D01*
X128312789Y-62440209D01*
X128372577Y-62394041D01*
X128423394Y-62364620D01*
X128476035Y-62345671D01*
X128539882Y-62331200D01*
X128622326Y-62311875D01*
X128697018Y-62289124D01*
X128739136Y-62271924D01*
X128809886Y-62254221D01*
X128910849Y-62255499D01*
G37*
X128910849Y-62255499D02*
X129034971Y-62274662D01*
X129175194Y-62310616D01*
X129324462Y-62362265D01*
X129326531Y-62363074D01*
X129432874Y-62400397D01*
X129561873Y-62439245D01*
X129694437Y-62474117D01*
X129775677Y-62492504D01*
X129926691Y-62526657D01*
X130049472Y-62562763D01*
X130157325Y-62606677D01*
X130263559Y-62664252D01*
X130381482Y-62741343D01*
X130447741Y-62788143D01*
X130549746Y-62858512D01*
X130660565Y-62930401D01*
X130764173Y-62993610D01*
X130820481Y-63025434D01*
X130880227Y-63058378D01*
X130928782Y-63088658D01*
X130971989Y-63122098D01*
X131015689Y-63164523D01*
X131065726Y-63221756D01*
X131127940Y-63299621D01*
X131208174Y-63403944D01*
X131233529Y-63437196D01*
X131429165Y-63687013D01*
X131608883Y-63901302D01*
X131775425Y-64082533D01*
X131931531Y-64233176D01*
X132079943Y-64355704D01*
X132223401Y-64452587D01*
X132364648Y-64526295D01*
X132497600Y-64576579D01*
X132579604Y-64599612D01*
X132657067Y-64614266D01*
X132743625Y-64622133D01*
X132852912Y-64624804D01*
X132910350Y-64624750D01*
X133019594Y-64622451D01*
X133117819Y-64615719D01*
X133213272Y-64602819D01*
X133314202Y-64582013D01*
X133428856Y-64551566D01*
X133565482Y-64509740D01*
X133732329Y-64454799D01*
X133757016Y-64446486D01*
X133885413Y-64404680D01*
X134029471Y-64360157D01*
X134168514Y-64319206D01*
X134250382Y-64296412D01*
X134380077Y-64260356D01*
X134483907Y-64227588D01*
X134573869Y-64192898D01*
X134661962Y-64151077D01*
X134760182Y-64096914D01*
X134880527Y-64025199D01*
X134894539Y-64016680D01*
X135014694Y-63944909D01*
X135113065Y-63891511D01*
X135199534Y-63854048D01*
X135283986Y-63830077D01*
X135376302Y-63817159D01*
X135486366Y-63812853D01*
X135624062Y-63814720D01*
X135702833Y-63817090D01*
X135847536Y-63822683D01*
X135959986Y-63829619D01*
X136050266Y-63839126D01*
X136128455Y-63852430D01*
X136204635Y-63870760D01*
X136250608Y-63883805D01*
X136505748Y-63978122D01*
X136732153Y-64102582D01*
X136932173Y-64258593D01*
X137017689Y-64343167D01*
X137155730Y-64507753D01*
X137269343Y-64683769D01*
X137359963Y-64875762D01*
X137429026Y-65088277D01*
X137477968Y-65325861D01*
X137508222Y-65593060D01*
X137521225Y-65894421D01*
X137521753Y-65939920D01*
X137524683Y-66301158D01*
X137463719Y-66393422D01*
X137370665Y-66511810D01*
X137260759Y-66604926D01*
X137148715Y-66670820D01*
X137054732Y-66711001D01*
X136929618Y-66753209D01*
X136784287Y-66794560D01*
X136629656Y-66832174D01*
X136476641Y-66863166D01*
X136341442Y-66884008D01*
X136247635Y-66894693D01*
X136180483Y-66898073D01*
X136124726Y-66892785D01*
X136065106Y-66877468D01*
X135992338Y-66852861D01*
X135775102Y-66757756D01*
X135562688Y-66629268D01*
X135360869Y-66473208D01*
X135175419Y-66295387D01*
X135012111Y-66101615D01*
X134876718Y-65897704D01*
X134775014Y-65689463D01*
X134741020Y-65593454D01*
X134719461Y-65532074D01*
X134700279Y-65491488D01*
X134690783Y-65481636D01*
X134668582Y-65500540D01*
X134638566Y-65549030D01*
X134605627Y-65616312D01*
X134574653Y-65691590D01*
X134550536Y-65764068D01*
X134538856Y-65817039D01*
X134526484Y-65896127D01*
X134510463Y-65940366D01*
X134483061Y-65957040D01*
X134436548Y-65953435D01*
X134402078Y-65945927D01*
X134282988Y-65930831D01*
X134149979Y-65934248D01*
X134015220Y-65953997D01*
X133890882Y-65987895D01*
X133789133Y-66033763D01*
X133747206Y-66063305D01*
X133711071Y-66082124D01*
X133647160Y-66104946D01*
X133569098Y-66126926D01*
X133566631Y-66127534D01*
X133498020Y-66148416D01*
X133397946Y-66184306D01*
X133273294Y-66232282D01*
X133130950Y-66289424D01*
X132977800Y-66352810D01*
X132820728Y-66419519D01*
X132666620Y-66486629D01*
X132522363Y-66551220D01*
X132394842Y-66610370D01*
X132290942Y-66661158D01*
X132222433Y-66697814D01*
X132138934Y-66743779D01*
X132059167Y-66783825D01*
X131997540Y-66810812D01*
X131986601Y-66814700D01*
X131847878Y-66880334D01*
X131724947Y-66977577D01*
X131623610Y-67098671D01*
X131549668Y-67235856D01*
X131508924Y-67381374D01*
X131502766Y-67461752D01*
X131501496Y-67507525D01*
X131492938Y-67540320D01*
X131469976Y-67568876D01*
X131425488Y-67601932D01*
X131352358Y-67648224D01*
X131349308Y-67650120D01*
X131108981Y-67786785D01*
X130876490Y-67891557D01*
X130639354Y-67969681D01*
X130517364Y-67999895D01*
X130403853Y-68027182D01*
X130295613Y-68056600D01*
X130204471Y-68084720D01*
X130142251Y-68108119D01*
X130139558Y-68109362D01*
X130062324Y-68155801D01*
X129971005Y-68226158D01*
X129874576Y-68311757D01*
X129782008Y-68403923D01*
X129702273Y-68493981D01*
X129644345Y-68573254D01*
X129626837Y-68605106D01*
X129595922Y-68681280D01*
X129589775Y-68723311D01*
X129608435Y-68731188D01*
X129651942Y-68704902D01*
X129720333Y-68644443D01*
X129804795Y-68559124D01*
X129893260Y-68468510D01*
X129969086Y-68399009D01*
X130040606Y-68346855D01*
X130116158Y-68308281D01*
X130204075Y-68279522D01*
X130312693Y-68256812D01*
X130450347Y-68236385D01*
X130546132Y-68224178D01*
X130771108Y-68186682D01*
X131004170Y-68130509D01*
X131231358Y-68059802D01*
X131438714Y-67978706D01*
X131547808Y-67926782D01*
X131588942Y-67909878D01*
X131608497Y-67910427D01*
X131608751Y-67911764D01*
X131621983Y-67932836D01*
X131658212Y-67979439D01*
X131712414Y-68045373D01*
X131779562Y-68124437D01*
X131804543Y-68153317D01*
X131909689Y-68268519D01*
X132025958Y-68386191D01*
X132144744Y-68498324D01*
X132257440Y-68596909D01*
X132355438Y-68673935D01*
X132388806Y-68697054D01*
X132422706Y-68721258D01*
X132422475Y-68734297D01*
X132394388Y-68746272D01*
X132359121Y-68755716D01*
X132290378Y-68771192D01*
X132196299Y-68790974D01*
X132085023Y-68813331D01*
X132009827Y-68827946D01*
X131882919Y-68853309D01*
X131759517Y-68879785D01*
X131650552Y-68904903D01*
X131566960Y-68926191D01*
X131538578Y-68934474D01*
X131443640Y-68959070D01*
X131334398Y-68979776D01*
X131259350Y-68989486D01*
X131176199Y-68999314D01*
X131103258Y-69011612D01*
X131058266Y-69023118D01*
X131005350Y-69043007D01*
X131079433Y-69080798D01*
X131147514Y-69107391D01*
X131229547Y-69128834D01*
X131257415Y-69133728D01*
X131352771Y-69150788D01*
X131414751Y-69171847D01*
X131452299Y-69202000D01*
X131474358Y-69246346D01*
X131478329Y-69259621D01*
X131485492Y-69289084D01*
X131485719Y-69314452D01*
X131474879Y-69341731D01*
X131448839Y-69376927D01*
X131403469Y-69426047D01*
X131334636Y-69495096D01*
X131277871Y-69551036D01*
X131162777Y-69661551D01*
X131065934Y-69746758D01*
X130977787Y-69813270D01*
X130888781Y-69867699D01*
X130789361Y-69916658D01*
X130687016Y-69959925D01*
X130600631Y-69991877D01*
X130495825Y-70026320D01*
X130382421Y-70060517D01*
X130270237Y-70091730D01*
X130169094Y-70117220D01*
X130088812Y-70134250D01*
X130040777Y-70140100D01*
X130005727Y-70119303D01*
X129977987Y-70060725D01*
X129909175Y-69910840D01*
X129805500Y-69774918D01*
X129673958Y-69660614D01*
X129543163Y-69585107D01*
X129488079Y-69562878D01*
X129431736Y-69548636D01*
X129362483Y-69540722D01*
X129268671Y-69537474D01*
X129206183Y-69537077D01*
X129098257Y-69538051D01*
X129020557Y-69542489D01*
X128961002Y-69552297D01*
X128907513Y-69569378D01*
X128854689Y-69592492D01*
X128736028Y-69648134D01*
X128700004Y-69587149D01*
X128655939Y-69527386D01*
X128587247Y-69451152D01*
X128503156Y-69367395D01*
X128412891Y-69285063D01*
X128325680Y-69213102D01*
X128278897Y-69178790D01*
X128218777Y-69135108D01*
X128175601Y-69099326D01*
X128158450Y-69078991D01*
X128158433Y-69078684D01*
X128172875Y-69056394D01*
X128210496Y-69015490D01*
X128256179Y-68971372D01*
X128325961Y-68901164D01*
X128395041Y-68818476D01*
X128467108Y-68717872D01*
X128545852Y-68593915D01*
X128634963Y-68441167D01*
X128719102Y-68289249D01*
X128802116Y-68137814D01*
X128869212Y-68018898D01*
X128924092Y-67927511D01*
X128970456Y-67858659D01*
X129012008Y-67807350D01*
X129052448Y-67768593D01*
X129095479Y-67737395D01*
X129144802Y-67708764D01*
X129152676Y-67704540D01*
X129296530Y-67612748D01*
X129426815Y-67500679D01*
X129537142Y-67375823D01*
X129621124Y-67245672D01*
X129672375Y-67117717D01*
X129679348Y-67086824D01*
X129688228Y-67026610D01*
X129689826Y-66985847D01*
X129687462Y-66977184D01*
X129668601Y-66985538D01*
X129629905Y-67017700D01*
X129586717Y-67059699D01*
X129478040Y-67144200D01*
X129345991Y-67196703D01*
X129187400Y-67218360D01*
X129147946Y-67219100D01*
X129064852Y-67214700D01*
X129002328Y-67197428D01*
X128939155Y-67161169D01*
X128933534Y-67157332D01*
X128860791Y-67092381D01*
X128811107Y-67018633D01*
X128809270Y-67014457D01*
X128779765Y-66945099D01*
X128744791Y-66862932D01*
X128729711Y-66827516D01*
X128684640Y-66721683D01*
X128651976Y-66795766D01*
X128628934Y-66856376D01*
X128602370Y-66938290D01*
X128582526Y-67007433D01*
X128555205Y-67099264D01*
X128514941Y-67221141D01*
X128465084Y-67364037D01*
X128408985Y-67518924D01*
X128349993Y-67676777D01*
X128291460Y-67828567D01*
X128236735Y-67965269D01*
X128189168Y-68077856D01*
X128167322Y-68126123D01*
X128061884Y-68326618D01*
X127949897Y-68494071D01*
X127833994Y-68624803D01*
X127772506Y-68677466D01*
X127663420Y-68760649D01*
X127545802Y-68669501D01*
X127473654Y-68616664D01*
X127402692Y-68569678D01*
X127354100Y-68541811D01*
X127309941Y-68512813D01*
X127244884Y-68461086D01*
X127167779Y-68394020D01*
X127089516Y-68320976D01*
X126995530Y-68233618D01*
X126891469Y-68142582D01*
X126791818Y-68060283D01*
X126729685Y-68012496D01*
X126638822Y-67942067D01*
X126545034Y-67863197D01*
X126464611Y-67789753D01*
X126443935Y-67769229D01*
X126381355Y-67707721D01*
X126323674Y-67655325D01*
X126282172Y-67622226D01*
X126278420Y-67619789D01*
X126246017Y-67594117D01*
X126241570Y-67563970D01*
X126254115Y-67525971D01*
X126263738Y-67483582D01*
X126274226Y-67407695D01*
X126284622Y-67307106D01*
X126293970Y-67190612D01*
X126298755Y-67115411D01*
X126313607Y-66923434D01*
X126336583Y-66761834D01*
X126371494Y-66619343D01*
X126422150Y-66484693D01*
X126492362Y-66346614D01*
X126585941Y-66193838D01*
X126635921Y-66118433D01*
X126704071Y-66024049D01*
X126766339Y-65956801D01*
X126835158Y-65905656D01*
X126922959Y-65859582D01*
X126932727Y-65855075D01*
X127034994Y-65810803D01*
X127130520Y-65776219D01*
X127226770Y-65750160D01*
X127331209Y-65731466D01*
X127451304Y-65718974D01*
X127594518Y-65711525D01*
X127768318Y-65707956D01*
X127883266Y-65707215D01*
X128082158Y-65707717D01*
X128249163Y-65711192D01*
X128394680Y-65718577D01*
X128529106Y-65730810D01*
X128662839Y-65748828D01*
X128806278Y-65773567D01*
X128962766Y-65804512D01*
X129026221Y-65815455D01*
X129115996Y-65828082D01*
X129224903Y-65841670D01*
X129345755Y-65855498D01*
X129471366Y-65868844D01*
X129594547Y-65880985D01*
X129708112Y-65891199D01*
X129804874Y-65898764D01*
X129877644Y-65902958D01*
X129919236Y-65903059D01*
X129926121Y-65901311D01*
X129937991Y-65882087D01*
X129966070Y-65836149D01*
X130004578Y-65772959D01*
X130009506Y-65764862D01*
X130051139Y-65693138D01*
X130072281Y-65644561D01*
X130076478Y-65607430D01*
X130067974Y-65572027D01*
X130025416Y-65479039D01*
X129964685Y-65383505D01*
X129893333Y-65294195D01*
X129818916Y-65219884D01*
X129748987Y-65169343D01*
X129707025Y-65152860D01*
X129663198Y-65139803D01*
X129644320Y-65114808D01*
X129640110Y-65063301D01*
X129640100Y-65057965D01*
X129651811Y-64982573D01*
X129680216Y-64910764D01*
X129682354Y-64907153D01*
X129716087Y-64842370D01*
X129720231Y-64803740D01*
X129694373Y-64786739D01*
X129671170Y-64784933D01*
X129614818Y-64776655D01*
X129549675Y-64756504D01*
X129544219Y-64754283D01*
X129487901Y-64736650D01*
X129405587Y-64717863D01*
X129313351Y-64701505D01*
X129296190Y-64698989D01*
X129109989Y-64672235D01*
X128959868Y-64648719D01*
X128839920Y-64626282D01*
X128744236Y-64602762D01*
X128666910Y-64575999D01*
X128602034Y-64543832D01*
X128543700Y-64504099D01*
X128486001Y-64454641D01*
X128423029Y-64393297D01*
X128401850Y-64371870D01*
X128252222Y-64195340D01*
X128119695Y-63990522D01*
X128012066Y-63770424D01*
X127964635Y-63642466D01*
X127916782Y-63451911D01*
X127895764Y-63262080D01*
X127901153Y-63080673D01*
X127932526Y-62915385D01*
X127989455Y-62773914D01*
X128014997Y-62731956D01*
X128051323Y-62687663D01*
X128110493Y-62625539D01*
X128183101Y-62555176D01*
X128233236Y-62509398D01*
X128312789Y-62440209D01*
X128372577Y-62394041D01*
X128423394Y-62364620D01*
X128476035Y-62345671D01*
X128539882Y-62331200D01*
X128622326Y-62311875D01*
X128697018Y-62289124D01*
X128739136Y-62271924D01*
X128809886Y-62254221D01*
X128910849Y-62255499D01*
G36*
X169152906Y-68798903D02*
G01*
X169223625Y-68870533D01*
X169302267Y-68943131D01*
X169355227Y-68987620D01*
X169426515Y-69045430D01*
X169497800Y-69105955D01*
X169532315Y-69136658D01*
X169607693Y-69205701D01*
X169533456Y-69328942D01*
X169433032Y-69500958D01*
X169344520Y-69663115D01*
X169271587Y-69808296D01*
X169217898Y-69929384D01*
X169200773Y-69974748D01*
X169156792Y-70084854D01*
X169109870Y-70162311D01*
X169051883Y-70216481D01*
X168974705Y-70256731D01*
X168946898Y-70267382D01*
X168788556Y-70303063D01*
X168620720Y-70298311D01*
X168555016Y-70286179D01*
X168488710Y-70268647D01*
X168405408Y-70242828D01*
X168313903Y-70211941D01*
X168222991Y-70179205D01*
X168141467Y-70147840D01*
X168078126Y-70121064D01*
X168041761Y-70102097D01*
X168036433Y-70096360D01*
X168055161Y-70082013D01*
X168104530Y-70060912D01*
X168174317Y-70037358D01*
X168182709Y-70034829D01*
X168275756Y-70000986D01*
X168369623Y-69957097D01*
X168432313Y-69920189D01*
X168509477Y-69870193D01*
X168591006Y-69821971D01*
X168629039Y-69801464D01*
X168734465Y-69731868D01*
X168841833Y-69633799D01*
X168940132Y-69519088D01*
X169018352Y-69399566D01*
X169036834Y-69363317D01*
X169089477Y-69214319D01*
X169114607Y-69056386D01*
X169111055Y-68903031D01*
X169086326Y-68791376D01*
X169052296Y-68690183D01*
X169152906Y-68798903D01*
G37*
X169152906Y-68798903D02*
X169223625Y-68870533D01*
X169302267Y-68943131D01*
X169355227Y-68987620D01*
X169426515Y-69045430D01*
X169497800Y-69105955D01*
X169532315Y-69136658D01*
X169607693Y-69205701D01*
X169533456Y-69328942D01*
X169433032Y-69500958D01*
X169344520Y-69663115D01*
X169271587Y-69808296D01*
X169217898Y-69929384D01*
X169200773Y-69974748D01*
X169156792Y-70084854D01*
X169109870Y-70162311D01*
X169051883Y-70216481D01*
X168974705Y-70256731D01*
X168946898Y-70267382D01*
X168788556Y-70303063D01*
X168620720Y-70298311D01*
X168555016Y-70286179D01*
X168488710Y-70268647D01*
X168405408Y-70242828D01*
X168313903Y-70211941D01*
X168222991Y-70179205D01*
X168141467Y-70147840D01*
X168078126Y-70121064D01*
X168041761Y-70102097D01*
X168036433Y-70096360D01*
X168055161Y-70082013D01*
X168104530Y-70060912D01*
X168174317Y-70037358D01*
X168182709Y-70034829D01*
X168275756Y-70000986D01*
X168369623Y-69957097D01*
X168432313Y-69920189D01*
X168509477Y-69870193D01*
X168591006Y-69821971D01*
X168629039Y-69801464D01*
X168734465Y-69731868D01*
X168841833Y-69633799D01*
X168940132Y-69519088D01*
X169018352Y-69399566D01*
X169036834Y-69363317D01*
X169089477Y-69214319D01*
X169114607Y-69056386D01*
X169111055Y-68903031D01*
X169086326Y-68791376D01*
X169052296Y-68690183D01*
X169152906Y-68798903D01*
G36*
X126226944Y-70746268D02*
G01*
X126299710Y-70797492D01*
X126376275Y-70844953D01*
X126410080Y-70863292D01*
X126485023Y-70906576D01*
X126544919Y-70951839D01*
X126583313Y-70992890D01*
X126593748Y-71023540D01*
X126586860Y-71032786D01*
X126553045Y-71040686D01*
X126490340Y-71045366D01*
X126412076Y-71046728D01*
X126331580Y-71044674D01*
X126262181Y-71039105D01*
X126237722Y-71035350D01*
X126194783Y-71008030D01*
X126142492Y-70941981D01*
X126115005Y-70897795D01*
X126039750Y-70769391D01*
X126085164Y-70721050D01*
X126130577Y-70672709D01*
X126226944Y-70746268D01*
G37*
X126226944Y-70746268D02*
X126299710Y-70797492D01*
X126376275Y-70844953D01*
X126410080Y-70863292D01*
X126485023Y-70906576D01*
X126544919Y-70951839D01*
X126583313Y-70992890D01*
X126593748Y-71023540D01*
X126586860Y-71032786D01*
X126553045Y-71040686D01*
X126490340Y-71045366D01*
X126412076Y-71046728D01*
X126331580Y-71044674D01*
X126262181Y-71039105D01*
X126237722Y-71035350D01*
X126194783Y-71008030D01*
X126142492Y-70941981D01*
X126115005Y-70897795D01*
X126039750Y-70769391D01*
X126085164Y-70721050D01*
X126130577Y-70672709D01*
X126226944Y-70746268D01*
D11*
X162995600Y-43393600D03*
X162995600Y-52033600D03*
D12*
X168355600Y-43393600D03*
X168355600Y-52033600D03*
D13*
X147876260Y-32979360D03*
D14*
X150418800Y-26390600D03*
D15*
X150418800Y-28930600D03*
D16*
X143682720Y-23665180D03*
D14*
X147878800Y-26390600D03*
D15*
X147878800Y-28930600D03*
X145338800Y-26390600D03*
X145338800Y-28930600D03*
D17*
X107685600Y-78973600D03*
X181365600Y-165763600D03*
D18*
X161965600Y-98543600D03*
D19*
X105805600Y-141873600D03*
X105805600Y-148673600D03*
D20*
X116459100Y-95004466D03*
X114884100Y-95004466D03*
X116459100Y-102048732D03*
X114884100Y-102048732D03*
D21*
X180314500Y-101752400D03*
X181889500Y-101752400D03*
X137239728Y-124155200D03*
X138814728Y-124155200D03*
D20*
X134913100Y-41343600D03*
X133338100Y-41343600D03*
X116433700Y-109093000D03*
X114858700Y-109093000D03*
X165703100Y-41403600D03*
X164128100Y-41403600D03*
X116459100Y-87960200D03*
X114884100Y-87960200D03*
D21*
X130240214Y-124155200D03*
X131815214Y-124155200D03*
X165237784Y-124155200D03*
X166812784Y-124155200D03*
X151238756Y-124155200D03*
X152813756Y-124155200D03*
X123240700Y-124155200D03*
X124815700Y-124155200D03*
X180314500Y-94691200D03*
X181889500Y-94691200D03*
X158238270Y-124155200D03*
X159813270Y-124155200D03*
X180314500Y-87630000D03*
X181889500Y-87630000D03*
D20*
X157022900Y-39217600D03*
X155447900Y-39217600D03*
D22*
X111940600Y-101127340D03*
X111940600Y-97927340D03*
X106690600Y-97927340D03*
X106690600Y-101127340D03*
D23*
X165144382Y-151555382D03*
X159416818Y-145827818D03*
D24*
X165816134Y-147171320D03*
X163800880Y-145156066D03*
X164808507Y-146163693D03*
X160760320Y-152227134D03*
X158745066Y-150211880D03*
X159752693Y-151219507D03*
D25*
X163624103Y-150035103D03*
D26*
X160937097Y-147348097D03*
D27*
X146575942Y-127296000D03*
X143375942Y-127296000D03*
X143375942Y-132546000D03*
X146575942Y-132546000D03*
D22*
X190174320Y-87173400D03*
X190174320Y-83973400D03*
X184924320Y-83973400D03*
X184924320Y-87173400D03*
X190174320Y-94180646D03*
X190174320Y-90980646D03*
X184924320Y-90980646D03*
X184924320Y-94180646D03*
D23*
X136747182Y-151555382D03*
X131019618Y-145827818D03*
D24*
X137418934Y-147171320D03*
X135403680Y-145156066D03*
X136411307Y-146163693D03*
X132363120Y-152227134D03*
X130347866Y-150211880D03*
X131355493Y-151219507D03*
D25*
X135226903Y-150035103D03*
D26*
X132539897Y-147348097D03*
D27*
X174513040Y-127296000D03*
X171313040Y-127296000D03*
X171313040Y-132546000D03*
X174513040Y-132546000D03*
X167528764Y-127296000D03*
X164328764Y-127296000D03*
X164328764Y-132546000D03*
X167528764Y-132546000D03*
X160544490Y-127296000D03*
X157344490Y-127296000D03*
X157344490Y-132546000D03*
X160544490Y-132546000D03*
D22*
X111940600Y-108113600D03*
X111940600Y-104913600D03*
X106690600Y-104913600D03*
X106690600Y-108113600D03*
D27*
X132607394Y-127296000D03*
X129407394Y-127296000D03*
X129407394Y-132546000D03*
X132607394Y-132546000D03*
D22*
X190174320Y-101187892D03*
X190174320Y-97987892D03*
X184924320Y-97987892D03*
X184924320Y-101187892D03*
X190174320Y-108195140D03*
X190174320Y-104995140D03*
X184924320Y-104995140D03*
X184924320Y-108195140D03*
X111940600Y-94141080D03*
X111940600Y-90941080D03*
X106690600Y-90941080D03*
X106690600Y-94141080D03*
D27*
X153560216Y-127296000D03*
X150360216Y-127296000D03*
X150360216Y-132546000D03*
X153560216Y-132546000D03*
X125623120Y-127296000D03*
X122423120Y-127296000D03*
X122423120Y-132546000D03*
X125623120Y-132546000D03*
D22*
X111940600Y-87154820D03*
X111940600Y-83954820D03*
X106690600Y-83954820D03*
X106690600Y-87154820D03*
D27*
X139591668Y-127296000D03*
X136391668Y-127296000D03*
X136391668Y-132546000D03*
X139591668Y-132546000D03*
D28*
X182369460Y-144084040D03*
X184401460Y-144084040D03*
D29*
X183385460Y-151704040D03*
D30*
X188808360Y-149814280D03*
D31*
X190078360Y-149814280D03*
X189008360Y-148544280D03*
X190278360Y-148544280D03*
X188808360Y-147274280D03*
X190078360Y-147274280D03*
X189008360Y-146004280D03*
X190278360Y-146004280D03*
X188808360Y-144734280D03*
X190078360Y-144734280D03*
D21*
X144239242Y-124155200D03*
X145814242Y-124155200D03*
X180263700Y-108813600D03*
X181838700Y-108813600D03*
X172237300Y-124155200D03*
X173812300Y-124155200D03*
D15*
X159664400Y-168656000D03*
X159664400Y-166116000D03*
X157124400Y-168656000D03*
X157124400Y-166116000D03*
X154584400Y-168656000D03*
X154584400Y-166116000D03*
X152044400Y-168656000D03*
X152044400Y-166116000D03*
X149504400Y-168656000D03*
X149504400Y-166116000D03*
X146964400Y-168656000D03*
X146964400Y-166116000D03*
X144424400Y-168656000D03*
X144424400Y-166116000D03*
X141884400Y-168656000D03*
X141884400Y-166116000D03*
X139344400Y-168656000D03*
X139344400Y-166116000D03*
X136804400Y-168656000D03*
D32*
X136804400Y-166116000D03*
M02*
