M48
; DRILL file {KiCad (6.0.5)} date Sun Sep 11 22:53:43 2022
; FORMAT={-:-/ absolute / metric / decimal}
; #@! TF.CreationDate,2022-09-11T22:53:43-06:00
; #@! TF.GenerationSoftware,Kicad,Pcbnew,(6.0.5)
; #@! TF.FileFunction,MixedPlating,1,2
FMAT,2
METRIC
; #@! TA.AperFunction,Plated,PTH,ComponentDrill
T1C0.300
; #@! TA.AperFunction,Plated,PTH,ViaDrill
T2C0.400
; #@! TA.AperFunction,Plated,PTH,ComponentDrill
T3C0.600
; #@! TA.AperFunction,Plated,PTH,ComponentDrill
T4C0.650
; #@! TA.AperFunction,Plated,PTH,ComponentDrill
T5C1.000
; #@! TA.AperFunction,NonPlated,NPTH,ComponentDrill
T6C0.750
; #@! TA.AperFunction,NonPlated,NPTH,ComponentDrill
T7C0.900
; #@! TA.AperFunction,NonPlated,NPTH,ComponentDrill
T8C0.986
; #@! TA.AperFunction,NonPlated,NPTH,ComponentDrill
T9C0.988
; #@! TA.AperFunction,NonPlated,NPTH,ComponentDrill
T10C1.000
; #@! TA.AperFunction,NonPlated,NPTH,ComponentDrill
T11C1.050
; #@! TA.AperFunction,NonPlated,NPTH,ComponentDrill
T12C1.270
; #@! TA.AperFunction,NonPlated,NPTH,ComponentDrill
T13C5.000
%
G90
G05
T1
X126.636Y-69.914
X126.636Y-70.947
X126.636Y-71.98
X126.636Y-73.014
X127.669Y-69.914
X127.669Y-70.947
X127.669Y-71.98
X127.669Y-73.014
X128.702Y-69.914
X128.702Y-70.947
X128.702Y-71.98
X128.702Y-73.014
X129.736Y-69.914
X129.736Y-70.947
X129.736Y-71.98
X129.736Y-73.014
T2
X102.826Y-128.214
X102.826Y-151.084
X103.936Y-120.454
X104.716Y-118.884
X106.544Y-110.074
X106.546Y-106.484
X106.576Y-102.874
X109.426Y-154.134
X109.426Y-155.13
X109.426Y-156.224
X111.186Y-145.994
X111.95Y-99.53
X111.95Y-106.538
X111.956Y-92.565
X111.976Y-85.57
X112.136Y-160.344
X112.146Y-163.074
X112.546Y-112.974
X113.056Y-123.064
X113.056Y-127.444
X113.356Y-112.144
X113.616Y-158.364
X113.976Y-131.664
X113.996Y-103.634
X114.006Y-154.664
X114.136Y-111.404
X114.816Y-141.404
X115.646Y-103.634
X116.166Y-76.274
X116.906Y-158.914
X117.236Y-134.784
X117.476Y-85.574
X117.676Y-141.404
X117.836Y-136.124
X118.236Y-86.434
X118.706Y-136.964
X118.916Y-112.904
X119.126Y-87.254
X119.706Y-137.724
X119.976Y-112.194
X119.996Y-88.054
X120.476Y-115.334
X120.776Y-138.744
X120.786Y-122.614
X120.816Y-80.154
X120.924Y-132.537
X121.466Y-74.614
X121.626Y-107.714
X121.786Y-121.974
X122.526Y-121.274
X123.076Y-102.054
X123.236Y-120.634
X123.236Y-123.284
X123.446Y-94.994
X124.116Y-69.884
X124.286Y-89.684
X124.696Y-74.614
X124.796Y-64.744
X124.806Y-123.274
X125.357Y-150.32
X125.396Y-65.734
X125.476Y-80.154
X125.501Y-157.046
X125.556Y-119.954
X125.786Y-63.984
X126.086Y-89.674
X126.476Y-125.224
X126.736Y-102.904
X126.946Y-80.144
X127.262Y-150.34
X127.326Y-125.794
X127.363Y-157.025
X127.576Y-101.904
X127.666Y-60.364
X127.836Y-76.284
X127.968Y-132.573
X127.995Y-66.423
X128.176Y-135.354
X128.346Y-116.404
X128.483Y-143.844
X128.536Y-101.064
X129.256Y-89.074
X129.576Y-66.244
X129.576Y-100.344
X129.706Y-88.204
X129.986Y-75.274
X130.126Y-143.844
X130.226Y-121.284
X130.236Y-123.274
X130.326Y-115.364
X130.356Y-64.014
X130.916Y-112.214
X131.016Y-64.754
X131.116Y-109.354
X131.166Y-136.234
X132.116Y-108.734
X132.536Y-111.784
X133.266Y-48.174
X133.816Y-143.844
X133.836Y-136.974
X133.976Y-74.914
X134.945Y-132.565
X135.466Y-114.754
X135.466Y-115.794
X136.176Y-103.884
X136.456Y-48.054
X136.456Y-143.844
X136.516Y-137.724
X136.966Y-102.684
X137.246Y-121.964
X137.246Y-123.284
X137.286Y-58.384
X137.546Y-101.894
X137.776Y-144.844
X137.786Y-130.624
X137.786Y-133.434
X138.186Y-101.054
X138.976Y-100.344
X139.046Y-77.424
X139.196Y-143.844
X139.656Y-78.214
X140.266Y-79.114
X140.706Y-161.054
X140.726Y-162.014
X140.936Y-79.904
X141.316Y-138.734
X141.346Y-27.734
X141.576Y-81.284
X141.766Y-87.464
X141.876Y-162.104
X141.938Y-132.552
X142.386Y-116.454
X142.556Y-81.624
X142.796Y-87.484
X142.876Y-57.534
X142.906Y-110.954
X143.106Y-75.184
X143.126Y-68.014
X143.136Y-29.924
X143.316Y-89.074
X143.556Y-92.064
X143.556Y-94.696
X143.556Y-97.244
X143.556Y-99.86
X143.556Y-102.374
X143.556Y-104.754
X143.736Y-110.234
X143.796Y-116.464
X144.326Y-78.574
X144.826Y-59.564
X145.206Y-104.164
X145.206Y-106.174
X145.366Y-88.224
X145.67Y-77.069
X146.076Y-89.544
X146.106Y-98.504
X148.206Y-76.274
X148.226Y-112.894
X148.816Y-132.552
X149.576Y-90.684
X149.616Y-105.914
X150.226Y-142.884
X150.746Y-77.114
X151.126Y-141.024
X151.236Y-120.634
X151.236Y-123.304
X152.176Y-77.454
X152.396Y-29.904
X152.814Y-123.304
X152.816Y-119.954
X153.266Y-75.164
X153.306Y-68.074
X153.706Y-89.544
X153.786Y-116.924
X154.739Y-135.351
X155.041Y-121.938
X155.066Y-115.784
X155.126Y-55.414
X155.446Y-38.124
X155.456Y-32.394
X155.905Y-132.555
X156.246Y-116.414
X156.256Y-122.674
X156.586Y-38.134
X156.596Y-33.064
X156.746Y-143.864
X156.836Y-75.904
X156.976Y-56.824
X157.366Y-108.134
X157.366Y-113.614
X157.646Y-74.064
X158.226Y-121.284
X158.246Y-123.304
X158.616Y-143.864
X158.766Y-70.884
X159.226Y-47.594
X159.575Y-136.233
X160.786Y-118.474
X161.076Y-45.764
X161.076Y-74.074
X161.196Y-44.374
X161.196Y-113.634
X161.276Y-49.324
X161.326Y-48.144
X161.696Y-75.924
X161.939Y-136.97
X162.086Y-56.164
X162.096Y-60.374
X162.386Y-143.864
X162.789Y-132.532
X163.146Y-114.614
X163.486Y-64.314
X163.696Y-147.274
X164.426Y-59.124
X164.426Y-63.604
X164.996Y-75.944
X165.176Y-62.844
X165.206Y-143.864
X165.223Y-137.731
X165.226Y-121.924
X165.226Y-123.264
X165.396Y-48.214
X165.406Y-47.144
X165.766Y-69.124
X166.636Y-77.194
X167.276Y-75.934
X167.306Y-119.204
X167.886Y-74.544
X168.006Y-138.734
X168.046Y-143.864
X169.136Y-115.144
X169.723Y-132.56
X170.716Y-119.204
X171.046Y-70.704
X171.736Y-75.934
X173.386Y-142.754
X173.386Y-146.394
X173.386Y-150.034
X174.116Y-96.494
X174.736Y-103.764
X175.086Y-100.134
X176.006Y-119.544
X176.356Y-121.664
X176.436Y-75.954
X176.566Y-131.204
X176.566Y-150.414
X176.576Y-134.064
X177.266Y-73.654
X177.366Y-127.264
X177.696Y-103.764
X177.716Y-96.504
X177.716Y-100.134
X178.346Y-139.674
X178.386Y-120.224
X178.606Y-112.594
X178.956Y-106.994
X178.956Y-109.444
X179.356Y-118.924
X179.456Y-76.384
X179.776Y-157.684
X179.866Y-122.204
X179.976Y-133.994
X180.166Y-112.594
X180.226Y-147.004
X180.306Y-114.474
X180.314Y-85.675
X180.956Y-74.154
X181.036Y-149.194
X181.486Y-147.894
X181.696Y-74.824
X181.906Y-80.544
X181.976Y-130.204
X182.026Y-125.974
X182.396Y-75.514
X182.486Y-79.684
X182.826Y-126.814
X182.936Y-129.524
X183.066Y-76.234
X183.086Y-78.834
X183.606Y-127.434
X183.746Y-77.974
X183.776Y-76.934
X183.996Y-129.344
X184.676Y-128.094
X185.566Y-112.564
X185.636Y-122.434
X185.686Y-129.674
X186.746Y-129.644
X187.696Y-126.694
X187.806Y-129.644
X187.996Y-121.704
X188.116Y-80.014
X188.156Y-119.714
X188.196Y-140.224
X188.206Y-137.604
X188.236Y-134.974
X188.306Y-81.124
X188.696Y-122.404
X188.816Y-102.524
X188.826Y-88.464
X188.876Y-95.514
X188.966Y-142.114
X189.216Y-120.034
X190.156Y-119.794
X190.176Y-92.504
X190.176Y-99.584
X190.176Y-106.524
X190.776Y-120.744
X191.716Y-81.424
X191.736Y-150.884
X191.745Y-148.544
X191.936Y-83.964
X192.236Y-115.974
X192.256Y-109.314
X192.256Y-112.654
X192.256Y-119.314
T4
X188.808Y-144.734
X188.808Y-147.274
X188.808Y-149.814
X189.008Y-146.004
X189.008Y-148.544
X190.078Y-144.734
X190.078Y-147.274
X190.078Y-149.814
X190.278Y-146.004
X190.278Y-148.544
T5
X136.804Y-166.116
X136.804Y-168.656
X139.344Y-166.116
X139.344Y-168.656
X141.884Y-166.116
X141.884Y-168.656
X144.424Y-166.116
X144.424Y-168.656
X145.339Y-26.391
X145.339Y-28.931
X146.964Y-166.116
X146.964Y-168.656
X147.879Y-26.391
X147.879Y-28.931
X149.504Y-166.116
X149.504Y-168.656
X150.419Y-26.391
X150.419Y-28.931
X152.044Y-166.116
X152.044Y-168.656
X154.584Y-166.116
X154.584Y-168.656
X157.124Y-166.116
X157.124Y-168.656
X159.664Y-166.116
X159.664Y-168.656
T6
X132.54Y-147.348
X160.937Y-147.348
T7
X105.806Y-141.874
X105.806Y-148.674
T8
X182.369Y-144.084
X184.401Y-144.084
T9
X183.385Y-151.704
T11
X135.227Y-150.035
X163.624Y-150.035
T12
X143.683Y-23.665
T3
G00X163.496Y-43.394
M15
G01X162.496Y-43.394
M16
G05
G00X163.496Y-52.034
M15
G01X162.496Y-52.034
M16
G05
G00X169.106Y-43.394
M15
G01X167.606Y-43.394
M16
G05
G00X169.106Y-52.034
M15
G01X167.606Y-52.034
M16
G05
T10
G00X145.876Y-32.979
M15
G01X149.876Y-32.979
M16
G05
T13
G00X161.966Y-87.544
M15
G01X161.966Y-109.544
M16
G05
T0
M30
