G04 #@! TF.GenerationSoftware,KiCad,Pcbnew,(6.0.5)*
G04 #@! TF.CreationDate,2022-09-11T23:28:05-06:00*
G04 #@! TF.ProjectId,purplewizard,70757270-6c65-4776-997a-6172642e6b69,1.1*
G04 #@! TF.SameCoordinates,Original*
G04 #@! TF.FileFunction,Paste,Top*
G04 #@! TF.FilePolarity,Positive*
%FSLAX46Y46*%
G04 Gerber Fmt 4.6, Leading zero omitted, Abs format (unit mm)*
G04 Created by KiCad (PCBNEW (6.0.5)) date 2022-09-11 23:28:05*
%MOMM*%
%LPD*%
G01*
G04 APERTURE LIST*
G04 Aperture macros list*
%AMRoundRect*
0 Rectangle with rounded corners*
0 $1 Rounding radius*
0 $2 $3 $4 $5 $6 $7 $8 $9 X,Y pos of 4 corners*
0 Add a 4 corners polygon primitive as box body*
4,1,4,$2,$3,$4,$5,$6,$7,$8,$9,$2,$3,0*
0 Add four circle primitives for the rounded corners*
1,1,$1+$1,$2,$3*
1,1,$1+$1,$4,$5*
1,1,$1+$1,$6,$7*
1,1,$1+$1,$8,$9*
0 Add four rect primitives between the rounded corners*
20,1,$1+$1,$2,$3,$4,$5,0*
20,1,$1+$1,$4,$5,$6,$7,0*
20,1,$1+$1,$6,$7,$8,$9,0*
20,1,$1+$1,$8,$9,$2,$3,0*%
%AMRotRect*
0 Rectangle, with rotation*
0 The origin of the aperture is its center*
0 $1 length*
0 $2 width*
0 $3 Rotation angle, in degrees counterclockwise*
0 Add horizontal line*
21,1,$1,$2,0,0,$3*%
G04 Aperture macros list end*
%ADD10RoundRect,0.218750X-0.218750X-0.256250X0.218750X-0.256250X0.218750X0.256250X-0.218750X0.256250X0*%
%ADD11RoundRect,0.218750X0.218750X0.256250X-0.218750X0.256250X-0.218750X-0.256250X0.218750X-0.256250X0*%
%ADD12R,1.550000X1.000000*%
%ADD13RotRect,2.000000X1.800000X45.000000*%
%ADD14RotRect,1.350000X1.000000X45.000000*%
%ADD15R,1.000000X1.550000*%
G04 APERTURE END LIST*
D10*
X116459100Y-95004466D03*
X114884100Y-95004466D03*
X116459100Y-102048732D03*
X114884100Y-102048732D03*
D11*
X180314500Y-101752400D03*
X181889500Y-101752400D03*
X137239728Y-124155200D03*
X138814728Y-124155200D03*
D10*
X134913100Y-41343600D03*
X133338100Y-41343600D03*
X116433700Y-109093000D03*
X114858700Y-109093000D03*
X165703100Y-41403600D03*
X164128100Y-41403600D03*
X116459100Y-87960200D03*
X114884100Y-87960200D03*
D11*
X130240214Y-124155200D03*
X131815214Y-124155200D03*
X165237784Y-124155200D03*
X166812784Y-124155200D03*
X151238756Y-124155200D03*
X152813756Y-124155200D03*
X123240700Y-124155200D03*
X124815700Y-124155200D03*
X180314500Y-94691200D03*
X181889500Y-94691200D03*
X158238270Y-124155200D03*
X159813270Y-124155200D03*
X180314500Y-87630000D03*
X181889500Y-87630000D03*
D10*
X157022900Y-39217600D03*
X155447900Y-39217600D03*
D12*
X111940600Y-101127340D03*
X111940600Y-97927340D03*
X106690600Y-97927340D03*
X106690600Y-101127340D03*
D13*
X165144382Y-151555382D03*
X159416818Y-145827818D03*
D14*
X165816134Y-147171320D03*
X163800880Y-145156066D03*
X164808507Y-146163693D03*
X160760320Y-152227134D03*
X158745066Y-150211880D03*
X159752693Y-151219507D03*
D15*
X146575942Y-127296000D03*
X143375942Y-127296000D03*
X143375942Y-132546000D03*
X146575942Y-132546000D03*
D12*
X190174320Y-87173400D03*
X190174320Y-83973400D03*
X184924320Y-83973400D03*
X184924320Y-87173400D03*
X190174320Y-94180646D03*
X190174320Y-90980646D03*
X184924320Y-90980646D03*
X184924320Y-94180646D03*
D13*
X136747182Y-151555382D03*
X131019618Y-145827818D03*
D14*
X137418934Y-147171320D03*
X135403680Y-145156066D03*
X136411307Y-146163693D03*
X132363120Y-152227134D03*
X130347866Y-150211880D03*
X131355493Y-151219507D03*
D15*
X174513040Y-127296000D03*
X171313040Y-127296000D03*
X171313040Y-132546000D03*
X174513040Y-132546000D03*
X167528764Y-127296000D03*
X164328764Y-127296000D03*
X164328764Y-132546000D03*
X167528764Y-132546000D03*
X160544490Y-127296000D03*
X157344490Y-127296000D03*
X157344490Y-132546000D03*
X160544490Y-132546000D03*
D12*
X111940600Y-108113600D03*
X111940600Y-104913600D03*
X106690600Y-104913600D03*
X106690600Y-108113600D03*
D15*
X132607394Y-127296000D03*
X129407394Y-127296000D03*
X129407394Y-132546000D03*
X132607394Y-132546000D03*
D12*
X190174320Y-101187892D03*
X190174320Y-97987892D03*
X184924320Y-97987892D03*
X184924320Y-101187892D03*
X190174320Y-108195140D03*
X190174320Y-104995140D03*
X184924320Y-104995140D03*
X184924320Y-108195140D03*
X111940600Y-94141080D03*
X111940600Y-90941080D03*
X106690600Y-90941080D03*
X106690600Y-94141080D03*
D15*
X153560216Y-127296000D03*
X150360216Y-127296000D03*
X150360216Y-132546000D03*
X153560216Y-132546000D03*
X125623120Y-127296000D03*
X122423120Y-127296000D03*
X122423120Y-132546000D03*
X125623120Y-132546000D03*
D12*
X111940600Y-87154820D03*
X111940600Y-83954820D03*
X106690600Y-83954820D03*
X106690600Y-87154820D03*
D15*
X139591668Y-127296000D03*
X136391668Y-127296000D03*
X136391668Y-132546000D03*
X139591668Y-132546000D03*
D11*
X144239242Y-124155200D03*
X145814242Y-124155200D03*
X180263700Y-108813600D03*
X181838700Y-108813600D03*
X172237300Y-124155200D03*
X173812300Y-124155200D03*
M02*
